%TF.GenerationSoftware,KiCad,Pcbnew,10.0.0*%
%TF.CreationDate,2026-05-24T12:38:56+02:00*%
%TF.ProjectId,hardware_V9,68617264-7761-4726-955f-56392e6b6963,rev?*%
%TF.SameCoordinates,Original*%
%TF.FileFunction,Paste,Bot*%
%TF.FilePolarity,Positive*%
%FSLAX46Y46*%
G04 Gerber Fmt 4.6, Leading zero omitted, Abs format (unit mm)*
G04 Created by KiCad (PCBNEW 10.0.0) date 2026-05-24 12:38:56*
%MOMM*%
%LPD*%
G01*
G04 APERTURE LIST*
G04 Aperture macros list*
%AMRoundRect*
0 Rectangle with rounded corners*
0 $1 Rounding radius*
0 $2 $3 $4 $5 $6 $7 $8 $9 X,Y pos of 4 corners*
0 Add a 4 corners polygon primitive as box body*
4,1,4,$2,$3,$4,$5,$6,$7,$8,$9,$2,$3,0*
0 Add four circle primitives for the rounded corners*
1,1,$1+$1,$2,$3*
1,1,$1+$1,$4,$5*
1,1,$1+$1,$6,$7*
1,1,$1+$1,$8,$9*
0 Add four rect primitives between the rounded corners*
20,1,$1+$1,$2,$3,$4,$5,0*
20,1,$1+$1,$4,$5,$6,$7,0*
20,1,$1+$1,$6,$7,$8,$9,0*
20,1,$1+$1,$8,$9,$2,$3,0*%
%AMRotRect*
0 Rectangle, with rotation*
0 The origin of the aperture is its center*
0 $1 length*
0 $2 width*
0 $3 Rotation angle, in degrees counterclockwise*
0 Add horizontal line*
21,1,$1,$2,0,0,$3*%
%AMOutline5P*
0 Free polygon, 5 corners , with rotation*
0 The origin of the aperture is its center*
0 number of corners: always 5*
0 $1 to $10 corner X, Y*
0 $11 Rotation angle, in degrees counterclockwise*
0 create outline with 5 corners*
4,1,5,$1,$2,$3,$4,$5,$6,$7,$8,$9,$10,$1,$2,$11*%
%AMOutline6P*
0 Free polygon, 6 corners , with rotation*
0 The origin of the aperture is its center*
0 number of corners: always 6*
0 $1 to $12 corner X, Y*
0 $13 Rotation angle, in degrees counterclockwise*
0 create outline with 6 corners*
4,1,6,$1,$2,$3,$4,$5,$6,$7,$8,$9,$10,$11,$12,$1,$2,$13*%
%AMOutline7P*
0 Free polygon, 7 corners , with rotation*
0 The origin of the aperture is its center*
0 number of corners: always 7*
0 $1 to $14 corner X, Y*
0 $15 Rotation angle, in degrees counterclockwise*
0 create outline with 7 corners*
4,1,7,$1,$2,$3,$4,$5,$6,$7,$8,$9,$10,$11,$12,$13,$14,$1,$2,$15*%
%AMOutline8P*
0 Free polygon, 8 corners , with rotation*
0 The origin of the aperture is its center*
0 number of corners: always 8*
0 $1 to $16 corner X, Y*
0 $17 Rotation angle, in degrees counterclockwise*
0 create outline with 8 corners*
4,1,8,$1,$2,$3,$4,$5,$6,$7,$8,$9,$10,$11,$12,$13,$14,$15,$16,$1,$2,$17*%
G04 Aperture macros list end*
%ADD10RoundRect,0.090000X0.139000X0.090000X-0.139000X0.090000X-0.139000X-0.090000X0.139000X-0.090000X0*%
%ADD11RoundRect,0.090000X-0.139000X-0.090000X0.139000X-0.090000X0.139000X0.090000X-0.139000X0.090000X0*%
%ADD12Outline5P,-0.207500X0.150000X0.057500X0.150000X0.207500X0.000000X0.207500X-0.150000X-0.207500X-0.150000X270.000000*%
%ADD13Outline5P,-0.207500X0.150000X0.207500X0.150000X0.207500X0.000000X0.057500X-0.150000X-0.207500X-0.150000X270.000000*%
%ADD14RotRect,0.500000X0.500000X225.000000*%
%ADD15Outline5P,-0.207500X0.150000X0.207500X0.150000X0.207500X-0.150000X-0.057500X-0.150000X-0.207500X0.000000X270.000000*%
%ADD16Outline5P,-0.207500X0.000000X-0.057500X0.150000X0.207500X0.150000X0.207500X-0.150000X-0.207500X-0.150000X270.000000*%
%ADD17R,0.800000X1.200000*%
%ADD18Outline5P,-0.207500X0.150000X0.057500X0.150000X0.207500X0.000000X0.207500X-0.150000X-0.207500X-0.150000X180.000000*%
%ADD19Outline5P,-0.207500X0.150000X0.207500X0.150000X0.207500X0.000000X0.057500X-0.150000X-0.207500X-0.150000X180.000000*%
%ADD20RotRect,0.500000X0.500000X135.000000*%
%ADD21Outline5P,-0.207500X0.150000X0.207500X0.150000X0.207500X-0.150000X-0.057500X-0.150000X-0.207500X0.000000X180.000000*%
%ADD22Outline5P,-0.207500X0.000000X-0.057500X0.150000X0.207500X0.150000X0.207500X-0.150000X-0.207500X-0.150000X180.000000*%
%ADD23RoundRect,0.147500X-0.172500X0.147500X-0.172500X-0.147500X0.172500X-0.147500X0.172500X0.147500X0*%
%ADD24R,1.150000X0.300000*%
%ADD25R,2.000000X1.600000*%
%ADD26R,0.750000X1.800000*%
%ADD27R,0.600000X1.800000*%
%ADD28R,1.300000X0.900000*%
%ADD29RoundRect,0.090000X0.090000X-0.139000X0.090000X0.139000X-0.090000X0.139000X-0.090000X-0.139000X0*%
%ADD30R,1.500000X0.550000*%
%ADD31RoundRect,0.147500X0.172500X-0.147500X0.172500X0.147500X-0.172500X0.147500X-0.172500X-0.147500X0*%
G04 APERTURE END LIST*
D10*
%TO.C,C6*%
X102932500Y-97250000D03*
X102067500Y-97250000D03*
%TD*%
D11*
%TO.C,R26*%
X101637500Y-101400000D03*
X102502500Y-101400000D03*
%TD*%
D12*
%TO.C,U5*%
X103790000Y-95065000D03*
D13*
X104500000Y-95065000D03*
D14*
X104145000Y-95457500D03*
D15*
X104500000Y-95850000D03*
D16*
X103790000Y-95850000D03*
%TD*%
D17*
%TO.C,PA1010D1*%
X115450000Y-106050000D03*
X113850000Y-106050000D03*
X110950000Y-106050000D03*
X109350000Y-106050000D03*
X107750000Y-106050000D03*
X107750000Y-96350000D03*
X109350000Y-96350000D03*
X110950000Y-96350000D03*
X113850000Y-96350000D03*
X115450000Y-96350000D03*
%TD*%
D10*
%TO.C,C1*%
X102900000Y-95100000D03*
X102035000Y-95100000D03*
%TD*%
D18*
%TO.C,U3*%
X105200000Y-97790000D03*
D19*
X105200000Y-98500000D03*
D20*
X104807500Y-98145000D03*
D21*
X104415000Y-98500000D03*
D22*
X104415000Y-97790000D03*
%TD*%
D10*
%TO.C,C3*%
X102925000Y-96100000D03*
X102060000Y-96100000D03*
%TD*%
D23*
%TO.C,LEDGREEN1*%
X98250000Y-106465000D03*
X98250000Y-107435000D03*
%TD*%
D24*
%TO.C,J3*%
X99705000Y-103350000D03*
X99705000Y-102550000D03*
X99705000Y-101250000D03*
X99705000Y-100250000D03*
X99705000Y-99750000D03*
X99705000Y-98750000D03*
X99705000Y-97450000D03*
X99705000Y-96650000D03*
X99705000Y-96950000D03*
X99705000Y-97750000D03*
X99705000Y-98250000D03*
X99705000Y-99250000D03*
X99705000Y-100750000D03*
X99705000Y-101750000D03*
X99705000Y-102250000D03*
X99705000Y-103050000D03*
D25*
X95200000Y-104820000D03*
X95200000Y-95180000D03*
X99130000Y-104820000D03*
X99130000Y-95180000D03*
%TD*%
D26*
%TO.C,S1*%
X106425000Y-94150000D03*
D27*
X107650000Y-94150000D03*
D26*
X108875000Y-94150000D03*
D28*
X105800000Y-92200000D03*
X109500000Y-92200000D03*
%TD*%
D29*
%TO.C,C5*%
X105200000Y-97040000D03*
X105200000Y-96175000D03*
%TD*%
D11*
%TO.C,R22*%
X101017500Y-98230000D03*
X101882500Y-98230000D03*
%TD*%
%TO.C,R23*%
X101667500Y-100700000D03*
X102532500Y-100700000D03*
%TD*%
D26*
%TO.C,S3*%
X112125000Y-94275000D03*
D27*
X113350000Y-94275000D03*
D26*
X114575000Y-94275000D03*
D28*
X111500000Y-92325000D03*
X115200000Y-92325000D03*
%TD*%
D23*
%TO.C,LEDBLUE1*%
X97250000Y-106465000D03*
X97250000Y-107435000D03*
%TD*%
D30*
%TO.C,S2*%
X102100000Y-104775000D03*
X102100000Y-108025000D03*
%TD*%
D31*
%TO.C,LEDRED1*%
X99200000Y-107435000D03*
X99200000Y-106465000D03*
%TD*%
M02*
