M48
; DRILL file KiCad 10.0.0 date 2026-05-24T12:38:52
; FORMAT={-:-/ absolute / metric / decimal}
; #@! TF.CreationDate,2026-05-24T12:38:52+02:00
; #@! TF.GenerationSoftware,Kicad,Pcbnew,10.0.0
; #@! TF.FileFunction,Plated,1,6,PTH
FMAT,2
METRIC
; #@! TA.AperFunction,Plated,PTH,ViaDrill
T1C0.300
; #@! TA.AperFunction,Plated,PTH,ComponentDrill
T2C0.800
; #@! TA.AperFunction,Plated,PTH,ComponentDrill
T3C1.000
%
G90
G05
T1
X94.55Y-100.957
X94.55Y-102.757
X94.55Y-103.65
X94.7Y-93.3
X94.98Y-98.47
X95.0Y-97.625
X95.05Y-94.51
X95.05Y-96.895
X95.1Y-95.45
X95.15Y-101.9
X95.2Y-99.9
X95.2Y-104.82
X95.8Y-97.84
X95.9Y-103.55
X96.14Y-102.93
X96.425Y-108.025
X96.5Y-104.292
X96.6Y-94.95
X96.6Y-96.44
X96.86Y-95.72
X96.9Y-100.625
X97.117Y-99.43
X97.117Y-101.87
X97.15Y-105.108
X97.25Y-108.05
X97.35Y-94.51
X97.35Y-96.895
X97.4Y-91.95
X97.5Y-93.2
X97.58Y-95.72
X97.8Y-100.65
X98.05Y-101.95
X98.087Y-103.662
X98.09Y-97.62
X98.25Y-108.05
X98.6Y-101.3
X98.63Y-99.17
X98.8Y-96.2
X98.925Y-105.35
X99.0Y-108.05
X99.7Y-96.3
X99.8Y-108.05
X99.89Y-97.48
X99.97Y-92.0
X100.0Y-106.25
X100.45Y-105.75
X100.5Y-108.05
X100.55Y-106.95
X100.7Y-102.85
X100.8Y-94.692
X100.85Y-96.3
X100.85Y-96.95
X101.05Y-105.75
X101.525Y-98.775
X101.662Y-101.4
X101.7Y-107.0
X101.757Y-103.35
X102.1Y-101.9
X102.115Y-106.0
X102.275Y-99.925
X102.575Y-103.875
X102.657Y-102.6
X102.7Y-100.8
X103.1Y-99.55
X103.15Y-106.9
X103.15Y-107.65
X103.425Y-98.25
X103.425Y-104.22
X103.7Y-99.55
X103.7Y-101.4
X104.145Y-95.457
X104.4Y-94.75
X104.45Y-99.05
X104.5Y-96.35
X104.807Y-98.145
X105.0Y-102.975
X105.125Y-102.025
X105.15Y-92.5
X105.4Y-95.0
X105.875Y-95.825
X106.45Y-93.8
X106.55Y-96.625
X107.399Y-92.85
X107.75Y-106.05
X107.962Y-92.85
X108.0Y-92.05
X108.425Y-102.0
X108.55Y-105.55
X108.7Y-97.9
X108.85Y-93.8
X108.9Y-100.1
X109.35Y-96.35
X109.35Y-106.05
X109.85Y-94.3
X110.1Y-96.7
X110.9Y-101.2
X111.1Y-94.3
X111.251Y-100.351
X111.251Y-102.049
X111.4Y-103.4
X111.85Y-96.7
X112.0Y-97.9
X112.1Y-100.0
X112.1Y-102.4
X112.4Y-95.8
X112.949Y-100.351
X112.949Y-102.049
X113.0Y-92.285
X113.0Y-98.7
X113.05Y-92.95
X113.1Y-103.4
X113.1Y-104.7
X113.3Y-101.2
X113.7Y-92.292
X113.85Y-96.35
X113.9Y-95.4
X114.25Y-98.485
X114.25Y-100.685
X114.25Y-102.885
X114.692Y-107.6
X114.9Y-100.685
X115.2Y-92.325
X115.2Y-102.45
X115.45Y-96.35
X115.5Y-104.9
X115.507Y-107.6
X116.0Y-94.37
X116.15Y-92.0
X116.15Y-107.95
T2
X109.9Y-107.55
X112.0Y-107.55
T3
X95.5Y-107.0
X96.19Y-93.0
X98.73Y-93.0
X101.27Y-93.0
X103.81Y-93.0
X104.5Y-107.0
M30
