%TF.GenerationSoftware,KiCad,Pcbnew,10.0.0*%
%TF.CreationDate,2026-05-24T12:38:55+02:00*%
%TF.ProjectId,hardware_V9,68617264-7761-4726-955f-56392e6b6963,rev?*%
%TF.SameCoordinates,Original*%
%TF.FileFunction,Copper,L1,Top*%
%TF.FilePolarity,Positive*%
%FSLAX46Y46*%
G04 Gerber Fmt 4.6, Leading zero omitted, Abs format (unit mm)*
G04 Created by KiCad (PCBNEW 10.0.0) date 2026-05-24 12:38:55*
%MOMM*%
%LPD*%
G01*
G04 APERTURE LIST*
G04 Aperture macros list*
%AMRoundRect*
0 Rectangle with rounded corners*
0 $1 Rounding radius*
0 $2 $3 $4 $5 $6 $7 $8 $9 X,Y pos of 4 corners*
0 Add a 4 corners polygon primitive as box body*
4,1,4,$2,$3,$4,$5,$6,$7,$8,$9,$2,$3,0*
0 Add four circle primitives for the rounded corners*
1,1,$1+$1,$2,$3*
1,1,$1+$1,$4,$5*
1,1,$1+$1,$6,$7*
1,1,$1+$1,$8,$9*
0 Add four rect primitives between the rounded corners*
20,1,$1+$1,$2,$3,$4,$5,0*
20,1,$1+$1,$4,$5,$6,$7,0*
20,1,$1+$1,$6,$7,$8,$9,0*
20,1,$1+$1,$8,$9,$2,$3,0*%
%AMRotRect*
0 Rectangle, with rotation*
0 The origin of the aperture is its center*
0 $1 length*
0 $2 width*
0 $3 Rotation angle, in degrees counterclockwise*
0 Add horizontal line*
21,1,$1,$2,0,0,$3*%
%AMOutline5P*
0 Free polygon, 5 corners , with rotation*
0 The origin of the aperture is its center*
0 number of corners: always 5*
0 $1 to $10 corner X, Y*
0 $11 Rotation angle, in degrees counterclockwise*
0 create outline with 5 corners*
4,1,5,$1,$2,$3,$4,$5,$6,$7,$8,$9,$10,$1,$2,$11*%
%AMOutline6P*
0 Free polygon, 6 corners , with rotation*
0 The origin of the aperture is its center*
0 number of corners: always 6*
0 $1 to $12 corner X, Y*
0 $13 Rotation angle, in degrees counterclockwise*
0 create outline with 6 corners*
4,1,6,$1,$2,$3,$4,$5,$6,$7,$8,$9,$10,$11,$12,$1,$2,$13*%
%AMOutline7P*
0 Free polygon, 7 corners , with rotation*
0 The origin of the aperture is its center*
0 number of corners: always 7*
0 $1 to $14 corner X, Y*
0 $15 Rotation angle, in degrees counterclockwise*
0 create outline with 7 corners*
4,1,7,$1,$2,$3,$4,$5,$6,$7,$8,$9,$10,$11,$12,$13,$14,$1,$2,$15*%
%AMOutline8P*
0 Free polygon, 8 corners , with rotation*
0 The origin of the aperture is its center*
0 number of corners: always 8*
0 $1 to $16 corner X, Y*
0 $17 Rotation angle, in degrees counterclockwise*
0 create outline with 8 corners*
4,1,8,$1,$2,$3,$4,$5,$6,$7,$8,$9,$10,$11,$12,$13,$14,$15,$16,$1,$2,$17*%
G04 Aperture macros list end*
%TA.AperFunction,SMDPad,CuDef*%
%ADD10RoundRect,0.100000X-0.100000X0.217500X-0.100000X-0.217500X0.100000X-0.217500X0.100000X0.217500X0*%
%TD*%
%TA.AperFunction,SMDPad,CuDef*%
%ADD11RoundRect,0.062500X0.062500X-0.375000X0.062500X0.375000X-0.062500X0.375000X-0.062500X-0.375000X0*%
%TD*%
%TA.AperFunction,SMDPad,CuDef*%
%ADD12RoundRect,0.062500X0.375000X-0.062500X0.375000X0.062500X-0.375000X0.062500X-0.375000X-0.062500X0*%
%TD*%
%TA.AperFunction,SMDPad,CuDef*%
%ADD13R,1.000000X1.000000*%
%TD*%
%TA.AperFunction,SMDPad,CuDef*%
%ADD14RoundRect,0.100000X0.217500X0.100000X-0.217500X0.100000X-0.217500X-0.100000X0.217500X-0.100000X0*%
%TD*%
%TA.AperFunction,SMDPad,CuDef*%
%ADD15R,0.850000X0.300000*%
%TD*%
%TA.AperFunction,SMDPad,CuDef*%
%ADD16R,0.610000X1.420000*%
%TD*%
%TA.AperFunction,SMDPad,CuDef*%
%ADD17RoundRect,0.100000X-0.217500X-0.100000X0.217500X-0.100000X0.217500X0.100000X-0.217500X0.100000X0*%
%TD*%
%TA.AperFunction,SMDPad,CuDef*%
%ADD18RoundRect,0.100000X0.100000X-0.217500X0.100000X0.217500X-0.100000X0.217500X-0.100000X-0.217500X0*%
%TD*%
%TA.AperFunction,SMDPad,CuDef*%
%ADD19RoundRect,0.140000X-0.170000X0.140000X-0.170000X-0.140000X0.170000X-0.140000X0.170000X0.140000X0*%
%TD*%
%TA.AperFunction,ComponentPad*%
%ADD20C,1.100000*%
%TD*%
%TA.AperFunction,SMDPad,CuDef*%
%ADD21C,0.700000*%
%TD*%
%TA.AperFunction,SMDPad,CuDef*%
%ADD22R,1.100000X0.850000*%
%TD*%
%TA.AperFunction,SMDPad,CuDef*%
%ADD23R,1.100000X0.750000*%
%TD*%
%TA.AperFunction,SMDPad,CuDef*%
%ADD24R,1.000000X1.200000*%
%TD*%
%TA.AperFunction,SMDPad,CuDef*%
%ADD25R,1.350000X1.550000*%
%TD*%
%TA.AperFunction,SMDPad,CuDef*%
%ADD26R,1.350000X1.900000*%
%TD*%
%TA.AperFunction,SMDPad,CuDef*%
%ADD27R,1.800000X1.170000*%
%TD*%
%TA.AperFunction,SMDPad,CuDef*%
%ADD28RoundRect,0.140000X0.170000X-0.140000X0.170000X0.140000X-0.170000X0.140000X-0.170000X-0.140000X0*%
%TD*%
%TA.AperFunction,SMDPad,CuDef*%
%ADD29R,0.240000X0.450000*%
%TD*%
%TA.AperFunction,SMDPad,CuDef*%
%ADD30R,0.500000X0.470000*%
%TD*%
%TA.AperFunction,SMDPad,CuDef*%
%ADD31Outline5P,-0.207500X0.150000X0.207500X0.150000X0.207500X0.000000X0.057500X-0.150000X-0.207500X-0.150000X0.000000*%
%TD*%
%TA.AperFunction,SMDPad,CuDef*%
%ADD32Outline5P,-0.207500X0.150000X0.057500X0.150000X0.207500X0.000000X0.207500X-0.150000X-0.207500X-0.150000X0.000000*%
%TD*%
%TA.AperFunction,SMDPad,CuDef*%
%ADD33RotRect,0.500000X0.500000X45.000000*%
%TD*%
%TA.AperFunction,SMDPad,CuDef*%
%ADD34Outline5P,-0.207500X0.000000X-0.057500X0.150000X0.207500X0.150000X0.207500X-0.150000X-0.207500X-0.150000X0.000000*%
%TD*%
%TA.AperFunction,SMDPad,CuDef*%
%ADD35Outline5P,-0.207500X0.150000X0.207500X0.150000X0.207500X-0.150000X-0.057500X-0.150000X-0.207500X0.000000X0.000000*%
%TD*%
%TA.AperFunction,ComponentPad*%
%ADD36R,1.700000X1.700000*%
%TD*%
%TA.AperFunction,ComponentPad*%
%ADD37C,1.700000*%
%TD*%
%TA.AperFunction,ViaPad*%
%ADD38C,0.400000*%
%TD*%
%TA.AperFunction,Conductor*%
%ADD39C,0.120000*%
%TD*%
%TA.AperFunction,Conductor*%
%ADD40C,0.300000*%
%TD*%
%TA.AperFunction,Conductor*%
%ADD41C,0.200000*%
%TD*%
%TA.AperFunction,Conductor*%
%ADD42C,0.400000*%
%TD*%
G04 APERTURE END LIST*
D10*
%TO.P,C13,1*%
%TO.N,GND*%
X100800000Y-94692500D03*
%TO.P,C13,2*%
%TO.N,+3.3V*%
X100800000Y-95507500D03*
%TD*%
D11*
%TO.P,U1,1,VDD_1*%
%TO.N,+3.3V*%
X96587500Y-103087500D03*
%TO.P,U1,2,PC14_2*%
%TO.N,unconnected-(U1-PC14-Pad2)*%
X97087500Y-103087500D03*
%TO.P,U1,3,PC15_3*%
%TO.N,unconnected-(U1-PC15-Pad3)*%
X97587500Y-103087500D03*
%TO.P,U1,4,NRST_4*%
%TO.N,/NRST*%
X98087500Y-103087500D03*
%TO.P,U1,5,VDDA_5*%
%TO.N,+3.3V*%
X98587500Y-103087500D03*
%TO.P,U1,6,PA0_6*%
%TO.N,/B_PW*%
X99087500Y-103087500D03*
%TO.P,U1,7,PA1_7*%
%TO.N,/ADC_BAT*%
X99587500Y-103087500D03*
%TO.P,U1,8,PA2_8*%
%TO.N,/GPS_RX*%
X100087500Y-103087500D03*
D12*
%TO.P,U1,9,PA3_9*%
%TO.N,/GPS_TX*%
X100775000Y-102400000D03*
%TO.P,U1,10,PA4_10*%
%TO.N,/SPI_CS*%
X100775000Y-101900000D03*
%TO.P,U1,11,PA5_11*%
%TO.N,/SPI_CLK*%
X100775000Y-101400000D03*
%TO.P,U1,12,PA6_12*%
%TO.N,/SPI_MISO*%
X100775000Y-100900000D03*
%TO.P,U1,13,PA7_13*%
%TO.N,/SPI_MOSI*%
X100775000Y-100400000D03*
%TO.P,U1,14,PB0_14*%
%TO.N,/GPS_EN*%
X100775000Y-99900000D03*
%TO.P,U1,15,PB1_15*%
%TO.N,/AUX_EN*%
X100775000Y-99400000D03*
%TO.P,U1,16,VSS_16*%
%TO.N,GND*%
X100775000Y-98900000D03*
D11*
%TO.P,U1,17,VDD_17*%
%TO.N,+3.3V*%
X100087500Y-98212500D03*
%TO.P,U1,18,PA8_18*%
%TO.N,/USB_DETECT*%
X99587500Y-98212500D03*
%TO.P,U1,19,PA9_19*%
%TO.N,/OLED_SCL*%
X99087500Y-98212500D03*
%TO.P,U1,20,PA10_20*%
%TO.N,/OLED_SDA*%
X98587500Y-98212500D03*
%TO.P,U1,21,PA11_21*%
%TO.N,/D-*%
X98087500Y-98212500D03*
%TO.P,U1,22,PA12_22*%
%TO.N,/D+*%
X97587500Y-98212500D03*
%TO.P,U1,23,PA13_23*%
%TO.N,/SWDIO*%
X97087500Y-98212500D03*
%TO.P,U1,24,PA14_24*%
%TO.N,/SWCLK*%
X96587500Y-98212500D03*
D12*
%TO.P,U1,25,PA15_25*%
%TO.N,unconnected-(U1-PA15-Pad25)*%
X95900000Y-98900000D03*
%TO.P,U1,26,PB3_26*%
%TO.N,/GPIO_SUP*%
X95900000Y-99400000D03*
%TO.P,U1,27,PB4_27*%
%TO.N,/SD_DET*%
X95900000Y-99900000D03*
%TO.P,U1,28,PB5_28*%
%TO.N,Net-(U1-PB5)*%
X95900000Y-100400000D03*
%TO.P,U1,29,PB6_29*%
%TO.N,Net-(U1-PB6)*%
X95900000Y-100900000D03*
%TO.P,U1,30,PB7_30*%
%TO.N,unconnected-(U1-PB7-Pad30)*%
X95900000Y-101400000D03*
%TO.P,U1,31,PH3_31*%
%TO.N,/B1*%
X95900000Y-101900000D03*
%TO.P,U1,32,VSS_32*%
%TO.N,GND*%
X95900000Y-102400000D03*
D13*
%TO.P,U1,33,VSS_33*%
X97117500Y-101870000D03*
X99557500Y-101870000D03*
X97117500Y-99430000D03*
X99557500Y-99430000D03*
%TD*%
D14*
%TO.P,C4,1*%
%TO.N,BAT+*%
X102057500Y-108000000D03*
%TO.P,C4,2*%
%TO.N,GND*%
X101242500Y-108000000D03*
%TD*%
D15*
%TO.P,IC5,1,GND_1*%
%TO.N,GND*%
X100000000Y-107450000D03*
%TO.P,IC5,2,~{CHRG}_2*%
%TO.N,Net-(IC5-~{CHRG})*%
X100000000Y-106950000D03*
%TO.P,IC5,3,BAT_3*%
%TO.N,BAT+*%
X100000000Y-106450000D03*
%TO.P,IC5,4,VCC_4*%
%TO.N,vusb*%
X98100000Y-106450000D03*
%TO.P,IC5,5,~{EN}_5*%
%TO.N,GND*%
X98100000Y-106950000D03*
%TO.P,IC5,6,PROG_6*%
%TO.N,Net-(IC5-PROG)*%
X98100000Y-107450000D03*
D16*
%TO.P,IC5,7,EP_7*%
%TO.N,GND*%
X99050000Y-106950000D03*
%TD*%
D17*
%TO.P,R24,1*%
%TO.N,BAT+*%
X114692500Y-107600000D03*
%TO.P,R24,2*%
%TO.N,Net-(PA1010D1-VBACKUP)*%
X115507500Y-107600000D03*
%TD*%
D18*
%TO.P,C29,1*%
%TO.N,vusb*%
X97200000Y-105107500D03*
%TO.P,C29,2*%
%TO.N,GND*%
X97200000Y-104292500D03*
%TD*%
D19*
%TO.P,C19,1*%
%TO.N,GND*%
X101700000Y-94620000D03*
%TO.P,C19,2*%
%TO.N,+3.3V*%
X101700000Y-95580000D03*
%TD*%
D10*
%TO.P,R3,1*%
%TO.N,/USB_DETECT*%
X100100000Y-94692500D03*
%TO.P,R3,2*%
%TO.N,vusb*%
X100100000Y-95507500D03*
%TD*%
D18*
%TO.P,R9,1*%
%TO.N,/B_PW*%
X113000000Y-93100000D03*
%TO.P,R9,2*%
%TO.N,+3.3V*%
X113000000Y-92285000D03*
%TD*%
D10*
%TO.P,R4,1*%
%TO.N,Net-(LEDRED1-A)*%
X96500000Y-104292500D03*
%TO.P,R4,2*%
%TO.N,vusb*%
X96500000Y-105107500D03*
%TD*%
D18*
%TO.P,R16,1*%
%TO.N,GND*%
X100600000Y-105007500D03*
%TO.P,R16,2*%
%TO.N,/ADC_BAT*%
X100600000Y-104192500D03*
%TD*%
D20*
%TO.P,TP1,1,1_1*%
%TO.N,GND*%
X112000000Y-107550000D03*
%TD*%
D21*
%TO.P,TP4,1,1_1*%
%TO.N,/SWDIO*%
X95800000Y-97840000D03*
%TD*%
D18*
%TO.P,C10,1*%
%TO.N,GND*%
X95800000Y-105107500D03*
%TO.P,C10,2*%
%TO.N,+3.3V*%
X95800000Y-104292500D03*
%TD*%
D10*
%TO.P,R18,1*%
%TO.N,/SPI_MOSI*%
X115450000Y-99557500D03*
%TO.P,R18,2*%
%TO.N,3.3V_AUX*%
X115450000Y-98742500D03*
%TD*%
%TO.P,R2,1*%
%TO.N,Net-(U1-PB6)*%
X94550000Y-101942500D03*
%TO.P,R2,2*%
%TO.N,Net-(LEDBLUE1-A)*%
X94550000Y-102757500D03*
%TD*%
D18*
%TO.P,C16,1*%
%TO.N,GND*%
X99300000Y-105107500D03*
%TO.P,C16,2*%
%TO.N,+3.3V*%
X99300000Y-104292500D03*
%TD*%
%TO.P,C27,1*%
%TO.N,GND*%
X97900000Y-105107500D03*
%TO.P,C27,2*%
%TO.N,/NRST*%
X97900000Y-104292500D03*
%TD*%
%TO.P,C15,1*%
%TO.N,GND*%
X98600000Y-105107500D03*
%TO.P,C15,2*%
%TO.N,+3.3V*%
X98600000Y-104292500D03*
%TD*%
%TO.P,C12,1*%
%TO.N,3.3V_GPS*%
X114450000Y-93107500D03*
%TO.P,C12,2*%
%TO.N,GND*%
X114450000Y-92292500D03*
%TD*%
%TO.P,R7,1*%
%TO.N,/B1*%
X107300000Y-93007500D03*
%TO.P,R7,2*%
%TO.N,GND*%
X107300000Y-92192500D03*
%TD*%
D10*
%TO.P,R27,1*%
%TO.N,GND*%
X102550000Y-94692500D03*
%TO.P,R27,2*%
%TO.N,/GPS_EN*%
X102550000Y-95507500D03*
%TD*%
%TO.P,R19,1*%
%TO.N,GND*%
X98600000Y-94692500D03*
%TO.P,R19,2*%
%TO.N,/USB_DETECT*%
X98600000Y-95507500D03*
%TD*%
%TO.P,C8,1*%
%TO.N,/ADC_BAT*%
X101300000Y-104192500D03*
%TO.P,C8,2*%
%TO.N,GND*%
X101300000Y-105007500D03*
%TD*%
D22*
%TO.P,J1,1,DAT2_1*%
%TO.N,unconnected-(J1-DAT2-Pad1)*%
X114250000Y-97385000D03*
%TO.P,J1,2,DAT3/CD_2*%
%TO.N,/SPI_CS*%
X114250000Y-98485000D03*
%TO.P,J1,3,CMD_3*%
%TO.N,/SPI_MOSI*%
X114250000Y-99585000D03*
%TO.P,J1,4,VDD_4*%
%TO.N,3.3V_AUX*%
X114250000Y-100685000D03*
%TO.P,J1,5,CLK_5*%
%TO.N,Net-(J1-CLK)*%
X114250000Y-101785000D03*
%TO.P,J1,6,VSS_6*%
%TO.N,GND*%
X114250000Y-102885000D03*
%TO.P,J1,7,DAT0_7*%
%TO.N,/SPI_MISO*%
X114250000Y-103985000D03*
D23*
%TO.P,J1,8,DAT1_8*%
%TO.N,unconnected-(J1-DAT1-Pad8)*%
X114250000Y-105035000D03*
D24*
%TO.P,J1,9,DET_B_9*%
%TO.N,/SD_DET*%
X108100000Y-94750000D03*
%TO.P,J1,10,DET_A_10*%
%TO.N,GND*%
X104400000Y-94750000D03*
D25*
%TO.P,J1,SH,SHIELD_SH*%
X114125000Y-94925000D03*
D26*
X103425000Y-98250000D03*
X103425000Y-104220000D03*
D27*
X113900000Y-106245000D03*
%TD*%
D18*
%TO.P,C17,1*%
%TO.N,3.3V_AUX*%
X115450000Y-100742500D03*
%TO.P,C17,2*%
%TO.N,GND*%
X115450000Y-101557500D03*
%TD*%
D17*
%TO.P,R15,1*%
%TO.N,/GPS_TX*%
X101842500Y-102600000D03*
%TO.P,R15,2*%
%TO.N,Net-(PA1010D1-TX)*%
X102657500Y-102600000D03*
%TD*%
%TO.P,C2,1*%
%TO.N,+3.3V*%
X101292500Y-106000000D03*
%TO.P,C2,2*%
%TO.N,GND*%
X102107500Y-106000000D03*
%TD*%
D18*
%TO.P,R17,1*%
%TO.N,Net-(IC5-PROG)*%
X96950000Y-107357500D03*
%TO.P,R17,2*%
%TO.N,GND*%
X96950000Y-106542500D03*
%TD*%
D10*
%TO.P,R1,1*%
%TO.N,Net-(U1-PB5)*%
X94550000Y-100142500D03*
%TO.P,R1,2*%
%TO.N,Net-(LEDGREEN1-A)*%
X94550000Y-100957500D03*
%TD*%
D18*
%TO.P,C14,1*%
%TO.N,/USB_DETECT*%
X99300000Y-95507500D03*
%TO.P,C14,2*%
%TO.N,GND*%
X99300000Y-94692500D03*
%TD*%
D20*
%TO.P,TP2,1,1_1*%
%TO.N,BAT+*%
X109900000Y-107550000D03*
%TD*%
D21*
%TO.P,TP3,1,1_1*%
%TO.N,/SWCLK*%
X94980000Y-98470000D03*
%TD*%
D18*
%TO.P,C7,1*%
%TO.N,/B1*%
X106600000Y-93007500D03*
%TO.P,C7,2*%
%TO.N,GND*%
X106600000Y-92192500D03*
%TD*%
D28*
%TO.P,C21,1*%
%TO.N,3.3V_AUX*%
X116000000Y-95330000D03*
%TO.P,C21,2*%
%TO.N,GND*%
X116000000Y-94370000D03*
%TD*%
D18*
%TO.P,C20,1*%
%TO.N,/B_PW*%
X112300000Y-93100000D03*
%TO.P,C20,2*%
%TO.N,GND*%
X112300000Y-92285000D03*
%TD*%
D29*
%TO.P,J2,1,1_1*%
%TO.N,3.3V_AUX*%
X96600000Y-94480000D03*
%TO.P,J2,2,2_2*%
%TO.N,/OLED_SDA*%
X96200000Y-94480000D03*
%TO.P,J2,3,3_3*%
%TO.N,GND*%
X95800000Y-94480000D03*
%TO.P,J2,4,4_4*%
%TO.N,/GPIO_SUP*%
X95800000Y-96930000D03*
%TO.P,J2,5,5_5*%
%TO.N,/OLED_SCL*%
X96200000Y-96930000D03*
%TO.P,J2,6,6_6*%
%TO.N,3.3V_AUX*%
X96600000Y-96930000D03*
D30*
%TO.P,J2,7,7_7*%
%TO.N,GND*%
X97350000Y-94510000D03*
%TO.P,J2,8,8_8*%
X95050000Y-94510000D03*
%TO.P,J2,9,9_9*%
X95050000Y-96900000D03*
%TO.P,J2,10,10_10*%
X97350000Y-96900000D03*
%TD*%
D31*
%TO.P,U2,1,VOUT_1*%
%TO.N,+3.3V*%
X101307500Y-106645000D03*
D32*
%TO.P,U2,2,GND_2*%
%TO.N,GND*%
X101307500Y-107355000D03*
D33*
X101700000Y-107000000D03*
D34*
%TO.P,U2,3,EN_3*%
%TO.N,BAT+*%
X102092500Y-107355000D03*
D35*
%TO.P,U2,4,VIN_4*%
X102092500Y-106645000D03*
%TD*%
D18*
%TO.P,C11,1*%
%TO.N,/SD_DET*%
X108700000Y-93007500D03*
%TO.P,C11,2*%
%TO.N,GND*%
X108700000Y-92192500D03*
%TD*%
%TO.P,R10,1*%
%TO.N,BAT+*%
X102000000Y-105007500D03*
%TO.P,R10,2*%
%TO.N,/ADC_BAT*%
X102000000Y-104192500D03*
%TD*%
%TO.P,R21,1*%
%TO.N,GND*%
X101650000Y-97907500D03*
%TO.P,R21,2*%
%TO.N,/AUX_EN*%
X101650000Y-97092500D03*
%TD*%
D14*
%TO.P,R14,1*%
%TO.N,Net-(PA1010D1-RX)*%
X101757500Y-103350000D03*
%TO.P,R14,2*%
%TO.N,/GPS_RX*%
X100942500Y-103350000D03*
%TD*%
D18*
%TO.P,R13,1*%
%TO.N,/SPI_CS*%
X113700000Y-93107500D03*
%TO.P,R13,2*%
%TO.N,3.3V_AUX*%
X113700000Y-92292500D03*
%TD*%
%TO.P,R25,1*%
%TO.N,/SD_DET*%
X108000000Y-93007500D03*
%TO.P,R25,2*%
%TO.N,3.3V_AUX*%
X108000000Y-92192500D03*
%TD*%
D10*
%TO.P,R20,1*%
%TO.N,/SPI_MISO*%
X115450000Y-103957500D03*
%TO.P,R20,2*%
%TO.N,3.3V_AUX*%
X115450000Y-103142500D03*
%TD*%
D36*
%TO.P,U4,1,GND_1*%
%TO.N,GND*%
X103810000Y-93000000D03*
D37*
%TO.P,U4,2,VCC_2*%
%TO.N,3.3V_AUX*%
X101270000Y-93000000D03*
%TO.P,U4,3,SCK_3*%
%TO.N,/OLED_SCL*%
X98730000Y-93000000D03*
%TO.P,U4,4,SDA_4*%
%TO.N,/OLED_SDA*%
X96190000Y-93000000D03*
%TO.P,U4,5,GND_5*%
%TO.N,GND*%
X104500000Y-107000000D03*
%TO.P,U4,6,GND_6*%
X95500000Y-107000000D03*
%TD*%
D38*
%TO.N,GND*%
X104807500Y-98145000D03*
X111850000Y-96700000D03*
X109850000Y-94300000D03*
X112100000Y-100000000D03*
X95050000Y-96895000D03*
X99000000Y-108050000D03*
X102700000Y-100800000D03*
X111100000Y-94300000D03*
X115200000Y-102450000D03*
X100700000Y-102850000D03*
X111400000Y-103400000D03*
X95100000Y-95450000D03*
X99700000Y-96300000D03*
X97350000Y-96895000D03*
X113100000Y-103400000D03*
X114250000Y-102885000D03*
X101700000Y-107000000D03*
X113900000Y-95400000D03*
X98800000Y-96200000D03*
X95200000Y-104820000D03*
X97117500Y-101870000D03*
X100800000Y-94692500D03*
X115500000Y-104900000D03*
X101525000Y-98775000D03*
X96425000Y-108025000D03*
X97800000Y-100650000D03*
X98925000Y-105350000D03*
X112400000Y-95800000D03*
X113300000Y-101200000D03*
X108700000Y-97900000D03*
X116000000Y-94370000D03*
X96900000Y-100625000D03*
X95050000Y-94510000D03*
X97350000Y-94510000D03*
X100500000Y-108050000D03*
X105125000Y-102025000D03*
X102575000Y-103875000D03*
X115200000Y-92325000D03*
X112948528Y-102048528D03*
X97117500Y-99430000D03*
X94550000Y-103650000D03*
X108550000Y-105550000D03*
X113100000Y-104700000D03*
X97500000Y-93200000D03*
X112000000Y-97900000D03*
X102275000Y-99925000D03*
X104145000Y-95457500D03*
X103425000Y-104220000D03*
X99970000Y-92000000D03*
X99800000Y-108050000D03*
X105875000Y-95825000D03*
X108900000Y-100100000D03*
X116150000Y-107950000D03*
X105000000Y-102975000D03*
X94700000Y-93300000D03*
X104400000Y-94750000D03*
X111251472Y-102048528D03*
X110900000Y-101200000D03*
X105150000Y-92500000D03*
X112100000Y-102400000D03*
X106550000Y-96625000D03*
X111251472Y-100351472D03*
X95000000Y-97625000D03*
X113000000Y-98700000D03*
X112948528Y-100351472D03*
X116150000Y-92000000D03*
X108425000Y-102000000D03*
X102115000Y-106000000D03*
X110100000Y-96700000D03*
X97400000Y-91950000D03*
X103425000Y-98250000D03*
X109350000Y-96350000D03*
%TO.N,+3.3V*%
X100450000Y-105750000D03*
X101050000Y-105750000D03*
X108850000Y-93800000D03*
X95900000Y-103550000D03*
X96140000Y-102930000D03*
X113000000Y-92285000D03*
X106450000Y-93800000D03*
X100850000Y-96300000D03*
X100850000Y-96950000D03*
%TO.N,/NRST*%
X98087500Y-103662500D03*
%TO.N,/B_PW*%
X98050000Y-101950000D03*
X113050000Y-92950000D03*
%TO.N,/SPI_CS*%
X102100000Y-101900000D03*
X114250000Y-98485000D03*
%TO.N,/SPI_CLK*%
X101662500Y-101400000D03*
%TO.N,/GPS_EN*%
X104450000Y-99050000D03*
%TO.N,/AUX_EN*%
X104500000Y-96350000D03*
%TO.N,/OLED_SCL*%
X97580000Y-95720000D03*
%TO.N,/OLED_SDA*%
X96860000Y-95720000D03*
%TO.N,/D-*%
X98090000Y-97620000D03*
%TO.N,/D+*%
X98630000Y-99170000D03*
%TO.N,/SWDIO*%
X95800000Y-97840000D03*
%TO.N,/SWCLK*%
X94980000Y-98470000D03*
%TO.N,/SD_DET*%
X107961876Y-92850000D03*
X95200000Y-99900000D03*
%TO.N,/B1*%
X95150000Y-101900000D03*
X107399448Y-92850000D03*
%TO.N,BAT+*%
X103150000Y-107650000D03*
X103700000Y-99550000D03*
X103150000Y-106900000D03*
X100000000Y-106250000D03*
X103100000Y-99550000D03*
X114692500Y-107600000D03*
%TO.N,Net-(IC5-~{CHRG})*%
X100550000Y-106950000D03*
%TO.N,vusb*%
X99890000Y-97480000D03*
X97150000Y-105107500D03*
X98600000Y-101300000D03*
%TO.N,Net-(PA1010D1-VBACKUP)*%
X113850000Y-96350000D03*
X115507500Y-107600000D03*
%TO.N,Net-(LEDRED1-A)*%
X96500000Y-104292500D03*
%TO.N,3.3V_AUX*%
X96600000Y-96440000D03*
X114250000Y-100685000D03*
X113700000Y-92292500D03*
X114900000Y-100685000D03*
X96600000Y-94950000D03*
X108000000Y-92050000D03*
X105400000Y-95000000D03*
%TO.N,Net-(LEDBLUE1-A)*%
X97250000Y-108050000D03*
X94550000Y-102757500D03*
%TO.N,3.3V_GPS*%
X115450000Y-96350000D03*
%TO.N,Net-(J1-CLK)*%
X103700000Y-101400000D03*
%TO.N,Net-(PA1010D1-TX)*%
X109350000Y-106050000D03*
X102657500Y-102600000D03*
%TO.N,Net-(LEDGREEN1-A)*%
X98250000Y-108050000D03*
X94550000Y-100957500D03*
%TO.N,Net-(PA1010D1-RX)*%
X107750000Y-106050000D03*
X101757500Y-103350000D03*
%TD*%
%TO.N,GND*%
D39*
X100650000Y-105057500D02*
X100600000Y-105007500D01*
X101250000Y-105057500D02*
X100650000Y-105057500D01*
X101300000Y-105007500D02*
X101250000Y-105057500D01*
%TO.N,+3.3V*%
D40*
X100300000Y-105750000D02*
X100000000Y-105450000D01*
X101300000Y-106000000D02*
X101050000Y-105750000D01*
X100000000Y-104550000D02*
X99742500Y-104292500D01*
X100450000Y-105750000D02*
X100300000Y-105750000D01*
X99742500Y-104292500D02*
X98600000Y-104292500D01*
X100000000Y-105450000D02*
X100000000Y-104550000D01*
%TO.N,/NRST*%
D39*
X98087500Y-103087500D02*
X98087500Y-103662500D01*
X98087500Y-103662500D02*
X97850000Y-103900000D01*
X97850000Y-103900000D02*
X97850000Y-104292500D01*
%TO.N,/B_PW*%
X112900000Y-93100000D02*
X113050000Y-92950000D01*
X98350000Y-101950000D02*
X99087500Y-102687500D01*
X112300000Y-93100000D02*
X112900000Y-93100000D01*
X98050000Y-101950000D02*
X98350000Y-101950000D01*
X99087500Y-102687500D02*
X99087500Y-103087500D01*
%TO.N,/ADC_BAT*%
X100100000Y-103900000D02*
X100257500Y-103900000D01*
X101950000Y-104242500D02*
X100650000Y-104242500D01*
X100257500Y-103900000D02*
X100550000Y-104192500D01*
X100550000Y-104192500D02*
X100600000Y-104192500D01*
X102000000Y-104192500D02*
X101950000Y-104242500D01*
X100650000Y-104242500D02*
X100600000Y-104192500D01*
X99587500Y-103387500D02*
X100100000Y-103900000D01*
X99587500Y-103087500D02*
X99587500Y-103387500D01*
%TO.N,/GPS_RX*%
X100942500Y-103350000D02*
X100350000Y-103350000D01*
X100350000Y-103350000D02*
X100087500Y-103087500D01*
%TO.N,/GPS_TX*%
X101500000Y-102600000D02*
X101842500Y-102600000D01*
X100775000Y-102400000D02*
X101300000Y-102400000D01*
X101300000Y-102400000D02*
X101500000Y-102600000D01*
%TO.N,/SPI_CS*%
X113635000Y-98485000D02*
X114250000Y-98485000D01*
X113700000Y-93107500D02*
X113700000Y-93450000D01*
X112900000Y-94250000D02*
X112900000Y-97750000D01*
X112900000Y-97750000D02*
X113635000Y-98485000D01*
X113700000Y-93450000D02*
X112900000Y-94250000D01*
X102100000Y-101900000D02*
X100775000Y-101900000D01*
%TO.N,/SPI_CLK*%
X100775000Y-101400000D02*
X101662500Y-101400000D01*
X100400000Y-101400000D02*
X100775000Y-101400000D01*
X100775000Y-101400000D02*
X100640000Y-101400000D01*
%TO.N,/SPI_MISO*%
X114250000Y-103985000D02*
X115422500Y-103985000D01*
X102100000Y-100900000D02*
X103800000Y-102600000D01*
X109700000Y-102600000D02*
X111085000Y-103985000D01*
X103800000Y-102600000D02*
X109700000Y-102600000D01*
X111085000Y-103985000D02*
X114250000Y-103985000D01*
X100775000Y-100900000D02*
X102100000Y-100900000D01*
X115422500Y-103985000D02*
X115450000Y-103957500D01*
X100775000Y-100900000D02*
X100630000Y-100900000D01*
%TO.N,/SPI_MOSI*%
X115422500Y-99585000D02*
X115450000Y-99557500D01*
X104900000Y-99600000D02*
X114235000Y-99600000D01*
X100650000Y-100400000D02*
X100640000Y-100390000D01*
X114250000Y-99585000D02*
X115422500Y-99585000D01*
X100775000Y-100400000D02*
X100650000Y-100400000D01*
X100775000Y-100400000D02*
X104100000Y-100400000D01*
X114235000Y-99600000D02*
X114250000Y-99585000D01*
X104100000Y-100400000D02*
X104900000Y-99600000D01*
%TO.N,/GPS_EN*%
X103200000Y-95507500D02*
X103592500Y-95900000D01*
X104450000Y-97075000D02*
X102600000Y-97075000D01*
X104900000Y-96150000D02*
X104900000Y-96625000D01*
X104447500Y-98294117D02*
X104450000Y-98296617D01*
X101650000Y-99900000D02*
X100775000Y-99900000D01*
X102550000Y-95507500D02*
X103200000Y-95507500D01*
X104650000Y-95900000D02*
X104900000Y-96150000D01*
X103592500Y-95900000D02*
X104650000Y-95900000D01*
X100775000Y-99900000D02*
X100640000Y-99900000D01*
X102350000Y-99200000D02*
X101650000Y-99900000D01*
X104447500Y-97995883D02*
X104447500Y-98294117D01*
X102600000Y-97075000D02*
X102350000Y-97325000D01*
X104450000Y-97075000D02*
X104450000Y-97300000D01*
X100640000Y-99900000D02*
X100630000Y-99890000D01*
X104450000Y-97300000D02*
X104450000Y-97993383D01*
X104450000Y-98296617D02*
X104450000Y-99050000D01*
X104450000Y-97993383D02*
X104447500Y-97995883D01*
X102350000Y-97325000D02*
X102350000Y-99200000D01*
X104900000Y-96625000D02*
X104450000Y-97075000D01*
%TO.N,/AUX_EN*%
X102050000Y-96900000D02*
X102150000Y-96800000D01*
X102050000Y-98900000D02*
X102050000Y-96900000D01*
X100775000Y-99400000D02*
X101550000Y-99400000D01*
X104350000Y-96450000D02*
X102500000Y-96450000D01*
X104450000Y-96350000D02*
X104350000Y-96450000D01*
X101842500Y-96900000D02*
X102050000Y-96900000D01*
X101650000Y-97092500D02*
X101842500Y-96900000D01*
X104500000Y-96350000D02*
X104450000Y-96350000D01*
X102500000Y-96450000D02*
X102150000Y-96800000D01*
X101550000Y-99400000D02*
X102050000Y-98900000D01*
%TO.N,/USB_DETECT*%
X99300000Y-95507500D02*
X99300000Y-95492500D01*
X99587500Y-97787500D02*
X99300000Y-97500000D01*
X99587500Y-98212500D02*
X99587500Y-97787500D01*
X98600000Y-95507500D02*
X99300000Y-95507500D01*
X99300000Y-97500000D02*
X99300000Y-95507500D01*
X99300000Y-95492500D02*
X100100000Y-94692500D01*
%TO.N,/OLED_SCL*%
X97580000Y-95720000D02*
X97620000Y-95720000D01*
X98900000Y-97700000D02*
X99087500Y-97887500D01*
X97580000Y-95720000D02*
X97180000Y-95320000D01*
X98900000Y-97000000D02*
X98900000Y-97700000D01*
X97620000Y-95720000D02*
X98900000Y-97000000D01*
X96200000Y-95870000D02*
X96200000Y-96925000D01*
X97180000Y-95320000D02*
X96750000Y-95320000D01*
X99087500Y-97887500D02*
X99087500Y-98212500D01*
X96750000Y-95320000D02*
X96200000Y-95870000D01*
%TO.N,/OLED_SDA*%
X96860000Y-95720000D02*
X96860000Y-95940000D01*
X97130000Y-96210000D02*
X97510000Y-96210000D01*
X96860000Y-95940000D02*
X97130000Y-96210000D01*
X97510000Y-96210000D02*
X98587500Y-97287500D01*
X96200000Y-93010000D02*
X96190000Y-93000000D01*
X96200000Y-94475000D02*
X96200000Y-93010000D01*
X98587500Y-97287500D02*
X98587500Y-98212500D01*
%TO.N,/D-*%
D41*
X98090000Y-98210000D02*
X98087500Y-98212500D01*
X98090000Y-97620000D02*
X98090000Y-98210000D01*
%TO.N,/D+*%
X98630000Y-99170000D02*
X98220000Y-99170000D01*
X98220000Y-99170000D02*
X97587500Y-98537500D01*
X97587500Y-98537500D02*
X97587500Y-98212500D01*
%TO.N,/SWDIO*%
D39*
X96150000Y-97370000D02*
X96740000Y-97370000D01*
X95820000Y-97700000D02*
X96150000Y-97370000D01*
X95820000Y-97820000D02*
X95820000Y-97700000D01*
X96740000Y-97370000D02*
X97087500Y-97717500D01*
X97087500Y-97717500D02*
X97087500Y-98212500D01*
X95800000Y-97840000D02*
X95820000Y-97820000D01*
%TO.N,/SWCLK*%
X96537500Y-98212500D02*
X96200000Y-98550000D01*
X96587500Y-98212500D02*
X96537500Y-98212500D01*
X95160000Y-98550000D02*
X95080000Y-98470000D01*
X96200000Y-98550000D02*
X95160000Y-98550000D01*
X95080000Y-98470000D02*
X94980000Y-98470000D01*
%TO.N,/GPIO_SUP*%
X94700000Y-99400000D02*
X94300000Y-99000000D01*
X95900000Y-99400000D02*
X94700000Y-99400000D01*
X95800000Y-96490000D02*
X95800000Y-96925000D01*
X94660000Y-96300000D02*
X95610000Y-96300000D01*
X95610000Y-96300000D02*
X95800000Y-96490000D01*
X94300000Y-99000000D02*
X94300000Y-96660000D01*
X94300000Y-96660000D02*
X94660000Y-96300000D01*
%TO.N,/SD_DET*%
X108000000Y-93007500D02*
X108100000Y-93107500D01*
X107961876Y-92850000D02*
X107961876Y-92907473D01*
X108200000Y-93000000D02*
X108207500Y-93007500D01*
X108010582Y-92996918D02*
X108000000Y-93007500D01*
X107961876Y-92850000D02*
X108010582Y-92898706D01*
X108207500Y-93007500D02*
X108700000Y-93007500D01*
X108010582Y-92898706D02*
X108010582Y-92996918D01*
X108100000Y-93107500D02*
X108100000Y-94750000D01*
X95900000Y-99900000D02*
X95200000Y-99900000D01*
X108054403Y-93000000D02*
X108200000Y-93000000D01*
X107961876Y-92907473D02*
X108054403Y-93000000D01*
%TO.N,Net-(U1-PB5)*%
X95900000Y-100400000D02*
X95050000Y-100400000D01*
X94792500Y-100142500D02*
X94550000Y-100142500D01*
X95050000Y-100400000D02*
X94792500Y-100142500D01*
%TO.N,Net-(U1-PB6)*%
X94550000Y-101800000D02*
X94550000Y-101942500D01*
X95900000Y-100900000D02*
X95450000Y-100900000D01*
X95450000Y-100900000D02*
X94550000Y-101800000D01*
%TO.N,/B1*%
X107399448Y-92984147D02*
X107376095Y-93007500D01*
X107399448Y-92850000D02*
X107399448Y-92984147D01*
X107376095Y-93007500D02*
X106600000Y-93007500D01*
X95150000Y-101900000D02*
X95900000Y-101900000D01*
%TO.N,Net-(IC5-~{CHRG})*%
X100000000Y-106950000D02*
X100550000Y-106950000D01*
%TO.N,vusb*%
D42*
X96500000Y-105107500D02*
X97200000Y-105107500D01*
D41*
X99890000Y-97480000D02*
X100200000Y-97170000D01*
X100200000Y-97170000D02*
X100200000Y-95607500D01*
X100200000Y-95607500D02*
X100100000Y-95507500D01*
%TO.N,Net-(IC5-PROG)*%
D39*
X96950000Y-107357500D02*
X97407500Y-107357500D01*
X97500000Y-107450000D02*
X98100000Y-107450000D01*
X97407500Y-107357500D02*
X97500000Y-107450000D01*
%TO.N,3.3V_AUX*%
D41*
X116042500Y-100742500D02*
X116150000Y-100850000D01*
X96600000Y-96440000D02*
X96600000Y-96925000D01*
D42*
X115322500Y-100742500D02*
X115265000Y-100685000D01*
D41*
X115450000Y-100742500D02*
X116042500Y-100742500D01*
D42*
X115450000Y-100742500D02*
X115322500Y-100742500D01*
D41*
X96600000Y-94475000D02*
X96600000Y-94950000D01*
D42*
X115265000Y-100685000D02*
X114900000Y-100685000D01*
D41*
X116150000Y-102342500D02*
X115450000Y-103042500D01*
X116150000Y-100850000D02*
X116150000Y-102342500D01*
X115450000Y-103042500D02*
X115450000Y-103142500D01*
%TO.N,3.3V_GPS*%
D40*
X115150000Y-94124999D02*
X114450000Y-93424999D01*
X115150000Y-96050000D02*
X115150000Y-94124999D01*
X114450000Y-93424999D02*
X114450000Y-93107500D01*
X115450000Y-96350000D02*
X115150000Y-96050000D01*
%TO.N,Net-(J1-CLK)*%
D39*
X103700000Y-101400000D02*
X109550000Y-101400000D01*
X113450000Y-102150000D02*
X113885000Y-102150000D01*
X109550000Y-101400000D02*
X110950000Y-102800000D01*
X112800000Y-102800000D02*
X113450000Y-102150000D01*
X110950000Y-102800000D02*
X112800000Y-102800000D01*
X113885000Y-102150000D02*
X114250000Y-101785000D01*
%TD*%
%TA.AperFunction,Conductor*%
%TO.N,+3.3V*%
G36*
X96558462Y-102651348D02*
G01*
X96593386Y-102656454D01*
X96608373Y-102660893D01*
X96667062Y-102698806D01*
X96667065Y-102698808D01*
X96668299Y-102700239D01*
X96695586Y-102754986D01*
X96697194Y-102762420D01*
X96700000Y-102788647D01*
X96700000Y-103408170D01*
X96694975Y-103443114D01*
X96690570Y-103458112D01*
X96652827Y-103516855D01*
X96651458Y-103518042D01*
X96596597Y-103545518D01*
X96589039Y-103547163D01*
X96562668Y-103550000D01*
X96200000Y-103550000D01*
X96022535Y-104481688D01*
X96011067Y-104515061D01*
X96003935Y-104528971D01*
X95955834Y-104579643D01*
X95949624Y-104583247D01*
X95887383Y-104600000D01*
X95741830Y-104600000D01*
X95706889Y-104594975D01*
X95691890Y-104590570D01*
X95633144Y-104552827D01*
X95631957Y-104551458D01*
X95604477Y-104496583D01*
X95602832Y-104489021D01*
X95600000Y-104462668D01*
X95600000Y-103950000D01*
X95600965Y-103538794D01*
X95602720Y-102790928D01*
X95607822Y-102756015D01*
X95612264Y-102741019D01*
X95650171Y-102682337D01*
X95651590Y-102681113D01*
X95706451Y-102653827D01*
X95714016Y-102652199D01*
X95740381Y-102649427D01*
X96558462Y-102651348D01*
G37*
%TD.AperFunction*%
%TD*%
%TA.AperFunction,Conductor*%
%TO.N,BAT+*%
G36*
X102183162Y-104703964D02*
G01*
X102212784Y-104711639D01*
X102241898Y-104723277D01*
X102423200Y-104824000D01*
X102483253Y-104857363D01*
X102570134Y-104905630D01*
X102598232Y-104926985D01*
X102611054Y-104939995D01*
X102642995Y-104996805D01*
X102645758Y-105007796D01*
X102649500Y-105038027D01*
X102649500Y-105174042D01*
X102649500Y-105174046D01*
X102649501Y-105179898D01*
X102650000Y-105182407D01*
X102650000Y-105200000D01*
X102653972Y-105202383D01*
X102655331Y-105209213D01*
X102659740Y-105215812D01*
X102660343Y-105218270D01*
X102660934Y-105219313D01*
X102666099Y-105225934D01*
X102671428Y-105233307D01*
X102677540Y-105242455D01*
X102677543Y-105242457D01*
X102700646Y-105257893D01*
X102700647Y-105257894D01*
X102705374Y-105261773D01*
X102705397Y-105261786D01*
X102709614Y-105264313D01*
X102716612Y-105266436D01*
X102716615Y-105266437D01*
X102716661Y-105266451D01*
X102722770Y-105267053D01*
X102732475Y-105268984D01*
X102747489Y-105272963D01*
X102760326Y-105277242D01*
X102766267Y-105277982D01*
X102783713Y-105283749D01*
X102808579Y-105295147D01*
X102887083Y-105342250D01*
X102895454Y-105347745D01*
X102903584Y-105353565D01*
X102911502Y-105359732D01*
X103372727Y-105750000D01*
X103492488Y-105851336D01*
X103515912Y-105877737D01*
X103529499Y-105898343D01*
X103548516Y-105947617D01*
X103548538Y-105947759D01*
X103550000Y-105966744D01*
X103550000Y-106892168D01*
X103549851Y-106898245D01*
X103549500Y-106905398D01*
X103549500Y-107094615D01*
X103549850Y-107101730D01*
X103550000Y-107107823D01*
X103550000Y-108140836D01*
X103544976Y-108175775D01*
X103536371Y-108205077D01*
X103516595Y-108244538D01*
X103447896Y-108336137D01*
X103422920Y-108361069D01*
X103404682Y-108374697D01*
X103352430Y-108397403D01*
X103348903Y-108398038D01*
X103326931Y-108400000D01*
X101914646Y-108400000D01*
X101879705Y-108394975D01*
X101864706Y-108390570D01*
X101805937Y-108352801D01*
X101800410Y-108346423D01*
X101773822Y-108295291D01*
X101756426Y-108225705D01*
X101755542Y-108222171D01*
X101752773Y-108207266D01*
X101750927Y-108192272D01*
X101750000Y-108177130D01*
X101750000Y-107941610D01*
X101755023Y-107906674D01*
X101759427Y-107891676D01*
X101797177Y-107832920D01*
X101798591Y-107831694D01*
X101853342Y-107804246D01*
X101860804Y-107802616D01*
X101887015Y-107799762D01*
X101887017Y-107799759D01*
X101887019Y-107799759D01*
X101886388Y-107441633D01*
X101891349Y-107406694D01*
X101898915Y-107380760D01*
X101927486Y-107330684D01*
X102001070Y-107252193D01*
X102028622Y-107230147D01*
X102050717Y-107217140D01*
X102113622Y-107200000D01*
X102150000Y-107200000D01*
X102150000Y-107030275D01*
X102156023Y-107000000D01*
X102150000Y-106969724D01*
X102150000Y-106900000D01*
X101924288Y-106674288D01*
X101903139Y-106646038D01*
X101897717Y-106636108D01*
X101882864Y-106567838D01*
X101907278Y-106502373D01*
X101963208Y-106460501D01*
X101967087Y-106459054D01*
X101970423Y-106457811D01*
X102013737Y-106450000D01*
X102390757Y-106450000D01*
X102394718Y-106442134D01*
X102600000Y-106100000D01*
X102600000Y-105750000D01*
X102599999Y-105749999D01*
X102599993Y-105749994D01*
X101878746Y-105344294D01*
X101850758Y-105322787D01*
X101837883Y-105309583D01*
X101806324Y-105252923D01*
X101803661Y-105242208D01*
X101800000Y-105212300D01*
X101800000Y-104841829D01*
X101805023Y-104806893D01*
X101809427Y-104791895D01*
X101847172Y-104733144D01*
X101848541Y-104731957D01*
X101903420Y-104704477D01*
X101910979Y-104702833D01*
X101937332Y-104700000D01*
X102152061Y-104700000D01*
X102183162Y-104703964D01*
G37*
%TD.AperFunction*%
%TD*%
%TA.AperFunction,Conductor*%
%TO.N,3.3V_AUX*%
G36*
X116389091Y-94955629D02*
G01*
X116399503Y-94959942D01*
X116439553Y-94999985D01*
X116439556Y-94999992D01*
X116443867Y-95010400D01*
X116443867Y-95028255D01*
X116445189Y-95028254D01*
X116449500Y-100762008D01*
X116445327Y-100786561D01*
X116437453Y-100809005D01*
X116425411Y-100830735D01*
X116281414Y-101010733D01*
X116259325Y-101029327D01*
X116238453Y-101040821D01*
X116202757Y-101050000D01*
X115250000Y-101050000D01*
X115079341Y-101177993D01*
X115058345Y-101188995D01*
X115036727Y-101196202D01*
X115013323Y-101200000D01*
X113795371Y-101200000D01*
X113767053Y-101194367D01*
X113741924Y-101183958D01*
X113717918Y-101167918D01*
X113682081Y-101132081D01*
X113666041Y-101108075D01*
X113655631Y-101082943D01*
X113650000Y-101054629D01*
X113650000Y-100348718D01*
X113655629Y-100320409D01*
X113659943Y-100309994D01*
X113699982Y-100269948D01*
X113710411Y-100265628D01*
X113738719Y-100260000D01*
X114804146Y-100260000D01*
X114812128Y-100254454D01*
X115150000Y-100100000D01*
X115150000Y-100035666D01*
X115155628Y-100007358D01*
X115159823Y-99997231D01*
X115199866Y-99957183D01*
X115249674Y-99954736D01*
X115254449Y-99956184D01*
X115254613Y-99956234D01*
X115265006Y-99961150D01*
X115265037Y-99961078D01*
X115271767Y-99963865D01*
X115271769Y-99963867D01*
X115330252Y-99975500D01*
X115330254Y-99975500D01*
X115569746Y-99975500D01*
X115569748Y-99975500D01*
X115628231Y-99963867D01*
X115694552Y-99919552D01*
X115738867Y-99853231D01*
X115750500Y-99794748D01*
X115750500Y-99320252D01*
X115738867Y-99261769D01*
X115694552Y-99195448D01*
X115665110Y-99175775D01*
X115651774Y-99155815D01*
X115612106Y-99147925D01*
X115598989Y-99145316D01*
X115598988Y-99145315D01*
X115569748Y-99139500D01*
X115330252Y-99139500D01*
X115306857Y-99144152D01*
X115306858Y-99144153D01*
X115271358Y-99151213D01*
X115251689Y-99158250D01*
X115239930Y-99160588D01*
X115184383Y-99149537D01*
X115154682Y-99109487D01*
X115153185Y-99104551D01*
X115150000Y-99083074D01*
X115150000Y-97691248D01*
X115154728Y-97665220D01*
X115163581Y-97641658D01*
X115177162Y-97618957D01*
X115500000Y-97250000D01*
X115500000Y-96719202D01*
X115505632Y-96690886D01*
X115512061Y-96675365D01*
X115543432Y-96639596D01*
X115546422Y-96637869D01*
X115564264Y-96630483D01*
X115565989Y-96630021D01*
X115634511Y-96590460D01*
X115690460Y-96534511D01*
X115730021Y-96465989D01*
X115750499Y-96389564D01*
X115750500Y-96389564D01*
X115750500Y-96310436D01*
X115750499Y-96310435D01*
X115730022Y-96234014D01*
X115730020Y-96234009D01*
X115719420Y-96215649D01*
X115690460Y-96165489D01*
X115634511Y-96109540D01*
X115617689Y-96099828D01*
X115565990Y-96069979D01*
X115565985Y-96069977D01*
X115560370Y-96068472D01*
X115552826Y-96064343D01*
X115551209Y-96062332D01*
X115543311Y-96058140D01*
X115529842Y-96047805D01*
X115503411Y-96008245D01*
X115502518Y-96004912D01*
X115500000Y-95985774D01*
X115500000Y-95038718D01*
X115505629Y-95010409D01*
X115509943Y-94999994D01*
X115549982Y-94959948D01*
X115560411Y-94955628D01*
X115588719Y-94950000D01*
X116360781Y-94950000D01*
X116389091Y-94955629D01*
G37*
%TD.AperFunction*%
%TD*%
%TA.AperFunction,Conductor*%
%TO.N,+3.3V*%
G36*
X101408079Y-105554845D02*
G01*
X101433216Y-105563012D01*
X101467329Y-105582239D01*
X101603845Y-105700138D01*
X101623827Y-105723797D01*
X101635694Y-105743403D01*
X101650000Y-105794666D01*
X101650000Y-106443311D01*
X101645154Y-106473904D01*
X101637607Y-106497131D01*
X101613457Y-106536542D01*
X101390082Y-106759917D01*
X101365025Y-106778121D01*
X101343267Y-106789208D01*
X101298320Y-106800000D01*
X101214680Y-106800000D01*
X101184087Y-106795154D01*
X101171401Y-106791032D01*
X101121901Y-106755068D01*
X101121894Y-106755058D01*
X101118900Y-106750936D01*
X101100000Y-106692756D01*
X101100000Y-106500000D01*
X100700000Y-106050000D01*
X100500407Y-106050000D01*
X100469812Y-106045154D01*
X100443408Y-106036574D01*
X100412158Y-106019726D01*
X100327779Y-105952223D01*
X100266145Y-105902915D01*
X100245283Y-105880020D01*
X100237370Y-105867990D01*
X100221116Y-105810906D01*
X100221433Y-105799193D01*
X100226475Y-105770573D01*
X100272481Y-105632559D01*
X100286747Y-105605080D01*
X100294798Y-105594174D01*
X100344210Y-105558706D01*
X100356611Y-105554728D01*
X100386842Y-105550000D01*
X101377488Y-105550000D01*
X101408079Y-105554845D01*
G37*
%TD.AperFunction*%
%TD*%
%TA.AperFunction,Conductor*%
%TO.N,vusb*%
G36*
X97265908Y-104804843D02*
G01*
X97278595Y-104808966D01*
X97328095Y-104844927D01*
X97328096Y-104844928D01*
X97331091Y-104849050D01*
X97350000Y-104907240D01*
X97347080Y-104916227D01*
X97349835Y-105404289D01*
X97350000Y-105404545D01*
X97975551Y-105688887D01*
X97990963Y-105697635D01*
X98005374Y-105707621D01*
X98018984Y-105718984D01*
X98509917Y-106209917D01*
X98528122Y-106234975D01*
X98539209Y-106256734D01*
X98550000Y-106301680D01*
X98550000Y-106485319D01*
X98545154Y-106515912D01*
X98541032Y-106528598D01*
X98505080Y-106578089D01*
X98500959Y-106581084D01*
X98442771Y-106600000D01*
X97753954Y-106600000D01*
X97723360Y-106595154D01*
X97698958Y-106587225D01*
X97662957Y-106566325D01*
X97293196Y-106230177D01*
X97284779Y-106221531D01*
X97276949Y-106212440D01*
X97269645Y-106202832D01*
X97230602Y-106144398D01*
X97230600Y-106144396D01*
X97147743Y-106089035D01*
X97147738Y-106089033D01*
X97147726Y-106089030D01*
X97146399Y-106088766D01*
X97130798Y-106084306D01*
X97115754Y-106078634D01*
X97101077Y-106071676D01*
X96362967Y-105644349D01*
X96338920Y-105624828D01*
X96326216Y-105610685D01*
X96303015Y-105565043D01*
X96302147Y-105560950D01*
X96300000Y-105540440D01*
X96300000Y-104914680D01*
X96304843Y-104884094D01*
X96308965Y-104871405D01*
X96344923Y-104821906D01*
X96345522Y-104821471D01*
X96349063Y-104818900D01*
X96407243Y-104800000D01*
X97235320Y-104800000D01*
X97265908Y-104804843D01*
G37*
%TD.AperFunction*%
%TD*%
%TA.AperFunction,Conductor*%
%TO.N,+3.3V*%
G36*
X98615908Y-102654843D02*
G01*
X98628595Y-102658966D01*
X98678095Y-102694927D01*
X98678096Y-102694928D01*
X98681091Y-102699050D01*
X98700000Y-102757240D01*
X98697050Y-102766319D01*
X98699886Y-103599849D01*
X98700000Y-103600000D01*
X99050000Y-103700000D01*
X99385320Y-103700000D01*
X99415908Y-103704843D01*
X99428595Y-103708966D01*
X99478095Y-103744927D01*
X99478096Y-103744928D01*
X99481091Y-103749050D01*
X99500000Y-103807240D01*
X99500000Y-104485319D01*
X99495154Y-104515912D01*
X99491032Y-104528598D01*
X99455080Y-104578089D01*
X99450959Y-104581084D01*
X99392771Y-104600000D01*
X98514680Y-104600000D01*
X98484087Y-104595154D01*
X98471401Y-104591032D01*
X98421901Y-104555068D01*
X98421894Y-104555058D01*
X98418900Y-104550936D01*
X98400000Y-104492756D01*
X98400000Y-103861795D01*
X98403374Y-103836170D01*
X98405265Y-103829110D01*
X98411148Y-103807158D01*
X98413301Y-103800818D01*
X98414111Y-103797791D01*
X98414114Y-103797788D01*
X98438000Y-103708644D01*
X98438000Y-103616356D01*
X98414114Y-103527212D01*
X98414113Y-103527210D01*
X98413953Y-103526612D01*
X98411272Y-103518306D01*
X98403372Y-103488822D01*
X98400000Y-103463203D01*
X98400000Y-102764680D01*
X98404843Y-102734094D01*
X98408965Y-102721405D01*
X98444923Y-102671906D01*
X98445522Y-102671471D01*
X98449063Y-102668900D01*
X98507243Y-102650000D01*
X98585320Y-102650000D01*
X98615908Y-102654843D01*
G37*
%TD.AperFunction*%
%TD*%
%TA.AperFunction,Conductor*%
%TO.N,+3.3V*%
G36*
X101865231Y-95171649D02*
G01*
X101900152Y-95176717D01*
X101915152Y-95181143D01*
X101973875Y-95218991D01*
X101975212Y-95220538D01*
X102002500Y-95274984D01*
X102004075Y-95282145D01*
X102006968Y-95308061D01*
X102009548Y-95752261D01*
X102004728Y-95787226D01*
X101998195Y-95809962D01*
X101971429Y-95858398D01*
X101970095Y-95859889D01*
X101955311Y-95873903D01*
X101300000Y-96400000D01*
X101285426Y-97445022D01*
X101279916Y-97479884D01*
X101271455Y-97507280D01*
X101247077Y-97551443D01*
X100320170Y-98631537D01*
X100293609Y-98654776D01*
X100273520Y-98667823D01*
X100222059Y-98686783D01*
X100220606Y-98686973D01*
X100200883Y-98687966D01*
X100069538Y-98684103D01*
X100034766Y-98678056D01*
X100019900Y-98673212D01*
X99962258Y-98633726D01*
X99962248Y-98633714D01*
X99960726Y-98631849D01*
X99935119Y-98577343D01*
X99933827Y-98570764D01*
X99931511Y-98545476D01*
X99938913Y-97886655D01*
X99944326Y-97851791D01*
X99949941Y-97833432D01*
X99983452Y-97779485D01*
X99990574Y-97772770D01*
X100013635Y-97755606D01*
X100074511Y-97720460D01*
X100130460Y-97664511D01*
X100170021Y-97595989D01*
X100184934Y-97540331D01*
X100191279Y-97522332D01*
X100195613Y-97512518D01*
X100195615Y-97512519D01*
X100210637Y-97478510D01*
X100229463Y-97448452D01*
X100359957Y-97294480D01*
X100363332Y-97290659D01*
X100366758Y-97286938D01*
X100370296Y-97283254D01*
X100371986Y-97281563D01*
X100374414Y-97277861D01*
X100375291Y-97276698D01*
X100379676Y-97271212D01*
X100450000Y-97188236D01*
X100450000Y-95632603D01*
X100451967Y-95610607D01*
X100455844Y-95589107D01*
X100461685Y-95567808D01*
X100573651Y-95267494D01*
X100590554Y-95236528D01*
X100599926Y-95224004D01*
X100655846Y-95182129D01*
X100667037Y-95177954D01*
X100710540Y-95170131D01*
X101865231Y-95171649D01*
G37*
%TD.AperFunction*%
%TD*%
%TA.AperFunction,Conductor*%
%TO.N,GND*%
G36*
X101464790Y-97496749D02*
G01*
X101468179Y-97498153D01*
X101468204Y-97498158D01*
X101468213Y-97498159D01*
X101471768Y-97498866D01*
X101471769Y-97498867D01*
X101478914Y-97500288D01*
X101478915Y-97500289D01*
X101530252Y-97510500D01*
X101769748Y-97510500D01*
X101769749Y-97510500D01*
X101775589Y-97509338D01*
X101786628Y-97507141D01*
X101815499Y-97507141D01*
X101826549Y-97509338D01*
X101873639Y-97540801D01*
X101877027Y-97545871D01*
X101889500Y-97586986D01*
X101889500Y-98788148D01*
X101883867Y-98816464D01*
X101873459Y-98841594D01*
X101857418Y-98865600D01*
X101544693Y-99178326D01*
X101492367Y-99200000D01*
X101260055Y-99200000D01*
X101218944Y-99187529D01*
X101213599Y-99183958D01*
X101213598Y-99183957D01*
X101213597Y-99183957D01*
X101184966Y-99178262D01*
X101166052Y-99174500D01*
X101166050Y-99174500D01*
X100383948Y-99174500D01*
X100352249Y-99180804D01*
X100352250Y-99180805D01*
X100336402Y-99183957D01*
X100336400Y-99183957D01*
X100336400Y-99183958D01*
X100331054Y-99187529D01*
X100289944Y-99200000D01*
X100200000Y-99200000D01*
X100200000Y-102426000D01*
X100178326Y-102478326D01*
X100126000Y-102500000D01*
X99157633Y-102500000D01*
X99105307Y-102478326D01*
X98792591Y-102165610D01*
X98440915Y-101813934D01*
X98440913Y-101813933D01*
X98440910Y-101813931D01*
X98406360Y-101799620D01*
X98406359Y-101799620D01*
X98381925Y-101789500D01*
X98359841Y-101789500D01*
X98331524Y-101783867D01*
X98306394Y-101773458D01*
X98282389Y-101757417D01*
X98234515Y-101709542D01*
X98234513Y-101709540D01*
X98183865Y-101680299D01*
X98168539Y-101668539D01*
X98100000Y-101600000D01*
X97750000Y-101600000D01*
X97750000Y-101908568D01*
X97749500Y-101910435D01*
X97749500Y-101989564D01*
X97750000Y-101991430D01*
X97750000Y-102419348D01*
X97728326Y-102471674D01*
X97672174Y-102527826D01*
X97619848Y-102549500D01*
X97508942Y-102549500D01*
X97507479Y-102549644D01*
X97500232Y-102550000D01*
X97174768Y-102550000D01*
X97167521Y-102549644D01*
X97166058Y-102549500D01*
X97166052Y-102549500D01*
X97008948Y-102549500D01*
X97008942Y-102549500D01*
X97007479Y-102549644D01*
X97000232Y-102550000D01*
X96674761Y-102550000D01*
X96674288Y-102549998D01*
X96668365Y-102549960D01*
X96666052Y-102549500D01*
X96596334Y-102549500D01*
X96596021Y-102549498D01*
X96595928Y-102549458D01*
X96585790Y-102548722D01*
X96581836Y-102548144D01*
X96573732Y-102546959D01*
X96573729Y-102546958D01*
X96573724Y-102546958D01*
X96558710Y-102545848D01*
X96558704Y-102545847D01*
X96558710Y-102545847D01*
X95757551Y-102543966D01*
X95740629Y-102543927D01*
X95740628Y-102543927D01*
X95740620Y-102543927D01*
X95729339Y-102544505D01*
X95729329Y-102544506D01*
X95703010Y-102547273D01*
X95691832Y-102549057D01*
X95684256Y-102550687D01*
X95684254Y-102550688D01*
X95659471Y-102559365D01*
X95604610Y-102586650D01*
X95604608Y-102586651D01*
X95582685Y-102601222D01*
X95582684Y-102601223D01*
X95581265Y-102602446D01*
X95581259Y-102602453D01*
X95561554Y-102625089D01*
X95523646Y-102683771D01*
X95511107Y-102711056D01*
X95506667Y-102726048D01*
X95506658Y-102726081D01*
X95503431Y-102740757D01*
X95498330Y-102775662D01*
X95497219Y-102790688D01*
X95495133Y-103680151D01*
X95494500Y-103949752D01*
X95494500Y-104462668D01*
X95494501Y-104462686D01*
X95495104Y-104473941D01*
X95495104Y-104473945D01*
X95497936Y-104500296D01*
X95497939Y-104500316D01*
X95498546Y-104504061D01*
X95498975Y-104507105D01*
X95499500Y-104511490D01*
X95499500Y-104529748D01*
X95504434Y-104554552D01*
X95504990Y-104557349D01*
X95504991Y-104557354D01*
X95511132Y-104588231D01*
X95511133Y-104588232D01*
X95532887Y-104620788D01*
X95555446Y-104654550D01*
X95555448Y-104654552D01*
X95599560Y-104684027D01*
X95613095Y-104693071D01*
X95615712Y-104694820D01*
X95615712Y-104694821D01*
X95618539Y-104697140D01*
X95618562Y-104697153D01*
X95621247Y-104698762D01*
X95621765Y-104698865D01*
X95621767Y-104698866D01*
X95621768Y-104698866D01*
X95621769Y-104698867D01*
X95628914Y-104700288D01*
X95628915Y-104700289D01*
X95680252Y-104710500D01*
X95923383Y-104710500D01*
X95923383Y-104712816D01*
X95970922Y-104727183D01*
X95980884Y-104737061D01*
X96127348Y-104912818D01*
X96144500Y-104960191D01*
X96144500Y-105540451D01*
X96145344Y-105556617D01*
X96147492Y-105577143D01*
X96150029Y-105593205D01*
X96150030Y-105593209D01*
X96150898Y-105597302D01*
X96150899Y-105597307D01*
X96150900Y-105597308D01*
X96164393Y-105635499D01*
X96164394Y-105635502D01*
X96164396Y-105635506D01*
X96187597Y-105681148D01*
X96187599Y-105681152D01*
X96187602Y-105681156D01*
X96210523Y-105714584D01*
X96210542Y-105714609D01*
X96223226Y-105728729D01*
X96223230Y-105728733D01*
X96223234Y-105728737D01*
X96223237Y-105728740D01*
X96240915Y-105745556D01*
X96264962Y-105765077D01*
X96285056Y-105778923D01*
X97023166Y-106206250D01*
X97028714Y-106209164D01*
X97034466Y-106212187D01*
X97049141Y-106219144D01*
X97055765Y-106221957D01*
X97060896Y-106224136D01*
X97070153Y-106227626D01*
X97073948Y-106229057D01*
X97088951Y-106236769D01*
X97106250Y-106248327D01*
X97126668Y-106268744D01*
X97140351Y-106289222D01*
X97145854Y-106296938D01*
X97153158Y-106306546D01*
X97159126Y-106313920D01*
X97166956Y-106323011D01*
X97173358Y-106330001D01*
X97175832Y-106332542D01*
X97181791Y-106338663D01*
X97183443Y-106340259D01*
X97188595Y-106345237D01*
X97198217Y-106353984D01*
X97558349Y-106681379D01*
X97558357Y-106681386D01*
X97584869Y-106700794D01*
X97584874Y-106700797D01*
X97584886Y-106700806D01*
X97614858Y-106718206D01*
X97620892Y-106721709D01*
X97620896Y-106721711D01*
X97637140Y-106728966D01*
X97650904Y-106735114D01*
X97675306Y-106743043D01*
X97675309Y-106743043D01*
X97675310Y-106743044D01*
X97699020Y-106748736D01*
X97699025Y-106748737D01*
X97699033Y-106748739D01*
X97699035Y-106748739D01*
X97699043Y-106748741D01*
X97716406Y-106751490D01*
X97729627Y-106753585D01*
X97753954Y-106755500D01*
X98442770Y-106755500D01*
X98442771Y-106755500D01*
X98490845Y-106747882D01*
X98549033Y-106728966D01*
X98592378Y-106706873D01*
X98596499Y-106703878D01*
X98630889Y-106669481D01*
X98666841Y-106619990D01*
X98688921Y-106576651D01*
X98693043Y-106563965D01*
X98698739Y-106540240D01*
X98703585Y-106509647D01*
X98705500Y-106485319D01*
X98705500Y-106301680D01*
X98701203Y-106265378D01*
X98690412Y-106220432D01*
X98690411Y-106220429D01*
X98690410Y-106220425D01*
X98677762Y-106186142D01*
X98677761Y-106186140D01*
X98677760Y-106186137D01*
X98666673Y-106164378D01*
X98653926Y-106143577D01*
X98653913Y-106143559D01*
X98635732Y-106118533D01*
X98635726Y-106118526D01*
X98635721Y-106118519D01*
X98619872Y-106099962D01*
X98128939Y-105609029D01*
X98128929Y-105609020D01*
X98128905Y-105608997D01*
X98118649Y-105599623D01*
X98105040Y-105588261D01*
X98105033Y-105588255D01*
X98093941Y-105579808D01*
X98086735Y-105574815D01*
X98079532Y-105569823D01*
X98067720Y-105562399D01*
X98062733Y-105559569D01*
X98052311Y-105553653D01*
X98052300Y-105553647D01*
X98052287Y-105553640D01*
X98039943Y-105547348D01*
X98039926Y-105547340D01*
X98039897Y-105547325D01*
X97614752Y-105354076D01*
X97547881Y-105323680D01*
X97509215Y-105282296D01*
X97504504Y-105256735D01*
X97502578Y-104915349D01*
X97502577Y-104915349D01*
X97502487Y-104899351D01*
X97502450Y-104899284D01*
X97500500Y-104890959D01*
X97500500Y-104870252D01*
X97488867Y-104811769D01*
X97485680Y-104807000D01*
X97472763Y-104787668D01*
X97468367Y-104780169D01*
X97456890Y-104757646D01*
X97453895Y-104753524D01*
X97419492Y-104719123D01*
X97393844Y-104700490D01*
X97369992Y-104683161D01*
X97326654Y-104661078D01*
X97326655Y-104661078D01*
X97313978Y-104656959D01*
X97313944Y-104656949D01*
X97290252Y-104651262D01*
X97290236Y-104651258D01*
X97290225Y-104651256D01*
X97290217Y-104651254D01*
X97290204Y-104651252D01*
X97259645Y-104646413D01*
X97235321Y-104644500D01*
X97235320Y-104644500D01*
X96867843Y-104644500D01*
X96815517Y-104622826D01*
X96793843Y-104570500D01*
X96795264Y-104556069D01*
X96800500Y-104529748D01*
X96800500Y-104074000D01*
X96822174Y-104021674D01*
X96874500Y-104000000D01*
X97525500Y-104000000D01*
X97577826Y-104021674D01*
X97599500Y-104074000D01*
X97599500Y-104529748D01*
X97604434Y-104554552D01*
X97611133Y-104588232D01*
X97632887Y-104620788D01*
X97636741Y-104626555D01*
X97636742Y-104626558D01*
X97655447Y-104654551D01*
X97655448Y-104654552D01*
X97699560Y-104684027D01*
X97713095Y-104693071D01*
X97715712Y-104694820D01*
X97715712Y-104694821D01*
X97718539Y-104697140D01*
X97718562Y-104697153D01*
X97721247Y-104698762D01*
X97721765Y-104698865D01*
X97721767Y-104698866D01*
X97721768Y-104698866D01*
X97721769Y-104698867D01*
X97728914Y-104700288D01*
X97728915Y-104700289D01*
X97780252Y-104710500D01*
X97780254Y-104710500D01*
X98019746Y-104710500D01*
X98019748Y-104710500D01*
X98078231Y-104698867D01*
X98078232Y-104698866D01*
X98144552Y-104654552D01*
X98162216Y-104628116D01*
X98209306Y-104596650D01*
X98264855Y-104607699D01*
X98289682Y-104635640D01*
X98293079Y-104642310D01*
X98293090Y-104642327D01*
X98296075Y-104646438D01*
X98296088Y-104646452D01*
X98330490Y-104680861D01*
X98330501Y-104680871D01*
X98379997Y-104716832D01*
X98380000Y-104716834D01*
X98423348Y-104738921D01*
X98436034Y-104743043D01*
X98459759Y-104748739D01*
X98490352Y-104753585D01*
X98514680Y-104755500D01*
X99392770Y-104755500D01*
X99392771Y-104755500D01*
X99440845Y-104747882D01*
X99499033Y-104728966D01*
X99499032Y-104728966D01*
X99501799Y-104728067D01*
X99502276Y-104729535D01*
X99554293Y-104729515D01*
X99594356Y-104769549D01*
X99600000Y-104797893D01*
X99600000Y-105345904D01*
X99599547Y-105354076D01*
X99504477Y-106209691D01*
X99499766Y-106228677D01*
X99496857Y-106236049D01*
X99480331Y-106260786D01*
X99480330Y-106260788D01*
X99475659Y-106284271D01*
X99474746Y-106288867D01*
X99474500Y-106290102D01*
X99474500Y-106292717D01*
X99474500Y-106609901D01*
X99480329Y-106639213D01*
X99485298Y-106646649D01*
X99496348Y-106673327D01*
X99500099Y-106692187D01*
X99489051Y-106747733D01*
X99480332Y-106760782D01*
X99480329Y-106760791D01*
X99474500Y-106790099D01*
X99474500Y-107109901D01*
X99480328Y-107139209D01*
X99480330Y-107139213D01*
X99480330Y-107139214D01*
X99480331Y-107139215D01*
X99502540Y-107172454D01*
X99502543Y-107172457D01*
X99535787Y-107194669D01*
X99565101Y-107200500D01*
X100353307Y-107200499D01*
X100372454Y-107203019D01*
X100390642Y-107207892D01*
X100408481Y-107215282D01*
X100421509Y-107222803D01*
X100431950Y-107228832D01*
X100433724Y-107229933D01*
X100434008Y-107230019D01*
X100434011Y-107230021D01*
X100434012Y-107230021D01*
X100434014Y-107230022D01*
X100434042Y-107230029D01*
X100435148Y-107230365D01*
X100441507Y-107232290D01*
X100443422Y-107232543D01*
X100472217Y-107240259D01*
X100472223Y-107240259D01*
X100472224Y-107240260D01*
X100505748Y-107249243D01*
X100509451Y-107250500D01*
X100589564Y-107250500D01*
X100596973Y-107250500D01*
X100600884Y-107247941D01*
X100604725Y-107246436D01*
X100665989Y-107230021D01*
X100706791Y-107206463D01*
X100711978Y-107204432D01*
X100722571Y-107204637D01*
X100745110Y-107199592D01*
X100750000Y-107200000D01*
X100750001Y-107199999D01*
X100756220Y-107194669D01*
X100827368Y-107133685D01*
X101084467Y-106913315D01*
X101132625Y-106895500D01*
X101142766Y-106895500D01*
X101160043Y-106897545D01*
X101167581Y-106899355D01*
X101198174Y-106904201D01*
X101212616Y-106905337D01*
X101214679Y-106905500D01*
X101214680Y-106905500D01*
X101298319Y-106905500D01*
X101298320Y-106905500D01*
X101322951Y-106902584D01*
X101334146Y-106899896D01*
X101343939Y-106897545D01*
X101361215Y-106895500D01*
X101374897Y-106895500D01*
X101374898Y-106895500D01*
X101404213Y-106889668D01*
X101429066Y-106873062D01*
X101593064Y-106709063D01*
X101594906Y-106706304D01*
X101641254Y-106674983D01*
X101717665Y-106658960D01*
X101723466Y-106686628D01*
X101788248Y-106673742D01*
X101790330Y-106684212D01*
X101792055Y-106687439D01*
X101794381Y-106690273D01*
X101806934Y-106709061D01*
X101806938Y-106709066D01*
X101969452Y-106871579D01*
X101970937Y-106873064D01*
X101973697Y-106874908D01*
X101984911Y-106884111D01*
X102022970Y-106922170D01*
X102043325Y-106968014D01*
X102044321Y-106967916D01*
X102046705Y-106992115D01*
X102046359Y-106992149D01*
X102046361Y-107007850D01*
X102046705Y-107007884D01*
X102044500Y-107030265D01*
X102044500Y-107040708D01*
X102022826Y-107093034D01*
X102008411Y-107104259D01*
X101999455Y-107109601D01*
X101995787Y-107110331D01*
X101975434Y-107123931D01*
X101973798Y-107124907D01*
X101972997Y-107125024D01*
X101972676Y-107125195D01*
X101806932Y-107290940D01*
X101790331Y-107315784D01*
X101790331Y-107315785D01*
X101790328Y-107315795D01*
X101786670Y-107334188D01*
X101784500Y-107345101D01*
X101784500Y-107345104D01*
X101784500Y-107403517D01*
X101783765Y-107413921D01*
X101781935Y-107426801D01*
X101780888Y-107441824D01*
X101781269Y-107658418D01*
X101759687Y-107710782D01*
X101748383Y-107720076D01*
X101725541Y-107735339D01*
X101695449Y-107755447D01*
X101695447Y-107755449D01*
X101651133Y-107821767D01*
X101646601Y-107844552D01*
X101639500Y-107880252D01*
X101639500Y-108119748D01*
X101643078Y-108137736D01*
X101644500Y-108152172D01*
X101644500Y-108177114D01*
X101644697Y-108183581D01*
X101645625Y-108198728D01*
X101646218Y-108205170D01*
X101648064Y-108220159D01*
X101649047Y-108226529D01*
X101651817Y-108241440D01*
X101653195Y-108247775D01*
X101671471Y-108320877D01*
X101680220Y-108343964D01*
X101705126Y-108391860D01*
X101710037Y-108448284D01*
X101673612Y-108491654D01*
X101639472Y-108500000D01*
X100601184Y-108500000D01*
X100572863Y-108494366D01*
X100555096Y-108487006D01*
X100515050Y-108446959D01*
X100506368Y-108426000D01*
X100489977Y-108386428D01*
X100489975Y-108386425D01*
X100433575Y-108330025D01*
X100433571Y-108330022D01*
X100433570Y-108330021D01*
X100359882Y-108299500D01*
X98927153Y-108299500D01*
X98874827Y-108277826D01*
X98859136Y-108254650D01*
X98707357Y-107900500D01*
X98620011Y-107696695D01*
X98619401Y-107646590D01*
X98618247Y-107646361D01*
X98619332Y-107640905D01*
X98619322Y-107640064D01*
X98619664Y-107639224D01*
X98619667Y-107639215D01*
X98619669Y-107639213D01*
X98625500Y-107609899D01*
X98625499Y-107290102D01*
X98625499Y-107290098D01*
X98621091Y-107267936D01*
X98619668Y-107260784D01*
X98615620Y-107254726D01*
X98597459Y-107227545D01*
X98597456Y-107227542D01*
X98564213Y-107205331D01*
X98564211Y-107205330D01*
X98564206Y-107205329D01*
X98564203Y-107205328D01*
X98546559Y-107201819D01*
X98534899Y-107199500D01*
X97714928Y-107199500D01*
X97684308Y-107192867D01*
X97347743Y-107039883D01*
X97150001Y-106950000D01*
X97150000Y-106950000D01*
X97129825Y-106950000D01*
X97115389Y-106948578D01*
X97098989Y-106945316D01*
X97098989Y-106945315D01*
X97069748Y-106939500D01*
X96830252Y-106939500D01*
X96801010Y-106945315D01*
X96801010Y-106945316D01*
X96793749Y-106946760D01*
X96771769Y-106951132D01*
X96771766Y-106951133D01*
X96705451Y-106995445D01*
X96705448Y-106995447D01*
X96661132Y-107061767D01*
X96660293Y-107065990D01*
X96649500Y-107120252D01*
X96649500Y-107594745D01*
X96649644Y-107596208D01*
X96650000Y-107603459D01*
X96650000Y-108225500D01*
X96628326Y-108277826D01*
X96576000Y-108299500D01*
X95628420Y-108299500D01*
X95600102Y-108293867D01*
X95574973Y-108283458D01*
X95550967Y-108267418D01*
X94232581Y-106949031D01*
X94216541Y-106925025D01*
X94206131Y-106899893D01*
X94200500Y-106871579D01*
X94200500Y-103680151D01*
X94222173Y-103627826D01*
X94659808Y-103190190D01*
X94697695Y-103169940D01*
X94728231Y-103163867D01*
X94794552Y-103119552D01*
X94838867Y-103053231D01*
X94850500Y-102994748D01*
X94850500Y-102681462D01*
X94852467Y-102664513D01*
X94860880Y-102628756D01*
X94930924Y-102331066D01*
X94962459Y-102286083D01*
X95063821Y-102219808D01*
X95083425Y-102210756D01*
X95108078Y-102203505D01*
X95128954Y-102200500D01*
X95199827Y-102200500D01*
X95208715Y-102195367D01*
X95265989Y-102180021D01*
X95334511Y-102140460D01*
X95334511Y-102140459D01*
X95338713Y-102138034D01*
X95339248Y-102138960D01*
X95355240Y-102130810D01*
X95412971Y-102113831D01*
X95457835Y-102114820D01*
X95461398Y-102116040D01*
X95461399Y-102116041D01*
X95461401Y-102116042D01*
X95508948Y-102125500D01*
X95508950Y-102125500D01*
X96291050Y-102125500D01*
X96291052Y-102125500D01*
X96338599Y-102116042D01*
X96392516Y-102080016D01*
X96428542Y-102026099D01*
X96428542Y-102026098D01*
X96432591Y-102020039D01*
X96433591Y-102020707D01*
X96442232Y-102007767D01*
X96449999Y-102000000D01*
X96450000Y-102000000D01*
X96450000Y-101260432D01*
X98299500Y-101260432D01*
X98299500Y-101339566D01*
X98319976Y-101415983D01*
X98319976Y-101415984D01*
X98319977Y-101415987D01*
X98319977Y-101415988D01*
X98333589Y-101439563D01*
X98359538Y-101484508D01*
X98359540Y-101484511D01*
X98415486Y-101540458D01*
X98415488Y-101540459D01*
X98415489Y-101540460D01*
X98465649Y-101569420D01*
X98484000Y-101580015D01*
X98484011Y-101580021D01*
X98484012Y-101580021D01*
X98484014Y-101580022D01*
X98493593Y-101582588D01*
X98501481Y-101584703D01*
X98501487Y-101584704D01*
X98501495Y-101584706D01*
X98555758Y-101599245D01*
X98559453Y-101600500D01*
X98639564Y-101600500D01*
X98649827Y-101600500D01*
X98658715Y-101595367D01*
X98715989Y-101580021D01*
X98784511Y-101540460D01*
X98840460Y-101484511D01*
X98880021Y-101415989D01*
X98900499Y-101339564D01*
X98900500Y-101339564D01*
X98900500Y-101260436D01*
X98900499Y-101260435D01*
X98900248Y-101259500D01*
X98892210Y-101229500D01*
X98887120Y-101210500D01*
X98880022Y-101184014D01*
X98880020Y-101184009D01*
X98872195Y-101170457D01*
X98861509Y-101151946D01*
X98861509Y-101151947D01*
X98840460Y-101115489D01*
X98784511Y-101059540D01*
X98784506Y-101059537D01*
X98784505Y-101059536D01*
X98784499Y-101059533D01*
X98715988Y-101019977D01*
X98715984Y-101019976D01*
X98639566Y-100999500D01*
X98639564Y-100999500D01*
X98639562Y-100999500D01*
X98560438Y-100999500D01*
X98560436Y-100999500D01*
X98560434Y-100999500D01*
X98484018Y-101019975D01*
X98484009Y-101019978D01*
X98415491Y-101059537D01*
X98359537Y-101115491D01*
X98319977Y-101184010D01*
X98319977Y-101184011D01*
X98319976Y-101184014D01*
X98319976Y-101184015D01*
X98299500Y-101260432D01*
X96450000Y-101260432D01*
X96450000Y-98874000D01*
X96471674Y-98821674D01*
X96524000Y-98800000D01*
X97535798Y-98800000D01*
X97588124Y-98821674D01*
X98106426Y-99339976D01*
X98106427Y-99339976D01*
X98106428Y-99339977D01*
X98128791Y-99349240D01*
X98180118Y-99370500D01*
X98259882Y-99370500D01*
X98360158Y-99370500D01*
X98388472Y-99376131D01*
X98413604Y-99386541D01*
X98437610Y-99402581D01*
X98445489Y-99410460D01*
X98464109Y-99421210D01*
X98508182Y-99446656D01*
X98514011Y-99450021D01*
X98514012Y-99450021D01*
X98514014Y-99450022D01*
X98526106Y-99453262D01*
X98585758Y-99469245D01*
X98589453Y-99470500D01*
X98669564Y-99470500D01*
X98679827Y-99470500D01*
X98688715Y-99465367D01*
X98745989Y-99450021D01*
X98814511Y-99410460D01*
X98870460Y-99354511D01*
X98910021Y-99285989D01*
X98930499Y-99209564D01*
X98930500Y-99209564D01*
X98930500Y-99130436D01*
X98930499Y-99130435D01*
X98929919Y-99128273D01*
X98930634Y-99116421D01*
X98931091Y-99115479D01*
X98932262Y-99104820D01*
X98937095Y-99083074D01*
X98987123Y-98857947D01*
X99019632Y-98811569D01*
X99059361Y-98800000D01*
X100221699Y-98800000D01*
X100222308Y-98799101D01*
X100245348Y-98789024D01*
X100258532Y-98785778D01*
X100309993Y-98766818D01*
X100330983Y-98756301D01*
X100351072Y-98743254D01*
X100363078Y-98734176D01*
X100389639Y-98710937D01*
X100400231Y-98700243D01*
X101327138Y-97620149D01*
X101339440Y-97602427D01*
X101363818Y-97558264D01*
X101372257Y-97538412D01*
X101372260Y-97538400D01*
X101372515Y-97537802D01*
X101412929Y-97498123D01*
X101462100Y-97495933D01*
X101464790Y-97496749D01*
G37*
%TD.AperFunction*%
%TA.AperFunction,Conductor*%
G36*
X101253444Y-102615984D02*
G01*
X101287204Y-102620974D01*
X101292082Y-102623579D01*
X101309544Y-102636525D01*
X101397323Y-102724304D01*
X101406014Y-102734762D01*
X101411987Y-102743467D01*
X101411898Y-102743557D01*
X101431171Y-102772398D01*
X101431691Y-102772182D01*
X101446700Y-102794056D01*
X101446794Y-102794502D01*
X101447210Y-102794810D01*
X101460039Y-102814009D01*
X101480448Y-102844552D01*
X101524560Y-102874027D01*
X101540061Y-102884385D01*
X101540712Y-102884820D01*
X101540712Y-102884821D01*
X101543539Y-102887140D01*
X101543562Y-102887153D01*
X101546247Y-102888762D01*
X101546765Y-102888865D01*
X101546767Y-102888866D01*
X101546768Y-102888866D01*
X101546769Y-102888867D01*
X101553914Y-102890288D01*
X101553915Y-102890289D01*
X101605252Y-102900500D01*
X102079748Y-102900500D01*
X102079754Y-102900500D01*
X102081217Y-102900356D01*
X102081692Y-102900500D01*
X102083383Y-102900500D01*
X102083383Y-102901013D01*
X102135414Y-102916801D01*
X102144820Y-102926041D01*
X102159825Y-102943673D01*
X102388403Y-102901243D01*
X102398090Y-102900099D01*
X102399974Y-102900001D01*
X102399984Y-102900000D01*
X102400000Y-102900000D01*
X102400547Y-102899943D01*
X102400837Y-102899956D01*
X102401902Y-102899902D01*
X102401907Y-102900007D01*
X102416574Y-102900693D01*
X102416629Y-102900143D01*
X102420250Y-102900499D01*
X102420252Y-102900500D01*
X102420254Y-102900500D01*
X102894746Y-102900500D01*
X102894748Y-102900500D01*
X102953231Y-102888867D01*
X103019552Y-102844552D01*
X103019553Y-102844549D01*
X103019605Y-102844515D01*
X103053101Y-102832437D01*
X103750271Y-102760316D01*
X103760784Y-102760807D01*
X103760784Y-102760500D01*
X103768075Y-102760500D01*
X109588148Y-102760500D01*
X109616462Y-102766131D01*
X109641594Y-102776541D01*
X109665600Y-102792581D01*
X110948935Y-104075916D01*
X110994084Y-104121065D01*
X111053075Y-104145500D01*
X113202679Y-104145500D01*
X113250892Y-104163362D01*
X113617160Y-104477922D01*
X113637323Y-104505764D01*
X113637712Y-104506704D01*
X113637703Y-104563318D01*
X113630666Y-104580307D01*
X113623829Y-104593099D01*
X113605332Y-104620782D01*
X113605330Y-104620787D01*
X113605330Y-104620788D01*
X113599500Y-104650099D01*
X113599500Y-105419901D01*
X113605328Y-105449209D01*
X113605330Y-105449213D01*
X113605330Y-105449214D01*
X113605331Y-105449215D01*
X113627540Y-105482454D01*
X113627542Y-105482456D01*
X113627543Y-105482457D01*
X113660787Y-105504669D01*
X113690101Y-105510500D01*
X114809898Y-105510499D01*
X114809901Y-105510499D01*
X114821398Y-105508211D01*
X114839213Y-105504669D01*
X114839214Y-105504668D01*
X114839215Y-105504668D01*
X114868608Y-105485028D01*
X114872887Y-105482542D01*
X114876575Y-105479705D01*
X114886860Y-105472833D01*
X114888165Y-105459586D01*
X114891886Y-105453377D01*
X114894669Y-105449213D01*
X114900500Y-105419899D01*
X114900499Y-104890700D01*
X114922173Y-104838375D01*
X114935275Y-104827951D01*
X115682003Y-104361247D01*
X115721223Y-104350000D01*
X116375500Y-104350000D01*
X116427826Y-104371674D01*
X116449500Y-104424000D01*
X116449500Y-108210781D01*
X116443867Y-108239099D01*
X116439556Y-108249507D01*
X116399508Y-108289555D01*
X116399507Y-108289556D01*
X116389099Y-108293867D01*
X116360781Y-108299500D01*
X110280118Y-108299500D01*
X110206428Y-108330022D01*
X110206426Y-108330023D01*
X110150023Y-108386427D01*
X110150021Y-108386428D01*
X110127534Y-108440719D01*
X110111497Y-108464722D01*
X110097899Y-108478322D01*
X110045574Y-108500000D01*
X103604874Y-108500000D01*
X103552548Y-108478326D01*
X103530874Y-108426000D01*
X103545674Y-108381600D01*
X103561430Y-108360591D01*
X103600995Y-108307838D01*
X103610914Y-108291806D01*
X103630690Y-108252345D01*
X103637596Y-108234803D01*
X103646201Y-108205501D01*
X103649402Y-108190791D01*
X103654426Y-108155852D01*
X103654689Y-108152172D01*
X103655500Y-108140844D01*
X103655500Y-107485931D01*
X109249500Y-107485931D01*
X109249500Y-107614069D01*
X109256586Y-107649696D01*
X109274497Y-107739739D01*
X109274498Y-107739742D01*
X109319961Y-107849500D01*
X109323535Y-107858127D01*
X109345024Y-107890288D01*
X109371206Y-107929471D01*
X109371207Y-107929474D01*
X109385253Y-107950497D01*
X109385254Y-107950497D01*
X109385256Y-107950500D01*
X109394724Y-107964669D01*
X109485331Y-108055276D01*
X109591873Y-108126465D01*
X109591878Y-108126467D01*
X109591877Y-108126467D01*
X109626587Y-108140844D01*
X109710256Y-108175501D01*
X109710258Y-108175501D01*
X109710260Y-108175502D01*
X109723976Y-108178230D01*
X109723979Y-108178232D01*
X109723980Y-108178231D01*
X109835931Y-108200500D01*
X109835933Y-108200500D01*
X109964067Y-108200500D01*
X109964069Y-108200500D01*
X110089744Y-108175501D01*
X110208127Y-108126465D01*
X110314669Y-108055276D01*
X110405276Y-107964669D01*
X110476465Y-107858127D01*
X110525501Y-107739744D01*
X110550500Y-107614069D01*
X110550500Y-107485931D01*
X110549370Y-107480252D01*
X114274500Y-107480252D01*
X114274500Y-107719748D01*
X114279358Y-107744169D01*
X114286133Y-107778232D01*
X114315223Y-107821767D01*
X114318647Y-107826892D01*
X114318649Y-107826895D01*
X114330447Y-107844551D01*
X114330448Y-107844552D01*
X114361782Y-107865489D01*
X114396767Y-107888866D01*
X114396768Y-107888866D01*
X114396769Y-107888867D01*
X114403914Y-107890288D01*
X114403915Y-107890289D01*
X114455252Y-107900500D01*
X114455254Y-107900500D01*
X114929746Y-107900500D01*
X114929748Y-107900500D01*
X114988231Y-107888867D01*
X115046655Y-107849828D01*
X115073324Y-107838781D01*
X115085561Y-107836347D01*
X115092183Y-107835030D01*
X115147732Y-107846079D01*
X115193865Y-107876903D01*
X115205709Y-107884818D01*
X115211768Y-107888866D01*
X115211769Y-107888867D01*
X115270252Y-107900500D01*
X115270254Y-107900500D01*
X115744746Y-107900500D01*
X115744748Y-107900500D01*
X115803231Y-107888867D01*
X115803232Y-107888866D01*
X115869552Y-107844552D01*
X115913867Y-107778231D01*
X115925500Y-107719748D01*
X115925500Y-107480252D01*
X115913867Y-107421769D01*
X115913866Y-107421767D01*
X115913866Y-107421766D01*
X115873405Y-107361215D01*
X115869552Y-107355448D01*
X115869550Y-107355447D01*
X115869550Y-107355446D01*
X115840111Y-107335775D01*
X115826775Y-107315816D01*
X115803232Y-107311133D01*
X115803233Y-107311133D01*
X115773989Y-107305316D01*
X115773988Y-107305315D01*
X115744748Y-107299500D01*
X115270252Y-107299500D01*
X115241010Y-107305315D01*
X115241010Y-107305316D01*
X115233749Y-107306760D01*
X115211769Y-107311132D01*
X115211765Y-107311133D01*
X115160932Y-107345101D01*
X115160925Y-107345106D01*
X115153343Y-107350171D01*
X115126679Y-107361215D01*
X115107818Y-107364968D01*
X115052269Y-107353923D01*
X115025110Y-107335775D01*
X115011774Y-107315815D01*
X114972106Y-107307925D01*
X114958989Y-107305316D01*
X114958988Y-107305315D01*
X114929748Y-107299500D01*
X114455252Y-107299500D01*
X114426010Y-107305315D01*
X114426010Y-107305316D01*
X114418749Y-107306760D01*
X114396769Y-107311132D01*
X114396766Y-107311133D01*
X114330451Y-107355445D01*
X114330447Y-107355449D01*
X114286133Y-107421765D01*
X114285880Y-107422602D01*
X114285859Y-107423143D01*
X114274500Y-107480252D01*
X110549370Y-107480252D01*
X110537737Y-107421767D01*
X110525502Y-107360260D01*
X110525501Y-107360257D01*
X110523509Y-107355449D01*
X110523508Y-107355446D01*
X110523507Y-107355443D01*
X110476465Y-107241873D01*
X110405276Y-107135331D01*
X110314668Y-107044723D01*
X110314666Y-107044722D01*
X110307424Y-107039883D01*
X110307422Y-107039882D01*
X110271658Y-107015985D01*
X110271656Y-107015983D01*
X110235934Y-106992115D01*
X110208127Y-106973535D01*
X110208124Y-106973533D01*
X110208123Y-106973533D01*
X110207502Y-106973119D01*
X110204742Y-106972132D01*
X110089754Y-106924503D01*
X110089742Y-106924498D01*
X110089739Y-106924497D01*
X109999696Y-106906586D01*
X109999695Y-106906585D01*
X109964069Y-106899500D01*
X109835931Y-106899500D01*
X109804725Y-106905706D01*
X109804726Y-106905707D01*
X109710260Y-106924497D01*
X109710257Y-106924498D01*
X109710248Y-106924501D01*
X109710244Y-106924503D01*
X109591876Y-106973532D01*
X109485061Y-107044903D01*
X109483685Y-107046369D01*
X109396369Y-107133685D01*
X109394903Y-107135061D01*
X109323532Y-107241876D01*
X109275290Y-107358345D01*
X109274498Y-107360257D01*
X109274497Y-107360260D01*
X109274496Y-107360264D01*
X109274493Y-107360274D01*
X109262089Y-107422638D01*
X109262088Y-107422644D01*
X109261130Y-107427464D01*
X109249500Y-107485931D01*
X103655500Y-107485931D01*
X103655500Y-107107784D01*
X103655469Y-107105288D01*
X103655318Y-107099138D01*
X103655318Y-107099134D01*
X103655223Y-107096547D01*
X103655089Y-107093817D01*
X103655000Y-107090191D01*
X103655000Y-106909792D01*
X103655089Y-106906169D01*
X103655221Y-106903469D01*
X103655224Y-106903416D01*
X103655319Y-106900831D01*
X103655468Y-106894754D01*
X103655500Y-106892168D01*
X103655500Y-106010432D01*
X107449500Y-106010432D01*
X107449500Y-106089566D01*
X107469976Y-106165983D01*
X107469976Y-106165985D01*
X107469979Y-106165990D01*
X107489325Y-106199500D01*
X107489326Y-106199500D01*
X107509538Y-106234508D01*
X107509540Y-106234511D01*
X107565486Y-106290458D01*
X107565488Y-106290459D01*
X107565489Y-106290460D01*
X107634011Y-106330021D01*
X107634012Y-106330021D01*
X107634014Y-106330022D01*
X107672224Y-106340260D01*
X107705748Y-106349243D01*
X107709451Y-106350500D01*
X107789564Y-106350500D01*
X107799827Y-106350500D01*
X107808715Y-106345367D01*
X107865989Y-106330021D01*
X107934511Y-106290460D01*
X107990460Y-106234511D01*
X108030021Y-106165989D01*
X108050499Y-106089564D01*
X108050500Y-106089564D01*
X108050500Y-106010436D01*
X108050499Y-106010435D01*
X108050498Y-106010432D01*
X109049500Y-106010432D01*
X109049500Y-106089566D01*
X109069976Y-106165983D01*
X109069976Y-106165985D01*
X109069979Y-106165990D01*
X109089325Y-106199500D01*
X109089326Y-106199500D01*
X109109538Y-106234508D01*
X109109540Y-106234511D01*
X109165486Y-106290458D01*
X109165488Y-106290459D01*
X109165489Y-106290460D01*
X109234011Y-106330021D01*
X109234012Y-106330021D01*
X109234014Y-106330022D01*
X109272224Y-106340260D01*
X109305748Y-106349243D01*
X109309451Y-106350500D01*
X109389564Y-106350500D01*
X109399827Y-106350500D01*
X109408715Y-106345367D01*
X109465989Y-106330021D01*
X109534511Y-106290460D01*
X109590460Y-106234511D01*
X109630021Y-106165989D01*
X109650499Y-106089564D01*
X109650500Y-106089564D01*
X109650500Y-106010436D01*
X109650499Y-106010435D01*
X109648858Y-106004312D01*
X109630021Y-105934011D01*
X109629486Y-105933085D01*
X109619420Y-105915649D01*
X109590460Y-105865489D01*
X109590459Y-105865488D01*
X109590458Y-105865486D01*
X109534511Y-105809540D01*
X109534508Y-105809538D01*
X109465988Y-105769977D01*
X109465984Y-105769976D01*
X109389566Y-105749500D01*
X109389564Y-105749500D01*
X109389562Y-105749500D01*
X109310438Y-105749500D01*
X109310436Y-105749500D01*
X109310434Y-105749500D01*
X109234018Y-105769975D01*
X109234009Y-105769978D01*
X109165491Y-105809537D01*
X109109537Y-105865491D01*
X109069977Y-105934010D01*
X109069977Y-105934011D01*
X109069976Y-105934014D01*
X109069976Y-105934015D01*
X109049500Y-106010432D01*
X108050498Y-106010432D01*
X108050136Y-106009081D01*
X108050173Y-106008494D01*
X108049252Y-106005784D01*
X108048864Y-106004336D01*
X108048868Y-106004309D01*
X108048859Y-106004312D01*
X108030022Y-105934015D01*
X108030021Y-105934011D01*
X108029487Y-105933087D01*
X108029475Y-105933066D01*
X108028548Y-105931460D01*
X108019420Y-105915649D01*
X107990460Y-105865489D01*
X107990459Y-105865488D01*
X107990458Y-105865486D01*
X107934511Y-105809540D01*
X107934508Y-105809538D01*
X107865988Y-105769977D01*
X107865984Y-105769976D01*
X107865983Y-105769976D01*
X107789566Y-105749500D01*
X107789564Y-105749500D01*
X107789562Y-105749500D01*
X107710438Y-105749500D01*
X107710436Y-105749500D01*
X107710434Y-105749500D01*
X107634018Y-105769975D01*
X107634009Y-105769978D01*
X107565491Y-105809537D01*
X107509537Y-105865491D01*
X107469977Y-105934010D01*
X107469977Y-105934011D01*
X107469976Y-105934014D01*
X107469976Y-105934015D01*
X107449500Y-106010432D01*
X103655500Y-106010432D01*
X103655500Y-105966744D01*
X103655189Y-105958644D01*
X103653727Y-105939659D01*
X103652794Y-105931607D01*
X103652772Y-105931465D01*
X103648547Y-105915649D01*
X103646940Y-105909631D01*
X103627924Y-105860359D01*
X103625152Y-105854977D01*
X103617576Y-105840268D01*
X103603989Y-105819662D01*
X103596225Y-105809540D01*
X103594834Y-105807726D01*
X103594828Y-105807719D01*
X103571404Y-105781318D01*
X103560635Y-105770799D01*
X102979649Y-105279195D01*
X102976329Y-105276499D01*
X102968411Y-105270332D01*
X102964994Y-105267780D01*
X102962706Y-105266142D01*
X102956887Y-105261976D01*
X102953330Y-105259536D01*
X102946466Y-105255031D01*
X102944978Y-105254054D01*
X102944030Y-105253459D01*
X102941353Y-105251778D01*
X102862855Y-105204679D01*
X102852551Y-105199247D01*
X102852533Y-105199239D01*
X102827685Y-105187849D01*
X102827683Y-105187848D01*
X102827674Y-105187844D01*
X102827660Y-105187838D01*
X102827647Y-105187833D01*
X102816833Y-105183582D01*
X102816813Y-105183575D01*
X102805773Y-105179926D01*
X102762894Y-105142923D01*
X102755000Y-105109666D01*
X102755000Y-105038027D01*
X102754202Y-105025080D01*
X102754201Y-105025076D01*
X102754201Y-105025067D01*
X102750459Y-104994836D01*
X102748075Y-104982075D01*
X102745312Y-104971084D01*
X102734956Y-104945100D01*
X102703015Y-104888290D01*
X102689440Y-104870252D01*
X102686194Y-104865938D01*
X102679922Y-104859575D01*
X102673373Y-104852930D01*
X102662069Y-104842991D01*
X102662062Y-104842985D01*
X102662054Y-104842979D01*
X102633973Y-104821637D01*
X102633970Y-104821635D01*
X102631032Y-104819717D01*
X102621369Y-104813406D01*
X102621355Y-104813398D01*
X102338062Y-104656011D01*
X102302847Y-104611653D01*
X102300000Y-104591324D01*
X102300000Y-104438459D01*
X102300357Y-104431203D01*
X102300500Y-104429751D01*
X102300500Y-103956099D01*
X102300500Y-103955252D01*
X102300000Y-103952738D01*
X102300000Y-103950000D01*
X102298916Y-103947291D01*
X102288867Y-103896769D01*
X102288471Y-103896177D01*
X102269694Y-103868075D01*
X102267854Y-103865321D01*
X102267853Y-103865319D01*
X102260676Y-103851692D01*
X102179799Y-103649500D01*
X102157965Y-103594913D01*
X102158655Y-103538281D01*
X102163090Y-103530105D01*
X102163866Y-103528232D01*
X102163865Y-103528232D01*
X102163867Y-103528231D01*
X102175500Y-103469748D01*
X102175500Y-103230252D01*
X102166537Y-103185193D01*
X102163868Y-103171773D01*
X102163867Y-103171772D01*
X102163867Y-103171769D01*
X102162992Y-103170460D01*
X102149027Y-103149560D01*
X102149027Y-103149559D01*
X102123405Y-103111215D01*
X102119552Y-103105448D01*
X102119549Y-103105446D01*
X102090476Y-103086020D01*
X102090475Y-103086019D01*
X102090019Y-103085714D01*
X102076765Y-103065814D01*
X102053232Y-103061133D01*
X102053233Y-103061133D01*
X102023989Y-103055316D01*
X102023988Y-103055315D01*
X101994748Y-103049500D01*
X101520252Y-103049500D01*
X101491010Y-103055315D01*
X101491010Y-103055316D01*
X101481262Y-103057255D01*
X101461765Y-103061133D01*
X101407332Y-103097506D01*
X101407324Y-103097512D01*
X101403342Y-103100172D01*
X101376679Y-103111215D01*
X101357818Y-103114968D01*
X101302269Y-103103923D01*
X101275475Y-103086019D01*
X101275019Y-103085714D01*
X101261765Y-103065814D01*
X101238232Y-103061133D01*
X101238233Y-103061133D01*
X101208989Y-103055316D01*
X101208988Y-103055315D01*
X101179748Y-103049500D01*
X100705252Y-103049500D01*
X100676010Y-103055315D01*
X100676010Y-103055316D01*
X100668749Y-103056760D01*
X100646769Y-103061132D01*
X100646766Y-103061133D01*
X100580451Y-103105445D01*
X100580449Y-103105446D01*
X100580448Y-103105448D01*
X100580442Y-103105455D01*
X100564518Y-103129287D01*
X100517425Y-103160752D01*
X100489917Y-103161010D01*
X100388538Y-103142814D01*
X100349285Y-103122304D01*
X100345081Y-103118100D01*
X100329041Y-103094094D01*
X100318631Y-103068962D01*
X100313000Y-103040648D01*
X100313000Y-102714218D01*
X100318629Y-102685909D01*
X100322943Y-102675494D01*
X100362982Y-102635448D01*
X100373411Y-102631128D01*
X100401719Y-102625500D01*
X101166048Y-102625500D01*
X101166050Y-102625500D01*
X101166052Y-102625500D01*
X101192554Y-102620228D01*
X101196345Y-102619578D01*
X101221448Y-102615947D01*
X101221835Y-102616880D01*
X101239808Y-102613292D01*
X101241755Y-102613011D01*
X101253444Y-102615984D01*
G37*
%TD.AperFunction*%
%TA.AperFunction,Conductor*%
G36*
X101637232Y-104651649D02*
G01*
X101641371Y-104650447D01*
X101662890Y-104662276D01*
X101685577Y-104671674D01*
X101687226Y-104675655D01*
X101691002Y-104677731D01*
X101697513Y-104700490D01*
X101707251Y-104724000D01*
X101706479Y-104731832D01*
X101706735Y-104732725D01*
X101706395Y-104735586D01*
X101699500Y-104770253D01*
X101699500Y-104793661D01*
X101699500Y-104794214D01*
X101699408Y-104794435D01*
X101695667Y-104825944D01*
X101695574Y-104826808D01*
X101694500Y-104841821D01*
X101694500Y-104841829D01*
X101694500Y-105212300D01*
X101694988Y-105220311D01*
X101695282Y-105225124D01*
X101698942Y-105255019D01*
X101698944Y-105255031D01*
X101701276Y-105267655D01*
X101701277Y-105267662D01*
X101703936Y-105278360D01*
X101703938Y-105278365D01*
X101703939Y-105278369D01*
X101708472Y-105289855D01*
X101711133Y-105303232D01*
X101719389Y-105315587D01*
X101722803Y-105320697D01*
X101722805Y-105320701D01*
X101724202Y-105322792D01*
X101727317Y-105327887D01*
X101745716Y-105360919D01*
X101762348Y-105383236D01*
X101775223Y-105396440D01*
X101786475Y-105406441D01*
X101814463Y-105427948D01*
X101827024Y-105436245D01*
X102421790Y-105770799D01*
X102456779Y-105790480D01*
X102491759Y-105835024D01*
X102494500Y-105854977D01*
X102494500Y-106050281D01*
X102483954Y-106088354D01*
X102351822Y-106308573D01*
X102306315Y-106342291D01*
X102288368Y-106344500D01*
X102013731Y-106344500D01*
X101995011Y-106346175D01*
X101951715Y-106353982D01*
X101951705Y-106353984D01*
X101933585Y-106358951D01*
X101931356Y-106359782D01*
X101930251Y-106360194D01*
X101930214Y-106360208D01*
X101930193Y-106360216D01*
X101930192Y-106360215D01*
X101926338Y-106361653D01*
X101899978Y-106376047D01*
X101888854Y-106384375D01*
X101858943Y-106397712D01*
X101843935Y-106400697D01*
X101788387Y-106389647D01*
X101756922Y-106342554D01*
X101755500Y-106328119D01*
X101755500Y-105794665D01*
X101754927Y-105790480D01*
X101751617Y-105766308D01*
X101737311Y-105715045D01*
X101725949Y-105688774D01*
X101714082Y-105669168D01*
X101704427Y-105655724D01*
X101704423Y-105655719D01*
X101704420Y-105655715D01*
X101684450Y-105632070D01*
X101684442Y-105632062D01*
X101672802Y-105620293D01*
X101672785Y-105620278D01*
X101536289Y-105502396D01*
X101533623Y-105500522D01*
X101519130Y-105490332D01*
X101519118Y-105490325D01*
X101485030Y-105471112D01*
X101485024Y-105471109D01*
X101485017Y-105471105D01*
X101465815Y-105462675D01*
X101465812Y-105462674D01*
X101440684Y-105454509D01*
X101424590Y-105450645D01*
X101424569Y-105450641D01*
X101393993Y-105445799D01*
X101393987Y-105445798D01*
X101378847Y-105444607D01*
X101377488Y-105444500D01*
X101377487Y-105444500D01*
X100386832Y-105444500D01*
X100385461Y-105444607D01*
X100331616Y-105427042D01*
X100327415Y-105423154D01*
X100282581Y-105378320D01*
X100266541Y-105354314D01*
X100256131Y-105329182D01*
X100250500Y-105300868D01*
X100250500Y-104724000D01*
X100272174Y-104671674D01*
X100324500Y-104650000D01*
X101633251Y-104650000D01*
X101637232Y-104651649D01*
G37*
%TD.AperFunction*%
%TA.AperFunction,Conductor*%
G36*
X113220567Y-99782174D02*
G01*
X113229252Y-99792625D01*
X113268109Y-99849244D01*
X113540164Y-100245668D01*
X113551902Y-100301075D01*
X113551730Y-100301969D01*
X113546526Y-100328141D01*
X113546525Y-100328152D01*
X113544500Y-100348718D01*
X113544500Y-101054628D01*
X113546525Y-101075203D01*
X113552158Y-101103526D01*
X113558162Y-101123316D01*
X113568571Y-101148446D01*
X113568573Y-101148452D01*
X113578319Y-101166685D01*
X113578327Y-101166698D01*
X113589895Y-101184011D01*
X113594360Y-101190693D01*
X113607481Y-101206681D01*
X113608953Y-101208153D01*
X113630627Y-101260478D01*
X113624306Y-101290404D01*
X113621713Y-101296265D01*
X113605331Y-101320786D01*
X113605330Y-101320788D01*
X113602395Y-101335545D01*
X113600801Y-101343558D01*
X113600800Y-101343561D01*
X113599500Y-101350101D01*
X113599500Y-101533840D01*
X113587431Y-101574343D01*
X113200741Y-102165610D01*
X113200734Y-102165624D01*
X113200490Y-102166151D01*
X113200256Y-102166484D01*
X113199435Y-102167965D01*
X113199281Y-102167879D01*
X113185692Y-102187325D01*
X112765600Y-102607418D01*
X112741594Y-102623458D01*
X112716464Y-102633867D01*
X112688148Y-102639500D01*
X111061852Y-102639500D01*
X111033534Y-102633867D01*
X111008405Y-102623458D01*
X110984399Y-102607418D01*
X110352839Y-101975858D01*
X109640915Y-101263934D01*
X109640913Y-101263933D01*
X109640910Y-101263931D01*
X109606360Y-101249620D01*
X109606359Y-101249620D01*
X109581925Y-101239500D01*
X104009841Y-101239500D01*
X103981524Y-101233867D01*
X103956394Y-101223458D01*
X103932389Y-101207417D01*
X103887435Y-101162462D01*
X103887434Y-101162462D01*
X103884512Y-101159540D01*
X103815988Y-101119977D01*
X103815984Y-101119976D01*
X103815983Y-101119976D01*
X103792826Y-101113771D01*
X111224500Y-101113771D01*
X111224500Y-101286229D01*
X111228333Y-101305499D01*
X111231506Y-101321449D01*
X111231506Y-101321450D01*
X111258142Y-101455365D01*
X111258145Y-101455376D01*
X111258146Y-101455381D01*
X111316131Y-101595366D01*
X111324140Y-101614702D01*
X111407527Y-101739500D01*
X111419955Y-101758099D01*
X111541901Y-101880045D01*
X111685295Y-101975858D01*
X111685296Y-101975858D01*
X111685297Y-101975859D01*
X111685300Y-101975860D01*
X111685906Y-101976265D01*
X111688646Y-101977246D01*
X111844621Y-102041853D01*
X111844626Y-102041855D01*
X112013771Y-102075500D01*
X112013772Y-102075500D01*
X112186228Y-102075500D01*
X112186229Y-102075500D01*
X112355374Y-102041855D01*
X112514705Y-101975858D01*
X112658099Y-101880045D01*
X112780045Y-101758099D01*
X112875858Y-101614705D01*
X112941855Y-101455374D01*
X112975500Y-101286229D01*
X112975500Y-101113771D01*
X112941855Y-100944626D01*
X112941853Y-100944621D01*
X112941841Y-100944592D01*
X112875861Y-100785300D01*
X112868244Y-100773901D01*
X112868243Y-100773899D01*
X112780045Y-100641901D01*
X112658098Y-100519954D01*
X112641533Y-100508886D01*
X112514701Y-100424139D01*
X112355381Y-100358146D01*
X112355376Y-100358145D01*
X112355365Y-100358142D01*
X112227942Y-100332797D01*
X112186229Y-100324500D01*
X112013771Y-100324500D01*
X112013767Y-100324500D01*
X111980309Y-100331154D01*
X111980309Y-100331155D01*
X111935083Y-100340151D01*
X111844630Y-100358143D01*
X111844622Y-100358145D01*
X111844617Y-100358146D01*
X111685300Y-100424138D01*
X111541904Y-100519951D01*
X111541903Y-100519953D01*
X111419953Y-100641903D01*
X111419951Y-100641904D01*
X111324138Y-100785300D01*
X111258146Y-100944617D01*
X111258145Y-100944622D01*
X111258142Y-100944633D01*
X111235372Y-101059108D01*
X111235355Y-101059194D01*
X111235295Y-101059500D01*
X111224500Y-101113771D01*
X103792826Y-101113771D01*
X103739566Y-101099500D01*
X103739564Y-101099500D01*
X103739562Y-101099500D01*
X103660438Y-101099500D01*
X103660436Y-101099500D01*
X103660434Y-101099500D01*
X103584018Y-101119975D01*
X103584009Y-101119978D01*
X103515491Y-101159537D01*
X103459537Y-101215491D01*
X103419977Y-101284010D01*
X103419977Y-101284011D01*
X103419976Y-101284014D01*
X103419976Y-101284015D01*
X103399500Y-101360432D01*
X103399500Y-101439566D01*
X103419976Y-101515983D01*
X103419976Y-101515984D01*
X103419977Y-101515987D01*
X103419977Y-101515988D01*
X103445677Y-101560500D01*
X103459538Y-101584508D01*
X103459540Y-101584511D01*
X103515486Y-101640458D01*
X103515488Y-101640459D01*
X103515489Y-101640460D01*
X103584011Y-101680021D01*
X103584012Y-101680021D01*
X103584014Y-101680022D01*
X103622224Y-101690260D01*
X103655748Y-101699243D01*
X103659451Y-101700500D01*
X103739564Y-101700500D01*
X103749827Y-101700500D01*
X103758715Y-101695367D01*
X103815989Y-101680021D01*
X103884511Y-101640460D01*
X103932390Y-101592581D01*
X103956393Y-101576542D01*
X103981523Y-101566132D01*
X104009840Y-101560500D01*
X109438148Y-101560500D01*
X109466462Y-101566131D01*
X109491594Y-101576541D01*
X109515600Y-101592581D01*
X110813935Y-102890916D01*
X110859084Y-102936065D01*
X110918075Y-102960500D01*
X112831924Y-102960500D01*
X112831925Y-102960500D01*
X112890916Y-102936065D01*
X113390592Y-102436387D01*
X113434995Y-102415139D01*
X114352939Y-102316324D01*
X114359915Y-102315336D01*
X114361445Y-102315067D01*
X114361454Y-102315063D01*
X114365520Y-102313856D01*
X114365826Y-102314887D01*
X114387279Y-102310499D01*
X114809901Y-102310499D01*
X114821398Y-102308211D01*
X114839213Y-102304669D01*
X114839214Y-102304668D01*
X114839215Y-102304668D01*
X114868608Y-102285028D01*
X114872887Y-102282542D01*
X114876575Y-102279705D01*
X114886860Y-102272833D01*
X114888165Y-102259586D01*
X114891886Y-102253377D01*
X114894669Y-102249213D01*
X114900500Y-102219899D01*
X114900499Y-101379499D01*
X114922173Y-101327174D01*
X114974499Y-101305500D01*
X115013315Y-101305500D01*
X115013323Y-101305500D01*
X115030222Y-101304138D01*
X115053626Y-101300340D01*
X115070093Y-101296287D01*
X115091711Y-101289080D01*
X115103631Y-101284009D01*
X115107301Y-101282448D01*
X115107302Y-101282447D01*
X115107312Y-101282443D01*
X115128308Y-101271441D01*
X115142641Y-101262393D01*
X115262916Y-101172186D01*
X115317781Y-101158131D01*
X115321736Y-101158806D01*
X115330252Y-101160500D01*
X115330254Y-101160500D01*
X115569746Y-101160500D01*
X115569748Y-101160500D01*
X115587737Y-101156922D01*
X115602173Y-101155500D01*
X115875500Y-101155500D01*
X115927826Y-101177174D01*
X115949500Y-101229500D01*
X115949500Y-102214079D01*
X115943867Y-102242395D01*
X115933459Y-102267525D01*
X115917418Y-102291531D01*
X115516531Y-102692418D01*
X115492525Y-102708458D01*
X115467395Y-102718867D01*
X115439079Y-102724500D01*
X115330252Y-102724500D01*
X115301010Y-102730315D01*
X115301010Y-102730316D01*
X115293749Y-102731760D01*
X115271769Y-102736132D01*
X115271766Y-102736133D01*
X115205451Y-102780445D01*
X115205445Y-102780451D01*
X115161133Y-102846765D01*
X115160070Y-102850272D01*
X115159711Y-102853917D01*
X115149500Y-102905252D01*
X115149500Y-103132867D01*
X115127826Y-103185193D01*
X115119261Y-103192541D01*
X114774762Y-103445174D01*
X114731001Y-103459500D01*
X113690102Y-103459500D01*
X113678769Y-103461753D01*
X113678768Y-103461752D01*
X113671720Y-103463154D01*
X113668422Y-103463163D01*
X113663396Y-103464809D01*
X113660787Y-103465329D01*
X113660495Y-103465450D01*
X113657108Y-103467532D01*
X113624036Y-103486170D01*
X113624035Y-103486171D01*
X113250890Y-103806638D01*
X113202677Y-103824500D01*
X111196852Y-103824500D01*
X111168534Y-103818867D01*
X111143405Y-103808458D01*
X111119399Y-103792418D01*
X110456268Y-103129287D01*
X109790915Y-102463934D01*
X109790913Y-102463933D01*
X109790910Y-102463931D01*
X109756360Y-102449620D01*
X109756359Y-102449620D01*
X109731925Y-102439500D01*
X103911852Y-102439500D01*
X103883534Y-102433867D01*
X103858405Y-102423458D01*
X103834399Y-102407418D01*
X102439259Y-101012278D01*
X102417585Y-100959952D01*
X102418779Y-100946714D01*
X102448128Y-100785297D01*
X102477952Y-100621261D01*
X102508636Y-100573658D01*
X102550758Y-100560500D01*
X104131924Y-100560500D01*
X104131925Y-100560500D01*
X104190916Y-100536065D01*
X104934402Y-99792578D01*
X104958405Y-99776541D01*
X104983536Y-99766131D01*
X105011852Y-99760500D01*
X113168241Y-99760500D01*
X113220567Y-99782174D01*
G37*
%TD.AperFunction*%
%TA.AperFunction,Conductor*%
G36*
X110067130Y-91505631D02*
G01*
X110084901Y-91512992D01*
X110124948Y-91553037D01*
X110124950Y-91553040D01*
X110124950Y-91553041D01*
X110148695Y-91610369D01*
X110150022Y-91613571D01*
X110150025Y-91613575D01*
X110206425Y-91669975D01*
X110206428Y-91669977D01*
X110243272Y-91685238D01*
X110280118Y-91700500D01*
X110359882Y-91700500D01*
X116360781Y-91700500D01*
X116389091Y-91706129D01*
X116399503Y-91710442D01*
X116439553Y-91750485D01*
X116439556Y-91750492D01*
X116443867Y-91760900D01*
X116449500Y-91789218D01*
X116449500Y-94771591D01*
X116427826Y-94823917D01*
X116375500Y-94845591D01*
X116368251Y-94845235D01*
X116360784Y-94844500D01*
X116360781Y-94844500D01*
X115674000Y-94844500D01*
X115621674Y-94822826D01*
X115600000Y-94770500D01*
X115600000Y-93942325D01*
X115621674Y-93889999D01*
X115654847Y-93870847D01*
X115677836Y-93864688D01*
X115797665Y-93795505D01*
X115895505Y-93697665D01*
X115964688Y-93577836D01*
X115995367Y-93463336D01*
X116000500Y-93454447D01*
X116000500Y-93304829D01*
X115999242Y-93301123D01*
X115994495Y-93283407D01*
X115994494Y-93283406D01*
X115964688Y-93172164D01*
X115895505Y-93052335D01*
X115797665Y-92954495D01*
X115677836Y-92885312D01*
X115677831Y-92885310D01*
X115544185Y-92849500D01*
X115544184Y-92849500D01*
X115405816Y-92849500D01*
X115405815Y-92849500D01*
X115366378Y-92860066D01*
X115273972Y-92884826D01*
X115237871Y-92885380D01*
X114730856Y-92766083D01*
X114704696Y-92754197D01*
X114696448Y-92748285D01*
X114694552Y-92745448D01*
X114664084Y-92725089D01*
X114663115Y-92724395D01*
X114651534Y-92705768D01*
X114628232Y-92701133D01*
X114628233Y-92701133D01*
X114598989Y-92695316D01*
X114598988Y-92695315D01*
X114569748Y-92689500D01*
X114330252Y-92689500D01*
X114301010Y-92695315D01*
X114301010Y-92695316D01*
X114293749Y-92696760D01*
X114271769Y-92701132D01*
X114271766Y-92701133D01*
X114205451Y-92745445D01*
X114205445Y-92745451D01*
X114161133Y-92811765D01*
X114157947Y-92822271D01*
X114154231Y-92821143D01*
X114145828Y-92841429D01*
X114149856Y-92866637D01*
X114149500Y-92870249D01*
X114149500Y-92870252D01*
X114149500Y-93344748D01*
X114154434Y-93369551D01*
X114161133Y-93403232D01*
X114187088Y-93442076D01*
X114189794Y-93448417D01*
X114189795Y-93448572D01*
X114190092Y-93449127D01*
X114193677Y-93457779D01*
X114195566Y-93462339D01*
X114198311Y-93471390D01*
X114198445Y-93471350D01*
X114199500Y-93474831D01*
X114237632Y-93566889D01*
X114237634Y-93566893D01*
X114237638Y-93566898D01*
X114867418Y-94196678D01*
X114883457Y-94220681D01*
X114893868Y-94245815D01*
X114899500Y-94274130D01*
X114899500Y-95726000D01*
X114877826Y-95778326D01*
X114825500Y-95800000D01*
X113330652Y-95800000D01*
X113278326Y-95778326D01*
X113082174Y-95582174D01*
X113060500Y-95529848D01*
X113060500Y-94361851D01*
X113066131Y-94333537D01*
X113076542Y-94308402D01*
X113092578Y-94284402D01*
X113824288Y-93552692D01*
X113835485Y-93543502D01*
X113843560Y-93538103D01*
X113843561Y-93538104D01*
X113872395Y-93518830D01*
X113872394Y-93518829D01*
X113876352Y-93516184D01*
X113881917Y-93513208D01*
X113882169Y-93512925D01*
X113887800Y-93508103D01*
X113891856Y-93506779D01*
X113894819Y-93502783D01*
X113900075Y-93499271D01*
X113944552Y-93469552D01*
X113988867Y-93403231D01*
X114000500Y-93344748D01*
X114000500Y-92870252D01*
X113988867Y-92811769D01*
X113949829Y-92753346D01*
X113938782Y-92726676D01*
X113935816Y-92711769D01*
X113935030Y-92707818D01*
X113946075Y-92652271D01*
X113988867Y-92588231D01*
X114000500Y-92529748D01*
X114000500Y-92055252D01*
X113988867Y-91996769D01*
X113944552Y-91930448D01*
X113944550Y-91930447D01*
X113944550Y-91930446D01*
X113915111Y-91910775D01*
X113901775Y-91890816D01*
X113878232Y-91886133D01*
X113878233Y-91886133D01*
X113848989Y-91880316D01*
X113848988Y-91880315D01*
X113819748Y-91874500D01*
X113580252Y-91874500D01*
X113551010Y-91880315D01*
X113551010Y-91880316D01*
X113541262Y-91882255D01*
X113521765Y-91886133D01*
X113519677Y-91887529D01*
X113478565Y-91900000D01*
X113257775Y-91900000D01*
X113232021Y-91889332D01*
X113178233Y-91878633D01*
X113148989Y-91872816D01*
X113148988Y-91872815D01*
X113119748Y-91867000D01*
X112880252Y-91867000D01*
X112851010Y-91872815D01*
X112851010Y-91872816D01*
X112843749Y-91874260D01*
X112821769Y-91878632D01*
X112821766Y-91878633D01*
X112755451Y-91922945D01*
X112755448Y-91922947D01*
X112711132Y-91989267D01*
X112709641Y-91996769D01*
X112709640Y-91996771D01*
X112699500Y-92047752D01*
X112699500Y-92215071D01*
X112692867Y-92245692D01*
X112684844Y-92263343D01*
X112600000Y-92449999D01*
X112600000Y-92543016D01*
X112578326Y-92595342D01*
X112544908Y-92614560D01*
X112299023Y-92679544D01*
X112280115Y-92682000D01*
X112180252Y-92682000D01*
X112162329Y-92685565D01*
X112142546Y-92689500D01*
X112121767Y-92693633D01*
X112055449Y-92737947D01*
X112055447Y-92737949D01*
X112050434Y-92745451D01*
X112011132Y-92804267D01*
X112009642Y-92811765D01*
X112009641Y-92811768D01*
X111999500Y-92862752D01*
X111999500Y-93337248D01*
X112005926Y-93369552D01*
X112011133Y-93395732D01*
X112040608Y-93439843D01*
X112043664Y-93444416D01*
X112047065Y-93449506D01*
X112055738Y-93467216D01*
X112735703Y-95507109D01*
X112739500Y-95530510D01*
X112739500Y-97759474D01*
X112735568Y-97772435D01*
X112763933Y-97840913D01*
X112763935Y-97840916D01*
X113243064Y-98320045D01*
X113251083Y-98329540D01*
X113254979Y-98335029D01*
X113258830Y-98343299D01*
X113324042Y-98432332D01*
X113324361Y-98432781D01*
X113325178Y-98436358D01*
X113338016Y-98475612D01*
X113338016Y-99311168D01*
X113316342Y-99363494D01*
X113312723Y-99366878D01*
X113250580Y-99421210D01*
X113201873Y-99439500D01*
X104868072Y-99439500D01*
X104850796Y-99446656D01*
X104809085Y-99463932D01*
X104801870Y-99470653D01*
X104800591Y-99472427D01*
X104065600Y-100207418D01*
X104041594Y-100223458D01*
X104016464Y-100233867D01*
X103988148Y-100239500D01*
X102113047Y-100239500D01*
X102060721Y-100217826D01*
X102039303Y-100171645D01*
X102032437Y-100089257D01*
X102008771Y-99805260D01*
X102026024Y-99751316D01*
X102030176Y-99746803D01*
X102266549Y-99510432D01*
X102799500Y-99510432D01*
X102799500Y-99589566D01*
X102819976Y-99665983D01*
X102819976Y-99665984D01*
X102819977Y-99665985D01*
X102819979Y-99665990D01*
X102834484Y-99691113D01*
X102859538Y-99734508D01*
X102859540Y-99734511D01*
X102915486Y-99790458D01*
X102915488Y-99790459D01*
X102915489Y-99790460D01*
X102984011Y-99830021D01*
X102984012Y-99830021D01*
X102984014Y-99830022D01*
X103000726Y-99834500D01*
X103055749Y-99849244D01*
X103059449Y-99850500D01*
X103139564Y-99850500D01*
X103149827Y-99850500D01*
X103158715Y-99845367D01*
X103215989Y-99830021D01*
X103284511Y-99790460D01*
X103334998Y-99739973D01*
X103350314Y-99728218D01*
X103363793Y-99720435D01*
X103419940Y-99713039D01*
X103425550Y-99714541D01*
X103458723Y-99733694D01*
X103459540Y-99734511D01*
X103515489Y-99790460D01*
X103584011Y-99830021D01*
X103584012Y-99830021D01*
X103584014Y-99830022D01*
X103600726Y-99834500D01*
X103655749Y-99849244D01*
X103659449Y-99850500D01*
X103739564Y-99850500D01*
X103749827Y-99850500D01*
X103758715Y-99845367D01*
X103815989Y-99830021D01*
X103884511Y-99790460D01*
X103940460Y-99734511D01*
X103980021Y-99665989D01*
X104000499Y-99589564D01*
X104000500Y-99589564D01*
X104000500Y-99510436D01*
X104000499Y-99510435D01*
X103980022Y-99434014D01*
X103980021Y-99434011D01*
X103980021Y-99434010D01*
X103957435Y-99394891D01*
X103951987Y-99385454D01*
X103940460Y-99365489D01*
X103940459Y-99365488D01*
X103940458Y-99365486D01*
X103884511Y-99309540D01*
X103884508Y-99309538D01*
X103852250Y-99290914D01*
X103815990Y-99269979D01*
X103815987Y-99269977D01*
X103815984Y-99269976D01*
X103739566Y-99249500D01*
X103739564Y-99249500D01*
X103739562Y-99249500D01*
X103660438Y-99249500D01*
X103660436Y-99249500D01*
X103660434Y-99249500D01*
X103584018Y-99269975D01*
X103584009Y-99269978D01*
X103515490Y-99309538D01*
X103515487Y-99309540D01*
X103464997Y-99360030D01*
X103449666Y-99371793D01*
X103436198Y-99379567D01*
X103380050Y-99386956D01*
X103374445Y-99385454D01*
X103341274Y-99366302D01*
X103284511Y-99309540D01*
X103284508Y-99309538D01*
X103215988Y-99269977D01*
X103215984Y-99269976D01*
X103215983Y-99269976D01*
X103139566Y-99249500D01*
X103139564Y-99249500D01*
X103139562Y-99249500D01*
X103060438Y-99249500D01*
X103060436Y-99249500D01*
X103060434Y-99249500D01*
X102984018Y-99269975D01*
X102984009Y-99269978D01*
X102915491Y-99309537D01*
X102859537Y-99365491D01*
X102819977Y-99434010D01*
X102819977Y-99434011D01*
X102819976Y-99434014D01*
X102819976Y-99434015D01*
X102799500Y-99510432D01*
X102266549Y-99510432D01*
X102486065Y-99290917D01*
X102507362Y-99239500D01*
X102510500Y-99231925D01*
X102510500Y-97436851D01*
X102516131Y-97408537D01*
X102526542Y-97383402D01*
X102542578Y-97359402D01*
X102634402Y-97267579D01*
X102658406Y-97251541D01*
X102683537Y-97241131D01*
X102711853Y-97235500D01*
X104200781Y-97235500D01*
X104229091Y-97241129D01*
X104239503Y-97245442D01*
X104279552Y-97285484D01*
X104283867Y-97295900D01*
X104289500Y-97324218D01*
X104289500Y-97940462D01*
X104289144Y-97947714D01*
X104288435Y-97954914D01*
X104287370Y-97962092D01*
X104287000Y-97963951D01*
X104287000Y-98326043D01*
X104287368Y-98327894D01*
X104288432Y-98335066D01*
X104289143Y-98342280D01*
X104289500Y-98349538D01*
X104289500Y-98740158D01*
X104283866Y-98768479D01*
X104273457Y-98793606D01*
X104257417Y-98817611D01*
X104209538Y-98865489D01*
X104169977Y-98934010D01*
X104169977Y-98934011D01*
X104169976Y-98934014D01*
X104169976Y-98934015D01*
X104149500Y-99010432D01*
X104149500Y-99089566D01*
X104169976Y-99165983D01*
X104169976Y-99165984D01*
X104169977Y-99165985D01*
X104169979Y-99165990D01*
X104204467Y-99225725D01*
X104209540Y-99234511D01*
X104265489Y-99290460D01*
X104292636Y-99306133D01*
X104317090Y-99320252D01*
X104334011Y-99330021D01*
X104334012Y-99330021D01*
X104334014Y-99330022D01*
X104371159Y-99339975D01*
X104405758Y-99349245D01*
X104409453Y-99350500D01*
X104489564Y-99350500D01*
X104499827Y-99350500D01*
X104508715Y-99345367D01*
X104565989Y-99330021D01*
X104634511Y-99290460D01*
X104690460Y-99234511D01*
X104730021Y-99165989D01*
X104750499Y-99089564D01*
X104750500Y-99089564D01*
X104750500Y-99010436D01*
X104750499Y-99010435D01*
X104743814Y-98985488D01*
X104734095Y-98949215D01*
X104734095Y-98949214D01*
X104734095Y-98949213D01*
X104730022Y-98934015D01*
X104730022Y-98934014D01*
X104730020Y-98934009D01*
X104719420Y-98915649D01*
X104690460Y-98865489D01*
X104642581Y-98817610D01*
X104626541Y-98793604D01*
X104616131Y-98768472D01*
X104610500Y-98740158D01*
X104610500Y-98264693D01*
X104610500Y-98264691D01*
X104610128Y-98262824D01*
X104609065Y-98255656D01*
X104608354Y-98248437D01*
X104608000Y-98241196D01*
X104608000Y-98048804D01*
X104608356Y-98041556D01*
X104609066Y-98034342D01*
X104610129Y-98027171D01*
X104610500Y-98025308D01*
X104610500Y-97186851D01*
X104616131Y-97158537D01*
X104626542Y-97133402D01*
X104642578Y-97109402D01*
X105036064Y-96715917D01*
X105036065Y-96715916D01*
X105060500Y-96656925D01*
X105060500Y-96593075D01*
X105060500Y-96118075D01*
X105051284Y-96095825D01*
X105041698Y-96072682D01*
X105041697Y-96072679D01*
X105036067Y-96059087D01*
X105036065Y-96059084D01*
X105036065Y-96059083D01*
X104740917Y-95763936D01*
X104740915Y-95763934D01*
X104740913Y-95763933D01*
X104740910Y-95763931D01*
X104706360Y-95749620D01*
X104706359Y-95749620D01*
X104681925Y-95739500D01*
X103704352Y-95739500D01*
X103676034Y-95733867D01*
X103650905Y-95723458D01*
X103626899Y-95707418D01*
X103479981Y-95560500D01*
X103290915Y-95371434D01*
X103290913Y-95371433D01*
X103290910Y-95371431D01*
X103256360Y-95357120D01*
X103256359Y-95357120D01*
X103231925Y-95347000D01*
X102939219Y-95347000D01*
X102910901Y-95341367D01*
X102900493Y-95337056D01*
X102860444Y-95297008D01*
X102854338Y-95282268D01*
X102850129Y-95268388D01*
X102846933Y-95252322D01*
X102846571Y-95250500D01*
X102838867Y-95211769D01*
X102838471Y-95211177D01*
X102820268Y-95183934D01*
X102820268Y-95183933D01*
X102797598Y-95150007D01*
X102794552Y-95145448D01*
X102794548Y-95145445D01*
X102765111Y-95125775D01*
X102751775Y-95105816D01*
X102728232Y-95101133D01*
X102728233Y-95101133D01*
X102698989Y-95095316D01*
X102698988Y-95095315D01*
X102669748Y-95089500D01*
X102430252Y-95089500D01*
X102401010Y-95095315D01*
X102401010Y-95095316D01*
X102393749Y-95096760D01*
X102371769Y-95101132D01*
X102371766Y-95101133D01*
X102305451Y-95145445D01*
X102305448Y-95145447D01*
X102261133Y-95211766D01*
X102251946Y-95257952D01*
X102220480Y-95305044D01*
X102164931Y-95316093D01*
X102117839Y-95284627D01*
X102107096Y-95259412D01*
X102105537Y-95252322D01*
X102097278Y-95229013D01*
X102096818Y-95227715D01*
X102069530Y-95173269D01*
X102064886Y-95166313D01*
X102055032Y-95151553D01*
X102053695Y-95150006D01*
X102031029Y-95130314D01*
X101972306Y-95092466D01*
X101972304Y-95092465D01*
X101972301Y-95092463D01*
X101945017Y-95079959D01*
X101945006Y-95079955D01*
X101935262Y-95077080D01*
X101930009Y-95075530D01*
X101930005Y-95075529D01*
X101929998Y-95075527D01*
X101915318Y-95072313D01*
X101915311Y-95072312D01*
X101914080Y-95072133D01*
X101880383Y-95067243D01*
X101880374Y-95067242D01*
X101880371Y-95067242D01*
X101865373Y-95066149D01*
X101550454Y-95065735D01*
X100710679Y-95064631D01*
X100710678Y-95064631D01*
X100710671Y-95064631D01*
X100691870Y-95066296D01*
X100656365Y-95072681D01*
X100601029Y-95060609D01*
X100597042Y-95057633D01*
X100541712Y-95013369D01*
X100475541Y-94960432D01*
X105099500Y-94960432D01*
X105099500Y-95039566D01*
X105119976Y-95115983D01*
X105119976Y-95115984D01*
X105119977Y-95115987D01*
X105119977Y-95115988D01*
X105145097Y-95159496D01*
X105145100Y-95159500D01*
X105159540Y-95184511D01*
X105215489Y-95240460D01*
X105217802Y-95241795D01*
X105219270Y-95242643D01*
X105236028Y-95252318D01*
X105273360Y-95273872D01*
X105284011Y-95280021D01*
X105284012Y-95280021D01*
X105284014Y-95280022D01*
X105307248Y-95286247D01*
X105322217Y-95290259D01*
X105322223Y-95290259D01*
X105322224Y-95290260D01*
X105355748Y-95299243D01*
X105359451Y-95300500D01*
X105439564Y-95300500D01*
X105449827Y-95300500D01*
X105458715Y-95295367D01*
X105515989Y-95280021D01*
X105584511Y-95240460D01*
X105640460Y-95184511D01*
X105680021Y-95115989D01*
X105700499Y-95039564D01*
X105700500Y-95039564D01*
X105700500Y-94960436D01*
X105700499Y-94960435D01*
X105680022Y-94884014D01*
X105680021Y-94884011D01*
X105680021Y-94884010D01*
X105651155Y-94834014D01*
X105651155Y-94834013D01*
X105651153Y-94834011D01*
X105640460Y-94815489D01*
X105640458Y-94815486D01*
X105584511Y-94759540D01*
X105584508Y-94759538D01*
X105515988Y-94719977D01*
X105515984Y-94719976D01*
X105515983Y-94719976D01*
X105439566Y-94699500D01*
X105439564Y-94699500D01*
X105439562Y-94699500D01*
X105360438Y-94699500D01*
X105360436Y-94699500D01*
X105360434Y-94699500D01*
X105284018Y-94719975D01*
X105284009Y-94719978D01*
X105215491Y-94759537D01*
X105159537Y-94815491D01*
X105119977Y-94884010D01*
X105119977Y-94884011D01*
X105119976Y-94884014D01*
X105119976Y-94884015D01*
X105099500Y-94960432D01*
X100475541Y-94960432D01*
X100428273Y-94922618D01*
X100400953Y-94873006D01*
X100400500Y-94864834D01*
X100400500Y-94455253D01*
X100400500Y-94455252D01*
X100388867Y-94396769D01*
X100344552Y-94330448D01*
X100322343Y-94315608D01*
X100315106Y-94310772D01*
X100301774Y-94290815D01*
X100262106Y-94282925D01*
X100248989Y-94280316D01*
X100248988Y-94280315D01*
X100219748Y-94274500D01*
X99980252Y-94274500D01*
X99951010Y-94280315D01*
X99951010Y-94280316D01*
X99943749Y-94281760D01*
X99921769Y-94286132D01*
X99921766Y-94286133D01*
X99855451Y-94330445D01*
X99855448Y-94330447D01*
X99811133Y-94396766D01*
X99799500Y-94455253D01*
X99799500Y-94720647D01*
X99793867Y-94748963D01*
X99789488Y-94759538D01*
X99783459Y-94774093D01*
X99767418Y-94798099D01*
X99508803Y-95056713D01*
X99470325Y-95077080D01*
X99428232Y-95085098D01*
X99411985Y-95088193D01*
X99398140Y-95089500D01*
X99180252Y-95089500D01*
X99151010Y-95095315D01*
X99151010Y-95095316D01*
X99134612Y-95098578D01*
X99120175Y-95100000D01*
X98779825Y-95100000D01*
X98765389Y-95098578D01*
X98748989Y-95095316D01*
X98748989Y-95095315D01*
X98719748Y-95089500D01*
X98480252Y-95089500D01*
X98451010Y-95095315D01*
X98451010Y-95095316D01*
X98443749Y-95096760D01*
X98421769Y-95101132D01*
X98421766Y-95101133D01*
X98355451Y-95145445D01*
X98355448Y-95145447D01*
X98311133Y-95211766D01*
X98310000Y-95217460D01*
X98307962Y-95227715D01*
X98307704Y-95229010D01*
X98307703Y-95229012D01*
X98299500Y-95270252D01*
X98299500Y-95744747D01*
X98301083Y-95752708D01*
X98303317Y-95763935D01*
X98311133Y-95803232D01*
X98340608Y-95847343D01*
X98344219Y-95852747D01*
X98344220Y-95852749D01*
X98355446Y-95869550D01*
X98355448Y-95869552D01*
X98380631Y-95886379D01*
X98421767Y-95913866D01*
X98421768Y-95913866D01*
X98421769Y-95913867D01*
X98428914Y-95915288D01*
X98428915Y-95915289D01*
X98480252Y-95925500D01*
X98723385Y-95925500D01*
X98723385Y-95926466D01*
X98745214Y-95928563D01*
X99076087Y-96027826D01*
X99086764Y-96031029D01*
X99130655Y-96066825D01*
X99139500Y-96101908D01*
X99139500Y-96356575D01*
X99117826Y-96408901D01*
X99095554Y-96424197D01*
X98765121Y-96571055D01*
X98708502Y-96572501D01*
X98682741Y-96555759D01*
X97912581Y-95785599D01*
X97896541Y-95761593D01*
X97886131Y-95736461D01*
X97880500Y-95708147D01*
X97880500Y-95679452D01*
X97879245Y-95675758D01*
X97860022Y-95604014D01*
X97860020Y-95604009D01*
X97849420Y-95585649D01*
X97820460Y-95535489D01*
X97820458Y-95535487D01*
X97820458Y-95535486D01*
X97764511Y-95479540D01*
X97764508Y-95479538D01*
X97695988Y-95439977D01*
X97695984Y-95439976D01*
X97619566Y-95419500D01*
X97619564Y-95419500D01*
X97619562Y-95419500D01*
X97551853Y-95419500D01*
X97523535Y-95413867D01*
X97498406Y-95403458D01*
X97474400Y-95387418D01*
X97270917Y-95183936D01*
X97270915Y-95183934D01*
X97270912Y-95183932D01*
X97236051Y-95169493D01*
X97236049Y-95169492D01*
X97228373Y-95166313D01*
X97211925Y-95159500D01*
X97211924Y-95159500D01*
X97177512Y-95159500D01*
X97171332Y-95158445D01*
X97152269Y-95146445D01*
X97131459Y-95137826D01*
X97125953Y-95129881D01*
X97123400Y-95128274D01*
X97122696Y-95125181D01*
X97116418Y-95116121D01*
X96957579Y-94766675D01*
X96951075Y-94731714D01*
X97024777Y-93478772D01*
X97031786Y-93453945D01*
X97030930Y-93453591D01*
X97032322Y-93450230D01*
X97103973Y-93277251D01*
X97140500Y-93093616D01*
X97140500Y-92906384D01*
X97779500Y-92906384D01*
X97779500Y-93093614D01*
X97816022Y-93277230D01*
X97816027Y-93277253D01*
X97886409Y-93447171D01*
X97886410Y-93447171D01*
X97887677Y-93450230D01*
X97944828Y-93535762D01*
X97972937Y-93577831D01*
X97991693Y-93605902D01*
X97991695Y-93605904D01*
X97991698Y-93605908D01*
X98124092Y-93738302D01*
X98279769Y-93842322D01*
X98452749Y-93913973D01*
X98636384Y-93950500D01*
X98636385Y-93950500D01*
X98823615Y-93950500D01*
X98823616Y-93950500D01*
X99007251Y-93913973D01*
X99180231Y-93842322D01*
X99335908Y-93738302D01*
X99468302Y-93605908D01*
X99572322Y-93450231D01*
X99643973Y-93277251D01*
X99680500Y-93093616D01*
X99680500Y-92906384D01*
X100319500Y-92906384D01*
X100319500Y-93093614D01*
X100356022Y-93277230D01*
X100356027Y-93277253D01*
X100426409Y-93447171D01*
X100426410Y-93447171D01*
X100427677Y-93450230D01*
X100484828Y-93535762D01*
X100512937Y-93577831D01*
X100531693Y-93605902D01*
X100531695Y-93605904D01*
X100531698Y-93605908D01*
X100664092Y-93738302D01*
X100819769Y-93842322D01*
X100992749Y-93913973D01*
X101176384Y-93950500D01*
X101176385Y-93950500D01*
X101363615Y-93950500D01*
X101363616Y-93950500D01*
X101547251Y-93913973D01*
X101720231Y-93842322D01*
X101875908Y-93738302D01*
X102008302Y-93605908D01*
X102112322Y-93450231D01*
X102161786Y-93330814D01*
X104999500Y-93330814D01*
X104999500Y-93469185D01*
X105035310Y-93602831D01*
X105035312Y-93602836D01*
X105104495Y-93722665D01*
X105202335Y-93820505D01*
X105322164Y-93889688D01*
X105451133Y-93924244D01*
X105454831Y-93925500D01*
X105594185Y-93925500D01*
X105604448Y-93925500D01*
X105613336Y-93920367D01*
X105727836Y-93889688D01*
X105847665Y-93820505D01*
X105907738Y-93760432D01*
X106149500Y-93760432D01*
X106149500Y-93839566D01*
X106169976Y-93915983D01*
X106169976Y-93915984D01*
X106169977Y-93915987D01*
X106169977Y-93915988D01*
X106208727Y-93983103D01*
X106208724Y-93983104D01*
X106208739Y-93983123D01*
X106209540Y-93984511D01*
X106265489Y-94040460D01*
X106315649Y-94069420D01*
X106315648Y-94069420D01*
X106321401Y-94072741D01*
X106325610Y-94075171D01*
X106334011Y-94080021D01*
X106334012Y-94080021D01*
X106334014Y-94080022D01*
X106356813Y-94086131D01*
X106405749Y-94099244D01*
X106409449Y-94100500D01*
X106489564Y-94100500D01*
X106499827Y-94100500D01*
X106508715Y-94095367D01*
X106565989Y-94080021D01*
X106634511Y-94040460D01*
X106690460Y-93984511D01*
X106730021Y-93915989D01*
X106750499Y-93839564D01*
X106750500Y-93839564D01*
X106750500Y-93760436D01*
X106750499Y-93760435D01*
X106744568Y-93738302D01*
X106730021Y-93684011D01*
X106690460Y-93615489D01*
X106639113Y-93564142D01*
X106627353Y-93548815D01*
X106621433Y-93538561D01*
X106614041Y-93482409D01*
X106648520Y-93437476D01*
X106648523Y-93437474D01*
X106652095Y-93435412D01*
X106689091Y-93425500D01*
X106719746Y-93425500D01*
X106719748Y-93425500D01*
X106778231Y-93413867D01*
X106779043Y-93413324D01*
X106780321Y-93412471D01*
X106821433Y-93400000D01*
X107077289Y-93400000D01*
X107112172Y-93408738D01*
X107118561Y-93412153D01*
X107121246Y-93413762D01*
X107121766Y-93413865D01*
X107121767Y-93413866D01*
X107121768Y-93413866D01*
X107121769Y-93413867D01*
X107128914Y-93415288D01*
X107128915Y-93415289D01*
X107180252Y-93425500D01*
X107180254Y-93425500D01*
X107212133Y-93425500D01*
X107264459Y-93447174D01*
X107280150Y-93470350D01*
X107518582Y-94026694D01*
X107519272Y-94083327D01*
X107516167Y-94090083D01*
X107514734Y-94092827D01*
X107509708Y-94100773D01*
X107506842Y-94107431D01*
X107506086Y-94109397D01*
X107505470Y-94110577D01*
X107505331Y-94110786D01*
X107505330Y-94110788D01*
X107505311Y-94110882D01*
X107505269Y-94110963D01*
X107503922Y-94114892D01*
X107503891Y-94114977D01*
X107503120Y-94118983D01*
X107502472Y-94125155D01*
X107499500Y-94140101D01*
X107499500Y-95359901D01*
X107505328Y-95389209D01*
X107505330Y-95389213D01*
X107505330Y-95389214D01*
X107505331Y-95389215D01*
X107527540Y-95422454D01*
X107527542Y-95422456D01*
X107527543Y-95422457D01*
X107560787Y-95444669D01*
X107590101Y-95450500D01*
X108609898Y-95450499D01*
X108609901Y-95450499D01*
X108621398Y-95448211D01*
X108639213Y-95444669D01*
X108639214Y-95444668D01*
X108639215Y-95444668D01*
X108668608Y-95425028D01*
X108672887Y-95422542D01*
X108676575Y-95419705D01*
X108686860Y-95412833D01*
X108688165Y-95399586D01*
X108691886Y-95393377D01*
X108694669Y-95389213D01*
X108700500Y-95359899D01*
X108700499Y-94182197D01*
X108706132Y-94153880D01*
X108710443Y-94143472D01*
X108750488Y-94103425D01*
X108755127Y-94101503D01*
X108802590Y-94098397D01*
X108810437Y-94100500D01*
X108889564Y-94100500D01*
X108899827Y-94100500D01*
X108908715Y-94095367D01*
X108965989Y-94080021D01*
X109034511Y-94040460D01*
X109090460Y-93984511D01*
X109130021Y-93915989D01*
X109150499Y-93839564D01*
X109150500Y-93839564D01*
X109150500Y-93760436D01*
X109150499Y-93760435D01*
X109144568Y-93738302D01*
X109130021Y-93684011D01*
X109090460Y-93615489D01*
X109034511Y-93559540D01*
X109021150Y-93551826D01*
X108965990Y-93519979D01*
X108965987Y-93519977D01*
X108965954Y-93519964D01*
X108965355Y-93519808D01*
X108961969Y-93518901D01*
X108936073Y-93506130D01*
X108927135Y-93499271D01*
X108898821Y-93450236D01*
X108898763Y-93449795D01*
X108913413Y-93395086D01*
X108931014Y-93378597D01*
X108944552Y-93369552D01*
X108970436Y-93330814D01*
X109249500Y-93330814D01*
X109249500Y-93469185D01*
X109285310Y-93602831D01*
X109285312Y-93602836D01*
X109354495Y-93722665D01*
X109452335Y-93820505D01*
X109572164Y-93889688D01*
X109701133Y-93924244D01*
X109704831Y-93925500D01*
X109844185Y-93925500D01*
X109854448Y-93925500D01*
X109863336Y-93920367D01*
X109977836Y-93889688D01*
X110097665Y-93820505D01*
X110195505Y-93722665D01*
X110264688Y-93602836D01*
X110295367Y-93488336D01*
X110300500Y-93479447D01*
X110300500Y-93330813D01*
X110297635Y-93320124D01*
X110297636Y-93320123D01*
X110297633Y-93320118D01*
X110293800Y-93305814D01*
X110699500Y-93305814D01*
X110699500Y-93444185D01*
X110735310Y-93577831D01*
X110735312Y-93577836D01*
X110804495Y-93697665D01*
X110902335Y-93795505D01*
X111022164Y-93864688D01*
X111151133Y-93899244D01*
X111154831Y-93900500D01*
X111294185Y-93900500D01*
X111304448Y-93900500D01*
X111313336Y-93895367D01*
X111427836Y-93864688D01*
X111547665Y-93795505D01*
X111645505Y-93697665D01*
X111714688Y-93577836D01*
X111745367Y-93463336D01*
X111750500Y-93454447D01*
X111750500Y-93304829D01*
X111749242Y-93301123D01*
X111744495Y-93283407D01*
X111744494Y-93283406D01*
X111714688Y-93172164D01*
X111645505Y-93052335D01*
X111547665Y-92954495D01*
X111427836Y-92885312D01*
X111427831Y-92885310D01*
X111294185Y-92849500D01*
X111294184Y-92849500D01*
X111155816Y-92849500D01*
X111155815Y-92849500D01*
X111022168Y-92885310D01*
X111022166Y-92885310D01*
X111022165Y-92885311D01*
X110902333Y-92954495D01*
X110804495Y-93052333D01*
X110735311Y-93172164D01*
X110735310Y-93172168D01*
X110699500Y-93305814D01*
X110293800Y-93305814D01*
X110264688Y-93197164D01*
X110195505Y-93077335D01*
X110097665Y-92979495D01*
X109977836Y-92910312D01*
X109977831Y-92910310D01*
X109844185Y-92874500D01*
X109844184Y-92874500D01*
X109705816Y-92874500D01*
X109705815Y-92874500D01*
X109572168Y-92910310D01*
X109572166Y-92910310D01*
X109572165Y-92910311D01*
X109452333Y-92979495D01*
X109354495Y-93077333D01*
X109285311Y-93197164D01*
X109285310Y-93197168D01*
X109249500Y-93330814D01*
X108970436Y-93330814D01*
X108988867Y-93303231D01*
X109000500Y-93244748D01*
X109000500Y-92770252D01*
X108988867Y-92711769D01*
X108988471Y-92711177D01*
X108988468Y-92711172D01*
X108988451Y-92711146D01*
X108950636Y-92654553D01*
X108950635Y-92654551D01*
X108944554Y-92645450D01*
X108944551Y-92645447D01*
X108915111Y-92625775D01*
X108901775Y-92605816D01*
X108878232Y-92601133D01*
X108878233Y-92601133D01*
X108848989Y-92595316D01*
X108848988Y-92595315D01*
X108819748Y-92589500D01*
X108584975Y-92589500D01*
X108532649Y-92567826D01*
X108516605Y-92543812D01*
X108306130Y-92035544D01*
X108300500Y-92007232D01*
X108300500Y-91955253D01*
X108295566Y-91930448D01*
X108288867Y-91896769D01*
X108284889Y-91890816D01*
X108244551Y-91830447D01*
X108237742Y-91825898D01*
X108222343Y-91815608D01*
X108178232Y-91786133D01*
X108137939Y-91778118D01*
X108130057Y-91775151D01*
X108101180Y-91764281D01*
X108096133Y-91764657D01*
X108039566Y-91749500D01*
X108039564Y-91749500D01*
X108039562Y-91749500D01*
X107960438Y-91749500D01*
X107960436Y-91749500D01*
X107905372Y-91764253D01*
X107905339Y-91764263D01*
X107884012Y-91769978D01*
X107879530Y-91771835D01*
X107879426Y-91771583D01*
X107865841Y-91776694D01*
X107863890Y-91777309D01*
X107863274Y-91777254D01*
X107856114Y-91779300D01*
X107821765Y-91786133D01*
X107819677Y-91787529D01*
X107778565Y-91800000D01*
X107550000Y-91800000D01*
X107550000Y-92482800D01*
X107528326Y-92535126D01*
X107476000Y-92556800D01*
X107456848Y-92554279D01*
X107439012Y-92549500D01*
X107439010Y-92549500D01*
X107359886Y-92549500D01*
X107359884Y-92549500D01*
X107321672Y-92559738D01*
X107283460Y-92569977D01*
X107283454Y-92569980D01*
X107275253Y-92574715D01*
X107257413Y-92582105D01*
X107242134Y-92586200D01*
X107239234Y-92586977D01*
X107220078Y-92589500D01*
X107180252Y-92589500D01*
X107151010Y-92595315D01*
X107151010Y-92595316D01*
X107138930Y-92597719D01*
X107134612Y-92598578D01*
X107120175Y-92600000D01*
X106800000Y-92600000D01*
X106779825Y-92600000D01*
X106765389Y-92598578D01*
X106748989Y-92595316D01*
X106748989Y-92595315D01*
X106719748Y-92589500D01*
X106480252Y-92589500D01*
X106451010Y-92595315D01*
X106451010Y-92595316D01*
X106443749Y-92596760D01*
X106421769Y-92601132D01*
X106421766Y-92601133D01*
X106355451Y-92645445D01*
X106355448Y-92645447D01*
X106311133Y-92711766D01*
X106308949Y-92722747D01*
X106307190Y-92731591D01*
X106299500Y-92770252D01*
X106299500Y-93244748D01*
X106304992Y-93272358D01*
X106311133Y-93303232D01*
X106333861Y-93337246D01*
X106355448Y-93369552D01*
X106370550Y-93379643D01*
X106377235Y-93387507D01*
X106378029Y-93389971D01*
X106382384Y-93394326D01*
X106387405Y-93401841D01*
X106398453Y-93457390D01*
X106368981Y-93503100D01*
X106363193Y-93507248D01*
X106339240Y-93518577D01*
X106334661Y-93519804D01*
X106334047Y-93519963D01*
X106334011Y-93519977D01*
X106265491Y-93559537D01*
X106209537Y-93615491D01*
X106169977Y-93684010D01*
X106169977Y-93684011D01*
X106169976Y-93684014D01*
X106169976Y-93684015D01*
X106149500Y-93760432D01*
X105907738Y-93760432D01*
X105945505Y-93722665D01*
X106014688Y-93602836D01*
X106045367Y-93488336D01*
X106050500Y-93479447D01*
X106050500Y-93329830D01*
X106049244Y-93326132D01*
X106014688Y-93197164D01*
X105945505Y-93077335D01*
X105847665Y-92979495D01*
X105727836Y-92910312D01*
X105727831Y-92910310D01*
X105594185Y-92874500D01*
X105594184Y-92874500D01*
X105455816Y-92874500D01*
X105455815Y-92874500D01*
X105322168Y-92910310D01*
X105322166Y-92910310D01*
X105322165Y-92910311D01*
X105202333Y-92979495D01*
X105104495Y-93077333D01*
X105035311Y-93197164D01*
X105035310Y-93197168D01*
X104999500Y-93330814D01*
X102161786Y-93330814D01*
X102183973Y-93277251D01*
X102220500Y-93093616D01*
X102220500Y-92906384D01*
X102183973Y-92722749D01*
X102112322Y-92549769D01*
X102008302Y-92394092D01*
X101875908Y-92261698D01*
X101720231Y-92157678D01*
X101720228Y-92157676D01*
X101720227Y-92157676D01*
X101719606Y-92157262D01*
X101716846Y-92156275D01*
X101547253Y-92086027D01*
X101547230Y-92086022D01*
X101392533Y-92055252D01*
X101392532Y-92055251D01*
X101363616Y-92049500D01*
X101176384Y-92049500D01*
X101147466Y-92055252D01*
X100992755Y-92086025D01*
X100992749Y-92086026D01*
X100819771Y-92157676D01*
X100663822Y-92261877D01*
X100662446Y-92263343D01*
X100533343Y-92392446D01*
X100531877Y-92393822D01*
X100427676Y-92549771D01*
X100356027Y-92722747D01*
X100356022Y-92722768D01*
X100319500Y-92906384D01*
X99680500Y-92906384D01*
X99643973Y-92722749D01*
X99572322Y-92549769D01*
X99468302Y-92394092D01*
X99335908Y-92261698D01*
X99180231Y-92157678D01*
X99180228Y-92157676D01*
X99180227Y-92157676D01*
X99179606Y-92157262D01*
X99176846Y-92156275D01*
X99007253Y-92086027D01*
X99007230Y-92086022D01*
X98852533Y-92055252D01*
X98852532Y-92055251D01*
X98823616Y-92049500D01*
X98636384Y-92049500D01*
X98607466Y-92055252D01*
X98452755Y-92086025D01*
X98452749Y-92086026D01*
X98279771Y-92157676D01*
X98123822Y-92261877D01*
X98122446Y-92263343D01*
X97993343Y-92392446D01*
X97991877Y-92393822D01*
X97887676Y-92549771D01*
X97816027Y-92722747D01*
X97816022Y-92722768D01*
X97779500Y-92906384D01*
X97140500Y-92906384D01*
X97103973Y-92722749D01*
X97032322Y-92549769D01*
X96928302Y-92394092D01*
X96795908Y-92261698D01*
X96640231Y-92157678D01*
X96640228Y-92157676D01*
X96640227Y-92157676D01*
X96639606Y-92157262D01*
X96636846Y-92156275D01*
X96467253Y-92086027D01*
X96467230Y-92086022D01*
X96312533Y-92055252D01*
X96312532Y-92055251D01*
X96283616Y-92049500D01*
X96096384Y-92049500D01*
X96067466Y-92055252D01*
X95912755Y-92086025D01*
X95912749Y-92086026D01*
X95739771Y-92157676D01*
X95583822Y-92261877D01*
X95582446Y-92263343D01*
X95453343Y-92392446D01*
X95451877Y-92393822D01*
X95347676Y-92549771D01*
X95276027Y-92722747D01*
X95276022Y-92722768D01*
X95239500Y-92906384D01*
X95239500Y-93093614D01*
X95276022Y-93277230D01*
X95276027Y-93277253D01*
X95346409Y-93447171D01*
X95346410Y-93447171D01*
X95347677Y-93450230D01*
X95404828Y-93535762D01*
X95432937Y-93577831D01*
X95451693Y-93605902D01*
X95451695Y-93605904D01*
X95451698Y-93605908D01*
X95521574Y-93675784D01*
X95527944Y-93683825D01*
X95528290Y-93683562D01*
X95530491Y-93686447D01*
X95966246Y-94154174D01*
X95986056Y-94207234D01*
X95984681Y-94219051D01*
X95979500Y-94245102D01*
X95979500Y-94714901D01*
X95985328Y-94744209D01*
X95985330Y-94744212D01*
X95985331Y-94744215D01*
X96007540Y-94777454D01*
X96007541Y-94777455D01*
X96009529Y-94780430D01*
X96020577Y-94835979D01*
X96005783Y-94867768D01*
X95322218Y-95722227D01*
X95272606Y-95749547D01*
X95264434Y-95750000D01*
X94491899Y-95750000D01*
X94439573Y-95728326D01*
X94428445Y-95714073D01*
X94211046Y-95351741D01*
X94200500Y-95313668D01*
X94200500Y-93128419D01*
X94206131Y-93100105D01*
X94216542Y-93074970D01*
X94232578Y-93050970D01*
X95550970Y-91732578D01*
X95574973Y-91716541D01*
X95600104Y-91706131D01*
X95628420Y-91700500D01*
X100280132Y-91700500D01*
X100280144Y-91700505D01*
X100320026Y-91700500D01*
X100359882Y-91700500D01*
X100359896Y-91700500D01*
X100359908Y-91700495D01*
X100382764Y-91691022D01*
X100406668Y-91686265D01*
X100418456Y-91676237D01*
X100431180Y-91670967D01*
X100433936Y-91669938D01*
X100434556Y-91669360D01*
X100435072Y-91669166D01*
X100435544Y-91668712D01*
X100438731Y-91664823D01*
X100450451Y-91653099D01*
X100469179Y-91641038D01*
X100477183Y-91626366D01*
X100489976Y-91613574D01*
X100489977Y-91613569D01*
X100490138Y-91613409D01*
X100490312Y-91612941D01*
X100491689Y-91610369D01*
X100492742Y-91606906D01*
X100505402Y-91576331D01*
X100505403Y-91576331D01*
X100505404Y-91576325D01*
X100512465Y-91559277D01*
X100528509Y-91535268D01*
X100542106Y-91521674D01*
X100542110Y-91521670D01*
X100542111Y-91521671D01*
X100594432Y-91500000D01*
X110038816Y-91500000D01*
X110067130Y-91505631D01*
G37*
%TD.AperFunction*%
%TA.AperFunction,Conductor*%
G36*
X95526462Y-96466131D02*
G01*
X95551594Y-96476541D01*
X95575600Y-96492581D01*
X95598818Y-96515799D01*
X95614859Y-96539806D01*
X95619171Y-96550216D01*
X95619173Y-96606848D01*
X95612936Y-96621909D01*
X95606099Y-96634704D01*
X95600001Y-96643832D01*
X95599789Y-96644149D01*
X95599786Y-96644153D01*
X95585329Y-96665789D01*
X95579500Y-96695098D01*
X95579500Y-97149490D01*
X95575703Y-97172891D01*
X95454074Y-97537776D01*
X95441249Y-97558623D01*
X95442456Y-97559549D01*
X95439506Y-97563392D01*
X95380199Y-97666113D01*
X95380199Y-97666114D01*
X95372853Y-97693529D01*
X95340595Y-97737126D01*
X95017997Y-97938752D01*
X94978777Y-97950000D01*
X94534500Y-97950000D01*
X94482174Y-97928326D01*
X94460500Y-97876000D01*
X94460500Y-96771851D01*
X94466131Y-96743537D01*
X94476542Y-96718402D01*
X94492578Y-96694402D01*
X94694402Y-96492578D01*
X94718405Y-96476541D01*
X94743536Y-96466131D01*
X94771852Y-96460500D01*
X95498148Y-96460500D01*
X95526462Y-96466131D01*
G37*
%TD.AperFunction*%
%TD*%
%TA.AperFunction,Conductor*%
%TO.N,/SPI_CS*%
G36*
X113705617Y-98064342D02*
G01*
X114236111Y-98474424D01*
X114240560Y-98482195D01*
X114238212Y-98490837D01*
X114234278Y-98494100D01*
X113708873Y-98762545D01*
X113699947Y-98763257D01*
X113694112Y-98759041D01*
X113343942Y-98280959D01*
X113341819Y-98272261D01*
X113345107Y-98265776D01*
X113421395Y-98189488D01*
X113424756Y-98187143D01*
X113693555Y-98062976D01*
X113702502Y-98062619D01*
X113705617Y-98064342D01*
G37*
%TD.AperFunction*%
%TD*%
%TA.AperFunction,Conductor*%
%TO.N,/SPI_MISO*%
G36*
X114807223Y-103566204D02*
G01*
X115220923Y-103921499D01*
X115224966Y-103929488D01*
X115225000Y-103930374D01*
X115225000Y-104039625D01*
X115221573Y-104047898D01*
X115220923Y-104048501D01*
X114807226Y-104403794D01*
X114798717Y-104406584D01*
X114792457Y-104404182D01*
X114326788Y-104045000D01*
X114261009Y-103994263D01*
X114256552Y-103986498D01*
X114258892Y-103977854D01*
X114261008Y-103975737D01*
X114792459Y-103565816D01*
X114801101Y-103563477D01*
X114807223Y-103566204D01*
G37*
%TD.AperFunction*%
%TD*%
%TA.AperFunction,Conductor*%
%TO.N,/SPI_MISO*%
G36*
X113707542Y-103565817D02*
G01*
X114238989Y-103975736D01*
X114243447Y-103983502D01*
X114241107Y-103992146D01*
X114238989Y-103994264D01*
X113707542Y-104404182D01*
X113698898Y-104406522D01*
X113692774Y-104403794D01*
X113279077Y-104048501D01*
X113275034Y-104040511D01*
X113275000Y-104039625D01*
X113275000Y-103930374D01*
X113278427Y-103922101D01*
X113279068Y-103921505D01*
X113692776Y-103566203D01*
X113701282Y-103563415D01*
X113707542Y-103565817D01*
G37*
%TD.AperFunction*%
%TD*%
%TA.AperFunction,Conductor*%
%TO.N,/SPI_MOSI*%
G36*
X113705213Y-99173269D02*
G01*
X113705990Y-99173559D01*
X113708953Y-99175186D01*
X113985734Y-99384446D01*
X114236922Y-99574357D01*
X114239952Y-99577761D01*
X114240856Y-99579301D01*
X114242091Y-99588168D01*
X114242090Y-99588171D01*
X114241893Y-99588928D01*
X114237716Y-99595245D01*
X113709228Y-100002880D01*
X113705141Y-100004909D01*
X113702693Y-100005572D01*
X113694994Y-100005020D01*
X113694325Y-100004731D01*
X113691527Y-100003022D01*
X113281058Y-99664988D01*
X113278167Y-99661452D01*
X113276371Y-99658077D01*
X113275000Y-99652581D01*
X113275000Y-99547638D01*
X113275890Y-99543163D01*
X113276223Y-99542358D01*
X113277402Y-99539510D01*
X113280507Y-99535183D01*
X113691085Y-99176210D01*
X113695039Y-99173936D01*
X113697377Y-99173146D01*
X113705213Y-99173269D01*
G37*
%TD.AperFunction*%
%TD*%
%TA.AperFunction,Conductor*%
%TO.N,/SPI_MOSI*%
G36*
X114804894Y-99165167D02*
G01*
X114805652Y-99165504D01*
X114808519Y-99167317D01*
X115219158Y-99519983D01*
X115221972Y-99523573D01*
X115223739Y-99527064D01*
X115225000Y-99532346D01*
X115225000Y-99637297D01*
X115224109Y-99641776D01*
X115222612Y-99645389D01*
X115219426Y-99649786D01*
X114808992Y-100002277D01*
X114805013Y-100004519D01*
X114802667Y-100005288D01*
X114794836Y-100005095D01*
X114794057Y-100004796D01*
X114791102Y-100003137D01*
X114326788Y-99645000D01*
X114262850Y-99595683D01*
X114259851Y-99592245D01*
X114258962Y-99590698D01*
X114257815Y-99581833D01*
X114257850Y-99581702D01*
X114258026Y-99581052D01*
X114262174Y-99574837D01*
X114790617Y-99167236D01*
X114794705Y-99165208D01*
X114797086Y-99164564D01*
X114804894Y-99165167D01*
G37*
%TD.AperFunction*%
%TD*%
%TA.AperFunction,Conductor*%
%TO.N,/OLED_SDA*%
G36*
X96198291Y-93007255D02*
G01*
X96198394Y-93007355D01*
X96782171Y-93588394D01*
X96785617Y-93596659D01*
X96782618Y-93604509D01*
X96263486Y-94182029D01*
X96255407Y-94185890D01*
X96254785Y-94185907D01*
X96145091Y-94185907D01*
X96136818Y-94182480D01*
X96136530Y-94182182D01*
X95607681Y-93614531D01*
X95604549Y-93606142D01*
X95607848Y-93598407D01*
X96181748Y-93007496D01*
X96189969Y-93003949D01*
X96198291Y-93007255D01*
G37*
%TD.AperFunction*%
%TD*%
%TA.AperFunction,Conductor*%
%TO.N,/SD_DET*%
G36*
X108162984Y-93653427D02*
G01*
X108163494Y-93653971D01*
X108593386Y-94142484D01*
X108596279Y-94150958D01*
X108593597Y-94157696D01*
X108108994Y-94740189D01*
X108101069Y-94744357D01*
X108092517Y-94741700D01*
X108091006Y-94740189D01*
X107989085Y-94617680D01*
X107606401Y-94157694D01*
X107603745Y-94149144D01*
X107606611Y-94142486D01*
X108036506Y-93653971D01*
X108044544Y-93650024D01*
X108045289Y-93650000D01*
X108154711Y-93650000D01*
X108162984Y-93653427D01*
G37*
%TD.AperFunction*%
%TD*%
%TA.AperFunction,Conductor*%
%TO.N,Net-(J1-CLK)*%
G36*
X113708609Y-101597931D02*
G01*
X114244666Y-101782216D01*
X114251375Y-101788146D01*
X114252226Y-101790498D01*
X114351759Y-102197015D01*
X114350398Y-102205865D01*
X114343177Y-102211161D01*
X114341647Y-102211430D01*
X113374248Y-102315570D01*
X113365656Y-102313048D01*
X113364723Y-102312210D01*
X113290551Y-102238038D01*
X113287124Y-102229765D01*
X113289030Y-102223364D01*
X113695016Y-101602591D01*
X113702412Y-101597544D01*
X113708609Y-101597931D01*
G37*
%TD.AperFunction*%
%TD*%
M02*
