%TF.GenerationSoftware,KiCad,Pcbnew,9.0.6-rc1*%
%TF.CreationDate,2025-12-13T16:16:27+01:00*%
%TF.ProjectId,hardware_V8,68617264-7761-4726-955f-56382e6b6963,rev?*%
%TF.SameCoordinates,Original*%
%TF.FileFunction,Legend,Top*%
%TF.FilePolarity,Positive*%
%FSLAX46Y46*%
G04 Gerber Fmt 4.6, Leading zero omitted, Abs format (unit mm)*
G04 Created by KiCad (PCBNEW 9.0.6-rc1) date 2025-12-13 16:16:27*
%MOMM*%
%LPD*%
G01*
G04 APERTURE LIST*
%ADD10C,0.250000*%
%ADD11C,0.120000*%
%ADD12C,0.200000*%
%ADD13C,0.100000*%
G04 APERTURE END LIST*
D10*
X105059711Y-91814619D02*
X105393044Y-92814619D01*
X105393044Y-92814619D02*
X105726377Y-91814619D01*
X106107330Y-92814619D02*
X106297806Y-92814619D01*
X106297806Y-92814619D02*
X106393044Y-92767000D01*
X106393044Y-92767000D02*
X106440663Y-92719380D01*
X106440663Y-92719380D02*
X106535901Y-92576523D01*
X106535901Y-92576523D02*
X106583520Y-92386047D01*
X106583520Y-92386047D02*
X106583520Y-92005095D01*
X106583520Y-92005095D02*
X106535901Y-91909857D01*
X106535901Y-91909857D02*
X106488282Y-91862238D01*
X106488282Y-91862238D02*
X106393044Y-91814619D01*
X106393044Y-91814619D02*
X106202568Y-91814619D01*
X106202568Y-91814619D02*
X106107330Y-91862238D01*
X106107330Y-91862238D02*
X106059711Y-91909857D01*
X106059711Y-91909857D02*
X106012092Y-92005095D01*
X106012092Y-92005095D02*
X106012092Y-92243190D01*
X106012092Y-92243190D02*
X106059711Y-92338428D01*
X106059711Y-92338428D02*
X106107330Y-92386047D01*
X106107330Y-92386047D02*
X106202568Y-92433666D01*
X106202568Y-92433666D02*
X106393044Y-92433666D01*
X106393044Y-92433666D02*
X106488282Y-92386047D01*
X106488282Y-92386047D02*
X106535901Y-92338428D01*
X106535901Y-92338428D02*
X106583520Y-92243190D01*
X107012092Y-92719380D02*
X107059711Y-92767000D01*
X107059711Y-92767000D02*
X107012092Y-92814619D01*
X107012092Y-92814619D02*
X106964473Y-92767000D01*
X106964473Y-92767000D02*
X107012092Y-92719380D01*
X107012092Y-92719380D02*
X107012092Y-92814619D01*
X107678758Y-91814619D02*
X107773996Y-91814619D01*
X107773996Y-91814619D02*
X107869234Y-91862238D01*
X107869234Y-91862238D02*
X107916853Y-91909857D01*
X107916853Y-91909857D02*
X107964472Y-92005095D01*
X107964472Y-92005095D02*
X108012091Y-92195571D01*
X108012091Y-92195571D02*
X108012091Y-92433666D01*
X108012091Y-92433666D02*
X107964472Y-92624142D01*
X107964472Y-92624142D02*
X107916853Y-92719380D01*
X107916853Y-92719380D02*
X107869234Y-92767000D01*
X107869234Y-92767000D02*
X107773996Y-92814619D01*
X107773996Y-92814619D02*
X107678758Y-92814619D01*
X107678758Y-92814619D02*
X107583520Y-92767000D01*
X107583520Y-92767000D02*
X107535901Y-92719380D01*
X107535901Y-92719380D02*
X107488282Y-92624142D01*
X107488282Y-92624142D02*
X107440663Y-92433666D01*
X107440663Y-92433666D02*
X107440663Y-92195571D01*
X107440663Y-92195571D02*
X107488282Y-92005095D01*
X107488282Y-92005095D02*
X107535901Y-91909857D01*
X107535901Y-91909857D02*
X107583520Y-91862238D01*
X107583520Y-91862238D02*
X107678758Y-91814619D01*
X111752568Y-107783666D02*
X112514473Y-107783666D01*
X112133520Y-108164619D02*
X112133520Y-107402714D01*
X111752568Y-105633666D02*
X112514473Y-105633666D01*
D11*
%TO.C,R8*%
X108403641Y-105780000D02*
X108096359Y-105780000D01*
X108403641Y-105020000D02*
X108096359Y-105020000D01*
D12*
%TO.C,SW4*%
X110525000Y-94050000D02*
X113750000Y-94050000D01*
X110550000Y-91850000D02*
X113750000Y-91850000D01*
D11*
%TO.C,U1*%
X95727500Y-103260000D02*
X95727500Y-102785000D01*
X96202500Y-103260000D02*
X95727500Y-103260000D01*
X100947500Y-103260000D02*
X100472500Y-103260000D01*
X100947500Y-102785000D02*
X100947500Y-103260000D01*
X95727500Y-98515000D02*
X95727500Y-98040000D01*
X95727500Y-98040000D02*
X96202500Y-98040000D01*
X100472500Y-98040000D02*
X100947500Y-98040000D01*
X100947500Y-98040000D02*
X100947500Y-98515000D01*
X96827500Y-104120000D02*
X96347500Y-104120000D01*
X96587500Y-103790000D01*
X96827500Y-104120000D01*
G36*
X96827500Y-104120000D02*
G01*
X96347500Y-104120000D01*
X96587500Y-103790000D01*
X96827500Y-104120000D01*
G37*
D13*
%TO.C,LEDRED1*%
X94160000Y-105470000D02*
G75*
G02*
X94060000Y-105470000I-50000J0D01*
G01*
X94060000Y-105470000D02*
G75*
G02*
X94160000Y-105470000I50000J0D01*
G01*
%TO.C,LEDGREEN1*%
X99150000Y-105910000D02*
G75*
G02*
X99050000Y-105910000I-50000J0D01*
G01*
X99050000Y-105910000D02*
G75*
G02*
X99150000Y-105910000I50000J0D01*
G01*
%TO.C,LEDBLUE1*%
X98150000Y-105910000D02*
G75*
G02*
X98050000Y-105910000I-50000J0D01*
G01*
X98050000Y-105910000D02*
G75*
G02*
X98150000Y-105910000I50000J0D01*
G01*
%TO.C,J2*%
X98150000Y-97000000D02*
X98150000Y-94400000D01*
X98150000Y-94400000D02*
X97800000Y-94400000D01*
X97800000Y-97000000D02*
X98150000Y-97000000D01*
X94600000Y-94400000D02*
X94250000Y-94400000D01*
X94250000Y-97000000D02*
X94600000Y-97000000D01*
X94250000Y-96925000D02*
X94250000Y-97000000D01*
X94250000Y-96925000D02*
X94250000Y-96925000D01*
X94250000Y-94400000D02*
X94250000Y-96925000D01*
D12*
%TO.C,IC4*%
X103777500Y-104687500D02*
X113377500Y-104687500D01*
X103777500Y-94587500D02*
X113377500Y-94587500D01*
D13*
X102477500Y-95237500D02*
X102477500Y-95237500D01*
X102377500Y-95237500D02*
X102377500Y-95237500D01*
X102477500Y-95237500D02*
G75*
G02*
X102377500Y-95237500I-50000J0D01*
G01*
X102377500Y-95237500D02*
G75*
G02*
X102477500Y-95237500I50000J0D01*
G01*
%TO.C,IC1*%
X100650000Y-107700000D02*
X100650000Y-107700000D01*
X100750000Y-107700000D02*
X100750000Y-107700000D01*
X100650000Y-107700000D02*
G75*
G02*
X100750000Y-107700000I50000J0D01*
G01*
X100750000Y-107700000D02*
G75*
G02*
X100650000Y-107700000I-50000J0D01*
G01*
D11*
%TO.C,C29*%
X96740000Y-107107836D02*
X96740000Y-106892164D01*
X97460000Y-107107836D02*
X97460000Y-106892164D01*
%TO.C,C28*%
X107160000Y-105892164D02*
X107160000Y-106107836D01*
X106440000Y-105892164D02*
X106440000Y-106107836D01*
%TO.C,C19*%
X102060000Y-94992164D02*
X102060000Y-95207836D01*
X101340000Y-94992164D02*
X101340000Y-95207836D01*
%TO.C,C16*%
X98640000Y-105007836D02*
X98640000Y-104792164D01*
X99360000Y-105007836D02*
X99360000Y-104792164D01*
%TD*%
M02*
