%TF.GenerationSoftware,KiCad,Pcbnew,10.0.0*%
%TF.CreationDate,2026-05-13T10:32:40+02:00*%
%TF.ProjectId,hardware_V9,68617264-7761-4726-955f-56392e6b6963,rev?*%
%TF.SameCoordinates,Original*%
%TF.FileFunction,Soldermask,Top*%
%TF.FilePolarity,Negative*%
%FSLAX46Y46*%
G04 Gerber Fmt 4.6, Leading zero omitted, Abs format (unit mm)*
G04 Created by KiCad (PCBNEW 10.0.0) date 2026-05-13 10:32:40*
%MOMM*%
%LPD*%
G01*
G04 APERTURE LIST*
G04 Aperture macros list*
%AMRoundRect*
0 Rectangle with rounded corners*
0 $1 Rounding radius*
0 $2 $3 $4 $5 $6 $7 $8 $9 X,Y pos of 4 corners*
0 Add a 4 corners polygon primitive as box body*
4,1,4,$2,$3,$4,$5,$6,$7,$8,$9,$2,$3,0*
0 Add four circle primitives for the rounded corners*
1,1,$1+$1,$2,$3*
1,1,$1+$1,$4,$5*
1,1,$1+$1,$6,$7*
1,1,$1+$1,$8,$9*
0 Add four rect primitives between the rounded corners*
20,1,$1+$1,$2,$3,$4,$5,0*
20,1,$1+$1,$4,$5,$6,$7,0*
20,1,$1+$1,$6,$7,$8,$9,0*
20,1,$1+$1,$8,$9,$2,$3,0*%
%AMRotRect*
0 Rectangle, with rotation*
0 The origin of the aperture is its center*
0 $1 length*
0 $2 width*
0 $3 Rotation angle, in degrees counterclockwise*
0 Add horizontal line*
21,1,$1,$2,0,0,$3*%
%AMOutline5P*
0 Free polygon, 5 corners , with rotation*
0 The origin of the aperture is its center*
0 number of corners: always 5*
0 $1 to $10 corner X, Y*
0 $11 Rotation angle, in degrees counterclockwise*
0 create outline with 5 corners*
4,1,5,$1,$2,$3,$4,$5,$6,$7,$8,$9,$10,$1,$2,$11*%
%AMOutline6P*
0 Free polygon, 6 corners , with rotation*
0 The origin of the aperture is its center*
0 number of corners: always 6*
0 $1 to $12 corner X, Y*
0 $13 Rotation angle, in degrees counterclockwise*
0 create outline with 6 corners*
4,1,6,$1,$2,$3,$4,$5,$6,$7,$8,$9,$10,$11,$12,$1,$2,$13*%
%AMOutline7P*
0 Free polygon, 7 corners , with rotation*
0 The origin of the aperture is its center*
0 number of corners: always 7*
0 $1 to $14 corner X, Y*
0 $15 Rotation angle, in degrees counterclockwise*
0 create outline with 7 corners*
4,1,7,$1,$2,$3,$4,$5,$6,$7,$8,$9,$10,$11,$12,$13,$14,$1,$2,$15*%
%AMOutline8P*
0 Free polygon, 8 corners , with rotation*
0 The origin of the aperture is its center*
0 number of corners: always 8*
0 $1 to $16 corner X, Y*
0 $17 Rotation angle, in degrees counterclockwise*
0 create outline with 8 corners*
4,1,8,$1,$2,$3,$4,$5,$6,$7,$8,$9,$10,$11,$12,$13,$14,$15,$16,$1,$2,$17*%
G04 Aperture macros list end*
%ADD10RoundRect,0.100000X-0.100000X0.217500X-0.100000X-0.217500X0.100000X-0.217500X0.100000X0.217500X0*%
%ADD11RoundRect,0.062500X0.062500X-0.375000X0.062500X0.375000X-0.062500X0.375000X-0.062500X-0.375000X0*%
%ADD12RoundRect,0.062500X0.375000X-0.062500X0.375000X0.062500X-0.375000X0.062500X-0.375000X-0.062500X0*%
%ADD13R,1.000000X1.000000*%
%ADD14RoundRect,0.100000X0.217500X0.100000X-0.217500X0.100000X-0.217500X-0.100000X0.217500X-0.100000X0*%
%ADD15R,0.850000X0.300000*%
%ADD16R,0.610000X1.420000*%
%ADD17RoundRect,0.100000X-0.217500X-0.100000X0.217500X-0.100000X0.217500X0.100000X-0.217500X0.100000X0*%
%ADD18RoundRect,0.100000X0.100000X-0.217500X0.100000X0.217500X-0.100000X0.217500X-0.100000X-0.217500X0*%
%ADD19RoundRect,0.140000X-0.170000X0.140000X-0.170000X-0.140000X0.170000X-0.140000X0.170000X0.140000X0*%
%ADD20C,1.100000*%
%ADD21C,0.700000*%
%ADD22R,1.100000X0.850000*%
%ADD23R,1.100000X0.750000*%
%ADD24R,1.000000X1.200000*%
%ADD25R,1.350000X1.550000*%
%ADD26R,1.350000X1.900000*%
%ADD27R,1.800000X1.170000*%
%ADD28RoundRect,0.140000X0.170000X-0.140000X0.170000X0.140000X-0.170000X0.140000X-0.170000X-0.140000X0*%
%ADD29R,0.240000X0.450000*%
%ADD30R,0.500000X0.470000*%
%ADD31Outline5P,-0.207500X0.150000X0.207500X0.150000X0.207500X0.000000X0.057500X-0.150000X-0.207500X-0.150000X0.000000*%
%ADD32Outline5P,-0.207500X0.150000X0.057500X0.150000X0.207500X0.000000X0.207500X-0.150000X-0.207500X-0.150000X0.000000*%
%ADD33RotRect,0.500000X0.500000X45.000000*%
%ADD34Outline5P,-0.207500X0.000000X-0.057500X0.150000X0.207500X0.150000X0.207500X-0.150000X-0.207500X-0.150000X0.000000*%
%ADD35Outline5P,-0.207500X0.150000X0.207500X0.150000X0.207500X-0.150000X-0.057500X-0.150000X-0.207500X0.000000X0.000000*%
%ADD36C,1.600000*%
%ADD37R,1.700000X1.700000*%
%ADD38C,1.700000*%
%ADD39C,0.900000*%
G04 APERTURE END LIST*
D10*
%TO.C,C13*%
X100800000Y-94692500D03*
X100800000Y-95507500D03*
%TD*%
D11*
%TO.C,U1*%
X96587500Y-103087500D03*
X97087500Y-103087500D03*
X97587500Y-103087500D03*
X98087500Y-103087500D03*
X98587500Y-103087500D03*
X99087500Y-103087500D03*
X99587500Y-103087500D03*
X100087500Y-103087500D03*
D12*
X100775000Y-102400000D03*
X100775000Y-101900000D03*
X100775000Y-101400000D03*
X100775000Y-100900000D03*
X100775000Y-100400000D03*
X100775000Y-99900000D03*
X100775000Y-99400000D03*
X100775000Y-98900000D03*
D11*
X100087500Y-98212500D03*
X99587500Y-98212500D03*
X99087500Y-98212500D03*
X98587500Y-98212500D03*
X98087500Y-98212500D03*
X97587500Y-98212500D03*
X97087500Y-98212500D03*
X96587500Y-98212500D03*
D12*
X95900000Y-98900000D03*
X95900000Y-99400000D03*
X95900000Y-99900000D03*
X95900000Y-100400000D03*
X95900000Y-100900000D03*
X95900000Y-101400000D03*
X95900000Y-101900000D03*
X95900000Y-102400000D03*
D13*
X97117500Y-101870000D03*
X99557500Y-101870000D03*
X97117500Y-99430000D03*
X99557500Y-99430000D03*
%TD*%
D14*
%TO.C,C4*%
X102057500Y-108000000D03*
X101242500Y-108000000D03*
%TD*%
D15*
%TO.C,IC5*%
X100000000Y-107450000D03*
X100000000Y-106950000D03*
X100000000Y-106450000D03*
X98100000Y-106450000D03*
X98100000Y-106950000D03*
X98100000Y-107450000D03*
D16*
X99050000Y-106950000D03*
%TD*%
D17*
%TO.C,R24*%
X114692500Y-107600000D03*
X115507500Y-107600000D03*
%TD*%
D18*
%TO.C,C29*%
X97200000Y-105107500D03*
X97200000Y-104292500D03*
%TD*%
D19*
%TO.C,C19*%
X101700000Y-94620000D03*
X101700000Y-95580000D03*
%TD*%
D10*
%TO.C,R3*%
X100100000Y-94692500D03*
X100100000Y-95507500D03*
%TD*%
D18*
%TO.C,R9*%
X113000000Y-93100000D03*
X113000000Y-92285000D03*
%TD*%
D10*
%TO.C,R4*%
X96500000Y-104292500D03*
X96500000Y-105107500D03*
%TD*%
D18*
%TO.C,R16*%
X100600000Y-105007500D03*
X100600000Y-104192500D03*
%TD*%
D20*
%TO.C,TP1*%
X112000000Y-107550000D03*
%TD*%
D21*
%TO.C,TP4*%
X95800000Y-97840000D03*
%TD*%
D18*
%TO.C,C10*%
X95800000Y-105107500D03*
X95800000Y-104292500D03*
%TD*%
D10*
%TO.C,R18*%
X115450000Y-99557500D03*
X115450000Y-98742500D03*
%TD*%
%TO.C,R2*%
X94550000Y-101942500D03*
X94550000Y-102757500D03*
%TD*%
D18*
%TO.C,C16*%
X99300000Y-105107500D03*
X99300000Y-104292500D03*
%TD*%
%TO.C,C27*%
X97900000Y-105107500D03*
X97900000Y-104292500D03*
%TD*%
%TO.C,C15*%
X98600000Y-105107500D03*
X98600000Y-104292500D03*
%TD*%
%TO.C,C12*%
X114450000Y-93107500D03*
X114450000Y-92292500D03*
%TD*%
%TO.C,R7*%
X107300000Y-93007500D03*
X107300000Y-92192500D03*
%TD*%
D10*
%TO.C,R27*%
X102550000Y-94692500D03*
X102550000Y-95507500D03*
%TD*%
%TO.C,R19*%
X98600000Y-94692500D03*
X98600000Y-95507500D03*
%TD*%
%TO.C,C8*%
X101300000Y-104192500D03*
X101300000Y-105007500D03*
%TD*%
D22*
%TO.C,J1*%
X114250000Y-97385000D03*
X114250000Y-98485000D03*
X114250000Y-99585000D03*
X114250000Y-100685000D03*
X114250000Y-101785000D03*
X114250000Y-102885000D03*
X114250000Y-103985000D03*
D23*
X114250000Y-105035000D03*
D24*
X108100000Y-94750000D03*
X104400000Y-94750000D03*
D25*
X114125000Y-94925000D03*
D26*
X103425000Y-98250000D03*
X103425000Y-104220000D03*
D27*
X113900000Y-106245000D03*
%TD*%
D18*
%TO.C,C17*%
X115450000Y-100742500D03*
X115450000Y-101557500D03*
%TD*%
D17*
%TO.C,R15*%
X101842500Y-102600000D03*
X102657500Y-102600000D03*
%TD*%
%TO.C,C2*%
X101292500Y-106000000D03*
X102107500Y-106000000D03*
%TD*%
D18*
%TO.C,R17*%
X96950000Y-107357500D03*
X96950000Y-106542500D03*
%TD*%
D10*
%TO.C,R1*%
X94550000Y-100142500D03*
X94550000Y-100957500D03*
%TD*%
D18*
%TO.C,C14*%
X99300000Y-95507500D03*
X99300000Y-94692500D03*
%TD*%
D20*
%TO.C,TP2*%
X109900000Y-107550000D03*
%TD*%
D21*
%TO.C,TP3*%
X94980000Y-98470000D03*
%TD*%
D18*
%TO.C,C7*%
X106600000Y-93007500D03*
X106600000Y-92192500D03*
%TD*%
D28*
%TO.C,C21*%
X116000000Y-95330000D03*
X116000000Y-94370000D03*
%TD*%
D18*
%TO.C,C20*%
X112300000Y-93100000D03*
X112300000Y-92285000D03*
%TD*%
D29*
%TO.C,J2*%
X96600000Y-94480000D03*
X96200000Y-94480000D03*
X95800000Y-94480000D03*
X95800000Y-96930000D03*
X96200000Y-96930000D03*
X96600000Y-96930000D03*
D30*
X97350000Y-94510000D03*
X95050000Y-94510000D03*
X95050000Y-96900000D03*
X97350000Y-96900000D03*
%TD*%
D31*
%TO.C,U2*%
X101307500Y-106645000D03*
D32*
X101307500Y-107355000D03*
D33*
X101700000Y-107000000D03*
D34*
X102092500Y-107355000D03*
D35*
X102092500Y-106645000D03*
%TD*%
D18*
%TO.C,C11*%
X108700000Y-93007500D03*
X108700000Y-92192500D03*
%TD*%
%TO.C,R10*%
X102000000Y-105007500D03*
X102000000Y-104192500D03*
%TD*%
%TO.C,R21*%
X101650000Y-97907500D03*
X101650000Y-97092500D03*
%TD*%
D14*
%TO.C,R14*%
X101757500Y-103350000D03*
X100942500Y-103350000D03*
%TD*%
D18*
%TO.C,R13*%
X113700000Y-93107500D03*
X113700000Y-92292500D03*
%TD*%
%TO.C,R25*%
X108000000Y-93007500D03*
X108000000Y-92192500D03*
%TD*%
D10*
%TO.C,R20*%
X115450000Y-103957500D03*
X115450000Y-103142500D03*
%TD*%
D36*
%TO.C,PA1010D1*%
X112100000Y-101200000D03*
%TD*%
D37*
%TO.C,U4*%
X103810000Y-93000000D03*
D38*
X101270000Y-93000000D03*
X98730000Y-93000000D03*
X96190000Y-93000000D03*
X104500000Y-107000000D03*
X95500000Y-107000000D03*
%TD*%
D39*
%TO.C,S1*%
X105525000Y-93400000D03*
X109775000Y-93400000D03*
%TD*%
%TO.C,S3*%
X111225000Y-93375000D03*
X115475000Y-93375000D03*
%TD*%
M02*
