%TF.GenerationSoftware,KiCad,Pcbnew,9.0.6-rc1*%
%TF.CreationDate,2025-12-13T16:16:27+01:00*%
%TF.ProjectId,hardware_V8,68617264-7761-4726-955f-56382e6b6963,rev?*%
%TF.SameCoordinates,Original*%
%TF.FileFunction,Copper,L1,Top*%
%TF.FilePolarity,Positive*%
%FSLAX46Y46*%
G04 Gerber Fmt 4.6, Leading zero omitted, Abs format (unit mm)*
G04 Created by KiCad (PCBNEW 9.0.6-rc1) date 2025-12-13 16:16:27*
%MOMM*%
%LPD*%
G01*
G04 APERTURE LIST*
G04 Aperture macros list*
%AMRoundRect*
0 Rectangle with rounded corners*
0 $1 Rounding radius*
0 $2 $3 $4 $5 $6 $7 $8 $9 X,Y pos of 4 corners*
0 Add a 4 corners polygon primitive as box body*
4,1,4,$2,$3,$4,$5,$6,$7,$8,$9,$2,$3,0*
0 Add four circle primitives for the rounded corners*
1,1,$1+$1,$2,$3*
1,1,$1+$1,$4,$5*
1,1,$1+$1,$6,$7*
1,1,$1+$1,$8,$9*
0 Add four rect primitives between the rounded corners*
20,1,$1+$1,$2,$3,$4,$5,0*
20,1,$1+$1,$4,$5,$6,$7,0*
20,1,$1+$1,$6,$7,$8,$9,0*
20,1,$1+$1,$8,$9,$2,$3,0*%
G04 Aperture macros list end*
%TA.AperFunction,ComponentPad*%
%ADD10C,1.150000*%
%TD*%
%TA.AperFunction,ComponentPad*%
%ADD11C,1.100000*%
%TD*%
%TA.AperFunction,SMDPad,CuDef*%
%ADD12RoundRect,0.135000X0.135000X0.185000X-0.135000X0.185000X-0.135000X-0.185000X0.135000X-0.185000X0*%
%TD*%
%TA.AperFunction,SMDPad,CuDef*%
%ADD13R,0.550000X1.500000*%
%TD*%
%TA.AperFunction,SMDPad,CuDef*%
%ADD14R,1.000000X1.000000*%
%TD*%
%TA.AperFunction,SMDPad,CuDef*%
%ADD15RoundRect,0.062500X0.062500X-0.375000X0.062500X0.375000X-0.062500X0.375000X-0.062500X-0.375000X0*%
%TD*%
%TA.AperFunction,SMDPad,CuDef*%
%ADD16RoundRect,0.062500X0.375000X-0.062500X0.375000X0.062500X-0.375000X0.062500X-0.375000X-0.062500X0*%
%TD*%
%TA.AperFunction,SMDPad,CuDef*%
%ADD17RoundRect,0.100000X-0.100000X0.217500X-0.100000X-0.217500X0.100000X-0.217500X0.100000X0.217500X0*%
%TD*%
%TA.AperFunction,ComponentPad*%
%ADD18R,1.700000X1.700000*%
%TD*%
%TA.AperFunction,ComponentPad*%
%ADD19C,1.700000*%
%TD*%
%TA.AperFunction,SMDPad,CuDef*%
%ADD20C,0.700000*%
%TD*%
%TA.AperFunction,SMDPad,CuDef*%
%ADD21RoundRect,0.100000X0.100000X-0.217500X0.100000X0.217500X-0.100000X0.217500X-0.100000X-0.217500X0*%
%TD*%
%TA.AperFunction,SMDPad,CuDef*%
%ADD22RoundRect,0.100000X-0.217500X-0.100000X0.217500X-0.100000X0.217500X0.100000X-0.217500X0.100000X0*%
%TD*%
%TA.AperFunction,SMDPad,CuDef*%
%ADD23RoundRect,0.100000X0.217500X0.100000X-0.217500X0.100000X-0.217500X-0.100000X0.217500X-0.100000X0*%
%TD*%
%TA.AperFunction,SMDPad,CuDef*%
%ADD24RoundRect,0.147500X-0.147500X-0.172500X0.147500X-0.172500X0.147500X0.172500X-0.147500X0.172500X0*%
%TD*%
%TA.AperFunction,SMDPad,CuDef*%
%ADD25RoundRect,0.147500X-0.172500X0.147500X-0.172500X-0.147500X0.172500X-0.147500X0.172500X0.147500X0*%
%TD*%
%TA.AperFunction,SMDPad,CuDef*%
%ADD26R,0.240000X0.450000*%
%TD*%
%TA.AperFunction,SMDPad,CuDef*%
%ADD27R,0.500000X0.470000*%
%TD*%
%TA.AperFunction,SMDPad,CuDef*%
%ADD28R,1.800000X0.700000*%
%TD*%
%TA.AperFunction,SMDPad,CuDef*%
%ADD29R,1.800000X0.800000*%
%TD*%
%TA.AperFunction,SMDPad,CuDef*%
%ADD30R,0.250000X0.550000*%
%TD*%
%TA.AperFunction,SMDPad,CuDef*%
%ADD31R,0.200000X0.550000*%
%TD*%
%TA.AperFunction,SMDPad,CuDef*%
%ADD32R,0.600000X0.300000*%
%TD*%
%TA.AperFunction,SMDPad,CuDef*%
%ADD33RoundRect,0.140000X0.170000X-0.140000X0.170000X0.140000X-0.170000X0.140000X-0.170000X-0.140000X0*%
%TD*%
%TA.AperFunction,SMDPad,CuDef*%
%ADD34RoundRect,0.140000X-0.170000X0.140000X-0.170000X-0.140000X0.170000X-0.140000X0.170000X0.140000X0*%
%TD*%
%TA.AperFunction,ViaPad*%
%ADD35C,0.400000*%
%TD*%
%TA.AperFunction,Conductor*%
%ADD36C,0.189720*%
%TD*%
%TA.AperFunction,Conductor*%
%ADD37C,0.120000*%
%TD*%
%TA.AperFunction,Conductor*%
%ADD38C,0.200000*%
%TD*%
G04 APERTURE END LIST*
D10*
%TO.P,U3,1,IN*%
%TO.N,Net-(IC4-RF_IN)*%
X110200000Y-100600000D03*
%TD*%
D11*
%TO.P,TP1,1,1*%
%TO.N,GND*%
X113450000Y-105800000D03*
%TD*%
%TO.P,TP2,1,1*%
%TO.N,BAT+*%
X113450000Y-107450000D03*
%TD*%
D12*
%TO.P,R8,1*%
%TO.N,BAT+*%
X108760000Y-105400000D03*
%TO.P,R8,2*%
%TO.N,Net-(IC4-V_BCKP)*%
X107740000Y-105400000D03*
%TD*%
D13*
%TO.P,SW4,1,1*%
%TO.N,Net-(U1-PH3)*%
X110525000Y-92950000D03*
%TO.P,SW4,2,2*%
%TO.N,+3.3V*%
X113775000Y-92950000D03*
%TD*%
D14*
%TO.P,U1,33,VSS*%
%TO.N,GND*%
X97117500Y-101870000D03*
X99557500Y-101870000D03*
X99557500Y-99430000D03*
X97117500Y-99430000D03*
D15*
%TO.P,U1,1,VDD*%
%TO.N,+3.3V*%
X96587500Y-103087500D03*
%TO.P,U1,2,PC14*%
%TO.N,unconnected-(U1-PC14-Pad2)*%
X97087500Y-103087500D03*
%TO.P,U1,3,PC15*%
%TO.N,unconnected-(U1-PC15-Pad3)*%
X97587500Y-103087500D03*
%TO.P,U1,4,NRST*%
%TO.N,/NRST*%
X98087500Y-103087500D03*
%TO.P,U1,5,VDDA*%
%TO.N,+3.3V*%
X98587500Y-103087500D03*
%TO.P,U1,6,PA0*%
%TO.N,/B_PW*%
X99087500Y-103087500D03*
%TO.P,U1,7,PA1*%
%TO.N,/GPS_EN*%
X99587500Y-103087500D03*
%TO.P,U1,8,PA2*%
%TO.N,/GPS_RX*%
X100087500Y-103087500D03*
D16*
%TO.P,U1,9,PA3*%
%TO.N,/GPS_TX*%
X100775000Y-102400000D03*
%TO.P,U1,10,PA4*%
%TO.N,/AUX_EN*%
X100775000Y-101900000D03*
%TO.P,U1,11,PA5*%
%TO.N,/SPI_CLK*%
X100775000Y-101400000D03*
%TO.P,U1,12,PA6*%
%TO.N,/SPI_MISO*%
X100775000Y-100900000D03*
%TO.P,U1,13,PA7*%
%TO.N,/SPI_MOSI*%
X100775000Y-100400000D03*
%TO.P,U1,14,PB0*%
%TO.N,/ADC_BAT*%
X100775000Y-99900000D03*
%TO.P,U1,15,PB1*%
%TO.N,/SPI_CS*%
X100775000Y-99400000D03*
%TO.P,U1,16,VSS*%
%TO.N,GND*%
X100775000Y-98900000D03*
D15*
%TO.P,U1,17,VDD*%
%TO.N,+3.3V*%
X100087500Y-98212500D03*
%TO.P,U1,18,PA8*%
%TO.N,/GPS_EXTINT*%
X99587500Y-98212500D03*
%TO.P,U1,19,PA9*%
%TO.N,/OLED_SCL*%
X99087500Y-98212500D03*
%TO.P,U1,20,PA10*%
%TO.N,/OLED_SDA*%
X98587500Y-98212500D03*
%TO.P,U1,21,PA11*%
%TO.N,/D-*%
X98087500Y-98212500D03*
%TO.P,U1,22,PA12*%
%TO.N,/D+*%
X97587500Y-98212500D03*
%TO.P,U1,23,PA13*%
%TO.N,/SWDIO*%
X97087500Y-98212500D03*
%TO.P,U1,24,PA14*%
%TO.N,/SWCLK*%
X96587500Y-98212500D03*
D16*
%TO.P,U1,25,PA15*%
%TO.N,/B1*%
X95900000Y-98900000D03*
%TO.P,U1,26,PB3*%
%TO.N,/GPIO_SUP*%
X95900000Y-99400000D03*
%TO.P,U1,27,PB4*%
%TO.N,/USB_DETECT*%
X95900000Y-99900000D03*
%TO.P,U1,28,PB5*%
%TO.N,Net-(U1-PB5)*%
X95900000Y-100400000D03*
%TO.P,U1,29,PB6*%
%TO.N,Net-(U1-PB6)*%
X95900000Y-100900000D03*
%TO.P,U1,30,PB7*%
%TO.N,unconnected-(U1-PB7-Pad30)*%
X95900000Y-101400000D03*
%TO.P,U1,31,PH3*%
%TO.N,Net-(U1-PH3)*%
X95900000Y-101900000D03*
%TO.P,U1,32,VSS*%
%TO.N,GND*%
X95900000Y-102400000D03*
%TD*%
D17*
%TO.P,R1,2*%
%TO.N,Net-(LEDGREEN1-A)*%
X94400000Y-100207500D03*
%TO.P,R1,1*%
%TO.N,Net-(U1-PB5)*%
X94400000Y-99392500D03*
%TD*%
D18*
%TO.P,U4,1,GND*%
%TO.N,GND*%
X103810000Y-93000000D03*
D19*
%TO.P,U4,2,VCC*%
%TO.N,3.3V_AUX*%
X101270000Y-93000000D03*
%TO.P,U4,3,SCK*%
%TO.N,/OLED_SCL*%
X98730000Y-93000000D03*
%TO.P,U4,4,SDA*%
%TO.N,/OLED_SDA*%
X96190000Y-93000000D03*
%TO.P,U4,5,GND*%
%TO.N,GND*%
X104500000Y-107000000D03*
%TO.P,U4,6,GND*%
X95500000Y-107000000D03*
%TD*%
D20*
%TO.P,TP4,1,1*%
%TO.N,/SWDIO*%
X95200000Y-97700000D03*
%TD*%
%TO.P,TP3,1,1*%
%TO.N,/SWCLK*%
X94600000Y-98500000D03*
%TD*%
D17*
%TO.P,R23,1*%
%TO.N,Net-(J3-CC1)*%
X96700000Y-104542500D03*
%TO.P,R23,2*%
%TO.N,GND*%
X96700000Y-105357500D03*
%TD*%
D21*
%TO.P,R22,1*%
%TO.N,Net-(J3-CC2)*%
X98700000Y-95475000D03*
%TO.P,R22,2*%
%TO.N,GND*%
X98700000Y-94660000D03*
%TD*%
D22*
%TO.P,R21,1*%
%TO.N,GND*%
X100200000Y-108000000D03*
%TO.P,R21,2*%
%TO.N,/AUX_EN*%
X101015000Y-108000000D03*
%TD*%
D23*
%TO.P,R20,1*%
%TO.N,GND*%
X101207500Y-104700000D03*
%TO.P,R20,2*%
%TO.N,/GPS_EN*%
X100392500Y-104700000D03*
%TD*%
D17*
%TO.P,R19,1*%
%TO.N,GND*%
X99400000Y-94692500D03*
%TO.P,R19,2*%
%TO.N,/USB_DETECT*%
X99400000Y-95507500D03*
%TD*%
%TO.P,R16,1*%
%TO.N,Net-(C8-Pad2)*%
X110250000Y-105592500D03*
%TO.P,R16,2*%
%TO.N,/ADC_BAT*%
X110250000Y-106407500D03*
%TD*%
%TO.P,R10,1*%
%TO.N,BAT+*%
X110950000Y-105592500D03*
%TO.P,R10,2*%
%TO.N,/ADC_BAT*%
X110950000Y-106407500D03*
%TD*%
D21*
%TO.P,R6,1*%
%TO.N,Net-(U1-PH3)*%
X109000000Y-93207500D03*
%TO.P,R6,2*%
%TO.N,GND*%
X109000000Y-92392500D03*
%TD*%
D22*
%TO.P,R4,1*%
%TO.N,Net-(LEDRED1-A)*%
X94892500Y-104500000D03*
%TO.P,R4,2*%
%TO.N,vusb*%
X95707500Y-104500000D03*
%TD*%
D23*
%TO.P,R3,1*%
%TO.N,/USB_DETECT*%
X100440000Y-96500000D03*
%TO.P,R3,2*%
%TO.N,vusb*%
X99625000Y-96500000D03*
%TD*%
D17*
%TO.P,R2,1*%
%TO.N,Net-(U1-PB6)*%
X94400000Y-101192500D03*
%TO.P,R2,2*%
%TO.N,Net-(LEDBLUE1-A)*%
X94400000Y-102007500D03*
%TD*%
D24*
%TO.P,LEDRED1,1,K*%
%TO.N,Net-(IC5-~{CHRG})*%
X94715000Y-105470000D03*
%TO.P,LEDRED1,2,A*%
%TO.N,Net-(LEDRED1-A)*%
X95685000Y-105470000D03*
%TD*%
D25*
%TO.P,LEDGREEN1,1,K*%
%TO.N,GND*%
X99100000Y-106515000D03*
%TO.P,LEDGREEN1,2,A*%
%TO.N,Net-(LEDGREEN1-A)*%
X99100000Y-107485000D03*
%TD*%
%TO.P,LEDBLUE1,1,K*%
%TO.N,GND*%
X98100000Y-106515000D03*
%TO.P,LEDBLUE1,2,A*%
%TO.N,Net-(LEDBLUE1-A)*%
X98100000Y-107485000D03*
%TD*%
D26*
%TO.P,J2,1,1*%
%TO.N,3.3V_AUX*%
X96600000Y-94475000D03*
%TO.P,J2,2,2*%
%TO.N,/OLED_SDA*%
X96200000Y-94475000D03*
%TO.P,J2,3,3*%
%TO.N,GND*%
X95800000Y-94475000D03*
%TO.P,J2,4,4*%
%TO.N,/GPIO_SUP*%
X95800000Y-96925000D03*
%TO.P,J2,5,5*%
%TO.N,/OLED_SCL*%
X96200000Y-96925000D03*
%TO.P,J2,6,6*%
%TO.N,3.3V_AUX*%
X96600000Y-96925000D03*
D27*
%TO.P,J2,7,7*%
%TO.N,GND*%
X97350000Y-94505000D03*
%TO.P,J2,8,8*%
X95050000Y-94505000D03*
%TO.P,J2,9,9*%
X95050000Y-96895000D03*
%TO.P,J2,10,10*%
X97350000Y-96895000D03*
%TD*%
D28*
%TO.P,IC4,1,GND_1*%
%TO.N,GND*%
X103827500Y-95237500D03*
D29*
%TO.P,IC4,2,TXD*%
%TO.N,Net-(IC4-TXD)*%
X103827500Y-96337500D03*
%TO.P,IC4,3,RXD*%
%TO.N,Net-(IC4-RXD)*%
X103827500Y-97437500D03*
%TO.P,IC4,4,TIMEPULSE*%
%TO.N,unconnected-(IC4-TIMEPULSE-Pad4)*%
X103827500Y-98537500D03*
%TO.P,IC4,5,EXTINT*%
%TO.N,/GPS_EXTINT*%
X103827500Y-99637500D03*
%TO.P,IC4,6,V_BCKP*%
%TO.N,Net-(IC4-V_BCKP)*%
X103827500Y-100737500D03*
%TO.P,IC4,7,V_IO*%
%TO.N,3.3V_GPS*%
X103827500Y-101837500D03*
%TO.P,IC4,8,VCC*%
X103827500Y-102937500D03*
D28*
%TO.P,IC4,9,RESET_N*%
%TO.N,unconnected-(IC4-RESET_N-Pad9)*%
X103827500Y-104037500D03*
%TO.P,IC4,10,GND_2*%
%TO.N,GND*%
X113327500Y-104037500D03*
D29*
%TO.P,IC4,11,RF_IN*%
%TO.N,Net-(IC4-RF_IN)*%
X113327500Y-102937500D03*
%TO.P,IC4,12,GND_3*%
%TO.N,GND*%
X113327500Y-101837500D03*
%TO.P,IC4,13,LNA_EN*%
%TO.N,unconnected-(IC4-LNA_EN-Pad13)*%
X113327500Y-100737500D03*
%TO.P,IC4,14,VCC_RF*%
%TO.N,unconnected-(IC4-VCC_RF-Pad14)*%
X113327500Y-99637500D03*
%TO.P,IC4,15,RESERVED*%
%TO.N,unconnected-(IC4-RESERVED-Pad15)*%
X113327500Y-98537500D03*
%TO.P,IC4,16,SDA*%
%TO.N,unconnected-(IC4-SDA-Pad16)*%
X113327500Y-97437500D03*
%TO.P,IC4,17,SCL*%
%TO.N,unconnected-(IC4-SCL-Pad17)*%
X113327500Y-96337500D03*
D28*
%TO.P,IC4,18,SAFEBOOT_N*%
%TO.N,unconnected-(IC4-SAFEBOOT_N-Pad18)*%
X113327500Y-95237500D03*
%TD*%
D30*
%TO.P,IC1,1,VIN1*%
%TO.N,+3.3V*%
X100750000Y-106975000D03*
D31*
%TO.P,IC1,2,ON1*%
%TO.N,/AUX_EN*%
X101250000Y-106975000D03*
D30*
%TO.P,IC1,3,SR*%
%TO.N,+3.3V*%
X101750000Y-106975000D03*
D32*
%TO.P,IC1,4,VOUT1*%
%TO.N,3.3V_AUX*%
X101900000Y-106300000D03*
D30*
%TO.P,IC1,5,VOUT2*%
%TO.N,3.3V_GPS*%
X101750000Y-105625000D03*
D31*
%TO.P,IC1,6,GND*%
%TO.N,GND*%
X101250000Y-105625000D03*
D30*
%TO.P,IC1,7,ON2*%
%TO.N,/GPS_EN*%
X100750000Y-105625000D03*
D32*
%TO.P,IC1,8,VIN2*%
%TO.N,+3.3V*%
X100600000Y-106300000D03*
%TD*%
D33*
%TO.P,C29,1*%
%TO.N,vusb*%
X97100000Y-107480000D03*
%TO.P,C29,2*%
%TO.N,GND*%
X97100000Y-106520000D03*
%TD*%
D34*
%TO.P,C28,1*%
%TO.N,3.3V_GPS*%
X106800000Y-105520000D03*
%TO.P,C28,2*%
%TO.N,GND*%
X106800000Y-106480000D03*
%TD*%
D21*
%TO.P,C27,1*%
%TO.N,GND*%
X97400000Y-105357500D03*
%TO.P,C27,2*%
%TO.N,/NRST*%
X97400000Y-104542500D03*
%TD*%
D17*
%TO.P,C26,1*%
%TO.N,3.3V_GPS*%
X105900000Y-105592500D03*
%TO.P,C26,2*%
%TO.N,GND*%
X105900000Y-106407500D03*
%TD*%
D21*
%TO.P,C25,1*%
%TO.N,Net-(IC4-V_BCKP)*%
X102340000Y-100707500D03*
%TO.P,C25,2*%
%TO.N,GND*%
X102340000Y-99892500D03*
%TD*%
D34*
%TO.P,C19,1*%
%TO.N,GND*%
X101700000Y-94620000D03*
%TO.P,C19,2*%
%TO.N,+3.3V*%
X101700000Y-95580000D03*
%TD*%
D21*
%TO.P,C18,1*%
%TO.N,Net-(U1-PH3)*%
X109700000Y-93207500D03*
%TO.P,C18,2*%
%TO.N,GND*%
X109700000Y-92392500D03*
%TD*%
D33*
%TO.P,C16,1*%
%TO.N,GND*%
X99000000Y-105380000D03*
%TO.P,C16,2*%
%TO.N,+3.3V*%
X99000000Y-104420000D03*
%TD*%
D21*
%TO.P,C15,1*%
%TO.N,GND*%
X98100000Y-105357500D03*
%TO.P,C15,2*%
%TO.N,+3.3V*%
X98100000Y-104542500D03*
%TD*%
%TO.P,C14,1*%
%TO.N,/USB_DETECT*%
X100100000Y-95507500D03*
%TO.P,C14,2*%
%TO.N,GND*%
X100100000Y-94692500D03*
%TD*%
D17*
%TO.P,C13,1*%
%TO.N,GND*%
X100800000Y-94692500D03*
%TO.P,C13,2*%
%TO.N,+3.3V*%
X100800000Y-95507500D03*
%TD*%
D22*
%TO.P,C10,1*%
%TO.N,GND*%
X94892500Y-103800000D03*
%TO.P,C10,2*%
%TO.N,+3.3V*%
X95707500Y-103800000D03*
%TD*%
D21*
%TO.P,C8,1*%
%TO.N,/ADC_BAT*%
X109550000Y-106375000D03*
%TO.P,C8,2*%
%TO.N,Net-(C8-Pad2)*%
X109550000Y-105560000D03*
%TD*%
D35*
%TO.N,GND*%
X109650000Y-101900000D03*
X110750000Y-102000000D03*
X109516343Y-101329803D03*
X109207180Y-100719615D03*
X109362568Y-100053458D03*
X109909801Y-99643034D03*
X110592820Y-99680385D03*
X111092035Y-100148034D03*
X111173857Y-100827163D03*
X110800000Y-101400000D03*
X110200000Y-96750000D03*
X111700000Y-97400000D03*
X111550000Y-98550000D03*
X110000000Y-98050000D03*
X108750000Y-97600000D03*
X108700000Y-96250000D03*
X107400000Y-97000000D03*
X107600000Y-98900000D03*
X107750000Y-100900000D03*
X108300000Y-102500000D03*
X109950000Y-103950000D03*
X108600000Y-104050000D03*
X107450000Y-103350000D03*
X106450000Y-100000000D03*
X106450000Y-95900000D03*
X112000000Y-96000000D03*
X112400000Y-104000000D03*
X112000000Y-103550000D03*
X111350000Y-103450000D03*
X110650000Y-103400000D03*
X110100000Y-103050000D03*
X109750000Y-102550000D03*
X112400000Y-101850000D03*
X111850000Y-102350000D03*
X111200000Y-102350000D03*
X112500000Y-105200000D03*
X114000000Y-106500000D03*
X94350000Y-108100000D03*
X111700000Y-104850000D03*
X111950000Y-105750000D03*
X108200000Y-105900000D03*
X101750000Y-94950000D03*
X94400000Y-103700000D03*
X94350000Y-103050000D03*
X95000000Y-102600000D03*
X101207500Y-104700000D03*
X95150000Y-95450000D03*
X94400000Y-95450000D03*
X99780000Y-108120000D03*
X105110000Y-100150000D03*
X105090000Y-99140000D03*
X106570000Y-103210000D03*
X105720000Y-99860000D03*
X105650000Y-98060000D03*
X105660000Y-97200000D03*
X103827500Y-95237500D03*
X105890000Y-93670000D03*
X105070000Y-92610000D03*
X107320000Y-94040000D03*
X106820000Y-94980000D03*
X108775000Y-94250000D03*
X111225000Y-94250000D03*
X112100000Y-94580000D03*
X113820000Y-94450000D03*
X113110000Y-91980000D03*
X111850000Y-92300000D03*
X108150000Y-92300000D03*
X106350000Y-91920000D03*
X94460000Y-91920000D03*
X97060000Y-92200000D03*
X99940000Y-93440000D03*
X99970000Y-92450000D03*
X102500000Y-93420000D03*
X102510000Y-92540000D03*
X98100000Y-106515000D03*
X98560000Y-105950000D03*
X97800000Y-105970000D03*
X103120000Y-107010000D03*
X100620000Y-103630000D03*
X94360000Y-96920000D03*
X95030000Y-96250000D03*
X94880000Y-93900000D03*
X94880000Y-93120000D03*
%TO.N,Net-(IC5-~{CHRG})*%
X94450000Y-106100000D03*
%TO.N,/GPS_TX*%
X105170000Y-93710000D03*
%TO.N,/GPS_RX*%
X106140000Y-94930000D03*
%TO.N,Net-(IC4-RXD)*%
X105630000Y-96070000D03*
%TO.N,Net-(IC4-TXD)*%
X104830000Y-96050000D03*
%TO.N,+3.3V*%
X106710000Y-107400000D03*
%TO.N,/GPIO_SUP*%
X95670000Y-96360000D03*
%TO.N,GND*%
X97390000Y-97140000D03*
%TO.N,vusb*%
X99890000Y-97480000D03*
%TO.N,+3.3V*%
X106700000Y-92900000D03*
%TO.N,Net-(J3-CC1)*%
X96700000Y-104492500D03*
%TO.N,GND*%
X98100000Y-105307500D03*
X99000000Y-105380000D03*
%TO.N,/B_PW*%
X98320000Y-102370000D03*
%TO.N,GND*%
X113327500Y-104037500D03*
X113327500Y-101837500D03*
%TO.N,3.3V_AUX*%
X103440000Y-106040000D03*
%TO.N,+3.3V*%
X102450000Y-104570000D03*
%TO.N,3.3V_AUX*%
X102160000Y-103590000D03*
X101480000Y-103600000D03*
%TO.N,Net-(U2-EN)*%
X105340000Y-106060000D03*
X102270000Y-107090000D03*
%TO.N,/SWCLK*%
X94600000Y-98500000D03*
%TO.N,/SWDIO*%
X95200000Y-97700000D03*
%TO.N,/SPI_CLK*%
X106090000Y-102450000D03*
%TO.N,/SPI_MOSI*%
X106100000Y-101450000D03*
%TO.N,/OLED_SCL*%
X97120000Y-95730000D03*
%TO.N,/OLED_SDA*%
X97050000Y-96310000D03*
%TO.N,3.3V_AUX*%
X96600000Y-95090000D03*
%TO.N,BAT+*%
X103450000Y-108160000D03*
X103000000Y-107680000D03*
%TO.N,+3.3V*%
X100310000Y-106780000D03*
X100030000Y-106050000D03*
X101750000Y-107420000D03*
%TO.N,/GPS_EXTINT*%
X105710000Y-99140000D03*
%TO.N,GND*%
X97117500Y-101870000D03*
X97117500Y-99430000D03*
X102340000Y-99892500D03*
X100960000Y-98510000D03*
%TO.N,+3.3V*%
X100620000Y-97870000D03*
X100680000Y-97290000D03*
%TO.N,/USB_DETECT*%
X100680000Y-96320000D03*
%TO.N,/GPS_EXTINT*%
X98730000Y-96370000D03*
%TO.N,vusb*%
X98010000Y-101430000D03*
%TO.N,Net-(J3-CC2)*%
X97810000Y-95150000D03*
%TO.N,Net-(U1-PH3)*%
X107950000Y-94420000D03*
%TO.N,+3.3V*%
X113825000Y-92900000D03*
%TO.N,/B1*%
X106700000Y-93715000D03*
%TO.N,/B_PW*%
X107220000Y-104720000D03*
%TO.N,GND*%
X108150000Y-107550000D03*
X111100000Y-107350000D03*
%TO.N,/ADC_BAT*%
X109660000Y-107210000D03*
%TO.N,/D+*%
X98630000Y-99170000D03*
%TO.N,/USB_DETECT*%
X96675000Y-100265000D03*
%TO.N,/ADC_BAT*%
X97980000Y-99940000D03*
%TO.N,/SPI_MOSI*%
X97590000Y-100310000D03*
%TO.N,/SPI_MISO*%
X97060000Y-101040000D03*
%TO.N,/SPI_CLK*%
X98745000Y-101415000D03*
%TO.N,/D-*%
X98090000Y-97620000D03*
%TO.N,/SPI_MISO*%
X101830000Y-96450000D03*
%TO.N,/SPI_CS*%
X101740000Y-97390000D03*
%TO.N,/AUX_EN*%
X101815000Y-102175000D03*
X101015000Y-108000000D03*
%TO.N,Net-(IC5-~{CHRG})*%
X99940000Y-107230000D03*
%TO.N,vusb*%
X96600000Y-107790000D03*
%TO.N,Net-(LEDBLUE1-A)*%
X97820000Y-108120000D03*
%TO.N,Net-(LEDGREEN1-A)*%
X99100000Y-108130000D03*
%TO.N,+3.3V*%
X95710000Y-103410000D03*
X96140000Y-102930000D03*
%TO.N,Net-(U1-PH3)*%
X95070000Y-101320000D03*
%TO.N,Net-(LEDBLUE1-A)*%
X94400000Y-102007500D03*
%TO.N,Net-(LEDGREEN1-A)*%
X94400000Y-100207500D03*
%TO.N,/GPIO_SUP*%
X95150000Y-99550000D03*
%TO.N,/B1*%
X95170000Y-98970000D03*
%TO.N,3.3V_AUX*%
X102720000Y-106040000D03*
%TD*%
D36*
%TO.N,Net-(IC4-RF_IN)*%
X110200000Y-102050299D02*
X110200000Y-100600000D01*
X110565079Y-102765081D02*
X110447273Y-102647274D01*
X113327500Y-102937500D02*
X110981332Y-102937500D01*
X110981332Y-102937500D02*
G75*
G02*
X110565056Y-102765104I-32J588700D01*
G01*
X110447273Y-102647274D02*
G75*
G02*
X110200014Y-102050299I597027J596974D01*
G01*
D37*
%TO.N,/ADC_BAT*%
X109550000Y-107100000D02*
X109660000Y-107210000D01*
X109550000Y-106375000D02*
X109550000Y-107100000D01*
D38*
%TO.N,Net-(IC4-V_BCKP)*%
X107690000Y-105350000D02*
X107740000Y-105400000D01*
X107690000Y-104440000D02*
X107690000Y-105350000D01*
X107400000Y-104150000D02*
X107690000Y-104440000D01*
X106900000Y-104150000D02*
X107400000Y-104150000D01*
X105650000Y-102900000D02*
X106900000Y-104150000D01*
X105650000Y-101850000D02*
X105650000Y-102900000D01*
X104537500Y-100737500D02*
X105650000Y-101850000D01*
X103827500Y-100737500D02*
X104537500Y-100737500D01*
%TO.N,BAT+*%
X110800000Y-105442500D02*
X110950000Y-105592500D01*
X110800000Y-105350000D02*
X110800000Y-105442500D01*
X110450000Y-105000000D02*
X110800000Y-105350000D01*
X109150000Y-105000000D02*
X110450000Y-105000000D01*
X108760000Y-105390000D02*
X109150000Y-105000000D01*
X108760000Y-105400000D02*
X108760000Y-105390000D01*
D37*
%TO.N,Net-(C8-Pad2)*%
X110217500Y-105560000D02*
X110250000Y-105592500D01*
X109550000Y-105560000D02*
X110217500Y-105560000D01*
%TO.N,/ADC_BAT*%
X110917500Y-106375000D02*
X110950000Y-106407500D01*
X109550000Y-106375000D02*
X110917500Y-106375000D01*
D38*
%TO.N,BAT+*%
X113320000Y-107500000D02*
X113360000Y-107540000D01*
X111985000Y-107500000D02*
X113320000Y-107500000D01*
X111450000Y-105800000D02*
X111450000Y-106965000D01*
X111450000Y-106965000D02*
X111985000Y-107500000D01*
X111210000Y-105560000D02*
X111450000Y-105800000D01*
X110950000Y-105592500D02*
X110982500Y-105560000D01*
X110982500Y-105560000D02*
X111210000Y-105560000D01*
D37*
%TO.N,Net-(U1-PH3)*%
X110190000Y-93210000D02*
X110187500Y-93207500D01*
X110187500Y-93207500D02*
X109700000Y-93207500D01*
X110525000Y-92950000D02*
X110450000Y-92950000D01*
X110450000Y-92950000D02*
X110190000Y-93210000D01*
%TO.N,/NRST*%
X97400000Y-104190000D02*
X97400000Y-104542500D01*
X98087500Y-103087500D02*
X98087500Y-103502500D01*
X98087500Y-103502500D02*
X97400000Y-104190000D01*
%TO.N,Net-(LEDRED1-A)*%
X94892500Y-104747500D02*
X94892500Y-104500000D01*
X95582500Y-105437500D02*
X94892500Y-104747500D01*
%TO.N,Net-(IC5-~{CHRG})*%
X94612500Y-105572500D02*
X94612500Y-105937500D01*
X94612500Y-105937500D02*
X94450000Y-106100000D01*
%TO.N,Net-(LEDRED1-A)*%
X95685000Y-105470000D02*
X95652500Y-105437500D01*
%TO.N,Net-(IC5-~{CHRG})*%
X94715000Y-105470000D02*
X94612500Y-105572500D01*
%TO.N,Net-(LEDRED1-A)*%
X95652500Y-105437500D02*
X95582500Y-105437500D01*
D38*
%TO.N,vusb*%
X96580000Y-107220000D02*
X96840000Y-107480000D01*
X96580000Y-106440000D02*
X96580000Y-107220000D01*
X96250000Y-104800000D02*
X96250000Y-106110000D01*
X96250000Y-106110000D02*
X96580000Y-106440000D01*
X95950000Y-104500000D02*
X96250000Y-104800000D01*
X95707500Y-104500000D02*
X95950000Y-104500000D01*
D37*
%TO.N,/SPI_MOSI*%
X97680000Y-100400000D02*
X100775000Y-100400000D01*
X97590000Y-100310000D02*
X97680000Y-100400000D01*
%TO.N,/SPI_MISO*%
X98440000Y-100900000D02*
X100775000Y-100900000D01*
X98300000Y-101040000D02*
X98440000Y-100900000D01*
X97060000Y-101040000D02*
X98300000Y-101040000D01*
%TO.N,/USB_DETECT*%
X96310000Y-99900000D02*
X95900000Y-99900000D01*
X96675000Y-100265000D02*
X96310000Y-99900000D01*
%TO.N,/ADC_BAT*%
X98430000Y-100170000D02*
X100090000Y-100170000D01*
X98210000Y-99950000D02*
X98430000Y-100170000D01*
X98190000Y-99970000D02*
X98210000Y-99950000D01*
X100360000Y-99900000D02*
X100775000Y-99900000D01*
X98010000Y-99970000D02*
X98190000Y-99970000D01*
X100090000Y-100170000D02*
X100360000Y-99900000D01*
X97980000Y-99940000D02*
X98010000Y-99970000D01*
%TO.N,/B_PW*%
X99087500Y-102717500D02*
X99087500Y-103087500D01*
X98740000Y-102370000D02*
X99087500Y-102717500D01*
X98320000Y-102370000D02*
X98740000Y-102370000D01*
%TO.N,/GPS_RX*%
X102082500Y-103087500D02*
X100087500Y-103087500D01*
X102660000Y-102510000D02*
X102082500Y-103087500D01*
X101790000Y-101090000D02*
X102660000Y-101960000D01*
X102550000Y-98900000D02*
X101790000Y-99660000D01*
X101790000Y-99660000D02*
X101790000Y-101090000D01*
X102550000Y-94950000D02*
X102550000Y-98900000D01*
X105577500Y-94580000D02*
X102920000Y-94580000D01*
X105927500Y-94930000D02*
X105577500Y-94580000D01*
X106140000Y-94930000D02*
X105927500Y-94930000D01*
X102660000Y-101960000D02*
X102660000Y-102510000D01*
X102920000Y-94580000D02*
X102550000Y-94950000D01*
%TO.N,/GPS_TX*%
X104680000Y-94200000D02*
X105170000Y-93710000D01*
X102600000Y-94200000D02*
X104680000Y-94200000D01*
%TO.N,Net-(IC4-RXD)*%
X105500000Y-96670000D02*
X105630000Y-96540000D01*
X104732500Y-97437500D02*
X105500000Y-96670000D01*
X105630000Y-96540000D02*
X105630000Y-96070000D01*
X103827500Y-97437500D02*
X104732500Y-97437500D01*
%TO.N,Net-(IC4-TXD)*%
X104542500Y-96337500D02*
X104830000Y-96050000D01*
X103827500Y-96337500D02*
X104542500Y-96337500D01*
%TO.N,/GPS_TX*%
X101590000Y-102750000D02*
X101240000Y-102400000D01*
X101240000Y-102400000D02*
X100775000Y-102400000D01*
X102010000Y-102750000D02*
X101590000Y-102750000D01*
X102360000Y-102400000D02*
X102010000Y-102750000D01*
X102360000Y-102120000D02*
X102360000Y-102400000D01*
X101450000Y-101210000D02*
X102360000Y-102120000D01*
X102270000Y-98821126D02*
X101450000Y-99641126D01*
X102270000Y-94530000D02*
X102270000Y-98821126D01*
X102600000Y-94200000D02*
X102270000Y-94530000D01*
X101450000Y-99641126D02*
X101450000Y-101210000D01*
%TO.N,/GPIO_SUP*%
X95800000Y-96490000D02*
X95670000Y-96360000D01*
X95800000Y-96925000D02*
X95800000Y-96490000D01*
D38*
%TO.N,vusb*%
X99625000Y-96500000D02*
X99625000Y-97215000D01*
X99625000Y-97215000D02*
X99890000Y-97480000D01*
D37*
%TO.N,/OLED_SCL*%
X97450000Y-95730000D02*
X97120000Y-95730000D01*
X99087500Y-97617500D02*
X98780000Y-97310000D01*
X98780000Y-97310000D02*
X98780000Y-97060000D01*
X98780000Y-97060000D02*
X97450000Y-95730000D01*
X99087500Y-98212500D02*
X99087500Y-97617500D01*
%TO.N,/GPS_EXTINT*%
X99587500Y-97727500D02*
X99587500Y-98212500D01*
X99140000Y-97280000D02*
X99587500Y-97727500D01*
X99140000Y-96780000D02*
X99140000Y-97280000D01*
X98730000Y-96370000D02*
X99140000Y-96780000D01*
%TO.N,Net-(U1-PH3)*%
X95100000Y-101430000D02*
X95570000Y-101900000D01*
X95100000Y-101350000D02*
X95100000Y-101430000D01*
X95070000Y-101320000D02*
X95100000Y-101350000D01*
X95570000Y-101900000D02*
X95900000Y-101900000D01*
%TO.N,/SPI_CLK*%
X100400000Y-101400000D02*
X100775000Y-101400000D01*
X100180000Y-101180000D02*
X100400000Y-101400000D01*
X98960000Y-101180000D02*
X100180000Y-101180000D01*
X98745000Y-101395000D02*
X98960000Y-101180000D01*
X98745000Y-101415000D02*
X98745000Y-101395000D01*
%TO.N,/OLED_SDA*%
X97550000Y-96310000D02*
X97050000Y-96310000D01*
X97810000Y-96570000D02*
X97550000Y-96310000D01*
X98587500Y-97467500D02*
X98100000Y-96980000D01*
X98587500Y-98212500D02*
X98587500Y-97467500D01*
X98100000Y-96980000D02*
X97810000Y-96690000D01*
X97810000Y-96690000D02*
X97810000Y-96570000D01*
D38*
%TO.N,3.3V_AUX*%
X96600000Y-95090000D02*
X96600000Y-96925000D01*
X96600000Y-94475000D02*
X96600000Y-95090000D01*
%TO.N,/D-*%
X98090000Y-97620000D02*
X98090000Y-98210000D01*
X98090000Y-98210000D02*
X98087500Y-98212500D01*
D37*
%TO.N,Net-(J3-CC2)*%
X98305000Y-95475000D02*
X98700000Y-95475000D01*
X97970000Y-95150000D02*
X98300000Y-95480000D01*
X97810000Y-95150000D02*
X97970000Y-95150000D01*
X98300000Y-95480000D02*
X98305000Y-95475000D01*
%TO.N,/OLED_SCL*%
X97570000Y-91840000D02*
X98730000Y-93000000D01*
X95480000Y-91840000D02*
X97570000Y-91840000D01*
X94350000Y-92970000D02*
X95480000Y-91840000D01*
X94350000Y-94820000D02*
X94350000Y-92970000D01*
X94580000Y-95050000D02*
X94350000Y-94820000D01*
X95410000Y-95050000D02*
X94580000Y-95050000D01*
X96200000Y-95840000D02*
X95410000Y-95050000D01*
X96200000Y-96925000D02*
X96200000Y-95840000D01*
%TO.N,/OLED_SDA*%
X96200000Y-93010000D02*
X96190000Y-93000000D01*
X96200000Y-94475000D02*
X96200000Y-93010000D01*
D38*
%TO.N,+3.3V*%
X101750000Y-106975000D02*
X101750000Y-107420000D01*
%TO.N,Net-(IC4-V_BCKP)*%
X103835000Y-100730000D02*
X103827500Y-100737500D01*
X103797500Y-100707500D02*
X103827500Y-100737500D01*
X102340000Y-100707500D02*
X103797500Y-100707500D01*
D37*
%TO.N,/GPS_EXTINT*%
X105710000Y-99240000D02*
X105710000Y-99140000D01*
X105320000Y-99630000D02*
X105710000Y-99240000D01*
X103827500Y-99637500D02*
X103835000Y-99630000D01*
X103835000Y-99630000D02*
X105320000Y-99630000D01*
D38*
%TO.N,GND*%
X100775000Y-98695000D02*
X100960000Y-98510000D01*
X100775000Y-98900000D02*
X100775000Y-98695000D01*
D37*
%TO.N,/USB_DETECT*%
X100500000Y-96500000D02*
X100680000Y-96320000D01*
X100440000Y-96500000D02*
X100500000Y-96500000D01*
%TO.N,/SPI_CS*%
X101230000Y-99400000D02*
X100775000Y-99400000D01*
X101740000Y-97390000D02*
X101740000Y-98890000D01*
X101740000Y-98890000D02*
X101230000Y-99400000D01*
%TO.N,/USB_DETECT*%
X99400000Y-95507500D02*
X100100000Y-95507500D01*
X100100000Y-96030000D02*
X100100000Y-95507500D01*
X100440000Y-96370000D02*
X100100000Y-96030000D01*
X100440000Y-96500000D02*
X100440000Y-96370000D01*
%TO.N,/AUX_EN*%
X101540000Y-101900000D02*
X100775000Y-101900000D01*
X101815000Y-102175000D02*
X101540000Y-101900000D01*
%TO.N,Net-(U1-PH3)*%
X109000000Y-93370000D02*
X107950000Y-94420000D01*
X109000000Y-93207500D02*
X109000000Y-93370000D01*
X109000000Y-93207500D02*
X109700000Y-93207500D01*
D38*
%TO.N,/D+*%
X97587500Y-98537500D02*
X97587500Y-98212500D01*
X98220000Y-99170000D02*
X97587500Y-98537500D01*
X98630000Y-99170000D02*
X98220000Y-99170000D01*
D37*
%TO.N,/ADC_BAT*%
X100640000Y-99900000D02*
X100630000Y-99890000D01*
X100775000Y-99900000D02*
X100640000Y-99900000D01*
%TO.N,/SPI_MOSI*%
X100650000Y-100400000D02*
X100640000Y-100390000D01*
X100775000Y-100400000D02*
X100650000Y-100400000D01*
%TO.N,/SPI_MISO*%
X100775000Y-100900000D02*
X100630000Y-100900000D01*
%TO.N,/SPI_CLK*%
X100775000Y-101400000D02*
X100640000Y-101400000D01*
%TO.N,/GPS_EN*%
X99587500Y-103837500D02*
X99587500Y-103087500D01*
X100392500Y-104642500D02*
X99587500Y-103837500D01*
X100392500Y-104700000D02*
X100392500Y-104642500D01*
X100392500Y-105022500D02*
X100392500Y-104700000D01*
X100750000Y-105380000D02*
X100392500Y-105022500D01*
X100750000Y-105625000D02*
X100750000Y-105380000D01*
%TO.N,/AUX_EN*%
X101250000Y-107765000D02*
X101015000Y-108000000D01*
X101250000Y-106975000D02*
X101250000Y-107765000D01*
D38*
%TO.N,vusb*%
X96600000Y-107720000D02*
X96600000Y-107790000D01*
X96840000Y-107480000D02*
X96600000Y-107720000D01*
D37*
%TO.N,Net-(LEDGREEN1-A)*%
X99100000Y-108130000D02*
X99100000Y-107485000D01*
%TO.N,Net-(LEDBLUE1-A)*%
X98100000Y-107840000D02*
X97820000Y-108120000D01*
X98100000Y-107485000D02*
X98100000Y-107840000D01*
%TO.N,Net-(LEDGREEN1-A)*%
X99100000Y-107485000D02*
X98995000Y-107485000D01*
D38*
%TO.N,vusb*%
X96840000Y-107480000D02*
X97100000Y-107480000D01*
D37*
%TO.N,Net-(U1-PB6)*%
X94692500Y-100900000D02*
X94400000Y-101192500D01*
X95900000Y-100900000D02*
X94692500Y-100900000D01*
%TO.N,Net-(U1-PB5)*%
X95390000Y-100400000D02*
X94400000Y-99410000D01*
X94400000Y-99410000D02*
X94400000Y-99392500D01*
X95900000Y-100400000D02*
X95390000Y-100400000D01*
%TO.N,/GPIO_SUP*%
X95300000Y-99400000D02*
X95150000Y-99550000D01*
X95900000Y-99400000D02*
X95300000Y-99400000D01*
%TO.N,/B1*%
X95240000Y-98900000D02*
X95170000Y-98970000D01*
X95900000Y-98900000D02*
X95240000Y-98900000D01*
%TO.N,/SWCLK*%
X95737500Y-98212500D02*
X95450000Y-98500000D01*
X96587500Y-98212500D02*
X95737500Y-98212500D01*
X95450000Y-98500000D02*
X94600000Y-98500000D01*
%TO.N,/SWDIO*%
X97087500Y-97717500D02*
X97087500Y-98212500D01*
X96930000Y-97580000D02*
X96940000Y-97570000D01*
X95940000Y-97580000D02*
X96930000Y-97580000D01*
X96940000Y-97570000D02*
X97087500Y-97717500D01*
X95820000Y-97700000D02*
X95940000Y-97580000D01*
X95200000Y-97700000D02*
X95820000Y-97700000D01*
%TD*%
%TA.AperFunction,Conductor*%
%TO.N,+3.3V*%
G36*
X96664963Y-102648859D02*
G01*
X96731647Y-102669717D01*
X96776469Y-102723315D01*
X96786761Y-102775423D01*
X96773010Y-103435509D01*
X96771322Y-103440842D01*
X96772308Y-103446348D01*
X96760900Y-103473782D01*
X96751934Y-103502124D01*
X96747064Y-103507059D01*
X96745483Y-103510863D01*
X96719619Y-103534878D01*
X96561704Y-103644203D01*
X96530337Y-103659887D01*
X96499998Y-103670000D01*
X96499998Y-103670001D01*
X96452907Y-103717092D01*
X96435808Y-103731363D01*
X96119999Y-103950000D01*
X96119997Y-103950003D01*
X96067782Y-104009337D01*
X96008716Y-104046660D01*
X95975910Y-104051412D01*
X95435037Y-104056714D01*
X95425436Y-104053997D01*
X95415553Y-104055367D01*
X95392380Y-104044642D01*
X95367808Y-104037688D01*
X95361199Y-104030210D01*
X95352145Y-104026020D01*
X95338449Y-104004469D01*
X95321538Y-103985335D01*
X95319022Y-103973901D01*
X95314669Y-103967051D01*
X95312646Y-103944919D01*
X95309824Y-103932091D01*
X95309870Y-103922912D01*
X95310500Y-103919748D01*
X95310500Y-103798818D01*
X95310502Y-103798424D01*
X95310513Y-103798385D01*
X95310600Y-103794078D01*
X95313118Y-103731363D01*
X95319394Y-103575084D01*
X95324208Y-103545505D01*
X95563560Y-102721068D01*
X95601154Y-102662179D01*
X95664621Y-102632960D01*
X95684811Y-102631663D01*
X96664963Y-102648859D01*
G37*
%TD.AperFunction*%
%TD*%
%TA.AperFunction,Conductor*%
%TO.N,+3.3V*%
G36*
X101105617Y-95259917D02*
G01*
X101114369Y-95260392D01*
X101889394Y-95330057D01*
X101954400Y-95355664D01*
X101995244Y-95412352D01*
X102002265Y-95451029D01*
X102009046Y-95783271D01*
X101990734Y-95850698D01*
X101979873Y-95865731D01*
X101746205Y-96142872D01*
X101713404Y-96170329D01*
X101645492Y-96209537D01*
X101645487Y-96209541D01*
X101589541Y-96265487D01*
X101589535Y-96265495D01*
X101549982Y-96334004D01*
X101549979Y-96334009D01*
X101543133Y-96359560D01*
X101529500Y-96410438D01*
X101529500Y-96489562D01*
X101549979Y-96565989D01*
X101549980Y-96565990D01*
X101552083Y-96573839D01*
X101550146Y-96574357D01*
X101557163Y-96619106D01*
X101513050Y-97158259D01*
X101496851Y-97210146D01*
X101459979Y-97274010D01*
X101439500Y-97350439D01*
X101439500Y-97437689D01*
X101436819Y-97437689D01*
X101428089Y-97493680D01*
X101404654Y-97527443D01*
X100308001Y-98651064D01*
X100279095Y-98667306D01*
X100250683Y-98684407D01*
X100248148Y-98684695D01*
X100247089Y-98685291D01*
X100215615Y-98688400D01*
X100051714Y-98683579D01*
X99985283Y-98661932D01*
X99941100Y-98607806D01*
X99931368Y-98558240D01*
X99939114Y-97868834D01*
X99959550Y-97802020D01*
X100001107Y-97762839D01*
X100005986Y-97760021D01*
X100005989Y-97760021D01*
X100074511Y-97720460D01*
X100130460Y-97664511D01*
X100170021Y-97595989D01*
X100190500Y-97519562D01*
X100190500Y-97519560D01*
X100192603Y-97511712D01*
X100195615Y-97512519D01*
X100217878Y-97462123D01*
X100800000Y-96775260D01*
X100800000Y-96775256D01*
X100803120Y-96766749D01*
X100806871Y-96744535D01*
X100812080Y-96729543D01*
X100846367Y-96678231D01*
X100858000Y-96619748D01*
X100858000Y-96597402D01*
X100864871Y-96577630D01*
X100873501Y-96565542D01*
X100877685Y-96551294D01*
X100894319Y-96530652D01*
X100920460Y-96504511D01*
X100960021Y-96435989D01*
X100980500Y-96359562D01*
X100980500Y-96280438D01*
X100960021Y-96204011D01*
X100960017Y-96204004D01*
X100920464Y-96135495D01*
X100920458Y-96135487D01*
X100864512Y-96079541D01*
X100864507Y-96079537D01*
X100795992Y-96039980D01*
X100795985Y-96039977D01*
X100794685Y-96039629D01*
X100793711Y-96039035D01*
X100788483Y-96036870D01*
X100788820Y-96036054D01*
X100773010Y-96026416D01*
X100749503Y-96016828D01*
X100739033Y-96005703D01*
X100735026Y-96003261D01*
X100725314Y-95991127D01*
X100593284Y-95803150D01*
X100570860Y-95736976D01*
X100570778Y-95729526D01*
X100577616Y-95373929D01*
X100598586Y-95307283D01*
X100652260Y-95262552D01*
X100703930Y-95252338D01*
X101105617Y-95259917D01*
G37*
%TD.AperFunction*%
%TD*%
%TA.AperFunction,Conductor*%
%TO.N,3.3V_GPS*%
G36*
X104742408Y-101359658D02*
G01*
X104809345Y-101379680D01*
X104846337Y-101416994D01*
X105430057Y-102332537D01*
X105449500Y-102399199D01*
X105449500Y-102939883D01*
X105480024Y-103013574D01*
X106530598Y-104064148D01*
X106547474Y-104085167D01*
X106900057Y-104638181D01*
X106919500Y-104704843D01*
X106919500Y-104759562D01*
X106933138Y-104810460D01*
X106939979Y-104835990D01*
X106939982Y-104835995D01*
X106979535Y-104904504D01*
X106979539Y-104904509D01*
X106979540Y-104904511D01*
X107035489Y-104960460D01*
X107035491Y-104960461D01*
X107035495Y-104960464D01*
X107104002Y-105000016D01*
X107104011Y-105000021D01*
X107104019Y-105000023D01*
X107104242Y-105000116D01*
X107104412Y-105000253D01*
X107111049Y-105004085D01*
X107110451Y-105005119D01*
X107119981Y-105012798D01*
X107138340Y-105021262D01*
X107156073Y-105041877D01*
X107158649Y-105043953D01*
X107161356Y-105048019D01*
X107200557Y-105109504D01*
X107220000Y-105176166D01*
X107220000Y-105790020D01*
X107200315Y-105857059D01*
X107147511Y-105902814D01*
X107100086Y-105913953D01*
X106321910Y-105939607D01*
X106298233Y-105938117D01*
X105560005Y-105820000D01*
X105558922Y-105819970D01*
X105555022Y-105819865D01*
X105496379Y-105803298D01*
X105455989Y-105779979D01*
X105379562Y-105759500D01*
X105300438Y-105759500D01*
X105262224Y-105769739D01*
X105224009Y-105779979D01*
X105224004Y-105779982D01*
X105155489Y-105819539D01*
X105155487Y-105819540D01*
X105145565Y-105829462D01*
X105118377Y-105850023D01*
X104896722Y-105973890D01*
X104828598Y-105989410D01*
X104798953Y-105983909D01*
X104374211Y-105850023D01*
X103930000Y-105710000D01*
X103929999Y-105710000D01*
X102540000Y-105710000D01*
X102187112Y-105895730D01*
X102129360Y-105910000D01*
X101744000Y-105910000D01*
X101676961Y-105890315D01*
X101631206Y-105837511D01*
X101620000Y-105786000D01*
X101620000Y-105436443D01*
X101639685Y-105369404D01*
X101692489Y-105323649D01*
X101701098Y-105320102D01*
X103769236Y-104557655D01*
X103812128Y-104550000D01*
X104709999Y-104550000D01*
X104710000Y-104550000D01*
X104900000Y-104410000D01*
X104910000Y-103610000D01*
X104909999Y-103609999D01*
X104510000Y-103450000D01*
X102954000Y-103450000D01*
X102886961Y-103430315D01*
X102841206Y-103377511D01*
X102830000Y-103326000D01*
X102830000Y-101474627D01*
X102849685Y-101407588D01*
X102902489Y-101361833D01*
X102954624Y-101350629D01*
X104742408Y-101359658D01*
G37*
%TD.AperFunction*%
%TD*%
%TA.AperFunction,Conductor*%
%TO.N,GND*%
G36*
X95282862Y-105714728D02*
G01*
X95303103Y-105738087D01*
X95303888Y-105739262D01*
X95303889Y-105739265D01*
X95350102Y-105808427D01*
X95358703Y-105821299D01*
X95410234Y-105855731D01*
X95440735Y-105876111D01*
X95440738Y-105876111D01*
X95440739Y-105876112D01*
X95513067Y-105890499D01*
X95513070Y-105890500D01*
X95513072Y-105890500D01*
X95856929Y-105890500D01*
X95875634Y-105886779D01*
X95901308Y-105881672D01*
X95970899Y-105887899D01*
X96026077Y-105930761D01*
X96049322Y-105996650D01*
X96049500Y-106003289D01*
X96049500Y-106149883D01*
X96056908Y-106167767D01*
X96080024Y-106223574D01*
X96216950Y-106360500D01*
X96343181Y-106486730D01*
X96376666Y-106548053D01*
X96379500Y-106574411D01*
X96379500Y-107259883D01*
X96410024Y-107333574D01*
X96434672Y-107358222D01*
X96468157Y-107419545D01*
X96463173Y-107489237D01*
X96421836Y-107544454D01*
X96421940Y-107544590D01*
X96421458Y-107544959D01*
X96421301Y-107545170D01*
X96420459Y-107545726D01*
X96415487Y-107549541D01*
X96359541Y-107605487D01*
X96359535Y-107605495D01*
X96319982Y-107674004D01*
X96319979Y-107674009D01*
X96310032Y-107711132D01*
X96299500Y-107750438D01*
X96299500Y-107829562D01*
X96312134Y-107876713D01*
X96319979Y-107905990D01*
X96319982Y-107905995D01*
X96359535Y-107974504D01*
X96359539Y-107974509D01*
X96359540Y-107974511D01*
X96415489Y-108030460D01*
X96415491Y-108030461D01*
X96415495Y-108030464D01*
X96484004Y-108070017D01*
X96484011Y-108070021D01*
X96560438Y-108090500D01*
X96560440Y-108090500D01*
X96639560Y-108090500D01*
X96639562Y-108090500D01*
X96715989Y-108070021D01*
X96784511Y-108030460D01*
X96840460Y-107974511D01*
X96857216Y-107945489D01*
X96870489Y-107922500D01*
X96921056Y-107874284D01*
X96977876Y-107860500D01*
X97293690Y-107860500D01*
X97293691Y-107860499D01*
X97363839Y-107846546D01*
X97363843Y-107846543D01*
X97375119Y-107841873D01*
X97376338Y-107844817D01*
X97424343Y-107829778D01*
X97491727Y-107848252D01*
X97538425Y-107900223D01*
X97549613Y-107969191D01*
X97541142Y-108001200D01*
X97539982Y-108004000D01*
X97539979Y-108004010D01*
X97539979Y-108004011D01*
X97519500Y-108080438D01*
X97519500Y-108159562D01*
X97539979Y-108235989D01*
X97539980Y-108235990D01*
X97541967Y-108243406D01*
X97540304Y-108313256D01*
X97501142Y-108371118D01*
X97436914Y-108398623D01*
X97422192Y-108399500D01*
X94224500Y-108399500D01*
X94157461Y-108379815D01*
X94111706Y-108327011D01*
X94100500Y-108275500D01*
X94100500Y-106459977D01*
X94120185Y-106392938D01*
X94172989Y-106347183D01*
X94242147Y-106337239D01*
X94286495Y-106352588D01*
X94334011Y-106380021D01*
X94410438Y-106400500D01*
X94410440Y-106400500D01*
X94489560Y-106400500D01*
X94489562Y-106400500D01*
X94565989Y-106380021D01*
X94634511Y-106340460D01*
X94690460Y-106284511D01*
X94730021Y-106215989D01*
X94750500Y-106139562D01*
X94750500Y-106060438D01*
X94750500Y-106052309D01*
X94752916Y-106052309D01*
X94753266Y-106049647D01*
X94750821Y-106036093D01*
X94759550Y-106001895D01*
X94760129Y-106000499D01*
X94773000Y-105969425D01*
X94773986Y-105967045D01*
X94817828Y-105912643D01*
X94880921Y-105891644D01*
X94880868Y-105891097D01*
X94883278Y-105890859D01*
X94884122Y-105890579D01*
X94886572Y-105890535D01*
X94886922Y-105890500D01*
X94886928Y-105890500D01*
X94959265Y-105876111D01*
X95041298Y-105821298D01*
X95096111Y-105739265D01*
X95096111Y-105739262D01*
X95096897Y-105738087D01*
X95150509Y-105693281D01*
X95219834Y-105684574D01*
X95282862Y-105714728D01*
G37*
%TD.AperFunction*%
%TA.AperFunction,Conductor*%
G36*
X100337494Y-107320311D02*
G01*
X100352342Y-107321224D01*
X100382289Y-107337188D01*
X100382350Y-107337100D01*
X100383187Y-107337667D01*
X100383485Y-107337826D01*
X100384256Y-107338391D01*
X100384265Y-107338397D01*
X100399474Y-107348701D01*
X100399475Y-107348701D01*
X100399476Y-107348702D01*
X100434018Y-107363943D01*
X100501957Y-107380255D01*
X100501966Y-107380255D01*
X100501967Y-107380256D01*
X100531843Y-107383037D01*
X100531844Y-107383037D01*
X100531855Y-107383038D01*
X100769585Y-107371152D01*
X100784527Y-107369330D01*
X100819167Y-107362569D01*
X100819169Y-107362567D01*
X100819174Y-107362567D01*
X100821655Y-107361799D01*
X100825436Y-107360357D01*
X100830827Y-107358559D01*
X100831622Y-107358374D01*
X100832097Y-107358136D01*
X100835925Y-107356861D01*
X100838476Y-107356768D01*
X100838698Y-107356717D01*
X100838708Y-107356760D01*
X100839508Y-107356731D01*
X100875134Y-107350499D01*
X100884895Y-107350499D01*
X100884898Y-107350499D01*
X100914213Y-107344669D01*
X100914217Y-107344665D01*
X100918049Y-107343080D01*
X100987519Y-107335613D01*
X101049997Y-107366889D01*
X101085649Y-107426978D01*
X101089500Y-107457642D01*
X101089500Y-107575500D01*
X101069815Y-107642539D01*
X101017011Y-107688294D01*
X100965500Y-107699500D01*
X100777747Y-107699500D01*
X100719270Y-107711131D01*
X100719269Y-107711132D01*
X100652947Y-107755447D01*
X100608632Y-107821769D01*
X100608631Y-107821770D01*
X100597000Y-107880247D01*
X100597000Y-108119752D01*
X100608631Y-108178229D01*
X100608632Y-108178231D01*
X100627594Y-108206608D01*
X100648473Y-108273285D01*
X100629989Y-108340665D01*
X100578011Y-108387356D01*
X100524493Y-108399500D01*
X99500488Y-108399500D01*
X99433449Y-108379815D01*
X99387694Y-108327011D01*
X99377750Y-108257853D01*
X99380713Y-108243406D01*
X99400500Y-108169562D01*
X99400500Y-108090438D01*
X99380021Y-108014011D01*
X99373475Y-108002674D01*
X99357005Y-107934775D01*
X99379857Y-107868748D01*
X99411972Y-107837574D01*
X99451298Y-107811298D01*
X99506111Y-107729265D01*
X99520500Y-107656928D01*
X99520500Y-107534833D01*
X99540185Y-107467794D01*
X99592989Y-107422039D01*
X99662147Y-107412095D01*
X99725703Y-107441120D01*
X99732181Y-107447152D01*
X99755489Y-107470460D01*
X99755491Y-107470461D01*
X99755495Y-107470464D01*
X99823938Y-107509979D01*
X99824011Y-107510021D01*
X99900438Y-107530500D01*
X99900440Y-107530500D01*
X99979560Y-107530500D01*
X99979562Y-107530500D01*
X100055989Y-107510021D01*
X100124511Y-107470460D01*
X100180460Y-107414511D01*
X100202788Y-107375836D01*
X100214201Y-107364953D01*
X100221620Y-107351038D01*
X100238967Y-107341338D01*
X100253354Y-107327620D01*
X100268840Y-107324635D01*
X100282604Y-107316939D01*
X100302443Y-107318158D01*
X100321961Y-107314396D01*
X100337494Y-107320311D01*
G37*
%TD.AperFunction*%
%TA.AperFunction,Conductor*%
G36*
X114192539Y-91620185D02*
G01*
X114238294Y-91672989D01*
X114249500Y-91724500D01*
X114249500Y-91986144D01*
X114229815Y-92053183D01*
X114177011Y-92098938D01*
X114107853Y-92108882D01*
X114101310Y-92107109D01*
X114101190Y-92107713D01*
X114059901Y-92099500D01*
X113490105Y-92099500D01*
X113490097Y-92099501D01*
X113460787Y-92105330D01*
X113427542Y-92127542D01*
X113405332Y-92160785D01*
X113405329Y-92160791D01*
X113399500Y-92190098D01*
X113399500Y-93709894D01*
X113399501Y-93709902D01*
X113405330Y-93739212D01*
X113427542Y-93772457D01*
X113444219Y-93783599D01*
X113460787Y-93794669D01*
X113460790Y-93794669D01*
X113460791Y-93794670D01*
X113470647Y-93796630D01*
X113490101Y-93800500D01*
X114059898Y-93800499D01*
X114071653Y-93798161D01*
X114101193Y-93792287D01*
X114102085Y-93796773D01*
X114146760Y-93791690D01*
X114209432Y-93822578D01*
X114245456Y-93882445D01*
X114249500Y-93913854D01*
X114249500Y-94663000D01*
X114229815Y-94730039D01*
X114177011Y-94775794D01*
X114125500Y-94787000D01*
X112417605Y-94787000D01*
X112417597Y-94787001D01*
X112388287Y-94792830D01*
X112355042Y-94815042D01*
X112332832Y-94848285D01*
X112332829Y-94848291D01*
X112327000Y-94877598D01*
X112327000Y-95597394D01*
X112327001Y-95597402D01*
X112332830Y-95626712D01*
X112355044Y-95659959D01*
X112363679Y-95668594D01*
X112362704Y-95669568D01*
X112399007Y-95713003D01*
X112407718Y-95782327D01*
X112377567Y-95845356D01*
X112356283Y-95863801D01*
X112355044Y-95865040D01*
X112332832Y-95898285D01*
X112332829Y-95898291D01*
X112327000Y-95927598D01*
X112327000Y-96747394D01*
X112327001Y-96747402D01*
X112332830Y-96776712D01*
X112332831Y-96776714D01*
X112360825Y-96818613D01*
X112381701Y-96885291D01*
X112363214Y-96952670D01*
X112360826Y-96956387D01*
X112332831Y-96998286D01*
X112332829Y-96998291D01*
X112327000Y-97027598D01*
X112327000Y-97847394D01*
X112327001Y-97847402D01*
X112332830Y-97876712D01*
X112332831Y-97876714D01*
X112360825Y-97918613D01*
X112381701Y-97985291D01*
X112363214Y-98052670D01*
X112360826Y-98056387D01*
X112332831Y-98098286D01*
X112332829Y-98098291D01*
X112327000Y-98127598D01*
X112327000Y-98947394D01*
X112327001Y-98947402D01*
X112332830Y-98976712D01*
X112332831Y-98976714D01*
X112360825Y-99018613D01*
X112381701Y-99085291D01*
X112363214Y-99152670D01*
X112360826Y-99156387D01*
X112332831Y-99198286D01*
X112332829Y-99198291D01*
X112327000Y-99227598D01*
X112327000Y-100047394D01*
X112327001Y-100047402D01*
X112332830Y-100076712D01*
X112332831Y-100076714D01*
X112360825Y-100118613D01*
X112381701Y-100185291D01*
X112363214Y-100252670D01*
X112360826Y-100256387D01*
X112332831Y-100298286D01*
X112332829Y-100298291D01*
X112327000Y-100327598D01*
X112327000Y-101147394D01*
X112327001Y-101147397D01*
X112332830Y-101176712D01*
X112355042Y-101209957D01*
X112367868Y-101218526D01*
X112388287Y-101232169D01*
X112388290Y-101232169D01*
X112388291Y-101232170D01*
X112398147Y-101234130D01*
X112417601Y-101238000D01*
X114125500Y-101237999D01*
X114192539Y-101257684D01*
X114238294Y-101310487D01*
X114249500Y-101361999D01*
X114249500Y-102313000D01*
X114229815Y-102380039D01*
X114177011Y-102425794D01*
X114125500Y-102437000D01*
X112417605Y-102437000D01*
X112417597Y-102437001D01*
X112388287Y-102442830D01*
X112355042Y-102465042D01*
X112332832Y-102498285D01*
X112332829Y-102498291D01*
X112327000Y-102527598D01*
X112327000Y-102618140D01*
X112307315Y-102685179D01*
X112254511Y-102730934D01*
X112203000Y-102742140D01*
X111032021Y-102742140D01*
X111020185Y-102742139D01*
X111020181Y-102742138D01*
X110997206Y-102742139D01*
X110989438Y-102742139D01*
X110989435Y-102742138D01*
X110973262Y-102741079D01*
X110895704Y-102730872D01*
X110864438Y-102722496D01*
X110799736Y-102695701D01*
X110771701Y-102679518D01*
X110709832Y-102632051D01*
X110697630Y-102621351D01*
X110589724Y-102513444D01*
X110581549Y-102504423D01*
X110512473Y-102420246D01*
X110498970Y-102400037D01*
X110498950Y-102400000D01*
X110450519Y-102309387D01*
X110441220Y-102286933D01*
X110419451Y-102215168D01*
X110411385Y-102188578D01*
X110406644Y-102164738D01*
X110401848Y-102116043D01*
X110395956Y-102056218D01*
X110395360Y-102044066D01*
X110395360Y-101333088D01*
X110415045Y-101266049D01*
X110467849Y-101220294D01*
X110471866Y-101218544D01*
X110519969Y-101198620D01*
X110630606Y-101124695D01*
X110724695Y-101030606D01*
X110798620Y-100919969D01*
X110849540Y-100797036D01*
X110864901Y-100719815D01*
X110875500Y-100666533D01*
X110875500Y-100533466D01*
X110849541Y-100402969D01*
X110849540Y-100402968D01*
X110849540Y-100402964D01*
X110808780Y-100304560D01*
X110798623Y-100280038D01*
X110798622Y-100280037D01*
X110798620Y-100280031D01*
X110792210Y-100270438D01*
X110724698Y-100169398D01*
X110724692Y-100169390D01*
X110630609Y-100075307D01*
X110630601Y-100075301D01*
X110519979Y-100001386D01*
X110519972Y-100001382D01*
X110519969Y-100001380D01*
X110519965Y-100001378D01*
X110519961Y-100001376D01*
X110397040Y-99950461D01*
X110397030Y-99950458D01*
X110266533Y-99924500D01*
X110266531Y-99924500D01*
X110133469Y-99924500D01*
X110133467Y-99924500D01*
X110002969Y-99950458D01*
X110002959Y-99950461D01*
X109880038Y-100001376D01*
X109880020Y-100001386D01*
X109769398Y-100075301D01*
X109769390Y-100075307D01*
X109675307Y-100169390D01*
X109675301Y-100169398D01*
X109601386Y-100280020D01*
X109601376Y-100280038D01*
X109550461Y-100402959D01*
X109550458Y-100402969D01*
X109524500Y-100533466D01*
X109524500Y-100533469D01*
X109524500Y-100666531D01*
X109524500Y-100666533D01*
X109524499Y-100666533D01*
X109550458Y-100797030D01*
X109550461Y-100797040D01*
X109601376Y-100919961D01*
X109601386Y-100919979D01*
X109675301Y-101030601D01*
X109675307Y-101030609D01*
X109769390Y-101124692D01*
X109769398Y-101124698D01*
X109880020Y-101198613D01*
X109880024Y-101198615D01*
X109880031Y-101198620D01*
X109928093Y-101218527D01*
X109982495Y-101262367D01*
X110004561Y-101328661D01*
X110004640Y-101333088D01*
X110004640Y-102101090D01*
X110004653Y-102101224D01*
X110004653Y-102132121D01*
X110004652Y-102132121D01*
X110030249Y-102293734D01*
X110030250Y-102293737D01*
X110078690Y-102442831D01*
X110080815Y-102449369D01*
X110155093Y-102595157D01*
X110155094Y-102595158D01*
X110155098Y-102595165D01*
X110247602Y-102722496D01*
X110251275Y-102727552D01*
X110254595Y-102730872D01*
X110274587Y-102750866D01*
X110274604Y-102750885D01*
X110285714Y-102761995D01*
X110348514Y-102824799D01*
X110348526Y-102824808D01*
X110391096Y-102867379D01*
X110391120Y-102867408D01*
X110391177Y-102867465D01*
X110391195Y-102867498D01*
X110391338Y-102867670D01*
X110426926Y-102903253D01*
X110426926Y-102903254D01*
X110481533Y-102957854D01*
X110481536Y-102957856D01*
X110481535Y-102957856D01*
X110609948Y-103043645D01*
X110609954Y-103043649D01*
X110752644Y-103102743D01*
X110904121Y-103132865D01*
X110981339Y-103132860D01*
X110981344Y-103132860D01*
X112203001Y-103132860D01*
X112270040Y-103152545D01*
X112315795Y-103205349D01*
X112327001Y-103256860D01*
X112327001Y-103347402D01*
X112332830Y-103376712D01*
X112355042Y-103409957D01*
X112359567Y-103412980D01*
X112388287Y-103432169D01*
X112388290Y-103432169D01*
X112388291Y-103432170D01*
X112398147Y-103434130D01*
X112417601Y-103438000D01*
X114125500Y-103437999D01*
X114192539Y-103457684D01*
X114238294Y-103510487D01*
X114249500Y-103561999D01*
X114249500Y-106547182D01*
X114229815Y-106614221D01*
X114177011Y-106659976D01*
X114148352Y-106669058D01*
X113463995Y-106797376D01*
X113441143Y-106799500D01*
X113385929Y-106799500D01*
X113260261Y-106824497D01*
X113260255Y-106824499D01*
X113141875Y-106873533D01*
X113141866Y-106873538D01*
X113035331Y-106944723D01*
X113035327Y-106944726D01*
X112944726Y-107035327D01*
X112944723Y-107035331D01*
X112873538Y-107141866D01*
X112873531Y-107141879D01*
X112839951Y-107222952D01*
X112827408Y-107238517D01*
X112819103Y-107256703D01*
X112805933Y-107265166D01*
X112796111Y-107277356D01*
X112777141Y-107283669D01*
X112760325Y-107294477D01*
X112732765Y-107298439D01*
X112729817Y-107299421D01*
X112725390Y-107299500D01*
X112543032Y-107299500D01*
X112475993Y-107279815D01*
X112430238Y-107227011D01*
X112420294Y-107157853D01*
X112449319Y-107094297D01*
X112455351Y-107087819D01*
X112497681Y-107045489D01*
X112545505Y-106997665D01*
X112614688Y-106877836D01*
X112650500Y-106744183D01*
X112650500Y-106605817D01*
X112614688Y-106472164D01*
X112568947Y-106392938D01*
X112545507Y-106352338D01*
X112545503Y-106352333D01*
X112447666Y-106254496D01*
X112447661Y-106254492D01*
X112327838Y-106185313D01*
X112327837Y-106185312D01*
X112327836Y-106185312D01*
X112194183Y-106149500D01*
X112055817Y-106149500D01*
X111922164Y-106185312D01*
X111922163Y-106185312D01*
X111836499Y-106234770D01*
X111768599Y-106251241D01*
X111702572Y-106228389D01*
X111659382Y-106173467D01*
X111650500Y-106127382D01*
X111650500Y-105760119D01*
X111650499Y-105760116D01*
X111648291Y-105754785D01*
X111619976Y-105686426D01*
X111563574Y-105630024D01*
X111489624Y-105556074D01*
X111323575Y-105390024D01*
X111323572Y-105390022D01*
X111312706Y-105385521D01*
X111258304Y-105341678D01*
X111243952Y-105307883D01*
X111243542Y-105308054D01*
X111238867Y-105296769D01*
X111194552Y-105230447D01*
X111128230Y-105186132D01*
X111128229Y-105186131D01*
X111069752Y-105174500D01*
X111069748Y-105174500D01*
X110959412Y-105174500D01*
X110892373Y-105154815D01*
X110871731Y-105138181D01*
X110563574Y-104830024D01*
X110489883Y-104799500D01*
X110489882Y-104799500D01*
X109189882Y-104799500D01*
X109110118Y-104799500D01*
X109110116Y-104799500D01*
X109036425Y-104830024D01*
X109036424Y-104830025D01*
X108923269Y-104943181D01*
X108861946Y-104976666D01*
X108835588Y-104979500D01*
X108601802Y-104979500D01*
X108533115Y-104993162D01*
X108533112Y-104993164D01*
X108455214Y-105045214D01*
X108403164Y-105123112D01*
X108403162Y-105123115D01*
X108389500Y-105191801D01*
X108389500Y-105191804D01*
X108389500Y-105608196D01*
X108389500Y-105608198D01*
X108389499Y-105608198D01*
X108403162Y-105676884D01*
X108403163Y-105676886D01*
X108403164Y-105676888D01*
X108455214Y-105754786D01*
X108533112Y-105806836D01*
X108533114Y-105806836D01*
X108533115Y-105806837D01*
X108601801Y-105820500D01*
X108601804Y-105820500D01*
X108918198Y-105820500D01*
X108986884Y-105806837D01*
X108986885Y-105806836D01*
X108986888Y-105806836D01*
X109064786Y-105754786D01*
X109064787Y-105754784D01*
X109066070Y-105753927D01*
X109132747Y-105733049D01*
X109200127Y-105751533D01*
X109246818Y-105803512D01*
X109247263Y-105804452D01*
X109253644Y-105818081D01*
X109261133Y-105855731D01*
X109295000Y-105906416D01*
X109298983Y-105914923D01*
X109302915Y-105940548D01*
X109310661Y-105965286D01*
X109308127Y-105974520D01*
X109309580Y-105983984D01*
X109299035Y-106007664D01*
X109292177Y-106032667D01*
X109289783Y-106036391D01*
X109261132Y-106079269D01*
X109261131Y-106079270D01*
X109249500Y-106137747D01*
X109249500Y-106612252D01*
X109261131Y-106670729D01*
X109261132Y-106670730D01*
X109274077Y-106690102D01*
X109305448Y-106737052D01*
X109334391Y-106756391D01*
X109339481Y-106762481D01*
X109346703Y-106765780D01*
X109361566Y-106788908D01*
X109379195Y-106810002D01*
X109381146Y-106819376D01*
X109384477Y-106824558D01*
X109389500Y-106859493D01*
X109389500Y-107046360D01*
X109381609Y-107086034D01*
X109382083Y-107086161D01*
X109380146Y-107093387D01*
X109380063Y-107093808D01*
X109379980Y-107094006D01*
X109377332Y-107103889D01*
X109359500Y-107170438D01*
X109359500Y-107249562D01*
X109367779Y-107280459D01*
X109379979Y-107325990D01*
X109379982Y-107325995D01*
X109419535Y-107394504D01*
X109419539Y-107394509D01*
X109419540Y-107394511D01*
X109475489Y-107450460D01*
X109475491Y-107450461D01*
X109475495Y-107450464D01*
X109510130Y-107470460D01*
X109544011Y-107490021D01*
X109620438Y-107510500D01*
X109620440Y-107510500D01*
X109699560Y-107510500D01*
X109699562Y-107510500D01*
X109775989Y-107490021D01*
X109844511Y-107450460D01*
X109900460Y-107394511D01*
X109940021Y-107325989D01*
X109960500Y-107249562D01*
X109960500Y-107202749D01*
X109980185Y-107135710D01*
X110032989Y-107089955D01*
X110069723Y-107079632D01*
X111129780Y-106952426D01*
X111198685Y-106963983D01*
X111250406Y-107010960D01*
X111259112Y-107028089D01*
X111280024Y-107078574D01*
X111871426Y-107669976D01*
X111945118Y-107700500D01*
X112024882Y-107700500D01*
X112733693Y-107700500D01*
X112800732Y-107720185D01*
X112846487Y-107772989D01*
X112856431Y-107842147D01*
X112827406Y-107905703D01*
X112815348Y-107917819D01*
X112299921Y-108368819D01*
X112236506Y-108398151D01*
X112218266Y-108399500D01*
X103884468Y-108399500D01*
X103876092Y-108397040D01*
X103867458Y-108398328D01*
X103843077Y-108387346D01*
X103817429Y-108379815D01*
X103810041Y-108372466D01*
X103803752Y-108369633D01*
X103780502Y-108343079D01*
X103762132Y-108314818D01*
X103742100Y-108247882D01*
X103746324Y-108215144D01*
X103750500Y-108199562D01*
X103750500Y-108120438D01*
X103730021Y-108044011D01*
X103722200Y-108030464D01*
X103690464Y-107975495D01*
X103690458Y-107975487D01*
X103634512Y-107919541D01*
X103634504Y-107919535D01*
X103565995Y-107879982D01*
X103565991Y-107879980D01*
X103565989Y-107879979D01*
X103565987Y-107879978D01*
X103565984Y-107879977D01*
X103507190Y-107864223D01*
X103447530Y-107827858D01*
X103435318Y-107812028D01*
X103434843Y-107811298D01*
X103301071Y-107605495D01*
X103294886Y-107595979D01*
X103284167Y-107579489D01*
X103280021Y-107564011D01*
X103240460Y-107495489D01*
X103209339Y-107464368D01*
X103200000Y-107450000D01*
X103199732Y-107449587D01*
X103185902Y-107440607D01*
X103184507Y-107439537D01*
X103115995Y-107399982D01*
X103115990Y-107399979D01*
X103090513Y-107393152D01*
X103039562Y-107379500D01*
X102960438Y-107379500D01*
X102901338Y-107395335D01*
X102882576Y-107394889D01*
X102864379Y-107399465D01*
X102848374Y-107394074D01*
X102831490Y-107393673D01*
X102815949Y-107383154D01*
X102798164Y-107377165D01*
X102780326Y-107360438D01*
X106409500Y-107360438D01*
X106409500Y-107439562D01*
X106420336Y-107480000D01*
X106429979Y-107515990D01*
X106429982Y-107515995D01*
X106469535Y-107584504D01*
X106469539Y-107584509D01*
X106469540Y-107584511D01*
X106525489Y-107640460D01*
X106525491Y-107640461D01*
X106525495Y-107640464D01*
X106576612Y-107669976D01*
X106594011Y-107680021D01*
X106670438Y-107700500D01*
X106670440Y-107700500D01*
X106749560Y-107700500D01*
X106749562Y-107700500D01*
X106825989Y-107680021D01*
X106894511Y-107640460D01*
X106950460Y-107584511D01*
X106990021Y-107515989D01*
X107010500Y-107439562D01*
X107010500Y-107360438D01*
X106990021Y-107284011D01*
X106987970Y-107280459D01*
X106950464Y-107215495D01*
X106950458Y-107215487D01*
X106894512Y-107159541D01*
X106894504Y-107159535D01*
X106825995Y-107119982D01*
X106825990Y-107119979D01*
X106800513Y-107113152D01*
X106749562Y-107099500D01*
X106670438Y-107099500D01*
X106632224Y-107109739D01*
X106594009Y-107119979D01*
X106594004Y-107119982D01*
X106525495Y-107159535D01*
X106525487Y-107159541D01*
X106469541Y-107215487D01*
X106469535Y-107215495D01*
X106429982Y-107284004D01*
X106429979Y-107284009D01*
X106416698Y-107333574D01*
X106409500Y-107360438D01*
X102780326Y-107360438D01*
X102774982Y-107355427D01*
X102773628Y-107354511D01*
X102772418Y-107353023D01*
X102768961Y-107348702D01*
X102711104Y-107276380D01*
X102684596Y-107211734D01*
X102697246Y-107143019D01*
X102710047Y-107122795D01*
X102981479Y-106773811D01*
X103027392Y-106737357D01*
X103312396Y-106605817D01*
X107349500Y-106605817D01*
X107349500Y-106744183D01*
X107384161Y-106873538D01*
X107385312Y-106877835D01*
X107385313Y-106877838D01*
X107454492Y-106997661D01*
X107454494Y-106997664D01*
X107454495Y-106997665D01*
X107552335Y-107095505D01*
X107552336Y-107095506D01*
X107552338Y-107095507D01*
X107599592Y-107122789D01*
X107672164Y-107164688D01*
X107805817Y-107200500D01*
X107805819Y-107200500D01*
X107944181Y-107200500D01*
X107944183Y-107200500D01*
X108077836Y-107164688D01*
X108197665Y-107095505D01*
X108295505Y-106997665D01*
X108364688Y-106877836D01*
X108400500Y-106744183D01*
X108400500Y-106605817D01*
X108364688Y-106472164D01*
X108318947Y-106392938D01*
X108295507Y-106352338D01*
X108295503Y-106352333D01*
X108197666Y-106254496D01*
X108197661Y-106254492D01*
X108077838Y-106185313D01*
X108077837Y-106185312D01*
X108077836Y-106185312D01*
X107944183Y-106149500D01*
X107805817Y-106149500D01*
X107672164Y-106185312D01*
X107672161Y-106185313D01*
X107552338Y-106254492D01*
X107552333Y-106254496D01*
X107454496Y-106352333D01*
X107454492Y-106352338D01*
X107385313Y-106472161D01*
X107385312Y-106472164D01*
X107349500Y-106605817D01*
X103312396Y-106605817D01*
X103650000Y-106450000D01*
X104260525Y-105980365D01*
X104325662Y-105955093D01*
X104373405Y-105960386D01*
X104767236Y-106084529D01*
X104779705Y-106087638D01*
X104809350Y-106093139D01*
X104852033Y-106092274D01*
X104910459Y-106078963D01*
X104980194Y-106083264D01*
X105036536Y-106124585D01*
X105057776Y-106167767D01*
X105059979Y-106175989D01*
X105059982Y-106175995D01*
X105099535Y-106244504D01*
X105099539Y-106244509D01*
X105099540Y-106244511D01*
X105155489Y-106300460D01*
X105155491Y-106300461D01*
X105155495Y-106300464D01*
X105219192Y-106337239D01*
X105224011Y-106340021D01*
X105300438Y-106360500D01*
X105300440Y-106360500D01*
X105379560Y-106360500D01*
X105379562Y-106360500D01*
X105455989Y-106340021D01*
X105524511Y-106300460D01*
X105580460Y-106244511D01*
X105620021Y-106175989D01*
X105640169Y-106100793D01*
X105676533Y-106041136D01*
X105739380Y-106010607D01*
X105774066Y-106011121D01*
X105774187Y-106009903D01*
X105780250Y-106010500D01*
X105780252Y-106010500D01*
X106019747Y-106010500D01*
X106019748Y-106010500D01*
X106026062Y-106009243D01*
X106069847Y-106008417D01*
X106281565Y-106042292D01*
X106291607Y-106043409D01*
X106315284Y-106044899D01*
X106325386Y-106045050D01*
X107103562Y-106019396D01*
X107124209Y-106016658D01*
X107171634Y-106005519D01*
X107216599Y-105982546D01*
X107269403Y-105936791D01*
X107301541Y-105886783D01*
X107308320Y-105863693D01*
X107346093Y-105804917D01*
X107409649Y-105775891D01*
X107478807Y-105785834D01*
X107496176Y-105795520D01*
X107513112Y-105806836D01*
X107513114Y-105806836D01*
X107513115Y-105806837D01*
X107581801Y-105820500D01*
X107581804Y-105820500D01*
X107898198Y-105820500D01*
X107966884Y-105806837D01*
X107966884Y-105806836D01*
X107966888Y-105806836D01*
X108044786Y-105754786D01*
X108096836Y-105676888D01*
X108110500Y-105608196D01*
X108110500Y-105191804D01*
X108110500Y-105191801D01*
X108096837Y-105123115D01*
X108096836Y-105123114D01*
X108096836Y-105123112D01*
X108044786Y-105045214D01*
X107966888Y-104993164D01*
X107966887Y-104993163D01*
X107956733Y-104986379D01*
X107957366Y-104985430D01*
X107912637Y-104949378D01*
X107890579Y-104883082D01*
X107890500Y-104878668D01*
X107890500Y-104400119D01*
X107890499Y-104400116D01*
X107889373Y-104397398D01*
X107859976Y-104326426D01*
X107803574Y-104270024D01*
X107513574Y-103980024D01*
X107467320Y-103960865D01*
X107439883Y-103949500D01*
X107439882Y-103949500D01*
X107034412Y-103949500D01*
X106967373Y-103929815D01*
X106946731Y-103913181D01*
X106363542Y-103329992D01*
X106330057Y-103268669D01*
X106327689Y-103231573D01*
X106400000Y-102400000D01*
X106355811Y-101648797D01*
X106371525Y-101580718D01*
X106372147Y-101579626D01*
X106380021Y-101565989D01*
X106400500Y-101489562D01*
X106400500Y-101410438D01*
X106380021Y-101334011D01*
X106376932Y-101328661D01*
X106340464Y-101265495D01*
X106340458Y-101265487D01*
X106284512Y-101209541D01*
X106284504Y-101209535D01*
X106215995Y-101169982D01*
X106215990Y-101169979D01*
X106190513Y-101163152D01*
X106139562Y-101149500D01*
X106060438Y-101149500D01*
X106060437Y-101149500D01*
X106042095Y-101154415D01*
X105972245Y-101152752D01*
X105922321Y-101122321D01*
X105700000Y-100900000D01*
X105034912Y-100900000D01*
X105005471Y-100891355D01*
X104975485Y-100884832D01*
X104970469Y-100881077D01*
X104967873Y-100880315D01*
X104947231Y-100863681D01*
X104864318Y-100780768D01*
X104830833Y-100719445D01*
X104827999Y-100693087D01*
X104827999Y-100327605D01*
X104827998Y-100327597D01*
X104822169Y-100298287D01*
X104794174Y-100256387D01*
X104773298Y-100189709D01*
X104791784Y-100122329D01*
X104794175Y-100118610D01*
X104799955Y-100109957D01*
X104799957Y-100109957D01*
X104822169Y-100076713D01*
X104823597Y-100069535D01*
X104828000Y-100047401D01*
X104828000Y-99914500D01*
X104847685Y-99847461D01*
X104900489Y-99801706D01*
X104952000Y-99790500D01*
X105351924Y-99790500D01*
X105351925Y-99790500D01*
X105410916Y-99766065D01*
X105708200Y-99468780D01*
X105763782Y-99436689D01*
X105825989Y-99420021D01*
X105894511Y-99380460D01*
X105950460Y-99324511D01*
X105990021Y-99255989D01*
X106010500Y-99179562D01*
X106010500Y-99100438D01*
X105990021Y-99024011D01*
X105989050Y-99022329D01*
X105950464Y-98955495D01*
X105950458Y-98955487D01*
X105894512Y-98899541D01*
X105894504Y-98899535D01*
X105825995Y-98859982D01*
X105825990Y-98859979D01*
X105800513Y-98853152D01*
X105749562Y-98839500D01*
X105670438Y-98839500D01*
X105632224Y-98849739D01*
X105594009Y-98859979D01*
X105594004Y-98859982D01*
X105525495Y-98899535D01*
X105525487Y-98899541D01*
X105469541Y-98955487D01*
X105469535Y-98955495D01*
X105429982Y-99024004D01*
X105429979Y-99024009D01*
X105421942Y-99054004D01*
X105413682Y-99084833D01*
X105409500Y-99100439D01*
X105409500Y-99179562D01*
X105419279Y-99216058D01*
X105418993Y-99228058D01*
X105423188Y-99239304D01*
X105418177Y-99262340D01*
X105417616Y-99285908D01*
X105410517Y-99297554D01*
X105408337Y-99307577D01*
X105387186Y-99335831D01*
X105289839Y-99433180D01*
X105228516Y-99466666D01*
X105202157Y-99469500D01*
X104951999Y-99469500D01*
X104884960Y-99449815D01*
X104839205Y-99397011D01*
X104827999Y-99345500D01*
X104827999Y-99227605D01*
X104827998Y-99227597D01*
X104822169Y-99198287D01*
X104794174Y-99156387D01*
X104773298Y-99089709D01*
X104791784Y-99022329D01*
X104794175Y-99018610D01*
X104799955Y-99009957D01*
X104799957Y-99009957D01*
X104822169Y-98976713D01*
X104828000Y-98947399D01*
X104827999Y-98127602D01*
X104822169Y-98098287D01*
X104822168Y-98098286D01*
X104794174Y-98056387D01*
X104773298Y-97989709D01*
X104791784Y-97922329D01*
X104794175Y-97918610D01*
X104799955Y-97909957D01*
X104799957Y-97909957D01*
X104822169Y-97876713D01*
X104828000Y-97847399D01*
X104827999Y-97620342D01*
X104847683Y-97553303D01*
X104864313Y-97532666D01*
X105636065Y-96760916D01*
X105766065Y-96630916D01*
X105790500Y-96571925D01*
X105790500Y-96508075D01*
X105790500Y-96385833D01*
X105810185Y-96318794D01*
X105826819Y-96298152D01*
X105870460Y-96254511D01*
X105910021Y-96185989D01*
X105930500Y-96109562D01*
X105930500Y-96030438D01*
X105910021Y-95954011D01*
X105886844Y-95913867D01*
X105870464Y-95885495D01*
X105870458Y-95885487D01*
X105814512Y-95829541D01*
X105814504Y-95829535D01*
X105745995Y-95789982D01*
X105745990Y-95789979D01*
X105717432Y-95782327D01*
X105669562Y-95769500D01*
X105590438Y-95769500D01*
X105514011Y-95789979D01*
X105514009Y-95789980D01*
X105514002Y-95789982D01*
X105506499Y-95793090D01*
X105506000Y-95791885D01*
X105458404Y-95805663D01*
X105072860Y-95821084D01*
X105005905Y-95804571D01*
X104945989Y-95769979D01*
X104945990Y-95769979D01*
X104914547Y-95761554D01*
X104869562Y-95749500D01*
X104790438Y-95749500D01*
X104752224Y-95759739D01*
X104714009Y-95769979D01*
X104714004Y-95769982D01*
X104645491Y-95809537D01*
X104643097Y-95811375D01*
X104640711Y-95812297D01*
X104638450Y-95813603D01*
X104638246Y-95813250D01*
X104577928Y-95836570D01*
X104567610Y-95837000D01*
X102917605Y-95837000D01*
X102917597Y-95837001D01*
X102888287Y-95842830D01*
X102881948Y-95845456D01*
X102812478Y-95852922D01*
X102750000Y-95821644D01*
X102714351Y-95761554D01*
X102710500Y-95730893D01*
X102710500Y-95067843D01*
X102730185Y-95000804D01*
X102746819Y-94980162D01*
X102950162Y-94776819D01*
X103011485Y-94743334D01*
X103037843Y-94740500D01*
X105459657Y-94740500D01*
X105526696Y-94760185D01*
X105547338Y-94776819D01*
X105791435Y-95020916D01*
X105836584Y-95066065D01*
X105843678Y-95069003D01*
X105894605Y-95108079D01*
X105899539Y-95114509D01*
X105899540Y-95114511D01*
X105955489Y-95170460D01*
X105955491Y-95170461D01*
X105955495Y-95170464D01*
X106015934Y-95205358D01*
X106024011Y-95210021D01*
X106100438Y-95230500D01*
X106100440Y-95230500D01*
X106179560Y-95230500D01*
X106179562Y-95230500D01*
X106255989Y-95210021D01*
X106324511Y-95170460D01*
X106380460Y-95114511D01*
X106420021Y-95045989D01*
X106440500Y-94969562D01*
X106440500Y-94890438D01*
X106420021Y-94814011D01*
X106404427Y-94787001D01*
X106380464Y-94745495D01*
X106380458Y-94745487D01*
X106324513Y-94689542D01*
X106324511Y-94689540D01*
X106322945Y-94688636D01*
X106286832Y-94667785D01*
X106250715Y-94636220D01*
X105508293Y-93675438D01*
X106399500Y-93675438D01*
X106399500Y-93754562D01*
X106404295Y-93772457D01*
X106419979Y-93830990D01*
X106419982Y-93830995D01*
X106459535Y-93899504D01*
X106459539Y-93899509D01*
X106459540Y-93899511D01*
X106515489Y-93955460D01*
X106515491Y-93955461D01*
X106515495Y-93955464D01*
X106556793Y-93979307D01*
X106584011Y-93995021D01*
X106660438Y-94015500D01*
X106660440Y-94015500D01*
X106739560Y-94015500D01*
X106739562Y-94015500D01*
X106815989Y-93995021D01*
X106884511Y-93955460D01*
X106940460Y-93899511D01*
X106980021Y-93830989D01*
X107000500Y-93754562D01*
X107000500Y-93675438D01*
X106980021Y-93599011D01*
X106962800Y-93569183D01*
X106940464Y-93530495D01*
X106940458Y-93530487D01*
X106884512Y-93474541D01*
X106884504Y-93474535D01*
X106815995Y-93434982D01*
X106815990Y-93434979D01*
X106810750Y-93433575D01*
X106800457Y-93430817D01*
X107349500Y-93430817D01*
X107349500Y-93569183D01*
X107380887Y-93686319D01*
X107385312Y-93702835D01*
X107385313Y-93702838D01*
X107454492Y-93822661D01*
X107454494Y-93822664D01*
X107454495Y-93822665D01*
X107552335Y-93920505D01*
X107552336Y-93920506D01*
X107552338Y-93920507D01*
X107612249Y-93955096D01*
X107672164Y-93989688D01*
X107688043Y-93993942D01*
X107747702Y-94030307D01*
X107778232Y-94093153D01*
X107769938Y-94162529D01*
X107743631Y-94201397D01*
X107709541Y-94235487D01*
X107709535Y-94235495D01*
X107669982Y-94304004D01*
X107669979Y-94304009D01*
X107668331Y-94310161D01*
X107649500Y-94380438D01*
X107649500Y-94459562D01*
X107659820Y-94498075D01*
X107669979Y-94535990D01*
X107669982Y-94535995D01*
X107709535Y-94604504D01*
X107709539Y-94604509D01*
X107709540Y-94604511D01*
X107765489Y-94660460D01*
X107765491Y-94660461D01*
X107765495Y-94660464D01*
X107822143Y-94693169D01*
X107834011Y-94700021D01*
X107910438Y-94720500D01*
X107910440Y-94720500D01*
X107989560Y-94720500D01*
X107989562Y-94720500D01*
X108065989Y-94700021D01*
X108134511Y-94660460D01*
X108190460Y-94604511D01*
X108230021Y-94535989D01*
X108250500Y-94459562D01*
X108250500Y-94397842D01*
X108270185Y-94330803D01*
X108286819Y-94310161D01*
X108910662Y-93686319D01*
X108971985Y-93652834D01*
X108998343Y-93650000D01*
X110035821Y-93650000D01*
X110102860Y-93669685D01*
X110148615Y-93722489D01*
X110150404Y-93728033D01*
X110150657Y-93727929D01*
X110155330Y-93739211D01*
X110177542Y-93772457D01*
X110194219Y-93783599D01*
X110210787Y-93794669D01*
X110210790Y-93794669D01*
X110210791Y-93794670D01*
X110220647Y-93796630D01*
X110240101Y-93800500D01*
X110809898Y-93800499D01*
X110839213Y-93794669D01*
X110872457Y-93772457D01*
X110894669Y-93739213D01*
X110897996Y-93722489D01*
X110900500Y-93709901D01*
X110900500Y-93430817D01*
X111599500Y-93430817D01*
X111599500Y-93569183D01*
X111630887Y-93686319D01*
X111635312Y-93702835D01*
X111635313Y-93702838D01*
X111704492Y-93822661D01*
X111704494Y-93822664D01*
X111704495Y-93822665D01*
X111802335Y-93920505D01*
X111802336Y-93920506D01*
X111802338Y-93920507D01*
X111862249Y-93955096D01*
X111922164Y-93989688D01*
X112055817Y-94025500D01*
X112055819Y-94025500D01*
X112194181Y-94025500D01*
X112194183Y-94025500D01*
X112327836Y-93989688D01*
X112447665Y-93920505D01*
X112545505Y-93822665D01*
X112614688Y-93702836D01*
X112650500Y-93569183D01*
X112650500Y-93430817D01*
X112614688Y-93297164D01*
X112558879Y-93200500D01*
X112545507Y-93177338D01*
X112545503Y-93177333D01*
X112447666Y-93079496D01*
X112447661Y-93079492D01*
X112327838Y-93010313D01*
X112327837Y-93010312D01*
X112327836Y-93010312D01*
X112194183Y-92974500D01*
X112055817Y-92974500D01*
X111922164Y-93010312D01*
X111922161Y-93010313D01*
X111802338Y-93079492D01*
X111802333Y-93079496D01*
X111704496Y-93177333D01*
X111704492Y-93177338D01*
X111635313Y-93297161D01*
X111635312Y-93297164D01*
X111599500Y-93430817D01*
X110900500Y-93430817D01*
X110900500Y-93422690D01*
X110900499Y-92190105D01*
X110900498Y-92190097D01*
X110894669Y-92160787D01*
X110872457Y-92127542D01*
X110847496Y-92110865D01*
X110839213Y-92105331D01*
X110839211Y-92105330D01*
X110839208Y-92105329D01*
X110809901Y-92099500D01*
X110240105Y-92099500D01*
X110240097Y-92099501D01*
X110210787Y-92105330D01*
X110177542Y-92127542D01*
X110155332Y-92160785D01*
X110155329Y-92160791D01*
X110149500Y-92190098D01*
X110149500Y-92643451D01*
X110129815Y-92710490D01*
X110077011Y-92756245D01*
X110033484Y-92767194D01*
X109691733Y-92789243D01*
X109691732Y-92789243D01*
X109687748Y-92789500D01*
X109580252Y-92789500D01*
X109528657Y-92799762D01*
X109520474Y-92800290D01*
X109520474Y-92800291D01*
X109249153Y-92817796D01*
X109190051Y-92804506D01*
X109189513Y-92805806D01*
X109182012Y-92802699D01*
X109180985Y-92802468D01*
X109179992Y-92801862D01*
X109178229Y-92801131D01*
X109119752Y-92789500D01*
X109119748Y-92789500D01*
X108880252Y-92789500D01*
X108880247Y-92789500D01*
X108821770Y-92801131D01*
X108821769Y-92801132D01*
X108763765Y-92839890D01*
X108728939Y-92856017D01*
X108164748Y-93017214D01*
X108094881Y-93016704D01*
X108083235Y-93012548D01*
X108077838Y-93010313D01*
X108077837Y-93010312D01*
X108077836Y-93010312D01*
X107944183Y-92974500D01*
X107805817Y-92974500D01*
X107672164Y-93010312D01*
X107672161Y-93010313D01*
X107552338Y-93079492D01*
X107552333Y-93079496D01*
X107454496Y-93177333D01*
X107454492Y-93177338D01*
X107385313Y-93297161D01*
X107385312Y-93297164D01*
X107349500Y-93430817D01*
X106800457Y-93430817D01*
X106739562Y-93414500D01*
X106660438Y-93414500D01*
X106596995Y-93431500D01*
X106596993Y-93431500D01*
X106584015Y-93434977D01*
X106584004Y-93434982D01*
X106515495Y-93474535D01*
X106515487Y-93474541D01*
X106459541Y-93530487D01*
X106459535Y-93530495D01*
X106419982Y-93599004D01*
X106419979Y-93599009D01*
X106406326Y-93649962D01*
X106399500Y-93675438D01*
X105508293Y-93675438D01*
X105465503Y-93620063D01*
X105454385Y-93600878D01*
X105454086Y-93601051D01*
X105410462Y-93525492D01*
X105410458Y-93525487D01*
X105354512Y-93469541D01*
X105354504Y-93469535D01*
X105285995Y-93429982D01*
X105285990Y-93429979D01*
X105258787Y-93422690D01*
X105209562Y-93409500D01*
X105130438Y-93409500D01*
X105092224Y-93419739D01*
X105054009Y-93429979D01*
X105054004Y-93429982D01*
X104985495Y-93469535D01*
X104985487Y-93469541D01*
X104929541Y-93525487D01*
X104929535Y-93525495D01*
X104889982Y-93594004D01*
X104889979Y-93594009D01*
X104887511Y-93603220D01*
X104874977Y-93650000D01*
X104869500Y-93670439D01*
X104869500Y-93732156D01*
X104849815Y-93799195D01*
X104833181Y-93819837D01*
X104649838Y-94003181D01*
X104588515Y-94036666D01*
X104562157Y-94039500D01*
X102568075Y-94039500D01*
X102568074Y-94039500D01*
X102568069Y-94039501D01*
X102533518Y-94053812D01*
X102533519Y-94053813D01*
X102509087Y-94063933D01*
X102509084Y-94063934D01*
X102509083Y-94063935D01*
X102509082Y-94063935D01*
X102509080Y-94063937D01*
X102179084Y-94393935D01*
X102133936Y-94439082D01*
X102109500Y-94498074D01*
X102109500Y-95091332D01*
X102089815Y-95158371D01*
X102037011Y-95204126D01*
X101967853Y-95214070D01*
X101961310Y-95212950D01*
X101893688Y-95199500D01*
X101620923Y-95199500D01*
X101609822Y-95199002D01*
X101123842Y-95155318D01*
X101120062Y-95155045D01*
X101111689Y-95154591D01*
X101111334Y-95154572D01*
X101111332Y-95154571D01*
X101111315Y-95154571D01*
X101107640Y-95154437D01*
X101107628Y-95154436D01*
X101107607Y-95154436D01*
X101096091Y-95154218D01*
X101092890Y-95154158D01*
X101026345Y-95133282D01*
X100978230Y-95101132D01*
X100978229Y-95101131D01*
X100919752Y-95089500D01*
X100919748Y-95089500D01*
X100680252Y-95089500D01*
X100680249Y-95089500D01*
X100639442Y-95097617D01*
X100615251Y-95100000D01*
X100284747Y-95100000D01*
X100260555Y-95097617D01*
X100219750Y-95089500D01*
X100219748Y-95089500D01*
X99980252Y-95089500D01*
X99980250Y-95089500D01*
X99939445Y-95097617D01*
X99915253Y-95100000D01*
X99584747Y-95100000D01*
X99560555Y-95097617D01*
X99519750Y-95089500D01*
X99519748Y-95089500D01*
X99280252Y-95089500D01*
X99280250Y-95089500D01*
X99239445Y-95097617D01*
X99215253Y-95100000D01*
X98962790Y-95100000D01*
X98895751Y-95080315D01*
X98893928Y-95079122D01*
X98878231Y-95068633D01*
X98878229Y-95068632D01*
X98878227Y-95068631D01*
X98878229Y-95068631D01*
X98819752Y-95057000D01*
X98819748Y-95057000D01*
X98580252Y-95057000D01*
X98580249Y-95057000D01*
X98509791Y-95071015D01*
X98509180Y-95067946D01*
X98458946Y-95073343D01*
X98446910Y-95070544D01*
X98144173Y-94984049D01*
X98069854Y-94962815D01*
X98016238Y-94931267D01*
X97994512Y-94909541D01*
X97994504Y-94909535D01*
X97925995Y-94869982D01*
X97925990Y-94869979D01*
X97900513Y-94863152D01*
X97849562Y-94849500D01*
X97770438Y-94849500D01*
X97710618Y-94865529D01*
X97694003Y-94869981D01*
X97690885Y-94871273D01*
X97686948Y-94871871D01*
X97686161Y-94872083D01*
X97686137Y-94871995D01*
X97632214Y-94880200D01*
X96933273Y-94816660D01*
X96868291Y-94790987D01*
X96827504Y-94734257D01*
X96820499Y-94693174D01*
X96820499Y-94240102D01*
X96814669Y-94210787D01*
X96800000Y-94188832D01*
X96792457Y-94177542D01*
X96767496Y-94160865D01*
X96759213Y-94155331D01*
X96759211Y-94155330D01*
X96759208Y-94155329D01*
X96729901Y-94149500D01*
X96522026Y-94149500D01*
X96454987Y-94129815D01*
X96409232Y-94077011D01*
X96399288Y-94007853D01*
X96428313Y-93944297D01*
X96474571Y-93910940D01*
X96640231Y-93842322D01*
X96795908Y-93738302D01*
X96928302Y-93605908D01*
X97032322Y-93450231D01*
X97103973Y-93277251D01*
X97140500Y-93093616D01*
X97140500Y-92906384D01*
X97103973Y-92722749D01*
X97032322Y-92549769D01*
X97032321Y-92549768D01*
X97032318Y-92549762D01*
X96928302Y-92394092D01*
X96928299Y-92394088D01*
X96795908Y-92261697D01*
X96744880Y-92227602D01*
X96700075Y-92173990D01*
X96691368Y-92104665D01*
X96721522Y-92041638D01*
X96780965Y-92004918D01*
X96813771Y-92000500D01*
X97452157Y-92000500D01*
X97519196Y-92020185D01*
X97539838Y-92036819D01*
X97881853Y-92378834D01*
X97915338Y-92440157D01*
X97910354Y-92509849D01*
X97897277Y-92535402D01*
X97887677Y-92549769D01*
X97816027Y-92722748D01*
X97816025Y-92722756D01*
X97779500Y-92906379D01*
X97779500Y-93093620D01*
X97816025Y-93277243D01*
X97816027Y-93277251D01*
X97887676Y-93450228D01*
X97887681Y-93450237D01*
X97991697Y-93605907D01*
X97991700Y-93605911D01*
X98124088Y-93738299D01*
X98124092Y-93738302D01*
X98279762Y-93842318D01*
X98279768Y-93842321D01*
X98279769Y-93842322D01*
X98452749Y-93913973D01*
X98619975Y-93947236D01*
X98636379Y-93950499D01*
X98636383Y-93950500D01*
X98636384Y-93950500D01*
X98823617Y-93950500D01*
X98823618Y-93950499D01*
X99007251Y-93913973D01*
X99180231Y-93842322D01*
X99335908Y-93738302D01*
X99468302Y-93605908D01*
X99572322Y-93450231D01*
X99643973Y-93277251D01*
X99680500Y-93093616D01*
X99680500Y-92906384D01*
X99680499Y-92906379D01*
X100319500Y-92906379D01*
X100319500Y-93093620D01*
X100356025Y-93277243D01*
X100356027Y-93277251D01*
X100427676Y-93450228D01*
X100427681Y-93450237D01*
X100531697Y-93605907D01*
X100531700Y-93605911D01*
X100664088Y-93738299D01*
X100664092Y-93738302D01*
X100819762Y-93842318D01*
X100819768Y-93842321D01*
X100819769Y-93842322D01*
X100992749Y-93913973D01*
X101159975Y-93947236D01*
X101176379Y-93950499D01*
X101176383Y-93950500D01*
X101176384Y-93950500D01*
X101363617Y-93950500D01*
X101363618Y-93950499D01*
X101547251Y-93913973D01*
X101720231Y-93842322D01*
X101875908Y-93738302D01*
X102008302Y-93605908D01*
X102112322Y-93450231D01*
X102183973Y-93277251D01*
X102220500Y-93093616D01*
X102220500Y-92906384D01*
X102211361Y-92860438D01*
X106399500Y-92860438D01*
X106399500Y-92939562D01*
X106408862Y-92974500D01*
X106419979Y-93015990D01*
X106419982Y-93015995D01*
X106459535Y-93084504D01*
X106459539Y-93084509D01*
X106459540Y-93084511D01*
X106515489Y-93140460D01*
X106515491Y-93140461D01*
X106515495Y-93140464D01*
X106579355Y-93177333D01*
X106584011Y-93180021D01*
X106584015Y-93180022D01*
X106596993Y-93183500D01*
X106596995Y-93183500D01*
X106660438Y-93200500D01*
X106739562Y-93200500D01*
X106815989Y-93180021D01*
X106884511Y-93140460D01*
X106940460Y-93084511D01*
X106980021Y-93015989D01*
X107000500Y-92939562D01*
X107000500Y-92860438D01*
X106980021Y-92784011D01*
X106978189Y-92780838D01*
X106940464Y-92715495D01*
X106940458Y-92715487D01*
X106884512Y-92659541D01*
X106884504Y-92659535D01*
X106815995Y-92619982D01*
X106815990Y-92619979D01*
X106790513Y-92613152D01*
X106739562Y-92599500D01*
X106660438Y-92599500D01*
X106622224Y-92609739D01*
X106584009Y-92619979D01*
X106584004Y-92619982D01*
X106515495Y-92659535D01*
X106515487Y-92659541D01*
X106459541Y-92715487D01*
X106459535Y-92715495D01*
X106419982Y-92784004D01*
X106419979Y-92784009D01*
X106415033Y-92802468D01*
X106399500Y-92860438D01*
X102211361Y-92860438D01*
X102183973Y-92722749D01*
X102112322Y-92549769D01*
X102112321Y-92549768D01*
X102112318Y-92549762D01*
X102008302Y-92394092D01*
X102008299Y-92394088D01*
X101875911Y-92261700D01*
X101875907Y-92261697D01*
X101720237Y-92157681D01*
X101720228Y-92157676D01*
X101547251Y-92086027D01*
X101547243Y-92086025D01*
X101363620Y-92049500D01*
X101363616Y-92049500D01*
X101176384Y-92049500D01*
X101176379Y-92049500D01*
X100992756Y-92086025D01*
X100992748Y-92086027D01*
X100819771Y-92157676D01*
X100819762Y-92157681D01*
X100664092Y-92261697D01*
X100664088Y-92261700D01*
X100531700Y-92394088D01*
X100531697Y-92394092D01*
X100427681Y-92549762D01*
X100427676Y-92549771D01*
X100356027Y-92722748D01*
X100356025Y-92722756D01*
X100319500Y-92906379D01*
X99680499Y-92906379D01*
X99643973Y-92722749D01*
X99572322Y-92549769D01*
X99572321Y-92549768D01*
X99572318Y-92549762D01*
X99468302Y-92394092D01*
X99468299Y-92394088D01*
X99335911Y-92261700D01*
X99335907Y-92261697D01*
X99180237Y-92157681D01*
X99180228Y-92157676D01*
X99007251Y-92086027D01*
X99007243Y-92086025D01*
X98823620Y-92049500D01*
X98823616Y-92049500D01*
X98636384Y-92049500D01*
X98636379Y-92049500D01*
X98452756Y-92086025D01*
X98452748Y-92086027D01*
X98279769Y-92157677D01*
X98265402Y-92167277D01*
X98198724Y-92188152D01*
X98131344Y-92169665D01*
X98108834Y-92151853D01*
X97769162Y-91812181D01*
X97735677Y-91750858D01*
X97740661Y-91681166D01*
X97782533Y-91625233D01*
X97847997Y-91600816D01*
X97856843Y-91600500D01*
X114125500Y-91600500D01*
X114192539Y-91620185D01*
G37*
%TD.AperFunction*%
%TA.AperFunction,Conductor*%
G36*
X97832861Y-104877682D02*
G01*
X97853103Y-104901043D01*
X97855447Y-104904552D01*
X97921769Y-104948867D01*
X97921770Y-104948868D01*
X97980247Y-104960499D01*
X97980250Y-104960500D01*
X97980252Y-104960500D01*
X98198691Y-104960500D01*
X98216226Y-104961745D01*
X98513557Y-105004221D01*
X98515212Y-105004470D01*
X99146144Y-105103718D01*
X99162538Y-105105000D01*
X99171082Y-105105000D01*
X99195271Y-105107382D01*
X99231556Y-105114599D01*
X99245914Y-105118797D01*
X99251311Y-105120257D01*
X99251320Y-105120261D01*
X99261745Y-105121900D01*
X99263504Y-105122178D01*
X99263919Y-105122244D01*
X99263981Y-105122254D01*
X99288312Y-105133771D01*
X99288319Y-105133774D01*
X99294532Y-105136716D01*
X99327086Y-105152106D01*
X99327104Y-105152134D01*
X99327133Y-105152148D01*
X99327579Y-105152864D01*
X99362727Y-105206865D01*
X99545246Y-105775891D01*
X99646727Y-106092274D01*
X99648575Y-106098033D01*
X99654500Y-106135906D01*
X99654500Y-106650019D01*
X99655933Y-106667343D01*
X99662621Y-106707511D01*
X99662621Y-106707513D01*
X99662622Y-106707514D01*
X99680554Y-106751106D01*
X99720898Y-106808151D01*
X99741549Y-106829950D01*
X99741551Y-106829952D01*
X99742964Y-106831443D01*
X99774779Y-106893649D01*
X99767912Y-106963181D01*
X99754408Y-106988004D01*
X99748227Y-106996801D01*
X99699540Y-107045489D01*
X99659979Y-107114011D01*
X99656338Y-107127598D01*
X99643712Y-107145571D01*
X99632767Y-107154291D01*
X99625459Y-107166223D01*
X99605985Y-107175630D01*
X99589067Y-107189111D01*
X99575144Y-107190529D01*
X99562546Y-107196616D01*
X99541076Y-107194001D01*
X99519557Y-107196195D01*
X99507078Y-107189862D01*
X99493189Y-107188171D01*
X99461842Y-107166905D01*
X99457252Y-107164576D01*
X99456489Y-107163273D01*
X99454567Y-107161970D01*
X99451298Y-107158701D01*
X99369267Y-107103890D01*
X99369260Y-107103887D01*
X99296931Y-107089500D01*
X99296928Y-107089500D01*
X98903072Y-107089500D01*
X98903069Y-107089500D01*
X98830739Y-107103887D01*
X98830732Y-107103890D01*
X98748702Y-107158700D01*
X98703102Y-107226947D01*
X98649490Y-107271752D01*
X98580165Y-107280459D01*
X98517138Y-107250305D01*
X98496898Y-107226947D01*
X98451297Y-107158700D01*
X98369267Y-107103890D01*
X98369260Y-107103887D01*
X98296931Y-107089500D01*
X98296928Y-107089500D01*
X97903072Y-107089500D01*
X97903069Y-107089500D01*
X97830739Y-107103887D01*
X97830732Y-107103890D01*
X97748702Y-107158700D01*
X97696506Y-107236817D01*
X97642893Y-107281622D01*
X97573568Y-107290329D01*
X97510541Y-107260174D01*
X97490304Y-107236819D01*
X97443391Y-107166609D01*
X97363839Y-107113454D01*
X97363837Y-107113453D01*
X97363834Y-107113452D01*
X97293691Y-107099500D01*
X97293688Y-107099500D01*
X96906312Y-107099500D01*
X96904500Y-107099500D01*
X96837461Y-107079815D01*
X96791706Y-107027011D01*
X96780500Y-106975500D01*
X96780500Y-106400118D01*
X96780451Y-106400000D01*
X96780409Y-106399899D01*
X96777526Y-106392938D01*
X96770334Y-106375575D01*
X96749976Y-106326426D01*
X96693574Y-106270024D01*
X96686509Y-106262959D01*
X96686502Y-106262953D01*
X96486819Y-106063269D01*
X96453334Y-106001946D01*
X96450500Y-105975588D01*
X96450500Y-105084500D01*
X96470185Y-105017461D01*
X96522989Y-104971706D01*
X96574500Y-104960500D01*
X96819750Y-104960500D01*
X96819751Y-104960499D01*
X96834568Y-104957552D01*
X96878229Y-104948868D01*
X96878229Y-104948867D01*
X96878231Y-104948867D01*
X96944552Y-104904552D01*
X96946897Y-104901043D01*
X97000508Y-104856237D01*
X97069833Y-104847528D01*
X97132861Y-104877682D01*
X97153103Y-104901043D01*
X97155447Y-104904552D01*
X97221769Y-104948867D01*
X97221770Y-104948868D01*
X97280247Y-104960499D01*
X97280250Y-104960500D01*
X97280252Y-104960500D01*
X97519750Y-104960500D01*
X97519751Y-104960499D01*
X97534568Y-104957552D01*
X97578229Y-104948868D01*
X97578229Y-104948867D01*
X97578231Y-104948867D01*
X97644552Y-104904552D01*
X97646897Y-104901043D01*
X97700508Y-104856237D01*
X97769833Y-104847528D01*
X97832861Y-104877682D01*
G37*
%TD.AperFunction*%
%TA.AperFunction,Conductor*%
G36*
X100551648Y-103311477D02*
G01*
X100910336Y-103391185D01*
X100971508Y-103424944D01*
X100976750Y-103430572D01*
X101013505Y-103472577D01*
X101169285Y-103650613D01*
X101195738Y-103700168D01*
X101199976Y-103715982D01*
X101199980Y-103715992D01*
X101239537Y-103784507D01*
X101239539Y-103784510D01*
X101239540Y-103784511D01*
X101295489Y-103840460D01*
X101295490Y-103840461D01*
X101295492Y-103840462D01*
X101307691Y-103847505D01*
X101353355Y-103893372D01*
X101685988Y-104475480D01*
X101702011Y-104528166D01*
X101742641Y-105096986D01*
X101738607Y-105115520D01*
X101739603Y-105134461D01*
X101731331Y-105148951D01*
X101727783Y-105165258D01*
X101714368Y-105178669D01*
X101704967Y-105195141D01*
X101685315Y-105207717D01*
X101678373Y-105214659D01*
X101676319Y-105215755D01*
X101669518Y-105219303D01*
X101664605Y-105221115D01*
X101660908Y-105222557D01*
X101652299Y-105226104D01*
X101629211Y-105240335D01*
X101625270Y-105242392D01*
X101618351Y-105243760D01*
X101592096Y-105254076D01*
X101585787Y-105255330D01*
X101552542Y-105277542D01*
X101530332Y-105310785D01*
X101530329Y-105310791D01*
X101524500Y-105340098D01*
X101524500Y-105369388D01*
X101519478Y-105404320D01*
X101518776Y-105406710D01*
X101518775Y-105406712D01*
X101514500Y-105436446D01*
X101514500Y-105786000D01*
X101516911Y-105808426D01*
X101521667Y-105830293D01*
X101522736Y-105835804D01*
X101524500Y-105846149D01*
X101524501Y-105909898D01*
X101530331Y-105939213D01*
X101543808Y-105959384D01*
X101548253Y-105985448D01*
X101547138Y-105994954D01*
X101549997Y-106004087D01*
X101543136Y-106029086D01*
X101540117Y-106054842D01*
X101534039Y-106062237D01*
X101531507Y-106071466D01*
X101529123Y-106075177D01*
X101505331Y-106110787D01*
X101505329Y-106110791D01*
X101499500Y-106140098D01*
X101499500Y-106161651D01*
X101497117Y-106185843D01*
X101494500Y-106198998D01*
X101494500Y-106475944D01*
X101491707Y-106485455D01*
X101492982Y-106495285D01*
X101482026Y-106518422D01*
X101474815Y-106542983D01*
X101467324Y-106549473D01*
X101463082Y-106558434D01*
X101441354Y-106571976D01*
X101422011Y-106588738D01*
X101410619Y-106591133D01*
X101403788Y-106595392D01*
X101380901Y-106597384D01*
X101368787Y-106599932D01*
X101361569Y-106599832D01*
X101359899Y-106599500D01*
X101337537Y-106599500D01*
X101337530Y-106599500D01*
X101140096Y-106599500D01*
X101135931Y-106599911D01*
X101067285Y-106586890D01*
X101055865Y-106576064D01*
X101055380Y-106575915D01*
X101054081Y-106574373D01*
X101016577Y-106538822D01*
X101013211Y-106525869D01*
X101010359Y-106522484D01*
X101008392Y-106507323D01*
X100999802Y-106474263D01*
X100999875Y-106470267D01*
X101000455Y-106460341D01*
X101000495Y-106459920D01*
X101000500Y-106459899D01*
X101000499Y-106437057D01*
X101000520Y-106434803D01*
X101001516Y-106380020D01*
X101003187Y-106288172D01*
X101002843Y-106284504D01*
X101001041Y-106265280D01*
X101000499Y-106253703D01*
X101000499Y-106140105D01*
X101000498Y-106140097D01*
X100994669Y-106110787D01*
X100982877Y-106093138D01*
X100972457Y-106077543D01*
X100972456Y-106077542D01*
X100970878Y-106075180D01*
X100950001Y-106008503D01*
X100965821Y-105950834D01*
X100964996Y-105950493D01*
X100967718Y-105943920D01*
X100968486Y-105941123D01*
X100969586Y-105939411D01*
X100969666Y-105939217D01*
X100969669Y-105939213D01*
X100975500Y-105909899D01*
X100975499Y-105340102D01*
X100969669Y-105310787D01*
X100960303Y-105296769D01*
X100947457Y-105277542D01*
X100914214Y-105255332D01*
X100914215Y-105255332D01*
X100914213Y-105255331D01*
X100914211Y-105255330D01*
X100914208Y-105255329D01*
X100878924Y-105248311D01*
X100879235Y-105246745D01*
X100863415Y-105240355D01*
X100839166Y-105235081D01*
X100826052Y-105225264D01*
X100821642Y-105223483D01*
X100810918Y-105213936D01*
X100733694Y-105136712D01*
X100700211Y-105075393D01*
X100705195Y-105005701D01*
X100747066Y-104949767D01*
X100752491Y-104945929D01*
X100754552Y-104944552D01*
X100798867Y-104878231D01*
X100798867Y-104878229D01*
X100798868Y-104878229D01*
X100810499Y-104819752D01*
X100810500Y-104819750D01*
X100810500Y-104580249D01*
X100810499Y-104580247D01*
X100798868Y-104521770D01*
X100798867Y-104521769D01*
X100754552Y-104455447D01*
X100688230Y-104411132D01*
X100688229Y-104411131D01*
X100629752Y-104399500D01*
X100629748Y-104399500D01*
X100574000Y-104399500D01*
X100506961Y-104379815D01*
X100479432Y-104355705D01*
X100450000Y-104321002D01*
X100450000Y-104300000D01*
X100332721Y-104182721D01*
X100329432Y-104178843D01*
X100317236Y-104151372D01*
X100302834Y-104124996D01*
X100301973Y-104116990D01*
X100301082Y-104114983D01*
X100301480Y-104112406D01*
X100300000Y-104098638D01*
X100300000Y-104000000D01*
X100252408Y-103762040D01*
X100250000Y-103737722D01*
X100250000Y-103643845D01*
X100269685Y-103576806D01*
X100270898Y-103574955D01*
X100286753Y-103551226D01*
X100303542Y-103526099D01*
X100304377Y-103521904D01*
X100306096Y-103513256D01*
X100313000Y-103478552D01*
X100313000Y-103478549D01*
X100313407Y-103476503D01*
X100313310Y-103475895D01*
X100313712Y-103474973D01*
X100314189Y-103472577D01*
X100314712Y-103472681D01*
X100326628Y-103445385D01*
X100339082Y-103414540D01*
X100340773Y-103412980D01*
X100341263Y-103411860D01*
X100367539Y-103388306D01*
X100455974Y-103329350D01*
X100522671Y-103308543D01*
X100551648Y-103311477D01*
G37*
%TD.AperFunction*%
%TA.AperFunction,Conductor*%
G36*
X101126525Y-98163515D02*
G01*
X101422297Y-98314225D01*
X101473092Y-98362200D01*
X101490000Y-98424709D01*
X101490000Y-98861656D01*
X101470315Y-98928695D01*
X101453681Y-98949337D01*
X101264387Y-99138630D01*
X101203064Y-99172115D01*
X101172144Y-99173912D01*
X101172144Y-99174500D01*
X100383946Y-99174500D01*
X100336404Y-99183956D01*
X100336398Y-99183959D01*
X100282484Y-99219983D01*
X100282483Y-99219984D01*
X100246459Y-99273898D01*
X100246456Y-99273904D01*
X100237000Y-99321445D01*
X100237000Y-99321448D01*
X100237000Y-99478552D01*
X100237000Y-99478554D01*
X100236999Y-99478554D01*
X100246456Y-99526095D01*
X100246459Y-99526101D01*
X100283214Y-99581109D01*
X100288753Y-99598800D01*
X100298874Y-99614339D01*
X100298978Y-99631454D01*
X100304092Y-99647786D01*
X100299186Y-99665665D01*
X100299300Y-99684208D01*
X100286570Y-99711654D01*
X100285607Y-99715166D01*
X100284834Y-99716401D01*
X100282619Y-99719893D01*
X100282484Y-99719984D01*
X100246458Y-99773901D01*
X100245581Y-99778305D01*
X100237105Y-99791674D01*
X100230289Y-99797653D01*
X100220064Y-99812953D01*
X100059836Y-99973182D01*
X99998516Y-100006666D01*
X99972157Y-100009500D01*
X98547843Y-100009500D01*
X98480804Y-99989815D01*
X98460162Y-99973181D01*
X98300917Y-99813936D01*
X98300916Y-99813935D01*
X98300914Y-99813934D01*
X98278407Y-99804611D01*
X98256129Y-99786657D01*
X98232072Y-99771165D01*
X98225580Y-99762038D01*
X98225434Y-99761921D01*
X98225410Y-99761940D01*
X98225332Y-99761838D01*
X98224005Y-99760769D01*
X98223617Y-99759603D01*
X98220458Y-99755487D01*
X98164512Y-99699541D01*
X98164504Y-99699535D01*
X98095995Y-99659982D01*
X98095990Y-99659979D01*
X98070513Y-99653152D01*
X98019562Y-99639500D01*
X97940438Y-99639500D01*
X97909515Y-99647786D01*
X97864009Y-99659979D01*
X97864004Y-99659982D01*
X97795495Y-99699535D01*
X97795487Y-99699541D01*
X97739541Y-99755487D01*
X97739535Y-99755495D01*
X97699982Y-99824004D01*
X97699979Y-99824009D01*
X97679499Y-99900442D01*
X97679336Y-99901683D01*
X97678906Y-99902652D01*
X97677397Y-99908288D01*
X97676518Y-99908052D01*
X97651071Y-99965580D01*
X97592747Y-100004052D01*
X97556397Y-100009500D01*
X97550438Y-100009500D01*
X97512224Y-100019739D01*
X97474009Y-100029979D01*
X97474004Y-100029982D01*
X97405495Y-100069535D01*
X97405487Y-100069541D01*
X97349541Y-100125487D01*
X97349535Y-100125495D01*
X97309982Y-100194004D01*
X97309979Y-100194009D01*
X97289500Y-100270439D01*
X97289500Y-100309246D01*
X97269815Y-100376285D01*
X97250179Y-100399641D01*
X97113910Y-100672180D01*
X97066322Y-100723338D01*
X97028071Y-100736589D01*
X97028288Y-100737397D01*
X97020439Y-100739500D01*
X97020438Y-100739500D01*
X96989956Y-100747667D01*
X96944009Y-100759979D01*
X96944004Y-100759982D01*
X96875495Y-100799535D01*
X96875487Y-100799541D01*
X96819541Y-100855487D01*
X96819535Y-100855495D01*
X96779982Y-100924004D01*
X96779979Y-100924009D01*
X96774422Y-100944748D01*
X96759500Y-101000438D01*
X96759500Y-101079562D01*
X96771593Y-101124692D01*
X96779979Y-101155990D01*
X96779982Y-101155995D01*
X96819535Y-101224504D01*
X96819539Y-101224509D01*
X96819540Y-101224511D01*
X96875489Y-101280460D01*
X96875491Y-101280461D01*
X96875495Y-101280464D01*
X96932162Y-101313180D01*
X96944011Y-101320021D01*
X97020438Y-101340500D01*
X97020440Y-101340500D01*
X97099560Y-101340500D01*
X97099562Y-101340500D01*
X97175989Y-101320021D01*
X97244511Y-101280460D01*
X97244516Y-101280454D01*
X97250810Y-101275626D01*
X97315978Y-101250430D01*
X97326299Y-101250000D01*
X97586594Y-101250000D01*
X97653633Y-101269685D01*
X97699388Y-101322489D01*
X97708353Y-101382310D01*
X97709500Y-101382310D01*
X97709500Y-101389964D01*
X97709533Y-101390185D01*
X97709500Y-101390435D01*
X97709500Y-101390438D01*
X97709500Y-101469562D01*
X97714859Y-101489560D01*
X97729979Y-101545990D01*
X97729982Y-101545995D01*
X97769535Y-101614504D01*
X97769539Y-101614509D01*
X97769540Y-101614511D01*
X97825489Y-101670460D01*
X97825491Y-101670461D01*
X97825495Y-101670464D01*
X97893001Y-101709438D01*
X97894011Y-101710021D01*
X97970438Y-101730500D01*
X97970440Y-101730500D01*
X98049560Y-101730500D01*
X98049562Y-101730500D01*
X98125989Y-101710021D01*
X98125992Y-101710018D01*
X98125996Y-101710018D01*
X98127398Y-101709438D01*
X98130365Y-101708847D01*
X98133839Y-101707917D01*
X98133900Y-101708144D01*
X98174847Y-101700000D01*
X98631266Y-101700000D01*
X98663359Y-101704225D01*
X98670005Y-101706005D01*
X98705438Y-101715500D01*
X98705440Y-101715500D01*
X98784560Y-101715500D01*
X98784562Y-101715500D01*
X98860989Y-101695021D01*
X98929511Y-101655460D01*
X98985460Y-101599511D01*
X99025021Y-101530989D01*
X99045500Y-101454562D01*
X99045500Y-101454553D01*
X99046323Y-101448310D01*
X99074593Y-101384414D01*
X99132919Y-101345946D01*
X99169262Y-101340500D01*
X100062157Y-101340500D01*
X100091597Y-101349144D01*
X100121584Y-101355668D01*
X100126599Y-101359422D01*
X100129196Y-101360185D01*
X100149838Y-101376819D01*
X100206783Y-101433764D01*
X100240268Y-101495087D01*
X100240719Y-101497252D01*
X100246456Y-101526095D01*
X100246457Y-101526097D01*
X100246457Y-101526098D01*
X100246458Y-101526099D01*
X100282147Y-101579511D01*
X100283215Y-101581110D01*
X100304092Y-101647788D01*
X100285607Y-101715168D01*
X100283215Y-101718890D01*
X100246457Y-101773902D01*
X100246456Y-101773904D01*
X100237000Y-101821445D01*
X100237000Y-101821448D01*
X100237000Y-101978552D01*
X100237000Y-101978554D01*
X100236999Y-101978554D01*
X100246456Y-102026095D01*
X100246457Y-102026097D01*
X100246457Y-102026098D01*
X100246458Y-102026099D01*
X100282483Y-102080015D01*
X100283215Y-102081110D01*
X100304092Y-102147788D01*
X100285607Y-102215168D01*
X100283215Y-102218890D01*
X100246457Y-102273902D01*
X100246456Y-102273904D01*
X100237000Y-102321445D01*
X100237000Y-102425500D01*
X100217315Y-102492539D01*
X100164511Y-102538294D01*
X100113000Y-102549500D01*
X100008946Y-102549500D01*
X99961404Y-102558956D01*
X99961402Y-102558957D01*
X99906390Y-102595715D01*
X99839712Y-102616592D01*
X99772332Y-102598107D01*
X99768610Y-102595715D01*
X99767516Y-102594984D01*
X99713599Y-102558958D01*
X99713598Y-102558957D01*
X99713597Y-102558957D01*
X99713595Y-102558956D01*
X99666054Y-102549500D01*
X99666052Y-102549500D01*
X99508948Y-102549500D01*
X99508946Y-102549500D01*
X99461404Y-102558956D01*
X99461402Y-102558957D01*
X99406390Y-102595715D01*
X99339712Y-102616592D01*
X99285511Y-102605187D01*
X99269344Y-102597721D01*
X99267516Y-102594984D01*
X99213599Y-102558958D01*
X99166052Y-102549500D01*
X99164928Y-102549500D01*
X99150715Y-102542936D01*
X99135043Y-102529240D01*
X99116601Y-102519593D01*
X99115023Y-102518042D01*
X98830917Y-102233936D01*
X98830916Y-102233935D01*
X98771925Y-102209500D01*
X98635833Y-102209500D01*
X98568794Y-102189815D01*
X98548152Y-102173181D01*
X98504512Y-102129541D01*
X98504504Y-102129535D01*
X98435995Y-102089982D01*
X98435990Y-102089979D01*
X98398807Y-102080016D01*
X98359562Y-102069500D01*
X98280438Y-102069500D01*
X98242224Y-102079739D01*
X98204009Y-102089979D01*
X98204004Y-102089982D01*
X98135495Y-102129535D01*
X98135487Y-102129541D01*
X98079541Y-102185487D01*
X98079535Y-102185495D01*
X98039982Y-102254004D01*
X98039979Y-102254009D01*
X98029335Y-102293734D01*
X98019500Y-102330438D01*
X98019500Y-102409562D01*
X98021080Y-102415460D01*
X98021631Y-102417514D01*
X98021062Y-102441439D01*
X98024890Y-102465063D01*
X98020246Y-102475730D01*
X98019970Y-102487364D01*
X98006554Y-102507185D01*
X97997004Y-102529127D01*
X97983486Y-102541269D01*
X97980808Y-102545227D01*
X97970748Y-102552712D01*
X97906391Y-102595714D01*
X97839713Y-102616592D01*
X97772333Y-102598107D01*
X97768610Y-102595715D01*
X97767516Y-102594984D01*
X97713599Y-102558958D01*
X97713598Y-102558957D01*
X97713597Y-102558957D01*
X97713595Y-102558956D01*
X97666054Y-102549500D01*
X97666052Y-102549500D01*
X97508948Y-102549500D01*
X97508946Y-102549500D01*
X97461404Y-102558956D01*
X97461402Y-102558957D01*
X97406390Y-102595715D01*
X97339712Y-102616592D01*
X97272332Y-102598107D01*
X97268610Y-102595715D01*
X97267516Y-102594984D01*
X97213599Y-102558958D01*
X97213598Y-102558957D01*
X97213597Y-102558957D01*
X97213595Y-102558956D01*
X97166054Y-102549500D01*
X97166052Y-102549500D01*
X97008948Y-102549500D01*
X97008946Y-102549500D01*
X96961404Y-102558956D01*
X96961402Y-102558957D01*
X96923632Y-102584194D01*
X96856954Y-102605070D01*
X96789574Y-102586584D01*
X96785885Y-102584214D01*
X96763144Y-102569029D01*
X96763139Y-102569027D01*
X96696462Y-102548171D01*
X96696457Y-102548169D01*
X96666820Y-102543376D01*
X96666814Y-102543375D01*
X95686662Y-102526179D01*
X95686657Y-102526179D01*
X95686652Y-102526179D01*
X95678051Y-102526379D01*
X95657857Y-102527676D01*
X95620501Y-102537127D01*
X95620500Y-102537128D01*
X95557037Y-102566345D01*
X95557035Y-102566346D01*
X95512230Y-102605409D01*
X95512228Y-102605411D01*
X95474637Y-102664295D01*
X95474629Y-102664311D01*
X95462247Y-102691643D01*
X95462241Y-102691658D01*
X95222891Y-103516090D01*
X95222889Y-103516096D01*
X95220079Y-103528547D01*
X95220077Y-103528557D01*
X95215267Y-103558108D01*
X95215261Y-103558155D01*
X95213978Y-103570856D01*
X95213978Y-103570860D01*
X95205184Y-103789865D01*
X95205122Y-103791940D01*
X95205066Y-103794656D01*
X95205067Y-103794657D01*
X95204985Y-103798714D01*
X95204985Y-103798761D01*
X95204190Y-103838089D01*
X95205000Y-103846298D01*
X95205000Y-103916163D01*
X95204371Y-103922383D01*
X95204325Y-103931562D01*
X95206788Y-103954758D01*
X95207514Y-103958061D01*
X95207652Y-103960865D01*
X95208894Y-103968871D01*
X95209605Y-103976649D01*
X95209607Y-103976656D01*
X95212991Y-103986581D01*
X95216370Y-103996488D01*
X95215987Y-103996573D01*
X95218503Y-104008007D01*
X95223958Y-104018740D01*
X95226795Y-104027059D01*
X95226798Y-104027067D01*
X95228007Y-104030613D01*
X95226963Y-104030968D01*
X95227214Y-104036802D01*
X95236028Y-104090819D01*
X95208212Y-104154913D01*
X95150160Y-104193794D01*
X95112978Y-104199500D01*
X94710509Y-104199500D01*
X94660807Y-104189103D01*
X94174798Y-103976473D01*
X94121270Y-103931568D01*
X94100516Y-103864852D01*
X94100500Y-103862870D01*
X94100500Y-102916749D01*
X94120185Y-102849710D01*
X94156639Y-102812966D01*
X95274659Y-102081953D01*
X95341538Y-102061742D01*
X95408731Y-102080898D01*
X95411374Y-102082615D01*
X95461401Y-102116042D01*
X95461403Y-102116042D01*
X95461404Y-102116043D01*
X95508945Y-102125500D01*
X95508948Y-102125500D01*
X96291054Y-102125500D01*
X96338595Y-102116043D01*
X96338595Y-102116042D01*
X96338599Y-102116042D01*
X96392516Y-102080016D01*
X96428542Y-102026099D01*
X96431458Y-102011439D01*
X96438000Y-101978554D01*
X96438000Y-101821445D01*
X96428543Y-101773904D01*
X96428542Y-101773902D01*
X96428542Y-101773901D01*
X96392516Y-101719984D01*
X96392514Y-101719983D01*
X96391785Y-101718891D01*
X96370907Y-101652213D01*
X96389391Y-101584833D01*
X96391785Y-101581109D01*
X96392514Y-101580016D01*
X96392516Y-101580016D01*
X96428542Y-101526099D01*
X96428543Y-101526095D01*
X96438000Y-101478554D01*
X96438000Y-101321445D01*
X96428543Y-101273904D01*
X96428542Y-101273903D01*
X96428542Y-101273901D01*
X96392516Y-101219984D01*
X96392514Y-101219983D01*
X96391785Y-101218891D01*
X96370907Y-101152213D01*
X96389391Y-101084833D01*
X96391785Y-101081109D01*
X96392514Y-101080016D01*
X96392516Y-101080016D01*
X96428542Y-101026099D01*
X96429055Y-101023519D01*
X96438000Y-100978554D01*
X96438000Y-100821445D01*
X96428543Y-100773904D01*
X96428542Y-100773902D01*
X96428542Y-100773901D01*
X96393071Y-100720814D01*
X96372193Y-100654137D01*
X96390678Y-100586757D01*
X96442657Y-100540067D01*
X96511627Y-100528891D01*
X96551361Y-100542247D01*
X96551501Y-100541910D01*
X96556428Y-100543950D01*
X96558173Y-100544537D01*
X96559011Y-100545021D01*
X96635438Y-100565500D01*
X96635440Y-100565500D01*
X96714560Y-100565500D01*
X96714562Y-100565500D01*
X96790989Y-100545021D01*
X96859511Y-100505460D01*
X96915460Y-100449511D01*
X96955021Y-100380989D01*
X96975500Y-100304562D01*
X96975500Y-100225438D01*
X96955021Y-100149011D01*
X96941441Y-100125489D01*
X96915464Y-100080495D01*
X96915458Y-100080487D01*
X96859512Y-100024541D01*
X96859504Y-100024535D01*
X96790995Y-99984982D01*
X96790990Y-99984979D01*
X96765513Y-99978152D01*
X96714562Y-99964500D01*
X96652843Y-99964500D01*
X96623402Y-99955855D01*
X96593416Y-99949332D01*
X96588400Y-99945577D01*
X96585804Y-99944815D01*
X96565162Y-99928181D01*
X96458470Y-99821489D01*
X96431590Y-99781260D01*
X96428542Y-99773901D01*
X96420482Y-99761838D01*
X96392516Y-99719984D01*
X96392514Y-99719983D01*
X96391785Y-99718891D01*
X96370907Y-99652213D01*
X96389391Y-99584833D01*
X96391785Y-99581109D01*
X96392514Y-99580016D01*
X96392516Y-99580016D01*
X96428542Y-99526099D01*
X96428543Y-99526095D01*
X96438000Y-99478554D01*
X96438000Y-99321445D01*
X96428543Y-99273904D01*
X96428542Y-99273903D01*
X96428542Y-99273901D01*
X96392516Y-99219984D01*
X96392514Y-99219983D01*
X96391785Y-99218891D01*
X96370907Y-99152213D01*
X96389391Y-99084833D01*
X96391785Y-99081109D01*
X96392514Y-99080016D01*
X96392516Y-99080016D01*
X96428542Y-99026099D01*
X96428543Y-99026095D01*
X96438000Y-98978554D01*
X96438000Y-98874500D01*
X96457685Y-98807461D01*
X96510489Y-98761706D01*
X96562000Y-98750500D01*
X96666054Y-98750500D01*
X96713595Y-98741043D01*
X96713595Y-98741042D01*
X96713599Y-98741042D01*
X96767516Y-98705016D01*
X96767516Y-98705014D01*
X96768609Y-98704285D01*
X96835287Y-98683407D01*
X96902667Y-98701891D01*
X96906391Y-98704285D01*
X96907483Y-98705014D01*
X96907484Y-98705016D01*
X96961401Y-98741042D01*
X96961403Y-98741042D01*
X96961404Y-98741043D01*
X97008945Y-98750500D01*
X97008948Y-98750500D01*
X97166054Y-98750500D01*
X97213595Y-98741043D01*
X97213595Y-98741042D01*
X97213599Y-98741042D01*
X97267516Y-98705016D01*
X97267516Y-98705014D01*
X97268609Y-98704285D01*
X97280075Y-98700694D01*
X97289387Y-98693102D01*
X97312800Y-98690447D01*
X97335287Y-98683407D01*
X97348606Y-98686388D01*
X97358812Y-98685232D01*
X97378302Y-98693037D01*
X97392364Y-98696185D01*
X97406117Y-98702970D01*
X97407484Y-98705016D01*
X97461401Y-98741042D01*
X97498066Y-98748335D01*
X97512718Y-98755564D01*
X97526889Y-98768605D01*
X97543956Y-98777533D01*
X97545535Y-98779085D01*
X98050024Y-99283574D01*
X98106426Y-99339976D01*
X98180118Y-99370500D01*
X98354167Y-99370500D01*
X98371328Y-99375539D01*
X98389214Y-99375556D01*
X98404155Y-99385178D01*
X98421206Y-99390185D01*
X98441848Y-99406819D01*
X98445489Y-99410460D01*
X98445491Y-99410461D01*
X98445495Y-99410464D01*
X98490917Y-99436688D01*
X98514011Y-99450021D01*
X98590438Y-99470500D01*
X98590440Y-99470500D01*
X98669560Y-99470500D01*
X98669562Y-99470500D01*
X98745989Y-99450021D01*
X98814511Y-99410460D01*
X98870460Y-99354511D01*
X98910021Y-99285989D01*
X98930500Y-99209562D01*
X98930500Y-99130438D01*
X98910021Y-99054011D01*
X98892701Y-99024011D01*
X98870464Y-98985495D01*
X98870458Y-98985487D01*
X98829660Y-98944689D01*
X98796175Y-98883366D01*
X98801159Y-98813674D01*
X98843031Y-98757741D01*
X98908495Y-98733324D01*
X98949172Y-98739917D01*
X98949423Y-98738660D01*
X99008945Y-98750500D01*
X99008948Y-98750500D01*
X99166054Y-98750500D01*
X99213595Y-98741043D01*
X99213595Y-98741042D01*
X99213599Y-98741042D01*
X99267516Y-98705016D01*
X99267516Y-98705014D01*
X99268609Y-98704285D01*
X99335287Y-98683407D01*
X99402667Y-98701891D01*
X99406391Y-98704285D01*
X99407483Y-98705014D01*
X99407484Y-98705016D01*
X99461401Y-98741042D01*
X99461403Y-98741042D01*
X99461404Y-98741043D01*
X99508945Y-98750500D01*
X99508948Y-98750500D01*
X99666054Y-98750500D01*
X99713595Y-98741043D01*
X99713595Y-98741042D01*
X99713599Y-98741042D01*
X99750361Y-98716478D01*
X99817036Y-98695600D01*
X99884417Y-98714084D01*
X99903176Y-98728297D01*
X99903555Y-98728646D01*
X99952597Y-98762241D01*
X99952602Y-98762243D01*
X100019019Y-98783885D01*
X100019023Y-98783887D01*
X100019027Y-98783887D01*
X100019028Y-98783888D01*
X100048612Y-98789033D01*
X100086855Y-98790157D01*
X100212490Y-98793854D01*
X100212506Y-98793854D01*
X100212509Y-98793853D01*
X100212513Y-98793854D01*
X100225986Y-98793389D01*
X100257460Y-98790280D01*
X100257463Y-98790278D01*
X100257725Y-98790253D01*
X100258788Y-98790084D01*
X100262586Y-98789234D01*
X100262587Y-98789233D01*
X100262592Y-98789233D01*
X100286121Y-98781240D01*
X100298832Y-98777231D01*
X100299891Y-98776635D01*
X100299856Y-98776574D01*
X100305088Y-98774797D01*
X100330594Y-98759444D01*
X100333705Y-98757633D01*
X100359681Y-98743039D01*
X100383501Y-98724752D01*
X100907965Y-98187389D01*
X100935347Y-98172003D01*
X100961770Y-98155023D01*
X100966872Y-98154289D01*
X100968877Y-98153163D01*
X100996705Y-98150000D01*
X101070229Y-98150000D01*
X101126525Y-98163515D01*
G37*
%TD.AperFunction*%
%TA.AperFunction,Conductor*%
G36*
X94305703Y-95003130D02*
G01*
X94312181Y-95009162D01*
X94443935Y-95140916D01*
X94489084Y-95186065D01*
X94535663Y-95205358D01*
X94578002Y-95234402D01*
X95382445Y-96079068D01*
X95414425Y-96141189D01*
X95407743Y-96210739D01*
X95400041Y-96226582D01*
X95389980Y-96244008D01*
X95389979Y-96244009D01*
X95388682Y-96248851D01*
X95369500Y-96320438D01*
X95369500Y-96399562D01*
X95382948Y-96449750D01*
X95389979Y-96475990D01*
X95389982Y-96475995D01*
X95429535Y-96544504D01*
X95429539Y-96544509D01*
X95429540Y-96544511D01*
X95485489Y-96600460D01*
X95517498Y-96618940D01*
X95565715Y-96669506D01*
X95579500Y-96726328D01*
X95579500Y-97159894D01*
X95579501Y-97159904D01*
X95579824Y-97161525D01*
X95579746Y-97162388D01*
X95580098Y-97165956D01*
X95579420Y-97166022D01*
X95573586Y-97231115D01*
X95530715Y-97286286D01*
X95464822Y-97309521D01*
X95396827Y-97293443D01*
X95396203Y-97293085D01*
X95373889Y-97280202D01*
X95373890Y-97280202D01*
X95364494Y-97277684D01*
X95259309Y-97249500D01*
X95140691Y-97249500D01*
X95026114Y-97280201D01*
X95026112Y-97280201D01*
X95026112Y-97280202D01*
X94923387Y-97339511D01*
X94923384Y-97339513D01*
X94839513Y-97423384D01*
X94839511Y-97423387D01*
X94780201Y-97526114D01*
X94749500Y-97640691D01*
X94749500Y-97759309D01*
X94773105Y-97847402D01*
X94780203Y-97873893D01*
X94781927Y-97878055D01*
X94789391Y-97947524D01*
X94758113Y-98010002D01*
X94698021Y-98045650D01*
X94667363Y-98049500D01*
X94659309Y-98049500D01*
X94540691Y-98049500D01*
X94426114Y-98080201D01*
X94426112Y-98080201D01*
X94426112Y-98080202D01*
X94323387Y-98139511D01*
X94323384Y-98139513D01*
X94312181Y-98150717D01*
X94250858Y-98184202D01*
X94181166Y-98179218D01*
X94125233Y-98137346D01*
X94100816Y-98071882D01*
X94100500Y-98063036D01*
X94100500Y-95096843D01*
X94120185Y-95029804D01*
X94172989Y-94984049D01*
X94242147Y-94974105D01*
X94305703Y-95003130D01*
G37*
%TD.AperFunction*%
%TA.AperFunction,Conductor*%
G36*
X95294171Y-92355322D02*
G01*
X95350105Y-92397193D01*
X95374522Y-92462658D01*
X95359670Y-92530931D01*
X95353943Y-92540391D01*
X95347681Y-92549762D01*
X95347676Y-92549771D01*
X95276027Y-92722748D01*
X95276025Y-92722756D01*
X95239500Y-92906379D01*
X95239500Y-93093620D01*
X95276025Y-93277243D01*
X95276027Y-93277251D01*
X95347676Y-93450228D01*
X95347681Y-93450237D01*
X95451697Y-93605907D01*
X95451700Y-93605911D01*
X95584088Y-93738299D01*
X95584092Y-93738302D01*
X95739762Y-93842318D01*
X95739768Y-93842321D01*
X95739769Y-93842322D01*
X95912749Y-93913973D01*
X95939690Y-93919332D01*
X95967823Y-93934047D01*
X95996703Y-93947236D01*
X95998558Y-93950123D01*
X96001601Y-93951715D01*
X96017314Y-93979307D01*
X96034477Y-94006014D01*
X96035137Y-94010605D01*
X96036176Y-94012430D01*
X96039500Y-94040949D01*
X96039500Y-94094223D01*
X96019815Y-94161262D01*
X96011657Y-94171385D01*
X95985330Y-94210788D01*
X95985329Y-94210791D01*
X95979500Y-94240098D01*
X95979500Y-94240100D01*
X95979500Y-94240101D01*
X95979500Y-94459562D01*
X95979501Y-94676000D01*
X95959817Y-94743039D01*
X95907013Y-94788794D01*
X95855501Y-94800000D01*
X94634500Y-94800000D01*
X94567461Y-94780315D01*
X94521706Y-94727511D01*
X94510500Y-94676000D01*
X94510500Y-93087843D01*
X94530185Y-93020804D01*
X94546819Y-93000162D01*
X94853824Y-92693157D01*
X95163159Y-92383821D01*
X95224480Y-92350338D01*
X95294171Y-92355322D01*
G37*
%TD.AperFunction*%
%TA.AperFunction,Conductor*%
G36*
X95260196Y-91620185D02*
G01*
X95305951Y-91672989D01*
X95315895Y-91742147D01*
X95286870Y-91805703D01*
X95280838Y-91812181D01*
X94312181Y-92780838D01*
X94250858Y-92814323D01*
X94181166Y-92809339D01*
X94125233Y-92767467D01*
X94100816Y-92702003D01*
X94100500Y-92693157D01*
X94100500Y-91724500D01*
X94120185Y-91657461D01*
X94172989Y-91611706D01*
X94224500Y-91600500D01*
X95193157Y-91600500D01*
X95260196Y-91620185D01*
G37*
%TD.AperFunction*%
%TD*%
%TA.AperFunction,Conductor*%
%TO.N,+3.3V*%
G36*
X98745569Y-102649685D02*
G01*
X98791324Y-102702489D01*
X98802504Y-102751444D01*
X98820000Y-103600000D01*
X99920457Y-104461227D01*
X99961119Y-104518046D01*
X99967971Y-104562875D01*
X99960000Y-104810000D01*
X99960001Y-104810004D01*
X99977676Y-104850447D01*
X99983054Y-104862752D01*
X99986133Y-104878231D01*
X99996788Y-104894178D01*
X100001195Y-104904260D01*
X100001196Y-104904262D01*
X100549999Y-106159999D01*
X100550000Y-106160000D01*
X100773724Y-106160000D01*
X100840763Y-106179685D01*
X100886518Y-106232489D01*
X100897704Y-106286254D01*
X100882105Y-107144193D01*
X100880676Y-107148749D01*
X100881591Y-107153435D01*
X100870324Y-107181770D01*
X100861204Y-107210864D01*
X100857540Y-107213923D01*
X100855776Y-107218361D01*
X100830978Y-107236107D01*
X100807577Y-107255651D01*
X100801767Y-107257011D01*
X100798957Y-107259023D01*
X100764317Y-107265784D01*
X100526587Y-107277670D01*
X100458648Y-107261358D01*
X100443428Y-107251047D01*
X100173490Y-107037346D01*
X100162776Y-107027805D01*
X100124512Y-106989541D01*
X100124511Y-106989540D01*
X100090222Y-106969743D01*
X100075258Y-106959579D01*
X99807033Y-106747233D01*
X99766689Y-106690188D01*
X99760000Y-106650012D01*
X99760000Y-106100002D01*
X99760000Y-106100000D01*
X99420000Y-105040000D01*
X99398203Y-105036571D01*
X99286111Y-105018938D01*
X99286111Y-105018937D01*
X99267714Y-105016043D01*
X99263839Y-105013454D01*
X99193688Y-104999500D01*
X99162538Y-104999500D01*
X99152963Y-104997994D01*
X99152962Y-104997994D01*
X98529994Y-104899999D01*
X98004768Y-104824966D01*
X97941186Y-104795998D01*
X97903358Y-104737254D01*
X97898320Y-104704180D01*
X97890665Y-104221911D01*
X97909283Y-104154568D01*
X97914899Y-104146282D01*
X98370000Y-103530000D01*
X98378629Y-102753352D01*
X98381940Y-102742521D01*
X98380866Y-102731239D01*
X98391973Y-102709706D01*
X98399056Y-102686540D01*
X98408531Y-102677607D01*
X98412897Y-102669144D01*
X98440645Y-102647333D01*
X98441917Y-102646599D01*
X98503892Y-102630000D01*
X98678530Y-102630000D01*
X98745569Y-102649685D01*
G37*
%TD.AperFunction*%
%TD*%
%TA.AperFunction,Conductor*%
%TO.N,3.3V_AUX*%
G36*
X103557539Y-105852513D02*
G01*
X103666498Y-105888832D01*
X103694827Y-105913402D01*
X103700000Y-105935316D01*
X103700000Y-106082259D01*
X103688643Y-106113628D01*
X103457529Y-106390964D01*
X103439188Y-106404633D01*
X103109245Y-106546038D01*
X103089943Y-106550000D01*
X101649000Y-106550000D01*
X101614352Y-106535648D01*
X101600000Y-106501000D01*
X101600000Y-106199000D01*
X101614352Y-106164352D01*
X101649000Y-106150000D01*
X102200000Y-106150000D01*
X102536238Y-105861796D01*
X102568127Y-105850000D01*
X103542050Y-105850000D01*
X103557539Y-105852513D01*
G37*
%TD.AperFunction*%
%TD*%
M02*
