%TF.GenerationSoftware,KiCad,Pcbnew,9.0.6-rc1*%
%TF.CreationDate,2025-12-13T16:16:27+01:00*%
%TF.ProjectId,hardware_V8,68617264-7761-4726-955f-56382e6b6963,rev?*%
%TF.SameCoordinates,Original*%
%TF.FileFunction,Copper,L4,Inr*%
%TF.FilePolarity,Positive*%
%FSLAX46Y46*%
G04 Gerber Fmt 4.6, Leading zero omitted, Abs format (unit mm)*
G04 Created by KiCad (PCBNEW 9.0.6-rc1) date 2025-12-13 16:16:27*
%MOMM*%
%LPD*%
G01*
G04 APERTURE LIST*
%TA.AperFunction,ComponentPad*%
%ADD10C,1.150000*%
%TD*%
%TA.AperFunction,ComponentPad*%
%ADD11C,1.100000*%
%TD*%
%TA.AperFunction,ComponentPad*%
%ADD12R,1.700000X1.700000*%
%TD*%
%TA.AperFunction,ComponentPad*%
%ADD13C,1.700000*%
%TD*%
%TA.AperFunction,ViaPad*%
%ADD14C,0.400000*%
%TD*%
%TA.AperFunction,Conductor*%
%ADD15C,0.200000*%
%TD*%
%TA.AperFunction,Conductor*%
%ADD16C,0.120000*%
%TD*%
G04 APERTURE END LIST*
D10*
%TO.N,Net-(IC4-RF_IN)*%
%TO.C,U3*%
X110200000Y-100600000D03*
%TD*%
D11*
%TO.N,GND*%
%TO.C,TP1*%
X113450000Y-105800000D03*
%TD*%
%TO.N,BAT+*%
%TO.C,TP2*%
X113450000Y-107450000D03*
%TD*%
D12*
%TO.N,GND*%
%TO.C,U4*%
X103810000Y-93000000D03*
D13*
%TO.N,3.3V_AUX*%
X101270000Y-93000000D03*
%TO.N,/OLED_SCL*%
X98730000Y-93000000D03*
%TO.N,/OLED_SDA*%
X96190000Y-93000000D03*
%TO.N,GND*%
X104500000Y-107000000D03*
X95500000Y-107000000D03*
%TD*%
D14*
%TO.N,GND*%
X109650000Y-101900000D03*
X110750000Y-102000000D03*
X109516343Y-101329803D03*
X109207180Y-100719615D03*
X109362568Y-100053458D03*
X109909801Y-99643034D03*
X110592820Y-99680385D03*
X111092035Y-100148034D03*
X111173857Y-100827163D03*
X110800000Y-101400000D03*
X110200000Y-96750000D03*
X111700000Y-97400000D03*
X111550000Y-98550000D03*
X110000000Y-98050000D03*
X108750000Y-97600000D03*
X108700000Y-96250000D03*
X107400000Y-97000000D03*
X107600000Y-98900000D03*
X107750000Y-100900000D03*
X108300000Y-102500000D03*
X109950000Y-103950000D03*
X108600000Y-104050000D03*
X107450000Y-103350000D03*
X106450000Y-100000000D03*
X106450000Y-95900000D03*
X112000000Y-96000000D03*
X112400000Y-104000000D03*
X112000000Y-103550000D03*
X111350000Y-103450000D03*
X110650000Y-103400000D03*
X110100000Y-103050000D03*
X109750000Y-102550000D03*
X112400000Y-101850000D03*
X111850000Y-102350000D03*
X111200000Y-102350000D03*
X112500000Y-105200000D03*
X114000000Y-106500000D03*
X94350000Y-108100000D03*
X111700000Y-104850000D03*
X111950000Y-105750000D03*
X108200000Y-105900000D03*
X101750000Y-94950000D03*
X94400000Y-103700000D03*
X94350000Y-103050000D03*
X95000000Y-102600000D03*
X101207500Y-104700000D03*
X95150000Y-95450000D03*
X94400000Y-95450000D03*
X99780000Y-108120000D03*
X105110000Y-100150000D03*
X105090000Y-99140000D03*
X106570000Y-103210000D03*
X105720000Y-99860000D03*
X105650000Y-98060000D03*
X105660000Y-97200000D03*
X103827500Y-95237500D03*
X105890000Y-93670000D03*
X105070000Y-92610000D03*
X107320000Y-94040000D03*
X106820000Y-94980000D03*
X108775000Y-94250000D03*
X111225000Y-94250000D03*
X112100000Y-94580000D03*
X113820000Y-94450000D03*
X113110000Y-91980000D03*
X111850000Y-92300000D03*
X108150000Y-92300000D03*
X106350000Y-91920000D03*
X94460000Y-91920000D03*
X97060000Y-92200000D03*
X99940000Y-93440000D03*
X99970000Y-92450000D03*
X102500000Y-93420000D03*
X102510000Y-92540000D03*
X98100000Y-106515000D03*
X98560000Y-105950000D03*
X97800000Y-105970000D03*
X103120000Y-107010000D03*
X100620000Y-103630000D03*
X94360000Y-96920000D03*
X95030000Y-96250000D03*
X94880000Y-93900000D03*
X94880000Y-93120000D03*
%TO.N,Net-(IC5-~{CHRG})*%
X94450000Y-106100000D03*
%TO.N,/GPS_TX*%
X105170000Y-93710000D03*
%TO.N,/GPS_RX*%
X106140000Y-94930000D03*
%TO.N,Net-(IC4-RXD)*%
X105630000Y-96070000D03*
%TO.N,Net-(IC4-TXD)*%
X104830000Y-96050000D03*
%TO.N,+3.3V*%
X106710000Y-107400000D03*
%TO.N,/GPIO_SUP*%
X95670000Y-96360000D03*
%TO.N,GND*%
X97390000Y-97140000D03*
%TO.N,vusb*%
X99890000Y-97480000D03*
%TO.N,+3.3V*%
X106700000Y-92900000D03*
%TO.N,Net-(J3-CC1)*%
X96700000Y-104492500D03*
%TO.N,GND*%
X98100000Y-105307500D03*
X99000000Y-105380000D03*
%TO.N,/B_PW*%
X98320000Y-102370000D03*
%TO.N,GND*%
X113327500Y-104037500D03*
X113327500Y-101837500D03*
%TO.N,3.3V_AUX*%
X103440000Y-106040000D03*
%TO.N,+3.3V*%
X102450000Y-104570000D03*
%TO.N,3.3V_AUX*%
X102160000Y-103590000D03*
X101480000Y-103600000D03*
%TO.N,Net-(U2-EN)*%
X105340000Y-106060000D03*
X102270000Y-107090000D03*
%TO.N,/SWCLK*%
X94600000Y-98500000D03*
%TO.N,/SWDIO*%
X95200000Y-97700000D03*
%TO.N,/SPI_CLK*%
X106090000Y-102450000D03*
%TO.N,/SPI_MOSI*%
X106100000Y-101450000D03*
%TO.N,/OLED_SCL*%
X97120000Y-95730000D03*
%TO.N,/OLED_SDA*%
X97050000Y-96310000D03*
%TO.N,3.3V_AUX*%
X96600000Y-95090000D03*
%TO.N,BAT+*%
X103450000Y-108160000D03*
X103000000Y-107680000D03*
%TO.N,+3.3V*%
X100310000Y-106780000D03*
X100030000Y-106050000D03*
X101750000Y-107420000D03*
%TO.N,/GPS_EXTINT*%
X105710000Y-99140000D03*
%TO.N,GND*%
X97117500Y-101870000D03*
X97117500Y-99430000D03*
X102340000Y-99892500D03*
X100960000Y-98510000D03*
%TO.N,+3.3V*%
X100620000Y-97870000D03*
X100680000Y-97290000D03*
%TO.N,/USB_DETECT*%
X100680000Y-96320000D03*
%TO.N,/GPS_EXTINT*%
X98730000Y-96370000D03*
%TO.N,vusb*%
X98010000Y-101430000D03*
%TO.N,Net-(J3-CC2)*%
X97810000Y-95150000D03*
%TO.N,Net-(U1-PH3)*%
X107950000Y-94420000D03*
%TO.N,+3.3V*%
X113825000Y-92900000D03*
%TO.N,/B1*%
X106700000Y-93715000D03*
%TO.N,/B_PW*%
X107220000Y-104720000D03*
%TO.N,GND*%
X108150000Y-107550000D03*
X111100000Y-107350000D03*
%TO.N,/ADC_BAT*%
X109660000Y-107210000D03*
%TO.N,/D+*%
X98630000Y-99170000D03*
%TO.N,/USB_DETECT*%
X96675000Y-100265000D03*
%TO.N,/ADC_BAT*%
X97980000Y-99940000D03*
%TO.N,/SPI_MOSI*%
X97590000Y-100310000D03*
%TO.N,/SPI_MISO*%
X97060000Y-101040000D03*
%TO.N,/SPI_CLK*%
X98745000Y-101415000D03*
%TO.N,/D-*%
X98090000Y-97620000D03*
%TO.N,/SPI_MISO*%
X101830000Y-96450000D03*
%TO.N,/SPI_CS*%
X101740000Y-97390000D03*
%TO.N,/AUX_EN*%
X101815000Y-102175000D03*
X101015000Y-108000000D03*
%TO.N,Net-(IC5-~{CHRG})*%
X99940000Y-107230000D03*
%TO.N,vusb*%
X96600000Y-107790000D03*
%TO.N,Net-(LEDBLUE1-A)*%
X97820000Y-108120000D03*
%TO.N,Net-(LEDGREEN1-A)*%
X99100000Y-108130000D03*
%TO.N,+3.3V*%
X95710000Y-103410000D03*
X96140000Y-102930000D03*
%TO.N,Net-(U1-PH3)*%
X95070000Y-101320000D03*
%TO.N,Net-(LEDBLUE1-A)*%
X94400000Y-102007500D03*
%TO.N,Net-(LEDGREEN1-A)*%
X94400000Y-100207500D03*
%TO.N,/GPIO_SUP*%
X95150000Y-99550000D03*
%TO.N,/B1*%
X95170000Y-98970000D03*
%TO.N,3.3V_AUX*%
X102720000Y-106040000D03*
%TD*%
D15*
%TO.N,+3.3V*%
X107270000Y-92720000D02*
X107090000Y-92900000D01*
X107090000Y-92900000D02*
X106700000Y-92900000D01*
X113090000Y-92720000D02*
X107270000Y-92720000D01*
X113270000Y-92900000D02*
X113090000Y-92720000D01*
X113725000Y-92900000D02*
X113270000Y-92900000D01*
X113775000Y-92950000D02*
X113725000Y-92900000D01*
%TO.N,vusb*%
X96850000Y-101450000D02*
X95020000Y-103280000D01*
X95020000Y-103280000D02*
X95020000Y-104670000D01*
X95020000Y-104670000D02*
X96600000Y-106250000D01*
X97700000Y-101450000D02*
X96850000Y-101450000D01*
X96600000Y-106250000D02*
X96600000Y-107790000D01*
X97720000Y-101430000D02*
X97700000Y-101450000D01*
X98010000Y-101430000D02*
X97720000Y-101430000D01*
%TO.N,+3.3V*%
X106710000Y-106610000D02*
X106710000Y-107400000D01*
X102450000Y-104570000D02*
X104670000Y-104570000D01*
X104670000Y-104570000D02*
X106710000Y-106610000D01*
%TO.N,vusb*%
X98010000Y-101030000D02*
X98010000Y-101430000D01*
X99890000Y-99150000D02*
X98010000Y-101030000D01*
X99890000Y-97480000D02*
X99890000Y-99150000D01*
%TO.N,+3.3V*%
X98310000Y-96860000D02*
X100250000Y-96860000D01*
X98180000Y-96730000D02*
X98310000Y-96860000D01*
X100250000Y-96860000D02*
X100680000Y-97290000D01*
X96530000Y-96730000D02*
X98180000Y-96730000D01*
X96110000Y-94950000D02*
X96110000Y-96310000D01*
X96110000Y-96310000D02*
X96530000Y-96730000D01*
X97880000Y-91920000D02*
X97460000Y-92340000D01*
X105040000Y-91920000D02*
X97880000Y-91920000D01*
X97460000Y-93600000D02*
X96110000Y-94950000D01*
X97460000Y-92340000D02*
X97460000Y-93600000D01*
X106020000Y-92900000D02*
X105040000Y-91920000D01*
X106700000Y-92900000D02*
X106020000Y-92900000D01*
D16*
%TO.N,Net-(IC5-~{CHRG})*%
X99890000Y-107180000D02*
X99940000Y-107230000D01*
X98010000Y-107180000D02*
X99890000Y-107180000D01*
X97030000Y-108160000D02*
X98010000Y-107180000D01*
X94970000Y-108160000D02*
X97030000Y-108160000D01*
X94450000Y-107640000D02*
X94970000Y-108160000D01*
X94450000Y-106100000D02*
X94450000Y-107640000D01*
D15*
%TO.N,+3.3V*%
X100680000Y-97810000D02*
X100620000Y-97870000D01*
X95710000Y-103410000D02*
X95710000Y-103360000D01*
%TO.N,3.3V_AUX*%
X101490000Y-103590000D02*
X101480000Y-103600000D01*
X102720000Y-106040000D02*
X102660000Y-106040000D01*
%TD*%
%TA.AperFunction,Conductor*%
%TO.N,3.3V_AUX*%
G36*
X102043039Y-92919685D02*
G01*
X102088794Y-92972489D01*
X102100000Y-93024000D01*
X102100000Y-93600001D01*
X102889528Y-94516872D01*
X103500778Y-95226710D01*
X103526589Y-95275526D01*
X103527000Y-95277059D01*
X103527000Y-95277062D01*
X103542394Y-95334511D01*
X103547480Y-95353491D01*
X103547482Y-95353495D01*
X103587035Y-95422004D01*
X103587041Y-95422012D01*
X103612775Y-95447746D01*
X103646260Y-95509069D01*
X103649091Y-95536254D01*
X103600347Y-102847846D01*
X103580216Y-102914752D01*
X103562480Y-102936225D01*
X102150000Y-104299999D01*
X102150000Y-104300000D01*
X102150000Y-104528572D01*
X102149500Y-104530438D01*
X102149500Y-104609562D01*
X102150000Y-104611427D01*
X102150000Y-104850000D01*
X102700000Y-105650000D01*
X103448638Y-105650000D01*
X103478078Y-105658644D01*
X103508065Y-105665168D01*
X103513080Y-105668922D01*
X103515677Y-105669685D01*
X103536319Y-105686319D01*
X103663681Y-105813681D01*
X103697166Y-105875004D01*
X103700000Y-105901362D01*
X103700000Y-106098638D01*
X103680315Y-106165677D01*
X103663681Y-106186319D01*
X103486319Y-106363681D01*
X103424996Y-106397166D01*
X103398638Y-106400000D01*
X102073318Y-106400000D01*
X102006279Y-106380315D01*
X101964667Y-106335758D01*
X101465349Y-105427907D01*
X101450000Y-105368149D01*
X101450000Y-104914202D01*
X101466613Y-104852202D01*
X101487521Y-104815989D01*
X101508000Y-104739562D01*
X101508000Y-104660438D01*
X101487521Y-104584011D01*
X101466613Y-104547797D01*
X101450000Y-104485797D01*
X101450000Y-104199999D01*
X101111257Y-103691886D01*
X101090449Y-103625187D01*
X101109004Y-103557826D01*
X101134204Y-103528553D01*
X102700000Y-102200000D01*
X102700000Y-98100000D01*
X102700000Y-98099999D01*
X102367548Y-97577576D01*
X102348326Y-97517357D01*
X102250000Y-95600000D01*
X102050489Y-95081272D01*
X102044797Y-95011640D01*
X102046437Y-95004723D01*
X102050500Y-94989562D01*
X102050500Y-94910438D01*
X102030021Y-94834011D01*
X102030017Y-94834004D01*
X101990464Y-94765495D01*
X101990458Y-94765487D01*
X101934512Y-94709541D01*
X101934504Y-94709535D01*
X101865995Y-94669982D01*
X101865990Y-94669979D01*
X101840513Y-94663152D01*
X101789562Y-94649500D01*
X101710438Y-94649500D01*
X101672224Y-94659739D01*
X101634009Y-94669979D01*
X101634004Y-94669982D01*
X101565495Y-94709535D01*
X101565487Y-94709541D01*
X101509541Y-94765487D01*
X101509535Y-94765495D01*
X101469982Y-94834004D01*
X101469978Y-94834013D01*
X101463525Y-94858096D01*
X101427159Y-94917755D01*
X101364312Y-94948283D01*
X101343751Y-94950000D01*
X98086333Y-94950000D01*
X98019294Y-94930315D01*
X97998652Y-94913681D01*
X97994512Y-94909541D01*
X97994504Y-94909535D01*
X97925995Y-94869982D01*
X97925990Y-94869979D01*
X97900513Y-94863152D01*
X97849562Y-94849500D01*
X97770438Y-94849500D01*
X97738358Y-94858096D01*
X97694009Y-94869979D01*
X97694004Y-94869982D01*
X97625495Y-94909535D01*
X97625487Y-94909541D01*
X97621348Y-94913681D01*
X97560025Y-94947166D01*
X97533667Y-94950000D01*
X97199999Y-94950000D01*
X96786319Y-95363681D01*
X96759391Y-95378384D01*
X96733573Y-95394977D01*
X96727372Y-95395868D01*
X96724996Y-95397166D01*
X96698638Y-95400000D01*
X96601362Y-95400000D01*
X96534323Y-95380315D01*
X96513681Y-95363681D01*
X96386319Y-95236319D01*
X96352834Y-95174996D01*
X96350000Y-95148638D01*
X96350000Y-95104693D01*
X96369685Y-95037654D01*
X96390391Y-95013121D01*
X96462628Y-94947166D01*
X97464484Y-94032428D01*
X97527264Y-94001762D01*
X97548093Y-94000000D01*
X100199999Y-94000000D01*
X100200000Y-94000000D01*
X100400000Y-93600000D01*
X100400000Y-93024000D01*
X100419685Y-92956961D01*
X100472489Y-92911206D01*
X100524000Y-92900000D01*
X101976000Y-92900000D01*
X102043039Y-92919685D01*
G37*
%TD.AperFunction*%
%TD*%
%TA.AperFunction,Conductor*%
%TO.N,BAT+*%
G36*
X114192539Y-106869685D02*
G01*
X114238294Y-106922489D01*
X114249500Y-106974000D01*
X114249500Y-108275500D01*
X114229815Y-108342539D01*
X114177011Y-108388294D01*
X114125500Y-108399500D01*
X103370332Y-108399500D01*
X103303293Y-108379815D01*
X103292147Y-108371745D01*
X102695805Y-107887216D01*
X102694650Y-107885539D01*
X102692797Y-107884693D01*
X102674930Y-107856892D01*
X102656189Y-107829666D01*
X102655776Y-107827087D01*
X102655023Y-107825915D01*
X102650000Y-107790980D01*
X102650000Y-107551362D01*
X102669685Y-107484323D01*
X102686319Y-107463681D01*
X102763681Y-107386319D01*
X102825004Y-107352834D01*
X102851362Y-107350000D01*
X103151517Y-107350000D01*
X103218556Y-107369685D01*
X103235624Y-107382884D01*
X103418142Y-107551362D01*
X103850000Y-107950000D01*
X104403870Y-107950000D01*
X104406384Y-107950500D01*
X104593616Y-107950500D01*
X104596130Y-107950000D01*
X108399998Y-107950000D01*
X108400000Y-107950000D01*
X108778947Y-107807895D01*
X108822486Y-107800000D01*
X112000000Y-107800000D01*
X112863318Y-106888720D01*
X112923714Y-106853590D01*
X112953336Y-106850000D01*
X114125500Y-106850000D01*
X114192539Y-106869685D01*
G37*
%TD.AperFunction*%
%TD*%
%TA.AperFunction,Conductor*%
%TO.N,+3.3V*%
G36*
X98261000Y-96602000D02*
G01*
X98800000Y-96700000D01*
X101142968Y-96700000D01*
X101210007Y-96719685D01*
X101237116Y-96743302D01*
X101470148Y-97015173D01*
X101480864Y-97038975D01*
X101494977Y-97060935D01*
X101496959Y-97074725D01*
X101498831Y-97078882D01*
X101500000Y-97095870D01*
X101500000Y-97171466D01*
X101483388Y-97233465D01*
X101459979Y-97274010D01*
X101459979Y-97274011D01*
X101439500Y-97350438D01*
X101439500Y-97429562D01*
X101442431Y-97440500D01*
X101459979Y-97505990D01*
X101459980Y-97505991D01*
X101483387Y-97546533D01*
X101500000Y-97608533D01*
X101500000Y-102001517D01*
X101480315Y-102068556D01*
X101467116Y-102085624D01*
X100300000Y-103349999D01*
X100300000Y-103350000D01*
X100300000Y-105350000D01*
X101950000Y-107200000D01*
X102013682Y-107263682D01*
X102028388Y-107290613D01*
X102044977Y-107316427D01*
X102045868Y-107322626D01*
X102047166Y-107325003D01*
X102050000Y-107351362D01*
X102050000Y-107498638D01*
X102030315Y-107565677D01*
X102013681Y-107586319D01*
X101936319Y-107663681D01*
X101874996Y-107697166D01*
X101848638Y-107700000D01*
X101066486Y-107700000D01*
X101058857Y-107699500D01*
X101054562Y-107699500D01*
X100975438Y-107699500D01*
X100971143Y-107699500D01*
X100963514Y-107700000D01*
X100851362Y-107700000D01*
X100784323Y-107680315D01*
X100763681Y-107663681D01*
X100239774Y-107139774D01*
X100220067Y-107114092D01*
X100220021Y-107114013D01*
X100220021Y-107114011D01*
X100180460Y-107045489D01*
X100124511Y-106989540D01*
X100124510Y-106989539D01*
X100124507Y-106989537D01*
X100055904Y-106949929D01*
X100030223Y-106930223D01*
X99936319Y-106836319D01*
X99902834Y-106774996D01*
X99900000Y-106748638D01*
X99900000Y-106600000D01*
X99899999Y-106599999D01*
X99441048Y-106186943D01*
X99404387Y-106127465D01*
X99400000Y-106094775D01*
X99400000Y-105250000D01*
X99399999Y-105249999D01*
X97650000Y-103550000D01*
X96150000Y-103550000D01*
X96149999Y-103550000D01*
X95926548Y-103773452D01*
X95910007Y-103782484D01*
X95896456Y-103795587D01*
X95866766Y-103806095D01*
X95865225Y-103806937D01*
X95863185Y-103807363D01*
X95708146Y-103838370D01*
X95638548Y-103832215D01*
X95604447Y-103812039D01*
X95415015Y-103654179D01*
X95376118Y-103596142D01*
X95374772Y-103526285D01*
X95376763Y-103519710D01*
X95433333Y-103350000D01*
X95440744Y-103327766D01*
X95470697Y-103279302D01*
X96213681Y-102536319D01*
X96275004Y-102502834D01*
X96301362Y-102500000D01*
X97791922Y-102500000D01*
X97858961Y-102519685D01*
X97887180Y-102544616D01*
X98100000Y-102800000D01*
X98450000Y-102800000D01*
X100200000Y-101050000D01*
X100200000Y-98470438D01*
X100659500Y-98470438D01*
X100659500Y-98549562D01*
X100667999Y-98581281D01*
X100679979Y-98625990D01*
X100679982Y-98625995D01*
X100719535Y-98694504D01*
X100719539Y-98694509D01*
X100719540Y-98694511D01*
X100775489Y-98750460D01*
X100775491Y-98750461D01*
X100775495Y-98750464D01*
X100836161Y-98785489D01*
X100844011Y-98790021D01*
X100920438Y-98810500D01*
X100920440Y-98810500D01*
X100999560Y-98810500D01*
X100999562Y-98810500D01*
X101075989Y-98790021D01*
X101144511Y-98750460D01*
X101200460Y-98694511D01*
X101240021Y-98625989D01*
X101260500Y-98549562D01*
X101260500Y-98470438D01*
X101240021Y-98394011D01*
X101240017Y-98394004D01*
X101200464Y-98325495D01*
X101200458Y-98325487D01*
X101144512Y-98269541D01*
X101144504Y-98269535D01*
X101075995Y-98229982D01*
X101075990Y-98229979D01*
X101050513Y-98223152D01*
X100999562Y-98209500D01*
X100920438Y-98209500D01*
X100882224Y-98219739D01*
X100844009Y-98229979D01*
X100844004Y-98229982D01*
X100775495Y-98269535D01*
X100775487Y-98269541D01*
X100719541Y-98325487D01*
X100719535Y-98325495D01*
X100679982Y-98394004D01*
X100679979Y-98394009D01*
X100666326Y-98444962D01*
X100659500Y-98470438D01*
X100200000Y-98470438D01*
X100200000Y-97300000D01*
X99950000Y-97100000D01*
X98126859Y-97100000D01*
X98075547Y-97088885D01*
X97622688Y-96883040D01*
X97609112Y-96871319D01*
X97592797Y-96863868D01*
X97583216Y-96848960D01*
X97569803Y-96837379D01*
X97564719Y-96820177D01*
X97555023Y-96805090D01*
X97550061Y-96770583D01*
X97550000Y-96770375D01*
X97550000Y-96724000D01*
X97569685Y-96656961D01*
X97622489Y-96611206D01*
X97674000Y-96600000D01*
X98238818Y-96600000D01*
X98261000Y-96602000D01*
G37*
%TD.AperFunction*%
%TD*%
M02*
