M48
; DRILL file {KiCad 9.0.6-rc1} date 2025-12-13T16:16:25+0100
; FORMAT={-:-/ absolute / metric / decimal}
; #@! TF.CreationDate,2025-12-13T16:16:25+01:00
; #@! TF.GenerationSoftware,Kicad,Pcbnew,9.0.6-rc1
; #@! TF.FileFunction,Plated,1,6,PTH
FMAT,2
METRIC
; #@! TA.AperFunction,Plated,PTH,ViaDrill
T1C0.300
; #@! TA.AperFunction,Plated,PTH,ComponentDrill
T2C0.800
; #@! TA.AperFunction,Plated,PTH,ComponentDrill
T3C1.000
%
G90
G05
T1
X94.35Y-103.05
X94.35Y-108.1
X94.36Y-96.92
X94.4Y-95.45
X94.4Y-100.207
X94.4Y-102.007
X94.4Y-103.7
X94.45Y-106.1
X94.46Y-91.92
X94.6Y-98.5
X94.88Y-93.12
X94.88Y-93.9
X95.0Y-102.6
X95.03Y-96.25
X95.07Y-101.32
X95.15Y-95.45
X95.15Y-99.55
X95.17Y-98.97
X95.2Y-97.7
X95.67Y-96.36
X95.71Y-103.41
X96.14Y-102.93
X96.6Y-95.09
X96.6Y-107.79
X96.675Y-100.265
X96.7Y-104.492
X97.05Y-96.31
X97.06Y-92.2
X97.06Y-101.04
X97.117Y-99.43
X97.117Y-101.87
X97.12Y-95.73
X97.39Y-97.14
X97.59Y-100.31
X97.8Y-105.97
X97.81Y-95.15
X97.82Y-108.12
X97.98Y-99.94
X98.01Y-101.43
X98.09Y-97.62
X98.1Y-105.307
X98.1Y-106.515
X98.32Y-102.37
X98.56Y-105.95
X98.63Y-99.17
X98.73Y-96.37
X98.745Y-101.415
X99.0Y-105.38
X99.1Y-108.13
X99.78Y-108.12
X99.89Y-97.48
X99.94Y-93.44
X99.94Y-107.23
X99.97Y-92.45
X100.03Y-106.05
X100.31Y-106.78
X100.62Y-97.87
X100.62Y-103.63
X100.68Y-96.32
X100.68Y-97.29
X100.96Y-98.51
X101.015Y-108.0
X101.207Y-104.7
X101.48Y-103.6
X101.74Y-97.39
X101.75Y-94.95
X101.75Y-107.42
X101.815Y-102.175
X101.83Y-96.45
X102.16Y-103.59
X102.27Y-107.09
X102.34Y-99.892
X102.45Y-104.57
X102.5Y-93.42
X102.51Y-92.54
X102.72Y-106.04
X103.0Y-107.68
X103.12Y-107.01
X103.44Y-106.04
X103.45Y-108.16
X103.828Y-95.237
X104.83Y-96.05
X105.07Y-92.61
X105.09Y-99.14
X105.11Y-100.15
X105.17Y-93.71
X105.34Y-106.06
X105.63Y-96.07
X105.65Y-98.06
X105.66Y-97.2
X105.71Y-99.14
X105.72Y-99.86
X105.89Y-93.67
X106.09Y-102.45
X106.1Y-101.45
X106.14Y-94.93
X106.35Y-91.92
X106.45Y-95.9
X106.45Y-100.0
X106.57Y-103.21
X106.7Y-92.9
X106.7Y-93.715
X106.71Y-107.4
X106.82Y-94.98
X107.22Y-104.72
X107.32Y-94.04
X107.4Y-97.0
X107.45Y-103.35
X107.6Y-98.9
X107.75Y-100.9
X107.95Y-94.42
X108.15Y-92.3
X108.15Y-107.55
X108.2Y-105.9
X108.3Y-102.5
X108.6Y-104.05
X108.7Y-96.25
X108.75Y-97.6
X108.775Y-94.25
X109.207Y-100.72
X109.363Y-100.053
X109.516Y-101.33
X109.65Y-101.9
X109.66Y-107.21
X109.75Y-102.55
X109.91Y-99.643
X109.95Y-103.95
X110.0Y-98.05
X110.1Y-103.05
X110.2Y-96.75
X110.593Y-99.68
X110.65Y-103.4
X110.75Y-102.0
X110.8Y-101.4
X111.092Y-100.148
X111.1Y-107.35
X111.174Y-100.827
X111.2Y-102.35
X111.225Y-94.25
X111.35Y-103.45
X111.55Y-98.55
X111.7Y-97.4
X111.7Y-104.85
X111.85Y-92.3
X111.85Y-102.35
X111.95Y-105.75
X112.0Y-96.0
X112.0Y-103.55
X112.1Y-94.58
X112.4Y-101.85
X112.4Y-104.0
X112.5Y-105.2
X113.11Y-91.98
X113.328Y-101.837
X113.328Y-104.037
X113.82Y-94.45
X113.825Y-92.9
X114.0Y-106.5
T2
X113.45Y-105.8
X113.45Y-107.45
T3
X95.5Y-107.0
X96.19Y-93.0
X98.73Y-93.0
X101.27Y-93.0
X103.81Y-93.0
X104.5Y-107.0
X110.2Y-100.6
M30
