%TF.GenerationSoftware,KiCad,Pcbnew,9.0.6-rc1*%
%TF.CreationDate,2025-12-13T16:16:27+01:00*%
%TF.ProjectId,hardware_V8,68617264-7761-4726-955f-56382e6b6963,rev?*%
%TF.SameCoordinates,Original*%
%TF.FileFunction,Copper,L5,Inr*%
%TF.FilePolarity,Positive*%
%FSLAX46Y46*%
G04 Gerber Fmt 4.6, Leading zero omitted, Abs format (unit mm)*
G04 Created by KiCad (PCBNEW 9.0.6-rc1) date 2025-12-13 16:16:27*
%MOMM*%
%LPD*%
G01*
G04 APERTURE LIST*
%TA.AperFunction,ComponentPad*%
%ADD10C,1.150000*%
%TD*%
%TA.AperFunction,ComponentPad*%
%ADD11C,1.100000*%
%TD*%
%TA.AperFunction,ComponentPad*%
%ADD12R,1.700000X1.700000*%
%TD*%
%TA.AperFunction,ComponentPad*%
%ADD13C,1.700000*%
%TD*%
%TA.AperFunction,ViaPad*%
%ADD14C,0.400000*%
%TD*%
G04 APERTURE END LIST*
D10*
%TO.N,Net-(IC4-RF_IN)*%
%TO.C,U3*%
X110200000Y-100600000D03*
%TD*%
D11*
%TO.N,GND*%
%TO.C,TP1*%
X113450000Y-105800000D03*
%TD*%
%TO.N,BAT+*%
%TO.C,TP2*%
X113450000Y-107450000D03*
%TD*%
D12*
%TO.N,GND*%
%TO.C,U4*%
X103810000Y-93000000D03*
D13*
%TO.N,3.3V_AUX*%
X101270000Y-93000000D03*
%TO.N,/OLED_SCL*%
X98730000Y-93000000D03*
%TO.N,/OLED_SDA*%
X96190000Y-93000000D03*
%TO.N,GND*%
X104500000Y-107000000D03*
X95500000Y-107000000D03*
%TD*%
D14*
%TO.N,GND*%
X109650000Y-101900000D03*
X110750000Y-102000000D03*
X109516343Y-101329803D03*
X109207180Y-100719615D03*
X109362568Y-100053458D03*
X109909801Y-99643034D03*
X110592820Y-99680385D03*
X111092035Y-100148034D03*
X111173857Y-100827163D03*
X110800000Y-101400000D03*
X110200000Y-96750000D03*
X111700000Y-97400000D03*
X111550000Y-98550000D03*
X110000000Y-98050000D03*
X108750000Y-97600000D03*
X108700000Y-96250000D03*
X107400000Y-97000000D03*
X107600000Y-98900000D03*
X107750000Y-100900000D03*
X108300000Y-102500000D03*
X109950000Y-103950000D03*
X108600000Y-104050000D03*
X107450000Y-103350000D03*
X106450000Y-100000000D03*
X106450000Y-95900000D03*
X112000000Y-96000000D03*
X112400000Y-104000000D03*
X112000000Y-103550000D03*
X111350000Y-103450000D03*
X110650000Y-103400000D03*
X110100000Y-103050000D03*
X109750000Y-102550000D03*
X112400000Y-101850000D03*
X111850000Y-102350000D03*
X111200000Y-102350000D03*
X112500000Y-105200000D03*
X114000000Y-106500000D03*
X94350000Y-108100000D03*
X111700000Y-104850000D03*
X111950000Y-105750000D03*
X108200000Y-105900000D03*
X101750000Y-94950000D03*
X94400000Y-103700000D03*
X94350000Y-103050000D03*
X95000000Y-102600000D03*
X101207500Y-104700000D03*
X95150000Y-95450000D03*
X94400000Y-95450000D03*
X99780000Y-108120000D03*
X105110000Y-100150000D03*
X105090000Y-99140000D03*
X106570000Y-103210000D03*
X105720000Y-99860000D03*
X105650000Y-98060000D03*
X105660000Y-97200000D03*
X103827500Y-95237500D03*
X105890000Y-93670000D03*
X105070000Y-92610000D03*
X107320000Y-94040000D03*
X106820000Y-94980000D03*
X108775000Y-94250000D03*
X111225000Y-94250000D03*
X112100000Y-94580000D03*
X113820000Y-94450000D03*
X113110000Y-91980000D03*
X111850000Y-92300000D03*
X108150000Y-92300000D03*
X106350000Y-91920000D03*
X94460000Y-91920000D03*
X97060000Y-92200000D03*
X99940000Y-93440000D03*
X99970000Y-92450000D03*
X102500000Y-93420000D03*
X102510000Y-92540000D03*
X98100000Y-106515000D03*
X98560000Y-105950000D03*
X97800000Y-105970000D03*
X103120000Y-107010000D03*
X100620000Y-103630000D03*
X94360000Y-96920000D03*
X95030000Y-96250000D03*
X94880000Y-93900000D03*
X94880000Y-93120000D03*
%TO.N,Net-(IC5-~{CHRG})*%
X94450000Y-106100000D03*
%TO.N,/GPS_TX*%
X105170000Y-93710000D03*
%TO.N,/GPS_RX*%
X106140000Y-94930000D03*
%TO.N,Net-(IC4-RXD)*%
X105630000Y-96070000D03*
%TO.N,Net-(IC4-TXD)*%
X104830000Y-96050000D03*
%TO.N,+3.3V*%
X106710000Y-107400000D03*
%TO.N,/GPIO_SUP*%
X95670000Y-96360000D03*
%TO.N,GND*%
X97390000Y-97140000D03*
%TO.N,vusb*%
X99890000Y-97480000D03*
%TO.N,+3.3V*%
X106700000Y-92900000D03*
%TO.N,Net-(J3-CC1)*%
X96700000Y-104492500D03*
%TO.N,GND*%
X98100000Y-105307500D03*
X99000000Y-105380000D03*
%TO.N,/B_PW*%
X98320000Y-102370000D03*
%TO.N,GND*%
X113327500Y-104037500D03*
X113327500Y-101837500D03*
%TO.N,3.3V_AUX*%
X103440000Y-106040000D03*
%TO.N,+3.3V*%
X102450000Y-104570000D03*
%TO.N,3.3V_AUX*%
X102160000Y-103590000D03*
X101480000Y-103600000D03*
%TO.N,Net-(U2-EN)*%
X105340000Y-106060000D03*
X102270000Y-107090000D03*
%TO.N,/SWCLK*%
X94600000Y-98500000D03*
%TO.N,/SWDIO*%
X95200000Y-97700000D03*
%TO.N,/SPI_CLK*%
X106090000Y-102450000D03*
%TO.N,/SPI_MOSI*%
X106100000Y-101450000D03*
%TO.N,/OLED_SCL*%
X97120000Y-95730000D03*
%TO.N,/OLED_SDA*%
X97050000Y-96310000D03*
%TO.N,3.3V_AUX*%
X96600000Y-95090000D03*
%TO.N,BAT+*%
X103450000Y-108160000D03*
X103000000Y-107680000D03*
%TO.N,+3.3V*%
X100310000Y-106780000D03*
X100030000Y-106050000D03*
X101750000Y-107420000D03*
%TO.N,/GPS_EXTINT*%
X105710000Y-99140000D03*
%TO.N,GND*%
X97117500Y-101870000D03*
X97117500Y-99430000D03*
X102340000Y-99892500D03*
X100960000Y-98510000D03*
%TO.N,+3.3V*%
X100620000Y-97870000D03*
X100680000Y-97290000D03*
%TO.N,/USB_DETECT*%
X100680000Y-96320000D03*
%TO.N,/GPS_EXTINT*%
X98730000Y-96370000D03*
%TO.N,vusb*%
X98010000Y-101430000D03*
%TO.N,Net-(J3-CC2)*%
X97810000Y-95150000D03*
%TO.N,Net-(U1-PH3)*%
X107950000Y-94420000D03*
%TO.N,+3.3V*%
X113825000Y-92900000D03*
%TO.N,/B1*%
X106700000Y-93715000D03*
%TO.N,/B_PW*%
X107220000Y-104720000D03*
%TO.N,GND*%
X108150000Y-107550000D03*
X111100000Y-107350000D03*
%TO.N,/ADC_BAT*%
X109660000Y-107210000D03*
%TO.N,/D+*%
X98630000Y-99170000D03*
%TO.N,/USB_DETECT*%
X96675000Y-100265000D03*
%TO.N,/ADC_BAT*%
X97980000Y-99940000D03*
%TO.N,/SPI_MOSI*%
X97590000Y-100310000D03*
%TO.N,/SPI_MISO*%
X97060000Y-101040000D03*
%TO.N,/SPI_CLK*%
X98745000Y-101415000D03*
%TO.N,/D-*%
X98090000Y-97620000D03*
%TO.N,/SPI_MISO*%
X101830000Y-96450000D03*
%TO.N,/SPI_CS*%
X101740000Y-97390000D03*
%TO.N,/AUX_EN*%
X101815000Y-102175000D03*
X101015000Y-108000000D03*
%TO.N,Net-(IC5-~{CHRG})*%
X99940000Y-107230000D03*
%TO.N,vusb*%
X96600000Y-107790000D03*
%TO.N,Net-(LEDBLUE1-A)*%
X97820000Y-108120000D03*
%TO.N,Net-(LEDGREEN1-A)*%
X99100000Y-108130000D03*
%TO.N,+3.3V*%
X95710000Y-103410000D03*
X96140000Y-102930000D03*
%TO.N,Net-(U1-PH3)*%
X95070000Y-101320000D03*
%TO.N,Net-(LEDBLUE1-A)*%
X94400000Y-102007500D03*
%TO.N,Net-(LEDGREEN1-A)*%
X94400000Y-100207500D03*
%TO.N,/GPIO_SUP*%
X95150000Y-99550000D03*
%TO.N,/B1*%
X95170000Y-98970000D03*
%TO.N,3.3V_AUX*%
X102720000Y-106040000D03*
%TD*%
%TA.AperFunction,Conductor*%
%TO.N,GND*%
G36*
X114192539Y-91620185D02*
G01*
X114238294Y-91672989D01*
X114249500Y-91724500D01*
X114249500Y-92600167D01*
X114229815Y-92667206D01*
X114177011Y-92712961D01*
X114107853Y-92722905D01*
X114044297Y-92693880D01*
X114037819Y-92687848D01*
X114009512Y-92659541D01*
X114009504Y-92659535D01*
X113940995Y-92619982D01*
X113940990Y-92619979D01*
X113915513Y-92613152D01*
X113864562Y-92599500D01*
X113785438Y-92599500D01*
X113747224Y-92609739D01*
X113709009Y-92619979D01*
X113709004Y-92619982D01*
X113640495Y-92659535D01*
X113640487Y-92659541D01*
X113584541Y-92715487D01*
X113584535Y-92715495D01*
X113544982Y-92784004D01*
X113544979Y-92784009D01*
X113531326Y-92834962D01*
X113524500Y-92860438D01*
X113524500Y-92939562D01*
X113533862Y-92974500D01*
X113544979Y-93015990D01*
X113544982Y-93015995D01*
X113584535Y-93084504D01*
X113584539Y-93084509D01*
X113584540Y-93084511D01*
X113640489Y-93140460D01*
X113640491Y-93140461D01*
X113640495Y-93140464D01*
X113704355Y-93177333D01*
X113709011Y-93180021D01*
X113785438Y-93200500D01*
X113785440Y-93200500D01*
X113864560Y-93200500D01*
X113864562Y-93200500D01*
X113940989Y-93180021D01*
X114009511Y-93140460D01*
X114037819Y-93112152D01*
X114099142Y-93078667D01*
X114168834Y-93083651D01*
X114224767Y-93125523D01*
X114249184Y-93190987D01*
X114249500Y-93199833D01*
X114249500Y-106547182D01*
X114229815Y-106614221D01*
X114177011Y-106659976D01*
X114148352Y-106669058D01*
X113463995Y-106797376D01*
X113441143Y-106799500D01*
X113385929Y-106799500D01*
X113260261Y-106824497D01*
X113260255Y-106824499D01*
X113141875Y-106873533D01*
X113141866Y-106873538D01*
X113035331Y-106944723D01*
X113035327Y-106944726D01*
X112944726Y-107035327D01*
X112944723Y-107035331D01*
X112873538Y-107141866D01*
X112873533Y-107141875D01*
X112824499Y-107260255D01*
X112824497Y-107260261D01*
X112799500Y-107385928D01*
X112799500Y-107385931D01*
X112799500Y-107514069D01*
X112799500Y-107514071D01*
X112799499Y-107514071D01*
X112824497Y-107639738D01*
X112824500Y-107639748D01*
X112872561Y-107755779D01*
X112880030Y-107825248D01*
X112848754Y-107887727D01*
X112839655Y-107896550D01*
X112299921Y-108368819D01*
X112236506Y-108398151D01*
X112218266Y-108399500D01*
X103858526Y-108399500D01*
X103791487Y-108379815D01*
X103745732Y-108327011D01*
X103735788Y-108257853D01*
X103738752Y-108243405D01*
X103750499Y-108199564D01*
X103750500Y-108199561D01*
X103750500Y-108120439D01*
X103742478Y-108090500D01*
X103730021Y-108044011D01*
X103722200Y-108030464D01*
X103690464Y-107975495D01*
X103690458Y-107975487D01*
X103634512Y-107919541D01*
X103634504Y-107919535D01*
X103565995Y-107879982D01*
X103565990Y-107879979D01*
X103540513Y-107873152D01*
X103489562Y-107859500D01*
X103423472Y-107859500D01*
X103356433Y-107839815D01*
X103310678Y-107787011D01*
X103301787Y-107727690D01*
X103300500Y-107727690D01*
X103300500Y-107640439D01*
X103300312Y-107639738D01*
X103280021Y-107564011D01*
X103252299Y-107515995D01*
X103240464Y-107495495D01*
X103240458Y-107495487D01*
X103184512Y-107439541D01*
X103184504Y-107439535D01*
X103115995Y-107399982D01*
X103115990Y-107399979D01*
X103090513Y-107393152D01*
X103039562Y-107379500D01*
X102960438Y-107379500D01*
X102936438Y-107385931D01*
X102884009Y-107399979D01*
X102884004Y-107399982D01*
X102815495Y-107439535D01*
X102815487Y-107439541D01*
X102759541Y-107495487D01*
X102759535Y-107495495D01*
X102719982Y-107564004D01*
X102719979Y-107564009D01*
X102708865Y-107605487D01*
X102699500Y-107640438D01*
X102699500Y-107719562D01*
X102707774Y-107750439D01*
X102719979Y-107795990D01*
X102719982Y-107795995D01*
X102759535Y-107864504D01*
X102759539Y-107864509D01*
X102759540Y-107864511D01*
X102815489Y-107920460D01*
X102815491Y-107920461D01*
X102815495Y-107920464D01*
X102858851Y-107945495D01*
X102884011Y-107960021D01*
X102960438Y-107980500D01*
X102960440Y-107980500D01*
X103026528Y-107980500D01*
X103093567Y-108000185D01*
X103139322Y-108052989D01*
X103150057Y-108093703D01*
X103151681Y-108112294D01*
X103149500Y-108120438D01*
X103149500Y-108199562D01*
X103164058Y-108253892D01*
X103165003Y-108264703D01*
X103160169Y-108288743D01*
X103159586Y-108313255D01*
X103153404Y-108322389D01*
X103151230Y-108333202D01*
X103134168Y-108350810D01*
X103120425Y-108371118D01*
X103110285Y-108375460D01*
X103102611Y-108383381D01*
X103078737Y-108388970D01*
X103056197Y-108398623D01*
X103041474Y-108399500D01*
X101339833Y-108399500D01*
X101272794Y-108379815D01*
X101227039Y-108327011D01*
X101217095Y-108257853D01*
X101246120Y-108194297D01*
X101252152Y-108187819D01*
X101255460Y-108184511D01*
X101295021Y-108115989D01*
X101315500Y-108039562D01*
X101315500Y-107960438D01*
X101295021Y-107884011D01*
X101280870Y-107859500D01*
X101255464Y-107815495D01*
X101255458Y-107815487D01*
X101199512Y-107759541D01*
X101199504Y-107759535D01*
X101130995Y-107719982D01*
X101130990Y-107719979D01*
X101105513Y-107713152D01*
X101054562Y-107699500D01*
X100975438Y-107699500D01*
X100937224Y-107709739D01*
X100899009Y-107719979D01*
X100899004Y-107719982D01*
X100830495Y-107759535D01*
X100830487Y-107759541D01*
X100774541Y-107815487D01*
X100774535Y-107815495D01*
X100734982Y-107884004D01*
X100734979Y-107884009D01*
X100725213Y-107920458D01*
X100714500Y-107960438D01*
X100714500Y-108039562D01*
X100722662Y-108070021D01*
X100734979Y-108115990D01*
X100734982Y-108115995D01*
X100774535Y-108184504D01*
X100774541Y-108184512D01*
X100777848Y-108187819D01*
X100811333Y-108249142D01*
X100806349Y-108318834D01*
X100764477Y-108374767D01*
X100699013Y-108399184D01*
X100690167Y-108399500D01*
X99500488Y-108399500D01*
X99433449Y-108379815D01*
X99387694Y-108327011D01*
X99377750Y-108257853D01*
X99380713Y-108243406D01*
X99380713Y-108243405D01*
X99400500Y-108169562D01*
X99400500Y-108090438D01*
X99380021Y-108014011D01*
X99374246Y-108004009D01*
X99340464Y-107945495D01*
X99340458Y-107945487D01*
X99284512Y-107889541D01*
X99284504Y-107889535D01*
X99215995Y-107849982D01*
X99215990Y-107849979D01*
X99190513Y-107843152D01*
X99139562Y-107829500D01*
X99060438Y-107829500D01*
X99022224Y-107839739D01*
X98984009Y-107849979D01*
X98984004Y-107849982D01*
X98915495Y-107889535D01*
X98915487Y-107889541D01*
X98859541Y-107945487D01*
X98859535Y-107945495D01*
X98819982Y-108014004D01*
X98819979Y-108014009D01*
X98815572Y-108030458D01*
X98799500Y-108090438D01*
X98799500Y-108169562D01*
X98819287Y-108243405D01*
X98819287Y-108243406D01*
X98817624Y-108313256D01*
X98778462Y-108371119D01*
X98714233Y-108398623D01*
X98699512Y-108399500D01*
X98217808Y-108399500D01*
X98150769Y-108379815D01*
X98105014Y-108327011D01*
X98095070Y-108257853D01*
X98098033Y-108243406D01*
X98100019Y-108235990D01*
X98100021Y-108235989D01*
X98120500Y-108159562D01*
X98120500Y-108080438D01*
X98100021Y-108004011D01*
X98086447Y-107980500D01*
X98060464Y-107935495D01*
X98060458Y-107935487D01*
X98004512Y-107879541D01*
X98004504Y-107879535D01*
X97935995Y-107839982D01*
X97935990Y-107839979D01*
X97897113Y-107829562D01*
X97859562Y-107819500D01*
X97780438Y-107819500D01*
X97743118Y-107829500D01*
X97704009Y-107839979D01*
X97704004Y-107839982D01*
X97635495Y-107879535D01*
X97635487Y-107879541D01*
X97579541Y-107935487D01*
X97579535Y-107935495D01*
X97539982Y-108004004D01*
X97539979Y-108004009D01*
X97537301Y-108014004D01*
X97519500Y-108080438D01*
X97519500Y-108159562D01*
X97539979Y-108235989D01*
X97539980Y-108235990D01*
X97541967Y-108243406D01*
X97540304Y-108313256D01*
X97501142Y-108371118D01*
X97436914Y-108398623D01*
X97422192Y-108399500D01*
X94224500Y-108399500D01*
X94157461Y-108379815D01*
X94111706Y-108327011D01*
X94100500Y-108275500D01*
X94100500Y-107750438D01*
X96299500Y-107750438D01*
X96299500Y-107829562D01*
X96304971Y-107849979D01*
X96319979Y-107905990D01*
X96319982Y-107905995D01*
X96359535Y-107974504D01*
X96359539Y-107974509D01*
X96359540Y-107974511D01*
X96415489Y-108030460D01*
X96415491Y-108030461D01*
X96415495Y-108030464D01*
X96484004Y-108070017D01*
X96484011Y-108070021D01*
X96560438Y-108090500D01*
X96560440Y-108090500D01*
X96639560Y-108090500D01*
X96639562Y-108090500D01*
X96715989Y-108070021D01*
X96784511Y-108030460D01*
X96840460Y-107974511D01*
X96880021Y-107905989D01*
X96900500Y-107829562D01*
X96900500Y-107750438D01*
X96880021Y-107674011D01*
X96872200Y-107660464D01*
X96840464Y-107605495D01*
X96840458Y-107605487D01*
X96784512Y-107549541D01*
X96784504Y-107549535D01*
X96715995Y-107509982D01*
X96715990Y-107509979D01*
X96690513Y-107503152D01*
X96639562Y-107489500D01*
X96560438Y-107489500D01*
X96522224Y-107499739D01*
X96484009Y-107509979D01*
X96484004Y-107509982D01*
X96415495Y-107549535D01*
X96415487Y-107549541D01*
X96359541Y-107605487D01*
X96359535Y-107605495D01*
X96319982Y-107674004D01*
X96319979Y-107674009D01*
X96313009Y-107700021D01*
X96299500Y-107750438D01*
X94100500Y-107750438D01*
X94100500Y-107190438D01*
X99639500Y-107190438D01*
X99639500Y-107269562D01*
X99643372Y-107284011D01*
X99659979Y-107345990D01*
X99659982Y-107345995D01*
X99699535Y-107414504D01*
X99699539Y-107414509D01*
X99699540Y-107414511D01*
X99755489Y-107470460D01*
X99755491Y-107470461D01*
X99755495Y-107470464D01*
X99798851Y-107495495D01*
X99824011Y-107510021D01*
X99900438Y-107530500D01*
X99900440Y-107530500D01*
X99979560Y-107530500D01*
X99979562Y-107530500D01*
X100055989Y-107510021D01*
X100124511Y-107470460D01*
X100180460Y-107414511D01*
X100200132Y-107380438D01*
X101449500Y-107380438D01*
X101449500Y-107459562D01*
X101463009Y-107509979D01*
X101469979Y-107535990D01*
X101469982Y-107535995D01*
X101509535Y-107604504D01*
X101509539Y-107604509D01*
X101509540Y-107604511D01*
X101565489Y-107660460D01*
X101565491Y-107660461D01*
X101565495Y-107660464D01*
X101633109Y-107699500D01*
X101634011Y-107700021D01*
X101710438Y-107720500D01*
X101710440Y-107720500D01*
X101789560Y-107720500D01*
X101789562Y-107720500D01*
X101865989Y-107700021D01*
X101934511Y-107660460D01*
X101990460Y-107604511D01*
X102030021Y-107535989D01*
X102047726Y-107469912D01*
X102084090Y-107410255D01*
X102146937Y-107379726D01*
X102199592Y-107382234D01*
X102230438Y-107390500D01*
X102230439Y-107390500D01*
X102309560Y-107390500D01*
X102309562Y-107390500D01*
X102385989Y-107370021D01*
X102402587Y-107360438D01*
X106409500Y-107360438D01*
X106409500Y-107439562D01*
X106422881Y-107489500D01*
X106429979Y-107515990D01*
X106429982Y-107515995D01*
X106469535Y-107584504D01*
X106469539Y-107584509D01*
X106469540Y-107584511D01*
X106525489Y-107640460D01*
X106525491Y-107640461D01*
X106525495Y-107640464D01*
X106560130Y-107660460D01*
X106594011Y-107680021D01*
X106670438Y-107700500D01*
X106670440Y-107700500D01*
X106749560Y-107700500D01*
X106749562Y-107700500D01*
X106825989Y-107680021D01*
X106894511Y-107640460D01*
X106950460Y-107584511D01*
X106990021Y-107515989D01*
X107010500Y-107439562D01*
X107010500Y-107360438D01*
X106990021Y-107284011D01*
X106970131Y-107249560D01*
X106950464Y-107215495D01*
X106950458Y-107215487D01*
X106894512Y-107159541D01*
X106894504Y-107159535D01*
X106825995Y-107119982D01*
X106825990Y-107119979D01*
X106782627Y-107108360D01*
X106749562Y-107099500D01*
X106670438Y-107099500D01*
X106637373Y-107108360D01*
X106594009Y-107119979D01*
X106594004Y-107119982D01*
X106525495Y-107159535D01*
X106525487Y-107159541D01*
X106469541Y-107215487D01*
X106469535Y-107215495D01*
X106429982Y-107284004D01*
X106429979Y-107284009D01*
X106418729Y-107325995D01*
X106409500Y-107360438D01*
X102402587Y-107360438D01*
X102454511Y-107330460D01*
X102510460Y-107274511D01*
X102550021Y-107205989D01*
X102570500Y-107129562D01*
X102570500Y-107050438D01*
X102550021Y-106974011D01*
X102544532Y-106964504D01*
X102510464Y-106905495D01*
X102510458Y-106905487D01*
X102454512Y-106849541D01*
X102454504Y-106849535D01*
X102385995Y-106809982D01*
X102385990Y-106809979D01*
X102360513Y-106803152D01*
X102309562Y-106789500D01*
X102230438Y-106789500D01*
X102201045Y-106797376D01*
X102154009Y-106809979D01*
X102154004Y-106809982D01*
X102085495Y-106849535D01*
X102085487Y-106849541D01*
X102029541Y-106905487D01*
X102029535Y-106905495D01*
X101989982Y-106974004D01*
X101989978Y-106974013D01*
X101972273Y-107040086D01*
X101935907Y-107099745D01*
X101873060Y-107130274D01*
X101820407Y-107127765D01*
X101789562Y-107119500D01*
X101710438Y-107119500D01*
X101672894Y-107129560D01*
X101634009Y-107139979D01*
X101634004Y-107139982D01*
X101565495Y-107179535D01*
X101565487Y-107179541D01*
X101509541Y-107235487D01*
X101509535Y-107235495D01*
X101469982Y-107304004D01*
X101469979Y-107304009D01*
X101458729Y-107345995D01*
X101449500Y-107380438D01*
X100200132Y-107380438D01*
X100220021Y-107345989D01*
X100240500Y-107269562D01*
X100240500Y-107195132D01*
X100241652Y-107186740D01*
X100252632Y-107162283D01*
X100260185Y-107136564D01*
X100266725Y-107130896D01*
X100270271Y-107123000D01*
X100292733Y-107108360D01*
X100312989Y-107090809D01*
X100324922Y-107087382D01*
X100328806Y-107084851D01*
X100333848Y-107084818D01*
X100348317Y-107080664D01*
X100349557Y-107080500D01*
X100349562Y-107080500D01*
X100425989Y-107060021D01*
X100494511Y-107020460D01*
X100550460Y-106964511D01*
X100590021Y-106895989D01*
X100610500Y-106819562D01*
X100610500Y-106740438D01*
X100590021Y-106664011D01*
X100556423Y-106605817D01*
X107349500Y-106605817D01*
X107349500Y-106744183D01*
X107384161Y-106873538D01*
X107385312Y-106877835D01*
X107385313Y-106877838D01*
X107454492Y-106997661D01*
X107454494Y-106997664D01*
X107454495Y-106997665D01*
X107552335Y-107095505D01*
X107552336Y-107095506D01*
X107552338Y-107095507D01*
X107599958Y-107123000D01*
X107672164Y-107164688D01*
X107805817Y-107200500D01*
X107805819Y-107200500D01*
X107944181Y-107200500D01*
X107944183Y-107200500D01*
X108056377Y-107170438D01*
X109359500Y-107170438D01*
X109359500Y-107249562D01*
X109368729Y-107284004D01*
X109379979Y-107325990D01*
X109379982Y-107325995D01*
X109419535Y-107394504D01*
X109419539Y-107394509D01*
X109419540Y-107394511D01*
X109475489Y-107450460D01*
X109475491Y-107450461D01*
X109475495Y-107450464D01*
X109510130Y-107470460D01*
X109544011Y-107490021D01*
X109620438Y-107510500D01*
X109620440Y-107510500D01*
X109699560Y-107510500D01*
X109699562Y-107510500D01*
X109775989Y-107490021D01*
X109844511Y-107450460D01*
X109900460Y-107394511D01*
X109940021Y-107325989D01*
X109960500Y-107249562D01*
X109960500Y-107170438D01*
X109940021Y-107094011D01*
X109936194Y-107087382D01*
X109900464Y-107025495D01*
X109900458Y-107025487D01*
X109844512Y-106969541D01*
X109844504Y-106969535D01*
X109775995Y-106929982D01*
X109775990Y-106929979D01*
X109750513Y-106923152D01*
X109699562Y-106909500D01*
X109620438Y-106909500D01*
X109584275Y-106919190D01*
X109544009Y-106929979D01*
X109544004Y-106929982D01*
X109475495Y-106969535D01*
X109475487Y-106969541D01*
X109419541Y-107025487D01*
X109419535Y-107025495D01*
X109379982Y-107094004D01*
X109379979Y-107094009D01*
X109373020Y-107119982D01*
X109359500Y-107170438D01*
X108056377Y-107170438D01*
X108077836Y-107164688D01*
X108197665Y-107095505D01*
X108295505Y-106997665D01*
X108364688Y-106877836D01*
X108400500Y-106744183D01*
X108400500Y-106605817D01*
X111599500Y-106605817D01*
X111599500Y-106744183D01*
X111634161Y-106873538D01*
X111635312Y-106877835D01*
X111635313Y-106877838D01*
X111704492Y-106997661D01*
X111704494Y-106997664D01*
X111704495Y-106997665D01*
X111802335Y-107095505D01*
X111802336Y-107095506D01*
X111802338Y-107095507D01*
X111849958Y-107123000D01*
X111922164Y-107164688D01*
X112055817Y-107200500D01*
X112055819Y-107200500D01*
X112194181Y-107200500D01*
X112194183Y-107200500D01*
X112327836Y-107164688D01*
X112447665Y-107095505D01*
X112545505Y-106997665D01*
X112614688Y-106877836D01*
X112650500Y-106744183D01*
X112650500Y-106605817D01*
X112614688Y-106472164D01*
X112568947Y-106392938D01*
X112545507Y-106352338D01*
X112545503Y-106352333D01*
X112447666Y-106254496D01*
X112447661Y-106254492D01*
X112327838Y-106185313D01*
X112327837Y-106185312D01*
X112327836Y-106185312D01*
X112194183Y-106149500D01*
X112055817Y-106149500D01*
X111922164Y-106185312D01*
X111922161Y-106185313D01*
X111802338Y-106254492D01*
X111802333Y-106254496D01*
X111704496Y-106352333D01*
X111704492Y-106352338D01*
X111635313Y-106472161D01*
X111635312Y-106472164D01*
X111599500Y-106605817D01*
X108400500Y-106605817D01*
X108364688Y-106472164D01*
X108318947Y-106392938D01*
X108295507Y-106352338D01*
X108295503Y-106352333D01*
X108197666Y-106254496D01*
X108197661Y-106254492D01*
X108077838Y-106185313D01*
X108077837Y-106185312D01*
X108077836Y-106185312D01*
X107944183Y-106149500D01*
X107805817Y-106149500D01*
X107672164Y-106185312D01*
X107672161Y-106185313D01*
X107552338Y-106254492D01*
X107552333Y-106254496D01*
X107454496Y-106352333D01*
X107454492Y-106352338D01*
X107385313Y-106472161D01*
X107385312Y-106472164D01*
X107349500Y-106605817D01*
X100556423Y-106605817D01*
X100550460Y-106595489D01*
X100494511Y-106539540D01*
X100494509Y-106539539D01*
X100494504Y-106539535D01*
X100425995Y-106499982D01*
X100425990Y-106499979D01*
X100396760Y-106492147D01*
X100349562Y-106479500D01*
X100324833Y-106479500D01*
X100257794Y-106459815D01*
X100212039Y-106407011D01*
X100202095Y-106337853D01*
X100231120Y-106274297D01*
X100237152Y-106267819D01*
X100250479Y-106254492D01*
X100270460Y-106234511D01*
X100310021Y-106165989D01*
X100330500Y-106089562D01*
X100330500Y-106010438D01*
X100327820Y-106000438D01*
X102419500Y-106000438D01*
X102419500Y-106079562D01*
X102422179Y-106089560D01*
X102439979Y-106155990D01*
X102439982Y-106155995D01*
X102479535Y-106224504D01*
X102479539Y-106224509D01*
X102479540Y-106224511D01*
X102535489Y-106280460D01*
X102535491Y-106280461D01*
X102535495Y-106280464D01*
X102570130Y-106300460D01*
X102604011Y-106320021D01*
X102680438Y-106340500D01*
X102680440Y-106340500D01*
X102759560Y-106340500D01*
X102759562Y-106340500D01*
X102835989Y-106320021D01*
X102904511Y-106280460D01*
X102960460Y-106224511D01*
X102972612Y-106203462D01*
X103023178Y-106155246D01*
X103091785Y-106142022D01*
X103156650Y-106167989D01*
X103187388Y-106203463D01*
X103199537Y-106224507D01*
X103199539Y-106224510D01*
X103199540Y-106224511D01*
X103255489Y-106280460D01*
X103255491Y-106280461D01*
X103255495Y-106280464D01*
X103290130Y-106300460D01*
X103324011Y-106320021D01*
X103400438Y-106340500D01*
X103400440Y-106340500D01*
X103479560Y-106340500D01*
X103479562Y-106340500D01*
X103555989Y-106320021D01*
X103624511Y-106280460D01*
X103680460Y-106224511D01*
X103720021Y-106155989D01*
X103740500Y-106079562D01*
X103740500Y-106020438D01*
X105039500Y-106020438D01*
X105039500Y-106099562D01*
X105050218Y-106139560D01*
X105059979Y-106175990D01*
X105059982Y-106175995D01*
X105099535Y-106244504D01*
X105099539Y-106244509D01*
X105099540Y-106244511D01*
X105155489Y-106300460D01*
X105155491Y-106300461D01*
X105155495Y-106300464D01*
X105206690Y-106330021D01*
X105224011Y-106340021D01*
X105300438Y-106360500D01*
X105300440Y-106360500D01*
X105379560Y-106360500D01*
X105379562Y-106360500D01*
X105455989Y-106340021D01*
X105524511Y-106300460D01*
X105580460Y-106244511D01*
X105620021Y-106175989D01*
X105640500Y-106099562D01*
X105640500Y-106020438D01*
X105620021Y-105944011D01*
X105614246Y-105934009D01*
X105580464Y-105875495D01*
X105580458Y-105875487D01*
X105524512Y-105819541D01*
X105524504Y-105819535D01*
X105455995Y-105779982D01*
X105455990Y-105779979D01*
X105430513Y-105773152D01*
X105379562Y-105759500D01*
X105300438Y-105759500D01*
X105262224Y-105769739D01*
X105224009Y-105779979D01*
X105224004Y-105779982D01*
X105155495Y-105819535D01*
X105155487Y-105819541D01*
X105099541Y-105875487D01*
X105099535Y-105875495D01*
X105059982Y-105944004D01*
X105059979Y-105944009D01*
X105049263Y-105984004D01*
X105039500Y-106020438D01*
X103740500Y-106020438D01*
X103740500Y-106000438D01*
X103720021Y-105924011D01*
X103692613Y-105876538D01*
X103680464Y-105855495D01*
X103680458Y-105855487D01*
X103624512Y-105799541D01*
X103624504Y-105799535D01*
X103555995Y-105759982D01*
X103555990Y-105759979D01*
X103530513Y-105753152D01*
X103479562Y-105739500D01*
X103400438Y-105739500D01*
X103363118Y-105749500D01*
X103324009Y-105759979D01*
X103324004Y-105759982D01*
X103255495Y-105799535D01*
X103255487Y-105799541D01*
X103199541Y-105855487D01*
X103199537Y-105855492D01*
X103187387Y-105876538D01*
X103136820Y-105924754D01*
X103068213Y-105937977D01*
X103003348Y-105912009D01*
X102972613Y-105876538D01*
X102960462Y-105855492D01*
X102960458Y-105855487D01*
X102904512Y-105799541D01*
X102904504Y-105799535D01*
X102835995Y-105759982D01*
X102835990Y-105759979D01*
X102810513Y-105753152D01*
X102759562Y-105739500D01*
X102680438Y-105739500D01*
X102643118Y-105749500D01*
X102604009Y-105759979D01*
X102604004Y-105759982D01*
X102535495Y-105799535D01*
X102535487Y-105799541D01*
X102479541Y-105855487D01*
X102479535Y-105855495D01*
X102439982Y-105924004D01*
X102439979Y-105924009D01*
X102434620Y-105944009D01*
X102419500Y-106000438D01*
X100327820Y-106000438D01*
X100310021Y-105934011D01*
X100310017Y-105934004D01*
X100270464Y-105865495D01*
X100270458Y-105865487D01*
X100214512Y-105809541D01*
X100214504Y-105809535D01*
X100145995Y-105769982D01*
X100145990Y-105769979D01*
X100120513Y-105763152D01*
X100069562Y-105749500D01*
X99990438Y-105749500D01*
X99953118Y-105759500D01*
X99914009Y-105769979D01*
X99914004Y-105769982D01*
X99845495Y-105809535D01*
X99845487Y-105809541D01*
X99789541Y-105865487D01*
X99789535Y-105865495D01*
X99749982Y-105934004D01*
X99749979Y-105934009D01*
X99748916Y-105937977D01*
X99729500Y-106010438D01*
X99729500Y-106089562D01*
X99732179Y-106099560D01*
X99749979Y-106165990D01*
X99749982Y-106165995D01*
X99789535Y-106234504D01*
X99789539Y-106234509D01*
X99789540Y-106234511D01*
X99845489Y-106290460D01*
X99845491Y-106290461D01*
X99845495Y-106290464D01*
X99896690Y-106320021D01*
X99914011Y-106330021D01*
X99990438Y-106350500D01*
X99990440Y-106350500D01*
X100015167Y-106350500D01*
X100082206Y-106370185D01*
X100127961Y-106422989D01*
X100137905Y-106492147D01*
X100108880Y-106555703D01*
X100102848Y-106562181D01*
X100069541Y-106595487D01*
X100069535Y-106595495D01*
X100029982Y-106664004D01*
X100029979Y-106664009D01*
X100009500Y-106740439D01*
X100009500Y-106806396D01*
X99989815Y-106873435D01*
X99937011Y-106919190D01*
X99901696Y-106929334D01*
X99900443Y-106929499D01*
X99900439Y-106929500D01*
X99900438Y-106929500D01*
X99870785Y-106937445D01*
X99824009Y-106949979D01*
X99824004Y-106949982D01*
X99755495Y-106989535D01*
X99755487Y-106989541D01*
X99699541Y-107045487D01*
X99699535Y-107045495D01*
X99659982Y-107114004D01*
X99659979Y-107114009D01*
X99647781Y-107159535D01*
X99639500Y-107190438D01*
X94100500Y-107190438D01*
X94100500Y-106459977D01*
X94120185Y-106392938D01*
X94172989Y-106347183D01*
X94242147Y-106337239D01*
X94286495Y-106352588D01*
X94334011Y-106380021D01*
X94410438Y-106400500D01*
X94410440Y-106400500D01*
X94489560Y-106400500D01*
X94489562Y-106400500D01*
X94565989Y-106380021D01*
X94634511Y-106340460D01*
X94690460Y-106284511D01*
X94730021Y-106215989D01*
X94750500Y-106139562D01*
X94750500Y-106060438D01*
X94730021Y-105984011D01*
X94706923Y-105944004D01*
X94690464Y-105915495D01*
X94690458Y-105915487D01*
X94634512Y-105859541D01*
X94634504Y-105859535D01*
X94565995Y-105819982D01*
X94565990Y-105819979D01*
X94540513Y-105813152D01*
X94489562Y-105799500D01*
X94410438Y-105799500D01*
X94359486Y-105813152D01*
X94334010Y-105819979D01*
X94286499Y-105847410D01*
X94218599Y-105863882D01*
X94152572Y-105841029D01*
X94109382Y-105786107D01*
X94100500Y-105740022D01*
X94100500Y-104452938D01*
X96399500Y-104452938D01*
X96399500Y-104532062D01*
X96400420Y-104535495D01*
X96419979Y-104608490D01*
X96419982Y-104608495D01*
X96459535Y-104677004D01*
X96459539Y-104677009D01*
X96459540Y-104677011D01*
X96515489Y-104732960D01*
X96515491Y-104732961D01*
X96515495Y-104732964D01*
X96561565Y-104759562D01*
X96584011Y-104772521D01*
X96660438Y-104793000D01*
X96660440Y-104793000D01*
X96739560Y-104793000D01*
X96739562Y-104793000D01*
X96815989Y-104772521D01*
X96884511Y-104732960D01*
X96940460Y-104677011D01*
X96980021Y-104608489D01*
X97000500Y-104532062D01*
X97000500Y-104530438D01*
X102149500Y-104530438D01*
X102149500Y-104609562D01*
X102157714Y-104640215D01*
X102169979Y-104685990D01*
X102169982Y-104685995D01*
X102209535Y-104754504D01*
X102209539Y-104754509D01*
X102209540Y-104754511D01*
X102265489Y-104810460D01*
X102265491Y-104810461D01*
X102265495Y-104810464D01*
X102309708Y-104835990D01*
X102334011Y-104850021D01*
X102410438Y-104870500D01*
X102410440Y-104870500D01*
X102489560Y-104870500D01*
X102489562Y-104870500D01*
X102565989Y-104850021D01*
X102634511Y-104810460D01*
X102690460Y-104754511D01*
X102730021Y-104685989D01*
X102731508Y-104680438D01*
X106919500Y-104680438D01*
X106919500Y-104759562D01*
X106928460Y-104793000D01*
X106939979Y-104835990D01*
X106939982Y-104835995D01*
X106979535Y-104904504D01*
X106979539Y-104904509D01*
X106979540Y-104904511D01*
X107035489Y-104960460D01*
X107035491Y-104960461D01*
X107035495Y-104960464D01*
X107104004Y-105000017D01*
X107104011Y-105000021D01*
X107180438Y-105020500D01*
X107180440Y-105020500D01*
X107259560Y-105020500D01*
X107259562Y-105020500D01*
X107335989Y-105000021D01*
X107404511Y-104960460D01*
X107460460Y-104904511D01*
X107500021Y-104835989D01*
X107520500Y-104759562D01*
X107520500Y-104680438D01*
X107500021Y-104604011D01*
X107500017Y-104604004D01*
X107460464Y-104535495D01*
X107460458Y-104535487D01*
X107404512Y-104479541D01*
X107404504Y-104479535D01*
X107335995Y-104439982D01*
X107335990Y-104439979D01*
X107310513Y-104433152D01*
X107259562Y-104419500D01*
X107180438Y-104419500D01*
X107142224Y-104429739D01*
X107104009Y-104439979D01*
X107104004Y-104439982D01*
X107035495Y-104479535D01*
X107035487Y-104479541D01*
X106979541Y-104535487D01*
X106979535Y-104535495D01*
X106939982Y-104604004D01*
X106939979Y-104604009D01*
X106930278Y-104640215D01*
X106919500Y-104680438D01*
X102731508Y-104680438D01*
X102734337Y-104669880D01*
X102742287Y-104640215D01*
X102745448Y-104628414D01*
X102750500Y-104609562D01*
X102750500Y-104530438D01*
X102730021Y-104454011D01*
X102729402Y-104452938D01*
X102690464Y-104385495D01*
X102690458Y-104385487D01*
X102634512Y-104329541D01*
X102634504Y-104329535D01*
X102565995Y-104289982D01*
X102565990Y-104289979D01*
X102540513Y-104283152D01*
X102489562Y-104269500D01*
X102410438Y-104269500D01*
X102372224Y-104279739D01*
X102334009Y-104289979D01*
X102334004Y-104289982D01*
X102265495Y-104329535D01*
X102265487Y-104329541D01*
X102209541Y-104385487D01*
X102209535Y-104385495D01*
X102169982Y-104454004D01*
X102169979Y-104454009D01*
X102163138Y-104479540D01*
X102149500Y-104530438D01*
X97000500Y-104530438D01*
X97000500Y-104452938D01*
X96980021Y-104376511D01*
X96952903Y-104329541D01*
X96940464Y-104307995D01*
X96940458Y-104307987D01*
X96884512Y-104252041D01*
X96884504Y-104252035D01*
X96815995Y-104212482D01*
X96815990Y-104212479D01*
X96790513Y-104205652D01*
X96739562Y-104192000D01*
X96660438Y-104192000D01*
X96622224Y-104202239D01*
X96584009Y-104212479D01*
X96584004Y-104212482D01*
X96515495Y-104252035D01*
X96515487Y-104252041D01*
X96459541Y-104307987D01*
X96459535Y-104307995D01*
X96419982Y-104376504D01*
X96419979Y-104376509D01*
X96408460Y-104419500D01*
X96399500Y-104452938D01*
X94100500Y-104452938D01*
X94100500Y-103370438D01*
X95409500Y-103370438D01*
X95409500Y-103449562D01*
X95418729Y-103484004D01*
X95429979Y-103525990D01*
X95429982Y-103525995D01*
X95469535Y-103594504D01*
X95469539Y-103594509D01*
X95469540Y-103594511D01*
X95525489Y-103650460D01*
X95525491Y-103650461D01*
X95525495Y-103650464D01*
X95594004Y-103690017D01*
X95594011Y-103690021D01*
X95670438Y-103710500D01*
X95670440Y-103710500D01*
X95749560Y-103710500D01*
X95749562Y-103710500D01*
X95825989Y-103690021D01*
X95894511Y-103650460D01*
X95950460Y-103594511D01*
X95953658Y-103588970D01*
X95970132Y-103560438D01*
X101179500Y-103560438D01*
X101179500Y-103639562D01*
X101193020Y-103690017D01*
X101199979Y-103715990D01*
X101199982Y-103715995D01*
X101239535Y-103784504D01*
X101239539Y-103784509D01*
X101239540Y-103784511D01*
X101295489Y-103840460D01*
X101295491Y-103840461D01*
X101295495Y-103840464D01*
X101346690Y-103870021D01*
X101364011Y-103880021D01*
X101440438Y-103900500D01*
X101440440Y-103900500D01*
X101519560Y-103900500D01*
X101519562Y-103900500D01*
X101595989Y-103880021D01*
X101664511Y-103840460D01*
X101720460Y-103784511D01*
X101720463Y-103784504D01*
X101725410Y-103778060D01*
X101728319Y-103780292D01*
X101766369Y-103743587D01*
X101834898Y-103729965D01*
X101899912Y-103755555D01*
X101913416Y-103769140D01*
X101913793Y-103768764D01*
X101919540Y-103774511D01*
X101975489Y-103830460D01*
X101975491Y-103830461D01*
X101975495Y-103830464D01*
X102044004Y-103870017D01*
X102044011Y-103870021D01*
X102120438Y-103890500D01*
X102120440Y-103890500D01*
X102199560Y-103890500D01*
X102199562Y-103890500D01*
X102275989Y-103870021D01*
X102344511Y-103830460D01*
X102400460Y-103774511D01*
X102440021Y-103705989D01*
X102460500Y-103629562D01*
X102460500Y-103550438D01*
X102440021Y-103474011D01*
X102431847Y-103459853D01*
X102400464Y-103405495D01*
X102400458Y-103405487D01*
X102344512Y-103349541D01*
X102344504Y-103349535D01*
X102275995Y-103309982D01*
X102275990Y-103309979D01*
X102244894Y-103301647D01*
X102199562Y-103289500D01*
X102120438Y-103289500D01*
X102083118Y-103299500D01*
X102044009Y-103309979D01*
X102044004Y-103309982D01*
X101975495Y-103349535D01*
X101975487Y-103349541D01*
X101919541Y-103405487D01*
X101914590Y-103411940D01*
X101911907Y-103409881D01*
X101871969Y-103447265D01*
X101803242Y-103459853D01*
X101738620Y-103433287D01*
X101726517Y-103420925D01*
X101726207Y-103421236D01*
X101664512Y-103359541D01*
X101664504Y-103359535D01*
X101595995Y-103319982D01*
X101595990Y-103319979D01*
X101570513Y-103313152D01*
X101519562Y-103299500D01*
X101440438Y-103299500D01*
X101402224Y-103309739D01*
X101364009Y-103319979D01*
X101364004Y-103319982D01*
X101295495Y-103359535D01*
X101295487Y-103359541D01*
X101239541Y-103415487D01*
X101239535Y-103415495D01*
X101199982Y-103484004D01*
X101199979Y-103484009D01*
X101188729Y-103525995D01*
X101179500Y-103560438D01*
X95970132Y-103560438D01*
X95989391Y-103527081D01*
X95989391Y-103527080D01*
X95990021Y-103525989D01*
X96010500Y-103449562D01*
X96010500Y-103370438D01*
X96007971Y-103361001D01*
X96010241Y-103340714D01*
X96018147Y-103321855D01*
X96021300Y-103301647D01*
X96031383Y-103290286D01*
X96037257Y-103276278D01*
X96054104Y-103264688D01*
X96067681Y-103249392D01*
X96082543Y-103245124D01*
X96094821Y-103236678D01*
X96114061Y-103236073D01*
X96133472Y-103230500D01*
X96179560Y-103230500D01*
X96179562Y-103230500D01*
X96255989Y-103210021D01*
X96324511Y-103170460D01*
X96380460Y-103114511D01*
X96420021Y-103045989D01*
X96440500Y-102969562D01*
X96440500Y-102890438D01*
X96420021Y-102814011D01*
X96420017Y-102814004D01*
X96380464Y-102745495D01*
X96380458Y-102745487D01*
X96324512Y-102689541D01*
X96324504Y-102689535D01*
X96255995Y-102649982D01*
X96255990Y-102649979D01*
X96230513Y-102643152D01*
X96179562Y-102629500D01*
X96100438Y-102629500D01*
X96062224Y-102639739D01*
X96024009Y-102649979D01*
X96024004Y-102649982D01*
X95955495Y-102689535D01*
X95955487Y-102689541D01*
X95899541Y-102745487D01*
X95899535Y-102745495D01*
X95859982Y-102814004D01*
X95859979Y-102814009D01*
X95839500Y-102890439D01*
X95839500Y-102977690D01*
X95838162Y-102977690D01*
X95828700Y-103038353D01*
X95782319Y-103090608D01*
X95716528Y-103109500D01*
X95670438Y-103109500D01*
X95632224Y-103119739D01*
X95594009Y-103129979D01*
X95594004Y-103129982D01*
X95525495Y-103169535D01*
X95525487Y-103169541D01*
X95469541Y-103225487D01*
X95469535Y-103225495D01*
X95429982Y-103294004D01*
X95429979Y-103294009D01*
X95423020Y-103319982D01*
X95409500Y-103370438D01*
X94100500Y-103370438D01*
X94100500Y-102629211D01*
X94120185Y-102562172D01*
X94153391Y-102527626D01*
X94212871Y-102485990D01*
X94435087Y-102330438D01*
X98019500Y-102330438D01*
X98019500Y-102409562D01*
X98031680Y-102455017D01*
X98039979Y-102485990D01*
X98039982Y-102485995D01*
X98079535Y-102554504D01*
X98079539Y-102554509D01*
X98079540Y-102554511D01*
X98135489Y-102610460D01*
X98135491Y-102610461D01*
X98135495Y-102610464D01*
X98177148Y-102634512D01*
X98204011Y-102650021D01*
X98280438Y-102670500D01*
X98280440Y-102670500D01*
X98359560Y-102670500D01*
X98359562Y-102670500D01*
X98435989Y-102650021D01*
X98504511Y-102610460D01*
X98560460Y-102554511D01*
X98600021Y-102485989D01*
X98620500Y-102409562D01*
X98620500Y-102330438D01*
X98600021Y-102254011D01*
X98560460Y-102185489D01*
X98510409Y-102135438D01*
X101514500Y-102135438D01*
X101514500Y-102214562D01*
X101523449Y-102247960D01*
X101534979Y-102290990D01*
X101534982Y-102290995D01*
X101574535Y-102359504D01*
X101574539Y-102359509D01*
X101574540Y-102359511D01*
X101630489Y-102415460D01*
X101630491Y-102415461D01*
X101630495Y-102415464D01*
X101699004Y-102455017D01*
X101699011Y-102455021D01*
X101775438Y-102475500D01*
X101775440Y-102475500D01*
X101854560Y-102475500D01*
X101854562Y-102475500D01*
X101930989Y-102455021D01*
X101999511Y-102415460D01*
X102004533Y-102410438D01*
X105789500Y-102410438D01*
X105789500Y-102489562D01*
X105803152Y-102540513D01*
X105809979Y-102565990D01*
X105809982Y-102565995D01*
X105849535Y-102634504D01*
X105849539Y-102634509D01*
X105849540Y-102634511D01*
X105905489Y-102690460D01*
X105905491Y-102690461D01*
X105905495Y-102690464D01*
X105974004Y-102730017D01*
X105974011Y-102730021D01*
X106050438Y-102750500D01*
X106050440Y-102750500D01*
X106129560Y-102750500D01*
X106129562Y-102750500D01*
X106205989Y-102730021D01*
X106274511Y-102690460D01*
X106330460Y-102634511D01*
X106370021Y-102565989D01*
X106390500Y-102489562D01*
X106390500Y-102410438D01*
X106370021Y-102334011D01*
X106367958Y-102330438D01*
X106330464Y-102265495D01*
X106330458Y-102265487D01*
X106274512Y-102209541D01*
X106274504Y-102209535D01*
X106205995Y-102169982D01*
X106205990Y-102169979D01*
X106180513Y-102163152D01*
X106129562Y-102149500D01*
X106050438Y-102149500D01*
X106012224Y-102159739D01*
X105974009Y-102169979D01*
X105974004Y-102169982D01*
X105905495Y-102209535D01*
X105905487Y-102209541D01*
X105849541Y-102265487D01*
X105849535Y-102265495D01*
X105809982Y-102334004D01*
X105809979Y-102334009D01*
X105808291Y-102340310D01*
X105789500Y-102410438D01*
X102004533Y-102410438D01*
X102055460Y-102359511D01*
X102070183Y-102334011D01*
X102073961Y-102327464D01*
X102095021Y-102290989D01*
X102115500Y-102214562D01*
X102115500Y-102135438D01*
X102095021Y-102059011D01*
X102095017Y-102059004D01*
X102055464Y-101990495D01*
X102055458Y-101990487D01*
X101999512Y-101934541D01*
X101999504Y-101934535D01*
X101930995Y-101894982D01*
X101930990Y-101894979D01*
X101905513Y-101888152D01*
X101854562Y-101874500D01*
X101775438Y-101874500D01*
X101737224Y-101884739D01*
X101699009Y-101894979D01*
X101699004Y-101894982D01*
X101630495Y-101934535D01*
X101630487Y-101934541D01*
X101574541Y-101990487D01*
X101574535Y-101990495D01*
X101534982Y-102059004D01*
X101534979Y-102059009D01*
X101532168Y-102069500D01*
X101514500Y-102135438D01*
X98510409Y-102135438D01*
X98504511Y-102129540D01*
X98504509Y-102129539D01*
X98504504Y-102129535D01*
X98435995Y-102089982D01*
X98435990Y-102089979D01*
X98410513Y-102083152D01*
X98359562Y-102069500D01*
X98280438Y-102069500D01*
X98242224Y-102079739D01*
X98204009Y-102089979D01*
X98204004Y-102089982D01*
X98135495Y-102129535D01*
X98135487Y-102129541D01*
X98079541Y-102185487D01*
X98079535Y-102185495D01*
X98039982Y-102254004D01*
X98039979Y-102254009D01*
X98030070Y-102290990D01*
X98019500Y-102330438D01*
X94435087Y-102330438D01*
X94466352Y-102308552D01*
X94474189Y-102303496D01*
X94488869Y-102294787D01*
X94515989Y-102287521D01*
X94584511Y-102247960D01*
X94640460Y-102192011D01*
X94680021Y-102123489D01*
X94680088Y-102123238D01*
X94684941Y-102116786D01*
X94688047Y-102114471D01*
X94696356Y-102103642D01*
X95207548Y-101592450D01*
X95233225Y-101572748D01*
X95254511Y-101560460D01*
X95310460Y-101504511D01*
X95330910Y-101469089D01*
X95350000Y-101450000D01*
X95350000Y-101436025D01*
X95350021Y-101435989D01*
X95362227Y-101390438D01*
X97709500Y-101390438D01*
X97709500Y-101469562D01*
X97714859Y-101489560D01*
X97729979Y-101545990D01*
X97729982Y-101545995D01*
X97769535Y-101614504D01*
X97769539Y-101614509D01*
X97769540Y-101614511D01*
X97825489Y-101670460D01*
X97825491Y-101670461D01*
X97825495Y-101670464D01*
X97860130Y-101690460D01*
X97894011Y-101710021D01*
X97970438Y-101730500D01*
X97970440Y-101730500D01*
X98049560Y-101730500D01*
X98049562Y-101730500D01*
X98125989Y-101710021D01*
X98194511Y-101670460D01*
X98250460Y-101614511D01*
X98274442Y-101572971D01*
X98325009Y-101524756D01*
X98393616Y-101511532D01*
X98458481Y-101537500D01*
X98489217Y-101572971D01*
X98504540Y-101599511D01*
X98560489Y-101655460D01*
X98560491Y-101655461D01*
X98560495Y-101655464D01*
X98621111Y-101690460D01*
X98629011Y-101695021D01*
X98705438Y-101715500D01*
X98705440Y-101715500D01*
X98784560Y-101715500D01*
X98784562Y-101715500D01*
X98860989Y-101695021D01*
X98929511Y-101655460D01*
X98985460Y-101599511D01*
X99025021Y-101530989D01*
X99045500Y-101454562D01*
X99045500Y-101410438D01*
X105799500Y-101410438D01*
X105799500Y-101489562D01*
X105810601Y-101530989D01*
X105819979Y-101565990D01*
X105819982Y-101565995D01*
X105859535Y-101634504D01*
X105859539Y-101634509D01*
X105859540Y-101634511D01*
X105915489Y-101690460D01*
X105915491Y-101690461D01*
X105915495Y-101690464D01*
X105984004Y-101730017D01*
X105984011Y-101730021D01*
X106060438Y-101750500D01*
X106060440Y-101750500D01*
X106139560Y-101750500D01*
X106139562Y-101750500D01*
X106215989Y-101730021D01*
X106284511Y-101690460D01*
X106340460Y-101634511D01*
X106380021Y-101565989D01*
X106400500Y-101489562D01*
X106400500Y-101410438D01*
X106380021Y-101334011D01*
X106349106Y-101280464D01*
X106340464Y-101265495D01*
X106340458Y-101265487D01*
X106284512Y-101209541D01*
X106284504Y-101209535D01*
X106215995Y-101169982D01*
X106215990Y-101169979D01*
X106190513Y-101163152D01*
X106139562Y-101149500D01*
X106060438Y-101149500D01*
X106022224Y-101159739D01*
X105984009Y-101169979D01*
X105984004Y-101169982D01*
X105915495Y-101209535D01*
X105915487Y-101209541D01*
X105859541Y-101265487D01*
X105859535Y-101265495D01*
X105819982Y-101334004D01*
X105819979Y-101334009D01*
X105818240Y-101340500D01*
X105799500Y-101410438D01*
X99045500Y-101410438D01*
X99045500Y-101375438D01*
X99025021Y-101299011D01*
X99014313Y-101280464D01*
X98985464Y-101230495D01*
X98985458Y-101230487D01*
X98929512Y-101174541D01*
X98929504Y-101174535D01*
X98860995Y-101134982D01*
X98860990Y-101134979D01*
X98835513Y-101128152D01*
X98784562Y-101114500D01*
X98705438Y-101114500D01*
X98667402Y-101124692D01*
X98629009Y-101134979D01*
X98629004Y-101134982D01*
X98560495Y-101174535D01*
X98560487Y-101174541D01*
X98504541Y-101230487D01*
X98504537Y-101230492D01*
X98480555Y-101272030D01*
X98429987Y-101320245D01*
X98361380Y-101333466D01*
X98296516Y-101307497D01*
X98265781Y-101272026D01*
X98250462Y-101245492D01*
X98250458Y-101245487D01*
X98194512Y-101189541D01*
X98194504Y-101189535D01*
X98125995Y-101149982D01*
X98125990Y-101149979D01*
X98100513Y-101143152D01*
X98049562Y-101129500D01*
X97970438Y-101129500D01*
X97932224Y-101139739D01*
X97894009Y-101149979D01*
X97894004Y-101149982D01*
X97825495Y-101189535D01*
X97825487Y-101189541D01*
X97769541Y-101245487D01*
X97769535Y-101245495D01*
X97729982Y-101314004D01*
X97729979Y-101314009D01*
X97724620Y-101334009D01*
X97709500Y-101390438D01*
X95362227Y-101390438D01*
X95370500Y-101359562D01*
X95370500Y-101280438D01*
X95354625Y-101221195D01*
X95354554Y-101220577D01*
X95354390Y-101220304D01*
X95350461Y-101185233D01*
X95356236Y-101000438D01*
X96759500Y-101000438D01*
X96759500Y-101079562D01*
X96768862Y-101114500D01*
X96779979Y-101155990D01*
X96779982Y-101155995D01*
X96819535Y-101224504D01*
X96819539Y-101224509D01*
X96819540Y-101224511D01*
X96875489Y-101280460D01*
X96875491Y-101280461D01*
X96875495Y-101280464D01*
X96933589Y-101314004D01*
X96944011Y-101320021D01*
X97020438Y-101340500D01*
X97020440Y-101340500D01*
X97099560Y-101340500D01*
X97099562Y-101340500D01*
X97175989Y-101320021D01*
X97244511Y-101280460D01*
X97300460Y-101224511D01*
X97340021Y-101155989D01*
X97360500Y-101079562D01*
X97360500Y-101000438D01*
X97340021Y-100924011D01*
X97337683Y-100919961D01*
X97300464Y-100855495D01*
X97300458Y-100855487D01*
X97244512Y-100799541D01*
X97244504Y-100799535D01*
X97175995Y-100759982D01*
X97175990Y-100759979D01*
X97150513Y-100753152D01*
X97099562Y-100739500D01*
X97020438Y-100739500D01*
X96982224Y-100749739D01*
X96944009Y-100759979D01*
X96944004Y-100759982D01*
X96875495Y-100799535D01*
X96875487Y-100799541D01*
X96819541Y-100855487D01*
X96819535Y-100855495D01*
X96779982Y-100924004D01*
X96779979Y-100924009D01*
X96766326Y-100974962D01*
X96759500Y-101000438D01*
X95356236Y-101000438D01*
X95366670Y-100666533D01*
X109524499Y-100666533D01*
X109550458Y-100797030D01*
X109550461Y-100797040D01*
X109601376Y-100919961D01*
X109601386Y-100919979D01*
X109675301Y-101030601D01*
X109675307Y-101030609D01*
X109769390Y-101124692D01*
X109769398Y-101124698D01*
X109880020Y-101198613D01*
X109880023Y-101198614D01*
X109880031Y-101198620D01*
X109880037Y-101198622D01*
X109880038Y-101198623D01*
X109956985Y-101230495D01*
X110002964Y-101249540D01*
X110002968Y-101249540D01*
X110002969Y-101249541D01*
X110133466Y-101275500D01*
X110133469Y-101275500D01*
X110266533Y-101275500D01*
X110354325Y-101258035D01*
X110397036Y-101249540D01*
X110519969Y-101198620D01*
X110630606Y-101124695D01*
X110724695Y-101030606D01*
X110798620Y-100919969D01*
X110849540Y-100797036D01*
X110875500Y-100666531D01*
X110875500Y-100533469D01*
X110875500Y-100533466D01*
X110849541Y-100402969D01*
X110849540Y-100402968D01*
X110849540Y-100402964D01*
X110798620Y-100280031D01*
X110796549Y-100276932D01*
X110724698Y-100169398D01*
X110724692Y-100169390D01*
X110630609Y-100075307D01*
X110630601Y-100075301D01*
X110519979Y-100001386D01*
X110519972Y-100001382D01*
X110519969Y-100001380D01*
X110519965Y-100001378D01*
X110519961Y-100001376D01*
X110397040Y-99950461D01*
X110397030Y-99950458D01*
X110266533Y-99924500D01*
X110266531Y-99924500D01*
X110133469Y-99924500D01*
X110133467Y-99924500D01*
X110002969Y-99950458D01*
X110002959Y-99950461D01*
X109880038Y-100001376D01*
X109880020Y-100001386D01*
X109769398Y-100075301D01*
X109769390Y-100075307D01*
X109675307Y-100169390D01*
X109675301Y-100169398D01*
X109601386Y-100280020D01*
X109601376Y-100280038D01*
X109550461Y-100402959D01*
X109550458Y-100402969D01*
X109524500Y-100533466D01*
X109524500Y-100533469D01*
X109524500Y-100666531D01*
X109524500Y-100666533D01*
X109524499Y-100666533D01*
X95366670Y-100666533D01*
X95380454Y-100225438D01*
X96374500Y-100225438D01*
X96374500Y-100304562D01*
X96386558Y-100349562D01*
X96394979Y-100380990D01*
X96394982Y-100380995D01*
X96434535Y-100449504D01*
X96434539Y-100449509D01*
X96434540Y-100449511D01*
X96490489Y-100505460D01*
X96490491Y-100505461D01*
X96490495Y-100505464D01*
X96538997Y-100533466D01*
X96559011Y-100545021D01*
X96635438Y-100565500D01*
X96635440Y-100565500D01*
X96714560Y-100565500D01*
X96714562Y-100565500D01*
X96790989Y-100545021D01*
X96859511Y-100505460D01*
X96915460Y-100449511D01*
X96955021Y-100380989D01*
X96975500Y-100304562D01*
X96975500Y-100270438D01*
X97289500Y-100270438D01*
X97289500Y-100349562D01*
X97297921Y-100380989D01*
X97309979Y-100425990D01*
X97309982Y-100425995D01*
X97349535Y-100494504D01*
X97349539Y-100494509D01*
X97349540Y-100494511D01*
X97405489Y-100550460D01*
X97405491Y-100550461D01*
X97405495Y-100550464D01*
X97431539Y-100565500D01*
X97474011Y-100590021D01*
X97550438Y-100610500D01*
X97550440Y-100610500D01*
X97629560Y-100610500D01*
X97629562Y-100610500D01*
X97705989Y-100590021D01*
X97774511Y-100550460D01*
X97830460Y-100494511D01*
X97870021Y-100425989D01*
X97890500Y-100349562D01*
X97890500Y-100340275D01*
X97897001Y-100322309D01*
X97910023Y-100304553D01*
X97918929Y-100284420D01*
X97930279Y-100276932D01*
X97938322Y-100265967D01*
X97958875Y-100258070D01*
X97977253Y-100245948D01*
X97998853Y-100242710D01*
X98003543Y-100240909D01*
X98006619Y-100241546D01*
X98013603Y-100240500D01*
X98019560Y-100240500D01*
X98019562Y-100240500D01*
X98095989Y-100220021D01*
X98164511Y-100180460D01*
X98220460Y-100124511D01*
X98260021Y-100055989D01*
X98280500Y-99979562D01*
X98280500Y-99900438D01*
X98260021Y-99824011D01*
X98260017Y-99824004D01*
X98220464Y-99755495D01*
X98220458Y-99755487D01*
X98164512Y-99699541D01*
X98164504Y-99699535D01*
X98095995Y-99659982D01*
X98095990Y-99659979D01*
X98070513Y-99653152D01*
X98019562Y-99639500D01*
X97940438Y-99639500D01*
X97902224Y-99649739D01*
X97864009Y-99659979D01*
X97864004Y-99659982D01*
X97795495Y-99699535D01*
X97795487Y-99699541D01*
X97739541Y-99755487D01*
X97739535Y-99755495D01*
X97699982Y-99824004D01*
X97699979Y-99824009D01*
X97679499Y-99900442D01*
X97679336Y-99901683D01*
X97678906Y-99902652D01*
X97677397Y-99908288D01*
X97676518Y-99908052D01*
X97651071Y-99965580D01*
X97592747Y-100004052D01*
X97556397Y-100009500D01*
X97550438Y-100009500D01*
X97512224Y-100019739D01*
X97474009Y-100029979D01*
X97474004Y-100029982D01*
X97405495Y-100069535D01*
X97405487Y-100069541D01*
X97349541Y-100125487D01*
X97349535Y-100125495D01*
X97309982Y-100194004D01*
X97309979Y-100194009D01*
X97303009Y-100220021D01*
X97289500Y-100270438D01*
X96975500Y-100270438D01*
X96975500Y-100225438D01*
X96955021Y-100149011D01*
X96941441Y-100125489D01*
X96915464Y-100080495D01*
X96915458Y-100080487D01*
X96859512Y-100024541D01*
X96859504Y-100024535D01*
X96790995Y-99984982D01*
X96790990Y-99984979D01*
X96765513Y-99978152D01*
X96714562Y-99964500D01*
X96635438Y-99964500D01*
X96597224Y-99974739D01*
X96559009Y-99984979D01*
X96559004Y-99984982D01*
X96490495Y-100024535D01*
X96490487Y-100024541D01*
X96434541Y-100080487D01*
X96434535Y-100080495D01*
X96394982Y-100149004D01*
X96394979Y-100149009D01*
X96382921Y-100194011D01*
X96374500Y-100225438D01*
X95380454Y-100225438D01*
X95395127Y-99755876D01*
X95411681Y-99697753D01*
X95430020Y-99665990D01*
X95430021Y-99665989D01*
X95450500Y-99589562D01*
X95450500Y-99510438D01*
X95430021Y-99434011D01*
X95416610Y-99410783D01*
X95412461Y-99395294D01*
X95405023Y-99383721D01*
X95400000Y-99348786D01*
X95400000Y-99205854D01*
X95416613Y-99143854D01*
X95424359Y-99130438D01*
X98329500Y-99130438D01*
X98329500Y-99209562D01*
X98341940Y-99255989D01*
X98349979Y-99285990D01*
X98349982Y-99285995D01*
X98389535Y-99354504D01*
X98389539Y-99354509D01*
X98389540Y-99354511D01*
X98445489Y-99410460D01*
X98445491Y-99410461D01*
X98445495Y-99410464D01*
X98497520Y-99440500D01*
X98514011Y-99450021D01*
X98590438Y-99470500D01*
X98590440Y-99470500D01*
X98669560Y-99470500D01*
X98669562Y-99470500D01*
X98745989Y-99450021D01*
X98814511Y-99410460D01*
X98870460Y-99354511D01*
X98910021Y-99285989D01*
X98930500Y-99209562D01*
X98930500Y-99130438D01*
X98928883Y-99124402D01*
X98928883Y-99124401D01*
X98922462Y-99100438D01*
X105409500Y-99100438D01*
X105409500Y-99179562D01*
X105416545Y-99205854D01*
X105429979Y-99255990D01*
X105429982Y-99255995D01*
X105469535Y-99324504D01*
X105469539Y-99324509D01*
X105469540Y-99324511D01*
X105525489Y-99380460D01*
X105525491Y-99380461D01*
X105525495Y-99380464D01*
X105578012Y-99410784D01*
X105594011Y-99420021D01*
X105670438Y-99440500D01*
X105670440Y-99440500D01*
X105749560Y-99440500D01*
X105749562Y-99440500D01*
X105825989Y-99420021D01*
X105894511Y-99380460D01*
X105950460Y-99324511D01*
X105990021Y-99255989D01*
X106010500Y-99179562D01*
X106010500Y-99100438D01*
X105990021Y-99024011D01*
X105967784Y-98985495D01*
X105950464Y-98955495D01*
X105950458Y-98955487D01*
X105894512Y-98899541D01*
X105894504Y-98899535D01*
X105825995Y-98859982D01*
X105825990Y-98859979D01*
X105800513Y-98853152D01*
X105749562Y-98839500D01*
X105670438Y-98839500D01*
X105632224Y-98849739D01*
X105594009Y-98859979D01*
X105594004Y-98859982D01*
X105525495Y-98899535D01*
X105525487Y-98899541D01*
X105469541Y-98955487D01*
X105469535Y-98955495D01*
X105429982Y-99024004D01*
X105429979Y-99024009D01*
X105421942Y-99054004D01*
X105409500Y-99100438D01*
X98922462Y-99100438D01*
X98910022Y-99054015D01*
X98910021Y-99054011D01*
X98892701Y-99024011D01*
X98870464Y-98985495D01*
X98870458Y-98985487D01*
X98814512Y-98929541D01*
X98814504Y-98929535D01*
X98745995Y-98889982D01*
X98745990Y-98889979D01*
X98720513Y-98883152D01*
X98669562Y-98869500D01*
X98590438Y-98869500D01*
X98552224Y-98879739D01*
X98514009Y-98889979D01*
X98514004Y-98889982D01*
X98445495Y-98929535D01*
X98445487Y-98929541D01*
X98389541Y-98985487D01*
X98389535Y-98985495D01*
X98349982Y-99054004D01*
X98349979Y-99054009D01*
X98341410Y-99085989D01*
X98329500Y-99130438D01*
X95424359Y-99130438D01*
X95441678Y-99100439D01*
X95450021Y-99085989D01*
X95470500Y-99009562D01*
X95470500Y-98930438D01*
X95450021Y-98854011D01*
X95416612Y-98796144D01*
X95409318Y-98768924D01*
X95400000Y-98750001D01*
X95400000Y-98750000D01*
X94861010Y-98335392D01*
X94846540Y-98320904D01*
X94846208Y-98321237D01*
X94840460Y-98315489D01*
X94784511Y-98259540D01*
X94784508Y-98259538D01*
X94784504Y-98259535D01*
X94715995Y-98219982D01*
X94715990Y-98219979D01*
X94684407Y-98211516D01*
X94639562Y-98199500D01*
X94639561Y-98199500D01*
X94631712Y-98197397D01*
X94631948Y-98196514D01*
X94613176Y-98191361D01*
X94175654Y-98003850D01*
X94160811Y-97991587D01*
X94143297Y-97983589D01*
X94134431Y-97969793D01*
X94121789Y-97959349D01*
X94115931Y-97941007D01*
X94105523Y-97924811D01*
X94101234Y-97894982D01*
X94100534Y-97892790D01*
X94100500Y-97889876D01*
X94100500Y-97660438D01*
X94899500Y-97660438D01*
X94899500Y-97739562D01*
X94903372Y-97754011D01*
X94919979Y-97815990D01*
X94919982Y-97815995D01*
X94959535Y-97884504D01*
X94959539Y-97884509D01*
X94959540Y-97884511D01*
X95015489Y-97940460D01*
X95015491Y-97940461D01*
X95015495Y-97940464D01*
X95066295Y-97969793D01*
X95084011Y-97980021D01*
X95160438Y-98000500D01*
X95160440Y-98000500D01*
X95239560Y-98000500D01*
X95239562Y-98000500D01*
X95315989Y-97980021D01*
X95384511Y-97940460D01*
X95440460Y-97884511D01*
X95480021Y-97815989D01*
X95500500Y-97739562D01*
X95500500Y-97660438D01*
X95480021Y-97584011D01*
X95477958Y-97580438D01*
X97789500Y-97580438D01*
X97789500Y-97659562D01*
X97796623Y-97686143D01*
X97809979Y-97735990D01*
X97809982Y-97735995D01*
X97849535Y-97804504D01*
X97849539Y-97804509D01*
X97849540Y-97804511D01*
X97905489Y-97860460D01*
X97905491Y-97860461D01*
X97905495Y-97860464D01*
X97947148Y-97884512D01*
X97974011Y-97900021D01*
X98050438Y-97920500D01*
X98050440Y-97920500D01*
X98129560Y-97920500D01*
X98129562Y-97920500D01*
X98205989Y-97900021D01*
X98274511Y-97860460D01*
X98330460Y-97804511D01*
X98370021Y-97735989D01*
X98390500Y-97659562D01*
X98390500Y-97580438D01*
X98370021Y-97504011D01*
X98333317Y-97440438D01*
X99589500Y-97440438D01*
X99589500Y-97519562D01*
X99598387Y-97552729D01*
X99609979Y-97595990D01*
X99609982Y-97595995D01*
X99649535Y-97664504D01*
X99649539Y-97664509D01*
X99649540Y-97664511D01*
X99705489Y-97720460D01*
X99705491Y-97720461D01*
X99705495Y-97720464D01*
X99759437Y-97751607D01*
X99774011Y-97760021D01*
X99850438Y-97780500D01*
X99850440Y-97780500D01*
X99929560Y-97780500D01*
X99929562Y-97780500D01*
X100005989Y-97760021D01*
X100074511Y-97720460D01*
X100122198Y-97672772D01*
X100183519Y-97639288D01*
X100253210Y-97644272D01*
X100309144Y-97686143D01*
X100333562Y-97751607D01*
X100329653Y-97792546D01*
X100319500Y-97830438D01*
X100319500Y-97909562D01*
X100327926Y-97941007D01*
X100339979Y-97985990D01*
X100339982Y-97985995D01*
X100379535Y-98054504D01*
X100379539Y-98054509D01*
X100379540Y-98054511D01*
X100435489Y-98110460D01*
X100435491Y-98110461D01*
X100435495Y-98110464D01*
X100504004Y-98150017D01*
X100504011Y-98150021D01*
X100580438Y-98170500D01*
X100580440Y-98170500D01*
X100659560Y-98170500D01*
X100659562Y-98170500D01*
X100735989Y-98150021D01*
X100804511Y-98110460D01*
X100860460Y-98054511D01*
X100900021Y-97985989D01*
X100920500Y-97909562D01*
X100920500Y-97830438D01*
X100900021Y-97754011D01*
X100880653Y-97720464D01*
X100856397Y-97678450D01*
X100857758Y-97677663D01*
X100835915Y-97621174D01*
X100849948Y-97552729D01*
X100871801Y-97523169D01*
X100920460Y-97474511D01*
X100960021Y-97405989D01*
X100974906Y-97350438D01*
X101439500Y-97350438D01*
X101439500Y-97429562D01*
X101447533Y-97459540D01*
X101459979Y-97505990D01*
X101459982Y-97505995D01*
X101499535Y-97574504D01*
X101499539Y-97574509D01*
X101499540Y-97574511D01*
X101555489Y-97630460D01*
X101555491Y-97630461D01*
X101555495Y-97630464D01*
X101607414Y-97660439D01*
X101624011Y-97670021D01*
X101700438Y-97690500D01*
X101700440Y-97690500D01*
X101779560Y-97690500D01*
X101779562Y-97690500D01*
X101855989Y-97670021D01*
X101924511Y-97630460D01*
X101980460Y-97574511D01*
X102020021Y-97505989D01*
X102040500Y-97429562D01*
X102040500Y-97350438D01*
X102020021Y-97274011D01*
X102000120Y-97239541D01*
X101980464Y-97205495D01*
X101980458Y-97205487D01*
X101924512Y-97149541D01*
X101924504Y-97149535D01*
X101855995Y-97109982D01*
X101855990Y-97109979D01*
X101830513Y-97103152D01*
X101779562Y-97089500D01*
X101700438Y-97089500D01*
X101662224Y-97099739D01*
X101624009Y-97109979D01*
X101624004Y-97109982D01*
X101555495Y-97149535D01*
X101555487Y-97149541D01*
X101499541Y-97205487D01*
X101499535Y-97205495D01*
X101459982Y-97274004D01*
X101459979Y-97274009D01*
X101454224Y-97295487D01*
X101439500Y-97350438D01*
X100974906Y-97350438D01*
X100980500Y-97329562D01*
X100980500Y-97250438D01*
X100960021Y-97174011D01*
X100960017Y-97174004D01*
X100920464Y-97105495D01*
X100920458Y-97105487D01*
X100864512Y-97049541D01*
X100864504Y-97049535D01*
X100795995Y-97009982D01*
X100795990Y-97009979D01*
X100770513Y-97003152D01*
X100719562Y-96989500D01*
X100640438Y-96989500D01*
X100602224Y-96999739D01*
X100564009Y-97009979D01*
X100564004Y-97009982D01*
X100495495Y-97049535D01*
X100495487Y-97049541D01*
X100439541Y-97105487D01*
X100439535Y-97105495D01*
X100399982Y-97174004D01*
X100399979Y-97174009D01*
X100379500Y-97250439D01*
X100379500Y-97264064D01*
X100359815Y-97331103D01*
X100307011Y-97376858D01*
X100237853Y-97386802D01*
X100174297Y-97357777D01*
X100148113Y-97326064D01*
X100130462Y-97295492D01*
X100130458Y-97295487D01*
X100074512Y-97239541D01*
X100074504Y-97239535D01*
X100005995Y-97199982D01*
X100005990Y-97199979D01*
X99980513Y-97193152D01*
X99929562Y-97179500D01*
X99850438Y-97179500D01*
X99812224Y-97189739D01*
X99774009Y-97199979D01*
X99774004Y-97199982D01*
X99705495Y-97239535D01*
X99705487Y-97239541D01*
X99649541Y-97295487D01*
X99649535Y-97295495D01*
X99609982Y-97364004D01*
X99609979Y-97364009D01*
X99598729Y-97405995D01*
X99589500Y-97440438D01*
X98333317Y-97440438D01*
X98330460Y-97435489D01*
X98274511Y-97379540D01*
X98274509Y-97379539D01*
X98274504Y-97379535D01*
X98205995Y-97339982D01*
X98205990Y-97339979D01*
X98167113Y-97329562D01*
X98129562Y-97319500D01*
X98050438Y-97319500D01*
X98012894Y-97329560D01*
X97974009Y-97339979D01*
X97974004Y-97339982D01*
X97905495Y-97379535D01*
X97905487Y-97379541D01*
X97849541Y-97435487D01*
X97849535Y-97435495D01*
X97809982Y-97504004D01*
X97809979Y-97504009D01*
X97805812Y-97519562D01*
X97789500Y-97580438D01*
X95477958Y-97580438D01*
X95471944Y-97570021D01*
X95440464Y-97515495D01*
X95440458Y-97515487D01*
X95384512Y-97459541D01*
X95384504Y-97459535D01*
X95315995Y-97419982D01*
X95315990Y-97419979D01*
X95290513Y-97413152D01*
X95239562Y-97399500D01*
X95160438Y-97399500D01*
X95122224Y-97409739D01*
X95084009Y-97419979D01*
X95084004Y-97419982D01*
X95015495Y-97459535D01*
X95015487Y-97459541D01*
X94959541Y-97515487D01*
X94959535Y-97515495D01*
X94919982Y-97584004D01*
X94919979Y-97584009D01*
X94910021Y-97621174D01*
X94899500Y-97660438D01*
X94100500Y-97660438D01*
X94100500Y-96320438D01*
X95369500Y-96320438D01*
X95369500Y-96399562D01*
X95383152Y-96450513D01*
X95389979Y-96475990D01*
X95389982Y-96475995D01*
X95429535Y-96544504D01*
X95429539Y-96544509D01*
X95429540Y-96544511D01*
X95485489Y-96600460D01*
X95485491Y-96600461D01*
X95485495Y-96600464D01*
X95520199Y-96620500D01*
X95554011Y-96640021D01*
X95630438Y-96660500D01*
X95630440Y-96660500D01*
X95709560Y-96660500D01*
X95709562Y-96660500D01*
X95785989Y-96640021D01*
X95854511Y-96600460D01*
X95910460Y-96544511D01*
X95950021Y-96475989D01*
X95970500Y-96399562D01*
X95970500Y-96320438D01*
X95957102Y-96270438D01*
X96749500Y-96270438D01*
X96749500Y-96349562D01*
X96762897Y-96399560D01*
X96769979Y-96425990D01*
X96769982Y-96425995D01*
X96809535Y-96494504D01*
X96809539Y-96494509D01*
X96809540Y-96494511D01*
X96865489Y-96550460D01*
X96865491Y-96550461D01*
X96865495Y-96550464D01*
X96934004Y-96590017D01*
X96934011Y-96590021D01*
X97010438Y-96610500D01*
X97010440Y-96610500D01*
X97089560Y-96610500D01*
X97089562Y-96610500D01*
X97165989Y-96590021D01*
X97234511Y-96550460D01*
X97290460Y-96494511D01*
X97330021Y-96425989D01*
X97350500Y-96349562D01*
X97350500Y-96330438D01*
X98429500Y-96330438D01*
X98429500Y-96409562D01*
X98436582Y-96435990D01*
X98449979Y-96485990D01*
X98449982Y-96485995D01*
X98489535Y-96554504D01*
X98489539Y-96554509D01*
X98489540Y-96554511D01*
X98545489Y-96610460D01*
X98545491Y-96610461D01*
X98545495Y-96610464D01*
X98596690Y-96640021D01*
X98614011Y-96650021D01*
X98690438Y-96670500D01*
X98690440Y-96670500D01*
X98769560Y-96670500D01*
X98769562Y-96670500D01*
X98845989Y-96650021D01*
X98914511Y-96610460D01*
X98970460Y-96554511D01*
X99010021Y-96485989D01*
X99030500Y-96409562D01*
X99030500Y-96330438D01*
X99023524Y-96304403D01*
X99023524Y-96304401D01*
X99017103Y-96280438D01*
X100379500Y-96280438D01*
X100379500Y-96359562D01*
X100382355Y-96370215D01*
X100399979Y-96435990D01*
X100399982Y-96435995D01*
X100439535Y-96504504D01*
X100439539Y-96504509D01*
X100439540Y-96504511D01*
X100495489Y-96560460D01*
X100495491Y-96560461D01*
X100495495Y-96560464D01*
X100546690Y-96590021D01*
X100564011Y-96600021D01*
X100640438Y-96620500D01*
X100640440Y-96620500D01*
X100719560Y-96620500D01*
X100719562Y-96620500D01*
X100795989Y-96600021D01*
X100864511Y-96560460D01*
X100920460Y-96504511D01*
X100960021Y-96435989D01*
X100966867Y-96410438D01*
X101529500Y-96410438D01*
X101529500Y-96489562D01*
X101533504Y-96504504D01*
X101549979Y-96565990D01*
X101549982Y-96565995D01*
X101589535Y-96634504D01*
X101589539Y-96634509D01*
X101589540Y-96634511D01*
X101645489Y-96690460D01*
X101645491Y-96690461D01*
X101645495Y-96690464D01*
X101714004Y-96730017D01*
X101714011Y-96730021D01*
X101790438Y-96750500D01*
X101790440Y-96750500D01*
X101869560Y-96750500D01*
X101869562Y-96750500D01*
X101945989Y-96730021D01*
X102014511Y-96690460D01*
X102070460Y-96634511D01*
X102110021Y-96565989D01*
X102130500Y-96489562D01*
X102130500Y-96410438D01*
X102110021Y-96334011D01*
X102092926Y-96304401D01*
X102070464Y-96265495D01*
X102070458Y-96265487D01*
X102014512Y-96209541D01*
X102014504Y-96209535D01*
X101945995Y-96169982D01*
X101945990Y-96169979D01*
X101907169Y-96159577D01*
X101869562Y-96149500D01*
X101790438Y-96149500D01*
X101752831Y-96159577D01*
X101714009Y-96169979D01*
X101714004Y-96169982D01*
X101645495Y-96209535D01*
X101645487Y-96209541D01*
X101589541Y-96265487D01*
X101589535Y-96265495D01*
X101549982Y-96334004D01*
X101549979Y-96334009D01*
X101536326Y-96384962D01*
X101529500Y-96410438D01*
X100966867Y-96410438D01*
X100969782Y-96399560D01*
X100977646Y-96370215D01*
X100978628Y-96366547D01*
X100980500Y-96359562D01*
X100980500Y-96280438D01*
X100960021Y-96204011D01*
X100954246Y-96194008D01*
X100920464Y-96135495D01*
X100920458Y-96135487D01*
X100864512Y-96079541D01*
X100864504Y-96079535D01*
X100795995Y-96039982D01*
X100795990Y-96039979D01*
X100756426Y-96029378D01*
X100719562Y-96019500D01*
X100640438Y-96019500D01*
X100603574Y-96029378D01*
X100564009Y-96039979D01*
X100564004Y-96039982D01*
X100495495Y-96079535D01*
X100495487Y-96079541D01*
X100439541Y-96135487D01*
X100439535Y-96135495D01*
X100399982Y-96204004D01*
X100399979Y-96204009D01*
X100398497Y-96209540D01*
X100379500Y-96280438D01*
X99017103Y-96280438D01*
X99010022Y-96254015D01*
X99010021Y-96254011D01*
X99004246Y-96244009D01*
X98970464Y-96185495D01*
X98970458Y-96185487D01*
X98914512Y-96129541D01*
X98914504Y-96129535D01*
X98845995Y-96089982D01*
X98845990Y-96089979D01*
X98820321Y-96083101D01*
X98769562Y-96069500D01*
X98690438Y-96069500D01*
X98652988Y-96079535D01*
X98614009Y-96089979D01*
X98614004Y-96089982D01*
X98545495Y-96129535D01*
X98545487Y-96129541D01*
X98489541Y-96185487D01*
X98489535Y-96185495D01*
X98449982Y-96254004D01*
X98449979Y-96254009D01*
X98442897Y-96280439D01*
X98429500Y-96330438D01*
X97350500Y-96330438D01*
X97350500Y-96270438D01*
X97330021Y-96194011D01*
X97290460Y-96125489D01*
X97290459Y-96125488D01*
X97286432Y-96118513D01*
X97269959Y-96050613D01*
X97283864Y-96010438D01*
X104529500Y-96010438D01*
X104529500Y-96089562D01*
X104540211Y-96129535D01*
X104549979Y-96165990D01*
X104549982Y-96165995D01*
X104589535Y-96234504D01*
X104589539Y-96234509D01*
X104589540Y-96234511D01*
X104645489Y-96290460D01*
X104645491Y-96290461D01*
X104645495Y-96290464D01*
X104697414Y-96320439D01*
X104714011Y-96330021D01*
X104790438Y-96350500D01*
X104790440Y-96350500D01*
X104869560Y-96350500D01*
X104869562Y-96350500D01*
X104945989Y-96330021D01*
X105014511Y-96290460D01*
X105070460Y-96234511D01*
X105110021Y-96165989D01*
X105110023Y-96165978D01*
X105112676Y-96159577D01*
X105156513Y-96105171D01*
X105222805Y-96083101D01*
X105290506Y-96100376D01*
X105338120Y-96151510D01*
X105347014Y-96174924D01*
X105349844Y-96185487D01*
X105349979Y-96185988D01*
X105349982Y-96185995D01*
X105389535Y-96254504D01*
X105389539Y-96254509D01*
X105389540Y-96254511D01*
X105445489Y-96310460D01*
X105445491Y-96310461D01*
X105445495Y-96310464D01*
X105513216Y-96349562D01*
X105514011Y-96350021D01*
X105590438Y-96370500D01*
X105590440Y-96370500D01*
X105669560Y-96370500D01*
X105669562Y-96370500D01*
X105745989Y-96350021D01*
X105814511Y-96310460D01*
X105870460Y-96254511D01*
X105910021Y-96185989D01*
X105930500Y-96109562D01*
X105930500Y-96030438D01*
X105910021Y-95954011D01*
X105887216Y-95914511D01*
X105870464Y-95885495D01*
X105870458Y-95885487D01*
X105814512Y-95829541D01*
X105814504Y-95829535D01*
X105745995Y-95789982D01*
X105745990Y-95789979D01*
X105720513Y-95783152D01*
X105669562Y-95769500D01*
X105590438Y-95769500D01*
X105552224Y-95779739D01*
X105514009Y-95789979D01*
X105514004Y-95789982D01*
X105445495Y-95829535D01*
X105445487Y-95829541D01*
X105389541Y-95885487D01*
X105389535Y-95885495D01*
X105349978Y-95954010D01*
X105347319Y-95960431D01*
X105303477Y-96014834D01*
X105237183Y-96036898D01*
X105169484Y-96019618D01*
X105121874Y-95968480D01*
X105112985Y-95945076D01*
X105110021Y-95934011D01*
X105098763Y-95914511D01*
X105070464Y-95865495D01*
X105070458Y-95865487D01*
X105014512Y-95809541D01*
X105014504Y-95809535D01*
X104945995Y-95769982D01*
X104945990Y-95769979D01*
X104920513Y-95763152D01*
X104869562Y-95749500D01*
X104790438Y-95749500D01*
X104752224Y-95759739D01*
X104714009Y-95769979D01*
X104714004Y-95769982D01*
X104645495Y-95809535D01*
X104645487Y-95809541D01*
X104589541Y-95865487D01*
X104589535Y-95865495D01*
X104549982Y-95934004D01*
X104549979Y-95934009D01*
X104540743Y-95968480D01*
X104529500Y-96010438D01*
X97283864Y-96010438D01*
X97292811Y-95984586D01*
X97306127Y-95968843D01*
X97360460Y-95914511D01*
X97400021Y-95845989D01*
X97420500Y-95769562D01*
X97420500Y-95690438D01*
X97400021Y-95614011D01*
X97369559Y-95561249D01*
X97360464Y-95545495D01*
X97360458Y-95545487D01*
X97304512Y-95489541D01*
X97304504Y-95489535D01*
X97235995Y-95449982D01*
X97235990Y-95449979D01*
X97210513Y-95443152D01*
X97159562Y-95429500D01*
X97080438Y-95429500D01*
X97036475Y-95441279D01*
X97009186Y-95448592D01*
X97009185Y-95448592D01*
X97004011Y-95449979D01*
X96935489Y-95489540D01*
X96879540Y-95545489D01*
X96870441Y-95561247D01*
X96870440Y-95561249D01*
X96839979Y-95614010D01*
X96839979Y-95614011D01*
X96819500Y-95690438D01*
X96819500Y-95769562D01*
X96819612Y-95769979D01*
X96839979Y-95845990D01*
X96839980Y-95845991D01*
X96883567Y-95921486D01*
X96900040Y-95989386D01*
X96877187Y-96055413D01*
X96863862Y-96071167D01*
X96809538Y-96125491D01*
X96809535Y-96125495D01*
X96769982Y-96194004D01*
X96769979Y-96194009D01*
X96756583Y-96244004D01*
X96749500Y-96270438D01*
X95957102Y-96270438D01*
X95950021Y-96244011D01*
X95930120Y-96209541D01*
X95910464Y-96175495D01*
X95910458Y-96175487D01*
X95854512Y-96119541D01*
X95854504Y-96119535D01*
X95785995Y-96079982D01*
X95785990Y-96079979D01*
X95753103Y-96071167D01*
X95709562Y-96059500D01*
X95630438Y-96059500D01*
X95593118Y-96069500D01*
X95554009Y-96079979D01*
X95554004Y-96079982D01*
X95485495Y-96119535D01*
X95485487Y-96119541D01*
X95429541Y-96175487D01*
X95429535Y-96175495D01*
X95389982Y-96244004D01*
X95389979Y-96244009D01*
X95382897Y-96270439D01*
X95369500Y-96320438D01*
X94100500Y-96320438D01*
X94100500Y-95050438D01*
X96299500Y-95050438D01*
X96299500Y-95129562D01*
X96310458Y-95170458D01*
X96319979Y-95205990D01*
X96319982Y-95205995D01*
X96359535Y-95274504D01*
X96359539Y-95274509D01*
X96359540Y-95274511D01*
X96415489Y-95330460D01*
X96415491Y-95330461D01*
X96415495Y-95330464D01*
X96484004Y-95370017D01*
X96484011Y-95370021D01*
X96560438Y-95390500D01*
X96560440Y-95390500D01*
X96639560Y-95390500D01*
X96639562Y-95390500D01*
X96715989Y-95370021D01*
X96784511Y-95330460D01*
X96840460Y-95274511D01*
X96880021Y-95205989D01*
X96900500Y-95129562D01*
X96900500Y-95110438D01*
X97509500Y-95110438D01*
X97509500Y-95189562D01*
X97514981Y-95210017D01*
X97529979Y-95265990D01*
X97529982Y-95265995D01*
X97569535Y-95334504D01*
X97569539Y-95334509D01*
X97569540Y-95334511D01*
X97625489Y-95390460D01*
X97625491Y-95390461D01*
X97625495Y-95390464D01*
X97693109Y-95429500D01*
X97694011Y-95430021D01*
X97770438Y-95450500D01*
X97770440Y-95450500D01*
X97849560Y-95450500D01*
X97849562Y-95450500D01*
X97925989Y-95430021D01*
X97994511Y-95390460D01*
X98050460Y-95334511D01*
X98090021Y-95265989D01*
X98110500Y-95189562D01*
X98110500Y-95110438D01*
X98090021Y-95034011D01*
X98090017Y-95034004D01*
X98050464Y-94965495D01*
X98050458Y-94965487D01*
X97994512Y-94909541D01*
X97994504Y-94909535D01*
X97961426Y-94890438D01*
X105839500Y-94890438D01*
X105839500Y-94969562D01*
X105853152Y-95020513D01*
X105859979Y-95045990D01*
X105859982Y-95045995D01*
X105899535Y-95114504D01*
X105899539Y-95114509D01*
X105899540Y-95114511D01*
X105955489Y-95170460D01*
X105955491Y-95170461D01*
X105955495Y-95170464D01*
X106017027Y-95205989D01*
X106024011Y-95210021D01*
X106100438Y-95230500D01*
X106100440Y-95230500D01*
X106179560Y-95230500D01*
X106179562Y-95230500D01*
X106255989Y-95210021D01*
X106324511Y-95170460D01*
X106380460Y-95114511D01*
X106420021Y-95045989D01*
X106440500Y-94969562D01*
X106440500Y-94890438D01*
X106420021Y-94814011D01*
X106405870Y-94789500D01*
X106380464Y-94745495D01*
X106380458Y-94745487D01*
X106324512Y-94689541D01*
X106324504Y-94689535D01*
X106255995Y-94649982D01*
X106255990Y-94649979D01*
X106230513Y-94643152D01*
X106179562Y-94629500D01*
X106100438Y-94629500D01*
X106062224Y-94639739D01*
X106024009Y-94649979D01*
X106024004Y-94649982D01*
X105955495Y-94689535D01*
X105955487Y-94689541D01*
X105899541Y-94745487D01*
X105899535Y-94745495D01*
X105859982Y-94814004D01*
X105859979Y-94814009D01*
X105846326Y-94864962D01*
X105839500Y-94890438D01*
X97961426Y-94890438D01*
X97925995Y-94869982D01*
X97925990Y-94869979D01*
X97900513Y-94863152D01*
X97849562Y-94849500D01*
X97770438Y-94849500D01*
X97732224Y-94859739D01*
X97694009Y-94869979D01*
X97694004Y-94869982D01*
X97625495Y-94909535D01*
X97625487Y-94909541D01*
X97569541Y-94965487D01*
X97569535Y-94965495D01*
X97529982Y-95034004D01*
X97529979Y-95034009D01*
X97525577Y-95050438D01*
X97509500Y-95110438D01*
X96900500Y-95110438D01*
X96900500Y-95050438D01*
X96880021Y-94974011D01*
X96875100Y-94965487D01*
X96840464Y-94905495D01*
X96840458Y-94905487D01*
X96784512Y-94849541D01*
X96784504Y-94849535D01*
X96715995Y-94809982D01*
X96715990Y-94809979D01*
X96690513Y-94803152D01*
X96639562Y-94789500D01*
X96560438Y-94789500D01*
X96522224Y-94799739D01*
X96484009Y-94809979D01*
X96484004Y-94809982D01*
X96415495Y-94849535D01*
X96415487Y-94849541D01*
X96359541Y-94905487D01*
X96359535Y-94905495D01*
X96319982Y-94974004D01*
X96319979Y-94974009D01*
X96306326Y-95024962D01*
X96299500Y-95050438D01*
X94100500Y-95050438D01*
X94100500Y-92906379D01*
X95239500Y-92906379D01*
X95239500Y-93093620D01*
X95276025Y-93277243D01*
X95276027Y-93277251D01*
X95347676Y-93450228D01*
X95347681Y-93450237D01*
X95451697Y-93605907D01*
X95451700Y-93605911D01*
X95584088Y-93738299D01*
X95584092Y-93738302D01*
X95739762Y-93842318D01*
X95739768Y-93842321D01*
X95739769Y-93842322D01*
X95912749Y-93913973D01*
X96096173Y-93950458D01*
X96096379Y-93950499D01*
X96096383Y-93950500D01*
X96096384Y-93950500D01*
X96283617Y-93950500D01*
X96283618Y-93950499D01*
X96467251Y-93913973D01*
X96640231Y-93842322D01*
X96795908Y-93738302D01*
X96928302Y-93605908D01*
X97032322Y-93450231D01*
X97103973Y-93277251D01*
X97140500Y-93093616D01*
X97140500Y-92906384D01*
X97140499Y-92906379D01*
X97779500Y-92906379D01*
X97779500Y-93093620D01*
X97816025Y-93277243D01*
X97816027Y-93277251D01*
X97887676Y-93450228D01*
X97887681Y-93450237D01*
X97991697Y-93605907D01*
X97991700Y-93605911D01*
X98124088Y-93738299D01*
X98124092Y-93738302D01*
X98279762Y-93842318D01*
X98279768Y-93842321D01*
X98279769Y-93842322D01*
X98452749Y-93913973D01*
X98636173Y-93950458D01*
X98636379Y-93950499D01*
X98636383Y-93950500D01*
X98636384Y-93950500D01*
X98823617Y-93950500D01*
X98823618Y-93950499D01*
X99007251Y-93913973D01*
X99180231Y-93842322D01*
X99335908Y-93738302D01*
X99468302Y-93605908D01*
X99572322Y-93450231D01*
X99643973Y-93277251D01*
X99680500Y-93093616D01*
X99680500Y-92906384D01*
X99680499Y-92906379D01*
X100319500Y-92906379D01*
X100319500Y-93093620D01*
X100356025Y-93277243D01*
X100356027Y-93277251D01*
X100427676Y-93450228D01*
X100427681Y-93450237D01*
X100531697Y-93605907D01*
X100531700Y-93605911D01*
X100664088Y-93738299D01*
X100664092Y-93738302D01*
X100819762Y-93842318D01*
X100819768Y-93842321D01*
X100819769Y-93842322D01*
X100992749Y-93913973D01*
X101176173Y-93950458D01*
X101176379Y-93950499D01*
X101176383Y-93950500D01*
X101176384Y-93950500D01*
X101363617Y-93950500D01*
X101363618Y-93950499D01*
X101547251Y-93913973D01*
X101720231Y-93842322D01*
X101875908Y-93738302D01*
X101943772Y-93670438D01*
X104869500Y-93670438D01*
X104869500Y-93749562D01*
X104870840Y-93754562D01*
X104889979Y-93825990D01*
X104889982Y-93825995D01*
X104929535Y-93894504D01*
X104929539Y-93894509D01*
X104929540Y-93894511D01*
X104985489Y-93950460D01*
X104985491Y-93950461D01*
X104985495Y-93950464D01*
X105053431Y-93989686D01*
X105054011Y-93990021D01*
X105130438Y-94010500D01*
X105130440Y-94010500D01*
X105209560Y-94010500D01*
X105209562Y-94010500D01*
X105285989Y-93990021D01*
X105354511Y-93950460D01*
X105410460Y-93894511D01*
X105450021Y-93825989D01*
X105470500Y-93749562D01*
X105470500Y-93675438D01*
X106399500Y-93675438D01*
X106399500Y-93754562D01*
X106413152Y-93805513D01*
X106419979Y-93830990D01*
X106419982Y-93830995D01*
X106459535Y-93899504D01*
X106459539Y-93899509D01*
X106459540Y-93899511D01*
X106515489Y-93955460D01*
X106515491Y-93955461D01*
X106515495Y-93955464D01*
X106582142Y-93993942D01*
X106584011Y-93995021D01*
X106660438Y-94015500D01*
X106660440Y-94015500D01*
X106739560Y-94015500D01*
X106739562Y-94015500D01*
X106815989Y-93995021D01*
X106884511Y-93955460D01*
X106940460Y-93899511D01*
X106980021Y-93830989D01*
X107000500Y-93754562D01*
X107000500Y-93675438D01*
X106980021Y-93599011D01*
X106976793Y-93593420D01*
X106940464Y-93530495D01*
X106940458Y-93530487D01*
X106884512Y-93474541D01*
X106884504Y-93474535D01*
X106815995Y-93434982D01*
X106815990Y-93434979D01*
X106810750Y-93433575D01*
X106800457Y-93430817D01*
X107349500Y-93430817D01*
X107349500Y-93569183D01*
X107376632Y-93670439D01*
X107385312Y-93702835D01*
X107385313Y-93702838D01*
X107454492Y-93822661D01*
X107454494Y-93822664D01*
X107454495Y-93822665D01*
X107552335Y-93920505D01*
X107672164Y-93989688D01*
X107688043Y-93993942D01*
X107747702Y-94030307D01*
X107778232Y-94093153D01*
X107769938Y-94162529D01*
X107743631Y-94201397D01*
X107709541Y-94235487D01*
X107709535Y-94235495D01*
X107669982Y-94304004D01*
X107669979Y-94304009D01*
X107656326Y-94354962D01*
X107649500Y-94380438D01*
X107649500Y-94459562D01*
X107663152Y-94510513D01*
X107669979Y-94535990D01*
X107669982Y-94535995D01*
X107709535Y-94604504D01*
X107709539Y-94604509D01*
X107709540Y-94604511D01*
X107765489Y-94660460D01*
X107765491Y-94660461D01*
X107765495Y-94660464D01*
X107815857Y-94689540D01*
X107834011Y-94700021D01*
X107910438Y-94720500D01*
X107910440Y-94720500D01*
X107989560Y-94720500D01*
X107989562Y-94720500D01*
X108065989Y-94700021D01*
X108134511Y-94660460D01*
X108190460Y-94604511D01*
X108230021Y-94535989D01*
X108250500Y-94459562D01*
X108250500Y-94380438D01*
X108230021Y-94304011D01*
X108230017Y-94304004D01*
X108190464Y-94235495D01*
X108190458Y-94235487D01*
X108134512Y-94179541D01*
X108134511Y-94179540D01*
X108127756Y-94175640D01*
X108079541Y-94125072D01*
X108066319Y-94056465D01*
X108092287Y-93991600D01*
X108127755Y-93960866D01*
X108197665Y-93920505D01*
X108295505Y-93822665D01*
X108364688Y-93702836D01*
X108400500Y-93569183D01*
X108400500Y-93430817D01*
X111599500Y-93430817D01*
X111599500Y-93569183D01*
X111626632Y-93670439D01*
X111635312Y-93702835D01*
X111635313Y-93702838D01*
X111704492Y-93822661D01*
X111704494Y-93822664D01*
X111704495Y-93822665D01*
X111802335Y-93920505D01*
X111922164Y-93989688D01*
X112055817Y-94025500D01*
X112055819Y-94025500D01*
X112194181Y-94025500D01*
X112194183Y-94025500D01*
X112327836Y-93989688D01*
X112447665Y-93920505D01*
X112545505Y-93822665D01*
X112614688Y-93702836D01*
X112650500Y-93569183D01*
X112650500Y-93430817D01*
X112614688Y-93297164D01*
X112553387Y-93190987D01*
X112545507Y-93177338D01*
X112545503Y-93177333D01*
X112447666Y-93079496D01*
X112447661Y-93079492D01*
X112327838Y-93010313D01*
X112327837Y-93010312D01*
X112327836Y-93010312D01*
X112194183Y-92974500D01*
X112055817Y-92974500D01*
X111922164Y-93010312D01*
X111922161Y-93010313D01*
X111802338Y-93079492D01*
X111802333Y-93079496D01*
X111704496Y-93177333D01*
X111704492Y-93177338D01*
X111635313Y-93297161D01*
X111635312Y-93297164D01*
X111599500Y-93430817D01*
X108400500Y-93430817D01*
X108364688Y-93297164D01*
X108303387Y-93190987D01*
X108295507Y-93177338D01*
X108295503Y-93177333D01*
X108197666Y-93079496D01*
X108197661Y-93079492D01*
X108077838Y-93010313D01*
X108077837Y-93010312D01*
X108077836Y-93010312D01*
X107944183Y-92974500D01*
X107805817Y-92974500D01*
X107672164Y-93010312D01*
X107672161Y-93010313D01*
X107552338Y-93079492D01*
X107552333Y-93079496D01*
X107454496Y-93177333D01*
X107454492Y-93177338D01*
X107385313Y-93297161D01*
X107385312Y-93297164D01*
X107349500Y-93430817D01*
X106800457Y-93430817D01*
X106739562Y-93414500D01*
X106660438Y-93414500D01*
X106596995Y-93431500D01*
X106596993Y-93431500D01*
X106584015Y-93434977D01*
X106584004Y-93434982D01*
X106515495Y-93474535D01*
X106515487Y-93474541D01*
X106459541Y-93530487D01*
X106459535Y-93530495D01*
X106419982Y-93599004D01*
X106419979Y-93599009D01*
X106418130Y-93605910D01*
X106399500Y-93675438D01*
X105470500Y-93675438D01*
X105470500Y-93670438D01*
X105450021Y-93594011D01*
X105435686Y-93569182D01*
X105410464Y-93525495D01*
X105410458Y-93525487D01*
X105354512Y-93469541D01*
X105354504Y-93469535D01*
X105285995Y-93429982D01*
X105285990Y-93429979D01*
X105260513Y-93423152D01*
X105209562Y-93409500D01*
X105130438Y-93409500D01*
X105092224Y-93419739D01*
X105054009Y-93429979D01*
X105054004Y-93429982D01*
X104985495Y-93469535D01*
X104985487Y-93469541D01*
X104929541Y-93525487D01*
X104929535Y-93525495D01*
X104889982Y-93594004D01*
X104889979Y-93594009D01*
X104886790Y-93605911D01*
X104869500Y-93670438D01*
X101943772Y-93670438D01*
X102008302Y-93605908D01*
X102112322Y-93450231D01*
X102183973Y-93277251D01*
X102220500Y-93093616D01*
X102220500Y-92906384D01*
X102211361Y-92860438D01*
X106399500Y-92860438D01*
X106399500Y-92939562D01*
X106408862Y-92974500D01*
X106419979Y-93015990D01*
X106419982Y-93015995D01*
X106459535Y-93084504D01*
X106459539Y-93084509D01*
X106459540Y-93084511D01*
X106515489Y-93140460D01*
X106515491Y-93140461D01*
X106515495Y-93140464D01*
X106579355Y-93177333D01*
X106584011Y-93180021D01*
X106584015Y-93180022D01*
X106596993Y-93183500D01*
X106596995Y-93183500D01*
X106660438Y-93200500D01*
X106739562Y-93200500D01*
X106815989Y-93180021D01*
X106884511Y-93140460D01*
X106940460Y-93084511D01*
X106980021Y-93015989D01*
X107000500Y-92939562D01*
X107000500Y-92860438D01*
X106980021Y-92784011D01*
X106944651Y-92722748D01*
X106940464Y-92715495D01*
X106940458Y-92715487D01*
X106884512Y-92659541D01*
X106884504Y-92659535D01*
X106815995Y-92619982D01*
X106815990Y-92619979D01*
X106790513Y-92613152D01*
X106739562Y-92599500D01*
X106660438Y-92599500D01*
X106622224Y-92609739D01*
X106584009Y-92619979D01*
X106584004Y-92619982D01*
X106515495Y-92659535D01*
X106515487Y-92659541D01*
X106459541Y-92715487D01*
X106459535Y-92715495D01*
X106419982Y-92784004D01*
X106419979Y-92784009D01*
X106406326Y-92834962D01*
X106399500Y-92860438D01*
X102211361Y-92860438D01*
X102183973Y-92722749D01*
X102112322Y-92549769D01*
X102112321Y-92549768D01*
X102112318Y-92549762D01*
X102008302Y-92394092D01*
X102008299Y-92394088D01*
X101875911Y-92261700D01*
X101875907Y-92261697D01*
X101720237Y-92157681D01*
X101720228Y-92157676D01*
X101547251Y-92086027D01*
X101547243Y-92086025D01*
X101363620Y-92049500D01*
X101363616Y-92049500D01*
X101176384Y-92049500D01*
X101176379Y-92049500D01*
X100992756Y-92086025D01*
X100992748Y-92086027D01*
X100819771Y-92157676D01*
X100819762Y-92157681D01*
X100664092Y-92261697D01*
X100664088Y-92261700D01*
X100531700Y-92394088D01*
X100531697Y-92394092D01*
X100427681Y-92549762D01*
X100427676Y-92549771D01*
X100356027Y-92722748D01*
X100356025Y-92722756D01*
X100319500Y-92906379D01*
X99680499Y-92906379D01*
X99643973Y-92722749D01*
X99572322Y-92549769D01*
X99572321Y-92549768D01*
X99572318Y-92549762D01*
X99468302Y-92394092D01*
X99468299Y-92394088D01*
X99335911Y-92261700D01*
X99335907Y-92261697D01*
X99180237Y-92157681D01*
X99180228Y-92157676D01*
X99007251Y-92086027D01*
X99007243Y-92086025D01*
X98823620Y-92049500D01*
X98823616Y-92049500D01*
X98636384Y-92049500D01*
X98636379Y-92049500D01*
X98452756Y-92086025D01*
X98452748Y-92086027D01*
X98279771Y-92157676D01*
X98279762Y-92157681D01*
X98124092Y-92261697D01*
X98124088Y-92261700D01*
X97991700Y-92394088D01*
X97991697Y-92394092D01*
X97887681Y-92549762D01*
X97887676Y-92549771D01*
X97816027Y-92722748D01*
X97816025Y-92722756D01*
X97779500Y-92906379D01*
X97140499Y-92906379D01*
X97103973Y-92722749D01*
X97032322Y-92549769D01*
X97032321Y-92549768D01*
X97032318Y-92549762D01*
X96928302Y-92394092D01*
X96928299Y-92394088D01*
X96795911Y-92261700D01*
X96795907Y-92261697D01*
X96640237Y-92157681D01*
X96640228Y-92157676D01*
X96467251Y-92086027D01*
X96467243Y-92086025D01*
X96283620Y-92049500D01*
X96283616Y-92049500D01*
X96096384Y-92049500D01*
X96096379Y-92049500D01*
X95912756Y-92086025D01*
X95912748Y-92086027D01*
X95739771Y-92157676D01*
X95739762Y-92157681D01*
X95584092Y-92261697D01*
X95584088Y-92261700D01*
X95451700Y-92394088D01*
X95451697Y-92394092D01*
X95347681Y-92549762D01*
X95347676Y-92549771D01*
X95276027Y-92722748D01*
X95276025Y-92722756D01*
X95239500Y-92906379D01*
X94100500Y-92906379D01*
X94100500Y-91724500D01*
X94120185Y-91657461D01*
X94172989Y-91611706D01*
X94224500Y-91600500D01*
X114125500Y-91600500D01*
X114192539Y-91620185D01*
G37*
%TD.AperFunction*%
%TD*%
M02*
