%TF.GenerationSoftware,KiCad,Pcbnew,9.0.6-rc1*%
%TF.CreationDate,2025-12-13T16:16:27+01:00*%
%TF.ProjectId,hardware_V8,68617264-7761-4726-955f-56382e6b6963,rev?*%
%TF.SameCoordinates,Original*%
%TF.FileFunction,Copper,L3,Inr*%
%TF.FilePolarity,Positive*%
%FSLAX46Y46*%
G04 Gerber Fmt 4.6, Leading zero omitted, Abs format (unit mm)*
G04 Created by KiCad (PCBNEW 9.0.6-rc1) date 2025-12-13 16:16:27*
%MOMM*%
%LPD*%
G01*
G04 APERTURE LIST*
%TA.AperFunction,ComponentPad*%
%ADD10C,1.150000*%
%TD*%
%TA.AperFunction,ComponentPad*%
%ADD11C,1.100000*%
%TD*%
%TA.AperFunction,ComponentPad*%
%ADD12R,1.700000X1.700000*%
%TD*%
%TA.AperFunction,ComponentPad*%
%ADD13C,1.700000*%
%TD*%
%TA.AperFunction,ViaPad*%
%ADD14C,0.400000*%
%TD*%
%TA.AperFunction,Conductor*%
%ADD15C,0.120000*%
%TD*%
%TA.AperFunction,Conductor*%
%ADD16C,0.200000*%
%TD*%
G04 APERTURE END LIST*
D10*
%TO.N,Net-(IC4-RF_IN)*%
%TO.C,U3*%
X110200000Y-100600000D03*
%TD*%
D11*
%TO.N,GND*%
%TO.C,TP1*%
X113450000Y-105800000D03*
%TD*%
%TO.N,BAT+*%
%TO.C,TP2*%
X113450000Y-107450000D03*
%TD*%
D12*
%TO.N,GND*%
%TO.C,U4*%
X103810000Y-93000000D03*
D13*
%TO.N,3.3V_AUX*%
X101270000Y-93000000D03*
%TO.N,/OLED_SCL*%
X98730000Y-93000000D03*
%TO.N,/OLED_SDA*%
X96190000Y-93000000D03*
%TO.N,GND*%
X104500000Y-107000000D03*
X95500000Y-107000000D03*
%TD*%
D14*
%TO.N,GND*%
X109650000Y-101900000D03*
X110750000Y-102000000D03*
X109516343Y-101329803D03*
X109207180Y-100719615D03*
X109362568Y-100053458D03*
X109909801Y-99643034D03*
X110592820Y-99680385D03*
X111092035Y-100148034D03*
X111173857Y-100827163D03*
X110800000Y-101400000D03*
X110200000Y-96750000D03*
X111700000Y-97400000D03*
X111550000Y-98550000D03*
X110000000Y-98050000D03*
X108750000Y-97600000D03*
X108700000Y-96250000D03*
X107400000Y-97000000D03*
X107600000Y-98900000D03*
X107750000Y-100900000D03*
X108300000Y-102500000D03*
X109950000Y-103950000D03*
X108600000Y-104050000D03*
X107450000Y-103350000D03*
X106450000Y-100000000D03*
X106450000Y-95900000D03*
X112000000Y-96000000D03*
X112400000Y-104000000D03*
X112000000Y-103550000D03*
X111350000Y-103450000D03*
X110650000Y-103400000D03*
X110100000Y-103050000D03*
X109750000Y-102550000D03*
X112400000Y-101850000D03*
X111850000Y-102350000D03*
X111200000Y-102350000D03*
X112500000Y-105200000D03*
X114000000Y-106500000D03*
X94350000Y-108100000D03*
X111700000Y-104850000D03*
X111950000Y-105750000D03*
X108200000Y-105900000D03*
X101750000Y-94950000D03*
X94400000Y-103700000D03*
X94350000Y-103050000D03*
X95000000Y-102600000D03*
X101207500Y-104700000D03*
X95150000Y-95450000D03*
X94400000Y-95450000D03*
X99780000Y-108120000D03*
X105110000Y-100150000D03*
X105090000Y-99140000D03*
X106570000Y-103210000D03*
X105720000Y-99860000D03*
X105650000Y-98060000D03*
X105660000Y-97200000D03*
X103827500Y-95237500D03*
X105890000Y-93670000D03*
X105070000Y-92610000D03*
X107320000Y-94040000D03*
X106820000Y-94980000D03*
X108775000Y-94250000D03*
X111225000Y-94250000D03*
X112100000Y-94580000D03*
X113820000Y-94450000D03*
X113110000Y-91980000D03*
X111850000Y-92300000D03*
X108150000Y-92300000D03*
X106350000Y-91920000D03*
X94460000Y-91920000D03*
X97060000Y-92200000D03*
X99940000Y-93440000D03*
X99970000Y-92450000D03*
X102500000Y-93420000D03*
X102510000Y-92540000D03*
X98100000Y-106515000D03*
X98560000Y-105950000D03*
X97800000Y-105970000D03*
X103120000Y-107010000D03*
X100620000Y-103630000D03*
X94360000Y-96920000D03*
X95030000Y-96250000D03*
X94880000Y-93900000D03*
X94880000Y-93120000D03*
%TO.N,Net-(IC5-~{CHRG})*%
X94450000Y-106100000D03*
%TO.N,/GPS_TX*%
X105170000Y-93710000D03*
%TO.N,/GPS_RX*%
X106140000Y-94930000D03*
%TO.N,Net-(IC4-RXD)*%
X105630000Y-96070000D03*
%TO.N,Net-(IC4-TXD)*%
X104830000Y-96050000D03*
%TO.N,+3.3V*%
X106710000Y-107400000D03*
%TO.N,/GPIO_SUP*%
X95670000Y-96360000D03*
%TO.N,GND*%
X97390000Y-97140000D03*
%TO.N,vusb*%
X99890000Y-97480000D03*
%TO.N,+3.3V*%
X106700000Y-92900000D03*
%TO.N,Net-(J3-CC1)*%
X96700000Y-104492500D03*
%TO.N,GND*%
X98100000Y-105307500D03*
X99000000Y-105380000D03*
%TO.N,/B_PW*%
X98320000Y-102370000D03*
%TO.N,GND*%
X113327500Y-104037500D03*
X113327500Y-101837500D03*
%TO.N,3.3V_AUX*%
X103440000Y-106040000D03*
%TO.N,+3.3V*%
X102450000Y-104570000D03*
%TO.N,3.3V_AUX*%
X102160000Y-103590000D03*
X101480000Y-103600000D03*
%TO.N,Net-(U2-EN)*%
X105340000Y-106060000D03*
X102270000Y-107090000D03*
%TO.N,/SWCLK*%
X94600000Y-98500000D03*
%TO.N,/SWDIO*%
X95200000Y-97700000D03*
%TO.N,/SPI_CLK*%
X106090000Y-102450000D03*
%TO.N,/SPI_MOSI*%
X106100000Y-101450000D03*
%TO.N,/OLED_SCL*%
X97120000Y-95730000D03*
%TO.N,/OLED_SDA*%
X97050000Y-96310000D03*
%TO.N,3.3V_AUX*%
X96600000Y-95090000D03*
%TO.N,BAT+*%
X103450000Y-108160000D03*
X103000000Y-107680000D03*
%TO.N,+3.3V*%
X100310000Y-106780000D03*
X100030000Y-106050000D03*
X101750000Y-107420000D03*
%TO.N,/GPS_EXTINT*%
X105710000Y-99140000D03*
%TO.N,GND*%
X97117500Y-101870000D03*
X97117500Y-99430000D03*
X102340000Y-99892500D03*
X100960000Y-98510000D03*
%TO.N,+3.3V*%
X100620000Y-97870000D03*
X100680000Y-97290000D03*
%TO.N,/USB_DETECT*%
X100680000Y-96320000D03*
%TO.N,/GPS_EXTINT*%
X98730000Y-96370000D03*
%TO.N,vusb*%
X98010000Y-101430000D03*
%TO.N,Net-(J3-CC2)*%
X97810000Y-95150000D03*
%TO.N,Net-(U1-PH3)*%
X107950000Y-94420000D03*
%TO.N,+3.3V*%
X113825000Y-92900000D03*
%TO.N,/B1*%
X106700000Y-93715000D03*
%TO.N,/B_PW*%
X107220000Y-104720000D03*
%TO.N,GND*%
X108150000Y-107550000D03*
X111100000Y-107350000D03*
%TO.N,/ADC_BAT*%
X109660000Y-107210000D03*
%TO.N,/D+*%
X98630000Y-99170000D03*
%TO.N,/USB_DETECT*%
X96675000Y-100265000D03*
%TO.N,/ADC_BAT*%
X97980000Y-99940000D03*
%TO.N,/SPI_MOSI*%
X97590000Y-100310000D03*
%TO.N,/SPI_MISO*%
X97060000Y-101040000D03*
%TO.N,/SPI_CLK*%
X98745000Y-101415000D03*
%TO.N,/D-*%
X98090000Y-97620000D03*
%TO.N,/SPI_MISO*%
X101830000Y-96450000D03*
%TO.N,/SPI_CS*%
X101740000Y-97390000D03*
%TO.N,/AUX_EN*%
X101815000Y-102175000D03*
X101015000Y-108000000D03*
%TO.N,Net-(IC5-~{CHRG})*%
X99940000Y-107230000D03*
%TO.N,vusb*%
X96600000Y-107790000D03*
%TO.N,Net-(LEDBLUE1-A)*%
X97820000Y-108120000D03*
%TO.N,Net-(LEDGREEN1-A)*%
X99100000Y-108130000D03*
%TO.N,+3.3V*%
X95710000Y-103410000D03*
X96140000Y-102930000D03*
%TO.N,Net-(U1-PH3)*%
X95070000Y-101320000D03*
%TO.N,Net-(LEDBLUE1-A)*%
X94400000Y-102007500D03*
%TO.N,Net-(LEDGREEN1-A)*%
X94400000Y-100207500D03*
%TO.N,/GPIO_SUP*%
X95150000Y-99550000D03*
%TO.N,/B1*%
X95170000Y-98970000D03*
%TO.N,3.3V_AUX*%
X102720000Y-106040000D03*
%TD*%
D15*
%TO.N,Net-(LEDBLUE1-A)*%
X94850000Y-103000000D02*
X94400000Y-102550000D01*
X97100000Y-107700000D02*
X97100000Y-106820000D01*
X97100000Y-106820000D02*
X94850000Y-104570000D01*
X94850000Y-104570000D02*
X94850000Y-103000000D01*
X97520000Y-108120000D02*
X97100000Y-107700000D01*
X94400000Y-102550000D02*
X94400000Y-102007500D01*
X97820000Y-108120000D02*
X97520000Y-108120000D01*
%TO.N,Net-(LEDGREEN1-A)*%
X94400000Y-101330000D02*
X94400000Y-100207500D01*
X95250000Y-103350000D02*
X95450000Y-103150000D01*
X95450000Y-102380000D02*
X94400000Y-101330000D01*
X97390000Y-106840000D02*
X97390000Y-106400000D01*
X95250000Y-104260000D02*
X95250000Y-103350000D01*
X98680000Y-108130000D02*
X97390000Y-106840000D01*
X97390000Y-106400000D02*
X95250000Y-104260000D01*
X95450000Y-103150000D02*
X95450000Y-102380000D01*
X99100000Y-108130000D02*
X98680000Y-108130000D01*
%TO.N,GND*%
X105160000Y-103210000D02*
X106570000Y-103210000D01*
X99850000Y-101550000D02*
X103500000Y-101550000D01*
X99530000Y-101870000D02*
X99850000Y-101550000D01*
X103500000Y-101550000D02*
X105160000Y-103210000D01*
X97117500Y-101870000D02*
X99530000Y-101870000D01*
%TO.N,/SPI_CLK*%
X103600000Y-101250000D02*
X104800000Y-102450000D01*
X104800000Y-102450000D02*
X106090000Y-102450000D01*
X98910000Y-101250000D02*
X103600000Y-101250000D01*
X98745000Y-101415000D02*
X98910000Y-101250000D01*
%TO.N,/SPI_MOSI*%
X97590000Y-100350000D02*
X97590000Y-100310000D01*
X97700000Y-100440000D02*
X97680000Y-100440000D01*
X97910000Y-100650000D02*
X97700000Y-100440000D01*
X97680000Y-100440000D02*
X97590000Y-100350000D01*
X104870000Y-100900000D02*
X104500000Y-100900000D01*
X104250000Y-100650000D02*
X97910000Y-100650000D01*
X105420000Y-101450000D02*
X104870000Y-100900000D01*
X106100000Y-101450000D02*
X105420000Y-101450000D01*
X104500000Y-100900000D02*
X104250000Y-100650000D01*
%TO.N,/ADC_BAT*%
X109650000Y-107210000D02*
X109660000Y-107210000D01*
X109200000Y-106760000D02*
X109650000Y-107210000D01*
X107055000Y-103705000D02*
X109200000Y-105850000D01*
X107055000Y-101245000D02*
X107055000Y-103705000D01*
X106090000Y-100280000D02*
X107055000Y-101245000D01*
X105680000Y-100280000D02*
X106090000Y-100280000D01*
X104650000Y-100580000D02*
X105380000Y-100580000D01*
X105380000Y-100580000D02*
X105680000Y-100280000D01*
X104370000Y-100300000D02*
X104650000Y-100580000D01*
X102090000Y-100300000D02*
X104370000Y-100300000D01*
X109200000Y-105850000D02*
X109200000Y-106760000D01*
X101970000Y-100180000D02*
X102090000Y-100300000D01*
X97980000Y-99940000D02*
X98230000Y-99940000D01*
X98230000Y-99940000D02*
X98470000Y-100180000D01*
X98470000Y-100180000D02*
X101970000Y-100180000D01*
%TO.N,/B_PW*%
X104990000Y-104720000D02*
X107220000Y-104720000D01*
X102070000Y-101800000D02*
X104990000Y-104720000D01*
X100840000Y-101800000D02*
X102070000Y-101800000D01*
X98610000Y-102610000D02*
X100030000Y-102610000D01*
X100030000Y-102610000D02*
X100840000Y-101800000D01*
X98320000Y-102370000D02*
X98370000Y-102370000D01*
X98370000Y-102370000D02*
X98610000Y-102610000D01*
D16*
%TO.N,GND*%
X97347500Y-99200000D02*
X97117500Y-99430000D01*
X97900000Y-99200000D02*
X97347500Y-99200000D01*
X98590000Y-98510000D02*
X97900000Y-99200000D01*
X100960000Y-98510000D02*
X98590000Y-98510000D01*
D15*
%TO.N,/AUX_EN*%
X100700000Y-104410000D02*
X100700000Y-105190000D01*
X101060000Y-105550000D02*
X101060000Y-107955000D01*
X101060000Y-104050000D02*
X100700000Y-104410000D01*
X101060000Y-107955000D02*
X101015000Y-108000000D01*
X101060000Y-102930000D02*
X101060000Y-104050000D01*
X100700000Y-105190000D02*
X101060000Y-105550000D01*
X101815000Y-102175000D02*
X101060000Y-102930000D01*
%TO.N,/SPI_MISO*%
X102340000Y-99020000D02*
X102340000Y-96960000D01*
X101780000Y-99580000D02*
X102340000Y-99020000D01*
X97060000Y-100020000D02*
X97500000Y-99580000D01*
X97060000Y-101040000D02*
X97060000Y-100020000D01*
X97500000Y-99580000D02*
X101780000Y-99580000D01*
X102340000Y-96960000D02*
X101830000Y-96450000D01*
%TO.N,/USB_DETECT*%
X99990000Y-96580000D02*
X100420000Y-96580000D01*
X96910000Y-98700000D02*
X97870000Y-98700000D01*
X96430000Y-99890000D02*
X96430000Y-99180000D01*
X96675000Y-100135000D02*
X96430000Y-99890000D01*
X96430000Y-99180000D02*
X96910000Y-98700000D01*
X96675000Y-100265000D02*
X96675000Y-100135000D01*
X97870000Y-98700000D02*
X99990000Y-96580000D01*
X100420000Y-96580000D02*
X100680000Y-96320000D01*
%TO.N,/GPIO_SUP*%
X94230000Y-97880000D02*
X95670000Y-96440000D01*
X95670000Y-96440000D02*
X95670000Y-96360000D01*
X94230000Y-98830000D02*
X94230000Y-97880000D01*
X94950000Y-99550000D02*
X94230000Y-98830000D01*
X95150000Y-99550000D02*
X94950000Y-99550000D01*
%TO.N,Net-(U1-PH3)*%
X99550000Y-94420000D02*
X107950000Y-94420000D01*
X97970000Y-96000000D02*
X99550000Y-94420000D01*
X97970000Y-97150000D02*
X97970000Y-96000000D01*
X95810000Y-99310000D02*
X97970000Y-97150000D01*
X95810000Y-100620000D02*
X95810000Y-99310000D01*
X95070000Y-101320000D02*
X95110000Y-101320000D01*
X95110000Y-101320000D02*
X95810000Y-100620000D01*
%TO.N,/B1*%
X95170000Y-98785000D02*
X95170000Y-98970000D01*
X97545000Y-96410000D02*
X95170000Y-98785000D01*
X99310000Y-94180000D02*
X97545000Y-95945000D01*
X97545000Y-95945000D02*
X97545000Y-96410000D01*
X106700000Y-93715000D02*
X106700000Y-93730000D01*
X106700000Y-93730000D02*
X106250000Y-94180000D01*
X106250000Y-94180000D02*
X99310000Y-94180000D01*
%TO.N,/GPS_EXTINT*%
X99270000Y-95830000D02*
X102400000Y-95830000D01*
X102400000Y-95830000D02*
X105710000Y-99140000D01*
X98730000Y-96370000D02*
X99270000Y-95830000D01*
%TO.N,/OLED_SDA*%
X95730000Y-93460000D02*
X96190000Y-93000000D01*
X96510000Y-96310000D02*
X95730000Y-95530000D01*
X95730000Y-95530000D02*
X95730000Y-93460000D01*
X97050000Y-96310000D02*
X96510000Y-96310000D01*
%TO.N,/OLED_SCL*%
X96580000Y-94400000D02*
X96940000Y-94400000D01*
X96100000Y-95430000D02*
X96100000Y-94880000D01*
X97550000Y-93790000D02*
X97940000Y-93790000D01*
X96400000Y-95730000D02*
X96100000Y-95430000D01*
X97940000Y-93790000D02*
X98730000Y-93000000D01*
X97120000Y-95730000D02*
X96400000Y-95730000D01*
X96100000Y-94880000D02*
X96580000Y-94400000D01*
X96940000Y-94400000D02*
X97550000Y-93790000D01*
%TO.N,Net-(U2-EN)*%
X104870000Y-105590000D02*
X105340000Y-106060000D01*
X103200000Y-105590000D02*
X104870000Y-105590000D01*
X103080000Y-105710000D02*
X103200000Y-105590000D01*
X103080000Y-106280000D02*
X103080000Y-105710000D01*
X102270000Y-107090000D02*
X103080000Y-106280000D01*
%TD*%
M02*
