%TF.GenerationSoftware,KiCad,Pcbnew,9.0.6-rc1*%
%TF.CreationDate,2025-12-13T16:16:27+01:00*%
%TF.ProjectId,hardware_V8,68617264-7761-4726-955f-56382e6b6963,rev?*%
%TF.SameCoordinates,Original*%
%TF.FileFunction,Soldermask,Bot*%
%TF.FilePolarity,Negative*%
%FSLAX46Y46*%
G04 Gerber Fmt 4.6, Leading zero omitted, Abs format (unit mm)*
G04 Created by KiCad (PCBNEW 9.0.6-rc1) date 2025-12-13 16:16:27*
%MOMM*%
%LPD*%
G01*
G04 APERTURE LIST*
G04 Aperture macros list*
%AMRoundRect*
0 Rectangle with rounded corners*
0 $1 Rounding radius*
0 $2 $3 $4 $5 $6 $7 $8 $9 X,Y pos of 4 corners*
0 Add a 4 corners polygon primitive as box body*
4,1,4,$2,$3,$4,$5,$6,$7,$8,$9,$2,$3,0*
0 Add four circle primitives for the rounded corners*
1,1,$1+$1,$2,$3*
1,1,$1+$1,$4,$5*
1,1,$1+$1,$6,$7*
1,1,$1+$1,$8,$9*
0 Add four rect primitives between the rounded corners*
20,1,$1+$1,$2,$3,$4,$5,0*
20,1,$1+$1,$4,$5,$6,$7,0*
20,1,$1+$1,$6,$7,$8,$9,0*
20,1,$1+$1,$8,$9,$2,$3,0*%
%AMRotRect*
0 Rectangle, with rotation*
0 The origin of the aperture is its center*
0 $1 length*
0 $2 width*
0 $3 Rotation angle, in degrees counterclockwise*
0 Add horizontal line*
21,1,$1,$2,0,0,$3*%
%AMOutline5P*
0 Free polygon, 5 corners , with rotation*
0 The origin of the aperture is its center*
0 number of corners: always 5*
0 $1 to $10 corner X, Y*
0 $11 Rotation angle, in degrees counterclockwise*
0 create outline with 5 corners*
4,1,5,$1,$2,$3,$4,$5,$6,$7,$8,$9,$10,$1,$2,$11*%
%AMOutline6P*
0 Free polygon, 6 corners , with rotation*
0 The origin of the aperture is its center*
0 number of corners: always 6*
0 $1 to $12 corner X, Y*
0 $13 Rotation angle, in degrees counterclockwise*
0 create outline with 6 corners*
4,1,6,$1,$2,$3,$4,$5,$6,$7,$8,$9,$10,$11,$12,$1,$2,$13*%
%AMOutline7P*
0 Free polygon, 7 corners , with rotation*
0 The origin of the aperture is its center*
0 number of corners: always 7*
0 $1 to $14 corner X, Y*
0 $15 Rotation angle, in degrees counterclockwise*
0 create outline with 7 corners*
4,1,7,$1,$2,$3,$4,$5,$6,$7,$8,$9,$10,$11,$12,$13,$14,$1,$2,$15*%
%AMOutline8P*
0 Free polygon, 8 corners , with rotation*
0 The origin of the aperture is its center*
0 number of corners: always 8*
0 $1 to $16 corner X, Y*
0 $17 Rotation angle, in degrees counterclockwise*
0 create outline with 8 corners*
4,1,8,$1,$2,$3,$4,$5,$6,$7,$8,$9,$10,$11,$12,$13,$14,$15,$16,$1,$2,$17*%
G04 Aperture macros list end*
%ADD10C,1.150000*%
%ADD11C,1.100000*%
%ADD12C,0.900000*%
%ADD13R,0.750000X1.800000*%
%ADD14R,0.600000X1.800000*%
%ADD15R,1.300000X0.900000*%
%ADD16R,1.150000X0.300000*%
%ADD17R,2.000000X1.600000*%
%ADD18R,1.700000X1.700000*%
%ADD19C,1.700000*%
%ADD20Outline5P,-0.207500X0.150000X0.057500X0.150000X0.207500X0.000000X0.207500X-0.150000X-0.207500X-0.150000X270.000000*%
%ADD21Outline5P,-0.207500X0.150000X0.207500X0.150000X0.207500X0.000000X0.057500X-0.150000X-0.207500X-0.150000X270.000000*%
%ADD22RotRect,0.500000X0.500000X225.000000*%
%ADD23Outline5P,-0.207500X0.150000X0.207500X0.150000X0.207500X-0.150000X-0.057500X-0.150000X-0.207500X0.000000X270.000000*%
%ADD24Outline5P,-0.207500X0.000000X-0.057500X0.150000X0.207500X0.150000X0.207500X-0.150000X-0.207500X-0.150000X270.000000*%
%ADD25RoundRect,0.100000X-0.100000X0.217500X-0.100000X-0.217500X0.100000X-0.217500X0.100000X0.217500X0*%
%ADD26RoundRect,0.100000X0.100000X-0.217500X0.100000X0.217500X-0.100000X0.217500X-0.100000X-0.217500X0*%
%ADD27RoundRect,0.100000X-0.217500X-0.100000X0.217500X-0.100000X0.217500X0.100000X-0.217500X0.100000X0*%
%ADD28R,0.450000X1.050000*%
%ADD29R,4.350000X3.450000*%
%ADD30R,0.850000X0.300000*%
%ADD31R,0.610000X1.420000*%
%ADD32RoundRect,0.100000X0.217500X0.100000X-0.217500X0.100000X-0.217500X-0.100000X0.217500X-0.100000X0*%
%ADD33RoundRect,0.140000X0.170000X-0.140000X0.170000X0.140000X-0.170000X0.140000X-0.170000X-0.140000X0*%
%ADD34RoundRect,0.140000X-0.140000X-0.170000X0.140000X-0.170000X0.140000X0.170000X-0.140000X0.170000X0*%
G04 APERTURE END LIST*
D10*
%TO.C,U3*%
X110200000Y-100600000D03*
%TD*%
D11*
%TO.C,TP1*%
X113450000Y-105800000D03*
%TD*%
%TO.C,TP2*%
X113450000Y-107450000D03*
%TD*%
D12*
%TO.C,S3*%
X112125000Y-106675000D03*
X107875000Y-106675000D03*
D13*
X111225000Y-105775000D03*
D14*
X110000000Y-105775000D03*
D13*
X108775000Y-105775000D03*
D15*
X111850000Y-107725000D03*
X108150000Y-107725000D03*
%TD*%
D12*
%TO.C,S1*%
X107875000Y-93500000D03*
X112125000Y-93500000D03*
D13*
X108775000Y-94250000D03*
D14*
X110000000Y-94250000D03*
D13*
X111225000Y-94250000D03*
D15*
X108150000Y-92300000D03*
X111850000Y-92300000D03*
%TD*%
D16*
%TO.C,J3*%
X99705000Y-103350000D03*
X99705000Y-102550000D03*
X99705000Y-101250000D03*
X99705000Y-100250000D03*
X99705000Y-99750000D03*
X99705000Y-98750000D03*
X99705000Y-97450000D03*
X99705000Y-96650000D03*
X99705000Y-96950000D03*
X99705000Y-97750000D03*
X99705000Y-98250000D03*
X99705000Y-99250000D03*
X99705000Y-100750000D03*
X99705000Y-101750000D03*
X99705000Y-102250000D03*
X99705000Y-103050000D03*
D17*
X95200000Y-104820000D03*
X95200000Y-95180000D03*
X99130000Y-104820000D03*
X99130000Y-95180000D03*
%TD*%
D18*
%TO.C,U4*%
X103810000Y-93000000D03*
D19*
X101270000Y-93000000D03*
X98730000Y-93000000D03*
X96190000Y-93000000D03*
X104500000Y-107000000D03*
X95500000Y-107000000D03*
%TD*%
D20*
%TO.C,U2*%
X101100000Y-105815000D03*
D21*
X101810000Y-105815000D03*
D22*
X101455000Y-106207500D03*
D23*
X101810000Y-106600000D03*
D24*
X101100000Y-106600000D03*
%TD*%
D25*
%TO.C,R18*%
X106200000Y-105892500D03*
X106200000Y-106707500D03*
%TD*%
D26*
%TO.C,R17*%
X97400000Y-105240000D03*
X97400000Y-104425000D03*
%TD*%
D27*
%TO.C,R13*%
X102292500Y-96000000D03*
X103107500Y-96000000D03*
%TD*%
D26*
%TO.C,R12*%
X105660000Y-95477500D03*
X105660000Y-94662500D03*
%TD*%
%TO.C,R11*%
X104870000Y-95507500D03*
X104870000Y-94692500D03*
%TD*%
D25*
%TO.C,R9*%
X106900000Y-105892500D03*
X106900000Y-106707500D03*
%TD*%
D26*
%TO.C,R7*%
X106700000Y-93715000D03*
X106700000Y-92900000D03*
%TD*%
D27*
%TO.C,R5*%
X104392500Y-105500000D03*
X105207500Y-105500000D03*
%TD*%
D28*
%TO.C,IC6*%
X101290000Y-97150000D03*
X102560000Y-97150000D03*
X103830000Y-97150000D03*
X105100000Y-97150000D03*
X105100000Y-102850000D03*
X103830000Y-102850000D03*
X102560000Y-102850000D03*
X101290000Y-102850000D03*
D29*
X103195000Y-100000000D03*
%TD*%
D30*
%TO.C,IC5*%
X99100000Y-106600000D03*
X99100000Y-107100000D03*
X99100000Y-107600000D03*
X97200000Y-107600000D03*
X97200000Y-107100000D03*
X97200000Y-106600000D03*
D31*
X98150000Y-107100000D03*
%TD*%
D25*
%TO.C,C20*%
X107800000Y-104692500D03*
X107800000Y-105507500D03*
%TD*%
D32*
%TO.C,C11*%
X101607500Y-104100000D03*
X100792500Y-104100000D03*
%TD*%
D26*
%TO.C,C7*%
X113300000Y-93707500D03*
X113300000Y-92892500D03*
%TD*%
D33*
%TO.C,C4*%
X103000000Y-107680000D03*
X103000000Y-106720000D03*
%TD*%
D34*
%TO.C,C1*%
X102720000Y-104500000D03*
X103680000Y-104500000D03*
%TD*%
M02*
