%TF.GenerationSoftware,KiCad,Pcbnew,8.0.0*%
%TF.CreationDate,2024-03-12T22:02:48+01:00*%
%TF.ProjectId,projet s6,70726f6a-6574-4207-9336-2e6b69636164,rev?*%
%TF.SameCoordinates,Original*%
%TF.FileFunction,Paste,Bot*%
%TF.FilePolarity,Positive*%
%FSLAX46Y46*%
G04 Gerber Fmt 4.6, Leading zero omitted, Abs format (unit mm)*
G04 Created by KiCad (PCBNEW 8.0.0) date 2024-03-12 22:02:48*
%MOMM*%
%LPD*%
G01*
G04 APERTURE LIST*
%ADD10R,1.100000X0.500000*%
%ADD11R,1.650000X1.050000*%
%ADD12R,1.200000X0.800000*%
%ADD13R,0.700000X1.600000*%
%ADD14R,0.700000X1.500000*%
%ADD15R,1.000000X0.800000*%
%ADD16R,1.150000X0.600000*%
%ADD17R,1.150000X0.300000*%
%ADD18R,2.000000X2.180000*%
G04 APERTURE END LIST*
D10*
%TO.C,SW1*%
X189225000Y-68415000D03*
D11*
X187300000Y-67440000D03*
X191150000Y-67440000D03*
%TD*%
D12*
%TO.C,PA1010D1*%
X191340000Y-70500000D03*
X191340000Y-72100000D03*
X191340000Y-75000000D03*
X191340000Y-76600000D03*
X191340000Y-78200000D03*
X181640000Y-78200000D03*
X181640000Y-76600000D03*
X181640000Y-75000000D03*
X181640000Y-72100000D03*
X181640000Y-70500000D03*
%TD*%
D13*
%TO.C,SW6*%
X184865000Y-80667500D03*
D14*
X186365000Y-80667500D03*
X189365000Y-80667500D03*
D15*
X190765000Y-83382500D03*
X190765000Y-81452500D03*
X183465000Y-83382500D03*
X183465000Y-81452500D03*
%TD*%
D10*
%TO.C,SW2*%
X182375000Y-68365000D03*
D11*
X180450000Y-67390000D03*
X184300000Y-67390000D03*
%TD*%
D16*
%TO.C,J1*%
X179420000Y-78355000D03*
X179420000Y-71955000D03*
X179420000Y-77555000D03*
X179420000Y-72755000D03*
D17*
X179420000Y-76405000D03*
X179420000Y-75405000D03*
X179420000Y-74905000D03*
X179420000Y-73905000D03*
X179420000Y-73405000D03*
X179420000Y-74405000D03*
X179420000Y-75905000D03*
X179420000Y-76905000D03*
D18*
X174915000Y-80265000D03*
X178845000Y-80265000D03*
X174915000Y-70045000D03*
X178845000Y-70045000D03*
%TD*%
M02*
