%TF.GenerationSoftware,KiCad,Pcbnew,8.0.5*%
%TF.CreationDate,2024-10-05T23:36:15+02:00*%
%TF.ProjectId,projet s6,70726f6a-6574-4207-9336-2e6b69636164,rev?*%
%TF.SameCoordinates,Original*%
%TF.FileFunction,Copper,L3,Inr*%
%TF.FilePolarity,Positive*%
%FSLAX46Y46*%
G04 Gerber Fmt 4.6, Leading zero omitted, Abs format (unit mm)*
G04 Created by KiCad (PCBNEW 8.0.5) date 2024-10-05 23:36:15*
%MOMM*%
%LPD*%
G01*
G04 APERTURE LIST*
%TA.AperFunction,ComponentPad*%
%ADD10C,1.500000*%
%TD*%
%TA.AperFunction,ComponentPad*%
%ADD11O,1.800000X1.000000*%
%TD*%
%TA.AperFunction,ComponentPad*%
%ADD12O,2.100000X1.000000*%
%TD*%
%TA.AperFunction,ComponentPad*%
%ADD13R,1.700000X1.700000*%
%TD*%
%TA.AperFunction,ComponentPad*%
%ADD14O,1.700000X1.700000*%
%TD*%
%TA.AperFunction,ComponentPad*%
%ADD15R,1.650000X1.050000*%
%TD*%
%TA.AperFunction,ViaPad*%
%ADD16C,0.400000*%
%TD*%
%TA.AperFunction,Conductor*%
%ADD17C,0.200000*%
%TD*%
%TA.AperFunction,Conductor*%
%ADD18C,0.150000*%
%TD*%
G04 APERTURE END LIST*
D10*
%TO.N,GND*%
%TO.C,TP1*%
X182580000Y-82870000D03*
%TD*%
%TO.N,BAT+*%
%TO.C,TP5*%
X182610000Y-80680000D03*
%TD*%
D11*
%TO.N,GND*%
%TO.C,J1*%
X206645000Y-69710000D03*
D12*
X202465000Y-69710000D03*
D11*
X206645000Y-78350000D03*
D12*
X202465000Y-78350000D03*
%TD*%
D13*
%TO.N,GND*%
%TO.C,J2*%
X204070000Y-66970000D03*
D14*
%TO.N,+3.3V*%
X201530000Y-66970000D03*
%TO.N,OLED_SCL*%
X198990000Y-66970000D03*
%TO.N,OLED_SDA*%
X196450000Y-66970000D03*
%TD*%
D15*
%TO.N,GND*%
%TO.C,SW1*%
X189070000Y-65930000D03*
X192920000Y-65930000D03*
%TD*%
%TO.N,GND*%
%TO.C,SW2*%
X182415000Y-65935000D03*
X186265000Y-65935000D03*
%TD*%
D16*
%TO.N,+3.3V*%
X193850000Y-71540000D03*
X193870000Y-71980000D03*
X202340000Y-80420000D03*
X199560000Y-69930000D03*
X193200000Y-74420000D03*
X199210000Y-77140000D03*
X181690000Y-68400000D03*
X202330000Y-79700000D03*
X192790000Y-78230000D03*
X198880000Y-69920000D03*
X189890000Y-69460000D03*
X192700000Y-74420000D03*
X199210000Y-69490000D03*
X182220000Y-70510000D03*
X181720000Y-70510000D03*
X192810000Y-74900000D03*
X192850000Y-78680000D03*
X193265953Y-78660289D03*
X181710000Y-69920000D03*
X181710000Y-68900000D03*
X193520000Y-80710000D03*
X193450000Y-71980000D03*
X194190000Y-70450000D03*
X192760000Y-75340000D03*
X193260000Y-78240000D03*
X193710000Y-70460000D03*
%TO.N,Net-(U1-NRST)*%
X200670000Y-68920001D03*
X200670000Y-68419998D03*
X192540000Y-73610000D03*
%TO.N,GNDGPS*%
X182510000Y-76570000D03*
X181810000Y-76570000D03*
%TO.N,Net-(BT1-+)*%
X182100000Y-72020000D03*
X188706280Y-71250688D03*
X188680000Y-71750000D03*
%TO.N,COMPASSCL*%
X199779999Y-75200000D03*
X203340000Y-80380000D03*
%TO.N,COMPASSDA*%
X199492500Y-74737500D03*
X204330000Y-80350000D03*
%TO.N,Net-(J1-CC2)*%
X202300000Y-75780000D03*
%TO.N,Net-(J1-CC1)*%
X200980000Y-72560000D03*
%TO.N,OLED_SCL*%
X196380000Y-77150000D03*
X198030000Y-70580000D03*
%TO.N,Net-(PA1010D1-TX)*%
X191820000Y-76920000D03*
%TO.N,Net-(PA1010D1-RX)*%
X190830000Y-76460000D03*
%TO.N,B2*%
X197380000Y-77140000D03*
X186270000Y-72710000D03*
%TO.N,B1*%
X199161278Y-75529673D03*
X192750000Y-70670000D03*
%TO.N,vusb*%
X190040000Y-80650000D03*
X190020000Y-80180000D03*
X203740000Y-73570000D03*
X203750000Y-74020000D03*
%TO.N,SWDIO*%
X199280000Y-72910000D03*
X204600000Y-70970000D03*
X204590000Y-70550000D03*
%TO.N,SWO*%
X204610000Y-68710000D03*
X197510000Y-70970000D03*
X204600000Y-68260000D03*
%TO.N,SWCLK*%
X204580000Y-69830000D03*
X204590000Y-69400000D03*
X199270000Y-72410000D03*
%TO.N,SPI_CS*%
X199950000Y-82500000D03*
X196135697Y-77586255D03*
%TO.N,SPI_MISO*%
X199770000Y-81200000D03*
X195635746Y-77579078D03*
%TO.N,USART_RX*%
X195460000Y-70930000D03*
X195099999Y-79797502D03*
%TO.N,vbat*%
X187040000Y-80180000D03*
X187900000Y-80180000D03*
X187040000Y-80650000D03*
X187040000Y-81160000D03*
X187930000Y-81110000D03*
X187910000Y-80650000D03*
%TO.N,Net-(U1-PA4)*%
X190980000Y-79500000D03*
X194630000Y-77320000D03*
%TO.N,GND*%
X197690000Y-66930000D03*
X189670000Y-74020000D03*
X186720000Y-78050000D03*
X189670000Y-75020000D03*
X181810000Y-79710000D03*
X188590000Y-73100000D03*
X200270000Y-66260000D03*
X201390000Y-65470000D03*
X192130000Y-79020000D03*
X201030000Y-82480000D03*
X196340000Y-81910000D03*
X186310000Y-80110000D03*
X189790000Y-83640000D03*
X184610000Y-76250000D03*
X206990000Y-83240000D03*
X195640000Y-73670000D03*
X182800000Y-78920000D03*
X200030000Y-78610000D03*
X194070000Y-68020000D03*
X181770000Y-75770000D03*
X182780000Y-72890000D03*
X197390000Y-65470000D03*
X181780000Y-74290000D03*
X204620000Y-71920000D03*
X204040000Y-76820000D03*
X181790000Y-81640000D03*
X200580000Y-81180000D03*
X207390000Y-83640000D03*
X201330000Y-79720000D03*
X198360000Y-83700000D03*
X207390000Y-80940000D03*
X205590000Y-83640000D03*
X191620000Y-73570000D03*
X206090000Y-74640000D03*
X204790000Y-78550000D03*
X194650000Y-75650000D03*
X189390000Y-77540000D03*
X186310000Y-80970000D03*
X197620000Y-73670000D03*
X207390000Y-81840000D03*
X206200000Y-67480000D03*
X181720000Y-66350000D03*
X207390000Y-67500000D03*
X185600000Y-72760000D03*
X184790000Y-83640000D03*
X198450000Y-71920000D03*
X183790000Y-83640000D03*
X206310000Y-82020000D03*
X203680000Y-71060000D03*
X185100000Y-82200000D03*
X190390000Y-65470000D03*
X195640000Y-74660000D03*
X184620000Y-74300000D03*
X188490000Y-68760000D03*
X204790000Y-77640000D03*
X207390000Y-66440000D03*
X203030000Y-75370000D03*
X198450000Y-71430000D03*
X186790000Y-83640000D03*
X190430000Y-79510000D03*
X207390000Y-82740000D03*
X182780000Y-74290000D03*
X206230000Y-66420000D03*
X207390000Y-76640000D03*
X197860000Y-68680000D03*
X196630000Y-75650000D03*
X195390000Y-65470000D03*
X206070000Y-73640000D03*
X185390000Y-65470000D03*
X198450000Y-82020000D03*
X197460000Y-81900000D03*
X202820000Y-79160000D03*
X187790000Y-82040000D03*
X198380000Y-76540000D03*
X186720000Y-72330000D03*
X194650000Y-73670000D03*
X206490000Y-83640000D03*
X183780000Y-77410000D03*
X197620000Y-74660000D03*
X201200000Y-83700000D03*
X195990000Y-79160000D03*
X182780000Y-73590000D03*
X201350000Y-81980000D03*
X185750000Y-79510000D03*
X195640000Y-75650000D03*
X184610000Y-75250000D03*
X187640000Y-67370000D03*
X206070000Y-77640000D03*
X186100000Y-71510000D03*
X184960000Y-79480000D03*
X197280000Y-70470000D03*
X183780000Y-78070000D03*
X194650000Y-74660000D03*
X196970000Y-77820000D03*
X199530000Y-68130000D03*
X189820000Y-73110000D03*
X181800000Y-78920000D03*
X187530000Y-71500000D03*
X187960000Y-73110000D03*
X191720000Y-83660000D03*
X204590000Y-75500000D03*
X192390000Y-65470000D03*
X196630000Y-74660000D03*
X187540000Y-71030000D03*
X194730000Y-67970000D03*
X189830000Y-72180000D03*
X197630000Y-77720000D03*
X197450000Y-82770000D03*
X206990000Y-82030000D03*
X190420000Y-75020000D03*
X206070000Y-75640000D03*
X189390000Y-76600000D03*
X207400000Y-68450000D03*
X206390000Y-65470000D03*
X181830000Y-71310000D03*
X197220000Y-68690000D03*
X188170000Y-74020000D03*
X191470711Y-67074977D03*
X190600000Y-78340000D03*
X203790000Y-83640000D03*
X188440000Y-72330000D03*
X198470000Y-83260000D03*
X184460000Y-65460000D03*
X182770000Y-75770000D03*
X207390000Y-65470000D03*
X186250000Y-78050000D03*
X190900000Y-72200000D03*
X198800000Y-82630000D03*
X198390000Y-65470000D03*
X204690000Y-83640000D03*
X185040000Y-72750000D03*
X192610000Y-83640000D03*
X188170000Y-76830000D03*
X197620000Y-72680000D03*
X191390000Y-65470000D03*
X206090000Y-72650000D03*
X202790000Y-67500000D03*
X205320000Y-80105000D03*
X192440000Y-68750000D03*
X190890000Y-70690000D03*
X185790000Y-83640000D03*
X199690000Y-71430000D03*
X195320000Y-83690000D03*
X186080000Y-68780000D03*
X182780000Y-77410000D03*
X182830000Y-71310000D03*
X187800000Y-82780000D03*
X200390000Y-65470000D03*
X187350000Y-79510000D03*
X207390000Y-74640000D03*
X188150000Y-79510000D03*
X187880000Y-68200000D03*
X187880000Y-68780000D03*
X200270000Y-66810000D03*
X188920000Y-74020000D03*
X194390000Y-65470000D03*
X196340000Y-82780000D03*
X198190000Y-77220000D03*
X195140000Y-66200000D03*
X203390000Y-65470000D03*
X194450425Y-68786961D03*
X195640000Y-72680000D03*
X207390000Y-72640000D03*
X187280000Y-68200000D03*
X194390000Y-83690000D03*
X199070000Y-71430000D03*
X190590000Y-76990000D03*
X191620000Y-73110000D03*
X196390000Y-65470000D03*
X199170000Y-83240000D03*
X191000000Y-67380000D03*
X188790000Y-83640000D03*
X207390000Y-71640000D03*
X199040000Y-71920000D03*
X188920000Y-75020000D03*
X206150000Y-68460000D03*
X189830000Y-70680000D03*
X190100000Y-78930000D03*
X207390000Y-77640000D03*
X195150000Y-66930000D03*
X202840000Y-72250000D03*
X186100000Y-71070000D03*
X181780000Y-73590000D03*
X188170000Y-75020000D03*
X190570000Y-77710000D03*
X202890000Y-83640000D03*
X181780000Y-77410000D03*
X198460000Y-68130000D03*
X201020000Y-77680000D03*
X196670000Y-68190000D03*
X206620000Y-82630000D03*
X199360000Y-83690000D03*
X196630000Y-73670000D03*
X186680000Y-68230000D03*
X200430000Y-79820000D03*
X196330000Y-83690000D03*
X204390000Y-65470000D03*
X190790000Y-83640000D03*
X199390000Y-65470000D03*
X197700000Y-66230000D03*
X207390000Y-79140000D03*
X207390000Y-80040000D03*
X195020000Y-68360000D03*
X191800000Y-71200000D03*
X186860000Y-75830000D03*
X186080000Y-68230000D03*
X193410000Y-68570000D03*
X206040000Y-71710000D03*
X190546733Y-67077157D03*
X187660000Y-66420000D03*
X199140000Y-82000000D03*
X199340000Y-79230000D03*
X181790000Y-83640000D03*
X207390000Y-73640000D03*
X187790000Y-83640000D03*
X181780000Y-72890000D03*
X196630000Y-72680000D03*
X200260000Y-83700000D03*
X202030000Y-83680000D03*
X187390000Y-65470000D03*
X201470000Y-81040000D03*
X190420000Y-74020000D03*
X183040000Y-65490000D03*
X200420000Y-73980000D03*
X202800000Y-66250000D03*
X199800000Y-73810000D03*
X185560000Y-75810000D03*
X205390000Y-65470000D03*
X197420000Y-83690000D03*
X181730000Y-65490000D03*
X202390000Y-65470000D03*
X183820000Y-82220000D03*
X199160000Y-68730000D03*
X207390000Y-75640000D03*
%TO.N,BAT+*%
X185590000Y-77670000D03*
X185090000Y-77670000D03*
X185560000Y-78190000D03*
X185080000Y-78184280D03*
%TO.N,SPI_SCK*%
X194610000Y-81210000D03*
X194575000Y-77840000D03*
%TO.N,Net-(R10-Pad1)*%
X181820000Y-67070000D03*
X182980000Y-67670000D03*
X182980000Y-67070000D03*
X181830000Y-67650000D03*
%TO.N,Net-(R11-Pad1)*%
X189670000Y-67650000D03*
X192300000Y-67630000D03*
X193500000Y-67630000D03*
X188470000Y-67050000D03*
X192300000Y-67030000D03*
X193500000Y-67030000D03*
X188470000Y-67650000D03*
X189670000Y-67050000D03*
%TO.N,Net-(J1-D--PadA7)*%
X201010000Y-73480000D03*
X205460000Y-74750000D03*
%TO.N,Net-(J1-D+-PadA6)*%
X201010000Y-74200000D03*
X205440000Y-72830000D03*
%TO.N,SPI_MOSi*%
X196505000Y-70930000D03*
X193900001Y-80130934D03*
%TO.N,USART_TX*%
X195960000Y-70940000D03*
X194726438Y-78747498D03*
%TD*%
D17*
%TO.N,+3.3V*%
X202275051Y-79700000D02*
X202330000Y-79700000D01*
X202330000Y-79700000D02*
X202330000Y-80410000D01*
X199715051Y-77140000D02*
X202275051Y-79700000D01*
X202330000Y-80410000D02*
X202340000Y-80420000D01*
X199210000Y-77140000D02*
X199715051Y-77140000D01*
D18*
%TO.N,COMPASSCL*%
X203820000Y-79900000D02*
X203340000Y-80380000D01*
X203199594Y-77580000D02*
X203820000Y-78200406D01*
X201356777Y-76600000D02*
X201360000Y-76600000D01*
X203820000Y-78200406D02*
X203820000Y-79900000D01*
X199779999Y-75200000D02*
X199956777Y-75200000D01*
X199956777Y-75200000D02*
X201356777Y-76600000D01*
X202340000Y-77580000D02*
X203199594Y-77580000D01*
X201360000Y-76600000D02*
X202340000Y-77580000D01*
%TO.N,COMPASSDA*%
X204070000Y-80090000D02*
X204330000Y-80350000D01*
X199847831Y-74737500D02*
X201460331Y-76350000D01*
X203515000Y-77365000D02*
X204070000Y-77920000D01*
X204070000Y-77920000D02*
X204070000Y-80090000D01*
X203172817Y-76350000D02*
X203515000Y-76692183D01*
X199492500Y-74737500D02*
X199847831Y-74737500D01*
X201460331Y-76350000D02*
X203172817Y-76350000D01*
X203515000Y-76692183D02*
X203515000Y-77365000D01*
%TO.N,B2*%
X190475000Y-73485000D02*
X192385000Y-75395000D01*
X186270000Y-72710000D02*
X188889669Y-72710000D01*
X189664669Y-73485000D02*
X190475000Y-73485000D01*
X192385000Y-75495331D02*
X192929669Y-76040000D01*
X192929669Y-76040000D02*
X196280000Y-76040000D01*
X188889669Y-72710000D02*
X189664669Y-73485000D01*
X192385000Y-75395000D02*
X192385000Y-75495331D01*
X196280000Y-76040000D02*
X197380000Y-77140000D01*
%TO.N,B1*%
X199101605Y-75470000D02*
X197520000Y-75470000D01*
X194670331Y-75210000D02*
X192750000Y-73289669D01*
X197260000Y-75210000D02*
X194670331Y-75210000D01*
X197520000Y-75470000D02*
X197260000Y-75210000D01*
X199161278Y-75529673D02*
X199101605Y-75470000D01*
X192750000Y-73289669D02*
X192750000Y-70670000D01*
%TO.N,Net-(U1-PA4)*%
X190980000Y-79500000D02*
X193160000Y-77320000D01*
X193160000Y-77320000D02*
X194630000Y-77320000D01*
%TO.N,Net-(J1-D--PadA7)*%
X201010000Y-73480000D02*
X201925000Y-74395000D01*
X201925000Y-74395000D02*
X205105000Y-74395000D01*
X205105000Y-74395000D02*
X205460000Y-74750000D01*
%TD*%
%TA.AperFunction,Conductor*%
%TO.N,GND*%
G36*
X207592539Y-65170185D02*
G01*
X207638294Y-65222989D01*
X207649500Y-65274500D01*
X207649500Y-83825500D01*
X207629815Y-83892539D01*
X207577011Y-83938294D01*
X207525500Y-83949500D01*
X181574500Y-83949500D01*
X181507461Y-83929815D01*
X181461706Y-83877011D01*
X181450500Y-83825500D01*
X181450500Y-82320943D01*
X185689500Y-82320943D01*
X185689500Y-82479057D01*
X185724495Y-82609658D01*
X185730423Y-82631783D01*
X185730426Y-82631790D01*
X185809475Y-82768709D01*
X185809479Y-82768714D01*
X185809480Y-82768716D01*
X185921284Y-82880520D01*
X185921286Y-82880521D01*
X185921290Y-82880524D01*
X186058209Y-82959573D01*
X186058216Y-82959577D01*
X186210943Y-83000500D01*
X186210945Y-83000500D01*
X186369055Y-83000500D01*
X186369057Y-83000500D01*
X186521784Y-82959577D01*
X186658716Y-82880520D01*
X186770520Y-82768716D01*
X186849577Y-82631784D01*
X186890500Y-82479057D01*
X186890500Y-82320943D01*
X188689500Y-82320943D01*
X188689500Y-82479057D01*
X188724495Y-82609658D01*
X188730423Y-82631783D01*
X188730426Y-82631790D01*
X188809475Y-82768709D01*
X188809479Y-82768714D01*
X188809480Y-82768716D01*
X188921284Y-82880520D01*
X188921286Y-82880521D01*
X188921290Y-82880524D01*
X189058209Y-82959573D01*
X189058216Y-82959577D01*
X189210943Y-83000500D01*
X189210945Y-83000500D01*
X189369055Y-83000500D01*
X189369057Y-83000500D01*
X189521784Y-82959577D01*
X189658716Y-82880520D01*
X189770520Y-82768716D01*
X189849577Y-82631784D01*
X189884889Y-82499997D01*
X199595131Y-82499997D01*
X199595131Y-82500002D01*
X199612498Y-82609658D01*
X199662904Y-82708585D01*
X199662909Y-82708592D01*
X199741407Y-82787090D01*
X199741410Y-82787092D01*
X199741413Y-82787095D01*
X199840339Y-82837500D01*
X199840341Y-82837501D01*
X199949998Y-82854869D01*
X199950000Y-82854869D01*
X199950002Y-82854869D01*
X200059658Y-82837501D01*
X200059659Y-82837500D01*
X200059661Y-82837500D01*
X200158587Y-82787095D01*
X200237095Y-82708587D01*
X200287500Y-82609661D01*
X200287500Y-82609659D01*
X200287501Y-82609658D01*
X200304869Y-82500002D01*
X200304869Y-82499997D01*
X200287501Y-82390341D01*
X200252141Y-82320943D01*
X200237095Y-82291413D01*
X200237092Y-82291410D01*
X200237090Y-82291407D01*
X200158592Y-82212909D01*
X200158588Y-82212906D01*
X200158587Y-82212905D01*
X200154743Y-82210946D01*
X200059658Y-82162498D01*
X199950002Y-82145131D01*
X199949998Y-82145131D01*
X199840341Y-82162498D01*
X199741414Y-82212904D01*
X199741407Y-82212909D01*
X199662909Y-82291407D01*
X199662904Y-82291414D01*
X199612498Y-82390341D01*
X199595131Y-82499997D01*
X189884889Y-82499997D01*
X189890500Y-82479057D01*
X189890500Y-82320943D01*
X189849577Y-82168216D01*
X189836249Y-82145131D01*
X189770524Y-82031290D01*
X189770518Y-82031282D01*
X189658717Y-81919481D01*
X189658709Y-81919475D01*
X189521790Y-81840426D01*
X189521786Y-81840424D01*
X189521784Y-81840423D01*
X189369057Y-81799500D01*
X189210943Y-81799500D01*
X189058216Y-81840423D01*
X189058209Y-81840426D01*
X188921290Y-81919475D01*
X188921282Y-81919481D01*
X188809481Y-82031282D01*
X188809475Y-82031290D01*
X188730426Y-82168209D01*
X188730423Y-82168216D01*
X188689500Y-82320943D01*
X186890500Y-82320943D01*
X186849577Y-82168216D01*
X186836249Y-82145131D01*
X186770524Y-82031290D01*
X186770518Y-82031282D01*
X186658717Y-81919481D01*
X186658709Y-81919475D01*
X186521790Y-81840426D01*
X186521786Y-81840424D01*
X186521784Y-81840423D01*
X186369057Y-81799500D01*
X186210943Y-81799500D01*
X186058216Y-81840423D01*
X186058209Y-81840426D01*
X185921290Y-81919475D01*
X185921282Y-81919481D01*
X185809481Y-82031282D01*
X185809475Y-82031290D01*
X185730426Y-82168209D01*
X185730423Y-82168216D01*
X185689500Y-82320943D01*
X181450500Y-82320943D01*
X181450500Y-80680000D01*
X181704540Y-80680000D01*
X181724326Y-80868256D01*
X181724327Y-80868259D01*
X181782818Y-81048277D01*
X181782821Y-81048284D01*
X181877467Y-81212216D01*
X181974211Y-81319661D01*
X182004129Y-81352888D01*
X182157265Y-81464148D01*
X182157270Y-81464151D01*
X182330192Y-81541142D01*
X182330197Y-81541144D01*
X182515354Y-81580500D01*
X182515355Y-81580500D01*
X182704644Y-81580500D01*
X182704646Y-81580500D01*
X182889803Y-81541144D01*
X183062730Y-81464151D01*
X183215871Y-81352888D01*
X183342533Y-81212216D01*
X183437179Y-81048284D01*
X183495674Y-80868256D01*
X183515460Y-80680000D01*
X183495674Y-80491744D01*
X183437179Y-80311716D01*
X183361131Y-80179997D01*
X186685131Y-80179997D01*
X186685131Y-80180002D01*
X186702498Y-80289658D01*
X186737680Y-80358706D01*
X186750576Y-80427375D01*
X186737680Y-80471294D01*
X186702498Y-80540341D01*
X186685131Y-80649997D01*
X186685131Y-80650002D01*
X186702498Y-80759658D01*
X186747870Y-80848706D01*
X186760766Y-80917375D01*
X186747870Y-80961294D01*
X186702498Y-81050341D01*
X186685131Y-81159997D01*
X186685131Y-81160002D01*
X186702498Y-81269658D01*
X186752904Y-81368585D01*
X186752909Y-81368592D01*
X186831407Y-81447090D01*
X186831410Y-81447092D01*
X186831413Y-81447095D01*
X186866297Y-81464869D01*
X186930341Y-81497501D01*
X187039998Y-81514869D01*
X187040000Y-81514869D01*
X187040002Y-81514869D01*
X187149658Y-81497501D01*
X187149659Y-81497500D01*
X187149661Y-81497500D01*
X187248587Y-81447095D01*
X187327095Y-81368587D01*
X187377500Y-81269661D01*
X187377501Y-81269652D01*
X187378628Y-81266187D01*
X187381146Y-81262503D01*
X187381930Y-81260966D01*
X187382128Y-81261067D01*
X187418064Y-81208510D01*
X187482422Y-81181311D01*
X187551269Y-81193223D01*
X187602746Y-81240466D01*
X187607042Y-81248203D01*
X187642905Y-81318587D01*
X187642907Y-81318589D01*
X187642909Y-81318592D01*
X187721407Y-81397090D01*
X187721410Y-81397092D01*
X187721413Y-81397095D01*
X187763590Y-81418585D01*
X187820341Y-81447501D01*
X187929998Y-81464869D01*
X187930000Y-81464869D01*
X187930002Y-81464869D01*
X188039658Y-81447501D01*
X188039659Y-81447500D01*
X188039661Y-81447500D01*
X188138587Y-81397095D01*
X188217095Y-81318587D01*
X188267500Y-81219661D01*
X188267500Y-81219659D01*
X188267501Y-81219658D01*
X188269031Y-81209997D01*
X194255131Y-81209997D01*
X194255131Y-81210002D01*
X194272498Y-81319658D01*
X194322904Y-81418585D01*
X194322909Y-81418592D01*
X194401407Y-81497090D01*
X194401410Y-81497092D01*
X194401413Y-81497095D01*
X194436297Y-81514869D01*
X194500341Y-81547501D01*
X194609998Y-81564869D01*
X194610000Y-81564869D01*
X194610002Y-81564869D01*
X194719658Y-81547501D01*
X194719659Y-81547500D01*
X194719661Y-81547500D01*
X194818587Y-81497095D01*
X194897095Y-81418587D01*
X194947500Y-81319661D01*
X194947500Y-81319659D01*
X194947501Y-81319658D01*
X194964869Y-81210002D01*
X194964869Y-81209997D01*
X194963285Y-81199997D01*
X199415131Y-81199997D01*
X199415131Y-81200002D01*
X199432498Y-81309658D01*
X199482904Y-81408585D01*
X199482909Y-81408592D01*
X199561407Y-81487090D01*
X199561410Y-81487092D01*
X199561413Y-81487095D01*
X199615923Y-81514869D01*
X199660341Y-81537501D01*
X199769998Y-81554869D01*
X199770000Y-81554869D01*
X199770002Y-81554869D01*
X199879658Y-81537501D01*
X199879659Y-81537500D01*
X199879661Y-81537500D01*
X199978587Y-81487095D01*
X200057095Y-81408587D01*
X200107500Y-81309661D01*
X200107500Y-81309659D01*
X200107501Y-81309658D01*
X200124869Y-81200002D01*
X200124869Y-81199997D01*
X200107501Y-81090341D01*
X200085673Y-81047501D01*
X200057095Y-80991413D01*
X200057092Y-80991410D01*
X200057090Y-80991407D01*
X199978592Y-80912909D01*
X199978588Y-80912906D01*
X199978587Y-80912905D01*
X199974743Y-80910946D01*
X199879658Y-80862498D01*
X199770002Y-80845131D01*
X199769998Y-80845131D01*
X199660341Y-80862498D01*
X199561414Y-80912904D01*
X199561407Y-80912909D01*
X199482909Y-80991407D01*
X199482904Y-80991414D01*
X199432498Y-81090341D01*
X199415131Y-81199997D01*
X194963285Y-81199997D01*
X194947501Y-81100341D01*
X194920577Y-81047500D01*
X194897095Y-81001413D01*
X194897092Y-81001410D01*
X194897090Y-81001407D01*
X194818592Y-80922909D01*
X194818588Y-80922906D01*
X194818587Y-80922905D01*
X194810112Y-80918587D01*
X194719658Y-80872498D01*
X194610002Y-80855131D01*
X194609998Y-80855131D01*
X194500341Y-80872498D01*
X194401414Y-80922904D01*
X194401407Y-80922909D01*
X194322909Y-81001407D01*
X194322904Y-81001414D01*
X194272498Y-81100341D01*
X194255131Y-81209997D01*
X188269031Y-81209997D01*
X188284869Y-81110002D01*
X188284869Y-81109997D01*
X188267501Y-81000343D01*
X188267500Y-81000341D01*
X188267500Y-81000339D01*
X188224866Y-80916665D01*
X188211971Y-80847998D01*
X188224866Y-80804081D01*
X188247500Y-80759661D01*
X188247843Y-80757500D01*
X188264869Y-80650002D01*
X188264869Y-80649997D01*
X188247501Y-80540343D01*
X188247500Y-80540341D01*
X188247500Y-80540339D01*
X188207318Y-80461477D01*
X188194423Y-80392812D01*
X188207317Y-80348896D01*
X188237500Y-80289661D01*
X188240561Y-80270339D01*
X188254869Y-80180002D01*
X188254869Y-80179997D01*
X189665131Y-80179997D01*
X189665131Y-80180002D01*
X189682498Y-80289658D01*
X189727680Y-80378332D01*
X189740576Y-80447001D01*
X189727680Y-80490920D01*
X189702498Y-80540341D01*
X189685131Y-80649997D01*
X189685131Y-80650002D01*
X189702498Y-80759658D01*
X189752904Y-80858585D01*
X189752909Y-80858592D01*
X189831407Y-80937090D01*
X189831410Y-80937092D01*
X189831413Y-80937095D01*
X189878907Y-80961294D01*
X189930341Y-80987501D01*
X190039998Y-81004869D01*
X190040000Y-81004869D01*
X190040002Y-81004869D01*
X190149658Y-80987501D01*
X190149659Y-80987500D01*
X190149661Y-80987500D01*
X190248587Y-80937095D01*
X190327095Y-80858587D01*
X190377500Y-80759661D01*
X190377500Y-80759659D01*
X190377501Y-80759658D01*
X190385367Y-80709997D01*
X193165131Y-80709997D01*
X193165131Y-80710002D01*
X193182498Y-80819658D01*
X193232904Y-80918585D01*
X193232909Y-80918592D01*
X193311407Y-80997090D01*
X193311410Y-80997092D01*
X193311413Y-80997095D01*
X193410339Y-81047500D01*
X193410341Y-81047501D01*
X193519998Y-81064869D01*
X193520000Y-81064869D01*
X193520002Y-81064869D01*
X193629658Y-81047501D01*
X193629659Y-81047500D01*
X193629661Y-81047500D01*
X193728587Y-80997095D01*
X193807095Y-80918587D01*
X193857500Y-80819661D01*
X193857500Y-80819659D01*
X193857501Y-80819658D01*
X193874869Y-80710002D01*
X193874869Y-80709999D01*
X193868073Y-80667095D01*
X193860241Y-80617645D01*
X193869195Y-80548353D01*
X193914191Y-80494901D01*
X193963316Y-80475775D01*
X194009659Y-80468435D01*
X194009660Y-80468434D01*
X194009662Y-80468434D01*
X194108588Y-80418029D01*
X194187096Y-80339521D01*
X194237501Y-80240595D01*
X194237501Y-80240593D01*
X194237502Y-80240592D01*
X194254870Y-80130936D01*
X194254870Y-80130931D01*
X194237502Y-80021275D01*
X194224181Y-79995131D01*
X194187096Y-79922347D01*
X194187093Y-79922344D01*
X194187091Y-79922341D01*
X194108593Y-79843843D01*
X194108589Y-79843840D01*
X194108588Y-79843839D01*
X194096147Y-79837500D01*
X194017641Y-79797499D01*
X194745130Y-79797499D01*
X194745130Y-79797504D01*
X194762497Y-79907160D01*
X194812903Y-80006087D01*
X194812908Y-80006094D01*
X194891406Y-80084592D01*
X194891409Y-80084594D01*
X194891412Y-80084597D01*
X194982348Y-80130931D01*
X194990340Y-80135003D01*
X195099997Y-80152371D01*
X195099999Y-80152371D01*
X195100001Y-80152371D01*
X195209657Y-80135003D01*
X195209658Y-80135002D01*
X195209660Y-80135002D01*
X195308586Y-80084597D01*
X195387094Y-80006089D01*
X195437499Y-79907163D01*
X195437499Y-79907161D01*
X195437500Y-79907160D01*
X195454868Y-79797504D01*
X195454868Y-79797499D01*
X195437500Y-79687843D01*
X195437499Y-79687841D01*
X195387094Y-79588915D01*
X195387091Y-79588912D01*
X195387089Y-79588909D01*
X195308591Y-79510411D01*
X195308587Y-79510408D01*
X195308586Y-79510407D01*
X195271296Y-79491407D01*
X195209657Y-79460000D01*
X195100001Y-79442633D01*
X195099997Y-79442633D01*
X194990340Y-79460000D01*
X194891413Y-79510406D01*
X194891406Y-79510411D01*
X194812908Y-79588909D01*
X194812903Y-79588916D01*
X194762497Y-79687843D01*
X194745130Y-79797499D01*
X194017641Y-79797499D01*
X194009659Y-79793432D01*
X193900003Y-79776065D01*
X193899999Y-79776065D01*
X193790342Y-79793432D01*
X193691415Y-79843838D01*
X193691408Y-79843843D01*
X193612910Y-79922341D01*
X193612905Y-79922348D01*
X193562499Y-80021275D01*
X193545132Y-80130931D01*
X193545132Y-80130936D01*
X193559759Y-80223287D01*
X193550804Y-80292581D01*
X193505808Y-80346032D01*
X193456686Y-80365158D01*
X193410341Y-80372499D01*
X193311414Y-80422904D01*
X193311407Y-80422909D01*
X193232909Y-80501407D01*
X193232904Y-80501414D01*
X193182498Y-80600341D01*
X193165131Y-80709997D01*
X190385367Y-80709997D01*
X190394869Y-80650002D01*
X190394869Y-80649997D01*
X190377501Y-80540343D01*
X190377500Y-80540341D01*
X190377500Y-80540339D01*
X190332318Y-80451664D01*
X190319423Y-80382999D01*
X190332318Y-80339083D01*
X190357500Y-80289661D01*
X190360561Y-80270339D01*
X190374869Y-80180002D01*
X190374869Y-80179997D01*
X190357501Y-80070341D01*
X190336971Y-80030048D01*
X190307095Y-79971413D01*
X190307092Y-79971410D01*
X190307090Y-79971407D01*
X190228592Y-79892909D01*
X190228588Y-79892906D01*
X190228587Y-79892905D01*
X190153937Y-79854869D01*
X190129658Y-79842498D01*
X190020002Y-79825131D01*
X190019998Y-79825131D01*
X189910341Y-79842498D01*
X189811414Y-79892904D01*
X189811407Y-79892909D01*
X189732909Y-79971407D01*
X189732904Y-79971414D01*
X189682498Y-80070341D01*
X189665131Y-80179997D01*
X188254869Y-80179997D01*
X188237501Y-80070341D01*
X188216971Y-80030048D01*
X188187095Y-79971413D01*
X188187092Y-79971410D01*
X188187090Y-79971407D01*
X188108592Y-79892909D01*
X188108588Y-79892906D01*
X188108587Y-79892905D01*
X188033937Y-79854869D01*
X188009658Y-79842498D01*
X187900002Y-79825131D01*
X187899998Y-79825131D01*
X187790341Y-79842498D01*
X187691414Y-79892904D01*
X187691407Y-79892909D01*
X187612909Y-79971407D01*
X187612906Y-79971412D01*
X187612905Y-79971413D01*
X187580485Y-80035042D01*
X187532510Y-80085838D01*
X187464689Y-80102633D01*
X187398554Y-80080096D01*
X187359515Y-80035042D01*
X187327095Y-79971413D01*
X187327091Y-79971409D01*
X187327090Y-79971407D01*
X187248592Y-79892909D01*
X187248588Y-79892906D01*
X187248587Y-79892905D01*
X187173937Y-79854869D01*
X187149658Y-79842498D01*
X187040002Y-79825131D01*
X187039998Y-79825131D01*
X186930341Y-79842498D01*
X186831414Y-79892904D01*
X186831407Y-79892909D01*
X186752909Y-79971407D01*
X186752904Y-79971414D01*
X186702498Y-80070341D01*
X186685131Y-80179997D01*
X183361131Y-80179997D01*
X183342533Y-80147784D01*
X183215871Y-80007112D01*
X183215870Y-80007111D01*
X183062734Y-79895851D01*
X183062729Y-79895848D01*
X182889807Y-79818857D01*
X182889802Y-79818855D01*
X182740354Y-79787090D01*
X182704646Y-79779500D01*
X182515354Y-79779500D01*
X182482897Y-79786398D01*
X182330197Y-79818855D01*
X182330192Y-79818857D01*
X182157270Y-79895848D01*
X182157265Y-79895851D01*
X182004129Y-80007111D01*
X181877466Y-80147785D01*
X181782821Y-80311715D01*
X181782818Y-80311722D01*
X181724327Y-80491740D01*
X181724326Y-80491744D01*
X181704540Y-80680000D01*
X181450500Y-80680000D01*
X181450500Y-79499997D01*
X190625131Y-79499997D01*
X190625131Y-79500002D01*
X190642498Y-79609658D01*
X190692904Y-79708585D01*
X190692909Y-79708592D01*
X190771407Y-79787090D01*
X190771410Y-79787092D01*
X190771413Y-79787095D01*
X190870339Y-79837500D01*
X190870341Y-79837501D01*
X190979998Y-79854869D01*
X190980000Y-79854869D01*
X190980002Y-79854869D01*
X191089658Y-79837501D01*
X191089659Y-79837500D01*
X191089661Y-79837500D01*
X191188587Y-79787095D01*
X191267095Y-79708587D01*
X191317500Y-79609661D01*
X191317500Y-79609659D01*
X191317501Y-79609658D01*
X191333220Y-79510411D01*
X191334869Y-79500000D01*
X191334869Y-79499997D01*
X191335334Y-79497061D01*
X191365263Y-79433926D01*
X191370108Y-79428795D01*
X192296080Y-78502823D01*
X192357401Y-78469340D01*
X192427093Y-78474324D01*
X192483026Y-78516196D01*
X192507443Y-78581660D01*
X192506233Y-78609903D01*
X192501809Y-78637837D01*
X192498254Y-78660286D01*
X192495131Y-78680002D01*
X192512498Y-78789658D01*
X192562904Y-78888585D01*
X192562909Y-78888592D01*
X192641407Y-78967090D01*
X192641410Y-78967092D01*
X192641413Y-78967095D01*
X192678974Y-78986233D01*
X192740341Y-79017501D01*
X192849998Y-79034869D01*
X192850000Y-79034869D01*
X192850002Y-79034869D01*
X192959656Y-79017501D01*
X192959656Y-79017500D01*
X192959661Y-79017500D01*
X193021027Y-78986232D01*
X193089693Y-78973337D01*
X193133609Y-78986231D01*
X193156292Y-78997789D01*
X193156294Y-78997789D01*
X193156296Y-78997790D01*
X193265951Y-79015158D01*
X193265953Y-79015158D01*
X193265955Y-79015158D01*
X193375611Y-78997790D01*
X193375612Y-78997789D01*
X193375614Y-78997789D01*
X193474540Y-78947384D01*
X193553048Y-78868876D01*
X193603453Y-78769950D01*
X193603453Y-78769948D01*
X193603454Y-78769947D01*
X193607010Y-78747495D01*
X194371569Y-78747495D01*
X194371569Y-78747500D01*
X194388936Y-78857156D01*
X194439342Y-78956083D01*
X194439347Y-78956090D01*
X194517845Y-79034588D01*
X194517848Y-79034590D01*
X194517851Y-79034593D01*
X194616777Y-79084998D01*
X194616779Y-79084999D01*
X194726436Y-79102367D01*
X194726438Y-79102367D01*
X194726440Y-79102367D01*
X194836096Y-79084999D01*
X194836097Y-79084998D01*
X194836099Y-79084998D01*
X194935025Y-79034593D01*
X195013533Y-78956085D01*
X195063938Y-78857159D01*
X195063938Y-78857157D01*
X195063939Y-78857156D01*
X195081307Y-78747500D01*
X195081307Y-78747495D01*
X195063939Y-78637839D01*
X195049705Y-78609903D01*
X195013533Y-78538911D01*
X195013530Y-78538908D01*
X195013528Y-78538905D01*
X194935030Y-78460407D01*
X194935026Y-78460404D01*
X194935025Y-78460403D01*
X194836099Y-78409998D01*
X194836097Y-78409997D01*
X194836096Y-78409997D01*
X194749407Y-78396266D01*
X194686273Y-78366336D01*
X194651662Y-78310750D01*
X194651097Y-78350334D01*
X194612487Y-78408567D01*
X194588927Y-78424187D01*
X194517851Y-78460403D01*
X194517850Y-78460404D01*
X194517845Y-78460407D01*
X194439347Y-78538905D01*
X194439342Y-78538912D01*
X194388936Y-78637839D01*
X194371569Y-78747495D01*
X193607010Y-78747495D01*
X193620822Y-78660291D01*
X193620822Y-78660286D01*
X193603454Y-78550632D01*
X193603453Y-78550630D01*
X193603453Y-78550628D01*
X193577959Y-78500593D01*
X193565064Y-78431928D01*
X193577962Y-78388005D01*
X193597499Y-78349662D01*
X193597500Y-78349661D01*
X193597500Y-78349659D01*
X193597501Y-78349658D01*
X193614869Y-78240002D01*
X193614869Y-78239997D01*
X193597501Y-78130341D01*
X193555848Y-78048592D01*
X193547095Y-78031413D01*
X193547092Y-78031410D01*
X193547090Y-78031407D01*
X193468592Y-77952909D01*
X193468588Y-77952906D01*
X193468587Y-77952905D01*
X193462214Y-77949658D01*
X193369658Y-77902498D01*
X193260002Y-77885131D01*
X193260000Y-77885131D01*
X193225547Y-77890587D01*
X193156254Y-77881630D01*
X193102803Y-77836633D01*
X193082165Y-77769881D01*
X193100891Y-77702568D01*
X193118465Y-77680438D01*
X193217087Y-77581818D01*
X193278410Y-77548334D01*
X193304767Y-77545500D01*
X194129331Y-77545500D01*
X194196370Y-77565185D01*
X194242125Y-77617989D01*
X194252069Y-77687147D01*
X194239816Y-77725794D01*
X194237498Y-77730341D01*
X194220131Y-77839997D01*
X194220131Y-77840002D01*
X194237498Y-77949658D01*
X194287904Y-78048585D01*
X194287909Y-78048592D01*
X194366407Y-78127090D01*
X194366410Y-78127092D01*
X194366413Y-78127095D01*
X194465339Y-78177500D01*
X194465341Y-78177501D01*
X194552029Y-78191231D01*
X194615164Y-78221160D01*
X194649774Y-78276745D01*
X194650340Y-78237162D01*
X194688951Y-78178929D01*
X194712501Y-78163314D01*
X194783587Y-78127095D01*
X194862095Y-78048587D01*
X194912500Y-77949661D01*
X194912500Y-77949659D01*
X194912501Y-77949658D01*
X194929869Y-77840002D01*
X194929869Y-77839997D01*
X194912501Y-77730342D01*
X194912500Y-77730340D01*
X194912500Y-77730339D01*
X194886851Y-77680000D01*
X194873955Y-77611335D01*
X194900231Y-77546594D01*
X194909658Y-77536024D01*
X194917095Y-77528587D01*
X194967500Y-77429661D01*
X194967500Y-77429659D01*
X194967501Y-77429658D01*
X194984869Y-77320002D01*
X194984869Y-77319997D01*
X194967501Y-77210341D01*
X194917095Y-77111413D01*
X194917090Y-77111407D01*
X194838592Y-77032909D01*
X194838588Y-77032906D01*
X194838587Y-77032905D01*
X194783208Y-77004688D01*
X194739658Y-76982498D01*
X194630002Y-76965131D01*
X194629998Y-76965131D01*
X194520341Y-76982498D01*
X194421414Y-77032904D01*
X194421407Y-77032909D01*
X194396136Y-77058181D01*
X194334813Y-77091666D01*
X194308455Y-77094500D01*
X193219297Y-77094500D01*
X193219289Y-77094499D01*
X193204855Y-77094499D01*
X193115146Y-77094499D01*
X193115145Y-77094499D01*
X193074313Y-77111413D01*
X193074311Y-77111413D01*
X193032266Y-77128827D01*
X193032264Y-77128829D01*
X192968829Y-77192265D01*
X191051220Y-79109873D01*
X190989897Y-79143358D01*
X190982937Y-79144665D01*
X190870341Y-79162498D01*
X190771414Y-79212904D01*
X190771407Y-79212909D01*
X190692909Y-79291407D01*
X190692904Y-79291414D01*
X190642498Y-79390341D01*
X190625131Y-79499997D01*
X181450500Y-79499997D01*
X181450500Y-78184277D01*
X184725131Y-78184277D01*
X184725131Y-78184282D01*
X184742498Y-78293938D01*
X184792904Y-78392865D01*
X184792909Y-78392872D01*
X184871407Y-78471370D01*
X184871410Y-78471372D01*
X184871413Y-78471375D01*
X184959380Y-78516196D01*
X184970341Y-78521781D01*
X185079998Y-78539149D01*
X185080000Y-78539149D01*
X185080002Y-78539149D01*
X185189656Y-78521781D01*
X185189656Y-78521780D01*
X185189661Y-78521780D01*
X185258095Y-78486911D01*
X185326760Y-78474016D01*
X185370680Y-78486912D01*
X185450341Y-78527501D01*
X185559998Y-78544869D01*
X185560000Y-78544869D01*
X185560002Y-78544869D01*
X185669658Y-78527501D01*
X185669659Y-78527500D01*
X185669661Y-78527500D01*
X185768587Y-78477095D01*
X185847095Y-78398587D01*
X185897500Y-78299661D01*
X185897500Y-78299659D01*
X185897501Y-78299658D01*
X185914869Y-78190002D01*
X185914869Y-78189997D01*
X185897501Y-78080341D01*
X185863163Y-78012948D01*
X185850267Y-77944279D01*
X185873330Y-77883769D01*
X185877091Y-77878590D01*
X185877095Y-77878587D01*
X185927500Y-77779661D01*
X185927500Y-77779659D01*
X185927501Y-77779658D01*
X185944869Y-77670002D01*
X185944869Y-77669997D01*
X185927501Y-77560341D01*
X185911323Y-77528590D01*
X185877095Y-77461413D01*
X185877092Y-77461410D01*
X185877090Y-77461407D01*
X185798592Y-77382909D01*
X185798588Y-77382906D01*
X185798587Y-77382905D01*
X185794743Y-77380946D01*
X185699658Y-77332498D01*
X185590002Y-77315131D01*
X185589998Y-77315131D01*
X185480341Y-77332498D01*
X185396294Y-77375323D01*
X185327625Y-77388219D01*
X185283706Y-77375323D01*
X185199658Y-77332498D01*
X185090002Y-77315131D01*
X185089998Y-77315131D01*
X184980341Y-77332498D01*
X184881414Y-77382904D01*
X184881407Y-77382909D01*
X184802909Y-77461407D01*
X184802904Y-77461414D01*
X184752498Y-77560341D01*
X184735131Y-77669997D01*
X184735131Y-77670002D01*
X184752498Y-77779658D01*
X184793960Y-77861032D01*
X184806856Y-77929701D01*
X184793961Y-77973619D01*
X184742498Y-78074622D01*
X184725131Y-78184277D01*
X181450500Y-78184277D01*
X181450500Y-76982550D01*
X181470185Y-76915511D01*
X181522989Y-76869756D01*
X181592147Y-76859812D01*
X181630790Y-76872063D01*
X181700339Y-76907500D01*
X181700341Y-76907500D01*
X181700343Y-76907501D01*
X181809998Y-76924869D01*
X181810000Y-76924869D01*
X181810002Y-76924869D01*
X181919658Y-76907501D01*
X181919659Y-76907500D01*
X181919661Y-76907500D01*
X182018587Y-76857095D01*
X182022778Y-76852904D01*
X182072319Y-76803364D01*
X182133642Y-76769879D01*
X182203334Y-76774863D01*
X182247681Y-76803364D01*
X182301407Y-76857090D01*
X182301410Y-76857092D01*
X182301413Y-76857095D01*
X182365012Y-76889500D01*
X182400341Y-76907501D01*
X182509998Y-76924869D01*
X182510000Y-76924869D01*
X182510002Y-76924869D01*
X182540762Y-76919997D01*
X191465131Y-76919997D01*
X191465131Y-76920002D01*
X191482498Y-77029658D01*
X191532904Y-77128585D01*
X191532909Y-77128592D01*
X191611407Y-77207090D01*
X191611410Y-77207092D01*
X191611413Y-77207095D01*
X191679090Y-77241578D01*
X191710341Y-77257501D01*
X191819998Y-77274869D01*
X191820000Y-77274869D01*
X191820002Y-77274869D01*
X191929658Y-77257501D01*
X191929659Y-77257500D01*
X191929661Y-77257500D01*
X192028587Y-77207095D01*
X192107095Y-77128587D01*
X192157500Y-77029661D01*
X192157500Y-77029659D01*
X192157501Y-77029658D01*
X192174869Y-76920002D01*
X192174869Y-76919997D01*
X192157501Y-76810341D01*
X192157500Y-76810339D01*
X192107095Y-76711413D01*
X192107092Y-76711410D01*
X192107090Y-76711407D01*
X192028592Y-76632909D01*
X192028588Y-76632906D01*
X192028587Y-76632905D01*
X192019031Y-76628036D01*
X191929658Y-76582498D01*
X191820002Y-76565131D01*
X191819998Y-76565131D01*
X191710341Y-76582498D01*
X191611414Y-76632904D01*
X191611407Y-76632909D01*
X191532909Y-76711407D01*
X191532904Y-76711414D01*
X191482498Y-76810341D01*
X191465131Y-76919997D01*
X182540762Y-76919997D01*
X182619658Y-76907501D01*
X182619659Y-76907500D01*
X182619661Y-76907500D01*
X182718587Y-76857095D01*
X182797095Y-76778587D01*
X182847500Y-76679661D01*
X182847500Y-76679659D01*
X182847501Y-76679658D01*
X182864869Y-76570000D01*
X182864869Y-76569997D01*
X182847501Y-76460341D01*
X182847326Y-76459997D01*
X190475131Y-76459997D01*
X190475131Y-76460002D01*
X190492498Y-76569658D01*
X190542904Y-76668585D01*
X190542909Y-76668592D01*
X190621407Y-76747090D01*
X190621410Y-76747092D01*
X190621413Y-76747095D01*
X190715690Y-76795131D01*
X190720341Y-76797501D01*
X190829998Y-76814869D01*
X190830000Y-76814869D01*
X190830002Y-76814869D01*
X190939658Y-76797501D01*
X190939659Y-76797500D01*
X190939661Y-76797500D01*
X191038587Y-76747095D01*
X191117095Y-76668587D01*
X191167500Y-76569661D01*
X191167500Y-76569659D01*
X191167501Y-76569658D01*
X191184869Y-76460002D01*
X191184869Y-76459997D01*
X191167501Y-76350341D01*
X191142778Y-76301819D01*
X191117095Y-76251413D01*
X191117092Y-76251410D01*
X191117090Y-76251407D01*
X191038592Y-76172909D01*
X191038588Y-76172906D01*
X191038587Y-76172905D01*
X190991221Y-76148771D01*
X190939658Y-76122498D01*
X190830002Y-76105131D01*
X190829998Y-76105131D01*
X190720341Y-76122498D01*
X190621414Y-76172904D01*
X190621407Y-76172909D01*
X190542909Y-76251407D01*
X190542904Y-76251414D01*
X190492498Y-76350341D01*
X190475131Y-76459997D01*
X182847326Y-76459997D01*
X182797095Y-76361413D01*
X182797092Y-76361410D01*
X182797090Y-76361407D01*
X182718592Y-76282909D01*
X182718588Y-76282906D01*
X182718587Y-76282905D01*
X182662943Y-76254553D01*
X182619658Y-76232498D01*
X182510002Y-76215131D01*
X182509998Y-76215131D01*
X182400341Y-76232498D01*
X182301414Y-76282904D01*
X182301407Y-76282909D01*
X182247681Y-76336636D01*
X182186358Y-76370121D01*
X182116666Y-76365137D01*
X182072319Y-76336636D01*
X182018592Y-76282909D01*
X182018588Y-76282906D01*
X182018587Y-76282905D01*
X181962943Y-76254553D01*
X181919658Y-76232498D01*
X181810002Y-76215131D01*
X181809998Y-76215131D01*
X181700342Y-76232498D01*
X181630793Y-76267935D01*
X181562124Y-76280830D01*
X181497384Y-76254553D01*
X181457128Y-76197446D01*
X181450500Y-76157449D01*
X181450500Y-72709997D01*
X185915131Y-72709997D01*
X185915131Y-72710002D01*
X185932498Y-72819658D01*
X185982904Y-72918585D01*
X185982909Y-72918592D01*
X186061407Y-72997090D01*
X186061410Y-72997092D01*
X186061413Y-72997095D01*
X186160339Y-73047500D01*
X186179461Y-73050528D01*
X186242595Y-73080457D01*
X186279527Y-73139768D01*
X186278531Y-73209630D01*
X186263166Y-73241892D01*
X186157684Y-73399757D01*
X186157676Y-73399771D01*
X186086027Y-73572748D01*
X186086025Y-73572756D01*
X186049500Y-73756379D01*
X186049500Y-73943620D01*
X186086025Y-74127243D01*
X186086027Y-74127251D01*
X186157676Y-74300228D01*
X186157681Y-74300237D01*
X186261697Y-74455907D01*
X186261700Y-74455911D01*
X186394088Y-74588299D01*
X186394092Y-74588302D01*
X186549762Y-74692318D01*
X186549768Y-74692321D01*
X186549769Y-74692322D01*
X186722749Y-74763973D01*
X186855301Y-74790339D01*
X186906379Y-74800499D01*
X186906383Y-74800500D01*
X186906384Y-74800500D01*
X187093617Y-74800500D01*
X187093618Y-74800499D01*
X187277251Y-74763973D01*
X187450231Y-74692322D01*
X187605908Y-74588302D01*
X187738302Y-74455908D01*
X187842322Y-74300231D01*
X187913973Y-74127251D01*
X187950500Y-73943616D01*
X187950500Y-73756384D01*
X187913973Y-73572749D01*
X187858554Y-73438956D01*
X187842323Y-73399771D01*
X187842318Y-73399762D01*
X187738302Y-73244092D01*
X187738299Y-73244088D01*
X187641392Y-73147181D01*
X187607907Y-73085858D01*
X187612891Y-73016166D01*
X187654763Y-72960233D01*
X187720227Y-72935816D01*
X187729073Y-72935500D01*
X188744902Y-72935500D01*
X188811941Y-72955185D01*
X188832583Y-72971819D01*
X189466428Y-73605664D01*
X189466431Y-73605668D01*
X189473499Y-73612736D01*
X189536933Y-73676170D01*
X189566907Y-73688585D01*
X189566909Y-73688587D01*
X189566910Y-73688587D01*
X189619812Y-73710500D01*
X189619813Y-73710500D01*
X189619815Y-73710501D01*
X189619816Y-73710501D01*
X189723958Y-73710501D01*
X189723966Y-73710500D01*
X190330233Y-73710500D01*
X190397272Y-73730185D01*
X190417914Y-73746819D01*
X192123180Y-75452085D01*
X192156665Y-75513408D01*
X192159499Y-75539766D01*
X192159499Y-75540186D01*
X192172434Y-75571413D01*
X192172433Y-75571413D01*
X192193828Y-75623064D01*
X192193831Y-75623068D01*
X192274700Y-75703937D01*
X192274705Y-75703941D01*
X192514969Y-75944206D01*
X192738498Y-76167735D01*
X192801935Y-76231172D01*
X192858385Y-76254553D01*
X192884814Y-76265500D01*
X196135233Y-76265500D01*
X196202272Y-76285185D01*
X196222914Y-76301819D01*
X196509645Y-76588550D01*
X196543130Y-76649873D01*
X196538146Y-76719565D01*
X196496274Y-76775498D01*
X196430810Y-76799915D01*
X196402569Y-76798705D01*
X196380000Y-76795131D01*
X196379998Y-76795131D01*
X196270341Y-76812498D01*
X196171414Y-76862904D01*
X196171407Y-76862909D01*
X196092909Y-76941407D01*
X196092904Y-76941414D01*
X196042498Y-77040341D01*
X196025131Y-77149996D01*
X196025131Y-77149998D01*
X196025131Y-77150000D01*
X196025578Y-77152827D01*
X196025131Y-77156291D01*
X196025131Y-77159758D01*
X196024683Y-77159758D01*
X196016623Y-77222118D01*
X195971626Y-77275570D01*
X195959400Y-77282707D01*
X195949059Y-77287976D01*
X195880390Y-77300872D01*
X195836470Y-77287976D01*
X195745404Y-77241576D01*
X195635748Y-77224209D01*
X195635744Y-77224209D01*
X195526087Y-77241576D01*
X195427160Y-77291982D01*
X195427153Y-77291987D01*
X195348655Y-77370485D01*
X195348650Y-77370492D01*
X195298244Y-77469419D01*
X195280877Y-77579075D01*
X195280877Y-77579080D01*
X195298244Y-77688736D01*
X195348650Y-77787663D01*
X195348655Y-77787670D01*
X195427153Y-77866168D01*
X195427156Y-77866170D01*
X195427159Y-77866173D01*
X195526085Y-77916578D01*
X195526087Y-77916579D01*
X195635744Y-77933947D01*
X195635746Y-77933947D01*
X195635748Y-77933947D01*
X195745403Y-77916579D01*
X195745404Y-77916578D01*
X195745407Y-77916578D01*
X195822386Y-77877355D01*
X195891051Y-77864459D01*
X195934966Y-77877353D01*
X196026036Y-77923755D01*
X196026038Y-77923755D01*
X196026040Y-77923756D01*
X196135695Y-77941124D01*
X196135697Y-77941124D01*
X196135699Y-77941124D01*
X196245355Y-77923756D01*
X196245356Y-77923755D01*
X196245358Y-77923755D01*
X196344284Y-77873350D01*
X196422792Y-77794842D01*
X196473197Y-77695916D01*
X196473197Y-77695914D01*
X196473198Y-77695913D01*
X196490566Y-77586257D01*
X196490566Y-77586255D01*
X196490119Y-77583434D01*
X196490566Y-77579975D01*
X196490566Y-77576496D01*
X196491015Y-77576496D01*
X196499070Y-77514142D01*
X196544063Y-77460687D01*
X196556279Y-77453556D01*
X196588587Y-77437095D01*
X196667095Y-77358587D01*
X196717500Y-77259661D01*
X196717500Y-77259659D01*
X196717501Y-77259658D01*
X196734869Y-77150002D01*
X196734869Y-77149998D01*
X196731295Y-77127433D01*
X196740249Y-77058140D01*
X196785246Y-77004688D01*
X196851997Y-76984048D01*
X196919311Y-77002773D01*
X196941449Y-77020354D01*
X196989873Y-77068778D01*
X197023358Y-77130101D01*
X197024665Y-77137061D01*
X197042498Y-77249658D01*
X197092904Y-77348585D01*
X197092909Y-77348592D01*
X197171407Y-77427090D01*
X197171410Y-77427092D01*
X197171413Y-77427095D01*
X197254475Y-77469417D01*
X197270341Y-77477501D01*
X197379998Y-77494869D01*
X197380000Y-77494869D01*
X197380002Y-77494869D01*
X197489658Y-77477501D01*
X197489659Y-77477500D01*
X197489661Y-77477500D01*
X197588587Y-77427095D01*
X197667095Y-77348587D01*
X197717500Y-77249661D01*
X197717500Y-77249659D01*
X197717501Y-77249658D01*
X197734869Y-77140002D01*
X197734869Y-77139997D01*
X198855131Y-77139997D01*
X198855131Y-77140002D01*
X198872498Y-77249658D01*
X198922904Y-77348585D01*
X198922909Y-77348592D01*
X199001407Y-77427090D01*
X199001410Y-77427092D01*
X199001413Y-77427095D01*
X199084475Y-77469417D01*
X199100341Y-77477501D01*
X199209998Y-77494869D01*
X199210000Y-77494869D01*
X199210002Y-77494869D01*
X199319658Y-77477501D01*
X199319659Y-77477500D01*
X199319661Y-77477500D01*
X199418587Y-77427095D01*
X199418592Y-77427090D01*
X199418864Y-77426819D01*
X199419275Y-77426594D01*
X199426486Y-77421356D01*
X199427162Y-77422287D01*
X199480187Y-77393334D01*
X199506545Y-77390500D01*
X199559928Y-77390500D01*
X199626967Y-77410185D01*
X199647609Y-77426819D01*
X201956868Y-79736077D01*
X201990353Y-79797400D01*
X201991658Y-79804345D01*
X201992500Y-79809661D01*
X202042905Y-79908587D01*
X202042906Y-79908588D01*
X202043175Y-79908857D01*
X202043397Y-79909263D01*
X202048644Y-79916486D01*
X202047711Y-79917163D01*
X202076664Y-79970177D01*
X202079500Y-79996544D01*
X202079500Y-80134517D01*
X202059815Y-80201556D01*
X202055823Y-80207396D01*
X202052905Y-80211411D01*
X202002498Y-80310341D01*
X201985131Y-80419997D01*
X201985131Y-80420002D01*
X202002498Y-80529658D01*
X202052904Y-80628585D01*
X202052909Y-80628592D01*
X202131407Y-80707090D01*
X202131410Y-80707092D01*
X202131413Y-80707095D01*
X202185923Y-80734869D01*
X202230341Y-80757501D01*
X202339998Y-80774869D01*
X202340000Y-80774869D01*
X202340002Y-80774869D01*
X202449658Y-80757501D01*
X202449659Y-80757500D01*
X202449661Y-80757500D01*
X202548587Y-80707095D01*
X202627095Y-80628587D01*
X202677500Y-80529661D01*
X202677500Y-80529659D01*
X202677501Y-80529658D01*
X202694869Y-80420002D01*
X202694869Y-80419997D01*
X202677501Y-80310341D01*
X202666964Y-80289661D01*
X202627095Y-80211413D01*
X202627092Y-80211410D01*
X202627090Y-80211407D01*
X202616819Y-80201136D01*
X202583334Y-80139813D01*
X202580500Y-80113455D01*
X202580500Y-79996544D01*
X202600185Y-79929505D01*
X202616825Y-79908857D01*
X202617095Y-79908587D01*
X202667500Y-79809661D01*
X202667500Y-79809659D01*
X202667501Y-79809658D01*
X202684869Y-79700002D01*
X202684869Y-79699997D01*
X202667501Y-79590341D01*
X202666771Y-79588909D01*
X202617095Y-79491413D01*
X202617092Y-79491410D01*
X202617090Y-79491407D01*
X202538592Y-79412909D01*
X202538588Y-79412906D01*
X202538587Y-79412905D01*
X202534743Y-79410946D01*
X202439658Y-79362498D01*
X202330003Y-79345131D01*
X202325804Y-79345131D01*
X202320886Y-79343687D01*
X202320362Y-79343604D01*
X202320372Y-79343536D01*
X202258765Y-79325446D01*
X202238123Y-79308812D01*
X201059652Y-78130341D01*
X199856948Y-76927636D01*
X199838506Y-76919997D01*
X199764880Y-76889500D01*
X199764879Y-76889500D01*
X199506545Y-76889500D01*
X199439506Y-76869815D01*
X199418864Y-76853181D01*
X199418592Y-76852909D01*
X199418588Y-76852906D01*
X199418587Y-76852905D01*
X199343937Y-76814869D01*
X199319658Y-76802498D01*
X199210002Y-76785131D01*
X199209998Y-76785131D01*
X199100341Y-76802498D01*
X199001414Y-76852904D01*
X199001407Y-76852909D01*
X198922909Y-76931407D01*
X198922904Y-76931414D01*
X198872498Y-77030341D01*
X198855131Y-77139997D01*
X197734869Y-77139997D01*
X197717501Y-77030341D01*
X197704430Y-77004688D01*
X197667095Y-76931413D01*
X197667092Y-76931410D01*
X197667090Y-76931407D01*
X197588592Y-76852909D01*
X197588588Y-76852906D01*
X197588587Y-76852905D01*
X197513937Y-76814869D01*
X197489658Y-76802498D01*
X197377061Y-76784665D01*
X197313926Y-76754736D01*
X197308778Y-76749873D01*
X196488610Y-75929705D01*
X196471170Y-75912264D01*
X196407736Y-75848830D01*
X196407735Y-75848829D01*
X196383457Y-75838772D01*
X196383457Y-75838771D01*
X196324858Y-75814500D01*
X196324856Y-75814499D01*
X196324855Y-75814499D01*
X196235145Y-75814499D01*
X196220711Y-75814499D01*
X196220703Y-75814500D01*
X193080544Y-75814500D01*
X193013505Y-75794815D01*
X192967750Y-75742011D01*
X192957806Y-75672853D01*
X192986831Y-75609297D01*
X192992849Y-75602832D01*
X193047095Y-75548587D01*
X193097500Y-75449661D01*
X193097500Y-75449659D01*
X193097501Y-75449658D01*
X193114869Y-75340002D01*
X193114869Y-75339997D01*
X193097501Y-75230342D01*
X193097500Y-75230340D01*
X193097500Y-75230339D01*
X193094962Y-75225359D01*
X193082066Y-75156692D01*
X193094962Y-75112770D01*
X193097091Y-75108590D01*
X193097095Y-75108587D01*
X193147500Y-75009661D01*
X193147501Y-75009656D01*
X193164869Y-74900002D01*
X193164869Y-74890241D01*
X193167808Y-74890241D01*
X193174747Y-74836539D01*
X193219743Y-74783087D01*
X193268866Y-74763961D01*
X193309661Y-74757500D01*
X193408587Y-74707095D01*
X193487095Y-74628587D01*
X193505109Y-74593231D01*
X193553079Y-74542438D01*
X193620900Y-74525642D01*
X193687035Y-74548178D01*
X193703273Y-74561847D01*
X194472090Y-75330664D01*
X194472093Y-75330668D01*
X194542597Y-75401172D01*
X194606696Y-75427721D01*
X194625476Y-75435500D01*
X197115233Y-75435500D01*
X197182272Y-75455185D01*
X197202914Y-75471819D01*
X197321759Y-75590664D01*
X197321762Y-75590668D01*
X197328830Y-75597736D01*
X197392264Y-75661170D01*
X197426592Y-75675388D01*
X197426594Y-75675390D01*
X197426595Y-75675390D01*
X197475146Y-75695501D01*
X197475147Y-75695501D01*
X197579289Y-75695501D01*
X197579297Y-75695500D01*
X198780061Y-75695500D01*
X198847100Y-75715185D01*
X198867743Y-75731819D01*
X198874182Y-75738258D01*
X198874183Y-75738260D01*
X198952691Y-75816768D01*
X199015615Y-75848829D01*
X199051619Y-75867174D01*
X199161276Y-75884542D01*
X199161278Y-75884542D01*
X199161280Y-75884542D01*
X199270936Y-75867174D01*
X199270937Y-75867173D01*
X199270939Y-75867173D01*
X199369865Y-75816768D01*
X199448373Y-75738260D01*
X199498778Y-75639334D01*
X199499814Y-75632791D01*
X199529741Y-75569656D01*
X199589051Y-75532722D01*
X199658914Y-75533718D01*
X199661032Y-75534578D01*
X199661062Y-75534486D01*
X199670336Y-75537499D01*
X199670338Y-75537500D01*
X199706891Y-75543289D01*
X199779997Y-75554869D01*
X199779999Y-75554869D01*
X199780001Y-75554869D01*
X199899300Y-75535974D01*
X199899852Y-75539465D01*
X199951840Y-75537943D01*
X200008083Y-75570211D01*
X201158536Y-76720664D01*
X201158539Y-76720668D01*
X201158540Y-76720668D01*
X201165606Y-76727734D01*
X201165607Y-76727736D01*
X201207750Y-76769879D01*
X201229421Y-76791550D01*
X201247393Y-76806298D01*
X201733076Y-77291982D01*
X202212264Y-77771170D01*
X202212266Y-77771172D01*
X202269409Y-77794840D01*
X202295145Y-77805500D01*
X202384854Y-77805500D01*
X203054827Y-77805500D01*
X203121866Y-77825185D01*
X203142508Y-77841819D01*
X203558181Y-78257492D01*
X203591666Y-78318815D01*
X203594500Y-78345173D01*
X203594500Y-79755232D01*
X203574815Y-79822271D01*
X203558181Y-79842914D01*
X203411220Y-79989874D01*
X203349897Y-80023358D01*
X203342937Y-80024665D01*
X203230341Y-80042498D01*
X203131414Y-80092904D01*
X203131407Y-80092909D01*
X203052909Y-80171407D01*
X203052904Y-80171414D01*
X203002498Y-80270341D01*
X202985131Y-80379997D01*
X202985131Y-80380002D01*
X203002498Y-80489658D01*
X203052904Y-80588585D01*
X203052909Y-80588592D01*
X203131407Y-80667090D01*
X203131410Y-80667092D01*
X203131413Y-80667095D01*
X203215623Y-80710002D01*
X203230341Y-80717501D01*
X203339998Y-80734869D01*
X203340000Y-80734869D01*
X203340002Y-80734869D01*
X203449658Y-80717501D01*
X203449659Y-80717500D01*
X203449661Y-80717500D01*
X203548587Y-80667095D01*
X203627095Y-80588587D01*
X203677500Y-80489661D01*
X203677500Y-80489659D01*
X203677501Y-80489658D01*
X203687365Y-80427375D01*
X203694869Y-80380000D01*
X203694869Y-80379997D01*
X203695334Y-80377061D01*
X203725263Y-80313926D01*
X203730108Y-80308795D01*
X203762319Y-80276584D01*
X203823640Y-80243101D01*
X203893332Y-80248085D01*
X203937659Y-80276566D01*
X203939853Y-80278759D01*
X203973352Y-80340074D01*
X203974665Y-80347062D01*
X203992498Y-80459658D01*
X204042904Y-80558585D01*
X204042909Y-80558592D01*
X204121407Y-80637090D01*
X204121410Y-80637092D01*
X204121413Y-80637095D01*
X204220339Y-80687500D01*
X204220341Y-80687501D01*
X204329998Y-80704869D01*
X204330000Y-80704869D01*
X204330002Y-80704869D01*
X204439658Y-80687501D01*
X204439659Y-80687500D01*
X204439661Y-80687500D01*
X204538587Y-80637095D01*
X204617095Y-80558587D01*
X204667500Y-80459661D01*
X204667500Y-80459659D01*
X204667501Y-80459658D01*
X204684869Y-80350002D01*
X204684869Y-80349997D01*
X204667501Y-80240341D01*
X204652762Y-80211414D01*
X204617095Y-80141413D01*
X204617092Y-80141410D01*
X204617090Y-80141407D01*
X204538592Y-80062909D01*
X204538588Y-80062906D01*
X204538587Y-80062905D01*
X204439661Y-80012500D01*
X204439659Y-80012499D01*
X204439658Y-80012499D01*
X204400100Y-80006233D01*
X204336966Y-79976303D01*
X204300036Y-79916990D01*
X204295500Y-79883760D01*
X204295500Y-77979297D01*
X204295501Y-77979288D01*
X204295501Y-77875147D01*
X204295501Y-77875146D01*
X204266652Y-77805500D01*
X204261170Y-77792264D01*
X204197736Y-77728830D01*
X204197734Y-77728829D01*
X204190668Y-77721763D01*
X204190668Y-77721762D01*
X204190664Y-77721759D01*
X203776819Y-77307914D01*
X203743334Y-77246591D01*
X203740500Y-77220233D01*
X203740500Y-76751480D01*
X203740501Y-76751471D01*
X203740501Y-76647330D01*
X203740501Y-76647329D01*
X203708470Y-76570000D01*
X203706170Y-76564447D01*
X203642736Y-76501013D01*
X203642734Y-76501012D01*
X203635668Y-76493946D01*
X203635668Y-76493945D01*
X203635664Y-76493942D01*
X203381427Y-76239705D01*
X203363987Y-76222264D01*
X203300553Y-76158830D01*
X203300552Y-76158829D01*
X203276274Y-76148772D01*
X203276274Y-76148771D01*
X203217675Y-76124500D01*
X203217673Y-76124499D01*
X203217672Y-76124499D01*
X203127962Y-76124499D01*
X203113528Y-76124499D01*
X203113520Y-76124500D01*
X202720193Y-76124500D01*
X202653154Y-76104815D01*
X202607399Y-76052011D01*
X202597455Y-75982853D01*
X202609708Y-75944206D01*
X202637500Y-75889661D01*
X202637500Y-75889659D01*
X202637501Y-75889658D01*
X202654869Y-75780002D01*
X202654869Y-75779997D01*
X202637501Y-75670341D01*
X202587095Y-75571413D01*
X202587090Y-75571407D01*
X202508592Y-75492909D01*
X202508588Y-75492906D01*
X202508587Y-75492905D01*
X202497184Y-75487095D01*
X202409658Y-75442498D01*
X202300002Y-75425131D01*
X202299998Y-75425131D01*
X202190341Y-75442498D01*
X202091414Y-75492904D01*
X202091407Y-75492909D01*
X202012909Y-75571407D01*
X202012905Y-75571413D01*
X201962498Y-75670341D01*
X201945131Y-75779997D01*
X201945131Y-75780002D01*
X201962498Y-75889658D01*
X201990292Y-75944206D01*
X202003188Y-76012875D01*
X201976911Y-76077615D01*
X201919805Y-76117872D01*
X201879807Y-76124500D01*
X201605099Y-76124500D01*
X201538060Y-76104815D01*
X201517418Y-76088181D01*
X200056442Y-74627206D01*
X200056441Y-74627205D01*
X200039001Y-74609764D01*
X199975567Y-74546330D01*
X199975566Y-74546329D01*
X199951288Y-74536272D01*
X199951288Y-74536271D01*
X199892689Y-74512000D01*
X199892687Y-74511999D01*
X199892686Y-74511999D01*
X199814044Y-74511999D01*
X199747005Y-74492314D01*
X199726363Y-74475680D01*
X199701092Y-74450409D01*
X199701088Y-74450406D01*
X199701087Y-74450405D01*
X199697243Y-74448446D01*
X199602158Y-74399998D01*
X199492502Y-74382631D01*
X199492498Y-74382631D01*
X199382841Y-74399998D01*
X199283914Y-74450404D01*
X199283907Y-74450409D01*
X199205409Y-74528907D01*
X199205404Y-74528914D01*
X199154998Y-74627841D01*
X199137631Y-74737497D01*
X199137631Y-74737502D01*
X199154998Y-74847158D01*
X199205404Y-74946085D01*
X199205409Y-74946092D01*
X199224731Y-74965414D01*
X199258216Y-75026737D01*
X199253232Y-75096429D01*
X199211360Y-75152362D01*
X199156449Y-75175568D01*
X199051619Y-75192172D01*
X199051617Y-75192172D01*
X199051617Y-75192173D01*
X198986482Y-75225361D01*
X198975444Y-75230985D01*
X198919150Y-75244500D01*
X197664767Y-75244500D01*
X197597728Y-75224815D01*
X197577086Y-75208181D01*
X197468610Y-75099705D01*
X197451170Y-75082264D01*
X197387736Y-75018830D01*
X197387735Y-75018829D01*
X197363457Y-75008772D01*
X197363457Y-75008771D01*
X197304858Y-74984500D01*
X197304856Y-74984499D01*
X197304855Y-74984499D01*
X197215145Y-74984499D01*
X197200711Y-74984499D01*
X197200703Y-74984500D01*
X194815098Y-74984500D01*
X194748059Y-74964815D01*
X194727417Y-74948181D01*
X193011819Y-73232583D01*
X192978334Y-73171260D01*
X192975500Y-73144902D01*
X192975500Y-72409997D01*
X198915131Y-72409997D01*
X198915131Y-72410002D01*
X198932498Y-72519656D01*
X198932499Y-72519657D01*
X198932500Y-72519661D01*
X198980323Y-72613520D01*
X198993219Y-72682188D01*
X198980323Y-72726107D01*
X198942498Y-72800341D01*
X198925131Y-72909997D01*
X198925131Y-72910002D01*
X198942498Y-73019658D01*
X198992904Y-73118585D01*
X198992909Y-73118592D01*
X199071407Y-73197090D01*
X199071410Y-73197092D01*
X199071413Y-73197095D01*
X199114114Y-73218852D01*
X199170341Y-73247501D01*
X199279998Y-73264869D01*
X199280000Y-73264869D01*
X199280002Y-73264869D01*
X199389658Y-73247501D01*
X199389659Y-73247500D01*
X199389661Y-73247500D01*
X199488587Y-73197095D01*
X199567095Y-73118587D01*
X199617500Y-73019661D01*
X199617500Y-73019659D01*
X199617501Y-73019658D01*
X199634869Y-72910002D01*
X199634869Y-72909997D01*
X199617501Y-72800343D01*
X199617500Y-72800341D01*
X199617500Y-72800339D01*
X199569675Y-72706477D01*
X199556780Y-72637812D01*
X199569674Y-72593897D01*
X199586947Y-72559997D01*
X200625131Y-72559997D01*
X200625131Y-72560002D01*
X200642498Y-72669658D01*
X200692904Y-72768585D01*
X200692909Y-72768592D01*
X200771407Y-72847090D01*
X200771410Y-72847092D01*
X200771413Y-72847095D01*
X200870339Y-72897500D01*
X200887295Y-72900185D01*
X200950429Y-72930114D01*
X200987361Y-72989426D01*
X200986363Y-73059288D01*
X200947754Y-73117521D01*
X200906223Y-73140587D01*
X200900344Y-73142497D01*
X200801414Y-73192904D01*
X200801407Y-73192909D01*
X200722909Y-73271407D01*
X200722904Y-73271414D01*
X200672498Y-73370341D01*
X200655131Y-73479997D01*
X200655131Y-73480002D01*
X200672498Y-73589658D01*
X200722904Y-73688585D01*
X200722909Y-73688592D01*
X200786636Y-73752319D01*
X200820121Y-73813642D01*
X200815137Y-73883334D01*
X200786636Y-73927681D01*
X200722909Y-73991407D01*
X200722904Y-73991414D01*
X200672498Y-74090341D01*
X200655131Y-74199997D01*
X200655131Y-74200002D01*
X200672498Y-74309658D01*
X200722904Y-74408585D01*
X200722909Y-74408592D01*
X200801407Y-74487090D01*
X200801410Y-74487092D01*
X200801413Y-74487095D01*
X200871361Y-74522735D01*
X200900341Y-74537501D01*
X201009998Y-74554869D01*
X201010000Y-74554869D01*
X201010002Y-74554869D01*
X201119658Y-74537501D01*
X201119659Y-74537500D01*
X201119661Y-74537500D01*
X201218587Y-74487095D01*
X201297095Y-74408587D01*
X201328497Y-74346955D01*
X201376471Y-74296159D01*
X201444292Y-74279364D01*
X201510427Y-74301901D01*
X201526663Y-74315569D01*
X201797266Y-74586172D01*
X201854228Y-74609765D01*
X201880145Y-74620500D01*
X204960233Y-74620500D01*
X205027272Y-74640185D01*
X205047914Y-74656819D01*
X205069873Y-74678778D01*
X205103358Y-74740101D01*
X205104665Y-74747061D01*
X205122498Y-74859658D01*
X205172904Y-74958585D01*
X205172909Y-74958592D01*
X205251407Y-75037090D01*
X205251410Y-75037092D01*
X205251413Y-75037095D01*
X205325806Y-75075000D01*
X205350341Y-75087501D01*
X205459998Y-75104869D01*
X205460000Y-75104869D01*
X205460002Y-75104869D01*
X205569658Y-75087501D01*
X205569659Y-75087500D01*
X205569661Y-75087500D01*
X205668587Y-75037095D01*
X205747095Y-74958587D01*
X205797500Y-74859661D01*
X205797500Y-74859659D01*
X205797501Y-74859658D01*
X205814869Y-74750002D01*
X205814869Y-74749997D01*
X205797501Y-74640341D01*
X205790808Y-74627205D01*
X205747095Y-74541413D01*
X205747092Y-74541410D01*
X205747090Y-74541407D01*
X205668592Y-74462909D01*
X205668588Y-74462906D01*
X205668587Y-74462905D01*
X205664743Y-74460946D01*
X205569658Y-74412498D01*
X205457061Y-74394665D01*
X205393926Y-74364736D01*
X205388778Y-74359873D01*
X205313610Y-74284705D01*
X205296170Y-74267264D01*
X205232736Y-74203830D01*
X205232735Y-74203829D01*
X205208457Y-74193772D01*
X205208457Y-74193771D01*
X205149858Y-74169500D01*
X205149856Y-74169499D01*
X205149855Y-74169499D01*
X205060145Y-74169499D01*
X205045711Y-74169499D01*
X205045703Y-74169500D01*
X204226376Y-74169500D01*
X204159337Y-74149815D01*
X204113582Y-74097011D01*
X204103638Y-74027853D01*
X204103902Y-74026103D01*
X204104869Y-74019997D01*
X204087501Y-73910341D01*
X204052415Y-73841480D01*
X204039519Y-73772811D01*
X204052413Y-73728896D01*
X204077500Y-73679661D01*
X204078053Y-73676170D01*
X204094869Y-73570002D01*
X204094869Y-73569997D01*
X204077501Y-73460341D01*
X204046638Y-73399769D01*
X204027095Y-73361413D01*
X204027092Y-73361410D01*
X204027090Y-73361407D01*
X203948592Y-73282909D01*
X203948588Y-73282906D01*
X203948587Y-73282905D01*
X203902650Y-73259499D01*
X203849658Y-73232498D01*
X203740002Y-73215131D01*
X203739998Y-73215131D01*
X203630341Y-73232498D01*
X203531414Y-73282904D01*
X203531407Y-73282909D01*
X203452909Y-73361407D01*
X203452904Y-73361414D01*
X203402498Y-73460341D01*
X203385131Y-73569997D01*
X203385131Y-73570002D01*
X203402498Y-73679657D01*
X203437585Y-73748520D01*
X203450480Y-73817189D01*
X203437585Y-73861106D01*
X203412498Y-73910342D01*
X203395131Y-74019997D01*
X203396098Y-74026103D01*
X203387142Y-74095396D01*
X203342145Y-74148848D01*
X203275394Y-74169487D01*
X203273624Y-74169500D01*
X202069768Y-74169500D01*
X202002729Y-74149815D01*
X201982087Y-74133181D01*
X201694037Y-73845131D01*
X201400125Y-73551220D01*
X201366641Y-73489898D01*
X201365334Y-73482937D01*
X201364868Y-73479997D01*
X201352162Y-73399771D01*
X201347501Y-73370342D01*
X201347500Y-73370340D01*
X201347500Y-73370339D01*
X201297095Y-73271413D01*
X201297092Y-73271410D01*
X201297090Y-73271407D01*
X201218592Y-73192909D01*
X201218588Y-73192906D01*
X201218587Y-73192905D01*
X201119661Y-73142500D01*
X201119660Y-73142499D01*
X201119659Y-73142499D01*
X201102701Y-73139813D01*
X201039567Y-73109882D01*
X201002637Y-73050570D01*
X201003637Y-72980707D01*
X201042248Y-72922475D01*
X201083785Y-72899409D01*
X201089659Y-72897500D01*
X201089661Y-72897500D01*
X201188587Y-72847095D01*
X201205685Y-72829997D01*
X205085131Y-72829997D01*
X205085131Y-72830002D01*
X205102498Y-72939658D01*
X205152904Y-73038585D01*
X205152909Y-73038592D01*
X205231407Y-73117090D01*
X205231410Y-73117092D01*
X205231413Y-73117095D01*
X205330339Y-73167500D01*
X205330341Y-73167501D01*
X205439998Y-73184869D01*
X205440000Y-73184869D01*
X205440002Y-73184869D01*
X205549658Y-73167501D01*
X205549659Y-73167500D01*
X205549661Y-73167500D01*
X205648587Y-73117095D01*
X205727095Y-73038587D01*
X205777500Y-72939661D01*
X205777500Y-72939659D01*
X205777501Y-72939658D01*
X205794869Y-72830002D01*
X205794869Y-72829997D01*
X205777501Y-72720341D01*
X205772232Y-72710000D01*
X205727095Y-72621413D01*
X205727092Y-72621410D01*
X205727090Y-72621407D01*
X205648592Y-72542909D01*
X205648588Y-72542906D01*
X205648587Y-72542905D01*
X205581595Y-72508771D01*
X205549658Y-72492498D01*
X205440002Y-72475131D01*
X205439998Y-72475131D01*
X205330341Y-72492498D01*
X205231414Y-72542904D01*
X205231407Y-72542909D01*
X205152909Y-72621407D01*
X205152904Y-72621414D01*
X205102498Y-72720341D01*
X205085131Y-72829997D01*
X201205685Y-72829997D01*
X201267095Y-72768587D01*
X201317500Y-72669661D01*
X201317500Y-72669659D01*
X201317501Y-72669658D01*
X201334869Y-72560002D01*
X201334869Y-72559997D01*
X201317501Y-72450341D01*
X201277838Y-72372498D01*
X201267095Y-72351413D01*
X201267092Y-72351410D01*
X201267090Y-72351407D01*
X201188592Y-72272909D01*
X201188588Y-72272906D01*
X201188587Y-72272905D01*
X201111262Y-72233506D01*
X201089658Y-72222498D01*
X200980002Y-72205131D01*
X200979998Y-72205131D01*
X200870341Y-72222498D01*
X200771414Y-72272904D01*
X200771407Y-72272909D01*
X200692909Y-72351407D01*
X200692904Y-72351414D01*
X200642498Y-72450341D01*
X200625131Y-72559997D01*
X199586947Y-72559997D01*
X199607500Y-72519661D01*
X199609225Y-72508774D01*
X199624869Y-72410002D01*
X199624869Y-72409997D01*
X199607501Y-72300341D01*
X199570943Y-72228592D01*
X199557095Y-72201413D01*
X199557092Y-72201410D01*
X199557090Y-72201407D01*
X199478592Y-72122909D01*
X199478588Y-72122906D01*
X199478587Y-72122905D01*
X199413336Y-72089658D01*
X199379658Y-72072498D01*
X199270002Y-72055131D01*
X199269998Y-72055131D01*
X199160341Y-72072498D01*
X199061414Y-72122904D01*
X199061407Y-72122909D01*
X198982909Y-72201407D01*
X198982904Y-72201414D01*
X198932498Y-72300341D01*
X198915131Y-72409997D01*
X192975500Y-72409997D01*
X192975500Y-72300545D01*
X192995185Y-72233506D01*
X193047989Y-72187751D01*
X193117147Y-72177807D01*
X193180703Y-72206832D01*
X193187181Y-72212864D01*
X193241407Y-72267090D01*
X193241410Y-72267092D01*
X193241413Y-72267095D01*
X193307063Y-72300545D01*
X193340341Y-72317501D01*
X193449998Y-72334869D01*
X193450000Y-72334869D01*
X193450002Y-72334869D01*
X193559657Y-72317501D01*
X193559658Y-72317500D01*
X193559661Y-72317500D01*
X193603707Y-72295057D01*
X193672373Y-72282161D01*
X193716290Y-72295056D01*
X193760339Y-72317500D01*
X193760340Y-72317500D01*
X193760342Y-72317501D01*
X193869998Y-72334869D01*
X193870000Y-72334869D01*
X193870002Y-72334869D01*
X193979658Y-72317501D01*
X193979659Y-72317500D01*
X193979661Y-72317500D01*
X194078587Y-72267095D01*
X194157095Y-72188587D01*
X194207500Y-72089661D01*
X194207500Y-72089659D01*
X194207501Y-72089658D01*
X194224869Y-71980002D01*
X194224869Y-71979997D01*
X194207501Y-71870343D01*
X194207500Y-71870341D01*
X194207500Y-71870339D01*
X194169961Y-71796664D01*
X194157066Y-71727999D01*
X194169960Y-71684084D01*
X194187500Y-71649661D01*
X194188976Y-71640341D01*
X194204869Y-71540002D01*
X194204869Y-71539997D01*
X194187501Y-71430341D01*
X194181513Y-71418588D01*
X194137095Y-71331413D01*
X194137092Y-71331410D01*
X194137090Y-71331407D01*
X194058592Y-71252909D01*
X194058588Y-71252906D01*
X194058587Y-71252905D01*
X194054230Y-71250685D01*
X193959658Y-71202498D01*
X193850002Y-71185131D01*
X193849998Y-71185131D01*
X193740341Y-71202498D01*
X193641414Y-71252904D01*
X193641407Y-71252909D01*
X193562909Y-71331407D01*
X193562904Y-71331414D01*
X193512498Y-71430341D01*
X193496554Y-71531008D01*
X193466624Y-71594143D01*
X193407312Y-71631073D01*
X193393480Y-71634082D01*
X193340341Y-71642498D01*
X193241414Y-71692904D01*
X193241407Y-71692909D01*
X193187181Y-71747136D01*
X193125858Y-71780621D01*
X193056166Y-71775637D01*
X193000233Y-71733765D01*
X192975816Y-71668301D01*
X192975500Y-71659455D01*
X192975500Y-70991544D01*
X192993572Y-70929997D01*
X195105131Y-70929997D01*
X195105131Y-70930002D01*
X195122498Y-71039658D01*
X195172904Y-71138585D01*
X195172909Y-71138592D01*
X195251407Y-71217090D01*
X195251410Y-71217092D01*
X195251413Y-71217095D01*
X195329908Y-71257090D01*
X195350341Y-71267501D01*
X195459998Y-71284869D01*
X195460000Y-71284869D01*
X195460002Y-71284869D01*
X195569657Y-71267501D01*
X195569658Y-71267500D01*
X195569661Y-71267500D01*
X195643895Y-71229676D01*
X195712559Y-71216780D01*
X195756475Y-71229674D01*
X195850339Y-71277500D01*
X195850341Y-71277500D01*
X195850343Y-71277501D01*
X195959998Y-71294869D01*
X195960000Y-71294869D01*
X195960002Y-71294869D01*
X196069658Y-71277501D01*
X196069659Y-71277500D01*
X196069661Y-71277500D01*
X196168587Y-71227095D01*
X196168587Y-71227094D01*
X196177283Y-71222664D01*
X196177966Y-71224005D01*
X196233695Y-71204119D01*
X196297071Y-71217430D01*
X196395339Y-71267500D01*
X196395341Y-71267500D01*
X196395343Y-71267501D01*
X196504998Y-71284869D01*
X196505000Y-71284869D01*
X196505002Y-71284869D01*
X196614658Y-71267501D01*
X196614659Y-71267500D01*
X196614661Y-71267500D01*
X196713587Y-71217095D01*
X196792095Y-71138587D01*
X196842500Y-71039661D01*
X196842500Y-71039659D01*
X196842501Y-71039658D01*
X196853534Y-70969997D01*
X197155131Y-70969997D01*
X197155131Y-70970002D01*
X197172498Y-71079658D01*
X197222904Y-71178585D01*
X197222909Y-71178592D01*
X197301407Y-71257090D01*
X197301410Y-71257092D01*
X197301413Y-71257095D01*
X197355923Y-71284869D01*
X197400341Y-71307501D01*
X197509998Y-71324869D01*
X197510000Y-71324869D01*
X197510002Y-71324869D01*
X197619658Y-71307501D01*
X197619659Y-71307500D01*
X197619661Y-71307500D01*
X197718587Y-71257095D01*
X197797095Y-71178587D01*
X197847500Y-71079661D01*
X197847858Y-71077399D01*
X202489500Y-71077399D01*
X202489500Y-71202601D01*
X202521905Y-71323536D01*
X202584505Y-71431964D01*
X202673036Y-71520495D01*
X202781464Y-71583095D01*
X202902399Y-71615500D01*
X202902401Y-71615500D01*
X203027599Y-71615500D01*
X203027601Y-71615500D01*
X203148536Y-71583095D01*
X203256964Y-71520495D01*
X203345495Y-71431964D01*
X203408095Y-71323536D01*
X203440500Y-71202601D01*
X203440500Y-71077399D01*
X203408095Y-70956464D01*
X203345495Y-70848036D01*
X203256964Y-70759505D01*
X203148536Y-70696905D01*
X203148537Y-70696905D01*
X203096284Y-70682904D01*
X203027601Y-70664500D01*
X202902399Y-70664500D01*
X202833716Y-70682904D01*
X202781463Y-70696905D01*
X202673037Y-70759504D01*
X202673034Y-70759506D01*
X202584506Y-70848034D01*
X202584504Y-70848037D01*
X202521905Y-70956463D01*
X202518398Y-70969553D01*
X202489500Y-71077399D01*
X197847858Y-71077399D01*
X197854940Y-71032684D01*
X197884868Y-70969553D01*
X197944179Y-70932622D01*
X197996810Y-70929612D01*
X198030000Y-70934869D01*
X198030000Y-70934868D01*
X198030001Y-70934869D01*
X198030002Y-70934869D01*
X198139658Y-70917501D01*
X198139659Y-70917500D01*
X198139661Y-70917500D01*
X198238587Y-70867095D01*
X198317095Y-70788587D01*
X198367500Y-70689661D01*
X198367500Y-70689659D01*
X198367501Y-70689658D01*
X198384869Y-70580002D01*
X198384869Y-70579997D01*
X198367501Y-70470341D01*
X198367500Y-70470339D01*
X198317095Y-70371413D01*
X198317092Y-70371410D01*
X198317090Y-70371407D01*
X198238592Y-70292909D01*
X198238588Y-70292906D01*
X198238587Y-70292905D01*
X198182482Y-70264318D01*
X198139658Y-70242498D01*
X198030002Y-70225131D01*
X198029998Y-70225131D01*
X197920341Y-70242498D01*
X197821414Y-70292904D01*
X197821407Y-70292909D01*
X197742909Y-70371407D01*
X197742904Y-70371414D01*
X197692498Y-70470341D01*
X197685059Y-70517313D01*
X197655129Y-70580447D01*
X197595817Y-70617378D01*
X197543188Y-70620387D01*
X197510002Y-70615131D01*
X197509998Y-70615131D01*
X197400341Y-70632498D01*
X197301414Y-70682904D01*
X197301407Y-70682909D01*
X197222909Y-70761407D01*
X197222904Y-70761414D01*
X197172498Y-70860341D01*
X197155131Y-70969997D01*
X196853534Y-70969997D01*
X196859869Y-70930002D01*
X196859869Y-70929997D01*
X196842501Y-70820341D01*
X196834519Y-70804676D01*
X196792095Y-70721413D01*
X196792092Y-70721410D01*
X196792090Y-70721407D01*
X196713592Y-70642909D01*
X196713588Y-70642906D01*
X196713587Y-70642905D01*
X196667962Y-70619658D01*
X196614658Y-70592498D01*
X196505002Y-70575131D01*
X196504998Y-70575131D01*
X196395341Y-70592498D01*
X196340607Y-70620387D01*
X196301481Y-70640323D01*
X196287717Y-70647336D01*
X196287035Y-70645997D01*
X196231285Y-70665882D01*
X196167926Y-70652568D01*
X196069658Y-70602498D01*
X195960002Y-70585131D01*
X195959998Y-70585131D01*
X195850341Y-70602498D01*
X195776107Y-70640323D01*
X195707438Y-70653219D01*
X195663521Y-70640324D01*
X195569661Y-70592500D01*
X195569659Y-70592499D01*
X195569656Y-70592498D01*
X195460002Y-70575131D01*
X195459998Y-70575131D01*
X195350341Y-70592498D01*
X195251414Y-70642904D01*
X195251407Y-70642909D01*
X195172909Y-70721407D01*
X195172904Y-70721414D01*
X195122498Y-70820341D01*
X195105131Y-70929997D01*
X192993572Y-70929997D01*
X192995185Y-70924505D01*
X193011815Y-70903866D01*
X193037095Y-70878587D01*
X193087500Y-70779661D01*
X193087500Y-70779659D01*
X193087501Y-70779658D01*
X193104869Y-70670002D01*
X193104869Y-70669997D01*
X193087501Y-70560341D01*
X193082232Y-70550000D01*
X193037095Y-70461413D01*
X193037092Y-70461410D01*
X193037090Y-70461407D01*
X193035680Y-70459997D01*
X193355131Y-70459997D01*
X193355131Y-70460002D01*
X193372498Y-70569658D01*
X193422904Y-70668585D01*
X193422909Y-70668592D01*
X193501407Y-70747090D01*
X193501410Y-70747092D01*
X193501413Y-70747095D01*
X193580713Y-70787500D01*
X193600341Y-70797501D01*
X193709998Y-70814869D01*
X193710000Y-70814869D01*
X193710002Y-70814869D01*
X193819656Y-70797501D01*
X193819656Y-70797500D01*
X193819661Y-70797500D01*
X193903521Y-70754771D01*
X193972187Y-70741876D01*
X194016103Y-70754770D01*
X194080339Y-70787500D01*
X194080341Y-70787500D01*
X194080343Y-70787501D01*
X194189998Y-70804869D01*
X194190000Y-70804869D01*
X194190002Y-70804869D01*
X194299658Y-70787501D01*
X194299659Y-70787500D01*
X194299661Y-70787500D01*
X194398587Y-70737095D01*
X194477095Y-70658587D01*
X194527500Y-70559661D01*
X194527500Y-70559659D01*
X194527501Y-70559658D01*
X194544869Y-70450002D01*
X194544869Y-70449997D01*
X194527501Y-70340341D01*
X194498122Y-70282681D01*
X194477095Y-70241413D01*
X194477092Y-70241410D01*
X194477090Y-70241407D01*
X194398592Y-70162909D01*
X194398588Y-70162906D01*
X194398587Y-70162905D01*
X194356903Y-70141666D01*
X194299658Y-70112498D01*
X194190002Y-70095131D01*
X194189998Y-70095131D01*
X194080342Y-70112498D01*
X193996479Y-70155228D01*
X193927810Y-70168123D01*
X193883892Y-70155227D01*
X193819658Y-70122498D01*
X193710002Y-70105131D01*
X193709998Y-70105131D01*
X193600341Y-70122498D01*
X193501414Y-70172904D01*
X193501407Y-70172909D01*
X193422909Y-70251407D01*
X193422904Y-70251414D01*
X193372498Y-70350341D01*
X193355131Y-70459997D01*
X193035680Y-70459997D01*
X192958592Y-70382909D01*
X192958588Y-70382906D01*
X192958587Y-70382905D01*
X192936021Y-70371407D01*
X192859658Y-70332498D01*
X192750002Y-70315131D01*
X192749998Y-70315131D01*
X192640341Y-70332498D01*
X192541414Y-70382904D01*
X192541407Y-70382909D01*
X192462909Y-70461407D01*
X192462904Y-70461414D01*
X192412498Y-70560341D01*
X192395131Y-70669997D01*
X192395131Y-70670002D01*
X192412498Y-70779658D01*
X192447339Y-70848037D01*
X192462905Y-70878587D01*
X192488181Y-70903863D01*
X192521666Y-70965184D01*
X192524500Y-70991544D01*
X192524500Y-73151813D01*
X192504815Y-73218852D01*
X192452011Y-73264607D01*
X192438827Y-73269741D01*
X192430342Y-73272498D01*
X192331414Y-73322904D01*
X192331407Y-73322909D01*
X192252909Y-73401407D01*
X192252904Y-73401414D01*
X192202498Y-73500341D01*
X192185131Y-73609997D01*
X192185131Y-73610002D01*
X192202498Y-73719658D01*
X192252904Y-73818585D01*
X192252909Y-73818592D01*
X192331407Y-73897090D01*
X192331410Y-73897092D01*
X192331413Y-73897095D01*
X192430339Y-73947500D01*
X192439034Y-73951930D01*
X192437590Y-73954763D01*
X192481580Y-73984826D01*
X192508796Y-74049177D01*
X192496900Y-74118027D01*
X192473290Y-74151027D01*
X192412906Y-74211410D01*
X192412904Y-74211414D01*
X192362498Y-74310341D01*
X192345131Y-74419997D01*
X192345131Y-74420002D01*
X192362498Y-74529658D01*
X192412904Y-74628585D01*
X192412908Y-74628591D01*
X192443820Y-74659502D01*
X192477306Y-74720824D01*
X192474072Y-74785500D01*
X192472498Y-74790341D01*
X192459534Y-74872193D01*
X192429604Y-74935328D01*
X192370292Y-74972258D01*
X192300429Y-74971260D01*
X192249380Y-74940475D01*
X190683611Y-73374706D01*
X190683609Y-73374703D01*
X190602738Y-73293832D01*
X190602736Y-73293830D01*
X190600982Y-73293103D01*
X190576360Y-73282904D01*
X190576358Y-73282904D01*
X190519855Y-73259499D01*
X190430145Y-73259499D01*
X190415711Y-73259499D01*
X190415703Y-73259500D01*
X189809436Y-73259500D01*
X189742397Y-73239815D01*
X189721755Y-73223181D01*
X189098279Y-72599705D01*
X189080839Y-72582264D01*
X189017405Y-72518830D01*
X189017404Y-72518829D01*
X188993126Y-72508772D01*
X188993126Y-72508771D01*
X188934527Y-72484500D01*
X188934525Y-72484499D01*
X188934524Y-72484499D01*
X188844814Y-72484499D01*
X188830380Y-72484499D01*
X188830372Y-72484500D01*
X186591545Y-72484500D01*
X186524506Y-72464815D01*
X186503864Y-72448181D01*
X186478592Y-72422909D01*
X186478588Y-72422906D01*
X186478587Y-72422905D01*
X186453263Y-72410002D01*
X186379658Y-72372498D01*
X186270002Y-72355131D01*
X186269998Y-72355131D01*
X186160341Y-72372498D01*
X186061414Y-72422904D01*
X186061407Y-72422909D01*
X185982909Y-72501407D01*
X185982904Y-72501414D01*
X185932498Y-72600341D01*
X185915131Y-72709997D01*
X181450500Y-72709997D01*
X181450500Y-72019997D01*
X181745131Y-72019997D01*
X181745131Y-72020002D01*
X181762498Y-72129658D01*
X181812904Y-72228585D01*
X181812909Y-72228592D01*
X181891407Y-72307090D01*
X181891410Y-72307092D01*
X181891413Y-72307095D01*
X181985690Y-72355131D01*
X181990341Y-72357501D01*
X182099998Y-72374869D01*
X182100000Y-72374869D01*
X182100002Y-72374869D01*
X182209658Y-72357501D01*
X182209659Y-72357500D01*
X182209661Y-72357500D01*
X182308587Y-72307095D01*
X182387095Y-72228587D01*
X182437500Y-72129661D01*
X182437500Y-72129659D01*
X182437501Y-72129658D01*
X182454869Y-72020002D01*
X182454869Y-72019997D01*
X182437501Y-71910341D01*
X182411677Y-71859658D01*
X182387095Y-71811413D01*
X182387092Y-71811410D01*
X182387090Y-71811407D01*
X182325680Y-71749997D01*
X188325131Y-71749997D01*
X188325131Y-71750002D01*
X188342498Y-71859658D01*
X188392904Y-71958585D01*
X188392909Y-71958592D01*
X188471407Y-72037090D01*
X188471410Y-72037092D01*
X188471413Y-72037095D01*
X188540896Y-72072498D01*
X188570341Y-72087501D01*
X188679998Y-72104869D01*
X188680000Y-72104869D01*
X188680002Y-72104869D01*
X188789658Y-72087501D01*
X188789659Y-72087500D01*
X188789661Y-72087500D01*
X188888587Y-72037095D01*
X188967095Y-71958587D01*
X189017500Y-71859661D01*
X189017500Y-71859659D01*
X189017501Y-71859658D01*
X189034869Y-71750002D01*
X189034869Y-71749997D01*
X189017501Y-71640343D01*
X189017500Y-71640341D01*
X189017500Y-71640339D01*
X188987824Y-71582097D01*
X188974929Y-71513430D01*
X188991717Y-71469384D01*
X188988944Y-71467971D01*
X189007290Y-71431965D01*
X189043780Y-71360349D01*
X189043780Y-71360347D01*
X189043781Y-71360346D01*
X189061149Y-71250690D01*
X189061149Y-71250685D01*
X189043781Y-71141029D01*
X189042536Y-71138585D01*
X188993375Y-71042101D01*
X188993372Y-71042098D01*
X188993370Y-71042095D01*
X188914872Y-70963597D01*
X188914868Y-70963594D01*
X188914867Y-70963593D01*
X188911023Y-70961634D01*
X188815938Y-70913186D01*
X188706282Y-70895819D01*
X188706278Y-70895819D01*
X188596621Y-70913186D01*
X188497694Y-70963592D01*
X188497687Y-70963597D01*
X188419189Y-71042095D01*
X188419184Y-71042102D01*
X188368778Y-71141029D01*
X188351411Y-71250685D01*
X188351411Y-71250690D01*
X188368778Y-71360346D01*
X188398454Y-71418588D01*
X188411350Y-71487257D01*
X188394576Y-71531311D01*
X188397336Y-71532717D01*
X188342498Y-71640341D01*
X188325131Y-71749997D01*
X182325680Y-71749997D01*
X182308592Y-71732909D01*
X182308588Y-71732906D01*
X182308587Y-71732905D01*
X182298958Y-71727999D01*
X182209658Y-71682498D01*
X182100002Y-71665131D01*
X182099998Y-71665131D01*
X181990341Y-71682498D01*
X181891414Y-71732904D01*
X181891407Y-71732909D01*
X181812909Y-71811407D01*
X181812904Y-71811414D01*
X181762498Y-71910341D01*
X181745131Y-72019997D01*
X181450500Y-72019997D01*
X181450500Y-70966236D01*
X181470185Y-70899197D01*
X181522989Y-70853442D01*
X181592147Y-70843498D01*
X181607249Y-70847011D01*
X181719998Y-70864869D01*
X181720000Y-70864869D01*
X181720002Y-70864869D01*
X181829656Y-70847501D01*
X181829656Y-70847500D01*
X181829661Y-70847500D01*
X181913710Y-70804675D01*
X181982374Y-70791780D01*
X182026287Y-70804673D01*
X182110339Y-70847500D01*
X182110341Y-70847500D01*
X182110343Y-70847501D01*
X182219998Y-70864869D01*
X182220000Y-70864869D01*
X182220002Y-70864869D01*
X182329658Y-70847501D01*
X182329659Y-70847500D01*
X182329661Y-70847500D01*
X182428587Y-70797095D01*
X182507095Y-70718587D01*
X182557500Y-70619661D01*
X182557500Y-70619659D01*
X182557501Y-70619658D01*
X182574869Y-70510002D01*
X182574869Y-70509997D01*
X182557501Y-70400341D01*
X182542762Y-70371414D01*
X182507095Y-70301413D01*
X182507092Y-70301410D01*
X182507090Y-70301407D01*
X182428592Y-70222909D01*
X182428588Y-70222906D01*
X182428587Y-70222905D01*
X182382295Y-70199318D01*
X182329658Y-70172498D01*
X182220002Y-70155131D01*
X182220001Y-70155131D01*
X182220000Y-70155131D01*
X182209890Y-70156732D01*
X182191246Y-70159685D01*
X182121953Y-70150729D01*
X182068502Y-70105732D01*
X182047863Y-70038980D01*
X182049377Y-70017813D01*
X182064869Y-69920001D01*
X182064869Y-69919997D01*
X198525131Y-69919997D01*
X198525131Y-69920002D01*
X198542498Y-70029658D01*
X198592904Y-70128585D01*
X198592909Y-70128592D01*
X198671407Y-70207090D01*
X198671410Y-70207092D01*
X198671413Y-70207095D01*
X198770339Y-70257500D01*
X198770341Y-70257501D01*
X198879998Y-70274869D01*
X198880000Y-70274869D01*
X198880002Y-70274869D01*
X198989658Y-70257501D01*
X198989659Y-70257500D01*
X198989661Y-70257500D01*
X199088587Y-70207095D01*
X199100551Y-70195131D01*
X199127319Y-70168364D01*
X199188642Y-70134879D01*
X199258334Y-70139863D01*
X199302681Y-70168364D01*
X199351407Y-70217090D01*
X199351410Y-70217092D01*
X199351413Y-70217095D01*
X199430713Y-70257500D01*
X199450341Y-70267501D01*
X199559998Y-70284869D01*
X199560000Y-70284869D01*
X199560002Y-70284869D01*
X199669658Y-70267501D01*
X199669659Y-70267500D01*
X199669661Y-70267500D01*
X199768587Y-70217095D01*
X199847095Y-70138587D01*
X199897500Y-70039661D01*
X199897500Y-70039659D01*
X199897501Y-70039658D01*
X199914869Y-69930002D01*
X199914869Y-69929997D01*
X199899030Y-69829997D01*
X204225131Y-69829997D01*
X204225131Y-69830002D01*
X204242498Y-69939658D01*
X204292904Y-70038585D01*
X204292909Y-70038592D01*
X204361636Y-70107319D01*
X204395121Y-70168642D01*
X204390137Y-70238334D01*
X204361636Y-70282681D01*
X204302909Y-70341407D01*
X204302904Y-70341414D01*
X204252498Y-70440341D01*
X204235131Y-70549997D01*
X204235131Y-70550002D01*
X204252498Y-70659658D01*
X204279941Y-70713518D01*
X204292837Y-70782188D01*
X204279942Y-70826105D01*
X204262499Y-70860339D01*
X204245131Y-70969997D01*
X204245131Y-70970002D01*
X204262498Y-71079658D01*
X204312904Y-71178585D01*
X204312909Y-71178592D01*
X204391407Y-71257090D01*
X204391410Y-71257092D01*
X204391413Y-71257095D01*
X204445923Y-71284869D01*
X204490341Y-71307501D01*
X204599998Y-71324869D01*
X204600000Y-71324869D01*
X204600002Y-71324869D01*
X204709658Y-71307501D01*
X204709659Y-71307500D01*
X204709661Y-71307500D01*
X204808587Y-71257095D01*
X204887095Y-71178587D01*
X204937500Y-71079661D01*
X204937500Y-71079659D01*
X204937501Y-71079658D01*
X204954869Y-70970002D01*
X204954869Y-70969997D01*
X204937501Y-70860342D01*
X204937500Y-70860340D01*
X204937500Y-70860339D01*
X204910057Y-70806479D01*
X204897161Y-70737814D01*
X204910056Y-70693895D01*
X204927500Y-70659661D01*
X204927670Y-70658592D01*
X204944869Y-70550002D01*
X204944869Y-70549997D01*
X204927501Y-70440341D01*
X204898236Y-70382905D01*
X204877095Y-70341413D01*
X204877092Y-70341410D01*
X204877090Y-70341407D01*
X204808364Y-70272681D01*
X204774879Y-70211358D01*
X204779863Y-70141666D01*
X204808364Y-70097319D01*
X204867090Y-70038592D01*
X204867095Y-70038587D01*
X204917500Y-69939661D01*
X204917500Y-69939659D01*
X204917501Y-69939658D01*
X204934869Y-69830002D01*
X204934869Y-69829997D01*
X204917501Y-69720343D01*
X204917500Y-69720341D01*
X204917500Y-69720339D01*
X204897509Y-69681105D01*
X204884614Y-69612439D01*
X204897508Y-69568522D01*
X204927500Y-69509661D01*
X204935200Y-69461046D01*
X204944869Y-69400002D01*
X204944869Y-69399997D01*
X204927501Y-69290341D01*
X204927500Y-69290339D01*
X204877095Y-69191413D01*
X204877092Y-69191410D01*
X204877090Y-69191407D01*
X204838364Y-69152681D01*
X204804879Y-69091358D01*
X204809863Y-69021666D01*
X204838364Y-68977319D01*
X204897090Y-68918592D01*
X204897095Y-68918587D01*
X204947500Y-68819661D01*
X204947500Y-68819659D01*
X204947501Y-68819658D01*
X204964869Y-68710002D01*
X204964869Y-68709997D01*
X204947501Y-68600341D01*
X204912415Y-68531480D01*
X204899519Y-68462811D01*
X204912413Y-68418896D01*
X204937500Y-68369661D01*
X204946896Y-68310337D01*
X204954869Y-68260002D01*
X204954869Y-68259997D01*
X204937501Y-68150341D01*
X204928615Y-68132902D01*
X204887095Y-68051413D01*
X204887092Y-68051410D01*
X204887090Y-68051407D01*
X204808592Y-67972909D01*
X204808588Y-67972906D01*
X204808587Y-67972905D01*
X204775456Y-67956024D01*
X204709658Y-67922498D01*
X204600002Y-67905131D01*
X204599998Y-67905131D01*
X204490341Y-67922498D01*
X204391414Y-67972904D01*
X204391407Y-67972909D01*
X204312909Y-68051407D01*
X204312904Y-68051414D01*
X204262498Y-68150341D01*
X204245131Y-68259997D01*
X204245131Y-68260002D01*
X204262498Y-68369657D01*
X204297585Y-68438520D01*
X204310480Y-68507189D01*
X204297585Y-68551106D01*
X204272498Y-68600342D01*
X204255131Y-68709997D01*
X204255131Y-68710002D01*
X204272498Y-68819658D01*
X204322904Y-68918585D01*
X204322909Y-68918592D01*
X204361636Y-68957319D01*
X204395121Y-69018642D01*
X204390137Y-69088334D01*
X204361636Y-69132681D01*
X204302909Y-69191407D01*
X204302904Y-69191414D01*
X204252498Y-69290341D01*
X204235131Y-69399997D01*
X204235131Y-69400002D01*
X204252498Y-69509658D01*
X204272489Y-69548892D01*
X204285385Y-69617561D01*
X204272490Y-69661479D01*
X204242498Y-69720342D01*
X204225131Y-69829997D01*
X199899030Y-69829997D01*
X199897501Y-69820341D01*
X199892405Y-69810339D01*
X199847095Y-69721413D01*
X199847092Y-69721410D01*
X199847090Y-69721407D01*
X199768592Y-69642909D01*
X199768588Y-69642906D01*
X199768587Y-69642905D01*
X199669661Y-69592500D01*
X199669660Y-69592499D01*
X199669657Y-69592498D01*
X199669655Y-69592497D01*
X199667801Y-69592204D01*
X199665730Y-69591222D01*
X199660375Y-69589482D01*
X199660599Y-69588789D01*
X199604667Y-69562272D01*
X199567739Y-69502959D01*
X199564731Y-69489129D01*
X199547501Y-69380342D01*
X199547500Y-69380340D01*
X199547500Y-69380339D01*
X199497095Y-69281413D01*
X199497092Y-69281410D01*
X199497090Y-69281407D01*
X199418592Y-69202909D01*
X199418588Y-69202906D01*
X199418587Y-69202905D01*
X199387548Y-69187090D01*
X199319658Y-69152498D01*
X199210002Y-69135131D01*
X199209998Y-69135131D01*
X199100341Y-69152498D01*
X199001414Y-69202904D01*
X199001407Y-69202909D01*
X198922909Y-69281407D01*
X198922904Y-69281414D01*
X198872499Y-69380341D01*
X198856172Y-69483422D01*
X198826242Y-69546556D01*
X198778768Y-69577549D01*
X198779034Y-69578070D01*
X198774190Y-69580537D01*
X198772026Y-69581951D01*
X198770344Y-69582497D01*
X198722876Y-69606683D01*
X198671413Y-69632905D01*
X198671412Y-69632906D01*
X198671407Y-69632909D01*
X198592909Y-69711407D01*
X198592904Y-69711414D01*
X198542498Y-69810341D01*
X198525131Y-69919997D01*
X182064869Y-69919997D01*
X182047501Y-69810341D01*
X182040958Y-69797500D01*
X181997095Y-69711413D01*
X181997092Y-69711410D01*
X181997090Y-69711407D01*
X181918592Y-69632909D01*
X181918588Y-69632906D01*
X181918587Y-69632905D01*
X181896033Y-69621413D01*
X181819658Y-69582498D01*
X181710002Y-69565131D01*
X181709997Y-69565131D01*
X181593897Y-69583519D01*
X181524604Y-69574564D01*
X181471152Y-69529568D01*
X181450513Y-69462816D01*
X181450500Y-69461046D01*
X181450500Y-69459997D01*
X189535131Y-69459997D01*
X189535131Y-69460002D01*
X189552498Y-69569658D01*
X189602904Y-69668585D01*
X189602909Y-69668592D01*
X189681407Y-69747090D01*
X189681410Y-69747092D01*
X189681413Y-69747095D01*
X189780339Y-69797500D01*
X189780341Y-69797501D01*
X189889998Y-69814869D01*
X189890000Y-69814869D01*
X189890002Y-69814869D01*
X189999658Y-69797501D01*
X189999659Y-69797500D01*
X189999661Y-69797500D01*
X190098587Y-69747095D01*
X190177095Y-69668587D01*
X190227500Y-69569661D01*
X190227500Y-69569659D01*
X190227501Y-69569658D01*
X190244869Y-69460002D01*
X190244869Y-69459997D01*
X190227501Y-69350341D01*
X190197731Y-69291914D01*
X190177095Y-69251413D01*
X190177092Y-69251410D01*
X190177090Y-69251407D01*
X190098592Y-69172909D01*
X190098588Y-69172906D01*
X190098587Y-69172905D01*
X190026514Y-69136182D01*
X189999658Y-69122498D01*
X189890002Y-69105131D01*
X189889998Y-69105131D01*
X189780341Y-69122498D01*
X189681414Y-69172904D01*
X189681407Y-69172909D01*
X189602909Y-69251407D01*
X189602904Y-69251414D01*
X189552498Y-69350341D01*
X189535131Y-69459997D01*
X181450500Y-69459997D01*
X181450500Y-69358953D01*
X181470185Y-69291914D01*
X181522989Y-69246159D01*
X181592147Y-69236215D01*
X181593898Y-69236480D01*
X181709998Y-69254869D01*
X181710000Y-69254869D01*
X181710002Y-69254869D01*
X181819658Y-69237501D01*
X181819659Y-69237500D01*
X181819661Y-69237500D01*
X181918587Y-69187095D01*
X181997095Y-69108587D01*
X182047500Y-69009661D01*
X182047500Y-69009659D01*
X182047501Y-69009658D01*
X182064869Y-68900002D01*
X182064869Y-68899997D01*
X182047501Y-68790343D01*
X182047500Y-68790341D01*
X182047500Y-68790339D01*
X181997095Y-68691413D01*
X181997092Y-68691410D01*
X181994676Y-68686668D01*
X181981780Y-68617999D01*
X181994674Y-68574084D01*
X182027500Y-68509661D01*
X182028807Y-68501413D01*
X182041702Y-68419995D01*
X200315131Y-68419995D01*
X200315131Y-68420000D01*
X200332498Y-68529656D01*
X200375323Y-68613704D01*
X200388219Y-68682373D01*
X200375324Y-68726291D01*
X200332498Y-68810343D01*
X200315131Y-68919998D01*
X200315131Y-68920003D01*
X200332498Y-69029659D01*
X200382904Y-69128586D01*
X200382909Y-69128593D01*
X200461407Y-69207091D01*
X200461410Y-69207093D01*
X200461413Y-69207096D01*
X200518563Y-69236215D01*
X200560341Y-69257502D01*
X200669998Y-69274870D01*
X200670000Y-69274870D01*
X200670002Y-69274870D01*
X200779658Y-69257502D01*
X200779659Y-69257501D01*
X200779661Y-69257501D01*
X200878587Y-69207096D01*
X200957095Y-69128588D01*
X201007500Y-69029662D01*
X201007500Y-69029660D01*
X201007501Y-69029659D01*
X201024869Y-68920003D01*
X201024869Y-68919998D01*
X201007501Y-68810342D01*
X200964676Y-68726293D01*
X200951780Y-68657624D01*
X200964674Y-68613709D01*
X201007500Y-68529659D01*
X201007501Y-68529654D01*
X201024869Y-68420000D01*
X201024869Y-68419995D01*
X201007501Y-68310339D01*
X201007500Y-68310337D01*
X200957095Y-68211411D01*
X200957092Y-68211408D01*
X200957090Y-68211405D01*
X200878592Y-68132907D01*
X200878588Y-68132904D01*
X200878587Y-68132903D01*
X200874743Y-68130944D01*
X200779658Y-68082496D01*
X200670002Y-68065129D01*
X200669998Y-68065129D01*
X200560341Y-68082496D01*
X200461414Y-68132902D01*
X200461407Y-68132907D01*
X200382909Y-68211405D01*
X200382904Y-68211412D01*
X200332498Y-68310339D01*
X200315131Y-68419995D01*
X182041702Y-68419995D01*
X182044869Y-68400002D01*
X182044869Y-68399997D01*
X182027501Y-68290341D01*
X182027500Y-68290339D01*
X181977095Y-68191413D01*
X181977092Y-68191410D01*
X181977090Y-68191407D01*
X181950058Y-68164375D01*
X181916573Y-68103052D01*
X181921557Y-68033360D01*
X181963429Y-67977427D01*
X181981431Y-67966216D01*
X182038587Y-67937095D01*
X182117095Y-67858587D01*
X182167500Y-67759661D01*
X182167500Y-67759659D01*
X182167501Y-67759658D01*
X182184869Y-67650002D01*
X182184869Y-67649997D01*
X182167501Y-67540341D01*
X182161484Y-67528532D01*
X182117095Y-67441413D01*
X182117092Y-67441410D01*
X182111356Y-67433514D01*
X182112564Y-67432635D01*
X182084187Y-67380666D01*
X182089171Y-67310974D01*
X182105033Y-67281426D01*
X182107093Y-67278590D01*
X182107096Y-67278585D01*
X182157500Y-67179661D01*
X182157500Y-67179659D01*
X182157501Y-67179658D01*
X182174869Y-67070002D01*
X182174869Y-67069997D01*
X182625131Y-67069997D01*
X182625131Y-67070002D01*
X182642498Y-67179658D01*
X182692904Y-67278585D01*
X182692909Y-67278592D01*
X182696636Y-67282319D01*
X182730121Y-67343642D01*
X182725137Y-67413334D01*
X182696636Y-67457681D01*
X182692909Y-67461407D01*
X182692904Y-67461414D01*
X182642498Y-67560341D01*
X182625131Y-67669997D01*
X182625131Y-67670002D01*
X182642498Y-67779658D01*
X182692904Y-67878585D01*
X182692909Y-67878592D01*
X182771407Y-67957090D01*
X182771410Y-67957092D01*
X182771413Y-67957095D01*
X182825923Y-67984869D01*
X182870341Y-68007501D01*
X182979998Y-68024869D01*
X182980000Y-68024869D01*
X182980002Y-68024869D01*
X183089658Y-68007501D01*
X183089659Y-68007500D01*
X183089661Y-68007500D01*
X183188587Y-67957095D01*
X183267095Y-67878587D01*
X183317500Y-67779661D01*
X183317500Y-67779659D01*
X183317501Y-67779658D01*
X183334869Y-67670002D01*
X183334869Y-67669997D01*
X183317501Y-67560341D01*
X183317500Y-67560339D01*
X183267095Y-67461413D01*
X183263367Y-67457685D01*
X183229879Y-67396364D01*
X183234860Y-67326672D01*
X183263367Y-67282315D01*
X183264256Y-67281426D01*
X183267095Y-67278587D01*
X183317500Y-67179661D01*
X183317500Y-67179659D01*
X183317501Y-67179658D01*
X183334869Y-67070002D01*
X183334869Y-67069997D01*
X183331701Y-67049997D01*
X188115131Y-67049997D01*
X188115131Y-67050002D01*
X188132498Y-67159658D01*
X188182904Y-67258585D01*
X188182909Y-67258592D01*
X188186636Y-67262319D01*
X188220121Y-67323642D01*
X188215137Y-67393334D01*
X188186636Y-67437681D01*
X188182909Y-67441407D01*
X188182904Y-67441414D01*
X188132498Y-67540341D01*
X188115131Y-67649997D01*
X188115131Y-67650002D01*
X188132498Y-67759658D01*
X188182904Y-67858585D01*
X188182909Y-67858592D01*
X188261407Y-67937090D01*
X188261410Y-67937092D01*
X188261413Y-67937095D01*
X188340570Y-67977427D01*
X188360341Y-67987501D01*
X188469998Y-68004869D01*
X188470000Y-68004869D01*
X188470002Y-68004869D01*
X188579658Y-67987501D01*
X188579659Y-67987500D01*
X188579661Y-67987500D01*
X188678587Y-67937095D01*
X188757095Y-67858587D01*
X188807500Y-67759661D01*
X188807500Y-67759659D01*
X188807501Y-67759658D01*
X188824869Y-67650002D01*
X188824869Y-67649997D01*
X188807501Y-67540341D01*
X188801484Y-67528532D01*
X188757095Y-67441413D01*
X188753367Y-67437685D01*
X188719879Y-67376364D01*
X188724860Y-67306672D01*
X188753367Y-67262315D01*
X188757095Y-67258587D01*
X188807500Y-67159661D01*
X188807500Y-67159659D01*
X188807501Y-67159658D01*
X188824869Y-67050002D01*
X188824869Y-67049997D01*
X189315131Y-67049997D01*
X189315131Y-67050002D01*
X189332498Y-67159658D01*
X189382904Y-67258585D01*
X189382909Y-67258592D01*
X189386636Y-67262319D01*
X189420121Y-67323642D01*
X189415137Y-67393334D01*
X189386636Y-67437681D01*
X189382909Y-67441407D01*
X189382904Y-67441414D01*
X189332498Y-67540341D01*
X189315131Y-67649997D01*
X189315131Y-67650002D01*
X189332498Y-67759658D01*
X189382904Y-67858585D01*
X189382909Y-67858592D01*
X189461407Y-67937090D01*
X189461410Y-67937092D01*
X189461413Y-67937095D01*
X189540570Y-67977427D01*
X189560341Y-67987501D01*
X189669998Y-68004869D01*
X189670000Y-68004869D01*
X189670002Y-68004869D01*
X189779658Y-67987501D01*
X189779659Y-67987500D01*
X189779661Y-67987500D01*
X189878587Y-67937095D01*
X189957095Y-67858587D01*
X190007500Y-67759661D01*
X190007500Y-67759659D01*
X190007501Y-67759658D01*
X190024869Y-67650002D01*
X190024869Y-67649997D01*
X190007501Y-67540341D01*
X190001484Y-67528532D01*
X189957095Y-67441413D01*
X189953367Y-67437685D01*
X189919879Y-67376364D01*
X189924860Y-67306672D01*
X189953367Y-67262315D01*
X189957095Y-67258587D01*
X190007500Y-67159661D01*
X190007500Y-67159659D01*
X190007501Y-67159658D01*
X190024869Y-67050002D01*
X190024869Y-67049997D01*
X190021701Y-67029997D01*
X191945131Y-67029997D01*
X191945131Y-67030002D01*
X191962498Y-67139658D01*
X192012904Y-67238585D01*
X192012909Y-67238592D01*
X192016636Y-67242319D01*
X192050121Y-67303642D01*
X192045137Y-67373334D01*
X192016636Y-67417681D01*
X192012909Y-67421407D01*
X192012904Y-67421414D01*
X191962498Y-67520341D01*
X191945131Y-67629997D01*
X191945131Y-67630002D01*
X191962498Y-67739658D01*
X192012904Y-67838585D01*
X192012909Y-67838592D01*
X192091407Y-67917090D01*
X192091410Y-67917092D01*
X192091413Y-67917095D01*
X192167816Y-67956024D01*
X192190341Y-67967501D01*
X192299998Y-67984869D01*
X192300000Y-67984869D01*
X192300002Y-67984869D01*
X192409658Y-67967501D01*
X192409659Y-67967500D01*
X192409661Y-67967500D01*
X192508587Y-67917095D01*
X192587095Y-67838587D01*
X192637500Y-67739661D01*
X192637500Y-67739659D01*
X192637501Y-67739658D01*
X192654869Y-67630002D01*
X192654869Y-67629997D01*
X192637501Y-67520341D01*
X192595386Y-67437685D01*
X192587095Y-67421413D01*
X192583367Y-67417685D01*
X192549879Y-67356364D01*
X192554860Y-67286672D01*
X192583367Y-67242315D01*
X192587095Y-67238587D01*
X192637500Y-67139661D01*
X192637500Y-67139659D01*
X192637501Y-67139658D01*
X192654869Y-67030002D01*
X192654869Y-67029997D01*
X193145131Y-67029997D01*
X193145131Y-67030002D01*
X193162498Y-67139658D01*
X193212904Y-67238585D01*
X193212909Y-67238592D01*
X193216636Y-67242319D01*
X193250121Y-67303642D01*
X193245137Y-67373334D01*
X193216636Y-67417681D01*
X193212909Y-67421407D01*
X193212904Y-67421414D01*
X193162498Y-67520341D01*
X193145131Y-67629997D01*
X193145131Y-67630002D01*
X193162498Y-67739658D01*
X193212904Y-67838585D01*
X193212909Y-67838592D01*
X193291407Y-67917090D01*
X193291410Y-67917092D01*
X193291413Y-67917095D01*
X193367816Y-67956024D01*
X193390341Y-67967501D01*
X193499998Y-67984869D01*
X193500000Y-67984869D01*
X193500002Y-67984869D01*
X193609658Y-67967501D01*
X193609659Y-67967500D01*
X193609661Y-67967500D01*
X193708587Y-67917095D01*
X193787095Y-67838587D01*
X193837500Y-67739661D01*
X193837500Y-67739659D01*
X193837501Y-67739658D01*
X193854869Y-67630002D01*
X193854869Y-67629997D01*
X193837501Y-67520341D01*
X193795386Y-67437685D01*
X193787095Y-67421413D01*
X193783367Y-67417685D01*
X193749879Y-67356364D01*
X193754860Y-67286672D01*
X193783367Y-67242315D01*
X193787095Y-67238587D01*
X193837500Y-67139661D01*
X193837500Y-67139659D01*
X193837501Y-67139658D01*
X193854869Y-67030002D01*
X193854869Y-67029997D01*
X193845366Y-66970000D01*
X195444659Y-66970000D01*
X195463975Y-67166129D01*
X195463976Y-67166132D01*
X195517823Y-67343642D01*
X195521188Y-67354733D01*
X195614086Y-67528532D01*
X195614090Y-67528539D01*
X195739116Y-67680883D01*
X195891460Y-67805909D01*
X195891467Y-67805913D01*
X196065266Y-67898811D01*
X196065269Y-67898811D01*
X196065273Y-67898814D01*
X196253868Y-67956024D01*
X196450000Y-67975341D01*
X196646132Y-67956024D01*
X196834727Y-67898814D01*
X197008538Y-67805910D01*
X197160883Y-67680883D01*
X197285910Y-67528538D01*
X197367249Y-67376364D01*
X197378811Y-67354733D01*
X197378811Y-67354732D01*
X197378814Y-67354727D01*
X197436024Y-67166132D01*
X197455341Y-66970000D01*
X197984659Y-66970000D01*
X198003975Y-67166129D01*
X198003976Y-67166132D01*
X198057823Y-67343642D01*
X198061188Y-67354733D01*
X198154086Y-67528532D01*
X198154090Y-67528539D01*
X198279116Y-67680883D01*
X198431460Y-67805909D01*
X198431467Y-67805913D01*
X198605266Y-67898811D01*
X198605269Y-67898811D01*
X198605273Y-67898814D01*
X198793868Y-67956024D01*
X198990000Y-67975341D01*
X199186132Y-67956024D01*
X199374727Y-67898814D01*
X199548538Y-67805910D01*
X199700883Y-67680883D01*
X199825910Y-67528538D01*
X199907249Y-67376364D01*
X199918811Y-67354733D01*
X199918811Y-67354732D01*
X199918814Y-67354727D01*
X199976024Y-67166132D01*
X199995341Y-66970000D01*
X200524659Y-66970000D01*
X200543975Y-67166129D01*
X200543976Y-67166132D01*
X200597823Y-67343642D01*
X200601188Y-67354733D01*
X200694086Y-67528532D01*
X200694090Y-67528539D01*
X200819116Y-67680883D01*
X200971460Y-67805909D01*
X200971467Y-67805913D01*
X201145266Y-67898811D01*
X201145269Y-67898811D01*
X201145273Y-67898814D01*
X201333868Y-67956024D01*
X201530000Y-67975341D01*
X201726132Y-67956024D01*
X201914727Y-67898814D01*
X202088538Y-67805910D01*
X202240883Y-67680883D01*
X202365910Y-67528538D01*
X202447249Y-67376364D01*
X202458811Y-67354733D01*
X202458811Y-67354732D01*
X202458814Y-67354727D01*
X202516024Y-67166132D01*
X202535341Y-66970000D01*
X202516024Y-66773868D01*
X202458814Y-66585273D01*
X202458811Y-66585269D01*
X202458811Y-66585266D01*
X202365913Y-66411467D01*
X202365909Y-66411460D01*
X202240883Y-66259116D01*
X202088539Y-66134090D01*
X202088532Y-66134086D01*
X201914733Y-66041188D01*
X201914727Y-66041186D01*
X201726132Y-65983976D01*
X201726129Y-65983975D01*
X201530000Y-65964659D01*
X201333870Y-65983975D01*
X201145266Y-66041188D01*
X200971467Y-66134086D01*
X200971460Y-66134090D01*
X200819116Y-66259116D01*
X200694090Y-66411460D01*
X200694086Y-66411467D01*
X200601188Y-66585266D01*
X200543975Y-66773870D01*
X200524659Y-66970000D01*
X199995341Y-66970000D01*
X199976024Y-66773868D01*
X199918814Y-66585273D01*
X199918811Y-66585269D01*
X199918811Y-66585266D01*
X199825913Y-66411467D01*
X199825909Y-66411460D01*
X199700883Y-66259116D01*
X199548539Y-66134090D01*
X199548532Y-66134086D01*
X199374733Y-66041188D01*
X199374727Y-66041186D01*
X199186132Y-65983976D01*
X199186129Y-65983975D01*
X198990000Y-65964659D01*
X198793870Y-65983975D01*
X198605266Y-66041188D01*
X198431467Y-66134086D01*
X198431460Y-66134090D01*
X198279116Y-66259116D01*
X198154090Y-66411460D01*
X198154086Y-66411467D01*
X198061188Y-66585266D01*
X198003975Y-66773870D01*
X197984659Y-66970000D01*
X197455341Y-66970000D01*
X197436024Y-66773868D01*
X197378814Y-66585273D01*
X197378811Y-66585269D01*
X197378811Y-66585266D01*
X197285913Y-66411467D01*
X197285909Y-66411460D01*
X197160883Y-66259116D01*
X197008539Y-66134090D01*
X197008532Y-66134086D01*
X196834733Y-66041188D01*
X196834727Y-66041186D01*
X196646132Y-65983976D01*
X196646129Y-65983975D01*
X196450000Y-65964659D01*
X196253870Y-65983975D01*
X196065266Y-66041188D01*
X195891467Y-66134086D01*
X195891460Y-66134090D01*
X195739116Y-66259116D01*
X195614090Y-66411460D01*
X195614086Y-66411467D01*
X195521188Y-66585266D01*
X195463975Y-66773870D01*
X195444659Y-66970000D01*
X193845366Y-66970000D01*
X193837501Y-66920341D01*
X193797282Y-66841407D01*
X193787095Y-66821413D01*
X193787092Y-66821410D01*
X193787090Y-66821407D01*
X193708592Y-66742909D01*
X193708588Y-66742906D01*
X193708587Y-66742905D01*
X193688162Y-66732498D01*
X193609658Y-66692498D01*
X193500002Y-66675131D01*
X193499998Y-66675131D01*
X193390341Y-66692498D01*
X193291414Y-66742904D01*
X193291407Y-66742909D01*
X193212909Y-66821407D01*
X193212904Y-66821414D01*
X193162498Y-66920341D01*
X193145131Y-67029997D01*
X192654869Y-67029997D01*
X192637501Y-66920341D01*
X192597282Y-66841407D01*
X192587095Y-66821413D01*
X192587092Y-66821410D01*
X192587090Y-66821407D01*
X192508592Y-66742909D01*
X192508588Y-66742906D01*
X192508587Y-66742905D01*
X192488162Y-66732498D01*
X192409658Y-66692498D01*
X192300002Y-66675131D01*
X192299998Y-66675131D01*
X192190341Y-66692498D01*
X192091414Y-66742904D01*
X192091407Y-66742909D01*
X192012909Y-66821407D01*
X192012904Y-66821414D01*
X191962498Y-66920341D01*
X191945131Y-67029997D01*
X190021701Y-67029997D01*
X190007501Y-66940341D01*
X190007500Y-66940339D01*
X189957095Y-66841413D01*
X189957092Y-66841410D01*
X189957090Y-66841407D01*
X189878592Y-66762909D01*
X189878588Y-66762906D01*
X189878587Y-66762905D01*
X189872197Y-66759649D01*
X189779658Y-66712498D01*
X189670002Y-66695131D01*
X189669998Y-66695131D01*
X189560341Y-66712498D01*
X189461414Y-66762904D01*
X189461407Y-66762909D01*
X189382909Y-66841407D01*
X189382904Y-66841414D01*
X189332498Y-66940341D01*
X189315131Y-67049997D01*
X188824869Y-67049997D01*
X188807501Y-66940341D01*
X188807500Y-66940339D01*
X188757095Y-66841413D01*
X188757092Y-66841410D01*
X188757090Y-66841407D01*
X188678592Y-66762909D01*
X188678588Y-66762906D01*
X188678587Y-66762905D01*
X188672197Y-66759649D01*
X188579658Y-66712498D01*
X188470002Y-66695131D01*
X188469998Y-66695131D01*
X188360341Y-66712498D01*
X188261414Y-66762904D01*
X188261407Y-66762909D01*
X188182909Y-66841407D01*
X188182904Y-66841414D01*
X188132498Y-66940341D01*
X188115131Y-67049997D01*
X183331701Y-67049997D01*
X183317501Y-66960341D01*
X183317500Y-66960339D01*
X183267095Y-66861413D01*
X183267092Y-66861410D01*
X183267090Y-66861407D01*
X183188592Y-66782909D01*
X183188588Y-66782906D01*
X183188587Y-66782905D01*
X183169206Y-66773030D01*
X183089658Y-66732498D01*
X182980002Y-66715131D01*
X182979998Y-66715131D01*
X182870341Y-66732498D01*
X182771414Y-66782904D01*
X182771407Y-66782909D01*
X182692909Y-66861407D01*
X182692904Y-66861414D01*
X182642498Y-66960341D01*
X182625131Y-67069997D01*
X182174869Y-67069997D01*
X182157501Y-66960341D01*
X182157500Y-66960339D01*
X182107095Y-66861413D01*
X182107092Y-66861410D01*
X182107090Y-66861407D01*
X182028592Y-66782909D01*
X182028588Y-66782906D01*
X182028587Y-66782905D01*
X182009206Y-66773030D01*
X181929658Y-66732498D01*
X181820002Y-66715131D01*
X181819998Y-66715131D01*
X181710341Y-66732498D01*
X181630794Y-66773030D01*
X181562125Y-66785926D01*
X181497385Y-66759649D01*
X181457128Y-66702543D01*
X181450500Y-66662545D01*
X181450500Y-65274500D01*
X181470185Y-65207461D01*
X181522989Y-65161706D01*
X181574500Y-65150500D01*
X207525500Y-65150500D01*
X207592539Y-65170185D01*
G37*
%TD.AperFunction*%
%TD*%
M02*
