%TF.GenerationSoftware,KiCad,Pcbnew,8.0.5*%
%TF.CreationDate,2024-10-05T23:36:15+02:00*%
%TF.ProjectId,projet s6,70726f6a-6574-4207-9336-2e6b69636164,rev?*%
%TF.SameCoordinates,Original*%
%TF.FileFunction,Legend,Top*%
%TF.FilePolarity,Positive*%
%FSLAX46Y46*%
G04 Gerber Fmt 4.6, Leading zero omitted, Abs format (unit mm)*
G04 Created by KiCad (PCBNEW 8.0.5) date 2024-10-05 23:36:15*
%MOMM*%
%LPD*%
G01*
G04 APERTURE LIST*
%ADD10C,0.250000*%
%ADD11C,0.100000*%
%ADD12C,0.120000*%
%ADD13C,0.000000*%
%ADD14C,0.152400*%
%ADD15C,0.050000*%
G04 APERTURE END LIST*
D10*
X205874949Y-66167000D02*
X205970187Y-66214619D01*
X205970187Y-66214619D02*
X206160663Y-66214619D01*
X206160663Y-66214619D02*
X206255901Y-66167000D01*
X206255901Y-66167000D02*
X206303520Y-66071761D01*
X206303520Y-66071761D02*
X206303520Y-66024142D01*
X206303520Y-66024142D02*
X206255901Y-65928904D01*
X206255901Y-65928904D02*
X206160663Y-65881285D01*
X206160663Y-65881285D02*
X206017806Y-65881285D01*
X206017806Y-65881285D02*
X205922568Y-65833666D01*
X205922568Y-65833666D02*
X205874949Y-65738428D01*
X205874949Y-65738428D02*
X205874949Y-65690809D01*
X205874949Y-65690809D02*
X205922568Y-65595571D01*
X205922568Y-65595571D02*
X206017806Y-65547952D01*
X206017806Y-65547952D02*
X206160663Y-65547952D01*
X206160663Y-65547952D02*
X206255901Y-65595571D01*
X206636854Y-65547952D02*
X206827330Y-66214619D01*
X206827330Y-66214619D02*
X207017806Y-65738428D01*
X207017806Y-65738428D02*
X207208282Y-66214619D01*
X207208282Y-66214619D02*
X207398758Y-65547952D01*
X188572568Y-75044619D02*
X188572568Y-74377952D01*
X188572568Y-74568428D02*
X188620187Y-74473190D01*
X188620187Y-74473190D02*
X188667806Y-74425571D01*
X188667806Y-74425571D02*
X188763044Y-74377952D01*
X188763044Y-74377952D02*
X188858282Y-74377952D01*
X189143997Y-74997000D02*
X189239235Y-75044619D01*
X189239235Y-75044619D02*
X189429711Y-75044619D01*
X189429711Y-75044619D02*
X189524949Y-74997000D01*
X189524949Y-74997000D02*
X189572568Y-74901761D01*
X189572568Y-74901761D02*
X189572568Y-74854142D01*
X189572568Y-74854142D02*
X189524949Y-74758904D01*
X189524949Y-74758904D02*
X189429711Y-74711285D01*
X189429711Y-74711285D02*
X189286854Y-74711285D01*
X189286854Y-74711285D02*
X189191616Y-74663666D01*
X189191616Y-74663666D02*
X189143997Y-74568428D01*
X189143997Y-74568428D02*
X189143997Y-74520809D01*
X189143997Y-74520809D02*
X189191616Y-74425571D01*
X189191616Y-74425571D02*
X189286854Y-74377952D01*
X189286854Y-74377952D02*
X189429711Y-74377952D01*
X189429711Y-74377952D02*
X189524949Y-74425571D01*
X189858283Y-74377952D02*
X190239235Y-74377952D01*
X190001140Y-74044619D02*
X190001140Y-74901761D01*
X190001140Y-74901761D02*
X190048759Y-74997000D01*
X190048759Y-74997000D02*
X190143997Y-75044619D01*
X190143997Y-75044619D02*
X190239235Y-75044619D01*
X206091139Y-68894619D02*
X206091139Y-67894619D01*
X206091139Y-68847000D02*
X205995901Y-68894619D01*
X205995901Y-68894619D02*
X205805425Y-68894619D01*
X205805425Y-68894619D02*
X205710187Y-68847000D01*
X205710187Y-68847000D02*
X205662568Y-68799380D01*
X205662568Y-68799380D02*
X205614949Y-68704142D01*
X205614949Y-68704142D02*
X205614949Y-68418428D01*
X205614949Y-68418428D02*
X205662568Y-68323190D01*
X205662568Y-68323190D02*
X205710187Y-68275571D01*
X205710187Y-68275571D02*
X205805425Y-68227952D01*
X205805425Y-68227952D02*
X205995901Y-68227952D01*
X205995901Y-68227952D02*
X206091139Y-68275571D01*
X206567330Y-68894619D02*
X206567330Y-68227952D01*
X206567330Y-67894619D02*
X206519711Y-67942238D01*
X206519711Y-67942238D02*
X206567330Y-67989857D01*
X206567330Y-67989857D02*
X206614949Y-67942238D01*
X206614949Y-67942238D02*
X206567330Y-67894619D01*
X206567330Y-67894619D02*
X206567330Y-67989857D01*
X207186377Y-68894619D02*
X207091139Y-68847000D01*
X207091139Y-68847000D02*
X207043520Y-68799380D01*
X207043520Y-68799380D02*
X206995901Y-68704142D01*
X206995901Y-68704142D02*
X206995901Y-68418428D01*
X206995901Y-68418428D02*
X207043520Y-68323190D01*
X207043520Y-68323190D02*
X207091139Y-68275571D01*
X207091139Y-68275571D02*
X207186377Y-68227952D01*
X207186377Y-68227952D02*
X207329234Y-68227952D01*
X207329234Y-68227952D02*
X207424472Y-68275571D01*
X207424472Y-68275571D02*
X207472091Y-68323190D01*
X207472091Y-68323190D02*
X207519710Y-68418428D01*
X207519710Y-68418428D02*
X207519710Y-68704142D01*
X207519710Y-68704142D02*
X207472091Y-68799380D01*
X207472091Y-68799380D02*
X207424472Y-68847000D01*
X207424472Y-68847000D02*
X207329234Y-68894619D01*
X207329234Y-68894619D02*
X207186377Y-68894619D01*
X201542568Y-68924619D02*
X201542568Y-68257952D01*
X201542568Y-68448428D02*
X201590187Y-68353190D01*
X201590187Y-68353190D02*
X201637806Y-68305571D01*
X201637806Y-68305571D02*
X201733044Y-68257952D01*
X201733044Y-68257952D02*
X201828282Y-68257952D01*
X202113997Y-68877000D02*
X202209235Y-68924619D01*
X202209235Y-68924619D02*
X202399711Y-68924619D01*
X202399711Y-68924619D02*
X202494949Y-68877000D01*
X202494949Y-68877000D02*
X202542568Y-68781761D01*
X202542568Y-68781761D02*
X202542568Y-68734142D01*
X202542568Y-68734142D02*
X202494949Y-68638904D01*
X202494949Y-68638904D02*
X202399711Y-68591285D01*
X202399711Y-68591285D02*
X202256854Y-68591285D01*
X202256854Y-68591285D02*
X202161616Y-68543666D01*
X202161616Y-68543666D02*
X202113997Y-68448428D01*
X202113997Y-68448428D02*
X202113997Y-68400809D01*
X202113997Y-68400809D02*
X202161616Y-68305571D01*
X202161616Y-68305571D02*
X202256854Y-68257952D01*
X202256854Y-68257952D02*
X202399711Y-68257952D01*
X202399711Y-68257952D02*
X202494949Y-68305571D01*
X202828283Y-68257952D02*
X203209235Y-68257952D01*
X202971140Y-67924619D02*
X202971140Y-68781761D01*
X202971140Y-68781761D02*
X203018759Y-68877000D01*
X203018759Y-68877000D02*
X203113997Y-68924619D01*
X203113997Y-68924619D02*
X203209235Y-68924619D01*
X206121139Y-67557000D02*
X206025901Y-67604619D01*
X206025901Y-67604619D02*
X205835425Y-67604619D01*
X205835425Y-67604619D02*
X205740187Y-67557000D01*
X205740187Y-67557000D02*
X205692568Y-67509380D01*
X205692568Y-67509380D02*
X205644949Y-67414142D01*
X205644949Y-67414142D02*
X205644949Y-67128428D01*
X205644949Y-67128428D02*
X205692568Y-67033190D01*
X205692568Y-67033190D02*
X205740187Y-66985571D01*
X205740187Y-66985571D02*
X205835425Y-66937952D01*
X205835425Y-66937952D02*
X206025901Y-66937952D01*
X206025901Y-66937952D02*
X206121139Y-66985571D01*
X206692568Y-67604619D02*
X206597330Y-67557000D01*
X206597330Y-67557000D02*
X206549711Y-67461761D01*
X206549711Y-67461761D02*
X206549711Y-66604619D01*
X207073521Y-67604619D02*
X207073521Y-66604619D01*
X207168759Y-67223666D02*
X207454473Y-67604619D01*
X207454473Y-66937952D02*
X207073521Y-67318904D01*
D11*
%TO.C,U3*%
X193265000Y-80425000D02*
X193265000Y-80485000D01*
D12*
%TO.C,C14*%
X190620000Y-82754165D02*
X190620000Y-82985835D01*
X191340000Y-82754165D02*
X191340000Y-82985835D01*
%TO.C,R1*%
X189587621Y-75620000D02*
X189252379Y-75620000D01*
X189587621Y-76380000D02*
X189252379Y-76380000D01*
%TO.C,U1*%
X193520000Y-72025000D02*
X193520000Y-71790000D01*
X193520000Y-76770000D02*
X193520000Y-76295000D01*
X193995000Y-71550000D02*
X193820000Y-71550000D01*
X193995000Y-76770000D02*
X193520000Y-76770000D01*
X198265000Y-71550000D02*
X198740000Y-71550000D01*
X198265000Y-76770000D02*
X198740000Y-76770000D01*
X198740000Y-71550000D02*
X198740000Y-72025000D01*
X198740000Y-76770000D02*
X198740000Y-76295000D01*
X193520000Y-71550000D02*
X193280000Y-71220000D01*
X193760000Y-71220000D01*
X193520000Y-71550000D01*
G36*
X193520000Y-71550000D02*
G01*
X193280000Y-71220000D01*
X193760000Y-71220000D01*
X193520000Y-71550000D01*
G37*
%TO.C,C3*%
X200465835Y-75530000D02*
X200234165Y-75530000D01*
X200465835Y-76250000D02*
X200234165Y-76250000D01*
%TO.C,C13*%
X192915835Y-83010000D02*
X192684165Y-83010000D01*
X192915835Y-83730000D02*
X192684165Y-83730000D01*
%TO.C,R4*%
X205142379Y-75870000D02*
X205477621Y-75870000D01*
X205142379Y-76630000D02*
X205477621Y-76630000D01*
%TO.C,R15*%
X193800000Y-66887621D02*
X193800000Y-66552379D01*
X194560000Y-66887621D02*
X194560000Y-66552379D01*
%TO.C,R7*%
X192000121Y-77070000D02*
X191664879Y-77070000D01*
X192000121Y-77830000D02*
X191664879Y-77830000D01*
%TO.C,C15*%
X192715835Y-79600000D02*
X192484165Y-79600000D01*
X192715835Y-80320000D02*
X192484165Y-80320000D01*
%TO.C,U4*%
X203730000Y-72240000D02*
X202930000Y-72240000D01*
X203730000Y-72240000D02*
X204530000Y-72240000D01*
X203730000Y-75360000D02*
X202930000Y-75360000D01*
X203730000Y-75360000D02*
X204530000Y-75360000D01*
X205270000Y-75640000D02*
X204790000Y-75640000D01*
X205030000Y-75310000D01*
X205270000Y-75640000D01*
G36*
X205270000Y-75640000D02*
G01*
X204790000Y-75640000D01*
X205030000Y-75310000D01*
X205270000Y-75640000D01*
G37*
%TO.C,R8*%
X201880000Y-82487621D02*
X201880000Y-82152379D01*
X202640000Y-82487621D02*
X202640000Y-82152379D01*
%TO.C,R9*%
X191402379Y-78620000D02*
X191737621Y-78620000D01*
X191402379Y-79380000D02*
X191737621Y-79380000D01*
D11*
%TO.C,D1*%
X184480000Y-77245000D02*
G75*
G02*
X184380000Y-77245000I-50000J0D01*
G01*
X184380000Y-77245000D02*
G75*
G02*
X184480000Y-77245000I50000J0D01*
G01*
D12*
%TO.C,C1*%
X188470000Y-77765835D02*
X188470000Y-77534165D01*
X189190000Y-77765835D02*
X189190000Y-77534165D01*
%TO.C,R6*%
X191634879Y-76060000D02*
X191970121Y-76060000D01*
X191634879Y-76820000D02*
X191970121Y-76820000D01*
%TO.C,C16*%
X192480000Y-69365835D02*
X192480000Y-69134165D01*
X193200000Y-69365835D02*
X193200000Y-69134165D01*
%TO.C,R16*%
X190610000Y-80797621D02*
X190610000Y-80462379D01*
X191370000Y-80797621D02*
X191370000Y-80462379D01*
%TO.C,SW7*%
D11*
X196655000Y-69195000D02*
X199175000Y-69195000D01*
X199175000Y-70555000D01*
X196655000Y-70555000D01*
X196655000Y-69195000D01*
D12*
%TO.C,C9*%
X182924165Y-70200000D02*
X183155835Y-70200000D01*
X182924165Y-70920000D02*
X183155835Y-70920000D01*
%TO.C,C10*%
X182914165Y-71680000D02*
X183145835Y-71680000D01*
X182914165Y-72400000D02*
X183145835Y-72400000D01*
%TO.C,R5*%
X200110000Y-71507621D02*
X200110000Y-71172379D01*
X200870000Y-71507621D02*
X200870000Y-71172379D01*
D13*
%TO.C,G\u002A\u002A\u002A*%
G36*
X206286068Y-82906069D02*
G01*
X206332693Y-82968040D01*
X206334542Y-82981639D01*
X206297569Y-83025946D01*
X206286068Y-83027252D01*
X206243528Y-82987796D01*
X206237595Y-82951681D01*
X206261094Y-82901508D01*
X206286068Y-82906069D01*
G37*
G36*
X206366130Y-83145049D02*
G01*
X206383015Y-83172672D01*
X206341447Y-83208801D01*
X206258971Y-83221145D01*
X206176499Y-83205758D01*
X206164885Y-83172672D01*
X206233255Y-83131951D01*
X206288929Y-83124198D01*
X206366130Y-83145049D01*
G37*
G36*
X204550882Y-82968632D02*
G01*
X204606676Y-83062256D01*
X204613740Y-83075725D01*
X204660032Y-83173907D01*
X204655255Y-83213595D01*
X204595242Y-83221139D01*
X204590748Y-83221145D01*
X204519016Y-83198829D01*
X204493659Y-83115131D01*
X204492557Y-83075725D01*
X204499230Y-82973537D01*
X204515302Y-82930313D01*
X204515549Y-82930305D01*
X204550882Y-82968632D01*
G37*
G36*
X205049134Y-80246940D02*
G01*
X204767860Y-80466071D01*
X204571309Y-80691930D01*
X204463940Y-80918509D01*
X204444084Y-81062153D01*
X204487070Y-81207724D01*
X204595285Y-81323497D01*
X204737614Y-81378164D01*
X204759160Y-81379160D01*
X204859605Y-81399253D01*
X204870496Y-81454837D01*
X204811422Y-81521435D01*
X204741509Y-81632395D01*
X204707668Y-81794874D01*
X204713948Y-81968885D01*
X204753356Y-82095036D01*
X204856320Y-82231192D01*
X205002545Y-82309761D01*
X205206020Y-82334791D01*
X205480731Y-82310328D01*
X205491682Y-82308644D01*
X205706784Y-82263185D01*
X205917650Y-82198003D01*
X206107457Y-82121197D01*
X206259379Y-82040866D01*
X206356591Y-81965111D01*
X206382268Y-81902028D01*
X206371791Y-81884985D01*
X206319867Y-81891176D01*
X206204108Y-81927624D01*
X206052824Y-81985157D01*
X205723222Y-82082225D01*
X205416466Y-82099787D01*
X205150060Y-82037975D01*
X205003563Y-81938944D01*
X204940848Y-81795250D01*
X204952557Y-81623787D01*
X204979637Y-81530301D01*
X205025188Y-81461838D01*
X205108694Y-81403917D01*
X205249641Y-81342057D01*
X205413549Y-81281194D01*
X205604096Y-81205042D01*
X205784804Y-81120203D01*
X205936861Y-81037177D01*
X206041459Y-80966464D01*
X206079785Y-80918563D01*
X206076547Y-80911114D01*
X206022129Y-80914945D01*
X205909711Y-80951714D01*
X205823439Y-80987324D01*
X205643177Y-81059209D01*
X205531321Y-81086988D01*
X205493237Y-81071081D01*
X205534291Y-81011902D01*
X205583206Y-80968640D01*
X205673390Y-80886339D01*
X205686728Y-80853156D01*
X205629481Y-80868287D01*
X205507908Y-80930931D01*
X205406064Y-80991374D01*
X205146149Y-81109118D01*
X204902058Y-81131959D01*
X204708841Y-81078659D01*
X204620480Y-81021790D01*
X204600570Y-80940595D01*
X204610558Y-80873980D01*
X204682427Y-80712232D01*
X204828608Y-80532697D01*
X205033158Y-80352975D01*
X205168555Y-80257973D01*
X205265835Y-80198463D01*
X205353539Y-80158892D01*
X205454627Y-80135205D01*
X205592058Y-80123346D01*
X205788789Y-80119262D01*
X205956245Y-80118855D01*
X206528435Y-80118855D01*
X206525799Y-81633645D01*
X206524921Y-82055363D01*
X206523541Y-82388667D01*
X206521093Y-82642090D01*
X206517011Y-82824164D01*
X206510729Y-82943424D01*
X206501681Y-83008401D01*
X206489300Y-83027628D01*
X206473022Y-83009638D01*
X206452279Y-82962964D01*
X206439748Y-82930734D01*
X206362730Y-82769200D01*
X206290389Y-82703831D01*
X206219925Y-82734815D01*
X206148533Y-82862342D01*
X206114897Y-82952629D01*
X206056042Y-83096767D01*
X205997371Y-83194230D01*
X205960954Y-83221145D01*
X205903145Y-83193416D01*
X205898282Y-83176043D01*
X205857067Y-83134942D01*
X205789217Y-83115451D01*
X205703973Y-83085021D01*
X205680152Y-83051488D01*
X205721380Y-83007747D01*
X205789217Y-82987525D01*
X205881800Y-82954623D01*
X205887615Y-82911606D01*
X205810220Y-82883576D01*
X205774238Y-82881832D01*
X205691766Y-82866445D01*
X205680152Y-82833359D01*
X205748522Y-82792638D01*
X205804196Y-82784885D01*
X205881397Y-82764035D01*
X205898282Y-82736412D01*
X205855670Y-82704373D01*
X205750891Y-82688357D01*
X205728626Y-82687939D01*
X205558969Y-82687939D01*
X205558969Y-82954542D01*
X205555837Y-83107221D01*
X205539227Y-83186719D01*
X205498316Y-83216764D01*
X205437375Y-83221145D01*
X205353296Y-83212486D01*
X205349986Y-83169150D01*
X205376784Y-83121246D01*
X205410871Y-83035521D01*
X205368974Y-82971351D01*
X205343693Y-82951590D01*
X205244815Y-82896527D01*
X205186155Y-82881832D01*
X205127884Y-82849058D01*
X205122710Y-82827708D01*
X205163312Y-82793953D01*
X205245814Y-82797116D01*
X205336070Y-82798730D01*
X205351082Y-82766412D01*
X205289925Y-82713152D01*
X205182978Y-82696408D01*
X205075847Y-82720350D01*
X205047332Y-82738626D01*
X204982064Y-82833754D01*
X205009894Y-82923385D01*
X205122710Y-82993616D01*
X205234778Y-83050959D01*
X205262739Y-83096717D01*
X205207256Y-83116263D01*
X205117596Y-83106210D01*
X205016071Y-83093859D01*
X204987422Y-83118917D01*
X204994891Y-83148624D01*
X204986664Y-83208656D01*
X204929828Y-83221145D01*
X204873339Y-83205562D01*
X204841644Y-83143688D01*
X204825011Y-83012836D01*
X204822285Y-82970470D01*
X204802036Y-82827005D01*
X204767407Y-82728394D01*
X204729186Y-82686698D01*
X204698164Y-82713976D01*
X204685160Y-82817201D01*
X204683870Y-82954542D01*
X204600467Y-82819994D01*
X204511823Y-82714074D01*
X204439095Y-82701889D01*
X204386412Y-82780947D01*
X204357903Y-82948755D01*
X204356722Y-82967114D01*
X204338243Y-83129224D01*
X204303887Y-83208187D01*
X204271894Y-83221145D01*
X204209030Y-83194152D01*
X204201717Y-83172672D01*
X204160235Y-83136233D01*
X204080534Y-83124198D01*
X203983069Y-83098916D01*
X203959351Y-83051488D01*
X204001489Y-82993009D01*
X204080534Y-82978778D01*
X204171630Y-82962185D01*
X204201717Y-82930305D01*
X204160235Y-82893867D01*
X204080534Y-82881832D01*
X203989438Y-82865239D01*
X203959351Y-82833359D01*
X204000833Y-82796920D01*
X204080534Y-82784885D01*
X204171630Y-82768292D01*
X204201717Y-82736412D01*
X204159105Y-82704373D01*
X204054326Y-82688357D01*
X204032061Y-82687939D01*
X203862404Y-82687939D01*
X203862404Y-82954542D01*
X203859962Y-83106954D01*
X203843960Y-83186284D01*
X203801380Y-83216394D01*
X203719208Y-83221145D01*
X203716984Y-83221145D01*
X203571565Y-83221145D01*
X203571565Y-81670000D01*
X203571565Y-80118855D01*
X204406863Y-80118855D01*
X205242161Y-80118855D01*
X205049134Y-80246940D01*
G37*
D14*
%TO.C,U2*%
X185353000Y-77977000D02*
X187707000Y-77977000D01*
X187707000Y-75623000D02*
X185353000Y-75623000D01*
D12*
%TO.C,R13*%
X182842379Y-68080000D02*
X183177621Y-68080000D01*
X182842379Y-68840000D02*
X183177621Y-68840000D01*
%TO.C,R10*%
X183480000Y-66372379D02*
X183480000Y-66707621D01*
X184240000Y-66372379D02*
X184240000Y-66707621D01*
%TO.C,R2*%
X189560000Y-77502379D02*
X189560000Y-77837621D01*
X190320000Y-77502379D02*
X190320000Y-77837621D01*
%TO.C,R3*%
X187107621Y-78350000D02*
X186772379Y-78350000D01*
X187107621Y-79110000D02*
X186772379Y-79110000D01*
D11*
%TO.C,BT1*%
X184770001Y-68300000D02*
G75*
G02*
X188965302Y-70632624I2039999J-1270000D01*
G01*
X187863662Y-71727497D02*
G75*
G02*
X185560000Y-71619999I-1053662J2157497D01*
G01*
D12*
%TO.C,R11*%
X191440000Y-69072379D02*
X191440000Y-69407621D01*
X192200000Y-69072379D02*
X192200000Y-69407621D01*
%TO.C,C4*%
X200465835Y-76480000D02*
X200234165Y-76480000D01*
X200465835Y-77200000D02*
X200234165Y-77200000D01*
%TO.C,R14*%
X184980000Y-74092379D02*
X184980000Y-74427621D01*
X185740000Y-74092379D02*
X185740000Y-74427621D01*
%TO.C,R12*%
X189510000Y-69417621D02*
X189510000Y-69082379D01*
X190270000Y-69417621D02*
X190270000Y-69082379D01*
%TO.C,C2*%
X191676665Y-73990000D02*
X191908335Y-73990000D01*
X191676665Y-74710000D02*
X191908335Y-74710000D01*
%TO.C,C17*%
X184480000Y-66665835D02*
X184480000Y-66434165D01*
X185200000Y-66665835D02*
X185200000Y-66434165D01*
%TO.C,C6*%
X193570000Y-69074165D02*
X193570000Y-69305835D01*
X194290000Y-69074165D02*
X194290000Y-69305835D01*
%TO.C,Q1*%
D15*
X183237500Y-73947500D02*
X184857500Y-73947500D01*
X184857500Y-72827500D01*
X183237500Y-72827500D01*
X183237500Y-73947500D01*
D12*
%TO.C,C5*%
X191684165Y-74950000D02*
X191915835Y-74950000D01*
X191684165Y-75670000D02*
X191915835Y-75670000D01*
%TO.C,C7*%
X191724165Y-71280000D02*
X191955835Y-71280000D01*
X191724165Y-72000000D02*
X191955835Y-72000000D01*
%TO.C,SW5*%
D11*
X189495000Y-72325000D02*
X192015000Y-72325000D01*
X192015000Y-73685000D01*
X189495000Y-73685000D01*
X189495000Y-72325000D01*
D12*
%TO.C,C8*%
X182904165Y-69100000D02*
X183135835Y-69100000D01*
X182904165Y-69820000D02*
X183135835Y-69820000D01*
%TO.C,C18*%
X195070000Y-69454165D02*
X195070000Y-69685835D01*
X195790000Y-69454165D02*
X195790000Y-69685835D01*
%TD*%
M02*
