%TF.GenerationSoftware,KiCad,Pcbnew,10.0.0*%
%TF.CreationDate,2026-05-31T18:55:06+02:00*%
%TF.ProjectId,hardware_V9,68617264-7761-4726-955f-56392e6b6963,rev?*%
%TF.SameCoordinates,Original*%
%TF.FileFunction,Copper,L6,Bot*%
%TF.FilePolarity,Positive*%
%FSLAX46Y46*%
G04 Gerber Fmt 4.6, Leading zero omitted, Abs format (unit mm)*
G04 Created by KiCad (PCBNEW 10.0.0) date 2026-05-31 18:55:06*
%MOMM*%
%LPD*%
G01*
G04 APERTURE LIST*
G04 Aperture macros list*
%AMRoundRect*
0 Rectangle with rounded corners*
0 $1 Rounding radius*
0 $2 $3 $4 $5 $6 $7 $8 $9 X,Y pos of 4 corners*
0 Add a 4 corners polygon primitive as box body*
4,1,4,$2,$3,$4,$5,$6,$7,$8,$9,$2,$3,0*
0 Add four circle primitives for the rounded corners*
1,1,$1+$1,$2,$3*
1,1,$1+$1,$4,$5*
1,1,$1+$1,$6,$7*
1,1,$1+$1,$8,$9*
0 Add four rect primitives between the rounded corners*
20,1,$1+$1,$2,$3,$4,$5,0*
20,1,$1+$1,$4,$5,$6,$7,0*
20,1,$1+$1,$6,$7,$8,$9,0*
20,1,$1+$1,$8,$9,$2,$3,0*%
%AMRotRect*
0 Rectangle, with rotation*
0 The origin of the aperture is its center*
0 $1 length*
0 $2 width*
0 $3 Rotation angle, in degrees counterclockwise*
0 Add horizontal line*
21,1,$1,$2,0,0,$3*%
%AMOutline5P*
0 Free polygon, 5 corners , with rotation*
0 The origin of the aperture is its center*
0 number of corners: always 5*
0 $1 to $10 corner X, Y*
0 $11 Rotation angle, in degrees counterclockwise*
0 create outline with 5 corners*
4,1,5,$1,$2,$3,$4,$5,$6,$7,$8,$9,$10,$1,$2,$11*%
%AMOutline6P*
0 Free polygon, 6 corners , with rotation*
0 The origin of the aperture is its center*
0 number of corners: always 6*
0 $1 to $12 corner X, Y*
0 $13 Rotation angle, in degrees counterclockwise*
0 create outline with 6 corners*
4,1,6,$1,$2,$3,$4,$5,$6,$7,$8,$9,$10,$11,$12,$1,$2,$13*%
%AMOutline7P*
0 Free polygon, 7 corners , with rotation*
0 The origin of the aperture is its center*
0 number of corners: always 7*
0 $1 to $14 corner X, Y*
0 $15 Rotation angle, in degrees counterclockwise*
0 create outline with 7 corners*
4,1,7,$1,$2,$3,$4,$5,$6,$7,$8,$9,$10,$11,$12,$13,$14,$1,$2,$15*%
%AMOutline8P*
0 Free polygon, 8 corners , with rotation*
0 The origin of the aperture is its center*
0 number of corners: always 8*
0 $1 to $16 corner X, Y*
0 $17 Rotation angle, in degrees counterclockwise*
0 create outline with 8 corners*
4,1,8,$1,$2,$3,$4,$5,$6,$7,$8,$9,$10,$11,$12,$13,$14,$15,$16,$1,$2,$17*%
G04 Aperture macros list end*
%TA.AperFunction,SMDPad,CuDef*%
%ADD10RoundRect,0.100000X-0.217500X-0.100000X0.217500X-0.100000X0.217500X0.100000X-0.217500X0.100000X0*%
%TD*%
%TA.AperFunction,SMDPad,CuDef*%
%ADD11RoundRect,0.100000X0.217500X0.100000X-0.217500X0.100000X-0.217500X-0.100000X0.217500X-0.100000X0*%
%TD*%
%TA.AperFunction,SMDPad,CuDef*%
%ADD12Outline5P,-0.207500X0.150000X0.057500X0.150000X0.207500X0.000000X0.207500X-0.150000X-0.207500X-0.150000X270.000000*%
%TD*%
%TA.AperFunction,SMDPad,CuDef*%
%ADD13Outline5P,-0.207500X0.150000X0.207500X0.150000X0.207500X0.000000X0.057500X-0.150000X-0.207500X-0.150000X270.000000*%
%TD*%
%TA.AperFunction,SMDPad,CuDef*%
%ADD14RotRect,0.500000X0.500000X225.000000*%
%TD*%
%TA.AperFunction,SMDPad,CuDef*%
%ADD15Outline5P,-0.207500X0.150000X0.207500X0.150000X0.207500X-0.150000X-0.057500X-0.150000X-0.207500X0.000000X270.000000*%
%TD*%
%TA.AperFunction,SMDPad,CuDef*%
%ADD16Outline5P,-0.207500X0.000000X-0.057500X0.150000X0.207500X0.150000X0.207500X-0.150000X-0.207500X-0.150000X270.000000*%
%TD*%
%TA.AperFunction,SMDPad,CuDef*%
%ADD17R,0.800000X1.200000*%
%TD*%
%TA.AperFunction,SMDPad,CuDef*%
%ADD18Outline5P,-0.207500X0.150000X0.057500X0.150000X0.207500X0.000000X0.207500X-0.150000X-0.207500X-0.150000X180.000000*%
%TD*%
%TA.AperFunction,SMDPad,CuDef*%
%ADD19Outline5P,-0.207500X0.150000X0.207500X0.150000X0.207500X0.000000X0.057500X-0.150000X-0.207500X-0.150000X180.000000*%
%TD*%
%TA.AperFunction,SMDPad,CuDef*%
%ADD20RotRect,0.500000X0.500000X135.000000*%
%TD*%
%TA.AperFunction,SMDPad,CuDef*%
%ADD21Outline5P,-0.207500X0.150000X0.207500X0.150000X0.207500X-0.150000X-0.057500X-0.150000X-0.207500X0.000000X180.000000*%
%TD*%
%TA.AperFunction,SMDPad,CuDef*%
%ADD22Outline5P,-0.207500X0.000000X-0.057500X0.150000X0.207500X0.150000X0.207500X-0.150000X-0.207500X-0.150000X180.000000*%
%TD*%
%TA.AperFunction,ComponentPad*%
%ADD23R,1.700000X1.700000*%
%TD*%
%TA.AperFunction,ComponentPad*%
%ADD24C,1.700000*%
%TD*%
%TA.AperFunction,SMDPad,CuDef*%
%ADD25RoundRect,0.147500X0.172500X-0.147500X0.172500X0.147500X-0.172500X0.147500X-0.172500X-0.147500X0*%
%TD*%
%TA.AperFunction,SMDPad,CuDef*%
%ADD26R,1.150000X0.300000*%
%TD*%
%TA.AperFunction,SMDPad,CuDef*%
%ADD27R,2.000000X1.600000*%
%TD*%
%TA.AperFunction,SMDPad,CuDef*%
%ADD28R,0.750000X1.800000*%
%TD*%
%TA.AperFunction,SMDPad,CuDef*%
%ADD29R,0.600000X1.800000*%
%TD*%
%TA.AperFunction,SMDPad,CuDef*%
%ADD30R,1.300000X0.900000*%
%TD*%
%TA.AperFunction,SMDPad,CuDef*%
%ADD31RoundRect,0.100000X-0.100000X0.217500X-0.100000X-0.217500X0.100000X-0.217500X0.100000X0.217500X0*%
%TD*%
%TA.AperFunction,SMDPad,CuDef*%
%ADD32R,1.500000X0.550000*%
%TD*%
%TA.AperFunction,SMDPad,CuDef*%
%ADD33RoundRect,0.147500X-0.172500X0.147500X-0.172500X-0.147500X0.172500X-0.147500X0.172500X0.147500X0*%
%TD*%
%TA.AperFunction,ViaPad*%
%ADD34C,0.400000*%
%TD*%
%TA.AperFunction,Conductor*%
%ADD35C,0.400000*%
%TD*%
%TA.AperFunction,Conductor*%
%ADD36C,0.120000*%
%TD*%
%TA.AperFunction,Conductor*%
%ADD37C,0.200000*%
%TD*%
G04 APERTURE END LIST*
D10*
%TO.P,C6,1*%
%TO.N,BAT+*%
X102907500Y-97250000D03*
%TO.P,C6,2*%
%TO.N,GND*%
X102092500Y-97250000D03*
%TD*%
D11*
%TO.P,R26,1*%
%TO.N,/SPI_CLK*%
X101662500Y-101400000D03*
%TO.P,R26,2*%
%TO.N,Net-(J1-CLK)*%
X102477500Y-101400000D03*
%TD*%
D12*
%TO.P,U5,1,VOUT_1*%
%TO.N,3.3V_AUX*%
X103790000Y-95065000D03*
D13*
%TO.P,U5,2,GND_2*%
%TO.N,GND*%
X104500000Y-95065000D03*
D14*
X104145000Y-95457500D03*
D15*
%TO.P,U5,3,EN_3*%
%TO.N,/AUX_EN*%
X104500000Y-95850000D03*
D16*
%TO.P,U5,4,VIN_4*%
%TO.N,BAT+*%
X103790000Y-95850000D03*
%TD*%
D17*
%TO.P,PA1010D1,1,I2C_SDA_1*%
%TO.N,unconnected-(PA1010D1-I2C_SDA-Pad1)*%
X115450000Y-106050000D03*
%TO.P,PA1010D1,2,I2C_SCL_2*%
%TO.N,unconnected-(PA1010D1-I2C_SCL-Pad2)*%
X113850000Y-106050000D03*
%TO.P,PA1010D1,3,1PPS_3*%
%TO.N,unconnected-(PA1010D1-1PPS-Pad3)*%
X110950000Y-106050000D03*
%TO.P,PA1010D1,4,TX_4*%
%TO.N,Net-(PA1010D1-TX)*%
X109350000Y-106050000D03*
%TO.P,PA1010D1,5,RX_5*%
%TO.N,Net-(PA1010D1-RX)*%
X107750000Y-106050000D03*
%TO.P,PA1010D1,6,NRESET_6*%
%TO.N,unconnected-(PA1010D1-NRESET-Pad6)*%
X107750000Y-96350000D03*
%TO.P,PA1010D1,7,GND_7*%
%TO.N,GND*%
X109350000Y-96350000D03*
%TO.P,PA1010D1,8,WAKE_UP_8*%
%TO.N,unconnected-(PA1010D1-WAKE_UP-Pad8)*%
X110950000Y-96350000D03*
%TO.P,PA1010D1,9,VBACKUP_9*%
%TO.N,Net-(PA1010D1-VBACKUP)*%
X113850000Y-96350000D03*
%TO.P,PA1010D1,10,VCC_10*%
%TO.N,3.3V_GPS*%
X115450000Y-96350000D03*
%TD*%
D10*
%TO.P,C1,1*%
%TO.N,3.3V_AUX*%
X102875000Y-95100000D03*
%TO.P,C1,2*%
%TO.N,GND*%
X102060000Y-95100000D03*
%TD*%
D18*
%TO.P,U3,1,VOUT_1*%
%TO.N,3.3V_GPS*%
X105200000Y-97790000D03*
D19*
%TO.P,U3,2,GND_2*%
%TO.N,GND*%
X105200000Y-98500000D03*
D20*
X104807500Y-98145000D03*
D21*
%TO.P,U3,3,EN_3*%
%TO.N,/GPS_EN*%
X104415000Y-98500000D03*
D22*
%TO.P,U3,4,VIN_4*%
%TO.N,BAT+*%
X104415000Y-97790000D03*
%TD*%
D23*
%TO.P,U4,1,GND_1*%
%TO.N,GND*%
X103810000Y-93000000D03*
D24*
%TO.P,U4,2,VCC_2*%
%TO.N,3.3V_AUX*%
X101270000Y-93000000D03*
%TO.P,U4,3,SCK_3*%
%TO.N,/OLED_SCL*%
X98730000Y-93000000D03*
%TO.P,U4,4,SDA_4*%
%TO.N,/OLED_SDA*%
X96190000Y-93000000D03*
%TO.P,U4,5,GND_5*%
%TO.N,GND*%
X104500000Y-107000000D03*
%TO.P,U4,6,GND_6*%
X95500000Y-107000000D03*
%TD*%
D10*
%TO.P,C3,1*%
%TO.N,BAT+*%
X102900000Y-96100000D03*
%TO.P,C3,2*%
%TO.N,GND*%
X102085000Y-96100000D03*
%TD*%
D25*
%TO.P,LEDGREEN1,1,K_1*%
%TO.N,GND*%
X98250000Y-106465000D03*
%TO.P,LEDGREEN1,2,A_2*%
%TO.N,Net-(LEDGREEN1-A)*%
X98250000Y-107435000D03*
%TD*%
D26*
%TO.P,J3,A1,GND_A1*%
%TO.N,GND*%
X99705000Y-103350000D03*
%TO.P,J3,A4,VBUS_A4*%
%TO.N,vusb*%
X99705000Y-102550000D03*
%TO.P,J3,A5,CC1_A5*%
%TO.N,Net-(J3-CC1)*%
X99705000Y-101250000D03*
%TO.P,J3,A6,D+_A6*%
%TO.N,/D+*%
X99705000Y-100250000D03*
%TO.P,J3,A7,D-_A7*%
%TO.N,/D-*%
X99705000Y-99750000D03*
%TO.P,J3,A8,SBUS1_A8*%
%TO.N,unconnected-(J3-SBUS1-PadA8)*%
X99705000Y-98750000D03*
%TO.P,J3,A9,VBUS_A9*%
%TO.N,vusb*%
X99705000Y-97450000D03*
%TO.P,J3,A12,GND_A12*%
%TO.N,GND*%
X99705000Y-96650000D03*
%TO.P,J3,B1,GND_B1*%
X99705000Y-96950000D03*
%TO.P,J3,B4,VBUS_B4*%
%TO.N,vusb*%
X99705000Y-97750000D03*
%TO.P,J3,B5,CC2_B5*%
%TO.N,Net-(J3-CC2)*%
X99705000Y-98250000D03*
%TO.P,J3,B6,D+_B6*%
%TO.N,/D+*%
X99705000Y-99250000D03*
%TO.P,J3,B7,D-_B7*%
%TO.N,/D-*%
X99705000Y-100750000D03*
%TO.P,J3,B8,SBUS2_B8*%
%TO.N,unconnected-(J3-SBUS2-PadB8)*%
X99705000Y-101750000D03*
%TO.P,J3,B9,VBUS_B9*%
%TO.N,vusb*%
X99705000Y-102250000D03*
%TO.P,J3,B12,GND_B12*%
%TO.N,GND*%
X99705000Y-103050000D03*
D27*
%TO.P,J3,MP1,MP1_MP1*%
X95200000Y-104820000D03*
%TO.P,J3,MP2,MP2_MP2*%
X95200000Y-95180000D03*
%TO.P,J3,MP3,MP3_MP3*%
X99130000Y-104820000D03*
%TO.P,J3,MP4,MP4_MP4*%
X99130000Y-95180000D03*
%TD*%
D28*
%TO.P,S1,1,COM_1_1*%
%TO.N,+3.3V*%
X106425000Y-94275000D03*
D29*
%TO.P,S1,2,NO_2*%
%TO.N,/B1*%
X107650000Y-94275000D03*
D28*
%TO.P,S1,3,COM_2_3*%
%TO.N,+3.3V*%
X108875000Y-94275000D03*
D30*
%TO.P,S1,MP1,MP1_MP1*%
%TO.N,GND*%
X105800000Y-92325000D03*
%TO.P,S1,MP2,MP2_MP2*%
X109500000Y-92325000D03*
%TD*%
D31*
%TO.P,C5,1*%
%TO.N,3.3V_GPS*%
X105200000Y-97015000D03*
%TO.P,C5,2*%
%TO.N,GND*%
X105200000Y-96200000D03*
%TD*%
D11*
%TO.P,R22,1*%
%TO.N,Net-(J3-CC2)*%
X101042500Y-98230000D03*
%TO.P,R22,2*%
%TO.N,GND*%
X101857500Y-98230000D03*
%TD*%
%TO.P,R23,1*%
%TO.N,Net-(J3-CC1)*%
X101692500Y-100700000D03*
%TO.P,R23,2*%
%TO.N,GND*%
X102507500Y-100700000D03*
%TD*%
D28*
%TO.P,S3,1,COM_1_1*%
%TO.N,GND*%
X112125000Y-94275000D03*
D29*
%TO.P,S3,2,NO_2*%
%TO.N,/B_PW*%
X113350000Y-94275000D03*
D28*
%TO.P,S3,3,COM_2_3*%
%TO.N,GND*%
X114575000Y-94275000D03*
D30*
%TO.P,S3,MP1,MP1_MP1*%
X111500000Y-92325000D03*
%TO.P,S3,MP2,MP2_MP2*%
X115200000Y-92325000D03*
%TD*%
D25*
%TO.P,LEDBLUE1,1,K_1*%
%TO.N,GND*%
X97250000Y-106465000D03*
%TO.P,LEDBLUE1,2,A_2*%
%TO.N,Net-(LEDBLUE1-A)*%
X97250000Y-107435000D03*
%TD*%
D32*
%TO.P,S2,1,COM_1*%
%TO.N,/NRST*%
X102100000Y-104775000D03*
%TO.P,S2,2,NO_2*%
%TO.N,GND*%
X102100000Y-108025000D03*
%TD*%
D33*
%TO.P,LEDRED1,1,K_1*%
%TO.N,Net-(IC5-~{CHRG})*%
X99200000Y-107435000D03*
%TO.P,LEDRED1,2,A_2*%
%TO.N,Net-(LEDRED1-A)*%
X99200000Y-106465000D03*
%TD*%
D34*
%TO.N,GND*%
X94600000Y-107900000D03*
X94600000Y-92000000D03*
X108700000Y-92350000D03*
X106950000Y-92350000D03*
X104850000Y-100000000D03*
X110400000Y-104750000D03*
X112900000Y-107400000D03*
X110650000Y-107400000D03*
X96700000Y-102200000D03*
X98700000Y-101400000D03*
X106220000Y-101990000D03*
X105980000Y-98490000D03*
X108390000Y-103090000D03*
X106250000Y-105270000D03*
%TO.N,/ADC_SUP*%
X105060000Y-99170000D03*
%TO.N,/GPS_EN*%
X98010000Y-101990000D03*
%TO.N,GND*%
X104807500Y-98145000D03*
X111850000Y-96700000D03*
X109850000Y-94300000D03*
X112100000Y-100000000D03*
X95050000Y-96895000D03*
X99000000Y-108050000D03*
X102700000Y-100800000D03*
X111100000Y-94300000D03*
X115350000Y-101950000D03*
X100700000Y-102850000D03*
X111400000Y-103400000D03*
X95100000Y-95450000D03*
X99700000Y-96300000D03*
X97350000Y-96895000D03*
X113150000Y-103200000D03*
X114250000Y-102635000D03*
X101700000Y-107000000D03*
X114125000Y-94675000D03*
X98800000Y-96200000D03*
X95200000Y-104820000D03*
X100800000Y-94692500D03*
X115500000Y-104900000D03*
X101525000Y-98775000D03*
X96425000Y-108025000D03*
X98925000Y-105350000D03*
X112400000Y-95800000D03*
X113300000Y-101200000D03*
X108700000Y-97900000D03*
X116000000Y-94370000D03*
X96800000Y-100400000D03*
X95050000Y-94510000D03*
X97350000Y-94510000D03*
X100500000Y-108050000D03*
X105125000Y-102025000D03*
X102575000Y-103875000D03*
X115200000Y-92325000D03*
X112948528Y-102048528D03*
X97117500Y-99430000D03*
X94550000Y-103650000D03*
X108575000Y-105000000D03*
X113100000Y-104700000D03*
X97500000Y-93200000D03*
X112000000Y-97900000D03*
X102275000Y-99925000D03*
X104145000Y-95457500D03*
X103425000Y-104220000D03*
X99970000Y-92000000D03*
X99800000Y-108050000D03*
X105875000Y-95825000D03*
X108900000Y-100100000D03*
X116150000Y-107950000D03*
X105000000Y-102975000D03*
X94700000Y-93300000D03*
X104400000Y-94750000D03*
X111251472Y-102048528D03*
X110900000Y-101200000D03*
X105150000Y-92500000D03*
X112100000Y-102400000D03*
X106550000Y-96625000D03*
X111251472Y-100351472D03*
X109275000Y-107925000D03*
X113000000Y-98700000D03*
X112948528Y-100351472D03*
X116150000Y-92000000D03*
X108425000Y-102000000D03*
X102115000Y-106000000D03*
X110100000Y-96700000D03*
X108550000Y-106025000D03*
X97400000Y-91950000D03*
X103425000Y-98250000D03*
X109350000Y-96350000D03*
%TO.N,+3.3V*%
X100450000Y-105750000D03*
X101050000Y-105750000D03*
X109000000Y-93800000D03*
X95900000Y-103550000D03*
X96140000Y-102930000D03*
X113000000Y-92285000D03*
X106450000Y-93800000D03*
X100850000Y-96300000D03*
X100850000Y-96950000D03*
%TO.N,/NRST*%
X98087500Y-103662500D03*
%TO.N,/B_PW*%
X98670000Y-101980000D03*
X113050000Y-92950000D03*
%TO.N,/ADC_SUP*%
X106850000Y-106000000D03*
%TO.N,/SPI_CS*%
X102100000Y-101900000D03*
X114250000Y-98235000D03*
%TO.N,/SPI_CLK*%
X101662500Y-101400000D03*
%TO.N,/GPS_EN*%
X104450000Y-99050000D03*
%TO.N,/AUX_EN*%
X104500000Y-96350000D03*
%TO.N,/D-*%
X98370000Y-98970000D03*
%TO.N,/D+*%
X98757498Y-99442502D03*
%TO.N,/SWDIO*%
X95800000Y-97840000D03*
%TO.N,/SWCLK*%
X94875000Y-97825000D03*
%TO.N,/SD_DET*%
X107961876Y-92850000D03*
X95200000Y-98900000D03*
%TO.N,/B1*%
X95130000Y-101980000D03*
X107399448Y-92850000D03*
%TO.N,BAT+*%
X105800000Y-107400000D03*
X106450000Y-107400000D03*
X103150000Y-107650000D03*
X103500000Y-99750000D03*
X103150000Y-106900000D03*
X100000000Y-106250000D03*
X102950000Y-99750000D03*
X114692500Y-107600000D03*
%TO.N,Net-(IC5-~{CHRG})*%
X100550000Y-106950000D03*
%TO.N,vusb*%
X99935000Y-97435000D03*
X97200000Y-105050000D03*
%TO.N,Net-(PA1010D1-VBACKUP)*%
X113850000Y-96350000D03*
X115507500Y-107600000D03*
%TO.N,Net-(LEDRED1-A)*%
X96500002Y-104200000D03*
%TO.N,3.3V_AUX*%
X96737500Y-96437500D03*
X114250000Y-100435000D03*
X113700000Y-92292500D03*
X96850000Y-94100000D03*
X114900000Y-100450000D03*
X108000000Y-92050000D03*
X105400000Y-95000000D03*
%TO.N,Net-(LEDBLUE1-A)*%
X97250000Y-108050000D03*
X94550000Y-102757500D03*
%TO.N,3.3V_GPS*%
X115450000Y-97107500D03*
%TO.N,Net-(J1-CLK)*%
X103700000Y-101400000D03*
%TO.N,Net-(PA1010D1-TX)*%
X109350000Y-105000000D03*
X102657500Y-102600000D03*
%TO.N,Net-(LEDGREEN1-A)*%
X98250000Y-108050000D03*
X94550000Y-100957500D03*
%TO.N,Net-(PA1010D1-RX)*%
X107775000Y-104950000D03*
X101757500Y-103350000D03*
%TO.N,/TX_SUP*%
X95360000Y-100870000D03*
X96610000Y-95230000D03*
%TO.N,/RX_SUP*%
X95350000Y-101480000D03*
X96620000Y-95810000D03*
%TD*%
%TO.N,vusb*%
D35*
X97200000Y-102900000D02*
X97370000Y-102730000D01*
X97200000Y-105050000D02*
X97200000Y-102900000D01*
%TO.N,Net-(LEDRED1-A)*%
D36*
X97100000Y-105950000D02*
X98979999Y-105950000D01*
X96500000Y-105350000D02*
X97100000Y-105950000D01*
X96500002Y-104200000D02*
X96500000Y-104200002D01*
X96500000Y-104200002D02*
X96500000Y-105350000D01*
X98979999Y-105950000D02*
X99200000Y-106170001D01*
X99200000Y-106170001D02*
X99200000Y-106465000D01*
%TO.N,vusb*%
D35*
X97340000Y-101460000D02*
X97340000Y-102700000D01*
X97650000Y-98120000D02*
X97650000Y-101150000D01*
X97340000Y-102700000D02*
X97370000Y-102730000D01*
X99935000Y-97435000D02*
X98335000Y-97435000D01*
X98335000Y-97435000D02*
X97650000Y-98120000D01*
X97650000Y-101150000D02*
X97340000Y-101460000D01*
X97370000Y-102730000D02*
X97630000Y-102730000D01*
X97630000Y-102730000D02*
X98770000Y-102730000D01*
X98770000Y-102730000D02*
X99100000Y-102400000D01*
%TO.N,/D-*%
D37*
X99050000Y-100750000D02*
X99705000Y-100750000D01*
X98460000Y-100160000D02*
X99050000Y-100750000D01*
X98460000Y-99910000D02*
X98460000Y-100160000D01*
X98240000Y-99100000D02*
X98240000Y-99690000D01*
X98240000Y-99690000D02*
X98460000Y-99910000D01*
X98370000Y-98970000D02*
X98240000Y-99100000D01*
%TO.N,/D+*%
X98840000Y-99380000D02*
X98940000Y-99380000D01*
X98777498Y-99442502D02*
X98840000Y-99380000D01*
X98757498Y-99442502D02*
X98777498Y-99442502D01*
%TO.N,/ADC_SUP*%
D36*
X106850000Y-100960000D02*
X105060000Y-99170000D01*
X106850000Y-106000000D02*
X106850000Y-100960000D01*
%TO.N,/NRST*%
X100250000Y-103750000D02*
X100400000Y-103900000D01*
X100600000Y-104800000D02*
X102075000Y-104800000D01*
X100400000Y-103900000D02*
X100400000Y-104600000D01*
X100400000Y-104600000D02*
X100600000Y-104800000D01*
X98175000Y-103750000D02*
X100250000Y-103750000D01*
X102075000Y-104800000D02*
X102100000Y-104775000D01*
X98087500Y-103662500D02*
X98175000Y-103750000D01*
%TO.N,/B_PW*%
X113050000Y-92950000D02*
X113200000Y-92950000D01*
X113350000Y-93100000D02*
X113350000Y-94275000D01*
X113200000Y-92950000D02*
X113350000Y-93100000D01*
%TO.N,/GPS_EN*%
X104450000Y-99050000D02*
X104450000Y-98535000D01*
X104450000Y-98535000D02*
X104415000Y-98500000D01*
%TO.N,/AUX_EN*%
X104500000Y-95850000D02*
X104500000Y-96350000D01*
%TO.N,/D-*%
D37*
X100500000Y-99910000D02*
X100500000Y-100550000D01*
X100300000Y-100750000D02*
X99705000Y-100750000D01*
X100340000Y-99750000D02*
X100500000Y-99910000D01*
X100500000Y-100550000D02*
X100300000Y-100750000D01*
X99705000Y-99750000D02*
X100340000Y-99750000D01*
%TO.N,/D+*%
X98940000Y-99380000D02*
X99070000Y-99250000D01*
X99705000Y-100250000D02*
X99070000Y-100250000D01*
X98840000Y-99480000D02*
X98940000Y-99380000D01*
X99070000Y-100250000D02*
X98840000Y-100020000D01*
X98840000Y-100020000D02*
X98840000Y-99480000D01*
X99070000Y-99250000D02*
X99705000Y-99250000D01*
%TO.N,/B1*%
D36*
X107399448Y-92868043D02*
X107457500Y-92926095D01*
X107399448Y-92850000D02*
X107399448Y-92868043D01*
X107457500Y-93007500D02*
X107650000Y-93200000D01*
X107457500Y-92926095D02*
X107457500Y-93007500D01*
X107650000Y-93200000D02*
X107650000Y-94275000D01*
%TO.N,Net-(IC5-~{CHRG})*%
X100550000Y-106950000D02*
X99800000Y-106950000D01*
X99315000Y-107435000D02*
X99200000Y-107435000D01*
X99800000Y-106950000D02*
X99315000Y-107435000D01*
%TO.N,vusb*%
D37*
X99100000Y-102400000D02*
X99250000Y-102550000D01*
X99250000Y-102550000D02*
X99705000Y-102550000D01*
%TO.N,Net-(LEDBLUE1-A)*%
D36*
X97250000Y-107435000D02*
X97250000Y-108050000D01*
%TO.N,3.3V_GPS*%
D35*
X115450000Y-97150000D02*
X115300000Y-97300000D01*
X115450000Y-97107500D02*
X115450000Y-97150000D01*
X115300000Y-97300000D02*
X105485000Y-97300000D01*
X115450000Y-97107500D02*
X115450000Y-96350000D01*
X105485000Y-97300000D02*
X105200000Y-97015000D01*
%TO.N,Net-(J1-CLK)*%
D36*
X102477500Y-101400000D02*
X103700000Y-101400000D01*
%TO.N,Net-(PA1010D1-TX)*%
X109350000Y-106050000D02*
X109350000Y-105000000D01*
%TO.N,Net-(LEDGREEN1-A)*%
X98250000Y-107435000D02*
X98250000Y-108050000D01*
%TO.N,Net-(PA1010D1-RX)*%
X107750000Y-104975000D02*
X107775000Y-104950000D01*
X107750000Y-106050000D02*
X107750000Y-104975000D01*
%TO.N,Net-(J3-CC1)*%
X101542500Y-100700000D02*
X101692500Y-100700000D01*
X99705000Y-101250000D02*
X100720000Y-101250000D01*
X100720000Y-101250000D02*
X101280000Y-100690000D01*
X101532500Y-100690000D02*
X101542500Y-100700000D01*
X101280000Y-100690000D02*
X101532500Y-100690000D01*
%TO.N,Net-(J3-CC2)*%
X101042500Y-98230000D02*
X99725000Y-98230000D01*
X99725000Y-98230000D02*
X99705000Y-98250000D01*
%TD*%
%TA.AperFunction,Conductor*%
%TO.N,GND*%
G36*
X103460077Y-98057519D02*
G01*
X103485411Y-98064306D01*
X103485425Y-98064311D01*
X103488203Y-98065055D01*
X103488206Y-98065057D01*
X103490860Y-98065768D01*
X103491593Y-98066330D01*
X103493060Y-98066811D01*
X103493078Y-98066818D01*
X103492882Y-98067320D01*
X103499565Y-98072448D01*
X103500700Y-98070293D01*
X103533757Y-98087689D01*
X103551621Y-98100848D01*
X103574154Y-98123382D01*
X103585910Y-98138703D01*
X103601840Y-98166296D01*
X103609231Y-98184139D01*
X103617478Y-98214916D01*
X103620000Y-98234069D01*
X103620000Y-98265931D01*
X103617479Y-98285079D01*
X103611981Y-98305597D01*
X103609233Y-98315853D01*
X103601841Y-98333698D01*
X103585908Y-98361295D01*
X103574148Y-98376621D01*
X103551621Y-98399148D01*
X103536295Y-98410908D01*
X103508698Y-98426841D01*
X103490853Y-98434233D01*
X103480597Y-98436981D01*
X103460082Y-98442478D01*
X103440931Y-98445000D01*
X103409069Y-98445000D01*
X103389917Y-98442478D01*
X103365494Y-98435934D01*
X103359143Y-98434232D01*
X103341299Y-98426841D01*
X103334319Y-98422811D01*
X103313702Y-98410908D01*
X103298379Y-98399150D01*
X103275844Y-98376615D01*
X103264084Y-98361289D01*
X103258138Y-98350990D01*
X103248158Y-98333704D01*
X103240767Y-98315858D01*
X103232521Y-98285079D01*
X103230000Y-98265929D01*
X103230000Y-98234069D01*
X103232521Y-98214919D01*
X103238716Y-98191795D01*
X103240769Y-98184133D01*
X103248157Y-98166293D01*
X103264088Y-98138700D01*
X103275841Y-98123383D01*
X103298382Y-98100842D01*
X103313703Y-98089087D01*
X103341292Y-98073159D01*
X103359131Y-98065769D01*
X103369840Y-98062899D01*
X103369844Y-98062899D01*
X103389917Y-98057521D01*
X103409068Y-98055000D01*
X103440933Y-98055000D01*
X103460077Y-98057519D01*
G37*
%TD.AperFunction*%
%TA.AperFunction,Conductor*%
G36*
X107651214Y-91721674D02*
G01*
X107672888Y-91774000D01*
X107651214Y-91826326D01*
X107616837Y-91845790D01*
X107383631Y-91904091D01*
X107199999Y-91950000D01*
X107000000Y-92299998D01*
X107000000Y-92299999D01*
X107000000Y-92300000D01*
X107100000Y-92950000D01*
X107101829Y-92961887D01*
X107124605Y-92975794D01*
X107128890Y-92982381D01*
X107133034Y-92989557D01*
X107133036Y-92989565D01*
X107133038Y-92989564D01*
X107158988Y-93034511D01*
X107214937Y-93090460D01*
X107283459Y-93130021D01*
X107283468Y-93130023D01*
X107286498Y-93131279D01*
X107326551Y-93171324D01*
X107326556Y-93227961D01*
X107319549Y-93241008D01*
X107318295Y-93242868D01*
X107270005Y-93305937D01*
X107264250Y-93314250D01*
X107263077Y-93316131D01*
X107257980Y-93331819D01*
X107255331Y-93335786D01*
X107255330Y-93335788D01*
X107255189Y-93336496D01*
X107255188Y-93336498D01*
X107254029Y-93342329D01*
X107251832Y-93350749D01*
X107247359Y-93364520D01*
X107246728Y-93373449D01*
X107246728Y-93373455D01*
X107248915Y-93390737D01*
X107249500Y-93400025D01*
X107249500Y-95184901D01*
X107255328Y-95214209D01*
X107255330Y-95214213D01*
X107255330Y-95214214D01*
X107255331Y-95214215D01*
X107277540Y-95247454D01*
X107277542Y-95247456D01*
X107277543Y-95247457D01*
X107310787Y-95269669D01*
X107340101Y-95275500D01*
X107959898Y-95275499D01*
X107959901Y-95275499D01*
X107971398Y-95273211D01*
X107989213Y-95269669D01*
X107989214Y-95269668D01*
X107989215Y-95269668D01*
X108018608Y-95250028D01*
X108022887Y-95247542D01*
X108026575Y-95244705D01*
X108036860Y-95237833D01*
X108038165Y-95224586D01*
X108041886Y-95218377D01*
X108044669Y-95214213D01*
X108050500Y-95184899D01*
X108050499Y-93365102D01*
X108050498Y-93365099D01*
X108399500Y-93365099D01*
X108399500Y-95184901D01*
X108405328Y-95214209D01*
X108405330Y-95214213D01*
X108405330Y-95214214D01*
X108405331Y-95214215D01*
X108427540Y-95247454D01*
X108427542Y-95247456D01*
X108427543Y-95247457D01*
X108460787Y-95269669D01*
X108490101Y-95275500D01*
X109259898Y-95275499D01*
X109259901Y-95275499D01*
X109271398Y-95273211D01*
X109289213Y-95269669D01*
X109289214Y-95269668D01*
X109289215Y-95269668D01*
X109318608Y-95250028D01*
X109322887Y-95247542D01*
X109326575Y-95244705D01*
X109336860Y-95237833D01*
X109338165Y-95224586D01*
X109341886Y-95218377D01*
X109344669Y-95214213D01*
X109349529Y-95189778D01*
X111600001Y-95189778D01*
X111604160Y-95210689D01*
X111608701Y-95233524D01*
X111641851Y-95283138D01*
X111641854Y-95283142D01*
X111641855Y-95283143D01*
X111641856Y-95283144D01*
X111691472Y-95316296D01*
X111735226Y-95324999D01*
X111975000Y-95324999D01*
X112275000Y-95324999D01*
X112514779Y-95324999D01*
X112558524Y-95316298D01*
X112608143Y-95283144D01*
X112608144Y-95283143D01*
X112641296Y-95233527D01*
X112650000Y-95189773D01*
X112650000Y-94425000D01*
X112275000Y-94425000D01*
X112275000Y-95324999D01*
X111975000Y-95324999D01*
X111975000Y-94425000D01*
X111600001Y-94425000D01*
X111600001Y-95189778D01*
X109349529Y-95189778D01*
X109350500Y-95184899D01*
X109350499Y-93879598D01*
X109356132Y-93851281D01*
X109359763Y-93842514D01*
X109360443Y-93840872D01*
X109400485Y-93800827D01*
X109401291Y-93800493D01*
X109448762Y-93797382D01*
X109452089Y-93798273D01*
X109469929Y-93805663D01*
X109572164Y-93864688D01*
X109701133Y-93899244D01*
X109704831Y-93900500D01*
X109844185Y-93900500D01*
X109854448Y-93900500D01*
X109863336Y-93895367D01*
X109977836Y-93864688D01*
X110097665Y-93795505D01*
X110195505Y-93697665D01*
X110264688Y-93577836D01*
X110295367Y-93463336D01*
X110300500Y-93454447D01*
X110300500Y-93308255D01*
X110300500Y-93305815D01*
X110300499Y-93305814D01*
X110699500Y-93305814D01*
X110699500Y-93444185D01*
X110735310Y-93577831D01*
X110735312Y-93577836D01*
X110804495Y-93697665D01*
X110902335Y-93795505D01*
X111022164Y-93864688D01*
X111151133Y-93899244D01*
X111154831Y-93900500D01*
X111294185Y-93900500D01*
X111304448Y-93900500D01*
X111313336Y-93895367D01*
X111427836Y-93864688D01*
X111476254Y-93836732D01*
X111503592Y-93827452D01*
X111514763Y-93825981D01*
X111569461Y-93840634D01*
X111570148Y-93841161D01*
X111596585Y-93880717D01*
X111597477Y-93884045D01*
X111600000Y-93903203D01*
X111600000Y-94125000D01*
X111975000Y-94125000D01*
X112275000Y-94125000D01*
X112649999Y-94125000D01*
X112649999Y-93360221D01*
X112641298Y-93316475D01*
X112608144Y-93266856D01*
X112608143Y-93266855D01*
X112604748Y-93264586D01*
X112558526Y-93233702D01*
X112514773Y-93225000D01*
X112275000Y-93225000D01*
X112275000Y-94125000D01*
X111975000Y-94125000D01*
X111975000Y-93225000D01*
X111800346Y-93225000D01*
X111772028Y-93219367D01*
X111756509Y-93212939D01*
X111720741Y-93181570D01*
X111717636Y-93176191D01*
X111717635Y-93176191D01*
X111704119Y-93152778D01*
X111702933Y-93151804D01*
X111645505Y-93052335D01*
X111547665Y-92954495D01*
X111427836Y-92885312D01*
X111427831Y-92885310D01*
X111294185Y-92849500D01*
X111294184Y-92849500D01*
X111155816Y-92849500D01*
X111155815Y-92849500D01*
X111022168Y-92885310D01*
X111022166Y-92885310D01*
X111022165Y-92885311D01*
X110902333Y-92954495D01*
X110804495Y-93052333D01*
X110735311Y-93172164D01*
X110734260Y-93176088D01*
X110699500Y-93305814D01*
X110300499Y-93305814D01*
X110277412Y-93219653D01*
X110264688Y-93172164D01*
X110195505Y-93052335D01*
X110097665Y-92954495D01*
X109977836Y-92885312D01*
X109977831Y-92885310D01*
X109844185Y-92849500D01*
X109844184Y-92849500D01*
X109705816Y-92849500D01*
X109705815Y-92849500D01*
X109572168Y-92885310D01*
X109572166Y-92885310D01*
X109572165Y-92885311D01*
X109452333Y-92954495D01*
X109354495Y-93052333D01*
X109285307Y-93172171D01*
X109285301Y-93172183D01*
X109285276Y-93172232D01*
X109285021Y-93173249D01*
X109276395Y-93205438D01*
X109263626Y-93231330D01*
X109253402Y-93244655D01*
X109213856Y-93271084D01*
X109210529Y-93271976D01*
X109191366Y-93274500D01*
X108490097Y-93274500D01*
X108460789Y-93280328D01*
X108460785Y-93280330D01*
X108427542Y-93302542D01*
X108427541Y-93302543D01*
X108427540Y-93302545D01*
X108405332Y-93335782D01*
X108405330Y-93335787D01*
X108405329Y-93335790D01*
X108399500Y-93365099D01*
X108050498Y-93365099D01*
X108045944Y-93342198D01*
X108045799Y-93341378D01*
X108045894Y-93340947D01*
X108045731Y-93339294D01*
X108045728Y-93339283D01*
X108045351Y-93337779D01*
X108045090Y-93337015D01*
X108044715Y-93335856D01*
X108044669Y-93335787D01*
X108044668Y-93335785D01*
X108044668Y-93335784D01*
X108022459Y-93302545D01*
X108022458Y-93302544D01*
X108022457Y-93302543D01*
X108002056Y-93288912D01*
X107981640Y-93268496D01*
X107976618Y-93260981D01*
X107965570Y-93205433D01*
X107995037Y-93159725D01*
X107997692Y-93157821D01*
X108000825Y-93155576D01*
X108024778Y-93144245D01*
X108077865Y-93130021D01*
X108146387Y-93090460D01*
X108202336Y-93034511D01*
X108241897Y-92965989D01*
X108262375Y-92889564D01*
X108262376Y-92889564D01*
X108262376Y-92810436D01*
X108262375Y-92810435D01*
X108257477Y-92792158D01*
X108255099Y-92768395D01*
X108287785Y-92245432D01*
X112699500Y-92245432D01*
X112699500Y-92324566D01*
X112719976Y-92400983D01*
X112719976Y-92400984D01*
X112719977Y-92400987D01*
X112719979Y-92400992D01*
X112740085Y-92435814D01*
X112750000Y-92472815D01*
X112750000Y-92901787D01*
X112749500Y-92909424D01*
X112749500Y-92989566D01*
X112769976Y-93065983D01*
X112769976Y-93065984D01*
X112769977Y-93065987D01*
X112769977Y-93065988D01*
X112783587Y-93089560D01*
X112785929Y-93093616D01*
X112809540Y-93134511D01*
X112843808Y-93168779D01*
X112846845Y-93172774D01*
X112847717Y-93176088D01*
X112855556Y-93187502D01*
X112943122Y-93384525D01*
X112949500Y-93414578D01*
X112949500Y-95184901D01*
X112955328Y-95214209D01*
X112955330Y-95214213D01*
X112955330Y-95214214D01*
X112955331Y-95214215D01*
X112977540Y-95247454D01*
X112977542Y-95247456D01*
X112977543Y-95247457D01*
X113010787Y-95269669D01*
X113040101Y-95275500D01*
X113659898Y-95275499D01*
X113659901Y-95275499D01*
X113671398Y-95273211D01*
X113689213Y-95269669D01*
X113689214Y-95269668D01*
X113689215Y-95269668D01*
X113718608Y-95250028D01*
X113722887Y-95247542D01*
X113726575Y-95244705D01*
X113736860Y-95237833D01*
X113738165Y-95224586D01*
X113741886Y-95218377D01*
X113744669Y-95214213D01*
X113749529Y-95189778D01*
X114050001Y-95189778D01*
X114054160Y-95210689D01*
X114058701Y-95233524D01*
X114091851Y-95283138D01*
X114091854Y-95283142D01*
X114091855Y-95283143D01*
X114091856Y-95283144D01*
X114141472Y-95316296D01*
X114185226Y-95324999D01*
X114425000Y-95324999D01*
X114725000Y-95324999D01*
X114964779Y-95324999D01*
X115008524Y-95316298D01*
X115058143Y-95283144D01*
X115058144Y-95283143D01*
X115091296Y-95233527D01*
X115100000Y-95189773D01*
X115100000Y-94425000D01*
X114725000Y-94425000D01*
X114725000Y-95324999D01*
X114425000Y-95324999D01*
X114425000Y-94425000D01*
X114050001Y-94425000D01*
X114050001Y-95189778D01*
X113749529Y-95189778D01*
X113750500Y-95184899D01*
X113750499Y-94215990D01*
X113750499Y-93381850D01*
X113752607Y-93364315D01*
X113753604Y-93360226D01*
X114050000Y-93360226D01*
X114050000Y-94125000D01*
X114425000Y-94125000D01*
X114425000Y-93225000D01*
X114725000Y-93225000D01*
X114725000Y-94125000D01*
X115099999Y-94125000D01*
X115099999Y-93908178D01*
X115105628Y-93879869D01*
X115109942Y-93869454D01*
X115149981Y-93829408D01*
X115150820Y-93829060D01*
X115198255Y-93825959D01*
X115201590Y-93826852D01*
X115219434Y-93834244D01*
X115272164Y-93864688D01*
X115401133Y-93899244D01*
X115404831Y-93900500D01*
X115544185Y-93900500D01*
X115554448Y-93900500D01*
X115563336Y-93895367D01*
X115677836Y-93864688D01*
X115797665Y-93795505D01*
X115895505Y-93697665D01*
X115964688Y-93577836D01*
X115995367Y-93463336D01*
X116000500Y-93454447D01*
X116000500Y-93304832D01*
X115999247Y-93301141D01*
X115977412Y-93219653D01*
X115964688Y-93172164D01*
X115895505Y-93052335D01*
X115797665Y-92954495D01*
X115677836Y-92885312D01*
X115677831Y-92885310D01*
X115544185Y-92849500D01*
X115544184Y-92849500D01*
X115405816Y-92849500D01*
X115405815Y-92849500D01*
X115272168Y-92885310D01*
X115272166Y-92885310D01*
X115272165Y-92885311D01*
X115152333Y-92954495D01*
X115054495Y-93052333D01*
X114990770Y-93162708D01*
X114985384Y-93170766D01*
X114966653Y-93195168D01*
X114927114Y-93221586D01*
X114923794Y-93222476D01*
X114904633Y-93225000D01*
X114725000Y-93225000D01*
X114425000Y-93225000D01*
X114185234Y-93225000D01*
X114185230Y-93225000D01*
X114163429Y-93229335D01*
X114141474Y-93233702D01*
X114091855Y-93266855D01*
X114091854Y-93266856D01*
X114058702Y-93316472D01*
X114051885Y-93350749D01*
X114050000Y-93360226D01*
X113753604Y-93360226D01*
X113758766Y-93339064D01*
X113758767Y-93339056D01*
X113798793Y-93174947D01*
X114000000Y-92350000D01*
X113999998Y-92349998D01*
X114000712Y-92347075D01*
X114000897Y-92346744D01*
X114000500Y-92343368D01*
X114000500Y-92251952D01*
X113999249Y-92248269D01*
X113998494Y-92245455D01*
X113998495Y-92245446D01*
X113998489Y-92245435D01*
X113987276Y-92203588D01*
X113980022Y-92176514D01*
X113980020Y-92176509D01*
X113940459Y-92107988D01*
X113884511Y-92052040D01*
X113884508Y-92052038D01*
X113884507Y-92052037D01*
X113815988Y-92012477D01*
X113815984Y-92012476D01*
X113739566Y-91992000D01*
X113739564Y-91992000D01*
X113739562Y-91992000D01*
X113660438Y-91992000D01*
X113660436Y-91992000D01*
X113639988Y-91997479D01*
X113620836Y-92000000D01*
X113107155Y-92000000D01*
X113088003Y-91997479D01*
X113039564Y-91984500D01*
X113039562Y-91984500D01*
X112960438Y-91984500D01*
X112960436Y-91984500D01*
X112960434Y-91984500D01*
X112884018Y-92004975D01*
X112884009Y-92004978D01*
X112815491Y-92044537D01*
X112759537Y-92100491D01*
X112719977Y-92169010D01*
X112719977Y-92169011D01*
X112719976Y-92169014D01*
X112719976Y-92169015D01*
X112699500Y-92245432D01*
X108287785Y-92245432D01*
X108295583Y-92120658D01*
X108300500Y-92109765D01*
X108300500Y-92009452D01*
X108299245Y-92005758D01*
X108280022Y-91934014D01*
X108280021Y-91934011D01*
X108280021Y-91934010D01*
X108240461Y-91865491D01*
X108240460Y-91865490D01*
X108240459Y-91865488D01*
X108201295Y-91826324D01*
X108179622Y-91774000D01*
X108201296Y-91721674D01*
X108253622Y-91700000D01*
X110270315Y-91700000D01*
X110275391Y-91700500D01*
X110280118Y-91700500D01*
X110359882Y-91700500D01*
X116360781Y-91700500D01*
X116389091Y-91706129D01*
X116399503Y-91710442D01*
X116439553Y-91750485D01*
X116439556Y-91750492D01*
X116443867Y-91760900D01*
X116449500Y-91789218D01*
X116449500Y-108210781D01*
X116443867Y-108239099D01*
X116439556Y-108249507D01*
X116399508Y-108289555D01*
X116399507Y-108289556D01*
X116389099Y-108293867D01*
X116360781Y-108299500D01*
X110275391Y-108299500D01*
X110270315Y-108300000D01*
X106050000Y-108300000D01*
X105650000Y-108300000D01*
X105186668Y-108300000D01*
X104650000Y-108300000D01*
X100369685Y-108300000D01*
X100364609Y-108299500D01*
X100359882Y-108299500D01*
X98774000Y-108299500D01*
X98721674Y-108277826D01*
X98700000Y-108225500D01*
X98700000Y-107991897D01*
X98721674Y-107939571D01*
X98735923Y-107928445D01*
X98900542Y-107829673D01*
X98953051Y-107820550D01*
X99003072Y-107830500D01*
X99003074Y-107830500D01*
X99396926Y-107830500D01*
X99396928Y-107830500D01*
X99469265Y-107816111D01*
X99551298Y-107761298D01*
X99606111Y-107679265D01*
X99608019Y-107669669D01*
X99639482Y-107622578D01*
X99652668Y-107615578D01*
X99665299Y-107610432D01*
X102849500Y-107610432D01*
X102849500Y-107689566D01*
X102869976Y-107765983D01*
X102869976Y-107765984D01*
X102869977Y-107765987D01*
X102869979Y-107765992D01*
X102880672Y-107784511D01*
X102892640Y-107805239D01*
X102909540Y-107834511D01*
X102965489Y-107890460D01*
X103034011Y-107930021D01*
X103034012Y-107930021D01*
X103034014Y-107930022D01*
X103072224Y-107940260D01*
X103105748Y-107949243D01*
X103109451Y-107950500D01*
X103189564Y-107950500D01*
X103199827Y-107950500D01*
X103208715Y-107945367D01*
X103265989Y-107930021D01*
X103334511Y-107890460D01*
X103390460Y-107834511D01*
X103430021Y-107765989D01*
X103450499Y-107689564D01*
X103450500Y-107689564D01*
X103450500Y-107610436D01*
X103450499Y-107610435D01*
X103430022Y-107534014D01*
X103430021Y-107534011D01*
X103430021Y-107534010D01*
X103404783Y-107490298D01*
X103401155Y-107484014D01*
X103390460Y-107465489D01*
X103334511Y-107409540D01*
X103295701Y-107387133D01*
X103294709Y-107386560D01*
X103294686Y-107386546D01*
X103265988Y-107369978D01*
X103265987Y-107369977D01*
X103265984Y-107369976D01*
X103230365Y-107360432D01*
X105499500Y-107360432D01*
X105499500Y-107439566D01*
X105519976Y-107515983D01*
X105519976Y-107515984D01*
X105519977Y-107515987D01*
X105519977Y-107515988D01*
X105559538Y-107584508D01*
X105559540Y-107584511D01*
X105615486Y-107640458D01*
X105661682Y-107667130D01*
X105665649Y-107669420D01*
X105682701Y-107679265D01*
X105684011Y-107680021D01*
X105684012Y-107680021D01*
X105684014Y-107680022D01*
X105719618Y-107689562D01*
X105755758Y-107699245D01*
X105759453Y-107700500D01*
X105839564Y-107700500D01*
X105849827Y-107700500D01*
X105858715Y-107695367D01*
X105915989Y-107680021D01*
X105984511Y-107640460D01*
X106040460Y-107584511D01*
X106053554Y-107561829D01*
X106072592Y-107540121D01*
X106081533Y-107533260D01*
X106136227Y-107518604D01*
X106137088Y-107518717D01*
X106179762Y-107539759D01*
X106182196Y-107542193D01*
X106193956Y-107557519D01*
X106195638Y-107560432D01*
X106209540Y-107584511D01*
X106265489Y-107640460D01*
X106302206Y-107661659D01*
X106311682Y-107667130D01*
X106315649Y-107669420D01*
X106332701Y-107679265D01*
X106334011Y-107680021D01*
X106334012Y-107680021D01*
X106334014Y-107680022D01*
X106369618Y-107689562D01*
X106405758Y-107699245D01*
X106409453Y-107700500D01*
X106489564Y-107700500D01*
X106499827Y-107700500D01*
X106508715Y-107695367D01*
X106565989Y-107680021D01*
X106634511Y-107640460D01*
X106690460Y-107584511D01*
X106704362Y-107560432D01*
X114392000Y-107560432D01*
X114392000Y-107639566D01*
X114412476Y-107715983D01*
X114412476Y-107715984D01*
X114412477Y-107715987D01*
X114412477Y-107715988D01*
X114438634Y-107761292D01*
X114438637Y-107761296D01*
X114452040Y-107784511D01*
X114507989Y-107840460D01*
X114576511Y-107880021D01*
X114576512Y-107880021D01*
X114576514Y-107880022D01*
X114614724Y-107890260D01*
X114648248Y-107899243D01*
X114651951Y-107900500D01*
X114732064Y-107900500D01*
X114742327Y-107900500D01*
X114751215Y-107895367D01*
X114808489Y-107880021D01*
X114877011Y-107840460D01*
X114932960Y-107784511D01*
X114972521Y-107715989D01*
X114992999Y-107639564D01*
X114993000Y-107639564D01*
X114993000Y-107560436D01*
X114992999Y-107560435D01*
X114992998Y-107560432D01*
X115207000Y-107560432D01*
X115207000Y-107639566D01*
X115227476Y-107715983D01*
X115227476Y-107715984D01*
X115227477Y-107715987D01*
X115227477Y-107715988D01*
X115253634Y-107761292D01*
X115253637Y-107761296D01*
X115267040Y-107784511D01*
X115322989Y-107840460D01*
X115391511Y-107880021D01*
X115391512Y-107880021D01*
X115391514Y-107880022D01*
X115429724Y-107890260D01*
X115463248Y-107899243D01*
X115466951Y-107900500D01*
X115547064Y-107900500D01*
X115557327Y-107900500D01*
X115566215Y-107895367D01*
X115623489Y-107880021D01*
X115692011Y-107840460D01*
X115747960Y-107784511D01*
X115787521Y-107715989D01*
X115807999Y-107639564D01*
X115808000Y-107639564D01*
X115808000Y-107560436D01*
X115807999Y-107560435D01*
X115800919Y-107534014D01*
X115787521Y-107484011D01*
X115747960Y-107415489D01*
X115692011Y-107359540D01*
X115674621Y-107349500D01*
X115623490Y-107319979D01*
X115623487Y-107319977D01*
X115623484Y-107319976D01*
X115547066Y-107299500D01*
X115547064Y-107299500D01*
X115547062Y-107299500D01*
X115467938Y-107299500D01*
X115467936Y-107299500D01*
X115467934Y-107299500D01*
X115391518Y-107319975D01*
X115391509Y-107319978D01*
X115322991Y-107359537D01*
X115267037Y-107415491D01*
X115227477Y-107484010D01*
X115227477Y-107484011D01*
X115227476Y-107484014D01*
X115207000Y-107560432D01*
X114992998Y-107560432D01*
X114992635Y-107559080D01*
X114992673Y-107558488D01*
X114991742Y-107555744D01*
X114985919Y-107534014D01*
X114972521Y-107484011D01*
X114932960Y-107415489D01*
X114877011Y-107359540D01*
X114859621Y-107349500D01*
X114808490Y-107319979D01*
X114808487Y-107319977D01*
X114808484Y-107319976D01*
X114732066Y-107299500D01*
X114732064Y-107299500D01*
X114732062Y-107299500D01*
X114652938Y-107299500D01*
X114652936Y-107299500D01*
X114652934Y-107299500D01*
X114576518Y-107319975D01*
X114576509Y-107319978D01*
X114507991Y-107359537D01*
X114452037Y-107415491D01*
X114412477Y-107484010D01*
X114412477Y-107484011D01*
X114412476Y-107484014D01*
X114392000Y-107560432D01*
X106704362Y-107560432D01*
X106719616Y-107534011D01*
X106724411Y-107525706D01*
X106724410Y-107525706D01*
X106728521Y-107518588D01*
X106730020Y-107515990D01*
X106730021Y-107515989D01*
X106745756Y-107457263D01*
X106746201Y-107455838D01*
X106748893Y-107452608D01*
X106750500Y-107449826D01*
X106750500Y-107359452D01*
X106749245Y-107355758D01*
X106730022Y-107284014D01*
X106730020Y-107284009D01*
X106714891Y-107257804D01*
X106710914Y-107250915D01*
X106710914Y-107250916D01*
X106690462Y-107215492D01*
X106690461Y-107215491D01*
X106690460Y-107215489D01*
X106634511Y-107159540D01*
X106634508Y-107159538D01*
X106634507Y-107159537D01*
X106565988Y-107119977D01*
X106565984Y-107119976D01*
X106489566Y-107099500D01*
X106489564Y-107099500D01*
X106489562Y-107099500D01*
X106410438Y-107099500D01*
X106410436Y-107099500D01*
X106410434Y-107099500D01*
X106334018Y-107119975D01*
X106334009Y-107119978D01*
X106265490Y-107159538D01*
X106265487Y-107159540D01*
X106209541Y-107215485D01*
X106209541Y-107215486D01*
X106196445Y-107238169D01*
X106177405Y-107259879D01*
X106168468Y-107266736D01*
X106113771Y-107281394D01*
X106112912Y-107281281D01*
X106070237Y-107260239D01*
X106067802Y-107257804D01*
X106056043Y-107242479D01*
X106050017Y-107232042D01*
X106044498Y-107222485D01*
X106040460Y-107215489D01*
X106040457Y-107215486D01*
X106040456Y-107215484D01*
X105984511Y-107159540D01*
X105984508Y-107159538D01*
X105915988Y-107119977D01*
X105915984Y-107119976D01*
X105839566Y-107099500D01*
X105839564Y-107099500D01*
X105839562Y-107099500D01*
X105760438Y-107099500D01*
X105760436Y-107099500D01*
X105760434Y-107099500D01*
X105684018Y-107119975D01*
X105684009Y-107119978D01*
X105615491Y-107159537D01*
X105559537Y-107215491D01*
X105519977Y-107284010D01*
X105519977Y-107284011D01*
X105519976Y-107284014D01*
X105519976Y-107284015D01*
X105499500Y-107360432D01*
X103230365Y-107360432D01*
X103189566Y-107349500D01*
X103189564Y-107349500D01*
X103189562Y-107349500D01*
X103110438Y-107349500D01*
X103110436Y-107349500D01*
X103110434Y-107349500D01*
X103034018Y-107369975D01*
X103034009Y-107369978D01*
X102965491Y-107409537D01*
X102909537Y-107465491D01*
X102869977Y-107534010D01*
X102869977Y-107534011D01*
X102869976Y-107534014D01*
X102849500Y-107610432D01*
X99665299Y-107610432D01*
X100535349Y-107255968D01*
X100554561Y-107251014D01*
X100558898Y-107250500D01*
X100589564Y-107250500D01*
X100589564Y-107250499D01*
X100665989Y-107230021D01*
X100734511Y-107190460D01*
X100790460Y-107134511D01*
X100830021Y-107065989D01*
X100850499Y-106989564D01*
X100850500Y-106989564D01*
X100850500Y-106910436D01*
X100850299Y-106909688D01*
X100850653Y-106904202D01*
X100851404Y-106902672D01*
X100853507Y-106888076D01*
X100861637Y-106860435D01*
X100861638Y-106860432D01*
X102849500Y-106860432D01*
X102849500Y-106939566D01*
X102869976Y-107015983D01*
X102869976Y-107015984D01*
X102869977Y-107015987D01*
X102869977Y-107015988D01*
X102891847Y-107053866D01*
X102909538Y-107084508D01*
X102909540Y-107084511D01*
X102965486Y-107140458D01*
X102965488Y-107140459D01*
X102965489Y-107140460D01*
X103034011Y-107180021D01*
X103034012Y-107180021D01*
X103034014Y-107180022D01*
X103072224Y-107190260D01*
X103105748Y-107199243D01*
X103109451Y-107200500D01*
X103189564Y-107200500D01*
X103199827Y-107200500D01*
X103208715Y-107195367D01*
X103265989Y-107180021D01*
X103334511Y-107140460D01*
X103390460Y-107084511D01*
X103430021Y-107015989D01*
X103450499Y-106939564D01*
X103450500Y-106939564D01*
X103450500Y-106860436D01*
X103450499Y-106860435D01*
X103443419Y-106834014D01*
X103430021Y-106784011D01*
X103390460Y-106715489D01*
X103334511Y-106659540D01*
X103295346Y-106636928D01*
X103295345Y-106636926D01*
X103265988Y-106619978D01*
X103265987Y-106619977D01*
X103265984Y-106619976D01*
X103265983Y-106619976D01*
X103189566Y-106599500D01*
X103189564Y-106599500D01*
X103189562Y-106599500D01*
X103110438Y-106599500D01*
X103110436Y-106599500D01*
X103110434Y-106599500D01*
X103034018Y-106619975D01*
X103034009Y-106619978D01*
X102965491Y-106659537D01*
X102909537Y-106715491D01*
X102869977Y-106784010D01*
X102869977Y-106784011D01*
X102869976Y-106784014D01*
X102869976Y-106784015D01*
X102849500Y-106860432D01*
X100861638Y-106860432D01*
X101089014Y-106087351D01*
X101124571Y-106043269D01*
X101140847Y-106036757D01*
X101165989Y-106030021D01*
X101234511Y-105990460D01*
X101290460Y-105934511D01*
X101330021Y-105865989D01*
X101350499Y-105789564D01*
X101350500Y-105789564D01*
X101350500Y-105710436D01*
X101350499Y-105710435D01*
X101330022Y-105634014D01*
X101330021Y-105634011D01*
X101330021Y-105634010D01*
X101307435Y-105594891D01*
X101290458Y-105565486D01*
X101234511Y-105509540D01*
X101234508Y-105509538D01*
X101165988Y-105469977D01*
X101165984Y-105469976D01*
X101165983Y-105469976D01*
X101122915Y-105458435D01*
X101122850Y-105458418D01*
X101100000Y-105452296D01*
X101100000Y-105450000D01*
X101091430Y-105450000D01*
X101089564Y-105449500D01*
X101089562Y-105449500D01*
X101087115Y-105449500D01*
X101009414Y-105449500D01*
X101001787Y-105450000D01*
X100498213Y-105450000D01*
X100490586Y-105449500D01*
X100489564Y-105449500D01*
X100489562Y-105449500D01*
X100410438Y-105449500D01*
X100410436Y-105449500D01*
X100410434Y-105449500D01*
X100334018Y-105469975D01*
X100334009Y-105469978D01*
X100265491Y-105509537D01*
X100209537Y-105565491D01*
X100169977Y-105634010D01*
X100169977Y-105634011D01*
X100169976Y-105634014D01*
X100169976Y-105634015D01*
X100149500Y-105710432D01*
X100149500Y-105726000D01*
X100127826Y-105778326D01*
X100075500Y-105800000D01*
X99051994Y-105800000D01*
X99023677Y-105794368D01*
X99011924Y-105789500D01*
X99011923Y-105789500D01*
X97821201Y-105789500D01*
X97768875Y-105767826D01*
X97753579Y-105745554D01*
X97496659Y-105167484D01*
X97492804Y-105118280D01*
X97495367Y-105108714D01*
X97500500Y-105099825D01*
X97500500Y-103665399D01*
X97767401Y-103665399D01*
X97785294Y-103691118D01*
X97786367Y-103697257D01*
X97787000Y-103702066D01*
X97807476Y-103778483D01*
X97807476Y-103778484D01*
X97807477Y-103778487D01*
X97807480Y-103778492D01*
X97814389Y-103790459D01*
X97814390Y-103790460D01*
X97847038Y-103847008D01*
X97847040Y-103847011D01*
X97902986Y-103902958D01*
X97902988Y-103902959D01*
X97902989Y-103902960D01*
X97971511Y-103942521D01*
X97971512Y-103942521D01*
X97971514Y-103942522D01*
X97980042Y-103944807D01*
X97980044Y-103944807D01*
X97980050Y-103944812D01*
X97980072Y-103944815D01*
X98043258Y-103961745D01*
X98046953Y-103963000D01*
X98127064Y-103963000D01*
X98135037Y-103963000D01*
X98140024Y-103959821D01*
X98143073Y-103958709D01*
X98203489Y-103942521D01*
X98225318Y-103929917D01*
X98233351Y-103925279D01*
X98251186Y-103917893D01*
X98257757Y-103916133D01*
X98269373Y-103913021D01*
X98288523Y-103910500D01*
X100138148Y-103910500D01*
X100166465Y-103916132D01*
X100176802Y-103920414D01*
X100185807Y-103924144D01*
X100225854Y-103964189D01*
X100233866Y-103983533D01*
X100239500Y-104011851D01*
X100239500Y-104609474D01*
X100235568Y-104622435D01*
X100255261Y-104669977D01*
X100263934Y-104690915D01*
X100263935Y-104690916D01*
X100509084Y-104936065D01*
X100568075Y-104960500D01*
X100631925Y-104960500D01*
X101011785Y-104960500D01*
X101053848Y-104973617D01*
X101090858Y-104999188D01*
X101261321Y-105116963D01*
X101285044Y-105133353D01*
X101292666Y-105138151D01*
X101294393Y-105139138D01*
X101294395Y-105139138D01*
X101294396Y-105139139D01*
X101300387Y-105140865D01*
X101300388Y-105140865D01*
X101308661Y-105143248D01*
X101310787Y-105144669D01*
X101319846Y-105146470D01*
X101342335Y-105152950D01*
X101351282Y-105153324D01*
X101360750Y-105151847D01*
X101363738Y-105151382D01*
X101375137Y-105150499D01*
X102859901Y-105150499D01*
X102871398Y-105148211D01*
X102889213Y-105144669D01*
X102889214Y-105144668D01*
X102889215Y-105144668D01*
X102918608Y-105125028D01*
X102922887Y-105122542D01*
X102926575Y-105119705D01*
X102936860Y-105112833D01*
X102938165Y-105099586D01*
X102941886Y-105093377D01*
X102944669Y-105089213D01*
X102950500Y-105059899D01*
X102950499Y-104490102D01*
X102950499Y-104490098D01*
X102946091Y-104467936D01*
X102944668Y-104460784D01*
X102940620Y-104454726D01*
X102922459Y-104427545D01*
X102922456Y-104427542D01*
X102889213Y-104405331D01*
X102889211Y-104405330D01*
X102889206Y-104405329D01*
X102889203Y-104405328D01*
X102871559Y-104401819D01*
X102859899Y-104399500D01*
X101340097Y-104399500D01*
X101310789Y-104405328D01*
X101310785Y-104405330D01*
X101277542Y-104427542D01*
X101277541Y-104427543D01*
X101277541Y-104427544D01*
X101264150Y-104447585D01*
X101249076Y-104464074D01*
X101051892Y-104623101D01*
X101005437Y-104639500D01*
X100711852Y-104639500D01*
X100683534Y-104633867D01*
X100658405Y-104623458D01*
X100634399Y-104607418D01*
X100592581Y-104565600D01*
X100576541Y-104541594D01*
X100566131Y-104516462D01*
X100560500Y-104488148D01*
X100560500Y-103868075D01*
X100536065Y-103809084D01*
X100536064Y-103809083D01*
X100461492Y-103734511D01*
X100340915Y-103613934D01*
X100340913Y-103613933D01*
X100340910Y-103613931D01*
X100306360Y-103599620D01*
X100306359Y-103599620D01*
X100281925Y-103589500D01*
X98449492Y-103589500D01*
X98421174Y-103583867D01*
X98403184Y-103576415D01*
X98369976Y-103549163D01*
X98364526Y-103541007D01*
X98361968Y-103536893D01*
X98346693Y-103510436D01*
X98327959Y-103477988D01*
X98272011Y-103422040D01*
X98218305Y-103391033D01*
X98215761Y-103389564D01*
X98203490Y-103382479D01*
X98203486Y-103382478D01*
X98196293Y-103380550D01*
X98196290Y-103380549D01*
X98192705Y-103379589D01*
X98192698Y-103379586D01*
X98192698Y-103379587D01*
X98183288Y-103377065D01*
X98183280Y-103377062D01*
X98183279Y-103377062D01*
X98127066Y-103362000D01*
X98127064Y-103362000D01*
X98127062Y-103362000D01*
X98047938Y-103362000D01*
X98047936Y-103362000D01*
X98047934Y-103362000D01*
X97971518Y-103382475D01*
X97971509Y-103382478D01*
X97902991Y-103422037D01*
X97847037Y-103477991D01*
X97807477Y-103546510D01*
X97807477Y-103546511D01*
X97807476Y-103546514D01*
X97807476Y-103546515D01*
X97787000Y-103622932D01*
X97786367Y-103627742D01*
X97774448Y-103648386D01*
X97767401Y-103665399D01*
X97500500Y-103665399D01*
X97500500Y-103310432D01*
X101457000Y-103310432D01*
X101457000Y-103389566D01*
X101477476Y-103465983D01*
X101477476Y-103465984D01*
X101477477Y-103465987D01*
X101477477Y-103465988D01*
X101517038Y-103534508D01*
X101517040Y-103534511D01*
X101572986Y-103590458D01*
X101572988Y-103590459D01*
X101572989Y-103590460D01*
X101641511Y-103630021D01*
X101641512Y-103630021D01*
X101641514Y-103630022D01*
X101679724Y-103640260D01*
X101713248Y-103649243D01*
X101716951Y-103650500D01*
X101797064Y-103650500D01*
X101807327Y-103650500D01*
X101816215Y-103645367D01*
X101873489Y-103630021D01*
X101942011Y-103590460D01*
X101997960Y-103534511D01*
X102037521Y-103465989D01*
X102057999Y-103389564D01*
X102058000Y-103389564D01*
X102058000Y-103310436D01*
X102057999Y-103310435D01*
X102037522Y-103234014D01*
X102037520Y-103234009D01*
X102031665Y-103223869D01*
X102023670Y-103210019D01*
X102023670Y-103210020D01*
X101997960Y-103165489D01*
X101997959Y-103165488D01*
X101997958Y-103165486D01*
X101942011Y-103109540D01*
X101942008Y-103109538D01*
X101873488Y-103069977D01*
X101873484Y-103069976D01*
X101797066Y-103049500D01*
X101797064Y-103049500D01*
X101797062Y-103049500D01*
X101717938Y-103049500D01*
X101717936Y-103049500D01*
X101717934Y-103049500D01*
X101641518Y-103069975D01*
X101641509Y-103069978D01*
X101572991Y-103109537D01*
X101517037Y-103165491D01*
X101477477Y-103234010D01*
X101477477Y-103234011D01*
X101477476Y-103234014D01*
X101477476Y-103234015D01*
X101457000Y-103310432D01*
X97500500Y-103310432D01*
X97500500Y-103119218D01*
X97506129Y-103090909D01*
X97510443Y-103080494D01*
X97550482Y-103040448D01*
X97560911Y-103036128D01*
X97589219Y-103030500D01*
X98819827Y-103030500D01*
X98828715Y-103025367D01*
X98885989Y-103010021D01*
X98954511Y-102970460D01*
X99010460Y-102914511D01*
X99092391Y-102832577D01*
X99116394Y-102816540D01*
X99132330Y-102809939D01*
X99141526Y-102806131D01*
X99169842Y-102800499D01*
X100289901Y-102800499D01*
X100301398Y-102798211D01*
X100319213Y-102794669D01*
X100319214Y-102794668D01*
X100319215Y-102794668D01*
X100348608Y-102775028D01*
X100352887Y-102772542D01*
X100356575Y-102769705D01*
X100366860Y-102762833D01*
X100368165Y-102749586D01*
X100371886Y-102743377D01*
X100374669Y-102739213D01*
X100380500Y-102709899D01*
X100380499Y-102686553D01*
X100402171Y-102634228D01*
X100436004Y-102614901D01*
X100647071Y-102560432D01*
X102357000Y-102560432D01*
X102357000Y-102639566D01*
X102377476Y-102715983D01*
X102377476Y-102715984D01*
X102377477Y-102715987D01*
X102377477Y-102715988D01*
X102410080Y-102772456D01*
X102410081Y-102772457D01*
X102417040Y-102784511D01*
X102472986Y-102840458D01*
X102472988Y-102840459D01*
X102472989Y-102840460D01*
X102541511Y-102880021D01*
X102541512Y-102880021D01*
X102541514Y-102880022D01*
X102579724Y-102890260D01*
X102613248Y-102899243D01*
X102616951Y-102900500D01*
X102697064Y-102900500D01*
X102707327Y-102900500D01*
X102716215Y-102895367D01*
X102773489Y-102880021D01*
X102842011Y-102840460D01*
X102897960Y-102784511D01*
X102937521Y-102715989D01*
X102957999Y-102639564D01*
X102958000Y-102639564D01*
X102958000Y-102560436D01*
X102957999Y-102560435D01*
X102937522Y-102484014D01*
X102937521Y-102484011D01*
X102937521Y-102484010D01*
X102897961Y-102415491D01*
X102897960Y-102415490D01*
X102897959Y-102415488D01*
X102842011Y-102359540D01*
X102842008Y-102359538D01*
X102842007Y-102359537D01*
X102773488Y-102319977D01*
X102773484Y-102319976D01*
X102773483Y-102319976D01*
X102697066Y-102299500D01*
X102697064Y-102299500D01*
X102697062Y-102299500D01*
X102617938Y-102299500D01*
X102617936Y-102299500D01*
X102617934Y-102299500D01*
X102541518Y-102319975D01*
X102541509Y-102319978D01*
X102472991Y-102359537D01*
X102417037Y-102415491D01*
X102377477Y-102484010D01*
X102377477Y-102484011D01*
X102377476Y-102484014D01*
X102377476Y-102484015D01*
X102357000Y-102560432D01*
X100647071Y-102560432D01*
X101840905Y-102252346D01*
X101859396Y-102250000D01*
X102099999Y-102250000D01*
X102100000Y-102250000D01*
X102179352Y-102194453D01*
X102202630Y-102183600D01*
X102215989Y-102180021D01*
X102284511Y-102140460D01*
X102340460Y-102084511D01*
X102340460Y-102084510D01*
X102343892Y-102081079D01*
X102344364Y-102081551D01*
X102354495Y-102071852D01*
X102389813Y-102047130D01*
X103043006Y-101589896D01*
X103065890Y-101573877D01*
X103108326Y-101560500D01*
X103390159Y-101560500D01*
X103418477Y-101566133D01*
X103443602Y-101576540D01*
X103467610Y-101592582D01*
X103515562Y-101640535D01*
X103515749Y-101640674D01*
X103517381Y-101641552D01*
X103522570Y-101644548D01*
X103522575Y-101644554D01*
X103522577Y-101644552D01*
X103583108Y-101679500D01*
X103584011Y-101680021D01*
X103584012Y-101680021D01*
X103584014Y-101680022D01*
X103617020Y-101688866D01*
X103628862Y-101692039D01*
X103655749Y-101699244D01*
X103659449Y-101700500D01*
X103739564Y-101700500D01*
X103749827Y-101700500D01*
X103758715Y-101695367D01*
X103815989Y-101680021D01*
X103884511Y-101640460D01*
X103940460Y-101584511D01*
X103980021Y-101515989D01*
X104000499Y-101439564D01*
X104000500Y-101439564D01*
X104000500Y-101360436D01*
X104000499Y-101360435D01*
X103980022Y-101284014D01*
X103980020Y-101284009D01*
X103959092Y-101247760D01*
X103954346Y-101239539D01*
X103940463Y-101215494D01*
X103940459Y-101215488D01*
X103884513Y-101159541D01*
X103881762Y-101157953D01*
X103877425Y-101155449D01*
X103822870Y-101123951D01*
X103815987Y-101119977D01*
X103815984Y-101119976D01*
X103739566Y-101099500D01*
X103739564Y-101099500D01*
X103739562Y-101099500D01*
X103660438Y-101099500D01*
X103660436Y-101099500D01*
X103660434Y-101099500D01*
X103584018Y-101119975D01*
X103584009Y-101119978D01*
X103515485Y-101159540D01*
X103515483Y-101159542D01*
X103467610Y-101207417D01*
X103443606Y-101223457D01*
X103418477Y-101233866D01*
X103390160Y-101239500D01*
X103067112Y-101239500D01*
X103049164Y-101237290D01*
X102890878Y-101197718D01*
X102847298Y-101167041D01*
X102842287Y-101159542D01*
X102839552Y-101155448D01*
X102836879Y-101153662D01*
X102817343Y-101140608D01*
X102810106Y-101135772D01*
X102796774Y-101115815D01*
X102757106Y-101107925D01*
X102743989Y-101105316D01*
X102743988Y-101105315D01*
X102714748Y-101099500D01*
X102507112Y-101099500D01*
X102489164Y-101097291D01*
X102156175Y-101014043D01*
X102110668Y-100980325D01*
X102100123Y-100942095D01*
X102100170Y-100919974D01*
X102100258Y-100878358D01*
X102101679Y-100864092D01*
X102110500Y-100819748D01*
X102110500Y-100580252D01*
X102102430Y-100539684D01*
X102101009Y-100525103D01*
X102101167Y-100451386D01*
X102101165Y-100451385D01*
X102101166Y-100451385D01*
X102101167Y-100451385D01*
X102070663Y-100451320D01*
X102029710Y-100438848D01*
X102025111Y-100435775D01*
X102011775Y-100415816D01*
X101988232Y-100411133D01*
X101988233Y-100411133D01*
X101958989Y-100405316D01*
X101958988Y-100405315D01*
X101929748Y-100399500D01*
X101455252Y-100399500D01*
X101447539Y-100401034D01*
X101391991Y-100389981D01*
X101380781Y-100380781D01*
X101271674Y-100271674D01*
X101250000Y-100219348D01*
X101250000Y-98645734D01*
X101271674Y-98593408D01*
X101290901Y-98579549D01*
X101450000Y-98500000D01*
X101450000Y-98409822D01*
X101451422Y-98395385D01*
X101460500Y-98349748D01*
X101460500Y-98110252D01*
X101451422Y-98064613D01*
X101450000Y-98050177D01*
X101450000Y-97950000D01*
X101390097Y-97950000D01*
X101375660Y-97948578D01*
X101338232Y-97941133D01*
X101338233Y-97941133D01*
X101308989Y-97935316D01*
X101308988Y-97935315D01*
X101279748Y-97929500D01*
X100875937Y-97929500D01*
X100823611Y-97907826D01*
X100814365Y-97896548D01*
X100685792Y-97703689D01*
X100350000Y-97200000D01*
X100349999Y-97200000D01*
X100298352Y-97200000D01*
X100292305Y-97199978D01*
X100289899Y-97199500D01*
X100289897Y-97199500D01*
X100157410Y-97199500D01*
X100157289Y-97199449D01*
X100138521Y-97196979D01*
X100120336Y-97192106D01*
X100102492Y-97184714D01*
X100094488Y-97180093D01*
X100094485Y-97180091D01*
X100050992Y-97154979D01*
X100050987Y-97154977D01*
X100050984Y-97154976D01*
X99974566Y-97134500D01*
X99974564Y-97134500D01*
X99974562Y-97134500D01*
X98295438Y-97134500D01*
X98295436Y-97134500D01*
X98295434Y-97134500D01*
X98219018Y-97154975D01*
X98219006Y-97154979D01*
X98168729Y-97184009D01*
X98168726Y-97184011D01*
X98150491Y-97194537D01*
X98150486Y-97194541D01*
X97409537Y-97935491D01*
X97369977Y-98004010D01*
X97369977Y-98004011D01*
X97369976Y-98004014D01*
X97369976Y-98004015D01*
X97349500Y-98080432D01*
X97349500Y-100980158D01*
X97343867Y-101008474D01*
X97333459Y-101033604D01*
X97317418Y-101057610D01*
X97099537Y-101275491D01*
X97059977Y-101344010D01*
X97059977Y-101344011D01*
X97059976Y-101344014D01*
X97059976Y-101344015D01*
X97039500Y-101420432D01*
X97039500Y-102590158D01*
X97033866Y-102618479D01*
X97023457Y-102643606D01*
X97007417Y-102667611D01*
X96959538Y-102715489D01*
X96919977Y-102784010D01*
X96919977Y-102784012D01*
X96899500Y-102860432D01*
X96899500Y-103538402D01*
X96877826Y-103590728D01*
X96863573Y-103601856D01*
X96200000Y-103999999D01*
X96200000Y-104000000D01*
X96200000Y-104158576D01*
X96199502Y-104160435D01*
X96199502Y-104239564D01*
X96200000Y-104241422D01*
X96200000Y-105250001D01*
X96325431Y-105365783D01*
X96343605Y-105391838D01*
X96360054Y-105431548D01*
X96363934Y-105440915D01*
X96363935Y-105440916D01*
X97009084Y-106086065D01*
X97068075Y-106110500D01*
X97131925Y-106110500D01*
X98576000Y-106110500D01*
X98628326Y-106132174D01*
X98650000Y-106184500D01*
X98650000Y-106727593D01*
X98637572Y-106768641D01*
X98478967Y-107006548D01*
X98431908Y-107038063D01*
X98417395Y-107039500D01*
X98053073Y-107039500D01*
X98053072Y-107039500D01*
X98048316Y-107040446D01*
X98019645Y-107046148D01*
X98019646Y-107046149D01*
X98007435Y-107048578D01*
X97992998Y-107050000D01*
X97507002Y-107050000D01*
X97492565Y-107048578D01*
X97446928Y-107039500D01*
X97446926Y-107039500D01*
X97053073Y-107039500D01*
X97053072Y-107039500D01*
X97048316Y-107040446D01*
X97019645Y-107046148D01*
X97019646Y-107046149D01*
X96980734Y-107053889D01*
X96898706Y-107108698D01*
X96898698Y-107108706D01*
X96843889Y-107190734D01*
X96838965Y-107215488D01*
X96829500Y-107263072D01*
X96829500Y-107606926D01*
X96843888Y-107679262D01*
X96844366Y-107680415D01*
X96850000Y-107708737D01*
X96850000Y-108225500D01*
X96828326Y-108277826D01*
X96776000Y-108299500D01*
X94289219Y-108299500D01*
X94260904Y-108293868D01*
X94250495Y-108289557D01*
X94210446Y-108249513D01*
X94206129Y-108239091D01*
X94200500Y-108210781D01*
X94200500Y-103510432D01*
X95599500Y-103510432D01*
X95599500Y-103589566D01*
X95619976Y-103665983D01*
X95619976Y-103665984D01*
X95619977Y-103665985D01*
X95619979Y-103665990D01*
X95640807Y-103702064D01*
X95659540Y-103734511D01*
X95715489Y-103790460D01*
X95784011Y-103830021D01*
X95784012Y-103830021D01*
X95784014Y-103830022D01*
X95822224Y-103840260D01*
X95855748Y-103849243D01*
X95859451Y-103850500D01*
X95939564Y-103850500D01*
X95949827Y-103850500D01*
X95958715Y-103845367D01*
X96015989Y-103830021D01*
X96084511Y-103790460D01*
X96140460Y-103734511D01*
X96180021Y-103665989D01*
X96200499Y-103589564D01*
X96200500Y-103589564D01*
X96200500Y-103510436D01*
X96200499Y-103510435D01*
X96182629Y-103443744D01*
X96180022Y-103434013D01*
X96180020Y-103434009D01*
X96169420Y-103415649D01*
X96140460Y-103365489D01*
X96140458Y-103365487D01*
X96137507Y-103361640D01*
X96138141Y-103361153D01*
X96126164Y-103343227D01*
X96123114Y-103335863D01*
X96123116Y-103279228D01*
X96163160Y-103239182D01*
X96175160Y-103234212D01*
X96175159Y-103234211D01*
X96187991Y-103228896D01*
X96197143Y-103225789D01*
X96255989Y-103210021D01*
X96255992Y-103210019D01*
X96255993Y-103210019D01*
X96273398Y-103199970D01*
X96324511Y-103170460D01*
X96380460Y-103114511D01*
X96420021Y-103045989D01*
X96440499Y-102969564D01*
X96440500Y-102969564D01*
X96440500Y-102890436D01*
X96440499Y-102890435D01*
X96420022Y-102814014D01*
X96420020Y-102814009D01*
X96406515Y-102790618D01*
X96402702Y-102784013D01*
X96402701Y-102784012D01*
X96380460Y-102745489D01*
X96380458Y-102745486D01*
X96324511Y-102689540D01*
X96324508Y-102689538D01*
X96255988Y-102649977D01*
X96255984Y-102649976D01*
X96255983Y-102649976D01*
X96179566Y-102629500D01*
X96179564Y-102629500D01*
X96179562Y-102629500D01*
X96100438Y-102629500D01*
X96100436Y-102629500D01*
X96100434Y-102629500D01*
X96024018Y-102649975D01*
X96024009Y-102649978D01*
X95955491Y-102689537D01*
X95899537Y-102745491D01*
X95859977Y-102814010D01*
X95859977Y-102814011D01*
X95859976Y-102814014D01*
X95859976Y-102814015D01*
X95839500Y-102890432D01*
X95839500Y-102969566D01*
X95859976Y-103045983D01*
X95859976Y-103045984D01*
X95859977Y-103045988D01*
X95899538Y-103114508D01*
X95902488Y-103118352D01*
X95901853Y-103118839D01*
X95913833Y-103136767D01*
X95916883Y-103144129D01*
X95916885Y-103200765D01*
X95876839Y-103240816D01*
X95876834Y-103240818D01*
X95852000Y-103251104D01*
X95842837Y-103254214D01*
X95784013Y-103269976D01*
X95784011Y-103269977D01*
X95784010Y-103269977D01*
X95715491Y-103309537D01*
X95659537Y-103365491D01*
X95619977Y-103434010D01*
X95619977Y-103434011D01*
X95619976Y-103434014D01*
X95619976Y-103434015D01*
X95599500Y-103510432D01*
X94200500Y-103510432D01*
X94200500Y-103026341D01*
X94206131Y-102998027D01*
X94209181Y-102990663D01*
X94249228Y-102950616D01*
X94305863Y-102950614D01*
X94313227Y-102953664D01*
X94337233Y-102969704D01*
X94365489Y-102997960D01*
X94434011Y-103037521D01*
X94434012Y-103037521D01*
X94434014Y-103037522D01*
X94465598Y-103045985D01*
X94477909Y-103049283D01*
X94505749Y-103056744D01*
X94509449Y-103058000D01*
X94589564Y-103058000D01*
X94599827Y-103058000D01*
X94608715Y-103052867D01*
X94665989Y-103037521D01*
X94734511Y-102997960D01*
X94790460Y-102942011D01*
X94830021Y-102873489D01*
X94850499Y-102797064D01*
X94850500Y-102797064D01*
X94850500Y-102717936D01*
X94850499Y-102717935D01*
X94849976Y-102715985D01*
X94830021Y-102641511D01*
X94823086Y-102629500D01*
X94790459Y-102572988D01*
X94790458Y-102572987D01*
X94790457Y-102572985D01*
X94734511Y-102517040D01*
X94734508Y-102517038D01*
X94665988Y-102477477D01*
X94665984Y-102477476D01*
X94589566Y-102457000D01*
X94589564Y-102457000D01*
X94589562Y-102457000D01*
X94510438Y-102457000D01*
X94510436Y-102457000D01*
X94510434Y-102457000D01*
X94434018Y-102477475D01*
X94434009Y-102477478D01*
X94365489Y-102517038D01*
X94337233Y-102545295D01*
X94313224Y-102561337D01*
X94305865Y-102564385D01*
X94249228Y-102564383D01*
X94209181Y-102524335D01*
X94206131Y-102516972D01*
X94200500Y-102488658D01*
X94200500Y-101940432D01*
X94829500Y-101940432D01*
X94829500Y-102019566D01*
X94849976Y-102095983D01*
X94849976Y-102095984D01*
X94849977Y-102095987D01*
X94849977Y-102095988D01*
X94875654Y-102140460D01*
X94875654Y-102140461D01*
X94889536Y-102164505D01*
X94889540Y-102164511D01*
X94945486Y-102220458D01*
X95014011Y-102260021D01*
X95014013Y-102260021D01*
X95014014Y-102260022D01*
X95051327Y-102270020D01*
X95085758Y-102279245D01*
X95089453Y-102280500D01*
X95169564Y-102280500D01*
X95179827Y-102280500D01*
X95188715Y-102275367D01*
X95245989Y-102260021D01*
X95314511Y-102220460D01*
X95370460Y-102164511D01*
X95410021Y-102095989D01*
X95430499Y-102019564D01*
X95430500Y-102019564D01*
X95430500Y-101940436D01*
X95430499Y-101940435D01*
X95411652Y-101870099D01*
X95409131Y-101850953D01*
X95409131Y-101835879D01*
X95430799Y-101783560D01*
X95436050Y-101778309D01*
X95462086Y-101763284D01*
X95461504Y-101761879D01*
X95465986Y-101760022D01*
X95465986Y-101760021D01*
X95465989Y-101760021D01*
X95534511Y-101720460D01*
X95590460Y-101664511D01*
X95630021Y-101595989D01*
X95650499Y-101519564D01*
X95650500Y-101519564D01*
X95650500Y-101440436D01*
X95650499Y-101440435D01*
X95630022Y-101364014D01*
X95630021Y-101364011D01*
X95630021Y-101364010D01*
X95590460Y-101295490D01*
X95590458Y-101295487D01*
X95536341Y-101241369D01*
X95524583Y-101226047D01*
X95517679Y-101214089D01*
X95510284Y-101157953D01*
X95511138Y-101154764D01*
X95541756Y-101114845D01*
X95540659Y-101113415D01*
X95544502Y-101110465D01*
X95544511Y-101110460D01*
X95600460Y-101054511D01*
X95640021Y-100985989D01*
X95660499Y-100909564D01*
X95660500Y-100909564D01*
X95660500Y-100830436D01*
X95660499Y-100830435D01*
X95657635Y-100819748D01*
X95645106Y-100772988D01*
X95645105Y-100772986D01*
X95641984Y-100761337D01*
X95640022Y-100754014D01*
X95640020Y-100754009D01*
X95617510Y-100715021D01*
X95600460Y-100685489D01*
X95544511Y-100629540D01*
X95527140Y-100619511D01*
X95527139Y-100619509D01*
X95475988Y-100589977D01*
X95475984Y-100589976D01*
X95399566Y-100569500D01*
X95399564Y-100569500D01*
X95399562Y-100569500D01*
X95320438Y-100569500D01*
X95320436Y-100569500D01*
X95320434Y-100569500D01*
X95244018Y-100589975D01*
X95244009Y-100589978D01*
X95175491Y-100629537D01*
X95119537Y-100685491D01*
X95079977Y-100754010D01*
X95079977Y-100754011D01*
X95079976Y-100754014D01*
X95079976Y-100754015D01*
X95059500Y-100830432D01*
X95059500Y-100909566D01*
X95079976Y-100985983D01*
X95079976Y-100985984D01*
X95079978Y-100985990D01*
X95084834Y-100994399D01*
X95090843Y-101004807D01*
X95091144Y-101005327D01*
X95091144Y-101005328D01*
X95091146Y-101005331D01*
X95119540Y-101054511D01*
X95173655Y-101108626D01*
X95185414Y-101123951D01*
X95192317Y-101135907D01*
X95199711Y-101192060D01*
X95199709Y-101192067D01*
X95198855Y-101195253D01*
X95168238Y-101235150D01*
X95169339Y-101236585D01*
X95165483Y-101239543D01*
X95109540Y-101295487D01*
X95109538Y-101295490D01*
X95069977Y-101364010D01*
X95069977Y-101364011D01*
X95069976Y-101364014D01*
X95069976Y-101364015D01*
X95049500Y-101440432D01*
X95049500Y-101519563D01*
X95068345Y-101589896D01*
X95070866Y-101609048D01*
X95070866Y-101624119D01*
X95049192Y-101676445D01*
X95043834Y-101681803D01*
X95016366Y-101698767D01*
X95016393Y-101698821D01*
X95015987Y-101699017D01*
X95016046Y-101699164D01*
X95015133Y-101699529D01*
X95014866Y-101699694D01*
X95014008Y-101699979D01*
X94945491Y-101739537D01*
X94889537Y-101795491D01*
X94849977Y-101864010D01*
X94849977Y-101864011D01*
X94849976Y-101864014D01*
X94849976Y-101864015D01*
X94829500Y-101940432D01*
X94200500Y-101940432D01*
X94200500Y-101226341D01*
X94206131Y-101198027D01*
X94209181Y-101190663D01*
X94249228Y-101150616D01*
X94305863Y-101150614D01*
X94313227Y-101153664D01*
X94337233Y-101169704D01*
X94365489Y-101197960D01*
X94434011Y-101237521D01*
X94434012Y-101237521D01*
X94434014Y-101237522D01*
X94472224Y-101247760D01*
X94505748Y-101256743D01*
X94509451Y-101258000D01*
X94589564Y-101258000D01*
X94599827Y-101258000D01*
X94608715Y-101252867D01*
X94665989Y-101237521D01*
X94734511Y-101197960D01*
X94790460Y-101142011D01*
X94830021Y-101073489D01*
X94845367Y-101016215D01*
X94850500Y-101007326D01*
X94850500Y-100916950D01*
X94849243Y-100913247D01*
X94848255Y-100909560D01*
X94848255Y-100909559D01*
X94830022Y-100841515D01*
X94830021Y-100841511D01*
X94790460Y-100772989D01*
X94734511Y-100717040D01*
X94710846Y-100703377D01*
X94665990Y-100677479D01*
X94665987Y-100677477D01*
X94665984Y-100677476D01*
X94589566Y-100657000D01*
X94589564Y-100657000D01*
X94589562Y-100657000D01*
X94510438Y-100657000D01*
X94510436Y-100657000D01*
X94510434Y-100657000D01*
X94434018Y-100677475D01*
X94434009Y-100677478D01*
X94365489Y-100717038D01*
X94337233Y-100745295D01*
X94313224Y-100761337D01*
X94305865Y-100764385D01*
X94249228Y-100764383D01*
X94209181Y-100724335D01*
X94206131Y-100716972D01*
X94200500Y-100688658D01*
X94200500Y-98860432D01*
X94899500Y-98860432D01*
X94899500Y-98939566D01*
X94919976Y-99015983D01*
X94919976Y-99015984D01*
X94919977Y-99015987D01*
X94919977Y-99015988D01*
X94956949Y-99080023D01*
X94956950Y-99080025D01*
X94959537Y-99084507D01*
X94959539Y-99084510D01*
X94959540Y-99084511D01*
X95015489Y-99140460D01*
X95084011Y-99180021D01*
X95084012Y-99180021D01*
X95084014Y-99180022D01*
X95122224Y-99190260D01*
X95155748Y-99199243D01*
X95159451Y-99200500D01*
X95239564Y-99200500D01*
X95249827Y-99200500D01*
X95258715Y-99195367D01*
X95315989Y-99180021D01*
X95384511Y-99140460D01*
X95440460Y-99084511D01*
X95480021Y-99015989D01*
X95500499Y-98939564D01*
X95500500Y-98939564D01*
X95500500Y-98860436D01*
X95500499Y-98860435D01*
X95498778Y-98854014D01*
X95483147Y-98795677D01*
X95480022Y-98784014D01*
X95480020Y-98784009D01*
X95466634Y-98760824D01*
X95440460Y-98715489D01*
X95440459Y-98715488D01*
X95440458Y-98715486D01*
X95384511Y-98659540D01*
X95384508Y-98659538D01*
X95315988Y-98619977D01*
X95315984Y-98619976D01*
X95239566Y-98599500D01*
X95239564Y-98599500D01*
X95239562Y-98599500D01*
X95160438Y-98599500D01*
X95160436Y-98599500D01*
X95160434Y-98599500D01*
X95084018Y-98619975D01*
X95084009Y-98619978D01*
X95015491Y-98659537D01*
X94959537Y-98715491D01*
X94919977Y-98784010D01*
X94919977Y-98784011D01*
X94919976Y-98784014D01*
X94919976Y-98784015D01*
X94899500Y-98860432D01*
X94200500Y-98860432D01*
X94200500Y-97698995D01*
X94519500Y-97698995D01*
X94519500Y-97699000D01*
X94519500Y-97951000D01*
X94519928Y-97954977D01*
X94521911Y-97973428D01*
X94533116Y-98024937D01*
X94554077Y-98066811D01*
X94556474Y-98071599D01*
X94570416Y-98087689D01*
X94598908Y-98120571D01*
X94602229Y-98124403D01*
X94652237Y-98156541D01*
X94652239Y-98156541D01*
X94652240Y-98156542D01*
X94719271Y-98176225D01*
X94719273Y-98176225D01*
X94719276Y-98176226D01*
X94749000Y-98180500D01*
X95001000Y-98180500D01*
X95023427Y-98178089D01*
X95074938Y-98166883D01*
X95121599Y-98143526D01*
X95174403Y-98097771D01*
X95206541Y-98047763D01*
X95224839Y-97985448D01*
X95226225Y-97980728D01*
X95226225Y-97980726D01*
X95226226Y-97980724D01*
X95230500Y-97951000D01*
X95230500Y-97741821D01*
X95444500Y-97741821D01*
X95444500Y-97741829D01*
X95444500Y-97962668D01*
X95444501Y-97962686D01*
X95445104Y-97973941D01*
X95445104Y-97973945D01*
X95447936Y-98000296D01*
X95447938Y-98000312D01*
X95449740Y-98011432D01*
X95449747Y-98011468D01*
X95451386Y-98019004D01*
X95460143Y-98043821D01*
X95487622Y-98098693D01*
X95487627Y-98098702D01*
X95489948Y-98102173D01*
X95502247Y-98120571D01*
X95503434Y-98121940D01*
X95526118Y-98141587D01*
X95584864Y-98179330D01*
X95584866Y-98179331D01*
X95607904Y-98189851D01*
X95612162Y-98191795D01*
X95624182Y-98195325D01*
X95627157Y-98196199D01*
X95627159Y-98196199D01*
X95627161Y-98196200D01*
X95641871Y-98199401D01*
X95655847Y-98201411D01*
X95676788Y-98204423D01*
X95676801Y-98204424D01*
X95676812Y-98204426D01*
X95676820Y-98204426D01*
X95676824Y-98204427D01*
X95691822Y-98205500D01*
X95691830Y-98205500D01*
X95912652Y-98205500D01*
X95912668Y-98205500D01*
X95923953Y-98204895D01*
X95923962Y-98204894D01*
X95923967Y-98204894D01*
X95931925Y-98204037D01*
X95950324Y-98202058D01*
X95961457Y-98200253D01*
X95961458Y-98200253D01*
X95961459Y-98200252D01*
X95961476Y-98200250D01*
X95969034Y-98198605D01*
X95988339Y-98191791D01*
X95993836Y-98189851D01*
X95993837Y-98189850D01*
X95993841Y-98189849D01*
X96048702Y-98162373D01*
X96070571Y-98147752D01*
X96071940Y-98146565D01*
X96091585Y-98123883D01*
X96129328Y-98065140D01*
X96141794Y-98037842D01*
X96146199Y-98022844D01*
X96149401Y-98008131D01*
X96154391Y-97973428D01*
X96154422Y-97973215D01*
X96154422Y-97973213D01*
X96154426Y-97973187D01*
X96155177Y-97962686D01*
X96155500Y-97958177D01*
X96155500Y-97737342D01*
X96155499Y-97737320D01*
X96155205Y-97733500D01*
X96154258Y-97721189D01*
X96150866Y-97699281D01*
X96150865Y-97699281D01*
X96149838Y-97692653D01*
X96149840Y-97692653D01*
X96148453Y-97683694D01*
X96148449Y-97683680D01*
X96147152Y-97675297D01*
X96146116Y-97673731D01*
X96144756Y-97667933D01*
X96141924Y-97659006D01*
X96140251Y-97655664D01*
X96124766Y-97624738D01*
X96118988Y-97615609D01*
X96113997Y-97604688D01*
X96113994Y-97604683D01*
X96097759Y-97579438D01*
X96097755Y-97579433D01*
X96097752Y-97579428D01*
X96096565Y-97578059D01*
X96073880Y-97558412D01*
X96073879Y-97558411D01*
X96015129Y-97520667D01*
X95987830Y-97508201D01*
X95979481Y-97505750D01*
X95972830Y-97503797D01*
X95961752Y-97501387D01*
X95958116Y-97500596D01*
X95958119Y-97500596D01*
X95923183Y-97495573D01*
X95908178Y-97494500D01*
X95908170Y-97494500D01*
X95687332Y-97494500D01*
X95676072Y-97495103D01*
X95676040Y-97495105D01*
X95649694Y-97497937D01*
X95638562Y-97499742D01*
X95630994Y-97501387D01*
X95606186Y-97510141D01*
X95551307Y-97537621D01*
X95551291Y-97537630D01*
X95529441Y-97552237D01*
X95529426Y-97552248D01*
X95528058Y-97553434D01*
X95508411Y-97576119D01*
X95470667Y-97634869D01*
X95458201Y-97662168D01*
X95453796Y-97677173D01*
X95450596Y-97691880D01*
X95445573Y-97726815D01*
X95444500Y-97741821D01*
X95230500Y-97741821D01*
X95230500Y-97699000D01*
X95228089Y-97676573D01*
X95216883Y-97625062D01*
X95193526Y-97578401D01*
X95147771Y-97525597D01*
X95118015Y-97506474D01*
X95097765Y-97493460D01*
X95097759Y-97493457D01*
X95030728Y-97473774D01*
X95030720Y-97473773D01*
X95001004Y-97469500D01*
X95001000Y-97469500D01*
X94749000Y-97469500D01*
X94726571Y-97471911D01*
X94675062Y-97483116D01*
X94628400Y-97506474D01*
X94628398Y-97506476D01*
X94575597Y-97552228D01*
X94543460Y-97602234D01*
X94543457Y-97602240D01*
X94523774Y-97669271D01*
X94523773Y-97669279D01*
X94519500Y-97698995D01*
X94200500Y-97698995D01*
X94200500Y-95190432D01*
X96309500Y-95190432D01*
X96309500Y-95269566D01*
X96329976Y-95345983D01*
X96329976Y-95345984D01*
X96329977Y-95345987D01*
X96329977Y-95345988D01*
X96369538Y-95414508D01*
X96369540Y-95414511D01*
X96417295Y-95462267D01*
X96433336Y-95486274D01*
X96437647Y-95496682D01*
X96437647Y-95553318D01*
X96433336Y-95563726D01*
X96417294Y-95587735D01*
X96379538Y-95625489D01*
X96339977Y-95694010D01*
X96339977Y-95694011D01*
X96339976Y-95694014D01*
X96339976Y-95694015D01*
X96319500Y-95770432D01*
X96319500Y-95849566D01*
X96339976Y-95925983D01*
X96339976Y-95925984D01*
X96339977Y-95925987D01*
X96371308Y-95980253D01*
X96371308Y-95980254D01*
X96379536Y-95994506D01*
X96379540Y-95994511D01*
X96435486Y-96050458D01*
X96435488Y-96050459D01*
X96435489Y-96050460D01*
X96485649Y-96079420D01*
X96493708Y-96084073D01*
X96497767Y-96086416D01*
X96505817Y-96091795D01*
X96523851Y-96105633D01*
X96552168Y-96154667D01*
X96552281Y-96155524D01*
X96543004Y-96202194D01*
X96541282Y-96205177D01*
X96529521Y-96220505D01*
X96497040Y-96252987D01*
X96497038Y-96252990D01*
X96457477Y-96321510D01*
X96457477Y-96321511D01*
X96457476Y-96321514D01*
X96457476Y-96321515D01*
X96437000Y-96397932D01*
X96437000Y-96477066D01*
X96457476Y-96553483D01*
X96457476Y-96553484D01*
X96457477Y-96553487D01*
X96457477Y-96553488D01*
X96477403Y-96588000D01*
X96487708Y-96605848D01*
X96497040Y-96622011D01*
X96497042Y-96622014D01*
X96552986Y-96677958D01*
X96552988Y-96677959D01*
X96552989Y-96677960D01*
X96621511Y-96717521D01*
X96621512Y-96717521D01*
X96621514Y-96717522D01*
X96628034Y-96719269D01*
X96693258Y-96736745D01*
X96696953Y-96738000D01*
X96777064Y-96738000D01*
X96787327Y-96738000D01*
X96796215Y-96732867D01*
X96853489Y-96717521D01*
X96922011Y-96677960D01*
X96977960Y-96622011D01*
X97017521Y-96553489D01*
X97037999Y-96477064D01*
X97038000Y-96477064D01*
X97038000Y-96397936D01*
X97037999Y-96397935D01*
X97035755Y-96389562D01*
X97029744Y-96367130D01*
X97017522Y-96321515D01*
X97017522Y-96321514D01*
X97017521Y-96321511D01*
X96982257Y-96260432D01*
X100549500Y-96260432D01*
X100549500Y-96339566D01*
X100569976Y-96415983D01*
X100569976Y-96415984D01*
X100569977Y-96415987D01*
X100569977Y-96415988D01*
X100598844Y-96465985D01*
X100609540Y-96484511D01*
X100665489Y-96540460D01*
X100685842Y-96552211D01*
X100685865Y-96552224D01*
X100687139Y-96552960D01*
X100688171Y-96553556D01*
X100688172Y-96553557D01*
X100688191Y-96553568D01*
X100688203Y-96553584D01*
X100709877Y-96572592D01*
X100716734Y-96581528D01*
X100720551Y-96595770D01*
X100722654Y-96598513D01*
X100722202Y-96601932D01*
X100731394Y-96636228D01*
X100731281Y-96637087D01*
X100710239Y-96679762D01*
X100707804Y-96682197D01*
X100692479Y-96693956D01*
X100665488Y-96709539D01*
X100665485Y-96709541D01*
X100609540Y-96765487D01*
X100609538Y-96765490D01*
X100569977Y-96834010D01*
X100569977Y-96834011D01*
X100569976Y-96834014D01*
X100569976Y-96834015D01*
X100549500Y-96910432D01*
X100549500Y-96989566D01*
X100569976Y-97065983D01*
X100569976Y-97065984D01*
X100569977Y-97065987D01*
X100569979Y-97065992D01*
X100603758Y-97124495D01*
X100603759Y-97124500D01*
X100603761Y-97124500D01*
X100609533Y-97134500D01*
X100609540Y-97134511D01*
X100665489Y-97190460D01*
X100734011Y-97230021D01*
X100734012Y-97230021D01*
X100734014Y-97230022D01*
X100772224Y-97240260D01*
X100805748Y-97249243D01*
X100809451Y-97250500D01*
X100889564Y-97250500D01*
X100899827Y-97250500D01*
X100908715Y-97245367D01*
X100965989Y-97230021D01*
X101034511Y-97190460D01*
X101090460Y-97134511D01*
X101130021Y-97065989D01*
X101150499Y-96989564D01*
X101150500Y-96989564D01*
X101150500Y-96910436D01*
X101150499Y-96910435D01*
X101132629Y-96843744D01*
X101130022Y-96834013D01*
X101119419Y-96815648D01*
X101119419Y-96815647D01*
X101096383Y-96775748D01*
X101090460Y-96765489D01*
X101034511Y-96709540D01*
X101011827Y-96696443D01*
X100990120Y-96677406D01*
X100983260Y-96668466D01*
X100968604Y-96613771D01*
X100968717Y-96612910D01*
X100989758Y-96570238D01*
X100992198Y-96567798D01*
X101007517Y-96556044D01*
X101034511Y-96540460D01*
X101090460Y-96484511D01*
X101130021Y-96415989D01*
X101150499Y-96339564D01*
X101150500Y-96339564D01*
X101150500Y-96260436D01*
X101150499Y-96260435D01*
X101143419Y-96234014D01*
X101130021Y-96184011D01*
X101090460Y-96115489D01*
X101090459Y-96115488D01*
X101090458Y-96115486D01*
X101034511Y-96059540D01*
X101034508Y-96059538D01*
X100995951Y-96037277D01*
X100995951Y-96037276D01*
X100965990Y-96019979D01*
X100965985Y-96019976D01*
X100965983Y-96019976D01*
X100889566Y-95999500D01*
X100889564Y-95999500D01*
X100889562Y-95999500D01*
X100810438Y-95999500D01*
X100810436Y-95999500D01*
X100810434Y-95999500D01*
X100734018Y-96019975D01*
X100734009Y-96019978D01*
X100665491Y-96059537D01*
X100609537Y-96115491D01*
X100569977Y-96184010D01*
X100569977Y-96184011D01*
X100569976Y-96184014D01*
X100569976Y-96184015D01*
X100549500Y-96260432D01*
X96982257Y-96260432D01*
X96977960Y-96252989D01*
X96977959Y-96252988D01*
X96977958Y-96252986D01*
X96922011Y-96197040D01*
X96922008Y-96197038D01*
X96859692Y-96161060D01*
X96851633Y-96155674D01*
X96833636Y-96141859D01*
X96805327Y-96092805D01*
X96805208Y-96091901D01*
X96814504Y-96045282D01*
X96816224Y-96042303D01*
X96827975Y-96026995D01*
X96834995Y-96019975D01*
X96860460Y-95994511D01*
X96868693Y-95980252D01*
X96894385Y-95935751D01*
X96900021Y-95925989D01*
X96920499Y-95849564D01*
X96920500Y-95849564D01*
X96920500Y-95770436D01*
X96920499Y-95770435D01*
X96900022Y-95694014D01*
X96900021Y-95694012D01*
X96900021Y-95694011D01*
X96860460Y-95625489D01*
X96810726Y-95575755D01*
X96792213Y-95544826D01*
X96790158Y-95538020D01*
X96790154Y-95538011D01*
X96789756Y-95536692D01*
X96792230Y-95486976D01*
X96792759Y-95485697D01*
X96792762Y-95485693D01*
X96796665Y-95476269D01*
X96812703Y-95452267D01*
X96850460Y-95414511D01*
X96890021Y-95345989D01*
X96910499Y-95269564D01*
X96910500Y-95269564D01*
X96910500Y-95190436D01*
X96910499Y-95190435D01*
X96909461Y-95186563D01*
X96890021Y-95114011D01*
X96850460Y-95045489D01*
X96850459Y-95045488D01*
X96850458Y-95045486D01*
X96794511Y-94989540D01*
X96794508Y-94989538D01*
X96725988Y-94949977D01*
X96725984Y-94949976D01*
X96649566Y-94929500D01*
X96649564Y-94929500D01*
X96649562Y-94929500D01*
X96570438Y-94929500D01*
X96570436Y-94929500D01*
X96570434Y-94929500D01*
X96494018Y-94949975D01*
X96494009Y-94949978D01*
X96425491Y-94989537D01*
X96369537Y-95045491D01*
X96329977Y-95114010D01*
X96329977Y-95114011D01*
X96329976Y-95114014D01*
X96329976Y-95114015D01*
X96309500Y-95190432D01*
X94200500Y-95190432D01*
X94200500Y-92906384D01*
X95239500Y-92906384D01*
X95239500Y-93093615D01*
X95248183Y-93137268D01*
X95276022Y-93277230D01*
X95276027Y-93277253D01*
X95345172Y-93444183D01*
X95347677Y-93450231D01*
X95347678Y-93450232D01*
X95417336Y-93554482D01*
X95432937Y-93577831D01*
X95451693Y-93605902D01*
X95451695Y-93605904D01*
X95451698Y-93605908D01*
X95584092Y-93738302D01*
X95739769Y-93842322D01*
X95912749Y-93913973D01*
X96096384Y-93950500D01*
X96096385Y-93950500D01*
X96283614Y-93950500D01*
X96283615Y-93950500D01*
X96283616Y-93950500D01*
X96455943Y-93916222D01*
X96470331Y-93914801D01*
X96471297Y-93914800D01*
X96471298Y-93914801D01*
X96489985Y-93914790D01*
X96542322Y-93936435D01*
X96563866Y-93983937D01*
X96564272Y-93990114D01*
X96561910Y-94014119D01*
X96549500Y-94060435D01*
X96549500Y-94139566D01*
X96569976Y-94215983D01*
X96569976Y-94215984D01*
X96569977Y-94215987D01*
X96569977Y-94215988D01*
X96609538Y-94284508D01*
X96609540Y-94284511D01*
X96665486Y-94340458D01*
X96665488Y-94340459D01*
X96665489Y-94340460D01*
X96734011Y-94380021D01*
X96734012Y-94380021D01*
X96734014Y-94380022D01*
X96772224Y-94390260D01*
X96805748Y-94399243D01*
X96809451Y-94400500D01*
X96889564Y-94400500D01*
X96899827Y-94400500D01*
X96908715Y-94395367D01*
X96965989Y-94380021D01*
X97034511Y-94340460D01*
X97090460Y-94284511D01*
X97130021Y-94215989D01*
X97150499Y-94139564D01*
X97150500Y-94139564D01*
X97150500Y-94060436D01*
X97150499Y-94060435D01*
X97130022Y-93984014D01*
X97130021Y-93984011D01*
X97130021Y-93984010D01*
X97113156Y-93954800D01*
X97102553Y-93936435D01*
X97090460Y-93915489D01*
X97034511Y-93859540D01*
X97034510Y-93859539D01*
X97034507Y-93859537D01*
X97030104Y-93856995D01*
X97030084Y-93856984D01*
X97029176Y-93856460D01*
X96965990Y-93819979D01*
X96965986Y-93819978D01*
X96956999Y-93817570D01*
X96956996Y-93817568D01*
X96905455Y-93803757D01*
X96879562Y-93790988D01*
X96870624Y-93784130D01*
X96842305Y-93735083D01*
X96842187Y-93734188D01*
X96851469Y-93687567D01*
X96853195Y-93684577D01*
X96864947Y-93669261D01*
X96928302Y-93605908D01*
X97032322Y-93450231D01*
X97103973Y-93277251D01*
X97140500Y-93093616D01*
X97140500Y-92906384D01*
X97779500Y-92906384D01*
X97779500Y-93093615D01*
X97788183Y-93137268D01*
X97816022Y-93277230D01*
X97816027Y-93277253D01*
X97885172Y-93444183D01*
X97887677Y-93450231D01*
X97887678Y-93450232D01*
X97957336Y-93554482D01*
X97972937Y-93577831D01*
X97991693Y-93605902D01*
X97991695Y-93605904D01*
X97991698Y-93605908D01*
X98124092Y-93738302D01*
X98279769Y-93842322D01*
X98452749Y-93913973D01*
X98636384Y-93950500D01*
X98636385Y-93950500D01*
X98823615Y-93950500D01*
X98823616Y-93950500D01*
X99007251Y-93913973D01*
X99180231Y-93842322D01*
X99335908Y-93738302D01*
X99468302Y-93605908D01*
X99572322Y-93450231D01*
X99643973Y-93277251D01*
X99680500Y-93093616D01*
X99680500Y-92991829D01*
X100294500Y-92991829D01*
X100294500Y-93436751D01*
X100294687Y-93438169D01*
X100294687Y-93438175D01*
X100298117Y-93464137D01*
X100298121Y-93464153D01*
X100314846Y-93526347D01*
X100325453Y-93551857D01*
X100325457Y-93551865D01*
X100338382Y-93574156D01*
X100338395Y-93574177D01*
X100346824Y-93586581D01*
X100346836Y-93586597D01*
X100346843Y-93586607D01*
X100368711Y-93614310D01*
X100368717Y-93614317D01*
X100378853Y-93625427D01*
X100788003Y-94014119D01*
X101271467Y-94473410D01*
X101294476Y-94525162D01*
X101294500Y-94527059D01*
X101294500Y-94713498D01*
X101295088Y-94724630D01*
X101295089Y-94724639D01*
X101297851Y-94750663D01*
X101298006Y-94751630D01*
X101299613Y-94761675D01*
X101301172Y-94768938D01*
X101309786Y-94793624D01*
X101309788Y-94793629D01*
X101321671Y-94817613D01*
X101336871Y-94848293D01*
X101336879Y-94848307D01*
X101351298Y-94870110D01*
X101351304Y-94870118D01*
X101352596Y-94871625D01*
X101352597Y-94871626D01*
X101375184Y-94891414D01*
X101433757Y-94929507D01*
X101461004Y-94942129D01*
X101475978Y-94946614D01*
X101475994Y-94946617D01*
X101475999Y-94946619D01*
X101481235Y-94947787D01*
X101490671Y-94949894D01*
X101525581Y-94955106D01*
X101525602Y-94955107D01*
X101525605Y-94955108D01*
X101528944Y-94955364D01*
X101540589Y-94956260D01*
X101637771Y-94956784D01*
X101648568Y-94956843D01*
X101648569Y-94956843D01*
X101648576Y-94956843D01*
X101656144Y-94956298D01*
X101664802Y-94955676D01*
X101702522Y-94950013D01*
X101718382Y-94946362D01*
X101749730Y-94936547D01*
X101757879Y-94933340D01*
X101763726Y-94931041D01*
X101763731Y-94931038D01*
X101763735Y-94931037D01*
X101795571Y-94915807D01*
X101795604Y-94915788D01*
X101796401Y-94915372D01*
X101796701Y-94915266D01*
X101796764Y-94915236D01*
X101796767Y-94915242D01*
X101816298Y-94908349D01*
X101825995Y-94906421D01*
X101840426Y-94905000D01*
X102279576Y-94905000D01*
X102294003Y-94906420D01*
X102301852Y-94907981D01*
X102323838Y-94916143D01*
X102332029Y-94920774D01*
X102332035Y-94920778D01*
X102347718Y-94928161D01*
X102365346Y-94936461D01*
X102380015Y-94942075D01*
X102393257Y-94946041D01*
X102437165Y-94981816D01*
X102446026Y-95017330D01*
X102445248Y-95161272D01*
X102445805Y-95172689D01*
X102448566Y-95199370D01*
X102448570Y-95199405D01*
X102450358Y-95210678D01*
X102452050Y-95218554D01*
X102452050Y-95218556D01*
X102459997Y-95241218D01*
X102460000Y-95241225D01*
X102460803Y-95243514D01*
X102462340Y-95246594D01*
X102462512Y-95247457D01*
X102468633Y-95278232D01*
X102494068Y-95316296D01*
X102497208Y-95320996D01*
X102497210Y-95320999D01*
X102511741Y-95342746D01*
X102512948Y-95344552D01*
X102515838Y-95346483D01*
X102543273Y-95364815D01*
X102546795Y-95367168D01*
X102579267Y-95388866D01*
X102579268Y-95388866D01*
X102579269Y-95388867D01*
X102586414Y-95390288D01*
X102586415Y-95390289D01*
X102637752Y-95400500D01*
X102637754Y-95400500D01*
X102644893Y-95400500D01*
X102655427Y-95401254D01*
X102667512Y-95402992D01*
X102716220Y-95431894D01*
X102730224Y-95486772D01*
X102701322Y-95535480D01*
X102697616Y-95538081D01*
X102664323Y-95559958D01*
X102641827Y-95579854D01*
X102631703Y-95591782D01*
X102622822Y-95603901D01*
X102604033Y-95633800D01*
X102604030Y-95633806D01*
X102596955Y-95647084D01*
X102519567Y-95821205D01*
X102519561Y-95821221D01*
X102515621Y-95831501D01*
X102515615Y-95831518D01*
X102507632Y-95856129D01*
X102507628Y-95856145D01*
X102504789Y-95866755D01*
X102499498Y-95891685D01*
X102497776Y-95902578D01*
X102497606Y-95904203D01*
X102495771Y-95914546D01*
X102494146Y-95920998D01*
X102493633Y-95921767D01*
X102492793Y-95925990D01*
X102492430Y-95927810D01*
X102492428Y-95927822D01*
X102482000Y-95980252D01*
X102482000Y-96219747D01*
X102484838Y-96234015D01*
X102484838Y-96234016D01*
X102493078Y-96275443D01*
X102494500Y-96289879D01*
X102494500Y-97097827D01*
X102493078Y-97112263D01*
X102489500Y-97130252D01*
X102489500Y-97369748D01*
X102490953Y-97377052D01*
X102493078Y-97387734D01*
X102494500Y-97402172D01*
X102494500Y-99611981D01*
X102495037Y-99622583D01*
X102495038Y-99622598D01*
X102497568Y-99647524D01*
X102499185Y-99658093D01*
X102499188Y-99658107D01*
X102504146Y-99682260D01*
X102504151Y-99682280D01*
X102506824Y-99692618D01*
X102514310Y-99716506D01*
X102514315Y-99716521D01*
X102518016Y-99726529D01*
X102614320Y-99951235D01*
X102621872Y-99965662D01*
X102621888Y-99965690D01*
X102642122Y-99997999D01*
X102642138Y-99998024D01*
X102651825Y-100011123D01*
X102651829Y-100011128D01*
X102651841Y-100011143D01*
X102661155Y-100021890D01*
X102661162Y-100021897D01*
X102683852Y-100041557D01*
X102742618Y-100079323D01*
X102769927Y-100091795D01*
X102774926Y-100093263D01*
X102784918Y-100096198D01*
X102784922Y-100096198D01*
X102784926Y-100096200D01*
X102799636Y-100099401D01*
X102813612Y-100101411D01*
X102834553Y-100104423D01*
X102834566Y-100104424D01*
X102834577Y-100104426D01*
X102834585Y-100104426D01*
X102834589Y-100104427D01*
X102849587Y-100105500D01*
X102849595Y-100105500D01*
X103588156Y-100105500D01*
X103588157Y-100105500D01*
X103614250Y-100102222D01*
X103673680Y-100087052D01*
X103698151Y-100077423D01*
X103721239Y-100064815D01*
X103733900Y-100056678D01*
X103762151Y-100035529D01*
X103773526Y-100025673D01*
X104027525Y-99771674D01*
X104079851Y-99750000D01*
X105382367Y-99750000D01*
X105434693Y-99771674D01*
X106657418Y-100994399D01*
X106673457Y-101018402D01*
X106683868Y-101043536D01*
X106689500Y-101071851D01*
X106689500Y-105690158D01*
X106683866Y-105718479D01*
X106673457Y-105743606D01*
X106657417Y-105767611D01*
X106609538Y-105815489D01*
X106569977Y-105884010D01*
X106569977Y-105884011D01*
X106569976Y-105884014D01*
X106569976Y-105884015D01*
X106549500Y-105960431D01*
X106549500Y-106039566D01*
X106569976Y-106115983D01*
X106569976Y-106115984D01*
X106569977Y-106115987D01*
X106569977Y-106115988D01*
X106607948Y-106181754D01*
X106607947Y-106181754D01*
X106607951Y-106181759D01*
X106609537Y-106184507D01*
X106609540Y-106184511D01*
X106665489Y-106240460D01*
X106734011Y-106280021D01*
X106734012Y-106280021D01*
X106734014Y-106280022D01*
X106769618Y-106289562D01*
X106805758Y-106299245D01*
X106809453Y-106300500D01*
X106810436Y-106300500D01*
X106810438Y-106300500D01*
X106819848Y-106300500D01*
X106872174Y-106322174D01*
X107299999Y-106749999D01*
X107300000Y-106750000D01*
X107300000Y-106749998D01*
X107302441Y-106749453D01*
X107333022Y-106749092D01*
X107340101Y-106750500D01*
X108159898Y-106750499D01*
X108159901Y-106750499D01*
X108171398Y-106748211D01*
X108189213Y-106744669D01*
X108189214Y-106744668D01*
X108189215Y-106744668D01*
X108218608Y-106725028D01*
X108222887Y-106722542D01*
X108226575Y-106719705D01*
X108236860Y-106712833D01*
X108238165Y-106699586D01*
X108241886Y-106693377D01*
X108244669Y-106689213D01*
X108250500Y-106659899D01*
X108250499Y-105440102D01*
X108250259Y-105438898D01*
X108849275Y-105438898D01*
X108849275Y-105438900D01*
X108849459Y-105444441D01*
X108849500Y-105446896D01*
X108849500Y-106659901D01*
X108855328Y-106689209D01*
X108855330Y-106689213D01*
X108855330Y-106689214D01*
X108855331Y-106689215D01*
X108877540Y-106722454D01*
X108877542Y-106722456D01*
X108877543Y-106722457D01*
X108910787Y-106744669D01*
X108940101Y-106750500D01*
X109759898Y-106750499D01*
X109759901Y-106750499D01*
X109771398Y-106748211D01*
X109789213Y-106744669D01*
X109789214Y-106744668D01*
X109789215Y-106744668D01*
X109818608Y-106725028D01*
X109822887Y-106722542D01*
X109826575Y-106719705D01*
X109836860Y-106712833D01*
X109838165Y-106699586D01*
X109841886Y-106693377D01*
X109844669Y-106689213D01*
X109850500Y-106659899D01*
X109850499Y-105460948D01*
X109851247Y-105456649D01*
X109851328Y-105449230D01*
X109850499Y-105443759D01*
X109850499Y-105440102D01*
X109850498Y-105440099D01*
X110449500Y-105440099D01*
X110449500Y-106659901D01*
X110455328Y-106689209D01*
X110455330Y-106689213D01*
X110455330Y-106689214D01*
X110455331Y-106689215D01*
X110477540Y-106722454D01*
X110477542Y-106722456D01*
X110477543Y-106722457D01*
X110510787Y-106744669D01*
X110540101Y-106750500D01*
X111359898Y-106750499D01*
X111359901Y-106750499D01*
X111371398Y-106748211D01*
X111389213Y-106744669D01*
X111389214Y-106744668D01*
X111389215Y-106744668D01*
X111418608Y-106725028D01*
X111422887Y-106722542D01*
X111426575Y-106719705D01*
X111436860Y-106712833D01*
X111438165Y-106699586D01*
X111441886Y-106693377D01*
X111444669Y-106689213D01*
X111450500Y-106659899D01*
X111450499Y-105440102D01*
X111450498Y-105440099D01*
X113349500Y-105440099D01*
X113349500Y-106659901D01*
X113355328Y-106689209D01*
X113355330Y-106689213D01*
X113355330Y-106689214D01*
X113355331Y-106689215D01*
X113377540Y-106722454D01*
X113377542Y-106722456D01*
X113377543Y-106722457D01*
X113410787Y-106744669D01*
X113440101Y-106750500D01*
X114259898Y-106750499D01*
X114259901Y-106750499D01*
X114271398Y-106748211D01*
X114289213Y-106744669D01*
X114289214Y-106744668D01*
X114289215Y-106744668D01*
X114318608Y-106725028D01*
X114322887Y-106722542D01*
X114326575Y-106719705D01*
X114336860Y-106712833D01*
X114338165Y-106699586D01*
X114341886Y-106693377D01*
X114344669Y-106689213D01*
X114350500Y-106659899D01*
X114350499Y-105440102D01*
X114350498Y-105440099D01*
X114949500Y-105440099D01*
X114949500Y-106659901D01*
X114955328Y-106689209D01*
X114955330Y-106689213D01*
X114955330Y-106689214D01*
X114955331Y-106689215D01*
X114977540Y-106722454D01*
X114977542Y-106722456D01*
X114977543Y-106722457D01*
X115010787Y-106744669D01*
X115040101Y-106750500D01*
X115859898Y-106750499D01*
X115859901Y-106750499D01*
X115871398Y-106748211D01*
X115889213Y-106744669D01*
X115889214Y-106744668D01*
X115889215Y-106744668D01*
X115918608Y-106725028D01*
X115922887Y-106722542D01*
X115926575Y-106719705D01*
X115936860Y-106712833D01*
X115938165Y-106699586D01*
X115941886Y-106693377D01*
X115944669Y-106689213D01*
X115950500Y-106659899D01*
X115950499Y-105440102D01*
X115950499Y-105440101D01*
X115950499Y-105440098D01*
X115946091Y-105417936D01*
X115944756Y-105411225D01*
X115944669Y-105410787D01*
X115944668Y-105410786D01*
X115944668Y-105410784D01*
X115922459Y-105377545D01*
X115922456Y-105377542D01*
X115889213Y-105355331D01*
X115889211Y-105355330D01*
X115889206Y-105355329D01*
X115889203Y-105355328D01*
X115871559Y-105351819D01*
X115859899Y-105349500D01*
X115040097Y-105349500D01*
X115010789Y-105355328D01*
X115010785Y-105355330D01*
X114977542Y-105377542D01*
X114977541Y-105377543D01*
X114977540Y-105377545D01*
X114955332Y-105410782D01*
X114955330Y-105410787D01*
X114955329Y-105410790D01*
X114949500Y-105440099D01*
X114350498Y-105440099D01*
X114345937Y-105417167D01*
X114345799Y-105416382D01*
X114345894Y-105415948D01*
X114345731Y-105414292D01*
X114345726Y-105414274D01*
X114344962Y-105411225D01*
X114344668Y-105410784D01*
X114322459Y-105377545D01*
X114322456Y-105377542D01*
X114289213Y-105355331D01*
X114289211Y-105355330D01*
X114289206Y-105355329D01*
X114289203Y-105355328D01*
X114271559Y-105351819D01*
X114259899Y-105349500D01*
X113440097Y-105349500D01*
X113410789Y-105355328D01*
X113410785Y-105355330D01*
X113377542Y-105377542D01*
X113377541Y-105377543D01*
X113377540Y-105377545D01*
X113355332Y-105410782D01*
X113355330Y-105410787D01*
X113355329Y-105410790D01*
X113349500Y-105440099D01*
X111450498Y-105440099D01*
X111445937Y-105417167D01*
X111445799Y-105416382D01*
X111445894Y-105415948D01*
X111445731Y-105414292D01*
X111445726Y-105414274D01*
X111444962Y-105411225D01*
X111444668Y-105410784D01*
X111422459Y-105377545D01*
X111422456Y-105377542D01*
X111389213Y-105355331D01*
X111389211Y-105355330D01*
X111389206Y-105355329D01*
X111389203Y-105355328D01*
X111371559Y-105351819D01*
X111359899Y-105349500D01*
X110540097Y-105349500D01*
X110510789Y-105355328D01*
X110510785Y-105355330D01*
X110477542Y-105377542D01*
X110477541Y-105377543D01*
X110477540Y-105377545D01*
X110455332Y-105410782D01*
X110455330Y-105410787D01*
X110455329Y-105410790D01*
X110449500Y-105440099D01*
X109850498Y-105440099D01*
X109848798Y-105431550D01*
X109848496Y-105430032D01*
X109847991Y-105427205D01*
X109847974Y-105427101D01*
X109846250Y-105415721D01*
X109845998Y-105414938D01*
X109845049Y-105411281D01*
X109843260Y-105407793D01*
X109843205Y-105407124D01*
X109841236Y-105403515D01*
X109837178Y-105394174D01*
X109834957Y-105390185D01*
X109823166Y-105373180D01*
X109823164Y-105373177D01*
X109823160Y-105373172D01*
X109649060Y-105168349D01*
X109631685Y-105114443D01*
X109633962Y-105101279D01*
X109645367Y-105058713D01*
X109650500Y-105049825D01*
X109650500Y-104959452D01*
X109649245Y-104955758D01*
X109630022Y-104884014D01*
X109630021Y-104884011D01*
X109630021Y-104884010D01*
X109601155Y-104834014D01*
X109601155Y-104834013D01*
X109601153Y-104834011D01*
X109590460Y-104815489D01*
X109590458Y-104815486D01*
X109534511Y-104759540D01*
X109534508Y-104759538D01*
X109465988Y-104719977D01*
X109465984Y-104719976D01*
X109389566Y-104699500D01*
X109389564Y-104699500D01*
X109389562Y-104699500D01*
X109310438Y-104699500D01*
X109310436Y-104699500D01*
X109310434Y-104699500D01*
X109234018Y-104719975D01*
X109234009Y-104719978D01*
X109165491Y-104759537D01*
X109109537Y-104815491D01*
X109069977Y-104884010D01*
X109069977Y-104884011D01*
X109069976Y-104884014D01*
X109049500Y-104960432D01*
X109049500Y-105039566D01*
X109066033Y-105101268D01*
X109058641Y-105157421D01*
X109050939Y-105168347D01*
X108876277Y-105373832D01*
X108868287Y-105384543D01*
X108868275Y-105384560D01*
X108866663Y-105387034D01*
X108860199Y-105398449D01*
X108860198Y-105398450D01*
X108859996Y-105398865D01*
X108859909Y-105399159D01*
X108859908Y-105399161D01*
X108857322Y-105407805D01*
X108855331Y-105410786D01*
X108855330Y-105410788D01*
X108853145Y-105421766D01*
X108852149Y-105425100D01*
X108852146Y-105425113D01*
X108850224Y-105431542D01*
X108850222Y-105431550D01*
X108849275Y-105438898D01*
X108250259Y-105438898D01*
X108248500Y-105430054D01*
X108248229Y-105428195D01*
X108248432Y-105427388D01*
X108248011Y-105423050D01*
X108247448Y-105419447D01*
X108247449Y-105419440D01*
X108246250Y-105415721D01*
X108246082Y-105415198D01*
X108245823Y-105414379D01*
X108244516Y-105410157D01*
X108242904Y-105407455D01*
X108240519Y-105402952D01*
X108239555Y-105401675D01*
X108224678Y-105374960D01*
X108224671Y-105374950D01*
X108051202Y-105170869D01*
X108033827Y-105116963D01*
X108037967Y-105097856D01*
X108040200Y-105091658D01*
X108055021Y-105065989D01*
X108071174Y-105005705D01*
X108072227Y-105002783D01*
X108075500Y-104999188D01*
X108075500Y-104909449D01*
X108074242Y-104905744D01*
X108068419Y-104884014D01*
X108055021Y-104834011D01*
X108015460Y-104765489D01*
X107959511Y-104709540D01*
X107942121Y-104699500D01*
X107890990Y-104669979D01*
X107890985Y-104669977D01*
X107823103Y-104651788D01*
X107818820Y-104650044D01*
X107801714Y-104633143D01*
X107782640Y-104618507D01*
X107781961Y-104617305D01*
X107247857Y-103649241D01*
X107019707Y-103235718D01*
X107010500Y-103199970D01*
X107010500Y-101113771D01*
X111224500Y-101113771D01*
X111224500Y-101286227D01*
X111258142Y-101455365D01*
X111258145Y-101455376D01*
X111258146Y-101455381D01*
X111316387Y-101595985D01*
X111324140Y-101614702D01*
X111405106Y-101735877D01*
X111419955Y-101758099D01*
X111541901Y-101880045D01*
X111685295Y-101975858D01*
X111685296Y-101975858D01*
X111685905Y-101976265D01*
X111688652Y-101977248D01*
X111810074Y-102027543D01*
X111844626Y-102041855D01*
X112013771Y-102075500D01*
X112013772Y-102075500D01*
X112186228Y-102075500D01*
X112186229Y-102075500D01*
X112355374Y-102041855D01*
X112514705Y-101975858D01*
X112658099Y-101880045D01*
X112780045Y-101758099D01*
X112875858Y-101614705D01*
X112941855Y-101455374D01*
X112975500Y-101286229D01*
X112975500Y-101113771D01*
X112941855Y-100944626D01*
X112938750Y-100937130D01*
X112931644Y-100919974D01*
X112875860Y-100785299D01*
X112867633Y-100772986D01*
X112780045Y-100641901D01*
X112658098Y-100519954D01*
X112628234Y-100500000D01*
X112561559Y-100455449D01*
X112561558Y-100455448D01*
X112556567Y-100452113D01*
X112515799Y-100424873D01*
X112514850Y-100424214D01*
X112514698Y-100424138D01*
X112445396Y-100395432D01*
X113949500Y-100395432D01*
X113949500Y-100474566D01*
X113969976Y-100550983D01*
X113969976Y-100550984D01*
X113969977Y-100550987D01*
X113969979Y-100550992D01*
X113992490Y-100589979D01*
X113992491Y-100589981D01*
X114009538Y-100619509D01*
X114009540Y-100619511D01*
X114065489Y-100675460D01*
X114134011Y-100715021D01*
X114134012Y-100715021D01*
X114134014Y-100715022D01*
X114172224Y-100725260D01*
X114205748Y-100734243D01*
X114209451Y-100735500D01*
X114289564Y-100735500D01*
X114299827Y-100735500D01*
X114308715Y-100730367D01*
X114365989Y-100715021D01*
X114434511Y-100675460D01*
X114490460Y-100619511D01*
X114490984Y-100618601D01*
X114499223Y-100604333D01*
X114518260Y-100582623D01*
X114527197Y-100575765D01*
X114581825Y-100561095D01*
X114582238Y-100561148D01*
X114582684Y-100561207D01*
X114625440Y-100582268D01*
X114626861Y-100583688D01*
X114627877Y-100584705D01*
X114639625Y-100600019D01*
X114659539Y-100634510D01*
X114659540Y-100634511D01*
X114715489Y-100690460D01*
X114784011Y-100730021D01*
X114784012Y-100730021D01*
X114784014Y-100730022D01*
X114804458Y-100735500D01*
X114855749Y-100749244D01*
X114859449Y-100750500D01*
X114939564Y-100750500D01*
X114949827Y-100750500D01*
X114958715Y-100745367D01*
X115015989Y-100730021D01*
X115084511Y-100690460D01*
X115140460Y-100634511D01*
X115180021Y-100565989D01*
X115200499Y-100489564D01*
X115200500Y-100489564D01*
X115200500Y-100410436D01*
X115200499Y-100410435D01*
X115180022Y-100334014D01*
X115180021Y-100334011D01*
X115180021Y-100334010D01*
X115156584Y-100293417D01*
X115144031Y-100271674D01*
X115140460Y-100265489D01*
X115084511Y-100209540D01*
X115058530Y-100194540D01*
X115058529Y-100194538D01*
X115015988Y-100169977D01*
X115015984Y-100169976D01*
X115015983Y-100169976D01*
X114939566Y-100149500D01*
X114939564Y-100149500D01*
X114939562Y-100149500D01*
X114860438Y-100149500D01*
X114860436Y-100149500D01*
X114860434Y-100149500D01*
X114784018Y-100169975D01*
X114784009Y-100169978D01*
X114715490Y-100209538D01*
X114715487Y-100209540D01*
X114659540Y-100265486D01*
X114659540Y-100265487D01*
X114650773Y-100280671D01*
X114631736Y-100302378D01*
X114622801Y-100309234D01*
X114568113Y-100323895D01*
X114567253Y-100323782D01*
X114524567Y-100302739D01*
X114522133Y-100300305D01*
X114510373Y-100284979D01*
X114499123Y-100265494D01*
X114499122Y-100265493D01*
X114499120Y-100265489D01*
X114490460Y-100250489D01*
X114490458Y-100250487D01*
X114490457Y-100250485D01*
X114434511Y-100194540D01*
X114434508Y-100194538D01*
X114365988Y-100154977D01*
X114365984Y-100154976D01*
X114289566Y-100134500D01*
X114289564Y-100134500D01*
X114289562Y-100134500D01*
X114210438Y-100134500D01*
X114210436Y-100134500D01*
X114210434Y-100134500D01*
X114134018Y-100154975D01*
X114134009Y-100154978D01*
X114065491Y-100194537D01*
X114009537Y-100250491D01*
X113969977Y-100319010D01*
X113969977Y-100319011D01*
X113969976Y-100319014D01*
X113969976Y-100319015D01*
X113949500Y-100395432D01*
X112445396Y-100395432D01*
X112355381Y-100358146D01*
X112355376Y-100358145D01*
X112355365Y-100358142D01*
X112227942Y-100332797D01*
X112186229Y-100324500D01*
X112013771Y-100324500D01*
X112013767Y-100324500D01*
X111980309Y-100331154D01*
X111980309Y-100331155D01*
X111940493Y-100339075D01*
X111844630Y-100358143D01*
X111844622Y-100358145D01*
X111844617Y-100358146D01*
X111685300Y-100424138D01*
X111541904Y-100519951D01*
X111541903Y-100519953D01*
X111419953Y-100641903D01*
X111419951Y-100641904D01*
X111324138Y-100785300D01*
X111258146Y-100944617D01*
X111258145Y-100944622D01*
X111258142Y-100944633D01*
X111224500Y-101113771D01*
X107010500Y-101113771D01*
X107010500Y-100928075D01*
X106986065Y-100869084D01*
X105392581Y-99275600D01*
X105376541Y-99251594D01*
X105366131Y-99226462D01*
X105360500Y-99198148D01*
X105360500Y-99129451D01*
X105359244Y-99125753D01*
X105341837Y-99060787D01*
X105340022Y-99054014D01*
X105340021Y-99054010D01*
X105314864Y-99010438D01*
X105300460Y-98985489D01*
X105244511Y-98929540D01*
X105210490Y-98909898D01*
X105175990Y-98889979D01*
X105175985Y-98889977D01*
X105099564Y-98869500D01*
X105099562Y-98869500D01*
X105097859Y-98869500D01*
X105090142Y-98866654D01*
X105087835Y-98864522D01*
X105072223Y-98857071D01*
X104753475Y-98625253D01*
X104723906Y-98576948D01*
X104723000Y-98565407D01*
X104723000Y-98490103D01*
X104717168Y-98460787D01*
X104700562Y-98435934D01*
X104536563Y-98271936D01*
X104536028Y-98271578D01*
X104521387Y-98261795D01*
X104521386Y-98261794D01*
X104511713Y-98255331D01*
X104511709Y-98255330D01*
X104496856Y-98252375D01*
X104482399Y-98249500D01*
X104482398Y-98249500D01*
X104424726Y-98249500D01*
X104420080Y-98248909D01*
X104399252Y-98237005D01*
X104377092Y-98227826D01*
X104375199Y-98223258D01*
X104370908Y-98220805D01*
X104364597Y-98197662D01*
X104363673Y-98195432D01*
X113949500Y-98195432D01*
X113949500Y-98274566D01*
X113969976Y-98350983D01*
X113969976Y-98350984D01*
X113969977Y-98350987D01*
X113969977Y-98350988D01*
X113999739Y-98402535D01*
X114005304Y-98412174D01*
X114009540Y-98419511D01*
X114065489Y-98475460D01*
X114134011Y-98515021D01*
X114134013Y-98515021D01*
X114134014Y-98515022D01*
X114148360Y-98518866D01*
X114205758Y-98534245D01*
X114209453Y-98535500D01*
X114289564Y-98535500D01*
X114299827Y-98535500D01*
X114308715Y-98530367D01*
X114365989Y-98515021D01*
X114434511Y-98475460D01*
X114490460Y-98419511D01*
X114530021Y-98350989D01*
X114550499Y-98274564D01*
X114550500Y-98274564D01*
X114550500Y-98195436D01*
X114550499Y-98195435D01*
X114530022Y-98119014D01*
X114530021Y-98119011D01*
X114530021Y-98119010D01*
X114501487Y-98069588D01*
X114501486Y-98069587D01*
X114496406Y-98060788D01*
X114490460Y-98050489D01*
X114434511Y-97994540D01*
X114418763Y-97985448D01*
X114365990Y-97954979D01*
X114365987Y-97954977D01*
X114365984Y-97954976D01*
X114289566Y-97934500D01*
X114289564Y-97934500D01*
X114289562Y-97934500D01*
X114210438Y-97934500D01*
X114210436Y-97934500D01*
X114210434Y-97934500D01*
X114134018Y-97954975D01*
X114134009Y-97954978D01*
X114065491Y-97994537D01*
X114009537Y-98050491D01*
X113969977Y-98119010D01*
X113969977Y-98119011D01*
X113969976Y-98119014D01*
X113969976Y-98119015D01*
X113949500Y-98195432D01*
X104363673Y-98195432D01*
X104355418Y-98175500D01*
X104357309Y-98170932D01*
X104356009Y-98166162D01*
X104367912Y-98145334D01*
X104377092Y-98123174D01*
X104382026Y-98120641D01*
X104384113Y-98116990D01*
X104399089Y-98111882D01*
X104417404Y-98102482D01*
X104419257Y-98102177D01*
X104419257Y-98102176D01*
X104419269Y-98102175D01*
X104441944Y-98095782D01*
X104492914Y-98075028D01*
X104512044Y-98064613D01*
X104513598Y-98063767D01*
X104513599Y-98063766D01*
X104513605Y-98063763D01*
X104533099Y-98050125D01*
X104544786Y-98040639D01*
X104551153Y-98034669D01*
X104570510Y-98016518D01*
X104570514Y-98016513D01*
X104570531Y-98016498D01*
X104580748Y-98005445D01*
X104696936Y-97860211D01*
X104708124Y-97843040D01*
X104708810Y-97841721D01*
X104717169Y-97829213D01*
X104718307Y-97823487D01*
X104730273Y-97800515D01*
X104737930Y-97781506D01*
X104746202Y-97753337D01*
X104746206Y-97753314D01*
X104746299Y-97752955D01*
X104746324Y-97752921D01*
X104746574Y-97752071D01*
X104746891Y-97752164D01*
X104780242Y-97707616D01*
X104836303Y-97699557D01*
X104881642Y-97733500D01*
X104891852Y-97766587D01*
X104892000Y-97768927D01*
X104892000Y-97799898D01*
X104893910Y-97809499D01*
X104894871Y-97814333D01*
X104894872Y-97814339D01*
X104897830Y-97829212D01*
X104899555Y-97832439D01*
X104901881Y-97835273D01*
X104914437Y-97854065D01*
X104936752Y-97876380D01*
X104943664Y-97884357D01*
X104964469Y-97912149D01*
X104964471Y-97912151D01*
X104964476Y-97912158D01*
X104974321Y-97923521D01*
X104974326Y-97923526D01*
X105031669Y-97980869D01*
X105052434Y-97997000D01*
X105064579Y-98004206D01*
X105078437Y-98018064D01*
X105103287Y-98034669D01*
X105132601Y-98040500D01*
X105135110Y-98040499D01*
X105154532Y-98046203D01*
X105169242Y-98049403D01*
X105204178Y-98054426D01*
X105219184Y-98055500D01*
X105219192Y-98055500D01*
X105384367Y-98055500D01*
X105384371Y-98055500D01*
X105413851Y-98051298D01*
X105480389Y-98031934D01*
X105500497Y-98022838D01*
X105507514Y-98019664D01*
X105507514Y-98019663D01*
X105507520Y-98019661D01*
X105528621Y-98006243D01*
X105540713Y-97997281D01*
X105567494Y-97974300D01*
X105578188Y-97963709D01*
X105737633Y-97781487D01*
X105825760Y-97680771D01*
X105876529Y-97655664D01*
X105881451Y-97655500D01*
X106162652Y-97655500D01*
X106162668Y-97655500D01*
X106173953Y-97654895D01*
X106173962Y-97654894D01*
X106173967Y-97654894D01*
X106181925Y-97654037D01*
X106200324Y-97652058D01*
X106211457Y-97650253D01*
X106211458Y-97650253D01*
X106211459Y-97650252D01*
X106211476Y-97650250D01*
X106219034Y-97648605D01*
X106229664Y-97644852D01*
X106243836Y-97639851D01*
X106243837Y-97639850D01*
X106243841Y-97639849D01*
X106298702Y-97612373D01*
X106298720Y-97612360D01*
X106300701Y-97611210D01*
X106301138Y-97611962D01*
X106338920Y-97600500D01*
X115349827Y-97600500D01*
X115358715Y-97595367D01*
X115415989Y-97580021D01*
X115484511Y-97540460D01*
X115540460Y-97484511D01*
X115690460Y-97334511D01*
X115704189Y-97310731D01*
X115730021Y-97265989D01*
X115746549Y-97204304D01*
X115748262Y-97200078D01*
X115750500Y-97197805D01*
X115750500Y-97139217D01*
X115756129Y-97110908D01*
X115760443Y-97100493D01*
X115800482Y-97060447D01*
X115810911Y-97056127D01*
X115839219Y-97050499D01*
X115859901Y-97050499D01*
X115871398Y-97048211D01*
X115889213Y-97044669D01*
X115889214Y-97044668D01*
X115889215Y-97044668D01*
X115918608Y-97025028D01*
X115922887Y-97022542D01*
X115926575Y-97019705D01*
X115936860Y-97012833D01*
X115938165Y-96999586D01*
X115941886Y-96993377D01*
X115944669Y-96989213D01*
X115950500Y-96959899D01*
X115950499Y-95740102D01*
X115950499Y-95740101D01*
X115950499Y-95740098D01*
X115946091Y-95717936D01*
X115944668Y-95710784D01*
X115940620Y-95704726D01*
X115922459Y-95677545D01*
X115922456Y-95677542D01*
X115889213Y-95655331D01*
X115889211Y-95655330D01*
X115889206Y-95655329D01*
X115889203Y-95655328D01*
X115871559Y-95651819D01*
X115859899Y-95649500D01*
X115040096Y-95649500D01*
X115038633Y-95649644D01*
X115031386Y-95650000D01*
X114700000Y-95650000D01*
X114268615Y-95650000D01*
X114261368Y-95649644D01*
X114259905Y-95649500D01*
X114259899Y-95649500D01*
X114259897Y-95649500D01*
X113440102Y-95649500D01*
X113440097Y-95649500D01*
X113410789Y-95655328D01*
X113410785Y-95655330D01*
X113377542Y-95677542D01*
X113377541Y-95677543D01*
X113377540Y-95677545D01*
X113355333Y-95710782D01*
X113355329Y-95710789D01*
X113351822Y-95728429D01*
X113351821Y-95728433D01*
X113349500Y-95740101D01*
X113349500Y-96910781D01*
X113343870Y-96939093D01*
X113339560Y-96949501D01*
X113299515Y-96989553D01*
X113299508Y-96989556D01*
X113289100Y-96993867D01*
X113260782Y-96999500D01*
X111539219Y-96999500D01*
X111510904Y-96993868D01*
X111500495Y-96989557D01*
X111460446Y-96949513D01*
X111456131Y-96939095D01*
X111450499Y-96910785D01*
X111450499Y-95740102D01*
X111448179Y-95728436D01*
X111448179Y-95728434D01*
X111446090Y-95717930D01*
X111444669Y-95710786D01*
X111444666Y-95710782D01*
X111422459Y-95677545D01*
X111422456Y-95677542D01*
X111389213Y-95655331D01*
X111389211Y-95655330D01*
X111389206Y-95655329D01*
X111389203Y-95655328D01*
X111371559Y-95651819D01*
X111359899Y-95649500D01*
X110540097Y-95649500D01*
X110510789Y-95655328D01*
X110510785Y-95655330D01*
X110477542Y-95677542D01*
X110477541Y-95677543D01*
X110477540Y-95677545D01*
X110455333Y-95710782D01*
X110455329Y-95710789D01*
X110451822Y-95728429D01*
X110451821Y-95728433D01*
X110449500Y-95740101D01*
X110449500Y-96910781D01*
X110443870Y-96939093D01*
X110439560Y-96949501D01*
X110399515Y-96989553D01*
X110399508Y-96989556D01*
X110389100Y-96993867D01*
X110360782Y-96999500D01*
X108339219Y-96999500D01*
X108310904Y-96993868D01*
X108300495Y-96989557D01*
X108260446Y-96949513D01*
X108256131Y-96939095D01*
X108250499Y-96910785D01*
X108250499Y-95740102D01*
X108248179Y-95728436D01*
X108248179Y-95728434D01*
X108246090Y-95717930D01*
X108244669Y-95710786D01*
X108244666Y-95710782D01*
X108222459Y-95677545D01*
X108222456Y-95677542D01*
X108189213Y-95655331D01*
X108189211Y-95655330D01*
X108189206Y-95655329D01*
X108189203Y-95655328D01*
X108171559Y-95651819D01*
X108159899Y-95649500D01*
X107340097Y-95649500D01*
X107310789Y-95655328D01*
X107310785Y-95655330D01*
X107277542Y-95677542D01*
X107277541Y-95677543D01*
X107277540Y-95677545D01*
X107255333Y-95710782D01*
X107255329Y-95710789D01*
X107251822Y-95728429D01*
X107251821Y-95728433D01*
X107249500Y-95740101D01*
X107249500Y-96910781D01*
X107243870Y-96939093D01*
X107239560Y-96949501D01*
X107199515Y-96989553D01*
X107199508Y-96989556D01*
X107189100Y-96993867D01*
X107160782Y-96999500D01*
X106331730Y-96999500D01*
X106291731Y-96987758D01*
X106265133Y-96970669D01*
X106265129Y-96970667D01*
X106237830Y-96958201D01*
X106229481Y-96955750D01*
X106222830Y-96953797D01*
X106216895Y-96952506D01*
X106208116Y-96950596D01*
X106208119Y-96950596D01*
X106173183Y-96945573D01*
X106158178Y-96944500D01*
X106158170Y-96944500D01*
X105742015Y-96944500D01*
X105689689Y-96922826D01*
X105681901Y-96913655D01*
X105525907Y-96696361D01*
X105520016Y-96690402D01*
X105514509Y-96684165D01*
X105501295Y-96667386D01*
X105501292Y-96667383D01*
X105497726Y-96663987D01*
X105497719Y-96663982D01*
X105477694Y-96649009D01*
X105427119Y-96619834D01*
X105404132Y-96609996D01*
X105404112Y-96609989D01*
X105383018Y-96603796D01*
X105368302Y-96600596D01*
X105368300Y-96600595D01*
X105333367Y-96595573D01*
X105318364Y-96594500D01*
X105318357Y-96594500D01*
X105137332Y-96594500D01*
X105126072Y-96595103D01*
X105126067Y-96595103D01*
X105126056Y-96595104D01*
X105126042Y-96595105D01*
X105126036Y-96595106D01*
X105112362Y-96596576D01*
X105104453Y-96597000D01*
X105084750Y-96597000D01*
X105032424Y-96575326D01*
X105025550Y-96567400D01*
X104791106Y-96254808D01*
X104785051Y-96242355D01*
X104784892Y-96242448D01*
X104771786Y-96219748D01*
X104751473Y-96184564D01*
X104742193Y-96157227D01*
X104739481Y-96136621D01*
X104745447Y-96096418D01*
X104747822Y-96091177D01*
X104747182Y-96084077D01*
X104750500Y-96067399D01*
X104750499Y-95632602D01*
X104750499Y-95632598D01*
X104746091Y-95610436D01*
X104744668Y-95603284D01*
X104740620Y-95597226D01*
X104722459Y-95570045D01*
X104722456Y-95570042D01*
X104689213Y-95547831D01*
X104689211Y-95547830D01*
X104689206Y-95547829D01*
X104689203Y-95547828D01*
X104671559Y-95544319D01*
X104659899Y-95542000D01*
X104490100Y-95542000D01*
X104485241Y-95542965D01*
X104485242Y-95542966D01*
X104460789Y-95547830D01*
X104460786Y-95547831D01*
X104441999Y-95560385D01*
X104437676Y-95562695D01*
X104271932Y-95728440D01*
X104255331Y-95753284D01*
X104255331Y-95753285D01*
X104255328Y-95753295D01*
X104254923Y-95755334D01*
X104249500Y-95782601D01*
X104249500Y-95782604D01*
X104249500Y-95786313D01*
X104227826Y-95838639D01*
X104175500Y-95860313D01*
X104123174Y-95838639D01*
X104113248Y-95826322D01*
X104106679Y-95816100D01*
X104085529Y-95787848D01*
X104075673Y-95776473D01*
X103868330Y-95569130D01*
X103847564Y-95552999D01*
X103798459Y-95523863D01*
X103764519Y-95478523D01*
X103772580Y-95422462D01*
X103817918Y-95388522D01*
X103823680Y-95387052D01*
X103848151Y-95377423D01*
X103871239Y-95364815D01*
X103883900Y-95356678D01*
X103912151Y-95335529D01*
X103923526Y-95325673D01*
X103980869Y-95268330D01*
X103997000Y-95247564D01*
X104028295Y-95194820D01*
X104038790Y-95170711D01*
X104046202Y-95145470D01*
X104049402Y-95130762D01*
X104054426Y-95095825D01*
X104054427Y-95095812D01*
X104055500Y-95080815D01*
X104055500Y-94864986D01*
X104072650Y-94817614D01*
X104245613Y-94610058D01*
X104274585Y-94588884D01*
X104276589Y-94588068D01*
X104285391Y-94585081D01*
X104315298Y-94572693D01*
X104319493Y-94570623D01*
X104321954Y-94569623D01*
X104322882Y-94569629D01*
X104330662Y-94566699D01*
X104349528Y-94561644D01*
X104364916Y-94557520D01*
X104384068Y-94555000D01*
X104415929Y-94555000D01*
X104435079Y-94557521D01*
X104457684Y-94563577D01*
X104463207Y-94565057D01*
X104469318Y-94566694D01*
X104482902Y-94571807D01*
X104484687Y-94572687D01*
X104484689Y-94572688D01*
X104484694Y-94572690D01*
X104484700Y-94572693D01*
X104514606Y-94585081D01*
X104527675Y-94589517D01*
X104558139Y-94597680D01*
X104568455Y-94599731D01*
X104571659Y-94600369D01*
X104571661Y-94600369D01*
X104571675Y-94600372D01*
X104603768Y-94604597D01*
X104617517Y-94605499D01*
X104617530Y-94605499D01*
X104617538Y-94605500D01*
X104650281Y-94605500D01*
X104688353Y-94616045D01*
X104808572Y-94688175D01*
X104842290Y-94733682D01*
X104844500Y-94751630D01*
X104844500Y-95113236D01*
X104845093Y-95124410D01*
X104847878Y-95150540D01*
X104849652Y-95161590D01*
X104849655Y-95161605D01*
X104851239Y-95168955D01*
X104851239Y-95168957D01*
X104859048Y-95191255D01*
X104859899Y-95193684D01*
X104887102Y-95248410D01*
X104887104Y-95248413D01*
X104901586Y-95270240D01*
X104901592Y-95270249D01*
X104902838Y-95271697D01*
X104902841Y-95271700D01*
X104902848Y-95271708D01*
X104915941Y-95283138D01*
X104925469Y-95291455D01*
X104925472Y-95291458D01*
X104984108Y-95329446D01*
X104984112Y-95329448D01*
X105011380Y-95342022D01*
X105026365Y-95346482D01*
X105041066Y-95349737D01*
X105063317Y-95353019D01*
X105075981Y-95354887D01*
X105077437Y-95354996D01*
X105090990Y-95356015D01*
X105658067Y-95358088D01*
X105669348Y-95357525D01*
X105695720Y-95354787D01*
X105706877Y-95353021D01*
X105714442Y-95351404D01*
X105739270Y-95342746D01*
X105794213Y-95315493D01*
X105816131Y-95300963D01*
X105817504Y-95299782D01*
X105832028Y-95283144D01*
X105837245Y-95277167D01*
X105837245Y-95277165D01*
X105837250Y-95277161D01*
X105854931Y-95249867D01*
X105901571Y-95217735D01*
X105957271Y-95227994D01*
X105974650Y-95245131D01*
X105975239Y-95244649D01*
X105977538Y-95247451D01*
X105977540Y-95247454D01*
X105977542Y-95247456D01*
X105977543Y-95247457D01*
X106010787Y-95269669D01*
X106040101Y-95275500D01*
X106809898Y-95275499D01*
X106809901Y-95275499D01*
X106821398Y-95273211D01*
X106839213Y-95269669D01*
X106839214Y-95269668D01*
X106839215Y-95269668D01*
X106868608Y-95250028D01*
X106872887Y-95247542D01*
X106876575Y-95244705D01*
X106886860Y-95237833D01*
X106888165Y-95224586D01*
X106891886Y-95218377D01*
X106894669Y-95214213D01*
X106900500Y-95184899D01*
X106900499Y-93365102D01*
X106900499Y-93365100D01*
X106896089Y-93342925D01*
X106896089Y-93342924D01*
X106894810Y-93336498D01*
X106894669Y-93335787D01*
X106894668Y-93335785D01*
X106894668Y-93335784D01*
X106872459Y-93302545D01*
X106872456Y-93302542D01*
X106839213Y-93280331D01*
X106839211Y-93280330D01*
X106839206Y-93280329D01*
X106839203Y-93280328D01*
X106821559Y-93276819D01*
X106809899Y-93274500D01*
X106113610Y-93274500D01*
X106085292Y-93268867D01*
X106069773Y-93262439D01*
X106034010Y-93231079D01*
X106032282Y-93228087D01*
X106024892Y-93210246D01*
X106014842Y-93172739D01*
X106014701Y-93172196D01*
X106014689Y-93172166D01*
X106013881Y-93170766D01*
X105945505Y-93052335D01*
X105847665Y-92954495D01*
X105727836Y-92885312D01*
X105727831Y-92885310D01*
X105697062Y-92877066D01*
X105697061Y-92877065D01*
X105697059Y-92877065D01*
X105594187Y-92849500D01*
X105594185Y-92849500D01*
X105594183Y-92849500D01*
X105455817Y-92849500D01*
X105455815Y-92849500D01*
X105322168Y-92885310D01*
X105322166Y-92885310D01*
X105322165Y-92885311D01*
X105202333Y-92954495D01*
X105104495Y-93052333D01*
X105035311Y-93172164D01*
X105034260Y-93176088D01*
X104999500Y-93305814D01*
X104999500Y-93444185D01*
X105034326Y-93574158D01*
X105035311Y-93577834D01*
X105096317Y-93683500D01*
X105103709Y-93739653D01*
X105069231Y-93784586D01*
X105032231Y-93794500D01*
X104820484Y-93794500D01*
X104804573Y-93795709D01*
X104804560Y-93795710D01*
X104804552Y-93795711D01*
X104804545Y-93795711D01*
X104804536Y-93795713D01*
X104767514Y-93801372D01*
X104767511Y-93801372D01*
X104767509Y-93801373D01*
X104763974Y-93802191D01*
X104751929Y-93804980D01*
X104720273Y-93814891D01*
X104720265Y-93814894D01*
X104706265Y-93820402D01*
X104706254Y-93820408D01*
X104674444Y-93835627D01*
X104673265Y-93836244D01*
X104673043Y-93835821D01*
X104638393Y-93844999D01*
X102981620Y-93844999D01*
X102945292Y-93835468D01*
X102943884Y-93834674D01*
X102943864Y-93834664D01*
X102909906Y-93818788D01*
X102894952Y-93813135D01*
X102894943Y-93813132D01*
X102863162Y-93803800D01*
X102863151Y-93803797D01*
X102863149Y-93803797D01*
X102852002Y-93801372D01*
X102848435Y-93800596D01*
X102848438Y-93800596D01*
X102813502Y-93795573D01*
X102798497Y-93794500D01*
X102798489Y-93794500D01*
X102729500Y-93794500D01*
X102677174Y-93772826D01*
X102655500Y-93720500D01*
X102655500Y-93554695D01*
X102654826Y-93546299D01*
X102654153Y-93537895D01*
X102647859Y-93498893D01*
X102643851Y-93482518D01*
X102633703Y-93451892D01*
X102627922Y-93437899D01*
X102612047Y-93406145D01*
X102612043Y-93406139D01*
X102612040Y-93406132D01*
X102604326Y-93393128D01*
X102604322Y-93393122D01*
X102226328Y-92849114D01*
X102226324Y-92849109D01*
X102221035Y-92843590D01*
X102215985Y-92837737D01*
X102214389Y-92835679D01*
X102200287Y-92804766D01*
X102183974Y-92722755D01*
X102183973Y-92722749D01*
X102112322Y-92549769D01*
X102008302Y-92394092D01*
X101875908Y-92261698D01*
X101862793Y-92252935D01*
X101754702Y-92180711D01*
X101720231Y-92157678D01*
X101720228Y-92157676D01*
X101720227Y-92157676D01*
X101719606Y-92157262D01*
X101716846Y-92156275D01*
X101547252Y-92086027D01*
X101547249Y-92086026D01*
X101547245Y-92086025D01*
X101547244Y-92086025D01*
X101507732Y-92078166D01*
X101428806Y-92062467D01*
X101428805Y-92062466D01*
X101376370Y-92052037D01*
X101363616Y-92049500D01*
X101363615Y-92049500D01*
X101176380Y-92049500D01*
X101140056Y-92056724D01*
X101140056Y-92056725D01*
X101111194Y-92062466D01*
X100992763Y-92086023D01*
X100992747Y-92086027D01*
X100819771Y-92157676D01*
X100663822Y-92261877D01*
X100662446Y-92263343D01*
X100533343Y-92392446D01*
X100531877Y-92393822D01*
X100427676Y-92549771D01*
X100356027Y-92722747D01*
X100356023Y-92722763D01*
X100328762Y-92859812D01*
X100328761Y-92859816D01*
X100325174Y-92877853D01*
X100320667Y-92884870D01*
X100308201Y-92912171D01*
X100303797Y-92927169D01*
X100300597Y-92941879D01*
X100295574Y-92976815D01*
X100294500Y-92991829D01*
X99680500Y-92991829D01*
X99680500Y-92906384D01*
X99643973Y-92722749D01*
X99572322Y-92549769D01*
X99468302Y-92394092D01*
X99335908Y-92261698D01*
X99322793Y-92252935D01*
X99214702Y-92180711D01*
X99180231Y-92157678D01*
X99180228Y-92157676D01*
X99180227Y-92157676D01*
X99179606Y-92157262D01*
X99176846Y-92156275D01*
X99007253Y-92086027D01*
X99007235Y-92086023D01*
X98888810Y-92062467D01*
X98868902Y-92058507D01*
X98868901Y-92058506D01*
X98823616Y-92049500D01*
X98636384Y-92049500D01*
X98636380Y-92049500D01*
X98600056Y-92056724D01*
X98600056Y-92056725D01*
X98571194Y-92062466D01*
X98452763Y-92086023D01*
X98452747Y-92086027D01*
X98279771Y-92157676D01*
X98123822Y-92261877D01*
X98122446Y-92263343D01*
X97993343Y-92392446D01*
X97991877Y-92393822D01*
X97887676Y-92549771D01*
X97816027Y-92722747D01*
X97816022Y-92722768D01*
X97785175Y-92877853D01*
X97779500Y-92906384D01*
X97140500Y-92906384D01*
X97103973Y-92722749D01*
X97032322Y-92549769D01*
X96928302Y-92394092D01*
X96795908Y-92261698D01*
X96782793Y-92252935D01*
X96674702Y-92180711D01*
X96640231Y-92157678D01*
X96640228Y-92157676D01*
X96640227Y-92157676D01*
X96639606Y-92157262D01*
X96636846Y-92156275D01*
X96467253Y-92086027D01*
X96467235Y-92086023D01*
X96348810Y-92062467D01*
X96328902Y-92058507D01*
X96328901Y-92058506D01*
X96283616Y-92049500D01*
X96096384Y-92049500D01*
X96096380Y-92049500D01*
X96060056Y-92056724D01*
X96060056Y-92056725D01*
X96031194Y-92062466D01*
X95912763Y-92086023D01*
X95912747Y-92086027D01*
X95739771Y-92157676D01*
X95583822Y-92261877D01*
X95582446Y-92263343D01*
X95453343Y-92392446D01*
X95451877Y-92393822D01*
X95347676Y-92549771D01*
X95276027Y-92722747D01*
X95276022Y-92722768D01*
X95245175Y-92877853D01*
X95239500Y-92906384D01*
X94200500Y-92906384D01*
X94200500Y-91789218D01*
X94206129Y-91760909D01*
X94210443Y-91750494D01*
X94250482Y-91710448D01*
X94260911Y-91706128D01*
X94289219Y-91700500D01*
X100272793Y-91700500D01*
X100272853Y-91700505D01*
X100280142Y-91700504D01*
X100280144Y-91700505D01*
X100320026Y-91700500D01*
X100359882Y-91700500D01*
X100373296Y-91700500D01*
X100375809Y-91700000D01*
X107598888Y-91700000D01*
X107651214Y-91721674D01*
G37*
%TD.AperFunction*%
%TD*%
%TA.AperFunction,Conductor*%
%TO.N,BAT+*%
G36*
X103715740Y-95605021D02*
G01*
X103740984Y-95612434D01*
X103793730Y-95643730D01*
X104001073Y-95851073D01*
X104022223Y-95879325D01*
X104034831Y-95902414D01*
X104050000Y-95961843D01*
X104050000Y-96800000D01*
X104050003Y-96800002D01*
X104565506Y-97057753D01*
X104594505Y-97077868D01*
X104606819Y-97089322D01*
X104641939Y-97147279D01*
X104645573Y-97160512D01*
X104650000Y-97193349D01*
X104650000Y-97688673D01*
X104644976Y-97723611D01*
X104636704Y-97751780D01*
X104614555Y-97794305D01*
X104498367Y-97939539D01*
X104472622Y-97963680D01*
X104453128Y-97977318D01*
X104402158Y-97998072D01*
X104400418Y-97998358D01*
X104380306Y-98000000D01*
X104149998Y-98000000D01*
X104000000Y-98099999D01*
X104000000Y-99580808D01*
X103994976Y-99615745D01*
X103987564Y-99640986D01*
X103956269Y-99693730D01*
X103698926Y-99951073D01*
X103670675Y-99972222D01*
X103647587Y-99984830D01*
X103588157Y-100000000D01*
X102849595Y-100000000D01*
X102814654Y-99994975D01*
X102799655Y-99990570D01*
X102740889Y-99952804D01*
X102731552Y-99942030D01*
X102711287Y-99909670D01*
X102614985Y-99684966D01*
X102607494Y-99661061D01*
X102602530Y-99636878D01*
X102600000Y-99611951D01*
X102600000Y-98210438D01*
X103124500Y-98210438D01*
X103124500Y-98289562D01*
X103125759Y-98294261D01*
X103125759Y-98294263D01*
X103138042Y-98340101D01*
X103144979Y-98365990D01*
X103144981Y-98365993D01*
X103145005Y-98366051D01*
X103145487Y-98366870D01*
X103182689Y-98431308D01*
X103184072Y-98433880D01*
X103184458Y-98434429D01*
X103240492Y-98490463D01*
X103241172Y-98490953D01*
X103243667Y-98492295D01*
X103309004Y-98530017D01*
X103309011Y-98530021D01*
X103385438Y-98550500D01*
X103385440Y-98550500D01*
X103464560Y-98550500D01*
X103464562Y-98550500D01*
X103540989Y-98530021D01*
X103609511Y-98490460D01*
X103665460Y-98434511D01*
X103705021Y-98365989D01*
X103725500Y-98289562D01*
X103725500Y-98210438D01*
X103705021Y-98134011D01*
X103688726Y-98105787D01*
X103688725Y-98105785D01*
X103665468Y-98065501D01*
X103665460Y-98065489D01*
X103665453Y-98065481D01*
X103609517Y-98009545D01*
X103609515Y-98009544D01*
X103609512Y-98009541D01*
X103609504Y-98009535D01*
X103553702Y-97977318D01*
X103541872Y-97970488D01*
X103541050Y-97970004D01*
X103540995Y-97969981D01*
X103540991Y-97969980D01*
X103540990Y-97969979D01*
X103515513Y-97963152D01*
X103515509Y-97963150D01*
X103464563Y-97949500D01*
X103464562Y-97949500D01*
X103385438Y-97949500D01*
X103347224Y-97959739D01*
X103347221Y-97959739D01*
X103309010Y-97969978D01*
X103308939Y-97970008D01*
X103308130Y-97970485D01*
X103240508Y-98009526D01*
X103240483Y-98009544D01*
X103240481Y-98009545D01*
X103184545Y-98065481D01*
X103184544Y-98065483D01*
X103184541Y-98065486D01*
X103184541Y-98065487D01*
X103184540Y-98065489D01*
X103184526Y-98065508D01*
X103145485Y-98133130D01*
X103145010Y-98133936D01*
X103144977Y-98134014D01*
X103144357Y-98136325D01*
X103144355Y-98136334D01*
X103142034Y-98145000D01*
X103124500Y-98210438D01*
X102600000Y-98210438D01*
X102600000Y-95939327D01*
X102602699Y-95913594D01*
X102607987Y-95888675D01*
X102615968Y-95864070D01*
X102693366Y-95689925D01*
X102712139Y-95660051D01*
X102722262Y-95648125D01*
X102780651Y-95609758D01*
X102795011Y-95605382D01*
X102831149Y-95600000D01*
X103680808Y-95600000D01*
X103715740Y-95605021D01*
G37*
%TD.AperFunction*%
%TD*%
%TA.AperFunction,Conductor*%
%TO.N,3.3V_GPS*%
G36*
X105353289Y-96705022D02*
G01*
X105361029Y-96707294D01*
X105374407Y-96711222D01*
X105424977Y-96740394D01*
X105428546Y-96743792D01*
X105437726Y-96759665D01*
X105440205Y-96757886D01*
X105649860Y-97049928D01*
X105649999Y-97050000D01*
X105650000Y-97050000D01*
X106158170Y-97050000D01*
X106193106Y-97055023D01*
X106208104Y-97059427D01*
X106266855Y-97097172D01*
X106268042Y-97098541D01*
X106295518Y-97153402D01*
X106297163Y-97160960D01*
X106300000Y-97187331D01*
X106300000Y-97408170D01*
X106294975Y-97443114D01*
X106290570Y-97458112D01*
X106252827Y-97516855D01*
X106251458Y-97518042D01*
X106196597Y-97545518D01*
X106189039Y-97547163D01*
X106162668Y-97550000D01*
X105800000Y-97550000D01*
X105498791Y-97894237D01*
X105472010Y-97917218D01*
X105450909Y-97930636D01*
X105384371Y-97950000D01*
X105219192Y-97950000D01*
X105184256Y-97944977D01*
X105159014Y-97937565D01*
X105106269Y-97906269D01*
X105048926Y-97848926D01*
X105027774Y-97820670D01*
X105015167Y-97797581D01*
X105000000Y-97738156D01*
X105000000Y-96841829D01*
X105005023Y-96806893D01*
X105009427Y-96791895D01*
X105047172Y-96733144D01*
X105048541Y-96731957D01*
X105103420Y-96704477D01*
X105110979Y-96702833D01*
X105137332Y-96700000D01*
X105318357Y-96700000D01*
X105353289Y-96705022D01*
G37*
%TD.AperFunction*%
%TD*%
%TA.AperFunction,Conductor*%
%TO.N,3.3V_AUX*%
G36*
X102052132Y-92855022D02*
G01*
X102059221Y-92857103D01*
X102072787Y-92861086D01*
X102124015Y-92890889D01*
X102128168Y-92894902D01*
X102137300Y-92910964D01*
X102139685Y-92909308D01*
X102517683Y-93453321D01*
X102533558Y-93485075D01*
X102543706Y-93515701D01*
X102550000Y-93554703D01*
X102550000Y-93800000D01*
X102582142Y-93842856D01*
X102624999Y-93900000D01*
X102625000Y-93900000D01*
X102798489Y-93900000D01*
X102833425Y-93905023D01*
X102865233Y-93914363D01*
X102899185Y-93930236D01*
X102920904Y-93944747D01*
X102922870Y-93945382D01*
X102924148Y-93945819D01*
X102926625Y-93946440D01*
X102926658Y-93946450D01*
X102932766Y-93947051D01*
X102950101Y-93950500D01*
X104669898Y-93950499D01*
X104699213Y-93944669D01*
X104719970Y-93930799D01*
X104751797Y-93915572D01*
X104783449Y-93905662D01*
X104820492Y-93900000D01*
X105356289Y-93900000D01*
X105384778Y-93903317D01*
X105412131Y-93909774D01*
X105439096Y-93919548D01*
X105715226Y-94057613D01*
X105744224Y-94077726D01*
X105756447Y-94089095D01*
X105791629Y-94147277D01*
X105795291Y-94160710D01*
X105799656Y-94193777D01*
X105796302Y-95111262D01*
X105791152Y-95146179D01*
X105786693Y-95161162D01*
X105748706Y-95219800D01*
X105747333Y-95220981D01*
X105692390Y-95248234D01*
X105684825Y-95249851D01*
X105658453Y-95252589D01*
X105091376Y-95250516D01*
X105056460Y-95245366D01*
X105041475Y-95240906D01*
X104982837Y-95202917D01*
X104982834Y-95202915D01*
X104981574Y-95201450D01*
X104954371Y-95146724D01*
X104952785Y-95139367D01*
X104950000Y-95113236D01*
X104950000Y-94649999D01*
X104949999Y-94649998D01*
X104700000Y-94500000D01*
X104617538Y-94500000D01*
X104585445Y-94495775D01*
X104554981Y-94487612D01*
X104525075Y-94475224D01*
X104515989Y-94469978D01*
X104515988Y-94469977D01*
X104490515Y-94463151D01*
X104490515Y-94463152D01*
X104439563Y-94449500D01*
X104439562Y-94449500D01*
X104360438Y-94449500D01*
X104322224Y-94459739D01*
X104322221Y-94459739D01*
X104284011Y-94469978D01*
X104284007Y-94469979D01*
X104274925Y-94475224D01*
X104245018Y-94487612D01*
X104201622Y-94499240D01*
X104200001Y-94499998D01*
X104088889Y-94633332D01*
X103950000Y-94800000D01*
X103950000Y-94800001D01*
X103950000Y-95080808D01*
X103944976Y-95115745D01*
X103937564Y-95140986D01*
X103906269Y-95193730D01*
X103848926Y-95251073D01*
X103820675Y-95272222D01*
X103797587Y-95284830D01*
X103738157Y-95300000D01*
X102692502Y-95300000D01*
X102657561Y-95294975D01*
X102642562Y-95290570D01*
X102583818Y-95252830D01*
X102582748Y-95251596D01*
X102555198Y-95196399D01*
X102553509Y-95188535D01*
X102550746Y-95161835D01*
X102552399Y-94856230D01*
X102552398Y-94856229D01*
X102552397Y-94856228D01*
X102552398Y-94856228D01*
X102477242Y-94855822D01*
X102442334Y-94850610D01*
X102410466Y-94841065D01*
X102410286Y-94841011D01*
X102376976Y-94825328D01*
X102365886Y-94817918D01*
X102361141Y-94814023D01*
X102355730Y-94811132D01*
X102355729Y-94811131D01*
X102297252Y-94799500D01*
X102297250Y-94799500D01*
X101822750Y-94799500D01*
X101822749Y-94799500D01*
X101793509Y-94805316D01*
X101764268Y-94811132D01*
X101750043Y-94820637D01*
X101718207Y-94835867D01*
X101686859Y-94845682D01*
X101649139Y-94851345D01*
X101541159Y-94850762D01*
X101506249Y-94845550D01*
X101491275Y-94841065D01*
X101432703Y-94802973D01*
X101432702Y-94802972D01*
X101431407Y-94801461D01*
X101404321Y-94746792D01*
X101402762Y-94739529D01*
X101400000Y-94713505D01*
X101400000Y-94450000D01*
X100451520Y-93548943D01*
X100429652Y-93521240D01*
X100416727Y-93498948D01*
X100400000Y-93436751D01*
X100400000Y-92991829D01*
X100405023Y-92956893D01*
X100409427Y-92941895D01*
X100447172Y-92883144D01*
X100448541Y-92881957D01*
X100503420Y-92854477D01*
X100510979Y-92852833D01*
X100537332Y-92850000D01*
X102017200Y-92850000D01*
X102052132Y-92855022D01*
G37*
%TD.AperFunction*%
%TD*%
%TA.AperFunction,Conductor*%
%TO.N,/SWDIO*%
G36*
X95943106Y-97605023D02*
G01*
X95958104Y-97609427D01*
X96016855Y-97647172D01*
X96018042Y-97648541D01*
X96037907Y-97692004D01*
X96041363Y-97690908D01*
X96044195Y-97699835D01*
X96045582Y-97708794D01*
X96047087Y-97712087D01*
X96046608Y-97715423D01*
X96050000Y-97737331D01*
X96050000Y-97958170D01*
X96044975Y-97993114D01*
X96040570Y-98008112D01*
X96002827Y-98066855D01*
X96001458Y-98068042D01*
X95946597Y-98095518D01*
X95939039Y-98097163D01*
X95912668Y-98100000D01*
X95691830Y-98100000D01*
X95656889Y-98094975D01*
X95641890Y-98090570D01*
X95583144Y-98052827D01*
X95581957Y-98051458D01*
X95554477Y-97996583D01*
X95552832Y-97989021D01*
X95550000Y-97962668D01*
X95550000Y-97741829D01*
X95555023Y-97706893D01*
X95559427Y-97691895D01*
X95597172Y-97633144D01*
X95598541Y-97631957D01*
X95653420Y-97604477D01*
X95660979Y-97602833D01*
X95687332Y-97600000D01*
X95908170Y-97600000D01*
X95943106Y-97605023D01*
G37*
%TD.AperFunction*%
%TD*%
%TA.AperFunction,Conductor*%
%TO.N,/SWCLK*%
G36*
X95068039Y-97594685D02*
G01*
X95113794Y-97647489D01*
X95125000Y-97699000D01*
X95125000Y-97951000D01*
X95105315Y-98018039D01*
X95052511Y-98063794D01*
X95001000Y-98075000D01*
X94749000Y-98075000D01*
X94681961Y-98055315D01*
X94636206Y-98002511D01*
X94625000Y-97951000D01*
X94625000Y-97699000D01*
X94644685Y-97631961D01*
X94697489Y-97586206D01*
X94749000Y-97575000D01*
X95001000Y-97575000D01*
X95068039Y-97594685D01*
G37*
%TD.AperFunction*%
%TD*%
%TA.AperFunction,Conductor*%
%TO.N,/NRST*%
G36*
X101356099Y-104520302D02*
G01*
X102069725Y-104764306D01*
X102076445Y-104770225D01*
X102077011Y-104779162D01*
X102071092Y-104785882D01*
X102069963Y-104786364D01*
X101355688Y-105047916D01*
X101346741Y-105047542D01*
X101345014Y-105046555D01*
X101080049Y-104863488D01*
X101075191Y-104855966D01*
X101075000Y-104853862D01*
X101075000Y-104745594D01*
X101078427Y-104737321D01*
X101079346Y-104736494D01*
X101344977Y-104522267D01*
X101353567Y-104519742D01*
X101356099Y-104520302D01*
G37*
%TD.AperFunction*%
%TD*%
%TA.AperFunction,Conductor*%
%TO.N,/B_PW*%
G36*
X113381948Y-93049241D02*
G01*
X113382888Y-93050303D01*
X113467709Y-93158742D01*
X113633060Y-93370135D01*
X113635458Y-93378762D01*
X113634995Y-93380886D01*
X113361582Y-94241476D01*
X113355811Y-94248323D01*
X113346888Y-94249084D01*
X113340041Y-94243313D01*
X113339333Y-94241638D01*
X113052237Y-93381701D01*
X113052868Y-93372769D01*
X113054886Y-93369902D01*
X113289865Y-93124779D01*
X113289941Y-93124702D01*
X113365403Y-93049240D01*
X113373675Y-93045814D01*
X113381948Y-93049241D01*
G37*
%TD.AperFunction*%
%TD*%
%TA.AperFunction,Conductor*%
%TO.N,/B1*%
G36*
X107611917Y-93077853D02*
G01*
X107612293Y-93078246D01*
X107878390Y-93370326D01*
X107881428Y-93378750D01*
X107881071Y-93381124D01*
X107660587Y-94237337D01*
X107655206Y-94244494D01*
X107646339Y-94245749D01*
X107639182Y-94240368D01*
X107638161Y-94238129D01*
X107351966Y-93380888D01*
X107352597Y-93371956D01*
X107353770Y-93370075D01*
X107518725Y-93154640D01*
X107519727Y-93153497D01*
X107595372Y-93077852D01*
X107603644Y-93074426D01*
X107611917Y-93077853D01*
G37*
%TD.AperFunction*%
%TD*%
%TA.AperFunction,Conductor*%
%TO.N,Net-(PA1010D1-TX)*%
G36*
X109406738Y-105050889D02*
G01*
X109410332Y-105052378D01*
X109414769Y-105055610D01*
X109742781Y-105441507D01*
X109745002Y-105445496D01*
X109745834Y-105448078D01*
X109745753Y-105455497D01*
X109745604Y-105455927D01*
X109744289Y-105458579D01*
X109361029Y-106034428D01*
X109357803Y-106037664D01*
X109356323Y-106038656D01*
X109347543Y-106040415D01*
X109347539Y-106040414D01*
X109347351Y-106040377D01*
X109347031Y-106040314D01*
X109339582Y-106035346D01*
X109210972Y-105842111D01*
X108956171Y-105459272D01*
X108954435Y-105455059D01*
X108953909Y-105452391D01*
X108954857Y-105445038D01*
X108955059Y-105444623D01*
X108956669Y-105442152D01*
X109284989Y-105055892D01*
X109288562Y-105053062D01*
X109292027Y-105051286D01*
X109297361Y-105050000D01*
X109402263Y-105050000D01*
X109406738Y-105050889D01*
G37*
%TD.AperFunction*%
%TD*%
%TA.AperFunction,Conductor*%
%TO.N,Net-(PA1010D1-RX)*%
G36*
X107812863Y-105053427D02*
G01*
X107813505Y-105054123D01*
X108144289Y-105443281D01*
X108147036Y-105451804D01*
X108145114Y-105457341D01*
X107759740Y-106036365D01*
X107752303Y-106041353D01*
X107743517Y-106039622D01*
X107740260Y-106036365D01*
X107610972Y-105842111D01*
X107354884Y-105457339D01*
X107353154Y-105448555D01*
X107355708Y-105443284D01*
X107686495Y-105054122D01*
X107694464Y-105050038D01*
X107695410Y-105050000D01*
X107804590Y-105050000D01*
X107812863Y-105053427D01*
G37*
%TD.AperFunction*%
%TD*%
M02*
