M48
; DRILL file KiCad 10.0.0 date 2026-05-31T18:54:58
; FORMAT={-:-/ absolute / metric / decimal}
; #@! TF.CreationDate,2026-05-31T18:54:58+02:00
; #@! TF.GenerationSoftware,Kicad,Pcbnew,10.0.0
; #@! TF.FileFunction,Plated,1,6,PTH
FMAT,2
METRIC
; #@! TA.AperFunction,Plated,PTH,ViaDrill
T1C0.300
; #@! TA.AperFunction,Plated,PTH,ComponentDrill
T2C1.000
%
G90
G05
T1
X94.55Y-100.957
X94.55Y-102.757
X94.55Y-103.65
X94.6Y-92.0
X94.6Y-107.9
X94.7Y-93.3
X94.875Y-97.825
X95.05Y-94.51
X95.05Y-96.895
X95.1Y-95.45
X95.13Y-101.98
X95.2Y-98.9
X95.2Y-104.82
X95.35Y-101.48
X95.36Y-100.87
X95.8Y-97.84
X95.9Y-103.55
X96.14Y-102.93
X96.425Y-108.025
X96.5Y-104.2
X96.61Y-95.23
X96.62Y-95.81
X96.7Y-102.2
X96.737Y-96.438
X96.8Y-100.4
X96.85Y-94.1
X97.117Y-99.43
X97.2Y-105.05
X97.25Y-108.05
X97.35Y-94.51
X97.35Y-96.895
X97.4Y-91.95
X97.5Y-93.2
X98.01Y-101.99
X98.087Y-103.662
X98.25Y-108.05
X98.37Y-98.97
X98.67Y-101.98
X98.7Y-101.4
X98.757Y-99.443
X98.8Y-96.2
X98.925Y-105.35
X99.0Y-108.05
X99.7Y-96.3
X99.8Y-108.05
X99.935Y-97.435
X99.97Y-92.0
X100.0Y-106.25
X100.45Y-105.75
X100.5Y-108.05
X100.55Y-106.95
X100.7Y-102.85
X100.8Y-94.692
X100.85Y-96.3
X100.85Y-96.95
X101.05Y-105.75
X101.525Y-98.775
X101.662Y-101.4
X101.7Y-107.0
X101.757Y-103.35
X102.1Y-101.9
X102.115Y-106.0
X102.275Y-99.925
X102.575Y-103.875
X102.657Y-102.6
X102.7Y-100.8
X102.95Y-99.75
X103.15Y-106.9
X103.15Y-107.65
X103.425Y-98.25
X103.425Y-104.22
X103.5Y-99.75
X103.7Y-101.4
X104.145Y-95.457
X104.4Y-94.75
X104.45Y-99.05
X104.5Y-96.35
X104.807Y-98.145
X104.85Y-100.0
X105.0Y-102.975
X105.06Y-99.17
X105.125Y-102.025
X105.15Y-92.5
X105.4Y-95.0
X105.8Y-107.4
X105.875Y-95.825
X105.98Y-98.49
X106.22Y-101.99
X106.25Y-105.27
X106.45Y-93.8
X106.45Y-107.4
X106.55Y-96.625
X106.85Y-106.0
X106.95Y-92.35
X107.399Y-92.85
X107.775Y-104.95
X107.962Y-92.85
X108.0Y-92.05
X108.39Y-103.09
X108.425Y-102.0
X108.55Y-106.025
X108.575Y-105.0
X108.7Y-92.35
X108.7Y-97.9
X108.9Y-100.1
X109.0Y-93.8
X109.275Y-107.925
X109.35Y-96.35
X109.35Y-105.0
X109.85Y-94.3
X110.1Y-96.7
X110.4Y-104.75
X110.65Y-107.4
X110.9Y-101.2
X111.1Y-94.3
X111.251Y-100.351
X111.251Y-102.049
X111.4Y-103.4
X111.85Y-96.7
X112.0Y-97.9
X112.1Y-100.0
X112.1Y-102.4
X112.4Y-95.8
X112.9Y-107.4
X112.949Y-100.351
X112.949Y-102.049
X113.0Y-92.285
X113.0Y-98.7
X113.05Y-92.95
X113.1Y-104.7
X113.15Y-103.2
X113.3Y-101.2
X113.7Y-92.292
X113.85Y-96.35
X114.125Y-94.675
X114.25Y-98.235
X114.25Y-100.435
X114.25Y-102.635
X114.692Y-107.6
X114.9Y-100.45
X115.2Y-92.325
X115.35Y-101.95
X115.45Y-97.108
X115.5Y-104.9
X115.507Y-107.6
X116.0Y-94.37
X116.15Y-92.0
X116.15Y-107.95
T2
X95.5Y-107.0
X96.19Y-93.0
X98.73Y-93.0
X101.27Y-93.0
X103.81Y-93.0
X104.5Y-107.0
M30
