%TF.GenerationSoftware,KiCad,Pcbnew,9.0.0*%
%TF.CreationDate,2025-05-19T12:09:42+02:00*%
%TF.ProjectId,custom_gps,63757374-6f6d-45f6-9770-732e6b696361,rev?*%
%TF.SameCoordinates,Original*%
%TF.FileFunction,Copper,L3,Inr*%
%TF.FilePolarity,Positive*%
%FSLAX46Y46*%
G04 Gerber Fmt 4.6, Leading zero omitted, Abs format (unit mm)*
G04 Created by KiCad (PCBNEW 9.0.0) date 2025-05-19 12:09:42*
%MOMM*%
%LPD*%
G01*
G04 APERTURE LIST*
%TA.AperFunction,ComponentPad*%
%ADD10C,1.150000*%
%TD*%
%TA.AperFunction,ViaPad*%
%ADD11C,0.400000*%
%TD*%
%TA.AperFunction,Conductor*%
%ADD12C,0.100000*%
%TD*%
%TA.AperFunction,Conductor*%
%ADD13C,0.200000*%
%TD*%
%TA.AperFunction,Conductor*%
%ADD14C,0.400000*%
%TD*%
%TA.AperFunction,Conductor*%
%ADD15C,0.300000*%
%TD*%
G04 APERTURE END LIST*
D10*
%TO.N,Net-(Connpa1010d1-RF_ANT)*%
%TO.C,Connpa1010d1*%
X147150000Y-89850000D03*
%TD*%
D11*
%TO.N,TIMEPULSE*%
X142850000Y-91410000D03*
%TO.N,+3.3V*%
X144450000Y-87950000D03*
X149215974Y-92106274D03*
X144900000Y-94300000D03*
X151300000Y-86500000D03*
X151800000Y-86500000D03*
X144950000Y-87950000D03*
X149150000Y-93500000D03*
%TO.N,GND*%
X151750000Y-91825000D03*
X145450000Y-93250000D03*
X151725000Y-88900000D03*
X146900000Y-93850000D03*
X149350000Y-87500000D03*
X148350000Y-87500000D03*
X151700000Y-93325000D03*
X147850000Y-87500000D03*
X149350000Y-88000000D03*
X144400000Y-92301000D03*
X146900000Y-87000000D03*
X146100000Y-89900000D03*
X148850000Y-87500000D03*
X148075000Y-89300000D03*
X146900000Y-91900000D03*
X146900000Y-93100000D03*
X149200000Y-91500000D03*
X149350000Y-90000000D03*
X146100000Y-90400000D03*
X148075000Y-90800000D03*
X151700000Y-87300000D03*
X145225000Y-85775000D03*
X146100000Y-89400000D03*
X149350000Y-88500000D03*
X143750000Y-87350000D03*
X151725000Y-90200000D03*
X151750000Y-95000000D03*
X146100000Y-88405400D03*
X146100000Y-88900000D03*
X143025000Y-89375000D03*
X149350000Y-89500000D03*
X151775000Y-85750000D03*
X151200000Y-92600000D03*
X149350000Y-91000000D03*
X143900000Y-93500000D03*
X142550000Y-94975000D03*
X149350000Y-90500000D03*
X150025000Y-94975000D03*
X148800000Y-91800000D03*
X148400000Y-92100000D03*
X147400000Y-87700000D03*
X146400000Y-88000000D03*
X142575000Y-85750000D03*
X144250000Y-94250000D03*
X148450000Y-94100000D03*
X144475000Y-90400000D03*
X149350000Y-89000000D03*
X148700000Y-93200000D03*
X144400000Y-91300000D03*
X148075000Y-90300000D03*
X147900000Y-92100000D03*
X146900000Y-87900000D03*
X148075000Y-89800000D03*
X151800000Y-92600000D03*
%TO.N,VBACKUP*%
X151200000Y-88100000D03*
X151800000Y-88100000D03*
X149600000Y-94580000D03*
X145592407Y-94492407D03*
%TO.N,SDA*%
X143100000Y-86500000D03*
X142490000Y-91899998D03*
X142500000Y-86500000D03*
%TO.N,RESET*%
X145418052Y-92722674D03*
X151200000Y-94200000D03*
X151800000Y-94200000D03*
%TO.N,SCL*%
X142900000Y-93300002D03*
X143000000Y-87800000D03*
X143000000Y-88500000D03*
%TO.N,RX*%
X142500000Y-94200000D03*
X143000000Y-94200000D03*
%TO.N,EXTINT*%
X151800000Y-91000000D03*
X145900000Y-91300000D03*
X151200000Y-91000000D03*
%TO.N,TX*%
X142500000Y-92600000D03*
X143000000Y-92600000D03*
%TO.N,TIMEPULSE*%
X146400000Y-91300000D03*
%TO.N,Net-(IC1-SAFEBOOT_N)*%
X146150000Y-92300000D03*
X149140000Y-92860000D03*
%TD*%
D12*
%TO.N,SDA*%
X142370000Y-91779998D02*
X142490000Y-91899998D01*
X142370000Y-86880000D02*
X142370000Y-91779998D01*
X142600000Y-86650000D02*
X142370000Y-86880000D01*
D13*
%TO.N,VBACKUP*%
X149600000Y-94555699D02*
X149600000Y-94580000D01*
X149585699Y-94570000D02*
X149590000Y-94570000D01*
X149590000Y-94570000D02*
X149600000Y-94580000D01*
D12*
%TO.N,Net-(IC1-SAFEBOOT_N)*%
X146400000Y-92550000D02*
X148830000Y-92550000D01*
X146150000Y-92300000D02*
X146400000Y-92550000D01*
X148830000Y-92550000D02*
X149140000Y-92860000D01*
D13*
%TO.N,+3.3V*%
X149643726Y-92106274D02*
X149215974Y-92106274D01*
X149700000Y-92050000D02*
X149643726Y-92106274D01*
D14*
X146225000Y-86500000D02*
X151300000Y-86500000D01*
D15*
X145158593Y-94041407D02*
X145841407Y-94041407D01*
X149150000Y-93500000D02*
X149700000Y-92950000D01*
X149838984Y-87961016D02*
X151300000Y-86500000D01*
X149150000Y-94150000D02*
X149150000Y-93500000D01*
D13*
X144950000Y-87950000D02*
X144450000Y-87950000D01*
D15*
X148700000Y-94600000D02*
X149150000Y-94150000D01*
D14*
X144450000Y-87950000D02*
X144775000Y-87950000D01*
D15*
X149700000Y-92050000D02*
X149838984Y-91911016D01*
D14*
X144775000Y-87950000D02*
X146225000Y-86500000D01*
D15*
X144900000Y-94300000D02*
X145158593Y-94041407D01*
X149700000Y-92950000D02*
X149700000Y-92050000D01*
X149838984Y-91911016D02*
X149838984Y-87961016D01*
X146400000Y-94600000D02*
X148700000Y-94600000D01*
X145841407Y-94041407D02*
X146400000Y-94600000D01*
D13*
%TO.N,VBACKUP*%
X151800000Y-88100000D02*
X151200000Y-88100000D01*
D12*
%TO.N,SDA*%
X143100000Y-86500000D02*
X142500000Y-86500000D01*
%TO.N,SCL*%
X143400000Y-88900000D02*
X143400000Y-92800002D01*
X143400000Y-92800002D02*
X142900000Y-93300002D01*
X143000000Y-88500000D02*
X143400000Y-88900000D01*
X143000000Y-88500000D02*
X143000000Y-87800000D01*
%TD*%
%TA.AperFunction,Conductor*%
%TO.N,GND*%
G36*
X152027826Y-85472174D02*
G01*
X152049500Y-85524500D01*
X152049500Y-86168889D01*
X152027826Y-86221215D01*
X151975500Y-86242889D01*
X151938501Y-86232976D01*
X151931790Y-86229102D01*
X151915989Y-86219979D01*
X151915987Y-86219978D01*
X151915985Y-86219977D01*
X151839564Y-86199500D01*
X151839562Y-86199500D01*
X151760438Y-86199500D01*
X151760436Y-86199500D01*
X151684014Y-86219977D01*
X151684009Y-86219979D01*
X151615488Y-86259540D01*
X151602326Y-86272703D01*
X151550000Y-86294377D01*
X151497674Y-86272703D01*
X151484511Y-86259540D01*
X151415990Y-86219979D01*
X151415985Y-86219977D01*
X151339564Y-86199500D01*
X151339562Y-86199500D01*
X146264562Y-86199500D01*
X146185438Y-86199500D01*
X146109012Y-86219978D01*
X146109011Y-86219978D01*
X146109009Y-86219979D01*
X146109007Y-86219980D01*
X146040492Y-86259537D01*
X144672203Y-87627826D01*
X144619877Y-87649500D01*
X144410436Y-87649500D01*
X144334014Y-87669977D01*
X144334009Y-87669979D01*
X144265488Y-87709540D01*
X144209540Y-87765488D01*
X144169979Y-87834009D01*
X144169977Y-87834014D01*
X144149500Y-87910435D01*
X144149500Y-87989564D01*
X144169977Y-88065985D01*
X144169979Y-88065990D01*
X144180181Y-88083660D01*
X144209540Y-88134511D01*
X144265489Y-88190460D01*
X144334011Y-88230021D01*
X144334012Y-88230021D01*
X144334014Y-88230022D01*
X144362497Y-88237654D01*
X144410435Y-88250499D01*
X144410436Y-88250500D01*
X144410438Y-88250500D01*
X144814564Y-88250500D01*
X144829130Y-88246596D01*
X144843345Y-88242787D01*
X144881655Y-88242787D01*
X144895869Y-88246596D01*
X144910436Y-88250500D01*
X144910438Y-88250500D01*
X144989564Y-88250500D01*
X144989564Y-88250499D01*
X145065989Y-88230021D01*
X145134511Y-88190460D01*
X145190460Y-88134511D01*
X145230021Y-88065989D01*
X145250499Y-87989564D01*
X145250500Y-87989564D01*
X145250500Y-87930122D01*
X145272174Y-87877796D01*
X146327797Y-86822174D01*
X146380123Y-86800500D01*
X150466588Y-86800500D01*
X150518914Y-86822174D01*
X150540588Y-86874500D01*
X150518914Y-86926825D01*
X149886198Y-87559540D01*
X149686679Y-87759059D01*
X149626621Y-87819117D01*
X149626618Y-87819121D01*
X149588484Y-87911186D01*
X149588484Y-91776603D01*
X149566810Y-91828929D01*
X149517531Y-91878208D01*
X149465205Y-91899882D01*
X149412879Y-91878208D01*
X149400485Y-91865814D01*
X149331964Y-91826253D01*
X149331959Y-91826251D01*
X149255538Y-91805774D01*
X149255536Y-91805774D01*
X149176412Y-91805774D01*
X149176410Y-91805774D01*
X149099988Y-91826251D01*
X149099983Y-91826253D01*
X149031462Y-91865814D01*
X148975514Y-91921762D01*
X148935953Y-91990283D01*
X148935951Y-91990288D01*
X148915474Y-92066709D01*
X148915474Y-92145838D01*
X148935951Y-92222259D01*
X148935953Y-92222264D01*
X148975514Y-92290785D01*
X148979766Y-92295037D01*
X148985398Y-92308634D01*
X148995806Y-92319041D01*
X148995806Y-92333763D01*
X149001440Y-92347363D01*
X148995808Y-92360959D01*
X148995808Y-92368751D01*
X149027229Y-92355737D01*
X149064227Y-92365650D01*
X149069598Y-92368751D01*
X149099981Y-92386293D01*
X149099985Y-92386295D01*
X149099986Y-92386295D01*
X149099988Y-92386296D01*
X149129785Y-92394280D01*
X149176409Y-92406773D01*
X149176410Y-92406774D01*
X149176412Y-92406774D01*
X149255538Y-92406774D01*
X149255538Y-92406773D01*
X149331963Y-92386295D01*
X149338496Y-92382522D01*
X149357649Y-92379999D01*
X149375500Y-92372606D01*
X149384736Y-92376431D01*
X149394648Y-92375126D01*
X149409976Y-92386886D01*
X149427826Y-92394280D01*
X149431652Y-92403517D01*
X149439583Y-92409602D01*
X149449500Y-92446606D01*
X149449500Y-92565877D01*
X149427826Y-92618203D01*
X149375500Y-92639877D01*
X149329607Y-92620867D01*
X149328360Y-92622493D01*
X149324513Y-92619541D01*
X149255990Y-92579979D01*
X149255985Y-92579977D01*
X149179564Y-92559500D01*
X149179562Y-92559500D01*
X149100438Y-92559500D01*
X149100437Y-92559500D01*
X149095629Y-92560133D01*
X149095283Y-92557505D01*
X149093828Y-92557312D01*
X149084619Y-92561127D01*
X149066741Y-92553722D01*
X149047563Y-92551180D01*
X149032293Y-92539453D01*
X148974903Y-92482063D01*
X148953229Y-92429737D01*
X148961343Y-92410147D01*
X148955762Y-92415729D01*
X148941039Y-92415729D01*
X148927440Y-92421363D01*
X148899125Y-92415732D01*
X148884324Y-92409602D01*
X148877499Y-92406775D01*
X148877497Y-92406773D01*
X148877497Y-92406774D01*
X148859936Y-92399500D01*
X146524500Y-92399500D01*
X146472174Y-92377826D01*
X146450500Y-92325500D01*
X146450500Y-92260436D01*
X146450499Y-92260435D01*
X146430022Y-92184014D01*
X146430020Y-92184009D01*
X146390459Y-92115488D01*
X146334511Y-92059540D01*
X146265990Y-92019979D01*
X146265985Y-92019977D01*
X146189564Y-91999500D01*
X146189562Y-91999500D01*
X146110438Y-91999500D01*
X146110436Y-91999500D01*
X146034014Y-92019977D01*
X146034009Y-92019979D01*
X145965488Y-92059540D01*
X145909540Y-92115488D01*
X145869979Y-92184009D01*
X145869977Y-92184014D01*
X145849500Y-92260435D01*
X145849500Y-92339564D01*
X145869977Y-92415985D01*
X145869979Y-92415990D01*
X145908127Y-92482063D01*
X145909540Y-92484511D01*
X145965489Y-92540460D01*
X146034011Y-92580021D01*
X146034012Y-92580021D01*
X146034014Y-92580022D01*
X146072224Y-92590260D01*
X146110435Y-92600499D01*
X146110436Y-92600500D01*
X146110438Y-92600500D01*
X146189564Y-92600500D01*
X146194373Y-92599867D01*
X146194565Y-92601326D01*
X146198657Y-92599177D01*
X146215384Y-92605230D01*
X146242324Y-92608753D01*
X146252736Y-92616008D01*
X146255325Y-92618164D01*
X146314748Y-92677587D01*
X146328087Y-92683112D01*
X146370064Y-92700500D01*
X148737008Y-92700500D01*
X148789334Y-92722174D01*
X148819453Y-92752293D01*
X148841127Y-92804619D01*
X148839689Y-92815570D01*
X148840133Y-92815629D01*
X148839500Y-92820437D01*
X148839500Y-92899564D01*
X148859977Y-92975985D01*
X148859979Y-92975990D01*
X148899540Y-93044511D01*
X148955489Y-93100460D01*
X148987255Y-93118800D01*
X149021734Y-93163733D01*
X149014342Y-93219885D01*
X148987258Y-93246971D01*
X148965488Y-93259540D01*
X148909540Y-93315488D01*
X148869979Y-93384009D01*
X148869977Y-93384014D01*
X148849500Y-93460435D01*
X148849500Y-93539564D01*
X148869977Y-93615985D01*
X148869979Y-93615990D01*
X148889586Y-93649949D01*
X148899500Y-93686949D01*
X148899500Y-94015587D01*
X148877826Y-94067913D01*
X148617913Y-94327826D01*
X148565587Y-94349500D01*
X146534412Y-94349500D01*
X146482086Y-94327826D01*
X146238274Y-94084014D01*
X145983304Y-93829043D01*
X145983301Y-93829041D01*
X145891235Y-93790907D01*
X145217041Y-93790907D01*
X145217033Y-93790906D01*
X145208421Y-93790906D01*
X145108765Y-93790906D01*
X145043662Y-93817872D01*
X145043660Y-93817873D01*
X145043659Y-93817872D01*
X145016695Y-93829043D01*
X144946228Y-93899511D01*
X144855061Y-93990677D01*
X144821888Y-94009829D01*
X144784014Y-94019977D01*
X144784009Y-94019979D01*
X144715488Y-94059540D01*
X144659540Y-94115488D01*
X144619979Y-94184009D01*
X144619977Y-94184014D01*
X144599500Y-94260435D01*
X144599500Y-94339564D01*
X144619977Y-94415985D01*
X144619979Y-94415990D01*
X144656482Y-94479214D01*
X144659540Y-94484511D01*
X144715489Y-94540460D01*
X144784011Y-94580021D01*
X144784012Y-94580021D01*
X144784014Y-94580022D01*
X144817125Y-94588894D01*
X144860435Y-94600499D01*
X144860436Y-94600500D01*
X144860438Y-94600500D01*
X144939564Y-94600500D01*
X144939564Y-94600499D01*
X145015989Y-94580021D01*
X145084511Y-94540460D01*
X145140460Y-94484511D01*
X145153821Y-94461369D01*
X145198753Y-94426890D01*
X145254906Y-94434282D01*
X145289385Y-94479214D01*
X145291907Y-94498368D01*
X145291907Y-94531971D01*
X145312384Y-94608392D01*
X145312386Y-94608397D01*
X145351947Y-94676918D01*
X145407896Y-94732867D01*
X145476418Y-94772428D01*
X145476419Y-94772428D01*
X145476421Y-94772429D01*
X145514631Y-94782667D01*
X145552842Y-94792906D01*
X145552843Y-94792907D01*
X145552845Y-94792907D01*
X145631971Y-94792907D01*
X145631971Y-94792906D01*
X145708396Y-94772428D01*
X145776918Y-94732867D01*
X145832867Y-94676918D01*
X145872428Y-94608396D01*
X145877654Y-94588892D01*
X145912131Y-94543960D01*
X145968283Y-94536566D01*
X146001458Y-94555719D01*
X146183415Y-94737675D01*
X146183418Y-94737679D01*
X146258102Y-94812363D01*
X146258105Y-94812365D01*
X146304137Y-94831432D01*
X146350172Y-94850500D01*
X146350173Y-94850500D01*
X148749827Y-94850500D01*
X148749828Y-94850500D01*
X148841897Y-94812364D01*
X149173504Y-94480756D01*
X149225829Y-94459083D01*
X149278155Y-94480757D01*
X149299829Y-94533083D01*
X149299500Y-94538115D01*
X149299500Y-94619564D01*
X149319977Y-94695985D01*
X149319979Y-94695990D01*
X149346483Y-94741895D01*
X149359540Y-94764511D01*
X149415489Y-94820460D01*
X149484011Y-94860021D01*
X149484012Y-94860021D01*
X149484014Y-94860022D01*
X149522224Y-94870260D01*
X149560435Y-94880499D01*
X149560436Y-94880500D01*
X149560438Y-94880500D01*
X149639564Y-94880500D01*
X149639564Y-94880499D01*
X149715989Y-94860021D01*
X149784511Y-94820460D01*
X149840460Y-94764511D01*
X149880021Y-94695989D01*
X149900499Y-94619564D01*
X149900500Y-94619564D01*
X149900500Y-94540436D01*
X149900499Y-94540435D01*
X149899877Y-94538115D01*
X149884311Y-94480020D01*
X149880022Y-94464014D01*
X149880020Y-94464009D01*
X149852296Y-94415990D01*
X149840460Y-94395489D01*
X149784511Y-94339540D01*
X149764222Y-94327826D01*
X149715990Y-94299979D01*
X149715985Y-94299977D01*
X149639564Y-94279500D01*
X149639562Y-94279500D01*
X149560438Y-94279500D01*
X149560436Y-94279500D01*
X149488355Y-94298814D01*
X149432202Y-94291422D01*
X149397724Y-94246489D01*
X149400298Y-94207218D01*
X149399078Y-94206976D01*
X149400500Y-94199827D01*
X149400500Y-93686949D01*
X149406133Y-93658631D01*
X149407989Y-93654148D01*
X149430021Y-93615989D01*
X149441426Y-93573422D01*
X149443281Y-93568945D01*
X149448439Y-93563786D01*
X149459320Y-93544939D01*
X149912364Y-93091897D01*
X149950500Y-92999828D01*
X149950500Y-92900173D01*
X149950500Y-92184413D01*
X149972174Y-92132087D01*
X150051347Y-92052914D01*
X150051348Y-92052913D01*
X150089484Y-91960844D01*
X150089484Y-91861188D01*
X150089484Y-88095427D01*
X150111157Y-88043102D01*
X151344938Y-86809320D01*
X151378107Y-86790170D01*
X151415989Y-86780021D01*
X151484511Y-86740460D01*
X151497674Y-86727297D01*
X151550000Y-86705623D01*
X151602326Y-86727297D01*
X151615489Y-86740460D01*
X151661501Y-86767025D01*
X151684007Y-86780019D01*
X151684011Y-86780021D01*
X151684012Y-86780021D01*
X151684014Y-86780022D01*
X151721883Y-86790169D01*
X151760435Y-86800499D01*
X151760436Y-86800500D01*
X151760438Y-86800500D01*
X151839564Y-86800500D01*
X151839564Y-86800499D01*
X151915989Y-86780021D01*
X151915991Y-86780019D01*
X151915993Y-86780019D01*
X151938499Y-86767025D01*
X151994652Y-86759631D01*
X152039585Y-86794109D01*
X152049500Y-86831110D01*
X152049500Y-87768889D01*
X152027826Y-87821215D01*
X151975500Y-87842889D01*
X151938501Y-87832976D01*
X151931790Y-87829102D01*
X151915989Y-87819979D01*
X151915987Y-87819978D01*
X151915985Y-87819977D01*
X151839564Y-87799500D01*
X151839562Y-87799500D01*
X151760438Y-87799500D01*
X151760436Y-87799500D01*
X151684014Y-87819977D01*
X151684009Y-87819979D01*
X151615488Y-87859540D01*
X151597203Y-87877826D01*
X151544877Y-87899500D01*
X151455123Y-87899500D01*
X151402797Y-87877826D01*
X151384511Y-87859540D01*
X151315990Y-87819979D01*
X151315985Y-87819977D01*
X151239564Y-87799500D01*
X151239562Y-87799500D01*
X151160438Y-87799500D01*
X151160436Y-87799500D01*
X151084014Y-87819977D01*
X151084009Y-87819979D01*
X151015488Y-87859540D01*
X150959540Y-87915488D01*
X150919979Y-87984009D01*
X150919977Y-87984014D01*
X150899500Y-88060435D01*
X150899500Y-88139564D01*
X150919977Y-88215985D01*
X150919979Y-88215990D01*
X150943212Y-88256230D01*
X150959540Y-88284511D01*
X151015489Y-88340460D01*
X151061501Y-88367025D01*
X151084007Y-88380019D01*
X151084011Y-88380021D01*
X151084012Y-88380021D01*
X151084014Y-88380022D01*
X151122224Y-88390260D01*
X151160435Y-88400499D01*
X151160436Y-88400500D01*
X151160438Y-88400500D01*
X151239564Y-88400500D01*
X151239564Y-88400499D01*
X151315989Y-88380021D01*
X151384511Y-88340460D01*
X151402797Y-88322174D01*
X151455123Y-88300500D01*
X151544877Y-88300500D01*
X151597203Y-88322174D01*
X151615489Y-88340460D01*
X151661501Y-88367025D01*
X151684007Y-88380019D01*
X151684011Y-88380021D01*
X151684012Y-88380021D01*
X151684014Y-88380022D01*
X151722224Y-88390260D01*
X151760435Y-88400499D01*
X151760436Y-88400500D01*
X151760438Y-88400500D01*
X151839564Y-88400500D01*
X151839564Y-88400499D01*
X151915989Y-88380021D01*
X151915991Y-88380019D01*
X151915993Y-88380019D01*
X151938499Y-88367025D01*
X151994652Y-88359631D01*
X152039585Y-88394109D01*
X152049500Y-88431110D01*
X152049500Y-90668889D01*
X152027826Y-90721215D01*
X151975500Y-90742889D01*
X151938501Y-90732976D01*
X151931790Y-90729102D01*
X151915989Y-90719979D01*
X151915987Y-90719978D01*
X151915985Y-90719977D01*
X151839564Y-90699500D01*
X151839562Y-90699500D01*
X151760438Y-90699500D01*
X151760436Y-90699500D01*
X151684014Y-90719977D01*
X151684009Y-90719979D01*
X151615488Y-90759540D01*
X151559537Y-90815491D01*
X151558706Y-90816575D01*
X151558109Y-90816919D01*
X151556110Y-90818919D01*
X151555574Y-90818383D01*
X151509656Y-90844891D01*
X151454949Y-90830230D01*
X151441294Y-90816575D01*
X151440462Y-90815491D01*
X151384511Y-90759540D01*
X151315990Y-90719979D01*
X151315985Y-90719977D01*
X151239564Y-90699500D01*
X151239562Y-90699500D01*
X151160438Y-90699500D01*
X151160436Y-90699500D01*
X151084014Y-90719977D01*
X151084009Y-90719979D01*
X151015488Y-90759540D01*
X150959540Y-90815488D01*
X150919979Y-90884009D01*
X150919977Y-90884014D01*
X150899500Y-90960435D01*
X150899500Y-91039564D01*
X150919977Y-91115985D01*
X150919979Y-91115990D01*
X150951026Y-91169764D01*
X150959540Y-91184511D01*
X151015489Y-91240460D01*
X151050087Y-91260435D01*
X151084007Y-91280019D01*
X151084011Y-91280021D01*
X151084012Y-91280021D01*
X151084014Y-91280022D01*
X151122224Y-91290260D01*
X151160435Y-91300499D01*
X151160436Y-91300500D01*
X151160438Y-91300500D01*
X151239564Y-91300500D01*
X151239564Y-91300499D01*
X151315989Y-91280021D01*
X151384511Y-91240460D01*
X151440460Y-91184511D01*
X151440463Y-91184504D01*
X151441289Y-91183430D01*
X151441885Y-91183085D01*
X151443890Y-91181081D01*
X151444427Y-91181618D01*
X151490337Y-91155109D01*
X151545045Y-91169764D01*
X151558711Y-91183430D01*
X151559539Y-91184509D01*
X151559540Y-91184511D01*
X151615489Y-91240460D01*
X151650087Y-91260435D01*
X151684007Y-91280019D01*
X151684011Y-91280021D01*
X151684012Y-91280021D01*
X151684014Y-91280022D01*
X151722224Y-91290260D01*
X151760435Y-91300499D01*
X151760436Y-91300500D01*
X151760438Y-91300500D01*
X151839564Y-91300500D01*
X151839564Y-91300499D01*
X151915989Y-91280021D01*
X151915991Y-91280019D01*
X151915993Y-91280019D01*
X151938499Y-91267025D01*
X151994652Y-91259631D01*
X152039585Y-91294109D01*
X152049500Y-91331110D01*
X152049500Y-93868889D01*
X152027826Y-93921215D01*
X151975500Y-93942889D01*
X151938501Y-93932976D01*
X151931790Y-93929102D01*
X151915989Y-93919979D01*
X151915987Y-93919978D01*
X151915985Y-93919977D01*
X151839564Y-93899500D01*
X151839562Y-93899500D01*
X151760438Y-93899500D01*
X151760436Y-93899500D01*
X151684014Y-93919977D01*
X151684009Y-93919979D01*
X151615488Y-93959540D01*
X151559537Y-94015491D01*
X151558706Y-94016575D01*
X151558109Y-94016919D01*
X151556110Y-94018919D01*
X151555574Y-94018383D01*
X151509656Y-94044891D01*
X151454949Y-94030230D01*
X151441294Y-94016575D01*
X151440462Y-94015491D01*
X151384511Y-93959540D01*
X151315990Y-93919979D01*
X151315985Y-93919977D01*
X151239564Y-93899500D01*
X151239562Y-93899500D01*
X151160438Y-93899500D01*
X151160436Y-93899500D01*
X151084014Y-93919977D01*
X151084009Y-93919979D01*
X151015488Y-93959540D01*
X150959540Y-94015488D01*
X150919979Y-94084009D01*
X150919977Y-94084014D01*
X150899500Y-94160435D01*
X150899500Y-94239564D01*
X150919977Y-94315985D01*
X150919979Y-94315990D01*
X150957560Y-94381081D01*
X150959540Y-94384511D01*
X151015489Y-94440460D01*
X151051705Y-94461369D01*
X151084007Y-94480019D01*
X151084011Y-94480021D01*
X151084012Y-94480021D01*
X151084014Y-94480022D01*
X151122224Y-94490260D01*
X151160435Y-94500499D01*
X151160436Y-94500500D01*
X151160438Y-94500500D01*
X151239564Y-94500500D01*
X151239564Y-94500499D01*
X151315989Y-94480021D01*
X151384511Y-94440460D01*
X151440460Y-94384511D01*
X151440463Y-94384504D01*
X151441289Y-94383430D01*
X151441885Y-94383085D01*
X151443890Y-94381081D01*
X151444427Y-94381618D01*
X151490337Y-94355109D01*
X151545045Y-94369764D01*
X151558711Y-94383430D01*
X151559539Y-94384509D01*
X151559540Y-94384511D01*
X151615489Y-94440460D01*
X151651705Y-94461369D01*
X151684007Y-94480019D01*
X151684011Y-94480021D01*
X151684012Y-94480021D01*
X151684014Y-94480022D01*
X151722224Y-94490260D01*
X151760435Y-94500499D01*
X151760436Y-94500500D01*
X151760438Y-94500500D01*
X151839564Y-94500500D01*
X151839564Y-94500499D01*
X151915989Y-94480021D01*
X151915991Y-94480019D01*
X151915993Y-94480019D01*
X151938499Y-94467025D01*
X151994652Y-94459631D01*
X152039585Y-94494109D01*
X152049500Y-94531110D01*
X152049500Y-95175500D01*
X152027826Y-95227826D01*
X151975500Y-95249500D01*
X142324500Y-95249500D01*
X142272174Y-95227826D01*
X142250500Y-95175500D01*
X142250500Y-94531110D01*
X142272174Y-94478784D01*
X142324500Y-94457110D01*
X142361501Y-94467025D01*
X142384006Y-94480019D01*
X142384014Y-94480022D01*
X142422224Y-94490260D01*
X142460435Y-94500499D01*
X142460436Y-94500500D01*
X142460438Y-94500500D01*
X142539564Y-94500500D01*
X142539564Y-94500499D01*
X142615989Y-94480021D01*
X142684511Y-94440460D01*
X142697674Y-94427297D01*
X142750000Y-94405623D01*
X142802326Y-94427297D01*
X142815489Y-94440460D01*
X142851705Y-94461369D01*
X142884007Y-94480019D01*
X142884011Y-94480021D01*
X142884012Y-94480021D01*
X142884014Y-94480022D01*
X142922224Y-94490260D01*
X142960435Y-94500499D01*
X142960436Y-94500500D01*
X142960438Y-94500500D01*
X143039564Y-94500500D01*
X143039564Y-94500499D01*
X143115989Y-94480021D01*
X143184511Y-94440460D01*
X143240460Y-94384511D01*
X143280021Y-94315989D01*
X143300499Y-94239564D01*
X143300500Y-94239564D01*
X143300500Y-94160436D01*
X143300499Y-94160435D01*
X143280022Y-94084014D01*
X143280020Y-94084009D01*
X143257435Y-94044891D01*
X143240460Y-94015489D01*
X143184511Y-93959540D01*
X143115990Y-93919979D01*
X143115985Y-93919977D01*
X143039564Y-93899500D01*
X143039562Y-93899500D01*
X142960438Y-93899500D01*
X142960436Y-93899500D01*
X142884014Y-93919977D01*
X142884009Y-93919979D01*
X142815488Y-93959540D01*
X142802326Y-93972703D01*
X142750000Y-93994377D01*
X142697674Y-93972703D01*
X142684511Y-93959540D01*
X142615990Y-93919979D01*
X142615985Y-93919977D01*
X142539564Y-93899500D01*
X142539562Y-93899500D01*
X142460438Y-93899500D01*
X142460436Y-93899500D01*
X142384014Y-93919977D01*
X142384011Y-93919979D01*
X142361499Y-93932976D01*
X142305346Y-93940367D01*
X142260413Y-93905888D01*
X142250500Y-93868889D01*
X142250500Y-92931110D01*
X142272174Y-92878784D01*
X142324500Y-92857110D01*
X142361501Y-92867025D01*
X142384006Y-92880019D01*
X142384014Y-92880022D01*
X142422224Y-92890260D01*
X142460435Y-92900499D01*
X142460436Y-92900500D01*
X142460438Y-92900500D01*
X142539564Y-92900500D01*
X142539564Y-92900499D01*
X142615989Y-92880021D01*
X142684511Y-92840460D01*
X142697674Y-92827297D01*
X142750000Y-92805623D01*
X142791969Y-92818675D01*
X142797540Y-92822511D01*
X142815489Y-92840460D01*
X142865720Y-92869461D01*
X142868137Y-92871125D01*
X142882063Y-92892611D01*
X142897646Y-92912920D01*
X142897237Y-92916024D01*
X142898941Y-92918653D01*
X142893594Y-92943695D01*
X142890254Y-92969073D01*
X142887769Y-92970979D01*
X142887116Y-92974042D01*
X142865632Y-92987965D01*
X142845322Y-93003551D01*
X142784013Y-93019980D01*
X142784009Y-93019981D01*
X142715488Y-93059542D01*
X142659540Y-93115490D01*
X142619979Y-93184011D01*
X142619977Y-93184016D01*
X142599500Y-93260437D01*
X142599500Y-93339566D01*
X142619977Y-93415987D01*
X142619979Y-93415992D01*
X142645640Y-93460438D01*
X142659540Y-93484513D01*
X142715489Y-93540462D01*
X142784011Y-93580023D01*
X142784012Y-93580023D01*
X142784014Y-93580024D01*
X142822224Y-93590262D01*
X142860435Y-93600501D01*
X142860436Y-93600502D01*
X142860438Y-93600502D01*
X142939564Y-93600502D01*
X142939564Y-93600501D01*
X143015989Y-93580023D01*
X143084511Y-93540462D01*
X143140460Y-93484513D01*
X143180021Y-93415991D01*
X143200499Y-93339566D01*
X143200500Y-93339566D01*
X143200500Y-93260438D01*
X143199867Y-93255629D01*
X143202524Y-93255279D01*
X143208760Y-93207665D01*
X143220541Y-93192299D01*
X143527588Y-92885253D01*
X143539043Y-92857595D01*
X143550500Y-92829938D01*
X143550500Y-92683109D01*
X145117552Y-92683109D01*
X145117552Y-92762238D01*
X145138029Y-92838659D01*
X145138031Y-92838664D01*
X145169178Y-92892611D01*
X145177592Y-92907185D01*
X145233541Y-92963134D01*
X145276550Y-92987965D01*
X145296532Y-92999502D01*
X145302063Y-93002695D01*
X145302064Y-93002695D01*
X145302066Y-93002696D01*
X145340276Y-93012934D01*
X145378487Y-93023173D01*
X145378488Y-93023174D01*
X145378490Y-93023174D01*
X145457616Y-93023174D01*
X145457616Y-93023173D01*
X145534041Y-93002695D01*
X145602563Y-92963134D01*
X145658512Y-92907185D01*
X145698073Y-92838663D01*
X145718551Y-92762238D01*
X145718552Y-92762238D01*
X145718552Y-92683110D01*
X145718551Y-92683109D01*
X145717071Y-92677587D01*
X145698073Y-92606685D01*
X145658512Y-92538163D01*
X145602563Y-92482214D01*
X145602301Y-92482063D01*
X145534042Y-92442653D01*
X145534037Y-92442651D01*
X145457616Y-92422174D01*
X145457614Y-92422174D01*
X145378490Y-92422174D01*
X145378488Y-92422174D01*
X145302066Y-92442651D01*
X145302061Y-92442653D01*
X145233540Y-92482214D01*
X145177592Y-92538162D01*
X145138031Y-92606683D01*
X145138029Y-92606688D01*
X145117552Y-92683109D01*
X143550500Y-92683109D01*
X143550500Y-91260435D01*
X145599500Y-91260435D01*
X145599500Y-91339564D01*
X145619977Y-91415985D01*
X145619979Y-91415990D01*
X145639362Y-91449562D01*
X145659540Y-91484511D01*
X145715489Y-91540460D01*
X145784011Y-91580021D01*
X145784012Y-91580021D01*
X145784014Y-91580022D01*
X145822224Y-91590260D01*
X145860435Y-91600499D01*
X145860436Y-91600500D01*
X145860438Y-91600500D01*
X145939564Y-91600500D01*
X145939564Y-91600499D01*
X146015989Y-91580021D01*
X146084511Y-91540460D01*
X146097674Y-91527297D01*
X146150000Y-91505623D01*
X146202326Y-91527297D01*
X146215489Y-91540460D01*
X146284011Y-91580021D01*
X146284012Y-91580021D01*
X146284014Y-91580022D01*
X146322224Y-91590260D01*
X146360435Y-91600499D01*
X146360436Y-91600500D01*
X146360438Y-91600500D01*
X146439564Y-91600500D01*
X146439564Y-91600499D01*
X146515989Y-91580021D01*
X146584511Y-91540460D01*
X146640460Y-91484511D01*
X146680021Y-91415989D01*
X146700499Y-91339564D01*
X146700500Y-91339564D01*
X146700500Y-91260436D01*
X146700499Y-91260435D01*
X146695146Y-91240459D01*
X146680021Y-91184011D01*
X146679486Y-91183085D01*
X146669420Y-91165649D01*
X146640460Y-91115489D01*
X146584511Y-91059540D01*
X146515990Y-91019979D01*
X146515985Y-91019977D01*
X146439564Y-90999500D01*
X146439562Y-90999500D01*
X146360438Y-90999500D01*
X146360436Y-90999500D01*
X146284014Y-91019977D01*
X146284009Y-91019979D01*
X146215488Y-91059540D01*
X146202326Y-91072703D01*
X146150000Y-91094377D01*
X146097674Y-91072703D01*
X146084511Y-91059540D01*
X146015990Y-91019979D01*
X146015985Y-91019977D01*
X145939564Y-90999500D01*
X145939562Y-90999500D01*
X145860438Y-90999500D01*
X145860436Y-90999500D01*
X145784014Y-91019977D01*
X145784009Y-91019979D01*
X145715488Y-91059540D01*
X145659540Y-91115488D01*
X145619979Y-91184009D01*
X145619977Y-91184014D01*
X145599500Y-91260435D01*
X143550500Y-91260435D01*
X143550500Y-89783469D01*
X146474500Y-89783469D01*
X146474500Y-89916530D01*
X146500458Y-90047031D01*
X146500460Y-90047038D01*
X146551379Y-90169968D01*
X146625304Y-90280605D01*
X146719394Y-90374695D01*
X146830031Y-90448620D01*
X146952961Y-90499539D01*
X146952968Y-90499541D01*
X147019093Y-90512694D01*
X147083469Y-90525500D01*
X147083470Y-90525500D01*
X147216530Y-90525500D01*
X147216531Y-90525500D01*
X147347036Y-90499540D01*
X147469969Y-90448620D01*
X147580606Y-90374695D01*
X147674695Y-90280606D01*
X147748620Y-90169969D01*
X147799540Y-90047036D01*
X147825500Y-89916531D01*
X147825500Y-89783469D01*
X147799540Y-89652964D01*
X147748620Y-89530031D01*
X147674695Y-89419394D01*
X147580606Y-89325305D01*
X147469969Y-89251380D01*
X147469970Y-89251380D01*
X147469968Y-89251379D01*
X147347038Y-89200460D01*
X147347031Y-89200458D01*
X147238085Y-89178787D01*
X147216531Y-89174500D01*
X147083469Y-89174500D01*
X147064970Y-89178179D01*
X146952968Y-89200458D01*
X146952961Y-89200460D01*
X146830031Y-89251379D01*
X146719394Y-89325304D01*
X146719393Y-89325306D01*
X146625306Y-89419393D01*
X146625304Y-89419394D01*
X146551379Y-89530031D01*
X146500460Y-89652961D01*
X146500458Y-89652968D01*
X146474500Y-89783469D01*
X143550500Y-89783469D01*
X143550500Y-88870064D01*
X143527587Y-88814749D01*
X143527587Y-88814748D01*
X143320546Y-88607706D01*
X143298872Y-88555380D01*
X143300315Y-88544433D01*
X143299867Y-88544374D01*
X143300500Y-88539565D01*
X143300500Y-88460436D01*
X143300499Y-88460435D01*
X143280022Y-88384014D01*
X143280020Y-88384009D01*
X143254876Y-88340459D01*
X143240460Y-88315489D01*
X143240459Y-88315488D01*
X143240458Y-88315486D01*
X143184514Y-88259542D01*
X143180662Y-88256587D01*
X143182284Y-88254473D01*
X143181407Y-88253330D01*
X143172174Y-88249506D01*
X143164778Y-88231651D01*
X143153019Y-88216321D01*
X143150500Y-88197180D01*
X143150500Y-88102820D01*
X143172174Y-88050494D01*
X143180938Y-88043769D01*
X143180664Y-88043412D01*
X143184509Y-88040461D01*
X143184508Y-88040461D01*
X143184511Y-88040460D01*
X143240460Y-87984511D01*
X143280021Y-87915989D01*
X143300499Y-87839564D01*
X143300500Y-87839564D01*
X143300500Y-87760436D01*
X143300499Y-87760435D01*
X143297341Y-87748651D01*
X143280021Y-87684011D01*
X143240460Y-87615489D01*
X143184511Y-87559540D01*
X143115990Y-87519979D01*
X143115985Y-87519977D01*
X143039564Y-87499500D01*
X143039562Y-87499500D01*
X142960438Y-87499500D01*
X142960436Y-87499500D01*
X142884014Y-87519977D01*
X142884009Y-87519979D01*
X142815488Y-87559540D01*
X142759540Y-87615488D01*
X142719979Y-87684009D01*
X142719977Y-87684014D01*
X142699500Y-87760435D01*
X142699500Y-87839564D01*
X142719977Y-87915985D01*
X142719979Y-87915990D01*
X142759540Y-87984511D01*
X142815490Y-88040461D01*
X142819336Y-88043412D01*
X142817711Y-88045529D01*
X142818583Y-88046665D01*
X142827826Y-88050494D01*
X142835217Y-88068339D01*
X142846976Y-88083660D01*
X142849500Y-88102820D01*
X142849500Y-88197180D01*
X142827826Y-88249506D01*
X142819064Y-88256230D01*
X142819338Y-88256587D01*
X142815485Y-88259542D01*
X142759541Y-88315486D01*
X142719979Y-88384009D01*
X142719977Y-88384014D01*
X142699500Y-88460435D01*
X142699500Y-88539564D01*
X142719977Y-88615985D01*
X142719979Y-88615990D01*
X142759540Y-88684511D01*
X142815489Y-88740460D01*
X142884011Y-88780021D01*
X142884012Y-88780021D01*
X142884014Y-88780022D01*
X142922224Y-88790260D01*
X142960435Y-88800499D01*
X142960436Y-88800500D01*
X142960438Y-88800500D01*
X143039565Y-88800500D01*
X143044374Y-88799867D01*
X143044723Y-88802519D01*
X143092356Y-88808772D01*
X143107706Y-88820546D01*
X143227826Y-88940665D01*
X143249500Y-88992991D01*
X143249500Y-91224782D01*
X143227826Y-91277108D01*
X143175500Y-91298782D01*
X143123174Y-91277108D01*
X143111414Y-91261782D01*
X143090459Y-91225488D01*
X143034511Y-91169540D01*
X142965990Y-91129979D01*
X142965985Y-91129977D01*
X142889564Y-91109500D01*
X142889562Y-91109500D01*
X142810438Y-91109500D01*
X142810436Y-91109500D01*
X142734014Y-91129977D01*
X142734009Y-91129979D01*
X142665488Y-91169540D01*
X142646826Y-91188203D01*
X142594500Y-91209877D01*
X142542174Y-91188203D01*
X142520500Y-91135877D01*
X142520500Y-86972991D01*
X142542174Y-86920665D01*
X142727586Y-86735253D01*
X142727587Y-86735252D01*
X142738714Y-86708386D01*
X142778760Y-86668338D01*
X142835397Y-86668336D01*
X142859407Y-86684378D01*
X142859540Y-86684511D01*
X142915489Y-86740460D01*
X142961501Y-86767025D01*
X142984007Y-86780019D01*
X142984011Y-86780021D01*
X142984012Y-86780021D01*
X142984014Y-86780022D01*
X143021883Y-86790169D01*
X143060435Y-86800499D01*
X143060436Y-86800500D01*
X143060438Y-86800500D01*
X143139564Y-86800500D01*
X143139564Y-86800499D01*
X143215989Y-86780021D01*
X143284511Y-86740460D01*
X143340460Y-86684511D01*
X143380021Y-86615989D01*
X143400499Y-86539564D01*
X143400500Y-86539564D01*
X143400500Y-86460436D01*
X143400499Y-86460435D01*
X143380022Y-86384014D01*
X143380020Y-86384009D01*
X143357435Y-86344891D01*
X143340460Y-86315489D01*
X143284511Y-86259540D01*
X143284506Y-86259537D01*
X143215990Y-86219979D01*
X143215985Y-86219977D01*
X143139564Y-86199500D01*
X143139562Y-86199500D01*
X143060438Y-86199500D01*
X143060436Y-86199500D01*
X142984014Y-86219977D01*
X142984009Y-86219979D01*
X142915488Y-86259540D01*
X142859537Y-86315491D01*
X142858706Y-86316575D01*
X142858109Y-86316919D01*
X142856110Y-86318919D01*
X142855574Y-86318383D01*
X142809656Y-86344891D01*
X142754949Y-86330230D01*
X142741294Y-86316575D01*
X142740462Y-86315491D01*
X142684511Y-86259540D01*
X142615990Y-86219979D01*
X142615985Y-86219977D01*
X142539564Y-86199500D01*
X142539562Y-86199500D01*
X142460438Y-86199500D01*
X142460436Y-86199500D01*
X142384014Y-86219977D01*
X142384011Y-86219979D01*
X142361499Y-86232976D01*
X142305346Y-86240367D01*
X142260413Y-86205888D01*
X142250500Y-86168889D01*
X142250500Y-85524500D01*
X142272174Y-85472174D01*
X142324500Y-85450500D01*
X151975500Y-85450500D01*
X152027826Y-85472174D01*
G37*
%TD.AperFunction*%
%TD*%
M02*
