%TF.GenerationSoftware,KiCad,Pcbnew,8.0.5*%
%TF.CreationDate,2024-11-08T04:09:32+01:00*%
%TF.ProjectId,hardware v4 pro max,68617264-7761-4726-9520-76342070726f,rev?*%
%TF.SameCoordinates,Original*%
%TF.FileFunction,Copper,L4,Inr*%
%TF.FilePolarity,Positive*%
%FSLAX46Y46*%
G04 Gerber Fmt 4.6, Leading zero omitted, Abs format (unit mm)*
G04 Created by KiCad (PCBNEW 8.0.5) date 2024-11-08 04:09:32*
%MOMM*%
%LPD*%
G01*
G04 APERTURE LIST*
%TA.AperFunction,ComponentPad*%
%ADD10R,1.700000X1.700000*%
%TD*%
%TA.AperFunction,ComponentPad*%
%ADD11O,1.700000X1.700000*%
%TD*%
%TA.AperFunction,ComponentPad*%
%ADD12C,1.000000*%
%TD*%
%TA.AperFunction,ComponentPad*%
%ADD13O,1.800000X1.000000*%
%TD*%
%TA.AperFunction,ComponentPad*%
%ADD14O,2.100000X1.000000*%
%TD*%
%TA.AperFunction,ViaPad*%
%ADD15C,0.400000*%
%TD*%
%TA.AperFunction,Conductor*%
%ADD16C,0.150000*%
%TD*%
G04 APERTURE END LIST*
D10*
%TO.N,GND*%
%TO.C,J3*%
X148570000Y-92965000D03*
D11*
%TO.N,+3.3V*%
X146030000Y-92965000D03*
%TO.N,OLED_SCL*%
X143490000Y-92965000D03*
%TO.N,OLED_SDA*%
X140950000Y-92965000D03*
%TD*%
D12*
%TO.N,GND*%
%TO.C,TP1*%
X127050000Y-108950000D03*
%TD*%
%TO.N,BAT+*%
%TO.C,TP2*%
X127090000Y-106930000D03*
%TD*%
D13*
%TO.N,GND*%
%TO.C,J4*%
X151245000Y-96350000D03*
D14*
X147065000Y-96350000D03*
D13*
X151245000Y-104990000D03*
D14*
X147065000Y-104990000D03*
%TD*%
D15*
%TO.N,Net-(BT1-+)*%
X126950000Y-103730000D03*
%TO.N,GNDGPS*%
X128100000Y-99940000D03*
X126460000Y-102240000D03*
X126990000Y-102240000D03*
X128570000Y-99940000D03*
%TO.N,GND*%
X136350000Y-94160000D03*
X130300000Y-98220000D03*
X150430000Y-98280000D03*
X149090000Y-105540000D03*
X128300000Y-107850000D03*
X136130000Y-102000000D03*
X138350000Y-96890000D03*
X143220000Y-106520000D03*
X149930000Y-103260000D03*
X145260000Y-106520000D03*
X137360000Y-99160000D03*
X137100000Y-94670000D03*
X127780000Y-109600000D03*
X140670000Y-106520000D03*
X151380000Y-106520000D03*
X137450000Y-104820000D03*
X147060000Y-94160000D03*
X129130000Y-101880000D03*
X130030000Y-100950000D03*
X130180000Y-95610000D03*
X133890000Y-103780000D03*
X132880000Y-97160000D03*
X143160000Y-101250000D03*
X142200000Y-106520000D03*
X129820000Y-94635000D03*
X138710000Y-106550000D03*
X138050000Y-104340000D03*
X140570000Y-101920000D03*
X133380000Y-94600000D03*
X126350000Y-109660000D03*
X143000000Y-102920000D03*
X139370000Y-96870000D03*
X138900000Y-91580000D03*
X149340000Y-106520000D03*
X129800000Y-93790000D03*
X132460000Y-100920000D03*
X128710000Y-93790000D03*
X141150000Y-100950000D03*
X138270000Y-106990000D03*
X130330000Y-105260000D03*
X145650000Y-96580000D03*
X151160000Y-103200000D03*
X148640000Y-91490000D03*
X141140000Y-101910000D03*
X136080000Y-108230000D03*
X127950000Y-93890000D03*
X126320000Y-108020000D03*
X133340000Y-105670000D03*
X132400000Y-91890000D03*
X144680000Y-91590000D03*
X133300000Y-102380000D03*
X147810000Y-106520000D03*
X150330000Y-102310000D03*
X138270000Y-109030000D03*
X140090000Y-94190000D03*
X147710000Y-98490000D03*
X148320000Y-106520000D03*
X148830000Y-106520000D03*
X138630000Y-93270000D03*
X142180000Y-95280000D03*
X142710000Y-106520000D03*
X131220000Y-96450000D03*
X147680000Y-102870000D03*
X146790000Y-106520000D03*
X149130000Y-102280000D03*
X150360000Y-106520000D03*
X129140000Y-100990000D03*
X142190000Y-91570000D03*
X140140000Y-98080000D03*
X138270000Y-107500000D03*
X151440000Y-97360000D03*
X131280000Y-91390000D03*
X143730000Y-106520000D03*
X130080000Y-104190000D03*
X129030000Y-104190000D03*
X144040000Y-100990000D03*
X147300000Y-106520000D03*
X150410000Y-97380000D03*
X151750000Y-103830000D03*
X149810000Y-104430000D03*
X138280000Y-98070000D03*
X134280000Y-95700000D03*
X142170000Y-93680000D03*
X144730000Y-94040000D03*
X138270000Y-108010000D03*
X129750000Y-98910000D03*
X147260000Y-91500000D03*
X130110000Y-102970000D03*
X129530000Y-97190000D03*
X141180000Y-106520000D03*
X148790000Y-95740000D03*
X151890000Y-106520000D03*
X133390000Y-104260000D03*
X131300000Y-92060000D03*
X136130000Y-97560000D03*
X134140000Y-105660000D03*
X148580000Y-94560000D03*
X133660000Y-92220000D03*
X133729834Y-93419834D03*
X141690000Y-106520000D03*
X151420000Y-98330000D03*
X144750000Y-106520000D03*
X137500000Y-109660000D03*
X131160000Y-98850000D03*
X136150000Y-100500000D03*
X138270000Y-108520000D03*
X131600000Y-97130000D03*
X138300000Y-99180000D03*
X148310000Y-101990000D03*
X130100000Y-101850000D03*
X132060000Y-103400000D03*
X133350000Y-106610000D03*
X131190000Y-95500000D03*
X138860000Y-92440000D03*
X149850000Y-106520000D03*
X142280000Y-102910000D03*
X144509834Y-97819834D03*
X133360000Y-99280000D03*
X131150000Y-101820000D03*
X144240000Y-106520000D03*
X137430000Y-96900000D03*
X131100000Y-103420000D03*
X149920000Y-92770000D03*
X138270000Y-109540000D03*
X128400000Y-108690000D03*
X139270000Y-106560000D03*
X129130000Y-103010000D03*
X150990000Y-94360000D03*
X149930000Y-95390000D03*
X139380000Y-94050000D03*
X150870000Y-106520000D03*
X135720000Y-93630000D03*
X151640000Y-102310000D03*
X141150000Y-98100000D03*
X143960000Y-94870000D03*
X146280000Y-106520000D03*
X134100000Y-106620000D03*
X137580000Y-101880000D03*
X137110000Y-107710000D03*
X132840000Y-100330000D03*
X145770000Y-106520000D03*
X143440000Y-91560000D03*
X131980000Y-93300000D03*
%TO.N,+3.3V*%
X136520275Y-105883344D03*
X136020388Y-105894068D03*
X127060000Y-95820000D03*
X127549196Y-93250066D03*
X135510000Y-95650000D03*
X135190000Y-96140000D03*
X136750000Y-93180000D03*
X142710000Y-97160000D03*
X143920000Y-104260000D03*
X133960000Y-100270000D03*
X141024490Y-103355427D03*
X143920000Y-104770000D03*
X126680000Y-96780000D03*
X133290000Y-94010000D03*
X126540000Y-95820000D03*
X142720000Y-97620000D03*
X138930000Y-103690000D03*
X137020000Y-106400000D03*
X139780013Y-95341573D03*
X134450000Y-100260000D03*
X137020000Y-105899997D03*
%TO.N,vusb*%
X132260000Y-109150000D03*
X132280000Y-109570000D03*
X145300000Y-105010000D03*
X151650000Y-100330000D03*
X144915000Y-105395000D03*
%TO.N,Net-(SW1-B)*%
X133070000Y-107460000D03*
X133570000Y-107460000D03*
%TO.N,B2*%
X134520000Y-96860000D03*
%TO.N,B1*%
X134510000Y-97430000D03*
%TO.N,Net-(U1-NRST)*%
X134800000Y-93800000D03*
X132750000Y-101580000D03*
X134539999Y-99667215D03*
%TO.N,SPI_MOSi*%
X126460000Y-93020000D03*
X137557500Y-95220000D03*
%TO.N,SPI_SCK*%
X126860000Y-93370000D03*
X134611802Y-101361317D03*
%TO.N,SPI_MISO*%
X136990000Y-103680000D03*
X133360000Y-95680000D03*
%TO.N,SPI_CS*%
X132100000Y-96100000D03*
X136500000Y-94865000D03*
%TO.N,COMPASSDA*%
X142900000Y-104810000D03*
X141478477Y-94897064D03*
X134562492Y-99163252D03*
%TO.N,COMPASSCL*%
X141940251Y-104764958D03*
X134579999Y-98652671D03*
%TO.N,USART_RX*%
X140941084Y-103890141D03*
X142900000Y-95170000D03*
%TO.N,USART_TX*%
X138100000Y-103700000D03*
%TO.N,OLED_SCL*%
X137530000Y-103700000D03*
%TO.N,Net-(J4-CC2)*%
X148760000Y-103100000D03*
%TO.N,Net-(J4-D--PadA7)*%
X147270000Y-99830000D03*
%TO.N,Net-(J4-D+-PadA6)*%
X147240000Y-101400000D03*
%TO.N,Net-(J4-CC1)*%
X148750000Y-98240000D03*
%TO.N,Net-(PA1010D1-RX)*%
X135930000Y-105230000D03*
%TO.N,Net-(PA1010D1-TX)*%
X135850000Y-103720000D03*
%TO.N,ALIMGPS*%
X127990000Y-106030000D03*
X134565416Y-100863471D03*
%TO.N,Net-(R10-Pad1)*%
X126880000Y-91970000D03*
%TO.N,Net-(U1-PA4)*%
X129220000Y-108682498D03*
X135370000Y-103230000D03*
%TO.N,BAT+*%
X130140000Y-107610000D03*
X130130000Y-107060000D03*
%TO.N,SWDIO*%
X137900000Y-93550000D03*
X138930000Y-94610000D03*
%TO.N,SWCLK*%
X137340000Y-93630000D03*
X139230000Y-95280000D03*
%TO.N,SWO*%
X133780000Y-91500000D03*
X138307500Y-95190000D03*
%TO.N,D+*%
X150595000Y-101310000D03*
X140790000Y-95283906D03*
%TO.N,D-*%
X141540000Y-95393267D03*
X150595000Y-99410000D03*
%TO.N,Net-(U1-PB0)*%
X151020000Y-95180000D03*
X143120000Y-100410000D03*
%TO.N,Net-(U1-PB1)*%
X145070000Y-95950000D03*
X143050000Y-99810000D03*
%TD*%
D16*
%TO.N,Net-(U1-NRST)*%
X133782785Y-99667215D02*
X134539999Y-99667215D01*
X133500000Y-99950000D02*
X133782785Y-99667215D01*
X134800000Y-93800000D02*
X133830000Y-94770000D01*
X133830000Y-94770000D02*
X133830000Y-99620000D01*
X133500000Y-100830000D02*
X133500000Y-99950000D01*
X133830000Y-99620000D02*
X133782785Y-99667215D01*
X132750000Y-101580000D02*
X133500000Y-100830000D01*
%TO.N,SPI_CS*%
X133464669Y-92905000D02*
X132100000Y-94269669D01*
X134464669Y-92905000D02*
X133464669Y-92905000D01*
X132100000Y-94269669D02*
X132100000Y-96100000D01*
X136424669Y-94865000D02*
X134464669Y-92905000D01*
X136500000Y-94865000D02*
X136424669Y-94865000D01*
%TO.N,COMPASSDA*%
X142830000Y-104810000D02*
X142500042Y-105139958D01*
X141166404Y-105139958D02*
X140210000Y-104183554D01*
X140622936Y-94897064D02*
X140320000Y-95200000D01*
X140210000Y-104183554D02*
X140210000Y-103303554D01*
X134204999Y-98864999D02*
X134503252Y-99163252D01*
X142500042Y-105139958D02*
X141166404Y-105139958D01*
X141478477Y-94897064D02*
X140622936Y-94897064D01*
X136069698Y-99163252D02*
X134562492Y-99163252D01*
X140085000Y-95770000D02*
X136932339Y-95770000D01*
X140320000Y-95200000D02*
X140320000Y-95535000D01*
X134503252Y-99163252D02*
X134562492Y-99163252D01*
X140320000Y-95535000D02*
X140085000Y-95770000D01*
X140210000Y-103303554D02*
X136069698Y-99163252D01*
X136932339Y-95770000D02*
X134204999Y-98497340D01*
X134204999Y-98497340D02*
X134204999Y-98864999D01*
X142900000Y-104810000D02*
X142830000Y-104810000D01*
%TO.N,COMPASSCL*%
X135570000Y-98660000D02*
X135562671Y-98652671D01*
X135562671Y-98652671D02*
X134579999Y-98652671D01*
X140460000Y-103200000D02*
X135920000Y-98660000D01*
X141144958Y-104764958D02*
X140460000Y-104080000D01*
X140460000Y-104080000D02*
X140460000Y-103200000D01*
X135920000Y-98660000D02*
X135570000Y-98660000D01*
X141940251Y-104764958D02*
X141144958Y-104764958D01*
%TO.N,USART_RX*%
X141220190Y-103890141D02*
X141420000Y-103690331D01*
X142335000Y-101615000D02*
X142335000Y-95735000D01*
X141420000Y-103690331D02*
X141420000Y-102530000D01*
X140941084Y-103890141D02*
X141220190Y-103890141D01*
X141420000Y-102530000D02*
X142335000Y-101615000D01*
X142335000Y-95735000D02*
X142900000Y-95170000D01*
%TO.N,Net-(U1-PB0)*%
X143120000Y-100410000D02*
X143120000Y-100185000D01*
X143205331Y-100185000D02*
X145320000Y-98070331D01*
X143120000Y-100185000D02*
X143205331Y-100185000D01*
X145320000Y-98070331D02*
X145320000Y-97710000D01*
X148970000Y-97230000D02*
X151020000Y-95180000D01*
X145320000Y-97710000D02*
X145800000Y-97230000D01*
X145800000Y-97230000D02*
X148970000Y-97230000D01*
%TO.N,Net-(U1-PB1)*%
X145070000Y-97790000D02*
X145070000Y-95950000D01*
X143050000Y-99810000D02*
X145070000Y-97790000D01*
%TD*%
%TA.AperFunction,Conductor*%
%TO.N,GND*%
G36*
X133419203Y-91190185D02*
G01*
X133464958Y-91242989D01*
X133474902Y-91312147D01*
X133462649Y-91350794D01*
X133442498Y-91390341D01*
X133425131Y-91499997D01*
X133425131Y-91500002D01*
X133442498Y-91609658D01*
X133492904Y-91708585D01*
X133492909Y-91708592D01*
X133571407Y-91787090D01*
X133571410Y-91787092D01*
X133571413Y-91787095D01*
X133670339Y-91837500D01*
X133670341Y-91837501D01*
X133779998Y-91854869D01*
X133780000Y-91854869D01*
X133780002Y-91854869D01*
X133889658Y-91837501D01*
X133889659Y-91837500D01*
X133889661Y-91837500D01*
X133988587Y-91787095D01*
X134067095Y-91708587D01*
X134117500Y-91609661D01*
X134117500Y-91609659D01*
X134117501Y-91609658D01*
X134134869Y-91500002D01*
X134134869Y-91499997D01*
X134117501Y-91390341D01*
X134097351Y-91350794D01*
X134084455Y-91282125D01*
X134110732Y-91217384D01*
X134167839Y-91177128D01*
X134207836Y-91170500D01*
X152125500Y-91170500D01*
X152192539Y-91190185D01*
X152238294Y-91242989D01*
X152249500Y-91294500D01*
X152249500Y-100298970D01*
X152240963Y-100328041D01*
X152248477Y-100345136D01*
X152249500Y-100361029D01*
X152249500Y-106726000D01*
X152229815Y-106793039D01*
X152177011Y-106838794D01*
X152125500Y-106850000D01*
X145171362Y-106850000D01*
X145137306Y-106840000D01*
X145110000Y-106840000D01*
X138570000Y-106840000D01*
X138570000Y-109845500D01*
X138550315Y-109912539D01*
X138497511Y-109958294D01*
X138446000Y-109969500D01*
X132671752Y-109969500D01*
X132604713Y-109949815D01*
X132558958Y-109897011D01*
X132549014Y-109827853D01*
X132564996Y-109788471D01*
X132562664Y-109787283D01*
X132567095Y-109778587D01*
X132617500Y-109679661D01*
X132617500Y-109679659D01*
X132617501Y-109679658D01*
X132634869Y-109570002D01*
X132634869Y-109569997D01*
X132617501Y-109460343D01*
X132617500Y-109460341D01*
X132617500Y-109460339D01*
X132585056Y-109396664D01*
X132572161Y-109327999D01*
X132585056Y-109284081D01*
X132597500Y-109259661D01*
X132614869Y-109150000D01*
X132614869Y-109149997D01*
X132597501Y-109040341D01*
X132586117Y-109017999D01*
X132547095Y-108941413D01*
X132547092Y-108941410D01*
X132547090Y-108941407D01*
X132468592Y-108862909D01*
X132468588Y-108862906D01*
X132468587Y-108862905D01*
X132464743Y-108860946D01*
X132369658Y-108812498D01*
X132260002Y-108795131D01*
X132259998Y-108795131D01*
X132150341Y-108812498D01*
X132051414Y-108862904D01*
X132051407Y-108862909D01*
X131972909Y-108941407D01*
X131972904Y-108941414D01*
X131922498Y-109040341D01*
X131905131Y-109149997D01*
X131905131Y-109150002D01*
X131922498Y-109259658D01*
X131954942Y-109323332D01*
X131967838Y-109392001D01*
X131954942Y-109435920D01*
X131942498Y-109460341D01*
X131925131Y-109569997D01*
X131925131Y-109570002D01*
X131942498Y-109679658D01*
X131997336Y-109787283D01*
X131994344Y-109788807D01*
X132012046Y-109838427D01*
X131996218Y-109906480D01*
X131946109Y-109955172D01*
X131888248Y-109969500D01*
X126174500Y-109969500D01*
X126107461Y-109949815D01*
X126061706Y-109897011D01*
X126050500Y-109845500D01*
X126050500Y-108682495D01*
X128865131Y-108682495D01*
X128865131Y-108682500D01*
X128882498Y-108792156D01*
X128932904Y-108891083D01*
X128932909Y-108891090D01*
X129011407Y-108969588D01*
X129011410Y-108969590D01*
X129011413Y-108969593D01*
X129106416Y-109017999D01*
X129110341Y-109019999D01*
X129219998Y-109037367D01*
X129220000Y-109037367D01*
X129220002Y-109037367D01*
X129329658Y-109019999D01*
X129329659Y-109019998D01*
X129329661Y-109019998D01*
X129428587Y-108969593D01*
X129507095Y-108891085D01*
X129557500Y-108792159D01*
X129557500Y-108792157D01*
X129557501Y-108792156D01*
X129574869Y-108682500D01*
X129574869Y-108682495D01*
X129557501Y-108572839D01*
X129557500Y-108572837D01*
X129507095Y-108473911D01*
X129507092Y-108473908D01*
X129507090Y-108473905D01*
X129428592Y-108395407D01*
X129428588Y-108395404D01*
X129428587Y-108395403D01*
X129424743Y-108393444D01*
X129329658Y-108344996D01*
X129288282Y-108338443D01*
X130644500Y-108338443D01*
X130644500Y-108496556D01*
X130685423Y-108649283D01*
X130685426Y-108649290D01*
X130764475Y-108786209D01*
X130764479Y-108786214D01*
X130764480Y-108786216D01*
X130876284Y-108898020D01*
X130876286Y-108898021D01*
X130876290Y-108898024D01*
X131000253Y-108969593D01*
X131013216Y-108977077D01*
X131165943Y-109018000D01*
X131165945Y-109018000D01*
X131324055Y-109018000D01*
X131324057Y-109018000D01*
X131476784Y-108977077D01*
X131613716Y-108898020D01*
X131725520Y-108786216D01*
X131804577Y-108649284D01*
X131845500Y-108496557D01*
X131845500Y-108338443D01*
X131804577Y-108185716D01*
X131804573Y-108185709D01*
X131725524Y-108048790D01*
X131725518Y-108048782D01*
X131613717Y-107936981D01*
X131613709Y-107936975D01*
X131476790Y-107857926D01*
X131476786Y-107857924D01*
X131476784Y-107857923D01*
X131324057Y-107817000D01*
X131165943Y-107817000D01*
X131013216Y-107857923D01*
X131013209Y-107857926D01*
X130876290Y-107936975D01*
X130876282Y-107936981D01*
X130764481Y-108048782D01*
X130764475Y-108048790D01*
X130685426Y-108185709D01*
X130685423Y-108185716D01*
X130644500Y-108338443D01*
X129288282Y-108338443D01*
X129220002Y-108327629D01*
X129219998Y-108327629D01*
X129110341Y-108344996D01*
X129011414Y-108395402D01*
X129011407Y-108395407D01*
X128932909Y-108473905D01*
X128932904Y-108473912D01*
X128882498Y-108572839D01*
X128865131Y-108682495D01*
X126050500Y-108682495D01*
X126050500Y-106929999D01*
X126434722Y-106929999D01*
X126434722Y-106930000D01*
X126453762Y-107086818D01*
X126502117Y-107214318D01*
X126509780Y-107234523D01*
X126599517Y-107364530D01*
X126717760Y-107469283D01*
X126717762Y-107469284D01*
X126857634Y-107542696D01*
X127011014Y-107580500D01*
X127011015Y-107580500D01*
X127168985Y-107580500D01*
X127322365Y-107542696D01*
X127462240Y-107469283D01*
X127580483Y-107364530D01*
X127670220Y-107234523D01*
X127726237Y-107086818D01*
X127729494Y-107059997D01*
X129775131Y-107059997D01*
X129775131Y-107060002D01*
X129792498Y-107169658D01*
X129842903Y-107268584D01*
X129843899Y-107269954D01*
X129844593Y-107271900D01*
X129847336Y-107277283D01*
X129846640Y-107277637D01*
X129867379Y-107335761D01*
X129854066Y-107399134D01*
X129802498Y-107500341D01*
X129785131Y-107609997D01*
X129785131Y-107610002D01*
X129802498Y-107719658D01*
X129852904Y-107818585D01*
X129852909Y-107818592D01*
X129931407Y-107897090D01*
X129931410Y-107897092D01*
X129931413Y-107897095D01*
X130009692Y-107936980D01*
X130030341Y-107947501D01*
X130139998Y-107964869D01*
X130140000Y-107964869D01*
X130140002Y-107964869D01*
X130249658Y-107947501D01*
X130249659Y-107947500D01*
X130249661Y-107947500D01*
X130348587Y-107897095D01*
X130427095Y-107818587D01*
X130477500Y-107719661D01*
X130477500Y-107719659D01*
X130477501Y-107719658D01*
X130494869Y-107610002D01*
X130494869Y-107609997D01*
X130477501Y-107500341D01*
X130456945Y-107459997D01*
X132715131Y-107459997D01*
X132715131Y-107460002D01*
X132732498Y-107569658D01*
X132782904Y-107668585D01*
X132782909Y-107668592D01*
X132861407Y-107747090D01*
X132861410Y-107747092D01*
X132861413Y-107747095D01*
X132876292Y-107754676D01*
X132960341Y-107797501D01*
X133069998Y-107814869D01*
X133070000Y-107814869D01*
X133070002Y-107814869D01*
X133179656Y-107797501D01*
X133179656Y-107797500D01*
X133179661Y-107797500D01*
X133263710Y-107754675D01*
X133332374Y-107741780D01*
X133376287Y-107754673D01*
X133460339Y-107797500D01*
X133460341Y-107797500D01*
X133460343Y-107797501D01*
X133569998Y-107814869D01*
X133570000Y-107814869D01*
X133570002Y-107814869D01*
X133629491Y-107805446D01*
X133679661Y-107797500D01*
X133679669Y-107797495D01*
X133686305Y-107795340D01*
X133756147Y-107793339D01*
X133815982Y-107829415D01*
X133846815Y-107892114D01*
X133838856Y-107961528D01*
X133812315Y-108000948D01*
X133764481Y-108048782D01*
X133764475Y-108048790D01*
X133685426Y-108185709D01*
X133685423Y-108185716D01*
X133644500Y-108338443D01*
X133644500Y-108496556D01*
X133685423Y-108649283D01*
X133685426Y-108649290D01*
X133764475Y-108786209D01*
X133764479Y-108786214D01*
X133764480Y-108786216D01*
X133876284Y-108898020D01*
X133876286Y-108898021D01*
X133876290Y-108898024D01*
X134000253Y-108969593D01*
X134013216Y-108977077D01*
X134165943Y-109018000D01*
X134165945Y-109018000D01*
X134324055Y-109018000D01*
X134324057Y-109018000D01*
X134476784Y-108977077D01*
X134613716Y-108898020D01*
X134725520Y-108786216D01*
X134804577Y-108649284D01*
X134845500Y-108496557D01*
X134845500Y-108338443D01*
X134804577Y-108185716D01*
X134804573Y-108185709D01*
X134725524Y-108048790D01*
X134725518Y-108048782D01*
X134613717Y-107936981D01*
X134613709Y-107936975D01*
X134476790Y-107857926D01*
X134476786Y-107857924D01*
X134476784Y-107857923D01*
X134324057Y-107817000D01*
X134165943Y-107817000D01*
X134013216Y-107857923D01*
X134013211Y-107857925D01*
X134011535Y-107858893D01*
X134009942Y-107859279D01*
X134005706Y-107861034D01*
X134005432Y-107860373D01*
X133943634Y-107875360D01*
X133877608Y-107852503D01*
X133834422Y-107797578D01*
X133827786Y-107728025D01*
X133853541Y-107678073D01*
X133851356Y-107676486D01*
X133857089Y-107668592D01*
X133857095Y-107668587D01*
X133907500Y-107569661D01*
X133907500Y-107569659D01*
X133907501Y-107569658D01*
X133924869Y-107460002D01*
X133924869Y-107459997D01*
X133907501Y-107350341D01*
X133897137Y-107330000D01*
X133857095Y-107251413D01*
X133857092Y-107251410D01*
X133857090Y-107251407D01*
X133778592Y-107172909D01*
X133778588Y-107172906D01*
X133778587Y-107172905D01*
X133772210Y-107169656D01*
X133679658Y-107122498D01*
X133570002Y-107105131D01*
X133569998Y-107105131D01*
X133460341Y-107122498D01*
X133376294Y-107165323D01*
X133307625Y-107178219D01*
X133263706Y-107165323D01*
X133179658Y-107122498D01*
X133070002Y-107105131D01*
X133069998Y-107105131D01*
X132960341Y-107122498D01*
X132861414Y-107172904D01*
X132861407Y-107172909D01*
X132782909Y-107251407D01*
X132782904Y-107251414D01*
X132732498Y-107350341D01*
X132715131Y-107459997D01*
X130456945Y-107459997D01*
X130427095Y-107401413D01*
X130427089Y-107401407D01*
X130426101Y-107400047D01*
X130425405Y-107398096D01*
X130422664Y-107392717D01*
X130423359Y-107392362D01*
X130402620Y-107334241D01*
X130415933Y-107270864D01*
X130417091Y-107268590D01*
X130417095Y-107268587D01*
X130467500Y-107169661D01*
X130477721Y-107105131D01*
X130484869Y-107060002D01*
X130484869Y-107059997D01*
X130467501Y-106950341D01*
X130457136Y-106929999D01*
X130417095Y-106851413D01*
X130417092Y-106851410D01*
X130417090Y-106851407D01*
X130338592Y-106772909D01*
X130338588Y-106772906D01*
X130338587Y-106772905D01*
X130303189Y-106754869D01*
X130239658Y-106722498D01*
X130130002Y-106705131D01*
X130129998Y-106705131D01*
X130020341Y-106722498D01*
X129921414Y-106772904D01*
X129921407Y-106772909D01*
X129842909Y-106851407D01*
X129842904Y-106851414D01*
X129792498Y-106950341D01*
X129775131Y-107059997D01*
X127729494Y-107059997D01*
X127745278Y-106930000D01*
X127726237Y-106773182D01*
X127726133Y-106772909D01*
X127700429Y-106705131D01*
X127670220Y-106625477D01*
X127580483Y-106495470D01*
X127462240Y-106390717D01*
X127462238Y-106390716D01*
X127462237Y-106390715D01*
X127322365Y-106317303D01*
X127168986Y-106279500D01*
X127168985Y-106279500D01*
X127011015Y-106279500D01*
X127011014Y-106279500D01*
X126857634Y-106317303D01*
X126717762Y-106390715D01*
X126599516Y-106495471D01*
X126509781Y-106625475D01*
X126509780Y-106625476D01*
X126453762Y-106773181D01*
X126434722Y-106929999D01*
X126050500Y-106929999D01*
X126050500Y-106029997D01*
X127635131Y-106029997D01*
X127635131Y-106030002D01*
X127652498Y-106139658D01*
X127702904Y-106238585D01*
X127702909Y-106238592D01*
X127781407Y-106317090D01*
X127781410Y-106317092D01*
X127781413Y-106317095D01*
X127880339Y-106367500D01*
X127880341Y-106367501D01*
X127989998Y-106384869D01*
X127990000Y-106384869D01*
X127990002Y-106384869D01*
X128099658Y-106367501D01*
X128099659Y-106367500D01*
X128099661Y-106367500D01*
X128198587Y-106317095D01*
X128277095Y-106238587D01*
X128327500Y-106139661D01*
X128327500Y-106139659D01*
X128327501Y-106139658D01*
X128344869Y-106030002D01*
X128344869Y-106029997D01*
X128327501Y-105920341D01*
X128314113Y-105894065D01*
X128277095Y-105821413D01*
X128277092Y-105821410D01*
X128277090Y-105821407D01*
X128198592Y-105742909D01*
X128198588Y-105742906D01*
X128198587Y-105742905D01*
X128178166Y-105732500D01*
X128099658Y-105692498D01*
X127990002Y-105675131D01*
X127989998Y-105675131D01*
X127880341Y-105692498D01*
X127781414Y-105742904D01*
X127781407Y-105742909D01*
X127702909Y-105821407D01*
X127702904Y-105821414D01*
X127652498Y-105920341D01*
X127635131Y-106029997D01*
X126050500Y-106029997D01*
X126050500Y-105229997D01*
X135575131Y-105229997D01*
X135575131Y-105230002D01*
X135592498Y-105339658D01*
X135642904Y-105438585D01*
X135642909Y-105438592D01*
X135724264Y-105519947D01*
X135757749Y-105581270D01*
X135752765Y-105650962D01*
X135736907Y-105680506D01*
X135733293Y-105685480D01*
X135682886Y-105784409D01*
X135665519Y-105894065D01*
X135665519Y-105894070D01*
X135682886Y-106003726D01*
X135733292Y-106102653D01*
X135733297Y-106102660D01*
X135811795Y-106181158D01*
X135811798Y-106181160D01*
X135811801Y-106181163D01*
X135861120Y-106206292D01*
X135910729Y-106231569D01*
X136020386Y-106248937D01*
X136020388Y-106248937D01*
X136020390Y-106248937D01*
X136130044Y-106231569D01*
X136130044Y-106231568D01*
X136130049Y-106231568D01*
X136224564Y-106183410D01*
X136293229Y-106170515D01*
X136337143Y-106183409D01*
X136410614Y-106220844D01*
X136410616Y-106220844D01*
X136410618Y-106220845D01*
X136465444Y-106229528D01*
X136520275Y-106238213D01*
X136526566Y-106237216D01*
X136595857Y-106246166D01*
X136649312Y-106291159D01*
X136669956Y-106357909D01*
X136668443Y-106379081D01*
X136665131Y-106399996D01*
X136665131Y-106400002D01*
X136682498Y-106509658D01*
X136732904Y-106608585D01*
X136732909Y-106608592D01*
X136811407Y-106687090D01*
X136811410Y-106687092D01*
X136811413Y-106687095D01*
X136880896Y-106722498D01*
X136910341Y-106737501D01*
X137019998Y-106754869D01*
X137020000Y-106754869D01*
X137020002Y-106754869D01*
X137129658Y-106737501D01*
X137129659Y-106737500D01*
X137129661Y-106737500D01*
X137228587Y-106687095D01*
X137307095Y-106608587D01*
X137357500Y-106509661D01*
X137357500Y-106509659D01*
X137357501Y-106509658D01*
X137374869Y-106400002D01*
X137374869Y-106399997D01*
X137357501Y-106290341D01*
X137314676Y-106206292D01*
X137301780Y-106137623D01*
X137314674Y-106093708D01*
X137357500Y-106009658D01*
X137374869Y-105899997D01*
X137374869Y-105899994D01*
X137357501Y-105790338D01*
X137333332Y-105742904D01*
X137307095Y-105691410D01*
X137307092Y-105691407D01*
X137307090Y-105691404D01*
X137228592Y-105612906D01*
X137228588Y-105612903D01*
X137228587Y-105612902D01*
X137210301Y-105603585D01*
X137129658Y-105562495D01*
X137020002Y-105545128D01*
X137019998Y-105545128D01*
X136910341Y-105562495D01*
X136842773Y-105596923D01*
X136774103Y-105609819D01*
X136730185Y-105596923D01*
X136629933Y-105545842D01*
X136520277Y-105528475D01*
X136520273Y-105528475D01*
X136410615Y-105545843D01*
X136401338Y-105548858D01*
X136400471Y-105546192D01*
X136346773Y-105556269D01*
X136282037Y-105529984D01*
X136241788Y-105472872D01*
X136238805Y-105403066D01*
X136241815Y-105394997D01*
X144560131Y-105394997D01*
X144560131Y-105395002D01*
X144577498Y-105504658D01*
X144627904Y-105603585D01*
X144627909Y-105603592D01*
X144706407Y-105682090D01*
X144706410Y-105682092D01*
X144706413Y-105682095D01*
X144805339Y-105732500D01*
X144805341Y-105732501D01*
X144914998Y-105749869D01*
X144915000Y-105749869D01*
X144915002Y-105749869D01*
X145024658Y-105732501D01*
X145024659Y-105732500D01*
X145024661Y-105732500D01*
X145123587Y-105682095D01*
X145202095Y-105603587D01*
X145252500Y-105504661D01*
X145259895Y-105457968D01*
X145289823Y-105394837D01*
X145349134Y-105357905D01*
X145362955Y-105354897D01*
X145409661Y-105347500D01*
X145508587Y-105297095D01*
X145587095Y-105218587D01*
X145637500Y-105119661D01*
X145637500Y-105119659D01*
X145637501Y-105119658D01*
X145654869Y-105010002D01*
X145654869Y-105009997D01*
X145637501Y-104900341D01*
X145626964Y-104879661D01*
X145587095Y-104801413D01*
X145587092Y-104801410D01*
X145587090Y-104801407D01*
X145508592Y-104722909D01*
X145508588Y-104722906D01*
X145508587Y-104722905D01*
X145504743Y-104720946D01*
X145409658Y-104672498D01*
X145300002Y-104655131D01*
X145299998Y-104655131D01*
X145190341Y-104672498D01*
X145091414Y-104722904D01*
X145091407Y-104722909D01*
X145012909Y-104801407D01*
X145012904Y-104801414D01*
X144962499Y-104900341D01*
X144955104Y-104947030D01*
X144925174Y-105010164D01*
X144865863Y-105047095D01*
X144852030Y-105050104D01*
X144805341Y-105057499D01*
X144706414Y-105107904D01*
X144706407Y-105107909D01*
X144627909Y-105186407D01*
X144627904Y-105186414D01*
X144577498Y-105285341D01*
X144560131Y-105394997D01*
X136241815Y-105394997D01*
X136248678Y-105376599D01*
X136267500Y-105339661D01*
X136280019Y-105260626D01*
X136284869Y-105230002D01*
X136284869Y-105229997D01*
X136267501Y-105120341D01*
X136235482Y-105057500D01*
X136217095Y-105021413D01*
X136217092Y-105021410D01*
X136217090Y-105021407D01*
X136138592Y-104942909D01*
X136138588Y-104942906D01*
X136138587Y-104942905D01*
X136092962Y-104919658D01*
X136039658Y-104892498D01*
X135930002Y-104875131D01*
X135929998Y-104875131D01*
X135820341Y-104892498D01*
X135721414Y-104942904D01*
X135721407Y-104942909D01*
X135642909Y-105021407D01*
X135642904Y-105021414D01*
X135592498Y-105120341D01*
X135575131Y-105229997D01*
X126050500Y-105229997D01*
X126050500Y-103729997D01*
X126595131Y-103729997D01*
X126595131Y-103730002D01*
X126612498Y-103839658D01*
X126662904Y-103938585D01*
X126662909Y-103938592D01*
X126741407Y-104017090D01*
X126741410Y-104017092D01*
X126741413Y-104017095D01*
X126815549Y-104054869D01*
X126840341Y-104067501D01*
X126949998Y-104084869D01*
X126950000Y-104084869D01*
X126950002Y-104084869D01*
X127059658Y-104067501D01*
X127059659Y-104067500D01*
X127059661Y-104067500D01*
X127158587Y-104017095D01*
X127237095Y-103938587D01*
X127287500Y-103839661D01*
X127287500Y-103839659D01*
X127287501Y-103839658D01*
X127304869Y-103730002D01*
X127304869Y-103729997D01*
X127287501Y-103620341D01*
X127270205Y-103586396D01*
X127237095Y-103521413D01*
X127237092Y-103521410D01*
X127237090Y-103521407D01*
X127158592Y-103442909D01*
X127158588Y-103442906D01*
X127158587Y-103442905D01*
X127150112Y-103438587D01*
X127059658Y-103392498D01*
X126950002Y-103375131D01*
X126949998Y-103375131D01*
X126840341Y-103392498D01*
X126741414Y-103442904D01*
X126741407Y-103442909D01*
X126662909Y-103521407D01*
X126662904Y-103521414D01*
X126612498Y-103620341D01*
X126595131Y-103729997D01*
X126050500Y-103729997D01*
X126050500Y-103229997D01*
X135015131Y-103229997D01*
X135015131Y-103230002D01*
X135032498Y-103339658D01*
X135082904Y-103438585D01*
X135082909Y-103438592D01*
X135161407Y-103517090D01*
X135161410Y-103517092D01*
X135161413Y-103517095D01*
X135253497Y-103564014D01*
X135260341Y-103567501D01*
X135369998Y-103584869D01*
X135371348Y-103584869D01*
X135372928Y-103585333D01*
X135379639Y-103586396D01*
X135379501Y-103587263D01*
X135438387Y-103604554D01*
X135484142Y-103657358D01*
X135491746Y-103710241D01*
X135495131Y-103710241D01*
X135495131Y-103720002D01*
X135512498Y-103829658D01*
X135562904Y-103928585D01*
X135562909Y-103928592D01*
X135641407Y-104007090D01*
X135641410Y-104007092D01*
X135641413Y-104007095D01*
X135735175Y-104054869D01*
X135740341Y-104057501D01*
X135849998Y-104074869D01*
X135850000Y-104074869D01*
X135850002Y-104074869D01*
X135959658Y-104057501D01*
X135959659Y-104057500D01*
X135959661Y-104057500D01*
X136058587Y-104007095D01*
X136137095Y-103928587D01*
X136187500Y-103829661D01*
X136187500Y-103829659D01*
X136187501Y-103829658D01*
X136204869Y-103720002D01*
X136204869Y-103719997D01*
X136198534Y-103679997D01*
X136635131Y-103679997D01*
X136635131Y-103680002D01*
X136652498Y-103789658D01*
X136702904Y-103888585D01*
X136702909Y-103888592D01*
X136781407Y-103967090D01*
X136781410Y-103967092D01*
X136781413Y-103967095D01*
X136859908Y-104007090D01*
X136880341Y-104017501D01*
X136989998Y-104034869D01*
X136990000Y-104034869D01*
X136990002Y-104034869D01*
X137099656Y-104017501D01*
X137099656Y-104017500D01*
X137099661Y-104017500D01*
X137186898Y-103973050D01*
X137255566Y-103960155D01*
X137316073Y-103983216D01*
X137321409Y-103987093D01*
X137420341Y-104037501D01*
X137529998Y-104054869D01*
X137530000Y-104054869D01*
X137530002Y-104054869D01*
X137639658Y-104037501D01*
X137639659Y-104037500D01*
X137639661Y-104037500D01*
X137738587Y-103987095D01*
X137738590Y-103987091D01*
X137742116Y-103984531D01*
X137747129Y-103982742D01*
X137747283Y-103982664D01*
X137747293Y-103982683D01*
X137807923Y-103961052D01*
X137875977Y-103976879D01*
X137887884Y-103984531D01*
X137891411Y-103987093D01*
X137891413Y-103987095D01*
X137970713Y-104027500D01*
X137990341Y-104037501D01*
X138099998Y-104054869D01*
X138100000Y-104054869D01*
X138100002Y-104054869D01*
X138209658Y-104037501D01*
X138209659Y-104037500D01*
X138209661Y-104037500D01*
X138308587Y-103987095D01*
X138387095Y-103908587D01*
X138407064Y-103869394D01*
X138455035Y-103818601D01*
X138522855Y-103801805D01*
X138588991Y-103824341D01*
X138628030Y-103869394D01*
X138642905Y-103898587D01*
X138642907Y-103898589D01*
X138642909Y-103898592D01*
X138721407Y-103977090D01*
X138721410Y-103977092D01*
X138721413Y-103977095D01*
X138780282Y-104007090D01*
X138820341Y-104027501D01*
X138929998Y-104044869D01*
X138930000Y-104044869D01*
X138930002Y-104044869D01*
X139039658Y-104027501D01*
X139039659Y-104027500D01*
X139039661Y-104027500D01*
X139138587Y-103977095D01*
X139217095Y-103898587D01*
X139267500Y-103799661D01*
X139267500Y-103799659D01*
X139267501Y-103799658D01*
X139284869Y-103690002D01*
X139284869Y-103689997D01*
X139267501Y-103580341D01*
X139259182Y-103564014D01*
X139217095Y-103481413D01*
X139217092Y-103481410D01*
X139217090Y-103481407D01*
X139138592Y-103402909D01*
X139138588Y-103402906D01*
X139138587Y-103402905D01*
X139098536Y-103382498D01*
X139039658Y-103352498D01*
X138930002Y-103335131D01*
X138929998Y-103335131D01*
X138820341Y-103352498D01*
X138721414Y-103402904D01*
X138721407Y-103402909D01*
X138642909Y-103481407D01*
X138642904Y-103481414D01*
X138622936Y-103520604D01*
X138574962Y-103571399D01*
X138507141Y-103588194D01*
X138441006Y-103565656D01*
X138401967Y-103520602D01*
X138400180Y-103517095D01*
X138387095Y-103491413D01*
X138387090Y-103491407D01*
X138308592Y-103412909D01*
X138308588Y-103412906D01*
X138308587Y-103412905D01*
X138276948Y-103396784D01*
X138209658Y-103362498D01*
X138100002Y-103345131D01*
X138099998Y-103345131D01*
X137990341Y-103362498D01*
X137891412Y-103412905D01*
X137887878Y-103415473D01*
X137882861Y-103417262D01*
X137882717Y-103417336D01*
X137882707Y-103417317D01*
X137822070Y-103438947D01*
X137754017Y-103423117D01*
X137742122Y-103415473D01*
X137738587Y-103412905D01*
X137639658Y-103362498D01*
X137530002Y-103345131D01*
X137529998Y-103345131D01*
X137420342Y-103362498D01*
X137333101Y-103406949D01*
X137264432Y-103419844D01*
X137203927Y-103396784D01*
X137198589Y-103392906D01*
X137099658Y-103342498D01*
X136990002Y-103325131D01*
X136989998Y-103325131D01*
X136880341Y-103342498D01*
X136781414Y-103392904D01*
X136781407Y-103392909D01*
X136702909Y-103471407D01*
X136702904Y-103471414D01*
X136652498Y-103570341D01*
X136635131Y-103679997D01*
X136198534Y-103679997D01*
X136187501Y-103610341D01*
X136183784Y-103603046D01*
X136137095Y-103511413D01*
X136137092Y-103511410D01*
X136137090Y-103511407D01*
X136058592Y-103432909D01*
X136058588Y-103432906D01*
X136058587Y-103432905D01*
X136024375Y-103415473D01*
X135959658Y-103382498D01*
X135850002Y-103365131D01*
X135848652Y-103365131D01*
X135847071Y-103364666D01*
X135840361Y-103363604D01*
X135840498Y-103362736D01*
X135781613Y-103345446D01*
X135735858Y-103292642D01*
X135728254Y-103239759D01*
X135724869Y-103239759D01*
X135724869Y-103229997D01*
X135707501Y-103120341D01*
X135683005Y-103072265D01*
X135657095Y-103021413D01*
X135657092Y-103021410D01*
X135657090Y-103021407D01*
X135578592Y-102942909D01*
X135578588Y-102942906D01*
X135578587Y-102942905D01*
X135574743Y-102940946D01*
X135479658Y-102892498D01*
X135370002Y-102875131D01*
X135369998Y-102875131D01*
X135260341Y-102892498D01*
X135161414Y-102942904D01*
X135161407Y-102942909D01*
X135082909Y-103021407D01*
X135082904Y-103021414D01*
X135032498Y-103120341D01*
X135015131Y-103229997D01*
X126050500Y-103229997D01*
X126050500Y-102624487D01*
X126070185Y-102557448D01*
X126122989Y-102511693D01*
X126192147Y-102501749D01*
X126247382Y-102524167D01*
X126251409Y-102527093D01*
X126350341Y-102577501D01*
X126459998Y-102594869D01*
X126460000Y-102594869D01*
X126460002Y-102594869D01*
X126569656Y-102577501D01*
X126569656Y-102577500D01*
X126569661Y-102577500D01*
X126668587Y-102527095D01*
X126668588Y-102527093D01*
X126668705Y-102527034D01*
X126737375Y-102514138D01*
X126781295Y-102527034D01*
X126781411Y-102527093D01*
X126781413Y-102527095D01*
X126880339Y-102577500D01*
X126880341Y-102577500D01*
X126880343Y-102577501D01*
X126989998Y-102594869D01*
X126990000Y-102594869D01*
X126990002Y-102594869D01*
X127099658Y-102577501D01*
X127099659Y-102577500D01*
X127099661Y-102577500D01*
X127198587Y-102527095D01*
X127277095Y-102448587D01*
X127327500Y-102349661D01*
X127327500Y-102349659D01*
X127327501Y-102349658D01*
X127344869Y-102240002D01*
X127344869Y-102239997D01*
X127327501Y-102130341D01*
X127327500Y-102130339D01*
X127277095Y-102031413D01*
X127277092Y-102031410D01*
X127277090Y-102031407D01*
X127198592Y-101952909D01*
X127198588Y-101952906D01*
X127198587Y-101952905D01*
X127163189Y-101934869D01*
X127099658Y-101902498D01*
X126990002Y-101885131D01*
X126989998Y-101885131D01*
X126880341Y-101902498D01*
X126781294Y-101952965D01*
X126712624Y-101965861D01*
X126668706Y-101952965D01*
X126569658Y-101902498D01*
X126460002Y-101885131D01*
X126459998Y-101885131D01*
X126350341Y-101902498D01*
X126251408Y-101952907D01*
X126247377Y-101955836D01*
X126181568Y-101979310D01*
X126113516Y-101963479D01*
X126064825Y-101913369D01*
X126050500Y-101855512D01*
X126050500Y-99939997D01*
X127745131Y-99939997D01*
X127745131Y-99940002D01*
X127762498Y-100049658D01*
X127812904Y-100148585D01*
X127812909Y-100148592D01*
X127891407Y-100227090D01*
X127891410Y-100227092D01*
X127891413Y-100227095D01*
X127955993Y-100260000D01*
X127990341Y-100277501D01*
X128099998Y-100294869D01*
X128100000Y-100294869D01*
X128100002Y-100294869D01*
X128209656Y-100277501D01*
X128209656Y-100277500D01*
X128209661Y-100277500D01*
X128278709Y-100242318D01*
X128347374Y-100229423D01*
X128391287Y-100242316D01*
X128460339Y-100277500D01*
X128460341Y-100277500D01*
X128460343Y-100277501D01*
X128569998Y-100294869D01*
X128570000Y-100294869D01*
X128570002Y-100294869D01*
X128679658Y-100277501D01*
X128679659Y-100277500D01*
X128679661Y-100277500D01*
X128778587Y-100227095D01*
X128857095Y-100148587D01*
X128907500Y-100049661D01*
X128907500Y-100049659D01*
X128907501Y-100049658D01*
X128909604Y-100036379D01*
X130579500Y-100036379D01*
X130579500Y-100223620D01*
X130616025Y-100407243D01*
X130616027Y-100407251D01*
X130687676Y-100580228D01*
X130687681Y-100580237D01*
X130791697Y-100735907D01*
X130791700Y-100735911D01*
X130924088Y-100868299D01*
X130924092Y-100868302D01*
X131079762Y-100972318D01*
X131079771Y-100972323D01*
X131118956Y-100988554D01*
X131252749Y-101043973D01*
X131393933Y-101072056D01*
X131436379Y-101080499D01*
X131436383Y-101080500D01*
X131436384Y-101080500D01*
X131623617Y-101080500D01*
X131623618Y-101080499D01*
X131807251Y-101043973D01*
X131980231Y-100972322D01*
X132135908Y-100868302D01*
X132268302Y-100735908D01*
X132372322Y-100580231D01*
X132443973Y-100407251D01*
X132480500Y-100223616D01*
X132480500Y-100036384D01*
X132443973Y-99852749D01*
X132372322Y-99679769D01*
X132372321Y-99679768D01*
X132372318Y-99679762D01*
X132268302Y-99524092D01*
X132268299Y-99524088D01*
X132135911Y-99391700D01*
X132135907Y-99391697D01*
X131980237Y-99287681D01*
X131980228Y-99287676D01*
X131807251Y-99216027D01*
X131807243Y-99216025D01*
X131623620Y-99179500D01*
X131623616Y-99179500D01*
X131436384Y-99179500D01*
X131436379Y-99179500D01*
X131252756Y-99216025D01*
X131252748Y-99216027D01*
X131079771Y-99287676D01*
X131079762Y-99287681D01*
X130924092Y-99391697D01*
X130924088Y-99391700D01*
X130791700Y-99524088D01*
X130791697Y-99524092D01*
X130687681Y-99679762D01*
X130687676Y-99679771D01*
X130616027Y-99852748D01*
X130616025Y-99852756D01*
X130579500Y-100036379D01*
X128909604Y-100036379D01*
X128924869Y-99940002D01*
X128924869Y-99939997D01*
X128907501Y-99830341D01*
X128880258Y-99776873D01*
X128857095Y-99731413D01*
X128857092Y-99731410D01*
X128857090Y-99731407D01*
X128778592Y-99652909D01*
X128778588Y-99652906D01*
X128778587Y-99652905D01*
X128725039Y-99625621D01*
X128679658Y-99602498D01*
X128570002Y-99585131D01*
X128569998Y-99585131D01*
X128460341Y-99602498D01*
X128391294Y-99637680D01*
X128322625Y-99650576D01*
X128278706Y-99637680D01*
X128209658Y-99602498D01*
X128100002Y-99585131D01*
X128099998Y-99585131D01*
X127990341Y-99602498D01*
X127891414Y-99652904D01*
X127891407Y-99652909D01*
X127812909Y-99731407D01*
X127812904Y-99731414D01*
X127762498Y-99830341D01*
X127745131Y-99939997D01*
X126050500Y-99939997D01*
X126050500Y-96779997D01*
X126325131Y-96779997D01*
X126325131Y-96780002D01*
X126342498Y-96889658D01*
X126392904Y-96988585D01*
X126392909Y-96988592D01*
X126471407Y-97067090D01*
X126471410Y-97067092D01*
X126471413Y-97067095D01*
X126567850Y-97116232D01*
X126570341Y-97117501D01*
X126679998Y-97134869D01*
X126680000Y-97134869D01*
X126680002Y-97134869D01*
X126789658Y-97117501D01*
X126789659Y-97117500D01*
X126789661Y-97117500D01*
X126888587Y-97067095D01*
X126967095Y-96988587D01*
X127017500Y-96889661D01*
X127017500Y-96889659D01*
X127017501Y-96889658D01*
X127034869Y-96780002D01*
X127034869Y-96779997D01*
X127017501Y-96670341D01*
X126967855Y-96572905D01*
X126967095Y-96571413D01*
X126967092Y-96571410D01*
X126967090Y-96571407D01*
X126888592Y-96492909D01*
X126888588Y-96492906D01*
X126888587Y-96492905D01*
X126813937Y-96454869D01*
X126789658Y-96442498D01*
X126680002Y-96425131D01*
X126679998Y-96425131D01*
X126570341Y-96442498D01*
X126471414Y-96492904D01*
X126471407Y-96492909D01*
X126392909Y-96571407D01*
X126392904Y-96571414D01*
X126342498Y-96670341D01*
X126325131Y-96779997D01*
X126050500Y-96779997D01*
X126050500Y-96125545D01*
X126070185Y-96058506D01*
X126122989Y-96012751D01*
X126192147Y-96002807D01*
X126255703Y-96031832D01*
X126262181Y-96037864D01*
X126331407Y-96107090D01*
X126331410Y-96107092D01*
X126331413Y-96107095D01*
X126430339Y-96157500D01*
X126430341Y-96157501D01*
X126539998Y-96174869D01*
X126540000Y-96174869D01*
X126540002Y-96174869D01*
X126649656Y-96157501D01*
X126649656Y-96157500D01*
X126649661Y-96157500D01*
X126743709Y-96109580D01*
X126812374Y-96096685D01*
X126856288Y-96109578D01*
X126950339Y-96157500D01*
X126950341Y-96157500D01*
X126950343Y-96157501D01*
X127059998Y-96174869D01*
X127060000Y-96174869D01*
X127060002Y-96174869D01*
X127169658Y-96157501D01*
X127169659Y-96157500D01*
X127169661Y-96157500D01*
X127268587Y-96107095D01*
X127275685Y-96099997D01*
X131745131Y-96099997D01*
X131745131Y-96100002D01*
X131762498Y-96209658D01*
X131812904Y-96308585D01*
X131812909Y-96308592D01*
X131891407Y-96387090D01*
X131891410Y-96387092D01*
X131891413Y-96387095D01*
X131969908Y-96427090D01*
X131990341Y-96437501D01*
X132099998Y-96454869D01*
X132100000Y-96454869D01*
X132100002Y-96454869D01*
X132209658Y-96437501D01*
X132209659Y-96437500D01*
X132209661Y-96437500D01*
X132308587Y-96387095D01*
X132387095Y-96308587D01*
X132437500Y-96209661D01*
X132437500Y-96209659D01*
X132437501Y-96209658D01*
X132454869Y-96100002D01*
X132454869Y-96099997D01*
X132437501Y-95990341D01*
X132436053Y-95987500D01*
X132387095Y-95891413D01*
X132387092Y-95891410D01*
X132387090Y-95891407D01*
X132361819Y-95866136D01*
X132328334Y-95804813D01*
X132325500Y-95778455D01*
X132325500Y-94414436D01*
X132345185Y-94347397D01*
X132361819Y-94326755D01*
X132538623Y-94149951D01*
X132727970Y-93960603D01*
X132789291Y-93927120D01*
X132858982Y-93932104D01*
X132914916Y-93973975D01*
X132938122Y-94028888D01*
X132952498Y-94119658D01*
X133002904Y-94218585D01*
X133002909Y-94218592D01*
X133081407Y-94297090D01*
X133081410Y-94297092D01*
X133081413Y-94297095D01*
X133143946Y-94328957D01*
X133180341Y-94347501D01*
X133289998Y-94364869D01*
X133290000Y-94364869D01*
X133290002Y-94364869D01*
X133399658Y-94347501D01*
X133399659Y-94347500D01*
X133399661Y-94347500D01*
X133498587Y-94297095D01*
X133577095Y-94218587D01*
X133627500Y-94119661D01*
X133627500Y-94119659D01*
X133627501Y-94119658D01*
X133644869Y-94010002D01*
X133644869Y-94009997D01*
X133627501Y-93900341D01*
X133627500Y-93900339D01*
X133577095Y-93801413D01*
X133577092Y-93801410D01*
X133577090Y-93801407D01*
X133498592Y-93722909D01*
X133498588Y-93722906D01*
X133498587Y-93722905D01*
X133399661Y-93672500D01*
X133399660Y-93672499D01*
X133399657Y-93672498D01*
X133399658Y-93672498D01*
X133308889Y-93658122D01*
X133245754Y-93628192D01*
X133208823Y-93568881D01*
X133209821Y-93499018D01*
X133240604Y-93447969D01*
X133521756Y-93166819D01*
X133583079Y-93133334D01*
X133609437Y-93130500D01*
X134319902Y-93130500D01*
X134386941Y-93150185D01*
X134407583Y-93166819D01*
X134584859Y-93344095D01*
X134618344Y-93405418D01*
X134613360Y-93475110D01*
X134584860Y-93519457D01*
X134512906Y-93591411D01*
X134512904Y-93591414D01*
X134462498Y-93690341D01*
X134444665Y-93802937D01*
X134414735Y-93866072D01*
X134409873Y-93871220D01*
X133702265Y-94578829D01*
X133638829Y-94642264D01*
X133628774Y-94666537D01*
X133628774Y-94666539D01*
X133619690Y-94688471D01*
X133604499Y-94725143D01*
X133604499Y-94829288D01*
X133604500Y-94829297D01*
X133604500Y-95218670D01*
X133584815Y-95285709D01*
X133532011Y-95331464D01*
X133462853Y-95341408D01*
X133461103Y-95341143D01*
X133360003Y-95325131D01*
X133359998Y-95325131D01*
X133250341Y-95342498D01*
X133151414Y-95392904D01*
X133151407Y-95392909D01*
X133072909Y-95471407D01*
X133072904Y-95471414D01*
X133022498Y-95570341D01*
X133005131Y-95679997D01*
X133005131Y-95680002D01*
X133022498Y-95789658D01*
X133072904Y-95888585D01*
X133072909Y-95888592D01*
X133151407Y-95967090D01*
X133151410Y-95967092D01*
X133151413Y-95967095D01*
X133224248Y-96004206D01*
X133250341Y-96017501D01*
X133359998Y-96034869D01*
X133360000Y-96034869D01*
X133360002Y-96034869D01*
X133461102Y-96018856D01*
X133530395Y-96027810D01*
X133583847Y-96072806D01*
X133604487Y-96139558D01*
X133604500Y-96141329D01*
X133604500Y-99475232D01*
X133584815Y-99542271D01*
X133568181Y-99562913D01*
X133308832Y-99822261D01*
X133308828Y-99822267D01*
X133303291Y-99835636D01*
X133274499Y-99905145D01*
X133274499Y-100009288D01*
X133274500Y-100009297D01*
X133274500Y-100685232D01*
X133254815Y-100752271D01*
X133238181Y-100772913D01*
X132821220Y-101189873D01*
X132759897Y-101223358D01*
X132752937Y-101224665D01*
X132640341Y-101242498D01*
X132541414Y-101292904D01*
X132541407Y-101292909D01*
X132462909Y-101371407D01*
X132462904Y-101371414D01*
X132412498Y-101470341D01*
X132395131Y-101579997D01*
X132395131Y-101580002D01*
X132412498Y-101689658D01*
X132462904Y-101788585D01*
X132462909Y-101788592D01*
X132541407Y-101867090D01*
X132541410Y-101867092D01*
X132541413Y-101867095D01*
X132640339Y-101917500D01*
X132640341Y-101917501D01*
X132749998Y-101934869D01*
X132750000Y-101934869D01*
X132750002Y-101934869D01*
X132859658Y-101917501D01*
X132859659Y-101917500D01*
X132859661Y-101917500D01*
X132958587Y-101867095D01*
X133037095Y-101788587D01*
X133087500Y-101689661D01*
X133087500Y-101689659D01*
X133087501Y-101689658D01*
X133102162Y-101597090D01*
X133104869Y-101580000D01*
X133104869Y-101579997D01*
X133105334Y-101577061D01*
X133135263Y-101513926D01*
X133140108Y-101508795D01*
X133610294Y-101038610D01*
X133610297Y-101038608D01*
X133627735Y-101021170D01*
X133627736Y-101021170D01*
X133691170Y-100957736D01*
X133691170Y-100957734D01*
X133691172Y-100957733D01*
X133708335Y-100916295D01*
X133725500Y-100874855D01*
X133725500Y-100732913D01*
X133745185Y-100665874D01*
X133797989Y-100620119D01*
X133867147Y-100610175D01*
X133868898Y-100610440D01*
X133959998Y-100624869D01*
X133960000Y-100624869D01*
X133960002Y-100624869D01*
X134079300Y-100605974D01*
X134079552Y-100607568D01*
X134138311Y-100605882D01*
X134198149Y-100641954D01*
X134228985Y-100704651D01*
X134229277Y-100745210D01*
X134210547Y-100863468D01*
X134210547Y-100863473D01*
X134227914Y-100973129D01*
X134278320Y-101072056D01*
X134284060Y-101079957D01*
X134281171Y-101082055D01*
X134306060Y-101127636D01*
X134301076Y-101197328D01*
X134295380Y-101210286D01*
X134274300Y-101251658D01*
X134256933Y-101361314D01*
X134256933Y-101361319D01*
X134274300Y-101470975D01*
X134324706Y-101569902D01*
X134324711Y-101569909D01*
X134403209Y-101648407D01*
X134403212Y-101648409D01*
X134403215Y-101648412D01*
X134484171Y-101689661D01*
X134502143Y-101698818D01*
X134611800Y-101716186D01*
X134611802Y-101716186D01*
X134611804Y-101716186D01*
X134721460Y-101698818D01*
X134721461Y-101698817D01*
X134721463Y-101698817D01*
X134820389Y-101648412D01*
X134898897Y-101569904D01*
X134949302Y-101470978D01*
X134949302Y-101470976D01*
X134949303Y-101470975D01*
X134966671Y-101361319D01*
X134966671Y-101361314D01*
X134949303Y-101251658D01*
X134935549Y-101224665D01*
X134898897Y-101152730D01*
X134898894Y-101152727D01*
X134893158Y-101144831D01*
X134896046Y-101142732D01*
X134871157Y-101097151D01*
X134876141Y-101027459D01*
X134881831Y-101014513D01*
X134902916Y-100973132D01*
X134903016Y-100972500D01*
X134920285Y-100863473D01*
X134920285Y-100863468D01*
X134902917Y-100753812D01*
X134898534Y-100745210D01*
X134852511Y-100654884D01*
X134776871Y-100579244D01*
X134743388Y-100517924D01*
X134748372Y-100448232D01*
X134754062Y-100435287D01*
X134787500Y-100369661D01*
X134788868Y-100361029D01*
X134804869Y-100260002D01*
X134804869Y-100259997D01*
X134787501Y-100150343D01*
X134787500Y-100150341D01*
X134787500Y-100150339D01*
X134749096Y-100074967D01*
X134736201Y-100006300D01*
X134762478Y-99941560D01*
X134771885Y-99931010D01*
X134827094Y-99875802D01*
X134877499Y-99776876D01*
X134877499Y-99776874D01*
X134877500Y-99776873D01*
X134894868Y-99667217D01*
X134894868Y-99667212D01*
X134877500Y-99557559D01*
X134877499Y-99557557D01*
X134877499Y-99557554D01*
X134877497Y-99557550D01*
X134875393Y-99551074D01*
X134873396Y-99481233D01*
X134909474Y-99421399D01*
X134972174Y-99390569D01*
X134993323Y-99388752D01*
X135924931Y-99388752D01*
X135991970Y-99408437D01*
X136012612Y-99425071D01*
X139948181Y-103360640D01*
X139981666Y-103421963D01*
X139984500Y-103448321D01*
X139984500Y-104128696D01*
X139984499Y-104128710D01*
X139984499Y-104228409D01*
X139991374Y-104245005D01*
X139991375Y-104245010D01*
X139991376Y-104245010D01*
X140018830Y-104311290D01*
X140099700Y-104392160D01*
X140099706Y-104392165D01*
X140968163Y-105260622D01*
X140968166Y-105260626D01*
X140975234Y-105267694D01*
X141038668Y-105331128D01*
X141059269Y-105339661D01*
X141121550Y-105365459D01*
X141121551Y-105365459D01*
X141225693Y-105365459D01*
X141225701Y-105365458D01*
X142440745Y-105365458D01*
X142440753Y-105365459D01*
X142455187Y-105365459D01*
X142544894Y-105365459D01*
X142544897Y-105365459D01*
X142607177Y-105339661D01*
X142627778Y-105331128D01*
X142691212Y-105267694D01*
X142691212Y-105267693D01*
X142708650Y-105250255D01*
X142708652Y-105250252D01*
X142763849Y-105195054D01*
X142825170Y-105161571D01*
X142870926Y-105160264D01*
X142900000Y-105164869D01*
X142900002Y-105164869D01*
X143009658Y-105147501D01*
X143009659Y-105147500D01*
X143009661Y-105147500D01*
X143108587Y-105097095D01*
X143187095Y-105018587D01*
X143237500Y-104919661D01*
X143237500Y-104919659D01*
X143237501Y-104919658D01*
X143254869Y-104810002D01*
X143254869Y-104809997D01*
X143237501Y-104700341D01*
X143214550Y-104655297D01*
X143187095Y-104601413D01*
X143187092Y-104601410D01*
X143187090Y-104601407D01*
X143108592Y-104522909D01*
X143108588Y-104522906D01*
X143108587Y-104522905D01*
X143102440Y-104519773D01*
X143009658Y-104472498D01*
X142900002Y-104455131D01*
X142899998Y-104455131D01*
X142790341Y-104472498D01*
X142691414Y-104522904D01*
X142691407Y-104522909D01*
X142612909Y-104601407D01*
X142612906Y-104601412D01*
X142612905Y-104601413D01*
X142588182Y-104649933D01*
X142562500Y-104700338D01*
X142557839Y-104729765D01*
X142527908Y-104792899D01*
X142523049Y-104798043D01*
X142502894Y-104818199D01*
X142441572Y-104851686D01*
X142371880Y-104846703D01*
X142315946Y-104804833D01*
X142292738Y-104749918D01*
X142277752Y-104655299D01*
X142234950Y-104571295D01*
X142227346Y-104556371D01*
X142227343Y-104556368D01*
X142227341Y-104556365D01*
X142148843Y-104477867D01*
X142148839Y-104477864D01*
X142148838Y-104477863D01*
X142144994Y-104475904D01*
X142049909Y-104427456D01*
X141940253Y-104410089D01*
X141940249Y-104410089D01*
X141830592Y-104427456D01*
X141731665Y-104477862D01*
X141731658Y-104477867D01*
X141706387Y-104503139D01*
X141645064Y-104536624D01*
X141618706Y-104539458D01*
X141289725Y-104539458D01*
X141222686Y-104519773D01*
X141202044Y-104503139D01*
X141089150Y-104390245D01*
X141055665Y-104328922D01*
X141060594Y-104259997D01*
X143565131Y-104259997D01*
X143565131Y-104260002D01*
X143582498Y-104369658D01*
X143627870Y-104458706D01*
X143640766Y-104527375D01*
X143627870Y-104571294D01*
X143582498Y-104660341D01*
X143565131Y-104769997D01*
X143565131Y-104770002D01*
X143582498Y-104879658D01*
X143632904Y-104978585D01*
X143632909Y-104978592D01*
X143711407Y-105057090D01*
X143711410Y-105057092D01*
X143711413Y-105057095D01*
X143789908Y-105097090D01*
X143810341Y-105107501D01*
X143919998Y-105124869D01*
X143920000Y-105124869D01*
X143920002Y-105124869D01*
X144029658Y-105107501D01*
X144029659Y-105107500D01*
X144029661Y-105107500D01*
X144128587Y-105057095D01*
X144207095Y-104978587D01*
X144257500Y-104879661D01*
X144257500Y-104879659D01*
X144257501Y-104879658D01*
X144274869Y-104770002D01*
X144274869Y-104769997D01*
X144257501Y-104660343D01*
X144257500Y-104660341D01*
X144257500Y-104660339D01*
X144212128Y-104571291D01*
X144199233Y-104502626D01*
X144212127Y-104458710D01*
X144257500Y-104369661D01*
X144263953Y-104328922D01*
X144274869Y-104260002D01*
X144274869Y-104259997D01*
X144257501Y-104150341D01*
X144251568Y-104138696D01*
X144207095Y-104051413D01*
X144207092Y-104051410D01*
X144207090Y-104051407D01*
X144128592Y-103972909D01*
X144128588Y-103972906D01*
X144128587Y-103972905D01*
X144103564Y-103960155D01*
X144029658Y-103922498D01*
X143920002Y-103905131D01*
X143919998Y-103905131D01*
X143810341Y-103922498D01*
X143711414Y-103972904D01*
X143711407Y-103972909D01*
X143632909Y-104051407D01*
X143632904Y-104051414D01*
X143582498Y-104150341D01*
X143565131Y-104259997D01*
X141060594Y-104259997D01*
X141060649Y-104259230D01*
X141102521Y-104203297D01*
X141120526Y-104192085D01*
X141149671Y-104177236D01*
X141149676Y-104177231D01*
X141174947Y-104151961D01*
X141236270Y-104118476D01*
X141262628Y-104115642D01*
X141265044Y-104115642D01*
X141265045Y-104115642D01*
X141335932Y-104086279D01*
X141347926Y-104081311D01*
X141411360Y-104017877D01*
X141411360Y-104017876D01*
X141428798Y-104000438D01*
X141428800Y-104000435D01*
X141530294Y-103898941D01*
X141530297Y-103898939D01*
X141547735Y-103881501D01*
X141547736Y-103881501D01*
X141611170Y-103818067D01*
X141622936Y-103789661D01*
X141645501Y-103735186D01*
X141645501Y-103645476D01*
X141645501Y-103635487D01*
X141645500Y-103635473D01*
X141645500Y-103497399D01*
X147089500Y-103497399D01*
X147089500Y-103622601D01*
X147121905Y-103743536D01*
X147184505Y-103851964D01*
X147273036Y-103940495D01*
X147381464Y-104003095D01*
X147502399Y-104035500D01*
X147502401Y-104035500D01*
X147627599Y-104035500D01*
X147627601Y-104035500D01*
X147748536Y-104003095D01*
X147856964Y-103940495D01*
X147945495Y-103851964D01*
X148008095Y-103743536D01*
X148040500Y-103622601D01*
X148040500Y-103497399D01*
X148008095Y-103376464D01*
X147945495Y-103268036D01*
X147856964Y-103179505D01*
X147748536Y-103116905D01*
X147748537Y-103116905D01*
X147685454Y-103100002D01*
X147685435Y-103099997D01*
X148405131Y-103099997D01*
X148405131Y-103100002D01*
X148422498Y-103209658D01*
X148472904Y-103308585D01*
X148472909Y-103308592D01*
X148551407Y-103387090D01*
X148551410Y-103387092D01*
X148551413Y-103387095D01*
X148610765Y-103417336D01*
X148650341Y-103437501D01*
X148759998Y-103454869D01*
X148760000Y-103454869D01*
X148760002Y-103454869D01*
X148869658Y-103437501D01*
X148869659Y-103437500D01*
X148869661Y-103437500D01*
X148968587Y-103387095D01*
X149047095Y-103308587D01*
X149097500Y-103209661D01*
X149097500Y-103209659D01*
X149097501Y-103209658D01*
X149114869Y-103100002D01*
X149114869Y-103099997D01*
X149097501Y-102990341D01*
X149073331Y-102942904D01*
X149047095Y-102891413D01*
X149047092Y-102891410D01*
X149047090Y-102891407D01*
X148968592Y-102812909D01*
X148968588Y-102812906D01*
X148968587Y-102812905D01*
X148964743Y-102810946D01*
X148869658Y-102762498D01*
X148760002Y-102745131D01*
X148759998Y-102745131D01*
X148650341Y-102762498D01*
X148551414Y-102812904D01*
X148551407Y-102812909D01*
X148472909Y-102891407D01*
X148472904Y-102891414D01*
X148422498Y-102990341D01*
X148405131Y-103099997D01*
X147685435Y-103099997D01*
X147627601Y-103084500D01*
X147502399Y-103084500D01*
X147444546Y-103100002D01*
X147381463Y-103116905D01*
X147273037Y-103179504D01*
X147273034Y-103179506D01*
X147184506Y-103268034D01*
X147184504Y-103268037D01*
X147121905Y-103376463D01*
X147117499Y-103392906D01*
X147089500Y-103497399D01*
X141645500Y-103497399D01*
X141645500Y-102674767D01*
X141665185Y-102607728D01*
X141681819Y-102587086D01*
X142028908Y-102239997D01*
X142526170Y-101742736D01*
X142526170Y-101742734D01*
X142526172Y-101742733D01*
X142549219Y-101687090D01*
X142560500Y-101659855D01*
X142560500Y-101570146D01*
X142560500Y-101399997D01*
X146885131Y-101399997D01*
X146885131Y-101400002D01*
X146902498Y-101509658D01*
X146952904Y-101608585D01*
X146952909Y-101608592D01*
X147031407Y-101687090D01*
X147031410Y-101687092D01*
X147031413Y-101687095D01*
X147088508Y-101716186D01*
X147130341Y-101737501D01*
X147239998Y-101754869D01*
X147240000Y-101754869D01*
X147240002Y-101754869D01*
X147349658Y-101737501D01*
X147349659Y-101737500D01*
X147349661Y-101737500D01*
X147448587Y-101687095D01*
X147527095Y-101608587D01*
X147577500Y-101509661D01*
X147577500Y-101509659D01*
X147577501Y-101509658D01*
X147594869Y-101400002D01*
X147594869Y-101399997D01*
X147580614Y-101309997D01*
X150240131Y-101309997D01*
X150240131Y-101310002D01*
X150257498Y-101419658D01*
X150307904Y-101518585D01*
X150307909Y-101518592D01*
X150386407Y-101597090D01*
X150386410Y-101597092D01*
X150386413Y-101597095D01*
X150485339Y-101647500D01*
X150485341Y-101647501D01*
X150594998Y-101664869D01*
X150595000Y-101664869D01*
X150595002Y-101664869D01*
X150704658Y-101647501D01*
X150704659Y-101647500D01*
X150704661Y-101647500D01*
X150803587Y-101597095D01*
X150882095Y-101518587D01*
X150932500Y-101419661D01*
X150932500Y-101419659D01*
X150932501Y-101419658D01*
X150949869Y-101310002D01*
X150949869Y-101309997D01*
X150932501Y-101200341D01*
X150930966Y-101197328D01*
X150882095Y-101101413D01*
X150882092Y-101101410D01*
X150882090Y-101101407D01*
X150803592Y-101022909D01*
X150803588Y-101022906D01*
X150803587Y-101022905D01*
X150787087Y-101014498D01*
X150704658Y-100972498D01*
X150595002Y-100955131D01*
X150594998Y-100955131D01*
X150485341Y-100972498D01*
X150386414Y-101022904D01*
X150386407Y-101022909D01*
X150307909Y-101101407D01*
X150307904Y-101101414D01*
X150257498Y-101200341D01*
X150240131Y-101309997D01*
X147580614Y-101309997D01*
X147577501Y-101290341D01*
X147544275Y-101225131D01*
X147527095Y-101191413D01*
X147527092Y-101191410D01*
X147527090Y-101191407D01*
X147448592Y-101112909D01*
X147448588Y-101112906D01*
X147448587Y-101112905D01*
X147402065Y-101089201D01*
X147349658Y-101062498D01*
X147240002Y-101045131D01*
X147239998Y-101045131D01*
X147130341Y-101062498D01*
X147031414Y-101112904D01*
X147031407Y-101112909D01*
X146952909Y-101191407D01*
X146952904Y-101191414D01*
X146902498Y-101290341D01*
X146885131Y-101399997D01*
X142560500Y-101399997D01*
X142560500Y-100600457D01*
X142580185Y-100533418D01*
X142632989Y-100487663D01*
X142702147Y-100477719D01*
X142765703Y-100506744D01*
X142794983Y-100544160D01*
X142813360Y-100580228D01*
X142832904Y-100618586D01*
X142832909Y-100618592D01*
X142911407Y-100697090D01*
X142911410Y-100697092D01*
X142911413Y-100697095D01*
X142987594Y-100735911D01*
X143010341Y-100747501D01*
X143119998Y-100764869D01*
X143120000Y-100764869D01*
X143120002Y-100764869D01*
X143229658Y-100747501D01*
X143229659Y-100747500D01*
X143229661Y-100747500D01*
X143328587Y-100697095D01*
X143407095Y-100618587D01*
X143457500Y-100519661D01*
X143457500Y-100519659D01*
X143457501Y-100519658D01*
X143474869Y-100410002D01*
X143474869Y-100409999D01*
X143462197Y-100329997D01*
X151295131Y-100329997D01*
X151295131Y-100330002D01*
X151312498Y-100439658D01*
X151362904Y-100538585D01*
X151362909Y-100538592D01*
X151441407Y-100617090D01*
X151441410Y-100617092D01*
X151441413Y-100617095D01*
X151490202Y-100641954D01*
X151540341Y-100667501D01*
X151649998Y-100684869D01*
X151650000Y-100684869D01*
X151650002Y-100684869D01*
X151759658Y-100667501D01*
X151759659Y-100667500D01*
X151759661Y-100667500D01*
X151858587Y-100617095D01*
X151937095Y-100538587D01*
X151987500Y-100439661D01*
X151987500Y-100439659D01*
X151987501Y-100439658D01*
X152003027Y-100341631D01*
X152006618Y-100334054D01*
X152006523Y-100333905D01*
X152003027Y-100318368D01*
X151987501Y-100220341D01*
X151950943Y-100148592D01*
X151937095Y-100121413D01*
X151937092Y-100121410D01*
X151937090Y-100121407D01*
X151858592Y-100042909D01*
X151858588Y-100042906D01*
X151858587Y-100042905D01*
X151850112Y-100038587D01*
X151759658Y-99992498D01*
X151650002Y-99975131D01*
X151649998Y-99975131D01*
X151540341Y-99992498D01*
X151441414Y-100042904D01*
X151441407Y-100042909D01*
X151362909Y-100121407D01*
X151362904Y-100121414D01*
X151312498Y-100220341D01*
X151295131Y-100329997D01*
X143462197Y-100329997D01*
X143460738Y-100320783D01*
X143469692Y-100251490D01*
X143495527Y-100213707D01*
X143879237Y-99829997D01*
X146915131Y-99829997D01*
X146915131Y-99830002D01*
X146932498Y-99939658D01*
X146982904Y-100038585D01*
X146982909Y-100038592D01*
X147061407Y-100117090D01*
X147061410Y-100117092D01*
X147061413Y-100117095D01*
X147160339Y-100167500D01*
X147160341Y-100167501D01*
X147269998Y-100184869D01*
X147270000Y-100184869D01*
X147270002Y-100184869D01*
X147379658Y-100167501D01*
X147379659Y-100167500D01*
X147379661Y-100167500D01*
X147478587Y-100117095D01*
X147557095Y-100038587D01*
X147607500Y-99939661D01*
X147607500Y-99939659D01*
X147607501Y-99939658D01*
X147624869Y-99830002D01*
X147624869Y-99829997D01*
X147607501Y-99720341D01*
X147607500Y-99720339D01*
X147557095Y-99621413D01*
X147557092Y-99621410D01*
X147557090Y-99621407D01*
X147478592Y-99542909D01*
X147478588Y-99542906D01*
X147478587Y-99542905D01*
X147441664Y-99524092D01*
X147379658Y-99492498D01*
X147270002Y-99475131D01*
X147269998Y-99475131D01*
X147160341Y-99492498D01*
X147061414Y-99542904D01*
X147061407Y-99542909D01*
X146982909Y-99621407D01*
X146982904Y-99621414D01*
X146932498Y-99720341D01*
X146915131Y-99829997D01*
X143879237Y-99829997D01*
X144299237Y-99409997D01*
X150240131Y-99409997D01*
X150240131Y-99410002D01*
X150257498Y-99519658D01*
X150307904Y-99618585D01*
X150307909Y-99618592D01*
X150386407Y-99697090D01*
X150386410Y-99697092D01*
X150386413Y-99697095D01*
X150485339Y-99747500D01*
X150485341Y-99747501D01*
X150594998Y-99764869D01*
X150595000Y-99764869D01*
X150595002Y-99764869D01*
X150704658Y-99747501D01*
X150704659Y-99747500D01*
X150704661Y-99747500D01*
X150803587Y-99697095D01*
X150882095Y-99618587D01*
X150932500Y-99519661D01*
X150932500Y-99519659D01*
X150932501Y-99519658D01*
X150949869Y-99410002D01*
X150949869Y-99409997D01*
X150932501Y-99300341D01*
X150889540Y-99216025D01*
X150882095Y-99201413D01*
X150882092Y-99201410D01*
X150882090Y-99201407D01*
X150803592Y-99122909D01*
X150803588Y-99122906D01*
X150803587Y-99122905D01*
X150799743Y-99120946D01*
X150704658Y-99072498D01*
X150595002Y-99055131D01*
X150594998Y-99055131D01*
X150485341Y-99072498D01*
X150386414Y-99122904D01*
X150386407Y-99122909D01*
X150307909Y-99201407D01*
X150307904Y-99201414D01*
X150257498Y-99300341D01*
X150240131Y-99409997D01*
X144299237Y-99409997D01*
X145430294Y-98278941D01*
X145430297Y-98278939D01*
X145447735Y-98261501D01*
X145447736Y-98261501D01*
X145511170Y-98198067D01*
X145539224Y-98130339D01*
X145539225Y-98130338D01*
X145545499Y-98115189D01*
X145545501Y-98115185D01*
X145545501Y-98025476D01*
X145545501Y-98015487D01*
X145545500Y-98015473D01*
X145545500Y-97854767D01*
X145565185Y-97787728D01*
X145581819Y-97767086D01*
X145857086Y-97491819D01*
X145918409Y-97458334D01*
X145944767Y-97455500D01*
X146998076Y-97455500D01*
X147065115Y-97475185D01*
X147110870Y-97527989D01*
X147120814Y-97597147D01*
X147117851Y-97611591D01*
X147089500Y-97717399D01*
X147089500Y-97842601D01*
X147121905Y-97963536D01*
X147184505Y-98071964D01*
X147273036Y-98160495D01*
X147381464Y-98223095D01*
X147502399Y-98255500D01*
X147502401Y-98255500D01*
X147627599Y-98255500D01*
X147627601Y-98255500D01*
X147685458Y-98239997D01*
X148395131Y-98239997D01*
X148395131Y-98240002D01*
X148412498Y-98349658D01*
X148462904Y-98448585D01*
X148462909Y-98448592D01*
X148541407Y-98527090D01*
X148541410Y-98527092D01*
X148541413Y-98527095D01*
X148585790Y-98549706D01*
X148640341Y-98577501D01*
X148749998Y-98594869D01*
X148750000Y-98594869D01*
X148750002Y-98594869D01*
X148859658Y-98577501D01*
X148859659Y-98577500D01*
X148859661Y-98577500D01*
X148958587Y-98527095D01*
X149037095Y-98448587D01*
X149087500Y-98349661D01*
X149087500Y-98349659D01*
X149087501Y-98349658D01*
X149104869Y-98240002D01*
X149104869Y-98239997D01*
X149087500Y-98130340D01*
X149087500Y-98130339D01*
X149057757Y-98071965D01*
X149037095Y-98031413D01*
X149037092Y-98031410D01*
X149037090Y-98031407D01*
X148958592Y-97952909D01*
X148958588Y-97952906D01*
X148958587Y-97952905D01*
X148942519Y-97944718D01*
X148859658Y-97902498D01*
X148750002Y-97885131D01*
X148749998Y-97885131D01*
X148640341Y-97902498D01*
X148541414Y-97952904D01*
X148541407Y-97952909D01*
X148462909Y-98031407D01*
X148462904Y-98031414D01*
X148412500Y-98130339D01*
X148412499Y-98130340D01*
X148395131Y-98239997D01*
X147685458Y-98239997D01*
X147748536Y-98223095D01*
X147856964Y-98160495D01*
X147945495Y-98071964D01*
X148008095Y-97963536D01*
X148040500Y-97842601D01*
X148040500Y-97717399D01*
X148012149Y-97611593D01*
X148013812Y-97541744D01*
X148052974Y-97483881D01*
X148117203Y-97456377D01*
X148131924Y-97455500D01*
X148910703Y-97455500D01*
X148910711Y-97455501D01*
X148925145Y-97455501D01*
X149014852Y-97455501D01*
X149014855Y-97455501D01*
X149076418Y-97430000D01*
X149097736Y-97421170D01*
X149161170Y-97357736D01*
X149161170Y-97357735D01*
X149178608Y-97340297D01*
X149178610Y-97340294D01*
X150948779Y-95570124D01*
X151010100Y-95536641D01*
X151017061Y-95535334D01*
X151019998Y-95534868D01*
X151020000Y-95534869D01*
X151079872Y-95525386D01*
X151129658Y-95517501D01*
X151129659Y-95517500D01*
X151129661Y-95517500D01*
X151228587Y-95467095D01*
X151307095Y-95388587D01*
X151357500Y-95289661D01*
X151357500Y-95289659D01*
X151357501Y-95289658D01*
X151374869Y-95180002D01*
X151374869Y-95179997D01*
X151357501Y-95070341D01*
X151347104Y-95049936D01*
X151307095Y-94971413D01*
X151307092Y-94971410D01*
X151307090Y-94971407D01*
X151228592Y-94892909D01*
X151228588Y-94892906D01*
X151228587Y-94892905D01*
X151208162Y-94882498D01*
X151129658Y-94842498D01*
X151020002Y-94825131D01*
X151019998Y-94825131D01*
X150910341Y-94842498D01*
X150811414Y-94892904D01*
X150811407Y-94892909D01*
X150732909Y-94971407D01*
X150732904Y-94971414D01*
X150682498Y-95070341D01*
X150664665Y-95182937D01*
X150634735Y-95246072D01*
X150629873Y-95251220D01*
X148912914Y-96968181D01*
X148851591Y-97001666D01*
X148825233Y-97004500D01*
X145859297Y-97004500D01*
X145859289Y-97004499D01*
X145844855Y-97004499D01*
X145755146Y-97004499D01*
X145755144Y-97004499D01*
X145755142Y-97004500D01*
X145706594Y-97024609D01*
X145672265Y-97038828D01*
X145644004Y-97067090D01*
X145608830Y-97102264D01*
X145507181Y-97203913D01*
X145445858Y-97237398D01*
X145376166Y-97232414D01*
X145320233Y-97190542D01*
X145295816Y-97125078D01*
X145295500Y-97116232D01*
X145295500Y-96271544D01*
X145315185Y-96204505D01*
X145331815Y-96183866D01*
X145357095Y-96158587D01*
X145407500Y-96059661D01*
X145407500Y-96059659D01*
X145407501Y-96059658D01*
X145424869Y-95950002D01*
X145424869Y-95949997D01*
X145407501Y-95840341D01*
X145385630Y-95797417D01*
X145357095Y-95741413D01*
X145357092Y-95741410D01*
X145357090Y-95741407D01*
X145278592Y-95662909D01*
X145278588Y-95662906D01*
X145278587Y-95662905D01*
X145253263Y-95650002D01*
X145179658Y-95612498D01*
X145070002Y-95595131D01*
X145069998Y-95595131D01*
X144960341Y-95612498D01*
X144861414Y-95662904D01*
X144861407Y-95662909D01*
X144782909Y-95741407D01*
X144782904Y-95741414D01*
X144732498Y-95840341D01*
X144715131Y-95949997D01*
X144715131Y-95950002D01*
X144732498Y-96059658D01*
X144774112Y-96141329D01*
X144782905Y-96158587D01*
X144808181Y-96183863D01*
X144841666Y-96245184D01*
X144844500Y-96271544D01*
X144844500Y-97645232D01*
X144824815Y-97712271D01*
X144808181Y-97732913D01*
X143121220Y-99419873D01*
X143059897Y-99453358D01*
X143052937Y-99454665D01*
X142940341Y-99472498D01*
X142841414Y-99522904D01*
X142841407Y-99522909D01*
X142772181Y-99592136D01*
X142710858Y-99625621D01*
X142641166Y-99620637D01*
X142585233Y-99578765D01*
X142560816Y-99513301D01*
X142560500Y-99504455D01*
X142560500Y-98094792D01*
X142580185Y-98027753D01*
X142632989Y-97981998D01*
X142702147Y-97972054D01*
X142703898Y-97972319D01*
X142719998Y-97974869D01*
X142720000Y-97974869D01*
X142720002Y-97974869D01*
X142829658Y-97957501D01*
X142829659Y-97957500D01*
X142829661Y-97957500D01*
X142928587Y-97907095D01*
X143007095Y-97828587D01*
X143057500Y-97729661D01*
X143057500Y-97729659D01*
X143057501Y-97729658D01*
X143074869Y-97620002D01*
X143074869Y-97619997D01*
X143057501Y-97510341D01*
X143019867Y-97436480D01*
X143006971Y-97367811D01*
X143019866Y-97323895D01*
X143047500Y-97269661D01*
X143053400Y-97232414D01*
X143064869Y-97160002D01*
X143064869Y-97159997D01*
X143047501Y-97050341D01*
X143022700Y-97001666D01*
X142997095Y-96951413D01*
X142997092Y-96951410D01*
X142997090Y-96951407D01*
X142918592Y-96872909D01*
X142918588Y-96872906D01*
X142918587Y-96872905D01*
X142893263Y-96860002D01*
X142819658Y-96822498D01*
X142710002Y-96805131D01*
X142710001Y-96805131D01*
X142710000Y-96805131D01*
X142703895Y-96806097D01*
X142634604Y-96797142D01*
X142581152Y-96752145D01*
X142560513Y-96685394D01*
X142560500Y-96683624D01*
X142560500Y-95879766D01*
X142580185Y-95812727D01*
X142596815Y-95792089D01*
X142828779Y-95560124D01*
X142890100Y-95526641D01*
X142897061Y-95525334D01*
X142899998Y-95524868D01*
X142900000Y-95524869D01*
X142952146Y-95516609D01*
X143009658Y-95507501D01*
X143009659Y-95507500D01*
X143009661Y-95507500D01*
X143108587Y-95457095D01*
X143187095Y-95378587D01*
X143237500Y-95279661D01*
X143237500Y-95279659D01*
X143237501Y-95279658D01*
X143254869Y-95170002D01*
X143254869Y-95169997D01*
X143237501Y-95060341D01*
X143225931Y-95037633D01*
X143187095Y-94961413D01*
X143187092Y-94961410D01*
X143187090Y-94961407D01*
X143108592Y-94882909D01*
X143108588Y-94882906D01*
X143108587Y-94882905D01*
X143104743Y-94880946D01*
X143009658Y-94832498D01*
X142900002Y-94815131D01*
X142899998Y-94815131D01*
X142790341Y-94832498D01*
X142691414Y-94882904D01*
X142691407Y-94882909D01*
X142612909Y-94961407D01*
X142612904Y-94961414D01*
X142562498Y-95060341D01*
X142544665Y-95172937D01*
X142514735Y-95236072D01*
X142509873Y-95241220D01*
X142358190Y-95392904D01*
X142207265Y-95543829D01*
X142207264Y-95543830D01*
X142190968Y-95560126D01*
X142143829Y-95607264D01*
X142139589Y-95617498D01*
X142139590Y-95617499D01*
X142109499Y-95690142D01*
X142109499Y-95794288D01*
X142109500Y-95794297D01*
X142109500Y-101470232D01*
X142089815Y-101537271D01*
X142073181Y-101557913D01*
X141228830Y-102402263D01*
X141228830Y-102402265D01*
X141194499Y-102485144D01*
X141194499Y-102589288D01*
X141194500Y-102589297D01*
X141194500Y-102882299D01*
X141174815Y-102949338D01*
X141122011Y-102995093D01*
X141052853Y-103005037D01*
X141051104Y-103004773D01*
X141032921Y-103001893D01*
X141024490Y-103000558D01*
X141024489Y-103000558D01*
X141024488Y-103000558D01*
X140914831Y-103017925D01*
X140815904Y-103068331D01*
X140808004Y-103074071D01*
X140806471Y-103071961D01*
X140757928Y-103098468D01*
X140688236Y-103093484D01*
X140643889Y-103064983D01*
X140580671Y-103001765D01*
X140580664Y-103001759D01*
X136128611Y-98549706D01*
X136128609Y-98549703D01*
X136047735Y-98468829D01*
X136018050Y-98456534D01*
X136018049Y-98456533D01*
X135964855Y-98434499D01*
X135875145Y-98434499D01*
X135860711Y-98434499D01*
X135860703Y-98434500D01*
X135649888Y-98434500D01*
X135619715Y-98428498D01*
X135619506Y-98429553D01*
X135607526Y-98427170D01*
X135517816Y-98427170D01*
X135503382Y-98427170D01*
X135503374Y-98427171D01*
X134901543Y-98427171D01*
X134834504Y-98407486D01*
X134813862Y-98390852D01*
X134809807Y-98386797D01*
X134776322Y-98325474D01*
X134781306Y-98255782D01*
X134809805Y-98211437D01*
X136989425Y-96031819D01*
X137050748Y-95998334D01*
X137077106Y-95995500D01*
X140025703Y-95995500D01*
X140025711Y-95995501D01*
X140040145Y-95995501D01*
X140129853Y-95995501D01*
X140129855Y-95995501D01*
X140188460Y-95971225D01*
X140212736Y-95961170D01*
X140276170Y-95897736D01*
X140276170Y-95897735D01*
X140293608Y-95880297D01*
X140293610Y-95880294D01*
X140430294Y-95743610D01*
X140430297Y-95743608D01*
X140447735Y-95726170D01*
X140447736Y-95726170D01*
X140511170Y-95662736D01*
X140511171Y-95662732D01*
X140513519Y-95659220D01*
X140567130Y-95614414D01*
X140636455Y-95605705D01*
X140672915Y-95617623D01*
X140680339Y-95621406D01*
X140716892Y-95627195D01*
X140789998Y-95638775D01*
X140790000Y-95638775D01*
X140790002Y-95638775D01*
X140899658Y-95621407D01*
X140899659Y-95621406D01*
X140899661Y-95621406D01*
X140998587Y-95571001D01*
X141035965Y-95533623D01*
X141097288Y-95500137D01*
X141166979Y-95505121D01*
X141222913Y-95546991D01*
X141234130Y-95565005D01*
X141252904Y-95601852D01*
X141252909Y-95601859D01*
X141331407Y-95680357D01*
X141331410Y-95680359D01*
X141331413Y-95680362D01*
X141421317Y-95726170D01*
X141430341Y-95730768D01*
X141539998Y-95748136D01*
X141540000Y-95748136D01*
X141540002Y-95748136D01*
X141649658Y-95730768D01*
X141649659Y-95730767D01*
X141649661Y-95730767D01*
X141748587Y-95680362D01*
X141827095Y-95601854D01*
X141877500Y-95502928D01*
X141877500Y-95502926D01*
X141877501Y-95502925D01*
X141894869Y-95393269D01*
X141894869Y-95393264D01*
X141877501Y-95283608D01*
X141875488Y-95279658D01*
X141827095Y-95184680D01*
X141827092Y-95184677D01*
X141827090Y-95184674D01*
X141823367Y-95180951D01*
X141789882Y-95119628D01*
X141794866Y-95049936D01*
X141800557Y-95036988D01*
X141815977Y-95006725D01*
X141816397Y-95004073D01*
X141833346Y-94897066D01*
X141833346Y-94897061D01*
X141815978Y-94787405D01*
X141799641Y-94755341D01*
X141765572Y-94688477D01*
X141765569Y-94688474D01*
X141765567Y-94688471D01*
X141687069Y-94609973D01*
X141687065Y-94609970D01*
X141687064Y-94609969D01*
X141625948Y-94578829D01*
X141588135Y-94559562D01*
X141478479Y-94542195D01*
X141478475Y-94542195D01*
X141368818Y-94559562D01*
X141269891Y-94609968D01*
X141269884Y-94609973D01*
X141244613Y-94635245D01*
X141183290Y-94668730D01*
X141156932Y-94671564D01*
X140578081Y-94671564D01*
X140578079Y-94671564D01*
X140578077Y-94671565D01*
X140495202Y-94705891D01*
X140495200Y-94705893D01*
X140192264Y-95008830D01*
X140192263Y-95008831D01*
X140155007Y-95046086D01*
X140093683Y-95079571D01*
X140023992Y-95074585D01*
X139994444Y-95058724D01*
X139988599Y-95054477D01*
X139889671Y-95004071D01*
X139780015Y-94986704D01*
X139780011Y-94986704D01*
X139670355Y-95004071D01*
X139604485Y-95037633D01*
X139535815Y-95050528D01*
X139471075Y-95024250D01*
X139460511Y-95014828D01*
X139438592Y-94992909D01*
X139438588Y-94992906D01*
X139438587Y-94992905D01*
X139339661Y-94942500D01*
X139336394Y-94941982D01*
X139332741Y-94940250D01*
X139330375Y-94939482D01*
X139330474Y-94939176D01*
X139273260Y-94912054D01*
X139236328Y-94852742D01*
X139237326Y-94782880D01*
X139245302Y-94763225D01*
X139267500Y-94719661D01*
X139272440Y-94688477D01*
X139284869Y-94610002D01*
X139284869Y-94609997D01*
X139267501Y-94500341D01*
X139257479Y-94480672D01*
X139217095Y-94401413D01*
X139217092Y-94401410D01*
X139217090Y-94401407D01*
X139138592Y-94322909D01*
X139138588Y-94322906D01*
X139138587Y-94322905D01*
X139087922Y-94297090D01*
X139039658Y-94272498D01*
X138930002Y-94255131D01*
X138929998Y-94255131D01*
X138820341Y-94272498D01*
X138721414Y-94322904D01*
X138721407Y-94322909D01*
X138642909Y-94401407D01*
X138642904Y-94401414D01*
X138592498Y-94500341D01*
X138575131Y-94609997D01*
X138575131Y-94610003D01*
X138592707Y-94720977D01*
X138583752Y-94790270D01*
X138538756Y-94843722D01*
X138472004Y-94864361D01*
X138426965Y-94853888D01*
X138426437Y-94855514D01*
X138417159Y-94852499D01*
X138307502Y-94835131D01*
X138307498Y-94835131D01*
X138197841Y-94852498D01*
X138098914Y-94902904D01*
X138098907Y-94902909D01*
X138020404Y-94981412D01*
X138019134Y-94983161D01*
X138017046Y-94984770D01*
X138013504Y-94988313D01*
X138013046Y-94987855D01*
X137963803Y-95025825D01*
X137894189Y-95031803D01*
X137832395Y-94999195D01*
X137831137Y-94997954D01*
X137766092Y-94932909D01*
X137766088Y-94932906D01*
X137766087Y-94932905D01*
X137730487Y-94914766D01*
X137667158Y-94882498D01*
X137557502Y-94865131D01*
X137557498Y-94865131D01*
X137447841Y-94882498D01*
X137348914Y-94932904D01*
X137348907Y-94932909D01*
X137270409Y-95011407D01*
X137270404Y-95011414D01*
X137219998Y-95110341D01*
X137202631Y-95219997D01*
X137202631Y-95220002D01*
X137219998Y-95329656D01*
X137219999Y-95329659D01*
X137220000Y-95329661D01*
X137237602Y-95364208D01*
X137250498Y-95432874D01*
X137224222Y-95497615D01*
X137167115Y-95537872D01*
X137127117Y-95544500D01*
X136887484Y-95544500D01*
X136887482Y-95544500D01*
X136887480Y-95544501D01*
X136804605Y-95578827D01*
X136804603Y-95578829D01*
X136741168Y-95642265D01*
X135040954Y-97342478D01*
X134979631Y-97375963D01*
X134909939Y-97370979D01*
X134854006Y-97329107D01*
X134842788Y-97311092D01*
X134821676Y-97269657D01*
X134797095Y-97221413D01*
X134797093Y-97221411D01*
X134792664Y-97212718D01*
X134794714Y-97211673D01*
X134775763Y-97158573D01*
X134791583Y-97090518D01*
X134801929Y-97076902D01*
X134801356Y-97076486D01*
X134807089Y-97068592D01*
X134807095Y-97068587D01*
X134857500Y-96969661D01*
X134857500Y-96969659D01*
X134857501Y-96969658D01*
X134874869Y-96860002D01*
X134874869Y-96859997D01*
X134857501Y-96750341D01*
X134816738Y-96670339D01*
X134807095Y-96651413D01*
X134807092Y-96651410D01*
X134807090Y-96651407D01*
X134728592Y-96572909D01*
X134728588Y-96572906D01*
X134728587Y-96572905D01*
X134724743Y-96570946D01*
X134629658Y-96522498D01*
X134520002Y-96505131D01*
X134519998Y-96505131D01*
X134410341Y-96522498D01*
X134311414Y-96572904D01*
X134311407Y-96572909D01*
X134267181Y-96617136D01*
X134205858Y-96650621D01*
X134136166Y-96645637D01*
X134080233Y-96603765D01*
X134055816Y-96538301D01*
X134055500Y-96529455D01*
X134055500Y-96139997D01*
X134835131Y-96139997D01*
X134835131Y-96140002D01*
X134852498Y-96249658D01*
X134902904Y-96348585D01*
X134902909Y-96348592D01*
X134981407Y-96427090D01*
X134981410Y-96427092D01*
X134981413Y-96427095D01*
X135035923Y-96454869D01*
X135080341Y-96477501D01*
X135189998Y-96494869D01*
X135190000Y-96494869D01*
X135190002Y-96494869D01*
X135299658Y-96477501D01*
X135299659Y-96477500D01*
X135299661Y-96477500D01*
X135398587Y-96427095D01*
X135477095Y-96348587D01*
X135527500Y-96249661D01*
X135527500Y-96249659D01*
X135527501Y-96249658D01*
X135544869Y-96140002D01*
X135544869Y-96140000D01*
X135542125Y-96122677D01*
X135551078Y-96053386D01*
X135596073Y-95999933D01*
X135611299Y-95992584D01*
X135610966Y-95991930D01*
X135619659Y-95987500D01*
X135619661Y-95987500D01*
X135718587Y-95937095D01*
X135797095Y-95858587D01*
X135847500Y-95759661D01*
X135847500Y-95759659D01*
X135847501Y-95759658D01*
X135864869Y-95650002D01*
X135864869Y-95649997D01*
X135847501Y-95540341D01*
X135840958Y-95527500D01*
X135797095Y-95441413D01*
X135797092Y-95441410D01*
X135797090Y-95441407D01*
X135718592Y-95362909D01*
X135718588Y-95362906D01*
X135718587Y-95362905D01*
X135678536Y-95342498D01*
X135619658Y-95312498D01*
X135510002Y-95295131D01*
X135509998Y-95295131D01*
X135400341Y-95312498D01*
X135301414Y-95362904D01*
X135301407Y-95362909D01*
X135222909Y-95441407D01*
X135222904Y-95441414D01*
X135172498Y-95540341D01*
X135155131Y-95649997D01*
X135155131Y-95650003D01*
X135157874Y-95667323D01*
X135148919Y-95736616D01*
X135103922Y-95790068D01*
X135088701Y-95797417D01*
X135089034Y-95798070D01*
X135080339Y-95802499D01*
X135080339Y-95802500D01*
X134981413Y-95852905D01*
X134981412Y-95852906D01*
X134981407Y-95852909D01*
X134902909Y-95931407D01*
X134902904Y-95931414D01*
X134852498Y-96030341D01*
X134835131Y-96139997D01*
X134055500Y-96139997D01*
X134055500Y-94914766D01*
X134075185Y-94847727D01*
X134091815Y-94827089D01*
X134728779Y-94190124D01*
X134790100Y-94156641D01*
X134797061Y-94155334D01*
X134799998Y-94154868D01*
X134800000Y-94154869D01*
X134852146Y-94146609D01*
X134909658Y-94137501D01*
X134909659Y-94137500D01*
X134909661Y-94137500D01*
X135008587Y-94087095D01*
X135080543Y-94015138D01*
X135141864Y-93981655D01*
X135211556Y-93986639D01*
X135255904Y-94015140D01*
X136124050Y-94883286D01*
X136157535Y-94944609D01*
X136158840Y-94951559D01*
X136162500Y-94974661D01*
X136212905Y-95073587D01*
X136212907Y-95073589D01*
X136212909Y-95073592D01*
X136291407Y-95152090D01*
X136291410Y-95152092D01*
X136291413Y-95152095D01*
X136355365Y-95184680D01*
X136390341Y-95202501D01*
X136499998Y-95219869D01*
X136500000Y-95219869D01*
X136500002Y-95219869D01*
X136609658Y-95202501D01*
X136609659Y-95202500D01*
X136609661Y-95202500D01*
X136708587Y-95152095D01*
X136787095Y-95073587D01*
X136837500Y-94974661D01*
X136837500Y-94974659D01*
X136837501Y-94974658D01*
X136854869Y-94865002D01*
X136854869Y-94864997D01*
X136837501Y-94755341D01*
X136819319Y-94719657D01*
X136787095Y-94656413D01*
X136787092Y-94656410D01*
X136787090Y-94656407D01*
X136708592Y-94577909D01*
X136708588Y-94577906D01*
X136708587Y-94577905D01*
X136638502Y-94542195D01*
X136609658Y-94527498D01*
X136500002Y-94510131D01*
X136499997Y-94510131D01*
X136466324Y-94515464D01*
X136397031Y-94506509D01*
X136359246Y-94480672D01*
X135058571Y-93179997D01*
X136395131Y-93179997D01*
X136395131Y-93180002D01*
X136412498Y-93289658D01*
X136462904Y-93388585D01*
X136462909Y-93388592D01*
X136541407Y-93467090D01*
X136541410Y-93467092D01*
X136541413Y-93467095D01*
X136604066Y-93499018D01*
X136640341Y-93517501D01*
X136749998Y-93534869D01*
X136750000Y-93534869D01*
X136750001Y-93534869D01*
X136821577Y-93523532D01*
X136842203Y-93520265D01*
X136911497Y-93529219D01*
X136964949Y-93574215D01*
X136984075Y-93623339D01*
X137002499Y-93739658D01*
X137002499Y-93739659D01*
X137002500Y-93739661D01*
X137033244Y-93800000D01*
X137052904Y-93838585D01*
X137052909Y-93838592D01*
X137131407Y-93917090D01*
X137131410Y-93917092D01*
X137131413Y-93917095D01*
X137198003Y-93951024D01*
X137230341Y-93967501D01*
X137339998Y-93984869D01*
X137340000Y-93984869D01*
X137340002Y-93984869D01*
X137449658Y-93967501D01*
X137449659Y-93967500D01*
X137449661Y-93967500D01*
X137548587Y-93917095D01*
X137586089Y-93879592D01*
X137647409Y-93846107D01*
X137717101Y-93851090D01*
X137730049Y-93856781D01*
X137790339Y-93887500D01*
X137790341Y-93887500D01*
X137790343Y-93887501D01*
X137899998Y-93904869D01*
X137900000Y-93904869D01*
X137900002Y-93904869D01*
X138009658Y-93887501D01*
X138009659Y-93887500D01*
X138009661Y-93887500D01*
X138108587Y-93837095D01*
X138187095Y-93758587D01*
X138237500Y-93659661D01*
X138237500Y-93659659D01*
X138237501Y-93659658D01*
X138254869Y-93550002D01*
X138254869Y-93549997D01*
X138237501Y-93440341D01*
X138219707Y-93405418D01*
X138187095Y-93341413D01*
X138187092Y-93341410D01*
X138187090Y-93341407D01*
X138108592Y-93262909D01*
X138108588Y-93262906D01*
X138108587Y-93262905D01*
X138104743Y-93260946D01*
X138009658Y-93212498D01*
X137900002Y-93195131D01*
X137899998Y-93195131D01*
X137790341Y-93212498D01*
X137691414Y-93262904D01*
X137691407Y-93262909D01*
X137653908Y-93300408D01*
X137592585Y-93333893D01*
X137522893Y-93328907D01*
X137509948Y-93323217D01*
X137449661Y-93292500D01*
X137449659Y-93292499D01*
X137449656Y-93292498D01*
X137340002Y-93275131D01*
X137339997Y-93275131D01*
X137247794Y-93289734D01*
X137178501Y-93280779D01*
X137125049Y-93235783D01*
X137105924Y-93186659D01*
X137087501Y-93070341D01*
X137047501Y-92991836D01*
X137037095Y-92971413D01*
X137037092Y-92971410D01*
X137037090Y-92971407D01*
X137030683Y-92965000D01*
X139944659Y-92965000D01*
X139963975Y-93161129D01*
X139963976Y-93161132D01*
X140013142Y-93323211D01*
X140021188Y-93349733D01*
X140114086Y-93523532D01*
X140114090Y-93523539D01*
X140239116Y-93675883D01*
X140391460Y-93800909D01*
X140391467Y-93800913D01*
X140565266Y-93893811D01*
X140565269Y-93893811D01*
X140565273Y-93893814D01*
X140753868Y-93951024D01*
X140950000Y-93970341D01*
X141146132Y-93951024D01*
X141334727Y-93893814D01*
X141376998Y-93871220D01*
X141440850Y-93837090D01*
X141508538Y-93800910D01*
X141660883Y-93675883D01*
X141785910Y-93523538D01*
X141873469Y-93359727D01*
X141878811Y-93349733D01*
X141878811Y-93349732D01*
X141878814Y-93349727D01*
X141936024Y-93161132D01*
X141955341Y-92965000D01*
X142484659Y-92965000D01*
X142503975Y-93161129D01*
X142503976Y-93161132D01*
X142553142Y-93323211D01*
X142561188Y-93349733D01*
X142654086Y-93523532D01*
X142654090Y-93523539D01*
X142779116Y-93675883D01*
X142931460Y-93800909D01*
X142931467Y-93800913D01*
X143105266Y-93893811D01*
X143105269Y-93893811D01*
X143105273Y-93893814D01*
X143293868Y-93951024D01*
X143490000Y-93970341D01*
X143686132Y-93951024D01*
X143874727Y-93893814D01*
X143916998Y-93871220D01*
X143980850Y-93837090D01*
X144048538Y-93800910D01*
X144200883Y-93675883D01*
X144325910Y-93523538D01*
X144413469Y-93359727D01*
X144418811Y-93349733D01*
X144418811Y-93349732D01*
X144418814Y-93349727D01*
X144476024Y-93161132D01*
X144495341Y-92965000D01*
X145024659Y-92965000D01*
X145043975Y-93161129D01*
X145043976Y-93161132D01*
X145093142Y-93323211D01*
X145101188Y-93349733D01*
X145194086Y-93523532D01*
X145194090Y-93523539D01*
X145319116Y-93675883D01*
X145471460Y-93800909D01*
X145471467Y-93800913D01*
X145645266Y-93893811D01*
X145645269Y-93893811D01*
X145645273Y-93893814D01*
X145833868Y-93951024D01*
X146030000Y-93970341D01*
X146226132Y-93951024D01*
X146414727Y-93893814D01*
X146456998Y-93871220D01*
X146520850Y-93837090D01*
X146588538Y-93800910D01*
X146740883Y-93675883D01*
X146865910Y-93523538D01*
X146953469Y-93359727D01*
X146958811Y-93349733D01*
X146958811Y-93349732D01*
X146958814Y-93349727D01*
X147016024Y-93161132D01*
X147035341Y-92965000D01*
X147016024Y-92768868D01*
X146958814Y-92580273D01*
X146958811Y-92580269D01*
X146958811Y-92580266D01*
X146865913Y-92406467D01*
X146865909Y-92406460D01*
X146740883Y-92254116D01*
X146588539Y-92129090D01*
X146588532Y-92129086D01*
X146414733Y-92036188D01*
X146414727Y-92036186D01*
X146226132Y-91978976D01*
X146226129Y-91978975D01*
X146030000Y-91959659D01*
X145833870Y-91978975D01*
X145645266Y-92036188D01*
X145471467Y-92129086D01*
X145471460Y-92129090D01*
X145319116Y-92254116D01*
X145194090Y-92406460D01*
X145194086Y-92406467D01*
X145101188Y-92580266D01*
X145043975Y-92768870D01*
X145024659Y-92965000D01*
X144495341Y-92965000D01*
X144476024Y-92768868D01*
X144418814Y-92580273D01*
X144418811Y-92580269D01*
X144418811Y-92580266D01*
X144325913Y-92406467D01*
X144325909Y-92406460D01*
X144200883Y-92254116D01*
X144048539Y-92129090D01*
X144048532Y-92129086D01*
X143874733Y-92036188D01*
X143874727Y-92036186D01*
X143686132Y-91978976D01*
X143686129Y-91978975D01*
X143490000Y-91959659D01*
X143293870Y-91978975D01*
X143105266Y-92036188D01*
X142931467Y-92129086D01*
X142931460Y-92129090D01*
X142779116Y-92254116D01*
X142654090Y-92406460D01*
X142654086Y-92406467D01*
X142561188Y-92580266D01*
X142503975Y-92768870D01*
X142484659Y-92965000D01*
X141955341Y-92965000D01*
X141936024Y-92768868D01*
X141878814Y-92580273D01*
X141878811Y-92580269D01*
X141878811Y-92580266D01*
X141785913Y-92406467D01*
X141785909Y-92406460D01*
X141660883Y-92254116D01*
X141508539Y-92129090D01*
X141508532Y-92129086D01*
X141334733Y-92036188D01*
X141334727Y-92036186D01*
X141146132Y-91978976D01*
X141146129Y-91978975D01*
X140950000Y-91959659D01*
X140753870Y-91978975D01*
X140565266Y-92036188D01*
X140391467Y-92129086D01*
X140391460Y-92129090D01*
X140239116Y-92254116D01*
X140114090Y-92406460D01*
X140114086Y-92406467D01*
X140021188Y-92580266D01*
X139963975Y-92768870D01*
X139944659Y-92965000D01*
X137030683Y-92965000D01*
X136958592Y-92892909D01*
X136958588Y-92892906D01*
X136958587Y-92892905D01*
X136954743Y-92890946D01*
X136859658Y-92842498D01*
X136750002Y-92825131D01*
X136749998Y-92825131D01*
X136640341Y-92842498D01*
X136541414Y-92892904D01*
X136541407Y-92892909D01*
X136462909Y-92971407D01*
X136462904Y-92971414D01*
X136412498Y-93070341D01*
X136395131Y-93179997D01*
X135058571Y-93179997D01*
X134673279Y-92794705D01*
X134655839Y-92777264D01*
X134592405Y-92713830D01*
X134592404Y-92713829D01*
X134568126Y-92703772D01*
X134568126Y-92703771D01*
X134509527Y-92679500D01*
X134509525Y-92679499D01*
X134509524Y-92679499D01*
X134419814Y-92679499D01*
X134405380Y-92679499D01*
X134405372Y-92679500D01*
X133509523Y-92679500D01*
X133419814Y-92679500D01*
X133419812Y-92679500D01*
X133419810Y-92679501D01*
X133336935Y-92713827D01*
X131908830Y-94141932D01*
X131908830Y-94141934D01*
X131874499Y-94224813D01*
X131874499Y-94328957D01*
X131874500Y-94328966D01*
X131874500Y-95778455D01*
X131854815Y-95845494D01*
X131838181Y-95866136D01*
X131812909Y-95891407D01*
X131812904Y-95891414D01*
X131762498Y-95990341D01*
X131745131Y-96099997D01*
X127275685Y-96099997D01*
X127347095Y-96028587D01*
X127397500Y-95929661D01*
X127397500Y-95929659D01*
X127397501Y-95929658D01*
X127414869Y-95820002D01*
X127414869Y-95819997D01*
X127397501Y-95710341D01*
X127382226Y-95680362D01*
X127347095Y-95611413D01*
X127347092Y-95611410D01*
X127347090Y-95611407D01*
X127268592Y-95532909D01*
X127268588Y-95532906D01*
X127268587Y-95532905D01*
X127217932Y-95507095D01*
X127169658Y-95482498D01*
X127060002Y-95465131D01*
X127059998Y-95465131D01*
X126950341Y-95482498D01*
X126856294Y-95530418D01*
X126787625Y-95543314D01*
X126743706Y-95530418D01*
X126649658Y-95482498D01*
X126540002Y-95465131D01*
X126539998Y-95465131D01*
X126430341Y-95482498D01*
X126331414Y-95532904D01*
X126331407Y-95532909D01*
X126262181Y-95602136D01*
X126200858Y-95635621D01*
X126131166Y-95630637D01*
X126075233Y-95588765D01*
X126050816Y-95523301D01*
X126050500Y-95514455D01*
X126050500Y-93404487D01*
X126070185Y-93337448D01*
X126122989Y-93291693D01*
X126192147Y-93281749D01*
X126247382Y-93304167D01*
X126251409Y-93307093D01*
X126350341Y-93357501D01*
X126418101Y-93368233D01*
X126481235Y-93398162D01*
X126518167Y-93457473D01*
X126521176Y-93471306D01*
X126522499Y-93479658D01*
X126522499Y-93479659D01*
X126522500Y-93479661D01*
X126548909Y-93531492D01*
X126572904Y-93578585D01*
X126572909Y-93578592D01*
X126651407Y-93657090D01*
X126651410Y-93657092D01*
X126651413Y-93657095D01*
X126750339Y-93707500D01*
X126750341Y-93707501D01*
X126859998Y-93724869D01*
X126860000Y-93724869D01*
X126860002Y-93724869D01*
X126969658Y-93707501D01*
X126969659Y-93707500D01*
X126969661Y-93707500D01*
X127068587Y-93657095D01*
X127147095Y-93578587D01*
X127148911Y-93575022D01*
X127152262Y-93571474D01*
X127152828Y-93570695D01*
X127152928Y-93570768D01*
X127196877Y-93524227D01*
X127264697Y-93507425D01*
X127330834Y-93529957D01*
X127332658Y-93531492D01*
X127332710Y-93531422D01*
X127340606Y-93537158D01*
X127340609Y-93537161D01*
X127439535Y-93587566D01*
X127439537Y-93587567D01*
X127549194Y-93604935D01*
X127549196Y-93604935D01*
X127549198Y-93604935D01*
X127658854Y-93587567D01*
X127658855Y-93587566D01*
X127658857Y-93587566D01*
X127757783Y-93537161D01*
X127836291Y-93458653D01*
X127886696Y-93359727D01*
X127886696Y-93359725D01*
X127886697Y-93359724D01*
X127904065Y-93250068D01*
X127904065Y-93250063D01*
X127886697Y-93140407D01*
X127881222Y-93129661D01*
X127836291Y-93041479D01*
X127836288Y-93041476D01*
X127836286Y-93041473D01*
X127757788Y-92962975D01*
X127757784Y-92962972D01*
X127757783Y-92962971D01*
X127753939Y-92961012D01*
X127658854Y-92912564D01*
X127549198Y-92895197D01*
X127549194Y-92895197D01*
X127439537Y-92912564D01*
X127340610Y-92962970D01*
X127340603Y-92962975D01*
X127262105Y-93041473D01*
X127262100Y-93041480D01*
X127260282Y-93045049D01*
X127256927Y-93048600D01*
X127256368Y-93049371D01*
X127256268Y-93049298D01*
X127212307Y-93095845D01*
X127144486Y-93112639D01*
X127078351Y-93090101D01*
X127076536Y-93088573D01*
X127076486Y-93088644D01*
X127068588Y-93082906D01*
X127068587Y-93082905D01*
X127043925Y-93070339D01*
X126969658Y-93032498D01*
X126901897Y-93021766D01*
X126838763Y-92991836D01*
X126801832Y-92932524D01*
X126798822Y-92918688D01*
X126797500Y-92910339D01*
X126747095Y-92811413D01*
X126747092Y-92811410D01*
X126747090Y-92811407D01*
X126668592Y-92732909D01*
X126668588Y-92732906D01*
X126668587Y-92732905D01*
X126590993Y-92693369D01*
X126569658Y-92682498D01*
X126460002Y-92665131D01*
X126459998Y-92665131D01*
X126350341Y-92682498D01*
X126251408Y-92732907D01*
X126247377Y-92735836D01*
X126181568Y-92759310D01*
X126113516Y-92743479D01*
X126064825Y-92693369D01*
X126050500Y-92635512D01*
X126050500Y-91969997D01*
X126525131Y-91969997D01*
X126525131Y-91970002D01*
X126542498Y-92079658D01*
X126592904Y-92178585D01*
X126592909Y-92178592D01*
X126671407Y-92257090D01*
X126671410Y-92257092D01*
X126671413Y-92257095D01*
X126770339Y-92307500D01*
X126770341Y-92307501D01*
X126879998Y-92324869D01*
X126880000Y-92324869D01*
X126880002Y-92324869D01*
X126989658Y-92307501D01*
X126989659Y-92307500D01*
X126989661Y-92307500D01*
X127088587Y-92257095D01*
X127167095Y-92178587D01*
X127217500Y-92079661D01*
X127217500Y-92079659D01*
X127217501Y-92079658D01*
X127234869Y-91970002D01*
X127234869Y-91969997D01*
X127217501Y-91860341D01*
X127214713Y-91854869D01*
X127167095Y-91761413D01*
X127167092Y-91761410D01*
X127167090Y-91761407D01*
X127088592Y-91682909D01*
X127088588Y-91682906D01*
X127088587Y-91682905D01*
X127084743Y-91680946D01*
X126989658Y-91632498D01*
X126880002Y-91615131D01*
X126879998Y-91615131D01*
X126770341Y-91632498D01*
X126671414Y-91682904D01*
X126671407Y-91682909D01*
X126592909Y-91761407D01*
X126592904Y-91761414D01*
X126542498Y-91860341D01*
X126525131Y-91969997D01*
X126050500Y-91969997D01*
X126050500Y-91294500D01*
X126070185Y-91227461D01*
X126122989Y-91181706D01*
X126174500Y-91170500D01*
X133352164Y-91170500D01*
X133419203Y-91190185D01*
G37*
%TD.AperFunction*%
%TD*%
M02*
