%TF.GenerationSoftware,KiCad,Pcbnew,8.0.5*%
%TF.CreationDate,2024-11-08T04:09:32+01:00*%
%TF.ProjectId,hardware v4 pro max,68617264-7761-4726-9520-76342070726f,rev?*%
%TF.SameCoordinates,Original*%
%TF.FileFunction,Copper,L1,Top*%
%TF.FilePolarity,Positive*%
%FSLAX46Y46*%
G04 Gerber Fmt 4.6, Leading zero omitted, Abs format (unit mm)*
G04 Created by KiCad (PCBNEW 8.0.5) date 2024-11-08 04:09:32*
%MOMM*%
%LPD*%
G01*
G04 APERTURE LIST*
G04 Aperture macros list*
%AMRoundRect*
0 Rectangle with rounded corners*
0 $1 Rounding radius*
0 $2 $3 $4 $5 $6 $7 $8 $9 X,Y pos of 4 corners*
0 Add a 4 corners polygon primitive as box body*
4,1,4,$2,$3,$4,$5,$6,$7,$8,$9,$2,$3,0*
0 Add four circle primitives for the rounded corners*
1,1,$1+$1,$2,$3*
1,1,$1+$1,$4,$5*
1,1,$1+$1,$6,$7*
1,1,$1+$1,$8,$9*
0 Add four rect primitives between the rounded corners*
20,1,$1+$1,$2,$3,$4,$5,0*
20,1,$1+$1,$4,$5,$6,$7,0*
20,1,$1+$1,$6,$7,$8,$9,0*
20,1,$1+$1,$8,$9,$2,$3,0*%
%AMRotRect*
0 Rectangle, with rotation*
0 The origin of the aperture is its center*
0 $1 length*
0 $2 width*
0 $3 Rotation angle, in degrees counterclockwise*
0 Add horizontal line*
21,1,$1,$2,0,0,$3*%
%AMOutline4P*
0 Free polygon, 4 corners , with rotation*
0 The origin of the aperture is its center*
0 number of corners: always 4*
0 $1 to $8 corner X, Y*
0 $9 Rotation angle, in degrees counterclockwise*
0 create outline with 4 corners*
4,1,4,$1,$2,$3,$4,$5,$6,$7,$8,$1,$2,$9*%
%AMOutline5P*
0 Free polygon, 5 corners , with rotation*
0 The origin of the aperture is its center*
0 number of corners: always 5*
0 $1 to $10 corner X, Y*
0 $11 Rotation angle, in degrees counterclockwise*
0 create outline with 5 corners*
4,1,5,$1,$2,$3,$4,$5,$6,$7,$8,$9,$10,$1,$2,$11*%
%AMOutline6P*
0 Free polygon, 6 corners , with rotation*
0 The origin of the aperture is its center*
0 number of corners: always 6*
0 $1 to $12 corner X, Y*
0 $13 Rotation angle, in degrees counterclockwise*
0 create outline with 6 corners*
4,1,6,$1,$2,$3,$4,$5,$6,$7,$8,$9,$10,$11,$12,$1,$2,$13*%
%AMOutline7P*
0 Free polygon, 7 corners , with rotation*
0 The origin of the aperture is its center*
0 number of corners: always 7*
0 $1 to $14 corner X, Y*
0 $15 Rotation angle, in degrees counterclockwise*
0 create outline with 7 corners*
4,1,7,$1,$2,$3,$4,$5,$6,$7,$8,$9,$10,$11,$12,$13,$14,$1,$2,$15*%
%AMOutline8P*
0 Free polygon, 8 corners , with rotation*
0 The origin of the aperture is its center*
0 number of corners: always 8*
0 $1 to $16 corner X, Y*
0 $17 Rotation angle, in degrees counterclockwise*
0 create outline with 8 corners*
4,1,8,$1,$2,$3,$4,$5,$6,$7,$8,$9,$10,$11,$12,$13,$14,$15,$16,$1,$2,$17*%
G04 Aperture macros list end*
%TA.AperFunction,SMDPad,CuDef*%
%ADD10RoundRect,0.135000X-0.135000X-0.185000X0.135000X-0.185000X0.135000X0.185000X-0.135000X0.185000X0*%
%TD*%
%TA.AperFunction,SMDPad,CuDef*%
%ADD11RoundRect,0.140000X-0.170000X0.140000X-0.170000X-0.140000X0.170000X-0.140000X0.170000X0.140000X0*%
%TD*%
%TA.AperFunction,SMDPad,CuDef*%
%ADD12R,1.000000X1.000000*%
%TD*%
%TA.AperFunction,SMDPad,CuDef*%
%ADD13R,0.800000X1.600000*%
%TD*%
%TA.AperFunction,SMDPad,CuDef*%
%ADD14R,0.275000X0.700000*%
%TD*%
%TA.AperFunction,SMDPad,CuDef*%
%ADD15R,0.450000X0.245000*%
%TD*%
%TA.AperFunction,SMDPad,CuDef*%
%ADD16RotRect,0.775000X0.875000X315.000000*%
%TD*%
%TA.AperFunction,SMDPad,CuDef*%
%ADD17RoundRect,0.135000X0.135000X0.185000X-0.135000X0.185000X-0.135000X-0.185000X0.135000X-0.185000X0*%
%TD*%
%TA.AperFunction,SMDPad,CuDef*%
%ADD18RoundRect,0.147500X0.147500X0.172500X-0.147500X0.172500X-0.147500X-0.172500X0.147500X-0.172500X0*%
%TD*%
%TA.AperFunction,ComponentPad*%
%ADD19R,1.700000X1.700000*%
%TD*%
%TA.AperFunction,ComponentPad*%
%ADD20O,1.700000X1.700000*%
%TD*%
%TA.AperFunction,SMDPad,CuDef*%
%ADD21R,0.799999X0.250000*%
%TD*%
%TA.AperFunction,SMDPad,CuDef*%
%ADD22R,0.610000X1.420000*%
%TD*%
%TA.AperFunction,SMDPad,CuDef*%
%ADD23RoundRect,0.140000X-0.140000X-0.170000X0.140000X-0.170000X0.140000X0.170000X-0.140000X0.170000X0*%
%TD*%
%TA.AperFunction,SMDPad,CuDef*%
%ADD24RoundRect,0.062500X-0.375000X-0.062500X0.375000X-0.062500X0.375000X0.062500X-0.375000X0.062500X0*%
%TD*%
%TA.AperFunction,SMDPad,CuDef*%
%ADD25RoundRect,0.062500X-0.062500X-0.375000X0.062500X-0.375000X0.062500X0.375000X-0.062500X0.375000X0*%
%TD*%
%TA.AperFunction,HeatsinkPad*%
%ADD26R,5.600000X5.600000*%
%TD*%
%TA.AperFunction,SMDPad,CuDef*%
%ADD27R,0.300000X0.300000*%
%TD*%
%TA.AperFunction,SMDPad,CuDef*%
%ADD28RoundRect,0.150000X-0.512500X-0.150000X0.512500X-0.150000X0.512500X0.150000X-0.512500X0.150000X0*%
%TD*%
%TA.AperFunction,SMDPad,CuDef*%
%ADD29Outline5P,-0.650000X0.750000X0.650000X0.750000X0.650000X-0.750000X0.000000X-0.750000X-0.650000X-0.100000X180.000000*%
%TD*%
%TA.AperFunction,SMDPad,CuDef*%
%ADD30R,3.600000X1.100000*%
%TD*%
%TA.AperFunction,SMDPad,CuDef*%
%ADD31RoundRect,0.140000X0.140000X0.170000X-0.140000X0.170000X-0.140000X-0.170000X0.140000X-0.170000X0*%
%TD*%
%TA.AperFunction,SMDPad,CuDef*%
%ADD32Outline5P,-0.207500X0.150000X0.207500X0.150000X0.207500X0.000000X0.057500X-0.150000X-0.207500X-0.150000X270.000000*%
%TD*%
%TA.AperFunction,SMDPad,CuDef*%
%ADD33Outline5P,-0.207500X0.150000X0.057500X0.150000X0.207500X0.000000X0.207500X-0.150000X-0.207500X-0.150000X270.000000*%
%TD*%
%TA.AperFunction,SMDPad,CuDef*%
%ADD34RotRect,0.500000X0.500000X315.000000*%
%TD*%
%TA.AperFunction,SMDPad,CuDef*%
%ADD35Outline5P,-0.207500X0.000000X-0.057500X0.150000X0.207500X0.150000X0.207500X-0.150000X-0.207500X-0.150000X270.000000*%
%TD*%
%TA.AperFunction,SMDPad,CuDef*%
%ADD36Outline5P,-0.207500X0.150000X0.207500X0.150000X0.207500X-0.150000X-0.057500X-0.150000X-0.207500X0.000000X270.000000*%
%TD*%
%TA.AperFunction,SMDPad,CuDef*%
%ADD37RoundRect,0.218750X-0.218750X-0.381250X0.218750X-0.381250X0.218750X0.381250X-0.218750X0.381250X0*%
%TD*%
%TA.AperFunction,SMDPad,CuDef*%
%ADD38RoundRect,0.135000X-0.185000X0.135000X-0.185000X-0.135000X0.185000X-0.135000X0.185000X0.135000X0*%
%TD*%
%TA.AperFunction,SMDPad,CuDef*%
%ADD39R,0.550000X1.500000*%
%TD*%
%TA.AperFunction,ComponentPad*%
%ADD40C,1.000000*%
%TD*%
%TA.AperFunction,SMDPad,CuDef*%
%ADD41RoundRect,0.140000X0.170000X-0.140000X0.170000X0.140000X-0.170000X0.140000X-0.170000X-0.140000X0*%
%TD*%
%TA.AperFunction,SMDPad,CuDef*%
%ADD42R,1.050000X0.450000*%
%TD*%
%TA.AperFunction,SMDPad,CuDef*%
%ADD43R,3.450000X4.350000*%
%TD*%
%TA.AperFunction,SMDPad,CuDef*%
%ADD44RoundRect,0.100000X-0.100000X0.217500X-0.100000X-0.217500X0.100000X-0.217500X0.100000X0.217500X0*%
%TD*%
%TA.AperFunction,SMDPad,CuDef*%
%ADD45RoundRect,0.135000X0.185000X-0.135000X0.185000X0.135000X-0.185000X0.135000X-0.185000X-0.135000X0*%
%TD*%
%TA.AperFunction,SMDPad,CuDef*%
%ADD46R,1.500000X0.550000*%
%TD*%
%TA.AperFunction,SMDPad,CuDef*%
%ADD47R,0.500000X0.350000*%
%TD*%
%TA.AperFunction,SMDPad,CuDef*%
%ADD48R,0.340000X0.330000*%
%TD*%
%TA.AperFunction,SMDPad,CuDef*%
%ADD49Outline4P,-0.450000X-0.220000X0.450000X-0.220000X0.450000X0.220000X-0.450000X0.220000X90.000000*%
%TD*%
%TA.AperFunction,ComponentPad*%
%ADD50O,1.800000X1.000000*%
%TD*%
%TA.AperFunction,ComponentPad*%
%ADD51O,2.100000X1.000000*%
%TD*%
%TA.AperFunction,ViaPad*%
%ADD52C,0.400000*%
%TD*%
%TA.AperFunction,Conductor*%
%ADD53C,0.300000*%
%TD*%
%TA.AperFunction,Conductor*%
%ADD54C,0.200000*%
%TD*%
%TA.AperFunction,Conductor*%
%ADD55C,0.500000*%
%TD*%
%TA.AperFunction,Conductor*%
%ADD56C,0.150000*%
%TD*%
%TA.AperFunction,Conductor*%
%ADD57C,0.332000*%
%TD*%
G04 APERTURE END LIST*
D10*
%TO.P,R4,1*%
%TO.N,Net-(C3-Pad2)*%
X133310000Y-109510000D03*
%TO.P,R4,2*%
%TO.N,GND*%
X134330000Y-109510000D03*
%TD*%
D11*
%TO.P,C21,1*%
%TO.N,GND*%
X135740000Y-93700000D03*
%TO.P,C21,2*%
%TO.N,+3.3V*%
X135740000Y-94660000D03*
%TD*%
D12*
%TO.P,REF\u002A\u002A,1*%
%TO.N,Net-(U1-NRST)*%
X134660000Y-93530000D03*
%TD*%
D13*
%TO.P,ANT1,1,1*%
%TO.N,Net-(FL1-OUT)*%
X147110000Y-108220000D03*
%TO.P,ANT1,2,2*%
%TO.N,unconnected-(ANT1-Pad2)*%
X150510000Y-108220000D03*
%TD*%
D14*
%TO.P,FL1,1,IN*%
%TO.N,Net-(FL1-IN)*%
X143265000Y-108230000D03*
D15*
%TO.P,FL1,2,GND*%
%TO.N,GND*%
X143877000Y-108457000D03*
D14*
%TO.P,FL1,3,OUT*%
%TO.N,Net-(FL1-OUT)*%
X144490000Y-108230000D03*
D15*
%TO.P,FL1,4,GND*%
%TO.N,GND*%
X143877000Y-108003000D03*
%TD*%
D16*
%TO.P,Y1,1,1*%
%TO.N,HSE_IN*%
X145016066Y-101765212D03*
%TO.P,Y1,2,2*%
%TO.N,GND*%
X144115212Y-102666066D03*
%TO.P,Y1,3,3*%
%TO.N,HSE_OUT*%
X144803934Y-103354788D03*
%TO.P,Y1,4,4*%
%TO.N,GND*%
X145704788Y-102453934D03*
%TD*%
D17*
%TO.P,R17,1*%
%TO.N,BAT+*%
X130160000Y-108230000D03*
%TO.P,R17,2*%
%TO.N,Net-(U1-PA4)*%
X129140000Y-108230000D03*
%TD*%
D12*
%TO.P,REF\u002A\u002A,1*%
%TO.N,SWCLK*%
X136250000Y-92010000D03*
%TD*%
D18*
%TO.P,L2,1*%
%TO.N,Net-(L1-Pad2)*%
X145845000Y-99030000D03*
%TO.P,L2,2*%
%TO.N,Net-(U1-VFBSMPS)*%
X144875000Y-99030000D03*
%TD*%
D19*
%TO.P,J3,1,Pin_1*%
%TO.N,GND*%
X148570000Y-92965000D03*
D20*
%TO.P,J3,2,Pin_2*%
%TO.N,+3.3V*%
X146030000Y-92965000D03*
%TO.P,J3,3,Pin_3*%
%TO.N,OLED_SCL*%
X143490000Y-92965000D03*
%TO.P,J3,4,Pin_4*%
%TO.N,OLED_SDA*%
X140950000Y-92965000D03*
%TD*%
D21*
%TO.P,U2,1,GND*%
%TO.N,GND*%
X130500000Y-105710000D03*
%TO.P,U2,2,\u002ACHRG*%
%TO.N,Net-(D1-K)*%
X130500000Y-106209999D03*
%TO.P,U2,3,BAT*%
%TO.N,BAT+*%
X130500000Y-106709998D03*
%TO.P,U2,4,VCC*%
%TO.N,vusb*%
X132400002Y-106709998D03*
%TO.P,U2,5,\u002AEN/\u002AACPR*%
%TO.N,GND*%
X132400002Y-106209999D03*
%TO.P,U2,6,PROG*%
%TO.N,Net-(U2-PROG)*%
X132400002Y-105710000D03*
D22*
%TO.P,U2,7,S*%
%TO.N,GND*%
X131450001Y-106209999D03*
%TD*%
D12*
%TO.P,REF\u002A\u002A,1*%
%TO.N,SWDIO*%
X137830000Y-92020000D03*
%TD*%
D23*
%TO.P,C3,1*%
%TO.N,vusb*%
X132290000Y-108530000D03*
%TO.P,C3,2*%
%TO.N,Net-(C3-Pad2)*%
X133250000Y-108530000D03*
%TD*%
D24*
%TO.P,U1,1,VBAT*%
%TO.N,+3.3V*%
X135245000Y-96680000D03*
%TO.P,U1,2,PC14*%
%TO.N,B2*%
X135245000Y-97180000D03*
%TO.P,U1,3,PC15*%
%TO.N,B1*%
X135245000Y-97680000D03*
%TO.P,U1,4,PH3*%
%TO.N,Net-(U1-PH3)*%
X135245000Y-98180000D03*
%TO.P,U1,5,PB8*%
%TO.N,COMPASSCL*%
X135245000Y-98680000D03*
%TO.P,U1,6,PB9*%
%TO.N,COMPASSDA*%
X135245000Y-99180000D03*
%TO.P,U1,7,NRST*%
%TO.N,Net-(U1-NRST)*%
X135245000Y-99680000D03*
%TO.P,U1,8,VDDA*%
%TO.N,+3.3V*%
X135245000Y-100180000D03*
%TO.P,U1,9,PA0*%
%TO.N,ALIMGPS*%
X135245000Y-100680000D03*
%TO.P,U1,10,PA1*%
%TO.N,SPI_SCK*%
X135245000Y-101180000D03*
%TO.P,U1,11,PA2*%
%TO.N,GPSRX*%
X135245000Y-101680000D03*
%TO.P,U1,12,PA3*%
%TO.N,GPSTX*%
X135245000Y-102180000D03*
D25*
%TO.P,U1,13,PA4*%
%TO.N,Net-(U1-PA4)*%
X135932500Y-102867500D03*
%TO.P,U1,14,PA5*%
%TO.N,unconnected-(U1-PA5-Pad14)*%
X136432500Y-102867500D03*
%TO.P,U1,15,PA6*%
%TO.N,SPI_MISO*%
X136932500Y-102867500D03*
%TO.P,U1,16,PA7*%
%TO.N,OLED_SCL*%
X137432500Y-102867500D03*
%TO.P,U1,17,PA8*%
%TO.N,unconnected-(U1-PA8-Pad17)*%
X137932500Y-102867500D03*
%TO.P,U1,18,PA9*%
%TO.N,USART_TX*%
X138432500Y-102867500D03*
%TO.P,U1,19,PB2*%
%TO.N,unconnected-(U1-PB2-Pad19)*%
X138932500Y-102867500D03*
%TO.P,U1,20,VDD*%
%TO.N,+3.3V*%
X139432500Y-102867500D03*
%TO.P,U1,21,RF1*%
%TO.N,Net-(IC1-IN)*%
X139932500Y-102867500D03*
%TO.P,U1,22,VSSRF*%
%TO.N,GND*%
X140432500Y-102867500D03*
%TO.P,U1,23,VDDRF*%
%TO.N,+3.3V*%
X140932500Y-102867500D03*
%TO.P,U1,24,OSC_OUT*%
%TO.N,HSE_OUT*%
X141432500Y-102867500D03*
D24*
%TO.P,U1,25,OSC_IN*%
%TO.N,HSE_IN*%
X142120000Y-102180000D03*
%TO.P,U1,26,AT0*%
%TO.N,unconnected-(U1-AT0-Pad26)*%
X142120000Y-101680000D03*
%TO.P,U1,27,AT1*%
%TO.N,unconnected-(U1-AT1-Pad27)*%
X142120000Y-101180000D03*
%TO.P,U1,28,PB0*%
%TO.N,Net-(U1-PB0)*%
X142120000Y-100680000D03*
%TO.P,U1,29,PB1*%
%TO.N,Net-(U1-PB1)*%
X142120000Y-100180000D03*
%TO.P,U1,30,PE4*%
%TO.N,unconnected-(U1-PE4-Pad30)*%
X142120000Y-99680000D03*
%TO.P,U1,31,VFBSMPS*%
%TO.N,Net-(U1-VFBSMPS)*%
X142120000Y-99180000D03*
%TO.P,U1,32,VSSSMPS*%
%TO.N,GND*%
X142120000Y-98680000D03*
%TO.P,U1,33,VLXSMPS*%
%TO.N,Net-(U1-VLXSMPS)*%
X142120000Y-98180000D03*
%TO.P,U1,34,VDDSMPS*%
%TO.N,+3.3V*%
X142120000Y-97680000D03*
%TO.P,U1,35,VDD*%
X142120000Y-97180000D03*
%TO.P,U1,36,PA10*%
%TO.N,USART_RX*%
X142120000Y-96680000D03*
D25*
%TO.P,U1,37,PA11*%
%TO.N,D-*%
X141432500Y-95992500D03*
%TO.P,U1,38,PA12*%
%TO.N,D+*%
X140932500Y-95992500D03*
%TO.P,U1,39,PA13*%
%TO.N,SWDIO*%
X140432500Y-95992500D03*
%TO.P,U1,40,VDDUSB*%
%TO.N,+3.3V*%
X139932500Y-95992500D03*
%TO.P,U1,41,PA14*%
%TO.N,SWCLK*%
X139432500Y-95992500D03*
%TO.P,U1,42,PA15*%
%TO.N,unconnected-(U1-PA15-Pad42)*%
X138932500Y-95992500D03*
%TO.P,U1,43,PB3*%
%TO.N,SWO*%
X138432500Y-95992500D03*
%TO.P,U1,44,PB4*%
%TO.N,OLED_SDA*%
X137932500Y-95992500D03*
%TO.P,U1,45,PB5*%
%TO.N,SPI_MOSi*%
X137432500Y-95992500D03*
%TO.P,U1,46,PB6*%
%TO.N,unconnected-(U1-PB6-Pad46)*%
X136932500Y-95992500D03*
%TO.P,U1,47,PB7*%
%TO.N,SPI_CS*%
X136432500Y-95992500D03*
%TO.P,U1,48,VDD*%
%TO.N,+3.3V*%
X135932500Y-95992500D03*
D26*
%TO.P,U1,49,VSS*%
%TO.N,GND*%
X138682500Y-99430000D03*
%TD*%
D27*
%TO.P,IC1,A1,OUT*%
%TO.N,Net-(FL1-IN)*%
X139930000Y-106134000D03*
%TO.P,IC1,A2,GND4*%
%TO.N,GND*%
X139930000Y-105547000D03*
%TO.P,IC1,A3,IN*%
%TO.N,Net-(IC1-IN)*%
X139930000Y-104960000D03*
%TO.P,IC1,B1,GND3*%
%TO.N,GND*%
X139430000Y-106134000D03*
%TO.P,IC1,B2,GD2*%
X139430000Y-105547000D03*
%TO.P,IC1,B3,GND1*%
X139430000Y-104960000D03*
%TD*%
D28*
%TO.P,U4,1,I/O1*%
%TO.N,Net-(J4-D--PadA7)*%
X148320000Y-99410000D03*
%TO.P,U4,2,GND*%
%TO.N,GND*%
X148320000Y-100360000D03*
%TO.P,U4,3,I/O2*%
%TO.N,Net-(J4-D+-PadA6)*%
X148320000Y-101310000D03*
%TO.P,U4,4,I/O2*%
%TO.N,D+*%
X150595000Y-101310000D03*
%TO.P,U4,5,VBUS*%
%TO.N,vusb*%
X150595000Y-100360000D03*
%TO.P,U4,6,I/O1*%
%TO.N,D-*%
X150595000Y-99410000D03*
%TD*%
D17*
%TO.P,R16,1*%
%TO.N,Net-(U1-PH3)*%
X134010000Y-98850000D03*
%TO.P,R16,2*%
%TO.N,GND*%
X132990000Y-98850000D03*
%TD*%
D11*
%TO.P,C9,1*%
%TO.N,+3.3V*%
X127980000Y-97880000D03*
%TO.P,C9,2*%
%TO.N,GNDGPS*%
X127980000Y-98840000D03*
%TD*%
D12*
%TO.P,REF\u002A\u002A,1*%
%TO.N,SWO*%
X134760000Y-92040000D03*
%TD*%
D29*
%TO.P,BT1,1,+*%
%TO.N,Net-(BT1-+)*%
X126950000Y-103730000D03*
D30*
%TO.P,BT1,2,-*%
%TO.N,GNDGPS*%
X128100000Y-99940000D03*
%TD*%
D23*
%TO.P,C26,1*%
%TO.N,GND*%
X133890000Y-94710000D03*
%TO.P,C26,2*%
%TO.N,+3.3V*%
X134850000Y-94710000D03*
%TD*%
D10*
%TO.P,R12,1*%
%TO.N,GPSTX*%
X135260000Y-104240000D03*
%TO.P,R12,2*%
%TO.N,Net-(PA1010D1-TX)*%
X136280000Y-104240000D03*
%TD*%
D31*
%TO.P,C23,1*%
%TO.N,GND*%
X142500000Y-104090000D03*
%TO.P,C23,2*%
%TO.N,+3.3V*%
X141540000Y-104090000D03*
%TD*%
D32*
%TO.P,U3,1,VOUT*%
%TO.N,+3.3V*%
X135255000Y-106542500D03*
D33*
%TO.P,U3,2,GND*%
%TO.N,GND*%
X134545000Y-106542500D03*
D34*
X134900000Y-106935000D03*
D35*
%TO.P,U3,3,EN*%
%TO.N,Net-(SW1-B)*%
X134545000Y-107327500D03*
D36*
%TO.P,U3,4,VIN*%
X135255000Y-107327500D03*
%TD*%
D37*
%TO.P,L1,1*%
%TO.N,Net-(U1-VLXSMPS)*%
X143617500Y-97700000D03*
%TO.P,L1,2*%
%TO.N,Net-(L1-Pad2)*%
X145742500Y-97700000D03*
%TD*%
D38*
%TO.P,R6,1*%
%TO.N,ALIMGPS*%
X128570000Y-106240000D03*
%TO.P,R6,2*%
%TO.N,GND*%
X128570000Y-107260000D03*
%TD*%
D39*
%TO.P,SW4,1,1*%
%TO.N,Net-(U1-PH3)*%
X132130000Y-98345000D03*
%TO.P,SW4,2,2*%
%TO.N,+3.3V*%
X128880000Y-98345000D03*
%TD*%
D40*
%TO.P,TP1,1,1*%
%TO.N,GND*%
X127050000Y-108950000D03*
%TD*%
D41*
%TO.P,C17,1*%
%TO.N,GND*%
X132040000Y-102540000D03*
%TO.P,C17,2*%
%TO.N,Net-(U1-NRST)*%
X132040000Y-101580000D03*
%TD*%
D38*
%TO.P,R15,1*%
%TO.N,Net-(J4-CC2)*%
X148780000Y-103460000D03*
%TO.P,R15,2*%
%TO.N,GND*%
X148780000Y-104480000D03*
%TD*%
D23*
%TO.P,C8,1*%
%TO.N,Net-(BT1-+)*%
X126450000Y-105230000D03*
%TO.P,C8,2*%
%TO.N,GNDGPS*%
X127410000Y-105230000D03*
%TD*%
D17*
%TO.P,R11,1*%
%TO.N,Net-(PA1010D1-RX)*%
X135930000Y-105230000D03*
%TO.P,R11,2*%
%TO.N,GPSRX*%
X134910000Y-105230000D03*
%TD*%
D10*
%TO.P,R3,1*%
%TO.N,GND*%
X130960000Y-104380000D03*
%TO.P,R3,2*%
%TO.N,Net-(U2-PROG)*%
X131980000Y-104380000D03*
%TD*%
D11*
%TO.P,C5,1*%
%TO.N,+3.3V*%
X136410000Y-106580000D03*
%TO.P,C5,2*%
%TO.N,GND*%
X136410000Y-107540000D03*
%TD*%
D42*
%TO.P,IC2,1,~{CS}*%
%TO.N,SPI_CS*%
X132670000Y-96540000D03*
%TO.P,IC2,2,DO_(IO1)*%
%TO.N,SPI_MISO*%
X132670000Y-95270000D03*
%TO.P,IC2,3,~{WP_(IO2)}*%
%TO.N,+3.3V*%
X132670000Y-94000000D03*
%TO.P,IC2,4,GND*%
%TO.N,GND*%
X132670000Y-92730000D03*
%TO.P,IC2,5,DI_(IO0)*%
%TO.N,SPI_MOSi*%
X126970000Y-92730000D03*
%TO.P,IC2,6,CLK*%
%TO.N,SPI_SCK*%
X126970000Y-94000000D03*
%TO.P,IC2,7,~{HOLD_OR_RESET_(IO3)}*%
%TO.N,+3.3V*%
X126970000Y-95270000D03*
%TO.P,IC2,8,VCC*%
X126970000Y-96540000D03*
D43*
%TO.P,IC2,9,EP*%
%TO.N,GND*%
X129820000Y-94635000D03*
%TD*%
D44*
%TO.P,D1,1,K*%
%TO.N,Net-(D1-K)*%
X129440000Y-106432500D03*
%TO.P,D1,2,A*%
%TO.N,Net-(D1-A)*%
X129440000Y-107247500D03*
%TD*%
D45*
%TO.P,R14,1*%
%TO.N,Net-(J4-CC1)*%
X148750000Y-97950000D03*
%TO.P,R14,2*%
%TO.N,GND*%
X148750000Y-96930000D03*
%TD*%
D23*
%TO.P,C15,1*%
%TO.N,GND*%
X132990000Y-100770000D03*
%TO.P,C15,2*%
%TO.N,+3.3V*%
X133950000Y-100770000D03*
%TD*%
D46*
%TO.P,SW5,1,1*%
%TO.N,GND*%
X133565000Y-104930000D03*
%TO.P,SW5,2,2*%
%TO.N,Net-(U1-NRST)*%
X133565000Y-101680000D03*
%TD*%
D47*
%TO.P,Q1,1,G*%
%TO.N,ALIMGPS*%
X129330000Y-105405000D03*
%TO.P,Q1,2,S*%
%TO.N,GND*%
X129330000Y-104755000D03*
D48*
%TO.P,Q1,3,D*%
%TO.N,GNDGPS*%
X128250000Y-105080000D03*
D49*
X128640000Y-105080000D03*
%TD*%
D17*
%TO.P,R5,1*%
%TO.N,vusb*%
X131550000Y-109530000D03*
%TO.P,R5,2*%
%TO.N,Net-(D1-A)*%
X130530000Y-109530000D03*
%TD*%
D40*
%TO.P,TP2,1,1*%
%TO.N,BAT+*%
X127090000Y-106930000D03*
%TD*%
D11*
%TO.P,C4,1*%
%TO.N,Net-(SW1-B)*%
X135330000Y-108190000D03*
%TO.P,C4,2*%
%TO.N,GND*%
X135330000Y-109150000D03*
%TD*%
D41*
%TO.P,C1,1*%
%TO.N,GND*%
X143920000Y-99990000D03*
%TO.P,C1,2*%
%TO.N,Net-(U1-VFBSMPS)*%
X143920000Y-99030000D03*
%TD*%
D17*
%TO.P,R18,1*%
%TO.N,Net-(U1-PA4)*%
X129590000Y-109510000D03*
%TO.P,R18,2*%
%TO.N,GND*%
X128570000Y-109510000D03*
%TD*%
D11*
%TO.P,C18,1*%
%TO.N,GND*%
X133910000Y-96940000D03*
%TO.P,C18,2*%
%TO.N,Net-(U1-PH3)*%
X133910000Y-97900000D03*
%TD*%
D23*
%TO.P,C16,1*%
%TO.N,GND*%
X133000000Y-99820000D03*
%TO.P,C16,2*%
%TO.N,+3.3V*%
X133960000Y-99820000D03*
%TD*%
D50*
%TO.P,J4,S1,SHIELD*%
%TO.N,GND*%
X151245000Y-96350000D03*
D51*
X147065000Y-96350000D03*
D50*
X151245000Y-104990000D03*
D51*
X147065000Y-104990000D03*
%TD*%
D52*
%TO.N,Net-(BT1-+)*%
X126950000Y-103730000D03*
%TO.N,GNDGPS*%
X128100000Y-99940000D03*
X126460000Y-102240000D03*
X126990000Y-102240000D03*
X128570000Y-99940000D03*
%TO.N,GND*%
X136350000Y-94160000D03*
X130300000Y-98220000D03*
X150430000Y-98280000D03*
X149090000Y-105540000D03*
X128300000Y-107850000D03*
X136130000Y-102000000D03*
X138350000Y-96890000D03*
X143220000Y-106520000D03*
X149930000Y-103260000D03*
X145260000Y-106520000D03*
X137360000Y-99160000D03*
X137100000Y-94670000D03*
X127780000Y-109600000D03*
X140670000Y-106520000D03*
X151380000Y-106520000D03*
X137450000Y-104820000D03*
X147060000Y-94160000D03*
X129130000Y-101880000D03*
X130030000Y-100950000D03*
X130180000Y-95610000D03*
X133890000Y-103780000D03*
X132880000Y-97160000D03*
X143160000Y-101250000D03*
X142200000Y-106520000D03*
X129820000Y-94635000D03*
X138710000Y-106550000D03*
X138050000Y-104340000D03*
X140570000Y-101920000D03*
X133380000Y-94600000D03*
X126350000Y-109660000D03*
X143000000Y-102920000D03*
X139370000Y-96870000D03*
X138900000Y-91580000D03*
X149340000Y-106520000D03*
X129800000Y-93790000D03*
X132460000Y-100920000D03*
X128710000Y-93790000D03*
X141150000Y-100950000D03*
X138270000Y-106990000D03*
X130330000Y-105260000D03*
X145650000Y-96580000D03*
X151160000Y-103200000D03*
X148640000Y-91490000D03*
X141140000Y-101910000D03*
X136080000Y-108230000D03*
X127950000Y-93890000D03*
X126320000Y-108020000D03*
X133340000Y-105670000D03*
X132400000Y-91890000D03*
X144680000Y-91590000D03*
X133300000Y-102380000D03*
X147810000Y-106520000D03*
X150330000Y-102310000D03*
X138270000Y-109030000D03*
X140090000Y-94190000D03*
X147710000Y-98490000D03*
X148320000Y-106520000D03*
X148830000Y-106520000D03*
X138630000Y-93270000D03*
X142180000Y-95280000D03*
X142710000Y-106520000D03*
X131220000Y-96450000D03*
X147680000Y-102870000D03*
X146790000Y-106520000D03*
X149130000Y-102280000D03*
X150360000Y-106520000D03*
X129140000Y-100990000D03*
X142190000Y-91570000D03*
X140140000Y-98080000D03*
X138270000Y-107500000D03*
X151440000Y-97360000D03*
X131280000Y-91390000D03*
X143730000Y-106520000D03*
X130080000Y-104190000D03*
X129030000Y-104190000D03*
X144040000Y-100990000D03*
X147300000Y-106520000D03*
X150410000Y-97380000D03*
X151750000Y-103830000D03*
X149810000Y-104430000D03*
X138280000Y-98070000D03*
X134280000Y-95700000D03*
X142170000Y-93680000D03*
X144730000Y-94040000D03*
X138270000Y-108010000D03*
X129750000Y-98910000D03*
X147260000Y-91500000D03*
X130110000Y-102970000D03*
X129530000Y-97190000D03*
X141180000Y-106520000D03*
X148790000Y-95740000D03*
X151890000Y-106520000D03*
X133390000Y-104260000D03*
X131300000Y-92060000D03*
X136130000Y-97560000D03*
X134140000Y-105660000D03*
X148580000Y-94560000D03*
X133660000Y-92220000D03*
X133729834Y-93419834D03*
X141690000Y-106520000D03*
X151420000Y-98330000D03*
X144750000Y-106520000D03*
X137500000Y-109660000D03*
X131160000Y-98850000D03*
X136150000Y-100500000D03*
X138270000Y-108520000D03*
X131600000Y-97130000D03*
X138300000Y-99180000D03*
X148310000Y-101990000D03*
X130100000Y-101850000D03*
X132060000Y-103400000D03*
X133350000Y-106610000D03*
X131190000Y-95500000D03*
X138860000Y-92440000D03*
X149850000Y-106520000D03*
X142280000Y-102910000D03*
X144509834Y-97819834D03*
X133360000Y-99280000D03*
X131150000Y-101820000D03*
X144240000Y-106520000D03*
X137430000Y-96900000D03*
X131100000Y-103420000D03*
X149920000Y-92770000D03*
X138270000Y-109540000D03*
X128400000Y-108690000D03*
X139270000Y-106560000D03*
X129130000Y-103010000D03*
X150990000Y-94360000D03*
X149930000Y-95390000D03*
X139380000Y-94050000D03*
X150870000Y-106520000D03*
X135720000Y-93630000D03*
X151640000Y-102310000D03*
X141150000Y-98100000D03*
X143960000Y-94870000D03*
X146280000Y-106520000D03*
X134100000Y-106620000D03*
X137580000Y-101880000D03*
X137110000Y-107710000D03*
X132840000Y-100330000D03*
X145770000Y-106520000D03*
X143440000Y-91560000D03*
X131980000Y-93300000D03*
%TO.N,+3.3V*%
X136520275Y-105883344D03*
X136020388Y-105894068D03*
X127060000Y-95820000D03*
X127549196Y-93250066D03*
X135510000Y-95650000D03*
X135190000Y-96140000D03*
X136750000Y-93180000D03*
X142710000Y-97160000D03*
X143920000Y-104260000D03*
X133960000Y-100270000D03*
X141024490Y-103355427D03*
X143920000Y-104770000D03*
X126680000Y-96780000D03*
X133290000Y-94010000D03*
X126540000Y-95820000D03*
X142720000Y-97620000D03*
X138930000Y-103690000D03*
X137020000Y-106400000D03*
X139780013Y-95341573D03*
X134450000Y-100260000D03*
X137020000Y-105899997D03*
%TO.N,vusb*%
X132260000Y-109150000D03*
X132280000Y-109570000D03*
X145300000Y-105010000D03*
X151650000Y-100330000D03*
X144915000Y-105395000D03*
%TO.N,Net-(SW1-B)*%
X133070000Y-107460000D03*
X133570000Y-107460000D03*
%TO.N,B2*%
X134520000Y-96860000D03*
%TO.N,B1*%
X134510000Y-97430000D03*
%TO.N,Net-(U1-NRST)*%
X134800000Y-93800000D03*
X132750000Y-101580000D03*
X134539999Y-99667215D03*
%TO.N,SPI_MOSi*%
X126460000Y-93020000D03*
X137557500Y-95220000D03*
%TO.N,SPI_SCK*%
X126860000Y-93370000D03*
X134611802Y-101361317D03*
%TO.N,SPI_MISO*%
X136990000Y-103680000D03*
X133360000Y-95680000D03*
%TO.N,SPI_CS*%
X132100000Y-96100000D03*
X136500000Y-94865000D03*
%TO.N,COMPASSDA*%
X142900000Y-104810000D03*
X141478477Y-94897064D03*
X134562492Y-99163252D03*
%TO.N,COMPASSCL*%
X141940251Y-104764958D03*
X134579999Y-98652671D03*
%TO.N,USART_RX*%
X140941084Y-103890141D03*
X142900000Y-95170000D03*
%TO.N,USART_TX*%
X138100000Y-103700000D03*
%TO.N,OLED_SCL*%
X137530000Y-103700000D03*
%TO.N,Net-(J4-CC2)*%
X148760000Y-103100000D03*
%TO.N,Net-(J4-D--PadA7)*%
X147270000Y-99830000D03*
%TO.N,Net-(J4-D+-PadA6)*%
X147240000Y-101400000D03*
%TO.N,Net-(J4-CC1)*%
X148750000Y-98240000D03*
%TO.N,Net-(PA1010D1-RX)*%
X135930000Y-105230000D03*
%TO.N,Net-(PA1010D1-TX)*%
X135850000Y-103720000D03*
%TO.N,ALIMGPS*%
X127990000Y-106030000D03*
X134565416Y-100863471D03*
%TO.N,Net-(R10-Pad1)*%
X126880000Y-91970000D03*
%TO.N,Net-(U1-PA4)*%
X129220000Y-108682498D03*
X135370000Y-103230000D03*
%TO.N,BAT+*%
X130140000Y-107610000D03*
X130130000Y-107060000D03*
%TO.N,SWDIO*%
X137900000Y-93550000D03*
X138930000Y-94610000D03*
%TO.N,SWCLK*%
X137340000Y-93630000D03*
X139230000Y-95280000D03*
%TO.N,SWO*%
X133780000Y-91500000D03*
X138307500Y-95190000D03*
%TO.N,D+*%
X150595000Y-101310000D03*
X140790000Y-95283906D03*
%TO.N,D-*%
X141540000Y-95393267D03*
X150595000Y-99410000D03*
%TO.N,Net-(U1-PB0)*%
X151020000Y-95180000D03*
X143120000Y-100410000D03*
%TO.N,Net-(U1-PB1)*%
X145070000Y-95950000D03*
X143050000Y-99810000D03*
%TD*%
D53*
%TO.N,Net-(U1-VFBSMPS)*%
X143210000Y-99180000D02*
X143360000Y-99030000D01*
X144875000Y-99030000D02*
X143920000Y-99030000D01*
X142120000Y-99180000D02*
X143210000Y-99180000D01*
X143360000Y-99030000D02*
X143920000Y-99030000D01*
D54*
%TO.N,+3.3V*%
X139932500Y-95494060D02*
X139780013Y-95341573D01*
X140932500Y-103263437D02*
X140932500Y-102867500D01*
X139432500Y-103187500D02*
X139432500Y-102867500D01*
X142120000Y-97180000D02*
X142690000Y-97180000D01*
X142660000Y-97680000D02*
X142720000Y-97620000D01*
X141024490Y-103355427D02*
X141540000Y-103870937D01*
X138930000Y-103690000D02*
X139432500Y-103187500D01*
X139932500Y-95992500D02*
X139932500Y-95494060D01*
X142690000Y-97180000D02*
X142710000Y-97160000D01*
X141024490Y-103355427D02*
X140932500Y-103263437D01*
X142120000Y-97680000D02*
X142660000Y-97680000D01*
X141540000Y-103870937D02*
X141540000Y-104090000D01*
D55*
%TO.N,vusb*%
X150625000Y-100330000D02*
X150595000Y-100360000D01*
X151650000Y-100330000D02*
X150625000Y-100330000D01*
D56*
%TO.N,Net-(C3-Pad2)*%
X133250000Y-109450000D02*
X133310000Y-109510000D01*
X133250000Y-108530000D02*
X133250000Y-109450000D01*
%TO.N,B2*%
X134520000Y-96860000D02*
X134520000Y-96892499D01*
X134520000Y-96892499D02*
X134807501Y-97180000D01*
X134807501Y-97180000D02*
X135245000Y-97180000D01*
%TO.N,B1*%
X135245000Y-97680000D02*
X134760000Y-97680000D01*
X134760000Y-97680000D02*
X134510000Y-97430000D01*
%TO.N,Net-(U1-NRST)*%
X134552784Y-99680000D02*
X134539999Y-99667215D01*
X132040000Y-101580000D02*
X133465000Y-101580000D01*
X135245000Y-99680000D02*
X134552784Y-99680000D01*
X133465000Y-101580000D02*
X133565000Y-101680000D01*
%TO.N,Net-(D1-A)*%
X129430000Y-107217500D02*
X129520000Y-107307500D01*
X129520000Y-107847852D02*
X129595000Y-107922852D01*
X129520000Y-107307500D02*
X129520000Y-107847852D01*
X129595000Y-108595000D02*
X130530000Y-109530000D01*
X129595000Y-107922852D02*
X129595000Y-108595000D01*
%TO.N,Net-(D1-K)*%
X129622501Y-106209999D02*
X129430000Y-106402500D01*
X130500000Y-106209999D02*
X129622501Y-106209999D01*
D57*
%TO.N,Net-(FL1-OUT)*%
X147100000Y-108230000D02*
X147110000Y-108220000D01*
X144490000Y-108230000D02*
X147100000Y-108230000D01*
%TO.N,Net-(FL1-IN)*%
X139930000Y-106134000D02*
X139930000Y-106915786D01*
X140222893Y-107622893D02*
X140537107Y-107937107D01*
X141244214Y-108230000D02*
X143265000Y-108230000D01*
X140537107Y-107937107D02*
G75*
G03*
X141244214Y-108229990I707093J707107D01*
G01*
X139930000Y-106915786D02*
G75*
G03*
X140222886Y-107622900I1000000J-14D01*
G01*
%TO.N,Net-(IC1-IN)*%
X139932500Y-104957500D02*
X139930000Y-104960000D01*
X139932500Y-102867500D02*
X139932500Y-104957500D01*
D56*
%TO.N,SPI_MOSi*%
X137557500Y-95220000D02*
X137432500Y-95345000D01*
X137432500Y-95345000D02*
X137432500Y-95992500D01*
X126970000Y-92730000D02*
X126750000Y-92730000D01*
X126750000Y-92730000D02*
X126460000Y-93020000D01*
%TO.N,SPI_SCK*%
X135245000Y-101180000D02*
X134793119Y-101180000D01*
X126860000Y-93370000D02*
X126860000Y-93890000D01*
X126860000Y-93890000D02*
X126970000Y-94000000D01*
X134793119Y-101180000D02*
X134611802Y-101361317D01*
%TO.N,SPI_MISO*%
X136932500Y-102867500D02*
X136932500Y-103622500D01*
X136932500Y-103622500D02*
X136990000Y-103680000D01*
X132950000Y-95270000D02*
X132670000Y-95270000D01*
X133360000Y-95680000D02*
X132950000Y-95270000D01*
%TO.N,SPI_CS*%
X132670000Y-96540000D02*
X132540000Y-96540000D01*
X132540000Y-96540000D02*
X132100000Y-96100000D01*
X136432500Y-94932500D02*
X136432500Y-95992500D01*
X136500000Y-94865000D02*
X136432500Y-94932500D01*
%TO.N,COMPASSDA*%
X135245000Y-99180000D02*
X134579240Y-99180000D01*
X134579240Y-99180000D02*
X134562492Y-99163252D01*
%TO.N,COMPASSCL*%
X134607328Y-98680000D02*
X134579999Y-98652671D01*
X135245000Y-98680000D02*
X134607328Y-98680000D01*
%TO.N,USART_RX*%
X142900000Y-95170000D02*
X142900000Y-96290000D01*
X142900000Y-96290000D02*
X142510000Y-96680000D01*
X142510000Y-96680000D02*
X142120000Y-96680000D01*
%TO.N,USART_TX*%
X138432500Y-103367500D02*
X138432500Y-102867500D01*
X138100000Y-103700000D02*
X138432500Y-103367500D01*
%TO.N,OLED_SCL*%
X137432500Y-102867500D02*
X137432500Y-103602500D01*
X137432500Y-103602500D02*
X137530000Y-103700000D01*
%TO.N,OLED_SDA*%
X137932500Y-94780419D02*
X137932500Y-95992500D01*
X140950000Y-92965000D02*
X139747919Y-92965000D01*
X139747919Y-92965000D02*
X137932500Y-94780419D01*
%TO.N,Net-(J4-D--PadA7)*%
X148320000Y-99410000D02*
X147690000Y-99410000D01*
X147690000Y-99410000D02*
X147270000Y-99830000D01*
%TO.N,Net-(J4-D+-PadA6)*%
X148320000Y-101310000D02*
X147330000Y-101310000D01*
X147330000Y-101310000D02*
X147240000Y-101400000D01*
D53*
%TO.N,Net-(L1-Pad2)*%
X145742500Y-97700000D02*
X145742500Y-98927500D01*
X145742500Y-98927500D02*
X145845000Y-99030000D01*
%TO.N,Net-(U1-VLXSMPS)*%
X142120000Y-98180000D02*
X143137500Y-98180000D01*
X143137500Y-98180000D02*
X143617500Y-97700000D01*
D56*
%TO.N,Net-(PA1010D1-TX)*%
X136280000Y-104150000D02*
X135850000Y-103720000D01*
X136280000Y-104240000D02*
X136280000Y-104150000D01*
%TO.N,ALIMGPS*%
X129330000Y-105480000D02*
X129330000Y-105405000D01*
X128570000Y-106240000D02*
X128200000Y-106240000D01*
X134748887Y-100680000D02*
X134565416Y-100863471D01*
X135245000Y-100680000D02*
X134748887Y-100680000D01*
X128570000Y-106240000D02*
X129330000Y-105480000D01*
X128200000Y-106240000D02*
X127990000Y-106030000D01*
%TO.N,Net-(U2-PROG)*%
X132400002Y-104800002D02*
X131980000Y-104380000D01*
X132400002Y-105710000D02*
X132400002Y-104800002D01*
%TO.N,GPSRX*%
X134610000Y-102039892D02*
X134610000Y-104930000D01*
X134610000Y-104930000D02*
X134910000Y-105230000D01*
X135245000Y-101680000D02*
X134969892Y-101680000D01*
X134969892Y-101680000D02*
X134610000Y-102039892D01*
%TO.N,GPSTX*%
X134860000Y-102565000D02*
X134860000Y-103840000D01*
X134860000Y-103840000D02*
X135260000Y-104240000D01*
X135245000Y-102180000D02*
X134860000Y-102565000D01*
%TO.N,Net-(U1-PA4)*%
X129140000Y-108230000D02*
X129140000Y-108602498D01*
X129590000Y-109510000D02*
X129590000Y-109052498D01*
X135932500Y-102867500D02*
X135732500Y-102867500D01*
X129140000Y-108602498D02*
X129220000Y-108682498D01*
X135732500Y-102867500D02*
X135370000Y-103230000D01*
X129590000Y-109052498D02*
X129220000Y-108682498D01*
%TO.N,SWDIO*%
X137900000Y-92090000D02*
X137830000Y-92020000D01*
X139935344Y-94966573D02*
X140432500Y-95463729D01*
X138930000Y-94610000D02*
X139270000Y-94610000D01*
X139626573Y-94966573D02*
X139935344Y-94966573D01*
X140432500Y-95463729D02*
X140432500Y-95992500D01*
X139270000Y-94610000D02*
X139626573Y-94966573D01*
X137900000Y-93550000D02*
X137900000Y-92090000D01*
%TO.N,SWCLK*%
X139432500Y-95482500D02*
X139432500Y-95992500D01*
X137340000Y-93100000D02*
X136250000Y-92010000D01*
X139230000Y-95280000D02*
X139432500Y-95482500D01*
X137340000Y-93630000D02*
X137340000Y-93100000D01*
%TO.N,SWO*%
X138432500Y-95315000D02*
X138432500Y-95992500D01*
X134760000Y-92040000D02*
X134320000Y-92040000D01*
X138307500Y-95190000D02*
X138432500Y-95315000D01*
X134320000Y-92040000D02*
X133780000Y-91500000D01*
D54*
%TO.N,D+*%
X140932500Y-95426406D02*
X140790000Y-95283906D01*
X140932500Y-95992500D02*
X140932500Y-95426406D01*
D56*
%TO.N,HSE_OUT*%
X144658722Y-103500000D02*
X141880000Y-103500000D01*
X144803934Y-103354788D02*
X144658722Y-103500000D01*
X141880000Y-103500000D02*
X141432500Y-103052500D01*
X141432500Y-103052500D02*
X141432500Y-102867500D01*
D54*
%TO.N,D-*%
X141432500Y-95500767D02*
X141540000Y-95393267D01*
X141432500Y-95992500D02*
X141432500Y-95500767D01*
D56*
%TO.N,HSE_IN*%
X142120000Y-102180000D02*
X143504504Y-102180000D01*
X143919292Y-101765212D02*
X145016066Y-101765212D01*
X143504504Y-102180000D02*
X143919292Y-101765212D01*
%TO.N,Net-(U1-PB0)*%
X143120000Y-100410000D02*
X142850000Y-100680000D01*
X142850000Y-100680000D02*
X142120000Y-100680000D01*
%TO.N,Net-(U1-PB1)*%
X143050000Y-99810000D02*
X142680000Y-100180000D01*
X142680000Y-100180000D02*
X142120000Y-100180000D01*
%TD*%
%TA.AperFunction,Conductor*%
%TO.N,Net-(SW1-B)*%
G36*
X134524285Y-107129685D02*
G01*
X134544925Y-107146317D01*
X134804060Y-107405452D01*
X134822796Y-107417971D01*
X134841276Y-107430320D01*
X134841278Y-107430321D01*
X134900000Y-107442001D01*
X134958722Y-107430321D01*
X134995940Y-107405452D01*
X135255073Y-107146319D01*
X135316396Y-107112834D01*
X135342754Y-107110000D01*
X135378638Y-107110000D01*
X135445677Y-107129685D01*
X135466319Y-107146319D01*
X135593681Y-107273681D01*
X135627166Y-107335004D01*
X135630000Y-107361362D01*
X135630000Y-108346000D01*
X135610315Y-108413039D01*
X135557511Y-108458794D01*
X135506000Y-108470000D01*
X135161362Y-108470000D01*
X135094323Y-108450315D01*
X135073681Y-108433681D01*
X135046319Y-108406319D01*
X135012834Y-108344996D01*
X135011649Y-108333983D01*
X135010000Y-108330001D01*
X135010000Y-108330000D01*
X134500000Y-107820000D01*
X134478120Y-107820000D01*
X134464996Y-107827166D01*
X134438638Y-107830000D01*
X134388899Y-107830000D01*
X134356807Y-107825775D01*
X134324058Y-107817000D01*
X134324057Y-107817000D01*
X134165943Y-107817000D01*
X134165941Y-107817000D01*
X134133193Y-107825775D01*
X134101101Y-107830000D01*
X132841273Y-107830000D01*
X132774234Y-107810315D01*
X132753592Y-107793681D01*
X132751819Y-107791908D01*
X132718334Y-107730585D01*
X132715500Y-107704227D01*
X132715500Y-107255772D01*
X132735185Y-107188733D01*
X132751821Y-107168089D01*
X132773594Y-107146317D01*
X132834918Y-107112833D01*
X132861273Y-107110000D01*
X134457246Y-107110000D01*
X134524285Y-107129685D01*
G37*
%TD.AperFunction*%
%TD*%
%TA.AperFunction,Conductor*%
%TO.N,Net-(U1-PH3)*%
G36*
X134184196Y-97599685D02*
G01*
X134217471Y-97631109D01*
X134222901Y-97638582D01*
X134222903Y-97638584D01*
X134222905Y-97638587D01*
X134301413Y-97717095D01*
X134400339Y-97767500D01*
X134467105Y-97778074D01*
X134530236Y-97808002D01*
X134531217Y-97808887D01*
X134730000Y-97990000D01*
X135525796Y-97988689D01*
X135592868Y-98008263D01*
X135638709Y-98060992D01*
X135650000Y-98112689D01*
X135650000Y-98206684D01*
X135630315Y-98273723D01*
X135577511Y-98319478D01*
X135527016Y-98330680D01*
X134763179Y-98336940D01*
X134705869Y-98323429D01*
X134689659Y-98315170D01*
X134689660Y-98315170D01*
X134580001Y-98297802D01*
X134579997Y-98297802D01*
X134470339Y-98315170D01*
X134448166Y-98326467D01*
X134392897Y-98339976D01*
X134390001Y-98339999D01*
X134390000Y-98339999D01*
X134270000Y-98420000D01*
X134270000Y-98459265D01*
X134256485Y-98515559D01*
X134242498Y-98543009D01*
X134225130Y-98652668D01*
X134225130Y-98652673D01*
X134242497Y-98762329D01*
X134256485Y-98789781D01*
X134270000Y-98846075D01*
X134270000Y-98935487D01*
X134256485Y-98991781D01*
X134224992Y-99053590D01*
X134221977Y-99062870D01*
X134218535Y-99061751D01*
X134196371Y-99108521D01*
X134137064Y-99145460D01*
X134103817Y-99150000D01*
X133881362Y-99150000D01*
X133814323Y-99130315D01*
X133793681Y-99113681D01*
X133516319Y-98836319D01*
X133482834Y-98774996D01*
X133480000Y-98748638D01*
X133480000Y-98410000D01*
X133280458Y-98410000D01*
X133230371Y-98399434D01*
X133191499Y-98382270D01*
X133167623Y-98379500D01*
X132812384Y-98379500D01*
X132812361Y-98379502D01*
X132788504Y-98382269D01*
X132749630Y-98399434D01*
X132699543Y-98410000D01*
X132679999Y-98410000D01*
X132410000Y-98679999D01*
X132410000Y-98976000D01*
X132390315Y-99043039D01*
X132337511Y-99088794D01*
X132286000Y-99100000D01*
X131984000Y-99100000D01*
X131916961Y-99080315D01*
X131871206Y-99027511D01*
X131860000Y-98976000D01*
X131860000Y-97704000D01*
X131879685Y-97636961D01*
X131932489Y-97591206D01*
X131984000Y-97580000D01*
X134117157Y-97580000D01*
X134184196Y-97599685D01*
G37*
%TD.AperFunction*%
%TD*%
%TA.AperFunction,Conductor*%
%TO.N,Net-(BT1-+)*%
G36*
X126980677Y-103004685D02*
G01*
X127001319Y-103021319D01*
X127573681Y-103593681D01*
X127607166Y-103655004D01*
X127610000Y-103681362D01*
X127610000Y-104346000D01*
X127590315Y-104413039D01*
X127537511Y-104458794D01*
X127486000Y-104470000D01*
X127149999Y-104470000D01*
X126740000Y-104879999D01*
X126740000Y-105426000D01*
X126720315Y-105493039D01*
X126667511Y-105538794D01*
X126616000Y-105550000D01*
X126174500Y-105550000D01*
X126107461Y-105530315D01*
X126061706Y-105477511D01*
X126050500Y-105426000D01*
X126050500Y-103109500D01*
X126070185Y-103042461D01*
X126122989Y-102996706D01*
X126174500Y-102985500D01*
X126273995Y-102985500D01*
X126274012Y-102985500D01*
X126281642Y-102985313D01*
X126283586Y-102985217D01*
X126284988Y-102985149D01*
X126291059Y-102985000D01*
X126913638Y-102985000D01*
X126980677Y-103004685D01*
G37*
%TD.AperFunction*%
%TD*%
%TA.AperFunction,Conductor*%
%TO.N,+3.3V*%
G36*
X127873039Y-94629685D02*
G01*
X127918794Y-94682489D01*
X127930000Y-94734000D01*
X127930000Y-96920000D01*
X128590000Y-97580000D01*
X129106000Y-97580000D01*
X129173039Y-97599685D01*
X129218794Y-97652489D01*
X129230000Y-97704000D01*
X129230000Y-98966000D01*
X129210315Y-99033039D01*
X129157511Y-99078794D01*
X129106000Y-99090000D01*
X128664000Y-99090000D01*
X128596961Y-99070315D01*
X128551206Y-99017511D01*
X128540000Y-98966000D01*
X128540000Y-98500000D01*
X128230000Y-98190000D01*
X127761362Y-98190000D01*
X127694323Y-98170315D01*
X127673681Y-98153681D01*
X127566319Y-98046319D01*
X127532834Y-97984996D01*
X127530000Y-97958638D01*
X127530000Y-97570000D01*
X127220000Y-97260000D01*
X126174500Y-97260000D01*
X126107461Y-97240315D01*
X126061706Y-97187511D01*
X126050500Y-97136000D01*
X126050500Y-94960862D01*
X126070185Y-94893823D01*
X126086819Y-94873181D01*
X126313681Y-94646319D01*
X126375004Y-94612834D01*
X126401362Y-94610000D01*
X127806000Y-94610000D01*
X127873039Y-94629685D01*
G37*
%TD.AperFunction*%
%TD*%
%TA.AperFunction,Conductor*%
%TO.N,Net-(R10-Pad1)*%
G36*
X127313039Y-91190185D02*
G01*
X127358794Y-91242989D01*
X127370000Y-91294500D01*
X127370000Y-92108818D01*
X127350315Y-92175857D01*
X127297511Y-92221612D01*
X127245127Y-92232815D01*
X126173627Y-92225269D01*
X126106728Y-92205113D01*
X126061346Y-92151988D01*
X126050500Y-92101272D01*
X126050500Y-91294500D01*
X126070185Y-91227461D01*
X126122989Y-91181706D01*
X126174500Y-91170500D01*
X127246000Y-91170500D01*
X127313039Y-91190185D01*
G37*
%TD.AperFunction*%
%TD*%
%TA.AperFunction,Conductor*%
%TO.N,+3.3V*%
G36*
X136030813Y-94400943D02*
G01*
X136077677Y-94452765D01*
X136090000Y-94506656D01*
X136090000Y-96316000D01*
X136070315Y-96383039D01*
X136017511Y-96428794D01*
X135966000Y-96440000D01*
X135829999Y-96440000D01*
X135690000Y-96579999D01*
X135690000Y-96676000D01*
X135670315Y-96743039D01*
X135617511Y-96788794D01*
X135566000Y-96800000D01*
X134958791Y-96800000D01*
X134891752Y-96780315D01*
X134848306Y-96732295D01*
X134823515Y-96683640D01*
X134810000Y-96627345D01*
X134810000Y-95270000D01*
X134594625Y-94982833D01*
X134570149Y-94917390D01*
X134569826Y-94908958D01*
X134568240Y-94534184D01*
X134587641Y-94467065D01*
X134640251Y-94421087D01*
X134689607Y-94409690D01*
X135963374Y-94382684D01*
X136030813Y-94400943D01*
G37*
%TD.AperFunction*%
%TD*%
%TA.AperFunction,Conductor*%
%TO.N,GNDGPS*%
G36*
X128263039Y-98579685D02*
G01*
X128308794Y-98632489D01*
X128320000Y-98684000D01*
X128320000Y-99230000D01*
X128470000Y-99380000D01*
X129783899Y-99380000D01*
X129850938Y-99399685D01*
X129896693Y-99452489D01*
X129907881Y-99506084D01*
X129891998Y-100451069D01*
X129871190Y-100517768D01*
X129817625Y-100562629D01*
X129771089Y-100572947D01*
X128621964Y-100601432D01*
X128602592Y-102830000D01*
X128600000Y-103128141D01*
X128600000Y-104510000D01*
X128814784Y-104653189D01*
X128859644Y-104706753D01*
X128870000Y-104756362D01*
X128870000Y-105475289D01*
X128850315Y-105542328D01*
X128797511Y-105588083D01*
X128745291Y-105599287D01*
X127246916Y-105590725D01*
X127179991Y-105570658D01*
X127134538Y-105517593D01*
X127123677Y-105463134D01*
X127137202Y-104996510D01*
X127158821Y-104930071D01*
X127212928Y-104885866D01*
X127234245Y-104879060D01*
X127975569Y-104714349D01*
X127997786Y-103140000D01*
X127985247Y-103128141D01*
X127670001Y-102830000D01*
X127670000Y-102830000D01*
X126975988Y-102830000D01*
X126965810Y-102829500D01*
X126964820Y-102829500D01*
X126285180Y-102829500D01*
X126284190Y-102829500D01*
X126274012Y-102830000D01*
X126174500Y-102830000D01*
X126107461Y-102810315D01*
X126061706Y-102757511D01*
X126050500Y-102706000D01*
X126050500Y-99422800D01*
X126070185Y-99355761D01*
X126119834Y-99311501D01*
X127624143Y-98572699D01*
X127678806Y-98560000D01*
X128196000Y-98560000D01*
X128263039Y-98579685D01*
G37*
%TD.AperFunction*%
%TD*%
%TA.AperFunction,Conductor*%
%TO.N,+3.3V*%
G36*
X135666981Y-105670565D02*
G01*
X135728502Y-105697730D01*
X135752377Y-105700500D01*
X136107622Y-105700499D01*
X136131498Y-105697730D01*
X136193019Y-105670566D01*
X136243105Y-105660000D01*
X137446000Y-105660000D01*
X137513039Y-105679685D01*
X137558794Y-105732489D01*
X137570000Y-105784000D01*
X137570000Y-106388638D01*
X137550315Y-106455677D01*
X137533681Y-106476319D01*
X136986319Y-107023681D01*
X136924996Y-107057166D01*
X136898638Y-107060000D01*
X136131362Y-107060000D01*
X136064323Y-107040315D01*
X136043681Y-107023681D01*
X135780000Y-106760000D01*
X135342754Y-106760000D01*
X135275715Y-106740315D01*
X135255073Y-106723681D01*
X135126319Y-106594927D01*
X135092834Y-106533604D01*
X135090000Y-106507246D01*
X135090000Y-105788020D01*
X135109685Y-105720981D01*
X135162489Y-105675226D01*
X135163799Y-105674636D01*
X135173023Y-105670563D01*
X135223105Y-105660000D01*
X135616895Y-105660000D01*
X135666981Y-105670565D01*
G37*
%TD.AperFunction*%
%TD*%
%TA.AperFunction,Conductor*%
%TO.N,BAT+*%
G36*
X130029034Y-106475720D02*
G01*
X130029300Y-106474384D01*
X130085177Y-106485499D01*
X130836000Y-106485499D01*
X130903039Y-106505184D01*
X130948794Y-106557988D01*
X130960000Y-106609499D01*
X130960000Y-106858638D01*
X130940315Y-106925677D01*
X130923681Y-106946319D01*
X130620000Y-107249999D01*
X130620000Y-108358638D01*
X130600315Y-108425677D01*
X130583681Y-108446319D01*
X130496319Y-108533681D01*
X130434996Y-108567166D01*
X130408638Y-108570000D01*
X129944500Y-108570000D01*
X129877461Y-108550315D01*
X129831706Y-108497511D01*
X129820500Y-108446000D01*
X129820500Y-107982149D01*
X129820501Y-107982140D01*
X129820501Y-107868357D01*
X129820000Y-107863268D01*
X129820000Y-106641362D01*
X129839685Y-106574323D01*
X129856319Y-106553681D01*
X129903681Y-106506319D01*
X129965004Y-106472834D01*
X129991362Y-106470000D01*
X130000278Y-106470000D01*
X130029034Y-106475720D01*
G37*
%TD.AperFunction*%
%TD*%
%TA.AperFunction,Conductor*%
%TO.N,+3.3V*%
G36*
X134130300Y-99539685D02*
G01*
X134176055Y-99592489D01*
X134185999Y-99661647D01*
X134185735Y-99663395D01*
X134185130Y-99667215D01*
X134185130Y-99667217D01*
X134202497Y-99776873D01*
X134236485Y-99843577D01*
X134250000Y-99899872D01*
X134250000Y-99930000D01*
X134369449Y-100029541D01*
X134840000Y-100050000D01*
X135556000Y-100050000D01*
X135623039Y-100069685D01*
X135668794Y-100122489D01*
X135680000Y-100174000D01*
X135680000Y-100204515D01*
X135660315Y-100271554D01*
X135607511Y-100317309D01*
X135554524Y-100328506D01*
X134840002Y-100319999D01*
X134839999Y-100320000D01*
X134525587Y-100506079D01*
X134481834Y-100521840D01*
X134455754Y-100525971D01*
X134405349Y-100551653D01*
X134356829Y-100576376D01*
X134356828Y-100576377D01*
X134356823Y-100576380D01*
X134278325Y-100654878D01*
X134278320Y-100654885D01*
X134227914Y-100753812D01*
X134210547Y-100863468D01*
X134210547Y-100863472D01*
X134220546Y-100926602D01*
X134211592Y-100995895D01*
X134166596Y-101049347D01*
X134099844Y-101069987D01*
X134098073Y-101070000D01*
X133814000Y-101070000D01*
X133746961Y-101050315D01*
X133701206Y-100997511D01*
X133690000Y-100946000D01*
X133690000Y-99644000D01*
X133709685Y-99576961D01*
X133762489Y-99531206D01*
X133814000Y-99520000D01*
X134063261Y-99520000D01*
X134130300Y-99539685D01*
G37*
%TD.AperFunction*%
%TD*%
%TA.AperFunction,Conductor*%
%TO.N,vusb*%
G36*
X132763039Y-106599685D02*
G01*
X132808794Y-106652489D01*
X132820000Y-106704000D01*
X132820000Y-106828638D01*
X132800315Y-106895677D01*
X132783681Y-106916319D01*
X132560000Y-107139999D01*
X132560000Y-107820000D01*
X132643681Y-107903681D01*
X132677166Y-107965004D01*
X132680000Y-107991362D01*
X132680000Y-109845500D01*
X132660315Y-109912539D01*
X132607511Y-109958294D01*
X132556000Y-109969500D01*
X131424000Y-109969500D01*
X131356961Y-109949815D01*
X131311206Y-109897011D01*
X131300000Y-109845500D01*
X131300000Y-109271362D01*
X131319685Y-109204323D01*
X131336319Y-109183681D01*
X131880000Y-108640000D01*
X131880000Y-107041430D01*
X131894775Y-106991111D01*
X131892095Y-106990001D01*
X131896765Y-106978725D01*
X131896768Y-106978721D01*
X131905501Y-106934819D01*
X131905501Y-106704000D01*
X131925186Y-106636961D01*
X131977990Y-106591206D01*
X132029501Y-106580000D01*
X132696000Y-106580000D01*
X132763039Y-106599685D01*
G37*
%TD.AperFunction*%
%TD*%
%TA.AperFunction,Conductor*%
%TO.N,GND*%
G36*
X126965256Y-105578410D02*
G01*
X127009088Y-105614595D01*
X127011276Y-105612722D01*
X127016437Y-105618747D01*
X127016439Y-105618751D01*
X127061892Y-105671816D01*
X127066839Y-105677321D01*
X127135330Y-105719606D01*
X127166263Y-105728881D01*
X127202251Y-105739672D01*
X127202254Y-105739673D01*
X127209955Y-105740825D01*
X127246027Y-105746222D01*
X127538725Y-105747894D01*
X127605650Y-105767961D01*
X127651103Y-105821026D01*
X127660651Y-105890240D01*
X127654138Y-105910615D01*
X127655514Y-105911063D01*
X127652499Y-105920340D01*
X127635131Y-106029997D01*
X127635131Y-106030002D01*
X127652498Y-106139658D01*
X127702904Y-106238585D01*
X127702909Y-106238592D01*
X127781407Y-106317090D01*
X127781410Y-106317092D01*
X127781413Y-106317095D01*
X127880339Y-106367500D01*
X127880340Y-106367500D01*
X127880342Y-106367501D01*
X127880341Y-106367501D01*
X127992936Y-106385334D01*
X128056071Y-106415263D01*
X128061220Y-106420126D01*
X128072264Y-106431170D01*
X128072267Y-106431171D01*
X128078376Y-106435253D01*
X128122922Y-106488270D01*
X128138656Y-106523905D01*
X128145384Y-106539141D01*
X128220859Y-106614616D01*
X128220862Y-106614617D01*
X128220863Y-106614618D01*
X128318499Y-106657729D01*
X128318500Y-106657729D01*
X128318502Y-106657730D01*
X128342377Y-106660500D01*
X128797622Y-106660499D01*
X128821498Y-106657730D01*
X128919141Y-106614616D01*
X128919142Y-106614614D01*
X128923240Y-106612805D01*
X128992518Y-106603733D01*
X129055703Y-106633556D01*
X129092734Y-106692805D01*
X129094944Y-106702047D01*
X129104032Y-106747736D01*
X129104035Y-106747742D01*
X129119649Y-106771111D01*
X129140526Y-106837788D01*
X129122040Y-106905168D01*
X129119649Y-106908889D01*
X129104035Y-106932257D01*
X129104032Y-106932264D01*
X129089500Y-107005321D01*
X129089500Y-107489678D01*
X129104032Y-107562735D01*
X129104033Y-107562739D01*
X129106620Y-107566610D01*
X129127497Y-107633288D01*
X129109012Y-107700668D01*
X129057032Y-107747358D01*
X129003520Y-107759500D01*
X128962385Y-107759500D01*
X128962361Y-107759502D01*
X128938504Y-107762269D01*
X128938501Y-107762269D01*
X128840864Y-107805380D01*
X128840856Y-107805386D01*
X128765386Y-107880856D01*
X128765381Y-107880863D01*
X128722270Y-107978499D01*
X128719500Y-108002375D01*
X128719500Y-108457615D01*
X128719502Y-108457638D01*
X128722269Y-108481495D01*
X128722269Y-108481498D01*
X128765380Y-108579135D01*
X128765383Y-108579138D01*
X128765384Y-108579141D01*
X128802318Y-108616075D01*
X128835962Y-108649719D01*
X128869446Y-108711043D01*
X128870753Y-108718001D01*
X128882498Y-108792156D01*
X128932904Y-108891083D01*
X128932909Y-108891090D01*
X129011407Y-108969588D01*
X129011410Y-108969590D01*
X129011413Y-108969593D01*
X129110339Y-109019998D01*
X129110340Y-109019998D01*
X129110342Y-109019999D01*
X129119625Y-109023016D01*
X129118986Y-109024980D01*
X129170677Y-109049482D01*
X129207610Y-109108792D01*
X129206616Y-109178654D01*
X129201582Y-109192116D01*
X129172270Y-109258499D01*
X129169500Y-109282375D01*
X129169500Y-109737615D01*
X129169502Y-109737638D01*
X129172268Y-109761494D01*
X129187246Y-109795414D01*
X129196317Y-109864692D01*
X129166493Y-109927877D01*
X129107244Y-109964908D01*
X129073811Y-109969500D01*
X126174500Y-109969500D01*
X126107461Y-109949815D01*
X126061706Y-109897011D01*
X126050500Y-109845500D01*
X126050500Y-106929999D01*
X126434722Y-106929999D01*
X126434722Y-106930000D01*
X126453762Y-107086818D01*
X126504265Y-107219982D01*
X126509780Y-107234523D01*
X126599517Y-107364530D01*
X126717760Y-107469283D01*
X126717762Y-107469284D01*
X126857634Y-107542696D01*
X127011014Y-107580500D01*
X127011015Y-107580500D01*
X127168985Y-107580500D01*
X127322365Y-107542696D01*
X127405042Y-107499303D01*
X127462240Y-107469283D01*
X127580483Y-107364530D01*
X127670220Y-107234523D01*
X127726237Y-107086818D01*
X127745278Y-106930000D01*
X127743518Y-106915500D01*
X127726237Y-106773181D01*
X127688878Y-106674674D01*
X127670220Y-106625477D01*
X127580483Y-106495470D01*
X127462240Y-106390717D01*
X127462238Y-106390716D01*
X127462237Y-106390715D01*
X127322365Y-106317303D01*
X127168986Y-106279500D01*
X127168985Y-106279500D01*
X127011015Y-106279500D01*
X127011014Y-106279500D01*
X126857634Y-106317303D01*
X126717762Y-106390715D01*
X126599516Y-106495471D01*
X126509781Y-106625475D01*
X126509780Y-106625476D01*
X126453762Y-106773181D01*
X126434722Y-106929999D01*
X126050500Y-106929999D01*
X126050500Y-105829500D01*
X126070185Y-105762461D01*
X126122989Y-105716706D01*
X126174500Y-105705500D01*
X126615991Y-105705500D01*
X126616000Y-105705500D01*
X126649055Y-105701946D01*
X126700566Y-105690740D01*
X126769342Y-105656313D01*
X126822146Y-105610558D01*
X126827621Y-105605580D01*
X126827621Y-105605579D01*
X126833036Y-105600657D01*
X126895880Y-105570122D01*
X126965256Y-105578410D01*
G37*
%TD.AperFunction*%
%TA.AperFunction,Conductor*%
G36*
X152192539Y-91190185D02*
G01*
X152238294Y-91242989D01*
X152249500Y-91294500D01*
X152249500Y-100104590D01*
X152229815Y-100171629D01*
X152177011Y-100217384D01*
X152107853Y-100227328D01*
X152044297Y-100198303D01*
X152018113Y-100166590D01*
X152017271Y-100165131D01*
X151970480Y-100084087D01*
X151895913Y-100009520D01*
X151804587Y-99956793D01*
X151702727Y-99929500D01*
X151702726Y-99929500D01*
X151460184Y-99929500D01*
X151393145Y-99909815D01*
X151347390Y-99857011D01*
X151337446Y-99787853D01*
X151357885Y-99735421D01*
X151359698Y-99732772D01*
X151359706Y-99732765D01*
X151405085Y-99629991D01*
X151408000Y-99604865D01*
X151407999Y-99215136D01*
X151406802Y-99204815D01*
X151405086Y-99190012D01*
X151405085Y-99190010D01*
X151405085Y-99190009D01*
X151359706Y-99087235D01*
X151280265Y-99007794D01*
X151260106Y-98998893D01*
X151177492Y-98962415D01*
X151152365Y-98959500D01*
X150037643Y-98959500D01*
X150037617Y-98959502D01*
X150012512Y-98962413D01*
X150012508Y-98962415D01*
X149909735Y-99007793D01*
X149830294Y-99087234D01*
X149784915Y-99190006D01*
X149784915Y-99190008D01*
X149782000Y-99215131D01*
X149782000Y-99604856D01*
X149782002Y-99604882D01*
X149784913Y-99629987D01*
X149784915Y-99629991D01*
X149830293Y-99732764D01*
X149894848Y-99797319D01*
X149928333Y-99858642D01*
X149923349Y-99928334D01*
X149894848Y-99972681D01*
X149830294Y-100037234D01*
X149784915Y-100140006D01*
X149784915Y-100140008D01*
X149782000Y-100165131D01*
X149782000Y-100554856D01*
X149782002Y-100554882D01*
X149784913Y-100579987D01*
X149784915Y-100579991D01*
X149830293Y-100682764D01*
X149894848Y-100747319D01*
X149928333Y-100808642D01*
X149923349Y-100878334D01*
X149894848Y-100922681D01*
X149830294Y-100987234D01*
X149784915Y-101090006D01*
X149784915Y-101090008D01*
X149782000Y-101115131D01*
X149782000Y-101504856D01*
X149782002Y-101504882D01*
X149784913Y-101529987D01*
X149784915Y-101529991D01*
X149830293Y-101632764D01*
X149830294Y-101632765D01*
X149909735Y-101712206D01*
X150012509Y-101757585D01*
X150037635Y-101760500D01*
X151152364Y-101760499D01*
X151152379Y-101760497D01*
X151152382Y-101760497D01*
X151177487Y-101757586D01*
X151177488Y-101757585D01*
X151177491Y-101757585D01*
X151280265Y-101712206D01*
X151359706Y-101632765D01*
X151405085Y-101529991D01*
X151408000Y-101504865D01*
X151407999Y-101115136D01*
X151407741Y-101112909D01*
X151405086Y-101090012D01*
X151405085Y-101090010D01*
X151405085Y-101090009D01*
X151359706Y-100987235D01*
X151314652Y-100942181D01*
X151281167Y-100880858D01*
X151286151Y-100811166D01*
X151328023Y-100755233D01*
X151393487Y-100730816D01*
X151402333Y-100730500D01*
X151702725Y-100730500D01*
X151702727Y-100730500D01*
X151804587Y-100703207D01*
X151895913Y-100650480D01*
X151970480Y-100575913D01*
X152018114Y-100493407D01*
X152068680Y-100445193D01*
X152137287Y-100431970D01*
X152202152Y-100457938D01*
X152242680Y-100514852D01*
X152249500Y-100555409D01*
X152249500Y-106726000D01*
X152229815Y-106793039D01*
X152177011Y-106838794D01*
X152125500Y-106850000D01*
X145110000Y-106850000D01*
X145110000Y-107789500D01*
X145090315Y-107856539D01*
X145037511Y-107902294D01*
X144986000Y-107913500D01*
X144889376Y-107913500D01*
X144822337Y-107893815D01*
X144776582Y-107841011D01*
X144773540Y-107831595D01*
X144769267Y-107821281D01*
X144769267Y-107821278D01*
X144736004Y-107771496D01*
X144736003Y-107771495D01*
X144686224Y-107738234D01*
X144686217Y-107738231D01*
X144642322Y-107729500D01*
X144642320Y-107729500D01*
X144337680Y-107729500D01*
X144337678Y-107729500D01*
X144293782Y-107738231D01*
X144293775Y-107738234D01*
X144243996Y-107771495D01*
X144243995Y-107771496D01*
X144210734Y-107821275D01*
X144210731Y-107821282D01*
X144202000Y-107865177D01*
X144202000Y-108066438D01*
X144195422Y-108099516D01*
X144197173Y-108099986D01*
X144195070Y-108107834D01*
X144195069Y-108107836D01*
X144173500Y-108188332D01*
X144173500Y-108271668D01*
X144188323Y-108326987D01*
X144197173Y-108360016D01*
X144195419Y-108360485D01*
X144202000Y-108393562D01*
X144202000Y-108594820D01*
X144202000Y-108594822D01*
X144201999Y-108594822D01*
X144210731Y-108638717D01*
X144210734Y-108638724D01*
X144217790Y-108649284D01*
X144243996Y-108688504D01*
X144293778Y-108721767D01*
X144293781Y-108721767D01*
X144293782Y-108721768D01*
X144337677Y-108730500D01*
X144337680Y-108730500D01*
X144642322Y-108730500D01*
X144686217Y-108721768D01*
X144686217Y-108721767D01*
X144686222Y-108721767D01*
X144736004Y-108688504D01*
X144769267Y-108638722D01*
X144769268Y-108638716D01*
X144773942Y-108627436D01*
X144776972Y-108628691D01*
X144800151Y-108584390D01*
X144860869Y-108549821D01*
X144889376Y-108546500D01*
X144986000Y-108546500D01*
X145053039Y-108566185D01*
X145098794Y-108618989D01*
X145110000Y-108670500D01*
X145110000Y-109845500D01*
X145090315Y-109912539D01*
X145037511Y-109958294D01*
X144986000Y-109969500D01*
X133826189Y-109969500D01*
X133759150Y-109949815D01*
X133713395Y-109897011D01*
X133703451Y-109827853D01*
X133712755Y-109795412D01*
X133718899Y-109781498D01*
X133727730Y-109761498D01*
X133730500Y-109737623D01*
X133730499Y-109282378D01*
X133727730Y-109258502D01*
X133714064Y-109227551D01*
X133684619Y-109160864D01*
X133684617Y-109160861D01*
X133684616Y-109160859D01*
X133609141Y-109085384D01*
X133601016Y-109077259D01*
X133603834Y-109074440D01*
X133573183Y-109036864D01*
X133565301Y-108967440D01*
X133596204Y-108904776D01*
X133599756Y-108901072D01*
X133633813Y-108867016D01*
X133633817Y-108867005D01*
X133635385Y-108864718D01*
X133639338Y-108861490D01*
X133641939Y-108858890D01*
X133642201Y-108859152D01*
X133689508Y-108820532D01*
X133758929Y-108812620D01*
X133821606Y-108843497D01*
X133825371Y-108847107D01*
X133876284Y-108898020D01*
X133876286Y-108898021D01*
X133876290Y-108898024D01*
X134000253Y-108969593D01*
X134013216Y-108977077D01*
X134165943Y-109018000D01*
X134165945Y-109018000D01*
X134324055Y-109018000D01*
X134324057Y-109018000D01*
X134476784Y-108977077D01*
X134613716Y-108898020D01*
X134725520Y-108786216D01*
X134804577Y-108649284D01*
X134805544Y-108645674D01*
X134807190Y-108642972D01*
X134807686Y-108641777D01*
X134807872Y-108641854D01*
X134841903Y-108586015D01*
X134904748Y-108555482D01*
X134974124Y-108563773D01*
X134989965Y-108572479D01*
X134992982Y-108573811D01*
X134992984Y-108573813D01*
X135043070Y-108595928D01*
X135050417Y-108599466D01*
X135050512Y-108599516D01*
X135050514Y-108599516D01*
X135050519Y-108599519D01*
X135056164Y-108601798D01*
X135056093Y-108601972D01*
X135059950Y-108603381D01*
X135092338Y-108617682D01*
X135116627Y-108620500D01*
X135117706Y-108620499D01*
X135135360Y-108621760D01*
X135161362Y-108625500D01*
X135161363Y-108625500D01*
X135505991Y-108625500D01*
X135506000Y-108625500D01*
X135539055Y-108621946D01*
X135542390Y-108621220D01*
X135554448Y-108619214D01*
X135567662Y-108617682D01*
X135567669Y-108617678D01*
X135573565Y-108616075D01*
X135588678Y-108611150D01*
X135590566Y-108610740D01*
X135641630Y-108585178D01*
X135647015Y-108582643D01*
X135667016Y-108573813D01*
X135694984Y-108545843D01*
X135701433Y-108539839D01*
X135712146Y-108530558D01*
X135717621Y-108525580D01*
X135717627Y-108525569D01*
X135723266Y-108518741D01*
X135723812Y-108519192D01*
X135731807Y-108509020D01*
X135743813Y-108497016D01*
X135787682Y-108397662D01*
X135790500Y-108373373D01*
X135790499Y-108006628D01*
X135788049Y-107985500D01*
X135786608Y-107973073D01*
X135787531Y-107972965D01*
X135785500Y-107957751D01*
X135785500Y-107361361D01*
X135785444Y-107360323D01*
X135784609Y-107344739D01*
X135781775Y-107318381D01*
X135775727Y-107299065D01*
X135774479Y-107229207D01*
X135811198Y-107169763D01*
X135874225Y-107139608D01*
X135943550Y-107148315D01*
X135962037Y-107158304D01*
X135966748Y-107161392D01*
X135966751Y-107161393D01*
X135966753Y-107161395D01*
X136020512Y-107189516D01*
X136020514Y-107189516D01*
X136020517Y-107189518D01*
X136066361Y-107202979D01*
X136087551Y-107209201D01*
X136131362Y-107215500D01*
X136131365Y-107215500D01*
X136898638Y-107215500D01*
X136915261Y-107214609D01*
X136941619Y-107211775D01*
X136999519Y-107193645D01*
X137060842Y-107160160D01*
X137096274Y-107133636D01*
X137643636Y-106586274D01*
X137654761Y-106573889D01*
X137671395Y-106553247D01*
X137699516Y-106499488D01*
X137719201Y-106432449D01*
X137725500Y-106388638D01*
X137725500Y-106092332D01*
X139613500Y-106092332D01*
X139613500Y-106965195D01*
X139613509Y-106965338D01*
X139613509Y-107002071D01*
X139636030Y-107173164D01*
X139636031Y-107173167D01*
X139680693Y-107339856D01*
X139680694Y-107339860D01*
X139680696Y-107339865D01*
X139746736Y-107499304D01*
X139833022Y-107648760D01*
X139833024Y-107648763D01*
X139833025Y-107648764D01*
X139938076Y-107785673D01*
X139966512Y-107814110D01*
X139966528Y-107814127D01*
X139969629Y-107817228D01*
X139969630Y-107817229D01*
X140270798Y-108118396D01*
X140270805Y-108118404D01*
X140274997Y-108122596D01*
X140275013Y-108122626D01*
X140374292Y-108221903D01*
X140374319Y-108221930D01*
X140511234Y-108326987D01*
X140660691Y-108413273D01*
X140660696Y-108413275D01*
X140660698Y-108413276D01*
X140820131Y-108479314D01*
X140820135Y-108479315D01*
X140828283Y-108481498D01*
X140986829Y-108523978D01*
X140986830Y-108523978D01*
X140986833Y-108523979D01*
X141061939Y-108533865D01*
X141157930Y-108546501D01*
X141244218Y-108546500D01*
X142865624Y-108546500D01*
X142932663Y-108566185D01*
X142978418Y-108618989D01*
X142981459Y-108628404D01*
X142985734Y-108638724D01*
X142992790Y-108649284D01*
X143018996Y-108688504D01*
X143068778Y-108721767D01*
X143068781Y-108721767D01*
X143068782Y-108721768D01*
X143112677Y-108730500D01*
X143112680Y-108730500D01*
X143417322Y-108730500D01*
X143461217Y-108721768D01*
X143461217Y-108721767D01*
X143461222Y-108721767D01*
X143511004Y-108688504D01*
X143544267Y-108638722D01*
X143546262Y-108628691D01*
X143553000Y-108594822D01*
X143553000Y-108393562D01*
X143559580Y-108360485D01*
X143557827Y-108360016D01*
X143566677Y-108326987D01*
X143581500Y-108271668D01*
X143581500Y-108188332D01*
X143559931Y-108107836D01*
X143559929Y-108107834D01*
X143557827Y-108099986D01*
X143559577Y-108099516D01*
X143553000Y-108066438D01*
X143553000Y-107865177D01*
X143544268Y-107821282D01*
X143544267Y-107821281D01*
X143544267Y-107821278D01*
X143511004Y-107771496D01*
X143511003Y-107771495D01*
X143461224Y-107738234D01*
X143461217Y-107738231D01*
X143417322Y-107729500D01*
X143417320Y-107729500D01*
X143112680Y-107729500D01*
X143112678Y-107729500D01*
X143068782Y-107738231D01*
X143068775Y-107738234D01*
X143018996Y-107771495D01*
X143018995Y-107771496D01*
X142985734Y-107821275D01*
X142981058Y-107832564D01*
X142978027Y-107831308D01*
X142954849Y-107875610D01*
X142894131Y-107910179D01*
X142865624Y-107913500D01*
X141250301Y-107913500D01*
X141238148Y-107912903D01*
X141224177Y-107911527D01*
X141123015Y-107901564D01*
X141099176Y-107896822D01*
X140994332Y-107865020D01*
X140971874Y-107855718D01*
X140875245Y-107804071D01*
X140855034Y-107790567D01*
X140791264Y-107738233D01*
X140765678Y-107717235D01*
X140756666Y-107709067D01*
X140744951Y-107697353D01*
X140744947Y-107697349D01*
X140451001Y-107403402D01*
X140442838Y-107394396D01*
X140369438Y-107304955D01*
X140355939Y-107284751D01*
X140318923Y-107215499D01*
X140304291Y-107188124D01*
X140294989Y-107165667D01*
X140293693Y-107161395D01*
X140263183Y-107060812D01*
X140258444Y-107036985D01*
X140247096Y-106921749D01*
X140246500Y-106909601D01*
X140246500Y-106092334D01*
X140246500Y-106092332D01*
X140234724Y-106048386D01*
X140230500Y-106016294D01*
X140230500Y-105969177D01*
X140221768Y-105925282D01*
X140221767Y-105925281D01*
X140221767Y-105925278D01*
X140188504Y-105875496D01*
X140150077Y-105849820D01*
X140138724Y-105842234D01*
X140138717Y-105842231D01*
X140094822Y-105833500D01*
X140094820Y-105833500D01*
X140047706Y-105833500D01*
X140015613Y-105829275D01*
X139997517Y-105824426D01*
X139971668Y-105817500D01*
X139888332Y-105817500D01*
X139844387Y-105829275D01*
X139812294Y-105833500D01*
X139765178Y-105833500D01*
X139721282Y-105842231D01*
X139721275Y-105842234D01*
X139671496Y-105875495D01*
X139671495Y-105875496D01*
X139638234Y-105925275D01*
X139638231Y-105925282D01*
X139629500Y-105969177D01*
X139629500Y-106016294D01*
X139625275Y-106048387D01*
X139613500Y-106092332D01*
X137725500Y-106092332D01*
X137725500Y-105784000D01*
X137721946Y-105750945D01*
X137710740Y-105699434D01*
X137680347Y-105638717D01*
X137676313Y-105630657D01*
X137630563Y-105577860D01*
X137625577Y-105572376D01*
X137556854Y-105530486D01*
X137556848Y-105530483D01*
X137489812Y-105510799D01*
X137489802Y-105510797D01*
X137446003Y-105504500D01*
X137446000Y-105504500D01*
X136474500Y-105504500D01*
X136407461Y-105484815D01*
X136361706Y-105432011D01*
X136353654Y-105394997D01*
X144560131Y-105394997D01*
X144560131Y-105395002D01*
X144577498Y-105504658D01*
X144627904Y-105603585D01*
X144627909Y-105603592D01*
X144706407Y-105682090D01*
X144706410Y-105682092D01*
X144706413Y-105682095D01*
X144784270Y-105721765D01*
X144805341Y-105732501D01*
X144914998Y-105749869D01*
X144915000Y-105749869D01*
X144915002Y-105749869D01*
X145024658Y-105732501D01*
X145024659Y-105732500D01*
X145024661Y-105732500D01*
X145123587Y-105682095D01*
X145202095Y-105603587D01*
X145252500Y-105504661D01*
X145259895Y-105457968D01*
X145289823Y-105394837D01*
X145349134Y-105357905D01*
X145362955Y-105354897D01*
X145409661Y-105347500D01*
X145508587Y-105297095D01*
X145587095Y-105218587D01*
X145637500Y-105119661D01*
X145637500Y-105119659D01*
X145637501Y-105119658D01*
X145654869Y-105010002D01*
X145654869Y-105009997D01*
X145637501Y-104900341D01*
X145633968Y-104893407D01*
X145587095Y-104801413D01*
X145587092Y-104801410D01*
X145587090Y-104801407D01*
X145508592Y-104722909D01*
X145508588Y-104722906D01*
X145508587Y-104722905D01*
X145478804Y-104707730D01*
X145409658Y-104672498D01*
X145300002Y-104655131D01*
X145299998Y-104655131D01*
X145190341Y-104672498D01*
X145091414Y-104722904D01*
X145091407Y-104722909D01*
X145012909Y-104801407D01*
X145012904Y-104801414D01*
X144962499Y-104900341D01*
X144955104Y-104947030D01*
X144925174Y-105010164D01*
X144865863Y-105047095D01*
X144852030Y-105050104D01*
X144805341Y-105057499D01*
X144706414Y-105107904D01*
X144706407Y-105107909D01*
X144627909Y-105186407D01*
X144627904Y-105186414D01*
X144577498Y-105285341D01*
X144560131Y-105394997D01*
X136353654Y-105394997D01*
X136350500Y-105380500D01*
X136350499Y-105002384D01*
X136350499Y-105002378D01*
X136347730Y-104978502D01*
X136306260Y-104884583D01*
X136297189Y-104815308D01*
X136327012Y-104752123D01*
X136386261Y-104715091D01*
X136419694Y-104710499D01*
X136457622Y-104710499D01*
X136481498Y-104707730D01*
X136579135Y-104664619D01*
X136579136Y-104664618D01*
X136579141Y-104664616D01*
X136654616Y-104589141D01*
X136697730Y-104491498D01*
X136700500Y-104467623D01*
X136700499Y-104128215D01*
X136720183Y-104061177D01*
X136772987Y-104015422D01*
X136842146Y-104005478D01*
X136871015Y-104014630D01*
X136871063Y-104014486D01*
X136880337Y-104017499D01*
X136880339Y-104017500D01*
X136916892Y-104023289D01*
X136989998Y-104034869D01*
X136990000Y-104034869D01*
X136990002Y-104034869D01*
X137099656Y-104017501D01*
X137099656Y-104017500D01*
X137099661Y-104017500D01*
X137186898Y-103973050D01*
X137255566Y-103960155D01*
X137316073Y-103983216D01*
X137321409Y-103987093D01*
X137420341Y-104037501D01*
X137529998Y-104054869D01*
X137530000Y-104054869D01*
X137530002Y-104054869D01*
X137639658Y-104037501D01*
X137639659Y-104037500D01*
X137639661Y-104037500D01*
X137738587Y-103987095D01*
X137738590Y-103987091D01*
X137742116Y-103984531D01*
X137747129Y-103982742D01*
X137747283Y-103982664D01*
X137747293Y-103982683D01*
X137807923Y-103961052D01*
X137875977Y-103976879D01*
X137887884Y-103984531D01*
X137891411Y-103987093D01*
X137891413Y-103987095D01*
X137951087Y-104017500D01*
X137990341Y-104037501D01*
X138099998Y-104054869D01*
X138100000Y-104054869D01*
X138100002Y-104054869D01*
X138209658Y-104037501D01*
X138209659Y-104037500D01*
X138209661Y-104037500D01*
X138308587Y-103987095D01*
X138387095Y-103908587D01*
X138407064Y-103869394D01*
X138455035Y-103818601D01*
X138522855Y-103801805D01*
X138588991Y-103824341D01*
X138628030Y-103869394D01*
X138642905Y-103898587D01*
X138642907Y-103898589D01*
X138642909Y-103898592D01*
X138721407Y-103977090D01*
X138721410Y-103977092D01*
X138721413Y-103977095D01*
X138800713Y-104017500D01*
X138820341Y-104027501D01*
X138929998Y-104044869D01*
X138930000Y-104044869D01*
X138930002Y-104044869D01*
X139039658Y-104027501D01*
X139039659Y-104027500D01*
X139039661Y-104027500D01*
X139138587Y-103977095D01*
X139217095Y-103898587D01*
X139267500Y-103799661D01*
X139271839Y-103772270D01*
X139278681Y-103729070D01*
X139308610Y-103665935D01*
X139313439Y-103660820D01*
X139404321Y-103569938D01*
X139465643Y-103536456D01*
X139535334Y-103541440D01*
X139591268Y-103583312D01*
X139615684Y-103648777D01*
X139616000Y-103657622D01*
X139616000Y-104892676D01*
X139613699Y-104910159D01*
X139614561Y-104910273D01*
X139613500Y-104918331D01*
X139613500Y-104918332D01*
X139613500Y-105001668D01*
X139618033Y-105018587D01*
X139625275Y-105045612D01*
X139629500Y-105077705D01*
X139629500Y-105124820D01*
X139629500Y-105124822D01*
X139629499Y-105124822D01*
X139638231Y-105168717D01*
X139638234Y-105168724D01*
X139650054Y-105186414D01*
X139671496Y-105218504D01*
X139721278Y-105251767D01*
X139721281Y-105251767D01*
X139721282Y-105251768D01*
X139765177Y-105260500D01*
X139765180Y-105260500D01*
X139812294Y-105260500D01*
X139844386Y-105264724D01*
X139888332Y-105276500D01*
X139888334Y-105276500D01*
X139971666Y-105276500D01*
X139971668Y-105276500D01*
X140015613Y-105264724D01*
X140047706Y-105260500D01*
X140094822Y-105260500D01*
X140138717Y-105251768D01*
X140138717Y-105251767D01*
X140138722Y-105251767D01*
X140188504Y-105218504D01*
X140221767Y-105168722D01*
X140225988Y-105147501D01*
X140230500Y-105124822D01*
X140230500Y-105084535D01*
X140234726Y-105052440D01*
X140243797Y-105018587D01*
X140249001Y-104999167D01*
X140249001Y-104915832D01*
X140249001Y-104908237D01*
X140249000Y-104908219D01*
X140249000Y-102825834D01*
X140249000Y-102825832D01*
X140227431Y-102745336D01*
X140227313Y-102745131D01*
X140224611Y-102740450D01*
X140208000Y-102678454D01*
X140208000Y-102471519D01*
X140207999Y-102471515D01*
X140195642Y-102409390D01*
X140176785Y-102381169D01*
X140148565Y-102338935D01*
X140113609Y-102315578D01*
X140078109Y-102291857D01*
X140015984Y-102279500D01*
X140015980Y-102279500D01*
X139849020Y-102279500D01*
X139849015Y-102279500D01*
X139786890Y-102291857D01*
X139751391Y-102315578D01*
X139684714Y-102336456D01*
X139617334Y-102317972D01*
X139613609Y-102315578D01*
X139578109Y-102291857D01*
X139515984Y-102279500D01*
X139515980Y-102279500D01*
X139349020Y-102279500D01*
X139349015Y-102279500D01*
X139286890Y-102291857D01*
X139251391Y-102315578D01*
X139184714Y-102336456D01*
X139117334Y-102317972D01*
X139113609Y-102315578D01*
X139078109Y-102291857D01*
X139015984Y-102279500D01*
X139015980Y-102279500D01*
X138849020Y-102279500D01*
X138849015Y-102279500D01*
X138786890Y-102291857D01*
X138751391Y-102315578D01*
X138684714Y-102336456D01*
X138617334Y-102317972D01*
X138613609Y-102315578D01*
X138578109Y-102291857D01*
X138515984Y-102279500D01*
X138515980Y-102279500D01*
X138349020Y-102279500D01*
X138349015Y-102279500D01*
X138286890Y-102291857D01*
X138251391Y-102315578D01*
X138184714Y-102336456D01*
X138117334Y-102317972D01*
X138113609Y-102315578D01*
X138078109Y-102291857D01*
X138015984Y-102279500D01*
X138015980Y-102279500D01*
X137849020Y-102279500D01*
X137849015Y-102279500D01*
X137786890Y-102291857D01*
X137751391Y-102315578D01*
X137684714Y-102336456D01*
X137617334Y-102317972D01*
X137613609Y-102315578D01*
X137578109Y-102291857D01*
X137515984Y-102279500D01*
X137515980Y-102279500D01*
X137349020Y-102279500D01*
X137349015Y-102279500D01*
X137286890Y-102291857D01*
X137251391Y-102315578D01*
X137184714Y-102336456D01*
X137117334Y-102317972D01*
X137113609Y-102315578D01*
X137078109Y-102291857D01*
X137015984Y-102279500D01*
X137015980Y-102279500D01*
X136849020Y-102279500D01*
X136849015Y-102279500D01*
X136786890Y-102291857D01*
X136751391Y-102315578D01*
X136684714Y-102336456D01*
X136617334Y-102317972D01*
X136613609Y-102315578D01*
X136578109Y-102291857D01*
X136515984Y-102279500D01*
X136515980Y-102279500D01*
X136349020Y-102279500D01*
X136349015Y-102279500D01*
X136286890Y-102291857D01*
X136251391Y-102315578D01*
X136184714Y-102336456D01*
X136117334Y-102317972D01*
X136113609Y-102315578D01*
X136078109Y-102291857D01*
X136015984Y-102279500D01*
X136015980Y-102279500D01*
X135957000Y-102279500D01*
X135889961Y-102259815D01*
X135844206Y-102207011D01*
X135833000Y-102155500D01*
X135833000Y-102096519D01*
X135832999Y-102096515D01*
X135820642Y-102034392D01*
X135820642Y-102034391D01*
X135796921Y-101998889D01*
X135776043Y-101932216D01*
X135794526Y-101864835D01*
X135796894Y-101861149D01*
X135820642Y-101825609D01*
X135833000Y-101763480D01*
X135833000Y-101596520D01*
X135820642Y-101534391D01*
X135796921Y-101498889D01*
X135776043Y-101432216D01*
X135794526Y-101364835D01*
X135796894Y-101361149D01*
X135820642Y-101325609D01*
X135833000Y-101263480D01*
X135833000Y-101096520D01*
X135820642Y-101034391D01*
X135796921Y-100998889D01*
X135776043Y-100932216D01*
X135794526Y-100864835D01*
X135796894Y-100861149D01*
X135820642Y-100825609D01*
X135833000Y-100763480D01*
X135833000Y-100596520D01*
X135820642Y-100534391D01*
X135796921Y-100498889D01*
X135776043Y-100432216D01*
X135794526Y-100364835D01*
X135796894Y-100361149D01*
X135820642Y-100325609D01*
X135833000Y-100263480D01*
X135833000Y-100230771D01*
X135834262Y-100213125D01*
X135835500Y-100204515D01*
X135835500Y-100174000D01*
X135833709Y-100157344D01*
X135833000Y-100144104D01*
X135833000Y-100096519D01*
X135832999Y-100096515D01*
X135825271Y-100057662D01*
X135820642Y-100034391D01*
X135796921Y-99998889D01*
X135776043Y-99932216D01*
X135794526Y-99864835D01*
X135796894Y-99861149D01*
X135820642Y-99825609D01*
X135833000Y-99763480D01*
X135833000Y-99596520D01*
X135820642Y-99534391D01*
X135796921Y-99498889D01*
X135776043Y-99432216D01*
X135794526Y-99364835D01*
X135796894Y-99361149D01*
X135820642Y-99325609D01*
X135833000Y-99263480D01*
X135833000Y-99096520D01*
X135820642Y-99034391D01*
X135796921Y-98998889D01*
X135776043Y-98932216D01*
X135794526Y-98864835D01*
X135796894Y-98861149D01*
X135820642Y-98825609D01*
X135833000Y-98763480D01*
X135833000Y-98596520D01*
X135820642Y-98534391D01*
X135796921Y-98498889D01*
X135776043Y-98432216D01*
X135794526Y-98364835D01*
X135796894Y-98361149D01*
X135820642Y-98325609D01*
X135833000Y-98263480D01*
X135833000Y-98096520D01*
X135820642Y-98034391D01*
X135820642Y-98034390D01*
X135796922Y-97998891D01*
X135776044Y-97932214D01*
X135794528Y-97864834D01*
X135796922Y-97861109D01*
X135820642Y-97825609D01*
X135824546Y-97805981D01*
X135833000Y-97763480D01*
X135833000Y-97596520D01*
X135820642Y-97534391D01*
X135796921Y-97498889D01*
X135776043Y-97432216D01*
X135794526Y-97364835D01*
X135796894Y-97361149D01*
X135820642Y-97325609D01*
X135833000Y-97263480D01*
X135833000Y-97096520D01*
X135820642Y-97034391D01*
X135796921Y-96998889D01*
X135776043Y-96932216D01*
X135794526Y-96864835D01*
X135796894Y-96861149D01*
X135820642Y-96825609D01*
X135833000Y-96763480D01*
X135833000Y-96758758D01*
X135838024Y-96723819D01*
X135839201Y-96719811D01*
X135840387Y-96711557D01*
X135841783Y-96701855D01*
X135870807Y-96638298D01*
X135929585Y-96600523D01*
X135962679Y-96595764D01*
X135962675Y-96595678D01*
X135963645Y-96595625D01*
X135964521Y-96595500D01*
X135965991Y-96595500D01*
X135966000Y-96595500D01*
X135999055Y-96591946D01*
X136050566Y-96580740D01*
X136050570Y-96580738D01*
X136060374Y-96575831D01*
X136068426Y-96572153D01*
X136078105Y-96568143D01*
X136078105Y-96568142D01*
X136078109Y-96568142D01*
X136078750Y-96567713D01*
X136092145Y-96559926D01*
X136126282Y-96542840D01*
X136127068Y-96544411D01*
X136184554Y-96526405D01*
X136251937Y-96544883D01*
X136255671Y-96547283D01*
X136286887Y-96568141D01*
X136286890Y-96568142D01*
X136349015Y-96580499D01*
X136349019Y-96580500D01*
X136349020Y-96580500D01*
X136515981Y-96580500D01*
X136515982Y-96580499D01*
X136578109Y-96568142D01*
X136613610Y-96544421D01*
X136680284Y-96523543D01*
X136747665Y-96542026D01*
X136751350Y-96544394D01*
X136786891Y-96568142D01*
X136810832Y-96572904D01*
X136849015Y-96580499D01*
X136849019Y-96580500D01*
X136849020Y-96580500D01*
X137015981Y-96580500D01*
X137015982Y-96580499D01*
X137078109Y-96568142D01*
X137113610Y-96544421D01*
X137180284Y-96523543D01*
X137247665Y-96542026D01*
X137251350Y-96544394D01*
X137286891Y-96568142D01*
X137310832Y-96572904D01*
X137349015Y-96580499D01*
X137349019Y-96580500D01*
X137349020Y-96580500D01*
X137515981Y-96580500D01*
X137515982Y-96580499D01*
X137578109Y-96568142D01*
X137613610Y-96544421D01*
X137680284Y-96523543D01*
X137747665Y-96542026D01*
X137751350Y-96544394D01*
X137786891Y-96568142D01*
X137810832Y-96572904D01*
X137849015Y-96580499D01*
X137849019Y-96580500D01*
X137849020Y-96580500D01*
X138015981Y-96580500D01*
X138015982Y-96580499D01*
X138078109Y-96568142D01*
X138113610Y-96544421D01*
X138180284Y-96523543D01*
X138247665Y-96542026D01*
X138251350Y-96544394D01*
X138286891Y-96568142D01*
X138310832Y-96572904D01*
X138349015Y-96580499D01*
X138349019Y-96580500D01*
X138349020Y-96580500D01*
X138515981Y-96580500D01*
X138515982Y-96580499D01*
X138578109Y-96568142D01*
X138613610Y-96544421D01*
X138680284Y-96523543D01*
X138747665Y-96542026D01*
X138751350Y-96544394D01*
X138786891Y-96568142D01*
X138810832Y-96572904D01*
X138849015Y-96580499D01*
X138849019Y-96580500D01*
X138849020Y-96580500D01*
X139015981Y-96580500D01*
X139015982Y-96580499D01*
X139078109Y-96568142D01*
X139113610Y-96544421D01*
X139180284Y-96523543D01*
X139247665Y-96542026D01*
X139251350Y-96544394D01*
X139286891Y-96568142D01*
X139310832Y-96572904D01*
X139349015Y-96580499D01*
X139349019Y-96580500D01*
X139349020Y-96580500D01*
X139515981Y-96580500D01*
X139515982Y-96580499D01*
X139578109Y-96568142D01*
X139613610Y-96544421D01*
X139680284Y-96523543D01*
X139747665Y-96542026D01*
X139751350Y-96544394D01*
X139786891Y-96568142D01*
X139810832Y-96572904D01*
X139849015Y-96580499D01*
X139849019Y-96580500D01*
X139849020Y-96580500D01*
X140015981Y-96580500D01*
X140015982Y-96580499D01*
X140078109Y-96568142D01*
X140113610Y-96544421D01*
X140180284Y-96523543D01*
X140247665Y-96542026D01*
X140251350Y-96544394D01*
X140286891Y-96568142D01*
X140310832Y-96572904D01*
X140349015Y-96580499D01*
X140349019Y-96580500D01*
X140349020Y-96580500D01*
X140515981Y-96580500D01*
X140515982Y-96580499D01*
X140578109Y-96568142D01*
X140613610Y-96544421D01*
X140680284Y-96523543D01*
X140747665Y-96542026D01*
X140751350Y-96544394D01*
X140786891Y-96568142D01*
X140810832Y-96572904D01*
X140849015Y-96580499D01*
X140849019Y-96580500D01*
X140849020Y-96580500D01*
X141015981Y-96580500D01*
X141015982Y-96580499D01*
X141078109Y-96568142D01*
X141113610Y-96544421D01*
X141180284Y-96523543D01*
X141247665Y-96542026D01*
X141251350Y-96544394D01*
X141286891Y-96568142D01*
X141310832Y-96572904D01*
X141349015Y-96580499D01*
X141349019Y-96580500D01*
X141408000Y-96580500D01*
X141475039Y-96600185D01*
X141520794Y-96652989D01*
X141532000Y-96704500D01*
X141532000Y-96763484D01*
X141544357Y-96825609D01*
X141568078Y-96861109D01*
X141588956Y-96927786D01*
X141570472Y-96995166D01*
X141568078Y-96998891D01*
X141544357Y-97034390D01*
X141532000Y-97096515D01*
X141532000Y-97263484D01*
X141544357Y-97325609D01*
X141568078Y-97361109D01*
X141588956Y-97427786D01*
X141570472Y-97495166D01*
X141568078Y-97498891D01*
X141544357Y-97534390D01*
X141532000Y-97596515D01*
X141532000Y-97763484D01*
X141544357Y-97825609D01*
X141568078Y-97861109D01*
X141588956Y-97927786D01*
X141570472Y-97995166D01*
X141568078Y-97998891D01*
X141544357Y-98034390D01*
X141532000Y-98096515D01*
X141532000Y-98263484D01*
X141544357Y-98325609D01*
X141560429Y-98349661D01*
X141591435Y-98396065D01*
X141629102Y-98421233D01*
X141661890Y-98443142D01*
X141724015Y-98455499D01*
X141724019Y-98455500D01*
X141724020Y-98455500D01*
X141970814Y-98455500D01*
X142002908Y-98459725D01*
X142004009Y-98460020D01*
X142004011Y-98460021D01*
X142080438Y-98480500D01*
X142080440Y-98480500D01*
X143177060Y-98480500D01*
X143177062Y-98480500D01*
X143253489Y-98460021D01*
X143253491Y-98460020D01*
X143261000Y-98456910D01*
X143261726Y-98458663D01*
X143319463Y-98444645D01*
X143331448Y-98445800D01*
X143363705Y-98450500D01*
X143479310Y-98450499D01*
X143546348Y-98470183D01*
X143592103Y-98522987D01*
X143602047Y-98592145D01*
X143573023Y-98655701D01*
X143566992Y-98662179D01*
X143535989Y-98693181D01*
X143474669Y-98726666D01*
X143448309Y-98729500D01*
X143320438Y-98729500D01*
X143282224Y-98739739D01*
X143244009Y-98749979D01*
X143220670Y-98763454D01*
X143217542Y-98765261D01*
X143217480Y-98765297D01*
X143175489Y-98789539D01*
X143175487Y-98789541D01*
X143121848Y-98843181D01*
X143060525Y-98876666D01*
X143034167Y-98879500D01*
X142080438Y-98879500D01*
X142004011Y-98899979D01*
X142004009Y-98899979D01*
X142002908Y-98900275D01*
X141970814Y-98904500D01*
X141724015Y-98904500D01*
X141661890Y-98916857D01*
X141591435Y-98963935D01*
X141544357Y-99034390D01*
X141532000Y-99096515D01*
X141532000Y-99263484D01*
X141544357Y-99325609D01*
X141568078Y-99361109D01*
X141588956Y-99427786D01*
X141570472Y-99495166D01*
X141568078Y-99498891D01*
X141544357Y-99534390D01*
X141532000Y-99596515D01*
X141532000Y-99763484D01*
X141544357Y-99825609D01*
X141568078Y-99861109D01*
X141588956Y-99927786D01*
X141570472Y-99995166D01*
X141568078Y-99998891D01*
X141544357Y-100034390D01*
X141532000Y-100096515D01*
X141532000Y-100263484D01*
X141544357Y-100325609D01*
X141568078Y-100361109D01*
X141588956Y-100427786D01*
X141570472Y-100495166D01*
X141568078Y-100498891D01*
X141544357Y-100534390D01*
X141532000Y-100596515D01*
X141532000Y-100763484D01*
X141544357Y-100825609D01*
X141568078Y-100861109D01*
X141588956Y-100927786D01*
X141570472Y-100995166D01*
X141568078Y-100998891D01*
X141544357Y-101034390D01*
X141532000Y-101096515D01*
X141532000Y-101263484D01*
X141544357Y-101325609D01*
X141568078Y-101361109D01*
X141588956Y-101427786D01*
X141570472Y-101495166D01*
X141568078Y-101498891D01*
X141544357Y-101534390D01*
X141532000Y-101596515D01*
X141532000Y-101763484D01*
X141544357Y-101825609D01*
X141568078Y-101861109D01*
X141588956Y-101927786D01*
X141570472Y-101995166D01*
X141568078Y-101998891D01*
X141544357Y-102034390D01*
X141532000Y-102096515D01*
X141532000Y-102155500D01*
X141512315Y-102222539D01*
X141459511Y-102268294D01*
X141408000Y-102279500D01*
X141349015Y-102279500D01*
X141286890Y-102291857D01*
X141251391Y-102315578D01*
X141184714Y-102336456D01*
X141117334Y-102317972D01*
X141113609Y-102315578D01*
X141078109Y-102291857D01*
X141015984Y-102279500D01*
X141015980Y-102279500D01*
X140849020Y-102279500D01*
X140849015Y-102279500D01*
X140786890Y-102291857D01*
X140716435Y-102338935D01*
X140669357Y-102409390D01*
X140657000Y-102471515D01*
X140657000Y-102471519D01*
X140657000Y-102471520D01*
X140657000Y-103263480D01*
X140660759Y-103282377D01*
X140667814Y-103317847D01*
X140668361Y-103345670D01*
X140669621Y-103345670D01*
X140669621Y-103355429D01*
X140686988Y-103465085D01*
X140708016Y-103506354D01*
X140720912Y-103575023D01*
X140694635Y-103639763D01*
X140685213Y-103650328D01*
X140653993Y-103681548D01*
X140653988Y-103681555D01*
X140603582Y-103780482D01*
X140586215Y-103890138D01*
X140586215Y-103890143D01*
X140603582Y-103999799D01*
X140653988Y-104098726D01*
X140653993Y-104098733D01*
X140732491Y-104177231D01*
X140732494Y-104177233D01*
X140732497Y-104177236D01*
X140831423Y-104227641D01*
X140831425Y-104227642D01*
X140893441Y-104237463D01*
X140941084Y-104245010D01*
X140973835Y-104239822D01*
X141043126Y-104248775D01*
X141096579Y-104293770D01*
X141108153Y-104319304D01*
X141108550Y-104319129D01*
X141156186Y-104427015D01*
X141156187Y-104427016D01*
X141232984Y-104503813D01*
X141332338Y-104547682D01*
X141356627Y-104550500D01*
X141474164Y-104550499D01*
X141541202Y-104570183D01*
X141586957Y-104622987D01*
X141596901Y-104692145D01*
X141596637Y-104693896D01*
X141593280Y-104715091D01*
X141585383Y-104764955D01*
X141585382Y-104764960D01*
X141602749Y-104874616D01*
X141653155Y-104973543D01*
X141653160Y-104973550D01*
X141731658Y-105052048D01*
X141731661Y-105052050D01*
X141731664Y-105052053D01*
X141830590Y-105102458D01*
X141830592Y-105102459D01*
X141940249Y-105119827D01*
X141940251Y-105119827D01*
X141940253Y-105119827D01*
X142049909Y-105102459D01*
X142049910Y-105102458D01*
X142049912Y-105102458D01*
X142148838Y-105052053D01*
X142227346Y-104973545D01*
X142277751Y-104874619D01*
X142277751Y-104874617D01*
X142277752Y-104874616D01*
X142287987Y-104809997D01*
X142545131Y-104809997D01*
X142545131Y-104810002D01*
X142562498Y-104919658D01*
X142612904Y-105018585D01*
X142612909Y-105018592D01*
X142691407Y-105097090D01*
X142691410Y-105097092D01*
X142691413Y-105097095D01*
X142739303Y-105121496D01*
X142790341Y-105147501D01*
X142899998Y-105164869D01*
X142900000Y-105164869D01*
X142900002Y-105164869D01*
X143009658Y-105147501D01*
X143009659Y-105147500D01*
X143009661Y-105147500D01*
X143108587Y-105097095D01*
X143187095Y-105018587D01*
X143237500Y-104919661D01*
X143237500Y-104919659D01*
X143237501Y-104919658D01*
X143254869Y-104810002D01*
X143254869Y-104809997D01*
X143237501Y-104700341D01*
X143214550Y-104655297D01*
X143187095Y-104601413D01*
X143187092Y-104601410D01*
X143187090Y-104601407D01*
X143108592Y-104522909D01*
X143108588Y-104522906D01*
X143108587Y-104522905D01*
X143098790Y-104517913D01*
X143009658Y-104472498D01*
X142900002Y-104455131D01*
X142899998Y-104455131D01*
X142790341Y-104472498D01*
X142691414Y-104522904D01*
X142691407Y-104522909D01*
X142612909Y-104601407D01*
X142612904Y-104601414D01*
X142562498Y-104700341D01*
X142545131Y-104809997D01*
X142287987Y-104809997D01*
X142295120Y-104764960D01*
X142295120Y-104764955D01*
X142277752Y-104655299D01*
X142254076Y-104608832D01*
X142227346Y-104556371D01*
X142227343Y-104556368D01*
X142227341Y-104556365D01*
X142148843Y-104477867D01*
X142148839Y-104477864D01*
X142148838Y-104477863D01*
X142049912Y-104427458D01*
X142049911Y-104427457D01*
X142041217Y-104423028D01*
X142042603Y-104420307D01*
X141998233Y-104389958D01*
X141971044Y-104325596D01*
X141970519Y-104306954D01*
X141970500Y-104306954D01*
X141970499Y-104306265D01*
X141970445Y-104304311D01*
X141970496Y-104303401D01*
X141970500Y-104303373D01*
X141970499Y-103876628D01*
X141969660Y-103869396D01*
X141969010Y-103863786D01*
X141980840Y-103794925D01*
X142028020Y-103743391D01*
X142092184Y-103725500D01*
X143680477Y-103725500D01*
X143747516Y-103745185D01*
X143793271Y-103797989D01*
X143803215Y-103867147D01*
X143774190Y-103930703D01*
X143736772Y-103959983D01*
X143728713Y-103964089D01*
X143711413Y-103972904D01*
X143711407Y-103972909D01*
X143632909Y-104051407D01*
X143632904Y-104051414D01*
X143582498Y-104150341D01*
X143565131Y-104259997D01*
X143565131Y-104260002D01*
X143582498Y-104369658D01*
X143627870Y-104458706D01*
X143640766Y-104527375D01*
X143627870Y-104571294D01*
X143582498Y-104660341D01*
X143565131Y-104769997D01*
X143565131Y-104770002D01*
X143582498Y-104879658D01*
X143632904Y-104978585D01*
X143632909Y-104978592D01*
X143711407Y-105057090D01*
X143711410Y-105057092D01*
X143711413Y-105057095D01*
X143810339Y-105107500D01*
X143810341Y-105107501D01*
X143919998Y-105124869D01*
X143920000Y-105124869D01*
X143920002Y-105124869D01*
X144029658Y-105107501D01*
X144029659Y-105107500D01*
X144029661Y-105107500D01*
X144128587Y-105057095D01*
X144207095Y-104978587D01*
X144257500Y-104879661D01*
X144257500Y-104879659D01*
X144257501Y-104879658D01*
X144274869Y-104770002D01*
X144274869Y-104769997D01*
X144257501Y-104660343D01*
X144257500Y-104660341D01*
X144257500Y-104660339D01*
X144212128Y-104571291D01*
X144199233Y-104502626D01*
X144212127Y-104458710D01*
X144257500Y-104369661D01*
X144264152Y-104327662D01*
X144274869Y-104260002D01*
X144274869Y-104259997D01*
X144257501Y-104150341D01*
X144249381Y-104134405D01*
X144207095Y-104051413D01*
X144207092Y-104051410D01*
X144207090Y-104051407D01*
X144128592Y-103972909D01*
X144128586Y-103972904D01*
X144115578Y-103966277D01*
X144103227Y-103959983D01*
X144052433Y-103912011D01*
X144035637Y-103844191D01*
X144058174Y-103778055D01*
X144112888Y-103734603D01*
X144159523Y-103725500D01*
X144291726Y-103725500D01*
X144358765Y-103745185D01*
X144379407Y-103761819D01*
X144672637Y-104055049D01*
X144709857Y-104079918D01*
X144709861Y-104079919D01*
X144768577Y-104091599D01*
X144768579Y-104091599D01*
X144768581Y-104091599D01*
X144827296Y-104079919D01*
X144827297Y-104079918D01*
X144827300Y-104079918D01*
X144864519Y-104055050D01*
X145422170Y-103497399D01*
X147089500Y-103497399D01*
X147089500Y-103622601D01*
X147121905Y-103743536D01*
X147184505Y-103851964D01*
X147273036Y-103940495D01*
X147381464Y-104003095D01*
X147502399Y-104035500D01*
X147502401Y-104035500D01*
X147627599Y-104035500D01*
X147627601Y-104035500D01*
X147748536Y-104003095D01*
X147856964Y-103940495D01*
X147945495Y-103851964D01*
X148008095Y-103743536D01*
X148040500Y-103622601D01*
X148040500Y-103497399D01*
X148008095Y-103376464D01*
X147953774Y-103282375D01*
X148309500Y-103282375D01*
X148309500Y-103637615D01*
X148309502Y-103637638D01*
X148312269Y-103661495D01*
X148312269Y-103661498D01*
X148355380Y-103759135D01*
X148355383Y-103759139D01*
X148355384Y-103759141D01*
X148430859Y-103834616D01*
X148430862Y-103834617D01*
X148430863Y-103834618D01*
X148528499Y-103877729D01*
X148528500Y-103877729D01*
X148528502Y-103877730D01*
X148552377Y-103880500D01*
X149007622Y-103880499D01*
X149031498Y-103877730D01*
X149129135Y-103834619D01*
X149129136Y-103834618D01*
X149129141Y-103834616D01*
X149204616Y-103759141D01*
X149247730Y-103661498D01*
X149250500Y-103637623D01*
X149250499Y-103282378D01*
X149247730Y-103258502D01*
X149246102Y-103254815D01*
X149204619Y-103160864D01*
X149204617Y-103160861D01*
X149204616Y-103160859D01*
X149137921Y-103094164D01*
X149104436Y-103032841D01*
X149103133Y-103025907D01*
X149097500Y-102990339D01*
X149047095Y-102891413D01*
X149047092Y-102891410D01*
X149047090Y-102891407D01*
X148968592Y-102812909D01*
X148968588Y-102812906D01*
X148968587Y-102812905D01*
X148964743Y-102810946D01*
X148869658Y-102762498D01*
X148760002Y-102745131D01*
X148759998Y-102745131D01*
X148650341Y-102762498D01*
X148551414Y-102812904D01*
X148551407Y-102812909D01*
X148472909Y-102891407D01*
X148472904Y-102891414D01*
X148422499Y-102990341D01*
X148409342Y-103073409D01*
X148379412Y-103136543D01*
X148374552Y-103141690D01*
X148355384Y-103160858D01*
X148312270Y-103258499D01*
X148309500Y-103282375D01*
X147953774Y-103282375D01*
X147945495Y-103268036D01*
X147856964Y-103179505D01*
X147748536Y-103116905D01*
X147748537Y-103116905D01*
X147708224Y-103106103D01*
X147627601Y-103084500D01*
X147502399Y-103084500D01*
X147421775Y-103106103D01*
X147381463Y-103116905D01*
X147273037Y-103179504D01*
X147273034Y-103179506D01*
X147184506Y-103268034D01*
X147184504Y-103268037D01*
X147121905Y-103376463D01*
X147114820Y-103402905D01*
X147089500Y-103497399D01*
X145422170Y-103497399D01*
X145504196Y-103415373D01*
X145529064Y-103378154D01*
X145529401Y-103376463D01*
X145540745Y-103319434D01*
X145540745Y-103319430D01*
X145529065Y-103260715D01*
X145529064Y-103260711D01*
X145525125Y-103254815D01*
X145504196Y-103223492D01*
X144979614Y-102698910D01*
X144946129Y-102637587D01*
X144951113Y-102567895D01*
X144992985Y-102511962D01*
X145028590Y-102496084D01*
X145028148Y-102495016D01*
X145039430Y-102490342D01*
X145039432Y-102490342D01*
X145076651Y-102465474D01*
X145716328Y-101825797D01*
X145741196Y-101788578D01*
X145746189Y-101763481D01*
X145752877Y-101729858D01*
X145752877Y-101729854D01*
X145741197Y-101671139D01*
X145741196Y-101671135D01*
X145718707Y-101637477D01*
X145716328Y-101633916D01*
X145482409Y-101399997D01*
X146885131Y-101399997D01*
X146885131Y-101400002D01*
X146902498Y-101509658D01*
X146952904Y-101608585D01*
X146952909Y-101608592D01*
X147031407Y-101687090D01*
X147031410Y-101687092D01*
X147031413Y-101687095D01*
X147087399Y-101715621D01*
X147130341Y-101737501D01*
X147239998Y-101754869D01*
X147240000Y-101754869D01*
X147240002Y-101754869D01*
X147349658Y-101737501D01*
X147349659Y-101737500D01*
X147349661Y-101737500D01*
X147448587Y-101687095D01*
X147448591Y-101687090D01*
X147456178Y-101681579D01*
X147521985Y-101658099D01*
X147590039Y-101673924D01*
X147616745Y-101694216D01*
X147634735Y-101712206D01*
X147737509Y-101757585D01*
X147762635Y-101760500D01*
X148877364Y-101760499D01*
X148877379Y-101760497D01*
X148877382Y-101760497D01*
X148902487Y-101757586D01*
X148902488Y-101757585D01*
X148902491Y-101757585D01*
X149005265Y-101712206D01*
X149084706Y-101632765D01*
X149130085Y-101529991D01*
X149133000Y-101504865D01*
X149132999Y-101115136D01*
X149132741Y-101112909D01*
X149130086Y-101090012D01*
X149130085Y-101090010D01*
X149130085Y-101090009D01*
X149084706Y-100987235D01*
X149005265Y-100907794D01*
X149000070Y-100905500D01*
X148902492Y-100862415D01*
X148877365Y-100859500D01*
X147762643Y-100859500D01*
X147762617Y-100859502D01*
X147737512Y-100862413D01*
X147737508Y-100862415D01*
X147634735Y-100907793D01*
X147555296Y-100987232D01*
X147555290Y-100987240D01*
X147544983Y-101010586D01*
X147499897Y-101063963D01*
X147433111Y-101084490D01*
X147431549Y-101084500D01*
X147422608Y-101084500D01*
X147366316Y-101070986D01*
X147349661Y-101062500D01*
X147349660Y-101062499D01*
X147349657Y-101062498D01*
X147240002Y-101045131D01*
X147239998Y-101045131D01*
X147130341Y-101062498D01*
X147031414Y-101112904D01*
X147031407Y-101112909D01*
X146952909Y-101191407D01*
X146952904Y-101191414D01*
X146902498Y-101290341D01*
X146885131Y-101399997D01*
X145482409Y-101399997D01*
X145147362Y-101064950D01*
X145110143Y-101040082D01*
X145110142Y-101040081D01*
X145110138Y-101040080D01*
X145051423Y-101028401D01*
X145051419Y-101028401D01*
X144992703Y-101040080D01*
X144992700Y-101040081D01*
X144955480Y-101064950D01*
X144517038Y-101503393D01*
X144455715Y-101536878D01*
X144429357Y-101539712D01*
X143978589Y-101539712D01*
X143978581Y-101539711D01*
X143964147Y-101539711D01*
X143874438Y-101539711D01*
X143843592Y-101552488D01*
X143843591Y-101552487D01*
X143791558Y-101574039D01*
X143791556Y-101574041D01*
X143757013Y-101608585D01*
X143728122Y-101637476D01*
X143728121Y-101637477D01*
X143577021Y-101788578D01*
X143447418Y-101918181D01*
X143386095Y-101951666D01*
X143359737Y-101954500D01*
X142821098Y-101954500D01*
X142754059Y-101934815D01*
X142708304Y-101882011D01*
X142698360Y-101812853D01*
X142699481Y-101806308D01*
X142708000Y-101763480D01*
X142708000Y-101596520D01*
X142695642Y-101534391D01*
X142671921Y-101498889D01*
X142651043Y-101432216D01*
X142669526Y-101364835D01*
X142671894Y-101361149D01*
X142695642Y-101325609D01*
X142708000Y-101263480D01*
X142708000Y-101096520D01*
X142699481Y-101053691D01*
X142705710Y-100984099D01*
X142748573Y-100928923D01*
X142814463Y-100905679D01*
X142821099Y-100905501D01*
X142894853Y-100905501D01*
X142894855Y-100905501D01*
X142953460Y-100881225D01*
X142977736Y-100871170D01*
X143041170Y-100807736D01*
X143041170Y-100807734D01*
X143048778Y-100800126D01*
X143110101Y-100766641D01*
X143117063Y-100765334D01*
X143119999Y-100764868D01*
X143120000Y-100764869D01*
X143154960Y-100759331D01*
X143229657Y-100747501D01*
X143229658Y-100747500D01*
X143229661Y-100747500D01*
X143328587Y-100697095D01*
X143407095Y-100618587D01*
X143457500Y-100519661D01*
X143457500Y-100519659D01*
X143457501Y-100519658D01*
X143474869Y-100410002D01*
X143474869Y-100409997D01*
X143457501Y-100300341D01*
X143445747Y-100277273D01*
X143407095Y-100201413D01*
X143407092Y-100201410D01*
X143407090Y-100201407D01*
X143362715Y-100157032D01*
X143329230Y-100095709D01*
X143334214Y-100026017D01*
X143339901Y-100013078D01*
X143387500Y-99919661D01*
X143389060Y-99909815D01*
X143401702Y-99829997D01*
X146915131Y-99829997D01*
X146915131Y-99830002D01*
X146932498Y-99939658D01*
X146982904Y-100038585D01*
X146982909Y-100038592D01*
X147061407Y-100117090D01*
X147061410Y-100117092D01*
X147061413Y-100117095D01*
X147140436Y-100157359D01*
X147160341Y-100167501D01*
X147269998Y-100184869D01*
X147270000Y-100184869D01*
X147270002Y-100184869D01*
X147379658Y-100167501D01*
X147379659Y-100167500D01*
X147379661Y-100167500D01*
X147478587Y-100117095D01*
X147557095Y-100038587D01*
X147607500Y-99939661D01*
X147607500Y-99939659D01*
X147611930Y-99930966D01*
X147613832Y-99931935D01*
X147645988Y-99884910D01*
X147710347Y-99857713D01*
X147738767Y-99857730D01*
X147762635Y-99860500D01*
X148877364Y-99860499D01*
X148877379Y-99860497D01*
X148877382Y-99860497D01*
X148902487Y-99857586D01*
X148902488Y-99857585D01*
X148902491Y-99857585D01*
X149005265Y-99812206D01*
X149084706Y-99732765D01*
X149130085Y-99629991D01*
X149133000Y-99604865D01*
X149132999Y-99215136D01*
X149131802Y-99204815D01*
X149130086Y-99190012D01*
X149130085Y-99190010D01*
X149130085Y-99190009D01*
X149084706Y-99087235D01*
X149005265Y-99007794D01*
X148985106Y-98998893D01*
X148902492Y-98962415D01*
X148877365Y-98959500D01*
X147762643Y-98959500D01*
X147762617Y-98959502D01*
X147737512Y-98962413D01*
X147737508Y-98962415D01*
X147634735Y-99007793D01*
X147555294Y-99087234D01*
X147509915Y-99190006D01*
X147509915Y-99190008D01*
X147507000Y-99215131D01*
X147507000Y-99222732D01*
X147487315Y-99289771D01*
X147470685Y-99310408D01*
X147405917Y-99375177D01*
X147341220Y-99439874D01*
X147279897Y-99473358D01*
X147272937Y-99474665D01*
X147160341Y-99492498D01*
X147061414Y-99542904D01*
X147061407Y-99542909D01*
X146982909Y-99621407D01*
X146982904Y-99621414D01*
X146932498Y-99720341D01*
X146915131Y-99829997D01*
X143401702Y-99829997D01*
X143404869Y-99810002D01*
X143404869Y-99809997D01*
X143387501Y-99700341D01*
X143347282Y-99621407D01*
X143337095Y-99601413D01*
X143337094Y-99601412D01*
X143332664Y-99592717D01*
X143336067Y-99590982D01*
X143318910Y-99542894D01*
X143334736Y-99474840D01*
X143380710Y-99428428D01*
X143386039Y-99425351D01*
X143394511Y-99420460D01*
X143404390Y-99410581D01*
X143465713Y-99377096D01*
X143535405Y-99382080D01*
X143579752Y-99410581D01*
X143582984Y-99413813D01*
X143682338Y-99457682D01*
X143706627Y-99460500D01*
X144133372Y-99460499D01*
X144157662Y-99457682D01*
X144257016Y-99413813D01*
X144299516Y-99371312D01*
X144360837Y-99337828D01*
X144430528Y-99342812D01*
X144474877Y-99371313D01*
X144477392Y-99373828D01*
X144556172Y-99452608D01*
X144658091Y-99497609D01*
X144683009Y-99500500D01*
X145066990Y-99500499D01*
X145075020Y-99499567D01*
X145091903Y-99497610D01*
X145091905Y-99497609D01*
X145091909Y-99497609D01*
X145193828Y-99452608D01*
X145272319Y-99374117D01*
X145333642Y-99340632D01*
X145403334Y-99345616D01*
X145447681Y-99374117D01*
X145526172Y-99452608D01*
X145628091Y-99497609D01*
X145653009Y-99500500D01*
X146036990Y-99500499D01*
X146045020Y-99499567D01*
X146061903Y-99497610D01*
X146061905Y-99497609D01*
X146061909Y-99497609D01*
X146163828Y-99452608D01*
X146242608Y-99373828D01*
X146287609Y-99271909D01*
X146290500Y-99246991D01*
X146290499Y-98813010D01*
X146288500Y-98795770D01*
X146287610Y-98788096D01*
X146287609Y-98788092D01*
X146277544Y-98765297D01*
X146242608Y-98686172D01*
X146163828Y-98607392D01*
X146163824Y-98607388D01*
X146156924Y-98602661D01*
X146112744Y-98548532D01*
X146104842Y-98479111D01*
X146135727Y-98416438D01*
X146172549Y-98388964D01*
X146178780Y-98385919D01*
X146265919Y-98298780D01*
X146320043Y-98188067D01*
X146330500Y-98116295D01*
X146330500Y-97717399D01*
X147089500Y-97717399D01*
X147089500Y-97842601D01*
X147121905Y-97963536D01*
X147184505Y-98071964D01*
X147273036Y-98160495D01*
X147381464Y-98223095D01*
X147502399Y-98255500D01*
X147502401Y-98255500D01*
X147627599Y-98255500D01*
X147627601Y-98255500D01*
X147748536Y-98223095D01*
X147856964Y-98160495D01*
X147945495Y-98071964D01*
X148008095Y-97963536D01*
X148035726Y-97860415D01*
X148068906Y-97805981D01*
X148237568Y-97805981D01*
X148258191Y-97823009D01*
X148279465Y-97889561D01*
X148279500Y-97892511D01*
X148279500Y-98127615D01*
X148279502Y-98127638D01*
X148282269Y-98151495D01*
X148282269Y-98151498D01*
X148325380Y-98249135D01*
X148325386Y-98249143D01*
X148384997Y-98308754D01*
X148405541Y-98342254D01*
X148408070Y-98340966D01*
X148412499Y-98349659D01*
X148412500Y-98349661D01*
X148462905Y-98448587D01*
X148462907Y-98448589D01*
X148462909Y-98448592D01*
X148541407Y-98527090D01*
X148541410Y-98527092D01*
X148541413Y-98527095D01*
X148601756Y-98557841D01*
X148640341Y-98577501D01*
X148749998Y-98594869D01*
X148750000Y-98594869D01*
X148750002Y-98594869D01*
X148859658Y-98577501D01*
X148859659Y-98577500D01*
X148859661Y-98577500D01*
X148958587Y-98527095D01*
X149037095Y-98448587D01*
X149087500Y-98349661D01*
X149087500Y-98349659D01*
X149091931Y-98340964D01*
X149094484Y-98342265D01*
X149114998Y-98308758D01*
X149174616Y-98249141D01*
X149217730Y-98151498D01*
X149220500Y-98127623D01*
X149220499Y-97772378D01*
X149217730Y-97748502D01*
X149207485Y-97725299D01*
X149174619Y-97650864D01*
X149174617Y-97650861D01*
X149174616Y-97650859D01*
X149099141Y-97575384D01*
X149099138Y-97575383D01*
X149099136Y-97575381D01*
X149001500Y-97532270D01*
X149001501Y-97532270D01*
X148977623Y-97529500D01*
X148522384Y-97529500D01*
X148522361Y-97529502D01*
X148498504Y-97532269D01*
X148498501Y-97532269D01*
X148400864Y-97575380D01*
X148400856Y-97575386D01*
X148325386Y-97650856D01*
X148325381Y-97650863D01*
X148278502Y-97757034D01*
X148275497Y-97755707D01*
X148247526Y-97801193D01*
X148237568Y-97805981D01*
X148068906Y-97805981D01*
X148072090Y-97800758D01*
X148082520Y-97795691D01*
X148061515Y-97778208D01*
X148041540Y-97725299D01*
X148040500Y-97717407D01*
X148040500Y-97717399D01*
X148008095Y-97596464D01*
X147945495Y-97488036D01*
X147856964Y-97399505D01*
X147748536Y-97336905D01*
X147748537Y-97336905D01*
X147686723Y-97320342D01*
X147627601Y-97304500D01*
X147502399Y-97304500D01*
X147443277Y-97320342D01*
X147381463Y-97336905D01*
X147273037Y-97399504D01*
X147273034Y-97399506D01*
X147184506Y-97488034D01*
X147184504Y-97488037D01*
X147121905Y-97596463D01*
X147121905Y-97596464D01*
X147089500Y-97717399D01*
X146330500Y-97717399D01*
X146330499Y-97283706D01*
X146320043Y-97211933D01*
X146265919Y-97101220D01*
X146265917Y-97101218D01*
X146265917Y-97101217D01*
X146178782Y-97014082D01*
X146068067Y-96959957D01*
X145996295Y-96949500D01*
X145996289Y-96949500D01*
X145488706Y-96949500D01*
X145416932Y-96959957D01*
X145306217Y-97014082D01*
X145219082Y-97101217D01*
X145189641Y-97161441D01*
X145164957Y-97211933D01*
X145154500Y-97283705D01*
X145154500Y-97283709D01*
X145154500Y-97283710D01*
X145154500Y-98116293D01*
X145164957Y-98188067D01*
X145219082Y-98298782D01*
X145306218Y-98385918D01*
X145308367Y-98386969D01*
X145310787Y-98389180D01*
X145314581Y-98391889D01*
X145314253Y-98392347D01*
X145359949Y-98434097D01*
X145377863Y-98501632D01*
X145356421Y-98568130D01*
X145302432Y-98612480D01*
X145233036Y-98620600D01*
X145203820Y-98611804D01*
X145193825Y-98607391D01*
X145091909Y-98562391D01*
X145066991Y-98559500D01*
X144683016Y-98559500D01*
X144682993Y-98559502D01*
X144658096Y-98562389D01*
X144658092Y-98562390D01*
X144556175Y-98607390D01*
X144556173Y-98607391D01*
X144474877Y-98688687D01*
X144413553Y-98722171D01*
X144343862Y-98717187D01*
X144299515Y-98688686D01*
X144257016Y-98646187D01*
X144157663Y-98602318D01*
X144133361Y-98599498D01*
X144132261Y-98599435D01*
X144131995Y-98599340D01*
X144129814Y-98599087D01*
X144129872Y-98598581D01*
X144066470Y-98575914D01*
X144023839Y-98520557D01*
X144017904Y-98450940D01*
X144050550Y-98389165D01*
X144051738Y-98387960D01*
X144053778Y-98385919D01*
X144053780Y-98385919D01*
X144140919Y-98298780D01*
X144195043Y-98188067D01*
X144205500Y-98116295D01*
X144205499Y-97283706D01*
X144195043Y-97211933D01*
X144140919Y-97101220D01*
X144140917Y-97101218D01*
X144140917Y-97101217D01*
X144053782Y-97014082D01*
X143943067Y-96959957D01*
X143871295Y-96949500D01*
X143871289Y-96949500D01*
X143363706Y-96949500D01*
X143291932Y-96959957D01*
X143171989Y-97018594D01*
X143170591Y-97015735D01*
X143120757Y-97033034D01*
X143052841Y-97016623D01*
X143004580Y-96966100D01*
X143004259Y-96965474D01*
X142997095Y-96951413D01*
X142997090Y-96951407D01*
X142918592Y-96872909D01*
X142918586Y-96872904D01*
X142893253Y-96859997D01*
X142883451Y-96855002D01*
X142832657Y-96807030D01*
X142815861Y-96739210D01*
X142838398Y-96673074D01*
X142852056Y-96656848D01*
X143091170Y-96417736D01*
X143096653Y-96404500D01*
X143104806Y-96384815D01*
X143125500Y-96334855D01*
X143125500Y-96245146D01*
X143125500Y-95949997D01*
X144715131Y-95949997D01*
X144715131Y-95950002D01*
X144732498Y-96059658D01*
X144782904Y-96158585D01*
X144782909Y-96158592D01*
X144861407Y-96237090D01*
X144861410Y-96237092D01*
X144861413Y-96237095D01*
X144899070Y-96256282D01*
X144960341Y-96287501D01*
X145069998Y-96304869D01*
X145070000Y-96304869D01*
X145070002Y-96304869D01*
X145179658Y-96287501D01*
X145179659Y-96287500D01*
X145179661Y-96287500D01*
X145278587Y-96237095D01*
X145357095Y-96158587D01*
X145407500Y-96059661D01*
X145407500Y-96059659D01*
X145407501Y-96059658D01*
X145424869Y-95950002D01*
X145424869Y-95949997D01*
X145407501Y-95840341D01*
X145367839Y-95762500D01*
X145357095Y-95741413D01*
X145357092Y-95741410D01*
X145357090Y-95741407D01*
X145278592Y-95662909D01*
X145278588Y-95662906D01*
X145278587Y-95662905D01*
X145263516Y-95655226D01*
X145179658Y-95612498D01*
X145070002Y-95595131D01*
X145069998Y-95595131D01*
X144960341Y-95612498D01*
X144861414Y-95662904D01*
X144861407Y-95662909D01*
X144782909Y-95741407D01*
X144782904Y-95741414D01*
X144732498Y-95840341D01*
X144715131Y-95949997D01*
X143125500Y-95949997D01*
X143125500Y-95491544D01*
X143145185Y-95424505D01*
X143161815Y-95403866D01*
X143187095Y-95378587D01*
X143237500Y-95279661D01*
X143237500Y-95279659D01*
X143237501Y-95279658D01*
X143253286Y-95179997D01*
X150665131Y-95179997D01*
X150665131Y-95180002D01*
X150682498Y-95289658D01*
X150732904Y-95388585D01*
X150732909Y-95388592D01*
X150811407Y-95467090D01*
X150811410Y-95467092D01*
X150811413Y-95467095D01*
X150881734Y-95502925D01*
X150910341Y-95517501D01*
X151019998Y-95534869D01*
X151020000Y-95534869D01*
X151020002Y-95534869D01*
X151129658Y-95517501D01*
X151129659Y-95517500D01*
X151129661Y-95517500D01*
X151228587Y-95467095D01*
X151307095Y-95388587D01*
X151357500Y-95289661D01*
X151357500Y-95289659D01*
X151357501Y-95289658D01*
X151374869Y-95180002D01*
X151374869Y-95179997D01*
X151357501Y-95070341D01*
X151337038Y-95030180D01*
X151307095Y-94971413D01*
X151307092Y-94971410D01*
X151307090Y-94971407D01*
X151228592Y-94892909D01*
X151228588Y-94892906D01*
X151228587Y-94892905D01*
X151202745Y-94879738D01*
X151129658Y-94842498D01*
X151020002Y-94825131D01*
X151019998Y-94825131D01*
X150910341Y-94842498D01*
X150811414Y-94892904D01*
X150811407Y-94892909D01*
X150732909Y-94971407D01*
X150732904Y-94971414D01*
X150682498Y-95070341D01*
X150665131Y-95179997D01*
X143253286Y-95179997D01*
X143254869Y-95170002D01*
X143254869Y-95169997D01*
X143237501Y-95060341D01*
X143225764Y-95037306D01*
X143187095Y-94961413D01*
X143187092Y-94961410D01*
X143187090Y-94961407D01*
X143108592Y-94882909D01*
X143108588Y-94882906D01*
X143108587Y-94882905D01*
X143086661Y-94871733D01*
X143009658Y-94832498D01*
X142900002Y-94815131D01*
X142899998Y-94815131D01*
X142790341Y-94832498D01*
X142691414Y-94882904D01*
X142691407Y-94882909D01*
X142612909Y-94961407D01*
X142612904Y-94961414D01*
X142562498Y-95060341D01*
X142545131Y-95169997D01*
X142545131Y-95170002D01*
X142562498Y-95279658D01*
X142585668Y-95325131D01*
X142612905Y-95378587D01*
X142638181Y-95403863D01*
X142671666Y-95465184D01*
X142674500Y-95491544D01*
X142674500Y-96145232D01*
X142654815Y-96212271D01*
X142638185Y-96232908D01*
X142502912Y-96368182D01*
X142441592Y-96401666D01*
X142415233Y-96404500D01*
X141832000Y-96404500D01*
X141764961Y-96384815D01*
X141719206Y-96332011D01*
X141708000Y-96280500D01*
X141708000Y-95772311D01*
X141727685Y-95705272D01*
X141744319Y-95684629D01*
X141748584Y-95680363D01*
X141748587Y-95680362D01*
X141827095Y-95601854D01*
X141877500Y-95502928D01*
X141877500Y-95502926D01*
X141877501Y-95502925D01*
X141894869Y-95393269D01*
X141894869Y-95393264D01*
X141877501Y-95283608D01*
X141845091Y-95220000D01*
X141827095Y-95184680D01*
X141827092Y-95184677D01*
X141827090Y-95184674D01*
X141823367Y-95180951D01*
X141789882Y-95119628D01*
X141794866Y-95049936D01*
X141800557Y-95036988D01*
X141815977Y-95006725D01*
X141817547Y-94996811D01*
X141833346Y-94897066D01*
X141833346Y-94897061D01*
X141815978Y-94787405D01*
X141799641Y-94755341D01*
X141765572Y-94688477D01*
X141765569Y-94688474D01*
X141765567Y-94688471D01*
X141687069Y-94609973D01*
X141687065Y-94609970D01*
X141687064Y-94609969D01*
X141683220Y-94608010D01*
X141588135Y-94559562D01*
X141478479Y-94542195D01*
X141478475Y-94542195D01*
X141368818Y-94559562D01*
X141269891Y-94609968D01*
X141269884Y-94609973D01*
X141191386Y-94688471D01*
X141191381Y-94688478D01*
X141140975Y-94787405D01*
X141126351Y-94879738D01*
X141096421Y-94942873D01*
X141037109Y-94979803D01*
X140967247Y-94978805D01*
X140947584Y-94970824D01*
X140899658Y-94946404D01*
X140790002Y-94929037D01*
X140789998Y-94929037D01*
X140680341Y-94946404D01*
X140581414Y-94996810D01*
X140581410Y-94996812D01*
X140520630Y-95057593D01*
X140459306Y-95091077D01*
X140389615Y-95086092D01*
X140345268Y-95057592D01*
X140143955Y-94856279D01*
X140143953Y-94856276D01*
X140063081Y-94775404D01*
X140063080Y-94775403D01*
X140033682Y-94763226D01*
X139980199Y-94741072D01*
X139890489Y-94741072D01*
X139876055Y-94741072D01*
X139876047Y-94741073D01*
X139771341Y-94741073D01*
X139704302Y-94721388D01*
X139683660Y-94704754D01*
X139478611Y-94499706D01*
X139478610Y-94499705D01*
X139461170Y-94482264D01*
X139397736Y-94418830D01*
X139397735Y-94418829D01*
X139373457Y-94408772D01*
X139373457Y-94408771D01*
X139314858Y-94384500D01*
X139314856Y-94384499D01*
X139314855Y-94384499D01*
X139251544Y-94384499D01*
X139184505Y-94364814D01*
X139163863Y-94348180D01*
X139138592Y-94322909D01*
X139138588Y-94322906D01*
X139138587Y-94322905D01*
X139039661Y-94272500D01*
X139039660Y-94272499D01*
X139039659Y-94272499D01*
X139038016Y-94272239D01*
X139036179Y-94271368D01*
X139030375Y-94269482D01*
X139030618Y-94268731D01*
X138974882Y-94242307D01*
X138937953Y-94182994D01*
X138938953Y-94113131D01*
X138969734Y-94062088D01*
X139795979Y-93235844D01*
X139857300Y-93202361D01*
X139926992Y-93207345D01*
X139982925Y-93249217D01*
X140002318Y-93287530D01*
X140021186Y-93349729D01*
X140114086Y-93523532D01*
X140114090Y-93523539D01*
X140239116Y-93675883D01*
X140391460Y-93800909D01*
X140391467Y-93800913D01*
X140565266Y-93893811D01*
X140565269Y-93893811D01*
X140565273Y-93893814D01*
X140753868Y-93951024D01*
X140950000Y-93970341D01*
X141146132Y-93951024D01*
X141334727Y-93893814D01*
X141508538Y-93800910D01*
X141660883Y-93675883D01*
X141785910Y-93523538D01*
X141873469Y-93359727D01*
X141878811Y-93349733D01*
X141878811Y-93349732D01*
X141878814Y-93349727D01*
X141936024Y-93161132D01*
X141955341Y-92965000D01*
X142484659Y-92965000D01*
X142503975Y-93161129D01*
X142503976Y-93161132D01*
X142547365Y-93304167D01*
X142561188Y-93349733D01*
X142654086Y-93523532D01*
X142654090Y-93523539D01*
X142779116Y-93675883D01*
X142931460Y-93800909D01*
X142931467Y-93800913D01*
X143105266Y-93893811D01*
X143105269Y-93893811D01*
X143105273Y-93893814D01*
X143293868Y-93951024D01*
X143490000Y-93970341D01*
X143686132Y-93951024D01*
X143874727Y-93893814D01*
X144048538Y-93800910D01*
X144200883Y-93675883D01*
X144325910Y-93523538D01*
X144413469Y-93359727D01*
X144418811Y-93349733D01*
X144418811Y-93349732D01*
X144418814Y-93349727D01*
X144476024Y-93161132D01*
X144495341Y-92965000D01*
X145024659Y-92965000D01*
X145043975Y-93161129D01*
X145043976Y-93161132D01*
X145087365Y-93304167D01*
X145101188Y-93349733D01*
X145194086Y-93523532D01*
X145194090Y-93523539D01*
X145319116Y-93675883D01*
X145471460Y-93800909D01*
X145471467Y-93800913D01*
X145645266Y-93893811D01*
X145645269Y-93893811D01*
X145645273Y-93893814D01*
X145833868Y-93951024D01*
X146030000Y-93970341D01*
X146226132Y-93951024D01*
X146414727Y-93893814D01*
X146588538Y-93800910D01*
X146740883Y-93675883D01*
X146865910Y-93523538D01*
X146953469Y-93359727D01*
X146958811Y-93349733D01*
X146958811Y-93349732D01*
X146958814Y-93349727D01*
X147016024Y-93161132D01*
X147035341Y-92965000D01*
X147016024Y-92768868D01*
X146958814Y-92580273D01*
X146958811Y-92580269D01*
X146958811Y-92580266D01*
X146865913Y-92406467D01*
X146865909Y-92406460D01*
X146740883Y-92254116D01*
X146588539Y-92129090D01*
X146588532Y-92129086D01*
X146414733Y-92036188D01*
X146414727Y-92036186D01*
X146226132Y-91978976D01*
X146226129Y-91978975D01*
X146030000Y-91959659D01*
X145833870Y-91978975D01*
X145645266Y-92036188D01*
X145471467Y-92129086D01*
X145471460Y-92129090D01*
X145319116Y-92254116D01*
X145194090Y-92406460D01*
X145194086Y-92406467D01*
X145101188Y-92580266D01*
X145043975Y-92768870D01*
X145024659Y-92965000D01*
X144495341Y-92965000D01*
X144476024Y-92768868D01*
X144418814Y-92580273D01*
X144418811Y-92580269D01*
X144418811Y-92580266D01*
X144325913Y-92406467D01*
X144325909Y-92406460D01*
X144200883Y-92254116D01*
X144048539Y-92129090D01*
X144048532Y-92129086D01*
X143874733Y-92036188D01*
X143874727Y-92036186D01*
X143686132Y-91978976D01*
X143686129Y-91978975D01*
X143490000Y-91959659D01*
X143293870Y-91978975D01*
X143105266Y-92036188D01*
X142931467Y-92129086D01*
X142931460Y-92129090D01*
X142779116Y-92254116D01*
X142654090Y-92406460D01*
X142654086Y-92406467D01*
X142561188Y-92580266D01*
X142503975Y-92768870D01*
X142484659Y-92965000D01*
X141955341Y-92965000D01*
X141936024Y-92768868D01*
X141878814Y-92580273D01*
X141878811Y-92580269D01*
X141878811Y-92580266D01*
X141785913Y-92406467D01*
X141785909Y-92406460D01*
X141660883Y-92254116D01*
X141508539Y-92129090D01*
X141508532Y-92129086D01*
X141334733Y-92036188D01*
X141334727Y-92036186D01*
X141146132Y-91978976D01*
X141146129Y-91978975D01*
X140950000Y-91959659D01*
X140753870Y-91978975D01*
X140565266Y-92036188D01*
X140391467Y-92129086D01*
X140391460Y-92129090D01*
X140239116Y-92254116D01*
X140114090Y-92406460D01*
X140114086Y-92406467D01*
X140021186Y-92580271D01*
X139999580Y-92651496D01*
X139961283Y-92709934D01*
X139897470Y-92738391D01*
X139880920Y-92739500D01*
X139703064Y-92739500D01*
X139703062Y-92739500D01*
X139703060Y-92739501D01*
X139620185Y-92773827D01*
X137741330Y-94652682D01*
X137741330Y-94652683D01*
X137739788Y-94656407D01*
X137739787Y-94656409D01*
X137739785Y-94656414D01*
X137706999Y-94735563D01*
X137706999Y-94743623D01*
X137687314Y-94810662D01*
X137634510Y-94856417D01*
X137565352Y-94866361D01*
X137563608Y-94866098D01*
X137557500Y-94865131D01*
X137557498Y-94865131D01*
X137447841Y-94882498D01*
X137348914Y-94932904D01*
X137348907Y-94932909D01*
X137270409Y-95011407D01*
X137270404Y-95011414D01*
X137219998Y-95110341D01*
X137202631Y-95219997D01*
X137202631Y-95219999D01*
X137208170Y-95254976D01*
X137207315Y-95298555D01*
X137204618Y-95312118D01*
X137201120Y-95311422D01*
X137187314Y-95358440D01*
X137134510Y-95404195D01*
X137065352Y-95414139D01*
X137058809Y-95413019D01*
X137048673Y-95411003D01*
X137015980Y-95404500D01*
X136849020Y-95404500D01*
X136806189Y-95413019D01*
X136736598Y-95406790D01*
X136681421Y-95363926D01*
X136658178Y-95298036D01*
X136658000Y-95291401D01*
X136658000Y-95252029D01*
X136677685Y-95184990D01*
X136701969Y-95159278D01*
X136701686Y-95158995D01*
X136708584Y-95152096D01*
X136708587Y-95152095D01*
X136787095Y-95073587D01*
X136837500Y-94974661D01*
X136837500Y-94974659D01*
X136837501Y-94974658D01*
X136854869Y-94865002D01*
X136854869Y-94864997D01*
X136837501Y-94755341D01*
X136809785Y-94700945D01*
X136787095Y-94656413D01*
X136787091Y-94656409D01*
X136787090Y-94656407D01*
X136708592Y-94577909D01*
X136708588Y-94577906D01*
X136708587Y-94577905D01*
X136624071Y-94534842D01*
X136609658Y-94527498D01*
X136500002Y-94510131D01*
X136499998Y-94510131D01*
X136380700Y-94529026D01*
X136380394Y-94527095D01*
X136322822Y-94528742D01*
X136262988Y-94492663D01*
X136233461Y-94436456D01*
X136229430Y-94418829D01*
X136229264Y-94418102D01*
X136193011Y-94348466D01*
X136146147Y-94296644D01*
X136141055Y-94291275D01*
X136103534Y-94269482D01*
X136071453Y-94250848D01*
X136071446Y-94250845D01*
X136004010Y-94232587D01*
X135960081Y-94227218D01*
X135853801Y-94229472D01*
X135851173Y-94229500D01*
X135526634Y-94229500D01*
X135526611Y-94229502D01*
X135502336Y-94232317D01*
X135498666Y-94233316D01*
X135468750Y-94237635D01*
X135425681Y-94238548D01*
X135358239Y-94220289D01*
X135311376Y-94168466D01*
X135299969Y-94099534D01*
X135301436Y-94090382D01*
X135301765Y-94088723D01*
X135301767Y-94088722D01*
X135310500Y-94044820D01*
X135310500Y-93015180D01*
X135310500Y-93015177D01*
X135301768Y-92971282D01*
X135301767Y-92971281D01*
X135301767Y-92971278D01*
X135296217Y-92962972D01*
X135268505Y-92921497D01*
X135268504Y-92921496D01*
X135252457Y-92910773D01*
X135207654Y-92857162D01*
X135198947Y-92787837D01*
X135229102Y-92724810D01*
X135288546Y-92688091D01*
X135297142Y-92686059D01*
X135318722Y-92681767D01*
X135368504Y-92648504D01*
X135401767Y-92598722D01*
X135401766Y-92598722D01*
X135408552Y-92588568D01*
X135410748Y-92590035D01*
X135443505Y-92549381D01*
X135509798Y-92527312D01*
X135577498Y-92544587D01*
X135617332Y-92582340D01*
X135628280Y-92598724D01*
X135641497Y-92618505D01*
X135690872Y-92651496D01*
X135691278Y-92651767D01*
X135691281Y-92651767D01*
X135691282Y-92651768D01*
X135735177Y-92660500D01*
X135735180Y-92660500D01*
X136481037Y-92660500D01*
X136548076Y-92680185D01*
X136593831Y-92732989D01*
X136603775Y-92802147D01*
X136574750Y-92865703D01*
X136548583Y-92886179D01*
X136549305Y-92887172D01*
X136541407Y-92892909D01*
X136462909Y-92971407D01*
X136462904Y-92971414D01*
X136412498Y-93070341D01*
X136395131Y-93179997D01*
X136395131Y-93180002D01*
X136412498Y-93289658D01*
X136462904Y-93388585D01*
X136462909Y-93388592D01*
X136541407Y-93467090D01*
X136541410Y-93467092D01*
X136541413Y-93467095D01*
X136575608Y-93484518D01*
X136640341Y-93517501D01*
X136749998Y-93534869D01*
X136750000Y-93534869D01*
X136750001Y-93534869D01*
X136821577Y-93523532D01*
X136842203Y-93520265D01*
X136911497Y-93529219D01*
X136964949Y-93574215D01*
X136984075Y-93623339D01*
X137002499Y-93739658D01*
X137002499Y-93739659D01*
X137002500Y-93739661D01*
X137052142Y-93837090D01*
X137052904Y-93838585D01*
X137052909Y-93838592D01*
X137131407Y-93917090D01*
X137131410Y-93917092D01*
X137131413Y-93917095D01*
X137198003Y-93951024D01*
X137230341Y-93967501D01*
X137339998Y-93984869D01*
X137340000Y-93984869D01*
X137340002Y-93984869D01*
X137449658Y-93967501D01*
X137449659Y-93967500D01*
X137449661Y-93967500D01*
X137548587Y-93917095D01*
X137586089Y-93879592D01*
X137647409Y-93846107D01*
X137717101Y-93851090D01*
X137730049Y-93856781D01*
X137790339Y-93887500D01*
X137790341Y-93887500D01*
X137790343Y-93887501D01*
X137899998Y-93904869D01*
X137900000Y-93904869D01*
X137900002Y-93904869D01*
X138009658Y-93887501D01*
X138009659Y-93887500D01*
X138009661Y-93887500D01*
X138108587Y-93837095D01*
X138187095Y-93758587D01*
X138237500Y-93659661D01*
X138237500Y-93659659D01*
X138237501Y-93659658D01*
X138254869Y-93550002D01*
X138254869Y-93549997D01*
X138237501Y-93440341D01*
X138227857Y-93421413D01*
X138187095Y-93341413D01*
X138187092Y-93341410D01*
X138187090Y-93341407D01*
X138161819Y-93316136D01*
X138128334Y-93254813D01*
X138125500Y-93228455D01*
X138125500Y-92794500D01*
X138145185Y-92727461D01*
X138197989Y-92681706D01*
X138249500Y-92670500D01*
X138344822Y-92670500D01*
X138388717Y-92661768D01*
X138388717Y-92661767D01*
X138388722Y-92661767D01*
X138438504Y-92628504D01*
X138471767Y-92578722D01*
X138480500Y-92534820D01*
X138480500Y-91505180D01*
X138480500Y-91505177D01*
X138471768Y-91461282D01*
X138471767Y-91461281D01*
X138471767Y-91461278D01*
X138465083Y-91451275D01*
X138438505Y-91411497D01*
X138438504Y-91411496D01*
X138417708Y-91397600D01*
X138372905Y-91343991D01*
X138364196Y-91274666D01*
X138394351Y-91211638D01*
X138453793Y-91174919D01*
X138486600Y-91170500D01*
X152125500Y-91170500D01*
X152192539Y-91190185D01*
G37*
%TD.AperFunction*%
%TA.AperFunction,Conductor*%
G36*
X133419203Y-91190185D02*
G01*
X133464958Y-91242989D01*
X133474902Y-91312147D01*
X133462649Y-91350794D01*
X133442498Y-91390341D01*
X133425131Y-91499997D01*
X133425131Y-91500002D01*
X133442498Y-91609658D01*
X133492904Y-91708585D01*
X133492909Y-91708592D01*
X133571407Y-91787090D01*
X133571410Y-91787092D01*
X133571413Y-91787095D01*
X133670339Y-91837500D01*
X133670340Y-91837500D01*
X133670342Y-91837501D01*
X133670341Y-91837501D01*
X133758851Y-91851519D01*
X133780000Y-91854869D01*
X133780000Y-91854868D01*
X133782937Y-91855334D01*
X133846072Y-91885263D01*
X133851221Y-91890126D01*
X134073181Y-92112086D01*
X134106666Y-92173409D01*
X134109500Y-92199767D01*
X134109500Y-92554820D01*
X134109500Y-92554822D01*
X134109499Y-92554822D01*
X134118231Y-92598717D01*
X134118234Y-92598724D01*
X134151495Y-92648503D01*
X134151496Y-92648504D01*
X134156381Y-92651768D01*
X134167540Y-92659224D01*
X134212345Y-92712836D01*
X134221052Y-92782161D01*
X134190898Y-92845189D01*
X134131454Y-92881908D01*
X134122841Y-92883943D01*
X134101282Y-92888231D01*
X134101275Y-92888234D01*
X134051496Y-92921495D01*
X134051495Y-92921496D01*
X134018234Y-92971275D01*
X134018231Y-92971282D01*
X134009500Y-93015177D01*
X134009500Y-93015180D01*
X134009500Y-94044820D01*
X134009500Y-94044822D01*
X134009499Y-94044822D01*
X134018231Y-94088717D01*
X134018234Y-94088724D01*
X134051495Y-94138503D01*
X134051496Y-94138504D01*
X134101278Y-94171767D01*
X134101281Y-94171767D01*
X134101282Y-94171768D01*
X134145177Y-94180500D01*
X134362796Y-94180500D01*
X134429835Y-94200185D01*
X134475590Y-94252989D01*
X134485534Y-94322147D01*
X134469961Y-94362096D01*
X134470826Y-94362478D01*
X134461752Y-94383026D01*
X134454475Y-94397021D01*
X134438256Y-94423884D01*
X134430230Y-94451650D01*
X134424548Y-94467285D01*
X134422318Y-94472335D01*
X134422318Y-94472338D01*
X134422208Y-94473286D01*
X134419524Y-94486633D01*
X134419776Y-94486687D01*
X134418855Y-94491007D01*
X134412740Y-94534842D01*
X134414327Y-94909610D01*
X134414440Y-94914929D01*
X134414763Y-94923346D01*
X134424500Y-94971858D01*
X134448979Y-95037308D01*
X134448980Y-95037311D01*
X134455889Y-95049936D01*
X134470225Y-95076133D01*
X134629700Y-95288766D01*
X134654176Y-95354208D01*
X134654500Y-95363166D01*
X134654500Y-96381248D01*
X134634815Y-96448287D01*
X134582011Y-96494042D01*
X134529759Y-96501555D01*
X134529759Y-96505131D01*
X134519998Y-96505131D01*
X134410341Y-96522498D01*
X134311414Y-96572904D01*
X134311407Y-96572909D01*
X134232909Y-96651407D01*
X134232904Y-96651414D01*
X134182498Y-96750341D01*
X134165131Y-96859997D01*
X134165131Y-96860002D01*
X134182498Y-96969658D01*
X134237336Y-97077283D01*
X134235286Y-97078327D01*
X134254236Y-97131431D01*
X134238414Y-97199485D01*
X134228073Y-97213099D01*
X134228644Y-97213514D01*
X134222904Y-97221414D01*
X134172498Y-97320342D01*
X134169482Y-97329625D01*
X134168161Y-97329196D01*
X134142638Y-97383034D01*
X134083326Y-97419964D01*
X134050096Y-97424500D01*
X131983991Y-97424500D01*
X131950944Y-97428054D01*
X131891854Y-97440909D01*
X131891583Y-97439666D01*
X131863349Y-97444500D01*
X131840178Y-97444500D01*
X131796282Y-97453231D01*
X131796275Y-97453234D01*
X131746496Y-97486495D01*
X131746495Y-97486496D01*
X131713234Y-97536275D01*
X131713231Y-97536282D01*
X131704500Y-97580177D01*
X131704500Y-99055500D01*
X131684815Y-99122539D01*
X131632011Y-99168294D01*
X131580500Y-99179500D01*
X131436379Y-99179500D01*
X131252756Y-99216025D01*
X131252748Y-99216027D01*
X131079771Y-99287676D01*
X131079762Y-99287681D01*
X130924092Y-99391697D01*
X130924088Y-99391700D01*
X130791700Y-99524088D01*
X130791697Y-99524092D01*
X130687681Y-99679762D01*
X130687676Y-99679771D01*
X130616027Y-99852748D01*
X130616025Y-99852756D01*
X130579500Y-100036379D01*
X130579500Y-100223620D01*
X130616025Y-100407243D01*
X130616027Y-100407251D01*
X130687676Y-100580228D01*
X130687681Y-100580237D01*
X130791697Y-100735907D01*
X130791700Y-100735911D01*
X130924088Y-100868299D01*
X130924092Y-100868302D01*
X131079762Y-100972318D01*
X131079771Y-100972323D01*
X131108201Y-100984099D01*
X131252749Y-101043973D01*
X131435952Y-101080414D01*
X131436379Y-101080499D01*
X131436383Y-101080500D01*
X131522797Y-101080500D01*
X131589836Y-101100185D01*
X131635591Y-101152989D01*
X131645535Y-101222147D01*
X131629962Y-101262092D01*
X131630828Y-101262474D01*
X131582318Y-101372335D01*
X131582318Y-101372337D01*
X131579500Y-101396625D01*
X131579500Y-101763365D01*
X131579502Y-101763388D01*
X131582317Y-101787659D01*
X131582318Y-101787662D01*
X131626186Y-101887015D01*
X131626187Y-101887016D01*
X131702984Y-101963813D01*
X131802338Y-102007682D01*
X131826627Y-102010500D01*
X132253372Y-102010499D01*
X132277662Y-102007682D01*
X132377016Y-101963813D01*
X132432877Y-101907951D01*
X132494196Y-101874469D01*
X132563888Y-101879453D01*
X132576844Y-101885148D01*
X132598270Y-101896065D01*
X132602056Y-101897994D01*
X132652852Y-101945969D01*
X132667377Y-101984286D01*
X132673231Y-102013717D01*
X132673234Y-102013724D01*
X132687043Y-102034391D01*
X132706496Y-102063504D01*
X132756278Y-102096767D01*
X132756281Y-102096767D01*
X132756282Y-102096768D01*
X132800177Y-102105500D01*
X134260500Y-102105500D01*
X134327539Y-102125185D01*
X134373294Y-102177989D01*
X134384500Y-102229500D01*
X134384500Y-104875142D01*
X134384499Y-104875156D01*
X134384499Y-104974857D01*
X134402613Y-105018585D01*
X134402613Y-105018587D01*
X134402614Y-105018587D01*
X134418830Y-105057736D01*
X134453181Y-105092087D01*
X134486666Y-105153410D01*
X134489500Y-105179768D01*
X134489500Y-105457615D01*
X134489502Y-105457638D01*
X134492269Y-105481495D01*
X134492269Y-105481498D01*
X134535380Y-105579135D01*
X134535383Y-105579139D01*
X134535384Y-105579141D01*
X134610859Y-105654616D01*
X134610862Y-105654617D01*
X134610863Y-105654618D01*
X134708499Y-105697729D01*
X134708500Y-105697729D01*
X134708502Y-105697730D01*
X134732377Y-105700500D01*
X134810500Y-105700499D01*
X134877538Y-105720183D01*
X134923294Y-105772986D01*
X134934500Y-105824499D01*
X134934500Y-106507246D01*
X134935390Y-106523853D01*
X134935394Y-106523905D01*
X134938224Y-106550222D01*
X134938226Y-106550233D01*
X134948869Y-106584219D01*
X134953938Y-106609120D01*
X134954499Y-106614823D01*
X134958225Y-106633556D01*
X134963231Y-106658722D01*
X134988098Y-106695938D01*
X135139479Y-106847319D01*
X135172963Y-106908641D01*
X135167979Y-106978332D01*
X135139479Y-107022680D01*
X134987682Y-107174478D01*
X134926358Y-107207963D01*
X134856667Y-107202979D01*
X134812319Y-107174478D01*
X134640941Y-107003101D01*
X134640940Y-107003100D01*
X134603722Y-106978233D01*
X134603717Y-106978231D01*
X134559822Y-106969500D01*
X134559820Y-106969500D01*
X134548519Y-106969500D01*
X134513583Y-106964477D01*
X134501058Y-106960799D01*
X134501048Y-106960797D01*
X134457249Y-106954500D01*
X134457246Y-106954500D01*
X133099500Y-106954500D01*
X133032461Y-106934815D01*
X132986706Y-106882011D01*
X132975500Y-106830500D01*
X132975500Y-106704008D01*
X132975499Y-106703996D01*
X132971946Y-106670945D01*
X132960740Y-106619434D01*
X132960739Y-106619432D01*
X132960739Y-106619431D01*
X132958160Y-106612120D01*
X132960346Y-106611348D01*
X132952029Y-106576146D01*
X132951099Y-106576238D01*
X132950502Y-106570175D01*
X132941770Y-106526280D01*
X132941769Y-106526279D01*
X132941769Y-106526276D01*
X132908506Y-106476494D01*
X132904305Y-106473687D01*
X132858726Y-106443232D01*
X132858719Y-106443229D01*
X132814824Y-106434498D01*
X132814822Y-106434498D01*
X132770149Y-106434498D01*
X132743792Y-106431664D01*
X132739816Y-106430799D01*
X132696003Y-106424500D01*
X132696000Y-106424500D01*
X132029501Y-106424500D01*
X132029492Y-106424500D01*
X131996445Y-106428054D01*
X131944934Y-106439260D01*
X131876158Y-106473686D01*
X131823361Y-106519436D01*
X131817877Y-106524422D01*
X131775987Y-106593145D01*
X131775984Y-106593151D01*
X131756300Y-106660187D01*
X131756298Y-106660197D01*
X131750001Y-106703996D01*
X131750001Y-106907289D01*
X131747618Y-106931479D01*
X131744316Y-106948079D01*
X131743234Y-106953520D01*
X131740595Y-106964258D01*
X131730797Y-106997625D01*
X131724500Y-107041428D01*
X131724500Y-107786167D01*
X131704815Y-107853206D01*
X131652011Y-107898961D01*
X131582853Y-107908905D01*
X131538501Y-107893555D01*
X131476784Y-107857923D01*
X131413667Y-107841011D01*
X131324057Y-107817000D01*
X131165943Y-107817000D01*
X131013216Y-107857923D01*
X131013211Y-107857925D01*
X130961498Y-107887781D01*
X130893598Y-107904252D01*
X130827571Y-107881399D01*
X130784382Y-107826477D01*
X130775500Y-107780393D01*
X130775500Y-107365771D01*
X130795185Y-107298732D01*
X130811814Y-107278094D01*
X131033636Y-107056274D01*
X131044761Y-107043889D01*
X131061395Y-107023247D01*
X131089516Y-106969488D01*
X131090988Y-106964477D01*
X131103533Y-106921752D01*
X131109201Y-106902449D01*
X131115500Y-106858638D01*
X131115500Y-106609499D01*
X131111946Y-106576444D01*
X131100740Y-106524933D01*
X131075088Y-106473687D01*
X131062841Y-106449220D01*
X131063986Y-106448646D01*
X131045485Y-106389549D01*
X131047848Y-106363149D01*
X131050500Y-106349819D01*
X131050500Y-106070179D01*
X131050500Y-106070176D01*
X131041768Y-106026281D01*
X131041767Y-106026280D01*
X131041767Y-106026277D01*
X131008504Y-105976495D01*
X131001949Y-105972115D01*
X130958724Y-105943233D01*
X130958717Y-105943230D01*
X130914822Y-105934499D01*
X130914820Y-105934499D01*
X130085180Y-105934499D01*
X130085178Y-105934499D01*
X130041282Y-105943230D01*
X130041278Y-105943232D01*
X130010792Y-105963601D01*
X129944116Y-105984479D01*
X129941903Y-105984499D01*
X129681798Y-105984499D01*
X129681790Y-105984498D01*
X129675597Y-105984498D01*
X129665534Y-105982496D01*
X129651724Y-105980797D01*
X129651720Y-105980796D01*
X129651969Y-105979799D01*
X129650112Y-105979430D01*
X129649717Y-105981416D01*
X129602960Y-105972115D01*
X129541049Y-105939729D01*
X129506475Y-105879013D01*
X129510216Y-105809244D01*
X129551083Y-105752572D01*
X129602961Y-105728881D01*
X129638717Y-105721768D01*
X129638717Y-105721767D01*
X129638722Y-105721767D01*
X129688504Y-105688504D01*
X129721767Y-105638722D01*
X129725740Y-105618751D01*
X129730500Y-105594822D01*
X129730500Y-105215177D01*
X129721768Y-105171282D01*
X129721767Y-105171281D01*
X129721767Y-105171278D01*
X129688504Y-105121496D01*
X129688503Y-105121495D01*
X129638724Y-105088234D01*
X129638717Y-105088231D01*
X129594822Y-105079500D01*
X129594820Y-105079500D01*
X129149500Y-105079500D01*
X129082461Y-105059815D01*
X129036706Y-105007011D01*
X129025500Y-104955500D01*
X129025500Y-104756360D01*
X129025499Y-104756354D01*
X129025374Y-104755148D01*
X129024586Y-104747517D01*
X129022221Y-104724601D01*
X129022220Y-104724596D01*
X129022219Y-104724586D01*
X129013115Y-104680977D01*
X129010500Y-104655643D01*
X129010500Y-104615177D01*
X129001768Y-104571282D01*
X129001767Y-104571281D01*
X129001767Y-104571278D01*
X128968504Y-104521496D01*
X128958782Y-104515000D01*
X128918724Y-104488234D01*
X128918717Y-104488231D01*
X128874822Y-104479499D01*
X128868760Y-104478903D01*
X128869004Y-104476418D01*
X128812461Y-104459815D01*
X128766706Y-104407011D01*
X128755500Y-104355500D01*
X128755500Y-104152375D01*
X131559500Y-104152375D01*
X131559500Y-104607615D01*
X131559502Y-104607638D01*
X131562269Y-104631495D01*
X131562269Y-104631498D01*
X131605380Y-104729135D01*
X131605383Y-104729139D01*
X131605384Y-104729141D01*
X131680859Y-104804616D01*
X131680862Y-104804617D01*
X131680863Y-104804618D01*
X131778499Y-104847729D01*
X131778500Y-104847729D01*
X131778502Y-104847730D01*
X131802377Y-104850500D01*
X132050502Y-104850499D01*
X132117541Y-104870183D01*
X132163296Y-104922987D01*
X132174502Y-104974499D01*
X132174502Y-105310500D01*
X132154817Y-105377539D01*
X132102013Y-105423294D01*
X132050502Y-105434500D01*
X131985180Y-105434500D01*
X131941284Y-105443231D01*
X131941277Y-105443234D01*
X131891498Y-105476495D01*
X131891497Y-105476496D01*
X131858236Y-105526275D01*
X131858233Y-105526282D01*
X131849502Y-105570177D01*
X131849502Y-105570180D01*
X131849502Y-105849820D01*
X131849502Y-105849822D01*
X131849501Y-105849822D01*
X131858233Y-105893717D01*
X131858236Y-105893724D01*
X131891315Y-105943230D01*
X131891498Y-105943504D01*
X131941280Y-105976767D01*
X131941283Y-105976767D01*
X131941284Y-105976768D01*
X131985179Y-105985500D01*
X131985182Y-105985500D01*
X132814824Y-105985500D01*
X132858719Y-105976768D01*
X132858719Y-105976767D01*
X132858724Y-105976767D01*
X132908506Y-105943504D01*
X132941769Y-105893722D01*
X132950502Y-105849820D01*
X132950502Y-105570180D01*
X132950502Y-105570177D01*
X132941770Y-105526282D01*
X132941769Y-105526281D01*
X132941769Y-105526278D01*
X132908506Y-105476496D01*
X132908505Y-105476495D01*
X132858726Y-105443234D01*
X132858719Y-105443231D01*
X132814824Y-105434500D01*
X132814822Y-105434500D01*
X132749502Y-105434500D01*
X132682463Y-105414815D01*
X132636708Y-105362011D01*
X132625502Y-105310500D01*
X132625502Y-104859299D01*
X132625503Y-104859290D01*
X132625503Y-104755149D01*
X132625503Y-104755148D01*
X132591172Y-104672267D01*
X132591172Y-104672266D01*
X132527738Y-104608832D01*
X132520673Y-104601767D01*
X132520666Y-104601761D01*
X132436818Y-104517913D01*
X132403333Y-104456590D01*
X132400499Y-104430232D01*
X132400499Y-104152384D01*
X132400499Y-104152378D01*
X132397730Y-104128502D01*
X132384586Y-104098733D01*
X132354619Y-104030864D01*
X132354617Y-104030861D01*
X132354616Y-104030859D01*
X132279141Y-103955384D01*
X132279138Y-103955383D01*
X132279136Y-103955381D01*
X132181500Y-103912270D01*
X132181501Y-103912270D01*
X132157623Y-103909500D01*
X131802384Y-103909500D01*
X131802361Y-103909502D01*
X131778504Y-103912269D01*
X131778501Y-103912269D01*
X131680864Y-103955380D01*
X131680856Y-103955386D01*
X131605386Y-104030856D01*
X131605381Y-104030863D01*
X131562270Y-104128499D01*
X131559500Y-104152375D01*
X128755500Y-104152375D01*
X128755500Y-103129304D01*
X128755505Y-103128226D01*
X128758086Y-102831352D01*
X128759433Y-102676330D01*
X128775107Y-100873066D01*
X128795373Y-100806203D01*
X128848573Y-100760909D01*
X128896026Y-100750185D01*
X129774942Y-100728399D01*
X129791084Y-100726428D01*
X129804736Y-100724762D01*
X129804741Y-100724760D01*
X129804749Y-100724760D01*
X129851285Y-100714442D01*
X129917467Y-100681842D01*
X129971032Y-100636981D01*
X129976591Y-100632096D01*
X129976595Y-100632088D01*
X129982352Y-100625352D01*
X129982975Y-100625884D01*
X130000572Y-100607844D01*
X129999868Y-100607139D01*
X130008497Y-100598508D01*
X130008504Y-100598504D01*
X130041767Y-100548722D01*
X130047548Y-100519661D01*
X130050500Y-100504822D01*
X130050500Y-100274777D01*
X130050518Y-100272693D01*
X130052462Y-100157032D01*
X130063359Y-99508697D01*
X130060100Y-99474308D01*
X130057217Y-99460499D01*
X130053117Y-99440856D01*
X130050500Y-99415516D01*
X130050500Y-99375177D01*
X130041768Y-99331282D01*
X130041767Y-99331281D01*
X130041767Y-99331278D01*
X130008504Y-99281496D01*
X130008503Y-99281495D01*
X129958724Y-99248234D01*
X129958717Y-99248231D01*
X129914822Y-99239500D01*
X129914820Y-99239500D01*
X129875172Y-99239500D01*
X129840236Y-99234477D01*
X129827711Y-99230799D01*
X129827701Y-99230797D01*
X129783902Y-99224500D01*
X129783899Y-99224500D01*
X129481807Y-99224500D01*
X129414768Y-99204815D01*
X129369013Y-99152011D01*
X129359069Y-99082853D01*
X129362830Y-99065564D01*
X129371983Y-99034391D01*
X129379201Y-99009811D01*
X129385500Y-98966000D01*
X129385500Y-97704000D01*
X129381946Y-97670945D01*
X129370740Y-97619434D01*
X129348688Y-97575380D01*
X129336313Y-97550657D01*
X129291458Y-97498893D01*
X129290558Y-97497854D01*
X129285580Y-97492379D01*
X129285579Y-97492378D01*
X129285577Y-97492376D01*
X129216854Y-97450486D01*
X129216848Y-97450483D01*
X129149812Y-97430799D01*
X129149802Y-97430797D01*
X129106003Y-97424500D01*
X129106000Y-97424500D01*
X128705772Y-97424500D01*
X128638733Y-97404815D01*
X128618091Y-97388181D01*
X128121819Y-96891909D01*
X128088334Y-96830586D01*
X128085500Y-96804228D01*
X128085500Y-96099997D01*
X131745131Y-96099997D01*
X131745131Y-96100002D01*
X131762498Y-96209658D01*
X131812904Y-96308585D01*
X131812909Y-96308592D01*
X131891407Y-96387090D01*
X131891410Y-96387092D01*
X131891413Y-96387095D01*
X131926794Y-96405122D01*
X131977590Y-96453096D01*
X131994500Y-96515607D01*
X131994500Y-96779820D01*
X131994500Y-96779822D01*
X131994499Y-96779822D01*
X132003231Y-96823717D01*
X132003234Y-96823724D01*
X132036098Y-96872909D01*
X132036496Y-96873504D01*
X132086278Y-96906767D01*
X132086281Y-96906767D01*
X132086282Y-96906768D01*
X132130177Y-96915500D01*
X132130180Y-96915500D01*
X133209822Y-96915500D01*
X133253717Y-96906768D01*
X133253717Y-96906767D01*
X133253722Y-96906767D01*
X133303504Y-96873504D01*
X133336767Y-96823722D01*
X133337010Y-96822500D01*
X133345500Y-96779822D01*
X133345500Y-96300177D01*
X133336768Y-96256282D01*
X133336767Y-96256281D01*
X133336767Y-96256278D01*
X133312824Y-96220445D01*
X133291947Y-96153770D01*
X133310431Y-96086389D01*
X133362410Y-96039699D01*
X133396522Y-96029084D01*
X133469661Y-96017500D01*
X133568587Y-95967095D01*
X133647095Y-95888587D01*
X133697500Y-95789661D01*
X133697500Y-95789659D01*
X133697501Y-95789658D01*
X133714869Y-95680002D01*
X133714869Y-95679997D01*
X133697501Y-95570341D01*
X133666664Y-95509820D01*
X133647095Y-95471413D01*
X133647092Y-95471410D01*
X133647090Y-95471407D01*
X133568592Y-95392909D01*
X133568588Y-95392906D01*
X133568587Y-95392905D01*
X133469661Y-95342500D01*
X133469659Y-95342499D01*
X133469658Y-95342499D01*
X133450100Y-95339401D01*
X133386966Y-95309471D01*
X133350036Y-95250158D01*
X133345500Y-95216928D01*
X133345500Y-95030177D01*
X133336768Y-94986282D01*
X133336767Y-94986281D01*
X133336767Y-94986278D01*
X133303504Y-94936496D01*
X133298130Y-94932905D01*
X133253724Y-94903234D01*
X133253717Y-94903231D01*
X133209822Y-94894500D01*
X133209820Y-94894500D01*
X132130180Y-94894500D01*
X132130178Y-94894500D01*
X132086282Y-94903231D01*
X132086275Y-94903234D01*
X132036496Y-94936495D01*
X132036495Y-94936496D01*
X132003234Y-94986275D01*
X132003231Y-94986282D01*
X131994500Y-95030177D01*
X131994500Y-95030180D01*
X131994500Y-95509820D01*
X131994500Y-95509822D01*
X131994499Y-95509822D01*
X132003231Y-95553717D01*
X132003232Y-95553720D01*
X132003232Y-95553721D01*
X132003233Y-95553722D01*
X132026503Y-95588548D01*
X132047380Y-95655226D01*
X132028895Y-95722606D01*
X131979696Y-95767922D01*
X131891414Y-95812904D01*
X131891407Y-95812909D01*
X131812909Y-95891407D01*
X131812904Y-95891414D01*
X131762498Y-95990341D01*
X131745131Y-96099997D01*
X128085500Y-96099997D01*
X128085500Y-94734008D01*
X128085499Y-94733991D01*
X128083958Y-94719661D01*
X128081946Y-94700945D01*
X128070740Y-94649434D01*
X128050985Y-94609968D01*
X128036313Y-94580657D01*
X127996613Y-94534842D01*
X127990558Y-94527854D01*
X127985580Y-94522379D01*
X127985579Y-94522378D01*
X127985577Y-94522376D01*
X127916854Y-94480486D01*
X127916848Y-94480483D01*
X127849812Y-94460799D01*
X127849802Y-94460797D01*
X127806003Y-94454500D01*
X127806000Y-94454500D01*
X127751608Y-94454500D01*
X127684569Y-94434815D01*
X127638814Y-94382011D01*
X127628870Y-94312853D01*
X127636519Y-94284970D01*
X127645500Y-94239822D01*
X131994499Y-94239822D01*
X132003231Y-94283717D01*
X132003234Y-94283724D01*
X132029534Y-94323085D01*
X132036496Y-94333504D01*
X132086278Y-94366767D01*
X132086281Y-94366767D01*
X132086282Y-94366768D01*
X132130177Y-94375500D01*
X132130180Y-94375500D01*
X133209821Y-94375500D01*
X133253395Y-94366832D01*
X133280239Y-94366305D01*
X133280239Y-94364869D01*
X133290002Y-94364869D01*
X133399658Y-94347501D01*
X133399659Y-94347500D01*
X133399661Y-94347500D01*
X133498587Y-94297095D01*
X133577095Y-94218587D01*
X133627500Y-94119661D01*
X133627500Y-94119659D01*
X133627501Y-94119658D01*
X133644869Y-94010002D01*
X133644869Y-94009997D01*
X133627501Y-93900341D01*
X133605310Y-93856788D01*
X133577095Y-93801413D01*
X133577092Y-93801410D01*
X133577090Y-93801407D01*
X133498592Y-93722909D01*
X133498588Y-93722906D01*
X133498587Y-93722905D01*
X133485575Y-93716275D01*
X133399658Y-93672498D01*
X133312276Y-93658658D01*
X133262788Y-93639290D01*
X133253723Y-93633233D01*
X133253718Y-93633231D01*
X133209822Y-93624500D01*
X133209820Y-93624500D01*
X132130180Y-93624500D01*
X132130178Y-93624500D01*
X132086282Y-93633231D01*
X132086275Y-93633234D01*
X132036496Y-93666495D01*
X132036495Y-93666496D01*
X132003234Y-93716275D01*
X132003231Y-93716282D01*
X131994500Y-93760177D01*
X131994500Y-93760180D01*
X131994500Y-94239820D01*
X131994500Y-94239822D01*
X131994499Y-94239822D01*
X127645500Y-94239822D01*
X127645500Y-93760177D01*
X127634385Y-93704300D01*
X127638134Y-93703554D01*
X127632985Y-93655741D01*
X127664249Y-93593256D01*
X127698718Y-93567255D01*
X127757783Y-93537161D01*
X127836291Y-93458653D01*
X127886696Y-93359727D01*
X127886696Y-93359725D01*
X127886697Y-93359724D01*
X127904065Y-93250068D01*
X127904065Y-93250063D01*
X127886697Y-93140407D01*
X127868911Y-93105500D01*
X127836291Y-93041479D01*
X127836288Y-93041476D01*
X127836286Y-93041473D01*
X127757788Y-92962975D01*
X127757785Y-92962973D01*
X127757783Y-92962971D01*
X127713203Y-92940256D01*
X127662409Y-92892283D01*
X127645500Y-92829773D01*
X127645500Y-92490177D01*
X127636768Y-92446282D01*
X127636767Y-92446281D01*
X127636767Y-92446278D01*
X127615832Y-92414946D01*
X127603505Y-92396497D01*
X127603504Y-92396496D01*
X127553722Y-92363233D01*
X127553720Y-92363232D01*
X127548921Y-92360026D01*
X127504115Y-92306414D01*
X127495408Y-92237089D01*
X127498835Y-92221986D01*
X127499516Y-92219668D01*
X127519201Y-92152629D01*
X127525500Y-92108818D01*
X127525500Y-91294500D01*
X127545185Y-91227461D01*
X127597989Y-91181706D01*
X127649500Y-91170500D01*
X133352164Y-91170500D01*
X133419203Y-91190185D01*
G37*
%TD.AperFunction*%
%TA.AperFunction,Conductor*%
G36*
X144425685Y-102010397D02*
G01*
X144446327Y-102027031D01*
X144840385Y-102421089D01*
X144873870Y-102482412D01*
X144868886Y-102552104D01*
X144827014Y-102608037D01*
X144791409Y-102623916D01*
X144791852Y-102624984D01*
X144780568Y-102629657D01*
X144743348Y-102654526D01*
X144159694Y-103238181D01*
X144098371Y-103271666D01*
X144072013Y-103274500D01*
X142024767Y-103274500D01*
X141957728Y-103254815D01*
X141937086Y-103238181D01*
X141744319Y-103045414D01*
X141710834Y-102984091D01*
X141708000Y-102957733D01*
X141708000Y-102579500D01*
X141727685Y-102512461D01*
X141780489Y-102466706D01*
X141832000Y-102455500D01*
X142515981Y-102455500D01*
X142515982Y-102455499D01*
X142536877Y-102451343D01*
X142578106Y-102443143D01*
X142578106Y-102443142D01*
X142578109Y-102443142D01*
X142603170Y-102426396D01*
X142669846Y-102405520D01*
X142672059Y-102405500D01*
X143445207Y-102405500D01*
X143445215Y-102405501D01*
X143459649Y-102405501D01*
X143549357Y-102405501D01*
X143549359Y-102405501D01*
X143607964Y-102381225D01*
X143632240Y-102371170D01*
X143695674Y-102307736D01*
X143695674Y-102307735D01*
X143713110Y-102290299D01*
X143713111Y-102290296D01*
X143976379Y-102027028D01*
X144037701Y-101993546D01*
X144064059Y-101990712D01*
X144358646Y-101990712D01*
X144425685Y-102010397D01*
G37*
%TD.AperFunction*%
%TA.AperFunction,Conductor*%
G36*
X133165373Y-98540980D02*
G01*
X133188545Y-98548448D01*
X133198274Y-98551585D01*
X133226094Y-98557453D01*
X133287625Y-98590549D01*
X133321497Y-98651659D01*
X133324500Y-98678783D01*
X133324500Y-98748638D01*
X133325390Y-98765245D01*
X133325394Y-98765297D01*
X133328224Y-98791619D01*
X133328225Y-98791621D01*
X133346354Y-98849516D01*
X133346358Y-98849526D01*
X133379836Y-98910836D01*
X133379841Y-98910844D01*
X133406357Y-98946266D01*
X133406373Y-98946284D01*
X133600138Y-99140048D01*
X133625891Y-99177642D01*
X133629883Y-99186683D01*
X133635384Y-99199141D01*
X133635386Y-99199143D01*
X133660026Y-99223783D01*
X133693511Y-99285106D01*
X133688527Y-99354798D01*
X133660026Y-99399145D01*
X133576187Y-99482983D01*
X133532318Y-99582335D01*
X133532318Y-99582337D01*
X133529500Y-99606625D01*
X133529500Y-100033365D01*
X133529501Y-100033373D01*
X133533393Y-100066931D01*
X133532466Y-100067038D01*
X133534500Y-100082251D01*
X133534500Y-100478590D01*
X133523935Y-100528675D01*
X133522318Y-100532335D01*
X133522318Y-100532337D01*
X133519500Y-100556625D01*
X133519500Y-100983365D01*
X133519502Y-100983388D01*
X133522317Y-101007659D01*
X133522317Y-101007662D01*
X133554441Y-101080414D01*
X133563513Y-101149692D01*
X133533690Y-101212877D01*
X133474440Y-101249908D01*
X133441007Y-101254500D01*
X132912982Y-101254500D01*
X132869418Y-101244041D01*
X132868940Y-101245515D01*
X132859658Y-101242498D01*
X132750002Y-101225131D01*
X132749998Y-101225131D01*
X132640340Y-101242499D01*
X132640339Y-101242499D01*
X132576848Y-101274849D01*
X132508179Y-101287745D01*
X132443439Y-101261468D01*
X132432874Y-101252045D01*
X132377016Y-101196187D01*
X132277663Y-101152318D01*
X132253374Y-101149500D01*
X132123838Y-101149500D01*
X132056799Y-101129815D01*
X132011044Y-101077011D01*
X132001100Y-101007853D01*
X132030125Y-100944297D01*
X132054944Y-100922399D01*
X132135908Y-100868302D01*
X132268302Y-100735908D01*
X132372322Y-100580231D01*
X132443973Y-100407251D01*
X132480500Y-100223616D01*
X132480500Y-100036384D01*
X132443973Y-99852749D01*
X132372322Y-99679769D01*
X132372321Y-99679768D01*
X132372318Y-99679762D01*
X132268302Y-99524092D01*
X132268299Y-99524088D01*
X132210767Y-99466556D01*
X132177282Y-99405233D01*
X132182266Y-99335541D01*
X132224138Y-99279608D01*
X132285195Y-99255585D01*
X132285986Y-99255500D01*
X132286000Y-99255500D01*
X132319055Y-99251946D01*
X132335659Y-99248334D01*
X132362018Y-99245500D01*
X132419822Y-99245500D01*
X132463717Y-99236768D01*
X132463717Y-99236767D01*
X132463722Y-99236767D01*
X132513504Y-99203504D01*
X132546767Y-99153722D01*
X132555500Y-99109820D01*
X132555500Y-99050156D01*
X132558335Y-99023792D01*
X132559202Y-99019806D01*
X132561285Y-99005315D01*
X132565500Y-98976000D01*
X132565500Y-98795770D01*
X132585185Y-98728731D01*
X132601815Y-98708093D01*
X132726261Y-98583646D01*
X132778898Y-98553328D01*
X132778656Y-98552575D01*
X132781736Y-98551582D01*
X132812441Y-98541684D01*
X132812448Y-98541680D01*
X132814619Y-98540981D01*
X132852667Y-98535000D01*
X133127331Y-98535000D01*
X133165373Y-98540980D01*
G37*
%TD.AperFunction*%
%TD*%
M02*
