%TF.GenerationSoftware,KiCad,Pcbnew,8.0.5*%
%TF.CreationDate,2024-12-17T02:27:59+01:00*%
%TF.ProjectId,hardware v5,68617264-7761-4726-9520-76352e6b6963,rev?*%
%TF.SameCoordinates,Original*%
%TF.FileFunction,Paste,Top*%
%TF.FilePolarity,Positive*%
%FSLAX46Y46*%
G04 Gerber Fmt 4.6, Leading zero omitted, Abs format (unit mm)*
G04 Created by KiCad (PCBNEW 8.0.5) date 2024-12-17 02:27:59*
%MOMM*%
%LPD*%
G01*
G04 APERTURE LIST*
G04 Aperture macros list*
%AMRoundRect*
0 Rectangle with rounded corners*
0 $1 Rounding radius*
0 $2 $3 $4 $5 $6 $7 $8 $9 X,Y pos of 4 corners*
0 Add a 4 corners polygon primitive as box body*
4,1,4,$2,$3,$4,$5,$6,$7,$8,$9,$2,$3,0*
0 Add four circle primitives for the rounded corners*
1,1,$1+$1,$2,$3*
1,1,$1+$1,$4,$5*
1,1,$1+$1,$6,$7*
1,1,$1+$1,$8,$9*
0 Add four rect primitives between the rounded corners*
20,1,$1+$1,$2,$3,$4,$5,0*
20,1,$1+$1,$4,$5,$6,$7,0*
20,1,$1+$1,$6,$7,$8,$9,0*
20,1,$1+$1,$8,$9,$2,$3,0*%
%AMRotRect*
0 Rectangle, with rotation*
0 The origin of the aperture is its center*
0 $1 length*
0 $2 width*
0 $3 Rotation angle, in degrees counterclockwise*
0 Add horizontal line*
21,1,$1,$2,0,0,$3*%
%AMOutline4P*
0 Free polygon, 4 corners , with rotation*
0 The origin of the aperture is its center*
0 number of corners: always 4*
0 $1 to $8 corner X, Y*
0 $9 Rotation angle, in degrees counterclockwise*
0 create outline with 4 corners*
4,1,4,$1,$2,$3,$4,$5,$6,$7,$8,$1,$2,$9*%
%AMOutline5P*
0 Free polygon, 5 corners , with rotation*
0 The origin of the aperture is its center*
0 number of corners: always 5*
0 $1 to $10 corner X, Y*
0 $11 Rotation angle, in degrees counterclockwise*
0 create outline with 5 corners*
4,1,5,$1,$2,$3,$4,$5,$6,$7,$8,$9,$10,$1,$2,$11*%
%AMOutline6P*
0 Free polygon, 6 corners , with rotation*
0 The origin of the aperture is its center*
0 number of corners: always 6*
0 $1 to $12 corner X, Y*
0 $13 Rotation angle, in degrees counterclockwise*
0 create outline with 6 corners*
4,1,6,$1,$2,$3,$4,$5,$6,$7,$8,$9,$10,$11,$12,$1,$2,$13*%
%AMOutline7P*
0 Free polygon, 7 corners , with rotation*
0 The origin of the aperture is its center*
0 number of corners: always 7*
0 $1 to $14 corner X, Y*
0 $15 Rotation angle, in degrees counterclockwise*
0 create outline with 7 corners*
4,1,7,$1,$2,$3,$4,$5,$6,$7,$8,$9,$10,$11,$12,$13,$14,$1,$2,$15*%
%AMOutline8P*
0 Free polygon, 8 corners , with rotation*
0 The origin of the aperture is its center*
0 number of corners: always 8*
0 $1 to $16 corner X, Y*
0 $17 Rotation angle, in degrees counterclockwise*
0 create outline with 8 corners*
4,1,8,$1,$2,$3,$4,$5,$6,$7,$8,$9,$10,$11,$12,$13,$14,$15,$16,$1,$2,$17*%
G04 Aperture macros list end*
%ADD10RoundRect,0.135000X0.185000X-0.135000X0.185000X0.135000X-0.185000X0.135000X-0.185000X-0.135000X0*%
%ADD11RoundRect,0.140000X-0.170000X0.140000X-0.170000X-0.140000X0.170000X-0.140000X0.170000X0.140000X0*%
%ADD12RoundRect,0.135000X-0.135000X-0.185000X0.135000X-0.185000X0.135000X0.185000X-0.135000X0.185000X0*%
%ADD13RoundRect,0.140000X0.140000X0.170000X-0.140000X0.170000X-0.140000X-0.170000X0.140000X-0.170000X0*%
%ADD14R,0.800000X1.600000*%
%ADD15R,0.275000X0.700000*%
%ADD16R,0.450000X0.245000*%
%ADD17RotRect,0.775000X0.875000X315.000000*%
%ADD18RoundRect,0.135000X0.135000X0.185000X-0.135000X0.185000X-0.135000X-0.185000X0.135000X-0.185000X0*%
%ADD19RoundRect,0.160000X0.222500X0.160000X-0.222500X0.160000X-0.222500X-0.160000X0.222500X-0.160000X0*%
%ADD20R,0.799999X0.250000*%
%ADD21R,0.610000X1.420000*%
%ADD22RoundRect,0.140000X-0.140000X-0.170000X0.140000X-0.170000X0.140000X0.170000X-0.140000X0.170000X0*%
%ADD23RoundRect,0.250000X-0.315000X-0.315000X0.315000X-0.315000X0.315000X0.315000X-0.315000X0.315000X0*%
%ADD24RoundRect,0.062500X-0.375000X-0.062500X0.375000X-0.062500X0.375000X0.062500X-0.375000X0.062500X0*%
%ADD25RoundRect,0.062500X-0.062500X-0.375000X0.062500X-0.375000X0.062500X0.375000X-0.062500X0.375000X0*%
%ADD26R,0.300000X0.300000*%
%ADD27RoundRect,0.150000X-0.512500X-0.150000X0.512500X-0.150000X0.512500X0.150000X-0.512500X0.150000X0*%
%ADD28Outline5P,-0.650000X0.750000X0.650000X0.750000X0.650000X-0.750000X0.000000X-0.750000X-0.650000X-0.100000X270.000000*%
%ADD29R,1.100000X3.600000*%
%ADD30R,0.300000X0.850000*%
%ADD31R,2.500000X1.700000*%
%ADD32R,0.750000X1.800000*%
%ADD33R,0.600000X1.800000*%
%ADD34R,1.300000X0.900000*%
%ADD35RoundRect,0.135000X-0.185000X0.135000X-0.185000X-0.135000X0.185000X-0.135000X0.185000X0.135000X0*%
%ADD36RoundRect,0.218750X-0.218750X-0.381250X0.218750X-0.381250X0.218750X0.381250X-0.218750X0.381250X0*%
%ADD37RoundRect,0.140000X0.170000X-0.140000X0.170000X0.140000X-0.170000X0.140000X-0.170000X-0.140000X0*%
%ADD38R,0.700000X1.600000*%
%ADD39R,0.700000X1.500000*%
%ADD40R,1.000000X0.800000*%
%ADD41R,0.450000X1.050000*%
%ADD42R,4.350000X3.450000*%
%ADD43RoundRect,0.147500X-0.172500X0.147500X-0.172500X-0.147500X0.172500X-0.147500X0.172500X0.147500X0*%
%ADD44R,0.650000X0.600000*%
%ADD45R,0.350000X0.700000*%
%ADD46R,0.500000X0.350000*%
%ADD47R,0.340000X0.330000*%
%ADD48Outline4P,-0.450000X-0.220000X0.450000X-0.220000X0.450000X0.220000X-0.450000X0.220000X90.000000*%
G04 APERTURE END LIST*
D10*
%TO.C,R22*%
X126190000Y-94120000D03*
X126190000Y-93100000D03*
%TD*%
D11*
%TO.C,C18*%
X125590000Y-102130000D03*
X125590000Y-103090000D03*
%TD*%
D12*
%TO.C,R4*%
X132430000Y-109520000D03*
X133450000Y-109520000D03*
%TD*%
D13*
%TO.C,C11*%
X126860000Y-104300000D03*
X125900000Y-104300000D03*
%TD*%
D11*
%TO.C,C21*%
X135760000Y-93840000D03*
X135760000Y-94800000D03*
%TD*%
D14*
%TO.C,ANT1*%
X147110000Y-108220000D03*
X150510000Y-108220000D03*
%TD*%
D15*
%TO.C,FL1*%
X143265000Y-108230000D03*
D16*
X143877000Y-108457000D03*
D15*
X144490000Y-108230000D03*
D16*
X143877000Y-108003000D03*
%TD*%
D17*
%TO.C,Y1*%
X145016066Y-101765212D03*
X144115212Y-102666066D03*
X144803934Y-103354788D03*
X145704788Y-102453934D03*
%TD*%
D18*
%TO.C,R17*%
X130160000Y-108230000D03*
X129140000Y-108230000D03*
%TD*%
D19*
%TO.C,L2*%
X145852500Y-99040000D03*
X144707500Y-99040000D03*
%TD*%
D20*
%TO.C,U2*%
X130500000Y-105710000D03*
X130500000Y-106209999D03*
X130500000Y-106709998D03*
X132400002Y-106709998D03*
X132400002Y-106209999D03*
X132400002Y-105710000D03*
D21*
X131450001Y-106209999D03*
%TD*%
D22*
%TO.C,C3*%
X131540000Y-107980000D03*
X132500000Y-107980000D03*
%TD*%
D23*
%TO.C,U1*%
X136582500Y-97330000D03*
X136582500Y-98730000D03*
X136582500Y-100130000D03*
X136582500Y-101530000D03*
X137982500Y-97330000D03*
X137982500Y-98730000D03*
X137982500Y-100130000D03*
X137982500Y-101530000D03*
X139382500Y-97330000D03*
X139382500Y-98730000D03*
X139382500Y-100130000D03*
X139382500Y-101530000D03*
X140782500Y-97330000D03*
X140782500Y-98730000D03*
X140782500Y-100130000D03*
X140782500Y-101530000D03*
D24*
X135245000Y-96680000D03*
X135245000Y-97180000D03*
X135245000Y-97680000D03*
X135245000Y-98180000D03*
X135245000Y-98680000D03*
X135245000Y-99180000D03*
X135245000Y-99680000D03*
X135245000Y-100180000D03*
X135245000Y-100680000D03*
X135245000Y-101180000D03*
X135245000Y-101680000D03*
X135245000Y-102180000D03*
D25*
X135932500Y-102867500D03*
X136432500Y-102867500D03*
X136932500Y-102867500D03*
X137432500Y-102867500D03*
X137932500Y-102867500D03*
X138432500Y-102867500D03*
X138932500Y-102867500D03*
X139432500Y-102867500D03*
X139932500Y-102867500D03*
X140432500Y-102867500D03*
X140932500Y-102867500D03*
X141432500Y-102867500D03*
D24*
X142120000Y-102180000D03*
X142120000Y-101680000D03*
X142120000Y-101180000D03*
X142120000Y-100680000D03*
X142120000Y-100180000D03*
X142120000Y-99680000D03*
X142120000Y-99180000D03*
X142120000Y-98680000D03*
X142120000Y-98180000D03*
X142120000Y-97680000D03*
X142120000Y-97180000D03*
X142120000Y-96680000D03*
D25*
X141432500Y-95992500D03*
X140932500Y-95992500D03*
X140432500Y-95992500D03*
X139932500Y-95992500D03*
X139432500Y-95992500D03*
X138932500Y-95992500D03*
X138432500Y-95992500D03*
X137932500Y-95992500D03*
X137432500Y-95992500D03*
X136932500Y-95992500D03*
X136432500Y-95992500D03*
X135932500Y-95992500D03*
%TD*%
D26*
%TO.C,IC1*%
X139930000Y-106134000D03*
X139930000Y-105547000D03*
X139930000Y-104960000D03*
X139430000Y-106134000D03*
X139430000Y-105547000D03*
X139430000Y-104960000D03*
%TD*%
D27*
%TO.C,U4*%
X148320000Y-99410000D03*
X148320000Y-100360000D03*
X148320000Y-101310000D03*
X150595000Y-101310000D03*
X150595000Y-100360000D03*
X150595000Y-99410000D03*
%TD*%
D10*
%TO.C,R16*%
X124590000Y-103140000D03*
X124590000Y-102120000D03*
%TD*%
%TO.C,R8*%
X127060000Y-95990000D03*
X127060000Y-94970000D03*
%TD*%
D28*
%TO.C,BT1*%
X123760000Y-100810000D03*
D29*
X119970000Y-99660000D03*
%TD*%
D30*
%TO.C,IC3*%
X134590000Y-108150000D03*
X135540000Y-108150000D03*
X136490000Y-108150000D03*
X136490000Y-105250000D03*
X135540000Y-105250000D03*
X134590000Y-105250000D03*
D31*
X135540000Y-106700000D03*
%TD*%
D11*
%TO.C,C26*%
X134770000Y-93840000D03*
X134770000Y-94800000D03*
%TD*%
D18*
%TO.C,R12*%
X133890000Y-104050000D03*
X132870000Y-104050000D03*
%TD*%
D32*
%TO.C,S1*%
X124505000Y-93840000D03*
D33*
X123280000Y-93840000D03*
D32*
X122055000Y-93840000D03*
D34*
X125130000Y-91890000D03*
X121430000Y-91890000D03*
%TD*%
D35*
%TO.C,R9*%
X131610000Y-94710000D03*
X131610000Y-95730000D03*
%TD*%
D13*
%TO.C,C23*%
X142500000Y-104090000D03*
X141540000Y-104090000D03*
%TD*%
D36*
%TO.C,L1*%
X143617500Y-97700000D03*
X145742500Y-97700000D03*
%TD*%
D18*
%TO.C,R6*%
X128170000Y-106230000D03*
X127150000Y-106230000D03*
%TD*%
D35*
%TO.C,R10*%
X124480000Y-95380000D03*
X124480000Y-96400000D03*
%TD*%
D37*
%TO.C,C6*%
X132600000Y-95710000D03*
X132600000Y-94750000D03*
%TD*%
D10*
%TO.C,R7*%
X123490000Y-96410000D03*
X123490000Y-95390000D03*
%TD*%
D22*
%TO.C,C17*%
X132850000Y-99590000D03*
X133810000Y-99590000D03*
%TD*%
D35*
%TO.C,R15*%
X148780000Y-103460000D03*
X148780000Y-104480000D03*
%TD*%
D10*
%TO.C,R13*%
X136740000Y-94820000D03*
X136740000Y-93800000D03*
%TD*%
D37*
%TO.C,C8*%
X125230000Y-100390000D03*
X125230000Y-99430000D03*
%TD*%
D12*
%TO.C,R11*%
X132760000Y-103060000D03*
X133780000Y-103060000D03*
%TD*%
%TO.C,R3*%
X130960000Y-104380000D03*
X131980000Y-104380000D03*
%TD*%
D38*
%TO.C,SW1*%
X126080000Y-106685000D03*
D39*
X124580000Y-106685000D03*
X121580000Y-106685000D03*
D40*
X120180000Y-107470000D03*
X120180000Y-109400000D03*
X127480000Y-107470000D03*
X127480000Y-109400000D03*
%TD*%
D11*
%TO.C,C5*%
X137820000Y-105480000D03*
X137820000Y-106440000D03*
%TD*%
D41*
%TO.C,IC2*%
X130985000Y-97260000D03*
X129715000Y-97260000D03*
X128445000Y-97260000D03*
X127175000Y-97260000D03*
X127175000Y-102960000D03*
X128445000Y-102960000D03*
X129715000Y-102960000D03*
X130985000Y-102960000D03*
D42*
X129080000Y-100110000D03*
%TD*%
D43*
%TO.C,D1*%
X129210000Y-106335000D03*
X129210000Y-107305000D03*
%TD*%
D10*
%TO.C,R14*%
X148750000Y-97950000D03*
X148750000Y-96930000D03*
%TD*%
D22*
%TO.C,C15*%
X132670000Y-101510000D03*
X133630000Y-101510000D03*
%TD*%
D44*
%TO.C,S3*%
X120070000Y-102450000D03*
X123220000Y-102450000D03*
X120070000Y-104150000D03*
X123220000Y-104150000D03*
D45*
X119920000Y-103300000D03*
X123370000Y-103300000D03*
%TD*%
D37*
%TO.C,C14*%
X120830000Y-96080000D03*
X120830000Y-95120000D03*
%TD*%
D46*
%TO.C,Q1*%
X129330000Y-105405000D03*
X129330000Y-104755000D03*
D47*
X128250000Y-105080000D03*
D48*
X128640000Y-105080000D03*
%TD*%
D18*
%TO.C,R5*%
X131550000Y-109530000D03*
X130530000Y-109530000D03*
%TD*%
D13*
%TO.C,C4*%
X135340000Y-109500000D03*
X134380000Y-109500000D03*
%TD*%
D37*
%TO.C,C7*%
X125470000Y-96290000D03*
X125470000Y-95330000D03*
%TD*%
%TO.C,C1*%
X143700000Y-99990000D03*
X143700000Y-99030000D03*
%TD*%
D32*
%TO.C,S2*%
X130505000Y-93790000D03*
D33*
X129280000Y-93790000D03*
D32*
X128055000Y-93790000D03*
D34*
X131130000Y-91840000D03*
X127430000Y-91840000D03*
%TD*%
D18*
%TO.C,R18*%
X129590000Y-109510000D03*
X128570000Y-109510000D03*
%TD*%
D22*
%TO.C,C16*%
X132680000Y-100560000D03*
X133640000Y-100560000D03*
%TD*%
M02*
