%TF.GenerationSoftware,KiCad,Pcbnew,8.0.5*%
%TF.CreationDate,2024-12-17T02:27:59+01:00*%
%TF.ProjectId,hardware v5,68617264-7761-4726-9520-76352e6b6963,rev?*%
%TF.SameCoordinates,Original*%
%TF.FileFunction,Copper,L6,Bot*%
%TF.FilePolarity,Positive*%
%FSLAX46Y46*%
G04 Gerber Fmt 4.6, Leading zero omitted, Abs format (unit mm)*
G04 Created by KiCad (PCBNEW 8.0.5) date 2024-12-17 02:27:59*
%MOMM*%
%LPD*%
G01*
G04 APERTURE LIST*
G04 Aperture macros list*
%AMRoundRect*
0 Rectangle with rounded corners*
0 $1 Rounding radius*
0 $2 $3 $4 $5 $6 $7 $8 $9 X,Y pos of 4 corners*
0 Add a 4 corners polygon primitive as box body*
4,1,4,$2,$3,$4,$5,$6,$7,$8,$9,$2,$3,0*
0 Add four circle primitives for the rounded corners*
1,1,$1+$1,$2,$3*
1,1,$1+$1,$4,$5*
1,1,$1+$1,$6,$7*
1,1,$1+$1,$8,$9*
0 Add four rect primitives between the rounded corners*
20,1,$1+$1,$2,$3,$4,$5,0*
20,1,$1+$1,$4,$5,$6,$7,0*
20,1,$1+$1,$6,$7,$8,$9,0*
20,1,$1+$1,$8,$9,$2,$3,0*%
G04 Aperture macros list end*
%TA.AperFunction,SMDPad,CuDef*%
%ADD10R,1.800000X1.500000*%
%TD*%
%TA.AperFunction,SMDPad,CuDef*%
%ADD11R,1.500000X1.800000*%
%TD*%
%TA.AperFunction,SMDPad,CuDef*%
%ADD12RoundRect,0.135000X0.135000X0.185000X-0.135000X0.185000X-0.135000X-0.185000X0.135000X-0.185000X0*%
%TD*%
%TA.AperFunction,ComponentPad*%
%ADD13R,1.700000X1.700000*%
%TD*%
%TA.AperFunction,ComponentPad*%
%ADD14O,1.700000X1.700000*%
%TD*%
%TA.AperFunction,SMDPad,CuDef*%
%ADD15R,0.350000X0.500000*%
%TD*%
%TA.AperFunction,SMDPad,CuDef*%
%ADD16R,0.900000X0.440000*%
%TD*%
%TA.AperFunction,SMDPad,CuDef*%
%ADD17R,0.300000X0.340000*%
%TD*%
%TA.AperFunction,SMDPad,CuDef*%
%ADD18RoundRect,0.140000X-0.140000X-0.170000X0.140000X-0.170000X0.140000X0.170000X-0.140000X0.170000X0*%
%TD*%
%TA.AperFunction,SMDPad,CuDef*%
%ADD19RoundRect,0.150000X-0.425000X0.150000X-0.425000X-0.150000X0.425000X-0.150000X0.425000X0.150000X0*%
%TD*%
%TA.AperFunction,SMDPad,CuDef*%
%ADD20RoundRect,0.075000X-0.500000X0.075000X-0.500000X-0.075000X0.500000X-0.075000X0.500000X0.075000X0*%
%TD*%
%TA.AperFunction,ComponentPad*%
%ADD21O,1.800000X1.000000*%
%TD*%
%TA.AperFunction,ComponentPad*%
%ADD22O,2.100000X1.000000*%
%TD*%
%TA.AperFunction,SMDPad,CuDef*%
%ADD23RoundRect,0.140000X0.140000X0.170000X-0.140000X0.170000X-0.140000X-0.170000X0.140000X-0.170000X0*%
%TD*%
%TA.AperFunction,SMDPad,CuDef*%
%ADD24R,0.375000X0.350000*%
%TD*%
%TA.AperFunction,SMDPad,CuDef*%
%ADD25R,0.350000X0.375000*%
%TD*%
%TA.AperFunction,SMDPad,CuDef*%
%ADD26RoundRect,0.140000X-0.170000X0.140000X-0.170000X-0.140000X0.170000X-0.140000X0.170000X0.140000X0*%
%TD*%
%TA.AperFunction,SMDPad,CuDef*%
%ADD27RoundRect,0.135000X-0.135000X-0.185000X0.135000X-0.185000X0.135000X0.185000X-0.135000X0.185000X0*%
%TD*%
%TA.AperFunction,SMDPad,CuDef*%
%ADD28RoundRect,0.160000X-0.160000X0.222500X-0.160000X-0.222500X0.160000X-0.222500X0.160000X0.222500X0*%
%TD*%
%TA.AperFunction,SMDPad,CuDef*%
%ADD29R,0.600000X1.550000*%
%TD*%
%TA.AperFunction,SMDPad,CuDef*%
%ADD30R,1.200000X1.800000*%
%TD*%
%TA.AperFunction,SMDPad,CuDef*%
%ADD31RoundRect,0.135000X0.185000X-0.135000X0.185000X0.135000X-0.185000X0.135000X-0.185000X-0.135000X0*%
%TD*%
%TA.AperFunction,ViaPad*%
%ADD32C,0.400000*%
%TD*%
%TA.AperFunction,Conductor*%
%ADD33C,0.150000*%
%TD*%
%TA.AperFunction,Conductor*%
%ADD34C,0.500000*%
%TD*%
%TA.AperFunction,Conductor*%
%ADD35C,0.200000*%
%TD*%
%TA.AperFunction,Conductor*%
%ADD36C,0.300000*%
%TD*%
G04 APERTURE END LIST*
D10*
%TO.P,ANT2,1,GND_1*%
%TO.N,GNDGPS*%
X121500000Y-103670000D03*
%TO.P,ANT2,2,V_IO*%
%TO.N,+3.3V*%
X121500000Y-101770000D03*
%TO.P,ANT2,3,V_BCKP*%
%TO.N,Net-(ANT2-V_BCKP)*%
X121500000Y-99870000D03*
%TO.P,ANT2,4,GND_2*%
%TO.N,GNDGPS*%
X121500000Y-97970000D03*
%TO.P,ANT2,5,GND_3*%
X121500000Y-96070000D03*
D11*
%TO.P,ANT2,6,GND_4*%
X124300000Y-93270000D03*
%TO.P,ANT2,7,TIMEPULSE*%
%TO.N,Net-(ANT2-TIMEPULSE)*%
X126200000Y-93270000D03*
%TO.P,ANT2,8,SAFEBOOT_N*%
%TO.N,unconnected-(ANT2-SAFEBOOT_N-Pad8)*%
X128100000Y-93270000D03*
%TO.P,ANT2,9,SDA*%
%TO.N,unconnected-(ANT2-SDA-Pad9)*%
X130000000Y-93270000D03*
%TO.P,ANT2,10,GND_5*%
%TO.N,GNDGPS*%
X131900000Y-93270000D03*
D10*
%TO.P,ANT2,11,GND_6*%
X134700000Y-96070000D03*
%TO.P,ANT2,12,SCL*%
%TO.N,unconnected-(ANT2-SCL-Pad12)*%
X134700000Y-97970000D03*
%TO.P,ANT2,13,TXD*%
%TO.N,Net-(ANT2-TXD)*%
X134700000Y-99870000D03*
%TO.P,ANT2,14,RXD*%
%TO.N,Net-(ANT2-RXD)*%
X134700000Y-101770000D03*
%TO.P,ANT2,15,GND_7*%
%TO.N,GNDGPS*%
X134700000Y-103670000D03*
D11*
%TO.P,ANT2,16,GND_8*%
X131900000Y-106470000D03*
%TO.P,ANT2,17,VCC*%
%TO.N,+3.3V*%
X130000000Y-106470000D03*
%TO.P,ANT2,18,RESET_N*%
%TO.N,unconnected-(ANT2-RESET_N-Pad18)*%
X128100000Y-106470000D03*
%TO.P,ANT2,19,EXTINT*%
%TO.N,Net-(ANT2-EXTINT)*%
X126200000Y-106470000D03*
%TO.P,ANT2,20,GND_9*%
%TO.N,GNDGPS*%
X124300000Y-106470000D03*
%TD*%
D12*
%TO.P,R21,1*%
%TO.N,GPSEXTINT*%
X127420000Y-108360000D03*
%TO.P,R21,2*%
%TO.N,Net-(ANT2-EXTINT)*%
X126400000Y-108360000D03*
%TD*%
D13*
%TO.P,J3,1,Pin_1*%
%TO.N,GND*%
X148570000Y-92965000D03*
D14*
%TO.P,J3,2,Pin_2*%
%TO.N,+3.3V*%
X146030000Y-92965000D03*
%TO.P,J3,3,Pin_3*%
%TO.N,OLED_SCL*%
X143490000Y-92965000D03*
%TO.P,J3,4,Pin_4*%
%TO.N,OLED_SDA*%
X140950000Y-92965000D03*
%TD*%
D15*
%TO.P,D5,1,K1*%
%TO.N,COMPASSDA*%
X143155000Y-103960000D03*
%TO.P,D5,2,K2*%
%TO.N,COMPASSCL*%
X142505000Y-103960000D03*
D16*
%TO.P,D5,3,CC_1*%
%TO.N,GND*%
X142830000Y-103270000D03*
D17*
%TO.P,D5,4,CC_2*%
X142830000Y-102880000D03*
%TD*%
D18*
%TO.P,C19,1*%
%TO.N,GND*%
X138300000Y-101130000D03*
%TO.P,C19,2*%
%TO.N,+3.3V*%
X139260000Y-101130000D03*
%TD*%
D19*
%TO.P,J2,A1,GND*%
%TO.N,GND*%
X146485000Y-97470000D03*
%TO.P,J2,A4,VBUS*%
%TO.N,vusb*%
X146485000Y-98270000D03*
D20*
%TO.P,J2,A5,CC1*%
%TO.N,Net-(J2-CC1)*%
X146485000Y-99420000D03*
%TO.P,J2,A6,D+1*%
%TO.N,USBD+*%
X146485000Y-100420000D03*
%TO.P,J2,A7,D-1*%
%TO.N,USBD-*%
X146485000Y-100920000D03*
%TO.P,J2,A8,SBU1*%
%TO.N,unconnected-(J2-SBU1-PadA8)*%
X146485000Y-101920000D03*
D19*
%TO.P,J2,A9,VBUS*%
%TO.N,vusb*%
X146485000Y-103070000D03*
%TO.P,J2,A12,GND*%
%TO.N,GND*%
X146485000Y-103870000D03*
%TO.P,J2,B1,GND*%
X146485000Y-103870000D03*
%TO.P,J2,B4,VBUS*%
%TO.N,vusb*%
X146485000Y-103070000D03*
D20*
%TO.P,J2,B5,CC2*%
%TO.N,Net-(J2-CC2)*%
X146485000Y-102420000D03*
%TO.P,J2,B6,D+2*%
%TO.N,USBD+*%
X146485000Y-101420000D03*
%TO.P,J2,B7,D-2*%
%TO.N,USBD-*%
X146485000Y-99920000D03*
%TO.P,J2,B8,SBU2*%
%TO.N,unconnected-(J2-SBU2-PadB8)*%
X146485000Y-98920000D03*
D19*
%TO.P,J2,B9,VBUS*%
%TO.N,vusb*%
X146485000Y-98270000D03*
%TO.P,J2,B12,GND*%
%TO.N,GND*%
X146485000Y-97470000D03*
D21*
%TO.P,J2,S1,SHIELD*%
X151240000Y-96350000D03*
D22*
X147060000Y-96350000D03*
D21*
X151240000Y-104990000D03*
D22*
X147060000Y-104990000D03*
%TD*%
D23*
%TO.P,C12,1*%
%TO.N,GND*%
X140310000Y-102050000D03*
%TO.P,C12,2*%
%TO.N,+3.3V*%
X139350000Y-102050000D03*
%TD*%
%TO.P,C9,1*%
%TO.N,+3.3V*%
X128340000Y-109370000D03*
%TO.P,C9,2*%
%TO.N,GNDGPS*%
X127380000Y-109370000D03*
%TD*%
D24*
%TO.P,WSEN-PADS1,1,VDD_IO*%
%TO.N,+3.3V*%
X141038000Y-99793000D03*
%TO.P,WSEN-PADS1,2,SCL*%
%TO.N,COMPASSCL*%
X141038000Y-99293000D03*
D25*
%TO.P,WSEN-PADS1,3,RSVD*%
%TO.N,GND*%
X141250000Y-98830000D03*
%TO.P,WSEN-PADS1,4,SDA*%
%TO.N,COMPASSDA*%
X141750000Y-98830000D03*
%TO.P,WSEN-PADS1,5,SAO*%
%TO.N,+3.3V*%
X142250000Y-98830000D03*
D24*
%TO.P,WSEN-PADS1,6,CS*%
X142463000Y-99293000D03*
%TO.P,WSEN-PADS1,7,INT*%
%TO.N,unconnected-(WSEN-PADS1-INT-Pad7)*%
X142463000Y-99793000D03*
D25*
%TO.P,WSEN-PADS1,8,GND*%
%TO.N,GND*%
X142250000Y-100256000D03*
%TO.P,WSEN-PADS1,9,GND*%
X141750000Y-100256000D03*
%TO.P,WSEN-PADS1,10,VDD*%
%TO.N,+3.3V*%
X141250000Y-100256000D03*
%TD*%
D18*
%TO.P,C2,1*%
%TO.N,GND*%
X138930000Y-96010000D03*
%TO.P,C2,2*%
%TO.N,+3.3V*%
X139890000Y-96010000D03*
%TD*%
%TO.P,C10,1*%
%TO.N,+3.3V*%
X129840000Y-109440000D03*
%TO.P,C10,2*%
%TO.N,GNDGPS*%
X130800000Y-109440000D03*
%TD*%
D26*
%TO.P,C24,1*%
%TO.N,GND*%
X144100000Y-95920000D03*
%TO.P,C24,2*%
%TO.N,+3.3V*%
X144100000Y-96880000D03*
%TD*%
D27*
%TO.P,R1,1*%
%TO.N,Net-(U1-PB0)*%
X149150000Y-95240000D03*
%TO.P,R1,2*%
%TO.N,Net-(D2-A)*%
X150170000Y-95240000D03*
%TD*%
%TO.P,R2,1*%
%TO.N,Net-(U1-PB1)*%
X145340000Y-95250000D03*
%TO.P,R2,2*%
%TO.N,Net-(D3-A)*%
X146360000Y-95250000D03*
%TD*%
D28*
%TO.P,D2,1,K*%
%TO.N,GND*%
X151820000Y-92117500D03*
%TO.P,D2,2,A*%
%TO.N,Net-(D2-A)*%
X151820000Y-93262500D03*
%TD*%
D26*
%TO.P,C22,1*%
%TO.N,GND*%
X143140000Y-95910000D03*
%TO.P,C22,2*%
%TO.N,+3.3V*%
X143140000Y-96870000D03*
%TD*%
D27*
%TO.P,R20,1*%
%TO.N,+3.3V*%
X140210000Y-97000000D03*
%TO.P,R20,2*%
%TO.N,COMPASSDA*%
X141230000Y-97000000D03*
%TD*%
D28*
%TO.P,D3,1,K*%
%TO.N,GND*%
X150850000Y-92107500D03*
%TO.P,D3,2,A*%
%TO.N,Net-(D3-A)*%
X150850000Y-93252500D03*
%TD*%
D29*
%TO.P,J1,1,1*%
%TO.N,+3.3V*%
X143910000Y-105173000D03*
%TO.P,J1,2,2*%
%TO.N,COMPASSDA*%
X142910000Y-105173000D03*
%TO.P,J1,3,3*%
%TO.N,COMPASSCL*%
X141910000Y-105173000D03*
%TO.P,J1,4,4*%
%TO.N,USART_RX*%
X140910000Y-105173000D03*
%TO.P,J1,5,5*%
%TO.N,USART_TX*%
X139910000Y-105173000D03*
%TO.P,J1,6,6*%
%TO.N,GND*%
X138910000Y-105173000D03*
D30*
%TO.P,J1,MP1,MP1*%
X144410000Y-109048000D03*
%TO.P,J1,MP2,MP2*%
X138410000Y-109048000D03*
%TD*%
D23*
%TO.P,C13,1*%
%TO.N,GND*%
X142790000Y-102030000D03*
%TO.P,C13,2*%
%TO.N,+3.3V*%
X141830000Y-102030000D03*
%TD*%
D18*
%TO.P,C20,1*%
%TO.N,GND*%
X138310000Y-100180000D03*
%TO.P,C20,2*%
%TO.N,+3.3V*%
X139270000Y-100180000D03*
%TD*%
D31*
%TO.P,R19,1*%
%TO.N,COMPASSCL*%
X139210000Y-98980000D03*
%TO.P,R19,2*%
%TO.N,+3.3V*%
X139210000Y-97960000D03*
%TD*%
D15*
%TO.P,D4,1,K1*%
%TO.N,USART_RX*%
X140615000Y-103950000D03*
%TO.P,D4,2,K2*%
%TO.N,USART_TX*%
X139965000Y-103950000D03*
D16*
%TO.P,D4,3,CC_1*%
%TO.N,GND*%
X140290000Y-103260000D03*
D17*
%TO.P,D4,4,CC_2*%
X140290000Y-102870000D03*
%TD*%
D18*
%TO.P,C25,1*%
%TO.N,GND*%
X138320000Y-102970000D03*
%TO.P,C25,2*%
%TO.N,+3.3V*%
X139280000Y-102970000D03*
%TD*%
D32*
%TO.N,GND*%
X126300000Y-96390000D03*
%TO.N,GPSTIMEPULSE*%
X126190000Y-94650000D03*
X133060000Y-96550000D03*
X137390000Y-94810000D03*
%TO.N,Net-(ANT2-TIMEPULSE)*%
X126250000Y-92590000D03*
%TO.N,GPSEXTINT*%
X128090000Y-108330000D03*
X136420000Y-103640000D03*
%TO.N,GNDGPS*%
X121700000Y-96080000D03*
X127750000Y-104900000D03*
X122120000Y-98000000D03*
X128110000Y-104570000D03*
X121530000Y-98000000D03*
%TO.N,GND*%
X121430000Y-91890000D03*
X120620000Y-104950000D03*
X150430000Y-98280000D03*
X149090000Y-105540000D03*
X122770000Y-97120000D03*
X136230000Y-100910000D03*
X138350000Y-96890000D03*
X143220000Y-106520000D03*
X149930000Y-103260000D03*
X145260000Y-106520000D03*
X121640000Y-105130000D03*
X138360000Y-93700000D03*
X136340000Y-97140000D03*
X151380000Y-106520000D03*
X131840000Y-101000000D03*
X120030000Y-106430000D03*
X147060000Y-94160000D03*
X137450000Y-101240000D03*
X119780000Y-105010000D03*
X120320000Y-91470000D03*
X136150000Y-101900000D03*
X139830000Y-93610000D03*
X119820000Y-105800000D03*
X122600000Y-94870000D03*
X143160000Y-101250000D03*
X142200000Y-106520000D03*
X130820000Y-100250000D03*
X138910000Y-106540000D03*
X134060000Y-106430000D03*
X140570000Y-101920000D03*
X143440000Y-102740000D03*
X119770000Y-97230000D03*
X139370000Y-96870000D03*
X125090000Y-101470000D03*
X137270000Y-97540000D03*
X149340000Y-106520000D03*
X126290000Y-91440000D03*
X133330000Y-95060000D03*
X122920000Y-103320000D03*
X141150000Y-100950000D03*
X138270000Y-106990000D03*
X133670000Y-104790000D03*
X132980000Y-104880000D03*
X145650000Y-96580000D03*
X120590000Y-105770000D03*
X151160000Y-103200000D03*
X125130000Y-91890000D03*
X137100000Y-107090000D03*
X148640000Y-91490000D03*
X138400000Y-99310000D03*
X141140000Y-101910000D03*
X119770000Y-95840000D03*
X142210000Y-92970000D03*
X144600000Y-104770000D03*
X144680000Y-91590000D03*
X147810000Y-106520000D03*
X130350000Y-96410000D03*
X150330000Y-102310000D03*
X139850000Y-94290000D03*
X138270000Y-109030000D03*
X122810000Y-107270000D03*
X140620000Y-94220000D03*
X147710000Y-98490000D03*
X148320000Y-106520000D03*
X148830000Y-106520000D03*
X129250000Y-101410000D03*
X127390000Y-100180000D03*
X142254834Y-95284834D03*
X142710000Y-106520000D03*
X125260000Y-98410000D03*
X147680000Y-102870000D03*
X146790000Y-106520000D03*
X149130000Y-102280000D03*
X131890000Y-105050000D03*
X134180000Y-93190000D03*
X150360000Y-106520000D03*
X133610000Y-108220000D03*
X133730000Y-107250000D03*
X140140000Y-98080000D03*
X123690000Y-104750000D03*
X138270000Y-107500000D03*
X143660000Y-103890000D03*
X151440000Y-97360000D03*
X124820000Y-104340000D03*
X149990000Y-93840000D03*
X126530000Y-97480000D03*
X143730000Y-106520000D03*
X119620000Y-103290000D03*
X120500000Y-93330000D03*
X144040000Y-100990000D03*
X147300000Y-106520000D03*
X150410000Y-97380000D03*
X151750000Y-103830000D03*
X127260000Y-101240000D03*
X127300000Y-98910000D03*
X151910000Y-91440000D03*
X149810000Y-104430000D03*
X138280000Y-98070000D03*
X130610000Y-105150000D03*
X138270000Y-108010000D03*
X126290000Y-105160000D03*
X147260000Y-91500000D03*
X131130000Y-91840000D03*
X140960000Y-106540000D03*
X149270000Y-96100000D03*
X123980000Y-102590000D03*
X151890000Y-106520000D03*
X133350000Y-93820000D03*
X148240000Y-94180000D03*
X123990000Y-91440000D03*
X141690000Y-106520000D03*
X151420000Y-98330000D03*
X151950000Y-94110000D03*
X125650000Y-94550000D03*
X144750000Y-106520000D03*
X131980000Y-97790000D03*
X121260000Y-109500000D03*
X133600000Y-94590000D03*
X139420000Y-91460000D03*
X135870000Y-91390000D03*
X141950000Y-91490000D03*
X138270000Y-108520000D03*
X119820000Y-94310000D03*
X137820000Y-101920000D03*
X119660000Y-92000000D03*
X148310000Y-101990000D03*
X137390000Y-109610000D03*
X129280000Y-91460000D03*
X149850000Y-106520000D03*
X142340000Y-102840000D03*
X129100000Y-98890000D03*
X144240000Y-106520000D03*
X121160000Y-94310000D03*
X127430000Y-91840000D03*
X120120000Y-108490000D03*
X138270000Y-109540000D03*
X122700000Y-92360000D03*
X149970000Y-96060000D03*
X130820000Y-101380000D03*
X122840000Y-106450000D03*
X150870000Y-106520000D03*
X151640000Y-102310000D03*
X141150000Y-98100000D03*
X137560000Y-91420000D03*
X146280000Y-106520000D03*
X119630000Y-101820000D03*
X123340000Y-108700000D03*
X145770000Y-106520000D03*
X122490000Y-91430000D03*
X135290000Y-93160000D03*
X136240000Y-98010000D03*
X131770000Y-99750000D03*
X149890000Y-91610000D03*
X132150000Y-91470000D03*
X124490000Y-97620000D03*
X125490000Y-97440000D03*
X134200000Y-91430000D03*
X150920000Y-94920000D03*
%TO.N,+3.3V*%
X135920000Y-95280000D03*
X137560000Y-104730000D03*
X137060000Y-104410000D03*
X130360000Y-102760000D03*
X133330000Y-100220000D03*
X122100000Y-101330000D03*
X135270000Y-94750000D03*
X136510000Y-104430000D03*
X142820000Y-97140000D03*
X143920000Y-104400000D03*
X134320000Y-94480000D03*
X136020000Y-104430000D03*
X127840000Y-95980000D03*
X137150000Y-105320000D03*
X122770000Y-95900000D03*
X141758656Y-103854826D03*
X143910000Y-104990000D03*
X129320000Y-104170000D03*
X142820000Y-97690000D03*
X138868083Y-103605000D03*
X120910000Y-101340000D03*
X128320000Y-96440000D03*
X133250000Y-100860831D03*
X130380000Y-103240000D03*
X139833442Y-95395000D03*
%TO.N,vusb*%
X131359997Y-108980000D03*
X131860000Y-108980000D03*
X121580000Y-107080000D03*
X145300000Y-105010000D03*
X121570000Y-106370000D03*
X151650000Y-100330000D03*
X144915000Y-105395000D03*
%TO.N,Net-(IC3-EN)*%
X135360000Y-108890000D03*
X136210000Y-108800000D03*
X135800000Y-108900000D03*
X123660000Y-107980000D03*
%TO.N,Net-(U1-NRST)*%
X133380000Y-91910000D03*
X132830000Y-98940000D03*
%TO.N,SPI_MOSi*%
X127780000Y-102220000D03*
X137557500Y-95295095D03*
%TO.N,SPI_MISO*%
X136990000Y-103680000D03*
X129715000Y-97260000D03*
%TO.N,SPI_CS*%
X130985000Y-97260000D03*
X137010000Y-94450000D03*
%TO.N,COMPASSDA*%
X132950000Y-97500000D03*
X142900000Y-104810000D03*
X141478477Y-94897064D03*
%TO.N,COMPASSCL*%
X133499998Y-98155000D03*
X141940251Y-104764958D03*
%TO.N,USART_RX*%
X140960000Y-103999240D03*
X142900000Y-95170000D03*
%TO.N,USART_TX*%
X138100000Y-103700000D03*
%TO.N,OLED_SCL*%
X137530000Y-103700000D03*
%TO.N,ALIMGPS*%
X133130000Y-102060000D03*
X127170000Y-105310000D03*
%TO.N,Net-(U1-PA4)*%
X129180000Y-108910000D03*
X135900002Y-103510000D03*
%TO.N,BAT+*%
X122450000Y-105110000D03*
X130200000Y-107700000D03*
X130720000Y-107700000D03*
X123220000Y-105680000D03*
X123210000Y-105110000D03*
X122490000Y-105660000D03*
%TO.N,SWDIO*%
X138930000Y-94610000D03*
X138400000Y-91940000D03*
%TO.N,SWCLK*%
X136720000Y-91930000D03*
X139230000Y-95280000D03*
%TO.N,SWO*%
X135040000Y-91900000D03*
X138307500Y-95190000D03*
%TO.N,D+*%
X150595000Y-101310000D03*
X140790000Y-95283906D03*
%TO.N,D-*%
X141558903Y-95390555D03*
X150595000Y-99410000D03*
%TO.N,Net-(U1-PB0)*%
X148384659Y-95447254D03*
X143120000Y-100410000D03*
%TO.N,Net-(U1-PB1)*%
X145070000Y-95950000D03*
X143050000Y-99810000D03*
%TO.N,Net-(ANT2-RXD)*%
X133214488Y-102810000D03*
%TO.N,Net-(ANT2-TXD)*%
X132190002Y-103188079D03*
%TO.N,Net-(ANT2-V_BCKP)*%
X123765000Y-100805000D03*
%TO.N,USBD-*%
X147270000Y-99830000D03*
%TO.N,Net-(J2-CC1)*%
X148750000Y-98240000D03*
%TO.N,USBD+*%
X147240000Y-101400000D03*
%TO.N,Net-(J2-CC2)*%
X148760000Y-103100000D03*
%TO.N,Net-(S3-COM_2)*%
X126090000Y-102840000D03*
X133499998Y-97560000D03*
%TD*%
D33*
%TO.N,Net-(ANT2-EXTINT)*%
X126360000Y-106630000D02*
X126360000Y-108320000D01*
X126360000Y-108320000D02*
X126400000Y-108360000D01*
X126200000Y-106470000D02*
X126360000Y-106630000D01*
%TO.N,GPSEXTINT*%
X128060000Y-108360000D02*
X128090000Y-108330000D01*
X127420000Y-108360000D02*
X128060000Y-108360000D01*
D34*
%TO.N,GNDGPS*%
X131900000Y-107490000D02*
X130800000Y-108590000D01*
X130800000Y-108590000D02*
X130800000Y-109440000D01*
X124640000Y-109370000D02*
X127380000Y-109370000D01*
X131900000Y-106470000D02*
X131900000Y-107490000D01*
X124300000Y-109030000D02*
X124640000Y-109370000D01*
X124300000Y-106470000D02*
X124300000Y-109030000D01*
X124450000Y-106320000D02*
X124300000Y-106470000D01*
%TO.N,+3.3V*%
X138868083Y-103430877D02*
X138868083Y-103605000D01*
X139280000Y-102970000D02*
X139280000Y-103018960D01*
D35*
X143920000Y-104980000D02*
X143910000Y-104990000D01*
D34*
X139280000Y-102970000D02*
X139280000Y-102120000D01*
X139280000Y-103018960D02*
X138868083Y-103430877D01*
D35*
X141250000Y-99993500D02*
X141250000Y-100256000D01*
X139890000Y-95451558D02*
X139890000Y-96010000D01*
X139890000Y-96010000D02*
X139890000Y-96680000D01*
X141758656Y-103854826D02*
X141830000Y-103783482D01*
D34*
X130000000Y-104850000D02*
X130000000Y-106470000D01*
D35*
X142463000Y-99293000D02*
X141950500Y-99293000D01*
D34*
X129320000Y-104170000D02*
X130000000Y-104850000D01*
D35*
X139300000Y-102100000D02*
X139350000Y-102050000D01*
X139833442Y-95395000D02*
X139890000Y-95451558D01*
X139210000Y-97960000D02*
X139250000Y-97960000D01*
X139890000Y-96680000D02*
X140210000Y-97000000D01*
X141830000Y-103783482D02*
X141830000Y-102030000D01*
X139250000Y-97960000D02*
X140210000Y-97000000D01*
X141950500Y-99293000D02*
X141250000Y-99993500D01*
X143920000Y-104400000D02*
X143920000Y-104980000D01*
D34*
X139280000Y-102120000D02*
X139350000Y-102050000D01*
%TO.N,vusb*%
X145280000Y-105030000D02*
X145300000Y-105030000D01*
X146490000Y-98270000D02*
X145915001Y-98270000D01*
X145300000Y-105010000D02*
X145300000Y-102408120D01*
X145900000Y-103070000D02*
X146490000Y-103070000D01*
X145300000Y-102408120D02*
X145296536Y-102404656D01*
X145296536Y-98888465D02*
X145296536Y-102404656D01*
X145296536Y-102404656D02*
X145296536Y-102466536D01*
X145300000Y-105010000D02*
X144915000Y-105395000D01*
X144915000Y-105395000D02*
X145280000Y-105030000D01*
X145915001Y-98270000D02*
X145296536Y-98888465D01*
X145296536Y-102466536D02*
X145900000Y-103070000D01*
D33*
%TO.N,COMPASSDA*%
X141165000Y-96935000D02*
X141230000Y-97000000D01*
X143155000Y-104555000D02*
X142900000Y-104810000D01*
X143155000Y-103960000D02*
X143155000Y-104555000D01*
X141478477Y-94924459D02*
X141165000Y-95237936D01*
X141750000Y-98830000D02*
X141750000Y-97520000D01*
X141750000Y-97520000D02*
X141230000Y-97000000D01*
X141165000Y-95237936D02*
X141165000Y-96935000D01*
X141478477Y-94897064D02*
X141478477Y-94924459D01*
%TO.N,COMPASSCL*%
X141038000Y-99293000D02*
X140725000Y-98980000D01*
X133499998Y-98155000D02*
X133499998Y-98769998D01*
X140725000Y-98980000D02*
X139210000Y-98980000D01*
X135935000Y-98805000D02*
X139035000Y-98805000D01*
X133625000Y-98895000D02*
X135845000Y-98895000D01*
X142505000Y-104200209D02*
X141940251Y-104764958D01*
X142505000Y-103960000D02*
X142505000Y-104200209D01*
X139035000Y-98805000D02*
X139210000Y-98980000D01*
X135845000Y-98895000D02*
X135935000Y-98805000D01*
X133499998Y-98769998D02*
X133625000Y-98895000D01*
%TO.N,USART_RX*%
X140910760Y-103950000D02*
X140615000Y-103950000D01*
X140960000Y-105123000D02*
X140910000Y-105173000D01*
X140960000Y-103999240D02*
X140960000Y-105123000D01*
X140960000Y-103999240D02*
X140910760Y-103950000D01*
%TO.N,USART_TX*%
X139342000Y-104130000D02*
X139910000Y-104698000D01*
X139965000Y-103950000D02*
X139965000Y-105118000D01*
X139910000Y-104698000D02*
X139910000Y-105173000D01*
X139965000Y-105118000D02*
X139910000Y-105173000D01*
X138100000Y-103700000D02*
X138530000Y-104130000D01*
X138530000Y-104130000D02*
X139342000Y-104130000D01*
%TO.N,Net-(D2-A)*%
X150170000Y-94912500D02*
X151820000Y-93262500D01*
X150170000Y-95240000D02*
X150170000Y-94912500D01*
%TO.N,Net-(D3-A)*%
X146935000Y-94675000D02*
X149955000Y-94675000D01*
X149955000Y-94675000D02*
X150850000Y-93780000D01*
X146360000Y-95250000D02*
X146935000Y-94675000D01*
X150850000Y-93252500D02*
X150850000Y-93575000D01*
X150850000Y-93780000D02*
X150850000Y-93252500D01*
%TO.N,Net-(U1-PB0)*%
X149150000Y-95240000D02*
X148591913Y-95240000D01*
X148591913Y-95240000D02*
X148384659Y-95447254D01*
%TO.N,Net-(U1-PB1)*%
X145340000Y-95680000D02*
X145070000Y-95950000D01*
X145340000Y-95250000D02*
X145340000Y-95680000D01*
%TO.N,Net-(ANT2-RXD)*%
X133660000Y-102810000D02*
X134700000Y-101770000D01*
X133214488Y-102810000D02*
X133660000Y-102810000D01*
%TO.N,Net-(ANT2-TXD)*%
X132755000Y-101904669D02*
X132974669Y-101685000D01*
X132974669Y-101685000D02*
X132985000Y-101685000D01*
X132190002Y-103188079D02*
X132190002Y-102989998D01*
X133625000Y-100945000D02*
X134700000Y-99870000D01*
X132190002Y-102989998D02*
X132755000Y-102425000D01*
X133625000Y-101045000D02*
X133625000Y-100945000D01*
X132985000Y-101685000D02*
X133625000Y-101045000D01*
X132755000Y-102425000D02*
X132755000Y-101904669D01*
D36*
%TO.N,Net-(ANT2-V_BCKP)*%
X122100000Y-100470000D02*
X123430000Y-100470000D01*
X121500000Y-99870000D02*
X122100000Y-100470000D01*
X123430000Y-100470000D02*
X123765000Y-100805000D01*
D33*
%TO.N,USBD-*%
X147180000Y-99920000D02*
X145915001Y-99920000D01*
X147270000Y-99830000D02*
X147180000Y-99920000D01*
X145730000Y-100105001D02*
X145730000Y-100840000D01*
X145810000Y-100920000D02*
X146490000Y-100920000D01*
X145915001Y-99920000D02*
X145730000Y-100105001D01*
X145730000Y-100840000D02*
X145810000Y-100920000D01*
%TO.N,Net-(J2-CC1)*%
X147390000Y-99420000D02*
X146490000Y-99420000D01*
X148570000Y-98240000D02*
X147390000Y-99420000D01*
X148750000Y-98240000D02*
X148570000Y-98240000D01*
%TO.N,USBD+*%
X146490000Y-100420000D02*
X147064999Y-100420000D01*
X147240000Y-101400000D02*
X147220000Y-101420000D01*
X147064999Y-100420000D02*
X147240000Y-100595001D01*
X147220000Y-101420000D02*
X146490000Y-101420000D01*
X147240000Y-100595001D02*
X147240000Y-101400000D01*
%TO.N,Net-(J2-CC2)*%
X148760000Y-103100000D02*
X148080000Y-102420000D01*
X148080000Y-102420000D02*
X146490000Y-102420000D01*
%TD*%
%TA.AperFunction,Conductor*%
%TO.N,GND*%
G36*
X152232539Y-91180185D02*
G01*
X152278294Y-91232989D01*
X152289500Y-91284500D01*
X152289500Y-92646936D01*
X152269815Y-92713975D01*
X152217011Y-92759730D01*
X152147853Y-92769674D01*
X152115414Y-92760370D01*
X152052324Y-92732513D01*
X152052321Y-92732512D01*
X152026357Y-92729500D01*
X151613651Y-92729500D01*
X151613627Y-92729502D01*
X151587685Y-92732510D01*
X151587675Y-92732513D01*
X151481486Y-92779400D01*
X151481485Y-92779401D01*
X151427681Y-92833206D01*
X151366358Y-92866691D01*
X151296666Y-92861707D01*
X151252319Y-92833206D01*
X151188514Y-92769401D01*
X151082321Y-92722512D01*
X151056357Y-92719500D01*
X150643651Y-92719500D01*
X150643627Y-92719502D01*
X150617685Y-92722510D01*
X150617675Y-92722513D01*
X150511486Y-92769400D01*
X150429401Y-92851485D01*
X150382512Y-92957678D01*
X150379500Y-92983639D01*
X150379500Y-93521348D01*
X150379502Y-93521372D01*
X150382510Y-93547314D01*
X150382513Y-93547324D01*
X150429400Y-93653513D01*
X150455809Y-93679922D01*
X150489294Y-93741245D01*
X150484310Y-93810937D01*
X150455809Y-93855284D01*
X149897914Y-94413181D01*
X149836591Y-94446666D01*
X149810233Y-94449500D01*
X146994297Y-94449500D01*
X146994289Y-94449499D01*
X146979855Y-94449499D01*
X146890146Y-94449499D01*
X146890143Y-94449499D01*
X146866603Y-94459251D01*
X146866601Y-94459252D01*
X146852065Y-94465273D01*
X146807264Y-94483829D01*
X146743829Y-94547265D01*
X146547912Y-94743181D01*
X146486589Y-94776666D01*
X146460231Y-94779500D01*
X146182384Y-94779500D01*
X146182361Y-94779502D01*
X146158504Y-94782269D01*
X146158501Y-94782269D01*
X146060864Y-94825380D01*
X146060856Y-94825386D01*
X145985386Y-94900856D01*
X145985380Y-94900866D01*
X145963432Y-94950571D01*
X145918345Y-95003947D01*
X145851559Y-95024473D01*
X145784277Y-95005634D01*
X145737862Y-94953409D01*
X145736590Y-94950624D01*
X145714616Y-94900859D01*
X145639141Y-94825384D01*
X145639138Y-94825383D01*
X145639136Y-94825381D01*
X145541500Y-94782270D01*
X145541501Y-94782270D01*
X145517623Y-94779500D01*
X145162384Y-94779500D01*
X145162361Y-94779502D01*
X145138504Y-94782269D01*
X145138501Y-94782269D01*
X145040864Y-94825380D01*
X145040856Y-94825386D01*
X144965386Y-94900856D01*
X144965381Y-94900863D01*
X144922270Y-94998499D01*
X144919500Y-95022375D01*
X144919500Y-95477615D01*
X144919502Y-95477638D01*
X144922269Y-95501495D01*
X144924718Y-95510496D01*
X144923233Y-95510899D01*
X144930959Y-95569915D01*
X144901135Y-95633099D01*
X144864755Y-95661201D01*
X144861419Y-95662900D01*
X144861407Y-95662909D01*
X144782909Y-95741407D01*
X144782904Y-95741414D01*
X144732498Y-95840341D01*
X144715131Y-95949997D01*
X144715131Y-95950002D01*
X144732498Y-96059658D01*
X144782904Y-96158585D01*
X144782909Y-96158592D01*
X144861407Y-96237090D01*
X144861410Y-96237092D01*
X144861413Y-96237095D01*
X144960339Y-96287500D01*
X144960341Y-96287501D01*
X145069998Y-96304869D01*
X145070000Y-96304869D01*
X145070002Y-96304869D01*
X145179658Y-96287501D01*
X145179659Y-96287500D01*
X145179661Y-96287500D01*
X145278587Y-96237095D01*
X145357095Y-96158587D01*
X145407500Y-96059661D01*
X145413872Y-96019434D01*
X145425334Y-95947063D01*
X145455263Y-95883928D01*
X145460126Y-95878778D01*
X145467734Y-95871170D01*
X145467736Y-95871170D01*
X145531170Y-95807736D01*
X145555467Y-95749074D01*
X145599306Y-95694672D01*
X145619937Y-95683095D01*
X145639141Y-95674616D01*
X145714616Y-95599141D01*
X145736566Y-95549430D01*
X145781651Y-95496054D01*
X145848438Y-95475526D01*
X145915720Y-95494364D01*
X145962136Y-95546587D01*
X145963434Y-95549430D01*
X145980968Y-95589141D01*
X145985384Y-95599141D01*
X146060859Y-95674616D01*
X146060862Y-95674617D01*
X146060863Y-95674618D01*
X146158499Y-95717729D01*
X146158500Y-95717729D01*
X146158502Y-95717730D01*
X146182377Y-95720500D01*
X146537622Y-95720499D01*
X146561498Y-95717730D01*
X146659135Y-95674619D01*
X146659135Y-95674618D01*
X146659141Y-95674616D01*
X146717439Y-95616318D01*
X146778763Y-95582834D01*
X146805120Y-95580000D01*
X147982934Y-95580000D01*
X148049973Y-95599685D01*
X148093418Y-95647704D01*
X148097563Y-95655839D01*
X148097568Y-95655846D01*
X148176066Y-95734344D01*
X148176069Y-95734346D01*
X148176072Y-95734349D01*
X148250630Y-95772338D01*
X148275000Y-95784755D01*
X148384657Y-95802123D01*
X148384659Y-95802123D01*
X148384661Y-95802123D01*
X148494317Y-95784755D01*
X148494318Y-95784754D01*
X148494320Y-95784754D01*
X148593246Y-95734349D01*
X148669239Y-95658355D01*
X148730560Y-95624872D01*
X148800252Y-95629856D01*
X148844600Y-95658357D01*
X148850859Y-95664616D01*
X148850862Y-95664617D01*
X148850863Y-95664618D01*
X148948499Y-95707729D01*
X148948500Y-95707729D01*
X148948502Y-95707730D01*
X148972377Y-95710500D01*
X149327622Y-95710499D01*
X149351498Y-95707730D01*
X149449135Y-95664619D01*
X149449136Y-95664618D01*
X149449141Y-95664616D01*
X149524616Y-95589141D01*
X149546566Y-95539430D01*
X149591651Y-95486054D01*
X149658438Y-95465526D01*
X149725720Y-95484364D01*
X149772136Y-95536587D01*
X149773434Y-95539430D01*
X149792314Y-95582190D01*
X149795384Y-95589141D01*
X149870859Y-95664616D01*
X149870862Y-95664617D01*
X149870863Y-95664618D01*
X149968499Y-95707729D01*
X149968500Y-95707729D01*
X149968502Y-95707730D01*
X149992377Y-95710500D01*
X150347622Y-95710499D01*
X150371498Y-95707730D01*
X150469135Y-95664619D01*
X150469136Y-95664618D01*
X150469141Y-95664616D01*
X150544616Y-95589141D01*
X150587730Y-95491498D01*
X150590500Y-95467623D01*
X150590499Y-95012378D01*
X150587730Y-94988502D01*
X150568489Y-94944927D01*
X150559418Y-94875651D01*
X150589241Y-94812466D01*
X150594226Y-94807178D01*
X151569588Y-93831816D01*
X151630909Y-93798333D01*
X151657258Y-93795499D01*
X152026356Y-93795499D01*
X152034726Y-93794528D01*
X152052314Y-93792489D01*
X152052315Y-93792488D01*
X152052320Y-93792488D01*
X152115415Y-93764628D01*
X152184691Y-93755557D01*
X152247876Y-93785380D01*
X152284908Y-93844629D01*
X152289500Y-93878063D01*
X152289500Y-106726000D01*
X152269815Y-106793039D01*
X152217011Y-106838794D01*
X152165500Y-106850000D01*
X145110000Y-106850000D01*
X145110000Y-109835500D01*
X145090315Y-109902539D01*
X145037511Y-109948294D01*
X144986000Y-109959500D01*
X132734000Y-109959500D01*
X132666961Y-109939815D01*
X132621206Y-109887011D01*
X132610000Y-109835500D01*
X132610000Y-108889997D01*
X135005131Y-108889997D01*
X135005131Y-108890002D01*
X135022498Y-108999658D01*
X135072904Y-109098585D01*
X135072909Y-109098592D01*
X135151407Y-109177090D01*
X135151410Y-109177092D01*
X135151413Y-109177095D01*
X135245148Y-109224855D01*
X135250341Y-109227501D01*
X135359998Y-109244869D01*
X135360000Y-109244869D01*
X135360002Y-109244869D01*
X135469657Y-109227501D01*
X135469658Y-109227500D01*
X135469661Y-109227500D01*
X135513894Y-109204962D01*
X135582559Y-109192066D01*
X135626476Y-109204960D01*
X135690339Y-109237500D01*
X135690341Y-109237500D01*
X135690343Y-109237501D01*
X135799998Y-109254869D01*
X135800000Y-109254869D01*
X135800002Y-109254869D01*
X135909658Y-109237501D01*
X135909659Y-109237500D01*
X135909661Y-109237500D01*
X136008587Y-109187095D01*
X136019270Y-109176411D01*
X136080588Y-109142928D01*
X136126348Y-109141620D01*
X136209998Y-109154869D01*
X136210000Y-109154869D01*
X136210002Y-109154869D01*
X136319658Y-109137501D01*
X136319659Y-109137500D01*
X136319661Y-109137500D01*
X136418587Y-109087095D01*
X136497095Y-109008587D01*
X136547500Y-108909661D01*
X136547500Y-108909659D01*
X136547501Y-108909658D01*
X136564869Y-108800002D01*
X136564869Y-108799997D01*
X136547501Y-108690341D01*
X136547500Y-108690339D01*
X136497095Y-108591413D01*
X136497092Y-108591410D01*
X136497090Y-108591407D01*
X136418592Y-108512909D01*
X136418588Y-108512906D01*
X136418587Y-108512905D01*
X136369190Y-108487736D01*
X136319658Y-108462498D01*
X136210002Y-108445131D01*
X136209998Y-108445131D01*
X136100341Y-108462498D01*
X136001413Y-108512903D01*
X135990724Y-108523592D01*
X135929399Y-108557074D01*
X135883651Y-108558379D01*
X135800003Y-108545131D01*
X135799998Y-108545131D01*
X135690341Y-108562498D01*
X135646107Y-108585037D01*
X135577437Y-108597933D01*
X135533519Y-108585037D01*
X135469658Y-108552498D01*
X135360002Y-108535131D01*
X135359998Y-108535131D01*
X135250341Y-108552498D01*
X135151414Y-108602904D01*
X135151407Y-108602909D01*
X135072909Y-108681407D01*
X135072904Y-108681414D01*
X135022498Y-108780341D01*
X135005131Y-108889997D01*
X132610000Y-108889997D01*
X132610000Y-107633168D01*
X132629685Y-107566129D01*
X132682489Y-107520374D01*
X132707240Y-107512380D01*
X132708716Y-107511768D01*
X132708722Y-107511767D01*
X132758504Y-107478504D01*
X132791767Y-107428722D01*
X132796032Y-107407281D01*
X132800500Y-107384822D01*
X132800500Y-107345004D01*
X132820185Y-107277965D01*
X132839271Y-107254938D01*
X133024137Y-107080000D01*
X135582668Y-104658874D01*
X135644890Y-104627094D01*
X135714418Y-104633999D01*
X135755577Y-104661260D01*
X135811407Y-104717090D01*
X135811410Y-104717092D01*
X135811413Y-104717095D01*
X135903372Y-104763950D01*
X135910341Y-104767501D01*
X136019998Y-104784869D01*
X136020000Y-104784869D01*
X136020002Y-104784869D01*
X136129656Y-104767501D01*
X136129656Y-104767500D01*
X136129661Y-104767500D01*
X136208709Y-104727223D01*
X136277374Y-104714328D01*
X136321288Y-104727222D01*
X136400339Y-104767500D01*
X136400341Y-104767500D01*
X136400343Y-104767501D01*
X136509998Y-104784869D01*
X136510000Y-104784869D01*
X136510002Y-104784869D01*
X136619658Y-104767501D01*
X136619659Y-104767500D01*
X136619661Y-104767500D01*
X136718587Y-104717095D01*
X136718592Y-104717089D01*
X136726486Y-104711356D01*
X136728558Y-104714208D01*
X136774243Y-104689240D01*
X136843936Y-104694197D01*
X136856919Y-104699900D01*
X136950339Y-104747500D01*
X136950341Y-104747500D01*
X136950343Y-104747501D01*
X136993906Y-104754401D01*
X137057041Y-104784330D01*
X137093972Y-104843642D01*
X137092974Y-104913504D01*
X137054364Y-104971737D01*
X137030804Y-104987358D01*
X136941413Y-105032905D01*
X136941412Y-105032906D01*
X136941407Y-105032909D01*
X136862909Y-105111407D01*
X136862904Y-105111414D01*
X136812498Y-105210341D01*
X136795131Y-105319997D01*
X136795131Y-105320002D01*
X136812498Y-105429658D01*
X136862904Y-105528585D01*
X136862909Y-105528592D01*
X136941407Y-105607090D01*
X136941410Y-105607092D01*
X136941413Y-105607095D01*
X137040339Y-105657500D01*
X137040341Y-105657501D01*
X137149998Y-105674869D01*
X137150000Y-105674869D01*
X137150002Y-105674869D01*
X137259658Y-105657501D01*
X137259659Y-105657500D01*
X137259661Y-105657500D01*
X137358587Y-105607095D01*
X137437095Y-105528587D01*
X137487500Y-105429661D01*
X137487500Y-105429659D01*
X137487501Y-105429658D01*
X137504869Y-105320002D01*
X137504869Y-105319998D01*
X137489286Y-105221614D01*
X137498240Y-105152321D01*
X137543236Y-105098869D01*
X137592356Y-105079744D01*
X137669661Y-105067500D01*
X137768587Y-105017095D01*
X137847095Y-104938587D01*
X137847545Y-104937702D01*
X137848375Y-104936823D01*
X137852828Y-104930695D01*
X137853620Y-104931270D01*
X137895521Y-104886908D01*
X137958029Y-104870000D01*
X138500000Y-104870000D01*
X138500000Y-104479500D01*
X138519685Y-104412461D01*
X138572489Y-104366706D01*
X138624000Y-104355500D01*
X139197233Y-104355500D01*
X139264272Y-104375185D01*
X139284914Y-104391819D01*
X139423181Y-104530086D01*
X139456666Y-104591409D01*
X139459500Y-104617767D01*
X139459500Y-105962820D01*
X139459500Y-105962822D01*
X139459499Y-105962822D01*
X139468231Y-106006717D01*
X139468234Y-106006724D01*
X139485457Y-106032500D01*
X139501496Y-106056504D01*
X139551278Y-106089767D01*
X139551281Y-106089767D01*
X139551282Y-106089768D01*
X139595177Y-106098500D01*
X139595180Y-106098500D01*
X140224822Y-106098500D01*
X140268717Y-106089768D01*
X140268717Y-106089767D01*
X140268722Y-106089767D01*
X140318504Y-106056504D01*
X140318506Y-106056500D01*
X140322319Y-106052689D01*
X140383642Y-106019204D01*
X140453334Y-106024188D01*
X140497681Y-106052689D01*
X140501495Y-106056503D01*
X140501496Y-106056504D01*
X140551278Y-106089767D01*
X140551281Y-106089767D01*
X140551282Y-106089768D01*
X140595177Y-106098500D01*
X140595180Y-106098500D01*
X141224822Y-106098500D01*
X141268717Y-106089768D01*
X141268717Y-106089767D01*
X141268722Y-106089767D01*
X141318504Y-106056504D01*
X141318506Y-106056500D01*
X141322319Y-106052689D01*
X141383642Y-106019204D01*
X141453334Y-106024188D01*
X141497681Y-106052689D01*
X141501495Y-106056503D01*
X141501496Y-106056504D01*
X141551278Y-106089767D01*
X141551281Y-106089767D01*
X141551282Y-106089768D01*
X141595177Y-106098500D01*
X141595180Y-106098500D01*
X142224822Y-106098500D01*
X142268717Y-106089768D01*
X142268717Y-106089767D01*
X142268722Y-106089767D01*
X142318504Y-106056504D01*
X142318506Y-106056500D01*
X142322319Y-106052689D01*
X142383642Y-106019204D01*
X142453334Y-106024188D01*
X142497681Y-106052689D01*
X142501495Y-106056503D01*
X142501496Y-106056504D01*
X142551278Y-106089767D01*
X142551281Y-106089767D01*
X142551282Y-106089768D01*
X142595177Y-106098500D01*
X142595180Y-106098500D01*
X143224822Y-106098500D01*
X143268717Y-106089768D01*
X143268717Y-106089767D01*
X143268722Y-106089767D01*
X143318504Y-106056504D01*
X143318506Y-106056500D01*
X143322319Y-106052689D01*
X143383642Y-106019204D01*
X143453334Y-106024188D01*
X143497681Y-106052689D01*
X143501495Y-106056503D01*
X143501496Y-106056504D01*
X143551278Y-106089767D01*
X143551281Y-106089767D01*
X143551282Y-106089768D01*
X143595177Y-106098500D01*
X143595180Y-106098500D01*
X144224822Y-106098500D01*
X144268717Y-106089768D01*
X144268717Y-106089767D01*
X144268722Y-106089767D01*
X144318504Y-106056504D01*
X144351767Y-106006722D01*
X144353601Y-105997501D01*
X144360500Y-105962822D01*
X144360500Y-105698352D01*
X144380185Y-105631313D01*
X144432989Y-105585558D01*
X144502147Y-105575614D01*
X144565703Y-105604639D01*
X144591887Y-105636353D01*
X144594520Y-105640913D01*
X144669087Y-105715480D01*
X144760412Y-105768207D01*
X144862273Y-105795500D01*
X144862275Y-105795500D01*
X144967725Y-105795500D01*
X144967727Y-105795500D01*
X145069588Y-105768207D01*
X145160913Y-105715480D01*
X145487053Y-105389338D01*
X145512726Y-105369639D01*
X145545913Y-105350480D01*
X145620480Y-105275913D01*
X145673207Y-105184587D01*
X145700500Y-105082727D01*
X145700500Y-104977273D01*
X145700500Y-104957273D01*
X145700500Y-103592571D01*
X145720185Y-103525532D01*
X145772989Y-103479777D01*
X145840692Y-103469633D01*
X145847271Y-103470499D01*
X145847273Y-103470500D01*
X145857215Y-103470500D01*
X145907300Y-103481065D01*
X145990009Y-103517585D01*
X146015135Y-103520500D01*
X146954864Y-103520499D01*
X146955124Y-103520484D01*
X146955188Y-103520499D01*
X146958444Y-103520499D01*
X146958444Y-103521253D01*
X147023188Y-103536265D01*
X147071915Y-103586340D01*
X147081087Y-103615101D01*
X147082397Y-103614751D01*
X147084500Y-103622599D01*
X147084500Y-103622601D01*
X147116905Y-103743536D01*
X147179505Y-103851964D01*
X147268036Y-103940495D01*
X147376464Y-104003095D01*
X147497399Y-104035500D01*
X147497401Y-104035500D01*
X147622599Y-104035500D01*
X147622601Y-104035500D01*
X147743536Y-104003095D01*
X147851964Y-103940495D01*
X147940495Y-103851964D01*
X148003095Y-103743536D01*
X148035500Y-103622601D01*
X148035500Y-103497399D01*
X148003095Y-103376464D01*
X147940495Y-103268036D01*
X147851964Y-103179505D01*
X147743536Y-103116905D01*
X147743537Y-103116905D01*
X147680454Y-103100002D01*
X147622601Y-103084500D01*
X147497399Y-103084500D01*
X147376464Y-103116905D01*
X147376462Y-103116906D01*
X147368614Y-103119009D01*
X147367847Y-103116149D01*
X147312476Y-103122100D01*
X147249998Y-103090821D01*
X147214349Y-103030731D01*
X147210499Y-103000071D01*
X147210499Y-102875143D01*
X147210499Y-102875136D01*
X147210497Y-102875117D01*
X147207586Y-102850012D01*
X147207585Y-102850011D01*
X147207585Y-102850009D01*
X147194151Y-102819585D01*
X147185080Y-102750309D01*
X147214903Y-102687123D01*
X147274152Y-102650092D01*
X147307586Y-102645500D01*
X147935233Y-102645500D01*
X148002272Y-102665185D01*
X148022914Y-102681819D01*
X148369873Y-103028778D01*
X148403358Y-103090101D01*
X148404665Y-103097061D01*
X148422498Y-103209658D01*
X148472904Y-103308585D01*
X148472909Y-103308592D01*
X148551407Y-103387090D01*
X148551410Y-103387092D01*
X148551413Y-103387095D01*
X148610765Y-103417336D01*
X148650341Y-103437501D01*
X148759998Y-103454869D01*
X148760000Y-103454869D01*
X148760002Y-103454869D01*
X148869658Y-103437501D01*
X148869659Y-103437500D01*
X148869661Y-103437500D01*
X148968587Y-103387095D01*
X149047095Y-103308587D01*
X149097500Y-103209661D01*
X149097500Y-103209659D01*
X149097501Y-103209658D01*
X149114869Y-103100002D01*
X149114869Y-103099997D01*
X149097501Y-102990341D01*
X149097500Y-102990339D01*
X149047095Y-102891413D01*
X149047092Y-102891410D01*
X149047090Y-102891407D01*
X148968592Y-102812909D01*
X148968588Y-102812906D01*
X148968587Y-102812905D01*
X148932457Y-102794496D01*
X148869658Y-102762498D01*
X148757061Y-102744665D01*
X148693926Y-102714736D01*
X148688778Y-102709873D01*
X148288611Y-102309706D01*
X148288609Y-102309703D01*
X148207735Y-102228829D01*
X148183132Y-102218639D01*
X148183129Y-102218636D01*
X148124856Y-102194499D01*
X148124855Y-102194499D01*
X148035145Y-102194499D01*
X148020711Y-102194499D01*
X148020703Y-102194500D01*
X147326330Y-102194500D01*
X147259291Y-102174815D01*
X147213536Y-102122011D01*
X147203592Y-102052853D01*
X147204712Y-102046310D01*
X147210500Y-102017211D01*
X147210499Y-101865447D01*
X147230183Y-101798408D01*
X147282987Y-101752653D01*
X147315096Y-101742974D01*
X147349661Y-101737500D01*
X147448587Y-101687095D01*
X147527095Y-101608587D01*
X147577500Y-101509661D01*
X147577500Y-101509659D01*
X147577501Y-101509658D01*
X147594869Y-101400002D01*
X147594869Y-101399997D01*
X147580614Y-101309997D01*
X150240131Y-101309997D01*
X150240131Y-101310002D01*
X150257498Y-101419658D01*
X150307904Y-101518585D01*
X150307909Y-101518592D01*
X150386407Y-101597090D01*
X150386410Y-101597092D01*
X150386413Y-101597095D01*
X150485339Y-101647500D01*
X150485341Y-101647501D01*
X150594998Y-101664869D01*
X150595000Y-101664869D01*
X150595002Y-101664869D01*
X150704658Y-101647501D01*
X150704659Y-101647500D01*
X150704661Y-101647500D01*
X150803587Y-101597095D01*
X150882095Y-101518587D01*
X150932500Y-101419661D01*
X150932500Y-101419659D01*
X150932501Y-101419658D01*
X150949869Y-101310002D01*
X150949869Y-101309997D01*
X150932501Y-101200341D01*
X150928369Y-101192231D01*
X150882095Y-101101413D01*
X150882092Y-101101410D01*
X150882090Y-101101407D01*
X150803592Y-101022909D01*
X150803588Y-101022906D01*
X150803587Y-101022905D01*
X150768794Y-101005177D01*
X150704658Y-100972498D01*
X150595002Y-100955131D01*
X150594998Y-100955131D01*
X150485341Y-100972498D01*
X150386414Y-101022904D01*
X150386407Y-101022909D01*
X150307909Y-101101407D01*
X150307904Y-101101414D01*
X150257498Y-101200341D01*
X150240131Y-101309997D01*
X147580614Y-101309997D01*
X147577501Y-101290341D01*
X147560520Y-101257014D01*
X147527095Y-101191413D01*
X147527092Y-101191410D01*
X147527090Y-101191407D01*
X147501819Y-101166136D01*
X147468334Y-101104813D01*
X147465500Y-101078455D01*
X147465500Y-100654298D01*
X147465501Y-100654289D01*
X147465501Y-100550148D01*
X147465501Y-100550147D01*
X147431170Y-100467266D01*
X147431170Y-100467265D01*
X147367736Y-100403831D01*
X147360671Y-100396766D01*
X147360664Y-100396760D01*
X147335368Y-100371464D01*
X147312725Y-100329997D01*
X151295131Y-100329997D01*
X151295131Y-100330002D01*
X151312498Y-100439658D01*
X151362904Y-100538585D01*
X151362909Y-100538592D01*
X151441407Y-100617090D01*
X151441410Y-100617092D01*
X151441413Y-100617095D01*
X151540339Y-100667500D01*
X151540341Y-100667501D01*
X151649998Y-100684869D01*
X151650000Y-100684869D01*
X151650002Y-100684869D01*
X151759658Y-100667501D01*
X151759659Y-100667500D01*
X151759661Y-100667500D01*
X151858587Y-100617095D01*
X151937095Y-100538587D01*
X151987500Y-100439661D01*
X151987500Y-100439659D01*
X151987501Y-100439658D01*
X152004869Y-100330002D01*
X152004869Y-100329997D01*
X151987501Y-100220341D01*
X151977854Y-100201407D01*
X151937095Y-100121413D01*
X151937092Y-100121410D01*
X151937090Y-100121407D01*
X151858592Y-100042909D01*
X151858588Y-100042906D01*
X151858587Y-100042905D01*
X151850112Y-100038587D01*
X151759658Y-99992498D01*
X151650002Y-99975131D01*
X151649998Y-99975131D01*
X151540341Y-99992498D01*
X151441414Y-100042904D01*
X151441407Y-100042909D01*
X151362909Y-100121407D01*
X151362904Y-100121414D01*
X151312498Y-100220341D01*
X151295131Y-100329997D01*
X147312725Y-100329997D01*
X147301883Y-100310141D01*
X147306867Y-100240449D01*
X147348739Y-100184516D01*
X147371393Y-100172768D01*
X147370966Y-100171930D01*
X147379659Y-100167500D01*
X147379661Y-100167500D01*
X147478587Y-100117095D01*
X147557095Y-100038587D01*
X147607500Y-99939661D01*
X147607500Y-99939659D01*
X147607501Y-99939658D01*
X147624869Y-99830002D01*
X147624869Y-99829997D01*
X147607501Y-99720343D01*
X147607500Y-99720341D01*
X147607500Y-99720339D01*
X147581250Y-99668821D01*
X147568355Y-99600155D01*
X147594631Y-99535414D01*
X147604046Y-99524857D01*
X147718906Y-99409997D01*
X150240131Y-99409997D01*
X150240131Y-99410002D01*
X150257498Y-99519658D01*
X150307904Y-99618585D01*
X150307909Y-99618592D01*
X150386407Y-99697090D01*
X150386410Y-99697092D01*
X150386413Y-99697095D01*
X150469165Y-99739259D01*
X150485341Y-99747501D01*
X150594998Y-99764869D01*
X150595000Y-99764869D01*
X150595002Y-99764869D01*
X150704658Y-99747501D01*
X150704659Y-99747500D01*
X150704661Y-99747500D01*
X150803587Y-99697095D01*
X150882095Y-99618587D01*
X150932500Y-99519661D01*
X150932500Y-99519659D01*
X150932501Y-99519658D01*
X150949869Y-99410002D01*
X150949869Y-99409997D01*
X150932501Y-99300341D01*
X150919031Y-99273905D01*
X150882095Y-99201413D01*
X150882092Y-99201410D01*
X150882090Y-99201407D01*
X150803592Y-99122909D01*
X150803588Y-99122906D01*
X150803587Y-99122905D01*
X150798867Y-99120500D01*
X150704658Y-99072498D01*
X150595002Y-99055131D01*
X150594998Y-99055131D01*
X150485341Y-99072498D01*
X150386414Y-99122904D01*
X150386407Y-99122909D01*
X150307909Y-99201407D01*
X150307904Y-99201414D01*
X150257498Y-99300341D01*
X150240131Y-99409997D01*
X147718906Y-99409997D01*
X148519484Y-98609419D01*
X148580805Y-98575936D01*
X148630313Y-98578412D01*
X148630700Y-98575974D01*
X148749998Y-98594869D01*
X148750000Y-98594869D01*
X148750002Y-98594869D01*
X148859658Y-98577501D01*
X148859659Y-98577500D01*
X148859661Y-98577500D01*
X148958587Y-98527095D01*
X149037095Y-98448587D01*
X149087500Y-98349661D01*
X149087500Y-98349659D01*
X149087501Y-98349658D01*
X149104869Y-98240002D01*
X149104869Y-98239997D01*
X149087501Y-98130341D01*
X149068684Y-98093411D01*
X149037095Y-98031413D01*
X149037092Y-98031410D01*
X149037090Y-98031407D01*
X148958592Y-97952909D01*
X148958588Y-97952906D01*
X148958587Y-97952905D01*
X148923688Y-97935123D01*
X148859658Y-97902498D01*
X148750002Y-97885131D01*
X148749998Y-97885131D01*
X148640341Y-97902498D01*
X148541414Y-97952904D01*
X148541407Y-97952909D01*
X148460617Y-98033700D01*
X148442640Y-98048453D01*
X148419132Y-98071962D01*
X148378830Y-98112264D01*
X147422180Y-99068914D01*
X147360857Y-99102399D01*
X147291165Y-99097415D01*
X147235232Y-99055543D01*
X147210815Y-98990079D01*
X147210499Y-98981255D01*
X147210499Y-98822790D01*
X147197417Y-98757014D01*
X147170400Y-98716581D01*
X147149523Y-98649905D01*
X147160069Y-98597604D01*
X147168946Y-98577501D01*
X147207585Y-98489991D01*
X147210500Y-98464865D01*
X147210499Y-98339927D01*
X147230183Y-98272890D01*
X147282987Y-98227135D01*
X147352145Y-98217191D01*
X147368434Y-98221659D01*
X147368614Y-98220991D01*
X147376462Y-98223093D01*
X147376464Y-98223095D01*
X147497399Y-98255500D01*
X147497401Y-98255500D01*
X147622599Y-98255500D01*
X147622601Y-98255500D01*
X147743536Y-98223095D01*
X147851964Y-98160495D01*
X147940495Y-98071964D01*
X148003095Y-97963536D01*
X148035500Y-97842601D01*
X148035500Y-97717399D01*
X148003095Y-97596464D01*
X147940495Y-97488036D01*
X147851964Y-97399505D01*
X147743536Y-97336905D01*
X147743537Y-97336905D01*
X147695188Y-97323950D01*
X147622601Y-97304500D01*
X147497399Y-97304500D01*
X147424812Y-97323950D01*
X147376463Y-97336905D01*
X147268037Y-97399504D01*
X147268034Y-97399506D01*
X147179506Y-97488034D01*
X147179504Y-97488037D01*
X147116905Y-97596463D01*
X147082397Y-97725249D01*
X147079648Y-97724512D01*
X147056951Y-97775809D01*
X146998624Y-97814276D01*
X146958446Y-97819119D01*
X146958446Y-97819500D01*
X146955288Y-97819500D01*
X146955156Y-97819516D01*
X146954878Y-97819500D01*
X146015143Y-97819500D01*
X146015117Y-97819502D01*
X145990012Y-97822413D01*
X145990008Y-97822415D01*
X145907303Y-97858933D01*
X145870114Y-97866778D01*
X145870333Y-97868438D01*
X145862278Y-97869498D01*
X145862274Y-97869499D01*
X145764728Y-97895637D01*
X145762343Y-97896275D01*
X145760412Y-97896793D01*
X145669085Y-97949522D01*
X144976058Y-98642549D01*
X144976056Y-98642552D01*
X144923329Y-98733875D01*
X144918935Y-98750275D01*
X144914383Y-98767264D01*
X144914383Y-98767265D01*
X144914382Y-98767264D01*
X144896036Y-98835736D01*
X144896036Y-102519261D01*
X144897097Y-102527319D01*
X144896715Y-102527369D01*
X144899500Y-102548514D01*
X144899500Y-104792745D01*
X144879815Y-104859784D01*
X144863181Y-104880426D01*
X144594522Y-105149084D01*
X144594518Y-105149090D01*
X144591886Y-105153649D01*
X144541318Y-105201864D01*
X144472711Y-105215085D01*
X144407846Y-105189116D01*
X144367319Y-105132201D01*
X144360500Y-105091647D01*
X144360500Y-104383177D01*
X144351768Y-104339282D01*
X144351767Y-104339281D01*
X144351767Y-104339278D01*
X144318504Y-104289496D01*
X144318503Y-104289495D01*
X144258568Y-104249448D01*
X144260197Y-104247008D01*
X144220331Y-104214881D01*
X144211702Y-104200455D01*
X144207560Y-104192326D01*
X144207095Y-104191413D01*
X144128587Y-104112905D01*
X144088540Y-104092500D01*
X144029658Y-104062498D01*
X143920002Y-104045131D01*
X143919998Y-104045131D01*
X143810341Y-104062498D01*
X143711414Y-104112904D01*
X143711407Y-104112909D01*
X143692181Y-104132136D01*
X143630858Y-104165621D01*
X143561166Y-104160637D01*
X143505233Y-104118765D01*
X143480816Y-104053301D01*
X143480500Y-104044455D01*
X143480500Y-103695177D01*
X143471768Y-103651282D01*
X143471767Y-103651281D01*
X143471767Y-103651278D01*
X143438504Y-103601496D01*
X143423535Y-103591494D01*
X143388724Y-103568234D01*
X143388717Y-103568231D01*
X143344822Y-103559500D01*
X143344820Y-103559500D01*
X142965180Y-103559500D01*
X142965178Y-103559500D01*
X142921282Y-103568231D01*
X142921279Y-103568232D01*
X142898889Y-103583193D01*
X142832211Y-103604069D01*
X142764831Y-103585583D01*
X142761111Y-103583193D01*
X142749722Y-103575583D01*
X142738722Y-103568233D01*
X142738721Y-103568232D01*
X142738720Y-103568232D01*
X142738717Y-103568231D01*
X142694822Y-103559500D01*
X142694820Y-103559500D01*
X142315180Y-103559500D01*
X142315178Y-103559500D01*
X142271282Y-103568231D01*
X142259998Y-103572906D01*
X142259304Y-103571232D01*
X142206708Y-103587699D01*
X142139329Y-103569212D01*
X142092641Y-103517231D01*
X142080500Y-103463719D01*
X142080500Y-102547888D01*
X142100185Y-102480849D01*
X142134426Y-102445586D01*
X142137008Y-102443816D01*
X142137016Y-102443813D01*
X142213813Y-102367016D01*
X142257682Y-102267662D01*
X142260500Y-102243373D01*
X142260499Y-101816628D01*
X142257682Y-101792338D01*
X142213813Y-101692984D01*
X142137016Y-101616187D01*
X142093777Y-101597095D01*
X142037663Y-101572318D01*
X142013373Y-101569500D01*
X141646634Y-101569500D01*
X141646611Y-101569502D01*
X141622340Y-101572317D01*
X141622337Y-101572318D01*
X141522984Y-101616186D01*
X141446187Y-101692983D01*
X141402318Y-101792335D01*
X141402318Y-101792337D01*
X141399500Y-101816625D01*
X141399500Y-102243365D01*
X141399502Y-102243388D01*
X141402317Y-102267659D01*
X141402318Y-102267662D01*
X141446186Y-102367015D01*
X141446187Y-102367016D01*
X141522984Y-102443813D01*
X141522989Y-102443815D01*
X141525574Y-102445586D01*
X141529205Y-102450034D01*
X141531109Y-102451938D01*
X141530916Y-102452130D01*
X141569758Y-102499711D01*
X141579500Y-102547888D01*
X141579500Y-103486937D01*
X141559815Y-103553976D01*
X141543181Y-103574618D01*
X141471565Y-103646233D01*
X141471562Y-103646237D01*
X141471561Y-103646239D01*
X141437979Y-103712149D01*
X141424533Y-103738538D01*
X141376558Y-103789334D01*
X141308737Y-103806129D01*
X141242603Y-103783592D01*
X141226367Y-103769924D01*
X141168592Y-103712149D01*
X141168588Y-103712146D01*
X141168587Y-103712145D01*
X141069661Y-103661740D01*
X141069659Y-103661739D01*
X141069658Y-103661739D01*
X140984306Y-103648220D01*
X140921172Y-103618290D01*
X140900605Y-103594640D01*
X140898504Y-103591496D01*
X140898502Y-103591495D01*
X140898502Y-103591494D01*
X140848724Y-103558234D01*
X140848717Y-103558231D01*
X140804822Y-103549500D01*
X140804820Y-103549500D01*
X140425180Y-103549500D01*
X140425178Y-103549500D01*
X140381282Y-103558231D01*
X140381279Y-103558232D01*
X140368922Y-103566488D01*
X140359319Y-103572906D01*
X140358889Y-103573193D01*
X140292211Y-103594069D01*
X140224831Y-103575583D01*
X140221111Y-103573193D01*
X140198722Y-103558233D01*
X140198721Y-103558232D01*
X140198720Y-103558232D01*
X140198717Y-103558231D01*
X140154822Y-103549500D01*
X140154820Y-103549500D01*
X139775180Y-103549500D01*
X139775177Y-103549500D01*
X139769115Y-103550097D01*
X139768915Y-103548073D01*
X139708585Y-103542667D01*
X139653413Y-103499797D01*
X139630177Y-103433905D01*
X139630000Y-103427283D01*
X139630000Y-103392191D01*
X139649685Y-103325152D01*
X139661053Y-103311044D01*
X139663809Y-103307019D01*
X139663813Y-103307016D01*
X139707682Y-103207662D01*
X139710500Y-103183373D01*
X139710499Y-102756628D01*
X139707682Y-102732338D01*
X139691065Y-102694703D01*
X139680500Y-102644618D01*
X139680500Y-102596598D01*
X139700185Y-102529559D01*
X139723298Y-102502885D01*
X139772123Y-102460578D01*
X139772124Y-102460576D01*
X139772146Y-102460558D01*
X139777621Y-102455580D01*
X139819516Y-102386850D01*
X139839201Y-102319811D01*
X139845500Y-102276000D01*
X139845500Y-101775771D01*
X139865185Y-101708732D01*
X139881819Y-101688090D01*
X140918090Y-100651819D01*
X140979413Y-100618334D01*
X141005771Y-100615500D01*
X141300491Y-100615500D01*
X141300500Y-100615500D01*
X141333555Y-100611946D01*
X141385066Y-100600740D01*
X141385067Y-100600739D01*
X141392644Y-100599091D01*
X141392752Y-100599590D01*
X141425402Y-100594000D01*
X141439822Y-100594000D01*
X141483717Y-100585268D01*
X141483717Y-100585267D01*
X141483722Y-100585267D01*
X141533504Y-100552004D01*
X141566767Y-100502222D01*
X141567209Y-100500000D01*
X141575500Y-100458322D01*
X141575500Y-100376167D01*
X141576762Y-100358520D01*
X141580000Y-100336000D01*
X141580000Y-100084000D01*
X141579912Y-100083184D01*
X141579945Y-100082999D01*
X141579822Y-100080692D01*
X141580000Y-100080682D01*
X141580000Y-100080679D01*
X141580064Y-100080679D01*
X141580367Y-100080662D01*
X141592311Y-100014426D01*
X141615516Y-99982242D01*
X141913320Y-99684439D01*
X141974642Y-99650955D01*
X142044334Y-99655939D01*
X142100267Y-99697811D01*
X142124684Y-99763275D01*
X142125000Y-99772121D01*
X142125000Y-99982820D01*
X142125000Y-99982822D01*
X142124999Y-99982822D01*
X142133731Y-100026717D01*
X142133734Y-100026724D01*
X142165998Y-100075011D01*
X142166996Y-100076504D01*
X142216778Y-100109767D01*
X142216781Y-100109767D01*
X142216782Y-100109768D01*
X142260677Y-100118500D01*
X142671412Y-100118500D01*
X142671412Y-100120995D01*
X142729299Y-100131936D01*
X142780039Y-100179970D01*
X142796755Y-100247811D01*
X142785373Y-100291017D01*
X142785514Y-100291063D01*
X142784708Y-100293542D01*
X142783366Y-100298638D01*
X142782499Y-100300338D01*
X142782499Y-100300340D01*
X142765131Y-100409997D01*
X142765131Y-100410002D01*
X142782498Y-100519658D01*
X142832904Y-100618585D01*
X142832909Y-100618592D01*
X142911407Y-100697090D01*
X142911410Y-100697092D01*
X142911413Y-100697095D01*
X143010339Y-100747500D01*
X143010341Y-100747501D01*
X143119998Y-100764869D01*
X143120000Y-100764869D01*
X143120002Y-100764869D01*
X143229658Y-100747501D01*
X143229659Y-100747500D01*
X143229661Y-100747500D01*
X143328587Y-100697095D01*
X143407095Y-100618587D01*
X143457500Y-100519661D01*
X143457500Y-100519659D01*
X143457501Y-100519658D01*
X143474869Y-100410002D01*
X143474869Y-100409997D01*
X143457501Y-100300341D01*
X143452750Y-100291017D01*
X143407095Y-100201413D01*
X143407092Y-100201410D01*
X143407090Y-100201407D01*
X143362715Y-100157032D01*
X143329230Y-100095709D01*
X143334214Y-100026017D01*
X143339901Y-100013078D01*
X143387500Y-99919661D01*
X143389075Y-99909722D01*
X143404869Y-99810002D01*
X143404869Y-99809997D01*
X143387501Y-99700341D01*
X143378371Y-99682423D01*
X143337095Y-99601413D01*
X143337092Y-99601410D01*
X143337090Y-99601407D01*
X143258592Y-99522909D01*
X143258588Y-99522906D01*
X143258587Y-99522905D01*
X143247410Y-99517210D01*
X143159658Y-99472498D01*
X143050002Y-99455131D01*
X143040241Y-99455131D01*
X143040241Y-99452656D01*
X142984921Y-99445502D01*
X142931473Y-99400501D01*
X142910839Y-99333748D01*
X142914112Y-99303640D01*
X143180064Y-98171436D01*
X143214556Y-98110679D01*
X143276424Y-98078211D01*
X143276741Y-98078148D01*
X143832549Y-97969874D01*
X143834218Y-97969539D01*
X143836866Y-97968993D01*
X143879987Y-97953176D01*
X143941310Y-97919691D01*
X143976742Y-97893167D01*
X144583636Y-97286274D01*
X144594761Y-97273889D01*
X144611395Y-97253247D01*
X144639516Y-97199488D01*
X144659201Y-97132449D01*
X144665500Y-97088638D01*
X144665500Y-96714000D01*
X144661946Y-96680945D01*
X144650740Y-96629434D01*
X144624877Y-96577767D01*
X144616313Y-96560657D01*
X144570563Y-96507860D01*
X144565577Y-96502376D01*
X144496854Y-96460486D01*
X144496848Y-96460483D01*
X144429812Y-96440799D01*
X144429802Y-96440797D01*
X144386003Y-96434500D01*
X144386000Y-96434500D01*
X143015772Y-96434500D01*
X142948733Y-96414815D01*
X142928091Y-96398181D01*
X142602298Y-96072388D01*
X142573043Y-96025961D01*
X142570740Y-96019435D01*
X142570740Y-96019434D01*
X142538908Y-95955842D01*
X142536313Y-95950657D01*
X142490563Y-95897860D01*
X142485577Y-95892376D01*
X142416854Y-95850486D01*
X142416848Y-95850483D01*
X142349812Y-95830799D01*
X142349802Y-95830797D01*
X142306003Y-95824500D01*
X142306000Y-95824500D01*
X141920003Y-95824500D01*
X141852964Y-95804815D01*
X141807209Y-95752011D01*
X141797265Y-95682853D01*
X141826290Y-95619297D01*
X141832322Y-95612819D01*
X141845993Y-95599147D01*
X141845998Y-95599142D01*
X141896403Y-95500216D01*
X141896403Y-95500214D01*
X141896404Y-95500213D01*
X141913772Y-95390557D01*
X141913772Y-95390552D01*
X141896404Y-95280896D01*
X141896403Y-95280894D01*
X141845998Y-95181968D01*
X141845995Y-95181965D01*
X141845993Y-95181962D01*
X141834028Y-95169997D01*
X142545131Y-95169997D01*
X142545131Y-95170002D01*
X142562498Y-95279658D01*
X142612904Y-95378585D01*
X142612909Y-95378592D01*
X142691407Y-95457090D01*
X142691410Y-95457092D01*
X142691413Y-95457095D01*
X142778559Y-95501498D01*
X142790341Y-95507501D01*
X142899998Y-95524869D01*
X142900000Y-95524869D01*
X142900002Y-95524869D01*
X143009658Y-95507501D01*
X143009659Y-95507500D01*
X143009661Y-95507500D01*
X143108587Y-95457095D01*
X143187095Y-95378587D01*
X143237500Y-95279661D01*
X143237500Y-95279659D01*
X143237501Y-95279658D01*
X143254869Y-95170002D01*
X143254869Y-95169997D01*
X143237501Y-95060341D01*
X143236190Y-95057768D01*
X143187095Y-94961413D01*
X143187092Y-94961410D01*
X143187090Y-94961407D01*
X143108592Y-94882909D01*
X143108588Y-94882906D01*
X143108587Y-94882905D01*
X143091905Y-94874405D01*
X143009658Y-94832498D01*
X142900002Y-94815131D01*
X142899998Y-94815131D01*
X142790341Y-94832498D01*
X142691414Y-94882904D01*
X142691407Y-94882909D01*
X142612909Y-94961407D01*
X142612904Y-94961414D01*
X142562498Y-95060341D01*
X142545131Y-95169997D01*
X141834028Y-95169997D01*
X141830663Y-95166632D01*
X141797178Y-95105309D01*
X141802162Y-95035617D01*
X141807860Y-95022655D01*
X141809934Y-95018585D01*
X141815977Y-95006725D01*
X141815977Y-95006723D01*
X141815978Y-95006722D01*
X141833346Y-94897066D01*
X141833346Y-94897061D01*
X141815978Y-94787405D01*
X141805147Y-94766148D01*
X141765572Y-94688477D01*
X141765569Y-94688474D01*
X141765567Y-94688471D01*
X141687069Y-94609973D01*
X141687065Y-94609970D01*
X141687064Y-94609969D01*
X141651780Y-94591991D01*
X141588135Y-94559562D01*
X141478479Y-94542195D01*
X141478475Y-94542195D01*
X141368818Y-94559562D01*
X141269891Y-94609968D01*
X141269884Y-94609973D01*
X141196177Y-94683681D01*
X141134854Y-94717166D01*
X141108496Y-94720000D01*
X139408197Y-94720000D01*
X139341158Y-94700315D01*
X139295403Y-94647511D01*
X139285724Y-94615398D01*
X139267501Y-94500341D01*
X139249633Y-94465273D01*
X139217095Y-94401413D01*
X139217092Y-94401410D01*
X139217090Y-94401407D01*
X139138592Y-94322909D01*
X139138588Y-94322906D01*
X139138587Y-94322905D01*
X139071650Y-94288799D01*
X139039658Y-94272498D01*
X138930002Y-94255131D01*
X138929998Y-94255131D01*
X138820341Y-94272498D01*
X138721414Y-94322904D01*
X138721407Y-94322909D01*
X138642909Y-94401407D01*
X138642904Y-94401414D01*
X138592498Y-94500341D01*
X138575131Y-94609997D01*
X138575131Y-94610003D01*
X138592707Y-94720977D01*
X138583752Y-94790270D01*
X138538756Y-94843722D01*
X138472004Y-94864361D01*
X138426965Y-94853888D01*
X138426437Y-94855514D01*
X138417159Y-94852499D01*
X138307502Y-94835131D01*
X138307498Y-94835131D01*
X138197841Y-94852498D01*
X138098914Y-94902904D01*
X138098907Y-94902909D01*
X138020409Y-94981407D01*
X138020406Y-94981412D01*
X138020405Y-94981413D01*
X138003072Y-95015432D01*
X137955097Y-95066228D01*
X137887276Y-95083023D01*
X137821141Y-95060485D01*
X137804906Y-95046818D01*
X137765373Y-95007285D01*
X137731888Y-94945962D01*
X137730581Y-94900208D01*
X137744869Y-94810000D01*
X137744710Y-94808993D01*
X137727501Y-94700341D01*
X137721494Y-94688551D01*
X137677095Y-94601413D01*
X137677092Y-94601410D01*
X137677090Y-94601407D01*
X137598592Y-94522909D01*
X137598588Y-94522906D01*
X137598587Y-94522905D01*
X137499661Y-94472500D01*
X137499660Y-94472499D01*
X137499657Y-94472498D01*
X137499659Y-94472498D01*
X137454037Y-94465273D01*
X137390902Y-94435344D01*
X137353971Y-94376032D01*
X137350963Y-94362207D01*
X137347500Y-94340339D01*
X137297095Y-94241413D01*
X137297092Y-94241410D01*
X137297090Y-94241407D01*
X137218592Y-94162909D01*
X137218588Y-94162906D01*
X137218587Y-94162905D01*
X137178536Y-94142498D01*
X137119658Y-94112498D01*
X137010002Y-94095131D01*
X137009998Y-94095131D01*
X136900341Y-94112498D01*
X136801414Y-94162904D01*
X136801407Y-94162909D01*
X136722909Y-94241407D01*
X136722904Y-94241414D01*
X136672498Y-94340341D01*
X136655131Y-94449997D01*
X136655131Y-94450002D01*
X136672498Y-94559658D01*
X136722904Y-94658585D01*
X136722909Y-94658592D01*
X136801407Y-94737090D01*
X136801410Y-94737092D01*
X136801413Y-94737095D01*
X136900339Y-94787500D01*
X136945962Y-94794726D01*
X137009096Y-94824654D01*
X137046027Y-94883965D01*
X137049037Y-94897801D01*
X137052498Y-94919658D01*
X137096861Y-95006725D01*
X137102905Y-95018587D01*
X137181413Y-95097095D01*
X137181415Y-95097096D01*
X137182126Y-95097807D01*
X137215611Y-95159130D01*
X137216918Y-95204887D01*
X137202631Y-95295092D01*
X137202631Y-95295097D01*
X137219998Y-95404753D01*
X137256059Y-95475526D01*
X137270404Y-95503681D01*
X137270409Y-95503687D01*
X137348907Y-95582185D01*
X137348910Y-95582187D01*
X137348913Y-95582190D01*
X137444189Y-95630735D01*
X137447841Y-95632596D01*
X137557498Y-95649964D01*
X137557500Y-95649964D01*
X137557502Y-95649964D01*
X137667158Y-95632596D01*
X137667159Y-95632595D01*
X137667161Y-95632595D01*
X137766087Y-95582190D01*
X137844595Y-95503682D01*
X137861929Y-95469661D01*
X137909899Y-95418868D01*
X137977719Y-95402071D01*
X138043855Y-95424607D01*
X138060093Y-95438276D01*
X138098907Y-95477090D01*
X138098910Y-95477092D01*
X138098913Y-95477095D01*
X138192675Y-95524869D01*
X138197841Y-95527501D01*
X138307498Y-95544869D01*
X138307500Y-95544869D01*
X138307502Y-95544869D01*
X138417158Y-95527501D01*
X138417159Y-95527500D01*
X138417161Y-95527500D01*
X138516087Y-95477095D01*
X138594595Y-95398587D01*
X138645000Y-95299661D01*
X138645000Y-95299659D01*
X138649430Y-95290966D01*
X138652852Y-95292709D01*
X138681590Y-95250637D01*
X138745935Y-95223406D01*
X138814788Y-95235286D01*
X138866287Y-95282504D01*
X138882605Y-95327193D01*
X138892498Y-95389658D01*
X138942904Y-95488585D01*
X138942909Y-95488592D01*
X139021407Y-95567090D01*
X139021410Y-95567092D01*
X139021413Y-95567095D01*
X139084319Y-95599147D01*
X139120341Y-95617501D01*
X139229998Y-95634869D01*
X139230000Y-95634869D01*
X139230002Y-95634869D01*
X139322477Y-95620222D01*
X139391770Y-95629176D01*
X139445222Y-95674172D01*
X139465862Y-95740924D01*
X139463068Y-95763037D01*
X139463393Y-95763075D01*
X139459500Y-95796625D01*
X139459500Y-96223365D01*
X139459502Y-96223388D01*
X139462317Y-96247659D01*
X139462318Y-96247662D01*
X139506186Y-96347015D01*
X139506187Y-96347016D01*
X139582984Y-96423813D01*
X139582989Y-96423815D01*
X139585574Y-96425586D01*
X139589205Y-96430034D01*
X139591109Y-96431938D01*
X139590916Y-96432130D01*
X139629758Y-96479711D01*
X139639500Y-96527888D01*
X139639500Y-96729829D01*
X139677636Y-96821897D01*
X139753181Y-96897442D01*
X139786666Y-96958765D01*
X139789500Y-96985123D01*
X139789500Y-97014876D01*
X139769815Y-97081915D01*
X139753181Y-97102557D01*
X139352556Y-97503181D01*
X139291233Y-97536666D01*
X139264875Y-97539500D01*
X138982384Y-97539500D01*
X138982361Y-97539502D01*
X138958504Y-97542269D01*
X138958501Y-97542269D01*
X138860864Y-97585380D01*
X138860856Y-97585386D01*
X138785386Y-97660856D01*
X138785381Y-97660863D01*
X138742270Y-97758499D01*
X138739500Y-97782375D01*
X138739500Y-98137615D01*
X138739502Y-98137638D01*
X138742269Y-98161495D01*
X138742269Y-98161498D01*
X138785380Y-98259135D01*
X138785383Y-98259139D01*
X138785384Y-98259141D01*
X138860859Y-98334616D01*
X138872894Y-98339930D01*
X138877731Y-98342066D01*
X138931107Y-98387152D01*
X138951634Y-98453938D01*
X138932795Y-98521221D01*
X138880572Y-98567637D01*
X138827644Y-98579500D01*
X135877932Y-98579500D01*
X135877932Y-98575944D01*
X135829078Y-98571563D01*
X135773909Y-98528690D01*
X135750677Y-98462796D01*
X135750500Y-98456182D01*
X135750500Y-97205177D01*
X135741767Y-97161279D01*
X135740266Y-97157654D01*
X135732794Y-97088185D01*
X135743458Y-97055669D01*
X135754766Y-97032576D01*
X135768205Y-96964011D01*
X135770451Y-96919809D01*
X135751025Y-96709356D01*
X135750500Y-96697959D01*
X135750500Y-95753208D01*
X135770185Y-95686169D01*
X135822989Y-95640414D01*
X135892147Y-95630470D01*
X135893898Y-95630735D01*
X135919998Y-95634869D01*
X135920000Y-95634869D01*
X135920002Y-95634869D01*
X136029658Y-95617501D01*
X136029659Y-95617500D01*
X136029661Y-95617500D01*
X136128587Y-95567095D01*
X136207095Y-95488587D01*
X136257500Y-95389661D01*
X136257500Y-95389659D01*
X136257501Y-95389658D01*
X136274869Y-95280002D01*
X136274869Y-95279997D01*
X136257501Y-95170341D01*
X136257326Y-95169997D01*
X136207095Y-95071413D01*
X136207092Y-95071410D01*
X136207090Y-95071407D01*
X136128592Y-94992909D01*
X136128588Y-94992906D01*
X136128587Y-94992905D01*
X136124743Y-94990946D01*
X136029658Y-94942498D01*
X135920002Y-94925131D01*
X135919998Y-94925131D01*
X135810342Y-94942498D01*
X135803544Y-94945962D01*
X135792256Y-94951713D01*
X135723589Y-94964608D01*
X135658849Y-94938330D01*
X135618593Y-94881223D01*
X135613492Y-94821828D01*
X135614006Y-94818587D01*
X135624869Y-94750000D01*
X135624869Y-94749997D01*
X135607501Y-94640341D01*
X135592043Y-94610003D01*
X135557095Y-94541413D01*
X135557092Y-94541410D01*
X135557090Y-94541407D01*
X135478592Y-94462909D01*
X135478588Y-94462906D01*
X135478587Y-94462905D01*
X135453263Y-94450002D01*
X135379658Y-94412498D01*
X135270002Y-94395131D01*
X135269998Y-94395131D01*
X135160341Y-94412498D01*
X135061414Y-94462904D01*
X135061407Y-94462909D01*
X134982909Y-94541407D01*
X134982906Y-94541412D01*
X134982905Y-94541413D01*
X134979180Y-94548722D01*
X134931207Y-94599517D01*
X134863386Y-94616312D01*
X134802568Y-94597321D01*
X134790914Y-94589974D01*
X134761090Y-94573913D01*
X134755027Y-94571433D01*
X134755566Y-94570114D01*
X134702986Y-94536536D01*
X134673992Y-94474462D01*
X134657501Y-94370341D01*
X134632106Y-94320500D01*
X134607095Y-94271413D01*
X134607092Y-94271410D01*
X134607090Y-94271407D01*
X134528592Y-94192909D01*
X134528588Y-94192906D01*
X134528587Y-94192905D01*
X134477769Y-94167012D01*
X134429658Y-94142498D01*
X134320002Y-94125131D01*
X134319998Y-94125131D01*
X134210341Y-94142498D01*
X134111414Y-94192904D01*
X134111407Y-94192909D01*
X134032909Y-94271407D01*
X134032904Y-94271414D01*
X133982498Y-94370341D01*
X133963604Y-94489639D01*
X133960020Y-94489071D01*
X133945446Y-94538706D01*
X133906173Y-94577239D01*
X133830879Y-94623627D01*
X133782906Y-94674421D01*
X133768868Y-94694335D01*
X133755202Y-94710568D01*
X133729935Y-94735835D01*
X133698550Y-94758638D01*
X133676965Y-94769636D01*
X133669196Y-94773878D01*
X133659567Y-94779500D01*
X133656948Y-94781029D01*
X133645971Y-94790270D01*
X133616382Y-94815179D01*
X133601469Y-94832895D01*
X133543235Y-94871504D01*
X133473373Y-94872500D01*
X133414062Y-94835568D01*
X133384133Y-94772433D01*
X133391936Y-94705850D01*
X133393865Y-94701164D01*
X133402822Y-94631871D01*
X133402819Y-94631691D01*
X133402405Y-94602640D01*
X133403917Y-94581482D01*
X133409159Y-94548381D01*
X133421145Y-94511493D01*
X133437317Y-94479754D01*
X133450147Y-94459633D01*
X133457363Y-94450414D01*
X133488145Y-94399364D01*
X133488523Y-94398735D01*
X133510464Y-94321290D01*
X133511462Y-94251428D01*
X133511392Y-94244025D01*
X133487979Y-94167012D01*
X133472715Y-94142498D01*
X133451065Y-94107729D01*
X133451047Y-94107701D01*
X133446987Y-94101514D01*
X133385655Y-94049385D01*
X133385651Y-94049383D01*
X133322524Y-94019457D01*
X133305749Y-94014269D01*
X133286096Y-94006291D01*
X133251450Y-93988639D01*
X133220061Y-93965834D01*
X133204162Y-93949935D01*
X133181359Y-93918551D01*
X133171145Y-93898504D01*
X133159159Y-93861608D01*
X133155641Y-93839390D01*
X133155641Y-93800602D01*
X133159159Y-93778387D01*
X133171148Y-93741488D01*
X133171272Y-93741245D01*
X133188130Y-93708159D01*
X133196334Y-93688974D01*
X133207312Y-93657634D01*
X133215520Y-93593336D01*
X133209728Y-93523707D01*
X133208939Y-93516348D01*
X133178158Y-93441973D01*
X133135642Y-93386530D01*
X133103986Y-93355599D01*
X133103982Y-93355596D01*
X133103980Y-93355594D01*
X132851345Y-93171002D01*
X132808828Y-93115558D01*
X132800500Y-93070881D01*
X132800500Y-92965000D01*
X139944659Y-92965000D01*
X139963975Y-93161129D01*
X140021188Y-93349733D01*
X140114086Y-93523532D01*
X140114090Y-93523539D01*
X140239116Y-93675883D01*
X140391460Y-93800909D01*
X140391467Y-93800913D01*
X140565266Y-93893811D01*
X140565269Y-93893811D01*
X140565273Y-93893814D01*
X140753868Y-93951024D01*
X140950000Y-93970341D01*
X141146132Y-93951024D01*
X141334727Y-93893814D01*
X141358686Y-93881008D01*
X141508532Y-93800913D01*
X141508538Y-93800910D01*
X141660883Y-93675883D01*
X141785910Y-93523538D01*
X141859142Y-93386530D01*
X141878811Y-93349733D01*
X141878811Y-93349732D01*
X141878814Y-93349727D01*
X141936024Y-93161132D01*
X141955341Y-92965000D01*
X142484659Y-92965000D01*
X142503975Y-93161129D01*
X142561188Y-93349733D01*
X142654086Y-93523532D01*
X142654090Y-93523539D01*
X142779116Y-93675883D01*
X142931460Y-93800909D01*
X142931467Y-93800913D01*
X143105266Y-93893811D01*
X143105269Y-93893811D01*
X143105273Y-93893814D01*
X143293868Y-93951024D01*
X143490000Y-93970341D01*
X143686132Y-93951024D01*
X143874727Y-93893814D01*
X143898686Y-93881008D01*
X144048532Y-93800913D01*
X144048538Y-93800910D01*
X144200883Y-93675883D01*
X144325910Y-93523538D01*
X144399142Y-93386530D01*
X144418811Y-93349733D01*
X144418811Y-93349732D01*
X144418814Y-93349727D01*
X144476024Y-93161132D01*
X144495341Y-92965000D01*
X145024659Y-92965000D01*
X145043975Y-93161129D01*
X145101188Y-93349733D01*
X145194086Y-93523532D01*
X145194090Y-93523539D01*
X145319116Y-93675883D01*
X145471460Y-93800909D01*
X145471467Y-93800913D01*
X145645266Y-93893811D01*
X145645269Y-93893811D01*
X145645273Y-93893814D01*
X145833868Y-93951024D01*
X146030000Y-93970341D01*
X146226132Y-93951024D01*
X146414727Y-93893814D01*
X146438686Y-93881008D01*
X146588532Y-93800913D01*
X146588538Y-93800910D01*
X146740883Y-93675883D01*
X146865910Y-93523538D01*
X146939142Y-93386530D01*
X146958811Y-93349733D01*
X146958811Y-93349732D01*
X146958814Y-93349727D01*
X147016024Y-93161132D01*
X147035341Y-92965000D01*
X147016024Y-92768868D01*
X146958814Y-92580273D01*
X146958811Y-92580269D01*
X146958811Y-92580266D01*
X146865913Y-92406467D01*
X146865909Y-92406460D01*
X146740883Y-92254116D01*
X146588539Y-92129090D01*
X146588532Y-92129086D01*
X146414733Y-92036188D01*
X146414727Y-92036186D01*
X146226132Y-91978976D01*
X146226129Y-91978975D01*
X146030000Y-91959659D01*
X145833870Y-91978975D01*
X145645266Y-92036188D01*
X145471467Y-92129086D01*
X145471460Y-92129090D01*
X145319116Y-92254116D01*
X145194090Y-92406460D01*
X145194086Y-92406467D01*
X145101188Y-92580266D01*
X145043975Y-92768870D01*
X145024659Y-92965000D01*
X144495341Y-92965000D01*
X144476024Y-92768868D01*
X144418814Y-92580273D01*
X144418811Y-92580269D01*
X144418811Y-92580266D01*
X144325913Y-92406467D01*
X144325909Y-92406460D01*
X144200883Y-92254116D01*
X144048539Y-92129090D01*
X144048532Y-92129086D01*
X143874733Y-92036188D01*
X143874727Y-92036186D01*
X143686132Y-91978976D01*
X143686129Y-91978975D01*
X143490000Y-91959659D01*
X143293870Y-91978975D01*
X143105266Y-92036188D01*
X142931467Y-92129086D01*
X142931460Y-92129090D01*
X142779116Y-92254116D01*
X142654090Y-92406460D01*
X142654086Y-92406467D01*
X142561188Y-92580266D01*
X142503975Y-92768870D01*
X142484659Y-92965000D01*
X141955341Y-92965000D01*
X141936024Y-92768868D01*
X141878814Y-92580273D01*
X141878811Y-92580269D01*
X141878811Y-92580266D01*
X141785913Y-92406467D01*
X141785909Y-92406460D01*
X141660883Y-92254116D01*
X141508539Y-92129090D01*
X141508532Y-92129086D01*
X141334733Y-92036188D01*
X141334727Y-92036186D01*
X141146132Y-91978976D01*
X141146129Y-91978975D01*
X140950000Y-91959659D01*
X140753870Y-91978975D01*
X140565266Y-92036188D01*
X140391467Y-92129086D01*
X140391460Y-92129090D01*
X140239116Y-92254116D01*
X140114090Y-92406460D01*
X140114086Y-92406467D01*
X140021188Y-92580266D01*
X139963975Y-92768870D01*
X139944659Y-92965000D01*
X132800500Y-92965000D01*
X132800500Y-92355177D01*
X132791768Y-92311282D01*
X132791767Y-92311281D01*
X132791767Y-92311278D01*
X132758504Y-92261496D01*
X132748586Y-92254869D01*
X132708724Y-92228234D01*
X132708717Y-92228231D01*
X132664822Y-92219500D01*
X132664820Y-92219500D01*
X131135180Y-92219500D01*
X131135178Y-92219500D01*
X131091282Y-92228231D01*
X131091275Y-92228234D01*
X131041496Y-92261495D01*
X131037681Y-92265311D01*
X130976358Y-92298796D01*
X130906666Y-92293812D01*
X130862319Y-92265311D01*
X130858503Y-92261495D01*
X130808724Y-92228234D01*
X130808717Y-92228231D01*
X130764822Y-92219500D01*
X130764820Y-92219500D01*
X129235180Y-92219500D01*
X129235178Y-92219500D01*
X129191282Y-92228231D01*
X129191275Y-92228234D01*
X129141496Y-92261495D01*
X129137681Y-92265311D01*
X129076358Y-92298796D01*
X129006666Y-92293812D01*
X128962319Y-92265311D01*
X128958503Y-92261495D01*
X128908724Y-92228234D01*
X128908717Y-92228231D01*
X128864822Y-92219500D01*
X128864820Y-92219500D01*
X127335180Y-92219500D01*
X127335178Y-92219500D01*
X127291282Y-92228231D01*
X127291275Y-92228234D01*
X127241496Y-92261495D01*
X127237681Y-92265311D01*
X127176358Y-92298796D01*
X127106666Y-92293812D01*
X127062319Y-92265311D01*
X127058503Y-92261495D01*
X127008724Y-92228234D01*
X127008717Y-92228231D01*
X126964822Y-92219500D01*
X126964820Y-92219500D01*
X125435180Y-92219500D01*
X125435178Y-92219500D01*
X125391282Y-92228231D01*
X125391275Y-92228234D01*
X125341496Y-92261495D01*
X125337681Y-92265311D01*
X125276358Y-92298796D01*
X125206666Y-92293812D01*
X125162319Y-92265311D01*
X125158503Y-92261495D01*
X125108724Y-92228234D01*
X125108717Y-92228231D01*
X125064822Y-92219500D01*
X125064820Y-92219500D01*
X123535180Y-92219500D01*
X123535178Y-92219500D01*
X123491282Y-92228231D01*
X123491275Y-92228234D01*
X123441496Y-92261495D01*
X123441495Y-92261496D01*
X123408234Y-92311275D01*
X123408231Y-92311282D01*
X123399500Y-92355177D01*
X123399500Y-93109226D01*
X123379815Y-93176265D01*
X123363181Y-93196907D01*
X122361691Y-94198397D01*
X122349887Y-94211633D01*
X122349878Y-94211644D01*
X122332302Y-94233776D01*
X122332299Y-94233781D01*
X122304266Y-94288799D01*
X122304264Y-94288805D01*
X122285539Y-94356112D01*
X122283725Y-94363287D01*
X122283724Y-94363293D01*
X122286177Y-94427716D01*
X122269057Y-94495456D01*
X122218032Y-94543186D01*
X122153422Y-94556117D01*
X122110751Y-94553065D01*
X122103371Y-94552713D01*
X122103366Y-94552714D01*
X122025146Y-94571689D01*
X121963819Y-94605175D01*
X121928398Y-94631691D01*
X121928380Y-94631707D01*
X121512955Y-95047135D01*
X121426909Y-95133181D01*
X121365586Y-95166666D01*
X121339228Y-95169500D01*
X120585178Y-95169500D01*
X120541282Y-95178231D01*
X120541275Y-95178234D01*
X120491496Y-95211495D01*
X120491495Y-95211496D01*
X120458234Y-95261275D01*
X120458231Y-95261282D01*
X120449500Y-95305177D01*
X120449500Y-95305180D01*
X120449500Y-96834820D01*
X120449500Y-96834822D01*
X120449499Y-96834822D01*
X120458231Y-96878717D01*
X120458234Y-96878724D01*
X120491495Y-96928503D01*
X120495311Y-96932319D01*
X120528796Y-96993642D01*
X120523812Y-97063334D01*
X120495311Y-97107681D01*
X120491495Y-97111496D01*
X120458234Y-97161275D01*
X120458231Y-97161282D01*
X120449500Y-97205177D01*
X120449500Y-98734822D01*
X120458231Y-98778717D01*
X120458234Y-98778724D01*
X120491495Y-98828503D01*
X120495311Y-98832319D01*
X120528796Y-98893642D01*
X120523812Y-98963334D01*
X120495311Y-99007681D01*
X120491495Y-99011496D01*
X120458234Y-99061275D01*
X120458231Y-99061282D01*
X120449500Y-99105177D01*
X120449500Y-99105180D01*
X120449500Y-100634820D01*
X120449500Y-100634822D01*
X120449499Y-100634822D01*
X120458231Y-100678717D01*
X120458234Y-100678724D01*
X120491495Y-100728503D01*
X120495311Y-100732319D01*
X120528796Y-100793642D01*
X120523812Y-100863334D01*
X120495311Y-100907681D01*
X120491495Y-100911496D01*
X120458234Y-100961275D01*
X120458231Y-100961282D01*
X120449500Y-101005177D01*
X120449500Y-102534827D01*
X120450326Y-102538979D01*
X120444093Y-102608570D01*
X120434588Y-102627699D01*
X120400485Y-102683647D01*
X120400483Y-102683651D01*
X120380799Y-102750687D01*
X120380797Y-102750697D01*
X120374500Y-102794496D01*
X120374500Y-104344051D01*
X120377025Y-104366706D01*
X120378316Y-104378287D01*
X120390340Y-104431554D01*
X120402962Y-104456048D01*
X120426110Y-104500969D01*
X120450074Y-104527767D01*
X120472684Y-104553051D01*
X120477747Y-104558449D01*
X120547125Y-104599264D01*
X120614464Y-104617899D01*
X120658366Y-104623513D01*
X122164700Y-104599976D01*
X122232037Y-104618611D01*
X122278611Y-104670694D01*
X122289634Y-104739688D01*
X122261605Y-104803690D01*
X122247142Y-104817174D01*
X122162909Y-104901407D01*
X122162904Y-104901414D01*
X122112498Y-105000341D01*
X122095131Y-105109997D01*
X122095131Y-105110002D01*
X122112498Y-105219658D01*
X122162904Y-105318585D01*
X122162909Y-105318592D01*
X122170532Y-105326215D01*
X122204017Y-105387538D01*
X122199033Y-105457230D01*
X122193337Y-105470189D01*
X122152498Y-105550342D01*
X122135131Y-105659997D01*
X122135131Y-105660002D01*
X122152498Y-105769658D01*
X122202904Y-105868585D01*
X122202909Y-105868592D01*
X122281407Y-105947090D01*
X122281410Y-105947092D01*
X122281413Y-105947095D01*
X122380339Y-105997500D01*
X122380341Y-105997501D01*
X122489998Y-106014869D01*
X122490000Y-106014869D01*
X122490002Y-106014869D01*
X122599658Y-105997501D01*
X122599659Y-105997500D01*
X122599661Y-105997500D01*
X122698587Y-105947095D01*
X122698592Y-105947090D01*
X122757319Y-105888364D01*
X122818642Y-105854879D01*
X122888334Y-105859863D01*
X122932681Y-105888364D01*
X123011407Y-105967090D01*
X123011410Y-105967092D01*
X123011413Y-105967095D01*
X123071087Y-105997500D01*
X123110341Y-106017501D01*
X123219998Y-106034869D01*
X123228306Y-106034869D01*
X123295345Y-106054554D01*
X123341100Y-106107358D01*
X123352237Y-106154738D01*
X123390517Y-107303127D01*
X123390518Y-107303147D01*
X123394883Y-107334891D01*
X123394884Y-107334897D01*
X123395948Y-107339244D01*
X123399500Y-107368711D01*
X123399500Y-107384820D01*
X123399500Y-107384822D01*
X123399499Y-107384822D01*
X123408231Y-107428717D01*
X123408234Y-107428724D01*
X123441495Y-107478503D01*
X123441496Y-107478504D01*
X123452455Y-107485827D01*
X123497259Y-107539440D01*
X123505966Y-107608765D01*
X123475811Y-107671792D01*
X123456449Y-107689246D01*
X123451409Y-107692907D01*
X123372909Y-107771407D01*
X123372904Y-107771414D01*
X123322498Y-107870341D01*
X123305131Y-107979997D01*
X123305131Y-107980002D01*
X123322498Y-108089658D01*
X123372904Y-108188585D01*
X123372909Y-108188592D01*
X123451407Y-108267090D01*
X123451410Y-108267092D01*
X123451413Y-108267095D01*
X123550339Y-108317500D01*
X123550341Y-108317501D01*
X123659998Y-108334869D01*
X123660000Y-108334869D01*
X123660002Y-108334869D01*
X123756102Y-108319648D01*
X123825395Y-108328602D01*
X123878847Y-108373599D01*
X123899487Y-108440350D01*
X123899500Y-108442121D01*
X123899500Y-109082728D01*
X123928851Y-109192271D01*
X123933075Y-109224855D01*
X123930651Y-109835992D01*
X123910701Y-109902953D01*
X123857716Y-109948498D01*
X123806652Y-109959500D01*
X119504500Y-109959500D01*
X119437461Y-109939815D01*
X119391706Y-109887011D01*
X119380500Y-109835500D01*
X119380500Y-108355943D01*
X121729500Y-108355943D01*
X121729500Y-108514057D01*
X121753307Y-108602904D01*
X121770423Y-108666783D01*
X121770426Y-108666790D01*
X121849475Y-108803709D01*
X121849479Y-108803714D01*
X121849480Y-108803716D01*
X121961284Y-108915520D01*
X121961286Y-108915521D01*
X121961290Y-108915524D01*
X122098209Y-108994573D01*
X122098216Y-108994577D01*
X122250943Y-109035500D01*
X122250945Y-109035500D01*
X122409055Y-109035500D01*
X122409057Y-109035500D01*
X122561784Y-108994577D01*
X122698716Y-108915520D01*
X122810520Y-108803716D01*
X122889577Y-108666784D01*
X122930500Y-108514057D01*
X122930500Y-108355943D01*
X122889577Y-108203216D01*
X122823056Y-108087997D01*
X122810524Y-108066290D01*
X122810518Y-108066282D01*
X122698717Y-107954481D01*
X122698709Y-107954475D01*
X122561790Y-107875426D01*
X122561786Y-107875424D01*
X122561784Y-107875423D01*
X122409057Y-107834500D01*
X122250943Y-107834500D01*
X122098216Y-107875423D01*
X122098209Y-107875426D01*
X121961290Y-107954475D01*
X121961282Y-107954481D01*
X121849481Y-108066282D01*
X121849475Y-108066290D01*
X121770426Y-108203209D01*
X121770423Y-108203216D01*
X121729500Y-108355943D01*
X119380500Y-108355943D01*
X119380500Y-106369997D01*
X121215131Y-106369997D01*
X121215131Y-106370002D01*
X121232498Y-106479658D01*
X121282904Y-106578585D01*
X121282909Y-106578592D01*
X121346636Y-106642319D01*
X121380121Y-106703642D01*
X121375137Y-106773334D01*
X121346636Y-106817681D01*
X121292909Y-106871407D01*
X121292904Y-106871414D01*
X121242498Y-106970341D01*
X121225131Y-107079997D01*
X121225131Y-107080002D01*
X121242498Y-107189658D01*
X121292904Y-107288585D01*
X121292909Y-107288592D01*
X121371407Y-107367090D01*
X121371410Y-107367092D01*
X121371413Y-107367095D01*
X121430745Y-107397326D01*
X121470341Y-107417501D01*
X121579998Y-107434869D01*
X121580000Y-107434869D01*
X121580002Y-107434869D01*
X121689658Y-107417501D01*
X121689659Y-107417500D01*
X121689661Y-107417500D01*
X121788587Y-107367095D01*
X121867095Y-107288587D01*
X121917500Y-107189661D01*
X121917500Y-107189659D01*
X121917501Y-107189658D01*
X121934869Y-107080002D01*
X121934869Y-107079997D01*
X121917501Y-106970341D01*
X121917500Y-106970339D01*
X121867095Y-106871413D01*
X121867092Y-106871410D01*
X121867090Y-106871407D01*
X121803364Y-106807681D01*
X121769879Y-106746358D01*
X121774863Y-106676666D01*
X121803364Y-106632319D01*
X121857090Y-106578592D01*
X121857095Y-106578587D01*
X121907500Y-106479661D01*
X121907500Y-106479659D01*
X121907501Y-106479658D01*
X121924869Y-106370002D01*
X121924869Y-106369997D01*
X121907501Y-106260341D01*
X121907500Y-106260339D01*
X121857095Y-106161413D01*
X121857092Y-106161410D01*
X121857090Y-106161407D01*
X121778592Y-106082909D01*
X121778588Y-106082906D01*
X121778587Y-106082905D01*
X121722945Y-106054554D01*
X121679658Y-106032498D01*
X121570002Y-106015131D01*
X121569998Y-106015131D01*
X121460341Y-106032498D01*
X121361414Y-106082904D01*
X121361407Y-106082909D01*
X121282909Y-106161407D01*
X121282904Y-106161414D01*
X121232498Y-106260341D01*
X121215131Y-106369997D01*
X119380500Y-106369997D01*
X119380500Y-91909997D01*
X133025131Y-91909997D01*
X133025131Y-91910002D01*
X133042498Y-92019658D01*
X133092904Y-92118585D01*
X133092909Y-92118592D01*
X133171407Y-92197090D01*
X133171410Y-92197092D01*
X133171413Y-92197095D01*
X133250713Y-92237500D01*
X133270341Y-92247501D01*
X133379998Y-92264869D01*
X133380000Y-92264869D01*
X133380002Y-92264869D01*
X133489658Y-92247501D01*
X133489659Y-92247500D01*
X133489661Y-92247500D01*
X133588587Y-92197095D01*
X133667095Y-92118587D01*
X133717500Y-92019661D01*
X133717500Y-92019659D01*
X133717501Y-92019658D01*
X133734869Y-91910002D01*
X133734869Y-91909997D01*
X133733285Y-91899997D01*
X134685131Y-91899997D01*
X134685131Y-91900002D01*
X134702498Y-92009658D01*
X134752904Y-92108585D01*
X134752909Y-92108592D01*
X134831407Y-92187090D01*
X134831410Y-92187092D01*
X134831413Y-92187095D01*
X134930339Y-92237500D01*
X134930341Y-92237501D01*
X135039998Y-92254869D01*
X135040000Y-92254869D01*
X135040002Y-92254869D01*
X135149658Y-92237501D01*
X135149659Y-92237500D01*
X135149661Y-92237500D01*
X135248587Y-92187095D01*
X135327095Y-92108587D01*
X135377500Y-92009661D01*
X135377500Y-92009659D01*
X135377501Y-92009658D01*
X135390118Y-91929997D01*
X136365131Y-91929997D01*
X136365131Y-91930002D01*
X136382498Y-92039658D01*
X136432904Y-92138585D01*
X136432909Y-92138592D01*
X136511407Y-92217090D01*
X136511410Y-92217092D01*
X136511413Y-92217095D01*
X136605175Y-92264869D01*
X136610341Y-92267501D01*
X136719998Y-92284869D01*
X136720000Y-92284869D01*
X136720002Y-92284869D01*
X136829658Y-92267501D01*
X136829659Y-92267500D01*
X136829661Y-92267500D01*
X136928587Y-92217095D01*
X137007095Y-92138587D01*
X137057500Y-92039661D01*
X137057500Y-92039659D01*
X137057501Y-92039658D01*
X137073286Y-91939997D01*
X138045131Y-91939997D01*
X138045131Y-91940002D01*
X138062498Y-92049658D01*
X138112904Y-92148585D01*
X138112909Y-92148592D01*
X138191407Y-92227090D01*
X138191410Y-92227092D01*
X138191413Y-92227095D01*
X138265549Y-92264869D01*
X138290341Y-92277501D01*
X138399998Y-92294869D01*
X138400000Y-92294869D01*
X138400002Y-92294869D01*
X138509658Y-92277501D01*
X138509659Y-92277500D01*
X138509661Y-92277500D01*
X138608587Y-92227095D01*
X138687095Y-92148587D01*
X138737500Y-92049661D01*
X138737500Y-92049659D01*
X138737501Y-92049658D01*
X138754869Y-91940002D01*
X138754869Y-91939997D01*
X138737501Y-91830341D01*
X138717119Y-91790339D01*
X138687095Y-91731413D01*
X138687092Y-91731410D01*
X138687090Y-91731407D01*
X138608592Y-91652909D01*
X138608588Y-91652906D01*
X138608587Y-91652905D01*
X138588959Y-91642904D01*
X138509658Y-91602498D01*
X138400002Y-91585131D01*
X138399998Y-91585131D01*
X138290341Y-91602498D01*
X138191414Y-91652904D01*
X138191407Y-91652909D01*
X138112909Y-91731407D01*
X138112904Y-91731414D01*
X138062498Y-91830341D01*
X138045131Y-91939997D01*
X137073286Y-91939997D01*
X137074869Y-91930002D01*
X137074869Y-91929997D01*
X137057501Y-91820341D01*
X137057500Y-91820339D01*
X137007095Y-91721413D01*
X137007092Y-91721410D01*
X137007090Y-91721407D01*
X136928592Y-91642909D01*
X136928588Y-91642906D01*
X136928587Y-91642905D01*
X136924743Y-91640946D01*
X136829658Y-91592498D01*
X136720002Y-91575131D01*
X136719998Y-91575131D01*
X136610341Y-91592498D01*
X136511414Y-91642904D01*
X136511407Y-91642909D01*
X136432909Y-91721407D01*
X136432904Y-91721414D01*
X136382498Y-91820341D01*
X136365131Y-91929997D01*
X135390118Y-91929997D01*
X135394869Y-91900002D01*
X135394869Y-91899997D01*
X135377501Y-91790341D01*
X135342381Y-91721414D01*
X135327095Y-91691413D01*
X135327092Y-91691410D01*
X135327090Y-91691407D01*
X135248592Y-91612909D01*
X135248588Y-91612906D01*
X135248587Y-91612905D01*
X135208536Y-91592498D01*
X135149658Y-91562498D01*
X135040002Y-91545131D01*
X135039998Y-91545131D01*
X134930341Y-91562498D01*
X134831414Y-91612904D01*
X134831407Y-91612909D01*
X134752909Y-91691407D01*
X134752904Y-91691414D01*
X134702498Y-91790341D01*
X134685131Y-91899997D01*
X133733285Y-91899997D01*
X133717501Y-91800341D01*
X133682381Y-91731414D01*
X133667095Y-91701413D01*
X133667092Y-91701410D01*
X133667090Y-91701407D01*
X133588592Y-91622909D01*
X133588588Y-91622906D01*
X133588587Y-91622905D01*
X133548536Y-91602498D01*
X133489658Y-91572498D01*
X133380002Y-91555131D01*
X133379998Y-91555131D01*
X133270341Y-91572498D01*
X133171414Y-91622904D01*
X133171407Y-91622909D01*
X133092909Y-91701407D01*
X133092904Y-91701414D01*
X133042498Y-91800341D01*
X133025131Y-91909997D01*
X119380500Y-91909997D01*
X119380500Y-91284500D01*
X119400185Y-91217461D01*
X119452989Y-91171706D01*
X119504500Y-91160500D01*
X152165500Y-91160500D01*
X152232539Y-91180185D01*
G37*
%TD.AperFunction*%
%TA.AperFunction,Conductor*%
G36*
X138682540Y-99050185D02*
G01*
X138728295Y-99102989D01*
X138739501Y-99154500D01*
X138739501Y-99157615D01*
X138739502Y-99157638D01*
X138742269Y-99181495D01*
X138742269Y-99181498D01*
X138785380Y-99279135D01*
X138785383Y-99279139D01*
X138785384Y-99279141D01*
X138860859Y-99354616D01*
X138860862Y-99354617D01*
X138860863Y-99354618D01*
X138958499Y-99397729D01*
X138958500Y-99397729D01*
X138958502Y-99397730D01*
X138982377Y-99400500D01*
X139430228Y-99400499D01*
X139497267Y-99420183D01*
X139543022Y-99472987D01*
X139552966Y-99542146D01*
X139523941Y-99605702D01*
X139517909Y-99612181D01*
X139446907Y-99683182D01*
X139385583Y-99716666D01*
X139359226Y-99719500D01*
X139086634Y-99719500D01*
X139086611Y-99719502D01*
X139062343Y-99722316D01*
X139062331Y-99722320D01*
X139049547Y-99727964D01*
X139025835Y-99735691D01*
X139009434Y-99739259D01*
X138940656Y-99773687D01*
X138887860Y-99819436D01*
X138882376Y-99824422D01*
X138840486Y-99893145D01*
X138840483Y-99893151D01*
X138820799Y-99960187D01*
X138820797Y-99960197D01*
X138814500Y-100003996D01*
X138814500Y-102218638D01*
X138815390Y-102235245D01*
X138815394Y-102235297D01*
X138818224Y-102261619D01*
X138818225Y-102261621D01*
X138836354Y-102319516D01*
X138836359Y-102319529D01*
X138864331Y-102370754D01*
X138879500Y-102430182D01*
X138879500Y-102644617D01*
X138868935Y-102694702D01*
X138852318Y-102732335D01*
X138852318Y-102732337D01*
X138849500Y-102756625D01*
X138849500Y-102831705D01*
X138829815Y-102898744D01*
X138813181Y-102919386D01*
X138547605Y-103184961D01*
X138547603Y-103184964D01*
X138494875Y-103276289D01*
X138494875Y-103276290D01*
X138479920Y-103332102D01*
X138443555Y-103391762D01*
X138380707Y-103422290D01*
X138311332Y-103413995D01*
X138303852Y-103410492D01*
X138209658Y-103362498D01*
X138100002Y-103345131D01*
X138099998Y-103345131D01*
X137990341Y-103362498D01*
X137891412Y-103412905D01*
X137887878Y-103415473D01*
X137882861Y-103417262D01*
X137882717Y-103417336D01*
X137882707Y-103417317D01*
X137822070Y-103438947D01*
X137754017Y-103423117D01*
X137742122Y-103415473D01*
X137738587Y-103412905D01*
X137639658Y-103362498D01*
X137530002Y-103345131D01*
X137529998Y-103345131D01*
X137420342Y-103362498D01*
X137333101Y-103406949D01*
X137264432Y-103419844D01*
X137203927Y-103396784D01*
X137198589Y-103392906D01*
X137099658Y-103342498D01*
X136990002Y-103325131D01*
X136989998Y-103325131D01*
X136880342Y-103342498D01*
X136786940Y-103390088D01*
X136718271Y-103402983D01*
X136653531Y-103376705D01*
X136642966Y-103367283D01*
X136628592Y-103352909D01*
X136628588Y-103352906D01*
X136628587Y-103352905D01*
X136608162Y-103342498D01*
X136529658Y-103302498D01*
X136420002Y-103285131D01*
X136419998Y-103285131D01*
X136310340Y-103302499D01*
X136310339Y-103302499D01*
X136309683Y-103302834D01*
X136308799Y-103302999D01*
X136301063Y-103305514D01*
X136300737Y-103304513D01*
X136241013Y-103315727D01*
X136176274Y-103289448D01*
X136165720Y-103280036D01*
X136108589Y-103222905D01*
X136078673Y-103207662D01*
X136009660Y-103172498D01*
X135890363Y-103153604D01*
X135890982Y-103149693D01*
X135842461Y-103135446D01*
X135796706Y-103082642D01*
X135785500Y-103031131D01*
X135785500Y-102794508D01*
X135785499Y-102794496D01*
X135781946Y-102761445D01*
X135770740Y-102709934D01*
X135750352Y-102669205D01*
X135737947Y-102600447D01*
X135739620Y-102589507D01*
X135741765Y-102578724D01*
X135741767Y-102578722D01*
X135750500Y-102534820D01*
X135750500Y-101005180D01*
X135750500Y-101005177D01*
X135741768Y-100961282D01*
X135741767Y-100961281D01*
X135741767Y-100961278D01*
X135708504Y-100911496D01*
X135704689Y-100907681D01*
X135671204Y-100846358D01*
X135676188Y-100776666D01*
X135704689Y-100732319D01*
X135708500Y-100728506D01*
X135708504Y-100728504D01*
X135741767Y-100678722D01*
X135743999Y-100667500D01*
X135750500Y-100634822D01*
X135750500Y-99244501D01*
X135770185Y-99177462D01*
X135822989Y-99131707D01*
X135874500Y-99120501D01*
X135889853Y-99120501D01*
X135889855Y-99120501D01*
X135948460Y-99096225D01*
X135972736Y-99086170D01*
X135992087Y-99066819D01*
X136053410Y-99033334D01*
X136079768Y-99030500D01*
X138615501Y-99030500D01*
X138682540Y-99050185D01*
G37*
%TD.AperFunction*%
%TA.AperFunction,Conductor*%
G36*
X140785720Y-97244364D02*
G01*
X140832136Y-97296587D01*
X140833434Y-97299430D01*
X140842638Y-97320276D01*
X140855384Y-97349141D01*
X140930859Y-97424616D01*
X140930862Y-97424617D01*
X140930863Y-97424618D01*
X141028499Y-97467729D01*
X141028500Y-97467729D01*
X141028502Y-97467730D01*
X141052377Y-97470500D01*
X141330232Y-97470499D01*
X141397271Y-97490183D01*
X141417913Y-97506818D01*
X141488181Y-97577086D01*
X141521666Y-97638409D01*
X141524500Y-97664767D01*
X141524500Y-98428960D01*
X141504815Y-98495999D01*
X141469390Y-98532062D01*
X141466496Y-98533995D01*
X141466495Y-98533996D01*
X141433234Y-98583775D01*
X141433231Y-98583782D01*
X141424500Y-98627677D01*
X141424500Y-98853041D01*
X141404815Y-98920080D01*
X141352011Y-98965835D01*
X141282853Y-98975779D01*
X141276309Y-98974658D01*
X141240323Y-98967500D01*
X141240320Y-98967500D01*
X141082767Y-98967500D01*
X141015728Y-98947815D01*
X140995086Y-98931181D01*
X140933611Y-98869706D01*
X140933609Y-98869703D01*
X140852737Y-98788831D01*
X140852736Y-98788830D01*
X140827802Y-98778502D01*
X140769855Y-98754499D01*
X140680145Y-98754499D01*
X140665711Y-98754499D01*
X140665703Y-98754500D01*
X139747930Y-98754500D01*
X139680891Y-98734815D01*
X139641890Y-98689805D01*
X139641110Y-98690340D01*
X139636417Y-98683489D01*
X139635136Y-98682011D01*
X139634624Y-98680872D01*
X139634617Y-98680862D01*
X139634616Y-98680859D01*
X139559141Y-98605384D01*
X139510209Y-98583778D01*
X139509428Y-98583433D01*
X139456053Y-98538346D01*
X139435526Y-98471560D01*
X139454365Y-98404278D01*
X139506589Y-98357862D01*
X139509344Y-98356603D01*
X139559141Y-98334616D01*
X139634616Y-98259141D01*
X139677730Y-98161498D01*
X139680500Y-98137623D01*
X139680499Y-97935122D01*
X139700183Y-97868083D01*
X139716813Y-97847446D01*
X140057442Y-97506818D01*
X140118765Y-97473333D01*
X140145123Y-97470499D01*
X140387616Y-97470499D01*
X140387622Y-97470499D01*
X140411498Y-97467730D01*
X140509135Y-97424619D01*
X140509136Y-97424618D01*
X140509141Y-97424616D01*
X140584616Y-97349141D01*
X140606566Y-97299430D01*
X140651651Y-97246054D01*
X140718438Y-97225526D01*
X140785720Y-97244364D01*
G37*
%TD.AperFunction*%
%TD*%
%TA.AperFunction,Conductor*%
%TO.N,GNDGPS*%
G36*
X125242539Y-92819685D02*
G01*
X125288294Y-92872489D01*
X125299500Y-92924000D01*
X125299500Y-94184820D01*
X125299500Y-94184822D01*
X125299499Y-94184822D01*
X125308231Y-94228717D01*
X125308234Y-94228724D01*
X125331451Y-94263471D01*
X125352329Y-94330148D01*
X125338834Y-94388655D01*
X125312498Y-94440341D01*
X125295131Y-94549997D01*
X125295131Y-94550002D01*
X125312498Y-94659658D01*
X125362904Y-94758585D01*
X125362909Y-94758592D01*
X125441407Y-94837090D01*
X125441410Y-94837092D01*
X125441413Y-94837095D01*
X125519908Y-94877090D01*
X125540341Y-94887501D01*
X125649998Y-94904869D01*
X125650000Y-94904869D01*
X125650002Y-94904869D01*
X125759657Y-94887501D01*
X125759658Y-94887500D01*
X125759661Y-94887500D01*
X125793436Y-94870290D01*
X125862103Y-94857394D01*
X125926844Y-94883670D01*
X125937411Y-94893094D01*
X125981407Y-94937090D01*
X125981410Y-94937092D01*
X125981413Y-94937095D01*
X126023594Y-94958587D01*
X126080341Y-94987501D01*
X126189998Y-95004869D01*
X126190000Y-95004869D01*
X126190002Y-95004869D01*
X126299658Y-94987501D01*
X126299659Y-94987500D01*
X126299661Y-94987500D01*
X126398587Y-94937095D01*
X126477095Y-94858587D01*
X126527500Y-94759661D01*
X126527500Y-94759659D01*
X126527501Y-94759658D01*
X126544869Y-94650002D01*
X126544869Y-94649997D01*
X126527501Y-94540341D01*
X126507351Y-94500794D01*
X126494455Y-94432125D01*
X126520732Y-94367384D01*
X126577839Y-94327128D01*
X126617836Y-94320500D01*
X126964822Y-94320500D01*
X127008717Y-94311768D01*
X127008717Y-94311767D01*
X127008722Y-94311767D01*
X127058504Y-94278504D01*
X127058506Y-94278500D01*
X127062319Y-94274689D01*
X127123642Y-94241204D01*
X127193334Y-94246188D01*
X127237681Y-94274689D01*
X127241495Y-94278503D01*
X127241496Y-94278504D01*
X127291278Y-94311767D01*
X127291281Y-94311767D01*
X127291282Y-94311768D01*
X127335177Y-94320500D01*
X127335180Y-94320500D01*
X128864822Y-94320500D01*
X128908717Y-94311768D01*
X128908717Y-94311767D01*
X128908722Y-94311767D01*
X128958504Y-94278504D01*
X128958506Y-94278500D01*
X128962319Y-94274689D01*
X129023642Y-94241204D01*
X129093334Y-94246188D01*
X129137681Y-94274689D01*
X129141495Y-94278503D01*
X129141496Y-94278504D01*
X129191278Y-94311767D01*
X129191281Y-94311767D01*
X129191282Y-94311768D01*
X129235177Y-94320500D01*
X129235180Y-94320500D01*
X130764822Y-94320500D01*
X130808717Y-94311768D01*
X130808717Y-94311767D01*
X130808722Y-94311767D01*
X130858504Y-94278504D01*
X130891767Y-94228722D01*
X130898892Y-94192905D01*
X130900500Y-94184822D01*
X130900500Y-92924000D01*
X130920185Y-92856961D01*
X130972989Y-92811206D01*
X131024500Y-92800000D01*
X132039525Y-92800000D01*
X132106564Y-92819685D01*
X132112681Y-92823878D01*
X133012247Y-93481155D01*
X133054763Y-93536598D01*
X133060555Y-93606227D01*
X133049577Y-93637567D01*
X133012499Y-93710341D01*
X132995131Y-93819997D01*
X132995131Y-93820002D01*
X133012498Y-93929658D01*
X133062904Y-94028585D01*
X133062909Y-94028592D01*
X133141407Y-94107090D01*
X133141410Y-94107092D01*
X133141413Y-94107095D01*
X133240339Y-94157500D01*
X133240340Y-94157500D01*
X133240342Y-94157501D01*
X133240341Y-94157501D01*
X133255911Y-94159967D01*
X133319046Y-94189896D01*
X133355978Y-94249207D01*
X133354980Y-94319069D01*
X133324198Y-94370119D01*
X133312907Y-94381409D01*
X133312904Y-94381414D01*
X133262498Y-94480341D01*
X133245131Y-94589997D01*
X133245131Y-94590000D01*
X133248605Y-94611937D01*
X133239648Y-94681230D01*
X133194651Y-94734681D01*
X133182427Y-94741816D01*
X133121414Y-94772904D01*
X133121407Y-94772909D01*
X133042909Y-94851407D01*
X133042904Y-94851414D01*
X132992498Y-94950341D01*
X132975131Y-95059997D01*
X132975131Y-95060002D01*
X132992498Y-95169658D01*
X133042904Y-95268585D01*
X133042909Y-95268592D01*
X133121407Y-95347090D01*
X133121410Y-95347092D01*
X133121413Y-95347095D01*
X133163019Y-95368294D01*
X133220341Y-95397501D01*
X133329998Y-95414869D01*
X133330000Y-95414869D01*
X133330002Y-95414869D01*
X133439658Y-95397501D01*
X133439659Y-95397500D01*
X133439661Y-95397500D01*
X133538587Y-95347095D01*
X133617095Y-95268587D01*
X133667500Y-95169661D01*
X133667500Y-95169659D01*
X133667501Y-95169658D01*
X133684869Y-95060002D01*
X133684869Y-95059999D01*
X133681395Y-95038066D01*
X133690349Y-94968772D01*
X133735345Y-94915320D01*
X133747567Y-94908185D01*
X133808587Y-94877095D01*
X133887095Y-94798587D01*
X133895958Y-94781191D01*
X133943930Y-94730397D01*
X134011751Y-94713601D01*
X134077886Y-94736137D01*
X134094123Y-94749806D01*
X134111407Y-94767090D01*
X134111410Y-94767092D01*
X134111413Y-94767095D01*
X134173220Y-94798587D01*
X134210341Y-94817501D01*
X134319998Y-94834869D01*
X134320000Y-94834869D01*
X134320002Y-94834869D01*
X134429658Y-94817501D01*
X134429659Y-94817500D01*
X134429661Y-94817500D01*
X134528587Y-94767095D01*
X134556355Y-94739326D01*
X134617673Y-94705843D01*
X134687365Y-94710825D01*
X134717186Y-94726884D01*
X134887612Y-94851407D01*
X134928527Y-94881302D01*
X134965856Y-94925127D01*
X134982905Y-94958587D01*
X134982909Y-94958592D01*
X135061407Y-95037090D01*
X135061410Y-95037092D01*
X135061413Y-95037095D01*
X135160339Y-95087500D01*
X135195106Y-95093006D01*
X135248860Y-95115356D01*
X135519156Y-95312850D01*
X135561672Y-95368294D01*
X135570000Y-95412971D01*
X135570000Y-96440000D01*
X135589254Y-96648585D01*
X135615609Y-96934102D01*
X135602170Y-97002667D01*
X135553795Y-97053082D01*
X135492134Y-97069500D01*
X133785178Y-97069500D01*
X133741282Y-97078231D01*
X133741275Y-97078234D01*
X133691496Y-97111495D01*
X133660692Y-97157598D01*
X133607080Y-97202403D01*
X133538192Y-97211180D01*
X133500000Y-97205131D01*
X133499996Y-97205131D01*
X133390340Y-97222498D01*
X133323438Y-97256586D01*
X133254769Y-97269481D01*
X133190029Y-97243203D01*
X133179464Y-97233781D01*
X133158592Y-97212909D01*
X133158588Y-97212906D01*
X133158587Y-97212905D01*
X133137976Y-97202403D01*
X133059658Y-97162498D01*
X132950002Y-97145131D01*
X132949998Y-97145131D01*
X132840341Y-97162498D01*
X132741414Y-97212904D01*
X132741411Y-97212906D01*
X132711519Y-97242799D01*
X132662905Y-97291413D01*
X132662904Y-97291414D01*
X132656005Y-97298314D01*
X132654486Y-97296795D01*
X132609402Y-97331555D01*
X132564423Y-97340000D01*
X131750000Y-97340000D01*
X131750000Y-97472955D01*
X131730315Y-97539994D01*
X131713681Y-97560636D01*
X131692909Y-97581407D01*
X131692904Y-97581414D01*
X131642498Y-97680341D01*
X131625131Y-97789997D01*
X131625131Y-97790002D01*
X131642498Y-97899658D01*
X131671970Y-97957500D01*
X131692905Y-97998587D01*
X131713681Y-98019363D01*
X131747166Y-98080684D01*
X131750000Y-98107044D01*
X131750000Y-99293276D01*
X131730315Y-99360315D01*
X131677511Y-99406070D01*
X131664320Y-99411206D01*
X131660343Y-99412498D01*
X131660339Y-99412499D01*
X131660339Y-99412500D01*
X131561413Y-99462905D01*
X131561412Y-99462906D01*
X131561407Y-99462909D01*
X131482909Y-99541407D01*
X131482904Y-99541414D01*
X131432498Y-99640341D01*
X131415131Y-99749997D01*
X131415131Y-99750002D01*
X131432498Y-99859658D01*
X131482904Y-99958585D01*
X131482909Y-99958592D01*
X131561407Y-100037090D01*
X131561410Y-100037092D01*
X131561413Y-100037095D01*
X131660339Y-100087500D01*
X131660347Y-100087501D01*
X131664323Y-100088794D01*
X131668543Y-100091679D01*
X131669034Y-100091930D01*
X131669001Y-100091993D01*
X131721997Y-100128234D01*
X131749192Y-100192594D01*
X131750000Y-100206724D01*
X131750000Y-100576494D01*
X131730315Y-100643533D01*
X131682296Y-100686978D01*
X131631414Y-100712904D01*
X131631407Y-100712909D01*
X131552909Y-100791407D01*
X131552904Y-100791414D01*
X131502498Y-100890341D01*
X131485131Y-100999997D01*
X131485131Y-101000002D01*
X131502498Y-101109658D01*
X131552904Y-101208585D01*
X131552909Y-101208592D01*
X131631407Y-101287090D01*
X131631411Y-101287093D01*
X131631413Y-101287095D01*
X131682296Y-101313021D01*
X131733090Y-101360992D01*
X131750000Y-101423504D01*
X131750000Y-101810000D01*
X132312866Y-102372866D01*
X132346351Y-102434189D01*
X132341367Y-102503881D01*
X132312866Y-102548228D01*
X131998833Y-102862260D01*
X131998829Y-102862266D01*
X131993202Y-102875850D01*
X131966326Y-102916072D01*
X131902908Y-102979489D01*
X131902906Y-102979493D01*
X131852500Y-103078420D01*
X131835133Y-103188076D01*
X131835133Y-103188081D01*
X131852500Y-103297737D01*
X131902906Y-103396664D01*
X131902911Y-103396671D01*
X131981409Y-103475169D01*
X131981412Y-103475171D01*
X131981415Y-103475174D01*
X132080341Y-103525579D01*
X132080343Y-103525580D01*
X132190000Y-103542948D01*
X132190002Y-103542948D01*
X132190004Y-103542948D01*
X132299660Y-103525580D01*
X132299661Y-103525579D01*
X132299663Y-103525579D01*
X132398589Y-103475174D01*
X132477097Y-103396666D01*
X132527502Y-103297740D01*
X132527502Y-103297738D01*
X132527503Y-103297737D01*
X132544871Y-103188081D01*
X132544871Y-103188076D01*
X132527503Y-103078421D01*
X132524741Y-103069922D01*
X132522741Y-103000081D01*
X132554986Y-102943917D01*
X132664195Y-102834708D01*
X132725516Y-102801225D01*
X132795208Y-102806209D01*
X132851141Y-102848081D01*
X132874347Y-102902991D01*
X132876987Y-102919658D01*
X132876987Y-102919659D01*
X132876988Y-102919661D01*
X132900156Y-102965131D01*
X132927392Y-103018585D01*
X132927397Y-103018592D01*
X133005895Y-103097090D01*
X133005898Y-103097092D01*
X133005901Y-103097095D01*
X133104827Y-103147500D01*
X133104829Y-103147501D01*
X133214486Y-103164869D01*
X133214488Y-103164869D01*
X133214490Y-103164869D01*
X133324146Y-103147501D01*
X133324147Y-103147500D01*
X133324149Y-103147500D01*
X133423075Y-103097095D01*
X133423080Y-103097090D01*
X133448352Y-103071819D01*
X133509675Y-103038334D01*
X133536033Y-103035500D01*
X133600703Y-103035500D01*
X133600711Y-103035501D01*
X133615145Y-103035501D01*
X133704854Y-103035501D01*
X133704855Y-103035501D01*
X133775742Y-103006138D01*
X133787736Y-103001170D01*
X133851170Y-102937736D01*
X133851170Y-102937735D01*
X133868606Y-102920299D01*
X133868607Y-102920296D01*
X134082087Y-102706816D01*
X134143409Y-102673334D01*
X134169767Y-102670500D01*
X135506000Y-102670500D01*
X135573039Y-102690185D01*
X135618794Y-102742989D01*
X135630000Y-102794500D01*
X135630000Y-103238097D01*
X135616485Y-103294391D01*
X135562500Y-103400341D01*
X135545133Y-103509997D01*
X135545133Y-103510002D01*
X135562500Y-103619656D01*
X135562501Y-103619659D01*
X135562502Y-103619661D01*
X135612907Y-103718587D01*
X135612909Y-103718589D01*
X135616485Y-103725607D01*
X135630000Y-103781902D01*
X135630000Y-104346622D01*
X135610315Y-104413661D01*
X135591229Y-104436688D01*
X132635882Y-107233319D01*
X132573659Y-107265100D01*
X132551452Y-107267250D01*
X131030299Y-107277053D01*
X130963134Y-107257801D01*
X130917040Y-107205293D01*
X130905500Y-107153056D01*
X130905500Y-105704008D01*
X130905499Y-105703991D01*
X130901591Y-105667643D01*
X130901753Y-105667625D01*
X130900500Y-105652041D01*
X130900500Y-105555180D01*
X130900360Y-105553760D01*
X130900500Y-105553021D01*
X130900500Y-105549088D01*
X130901246Y-105549088D01*
X130913375Y-105485113D01*
X130936075Y-105453924D01*
X131000000Y-105390000D01*
X131000000Y-105049997D01*
X131535131Y-105049997D01*
X131535131Y-105050002D01*
X131552498Y-105159658D01*
X131602904Y-105258585D01*
X131602909Y-105258592D01*
X131681407Y-105337090D01*
X131681410Y-105337092D01*
X131681413Y-105337095D01*
X131731350Y-105362539D01*
X131780341Y-105387501D01*
X131889998Y-105404869D01*
X131890000Y-105404869D01*
X131890002Y-105404869D01*
X131999658Y-105387501D01*
X131999659Y-105387500D01*
X131999661Y-105387500D01*
X132098587Y-105337095D01*
X132177095Y-105258587D01*
X132227500Y-105159661D01*
X132227500Y-105159659D01*
X132227501Y-105159658D01*
X132244869Y-105050002D01*
X132244869Y-105049997D01*
X132227501Y-104940341D01*
X132207666Y-104901413D01*
X132196754Y-104879997D01*
X132625131Y-104879997D01*
X132625131Y-104880002D01*
X132642498Y-104989658D01*
X132692904Y-105088585D01*
X132692909Y-105088592D01*
X132771407Y-105167090D01*
X132771410Y-105167092D01*
X132771413Y-105167095D01*
X132851961Y-105208136D01*
X132870341Y-105217501D01*
X132979998Y-105234869D01*
X132980000Y-105234869D01*
X132980002Y-105234869D01*
X133089658Y-105217501D01*
X133089659Y-105217500D01*
X133089661Y-105217500D01*
X133188587Y-105167095D01*
X133267095Y-105088587D01*
X133267098Y-105088579D01*
X133268356Y-105086850D01*
X133270441Y-105085241D01*
X133273996Y-105081687D01*
X133274455Y-105082146D01*
X133323682Y-105044179D01*
X133393295Y-105038194D01*
X133455093Y-105070794D01*
X133456362Y-105072045D01*
X133461407Y-105077090D01*
X133461410Y-105077092D01*
X133461413Y-105077095D01*
X133525993Y-105110000D01*
X133560341Y-105127501D01*
X133669998Y-105144869D01*
X133670000Y-105144869D01*
X133670002Y-105144869D01*
X133779658Y-105127501D01*
X133779659Y-105127500D01*
X133779661Y-105127500D01*
X133878587Y-105077095D01*
X133957095Y-104998587D01*
X134007500Y-104899661D01*
X134007500Y-104899659D01*
X134007501Y-104899658D01*
X134024869Y-104790002D01*
X134024869Y-104789997D01*
X134007501Y-104680341D01*
X134006053Y-104677500D01*
X133957095Y-104581413D01*
X133957092Y-104581410D01*
X133957090Y-104581407D01*
X133878592Y-104502909D01*
X133878588Y-104502906D01*
X133878587Y-104502905D01*
X133874743Y-104500946D01*
X133779658Y-104452498D01*
X133670002Y-104435131D01*
X133669998Y-104435131D01*
X133560341Y-104452498D01*
X133461414Y-104502904D01*
X133461407Y-104502909D01*
X133382904Y-104581412D01*
X133381634Y-104583161D01*
X133379546Y-104584770D01*
X133376004Y-104588313D01*
X133375546Y-104587855D01*
X133326303Y-104625825D01*
X133256689Y-104631803D01*
X133194895Y-104599195D01*
X133193637Y-104597954D01*
X133188592Y-104592909D01*
X133188588Y-104592906D01*
X133188587Y-104592905D01*
X133150858Y-104573681D01*
X133089658Y-104542498D01*
X132980002Y-104525131D01*
X132979998Y-104525131D01*
X132870341Y-104542498D01*
X132771414Y-104592904D01*
X132771407Y-104592909D01*
X132692909Y-104671407D01*
X132692904Y-104671414D01*
X132642498Y-104770341D01*
X132625131Y-104879997D01*
X132196754Y-104879997D01*
X132177095Y-104841413D01*
X132177092Y-104841410D01*
X132177090Y-104841407D01*
X132098592Y-104762909D01*
X132098588Y-104762906D01*
X132098587Y-104762905D01*
X132073263Y-104750002D01*
X131999658Y-104712498D01*
X131890002Y-104695131D01*
X131889998Y-104695131D01*
X131780341Y-104712498D01*
X131681414Y-104762904D01*
X131681407Y-104762909D01*
X131602909Y-104841407D01*
X131602904Y-104841414D01*
X131552498Y-104940341D01*
X131535131Y-105049997D01*
X131000000Y-105049997D01*
X131000000Y-105030000D01*
X130580000Y-104610000D01*
X130377755Y-104610000D01*
X130310716Y-104590315D01*
X130290074Y-104573681D01*
X129565915Y-103849522D01*
X129565913Y-103849520D01*
X129520250Y-103823156D01*
X129474589Y-103796793D01*
X129419013Y-103781902D01*
X129372727Y-103769500D01*
X129267273Y-103769500D01*
X129165410Y-103796793D01*
X129074087Y-103849520D01*
X129074084Y-103849522D01*
X128999522Y-103924084D01*
X128999520Y-103924087D01*
X128946793Y-104015410D01*
X128919500Y-104117273D01*
X128919500Y-104222726D01*
X128946793Y-104324589D01*
X128959514Y-104346622D01*
X128999520Y-104415913D01*
X128999522Y-104415915D01*
X129563181Y-104979574D01*
X129596666Y-105040897D01*
X129599500Y-105067255D01*
X129599500Y-105295500D01*
X129579815Y-105362539D01*
X129527011Y-105408294D01*
X129475500Y-105419500D01*
X129235178Y-105419500D01*
X129191282Y-105428231D01*
X129191275Y-105428234D01*
X129141496Y-105461495D01*
X129137681Y-105465311D01*
X129076358Y-105498796D01*
X129006666Y-105493812D01*
X128962319Y-105465311D01*
X128958503Y-105461495D01*
X128908724Y-105428234D01*
X128908717Y-105428231D01*
X128864822Y-105419500D01*
X128864820Y-105419500D01*
X127648118Y-105419500D01*
X127581079Y-105399815D01*
X127535324Y-105347011D01*
X127525645Y-105314898D01*
X127507501Y-105200341D01*
X127498388Y-105182456D01*
X127457095Y-105101413D01*
X127457092Y-105101410D01*
X127457090Y-105101407D01*
X127378592Y-105022909D01*
X127378588Y-105022906D01*
X127378587Y-105022905D01*
X127364825Y-105015893D01*
X127279658Y-104972498D01*
X127170002Y-104955131D01*
X127169998Y-104955131D01*
X127060341Y-104972498D01*
X126961414Y-105022904D01*
X126961407Y-105022909D01*
X126882909Y-105101407D01*
X126882904Y-105101414D01*
X126867493Y-105131660D01*
X126819518Y-105182456D01*
X126751697Y-105199250D01*
X126685562Y-105176712D01*
X126642112Y-105121996D01*
X126634537Y-105094768D01*
X126627500Y-105050339D01*
X126577095Y-104951413D01*
X126577092Y-104951410D01*
X126577090Y-104951407D01*
X126498592Y-104872909D01*
X126498588Y-104872906D01*
X126498587Y-104872905D01*
X126440358Y-104843236D01*
X126399658Y-104822498D01*
X126290002Y-104805131D01*
X126289998Y-104805131D01*
X126180341Y-104822498D01*
X126081414Y-104872904D01*
X126081407Y-104872909D01*
X126002909Y-104951407D01*
X126002904Y-104951414D01*
X125952498Y-105050341D01*
X125935131Y-105159997D01*
X125935131Y-105160003D01*
X125953519Y-105276103D01*
X125944564Y-105345396D01*
X125899568Y-105398848D01*
X125832816Y-105419487D01*
X125831046Y-105419500D01*
X125435178Y-105419500D01*
X125391282Y-105428231D01*
X125391275Y-105428234D01*
X125341496Y-105461495D01*
X125341495Y-105461496D01*
X125308234Y-105511275D01*
X125308231Y-105511282D01*
X125299500Y-105555177D01*
X125299500Y-107258147D01*
X125279815Y-107325186D01*
X125227011Y-107370941D01*
X125179941Y-107382067D01*
X124701896Y-107399200D01*
X124699692Y-107399260D01*
X123672099Y-107417797D01*
X123604715Y-107399325D01*
X123558015Y-107347354D01*
X123545931Y-107297950D01*
X123500517Y-105935530D01*
X123513963Y-105875108D01*
X123523553Y-105856284D01*
X123557500Y-105789661D01*
X123557500Y-105789659D01*
X123557501Y-105789658D01*
X123574869Y-105680002D01*
X123574869Y-105679997D01*
X123557501Y-105570341D01*
X123548676Y-105553021D01*
X123507095Y-105471413D01*
X123507092Y-105471410D01*
X123501356Y-105463514D01*
X123503932Y-105461642D01*
X123478394Y-105414873D01*
X123483378Y-105345181D01*
X123492918Y-105327412D01*
X123492664Y-105327283D01*
X123497095Y-105318587D01*
X123547500Y-105219661D01*
X123549325Y-105208134D01*
X123579253Y-105145001D01*
X123638564Y-105108068D01*
X123680241Y-105105686D01*
X123680241Y-105104869D01*
X123690002Y-105104869D01*
X123799658Y-105087501D01*
X123799659Y-105087500D01*
X123799661Y-105087500D01*
X123898587Y-105037095D01*
X123977095Y-104958587D01*
X124027500Y-104859661D01*
X124027500Y-104859659D01*
X124027501Y-104859658D01*
X124044869Y-104750002D01*
X124044869Y-104749997D01*
X124027501Y-104640341D01*
X124013315Y-104612500D01*
X123977095Y-104541413D01*
X123977092Y-104541410D01*
X123977090Y-104541407D01*
X123898592Y-104462909D01*
X123898588Y-104462906D01*
X123898587Y-104462905D01*
X123872076Y-104449397D01*
X123799658Y-104412498D01*
X123690002Y-104395131D01*
X123689998Y-104395131D01*
X123580341Y-104412498D01*
X123481414Y-104462904D01*
X123481407Y-104462909D01*
X123402909Y-104541407D01*
X123402904Y-104541414D01*
X123352499Y-104640341D01*
X123350673Y-104651869D01*
X123320741Y-104715003D01*
X123261429Y-104751933D01*
X123219759Y-104754314D01*
X123219759Y-104755131D01*
X123209998Y-104755131D01*
X123100341Y-104772498D01*
X123001414Y-104822904D01*
X123001410Y-104822907D01*
X122981081Y-104843236D01*
X122919757Y-104876720D01*
X122850065Y-104871734D01*
X122800377Y-104837543D01*
X122450000Y-104440000D01*
X120655937Y-104468032D01*
X120588598Y-104449397D01*
X120542024Y-104397314D01*
X120530000Y-104344047D01*
X120530000Y-104339997D01*
X124465131Y-104339997D01*
X124465131Y-104340002D01*
X124482498Y-104449658D01*
X124532904Y-104548585D01*
X124532909Y-104548592D01*
X124611407Y-104627090D01*
X124611410Y-104627092D01*
X124611413Y-104627095D01*
X124710339Y-104677500D01*
X124710341Y-104677501D01*
X124819998Y-104694869D01*
X124820000Y-104694869D01*
X124820002Y-104694869D01*
X124929658Y-104677501D01*
X124929659Y-104677500D01*
X124929661Y-104677500D01*
X125028587Y-104627095D01*
X125107095Y-104548587D01*
X125157500Y-104449661D01*
X125157500Y-104449659D01*
X125157501Y-104449658D01*
X125174869Y-104340002D01*
X125174869Y-104339997D01*
X125157501Y-104230341D01*
X125157500Y-104230339D01*
X125107095Y-104131413D01*
X125107092Y-104131410D01*
X125107090Y-104131407D01*
X125028592Y-104052909D01*
X125028588Y-104052906D01*
X125028587Y-104052905D01*
X125024743Y-104050946D01*
X124929658Y-104002498D01*
X124820002Y-103985131D01*
X124819998Y-103985131D01*
X124710341Y-104002498D01*
X124611414Y-104052904D01*
X124611407Y-104052909D01*
X124532909Y-104131407D01*
X124532904Y-104131414D01*
X124482498Y-104230341D01*
X124465131Y-104339997D01*
X120530000Y-104339997D01*
X120530000Y-103319997D01*
X122565131Y-103319997D01*
X122565131Y-103320002D01*
X122582498Y-103429658D01*
X122632904Y-103528585D01*
X122632909Y-103528592D01*
X122711407Y-103607090D01*
X122711410Y-103607092D01*
X122711413Y-103607095D01*
X122810339Y-103657500D01*
X122810341Y-103657501D01*
X122919998Y-103674869D01*
X122920000Y-103674869D01*
X122920002Y-103674869D01*
X123029658Y-103657501D01*
X123029659Y-103657500D01*
X123029661Y-103657500D01*
X123128587Y-103607095D01*
X123207095Y-103528587D01*
X123257500Y-103429661D01*
X123257500Y-103429659D01*
X123257501Y-103429658D01*
X123274869Y-103320002D01*
X123274869Y-103319997D01*
X123257501Y-103210341D01*
X123246158Y-103188079D01*
X123207095Y-103111413D01*
X123207092Y-103111410D01*
X123207090Y-103111407D01*
X123128592Y-103032909D01*
X123128588Y-103032906D01*
X123128587Y-103032905D01*
X123100482Y-103018585D01*
X123029658Y-102982498D01*
X122920002Y-102965131D01*
X122919998Y-102965131D01*
X122810341Y-102982498D01*
X122711414Y-103032904D01*
X122711407Y-103032909D01*
X122632909Y-103111407D01*
X122632904Y-103111414D01*
X122582498Y-103210341D01*
X122565131Y-103319997D01*
X120530000Y-103319997D01*
X120530000Y-102794500D01*
X120549685Y-102727461D01*
X120602489Y-102681706D01*
X120654000Y-102670500D01*
X122414822Y-102670500D01*
X122458717Y-102661768D01*
X122458717Y-102661767D01*
X122458722Y-102661767D01*
X122508504Y-102628504D01*
X122534233Y-102589997D01*
X123625131Y-102589997D01*
X123625131Y-102590002D01*
X123642498Y-102699658D01*
X123692904Y-102798585D01*
X123692909Y-102798592D01*
X123771407Y-102877090D01*
X123771410Y-102877092D01*
X123771413Y-102877095D01*
X123856206Y-102920299D01*
X123870341Y-102927501D01*
X123979998Y-102944869D01*
X123980000Y-102944869D01*
X123980002Y-102944869D01*
X124089658Y-102927501D01*
X124089659Y-102927500D01*
X124089661Y-102927500D01*
X124188587Y-102877095D01*
X124225685Y-102839997D01*
X125735131Y-102839997D01*
X125735131Y-102840002D01*
X125752498Y-102949658D01*
X125802904Y-103048585D01*
X125802909Y-103048592D01*
X125881407Y-103127090D01*
X125881410Y-103127092D01*
X125881413Y-103127095D01*
X125955549Y-103164869D01*
X125980341Y-103177501D01*
X126089998Y-103194869D01*
X126090000Y-103194869D01*
X126090002Y-103194869D01*
X126199658Y-103177501D01*
X126199659Y-103177500D01*
X126199661Y-103177500D01*
X126298587Y-103127095D01*
X126377095Y-103048587D01*
X126427500Y-102949661D01*
X126427500Y-102949659D01*
X126427501Y-102949658D01*
X126444869Y-102840002D01*
X126444869Y-102839997D01*
X126432198Y-102759997D01*
X130005131Y-102759997D01*
X130005131Y-102760002D01*
X130022498Y-102869658D01*
X130070227Y-102963332D01*
X130083123Y-103032001D01*
X130070228Y-103075919D01*
X130042498Y-103130342D01*
X130025131Y-103239997D01*
X130025131Y-103240002D01*
X130042498Y-103349658D01*
X130092904Y-103448585D01*
X130092909Y-103448592D01*
X130171407Y-103527090D01*
X130171410Y-103527092D01*
X130171413Y-103527095D01*
X130270339Y-103577500D01*
X130270341Y-103577501D01*
X130379998Y-103594869D01*
X130380000Y-103594869D01*
X130380002Y-103594869D01*
X130489658Y-103577501D01*
X130489659Y-103577500D01*
X130489661Y-103577500D01*
X130588587Y-103527095D01*
X130667095Y-103448587D01*
X130717500Y-103349661D01*
X130717500Y-103349659D01*
X130717501Y-103349658D01*
X130734869Y-103240002D01*
X130734869Y-103239997D01*
X130717501Y-103130341D01*
X130675846Y-103048587D01*
X130669771Y-103036666D01*
X130656876Y-102967998D01*
X130669770Y-102924084D01*
X130697500Y-102869661D01*
X130702198Y-102840000D01*
X130714869Y-102760002D01*
X130714869Y-102759997D01*
X130697501Y-102650341D01*
X130687854Y-102631407D01*
X130647095Y-102551413D01*
X130647092Y-102551410D01*
X130647090Y-102551407D01*
X130568592Y-102472909D01*
X130568588Y-102472906D01*
X130568587Y-102472905D01*
X130562599Y-102469854D01*
X130469658Y-102422498D01*
X130360002Y-102405131D01*
X130359998Y-102405131D01*
X130250341Y-102422498D01*
X130151414Y-102472904D01*
X130151407Y-102472909D01*
X130072909Y-102551407D01*
X130072904Y-102551414D01*
X130022498Y-102650341D01*
X130005131Y-102759997D01*
X126432198Y-102759997D01*
X126427501Y-102730341D01*
X126426034Y-102727461D01*
X126377095Y-102631413D01*
X126377092Y-102631410D01*
X126377090Y-102631407D01*
X126298592Y-102552909D01*
X126298588Y-102552906D01*
X126298587Y-102552905D01*
X126263093Y-102534820D01*
X126199658Y-102502498D01*
X126090002Y-102485131D01*
X126089998Y-102485131D01*
X125980341Y-102502498D01*
X125881414Y-102552904D01*
X125881407Y-102552909D01*
X125802909Y-102631407D01*
X125802904Y-102631414D01*
X125752498Y-102730341D01*
X125735131Y-102839997D01*
X124225685Y-102839997D01*
X124267095Y-102798587D01*
X124317500Y-102699661D01*
X124317500Y-102699659D01*
X124317501Y-102699658D01*
X124334869Y-102590002D01*
X124334869Y-102589997D01*
X124317501Y-102480341D01*
X124296946Y-102440000D01*
X124267095Y-102381413D01*
X124267092Y-102381410D01*
X124267090Y-102381407D01*
X124188592Y-102302909D01*
X124188588Y-102302906D01*
X124188587Y-102302905D01*
X124121234Y-102268587D01*
X124089658Y-102252498D01*
X123980002Y-102235131D01*
X123979998Y-102235131D01*
X123870341Y-102252498D01*
X123771414Y-102302904D01*
X123771407Y-102302909D01*
X123692909Y-102381407D01*
X123692904Y-102381414D01*
X123642498Y-102480341D01*
X123625131Y-102589997D01*
X122534233Y-102589997D01*
X122541767Y-102578722D01*
X122545988Y-102557501D01*
X122550500Y-102534822D01*
X122550500Y-102219997D01*
X127425131Y-102219997D01*
X127425131Y-102220002D01*
X127442498Y-102329658D01*
X127492904Y-102428585D01*
X127492909Y-102428592D01*
X127571407Y-102507090D01*
X127571410Y-102507092D01*
X127571413Y-102507095D01*
X127660989Y-102552736D01*
X127670341Y-102557501D01*
X127779998Y-102574869D01*
X127780000Y-102574869D01*
X127780002Y-102574869D01*
X127889658Y-102557501D01*
X127889659Y-102557500D01*
X127889661Y-102557500D01*
X127988587Y-102507095D01*
X128067095Y-102428587D01*
X128117500Y-102329661D01*
X128117500Y-102329659D01*
X128117501Y-102329658D01*
X128134869Y-102220002D01*
X128134869Y-102219997D01*
X128117501Y-102110341D01*
X128091851Y-102060000D01*
X128067095Y-102011413D01*
X128067092Y-102011410D01*
X128067090Y-102011407D01*
X127988592Y-101932909D01*
X127988588Y-101932906D01*
X127988587Y-101932905D01*
X127984743Y-101930946D01*
X127889658Y-101882498D01*
X127780002Y-101865131D01*
X127779998Y-101865131D01*
X127670341Y-101882498D01*
X127571414Y-101932904D01*
X127571407Y-101932909D01*
X127492909Y-102011407D01*
X127492904Y-102011414D01*
X127442498Y-102110341D01*
X127425131Y-102219997D01*
X122550500Y-102219997D01*
X122550500Y-101469997D01*
X124735131Y-101469997D01*
X124735131Y-101470002D01*
X124752498Y-101579658D01*
X124802904Y-101678585D01*
X124802909Y-101678592D01*
X124881407Y-101757090D01*
X124881410Y-101757092D01*
X124881413Y-101757095D01*
X124980339Y-101807500D01*
X124980341Y-101807501D01*
X125089998Y-101824869D01*
X125090000Y-101824869D01*
X125090002Y-101824869D01*
X125199658Y-101807501D01*
X125199659Y-101807500D01*
X125199661Y-101807500D01*
X125298587Y-101757095D01*
X125377095Y-101678587D01*
X125427500Y-101579661D01*
X125427500Y-101579659D01*
X125427501Y-101579658D01*
X125444869Y-101470002D01*
X125444869Y-101469997D01*
X125427501Y-101360341D01*
X125403389Y-101313018D01*
X125377095Y-101261413D01*
X125377092Y-101261410D01*
X125377090Y-101261407D01*
X125355680Y-101239997D01*
X126905131Y-101239997D01*
X126905131Y-101240002D01*
X126922498Y-101349658D01*
X126972904Y-101448585D01*
X126972909Y-101448592D01*
X127051407Y-101527090D01*
X127051410Y-101527092D01*
X127051413Y-101527095D01*
X127150339Y-101577500D01*
X127150341Y-101577501D01*
X127259998Y-101594869D01*
X127260000Y-101594869D01*
X127260002Y-101594869D01*
X127369658Y-101577501D01*
X127369659Y-101577500D01*
X127369661Y-101577500D01*
X127468587Y-101527095D01*
X127547095Y-101448587D01*
X127566757Y-101409997D01*
X128895131Y-101409997D01*
X128895131Y-101410002D01*
X128912498Y-101519658D01*
X128962904Y-101618585D01*
X128962909Y-101618592D01*
X129041407Y-101697090D01*
X129041410Y-101697092D01*
X129041413Y-101697095D01*
X129108990Y-101731527D01*
X129140341Y-101747501D01*
X129249998Y-101764869D01*
X129250000Y-101764869D01*
X129250002Y-101764869D01*
X129359658Y-101747501D01*
X129359659Y-101747500D01*
X129359661Y-101747500D01*
X129458587Y-101697095D01*
X129537095Y-101618587D01*
X129587500Y-101519661D01*
X129587500Y-101519659D01*
X129587501Y-101519658D01*
X129604869Y-101410002D01*
X129604869Y-101409997D01*
X129600117Y-101379997D01*
X130465131Y-101379997D01*
X130465131Y-101380002D01*
X130482498Y-101489658D01*
X130532904Y-101588585D01*
X130532909Y-101588592D01*
X130611407Y-101667090D01*
X130611410Y-101667092D01*
X130611413Y-101667095D01*
X130670282Y-101697090D01*
X130710341Y-101717501D01*
X130819998Y-101734869D01*
X130820000Y-101734869D01*
X130820002Y-101734869D01*
X130929658Y-101717501D01*
X130929659Y-101717500D01*
X130929661Y-101717500D01*
X131028587Y-101667095D01*
X131107095Y-101588587D01*
X131157500Y-101489661D01*
X131157500Y-101489659D01*
X131157501Y-101489658D01*
X131174869Y-101380002D01*
X131174869Y-101379997D01*
X131157501Y-101270341D01*
X131157500Y-101270339D01*
X131107095Y-101171413D01*
X131107092Y-101171410D01*
X131107090Y-101171407D01*
X131028592Y-101092909D01*
X131028588Y-101092906D01*
X131028587Y-101092905D01*
X130988536Y-101072498D01*
X130929658Y-101042498D01*
X130820002Y-101025131D01*
X130819998Y-101025131D01*
X130710341Y-101042498D01*
X130611414Y-101092904D01*
X130611407Y-101092909D01*
X130532909Y-101171407D01*
X130532904Y-101171414D01*
X130482498Y-101270341D01*
X130465131Y-101379997D01*
X129600117Y-101379997D01*
X129587501Y-101300341D01*
X129556754Y-101239997D01*
X129537095Y-101201413D01*
X129537092Y-101201410D01*
X129537090Y-101201407D01*
X129458592Y-101122909D01*
X129458588Y-101122906D01*
X129458587Y-101122905D01*
X129432588Y-101109658D01*
X129359658Y-101072498D01*
X129250002Y-101055131D01*
X129249998Y-101055131D01*
X129140341Y-101072498D01*
X129041414Y-101122904D01*
X129041407Y-101122909D01*
X128962909Y-101201407D01*
X128962904Y-101201414D01*
X128912498Y-101300341D01*
X128895131Y-101409997D01*
X127566757Y-101409997D01*
X127597500Y-101349661D01*
X127597500Y-101349659D01*
X127597501Y-101349658D01*
X127614869Y-101240002D01*
X127614869Y-101239997D01*
X127597501Y-101130341D01*
X127586964Y-101109661D01*
X127547095Y-101031413D01*
X127547092Y-101031410D01*
X127547090Y-101031407D01*
X127468592Y-100952909D01*
X127468588Y-100952906D01*
X127468587Y-100952905D01*
X127461520Y-100949304D01*
X127369658Y-100902498D01*
X127260002Y-100885131D01*
X127259998Y-100885131D01*
X127150341Y-100902498D01*
X127051414Y-100952904D01*
X127051407Y-100952909D01*
X126972909Y-101031407D01*
X126972904Y-101031414D01*
X126922498Y-101130341D01*
X126905131Y-101239997D01*
X125355680Y-101239997D01*
X125298592Y-101182909D01*
X125298588Y-101182906D01*
X125298587Y-101182905D01*
X125253376Y-101159869D01*
X125199658Y-101132498D01*
X125090002Y-101115131D01*
X125089998Y-101115131D01*
X124980341Y-101132498D01*
X124881414Y-101182904D01*
X124881407Y-101182909D01*
X124802909Y-101261407D01*
X124802904Y-101261414D01*
X124752498Y-101360341D01*
X124735131Y-101469997D01*
X122550500Y-101469997D01*
X122550500Y-101005177D01*
X122541768Y-100961282D01*
X122541767Y-100961281D01*
X122541767Y-100961278D01*
X122541765Y-100961275D01*
X122537094Y-100949998D01*
X122538767Y-100949304D01*
X122522301Y-100896708D01*
X122540788Y-100829329D01*
X122592769Y-100782641D01*
X122646281Y-100770500D01*
X123254167Y-100770500D01*
X123321206Y-100790185D01*
X123341848Y-100806819D01*
X123395768Y-100860739D01*
X123426016Y-100910096D01*
X123427498Y-100914656D01*
X123427499Y-100914659D01*
X123427500Y-100914661D01*
X123477905Y-101013587D01*
X123477907Y-101013589D01*
X123477909Y-101013592D01*
X123556407Y-101092090D01*
X123556410Y-101092092D01*
X123556413Y-101092095D01*
X123635709Y-101132498D01*
X123655341Y-101142501D01*
X123764998Y-101159869D01*
X123765000Y-101159869D01*
X123765002Y-101159869D01*
X123874658Y-101142501D01*
X123874659Y-101142500D01*
X123874661Y-101142500D01*
X123973587Y-101092095D01*
X124052095Y-101013587D01*
X124102500Y-100914661D01*
X124102500Y-100914659D01*
X124102501Y-100914658D01*
X124119869Y-100805002D01*
X124119869Y-100804997D01*
X124102501Y-100695341D01*
X124085768Y-100662500D01*
X124052095Y-100596413D01*
X124052092Y-100596410D01*
X124052090Y-100596407D01*
X123973592Y-100517909D01*
X123973589Y-100517907D01*
X123973587Y-100517905D01*
X123874661Y-100467500D01*
X123874659Y-100467499D01*
X123874656Y-100467498D01*
X123870096Y-100466016D01*
X123820739Y-100435768D01*
X123614512Y-100229541D01*
X123614507Y-100229537D01*
X123597987Y-100219999D01*
X123597985Y-100219999D01*
X123568915Y-100203215D01*
X123545990Y-100189979D01*
X123508755Y-100180002D01*
X123508736Y-100179997D01*
X127035131Y-100179997D01*
X127035131Y-100180002D01*
X127052498Y-100289658D01*
X127102904Y-100388585D01*
X127102909Y-100388592D01*
X127181407Y-100467090D01*
X127181410Y-100467092D01*
X127181413Y-100467095D01*
X127245993Y-100500000D01*
X127280341Y-100517501D01*
X127389998Y-100534869D01*
X127390000Y-100534869D01*
X127390002Y-100534869D01*
X127499658Y-100517501D01*
X127499659Y-100517500D01*
X127499661Y-100517500D01*
X127598587Y-100467095D01*
X127677095Y-100388587D01*
X127727500Y-100289661D01*
X127727500Y-100289659D01*
X127727501Y-100289658D01*
X127733783Y-100249997D01*
X130465131Y-100249997D01*
X130465131Y-100250002D01*
X130482498Y-100359658D01*
X130532904Y-100458585D01*
X130532909Y-100458592D01*
X130611407Y-100537090D01*
X130611410Y-100537092D01*
X130611413Y-100537095D01*
X130710339Y-100587500D01*
X130710341Y-100587501D01*
X130819998Y-100604869D01*
X130820000Y-100604869D01*
X130820002Y-100604869D01*
X130929658Y-100587501D01*
X130929659Y-100587500D01*
X130929661Y-100587500D01*
X131028587Y-100537095D01*
X131107095Y-100458587D01*
X131157500Y-100359661D01*
X131157500Y-100359659D01*
X131157501Y-100359658D01*
X131174869Y-100250002D01*
X131174869Y-100249997D01*
X131157501Y-100140341D01*
X131135423Y-100097011D01*
X131107095Y-100041413D01*
X131107092Y-100041410D01*
X131107090Y-100041407D01*
X131028592Y-99962909D01*
X131028588Y-99962906D01*
X131028587Y-99962905D01*
X131020112Y-99958587D01*
X130929658Y-99912498D01*
X130820002Y-99895131D01*
X130819998Y-99895131D01*
X130710341Y-99912498D01*
X130611414Y-99962904D01*
X130611407Y-99962909D01*
X130532909Y-100041407D01*
X130532904Y-100041414D01*
X130482498Y-100140341D01*
X130465131Y-100249997D01*
X127733783Y-100249997D01*
X127744869Y-100180002D01*
X127744869Y-100179997D01*
X127727501Y-100070341D01*
X127712762Y-100041414D01*
X127677095Y-99971413D01*
X127677092Y-99971410D01*
X127677090Y-99971407D01*
X127598592Y-99892909D01*
X127598588Y-99892906D01*
X127598587Y-99892905D01*
X127533336Y-99859658D01*
X127499658Y-99842498D01*
X127390002Y-99825131D01*
X127389998Y-99825131D01*
X127280341Y-99842498D01*
X127181414Y-99892904D01*
X127181407Y-99892909D01*
X127102909Y-99971407D01*
X127102904Y-99971414D01*
X127052498Y-100070341D01*
X127035131Y-100179997D01*
X123508736Y-100179997D01*
X123469562Y-100169500D01*
X123469560Y-100169500D01*
X122674500Y-100169500D01*
X122607461Y-100149815D01*
X122561706Y-100097011D01*
X122550500Y-100045500D01*
X122550500Y-99105177D01*
X122541768Y-99061282D01*
X122541767Y-99061281D01*
X122541767Y-99061278D01*
X122508504Y-99011496D01*
X122490792Y-98999661D01*
X122458724Y-98978234D01*
X122458717Y-98978231D01*
X122414822Y-98969500D01*
X122414820Y-98969500D01*
X121170914Y-98969500D01*
X121103875Y-98949815D01*
X121069372Y-98909997D01*
X126945131Y-98909997D01*
X126945131Y-98910002D01*
X126962498Y-99019658D01*
X127012904Y-99118585D01*
X127012909Y-99118592D01*
X127091407Y-99197090D01*
X127091410Y-99197092D01*
X127091413Y-99197095D01*
X127151087Y-99227500D01*
X127190341Y-99247501D01*
X127299998Y-99264869D01*
X127300000Y-99264869D01*
X127300002Y-99264869D01*
X127409658Y-99247501D01*
X127409659Y-99247500D01*
X127409661Y-99247500D01*
X127508587Y-99197095D01*
X127587095Y-99118587D01*
X127637500Y-99019661D01*
X127637500Y-99019659D01*
X127637501Y-99019658D01*
X127654869Y-98910002D01*
X127654869Y-98909997D01*
X127651701Y-98889997D01*
X128745131Y-98889997D01*
X128745131Y-98890002D01*
X128762498Y-98999658D01*
X128812904Y-99098585D01*
X128812909Y-99098592D01*
X128891407Y-99177090D01*
X128891410Y-99177092D01*
X128891413Y-99177095D01*
X128990339Y-99227500D01*
X128990341Y-99227501D01*
X129099998Y-99244869D01*
X129100000Y-99244869D01*
X129100002Y-99244869D01*
X129209658Y-99227501D01*
X129209659Y-99227500D01*
X129209661Y-99227500D01*
X129308587Y-99177095D01*
X129387095Y-99098587D01*
X129437500Y-98999661D01*
X129437500Y-98999659D01*
X129437501Y-98999658D01*
X129454869Y-98890002D01*
X129454869Y-98889997D01*
X129437501Y-98780341D01*
X129395085Y-98697095D01*
X129387095Y-98681413D01*
X129387092Y-98681410D01*
X129387090Y-98681407D01*
X129308592Y-98602909D01*
X129308588Y-98602906D01*
X129308587Y-98602905D01*
X129262652Y-98579500D01*
X129209658Y-98552498D01*
X129100002Y-98535131D01*
X129099998Y-98535131D01*
X128990341Y-98552498D01*
X128891414Y-98602904D01*
X128891407Y-98602909D01*
X128812909Y-98681407D01*
X128812904Y-98681414D01*
X128762498Y-98780341D01*
X128745131Y-98889997D01*
X127651701Y-98889997D01*
X127637501Y-98800341D01*
X127637500Y-98800339D01*
X127587095Y-98701413D01*
X127587092Y-98701410D01*
X127587090Y-98701407D01*
X127508592Y-98622909D01*
X127508588Y-98622906D01*
X127508587Y-98622905D01*
X127500112Y-98618587D01*
X127409658Y-98572498D01*
X127300002Y-98555131D01*
X127299998Y-98555131D01*
X127190341Y-98572498D01*
X127091414Y-98622904D01*
X127091407Y-98622909D01*
X127012909Y-98701407D01*
X127012904Y-98701414D01*
X126962498Y-98800341D01*
X126945131Y-98909997D01*
X121069372Y-98909997D01*
X121058120Y-98897011D01*
X121048176Y-98827853D01*
X121049838Y-98818731D01*
X121061747Y-98764869D01*
X121140205Y-98409997D01*
X124905131Y-98409997D01*
X124905131Y-98410002D01*
X124922498Y-98519658D01*
X124972904Y-98618585D01*
X124972909Y-98618592D01*
X125051407Y-98697090D01*
X125051410Y-98697092D01*
X125051413Y-98697095D01*
X125059890Y-98701414D01*
X125150341Y-98747501D01*
X125259998Y-98764869D01*
X125260000Y-98764869D01*
X125260002Y-98764869D01*
X125369658Y-98747501D01*
X125369659Y-98747500D01*
X125369661Y-98747500D01*
X125468587Y-98697095D01*
X125547095Y-98618587D01*
X125597500Y-98519661D01*
X125597500Y-98519659D01*
X125597501Y-98519658D01*
X125614869Y-98410002D01*
X125614869Y-98409997D01*
X125597501Y-98300341D01*
X125561661Y-98230001D01*
X125547095Y-98201413D01*
X125547092Y-98201410D01*
X125547090Y-98201407D01*
X125468592Y-98122909D01*
X125468588Y-98122906D01*
X125468587Y-98122905D01*
X125437458Y-98107044D01*
X125369658Y-98072498D01*
X125260002Y-98055131D01*
X125259998Y-98055131D01*
X125150341Y-98072498D01*
X125051414Y-98122904D01*
X125051407Y-98122909D01*
X124972909Y-98201407D01*
X124972904Y-98201414D01*
X124922498Y-98300341D01*
X124905131Y-98409997D01*
X121140205Y-98409997D01*
X121180000Y-98230001D01*
X121180000Y-97619997D01*
X124135131Y-97619997D01*
X124135131Y-97620002D01*
X124152498Y-97729658D01*
X124202904Y-97828585D01*
X124202909Y-97828592D01*
X124281407Y-97907090D01*
X124281410Y-97907092D01*
X124281413Y-97907095D01*
X124380339Y-97957500D01*
X124380341Y-97957501D01*
X124489998Y-97974869D01*
X124490000Y-97974869D01*
X124490002Y-97974869D01*
X124599658Y-97957501D01*
X124599659Y-97957500D01*
X124599661Y-97957500D01*
X124698587Y-97907095D01*
X124777095Y-97828587D01*
X124827500Y-97729661D01*
X124827500Y-97729659D01*
X124827501Y-97729658D01*
X124844869Y-97620002D01*
X124844869Y-97619997D01*
X124827501Y-97510341D01*
X124827500Y-97510339D01*
X124791659Y-97439997D01*
X125135131Y-97439997D01*
X125135131Y-97440002D01*
X125152498Y-97549658D01*
X125202904Y-97648585D01*
X125202909Y-97648592D01*
X125281407Y-97727090D01*
X125281410Y-97727092D01*
X125281413Y-97727095D01*
X125359908Y-97767090D01*
X125380341Y-97777501D01*
X125489998Y-97794869D01*
X125490000Y-97794869D01*
X125490002Y-97794869D01*
X125599658Y-97777501D01*
X125599659Y-97777500D01*
X125599661Y-97777500D01*
X125698587Y-97727095D01*
X125777095Y-97648587D01*
X125827500Y-97549661D01*
X125827500Y-97549659D01*
X125827501Y-97549658D01*
X125838534Y-97479997D01*
X126175131Y-97479997D01*
X126175131Y-97480002D01*
X126192498Y-97589658D01*
X126242904Y-97688585D01*
X126242909Y-97688592D01*
X126321407Y-97767090D01*
X126321410Y-97767092D01*
X126321413Y-97767095D01*
X126366367Y-97790000D01*
X126420341Y-97817501D01*
X126529998Y-97834869D01*
X126530000Y-97834869D01*
X126530002Y-97834869D01*
X126639658Y-97817501D01*
X126639659Y-97817500D01*
X126639661Y-97817500D01*
X126738587Y-97767095D01*
X126817095Y-97688587D01*
X126867500Y-97589661D01*
X126867500Y-97589659D01*
X126867501Y-97589658D01*
X126884869Y-97480002D01*
X126884869Y-97479997D01*
X126867501Y-97370341D01*
X126867153Y-97369658D01*
X126817095Y-97271413D01*
X126817092Y-97271410D01*
X126817090Y-97271407D01*
X126805680Y-97259997D01*
X129360131Y-97259997D01*
X129360131Y-97260002D01*
X129377498Y-97369658D01*
X129427904Y-97468585D01*
X129427909Y-97468592D01*
X129506407Y-97547090D01*
X129506410Y-97547092D01*
X129506413Y-97547095D01*
X129589948Y-97589658D01*
X129605341Y-97597501D01*
X129714998Y-97614869D01*
X129715000Y-97614869D01*
X129715002Y-97614869D01*
X129824658Y-97597501D01*
X129824659Y-97597500D01*
X129824661Y-97597500D01*
X129923587Y-97547095D01*
X130002095Y-97468587D01*
X130052500Y-97369661D01*
X130052500Y-97369659D01*
X130052501Y-97369658D01*
X130069869Y-97260002D01*
X130069869Y-97259997D01*
X130630131Y-97259997D01*
X130630131Y-97260002D01*
X130647498Y-97369658D01*
X130697904Y-97468585D01*
X130697909Y-97468592D01*
X130776407Y-97547090D01*
X130776410Y-97547092D01*
X130776413Y-97547095D01*
X130859948Y-97589658D01*
X130875341Y-97597501D01*
X130984998Y-97614869D01*
X130985000Y-97614869D01*
X130985002Y-97614869D01*
X131094658Y-97597501D01*
X131094659Y-97597500D01*
X131094661Y-97597500D01*
X131193587Y-97547095D01*
X131272095Y-97468587D01*
X131322500Y-97369661D01*
X131322500Y-97369659D01*
X131322501Y-97369658D01*
X131339869Y-97260002D01*
X131339869Y-97259997D01*
X131322501Y-97150341D01*
X131309656Y-97125131D01*
X131272095Y-97051413D01*
X131272092Y-97051410D01*
X131272090Y-97051407D01*
X131193592Y-96972909D01*
X131193588Y-96972906D01*
X131193587Y-96972905D01*
X131189743Y-96970946D01*
X131094658Y-96922498D01*
X130985002Y-96905131D01*
X130984998Y-96905131D01*
X130875341Y-96922498D01*
X130776414Y-96972904D01*
X130776407Y-96972909D01*
X130697909Y-97051407D01*
X130697904Y-97051414D01*
X130647498Y-97150341D01*
X130630131Y-97259997D01*
X130069869Y-97259997D01*
X130052501Y-97150341D01*
X130039656Y-97125131D01*
X130002095Y-97051413D01*
X130002092Y-97051410D01*
X130002090Y-97051407D01*
X129923592Y-96972909D01*
X129923588Y-96972906D01*
X129923587Y-96972905D01*
X129919743Y-96970946D01*
X129824658Y-96922498D01*
X129715002Y-96905131D01*
X129714998Y-96905131D01*
X129605341Y-96922498D01*
X129506414Y-96972904D01*
X129506407Y-96972909D01*
X129427909Y-97051407D01*
X129427904Y-97051414D01*
X129377498Y-97150341D01*
X129360131Y-97259997D01*
X126805680Y-97259997D01*
X126738592Y-97192909D01*
X126738588Y-97192906D01*
X126738587Y-97192905D01*
X126734743Y-97190946D01*
X126639658Y-97142498D01*
X126530002Y-97125131D01*
X126529998Y-97125131D01*
X126420341Y-97142498D01*
X126321414Y-97192904D01*
X126321407Y-97192909D01*
X126242909Y-97271407D01*
X126242904Y-97271414D01*
X126192498Y-97370341D01*
X126175131Y-97479997D01*
X125838534Y-97479997D01*
X125844869Y-97440002D01*
X125844869Y-97439997D01*
X125827501Y-97330341D01*
X125819753Y-97315134D01*
X125777095Y-97231413D01*
X125777092Y-97231410D01*
X125777090Y-97231407D01*
X125698592Y-97152909D01*
X125698588Y-97152906D01*
X125698587Y-97152905D01*
X125678162Y-97142498D01*
X125599658Y-97102498D01*
X125490002Y-97085131D01*
X125489998Y-97085131D01*
X125380341Y-97102498D01*
X125281414Y-97152904D01*
X125281407Y-97152909D01*
X125202909Y-97231407D01*
X125202904Y-97231414D01*
X125152498Y-97330341D01*
X125135131Y-97439997D01*
X124791659Y-97439997D01*
X124777095Y-97411413D01*
X124777092Y-97411410D01*
X124777090Y-97411407D01*
X124698592Y-97332909D01*
X124698588Y-97332906D01*
X124698587Y-97332905D01*
X124690112Y-97328587D01*
X124599658Y-97282498D01*
X124490002Y-97265131D01*
X124489998Y-97265131D01*
X124380341Y-97282498D01*
X124281414Y-97332904D01*
X124281407Y-97332909D01*
X124202909Y-97411407D01*
X124202904Y-97411414D01*
X124152498Y-97510341D01*
X124135131Y-97619997D01*
X121180000Y-97619997D01*
X121180000Y-97119997D01*
X122415131Y-97119997D01*
X122415131Y-97120002D01*
X122432498Y-97229658D01*
X122482904Y-97328585D01*
X122482909Y-97328592D01*
X122561407Y-97407090D01*
X122561410Y-97407092D01*
X122561413Y-97407095D01*
X122625993Y-97440000D01*
X122660341Y-97457501D01*
X122769998Y-97474869D01*
X122770000Y-97474869D01*
X122770002Y-97474869D01*
X122879658Y-97457501D01*
X122879659Y-97457500D01*
X122879661Y-97457500D01*
X122978587Y-97407095D01*
X123057095Y-97328587D01*
X123107500Y-97229661D01*
X123107500Y-97229659D01*
X123107501Y-97229658D01*
X123124869Y-97120002D01*
X123124869Y-97119997D01*
X123107501Y-97010341D01*
X123103591Y-97002667D01*
X123057095Y-96911413D01*
X123057092Y-96911410D01*
X123057090Y-96911407D01*
X122978592Y-96832909D01*
X122978588Y-96832906D01*
X122978587Y-96832905D01*
X122903937Y-96794869D01*
X122879658Y-96782498D01*
X122770002Y-96765131D01*
X122769998Y-96765131D01*
X122660341Y-96782498D01*
X122561414Y-96832904D01*
X122561407Y-96832909D01*
X122482909Y-96911407D01*
X122482904Y-96911414D01*
X122432498Y-97010341D01*
X122415131Y-97119997D01*
X121180000Y-97119997D01*
X121180000Y-96389997D01*
X125945131Y-96389997D01*
X125945131Y-96390002D01*
X125962498Y-96499658D01*
X126012904Y-96598585D01*
X126012909Y-96598592D01*
X126091407Y-96677090D01*
X126091410Y-96677092D01*
X126091413Y-96677095D01*
X126189534Y-96727090D01*
X126190341Y-96727501D01*
X126299998Y-96744869D01*
X126300000Y-96744869D01*
X126300002Y-96744869D01*
X126409658Y-96727501D01*
X126409659Y-96727500D01*
X126409661Y-96727500D01*
X126508587Y-96677095D01*
X126587095Y-96598587D01*
X126637500Y-96499661D01*
X126637500Y-96499659D01*
X126637501Y-96499658D01*
X126654869Y-96390002D01*
X126654869Y-96389997D01*
X126637501Y-96280341D01*
X126615673Y-96237501D01*
X126587095Y-96181413D01*
X126587092Y-96181410D01*
X126587090Y-96181407D01*
X126508592Y-96102909D01*
X126508588Y-96102906D01*
X126508587Y-96102905D01*
X126482588Y-96089658D01*
X126409658Y-96052498D01*
X126300002Y-96035131D01*
X126299998Y-96035131D01*
X126190341Y-96052498D01*
X126091414Y-96102904D01*
X126091407Y-96102909D01*
X126012909Y-96181407D01*
X126012904Y-96181414D01*
X125962498Y-96280341D01*
X125945131Y-96389997D01*
X121180000Y-96389997D01*
X121180000Y-95899997D01*
X122415131Y-95899997D01*
X122415131Y-95900002D01*
X122432498Y-96009658D01*
X122482904Y-96108585D01*
X122482909Y-96108592D01*
X122561407Y-96187090D01*
X122561410Y-96187092D01*
X122561413Y-96187095D01*
X122660339Y-96237500D01*
X122660341Y-96237501D01*
X122769998Y-96254869D01*
X122770000Y-96254869D01*
X122770002Y-96254869D01*
X122879658Y-96237501D01*
X122879659Y-96237500D01*
X122879661Y-96237500D01*
X122978587Y-96187095D01*
X123057095Y-96108587D01*
X123107500Y-96009661D01*
X123107500Y-96009659D01*
X123107501Y-96009658D01*
X123112199Y-95979997D01*
X127485131Y-95979997D01*
X127485131Y-95980002D01*
X127502498Y-96089658D01*
X127552904Y-96188585D01*
X127552909Y-96188592D01*
X127631407Y-96267090D01*
X127631410Y-96267092D01*
X127631413Y-96267095D01*
X127730339Y-96317500D01*
X127730341Y-96317501D01*
X127839998Y-96334869D01*
X127842574Y-96334869D01*
X127845590Y-96335754D01*
X127849639Y-96336396D01*
X127849556Y-96336919D01*
X127909613Y-96354554D01*
X127955368Y-96407358D01*
X127965047Y-96439471D01*
X127982498Y-96549658D01*
X128032904Y-96648585D01*
X128032909Y-96648592D01*
X128111407Y-96727090D01*
X128111410Y-96727092D01*
X128111413Y-96727095D01*
X128210339Y-96777500D01*
X128210341Y-96777501D01*
X128319998Y-96794869D01*
X128320000Y-96794869D01*
X128320002Y-96794869D01*
X128429658Y-96777501D01*
X128429659Y-96777500D01*
X128429661Y-96777500D01*
X128528587Y-96727095D01*
X128607095Y-96648587D01*
X128657500Y-96549661D01*
X128657500Y-96549659D01*
X128657501Y-96549658D01*
X128674869Y-96440002D01*
X128674869Y-96439997D01*
X128670117Y-96409997D01*
X129995131Y-96409997D01*
X129995131Y-96410002D01*
X130012498Y-96519658D01*
X130062904Y-96618585D01*
X130062909Y-96618592D01*
X130141407Y-96697090D01*
X130141410Y-96697092D01*
X130141413Y-96697095D01*
X130200282Y-96727090D01*
X130240341Y-96747501D01*
X130349998Y-96764869D01*
X130350000Y-96764869D01*
X130350002Y-96764869D01*
X130459658Y-96747501D01*
X130459659Y-96747500D01*
X130459661Y-96747500D01*
X130558587Y-96697095D01*
X130637095Y-96618587D01*
X130672043Y-96549997D01*
X132705131Y-96549997D01*
X132705131Y-96550002D01*
X132722498Y-96659658D01*
X132772904Y-96758585D01*
X132772909Y-96758592D01*
X132851407Y-96837090D01*
X132851410Y-96837092D01*
X132851413Y-96837095D01*
X132950339Y-96887500D01*
X132950341Y-96887501D01*
X133059998Y-96904869D01*
X133060000Y-96904869D01*
X133060002Y-96904869D01*
X133169658Y-96887501D01*
X133169659Y-96887500D01*
X133169661Y-96887500D01*
X133268587Y-96837095D01*
X133347095Y-96758587D01*
X133397500Y-96659661D01*
X133397500Y-96659659D01*
X133397501Y-96659658D01*
X133414869Y-96550002D01*
X133414869Y-96549997D01*
X133397501Y-96440341D01*
X133397058Y-96439471D01*
X133347095Y-96341413D01*
X133347092Y-96341410D01*
X133347090Y-96341407D01*
X133268592Y-96262909D01*
X133268588Y-96262906D01*
X133268587Y-96262905D01*
X133218727Y-96237500D01*
X133169658Y-96212498D01*
X133060002Y-96195131D01*
X133059998Y-96195131D01*
X132950341Y-96212498D01*
X132851414Y-96262904D01*
X132851407Y-96262909D01*
X132772909Y-96341407D01*
X132772904Y-96341414D01*
X132722498Y-96440341D01*
X132705131Y-96549997D01*
X130672043Y-96549997D01*
X130687500Y-96519661D01*
X130687500Y-96519659D01*
X130687501Y-96519658D01*
X130704869Y-96410002D01*
X130704869Y-96409997D01*
X130687501Y-96300341D01*
X130682435Y-96290398D01*
X130637095Y-96201413D01*
X130637092Y-96201410D01*
X130637090Y-96201407D01*
X130558592Y-96122909D01*
X130558588Y-96122906D01*
X130558587Y-96122905D01*
X130530482Y-96108585D01*
X130459658Y-96072498D01*
X130350002Y-96055131D01*
X130349998Y-96055131D01*
X130240341Y-96072498D01*
X130141414Y-96122904D01*
X130141407Y-96122909D01*
X130062909Y-96201407D01*
X130062904Y-96201414D01*
X130012498Y-96300341D01*
X129995131Y-96409997D01*
X128670117Y-96409997D01*
X128657501Y-96330341D01*
X128632024Y-96280339D01*
X128607095Y-96231413D01*
X128607092Y-96231410D01*
X128607090Y-96231407D01*
X128528592Y-96152909D01*
X128528588Y-96152906D01*
X128528587Y-96152905D01*
X128482850Y-96129601D01*
X128429658Y-96102498D01*
X128320002Y-96085131D01*
X128317426Y-96085131D01*
X128314409Y-96084245D01*
X128310361Y-96083604D01*
X128310443Y-96083080D01*
X128250387Y-96065446D01*
X128204632Y-96012642D01*
X128194953Y-95980529D01*
X128177501Y-95870341D01*
X128136738Y-95790339D01*
X128127095Y-95771413D01*
X128127092Y-95771410D01*
X128127090Y-95771407D01*
X128048592Y-95692909D01*
X128048588Y-95692906D01*
X128048587Y-95692905D01*
X128044743Y-95690946D01*
X127949658Y-95642498D01*
X127840002Y-95625131D01*
X127839998Y-95625131D01*
X127730341Y-95642498D01*
X127631414Y-95692904D01*
X127631407Y-95692909D01*
X127552909Y-95771407D01*
X127552904Y-95771414D01*
X127502498Y-95870341D01*
X127485131Y-95979997D01*
X123112199Y-95979997D01*
X123124869Y-95900002D01*
X123124869Y-95899997D01*
X123107501Y-95790341D01*
X123057855Y-95692905D01*
X123057095Y-95691413D01*
X123057092Y-95691410D01*
X123057090Y-95691407D01*
X122978592Y-95612909D01*
X122978588Y-95612906D01*
X122978587Y-95612905D01*
X122974743Y-95610946D01*
X122879658Y-95562498D01*
X122770002Y-95545131D01*
X122769998Y-95545131D01*
X122660341Y-95562498D01*
X122561414Y-95612904D01*
X122561407Y-95612909D01*
X122482909Y-95691407D01*
X122482904Y-95691414D01*
X122432498Y-95790341D01*
X122415131Y-95899997D01*
X121180000Y-95899997D01*
X121180000Y-95651362D01*
X121199685Y-95584323D01*
X121216319Y-95563681D01*
X121622910Y-95157090D01*
X122038346Y-94741653D01*
X122099667Y-94708170D01*
X122169358Y-94713154D01*
X122225292Y-94755026D01*
X122249709Y-94820490D01*
X122248499Y-94848731D01*
X122245131Y-94869999D01*
X122245131Y-94870002D01*
X122262498Y-94979658D01*
X122312904Y-95078585D01*
X122312909Y-95078592D01*
X122391407Y-95157090D01*
X122391410Y-95157092D01*
X122391413Y-95157095D01*
X122490339Y-95207500D01*
X122490341Y-95207501D01*
X122599998Y-95224869D01*
X122600000Y-95224869D01*
X122600002Y-95224869D01*
X122709658Y-95207501D01*
X122709659Y-95207500D01*
X122709661Y-95207500D01*
X122808587Y-95157095D01*
X122887095Y-95078587D01*
X122937500Y-94979661D01*
X122937500Y-94979659D01*
X122937501Y-94979658D01*
X122954869Y-94870002D01*
X122954869Y-94869997D01*
X122937501Y-94760341D01*
X122926795Y-94739329D01*
X122887095Y-94661413D01*
X122887092Y-94661410D01*
X122887090Y-94661407D01*
X122808592Y-94582909D01*
X122808588Y-94582906D01*
X122808587Y-94582905D01*
X122744007Y-94550000D01*
X122709658Y-94532498D01*
X122600002Y-94515131D01*
X122600000Y-94515131D01*
X122578731Y-94518499D01*
X122509437Y-94509542D01*
X122455987Y-94464544D01*
X122435349Y-94397792D01*
X122454076Y-94330479D01*
X122471651Y-94308348D01*
X123943681Y-92836319D01*
X124005004Y-92802834D01*
X124031362Y-92800000D01*
X125175500Y-92800000D01*
X125242539Y-92819685D01*
G37*
%TD.AperFunction*%
%TD*%
%TA.AperFunction,Conductor*%
%TO.N,+3.3V*%
G36*
X130693039Y-105599685D02*
G01*
X130738794Y-105652489D01*
X130750000Y-105704000D01*
X130750000Y-107234473D01*
X130730315Y-107301512D01*
X130677511Y-107347267D01*
X130645399Y-107356946D01*
X130610341Y-107362498D01*
X130516294Y-107410418D01*
X130447625Y-107423314D01*
X130403706Y-107410418D01*
X130309658Y-107362498D01*
X130200002Y-107345131D01*
X130199998Y-107345131D01*
X130090341Y-107362498D01*
X129991414Y-107412904D01*
X129991407Y-107412909D01*
X129912909Y-107491407D01*
X129912904Y-107491414D01*
X129862498Y-107590341D01*
X129845131Y-107699997D01*
X129845131Y-107700002D01*
X129862498Y-107809658D01*
X129912904Y-107908585D01*
X129912909Y-107908592D01*
X129991407Y-107987090D01*
X129991411Y-107987093D01*
X129991413Y-107987095D01*
X130052296Y-108018116D01*
X130103091Y-108066089D01*
X130120000Y-108128600D01*
X130120000Y-109069999D01*
X130120560Y-109071351D01*
X130130000Y-109118806D01*
X130130000Y-109835500D01*
X130110315Y-109902539D01*
X130057511Y-109948294D01*
X130006000Y-109959500D01*
X128184000Y-109959500D01*
X128116961Y-109939815D01*
X128071206Y-109887011D01*
X128060000Y-109835500D01*
X128060000Y-109101699D01*
X128079685Y-109034660D01*
X128085197Y-109026773D01*
X128173752Y-108909997D01*
X128825131Y-108909997D01*
X128825131Y-108910002D01*
X128842498Y-109019658D01*
X128892904Y-109118585D01*
X128892909Y-109118592D01*
X128971407Y-109197090D01*
X128971410Y-109197092D01*
X128971413Y-109197095D01*
X129070339Y-109247500D01*
X129070341Y-109247501D01*
X129179998Y-109264869D01*
X129180000Y-109264869D01*
X129180002Y-109264869D01*
X129289658Y-109247501D01*
X129289659Y-109247500D01*
X129289661Y-109247500D01*
X129388587Y-109197095D01*
X129467095Y-109118587D01*
X129517500Y-109019661D01*
X129517500Y-109019659D01*
X129517501Y-109019658D01*
X129534869Y-108910002D01*
X129534869Y-108909997D01*
X129517501Y-108800341D01*
X129494854Y-108755893D01*
X129467095Y-108701413D01*
X129467092Y-108701410D01*
X129467090Y-108701407D01*
X129388592Y-108622909D01*
X129388588Y-108622906D01*
X129388587Y-108622905D01*
X129377184Y-108617095D01*
X129289658Y-108572498D01*
X129180002Y-108555131D01*
X129179998Y-108555131D01*
X129070341Y-108572498D01*
X128971414Y-108622904D01*
X128971407Y-108622909D01*
X128892909Y-108701407D01*
X128892904Y-108701414D01*
X128842498Y-108800341D01*
X128825131Y-108909997D01*
X128173752Y-108909997D01*
X128256908Y-108800341D01*
X128970000Y-107860000D01*
X129260000Y-107370000D01*
X129259998Y-107369998D01*
X129256409Y-107341543D01*
X129252834Y-107334996D01*
X129250000Y-107308638D01*
X129250000Y-105704000D01*
X129269685Y-105636961D01*
X129322489Y-105591206D01*
X129374000Y-105580000D01*
X130626000Y-105580000D01*
X130693039Y-105599685D01*
G37*
%TD.AperFunction*%
%TD*%
%TA.AperFunction,Conductor*%
%TO.N,+3.3V*%
G36*
X142373039Y-95999685D02*
G01*
X142418794Y-96052489D01*
X142430000Y-96104000D01*
X142430000Y-96120000D01*
X142900000Y-96590000D01*
X144386000Y-96590000D01*
X144453039Y-96609685D01*
X144498794Y-96662489D01*
X144510000Y-96714000D01*
X144510000Y-97088638D01*
X144490315Y-97155677D01*
X144473681Y-97176319D01*
X143866787Y-97783212D01*
X143805464Y-97816697D01*
X143802816Y-97817243D01*
X143069999Y-97960000D01*
X142743008Y-99352050D01*
X142708515Y-99412811D01*
X142646647Y-99445279D01*
X142619411Y-99447660D01*
X142392603Y-99442386D01*
X142326040Y-99421149D01*
X142281525Y-99367295D01*
X142273167Y-99338765D01*
X142237990Y-99127210D01*
X142131221Y-99028506D01*
X142095357Y-98968543D01*
X142091437Y-98934280D01*
X142100000Y-98600000D01*
X142100000Y-97685000D01*
X141867327Y-97236274D01*
X141763918Y-97036841D01*
X141750000Y-96979762D01*
X141750000Y-96160001D01*
X141744064Y-96124386D01*
X141752459Y-96055022D01*
X141797023Y-96001209D01*
X141863605Y-95980031D01*
X141866377Y-95980000D01*
X142306000Y-95980000D01*
X142373039Y-95999685D01*
G37*
%TD.AperFunction*%
%TD*%
%TA.AperFunction,Conductor*%
%TO.N,+3.3V*%
G36*
X141153039Y-99649685D02*
G01*
X141198794Y-99702489D01*
X141210000Y-99754000D01*
X141210000Y-99960000D01*
X141300500Y-99960000D01*
X141367539Y-99979685D01*
X141413294Y-100032489D01*
X141424500Y-100084000D01*
X141424500Y-100336000D01*
X141404815Y-100403039D01*
X141352011Y-100448794D01*
X141300500Y-100460000D01*
X140889999Y-100460000D01*
X139690000Y-101659999D01*
X139690000Y-102276000D01*
X139670315Y-102343039D01*
X139617511Y-102388794D01*
X139566000Y-102400000D01*
X139151362Y-102400000D01*
X139084323Y-102380315D01*
X139063681Y-102363681D01*
X139006319Y-102306319D01*
X138972834Y-102244996D01*
X138970000Y-102218638D01*
X138970000Y-100004000D01*
X138989685Y-99936961D01*
X139042489Y-99891206D01*
X139094000Y-99880000D01*
X139470000Y-99880000D01*
X139683681Y-99666319D01*
X139745004Y-99632834D01*
X139771362Y-99630000D01*
X141086000Y-99630000D01*
X141153039Y-99649685D01*
G37*
%TD.AperFunction*%
%TD*%
M02*
