%TF.GenerationSoftware,KiCad,Pcbnew,8.0.5*%
%TF.CreationDate,2024-12-17T02:27:59+01:00*%
%TF.ProjectId,hardware v5,68617264-7761-4726-9520-76352e6b6963,rev?*%
%TF.SameCoordinates,Original*%
%TF.FileFunction,Legend,Bot*%
%TF.FilePolarity,Positive*%
%FSLAX46Y46*%
G04 Gerber Fmt 4.6, Leading zero omitted, Abs format (unit mm)*
G04 Created by KiCad (PCBNEW 8.0.5) date 2024-12-17 02:27:59*
%MOMM*%
%LPD*%
G01*
G04 APERTURE LIST*
%ADD10C,0.100000*%
%ADD11C,0.200000*%
%ADD12C,0.120000*%
G04 APERTURE END LIST*
D10*
X134110877Y-108500276D02*
X134110877Y-108905038D01*
X134110877Y-108905038D02*
X134134687Y-108952657D01*
X134134687Y-108952657D02*
X134158496Y-108976466D01*
X134158496Y-108976466D02*
X134206115Y-109000276D01*
X134206115Y-109000276D02*
X134277544Y-109000276D01*
X134277544Y-109000276D02*
X134325163Y-108976466D01*
X134110877Y-108809800D02*
X134158496Y-108833609D01*
X134158496Y-108833609D02*
X134253734Y-108833609D01*
X134253734Y-108833609D02*
X134301353Y-108809800D01*
X134301353Y-108809800D02*
X134325163Y-108785990D01*
X134325163Y-108785990D02*
X134348972Y-108738371D01*
X134348972Y-108738371D02*
X134348972Y-108595514D01*
X134348972Y-108595514D02*
X134325163Y-108547895D01*
X134325163Y-108547895D02*
X134301353Y-108524085D01*
X134301353Y-108524085D02*
X134253734Y-108500276D01*
X134253734Y-108500276D02*
X134158496Y-108500276D01*
X134158496Y-108500276D02*
X134110877Y-108524085D01*
X133872782Y-108500276D02*
X133872782Y-109000276D01*
X133872782Y-108524085D02*
X133825163Y-108500276D01*
X133825163Y-108500276D02*
X133729925Y-108500276D01*
X133729925Y-108500276D02*
X133682306Y-108524085D01*
X133682306Y-108524085D02*
X133658496Y-108547895D01*
X133658496Y-108547895D02*
X133634687Y-108595514D01*
X133634687Y-108595514D02*
X133634687Y-108738371D01*
X133634687Y-108738371D02*
X133658496Y-108785990D01*
X133658496Y-108785990D02*
X133682306Y-108809800D01*
X133682306Y-108809800D02*
X133729925Y-108833609D01*
X133729925Y-108833609D02*
X133825163Y-108833609D01*
X133825163Y-108833609D02*
X133872782Y-108809800D01*
X133444210Y-108809800D02*
X133396591Y-108833609D01*
X133396591Y-108833609D02*
X133301353Y-108833609D01*
X133301353Y-108833609D02*
X133253734Y-108809800D01*
X133253734Y-108809800D02*
X133229925Y-108762180D01*
X133229925Y-108762180D02*
X133229925Y-108738371D01*
X133229925Y-108738371D02*
X133253734Y-108690752D01*
X133253734Y-108690752D02*
X133301353Y-108666942D01*
X133301353Y-108666942D02*
X133372782Y-108666942D01*
X133372782Y-108666942D02*
X133420401Y-108643133D01*
X133420401Y-108643133D02*
X133444210Y-108595514D01*
X133444210Y-108595514D02*
X133444210Y-108571704D01*
X133444210Y-108571704D02*
X133420401Y-108524085D01*
X133420401Y-108524085D02*
X133372782Y-108500276D01*
X133372782Y-108500276D02*
X133301353Y-108500276D01*
X133301353Y-108500276D02*
X133253734Y-108524085D01*
X132825163Y-108809800D02*
X132872782Y-108833609D01*
X132872782Y-108833609D02*
X132968020Y-108833609D01*
X132968020Y-108833609D02*
X133015639Y-108809800D01*
X133015639Y-108809800D02*
X133039448Y-108762180D01*
X133039448Y-108762180D02*
X133039448Y-108571704D01*
X133039448Y-108571704D02*
X133015639Y-108524085D01*
X133015639Y-108524085D02*
X132968020Y-108500276D01*
X132968020Y-108500276D02*
X132872782Y-108500276D01*
X132872782Y-108500276D02*
X132825163Y-108524085D01*
X132825163Y-108524085D02*
X132801353Y-108571704D01*
X132801353Y-108571704D02*
X132801353Y-108619323D01*
X132801353Y-108619323D02*
X133039448Y-108666942D01*
X132634687Y-108833609D02*
X132372782Y-108500276D01*
X132634687Y-108500276D02*
X132372782Y-108833609D01*
X132253734Y-108500276D02*
X132063258Y-108500276D01*
X132182306Y-108333609D02*
X132182306Y-108762180D01*
X132182306Y-108762180D02*
X132158496Y-108809800D01*
X132158496Y-108809800D02*
X132110877Y-108833609D01*
X132110877Y-108833609D02*
X132063258Y-108833609D01*
X131896592Y-108833609D02*
X131896592Y-108500276D01*
X131896592Y-108333609D02*
X131920401Y-108357419D01*
X131920401Y-108357419D02*
X131896592Y-108381228D01*
X131896592Y-108381228D02*
X131872782Y-108357419D01*
X131872782Y-108357419D02*
X131896592Y-108333609D01*
X131896592Y-108333609D02*
X131896592Y-108381228D01*
X128160000Y-108560000D02*
X128370000Y-108770000D01*
X128160000Y-108560000D02*
X128390000Y-108330000D01*
X131500000Y-108560000D02*
X128160000Y-108560000D01*
X144349723Y-101015163D02*
X143849723Y-101015163D01*
X144325914Y-101015163D02*
X144349723Y-100967544D01*
X144349723Y-100967544D02*
X144349723Y-100872306D01*
X144349723Y-100872306D02*
X144325914Y-100824687D01*
X144325914Y-100824687D02*
X144302104Y-100800877D01*
X144302104Y-100800877D02*
X144254485Y-100777068D01*
X144254485Y-100777068D02*
X144111628Y-100777068D01*
X144111628Y-100777068D02*
X144064009Y-100800877D01*
X144064009Y-100800877D02*
X144040200Y-100824687D01*
X144040200Y-100824687D02*
X144016390Y-100872306D01*
X144016390Y-100872306D02*
X144016390Y-100967544D01*
X144016390Y-100967544D02*
X144040200Y-101015163D01*
X144016390Y-100562782D02*
X144349723Y-100562782D01*
X144254485Y-100562782D02*
X144302104Y-100538972D01*
X144302104Y-100538972D02*
X144325914Y-100515163D01*
X144325914Y-100515163D02*
X144349723Y-100467544D01*
X144349723Y-100467544D02*
X144349723Y-100419925D01*
X144040200Y-100062782D02*
X144016390Y-100110401D01*
X144016390Y-100110401D02*
X144016390Y-100205639D01*
X144016390Y-100205639D02*
X144040200Y-100253258D01*
X144040200Y-100253258D02*
X144087819Y-100277067D01*
X144087819Y-100277067D02*
X144278295Y-100277067D01*
X144278295Y-100277067D02*
X144325914Y-100253258D01*
X144325914Y-100253258D02*
X144349723Y-100205639D01*
X144349723Y-100205639D02*
X144349723Y-100110401D01*
X144349723Y-100110401D02*
X144325914Y-100062782D01*
X144325914Y-100062782D02*
X144278295Y-100038972D01*
X144278295Y-100038972D02*
X144230676Y-100038972D01*
X144230676Y-100038972D02*
X144183057Y-100277067D01*
X144040200Y-99848496D02*
X144016390Y-99800877D01*
X144016390Y-99800877D02*
X144016390Y-99705639D01*
X144016390Y-99705639D02*
X144040200Y-99658020D01*
X144040200Y-99658020D02*
X144087819Y-99634211D01*
X144087819Y-99634211D02*
X144111628Y-99634211D01*
X144111628Y-99634211D02*
X144159247Y-99658020D01*
X144159247Y-99658020D02*
X144183057Y-99705639D01*
X144183057Y-99705639D02*
X144183057Y-99777068D01*
X144183057Y-99777068D02*
X144206866Y-99824687D01*
X144206866Y-99824687D02*
X144254485Y-99848496D01*
X144254485Y-99848496D02*
X144278295Y-99848496D01*
X144278295Y-99848496D02*
X144325914Y-99824687D01*
X144325914Y-99824687D02*
X144349723Y-99777068D01*
X144349723Y-99777068D02*
X144349723Y-99705639D01*
X144349723Y-99705639D02*
X144325914Y-99658020D01*
X144040200Y-99443734D02*
X144016390Y-99396115D01*
X144016390Y-99396115D02*
X144016390Y-99300877D01*
X144016390Y-99300877D02*
X144040200Y-99253258D01*
X144040200Y-99253258D02*
X144087819Y-99229449D01*
X144087819Y-99229449D02*
X144111628Y-99229449D01*
X144111628Y-99229449D02*
X144159247Y-99253258D01*
X144159247Y-99253258D02*
X144183057Y-99300877D01*
X144183057Y-99300877D02*
X144183057Y-99372306D01*
X144183057Y-99372306D02*
X144206866Y-99419925D01*
X144206866Y-99419925D02*
X144254485Y-99443734D01*
X144254485Y-99443734D02*
X144278295Y-99443734D01*
X144278295Y-99443734D02*
X144325914Y-99419925D01*
X144325914Y-99419925D02*
X144349723Y-99372306D01*
X144349723Y-99372306D02*
X144349723Y-99300877D01*
X144349723Y-99300877D02*
X144325914Y-99253258D01*
X144349723Y-98800877D02*
X144016390Y-98800877D01*
X144349723Y-99015163D02*
X144087819Y-99015163D01*
X144087819Y-99015163D02*
X144040200Y-98991353D01*
X144040200Y-98991353D02*
X144016390Y-98943734D01*
X144016390Y-98943734D02*
X144016390Y-98872306D01*
X144016390Y-98872306D02*
X144040200Y-98824687D01*
X144040200Y-98824687D02*
X144064009Y-98800877D01*
X144016390Y-98562782D02*
X144349723Y-98562782D01*
X144254485Y-98562782D02*
X144302104Y-98538972D01*
X144302104Y-98538972D02*
X144325914Y-98515163D01*
X144325914Y-98515163D02*
X144349723Y-98467544D01*
X144349723Y-98467544D02*
X144349723Y-98419925D01*
X144040200Y-98062782D02*
X144016390Y-98110401D01*
X144016390Y-98110401D02*
X144016390Y-98205639D01*
X144016390Y-98205639D02*
X144040200Y-98253258D01*
X144040200Y-98253258D02*
X144087819Y-98277067D01*
X144087819Y-98277067D02*
X144278295Y-98277067D01*
X144278295Y-98277067D02*
X144325914Y-98253258D01*
X144325914Y-98253258D02*
X144349723Y-98205639D01*
X144349723Y-98205639D02*
X144349723Y-98110401D01*
X144349723Y-98110401D02*
X144325914Y-98062782D01*
X144325914Y-98062782D02*
X144278295Y-98038972D01*
X144278295Y-98038972D02*
X144230676Y-98038972D01*
X144230676Y-98038972D02*
X144183057Y-98277067D01*
%TO.C,ANT2*%
X119750000Y-103670000D02*
X119750000Y-103670000D01*
X119850000Y-103670000D02*
X119850000Y-103670000D01*
D11*
X123300000Y-107620000D02*
X120350000Y-107620000D01*
X120350000Y-107620000D02*
X120350000Y-104670000D01*
X120350000Y-92120000D02*
X120350000Y-95070000D01*
X123300000Y-92120000D02*
X120350000Y-92120000D01*
X135850000Y-107620000D02*
X132900000Y-107620000D01*
X135850000Y-104670000D02*
X135850000Y-107620000D01*
X135850000Y-92120000D02*
X135850000Y-95070000D01*
X132900000Y-92120000D02*
X135850000Y-92120000D01*
D10*
X119850000Y-103670000D02*
G75*
G02*
X119750000Y-103670000I-50000J0D01*
G01*
X119750000Y-103670000D02*
G75*
G02*
X119850000Y-103670000I50000J0D01*
G01*
D12*
%TO.C,R21*%
X126756359Y-107980000D02*
X127063641Y-107980000D01*
X126756359Y-108740000D02*
X127063641Y-108740000D01*
%TO.C,C19*%
X138887836Y-100770000D02*
X138672164Y-100770000D01*
X138887836Y-101490000D02*
X138672164Y-101490000D01*
%TO.C,J2*%
X145650000Y-96910000D02*
X145650000Y-97710000D01*
X145800000Y-96910000D02*
X145650000Y-96910000D01*
X148320000Y-96090000D02*
X149730000Y-96090000D01*
X148320000Y-105250000D02*
X149730000Y-105250000D01*
%TO.C,C12*%
X139722164Y-101690000D02*
X139937836Y-101690000D01*
X139722164Y-102410000D02*
X139937836Y-102410000D01*
%TO.C,C9*%
X127752164Y-109010000D02*
X127967836Y-109010000D01*
X127752164Y-109730000D02*
X127967836Y-109730000D01*
D10*
%TO.C,WSEN-PADS1*%
X140200000Y-99793000D02*
X140200000Y-99793000D01*
X140300000Y-99793000D02*
X140300000Y-99793000D01*
X140200000Y-99793000D02*
G75*
G02*
X140300000Y-99793000I50000J0D01*
G01*
X140300000Y-99793000D02*
G75*
G02*
X140200000Y-99793000I-50000J0D01*
G01*
D12*
%TO.C,C2*%
X139517836Y-95650000D02*
X139302164Y-95650000D01*
X139517836Y-96370000D02*
X139302164Y-96370000D01*
%TO.C,C10*%
X130427836Y-109080000D02*
X130212164Y-109080000D01*
X130427836Y-109800000D02*
X130212164Y-109800000D01*
%TO.C,C24*%
X143740000Y-96507836D02*
X143740000Y-96292164D01*
X144460000Y-96507836D02*
X144460000Y-96292164D01*
%TO.C,R1*%
X149813641Y-94860000D02*
X149506359Y-94860000D01*
X149813641Y-95620000D02*
X149506359Y-95620000D01*
%TO.C,R2*%
X146003641Y-94870000D02*
X145696359Y-94870000D01*
X146003641Y-95630000D02*
X145696359Y-95630000D01*
D10*
%TO.C,D2*%
X151870000Y-91425000D02*
G75*
G02*
X151770000Y-91425000I-50000J0D01*
G01*
X151770000Y-91425000D02*
G75*
G02*
X151870000Y-91425000I50000J0D01*
G01*
D12*
%TO.C,C22*%
X142780000Y-96497836D02*
X142780000Y-96282164D01*
X143500000Y-96497836D02*
X143500000Y-96282164D01*
%TO.C,R20*%
X140873641Y-96620000D02*
X140566359Y-96620000D01*
X140873641Y-97380000D02*
X140566359Y-97380000D01*
D10*
%TO.C,D3*%
X150900000Y-91415000D02*
G75*
G02*
X150800000Y-91415000I-50000J0D01*
G01*
X150800000Y-91415000D02*
G75*
G02*
X150900000Y-91415000I50000J0D01*
G01*
%TO.C,J1*%
X137410000Y-105497000D02*
X137910000Y-105497000D01*
X137410000Y-109748000D02*
X137410000Y-105497000D01*
X139910000Y-109748000D02*
X142910000Y-109748000D01*
X145410000Y-105497000D02*
X144910000Y-105497000D01*
X145410000Y-109748000D02*
X145410000Y-105497000D01*
D12*
%TO.C,C13*%
X142202164Y-101670000D02*
X142417836Y-101670000D01*
X142202164Y-102390000D02*
X142417836Y-102390000D01*
%TO.C,C20*%
X138897836Y-99820000D02*
X138682164Y-99820000D01*
X138897836Y-100540000D02*
X138682164Y-100540000D01*
%TO.C,R19*%
X138830000Y-98316359D02*
X138830000Y-98623641D01*
X139590000Y-98316359D02*
X139590000Y-98623641D01*
%TO.C,C25*%
X138907836Y-102610000D02*
X138692164Y-102610000D01*
X138907836Y-103330000D02*
X138692164Y-103330000D01*
%TD*%
M02*
