%TF.GenerationSoftware,KiCad,Pcbnew,8.0.5*%
%TF.CreationDate,2024-12-17T02:27:59+01:00*%
%TF.ProjectId,hardware v5,68617264-7761-4726-9520-76352e6b6963,rev?*%
%TF.SameCoordinates,Original*%
%TF.FileFunction,Copper,L3,Inr*%
%TF.FilePolarity,Positive*%
%FSLAX46Y46*%
G04 Gerber Fmt 4.6, Leading zero omitted, Abs format (unit mm)*
G04 Created by KiCad (PCBNEW 8.0.5) date 2024-12-17 02:27:59*
%MOMM*%
%LPD*%
G01*
G04 APERTURE LIST*
%TA.AperFunction,ComponentPad*%
%ADD10R,1.700000X1.700000*%
%TD*%
%TA.AperFunction,ComponentPad*%
%ADD11O,1.700000X1.700000*%
%TD*%
%TA.AperFunction,ComponentPad*%
%ADD12O,1.800000X1.000000*%
%TD*%
%TA.AperFunction,ComponentPad*%
%ADD13O,2.100000X1.000000*%
%TD*%
%TA.AperFunction,ViaPad*%
%ADD14C,0.400000*%
%TD*%
%TA.AperFunction,Conductor*%
%ADD15C,0.150000*%
%TD*%
%TA.AperFunction,Conductor*%
%ADD16C,0.200000*%
%TD*%
G04 APERTURE END LIST*
D10*
%TO.N,GND*%
%TO.C,J3*%
X148570000Y-92965000D03*
D11*
%TO.N,+3.3V*%
X146030000Y-92965000D03*
%TO.N,OLED_SCL*%
X143490000Y-92965000D03*
%TO.N,OLED_SDA*%
X140950000Y-92965000D03*
%TD*%
D12*
%TO.N,GND*%
%TO.C,J2*%
X151240000Y-96350000D03*
D13*
X147060000Y-96350000D03*
D12*
X151240000Y-104990000D03*
D13*
X147060000Y-104990000D03*
%TD*%
D14*
%TO.N,GND*%
X126300000Y-96390000D03*
%TO.N,GPSTIMEPULSE*%
X126190000Y-94650000D03*
X133060000Y-96550000D03*
X137390000Y-94810000D03*
%TO.N,Net-(ANT2-TIMEPULSE)*%
X126250000Y-92590000D03*
%TO.N,GPSEXTINT*%
X128090000Y-108330000D03*
X136420000Y-103640000D03*
%TO.N,GNDGPS*%
X121700000Y-96080000D03*
X127750000Y-104900000D03*
X122120000Y-98000000D03*
X128110000Y-104570000D03*
X121530000Y-98000000D03*
%TO.N,GND*%
X121430000Y-91890000D03*
X120620000Y-104950000D03*
X150430000Y-98280000D03*
X149090000Y-105540000D03*
X122770000Y-97120000D03*
X136230000Y-100910000D03*
X138350000Y-96890000D03*
X143220000Y-106520000D03*
X149930000Y-103260000D03*
X145260000Y-106520000D03*
X121640000Y-105130000D03*
X138360000Y-93700000D03*
X136340000Y-97140000D03*
X151380000Y-106520000D03*
X131840000Y-101000000D03*
X120030000Y-106430000D03*
X147060000Y-94160000D03*
X137450000Y-101240000D03*
X119780000Y-105010000D03*
X120320000Y-91470000D03*
X136150000Y-101900000D03*
X139830000Y-93610000D03*
X119820000Y-105800000D03*
X122600000Y-94870000D03*
X143160000Y-101250000D03*
X142200000Y-106520000D03*
X130820000Y-100250000D03*
X138910000Y-106540000D03*
X134060000Y-106430000D03*
X140570000Y-101920000D03*
X143440000Y-102740000D03*
X119770000Y-97230000D03*
X139370000Y-96870000D03*
X125090000Y-101470000D03*
X137270000Y-97540000D03*
X149340000Y-106520000D03*
X126290000Y-91440000D03*
X133330000Y-95060000D03*
X122920000Y-103320000D03*
X141150000Y-100950000D03*
X138270000Y-106990000D03*
X133670000Y-104790000D03*
X132980000Y-104880000D03*
X145650000Y-96580000D03*
X120590000Y-105770000D03*
X151160000Y-103200000D03*
X125130000Y-91890000D03*
X137100000Y-107090000D03*
X148640000Y-91490000D03*
X138400000Y-99310000D03*
X141140000Y-101910000D03*
X119770000Y-95840000D03*
X142210000Y-92970000D03*
X144600000Y-104770000D03*
X144680000Y-91590000D03*
X147810000Y-106520000D03*
X130350000Y-96410000D03*
X150330000Y-102310000D03*
X139850000Y-94290000D03*
X138270000Y-109030000D03*
X122810000Y-107270000D03*
X140620000Y-94220000D03*
X147710000Y-98490000D03*
X148320000Y-106520000D03*
X148830000Y-106520000D03*
X129250000Y-101410000D03*
X127390000Y-100180000D03*
X142254834Y-95284834D03*
X142710000Y-106520000D03*
X125260000Y-98410000D03*
X147680000Y-102870000D03*
X146790000Y-106520000D03*
X149130000Y-102280000D03*
X131890000Y-105050000D03*
X134180000Y-93190000D03*
X150360000Y-106520000D03*
X133610000Y-108220000D03*
X133730000Y-107250000D03*
X140140000Y-98080000D03*
X123690000Y-104750000D03*
X138270000Y-107500000D03*
X143660000Y-103890000D03*
X151440000Y-97360000D03*
X124820000Y-104340000D03*
X149990000Y-93840000D03*
X126530000Y-97480000D03*
X143730000Y-106520000D03*
X119620000Y-103290000D03*
X120500000Y-93330000D03*
X144040000Y-100990000D03*
X147300000Y-106520000D03*
X150410000Y-97380000D03*
X151750000Y-103830000D03*
X127260000Y-101240000D03*
X127300000Y-98910000D03*
X151910000Y-91440000D03*
X149810000Y-104430000D03*
X138280000Y-98070000D03*
X130610000Y-105150000D03*
X138270000Y-108010000D03*
X126290000Y-105160000D03*
X147260000Y-91500000D03*
X131130000Y-91840000D03*
X140960000Y-106540000D03*
X149270000Y-96100000D03*
X123980000Y-102590000D03*
X151890000Y-106520000D03*
X133350000Y-93820000D03*
X148240000Y-94180000D03*
X123990000Y-91440000D03*
X141690000Y-106520000D03*
X151420000Y-98330000D03*
X151950000Y-94110000D03*
X125650000Y-94550000D03*
X144750000Y-106520000D03*
X131980000Y-97790000D03*
X121260000Y-109500000D03*
X133600000Y-94590000D03*
X139420000Y-91460000D03*
X135870000Y-91390000D03*
X141950000Y-91490000D03*
X138270000Y-108520000D03*
X119820000Y-94310000D03*
X137820000Y-101920000D03*
X119660000Y-92000000D03*
X148310000Y-101990000D03*
X137390000Y-109610000D03*
X129280000Y-91460000D03*
X149850000Y-106520000D03*
X142340000Y-102840000D03*
X129100000Y-98890000D03*
X144240000Y-106520000D03*
X121160000Y-94310000D03*
X127430000Y-91840000D03*
X120120000Y-108490000D03*
X138270000Y-109540000D03*
X122700000Y-92360000D03*
X149970000Y-96060000D03*
X130820000Y-101380000D03*
X122840000Y-106450000D03*
X150870000Y-106520000D03*
X151640000Y-102310000D03*
X141150000Y-98100000D03*
X137560000Y-91420000D03*
X146280000Y-106520000D03*
X119630000Y-101820000D03*
X123340000Y-108700000D03*
X145770000Y-106520000D03*
X122490000Y-91430000D03*
X135290000Y-93160000D03*
X136240000Y-98010000D03*
X131770000Y-99750000D03*
X149890000Y-91610000D03*
X132150000Y-91470000D03*
X124490000Y-97620000D03*
X125490000Y-97440000D03*
X134200000Y-91430000D03*
X150920000Y-94920000D03*
%TO.N,+3.3V*%
X135920000Y-95280000D03*
X137560000Y-104730000D03*
X137060000Y-104410000D03*
X130360000Y-102760000D03*
X133330000Y-100220000D03*
X122100000Y-101330000D03*
X135270000Y-94750000D03*
X136510000Y-104430000D03*
X142820000Y-97140000D03*
X143920000Y-104400000D03*
X134320000Y-94480000D03*
X136020000Y-104430000D03*
X127840000Y-95980000D03*
X137150000Y-105320000D03*
X122770000Y-95900000D03*
X141758656Y-103854826D03*
X143910000Y-104990000D03*
X129320000Y-104170000D03*
X142820000Y-97690000D03*
X138868083Y-103605000D03*
X120910000Y-101340000D03*
X128320000Y-96440000D03*
X133250000Y-100860831D03*
X130380000Y-103240000D03*
X139833442Y-95395000D03*
%TO.N,vusb*%
X131359997Y-108980000D03*
X131860000Y-108980000D03*
X121580000Y-107080000D03*
X145300000Y-105010000D03*
X121570000Y-106370000D03*
X151650000Y-100330000D03*
X144915000Y-105395000D03*
%TO.N,Net-(IC3-EN)*%
X135360000Y-108890000D03*
X136210000Y-108800000D03*
X135800000Y-108900000D03*
X123660000Y-107980000D03*
%TO.N,Net-(U1-NRST)*%
X133380000Y-91910000D03*
X132830000Y-98940000D03*
%TO.N,SPI_MOSi*%
X127780000Y-102220000D03*
X137557500Y-95295095D03*
%TO.N,SPI_MISO*%
X136990000Y-103680000D03*
X129715000Y-97260000D03*
%TO.N,SPI_CS*%
X130985000Y-97260000D03*
X137010000Y-94450000D03*
%TO.N,COMPASSDA*%
X132950000Y-97500000D03*
X142900000Y-104810000D03*
X141478477Y-94897064D03*
%TO.N,COMPASSCL*%
X133499998Y-98155000D03*
X141940251Y-104764958D03*
%TO.N,USART_RX*%
X140960000Y-103999240D03*
X142900000Y-95170000D03*
%TO.N,USART_TX*%
X138100000Y-103700000D03*
%TO.N,OLED_SCL*%
X137530000Y-103700000D03*
%TO.N,ALIMGPS*%
X133130000Y-102060000D03*
X127170000Y-105310000D03*
%TO.N,Net-(U1-PA4)*%
X129180000Y-108910000D03*
X135900002Y-103510000D03*
%TO.N,BAT+*%
X122450000Y-105110000D03*
X130200000Y-107700000D03*
X130720000Y-107700000D03*
X123220000Y-105680000D03*
X123210000Y-105110000D03*
X122490000Y-105660000D03*
%TO.N,SWDIO*%
X138930000Y-94610000D03*
X138400000Y-91940000D03*
%TO.N,SWCLK*%
X136720000Y-91930000D03*
X139230000Y-95280000D03*
%TO.N,SWO*%
X135040000Y-91900000D03*
X138307500Y-95190000D03*
%TO.N,D+*%
X150595000Y-101310000D03*
X140790000Y-95283906D03*
%TO.N,D-*%
X141558903Y-95390555D03*
X150595000Y-99410000D03*
%TO.N,Net-(U1-PB0)*%
X148384659Y-95447254D03*
X143120000Y-100410000D03*
%TO.N,Net-(U1-PB1)*%
X145070000Y-95950000D03*
X143050000Y-99810000D03*
%TO.N,Net-(ANT2-RXD)*%
X133214488Y-102810000D03*
%TO.N,Net-(ANT2-TXD)*%
X132190002Y-103188079D03*
%TO.N,Net-(ANT2-V_BCKP)*%
X123765000Y-100805000D03*
%TO.N,USBD-*%
X147270000Y-99830000D03*
%TO.N,Net-(J2-CC1)*%
X148750000Y-98240000D03*
%TO.N,USBD+*%
X147240000Y-101400000D03*
%TO.N,Net-(J2-CC2)*%
X148760000Y-103100000D03*
%TO.N,Net-(S3-COM_2)*%
X126090000Y-102840000D03*
X133499998Y-97560000D03*
%TD*%
D15*
%TO.N,GPSTIMEPULSE*%
X127040331Y-94650000D02*
X126190000Y-94650000D01*
X128350331Y-95960000D02*
X127040331Y-94650000D01*
X130450000Y-95960000D02*
X128350331Y-95960000D01*
X133030000Y-96580000D02*
X131070000Y-96580000D01*
X133060000Y-96550000D02*
X133030000Y-96580000D01*
X131070000Y-96580000D02*
X130450000Y-95960000D01*
%TO.N,SPI_CS*%
X136850000Y-95573946D02*
X135298946Y-97125000D01*
X135298946Y-97125000D02*
X131120000Y-97125000D01*
X137010000Y-94450000D02*
X136850000Y-94610000D01*
X131120000Y-97125000D02*
X130985000Y-97260000D01*
X136850000Y-94610000D02*
X136850000Y-95573946D01*
%TO.N,SPI_MOSi*%
X137482405Y-95295095D02*
X134247500Y-98530000D01*
X137557500Y-95295095D02*
X137482405Y-95295095D01*
X134247500Y-98530000D02*
X131470000Y-98530000D01*
X131470000Y-98530000D02*
X127780000Y-102220000D01*
%TO.N,GPSEXTINT*%
X136005000Y-104055000D02*
X136420000Y-103640000D01*
X135865000Y-104055000D02*
X136005000Y-104055000D01*
X130440000Y-108410000D02*
X131510000Y-108410000D01*
X129024669Y-109285000D02*
X129565000Y-109285000D01*
X129565000Y-109285000D02*
X130440000Y-108410000D01*
X128090000Y-108350331D02*
X129024669Y-109285000D01*
X128090000Y-108330000D02*
X128090000Y-108350331D01*
X131510000Y-108410000D02*
X135865000Y-104055000D01*
%TO.N,Net-(U1-PA4)*%
X131270002Y-108140000D02*
X135900002Y-103510000D01*
X130340000Y-108140000D02*
X131270002Y-108140000D01*
X129570000Y-108910000D02*
X130340000Y-108140000D01*
X129180000Y-108910000D02*
X129570000Y-108910000D01*
%TO.N,OLED_SCL*%
X141213577Y-94330000D02*
X142660000Y-94330000D01*
X142660000Y-94330000D02*
X143490000Y-93500000D01*
X143490000Y-93500000D02*
X143490000Y-92965000D01*
X140400000Y-96950000D02*
X140400000Y-95143577D01*
X139745000Y-101485000D02*
X139745000Y-97605000D01*
X140400000Y-95143577D02*
X141213577Y-94330000D01*
X137530000Y-103700000D02*
X139745000Y-101485000D01*
X139745000Y-97605000D02*
X140400000Y-96950000D01*
%TO.N,ALIMGPS*%
X132537588Y-101927823D02*
X131900000Y-102565411D01*
X129540331Y-105310000D02*
X127170000Y-105310000D01*
X131900000Y-102950331D02*
X129540331Y-105310000D01*
X133130000Y-102060000D02*
X132997823Y-101927823D01*
X132997823Y-101927823D02*
X132537588Y-101927823D01*
X131900000Y-102565411D02*
X131900000Y-102950331D01*
%TO.N,SWDIO*%
X138930000Y-94610000D02*
X138930000Y-92470000D01*
X138930000Y-92470000D02*
X138400000Y-91940000D01*
%TO.N,SWCLK*%
X136720000Y-92930331D02*
X136720000Y-91930000D01*
X139230000Y-95280000D02*
X139069669Y-95280000D01*
X139069669Y-95280000D02*
X136720000Y-92930331D01*
%TO.N,SWO*%
X138307500Y-95167500D02*
X135040000Y-91900000D01*
X138307500Y-95190000D02*
X138307500Y-95167500D01*
X138307500Y-95190000D02*
X138229669Y-95190000D01*
D16*
%TO.N,D+*%
X144350000Y-100530000D02*
X149815000Y-100530000D01*
X141040000Y-95533906D02*
X141040000Y-97220000D01*
X141040000Y-97220000D02*
X144350000Y-100530000D01*
X149815000Y-100530000D02*
X150595000Y-101310000D01*
X140790000Y-95283906D02*
X141040000Y-95533906D01*
%TO.N,D-*%
X141340000Y-97095736D02*
X144474264Y-100230000D01*
X141558903Y-95390555D02*
X141340000Y-95609458D01*
X149775000Y-100230000D02*
X150595000Y-99410000D01*
X144474264Y-100230000D02*
X149775000Y-100230000D01*
X141340000Y-95609458D02*
X141340000Y-97095736D01*
D15*
%TO.N,Net-(S3-COM_2)*%
X127220000Y-101710000D02*
X127936446Y-101710000D01*
X131406446Y-98240000D02*
X132819998Y-98240000D01*
X132819998Y-98240000D02*
X133499998Y-97560000D01*
X127936446Y-101710000D02*
X131406446Y-98240000D01*
X126090000Y-102840000D02*
X127220000Y-101710000D01*
%TD*%
%TA.AperFunction,Conductor*%
%TO.N,GND*%
G36*
X152232539Y-91180185D02*
G01*
X152278294Y-91232989D01*
X152289500Y-91284500D01*
X152289500Y-106726000D01*
X152269815Y-106793039D01*
X152217011Y-106838794D01*
X152165500Y-106850000D01*
X145110000Y-106850000D01*
X145110000Y-109835500D01*
X145090315Y-109902539D01*
X145037511Y-109948294D01*
X144986000Y-109959500D01*
X119504500Y-109959500D01*
X119437461Y-109939815D01*
X119391706Y-109887011D01*
X119380500Y-109835500D01*
X119380500Y-108355943D01*
X121729500Y-108355943D01*
X121729500Y-108514057D01*
X121762041Y-108635500D01*
X121770423Y-108666783D01*
X121770426Y-108666790D01*
X121849475Y-108803709D01*
X121849479Y-108803714D01*
X121849480Y-108803716D01*
X121961284Y-108915520D01*
X121961286Y-108915521D01*
X121961290Y-108915524D01*
X122072971Y-108980002D01*
X122098216Y-108994577D01*
X122250943Y-109035500D01*
X122250945Y-109035500D01*
X122409055Y-109035500D01*
X122409057Y-109035500D01*
X122561784Y-108994577D01*
X122698716Y-108915520D01*
X122810520Y-108803716D01*
X122889577Y-108666784D01*
X122930500Y-108514057D01*
X122930500Y-108355943D01*
X124729500Y-108355943D01*
X124729500Y-108514057D01*
X124762041Y-108635500D01*
X124770423Y-108666783D01*
X124770426Y-108666790D01*
X124849475Y-108803709D01*
X124849479Y-108803714D01*
X124849480Y-108803716D01*
X124961284Y-108915520D01*
X124961286Y-108915521D01*
X124961290Y-108915524D01*
X125072971Y-108980002D01*
X125098216Y-108994577D01*
X125250943Y-109035500D01*
X125250945Y-109035500D01*
X125409055Y-109035500D01*
X125409057Y-109035500D01*
X125561784Y-108994577D01*
X125698716Y-108915520D01*
X125810520Y-108803716D01*
X125889577Y-108666784D01*
X125930500Y-108514057D01*
X125930500Y-108355943D01*
X125889577Y-108203216D01*
X125881130Y-108188585D01*
X125810524Y-108066290D01*
X125810518Y-108066282D01*
X125698717Y-107954481D01*
X125698709Y-107954475D01*
X125561790Y-107875426D01*
X125561786Y-107875424D01*
X125561784Y-107875423D01*
X125409057Y-107834500D01*
X125250943Y-107834500D01*
X125098216Y-107875423D01*
X125098209Y-107875426D01*
X124961290Y-107954475D01*
X124961282Y-107954481D01*
X124849481Y-108066282D01*
X124849475Y-108066290D01*
X124770426Y-108203209D01*
X124770423Y-108203216D01*
X124729500Y-108355943D01*
X122930500Y-108355943D01*
X122889577Y-108203216D01*
X122881130Y-108188585D01*
X122810524Y-108066290D01*
X122810518Y-108066282D01*
X122724233Y-107979997D01*
X123305131Y-107979997D01*
X123305131Y-107980002D01*
X123322498Y-108089658D01*
X123372904Y-108188585D01*
X123372909Y-108188592D01*
X123451407Y-108267090D01*
X123451410Y-108267092D01*
X123451413Y-108267095D01*
X123550339Y-108317500D01*
X123550341Y-108317501D01*
X123659998Y-108334869D01*
X123660000Y-108334869D01*
X123660002Y-108334869D01*
X123769658Y-108317501D01*
X123769659Y-108317500D01*
X123769661Y-108317500D01*
X123868587Y-108267095D01*
X123947095Y-108188587D01*
X123997500Y-108089661D01*
X123997500Y-108089659D01*
X123997501Y-108089658D01*
X124014869Y-107980002D01*
X124014869Y-107979997D01*
X123997501Y-107870341D01*
X123979239Y-107834500D01*
X123947095Y-107771413D01*
X123947092Y-107771410D01*
X123947090Y-107771407D01*
X123868592Y-107692909D01*
X123868588Y-107692906D01*
X123868587Y-107692905D01*
X123864743Y-107690946D01*
X123769658Y-107642498D01*
X123660002Y-107625131D01*
X123659998Y-107625131D01*
X123550341Y-107642498D01*
X123451414Y-107692904D01*
X123451407Y-107692909D01*
X123372909Y-107771407D01*
X123372904Y-107771414D01*
X123322498Y-107870341D01*
X123305131Y-107979997D01*
X122724233Y-107979997D01*
X122698717Y-107954481D01*
X122698709Y-107954475D01*
X122561790Y-107875426D01*
X122561786Y-107875424D01*
X122561784Y-107875423D01*
X122409057Y-107834500D01*
X122250943Y-107834500D01*
X122098216Y-107875423D01*
X122098209Y-107875426D01*
X121961290Y-107954475D01*
X121961282Y-107954481D01*
X121849481Y-108066282D01*
X121849475Y-108066290D01*
X121770426Y-108203209D01*
X121770423Y-108203216D01*
X121729500Y-108355943D01*
X119380500Y-108355943D01*
X119380500Y-106369997D01*
X121215131Y-106369997D01*
X121215131Y-106370002D01*
X121232498Y-106479658D01*
X121282904Y-106578585D01*
X121282909Y-106578592D01*
X121346636Y-106642319D01*
X121380121Y-106703642D01*
X121375137Y-106773334D01*
X121346636Y-106817681D01*
X121292909Y-106871407D01*
X121292904Y-106871414D01*
X121242498Y-106970341D01*
X121225131Y-107079997D01*
X121225131Y-107080002D01*
X121242498Y-107189658D01*
X121292904Y-107288585D01*
X121292909Y-107288592D01*
X121371407Y-107367090D01*
X121371410Y-107367092D01*
X121371413Y-107367095D01*
X121456440Y-107410418D01*
X121470341Y-107417501D01*
X121579998Y-107434869D01*
X121580000Y-107434869D01*
X121580002Y-107434869D01*
X121689658Y-107417501D01*
X121689659Y-107417500D01*
X121689661Y-107417500D01*
X121788587Y-107367095D01*
X121867095Y-107288587D01*
X121917500Y-107189661D01*
X121917500Y-107189659D01*
X121917501Y-107189658D01*
X121934869Y-107080002D01*
X121934869Y-107079997D01*
X121917501Y-106970341D01*
X121917500Y-106970339D01*
X121867095Y-106871413D01*
X121867092Y-106871410D01*
X121867090Y-106871407D01*
X121803364Y-106807681D01*
X121769879Y-106746358D01*
X121774863Y-106676666D01*
X121803364Y-106632319D01*
X121857090Y-106578592D01*
X121857095Y-106578587D01*
X121907500Y-106479661D01*
X121907500Y-106479659D01*
X121907501Y-106479658D01*
X121924869Y-106370002D01*
X121924869Y-106369997D01*
X121907501Y-106260341D01*
X121907500Y-106260339D01*
X121857095Y-106161413D01*
X121857092Y-106161410D01*
X121857090Y-106161407D01*
X121778592Y-106082909D01*
X121778588Y-106082906D01*
X121778587Y-106082905D01*
X121774743Y-106080946D01*
X121679658Y-106032498D01*
X121570002Y-106015131D01*
X121569998Y-106015131D01*
X121460341Y-106032498D01*
X121361414Y-106082904D01*
X121361407Y-106082909D01*
X121282909Y-106161407D01*
X121282904Y-106161414D01*
X121232498Y-106260341D01*
X121215131Y-106369997D01*
X119380500Y-106369997D01*
X119380500Y-105109997D01*
X122095131Y-105109997D01*
X122095131Y-105110002D01*
X122112498Y-105219658D01*
X122162904Y-105318585D01*
X122162909Y-105318592D01*
X122170532Y-105326215D01*
X122204017Y-105387538D01*
X122199033Y-105457230D01*
X122193337Y-105470189D01*
X122152498Y-105550342D01*
X122135131Y-105659997D01*
X122135131Y-105660002D01*
X122152498Y-105769658D01*
X122202904Y-105868585D01*
X122202909Y-105868592D01*
X122281407Y-105947090D01*
X122281410Y-105947092D01*
X122281413Y-105947095D01*
X122380339Y-105997500D01*
X122380341Y-105997501D01*
X122489998Y-106014869D01*
X122490000Y-106014869D01*
X122490002Y-106014869D01*
X122599658Y-105997501D01*
X122599659Y-105997500D01*
X122599661Y-105997500D01*
X122698587Y-105947095D01*
X122698592Y-105947090D01*
X122757319Y-105888364D01*
X122818642Y-105854879D01*
X122888334Y-105859863D01*
X122932681Y-105888364D01*
X123011407Y-105967090D01*
X123011410Y-105967092D01*
X123011413Y-105967095D01*
X123071087Y-105997500D01*
X123110341Y-106017501D01*
X123219998Y-106034869D01*
X123220000Y-106034869D01*
X123220002Y-106034869D01*
X123329658Y-106017501D01*
X123329659Y-106017500D01*
X123329661Y-106017500D01*
X123428587Y-105967095D01*
X123507095Y-105888587D01*
X123557500Y-105789661D01*
X123557500Y-105789659D01*
X123557501Y-105789658D01*
X123574869Y-105680002D01*
X123574869Y-105679997D01*
X123557501Y-105570341D01*
X123547311Y-105550342D01*
X123507095Y-105471413D01*
X123507092Y-105471410D01*
X123501356Y-105463514D01*
X123503932Y-105461642D01*
X123478394Y-105414873D01*
X123483378Y-105345181D01*
X123492918Y-105327412D01*
X123492664Y-105327283D01*
X123501472Y-105309997D01*
X126815131Y-105309997D01*
X126815131Y-105310002D01*
X126832498Y-105419658D01*
X126882904Y-105518585D01*
X126882909Y-105518592D01*
X126961407Y-105597090D01*
X126961410Y-105597092D01*
X126961413Y-105597095D01*
X127060339Y-105647500D01*
X127060341Y-105647501D01*
X127169998Y-105664869D01*
X127170000Y-105664869D01*
X127170002Y-105664869D01*
X127279658Y-105647501D01*
X127279659Y-105647500D01*
X127279661Y-105647500D01*
X127378587Y-105597095D01*
X127378592Y-105597090D01*
X127403864Y-105571819D01*
X127465187Y-105538334D01*
X127491545Y-105535500D01*
X129481034Y-105535500D01*
X129481042Y-105535501D01*
X129495476Y-105535501D01*
X129585185Y-105535501D01*
X129585186Y-105535501D01*
X129656073Y-105506138D01*
X129668067Y-105501170D01*
X129731501Y-105437736D01*
X129731501Y-105437735D01*
X129748939Y-105420297D01*
X129748941Y-105420294D01*
X131750058Y-103419176D01*
X131811379Y-103385693D01*
X131881071Y-103390677D01*
X131925418Y-103419178D01*
X131981409Y-103475169D01*
X131981412Y-103475171D01*
X131981415Y-103475174D01*
X132080341Y-103525579D01*
X132080343Y-103525580D01*
X132190000Y-103542948D01*
X132190002Y-103542948D01*
X132190004Y-103542948D01*
X132299660Y-103525580D01*
X132299661Y-103525579D01*
X132299663Y-103525579D01*
X132398589Y-103475174D01*
X132398591Y-103475171D01*
X132400645Y-103473680D01*
X132403566Y-103472637D01*
X132407285Y-103470743D01*
X132407529Y-103471223D01*
X132466452Y-103450202D01*
X132473528Y-103450000D01*
X133230000Y-103450000D01*
X133290000Y-103390000D01*
X133290000Y-103240887D01*
X133309685Y-103173848D01*
X133357703Y-103130403D01*
X133423075Y-103097095D01*
X133501583Y-103018587D01*
X133551988Y-102919661D01*
X133551988Y-102919659D01*
X133551989Y-102919658D01*
X133569357Y-102810002D01*
X133569357Y-102809997D01*
X133551989Y-102700341D01*
X133516869Y-102631414D01*
X133501583Y-102601413D01*
X133501580Y-102601410D01*
X133501578Y-102601407D01*
X133423080Y-102522909D01*
X133423077Y-102522907D01*
X133423075Y-102522905D01*
X133402704Y-102512526D01*
X133351910Y-102464552D01*
X133335115Y-102396731D01*
X133357653Y-102330596D01*
X133371310Y-102314371D01*
X133417095Y-102268587D01*
X133467500Y-102169661D01*
X133467500Y-102169659D01*
X133467501Y-102169658D01*
X133484869Y-102060002D01*
X133484869Y-102059997D01*
X133467501Y-101950341D01*
X133459939Y-101935500D01*
X133417095Y-101851413D01*
X133417092Y-101851410D01*
X133417090Y-101851407D01*
X133338592Y-101772909D01*
X133338588Y-101772906D01*
X133338587Y-101772905D01*
X133303189Y-101754869D01*
X133239658Y-101722498D01*
X133130002Y-101705131D01*
X133130000Y-101705131D01*
X133106275Y-101708888D01*
X133055028Y-101702824D01*
X133054654Y-101704705D01*
X133042679Y-101702322D01*
X133042678Y-101702322D01*
X132952968Y-101702322D01*
X132938534Y-101702322D01*
X132938526Y-101702323D01*
X132596885Y-101702323D01*
X132596877Y-101702322D01*
X132582443Y-101702322D01*
X132492734Y-101702322D01*
X132492732Y-101702322D01*
X132492730Y-101702323D01*
X132444182Y-101722432D01*
X132409853Y-101736651D01*
X132391636Y-101754869D01*
X132346418Y-101800087D01*
X131742824Y-102403681D01*
X131681501Y-102437166D01*
X131655143Y-102440000D01*
X130533776Y-102440000D01*
X130477484Y-102426486D01*
X130469661Y-102422500D01*
X130469660Y-102422499D01*
X130469657Y-102422498D01*
X130360002Y-102405131D01*
X130359998Y-102405131D01*
X130250342Y-102422498D01*
X130246653Y-102424377D01*
X130242515Y-102426486D01*
X130186224Y-102440000D01*
X130159999Y-102440000D01*
X128381301Y-104218697D01*
X128319978Y-104252182D01*
X128250286Y-104247198D01*
X128237336Y-104241506D01*
X128219661Y-104232500D01*
X128219659Y-104232499D01*
X128219656Y-104232498D01*
X128110002Y-104215131D01*
X128109998Y-104215131D01*
X128000341Y-104232498D01*
X127901414Y-104282904D01*
X127901407Y-104282909D01*
X127822909Y-104361407D01*
X127822906Y-104361412D01*
X127822905Y-104361413D01*
X127789255Y-104427456D01*
X127772499Y-104460341D01*
X127769485Y-104469618D01*
X127766738Y-104468725D01*
X127743463Y-104517816D01*
X127684149Y-104554743D01*
X127670323Y-104557750D01*
X127640341Y-104562498D01*
X127541414Y-104612904D01*
X127541407Y-104612909D01*
X127462909Y-104691407D01*
X127462904Y-104691414D01*
X127412498Y-104790341D01*
X127400500Y-104866094D01*
X127370570Y-104929229D01*
X127311258Y-104966159D01*
X127258629Y-104969168D01*
X127170002Y-104955131D01*
X127169998Y-104955131D01*
X127060341Y-104972498D01*
X126961414Y-105022904D01*
X126961407Y-105022909D01*
X126882909Y-105101407D01*
X126882904Y-105101414D01*
X126832498Y-105200341D01*
X126815131Y-105309997D01*
X123501472Y-105309997D01*
X123547500Y-105219661D01*
X123547500Y-105219659D01*
X123547501Y-105219658D01*
X123564869Y-105110002D01*
X123564869Y-105109997D01*
X123547501Y-105000341D01*
X123542232Y-104990000D01*
X123497095Y-104901413D01*
X123497092Y-104901410D01*
X123497090Y-104901407D01*
X123418592Y-104822909D01*
X123418588Y-104822906D01*
X123418587Y-104822905D01*
X123393263Y-104810002D01*
X123319658Y-104772498D01*
X123210002Y-104755131D01*
X123209998Y-104755131D01*
X123100341Y-104772498D01*
X123001414Y-104822904D01*
X123001407Y-104822909D01*
X122917681Y-104906636D01*
X122856358Y-104940121D01*
X122786666Y-104935137D01*
X122742319Y-104906636D01*
X122658592Y-104822909D01*
X122658588Y-104822906D01*
X122658587Y-104822905D01*
X122633263Y-104810002D01*
X122559658Y-104772498D01*
X122450002Y-104755131D01*
X122449998Y-104755131D01*
X122340341Y-104772498D01*
X122241414Y-104822904D01*
X122241407Y-104822909D01*
X122162909Y-104901407D01*
X122162904Y-104901414D01*
X122112498Y-105000341D01*
X122095131Y-105109997D01*
X119380500Y-105109997D01*
X119380500Y-102839997D01*
X125735131Y-102839997D01*
X125735131Y-102840002D01*
X125752498Y-102949658D01*
X125802904Y-103048585D01*
X125802909Y-103048592D01*
X125881407Y-103127090D01*
X125881410Y-103127092D01*
X125881413Y-103127095D01*
X125970522Y-103172498D01*
X125980341Y-103177501D01*
X126089998Y-103194869D01*
X126090000Y-103194869D01*
X126090002Y-103194869D01*
X126199658Y-103177501D01*
X126199659Y-103177500D01*
X126199661Y-103177500D01*
X126298587Y-103127095D01*
X126377095Y-103048587D01*
X126427500Y-102949661D01*
X126427500Y-102949659D01*
X126427501Y-102949658D01*
X126442414Y-102855500D01*
X126444869Y-102840000D01*
X126444869Y-102839997D01*
X126445334Y-102837061D01*
X126475263Y-102773926D01*
X126480107Y-102768796D01*
X127229843Y-102019062D01*
X127291165Y-101985578D01*
X127360857Y-101990562D01*
X127416790Y-102032434D01*
X127441207Y-102097898D01*
X127439996Y-102126142D01*
X127425131Y-102219997D01*
X127425131Y-102220002D01*
X127442498Y-102329658D01*
X127476674Y-102396731D01*
X127491834Y-102426486D01*
X127492904Y-102428585D01*
X127492909Y-102428592D01*
X127571407Y-102507090D01*
X127571410Y-102507092D01*
X127571413Y-102507095D01*
X127661319Y-102552904D01*
X127670341Y-102557501D01*
X127779998Y-102574869D01*
X127780000Y-102574869D01*
X127780002Y-102574869D01*
X127889658Y-102557501D01*
X127889659Y-102557500D01*
X127889661Y-102557500D01*
X127988587Y-102507095D01*
X128067095Y-102428587D01*
X128117500Y-102329661D01*
X128117500Y-102329659D01*
X128117501Y-102329658D01*
X128127174Y-102268585D01*
X128134869Y-102220000D01*
X128134869Y-102219997D01*
X128135334Y-102217061D01*
X128165263Y-102153926D01*
X128170108Y-102148795D01*
X129458076Y-100860828D01*
X132895131Y-100860828D01*
X132895131Y-100860833D01*
X132912498Y-100970489D01*
X132962904Y-101069416D01*
X132962909Y-101069423D01*
X133041407Y-101147921D01*
X133041410Y-101147923D01*
X133041413Y-101147926D01*
X133064853Y-101159869D01*
X133140341Y-101198332D01*
X133249998Y-101215700D01*
X133250000Y-101215700D01*
X133250002Y-101215700D01*
X133359658Y-101198332D01*
X133359659Y-101198331D01*
X133359661Y-101198331D01*
X133458587Y-101147926D01*
X133537095Y-101069418D01*
X133587500Y-100970492D01*
X133587500Y-100970490D01*
X133587501Y-100970489D01*
X133604869Y-100860833D01*
X133604869Y-100860828D01*
X133587501Y-100751172D01*
X133583013Y-100742363D01*
X133537095Y-100652244D01*
X133537094Y-100652243D01*
X133532664Y-100643548D01*
X133534561Y-100642581D01*
X133515413Y-100588903D01*
X133531243Y-100520850D01*
X133551526Y-100494155D01*
X133617095Y-100428587D01*
X133667500Y-100329661D01*
X133667500Y-100329659D01*
X133667501Y-100329658D01*
X133684869Y-100220002D01*
X133684869Y-100219997D01*
X133667501Y-100110341D01*
X133633140Y-100042904D01*
X133617095Y-100011413D01*
X133617092Y-100011410D01*
X133617090Y-100011407D01*
X133538592Y-99932909D01*
X133538588Y-99932906D01*
X133538587Y-99932905D01*
X133487767Y-99907011D01*
X133439658Y-99882498D01*
X133330002Y-99865131D01*
X133329998Y-99865131D01*
X133220341Y-99882498D01*
X133121414Y-99932904D01*
X133121407Y-99932909D01*
X133042909Y-100011407D01*
X133042904Y-100011414D01*
X132992498Y-100110341D01*
X132975131Y-100219997D01*
X132975131Y-100220002D01*
X132992498Y-100329658D01*
X133007958Y-100360000D01*
X133033433Y-100409998D01*
X133047336Y-100437283D01*
X133045439Y-100438249D01*
X133064587Y-100491931D01*
X133048754Y-100559983D01*
X133028470Y-100586678D01*
X132962906Y-100652241D01*
X132962904Y-100652245D01*
X132912498Y-100751172D01*
X132895131Y-100860828D01*
X129458076Y-100860828D01*
X131527086Y-98791819D01*
X131588409Y-98758334D01*
X131614767Y-98755500D01*
X132359168Y-98755500D01*
X132426207Y-98775185D01*
X132471962Y-98827989D01*
X132481906Y-98897147D01*
X132481641Y-98898899D01*
X132475131Y-98939999D01*
X132475131Y-98940002D01*
X132492498Y-99049658D01*
X132542904Y-99148585D01*
X132542909Y-99148592D01*
X132621407Y-99227090D01*
X132621410Y-99227092D01*
X132621413Y-99227095D01*
X132720339Y-99277500D01*
X132720341Y-99277501D01*
X132829998Y-99294869D01*
X132830000Y-99294869D01*
X132830002Y-99294869D01*
X132939658Y-99277501D01*
X132939659Y-99277500D01*
X132939661Y-99277500D01*
X133038587Y-99227095D01*
X133117095Y-99148587D01*
X133167500Y-99049661D01*
X133167500Y-99049659D01*
X133167501Y-99049658D01*
X133184869Y-98940002D01*
X133184869Y-98939999D01*
X133178359Y-98898899D01*
X133187313Y-98829605D01*
X133232309Y-98776153D01*
X133299060Y-98755513D01*
X133300832Y-98755500D01*
X134188203Y-98755500D01*
X134188211Y-98755501D01*
X134202645Y-98755501D01*
X134292353Y-98755501D01*
X134292355Y-98755501D01*
X134350960Y-98731225D01*
X134375236Y-98721170D01*
X134438670Y-98657736D01*
X134438670Y-98657735D01*
X134456108Y-98640297D01*
X134456110Y-98640294D01*
X137416951Y-95679452D01*
X137478272Y-95645969D01*
X137524027Y-95644662D01*
X137557500Y-95649964D01*
X137557500Y-95649963D01*
X137557501Y-95649964D01*
X137557502Y-95649964D01*
X137667158Y-95632596D01*
X137667159Y-95632595D01*
X137667161Y-95632595D01*
X137766087Y-95582190D01*
X137844595Y-95503682D01*
X137861929Y-95469661D01*
X137909899Y-95418868D01*
X137977719Y-95402071D01*
X138043855Y-95424607D01*
X138060093Y-95438276D01*
X138098907Y-95477090D01*
X138098910Y-95477092D01*
X138098913Y-95477095D01*
X138153015Y-95504661D01*
X138197841Y-95527501D01*
X138307498Y-95544869D01*
X138307500Y-95544869D01*
X138307502Y-95544869D01*
X138417158Y-95527501D01*
X138417159Y-95527500D01*
X138417161Y-95527500D01*
X138516087Y-95477095D01*
X138594595Y-95398587D01*
X138609853Y-95368640D01*
X138657824Y-95317846D01*
X138725645Y-95301049D01*
X138791780Y-95323585D01*
X138808018Y-95337254D01*
X138871428Y-95400664D01*
X138871431Y-95400668D01*
X138911933Y-95441170D01*
X138934735Y-95472552D01*
X138938805Y-95480541D01*
X138942905Y-95488587D01*
X138942909Y-95488592D01*
X139021407Y-95567090D01*
X139021410Y-95567092D01*
X139021413Y-95567095D01*
X139084319Y-95599147D01*
X139120341Y-95617501D01*
X139229998Y-95634869D01*
X139230000Y-95634869D01*
X139230002Y-95634869D01*
X139339656Y-95617501D01*
X139339656Y-95617500D01*
X139339661Y-95617500D01*
X139405530Y-95583938D01*
X139474195Y-95571043D01*
X139538936Y-95597319D01*
X139549502Y-95606743D01*
X139624849Y-95682090D01*
X139624852Y-95682092D01*
X139624855Y-95682095D01*
X139715057Y-95728055D01*
X139723783Y-95732501D01*
X139833440Y-95749869D01*
X139833442Y-95749869D01*
X139833444Y-95749869D01*
X139943098Y-95732501D01*
X139943098Y-95732500D01*
X139943103Y-95732500D01*
X139994209Y-95706460D01*
X140062874Y-95693565D01*
X140127614Y-95719841D01*
X140167872Y-95776947D01*
X140174500Y-95816946D01*
X140174500Y-96805232D01*
X140154815Y-96872271D01*
X140138181Y-96892913D01*
X139891097Y-97139997D01*
X139617265Y-97413829D01*
X139617264Y-97413830D01*
X139585546Y-97445547D01*
X139553829Y-97477264D01*
X139550417Y-97485503D01*
X139519499Y-97560142D01*
X139519499Y-97664288D01*
X139519500Y-97664297D01*
X139519500Y-101340232D01*
X139499815Y-101407271D01*
X139483181Y-101427913D01*
X137601220Y-103309873D01*
X137539897Y-103343358D01*
X137532937Y-103344665D01*
X137420342Y-103362498D01*
X137333101Y-103406949D01*
X137264432Y-103419844D01*
X137203927Y-103396784D01*
X137198589Y-103392906D01*
X137099658Y-103342498D01*
X136990002Y-103325131D01*
X136989998Y-103325131D01*
X136880342Y-103342498D01*
X136786940Y-103390088D01*
X136718271Y-103402983D01*
X136653531Y-103376705D01*
X136642966Y-103367283D01*
X136628592Y-103352909D01*
X136628588Y-103352906D01*
X136628587Y-103352905D01*
X136608162Y-103342498D01*
X136529658Y-103302498D01*
X136420002Y-103285131D01*
X136419998Y-103285131D01*
X136310340Y-103302499D01*
X136310339Y-103302499D01*
X136309683Y-103302834D01*
X136308799Y-103302999D01*
X136301063Y-103305514D01*
X136300737Y-103304513D01*
X136241013Y-103315727D01*
X136176274Y-103289448D01*
X136165720Y-103280036D01*
X136108589Y-103222905D01*
X136053565Y-103194869D01*
X136009660Y-103172498D01*
X135900004Y-103155131D01*
X135900000Y-103155131D01*
X135790343Y-103172498D01*
X135691416Y-103222904D01*
X135691409Y-103222909D01*
X135612911Y-103301407D01*
X135612906Y-103301414D01*
X135562500Y-103400341D01*
X135544667Y-103512937D01*
X135514737Y-103576072D01*
X135509875Y-103581220D01*
X131285212Y-107805884D01*
X131223889Y-107839369D01*
X131154197Y-107834385D01*
X131098264Y-107792513D01*
X131073847Y-107727049D01*
X131074869Y-107703225D01*
X131074869Y-107699997D01*
X131057501Y-107590341D01*
X131057500Y-107590339D01*
X131007095Y-107491413D01*
X131007092Y-107491410D01*
X131007090Y-107491407D01*
X130928592Y-107412909D01*
X130928588Y-107412906D01*
X130928587Y-107412905D01*
X130923706Y-107410418D01*
X130829658Y-107362498D01*
X130720002Y-107345131D01*
X130719998Y-107345131D01*
X130610341Y-107362498D01*
X130516294Y-107410418D01*
X130447625Y-107423314D01*
X130403706Y-107410418D01*
X130309658Y-107362498D01*
X130200002Y-107345131D01*
X130199998Y-107345131D01*
X130090341Y-107362498D01*
X129991414Y-107412904D01*
X129991407Y-107412909D01*
X129912909Y-107491407D01*
X129912904Y-107491414D01*
X129862498Y-107590341D01*
X129845131Y-107699997D01*
X129845131Y-107700002D01*
X129862498Y-107809658D01*
X129912904Y-107908585D01*
X129912909Y-107908592D01*
X129995024Y-107990707D01*
X130028509Y-108052030D01*
X130023525Y-108121722D01*
X129995024Y-108166069D01*
X129550122Y-108610972D01*
X129488799Y-108644457D01*
X129419108Y-108639473D01*
X129389556Y-108623610D01*
X129388590Y-108622908D01*
X129388587Y-108622905D01*
X129362278Y-108609500D01*
X129289658Y-108572498D01*
X129180002Y-108555131D01*
X129179998Y-108555131D01*
X129070341Y-108572498D01*
X128971414Y-108622904D01*
X128971410Y-108622906D01*
X128914126Y-108680191D01*
X128852802Y-108713675D01*
X128783111Y-108708690D01*
X128738764Y-108680190D01*
X128481188Y-108422614D01*
X128447703Y-108361291D01*
X128444869Y-108334933D01*
X128444869Y-108329997D01*
X128427501Y-108220341D01*
X128411324Y-108188592D01*
X128377095Y-108121413D01*
X128377092Y-108121410D01*
X128377090Y-108121407D01*
X128298592Y-108042909D01*
X128298588Y-108042906D01*
X128298587Y-108042905D01*
X128287979Y-108037500D01*
X128199658Y-107992498D01*
X128090002Y-107975131D01*
X128089998Y-107975131D01*
X127980341Y-107992498D01*
X127881414Y-108042904D01*
X127881407Y-108042909D01*
X127802909Y-108121407D01*
X127802904Y-108121414D01*
X127752498Y-108220341D01*
X127735131Y-108329997D01*
X127735131Y-108330002D01*
X127752498Y-108439658D01*
X127802904Y-108538585D01*
X127802909Y-108538592D01*
X127881407Y-108617090D01*
X127881410Y-108617092D01*
X127881413Y-108617095D01*
X127980339Y-108667500D01*
X127980340Y-108667500D01*
X127980342Y-108667501D01*
X127980341Y-108667501D01*
X128068780Y-108681508D01*
X128131915Y-108711437D01*
X128137064Y-108716300D01*
X128826428Y-109405664D01*
X128826431Y-109405668D01*
X128833499Y-109412736D01*
X128896933Y-109476170D01*
X128931261Y-109490388D01*
X128931263Y-109490390D01*
X128931264Y-109490390D01*
X128979815Y-109510501D01*
X128979816Y-109510501D01*
X129083958Y-109510501D01*
X129083966Y-109510500D01*
X129505703Y-109510500D01*
X129505711Y-109510501D01*
X129520145Y-109510501D01*
X129609853Y-109510501D01*
X129609855Y-109510501D01*
X129668460Y-109486225D01*
X129692736Y-109476170D01*
X129756170Y-109412736D01*
X129756170Y-109412735D01*
X129773608Y-109395297D01*
X129773609Y-109395294D01*
X130497086Y-108671819D01*
X130558409Y-108638334D01*
X130584767Y-108635500D01*
X130939804Y-108635500D01*
X131006843Y-108655185D01*
X131052598Y-108707989D01*
X131062542Y-108777147D01*
X131050289Y-108815794D01*
X131022495Y-108870341D01*
X131005128Y-108979997D01*
X131005128Y-108980002D01*
X131022495Y-109089658D01*
X131072901Y-109188585D01*
X131072906Y-109188592D01*
X131151404Y-109267090D01*
X131151407Y-109267092D01*
X131151410Y-109267095D01*
X131166289Y-109274676D01*
X131250338Y-109317501D01*
X131359995Y-109334869D01*
X131359997Y-109334869D01*
X131359999Y-109334869D01*
X131469653Y-109317501D01*
X131469653Y-109317500D01*
X131469658Y-109317500D01*
X131553706Y-109274675D01*
X131622372Y-109261780D01*
X131666292Y-109274676D01*
X131750341Y-109317501D01*
X131859998Y-109334869D01*
X131860000Y-109334869D01*
X131860002Y-109334869D01*
X131969658Y-109317501D01*
X131969659Y-109317500D01*
X131969661Y-109317500D01*
X132068587Y-109267095D01*
X132147095Y-109188587D01*
X132197500Y-109089661D01*
X132197500Y-109089659D01*
X132197501Y-109089658D01*
X132214869Y-108980002D01*
X132214869Y-108979997D01*
X132200614Y-108889997D01*
X135005131Y-108889997D01*
X135005131Y-108890002D01*
X135022498Y-108999658D01*
X135072904Y-109098585D01*
X135072909Y-109098592D01*
X135151407Y-109177090D01*
X135151410Y-109177092D01*
X135151413Y-109177095D01*
X135246767Y-109225680D01*
X135250341Y-109227501D01*
X135359998Y-109244869D01*
X135360000Y-109244869D01*
X135360002Y-109244869D01*
X135469657Y-109227501D01*
X135469658Y-109227500D01*
X135469661Y-109227500D01*
X135513894Y-109204962D01*
X135582559Y-109192066D01*
X135626476Y-109204960D01*
X135690339Y-109237500D01*
X135690341Y-109237500D01*
X135690343Y-109237501D01*
X135799998Y-109254869D01*
X135800000Y-109254869D01*
X135800002Y-109254869D01*
X135909658Y-109237501D01*
X135909659Y-109237500D01*
X135909661Y-109237500D01*
X136008587Y-109187095D01*
X136019270Y-109176411D01*
X136080588Y-109142928D01*
X136126348Y-109141620D01*
X136209998Y-109154869D01*
X136210000Y-109154869D01*
X136210002Y-109154869D01*
X136319658Y-109137501D01*
X136319659Y-109137500D01*
X136319661Y-109137500D01*
X136418587Y-109087095D01*
X136497095Y-109008587D01*
X136547500Y-108909661D01*
X136547500Y-108909659D01*
X136547501Y-108909658D01*
X136564869Y-108800002D01*
X136564869Y-108799997D01*
X136547501Y-108690341D01*
X136544525Y-108684500D01*
X136497095Y-108591413D01*
X136497092Y-108591410D01*
X136497090Y-108591407D01*
X136418592Y-108512909D01*
X136418588Y-108512906D01*
X136418587Y-108512905D01*
X136335225Y-108470430D01*
X136319658Y-108462498D01*
X136210002Y-108445131D01*
X136209998Y-108445131D01*
X136100341Y-108462498D01*
X136001413Y-108512903D01*
X135990724Y-108523592D01*
X135929399Y-108557074D01*
X135883651Y-108558379D01*
X135800003Y-108545131D01*
X135799998Y-108545131D01*
X135690341Y-108562498D01*
X135646107Y-108585037D01*
X135577437Y-108597933D01*
X135533519Y-108585037D01*
X135469658Y-108552498D01*
X135360002Y-108535131D01*
X135359998Y-108535131D01*
X135250341Y-108552498D01*
X135151414Y-108602904D01*
X135151407Y-108602909D01*
X135072909Y-108681407D01*
X135072904Y-108681414D01*
X135022498Y-108780341D01*
X135005131Y-108889997D01*
X132200614Y-108889997D01*
X132197501Y-108870341D01*
X132169708Y-108815794D01*
X132147095Y-108771413D01*
X132147092Y-108771410D01*
X132147090Y-108771407D01*
X132068592Y-108692909D01*
X132068588Y-108692906D01*
X132068587Y-108692905D01*
X131969661Y-108642500D01*
X131969659Y-108642499D01*
X131969658Y-108642499D01*
X131887805Y-108629534D01*
X131824671Y-108599604D01*
X131787740Y-108540292D01*
X131788738Y-108470430D01*
X131819521Y-108419382D01*
X135578931Y-104659972D01*
X135640252Y-104626489D01*
X135709944Y-104631473D01*
X135754291Y-104659974D01*
X135811407Y-104717090D01*
X135811410Y-104717092D01*
X135811413Y-104717095D01*
X135905175Y-104764869D01*
X135910341Y-104767501D01*
X136019998Y-104784869D01*
X136020000Y-104784869D01*
X136020002Y-104784869D01*
X136129656Y-104767501D01*
X136129656Y-104767500D01*
X136129661Y-104767500D01*
X136208709Y-104727223D01*
X136277374Y-104714328D01*
X136321288Y-104727222D01*
X136400339Y-104767500D01*
X136400341Y-104767500D01*
X136400343Y-104767501D01*
X136509998Y-104784869D01*
X136510000Y-104784869D01*
X136510002Y-104784869D01*
X136619658Y-104767501D01*
X136619659Y-104767500D01*
X136619661Y-104767500D01*
X136718587Y-104717095D01*
X136718592Y-104717089D01*
X136726486Y-104711356D01*
X136728558Y-104714208D01*
X136774243Y-104689240D01*
X136843936Y-104694197D01*
X136856919Y-104699900D01*
X136950339Y-104747500D01*
X136950341Y-104747500D01*
X136950343Y-104747501D01*
X136993906Y-104754401D01*
X137057041Y-104784330D01*
X137093972Y-104843642D01*
X137092974Y-104913504D01*
X137054364Y-104971737D01*
X137030804Y-104987358D01*
X136941413Y-105032905D01*
X136941412Y-105032906D01*
X136941407Y-105032909D01*
X136862909Y-105111407D01*
X136862904Y-105111414D01*
X136812498Y-105210341D01*
X136795131Y-105319997D01*
X136795131Y-105320002D01*
X136812498Y-105429658D01*
X136862904Y-105528585D01*
X136862909Y-105528592D01*
X136941407Y-105607090D01*
X136941410Y-105607092D01*
X136941413Y-105607095D01*
X137020713Y-105647500D01*
X137040341Y-105657501D01*
X137149998Y-105674869D01*
X137150000Y-105674869D01*
X137150002Y-105674869D01*
X137259658Y-105657501D01*
X137259659Y-105657500D01*
X137259661Y-105657500D01*
X137358587Y-105607095D01*
X137437095Y-105528587D01*
X137487500Y-105429661D01*
X137487500Y-105429659D01*
X137487501Y-105429658D01*
X137492991Y-105394997D01*
X144560131Y-105394997D01*
X144560131Y-105395002D01*
X144577498Y-105504658D01*
X144627904Y-105603585D01*
X144627909Y-105603592D01*
X144706407Y-105682090D01*
X144706410Y-105682092D01*
X144706413Y-105682095D01*
X144805339Y-105732500D01*
X144805341Y-105732501D01*
X144914998Y-105749869D01*
X144915000Y-105749869D01*
X144915002Y-105749869D01*
X145024658Y-105732501D01*
X145024659Y-105732500D01*
X145024661Y-105732500D01*
X145123587Y-105682095D01*
X145202095Y-105603587D01*
X145252500Y-105504661D01*
X145259895Y-105457968D01*
X145289823Y-105394837D01*
X145349134Y-105357905D01*
X145362955Y-105354897D01*
X145409661Y-105347500D01*
X145508587Y-105297095D01*
X145587095Y-105218587D01*
X145637500Y-105119661D01*
X145637500Y-105119659D01*
X145637501Y-105119658D01*
X145654869Y-105010002D01*
X145654869Y-105009997D01*
X145637501Y-104900341D01*
X145637327Y-104900000D01*
X145587095Y-104801413D01*
X145587092Y-104801410D01*
X145587090Y-104801407D01*
X145508592Y-104722909D01*
X145508588Y-104722906D01*
X145508587Y-104722905D01*
X145469335Y-104702905D01*
X145409658Y-104672498D01*
X145300002Y-104655131D01*
X145299998Y-104655131D01*
X145190341Y-104672498D01*
X145091414Y-104722904D01*
X145091407Y-104722909D01*
X145012909Y-104801407D01*
X145012904Y-104801414D01*
X144962499Y-104900341D01*
X144955104Y-104947030D01*
X144925174Y-105010164D01*
X144865863Y-105047095D01*
X144852030Y-105050104D01*
X144805341Y-105057499D01*
X144706414Y-105107904D01*
X144706407Y-105107909D01*
X144627909Y-105186407D01*
X144627904Y-105186414D01*
X144577498Y-105285341D01*
X144560131Y-105394997D01*
X137492991Y-105394997D01*
X137504869Y-105320002D01*
X137504869Y-105319998D01*
X137489286Y-105221614D01*
X137498240Y-105152321D01*
X137543236Y-105098869D01*
X137592356Y-105079744D01*
X137669661Y-105067500D01*
X137768587Y-105017095D01*
X137847095Y-104938587D01*
X137897500Y-104839661D01*
X137897500Y-104839659D01*
X137897501Y-104839658D01*
X137909333Y-104764955D01*
X141585382Y-104764955D01*
X141585382Y-104764960D01*
X141602749Y-104874616D01*
X141653155Y-104973543D01*
X141653160Y-104973550D01*
X141731658Y-105052048D01*
X141731661Y-105052050D01*
X141731664Y-105052053D01*
X141823546Y-105098869D01*
X141830592Y-105102459D01*
X141940249Y-105119827D01*
X141940251Y-105119827D01*
X141940253Y-105119827D01*
X142049909Y-105102459D01*
X142049910Y-105102458D01*
X142049912Y-105102458D01*
X142148838Y-105052053D01*
X142227346Y-104973545D01*
X142277751Y-104874619D01*
X142277751Y-104874617D01*
X142277752Y-104874616D01*
X142287987Y-104809997D01*
X142545131Y-104809997D01*
X142545131Y-104810002D01*
X142562498Y-104919658D01*
X142612904Y-105018585D01*
X142612909Y-105018592D01*
X142691407Y-105097090D01*
X142691410Y-105097092D01*
X142691413Y-105097095D01*
X142790339Y-105147500D01*
X142790341Y-105147501D01*
X142899998Y-105164869D01*
X142900000Y-105164869D01*
X142900002Y-105164869D01*
X143009658Y-105147501D01*
X143009659Y-105147500D01*
X143009661Y-105147500D01*
X143108587Y-105097095D01*
X143187095Y-105018587D01*
X143201662Y-104989997D01*
X143555131Y-104989997D01*
X143555131Y-104990002D01*
X143572498Y-105099658D01*
X143622904Y-105198585D01*
X143622909Y-105198592D01*
X143701407Y-105277090D01*
X143701410Y-105277092D01*
X143701413Y-105277095D01*
X143785623Y-105320002D01*
X143800341Y-105327501D01*
X143909998Y-105344869D01*
X143910000Y-105344869D01*
X143910002Y-105344869D01*
X144019658Y-105327501D01*
X144019659Y-105327500D01*
X144019661Y-105327500D01*
X144118587Y-105277095D01*
X144197095Y-105198587D01*
X144247500Y-105099661D01*
X144247500Y-105099659D01*
X144247501Y-105099658D01*
X144264869Y-104990002D01*
X144264869Y-104989997D01*
X144247501Y-104880341D01*
X144247500Y-104880339D01*
X144197095Y-104781413D01*
X144197092Y-104781410D01*
X144191356Y-104773514D01*
X144194424Y-104771285D01*
X144169899Y-104726454D01*
X144174828Y-104656758D01*
X144203367Y-104612315D01*
X144207095Y-104608587D01*
X144257500Y-104509661D01*
X144257500Y-104509659D01*
X144257501Y-104509658D01*
X144274869Y-104400002D01*
X144274869Y-104399997D01*
X144257501Y-104290341D01*
X144237127Y-104250354D01*
X144207095Y-104191413D01*
X144207092Y-104191410D01*
X144207090Y-104191407D01*
X144128592Y-104112909D01*
X144128588Y-104112906D01*
X144128587Y-104112905D01*
X144088540Y-104092500D01*
X144029658Y-104062498D01*
X143920002Y-104045131D01*
X143919998Y-104045131D01*
X143810341Y-104062498D01*
X143711414Y-104112904D01*
X143711407Y-104112909D01*
X143632909Y-104191407D01*
X143632904Y-104191414D01*
X143582498Y-104290341D01*
X143565131Y-104399997D01*
X143565131Y-104400002D01*
X143582498Y-104509658D01*
X143632904Y-104608585D01*
X143638644Y-104616486D01*
X143635585Y-104618708D01*
X143660121Y-104663642D01*
X143655137Y-104733334D01*
X143626636Y-104777681D01*
X143622909Y-104781407D01*
X143622904Y-104781414D01*
X143572498Y-104880341D01*
X143555131Y-104989997D01*
X143201662Y-104989997D01*
X143237500Y-104919661D01*
X143237500Y-104919659D01*
X143237501Y-104919658D01*
X143254869Y-104810002D01*
X143254869Y-104809997D01*
X143237501Y-104700341D01*
X143235847Y-104697095D01*
X143187095Y-104601413D01*
X143187092Y-104601410D01*
X143187090Y-104601407D01*
X143108592Y-104522909D01*
X143108588Y-104522906D01*
X143108587Y-104522905D01*
X143082588Y-104509658D01*
X143009658Y-104472498D01*
X142900002Y-104455131D01*
X142899998Y-104455131D01*
X142790341Y-104472498D01*
X142691414Y-104522904D01*
X142691407Y-104522909D01*
X142612909Y-104601407D01*
X142612904Y-104601414D01*
X142562498Y-104700341D01*
X142545131Y-104809997D01*
X142287987Y-104809997D01*
X142295120Y-104764960D01*
X142295120Y-104764955D01*
X142277752Y-104655299D01*
X142256151Y-104612904D01*
X142227346Y-104556371D01*
X142227343Y-104556368D01*
X142227341Y-104556365D01*
X142148843Y-104477867D01*
X142148839Y-104477864D01*
X142148838Y-104477863D01*
X142049912Y-104427458D01*
X142049911Y-104427457D01*
X142049908Y-104427456D01*
X142049909Y-104427456D01*
X141936272Y-104409458D01*
X141873137Y-104379529D01*
X141861817Y-104361349D01*
X141861702Y-104369428D01*
X141823093Y-104427661D01*
X141799532Y-104443282D01*
X141731665Y-104477862D01*
X141731658Y-104477867D01*
X141653160Y-104556365D01*
X141653155Y-104556372D01*
X141602749Y-104655299D01*
X141585382Y-104764955D01*
X137909333Y-104764955D01*
X137914869Y-104730002D01*
X137914869Y-104729997D01*
X137897501Y-104620341D01*
X137887854Y-104601407D01*
X137847095Y-104521413D01*
X137847092Y-104521410D01*
X137847090Y-104521407D01*
X137768592Y-104442909D01*
X137768588Y-104442906D01*
X137768587Y-104442905D01*
X137738669Y-104427661D01*
X137669658Y-104392498D01*
X137560002Y-104375131D01*
X137560001Y-104375131D01*
X137560000Y-104375131D01*
X137551562Y-104376467D01*
X137533165Y-104379381D01*
X137463872Y-104370425D01*
X137410420Y-104325428D01*
X137402391Y-104308799D01*
X137401930Y-104309034D01*
X137390364Y-104286335D01*
X137372032Y-104250354D01*
X137360300Y-104227329D01*
X137347404Y-104158660D01*
X137373681Y-104093919D01*
X137430788Y-104053663D01*
X137490181Y-104048562D01*
X137530000Y-104054869D01*
X137530000Y-104054868D01*
X137530001Y-104054869D01*
X137530002Y-104054869D01*
X137639658Y-104037501D01*
X137639659Y-104037500D01*
X137639661Y-104037500D01*
X137738587Y-103987095D01*
X137738590Y-103987091D01*
X137742116Y-103984531D01*
X137747129Y-103982742D01*
X137747283Y-103982664D01*
X137747293Y-103982683D01*
X137807923Y-103961052D01*
X137875977Y-103976879D01*
X137887884Y-103984531D01*
X137891412Y-103987094D01*
X137891413Y-103987095D01*
X137951087Y-104017500D01*
X137990341Y-104037501D01*
X138099998Y-104054869D01*
X138100000Y-104054869D01*
X138100002Y-104054869D01*
X138209658Y-104037501D01*
X138209659Y-104037500D01*
X138209661Y-104037500D01*
X138284757Y-103999237D01*
X140605131Y-103999237D01*
X140605131Y-103999242D01*
X140622498Y-104108898D01*
X140672904Y-104207825D01*
X140672909Y-104207832D01*
X140751407Y-104286330D01*
X140751410Y-104286332D01*
X140751413Y-104286335D01*
X140795963Y-104309034D01*
X140850341Y-104336741D01*
X140959998Y-104354109D01*
X140960000Y-104354109D01*
X140960002Y-104354109D01*
X141069658Y-104336741D01*
X141069659Y-104336740D01*
X141069661Y-104336740D01*
X141168587Y-104286335D01*
X141247095Y-104207827D01*
X141294123Y-104115526D01*
X141342095Y-104064732D01*
X141409916Y-104047936D01*
X141476051Y-104070473D01*
X141492288Y-104084141D01*
X141550063Y-104141916D01*
X141550066Y-104141918D01*
X141550069Y-104141921D01*
X141617935Y-104176500D01*
X141648997Y-104192327D01*
X141762634Y-104210325D01*
X141825768Y-104240254D01*
X141837088Y-104258434D01*
X141837204Y-104250354D01*
X141875814Y-104192122D01*
X141899371Y-104176503D01*
X141967243Y-104141921D01*
X142045751Y-104063413D01*
X142096156Y-103964487D01*
X142096156Y-103964485D01*
X142096157Y-103964484D01*
X142113525Y-103854828D01*
X142113525Y-103854823D01*
X142096157Y-103745167D01*
X142092779Y-103738538D01*
X142045751Y-103646239D01*
X142045748Y-103646236D01*
X142045746Y-103646233D01*
X141967248Y-103567735D01*
X141967244Y-103567732D01*
X141967243Y-103567731D01*
X141963399Y-103565772D01*
X141868314Y-103517324D01*
X141758658Y-103499957D01*
X141758654Y-103499957D01*
X141648997Y-103517324D01*
X141550070Y-103567730D01*
X141550063Y-103567735D01*
X141471565Y-103646233D01*
X141471562Y-103646237D01*
X141471561Y-103646239D01*
X141436699Y-103714661D01*
X141424533Y-103738538D01*
X141376558Y-103789334D01*
X141308737Y-103806129D01*
X141242603Y-103783592D01*
X141226367Y-103769924D01*
X141168592Y-103712149D01*
X141168588Y-103712146D01*
X141168587Y-103712145D01*
X141144751Y-103700000D01*
X141069658Y-103661738D01*
X140960002Y-103644371D01*
X140959998Y-103644371D01*
X140850341Y-103661738D01*
X140751414Y-103712144D01*
X140751407Y-103712149D01*
X140672909Y-103790647D01*
X140672904Y-103790654D01*
X140622498Y-103889581D01*
X140605131Y-103999237D01*
X138284757Y-103999237D01*
X138308587Y-103987095D01*
X138387095Y-103908587D01*
X138407124Y-103869276D01*
X138455098Y-103818480D01*
X138522919Y-103801685D01*
X138589054Y-103824222D01*
X138605290Y-103837890D01*
X138659490Y-103892090D01*
X138659493Y-103892092D01*
X138659496Y-103892095D01*
X138728188Y-103927095D01*
X138758424Y-103942501D01*
X138868081Y-103959869D01*
X138868083Y-103959869D01*
X138868085Y-103959869D01*
X138977741Y-103942501D01*
X138977742Y-103942500D01*
X138977744Y-103942500D01*
X139076670Y-103892095D01*
X139155178Y-103813587D01*
X139205583Y-103714661D01*
X139205583Y-103714659D01*
X139205584Y-103714658D01*
X139222952Y-103605002D01*
X139222952Y-103604997D01*
X139205910Y-103497399D01*
X147084500Y-103497399D01*
X147084500Y-103622601D01*
X147116905Y-103743536D01*
X147179505Y-103851964D01*
X147268036Y-103940495D01*
X147376464Y-104003095D01*
X147497399Y-104035500D01*
X147497401Y-104035500D01*
X147622599Y-104035500D01*
X147622601Y-104035500D01*
X147743536Y-104003095D01*
X147851964Y-103940495D01*
X147940495Y-103851964D01*
X148003095Y-103743536D01*
X148035500Y-103622601D01*
X148035500Y-103497399D01*
X148003095Y-103376464D01*
X147940495Y-103268036D01*
X147851964Y-103179505D01*
X147743536Y-103116905D01*
X147743537Y-103116905D01*
X147680454Y-103100002D01*
X147680435Y-103099997D01*
X148405131Y-103099997D01*
X148405131Y-103100002D01*
X148422498Y-103209658D01*
X148472904Y-103308585D01*
X148472909Y-103308592D01*
X148551407Y-103387090D01*
X148551410Y-103387092D01*
X148551413Y-103387095D01*
X148614380Y-103419178D01*
X148650341Y-103437501D01*
X148759998Y-103454869D01*
X148760000Y-103454869D01*
X148760002Y-103454869D01*
X148869658Y-103437501D01*
X148869659Y-103437500D01*
X148869661Y-103437500D01*
X148968587Y-103387095D01*
X149047095Y-103308587D01*
X149097500Y-103209661D01*
X149097500Y-103209659D01*
X149097501Y-103209658D01*
X149114869Y-103100002D01*
X149114869Y-103099997D01*
X149097501Y-102990341D01*
X149097500Y-102990339D01*
X149047095Y-102891413D01*
X149047092Y-102891410D01*
X149047090Y-102891407D01*
X148968592Y-102812909D01*
X148968588Y-102812906D01*
X148968587Y-102812905D01*
X148960831Y-102808953D01*
X148869658Y-102762498D01*
X148760002Y-102745131D01*
X148759998Y-102745131D01*
X148650341Y-102762498D01*
X148551414Y-102812904D01*
X148551407Y-102812909D01*
X148472909Y-102891407D01*
X148472904Y-102891414D01*
X148422498Y-102990341D01*
X148405131Y-103099997D01*
X147680435Y-103099997D01*
X147622601Y-103084500D01*
X147497399Y-103084500D01*
X147439546Y-103100002D01*
X147376463Y-103116905D01*
X147268037Y-103179504D01*
X147268034Y-103179506D01*
X147179506Y-103268034D01*
X147179504Y-103268037D01*
X147116905Y-103376463D01*
X147110507Y-103400341D01*
X147084500Y-103497399D01*
X139205910Y-103497399D01*
X139205584Y-103495341D01*
X139203583Y-103491413D01*
X139155178Y-103396413D01*
X139155175Y-103396410D01*
X139155173Y-103396407D01*
X139076675Y-103317909D01*
X139076671Y-103317906D01*
X139076670Y-103317905D01*
X139072395Y-103315727D01*
X138977741Y-103267498D01*
X138868085Y-103250131D01*
X138868081Y-103250131D01*
X138758424Y-103267498D01*
X138659497Y-103317904D01*
X138659490Y-103317909D01*
X138580992Y-103396407D01*
X138580988Y-103396412D01*
X138560957Y-103435725D01*
X138512981Y-103486520D01*
X138445160Y-103503314D01*
X138379025Y-103480775D01*
X138362792Y-103467109D01*
X138309974Y-103414291D01*
X138276489Y-103352968D01*
X138281473Y-103283276D01*
X138309972Y-103238931D01*
X139855294Y-101693610D01*
X139855297Y-101693608D01*
X139872735Y-101676170D01*
X139872736Y-101676170D01*
X139936170Y-101612736D01*
X139952109Y-101574256D01*
X139970501Y-101529855D01*
X139970501Y-101440145D01*
X139970501Y-101430156D01*
X139970500Y-101430142D01*
X139970500Y-101399997D01*
X146885131Y-101399997D01*
X146885131Y-101400002D01*
X146902498Y-101509658D01*
X146952904Y-101608585D01*
X146952909Y-101608592D01*
X147031407Y-101687090D01*
X147031410Y-101687092D01*
X147031413Y-101687095D01*
X147100896Y-101722498D01*
X147130341Y-101737501D01*
X147239998Y-101754869D01*
X147240000Y-101754869D01*
X147240002Y-101754869D01*
X147349658Y-101737501D01*
X147349659Y-101737500D01*
X147349661Y-101737500D01*
X147448587Y-101687095D01*
X147527095Y-101608587D01*
X147577500Y-101509661D01*
X147577500Y-101509659D01*
X147577501Y-101509658D01*
X147594869Y-101400002D01*
X147594869Y-101399997D01*
X147577501Y-101290341D01*
X147577500Y-101290339D01*
X147527095Y-101191413D01*
X147527092Y-101191410D01*
X147527090Y-101191407D01*
X147448592Y-101112909D01*
X147448588Y-101112906D01*
X147448587Y-101112905D01*
X147407735Y-101092090D01*
X147349658Y-101062498D01*
X147240002Y-101045131D01*
X147239998Y-101045131D01*
X147130341Y-101062498D01*
X147031414Y-101112904D01*
X147031407Y-101112909D01*
X146952909Y-101191407D01*
X146952904Y-101191414D01*
X146902498Y-101290341D01*
X146885131Y-101399997D01*
X139970500Y-101399997D01*
X139970500Y-97749766D01*
X139990185Y-97682727D01*
X140006815Y-97662089D01*
X140510294Y-97158609D01*
X140510297Y-97158608D01*
X140527735Y-97141170D01*
X140527736Y-97141170D01*
X140577819Y-97091087D01*
X140639142Y-97057602D01*
X140708834Y-97062586D01*
X140764767Y-97104458D01*
X140789184Y-97169922D01*
X140789500Y-97178768D01*
X140789500Y-97269829D01*
X140827636Y-97361897D01*
X142827347Y-99361607D01*
X142860832Y-99422930D01*
X142855848Y-99492622D01*
X142827348Y-99536969D01*
X142762906Y-99601410D01*
X142762904Y-99601414D01*
X142712498Y-99700341D01*
X142695131Y-99809997D01*
X142695131Y-99810002D01*
X142712498Y-99919658D01*
X142762904Y-100018585D01*
X142762909Y-100018592D01*
X142807283Y-100062966D01*
X142840768Y-100124289D01*
X142835784Y-100193981D01*
X142830088Y-100206940D01*
X142782498Y-100300342D01*
X142765131Y-100409997D01*
X142765131Y-100410002D01*
X142782498Y-100519658D01*
X142832904Y-100618585D01*
X142832909Y-100618592D01*
X142911407Y-100697090D01*
X142911410Y-100697092D01*
X142911413Y-100697095D01*
X143000257Y-100742363D01*
X143010341Y-100747501D01*
X143119998Y-100764869D01*
X143120000Y-100764869D01*
X143120002Y-100764869D01*
X143229658Y-100747501D01*
X143229659Y-100747500D01*
X143229661Y-100747500D01*
X143328587Y-100697095D01*
X143407095Y-100618587D01*
X143457500Y-100519661D01*
X143457500Y-100519659D01*
X143457501Y-100519658D01*
X143474869Y-100410002D01*
X143474869Y-100409998D01*
X143459129Y-100310622D01*
X143468083Y-100241329D01*
X143513079Y-100187877D01*
X143579831Y-100167237D01*
X143647145Y-100185962D01*
X143669283Y-100203543D01*
X144130565Y-100664825D01*
X144130568Y-100664829D01*
X144137636Y-100671897D01*
X144208103Y-100742364D01*
X144300172Y-100780500D01*
X144399828Y-100780500D01*
X149659877Y-100780500D01*
X149726916Y-100800185D01*
X149747558Y-100816819D01*
X150211526Y-101280786D01*
X150245011Y-101342109D01*
X150246318Y-101349068D01*
X150257499Y-101419658D01*
X150257499Y-101419659D01*
X150257500Y-101419661D01*
X150303357Y-101509661D01*
X150307904Y-101518585D01*
X150307909Y-101518592D01*
X150386407Y-101597090D01*
X150386410Y-101597092D01*
X150386413Y-101597095D01*
X150445282Y-101627090D01*
X150485341Y-101647501D01*
X150594998Y-101664869D01*
X150595000Y-101664869D01*
X150595002Y-101664869D01*
X150704658Y-101647501D01*
X150704659Y-101647500D01*
X150704661Y-101647500D01*
X150803587Y-101597095D01*
X150882095Y-101518587D01*
X150932500Y-101419661D01*
X150932500Y-101419659D01*
X150932501Y-101419658D01*
X150949869Y-101310002D01*
X150949869Y-101309997D01*
X150932501Y-101200341D01*
X150931477Y-101198331D01*
X150882095Y-101101413D01*
X150882092Y-101101410D01*
X150882090Y-101101407D01*
X150803592Y-101022909D01*
X150803588Y-101022906D01*
X150803587Y-101022905D01*
X150704661Y-100972500D01*
X150704659Y-100972499D01*
X150704658Y-100972499D01*
X150634068Y-100961318D01*
X150570934Y-100931388D01*
X150565786Y-100926526D01*
X150086941Y-100447681D01*
X150053456Y-100386358D01*
X150057487Y-100329997D01*
X151295131Y-100329997D01*
X151295131Y-100330002D01*
X151312498Y-100439658D01*
X151362904Y-100538585D01*
X151362909Y-100538592D01*
X151441407Y-100617090D01*
X151441410Y-100617092D01*
X151441413Y-100617095D01*
X151535089Y-100664825D01*
X151540341Y-100667501D01*
X151649998Y-100684869D01*
X151650000Y-100684869D01*
X151650002Y-100684869D01*
X151759658Y-100667501D01*
X151759659Y-100667500D01*
X151759661Y-100667500D01*
X151858587Y-100617095D01*
X151937095Y-100538587D01*
X151987500Y-100439661D01*
X151987500Y-100439659D01*
X151987501Y-100439658D01*
X152004869Y-100330002D01*
X152004869Y-100329997D01*
X151987501Y-100220341D01*
X151960443Y-100167237D01*
X151937095Y-100121413D01*
X151937092Y-100121410D01*
X151937090Y-100121407D01*
X151858592Y-100042909D01*
X151858588Y-100042906D01*
X151858587Y-100042905D01*
X151810856Y-100018585D01*
X151759658Y-99992498D01*
X151650002Y-99975131D01*
X151649998Y-99975131D01*
X151540341Y-99992498D01*
X151441414Y-100042904D01*
X151441407Y-100042909D01*
X151362909Y-100121407D01*
X151362904Y-100121414D01*
X151312498Y-100220341D01*
X151295131Y-100329997D01*
X150057487Y-100329997D01*
X150058440Y-100316666D01*
X150086941Y-100272319D01*
X150316356Y-100042904D01*
X150565788Y-99793471D01*
X150627109Y-99759988D01*
X150634070Y-99758681D01*
X150704657Y-99747501D01*
X150704658Y-99747500D01*
X150704661Y-99747500D01*
X150803587Y-99697095D01*
X150882095Y-99618587D01*
X150932500Y-99519661D01*
X150932500Y-99519659D01*
X150932501Y-99519658D01*
X150949869Y-99410002D01*
X150949869Y-99409997D01*
X150932501Y-99300341D01*
X150929713Y-99294869D01*
X150882095Y-99201413D01*
X150882092Y-99201410D01*
X150882090Y-99201407D01*
X150803592Y-99122909D01*
X150803588Y-99122906D01*
X150803587Y-99122905D01*
X150799743Y-99120946D01*
X150704658Y-99072498D01*
X150595002Y-99055131D01*
X150594998Y-99055131D01*
X150485341Y-99072498D01*
X150386414Y-99122904D01*
X150386407Y-99122909D01*
X150307909Y-99201407D01*
X150307904Y-99201414D01*
X150257498Y-99300341D01*
X150246319Y-99370927D01*
X150216390Y-99434062D01*
X150211527Y-99439210D01*
X149707558Y-99943181D01*
X149646235Y-99976666D01*
X149619877Y-99979500D01*
X147746376Y-99979500D01*
X147679337Y-99959815D01*
X147633582Y-99907011D01*
X147623638Y-99837853D01*
X147623902Y-99836103D01*
X147624869Y-99829997D01*
X147607501Y-99720341D01*
X147607500Y-99720339D01*
X147557095Y-99621413D01*
X147557092Y-99621410D01*
X147557090Y-99621407D01*
X147478592Y-99542909D01*
X147478588Y-99542906D01*
X147478587Y-99542905D01*
X147432962Y-99519658D01*
X147379658Y-99492498D01*
X147270002Y-99475131D01*
X147269998Y-99475131D01*
X147160341Y-99492498D01*
X147061414Y-99542904D01*
X147061407Y-99542909D01*
X146982909Y-99621407D01*
X146982904Y-99621414D01*
X146932498Y-99720341D01*
X146915131Y-99829997D01*
X146916098Y-99836103D01*
X146907142Y-99905396D01*
X146862145Y-99958848D01*
X146795394Y-99979487D01*
X146793624Y-99979500D01*
X144629386Y-99979500D01*
X144562347Y-99959815D01*
X144541705Y-99943181D01*
X143125614Y-98527090D01*
X142839623Y-98241098D01*
X142806139Y-98179777D01*
X142811123Y-98110085D01*
X142852995Y-98054152D01*
X142907908Y-98030946D01*
X142929657Y-98027501D01*
X142929658Y-98027500D01*
X142929661Y-98027500D01*
X143028587Y-97977095D01*
X143107095Y-97898587D01*
X143157500Y-97799661D01*
X143157500Y-97799659D01*
X143157501Y-97799658D01*
X143170530Y-97717399D01*
X147084500Y-97717399D01*
X147084500Y-97842601D01*
X147116905Y-97963536D01*
X147179505Y-98071964D01*
X147268036Y-98160495D01*
X147376464Y-98223095D01*
X147497399Y-98255500D01*
X147497401Y-98255500D01*
X147622599Y-98255500D01*
X147622601Y-98255500D01*
X147680458Y-98239997D01*
X148395131Y-98239997D01*
X148395131Y-98240002D01*
X148412498Y-98349658D01*
X148462904Y-98448585D01*
X148462909Y-98448592D01*
X148541407Y-98527090D01*
X148541410Y-98527092D01*
X148541413Y-98527095D01*
X148640339Y-98577500D01*
X148640341Y-98577501D01*
X148749998Y-98594869D01*
X148750000Y-98594869D01*
X148750002Y-98594869D01*
X148859658Y-98577501D01*
X148859659Y-98577500D01*
X148859661Y-98577500D01*
X148958587Y-98527095D01*
X149037095Y-98448587D01*
X149087500Y-98349661D01*
X149087500Y-98349659D01*
X149087501Y-98349658D01*
X149104869Y-98240002D01*
X149104869Y-98239997D01*
X149087501Y-98130341D01*
X149076964Y-98109661D01*
X149037095Y-98031413D01*
X149037092Y-98031410D01*
X149037090Y-98031407D01*
X148958592Y-97952909D01*
X148958588Y-97952906D01*
X148958587Y-97952905D01*
X148945846Y-97946413D01*
X148859658Y-97902498D01*
X148750002Y-97885131D01*
X148749998Y-97885131D01*
X148640341Y-97902498D01*
X148541414Y-97952904D01*
X148541407Y-97952909D01*
X148462909Y-98031407D01*
X148462904Y-98031414D01*
X148412498Y-98130341D01*
X148395131Y-98239997D01*
X147680458Y-98239997D01*
X147743536Y-98223095D01*
X147851964Y-98160495D01*
X147940495Y-98071964D01*
X148003095Y-97963536D01*
X148035500Y-97842601D01*
X148035500Y-97717399D01*
X148003095Y-97596464D01*
X147940495Y-97488036D01*
X147851964Y-97399505D01*
X147743536Y-97336905D01*
X147743537Y-97336905D01*
X147703224Y-97326103D01*
X147622601Y-97304500D01*
X147497399Y-97304500D01*
X147416775Y-97326103D01*
X147376463Y-97336905D01*
X147268037Y-97399504D01*
X147268034Y-97399506D01*
X147179506Y-97488034D01*
X147179504Y-97488037D01*
X147116905Y-97596463D01*
X147113369Y-97609661D01*
X147084500Y-97717399D01*
X143170530Y-97717399D01*
X143174869Y-97690002D01*
X143174869Y-97689997D01*
X143157501Y-97580341D01*
X143140559Y-97547090D01*
X143107095Y-97481413D01*
X143107094Y-97481412D01*
X143102664Y-97472717D01*
X143105813Y-97471112D01*
X143088318Y-97422086D01*
X143103307Y-97357610D01*
X143102664Y-97357283D01*
X143103986Y-97354686D01*
X143104139Y-97354032D01*
X143105015Y-97352668D01*
X143107093Y-97348588D01*
X143107095Y-97348587D01*
X143157500Y-97249661D01*
X143157500Y-97249659D01*
X143157501Y-97249658D01*
X143174869Y-97140002D01*
X143174869Y-97139997D01*
X143157501Y-97030341D01*
X143139420Y-96994855D01*
X143107095Y-96931413D01*
X143107092Y-96931410D01*
X143107090Y-96931407D01*
X143028592Y-96852909D01*
X143028588Y-96852906D01*
X143028587Y-96852905D01*
X142977767Y-96827011D01*
X142929658Y-96802498D01*
X142820002Y-96785131D01*
X142819998Y-96785131D01*
X142710341Y-96802498D01*
X142611414Y-96852904D01*
X142611407Y-96852909D01*
X142532909Y-96931407D01*
X142532904Y-96931414D01*
X142482498Y-97030341D01*
X142465131Y-97139997D01*
X142465131Y-97140002D01*
X142482498Y-97249658D01*
X142537336Y-97357283D01*
X142534192Y-97358884D01*
X142551685Y-97407971D01*
X142536679Y-97472382D01*
X142537336Y-97472717D01*
X142535981Y-97475374D01*
X142535832Y-97476018D01*
X142534973Y-97477354D01*
X142482499Y-97580340D01*
X142479053Y-97602096D01*
X142449121Y-97665229D01*
X142389809Y-97702159D01*
X142319946Y-97701159D01*
X142268900Y-97670376D01*
X141626819Y-97028294D01*
X141593334Y-96966971D01*
X141590500Y-96940613D01*
X141590500Y-95949997D01*
X144715131Y-95949997D01*
X144715131Y-95950002D01*
X144732498Y-96059658D01*
X144782904Y-96158585D01*
X144782909Y-96158592D01*
X144861407Y-96237090D01*
X144861410Y-96237092D01*
X144861413Y-96237095D01*
X144920282Y-96267090D01*
X144960341Y-96287501D01*
X145069998Y-96304869D01*
X145070000Y-96304869D01*
X145070002Y-96304869D01*
X145179658Y-96287501D01*
X145179659Y-96287500D01*
X145179661Y-96287500D01*
X145278587Y-96237095D01*
X145357095Y-96158587D01*
X145407500Y-96059661D01*
X145407500Y-96059659D01*
X145407501Y-96059658D01*
X145424869Y-95950002D01*
X145424869Y-95949997D01*
X145407501Y-95840341D01*
X145382024Y-95790339D01*
X145357095Y-95741413D01*
X145357092Y-95741410D01*
X145357090Y-95741407D01*
X145278592Y-95662909D01*
X145278588Y-95662906D01*
X145278587Y-95662905D01*
X145223563Y-95634869D01*
X145179658Y-95612498D01*
X145070002Y-95595131D01*
X145069998Y-95595131D01*
X144960341Y-95612498D01*
X144861414Y-95662904D01*
X144861407Y-95662909D01*
X144782909Y-95741407D01*
X144782904Y-95741414D01*
X144732498Y-95840341D01*
X144715131Y-95949997D01*
X141590500Y-95949997D01*
X141590500Y-95843510D01*
X141610185Y-95776471D01*
X141660199Y-95733133D01*
X141659869Y-95732485D01*
X141662486Y-95731151D01*
X141662989Y-95730716D01*
X141664479Y-95730135D01*
X141668560Y-95728055D01*
X141668564Y-95728055D01*
X141767490Y-95677650D01*
X141845998Y-95599142D01*
X141896403Y-95500216D01*
X141896403Y-95500214D01*
X141896404Y-95500213D01*
X141913772Y-95390557D01*
X141913772Y-95390552D01*
X141896404Y-95280896D01*
X141896403Y-95280894D01*
X141845998Y-95181968D01*
X141845995Y-95181965D01*
X141845993Y-95181962D01*
X141834028Y-95169997D01*
X142545131Y-95169997D01*
X142545131Y-95170002D01*
X142562498Y-95279658D01*
X142612904Y-95378585D01*
X142612909Y-95378592D01*
X142691407Y-95457090D01*
X142691410Y-95457092D01*
X142691413Y-95457095D01*
X142776043Y-95500216D01*
X142790341Y-95507501D01*
X142899998Y-95524869D01*
X142900000Y-95524869D01*
X142900002Y-95524869D01*
X143009658Y-95507501D01*
X143009659Y-95507500D01*
X143009661Y-95507500D01*
X143108587Y-95457095D01*
X143118431Y-95447251D01*
X148029790Y-95447251D01*
X148029790Y-95447256D01*
X148047157Y-95556912D01*
X148097563Y-95655839D01*
X148097568Y-95655846D01*
X148176066Y-95734344D01*
X148176069Y-95734346D01*
X148176072Y-95734349D01*
X148243747Y-95768831D01*
X148275000Y-95784755D01*
X148384657Y-95802123D01*
X148384659Y-95802123D01*
X148384661Y-95802123D01*
X148494317Y-95784755D01*
X148494318Y-95784754D01*
X148494320Y-95784754D01*
X148593246Y-95734349D01*
X148671754Y-95655841D01*
X148722159Y-95556915D01*
X148722159Y-95556913D01*
X148722160Y-95556912D01*
X148739528Y-95447256D01*
X148739528Y-95447251D01*
X148722160Y-95337595D01*
X148694804Y-95283906D01*
X148671754Y-95238667D01*
X148671751Y-95238664D01*
X148671749Y-95238661D01*
X148593251Y-95160163D01*
X148593247Y-95160160D01*
X148593246Y-95160159D01*
X148552757Y-95139529D01*
X148494317Y-95109752D01*
X148384661Y-95092385D01*
X148384657Y-95092385D01*
X148275000Y-95109752D01*
X148176073Y-95160158D01*
X148176066Y-95160163D01*
X148097568Y-95238661D01*
X148097563Y-95238668D01*
X148047157Y-95337595D01*
X148029790Y-95447251D01*
X143118431Y-95447251D01*
X143187095Y-95378587D01*
X143237500Y-95279661D01*
X143237500Y-95279659D01*
X143237501Y-95279658D01*
X143254869Y-95170002D01*
X143254869Y-95169997D01*
X143237501Y-95060341D01*
X143236052Y-95057498D01*
X143187095Y-94961413D01*
X143187092Y-94961410D01*
X143187090Y-94961407D01*
X143108592Y-94882909D01*
X143108588Y-94882906D01*
X143108587Y-94882905D01*
X143060856Y-94858585D01*
X143009658Y-94832498D01*
X142900002Y-94815131D01*
X142899998Y-94815131D01*
X142790341Y-94832498D01*
X142691414Y-94882904D01*
X142691407Y-94882909D01*
X142612909Y-94961407D01*
X142612904Y-94961414D01*
X142562498Y-95060341D01*
X142545131Y-95169997D01*
X141834028Y-95169997D01*
X141830663Y-95166632D01*
X141797178Y-95105309D01*
X141802162Y-95035617D01*
X141807860Y-95022655D01*
X141815327Y-95008000D01*
X141815977Y-95006725D01*
X141815977Y-95006723D01*
X141815978Y-95006722D01*
X141833346Y-94897066D01*
X141833346Y-94897061D01*
X141815978Y-94787405D01*
X141789681Y-94735794D01*
X141776785Y-94667125D01*
X141803062Y-94602385D01*
X141860168Y-94562128D01*
X141900166Y-94555500D01*
X142600703Y-94555500D01*
X142600711Y-94555501D01*
X142615145Y-94555501D01*
X142704853Y-94555501D01*
X142704855Y-94555501D01*
X142763460Y-94531225D01*
X142787736Y-94521170D01*
X142851170Y-94457736D01*
X142851170Y-94457735D01*
X142868608Y-94440297D01*
X142868610Y-94440294D01*
X143310672Y-93998231D01*
X143371993Y-93964748D01*
X143410502Y-93962511D01*
X143490000Y-93970341D01*
X143686132Y-93951024D01*
X143874727Y-93893814D01*
X144048538Y-93800910D01*
X144200883Y-93675883D01*
X144325910Y-93523538D01*
X144418814Y-93349727D01*
X144476024Y-93161132D01*
X144495341Y-92965000D01*
X145024659Y-92965000D01*
X145043975Y-93161129D01*
X145101188Y-93349733D01*
X145194086Y-93523532D01*
X145194090Y-93523539D01*
X145319116Y-93675883D01*
X145471460Y-93800909D01*
X145471467Y-93800913D01*
X145645266Y-93893811D01*
X145645269Y-93893811D01*
X145645273Y-93893814D01*
X145833868Y-93951024D01*
X146030000Y-93970341D01*
X146226132Y-93951024D01*
X146414727Y-93893814D01*
X146588538Y-93800910D01*
X146740883Y-93675883D01*
X146865910Y-93523538D01*
X146958814Y-93349727D01*
X147016024Y-93161132D01*
X147035341Y-92965000D01*
X147016024Y-92768868D01*
X146958814Y-92580273D01*
X146958811Y-92580269D01*
X146958811Y-92580266D01*
X146865913Y-92406467D01*
X146865909Y-92406460D01*
X146740883Y-92254116D01*
X146588539Y-92129090D01*
X146588532Y-92129086D01*
X146414733Y-92036188D01*
X146414727Y-92036186D01*
X146226132Y-91978976D01*
X146226129Y-91978975D01*
X146030000Y-91959659D01*
X145833870Y-91978975D01*
X145645266Y-92036188D01*
X145471467Y-92129086D01*
X145471460Y-92129090D01*
X145319116Y-92254116D01*
X145194090Y-92406460D01*
X145194086Y-92406467D01*
X145101188Y-92580266D01*
X145043975Y-92768870D01*
X145024659Y-92965000D01*
X144495341Y-92965000D01*
X144476024Y-92768868D01*
X144418814Y-92580273D01*
X144418811Y-92580269D01*
X144418811Y-92580266D01*
X144325913Y-92406467D01*
X144325909Y-92406460D01*
X144200883Y-92254116D01*
X144048539Y-92129090D01*
X144048532Y-92129086D01*
X143874733Y-92036188D01*
X143874727Y-92036186D01*
X143686132Y-91978976D01*
X143686129Y-91978975D01*
X143490000Y-91959659D01*
X143293870Y-91978975D01*
X143105266Y-92036188D01*
X142931467Y-92129086D01*
X142931460Y-92129090D01*
X142779116Y-92254116D01*
X142654090Y-92406460D01*
X142654086Y-92406467D01*
X142561188Y-92580266D01*
X142503975Y-92768870D01*
X142484659Y-92965000D01*
X142503975Y-93161129D01*
X142561188Y-93349733D01*
X142654086Y-93523532D01*
X142654090Y-93523539D01*
X142779112Y-93675877D01*
X142779117Y-93675883D01*
X142792050Y-93686497D01*
X142831383Y-93744241D01*
X142833253Y-93814086D01*
X142801064Y-93870029D01*
X142602912Y-94068182D01*
X142541592Y-94101666D01*
X142515233Y-94104500D01*
X141435598Y-94104500D01*
X141368559Y-94084815D01*
X141322804Y-94032011D01*
X141312860Y-93962853D01*
X141341885Y-93899297D01*
X141377145Y-93871142D01*
X141508532Y-93800913D01*
X141508538Y-93800910D01*
X141660883Y-93675883D01*
X141785910Y-93523538D01*
X141878814Y-93349727D01*
X141936024Y-93161132D01*
X141955341Y-92965000D01*
X141936024Y-92768868D01*
X141878814Y-92580273D01*
X141878811Y-92580269D01*
X141878811Y-92580266D01*
X141785913Y-92406467D01*
X141785909Y-92406460D01*
X141660883Y-92254116D01*
X141508539Y-92129090D01*
X141508532Y-92129086D01*
X141334733Y-92036188D01*
X141334727Y-92036186D01*
X141146132Y-91978976D01*
X141146129Y-91978975D01*
X140950000Y-91959659D01*
X140753870Y-91978975D01*
X140565266Y-92036188D01*
X140391467Y-92129086D01*
X140391460Y-92129090D01*
X140239116Y-92254116D01*
X140114090Y-92406460D01*
X140114086Y-92406467D01*
X140021188Y-92580266D01*
X139963975Y-92768870D01*
X139944659Y-92965000D01*
X139963975Y-93161129D01*
X140021188Y-93349733D01*
X140114086Y-93523532D01*
X140114090Y-93523539D01*
X140239116Y-93675883D01*
X140391460Y-93800909D01*
X140391467Y-93800913D01*
X140565266Y-93893811D01*
X140565269Y-93893811D01*
X140565273Y-93893814D01*
X140753868Y-93951024D01*
X140950000Y-93970341D01*
X140954968Y-93970341D01*
X141022007Y-93990026D01*
X141067762Y-94042830D01*
X141077706Y-94111988D01*
X141048681Y-94175544D01*
X141042649Y-94182022D01*
X140208829Y-95015841D01*
X140208827Y-95015843D01*
X140200610Y-95035684D01*
X140200597Y-95035716D01*
X140199593Y-95038138D01*
X140155737Y-95092529D01*
X140089437Y-95114576D01*
X140028751Y-95101139D01*
X139943100Y-95057498D01*
X139833444Y-95040131D01*
X139833440Y-95040131D01*
X139723784Y-95057498D01*
X139657912Y-95091061D01*
X139589242Y-95103956D01*
X139524502Y-95077678D01*
X139513946Y-95068264D01*
X139438587Y-94992905D01*
X139339661Y-94942500D01*
X139336394Y-94941982D01*
X139332741Y-94940250D01*
X139330375Y-94939482D01*
X139330474Y-94939176D01*
X139273260Y-94912054D01*
X139236328Y-94852742D01*
X139237326Y-94782880D01*
X139245302Y-94763225D01*
X139267500Y-94719661D01*
X139272440Y-94688477D01*
X139284869Y-94610002D01*
X139284869Y-94609997D01*
X139267501Y-94500341D01*
X139257135Y-94479997D01*
X139217095Y-94401413D01*
X139217092Y-94401410D01*
X139217090Y-94401407D01*
X139191819Y-94376136D01*
X139158334Y-94314813D01*
X139155500Y-94288455D01*
X139155500Y-92425146D01*
X139155498Y-92425141D01*
X139121172Y-92342266D01*
X139050671Y-92271765D01*
X139050664Y-92271759D01*
X138790126Y-92011221D01*
X138756641Y-91949898D01*
X138755334Y-91942937D01*
X138754868Y-91939997D01*
X138748534Y-91900002D01*
X138737501Y-91830342D01*
X138737500Y-91830340D01*
X138737500Y-91830339D01*
X138687095Y-91731413D01*
X138687092Y-91731410D01*
X138687090Y-91731407D01*
X138608592Y-91652909D01*
X138608588Y-91652906D01*
X138608587Y-91652905D01*
X138588959Y-91642904D01*
X138509658Y-91602498D01*
X138400002Y-91585131D01*
X138399998Y-91585131D01*
X138290341Y-91602498D01*
X138191414Y-91652904D01*
X138191407Y-91652909D01*
X138112909Y-91731407D01*
X138112904Y-91731414D01*
X138062498Y-91830341D01*
X138045131Y-91939997D01*
X138045131Y-91940002D01*
X138062498Y-92049658D01*
X138112904Y-92148585D01*
X138112909Y-92148592D01*
X138191407Y-92227090D01*
X138191410Y-92227092D01*
X138191413Y-92227095D01*
X138290339Y-92277500D01*
X138290340Y-92277500D01*
X138290342Y-92277501D01*
X138290341Y-92277501D01*
X138378851Y-92291519D01*
X138400000Y-92294869D01*
X138400000Y-92294868D01*
X138402937Y-92295334D01*
X138466072Y-92325263D01*
X138471221Y-92330126D01*
X138668181Y-92527086D01*
X138701666Y-92588409D01*
X138704500Y-92614767D01*
X138704500Y-94288455D01*
X138684815Y-94355494D01*
X138668170Y-94376147D01*
X138664115Y-94380201D01*
X138602788Y-94413678D01*
X138533097Y-94408685D01*
X138488764Y-94380190D01*
X136981819Y-92873245D01*
X136948334Y-92811922D01*
X136945500Y-92785564D01*
X136945500Y-92251544D01*
X136965185Y-92184505D01*
X136981815Y-92163866D01*
X137007095Y-92138587D01*
X137057500Y-92039661D01*
X137057500Y-92039659D01*
X137057501Y-92039658D01*
X137074869Y-91930002D01*
X137074869Y-91929997D01*
X137057501Y-91820341D01*
X137057500Y-91820339D01*
X137007095Y-91721413D01*
X137007092Y-91721410D01*
X137007090Y-91721407D01*
X136928592Y-91642909D01*
X136928588Y-91642906D01*
X136928587Y-91642905D01*
X136924743Y-91640946D01*
X136829658Y-91592498D01*
X136720002Y-91575131D01*
X136719998Y-91575131D01*
X136610341Y-91592498D01*
X136511414Y-91642904D01*
X136511407Y-91642909D01*
X136432909Y-91721407D01*
X136432904Y-91721414D01*
X136382498Y-91820341D01*
X136365131Y-91929997D01*
X136365131Y-91930002D01*
X136382498Y-92039658D01*
X136422717Y-92118592D01*
X136432905Y-92138587D01*
X136458181Y-92163863D01*
X136491666Y-92225184D01*
X136494500Y-92251544D01*
X136494500Y-92736233D01*
X136474815Y-92803272D01*
X136422011Y-92849027D01*
X136352853Y-92858971D01*
X136289297Y-92829946D01*
X136282819Y-92823914D01*
X135430126Y-91971221D01*
X135396641Y-91909898D01*
X135395334Y-91902937D01*
X135394868Y-91899997D01*
X135382252Y-91820339D01*
X135377501Y-91790342D01*
X135377500Y-91790340D01*
X135377500Y-91790339D01*
X135327095Y-91691413D01*
X135327092Y-91691410D01*
X135327090Y-91691407D01*
X135248592Y-91612909D01*
X135248588Y-91612906D01*
X135248587Y-91612905D01*
X135208536Y-91592498D01*
X135149658Y-91562498D01*
X135040002Y-91545131D01*
X135039998Y-91545131D01*
X134930341Y-91562498D01*
X134831414Y-91612904D01*
X134831407Y-91612909D01*
X134752909Y-91691407D01*
X134752904Y-91691414D01*
X134702498Y-91790341D01*
X134685131Y-91899997D01*
X134685131Y-91900002D01*
X134702498Y-92009658D01*
X134752904Y-92108585D01*
X134752909Y-92108592D01*
X134831407Y-92187090D01*
X134831410Y-92187092D01*
X134831413Y-92187095D01*
X134930339Y-92237500D01*
X134930340Y-92237500D01*
X134930342Y-92237501D01*
X134930341Y-92237501D01*
X135018851Y-92251519D01*
X135040000Y-92254869D01*
X135040000Y-92254868D01*
X135042937Y-92255334D01*
X135106072Y-92285263D01*
X135111221Y-92290126D01*
X136805025Y-93983930D01*
X136838510Y-94045253D01*
X136833526Y-94114945D01*
X136805025Y-94159292D01*
X136722909Y-94241407D01*
X136722904Y-94241414D01*
X136672498Y-94340341D01*
X136655131Y-94449997D01*
X136655131Y-94459759D01*
X136652665Y-94459759D01*
X136646467Y-94512107D01*
X136624500Y-94565139D01*
X136624499Y-94565146D01*
X136624499Y-94669288D01*
X136624500Y-94669297D01*
X136624500Y-95429179D01*
X136604815Y-95496218D01*
X136588181Y-95516860D01*
X135241860Y-96863181D01*
X135180537Y-96896666D01*
X135154179Y-96899500D01*
X133477645Y-96899500D01*
X133410606Y-96879815D01*
X133364851Y-96827011D01*
X133354907Y-96757853D01*
X133367158Y-96719210D01*
X133397500Y-96659661D01*
X133399254Y-96648587D01*
X133414869Y-96550002D01*
X133414869Y-96549997D01*
X133397501Y-96440341D01*
X133394713Y-96434869D01*
X133347095Y-96341413D01*
X133347092Y-96341410D01*
X133347090Y-96341407D01*
X133268592Y-96262909D01*
X133268588Y-96262906D01*
X133268587Y-96262905D01*
X133217922Y-96237090D01*
X133169658Y-96212498D01*
X133060002Y-96195131D01*
X133059998Y-96195131D01*
X132950341Y-96212498D01*
X132851414Y-96262904D01*
X132851411Y-96262906D01*
X132826818Y-96287500D01*
X132796135Y-96318182D01*
X132734815Y-96351666D01*
X132708456Y-96354500D01*
X131214768Y-96354500D01*
X131147729Y-96334815D01*
X131127087Y-96318181D01*
X130658611Y-95849706D01*
X130658609Y-95849703D01*
X130577737Y-95768831D01*
X130577736Y-95768830D01*
X130541600Y-95753862D01*
X130541597Y-95753861D01*
X130541595Y-95753859D01*
X130494856Y-95734499D01*
X130494855Y-95734499D01*
X130405145Y-95734499D01*
X130390711Y-95734499D01*
X130390703Y-95734500D01*
X128495098Y-95734500D01*
X128428059Y-95714815D01*
X128407417Y-95698181D01*
X127248941Y-94539705D01*
X127231501Y-94522264D01*
X127189234Y-94479997D01*
X133965131Y-94479997D01*
X133965131Y-94480002D01*
X133982498Y-94589658D01*
X134032904Y-94688585D01*
X134032909Y-94688592D01*
X134111407Y-94767090D01*
X134111410Y-94767092D01*
X134111413Y-94767095D01*
X134151274Y-94787405D01*
X134210341Y-94817501D01*
X134319998Y-94834869D01*
X134320000Y-94834869D01*
X134320002Y-94834869D01*
X134429658Y-94817501D01*
X134429659Y-94817500D01*
X134429661Y-94817500D01*
X134528587Y-94767095D01*
X134545685Y-94749997D01*
X134915131Y-94749997D01*
X134915131Y-94750002D01*
X134932498Y-94859658D01*
X134982904Y-94958585D01*
X134982909Y-94958592D01*
X135061407Y-95037090D01*
X135061410Y-95037092D01*
X135061413Y-95037095D01*
X135141062Y-95077678D01*
X135160341Y-95087501D01*
X135269998Y-95104869D01*
X135270000Y-95104869D01*
X135270002Y-95104869D01*
X135379657Y-95087501D01*
X135379658Y-95087500D01*
X135379661Y-95087500D01*
X135397740Y-95078288D01*
X135466405Y-95065391D01*
X135531146Y-95091665D01*
X135571405Y-95148770D01*
X135576507Y-95208169D01*
X135565131Y-95279996D01*
X135565131Y-95280002D01*
X135582498Y-95389658D01*
X135632904Y-95488585D01*
X135632909Y-95488592D01*
X135711407Y-95567090D01*
X135711410Y-95567092D01*
X135711413Y-95567095D01*
X135774319Y-95599147D01*
X135810341Y-95617501D01*
X135919998Y-95634869D01*
X135920000Y-95634869D01*
X135920002Y-95634869D01*
X136029658Y-95617501D01*
X136029659Y-95617500D01*
X136029661Y-95617500D01*
X136128587Y-95567095D01*
X136207095Y-95488587D01*
X136257500Y-95389661D01*
X136257500Y-95389659D01*
X136257501Y-95389658D01*
X136274869Y-95280002D01*
X136274869Y-95279997D01*
X136257501Y-95170341D01*
X136252313Y-95160159D01*
X136207095Y-95071413D01*
X136207092Y-95071410D01*
X136207090Y-95071407D01*
X136128592Y-94992909D01*
X136128588Y-94992906D01*
X136128587Y-94992905D01*
X136091845Y-94974184D01*
X136029658Y-94942498D01*
X135920002Y-94925131D01*
X135919998Y-94925131D01*
X135810342Y-94942498D01*
X135799675Y-94947933D01*
X135792256Y-94951713D01*
X135723589Y-94964608D01*
X135658849Y-94938330D01*
X135618593Y-94881223D01*
X135613492Y-94821828D01*
X135614006Y-94818587D01*
X135624869Y-94750000D01*
X135620064Y-94719661D01*
X135607501Y-94640341D01*
X135607500Y-94640339D01*
X135557095Y-94541413D01*
X135557092Y-94541410D01*
X135557090Y-94541407D01*
X135478592Y-94462909D01*
X135478588Y-94462906D01*
X135478587Y-94462905D01*
X135468438Y-94457734D01*
X135379658Y-94412498D01*
X135270002Y-94395131D01*
X135269998Y-94395131D01*
X135160341Y-94412498D01*
X135061414Y-94462904D01*
X135061407Y-94462909D01*
X134982909Y-94541407D01*
X134982904Y-94541414D01*
X134932498Y-94640341D01*
X134915131Y-94749997D01*
X134545685Y-94749997D01*
X134607095Y-94688587D01*
X134657500Y-94589661D01*
X134657500Y-94589659D01*
X134657501Y-94589658D01*
X134674869Y-94480002D01*
X134674869Y-94479997D01*
X134657501Y-94370341D01*
X134629208Y-94314813D01*
X134607095Y-94271413D01*
X134607092Y-94271410D01*
X134607090Y-94271407D01*
X134528592Y-94192909D01*
X134528588Y-94192906D01*
X134528587Y-94192905D01*
X134494514Y-94175544D01*
X134429658Y-94142498D01*
X134320002Y-94125131D01*
X134319998Y-94125131D01*
X134210341Y-94142498D01*
X134111414Y-94192904D01*
X134111407Y-94192909D01*
X134032909Y-94271407D01*
X134032904Y-94271414D01*
X133982498Y-94370341D01*
X133965131Y-94479997D01*
X127189234Y-94479997D01*
X127168067Y-94458830D01*
X127168066Y-94458829D01*
X127143788Y-94448772D01*
X127143788Y-94448771D01*
X127085189Y-94424500D01*
X127085187Y-94424499D01*
X127085186Y-94424499D01*
X126995476Y-94424499D01*
X126981042Y-94424499D01*
X126981034Y-94424500D01*
X126511545Y-94424500D01*
X126444506Y-94404815D01*
X126423864Y-94388181D01*
X126398592Y-94362909D01*
X126398588Y-94362906D01*
X126398587Y-94362905D01*
X126384042Y-94355494D01*
X126299658Y-94312498D01*
X126190002Y-94295131D01*
X126189998Y-94295131D01*
X126080341Y-94312498D01*
X125981414Y-94362904D01*
X125981407Y-94362909D01*
X125902909Y-94441407D01*
X125902904Y-94441414D01*
X125852498Y-94540341D01*
X125835131Y-94649997D01*
X125835131Y-94650002D01*
X125852498Y-94759658D01*
X125902904Y-94858585D01*
X125902909Y-94858592D01*
X125981407Y-94937090D01*
X125981410Y-94937092D01*
X125981413Y-94937095D01*
X126054205Y-94974184D01*
X126080341Y-94987501D01*
X126189998Y-95004869D01*
X126190000Y-95004869D01*
X126190002Y-95004869D01*
X126299658Y-94987501D01*
X126299659Y-94987500D01*
X126299661Y-94987500D01*
X126398587Y-94937095D01*
X126410551Y-94925131D01*
X126423864Y-94911819D01*
X126485187Y-94878334D01*
X126511545Y-94875500D01*
X126895564Y-94875500D01*
X126962603Y-94895185D01*
X126983245Y-94911819D01*
X127610190Y-95538764D01*
X127643675Y-95600087D01*
X127638691Y-95669779D01*
X127610191Y-95714126D01*
X127552906Y-95771410D01*
X127552904Y-95771414D01*
X127502498Y-95870341D01*
X127485131Y-95979997D01*
X127485131Y-95980002D01*
X127502498Y-96089658D01*
X127552904Y-96188585D01*
X127552909Y-96188592D01*
X127631407Y-96267090D01*
X127631410Y-96267092D01*
X127631413Y-96267095D01*
X127705549Y-96304869D01*
X127730341Y-96317501D01*
X127839998Y-96334869D01*
X127842574Y-96334869D01*
X127845590Y-96335754D01*
X127849639Y-96336396D01*
X127849556Y-96336919D01*
X127909613Y-96354554D01*
X127955368Y-96407358D01*
X127965047Y-96439471D01*
X127982498Y-96549658D01*
X128032904Y-96648585D01*
X128032909Y-96648592D01*
X128111407Y-96727090D01*
X128111410Y-96727092D01*
X128111413Y-96727095D01*
X128173220Y-96758587D01*
X128210341Y-96777501D01*
X128319998Y-96794869D01*
X128320000Y-96794869D01*
X128320002Y-96794869D01*
X128429658Y-96777501D01*
X128429659Y-96777500D01*
X128429661Y-96777500D01*
X128528587Y-96727095D01*
X128607095Y-96648587D01*
X128657500Y-96549661D01*
X128657500Y-96549659D01*
X128657501Y-96549658D01*
X128674869Y-96440002D01*
X128674869Y-96439998D01*
X128657272Y-96328898D01*
X128666226Y-96259605D01*
X128711222Y-96206153D01*
X128777974Y-96185513D01*
X128779745Y-96185500D01*
X130305233Y-96185500D01*
X130372272Y-96205185D01*
X130392914Y-96221819D01*
X130899241Y-96728147D01*
X130932726Y-96789470D01*
X130927742Y-96859162D01*
X130885870Y-96915095D01*
X130867855Y-96926313D01*
X130857858Y-96931407D01*
X130776413Y-96972905D01*
X130776412Y-96972906D01*
X130776407Y-96972909D01*
X130697909Y-97051407D01*
X130697904Y-97051414D01*
X130647498Y-97150341D01*
X130630131Y-97259997D01*
X130630131Y-97260002D01*
X130647498Y-97369658D01*
X130697904Y-97468585D01*
X130697909Y-97468592D01*
X130776407Y-97547090D01*
X130776410Y-97547092D01*
X130776413Y-97547095D01*
X130873304Y-97596463D01*
X130875341Y-97597501D01*
X130984998Y-97614869D01*
X130985000Y-97614869D01*
X130985002Y-97614869D01*
X131094658Y-97597501D01*
X131094659Y-97597500D01*
X131094661Y-97597500D01*
X131193587Y-97547095D01*
X131272095Y-97468587D01*
X131297765Y-97418205D01*
X131345739Y-97367409D01*
X131408250Y-97350500D01*
X132473624Y-97350500D01*
X132540663Y-97370185D01*
X132586418Y-97422989D01*
X132596362Y-97492147D01*
X132596105Y-97493849D01*
X132595131Y-97500000D01*
X132595131Y-97500002D01*
X132612498Y-97609658D01*
X132662904Y-97708585D01*
X132662909Y-97708592D01*
X132741409Y-97787092D01*
X132745658Y-97790179D01*
X132788326Y-97845506D01*
X132794308Y-97915120D01*
X132761705Y-97976916D01*
X132700868Y-98011276D01*
X132672777Y-98014500D01*
X131465743Y-98014500D01*
X131465735Y-98014499D01*
X131451301Y-98014499D01*
X131361591Y-98014499D01*
X131361589Y-98014499D01*
X131330203Y-98027500D01*
X131302985Y-98038774D01*
X131302983Y-98038774D01*
X131278710Y-98048829D01*
X131217882Y-98109658D01*
X131215276Y-98112264D01*
X131215275Y-98112265D01*
X129534068Y-99793473D01*
X127879360Y-101448181D01*
X127818037Y-101481666D01*
X127791679Y-101484500D01*
X127264854Y-101484500D01*
X127175145Y-101484500D01*
X127175143Y-101484500D01*
X127175141Y-101484501D01*
X127092266Y-101518827D01*
X126161220Y-102449873D01*
X126099897Y-102483358D01*
X126092937Y-102484665D01*
X125980341Y-102502498D01*
X125881414Y-102552904D01*
X125881407Y-102552909D01*
X125802909Y-102631407D01*
X125802904Y-102631414D01*
X125752498Y-102730341D01*
X125735131Y-102839997D01*
X119380500Y-102839997D01*
X119380500Y-101339997D01*
X120555131Y-101339997D01*
X120555131Y-101340002D01*
X120572498Y-101449658D01*
X120622904Y-101548585D01*
X120622909Y-101548592D01*
X120701407Y-101627090D01*
X120701410Y-101627092D01*
X120701413Y-101627095D01*
X120775549Y-101664869D01*
X120800341Y-101677501D01*
X120909998Y-101694869D01*
X120910000Y-101694869D01*
X120910002Y-101694869D01*
X121019658Y-101677501D01*
X121019659Y-101677500D01*
X121019661Y-101677500D01*
X121118587Y-101627095D01*
X121197095Y-101548587D01*
X121247500Y-101449661D01*
X121247500Y-101449659D01*
X121247501Y-101449658D01*
X121264869Y-101340002D01*
X121264869Y-101339997D01*
X121263285Y-101329997D01*
X121745131Y-101329997D01*
X121745131Y-101330002D01*
X121762498Y-101439658D01*
X121812904Y-101538585D01*
X121812909Y-101538592D01*
X121891407Y-101617090D01*
X121891410Y-101617092D01*
X121891413Y-101617095D01*
X121951087Y-101647500D01*
X121990341Y-101667501D01*
X122099998Y-101684869D01*
X122100000Y-101684869D01*
X122100002Y-101684869D01*
X122209658Y-101667501D01*
X122209659Y-101667500D01*
X122209661Y-101667500D01*
X122308587Y-101617095D01*
X122387095Y-101538587D01*
X122437500Y-101439661D01*
X122437500Y-101439659D01*
X122437501Y-101439658D01*
X122454869Y-101330002D01*
X122454869Y-101329997D01*
X122437501Y-101220341D01*
X122435136Y-101215700D01*
X122387095Y-101121413D01*
X122387092Y-101121410D01*
X122387090Y-101121407D01*
X122308592Y-101042909D01*
X122308588Y-101042906D01*
X122308587Y-101042905D01*
X122304743Y-101040946D01*
X122209658Y-100992498D01*
X122100002Y-100975131D01*
X122099998Y-100975131D01*
X121990341Y-100992498D01*
X121891414Y-101042904D01*
X121891407Y-101042909D01*
X121812909Y-101121407D01*
X121812904Y-101121414D01*
X121762498Y-101220341D01*
X121745131Y-101329997D01*
X121263285Y-101329997D01*
X121247501Y-101230341D01*
X121211594Y-101159869D01*
X121197095Y-101131413D01*
X121197092Y-101131410D01*
X121197090Y-101131407D01*
X121118592Y-101052909D01*
X121118588Y-101052906D01*
X121118587Y-101052905D01*
X121098959Y-101042904D01*
X121019658Y-101002498D01*
X120910002Y-100985131D01*
X120909998Y-100985131D01*
X120800341Y-101002498D01*
X120701414Y-101052904D01*
X120701407Y-101052909D01*
X120622909Y-101131407D01*
X120622904Y-101131414D01*
X120572498Y-101230341D01*
X120555131Y-101339997D01*
X119380500Y-101339997D01*
X119380500Y-100804997D01*
X123410131Y-100804997D01*
X123410131Y-100805002D01*
X123427498Y-100914658D01*
X123477904Y-101013585D01*
X123477909Y-101013592D01*
X123556407Y-101092090D01*
X123556410Y-101092092D01*
X123556413Y-101092095D01*
X123655339Y-101142500D01*
X123655341Y-101142501D01*
X123764998Y-101159869D01*
X123765000Y-101159869D01*
X123765002Y-101159869D01*
X123874658Y-101142501D01*
X123874659Y-101142500D01*
X123874661Y-101142500D01*
X123973587Y-101092095D01*
X124052095Y-101013587D01*
X124102500Y-100914661D01*
X124102500Y-100914659D01*
X124102501Y-100914658D01*
X124119869Y-100805002D01*
X124119869Y-100804997D01*
X124102501Y-100695341D01*
X124086952Y-100664825D01*
X124052095Y-100596413D01*
X124052092Y-100596410D01*
X124052090Y-100596407D01*
X123973592Y-100517909D01*
X123973588Y-100517906D01*
X123973587Y-100517905D01*
X123922610Y-100491931D01*
X123874658Y-100467498D01*
X123765002Y-100450131D01*
X123764998Y-100450131D01*
X123655341Y-100467498D01*
X123556414Y-100517904D01*
X123556407Y-100517909D01*
X123477909Y-100596407D01*
X123477904Y-100596414D01*
X123427498Y-100695341D01*
X123410131Y-100804997D01*
X119380500Y-100804997D01*
X119380500Y-97999997D01*
X121175131Y-97999997D01*
X121175131Y-98000002D01*
X121192498Y-98109658D01*
X121242904Y-98208585D01*
X121242909Y-98208592D01*
X121321407Y-98287090D01*
X121321410Y-98287092D01*
X121321413Y-98287095D01*
X121420339Y-98337500D01*
X121420341Y-98337501D01*
X121529998Y-98354869D01*
X121530000Y-98354869D01*
X121530002Y-98354869D01*
X121639658Y-98337501D01*
X121639659Y-98337500D01*
X121639661Y-98337500D01*
X121738587Y-98287095D01*
X121738592Y-98287089D01*
X121746486Y-98281356D01*
X121747528Y-98282790D01*
X121798631Y-98254880D01*
X121868323Y-98259858D01*
X121902960Y-98282118D01*
X121903514Y-98281356D01*
X121911410Y-98287092D01*
X121911413Y-98287095D01*
X122010339Y-98337500D01*
X122010341Y-98337501D01*
X122119998Y-98354869D01*
X122120000Y-98354869D01*
X122120002Y-98354869D01*
X122229658Y-98337501D01*
X122229659Y-98337500D01*
X122229661Y-98337500D01*
X122328587Y-98287095D01*
X122407095Y-98208587D01*
X122457500Y-98109661D01*
X122457500Y-98109659D01*
X122457501Y-98109658D01*
X122474869Y-98000002D01*
X122474869Y-97999997D01*
X122457501Y-97890341D01*
X122435466Y-97847095D01*
X122407095Y-97791413D01*
X122407092Y-97791410D01*
X122407090Y-97791407D01*
X122328592Y-97712909D01*
X122328588Y-97712906D01*
X122328587Y-97712905D01*
X122320112Y-97708587D01*
X122229658Y-97662498D01*
X122120002Y-97645131D01*
X122119998Y-97645131D01*
X122010341Y-97662498D01*
X121911414Y-97712904D01*
X121903514Y-97718644D01*
X121902472Y-97717210D01*
X121851358Y-97745121D01*
X121781666Y-97740137D01*
X121747038Y-97717882D01*
X121746486Y-97718644D01*
X121738588Y-97712906D01*
X121738587Y-97712905D01*
X121730112Y-97708587D01*
X121639658Y-97662498D01*
X121530002Y-97645131D01*
X121529998Y-97645131D01*
X121420341Y-97662498D01*
X121321414Y-97712904D01*
X121321407Y-97712909D01*
X121242909Y-97791407D01*
X121242904Y-97791414D01*
X121192498Y-97890341D01*
X121175131Y-97999997D01*
X119380500Y-97999997D01*
X119380500Y-97259997D01*
X129360131Y-97259997D01*
X129360131Y-97260002D01*
X129377498Y-97369658D01*
X129427904Y-97468585D01*
X129427909Y-97468592D01*
X129506407Y-97547090D01*
X129506410Y-97547092D01*
X129506413Y-97547095D01*
X129603304Y-97596463D01*
X129605341Y-97597501D01*
X129714998Y-97614869D01*
X129715000Y-97614869D01*
X129715002Y-97614869D01*
X129824658Y-97597501D01*
X129824659Y-97597500D01*
X129824661Y-97597500D01*
X129923587Y-97547095D01*
X130002095Y-97468587D01*
X130052500Y-97369661D01*
X130052500Y-97369659D01*
X130052501Y-97369658D01*
X130069869Y-97260002D01*
X130069869Y-97259997D01*
X130052501Y-97150341D01*
X130047232Y-97140000D01*
X130002095Y-97051413D01*
X130002092Y-97051410D01*
X130002090Y-97051407D01*
X129923592Y-96972909D01*
X129923588Y-96972906D01*
X129923587Y-96972905D01*
X129911941Y-96966971D01*
X129824658Y-96922498D01*
X129715002Y-96905131D01*
X129714998Y-96905131D01*
X129605341Y-96922498D01*
X129506414Y-96972904D01*
X129506407Y-96972909D01*
X129427909Y-97051407D01*
X129427904Y-97051414D01*
X129377498Y-97150341D01*
X129360131Y-97259997D01*
X119380500Y-97259997D01*
X119380500Y-96079997D01*
X121345131Y-96079997D01*
X121345131Y-96080002D01*
X121362498Y-96189658D01*
X121412904Y-96288585D01*
X121412909Y-96288592D01*
X121491407Y-96367090D01*
X121491410Y-96367092D01*
X121491413Y-96367095D01*
X121570434Y-96407358D01*
X121590341Y-96417501D01*
X121699998Y-96434869D01*
X121700000Y-96434869D01*
X121700002Y-96434869D01*
X121809658Y-96417501D01*
X121809659Y-96417500D01*
X121809661Y-96417500D01*
X121908587Y-96367095D01*
X121987095Y-96288587D01*
X122037500Y-96189661D01*
X122037500Y-96189659D01*
X122037501Y-96189658D01*
X122054869Y-96080002D01*
X122054869Y-96079997D01*
X122037501Y-95970341D01*
X122027135Y-95949997D01*
X122001659Y-95899997D01*
X122415131Y-95899997D01*
X122415131Y-95900002D01*
X122432498Y-96009658D01*
X122482904Y-96108585D01*
X122482909Y-96108592D01*
X122561407Y-96187090D01*
X122561410Y-96187092D01*
X122561413Y-96187095D01*
X122629563Y-96221819D01*
X122660341Y-96237501D01*
X122769998Y-96254869D01*
X122770000Y-96254869D01*
X122770002Y-96254869D01*
X122879658Y-96237501D01*
X122879659Y-96237500D01*
X122879661Y-96237500D01*
X122978587Y-96187095D01*
X123057095Y-96108587D01*
X123107500Y-96009661D01*
X123107500Y-96009659D01*
X123107501Y-96009658D01*
X123124869Y-95900002D01*
X123124869Y-95899997D01*
X123107501Y-95790341D01*
X123088914Y-95753862D01*
X123057095Y-95691413D01*
X123057092Y-95691410D01*
X123057090Y-95691407D01*
X122978592Y-95612909D01*
X122978588Y-95612906D01*
X122978587Y-95612905D01*
X122951585Y-95599147D01*
X122879658Y-95562498D01*
X122770002Y-95545131D01*
X122769998Y-95545131D01*
X122660341Y-95562498D01*
X122561414Y-95612904D01*
X122561407Y-95612909D01*
X122482909Y-95691407D01*
X122482904Y-95691414D01*
X122432498Y-95790341D01*
X122415131Y-95899997D01*
X122001659Y-95899997D01*
X121987095Y-95871413D01*
X121987092Y-95871410D01*
X121987090Y-95871407D01*
X121908592Y-95792909D01*
X121908588Y-95792906D01*
X121908587Y-95792905D01*
X121892590Y-95784754D01*
X121809658Y-95742498D01*
X121700002Y-95725131D01*
X121699998Y-95725131D01*
X121590341Y-95742498D01*
X121491414Y-95792904D01*
X121491407Y-95792909D01*
X121412909Y-95871407D01*
X121412904Y-95871414D01*
X121362498Y-95970341D01*
X121345131Y-96079997D01*
X119380500Y-96079997D01*
X119380500Y-92589997D01*
X125895131Y-92589997D01*
X125895131Y-92590002D01*
X125912498Y-92699658D01*
X125962904Y-92798585D01*
X125962909Y-92798592D01*
X126041407Y-92877090D01*
X126041410Y-92877092D01*
X126041413Y-92877095D01*
X126140339Y-92927500D01*
X126140341Y-92927501D01*
X126249998Y-92944869D01*
X126250000Y-92944869D01*
X126250002Y-92944869D01*
X126359658Y-92927501D01*
X126359659Y-92927500D01*
X126359661Y-92927500D01*
X126458587Y-92877095D01*
X126537095Y-92798587D01*
X126587500Y-92699661D01*
X126587500Y-92699659D01*
X126587501Y-92699658D01*
X126604869Y-92590002D01*
X126604869Y-92589997D01*
X126587501Y-92480341D01*
X126559375Y-92425141D01*
X126537095Y-92381413D01*
X126537092Y-92381410D01*
X126537090Y-92381407D01*
X126458592Y-92302909D01*
X126458588Y-92302906D01*
X126458587Y-92302905D01*
X126433163Y-92289951D01*
X126359658Y-92252498D01*
X126250002Y-92235131D01*
X126249998Y-92235131D01*
X126140341Y-92252498D01*
X126041414Y-92302904D01*
X126041407Y-92302909D01*
X125962909Y-92381407D01*
X125962904Y-92381414D01*
X125912498Y-92480341D01*
X125895131Y-92589997D01*
X119380500Y-92589997D01*
X119380500Y-91909997D01*
X133025131Y-91909997D01*
X133025131Y-91910002D01*
X133042498Y-92019658D01*
X133092904Y-92118585D01*
X133092909Y-92118592D01*
X133171407Y-92197090D01*
X133171410Y-92197092D01*
X133171413Y-92197095D01*
X133250713Y-92237500D01*
X133270341Y-92247501D01*
X133379998Y-92264869D01*
X133380000Y-92264869D01*
X133380002Y-92264869D01*
X133489658Y-92247501D01*
X133489659Y-92247500D01*
X133489661Y-92247500D01*
X133588587Y-92197095D01*
X133667095Y-92118587D01*
X133717500Y-92019661D01*
X133717500Y-92019659D01*
X133717501Y-92019658D01*
X133734869Y-91910002D01*
X133734869Y-91909997D01*
X133717501Y-91800341D01*
X133682381Y-91731414D01*
X133667095Y-91701413D01*
X133667092Y-91701410D01*
X133667090Y-91701407D01*
X133588592Y-91622909D01*
X133588588Y-91622906D01*
X133588587Y-91622905D01*
X133548536Y-91602498D01*
X133489658Y-91572498D01*
X133380002Y-91555131D01*
X133379998Y-91555131D01*
X133270341Y-91572498D01*
X133171414Y-91622904D01*
X133171407Y-91622909D01*
X133092909Y-91701407D01*
X133092904Y-91701414D01*
X133042498Y-91800341D01*
X133025131Y-91909997D01*
X119380500Y-91909997D01*
X119380500Y-91284500D01*
X119400185Y-91217461D01*
X119452989Y-91171706D01*
X119504500Y-91160500D01*
X152165500Y-91160500D01*
X152232539Y-91180185D01*
G37*
%TD.AperFunction*%
%TD*%
M02*
