M48
; DRILL file {KiCad 8.0.5} date 2024-12-17T02:27:56+0100
; FORMAT={-:-/ absolute / inch / decimal}
; #@! TF.CreationDate,2024-12-17T02:27:56+01:00
; #@! TF.GenerationSoftware,Kicad,Pcbnew,8.0.5
; #@! TF.FileFunction,Plated,1,6,PTH
FMAT,2
INCH
; #@! TA.AperFunction,Plated,PTH,ViaDrill
T1C0.0118
; #@! TA.AperFunction,Plated,PTH,ComponentDrill
T2C0.0236
; #@! TA.AperFunction,Plated,PTH,ComponentDrill
T3C0.0394
%
G90
G05
T1
X4.7094Y-4.0665
X4.7098Y-4.0087
X4.711Y-3.622
X4.7154Y-3.7732
X4.7154Y-3.828
X4.7157Y-4.1343
X4.7173Y-3.713
X4.7173Y-4.1654
X4.7256Y-4.1902
X4.7291Y-4.2713
X4.737Y-3.6012
X4.7441Y-3.6744
X4.7476Y-4.1642
X4.7488Y-4.1319
X4.7602Y-3.9898
X4.7701Y-3.713
X4.774Y-4.311
X4.7807Y-3.6177
X4.7846Y-3.8583
X4.7862Y-4.1878
X4.7866Y-4.2157
X4.789Y-4.139
X4.7913Y-3.7827
X4.8071Y-3.9894
X4.8079Y-3.8583
X4.8209Y-4.1382
X4.8224Y-3.5996
X4.8224Y-4.1598
X4.8268Y-3.735
X4.8307Y-3.6362
X4.8335Y-3.7756
X4.8335Y-3.8236
X4.835Y-4.2232
X4.8362Y-4.1909
X4.8394Y-4.0677
X4.8508Y-4.1382
X4.8512Y-4.1606
X4.8559Y-4.2795
X4.8685Y-4.2512
X4.8697Y-4.124
X4.8726Y-3.9687
X4.8811Y-4.039
X4.8815Y-3.6
X4.9012Y-3.8433
X4.9142Y-4.1079
X4.9248Y-3.9949
X4.9264Y-3.6177
X4.9315Y-3.8744
X4.9406Y-3.8362
X4.9469Y-3.7224
X4.9642Y-4.0488
X4.9681Y-3.7264
X4.9705Y-3.6453
X4.972Y-3.6
X4.972Y-4.1402
X4.9724Y-3.7949
X4.9815Y-3.8378
X5.0067Y-4.1461
X5.0102Y-3.9858
X5.0118Y-3.8941
X5.0154Y-3.9441
X5.0169Y-3.6157
X5.0295Y-4.1299
X5.0307Y-4.0244
X5.0331Y-3.7787
X5.0429Y-4.265
X5.0437Y-4.1169
X5.052Y-3.7969
X5.0827Y-3.8933
X5.0858Y-4.2878
X5.0886Y-3.9925
X5.0898Y-3.6008
X5.0913Y-4.1012
X5.1069Y-3.8291
X5.126Y-4.2402
X5.1319Y-3.7957
X5.1323Y-4.0457
X5.1331Y-4.0646
X5.1421Y-4.1398
X5.1465Y-4.2402
X5.1504Y-3.9469
X5.1504Y-3.9913
X5.1569Y-3.8291
X5.1626Y-3.6157
X5.1717Y-4.2906
X5.1878Y-3.9272
X5.1906Y-3.9764
X5.1913Y-4.2906
X5.1925Y-4.1358
X5.1961Y-3.85
X5.2028Y-3.6012
X5.2043Y-4.0625
X5.2295Y-3.8953
X5.2343Y-3.8386
X5.2354Y-4.1291
X5.2386Y-3.8012
X5.2413Y-4.0181
X5.2447Y-4.0476
X5.2461Y-3.9709
X5.2492Y-3.7425
X5.2492Y-3.9457
X5.25Y-3.6937
X5.2512Y-3.6185
X5.2559Y-3.8409
X5.2559Y-3.8644
X5.2598Y-3.724
X5.2602Y-4.2606
X5.2626Y-4.1256
X5.265Y-4.2224
X5.278Y-4.1902
X5.2827Y-3.6689
X5.2835Y-3.5996
X5.2882Y-3.7197
X5.3165Y-3.6181
X5.3256Y-3.7303
X5.3264Y-3.6677
X5.3291Y-4.287
X5.3465Y-4.2874
X5.3492Y-3.598
X5.3504Y-4.0752
X5.3512Y-3.7512
X5.3551Y-4.1114
X5.3602Y-4.0118
X5.3626Y-4.2835
X5.3634Y-3.9728
X5.3638Y-3.8587
X5.3677Y-3.8244
X5.3709Y-4.0803
X5.3744Y-4.1114
X5.3827Y-3.6193
X5.3933Y-4.0819
X5.3941Y-3.7185
X5.3961Y-4.1106
X5.3976Y-4.2161
X5.3996Y-4.1465
X5.4043Y-3.8402
X5.4091Y-3.7327
X5.4091Y-4.3154
X5.4114Y-3.9858
X5.4146Y-4.0827
X5.4156Y-3.7518
X5.4157Y-3.5992
X5.4157Y-4.1232
X5.426Y-4.0126
X5.437Y-4.0827
X5.4437Y-4.2122
X5.4437Y-4.2323
X5.4437Y-4.2524
X5.4437Y-4.2724
X5.4437Y-4.2925
X5.4437Y-4.3126
X5.4441Y-3.861
X5.4452Y-3.7476
X5.4469Y-3.8146
X5.4472Y-3.689
X5.4488Y-3.6197
X5.4488Y-3.9098
X5.4672Y-4.0789
X5.4689Y-4.1945
X5.4697Y-3.7248
X5.4815Y-3.7512
X5.487Y-3.8138
X5.489Y-3.6008
X5.5051Y-3.6854
X5.5053Y-3.7557
X5.5059Y-3.7122
X5.5173Y-3.8614
X5.5343Y-4.0126
X5.5362Y-3.7094
X5.5429Y-3.7513
X5.5496Y-4.0945
X5.5496Y-4.1945
X5.5567Y-4.0122
X5.5571Y-3.8622
X5.5571Y-3.9744
X5.57Y-3.7361
X5.5732Y-3.7555
X5.5783Y-4.1937
X5.581Y-4.0888
X5.5882Y-4.1246
X5.5886Y-3.602
X5.5984Y-4.1937
X5.5988Y-3.6602
X5.6006Y-3.7514
X5.6039Y-4.0488
X5.6185Y-4.1937
X5.6228Y-3.8244
X5.6228Y-3.8461
X5.626Y-3.7469
X5.626Y-4.1264
X5.6319Y-3.9295
X5.6346Y-3.9531
X5.6362Y-3.9862
X5.6386Y-4.1937
X5.6472Y-4.0449
X5.6559Y-4.0902
X5.6587Y-4.1937
X5.6657Y-4.1335
X5.6661Y-4.1102
X5.6709Y-3.976
X5.6787Y-4.1937
X5.6929Y-4.1248
X5.6961Y-3.6059
X5.6988Y-4.1937
X5.7053Y-4.1494
X5.7114Y-3.7776
X5.7189Y-4.1937
X5.7205Y-4.1343
X5.7343Y-3.8024
X5.739Y-4.1937
X5.7591Y-4.1937
X5.7791Y-4.1937
X5.7898Y-3.7071
X5.7969Y-3.9921
X5.7976Y-3.6024
X5.798Y-3.9303
X5.7992Y-4.1937
X5.8142Y-4.05
X5.8154Y-3.8776
X5.8193Y-4.1937
X5.8362Y-3.7079
X5.839Y-4.0154
X5.8394Y-4.1937
X5.8419Y-3.7578
X5.852Y-3.602
X5.8563Y-3.8677
X5.8567Y-4.0591
X5.8594Y-4.1937
X5.8697Y-4.1551
X5.8713Y-4.0268
X5.8768Y-3.7835
X5.8795Y-4.1937
X5.898Y-4.1114
X5.8996Y-4.1937
X5.9012Y-3.6067
X5.9028Y-4.0654
X5.9043Y-3.7819
X5.9051Y-3.6945
X5.9185Y-4.028
X5.9197Y-4.1937
X5.9217Y-3.8339
X5.9224Y-3.8693
X5.9289Y-3.9138
X5.9289Y-3.9886
X5.9398Y-4.1937
X5.9417Y-3.737
X5.9512Y-4.063
X5.9598Y-4.1937
X5.9614Y-3.8713
X5.9622Y-3.8331
X5.9701Y-4.028
X5.9705Y-3.95
X5.9744Y-4.0878
X5.9799Y-4.1937
X5.9807Y-3.6
X5.9823Y-3.7051
T3
X5.5492Y-3.66
X5.6492Y-3.66
X5.7492Y-3.66
X5.8492Y-3.66
T2
G00X5.8114Y-3.7933
M15
G01X5.7681Y-3.7933
M16
G05
G00X5.8114Y-4.1335
M15
G01X5.7681Y-4.1335
M16
G05
G00X5.9701Y-3.7933
M15
G01X5.9386Y-3.7933
M16
G05
G00X5.9701Y-4.1335
M15
G01X5.9386Y-4.1335
M16
G05
M30
