%TF.GenerationSoftware,KiCad,Pcbnew,8.0.5*%
%TF.CreationDate,2024-12-17T02:27:59+01:00*%
%TF.ProjectId,hardware v5,68617264-7761-4726-9520-76352e6b6963,rev?*%
%TF.SameCoordinates,Original*%
%TF.FileFunction,Copper,L5,Inr*%
%TF.FilePolarity,Positive*%
%FSLAX46Y46*%
G04 Gerber Fmt 4.6, Leading zero omitted, Abs format (unit mm)*
G04 Created by KiCad (PCBNEW 8.0.5) date 2024-12-17 02:27:59*
%MOMM*%
%LPD*%
G01*
G04 APERTURE LIST*
%TA.AperFunction,ComponentPad*%
%ADD10R,1.700000X1.700000*%
%TD*%
%TA.AperFunction,ComponentPad*%
%ADD11O,1.700000X1.700000*%
%TD*%
%TA.AperFunction,ComponentPad*%
%ADD12O,1.800000X1.000000*%
%TD*%
%TA.AperFunction,ComponentPad*%
%ADD13O,2.100000X1.000000*%
%TD*%
%TA.AperFunction,ViaPad*%
%ADD14C,0.400000*%
%TD*%
%TA.AperFunction,Conductor*%
%ADD15C,0.500000*%
%TD*%
G04 APERTURE END LIST*
D10*
%TO.N,GND*%
%TO.C,J3*%
X148570000Y-92965000D03*
D11*
%TO.N,+3.3V*%
X146030000Y-92965000D03*
%TO.N,OLED_SCL*%
X143490000Y-92965000D03*
%TO.N,OLED_SDA*%
X140950000Y-92965000D03*
%TD*%
D12*
%TO.N,GND*%
%TO.C,J2*%
X151240000Y-96350000D03*
D13*
X147060000Y-96350000D03*
D12*
X151240000Y-104990000D03*
D13*
X147060000Y-104990000D03*
%TD*%
D14*
%TO.N,GND*%
X126300000Y-96390000D03*
%TO.N,GPSTIMEPULSE*%
X126190000Y-94650000D03*
X133060000Y-96550000D03*
X137390000Y-94810000D03*
%TO.N,Net-(ANT2-TIMEPULSE)*%
X126250000Y-92590000D03*
%TO.N,GPSEXTINT*%
X128090000Y-108330000D03*
X136420000Y-103640000D03*
%TO.N,GNDGPS*%
X121700000Y-96080000D03*
X127750000Y-104900000D03*
X122120000Y-98000000D03*
X128110000Y-104570000D03*
X121530000Y-98000000D03*
%TO.N,GND*%
X121430000Y-91890000D03*
X120620000Y-104950000D03*
X150430000Y-98280000D03*
X149090000Y-105540000D03*
X122770000Y-97120000D03*
X136230000Y-100910000D03*
X138350000Y-96890000D03*
X143220000Y-106520000D03*
X149930000Y-103260000D03*
X145260000Y-106520000D03*
X121640000Y-105130000D03*
X138360000Y-93700000D03*
X136340000Y-97140000D03*
X151380000Y-106520000D03*
X131840000Y-101000000D03*
X120030000Y-106430000D03*
X147060000Y-94160000D03*
X137450000Y-101240000D03*
X119780000Y-105010000D03*
X120320000Y-91470000D03*
X136150000Y-101900000D03*
X139830000Y-93610000D03*
X119820000Y-105800000D03*
X122600000Y-94870000D03*
X143160000Y-101250000D03*
X142200000Y-106520000D03*
X130820000Y-100250000D03*
X138910000Y-106540000D03*
X134060000Y-106430000D03*
X140570000Y-101920000D03*
X143440000Y-102740000D03*
X119770000Y-97230000D03*
X139370000Y-96870000D03*
X125090000Y-101470000D03*
X137270000Y-97540000D03*
X149340000Y-106520000D03*
X126290000Y-91440000D03*
X133330000Y-95060000D03*
X122920000Y-103320000D03*
X141150000Y-100950000D03*
X138270000Y-106990000D03*
X133670000Y-104790000D03*
X132980000Y-104880000D03*
X145650000Y-96580000D03*
X120590000Y-105770000D03*
X151160000Y-103200000D03*
X125130000Y-91890000D03*
X137100000Y-107090000D03*
X148640000Y-91490000D03*
X138400000Y-99310000D03*
X141140000Y-101910000D03*
X119770000Y-95840000D03*
X142210000Y-92970000D03*
X144600000Y-104770000D03*
X144680000Y-91590000D03*
X147810000Y-106520000D03*
X130350000Y-96410000D03*
X150330000Y-102310000D03*
X139850000Y-94290000D03*
X138270000Y-109030000D03*
X122810000Y-107270000D03*
X140620000Y-94220000D03*
X147710000Y-98490000D03*
X148320000Y-106520000D03*
X148830000Y-106520000D03*
X129250000Y-101410000D03*
X127390000Y-100180000D03*
X142254834Y-95284834D03*
X142710000Y-106520000D03*
X125260000Y-98410000D03*
X147680000Y-102870000D03*
X146790000Y-106520000D03*
X149130000Y-102280000D03*
X131890000Y-105050000D03*
X134180000Y-93190000D03*
X150360000Y-106520000D03*
X133610000Y-108220000D03*
X133730000Y-107250000D03*
X140140000Y-98080000D03*
X123690000Y-104750000D03*
X138270000Y-107500000D03*
X143660000Y-103890000D03*
X151440000Y-97360000D03*
X124820000Y-104340000D03*
X149990000Y-93840000D03*
X126530000Y-97480000D03*
X143730000Y-106520000D03*
X119620000Y-103290000D03*
X120500000Y-93330000D03*
X144040000Y-100990000D03*
X147300000Y-106520000D03*
X150410000Y-97380000D03*
X151750000Y-103830000D03*
X127260000Y-101240000D03*
X127300000Y-98910000D03*
X151910000Y-91440000D03*
X149810000Y-104430000D03*
X138280000Y-98070000D03*
X130610000Y-105150000D03*
X138270000Y-108010000D03*
X126290000Y-105160000D03*
X147260000Y-91500000D03*
X131130000Y-91840000D03*
X140960000Y-106540000D03*
X149270000Y-96100000D03*
X123980000Y-102590000D03*
X151890000Y-106520000D03*
X133350000Y-93820000D03*
X148240000Y-94180000D03*
X123990000Y-91440000D03*
X141690000Y-106520000D03*
X151420000Y-98330000D03*
X151950000Y-94110000D03*
X125650000Y-94550000D03*
X144750000Y-106520000D03*
X131980000Y-97790000D03*
X121260000Y-109500000D03*
X133600000Y-94590000D03*
X139420000Y-91460000D03*
X135870000Y-91390000D03*
X141950000Y-91490000D03*
X138270000Y-108520000D03*
X119820000Y-94310000D03*
X137820000Y-101920000D03*
X119660000Y-92000000D03*
X148310000Y-101990000D03*
X137390000Y-109610000D03*
X129280000Y-91460000D03*
X149850000Y-106520000D03*
X142340000Y-102840000D03*
X129100000Y-98890000D03*
X144240000Y-106520000D03*
X121160000Y-94310000D03*
X127430000Y-91840000D03*
X120120000Y-108490000D03*
X138270000Y-109540000D03*
X122700000Y-92360000D03*
X149970000Y-96060000D03*
X130820000Y-101380000D03*
X122840000Y-106450000D03*
X150870000Y-106520000D03*
X151640000Y-102310000D03*
X141150000Y-98100000D03*
X137560000Y-91420000D03*
X146280000Y-106520000D03*
X119630000Y-101820000D03*
X123340000Y-108700000D03*
X145770000Y-106520000D03*
X122490000Y-91430000D03*
X135290000Y-93160000D03*
X136240000Y-98010000D03*
X131770000Y-99750000D03*
X149890000Y-91610000D03*
X132150000Y-91470000D03*
X124490000Y-97620000D03*
X125490000Y-97440000D03*
X134200000Y-91430000D03*
X150920000Y-94920000D03*
%TO.N,+3.3V*%
X135920000Y-95280000D03*
X137560000Y-104730000D03*
X137060000Y-104410000D03*
X130360000Y-102760000D03*
X133330000Y-100220000D03*
X122100000Y-101330000D03*
X135270000Y-94750000D03*
X136510000Y-104430000D03*
X142820000Y-97140000D03*
X143920000Y-104400000D03*
X134320000Y-94480000D03*
X136020000Y-104430000D03*
X127840000Y-95980000D03*
X137150000Y-105320000D03*
X122770000Y-95900000D03*
X141758656Y-103854826D03*
X143910000Y-104990000D03*
X129320000Y-104170000D03*
X142820000Y-97690000D03*
X138868083Y-103605000D03*
X120910000Y-101340000D03*
X128320000Y-96440000D03*
X133250000Y-100860831D03*
X130380000Y-103240000D03*
X139833442Y-95395000D03*
%TO.N,vusb*%
X131359997Y-108980000D03*
X131860000Y-108980000D03*
X121580000Y-107080000D03*
X145300000Y-105010000D03*
X121570000Y-106370000D03*
X151650000Y-100330000D03*
X144915000Y-105395000D03*
%TO.N,Net-(IC3-EN)*%
X135360000Y-108890000D03*
X136210000Y-108800000D03*
X135800000Y-108900000D03*
X123660000Y-107980000D03*
%TO.N,Net-(U1-NRST)*%
X133380000Y-91910000D03*
X132830000Y-98940000D03*
%TO.N,SPI_MOSi*%
X127780000Y-102220000D03*
X137557500Y-95295095D03*
%TO.N,SPI_MISO*%
X136990000Y-103680000D03*
X129715000Y-97260000D03*
%TO.N,SPI_CS*%
X130985000Y-97260000D03*
X137010000Y-94450000D03*
%TO.N,COMPASSDA*%
X132950000Y-97500000D03*
X142900000Y-104810000D03*
X141478477Y-94897064D03*
%TO.N,COMPASSCL*%
X133499998Y-98155000D03*
X141940251Y-104764958D03*
%TO.N,USART_RX*%
X140960000Y-103999240D03*
X142900000Y-95170000D03*
%TO.N,USART_TX*%
X138100000Y-103700000D03*
%TO.N,OLED_SCL*%
X137530000Y-103700000D03*
%TO.N,ALIMGPS*%
X133130000Y-102060000D03*
X127170000Y-105310000D03*
%TO.N,Net-(U1-PA4)*%
X129180000Y-108910000D03*
X135900002Y-103510000D03*
%TO.N,BAT+*%
X122450000Y-105110000D03*
X130200000Y-107700000D03*
X130720000Y-107700000D03*
X123220000Y-105680000D03*
X123210000Y-105110000D03*
X122490000Y-105660000D03*
%TO.N,SWDIO*%
X138930000Y-94610000D03*
X138400000Y-91940000D03*
%TO.N,SWCLK*%
X136720000Y-91930000D03*
X139230000Y-95280000D03*
%TO.N,SWO*%
X135040000Y-91900000D03*
X138307500Y-95190000D03*
%TO.N,D+*%
X150595000Y-101310000D03*
X140790000Y-95283906D03*
%TO.N,D-*%
X141558903Y-95390555D03*
X150595000Y-99410000D03*
%TO.N,Net-(U1-PB0)*%
X148384659Y-95447254D03*
X143120000Y-100410000D03*
%TO.N,Net-(U1-PB1)*%
X145070000Y-95950000D03*
X143050000Y-99810000D03*
%TO.N,Net-(ANT2-RXD)*%
X133214488Y-102810000D03*
%TO.N,Net-(ANT2-TXD)*%
X132190002Y-103188079D03*
%TO.N,Net-(ANT2-V_BCKP)*%
X123765000Y-100805000D03*
%TO.N,USBD-*%
X147270000Y-99830000D03*
%TO.N,Net-(J2-CC1)*%
X148750000Y-98240000D03*
%TO.N,USBD+*%
X147240000Y-101400000D03*
%TO.N,Net-(J2-CC2)*%
X148760000Y-103100000D03*
%TO.N,Net-(S3-COM_2)*%
X126090000Y-102840000D03*
X133499998Y-97560000D03*
%TD*%
D15*
%TO.N,vusb*%
X151650000Y-100330000D02*
X149087818Y-100330000D01*
X136490000Y-109570000D02*
X137710000Y-108350000D01*
X130420000Y-109460000D02*
X123520000Y-109460000D01*
X121580000Y-107080000D02*
X121580000Y-106380000D01*
X122152918Y-109460000D02*
X121480000Y-108787082D01*
X131359997Y-108980000D02*
X130900000Y-108980000D01*
X131860000Y-108980000D02*
X132450000Y-109570000D01*
X123520000Y-109460000D02*
X122280000Y-109460000D01*
X149087818Y-100330000D02*
X145300000Y-104117818D01*
X121480000Y-108787082D02*
X121480000Y-107180000D01*
X121580000Y-106380000D02*
X121570000Y-106370000D01*
X137710000Y-108350000D02*
X137710000Y-106390000D01*
X132450000Y-109570000D02*
X136490000Y-109570000D01*
X137710000Y-106390000D02*
X138560000Y-105540000D01*
X138560000Y-105540000D02*
X144770000Y-105540000D01*
X121480000Y-107180000D02*
X121580000Y-107080000D01*
X131860000Y-108980000D02*
X131359997Y-108980000D01*
X145300000Y-104117818D02*
X145300000Y-105010000D01*
X130900000Y-108980000D02*
X130420000Y-109460000D01*
X144770000Y-105540000D02*
X145300000Y-105010000D01*
X122280000Y-109460000D02*
X122152918Y-109460000D01*
%TO.N,Net-(IC3-EN)*%
X135900000Y-108800000D02*
X135800000Y-108900000D01*
X132678528Y-108950000D02*
X135300000Y-108950000D01*
X129627488Y-108380000D02*
X132108528Y-108380000D01*
X128832488Y-107585000D02*
X129627488Y-108380000D01*
X135370000Y-108900000D02*
X135360000Y-108890000D01*
X123660000Y-107980000D02*
X124055000Y-107585000D01*
X124055000Y-107585000D02*
X128832488Y-107585000D01*
X136210000Y-108800000D02*
X135900000Y-108800000D01*
X132108528Y-108380000D02*
X132678528Y-108950000D01*
X135300000Y-108950000D02*
X135360000Y-108890000D01*
X135800000Y-108900000D02*
X135370000Y-108900000D01*
%TO.N,BAT+*%
X122490000Y-105660000D02*
X122490000Y-105150000D01*
X123220000Y-105120000D02*
X123210000Y-105110000D01*
X123220000Y-105680000D02*
X123220000Y-105120000D01*
X130200000Y-107700000D02*
X130720000Y-107700000D01*
X130200000Y-107700000D02*
X129360000Y-106860000D01*
X123210000Y-105110000D02*
X122450000Y-105110000D01*
X122490000Y-105150000D02*
X122450000Y-105110000D01*
X122510000Y-105680000D02*
X122490000Y-105660000D01*
X124400000Y-106860000D02*
X123220000Y-105680000D01*
X123220000Y-105680000D02*
X122510000Y-105680000D01*
X129360000Y-106860000D02*
X124400000Y-106860000D01*
%TD*%
%TA.AperFunction,Conductor*%
%TO.N,+3.3V*%
G36*
X122100802Y-91180185D02*
G01*
X122146557Y-91232989D01*
X122156501Y-91302147D01*
X122152987Y-91317258D01*
X122135131Y-91429997D01*
X122135131Y-91430002D01*
X122152498Y-91539658D01*
X122202904Y-91638585D01*
X122202909Y-91638592D01*
X122281407Y-91717090D01*
X122281410Y-91717092D01*
X122281413Y-91717095D01*
X122335923Y-91744869D01*
X122380341Y-91767501D01*
X122489998Y-91784869D01*
X122490000Y-91784869D01*
X122490002Y-91784869D01*
X122599658Y-91767501D01*
X122599659Y-91767500D01*
X122599661Y-91767500D01*
X122698587Y-91717095D01*
X122777095Y-91638587D01*
X122827500Y-91539661D01*
X122827500Y-91539659D01*
X122827501Y-91539658D01*
X122844869Y-91430002D01*
X122844869Y-91429997D01*
X122825974Y-91310700D01*
X122827950Y-91310387D01*
X122826311Y-91252975D01*
X122862393Y-91193143D01*
X122925094Y-91162316D01*
X122946237Y-91160500D01*
X123537013Y-91160500D01*
X123604052Y-91180185D01*
X123649807Y-91232989D01*
X123659751Y-91302147D01*
X123654943Y-91322823D01*
X123652498Y-91330346D01*
X123635131Y-91439997D01*
X123635131Y-91440002D01*
X123652498Y-91549658D01*
X123702904Y-91648585D01*
X123702909Y-91648592D01*
X123781407Y-91727090D01*
X123781410Y-91727092D01*
X123781413Y-91727095D01*
X123860713Y-91767500D01*
X123880341Y-91777501D01*
X123989998Y-91794869D01*
X123990000Y-91794869D01*
X123990002Y-91794869D01*
X124099658Y-91777501D01*
X124099659Y-91777500D01*
X124099661Y-91777500D01*
X124198587Y-91727095D01*
X124277095Y-91648587D01*
X124327500Y-91549661D01*
X124327500Y-91549659D01*
X124327501Y-91549658D01*
X124344869Y-91440002D01*
X124344869Y-91439997D01*
X124327501Y-91330346D01*
X124327500Y-91330339D01*
X124327496Y-91330332D01*
X124325057Y-91322823D01*
X124323060Y-91252981D01*
X124359138Y-91193147D01*
X124421838Y-91162317D01*
X124442987Y-91160500D01*
X125837013Y-91160500D01*
X125904052Y-91180185D01*
X125949807Y-91232989D01*
X125959751Y-91302147D01*
X125954943Y-91322823D01*
X125952498Y-91330346D01*
X125935131Y-91439997D01*
X125935131Y-91440002D01*
X125952498Y-91549658D01*
X126002904Y-91648585D01*
X126002909Y-91648592D01*
X126081407Y-91727090D01*
X126081410Y-91727092D01*
X126081413Y-91727095D01*
X126160713Y-91767500D01*
X126180341Y-91777501D01*
X126289998Y-91794869D01*
X126290000Y-91794869D01*
X126290002Y-91794869D01*
X126399658Y-91777501D01*
X126399659Y-91777500D01*
X126399661Y-91777500D01*
X126498587Y-91727095D01*
X126577095Y-91648587D01*
X126627500Y-91549661D01*
X126627500Y-91549659D01*
X126627501Y-91549658D01*
X126644869Y-91440002D01*
X126644869Y-91439997D01*
X126627501Y-91330346D01*
X126627500Y-91330339D01*
X126627496Y-91330332D01*
X126625057Y-91322823D01*
X126623060Y-91252981D01*
X126659138Y-91193147D01*
X126721838Y-91162317D01*
X126742987Y-91160500D01*
X128836879Y-91160500D01*
X128903918Y-91180185D01*
X128949673Y-91232989D01*
X128959617Y-91302147D01*
X128947364Y-91340792D01*
X128944582Y-91346252D01*
X128942498Y-91350342D01*
X128925131Y-91459997D01*
X128925131Y-91460002D01*
X128942498Y-91569658D01*
X128992904Y-91668585D01*
X128992909Y-91668592D01*
X129071407Y-91747090D01*
X129071410Y-91747092D01*
X129071413Y-91747095D01*
X129145549Y-91784869D01*
X129170341Y-91797501D01*
X129279998Y-91814869D01*
X129280000Y-91814869D01*
X129280002Y-91814869D01*
X129389658Y-91797501D01*
X129389659Y-91797500D01*
X129389661Y-91797500D01*
X129488587Y-91747095D01*
X129567095Y-91668587D01*
X129617500Y-91569661D01*
X129617500Y-91569659D01*
X129617501Y-91569658D01*
X129634869Y-91460002D01*
X129634869Y-91459997D01*
X129617501Y-91350342D01*
X129617500Y-91350340D01*
X129617500Y-91350339D01*
X129612636Y-91340794D01*
X129599740Y-91272127D01*
X129626016Y-91207386D01*
X129683121Y-91167129D01*
X129723121Y-91160500D01*
X131711974Y-91160500D01*
X131779013Y-91180185D01*
X131824768Y-91232989D01*
X131834712Y-91302147D01*
X131822460Y-91340790D01*
X131812500Y-91360339D01*
X131812498Y-91360343D01*
X131795131Y-91469997D01*
X131795131Y-91470002D01*
X131812498Y-91579658D01*
X131862904Y-91678585D01*
X131862909Y-91678592D01*
X131941407Y-91757090D01*
X131941410Y-91757092D01*
X131941413Y-91757095D01*
X132011381Y-91792745D01*
X132040341Y-91807501D01*
X132149998Y-91824869D01*
X132150000Y-91824869D01*
X132150002Y-91824869D01*
X132259658Y-91807501D01*
X132259659Y-91807500D01*
X132259661Y-91807500D01*
X132358587Y-91757095D01*
X132437095Y-91678587D01*
X132487500Y-91579661D01*
X132487500Y-91579659D01*
X132487501Y-91579658D01*
X132504869Y-91470002D01*
X132504869Y-91469997D01*
X132487501Y-91360343D01*
X132487500Y-91360341D01*
X132487500Y-91360339D01*
X132477540Y-91340792D01*
X132464645Y-91272126D01*
X132490921Y-91207385D01*
X132548028Y-91167128D01*
X132588026Y-91160500D01*
X133743763Y-91160500D01*
X133810802Y-91180185D01*
X133856557Y-91232989D01*
X133866501Y-91302147D01*
X133862987Y-91317258D01*
X133845131Y-91429997D01*
X133845131Y-91430002D01*
X133862499Y-91539659D01*
X133862499Y-91539660D01*
X133881911Y-91577759D01*
X133888920Y-91615084D01*
X133898723Y-91620806D01*
X133908894Y-91633066D01*
X133912907Y-91638590D01*
X133991407Y-91717090D01*
X133991410Y-91717092D01*
X133991413Y-91717095D01*
X134045923Y-91744869D01*
X134090341Y-91767501D01*
X134199998Y-91784869D01*
X134200000Y-91784869D01*
X134200002Y-91784869D01*
X134309658Y-91767501D01*
X134309659Y-91767500D01*
X134309661Y-91767500D01*
X134408587Y-91717095D01*
X134487095Y-91638587D01*
X134537500Y-91539661D01*
X134537500Y-91539659D01*
X134537501Y-91539658D01*
X134554869Y-91430002D01*
X134554869Y-91429997D01*
X134535974Y-91310700D01*
X134537950Y-91310387D01*
X134536311Y-91252975D01*
X134572393Y-91193143D01*
X134635094Y-91162316D01*
X134656237Y-91160500D01*
X135406295Y-91160500D01*
X135473334Y-91180185D01*
X135519089Y-91232989D01*
X135529033Y-91302147D01*
X135528768Y-91303898D01*
X135515131Y-91389997D01*
X135515131Y-91390002D01*
X135532498Y-91499658D01*
X135582904Y-91598585D01*
X135582909Y-91598592D01*
X135661407Y-91677090D01*
X135661410Y-91677092D01*
X135661413Y-91677095D01*
X135755264Y-91724914D01*
X135760341Y-91727501D01*
X135869998Y-91744869D01*
X135870000Y-91744869D01*
X135870002Y-91744869D01*
X135979658Y-91727501D01*
X135979659Y-91727500D01*
X135979661Y-91727500D01*
X136078587Y-91677095D01*
X136157095Y-91598587D01*
X136207500Y-91499661D01*
X136207500Y-91499659D01*
X136207501Y-91499658D01*
X136224869Y-91390002D01*
X136224869Y-91389997D01*
X136211232Y-91303898D01*
X136220187Y-91234605D01*
X136265183Y-91181153D01*
X136331934Y-91160513D01*
X136333705Y-91160500D01*
X137101046Y-91160500D01*
X137168085Y-91180185D01*
X137213840Y-91232989D01*
X137223784Y-91302147D01*
X137223519Y-91303897D01*
X137205131Y-91419996D01*
X137205131Y-91420002D01*
X137222498Y-91529658D01*
X137272904Y-91628585D01*
X137272909Y-91628592D01*
X137351407Y-91707090D01*
X137351410Y-91707092D01*
X137351413Y-91707095D01*
X137425549Y-91744869D01*
X137450341Y-91757501D01*
X137559998Y-91774869D01*
X137560000Y-91774869D01*
X137560002Y-91774869D01*
X137669658Y-91757501D01*
X137669659Y-91757500D01*
X137669661Y-91757500D01*
X137768587Y-91707095D01*
X137847095Y-91628587D01*
X137897500Y-91529661D01*
X137897500Y-91529659D01*
X137897501Y-91529658D01*
X137914869Y-91420002D01*
X137914869Y-91419996D01*
X137896481Y-91303897D01*
X137905436Y-91234604D01*
X137950432Y-91181152D01*
X138017184Y-91160513D01*
X138018954Y-91160500D01*
X138976879Y-91160500D01*
X139043918Y-91180185D01*
X139089673Y-91232989D01*
X139099617Y-91302147D01*
X139087364Y-91340792D01*
X139084582Y-91346252D01*
X139082498Y-91350342D01*
X139065131Y-91459997D01*
X139065131Y-91460002D01*
X139082498Y-91569658D01*
X139132904Y-91668585D01*
X139132909Y-91668592D01*
X139211407Y-91747090D01*
X139211410Y-91747092D01*
X139211413Y-91747095D01*
X139285549Y-91784869D01*
X139310341Y-91797501D01*
X139419998Y-91814869D01*
X139420000Y-91814869D01*
X139420002Y-91814869D01*
X139529658Y-91797501D01*
X139529659Y-91797500D01*
X139529661Y-91797500D01*
X139628587Y-91747095D01*
X139707095Y-91668587D01*
X139757500Y-91569661D01*
X139757500Y-91569659D01*
X139757501Y-91569658D01*
X139774869Y-91460002D01*
X139774869Y-91459997D01*
X139757501Y-91350342D01*
X139757500Y-91350340D01*
X139757500Y-91350339D01*
X139752636Y-91340794D01*
X139739740Y-91272127D01*
X139766016Y-91207386D01*
X139823121Y-91167129D01*
X139863121Y-91160500D01*
X141522164Y-91160500D01*
X141589203Y-91180185D01*
X141634958Y-91232989D01*
X141644902Y-91302147D01*
X141632649Y-91340794D01*
X141612498Y-91380341D01*
X141595131Y-91489997D01*
X141595131Y-91490002D01*
X141612498Y-91599658D01*
X141662904Y-91698585D01*
X141662909Y-91698592D01*
X141741407Y-91777090D01*
X141741410Y-91777092D01*
X141741413Y-91777095D01*
X141801087Y-91807500D01*
X141840341Y-91827501D01*
X141949998Y-91844869D01*
X141950000Y-91844869D01*
X141950002Y-91844869D01*
X142059658Y-91827501D01*
X142059659Y-91827500D01*
X142059661Y-91827500D01*
X142158587Y-91777095D01*
X142237095Y-91698587D01*
X142287500Y-91599661D01*
X142287500Y-91599659D01*
X142287501Y-91599658D01*
X142304869Y-91490002D01*
X142304869Y-91489997D01*
X142287501Y-91380341D01*
X142267351Y-91340794D01*
X142254455Y-91272125D01*
X142280732Y-91207384D01*
X142337839Y-91167128D01*
X142377836Y-91160500D01*
X144314455Y-91160500D01*
X144381494Y-91180185D01*
X144427249Y-91232989D01*
X144437193Y-91302147D01*
X144408168Y-91365703D01*
X144402136Y-91372181D01*
X144392909Y-91381407D01*
X144392904Y-91381414D01*
X144342498Y-91480341D01*
X144325131Y-91589997D01*
X144325131Y-91590002D01*
X144342498Y-91699658D01*
X144392904Y-91798585D01*
X144392909Y-91798592D01*
X144471407Y-91877090D01*
X144471410Y-91877092D01*
X144471413Y-91877095D01*
X144535993Y-91910000D01*
X144570341Y-91927501D01*
X144679998Y-91944869D01*
X144680000Y-91944869D01*
X144680002Y-91944869D01*
X144789658Y-91927501D01*
X144789659Y-91927500D01*
X144789661Y-91927500D01*
X144888587Y-91877095D01*
X144967095Y-91798587D01*
X145017500Y-91699661D01*
X145017500Y-91699659D01*
X145017501Y-91699658D01*
X145034869Y-91590002D01*
X145034869Y-91589997D01*
X145017501Y-91480341D01*
X145012232Y-91470000D01*
X144967095Y-91381413D01*
X144967092Y-91381410D01*
X144967090Y-91381407D01*
X144957864Y-91372181D01*
X144924379Y-91310858D01*
X144929363Y-91241166D01*
X144971235Y-91185233D01*
X145036699Y-91160816D01*
X145045545Y-91160500D01*
X146816000Y-91160500D01*
X146883039Y-91180185D01*
X146928794Y-91232989D01*
X146940000Y-91284500D01*
X146940000Y-91326224D01*
X146926486Y-91382515D01*
X146924377Y-91386653D01*
X146922498Y-91390342D01*
X146905131Y-91499997D01*
X146905131Y-91500002D01*
X146922498Y-91609657D01*
X146922499Y-91609660D01*
X146922500Y-91609661D01*
X146926483Y-91617479D01*
X146940000Y-91673775D01*
X146940000Y-93751780D01*
X146920315Y-93818819D01*
X146872296Y-93862264D01*
X146851411Y-93872905D01*
X146772909Y-93951407D01*
X146772904Y-93951414D01*
X146722498Y-94050341D01*
X146705131Y-94159997D01*
X146705131Y-94160002D01*
X146722498Y-94269658D01*
X146772904Y-94368585D01*
X146772909Y-94368592D01*
X146851407Y-94447090D01*
X146851410Y-94447092D01*
X146851413Y-94447095D01*
X146872294Y-94457734D01*
X146923090Y-94505708D01*
X146940000Y-94568219D01*
X146940000Y-95575500D01*
X146920315Y-95642539D01*
X146867511Y-95688294D01*
X146816000Y-95699500D01*
X146445929Y-95699500D01*
X146320261Y-95724497D01*
X146320255Y-95724499D01*
X146201875Y-95773533D01*
X146201866Y-95773538D01*
X146095331Y-95844723D01*
X146095327Y-95844726D01*
X146004726Y-95935327D01*
X146004723Y-95935331D01*
X145933538Y-96041866D01*
X145933535Y-96041872D01*
X145882252Y-96165679D01*
X145838410Y-96220082D01*
X145772116Y-96242146D01*
X145748294Y-96240698D01*
X145650004Y-96225131D01*
X145649998Y-96225131D01*
X145534866Y-96243366D01*
X145465572Y-96234411D01*
X145412120Y-96189415D01*
X145391481Y-96122664D01*
X145404983Y-96064599D01*
X145407500Y-96059661D01*
X145407501Y-96059655D01*
X145424869Y-95950002D01*
X145424869Y-95949997D01*
X145407501Y-95840341D01*
X145373461Y-95773533D01*
X145357095Y-95741413D01*
X145357092Y-95741410D01*
X145357090Y-95741407D01*
X145278592Y-95662909D01*
X145278588Y-95662906D01*
X145278587Y-95662905D01*
X145253189Y-95649964D01*
X145179658Y-95612498D01*
X145070002Y-95595131D01*
X145069998Y-95595131D01*
X144960341Y-95612498D01*
X144861414Y-95662904D01*
X144861407Y-95662909D01*
X144782909Y-95741407D01*
X144782904Y-95741414D01*
X144732498Y-95840341D01*
X144715131Y-95949997D01*
X144715131Y-95950002D01*
X144732498Y-96059658D01*
X144782904Y-96158585D01*
X144782909Y-96158592D01*
X144861407Y-96237090D01*
X144861410Y-96237092D01*
X144861413Y-96237095D01*
X144946285Y-96280339D01*
X144960341Y-96287501D01*
X145069998Y-96304869D01*
X145070000Y-96304869D01*
X145070001Y-96304869D01*
X145099557Y-96300187D01*
X145179661Y-96287500D01*
X145179662Y-96287499D01*
X145185132Y-96286633D01*
X145254426Y-96295587D01*
X145307878Y-96340583D01*
X145328518Y-96407334D01*
X145315019Y-96465395D01*
X145312498Y-96470341D01*
X145295131Y-96579997D01*
X145295131Y-96580002D01*
X145312498Y-96689658D01*
X145362904Y-96788585D01*
X145362909Y-96788592D01*
X145441407Y-96867090D01*
X145441410Y-96867092D01*
X145441413Y-96867095D01*
X145540339Y-96917500D01*
X145540341Y-96917501D01*
X145649998Y-96934869D01*
X145650000Y-96934869D01*
X145650002Y-96934869D01*
X145759658Y-96917501D01*
X145759659Y-96917500D01*
X145759661Y-96917500D01*
X145858587Y-96867095D01*
X145895186Y-96830496D01*
X145956509Y-96797010D01*
X146026200Y-96801994D01*
X146070549Y-96830495D01*
X146095327Y-96855273D01*
X146095331Y-96855276D01*
X146201866Y-96926461D01*
X146201875Y-96926466D01*
X146213804Y-96931407D01*
X146320256Y-96975501D01*
X146320260Y-96975501D01*
X146320261Y-96975502D01*
X146445928Y-97000500D01*
X146445931Y-97000500D01*
X146816000Y-97000500D01*
X146883039Y-97020185D01*
X146928794Y-97072989D01*
X146940000Y-97124500D01*
X146940000Y-99677615D01*
X146933931Y-99715932D01*
X146932499Y-99720337D01*
X146915131Y-99829997D01*
X146915131Y-99830002D01*
X146932498Y-99939656D01*
X146933930Y-99944062D01*
X146940000Y-99982384D01*
X146940000Y-101186971D01*
X146926485Y-101243265D01*
X146902498Y-101290341D01*
X146885131Y-101399997D01*
X146885131Y-101400002D01*
X146902498Y-101509658D01*
X146902499Y-101509661D01*
X146926485Y-101556735D01*
X146940000Y-101613029D01*
X146940000Y-101860063D01*
X146920315Y-101927102D01*
X146903681Y-101947744D01*
X144979522Y-103871902D01*
X144979520Y-103871905D01*
X144926791Y-103963232D01*
X144912252Y-104017498D01*
X144899500Y-104065089D01*
X144899500Y-104326878D01*
X144879815Y-104393917D01*
X144827011Y-104439672D01*
X144757853Y-104449616D01*
X144719209Y-104437365D01*
X144709657Y-104432498D01*
X144600002Y-104415131D01*
X144599998Y-104415131D01*
X144490341Y-104432498D01*
X144391414Y-104482904D01*
X144391407Y-104482909D01*
X144312909Y-104561407D01*
X144312904Y-104561414D01*
X144262498Y-104660341D01*
X144245131Y-104769997D01*
X144245131Y-104770002D01*
X144262498Y-104879658D01*
X144303030Y-104959206D01*
X144315926Y-105027875D01*
X144289649Y-105092615D01*
X144232543Y-105132872D01*
X144192545Y-105139500D01*
X143327836Y-105139500D01*
X143260797Y-105119815D01*
X143215042Y-105067011D01*
X143205098Y-104997853D01*
X143217351Y-104959206D01*
X143234846Y-104924869D01*
X143237500Y-104919661D01*
X143237500Y-104919659D01*
X143237501Y-104919658D01*
X143254869Y-104810002D01*
X143254869Y-104809997D01*
X143237501Y-104700341D01*
X143234713Y-104694869D01*
X143187095Y-104601413D01*
X143187092Y-104601410D01*
X143187090Y-104601407D01*
X143108592Y-104522909D01*
X143108588Y-104522906D01*
X143108587Y-104522905D01*
X143075409Y-104506000D01*
X143009658Y-104472498D01*
X142900002Y-104455131D01*
X142899998Y-104455131D01*
X142790341Y-104472498D01*
X142691414Y-104522904D01*
X142691407Y-104522909D01*
X142612909Y-104601407D01*
X142612904Y-104601414D01*
X142562498Y-104700341D01*
X142545131Y-104809997D01*
X142545131Y-104810002D01*
X142562498Y-104919658D01*
X142582649Y-104959206D01*
X142595545Y-105027875D01*
X142569268Y-105092616D01*
X142512161Y-105132872D01*
X142472164Y-105139500D01*
X142345137Y-105139500D01*
X142278098Y-105119815D01*
X142232343Y-105067011D01*
X142222399Y-104997853D01*
X142234652Y-104959206D01*
X142249926Y-104929229D01*
X142277751Y-104874619D01*
X142277751Y-104874617D01*
X142277752Y-104874616D01*
X142295120Y-104764960D01*
X142295120Y-104764955D01*
X142277752Y-104655299D01*
X142277751Y-104655297D01*
X142227346Y-104556371D01*
X142227343Y-104556368D01*
X142227341Y-104556365D01*
X142148843Y-104477867D01*
X142148839Y-104477864D01*
X142148838Y-104477863D01*
X142144994Y-104475904D01*
X142049909Y-104427456D01*
X141940253Y-104410089D01*
X141940249Y-104410089D01*
X141830592Y-104427456D01*
X141731665Y-104477862D01*
X141731658Y-104477867D01*
X141653160Y-104556365D01*
X141653155Y-104556372D01*
X141602749Y-104655299D01*
X141585382Y-104764955D01*
X141585382Y-104764960D01*
X141602749Y-104874616D01*
X141645850Y-104959206D01*
X141658746Y-105027875D01*
X141632469Y-105092615D01*
X141575363Y-105132872D01*
X141535365Y-105139500D01*
X138620339Y-105139500D01*
X138620323Y-105139499D01*
X138612727Y-105139499D01*
X138507274Y-105139499D01*
X138405413Y-105166793D01*
X138405411Y-105166793D01*
X138405411Y-105166794D01*
X138314084Y-105219522D01*
X137389522Y-106144084D01*
X137389520Y-106144087D01*
X137336793Y-106235410D01*
X137329588Y-106262300D01*
X137325986Y-106275744D01*
X137325986Y-106275745D01*
X137325985Y-106275744D01*
X137309500Y-106337269D01*
X137309500Y-106623127D01*
X137289815Y-106690166D01*
X137237011Y-106735921D01*
X137167853Y-106745865D01*
X137166102Y-106745600D01*
X137100002Y-106735131D01*
X137099998Y-106735131D01*
X136990341Y-106752498D01*
X136891414Y-106802904D01*
X136891407Y-106802909D01*
X136812909Y-106881407D01*
X136812904Y-106881414D01*
X136762498Y-106980341D01*
X136745131Y-107089997D01*
X136745131Y-107090002D01*
X136762498Y-107199658D01*
X136812904Y-107298585D01*
X136812909Y-107298592D01*
X136891407Y-107377090D01*
X136891410Y-107377092D01*
X136891413Y-107377095D01*
X136990339Y-107427500D01*
X136990341Y-107427501D01*
X137099998Y-107444869D01*
X137100000Y-107444869D01*
X137166102Y-107434399D01*
X137235394Y-107443353D01*
X137288847Y-107488349D01*
X137309487Y-107555100D01*
X137309500Y-107556872D01*
X137309500Y-108132745D01*
X137289815Y-108199784D01*
X137273181Y-108220426D01*
X136791073Y-108702533D01*
X136729750Y-108736018D01*
X136660058Y-108731034D01*
X136604125Y-108689162D01*
X136586485Y-108652849D01*
X136586316Y-108652920D01*
X136585135Y-108650070D01*
X136583617Y-108646944D01*
X136583207Y-108645414D01*
X136583205Y-108645410D01*
X136570211Y-108622904D01*
X136530480Y-108554087D01*
X136455913Y-108479520D01*
X136383782Y-108437875D01*
X136364589Y-108426794D01*
X136364588Y-108426793D01*
X136364587Y-108426793D01*
X136262727Y-108399500D01*
X135847273Y-108399500D01*
X135745413Y-108426793D01*
X135745410Y-108426794D01*
X135723125Y-108439661D01*
X135648255Y-108482887D01*
X135586255Y-108499500D01*
X135466372Y-108499500D01*
X135434280Y-108495275D01*
X135412727Y-108489500D01*
X135307273Y-108489500D01*
X135205412Y-108516793D01*
X135205409Y-108516794D01*
X135177536Y-108532887D01*
X135115536Y-108549500D01*
X134037836Y-108549500D01*
X133970797Y-108529815D01*
X133925042Y-108477011D01*
X133915098Y-108407853D01*
X133927351Y-108369206D01*
X133947327Y-108330000D01*
X133947500Y-108329661D01*
X133947500Y-108329659D01*
X133947501Y-108329658D01*
X133964869Y-108220002D01*
X133964869Y-108219997D01*
X133947501Y-108110341D01*
X133947500Y-108110339D01*
X133897095Y-108011413D01*
X133897092Y-108011410D01*
X133897090Y-108011407D01*
X133818592Y-107932909D01*
X133818588Y-107932906D01*
X133818587Y-107932905D01*
X133767767Y-107907011D01*
X133719658Y-107882498D01*
X133610002Y-107865131D01*
X133609998Y-107865131D01*
X133500341Y-107882498D01*
X133401414Y-107932904D01*
X133401407Y-107932909D01*
X133322909Y-108011407D01*
X133322904Y-108011414D01*
X133272498Y-108110341D01*
X133255131Y-108219997D01*
X133255131Y-108220002D01*
X133272498Y-108329658D01*
X133292649Y-108369206D01*
X133305545Y-108437875D01*
X133279268Y-108502616D01*
X133222161Y-108542872D01*
X133182164Y-108549500D01*
X132895782Y-108549500D01*
X132828743Y-108529815D01*
X132808101Y-108513181D01*
X132354443Y-108059522D01*
X132354442Y-108059521D01*
X132354441Y-108059520D01*
X132289142Y-108021819D01*
X132263117Y-108006793D01*
X132208384Y-107992128D01*
X132161255Y-107979500D01*
X132161254Y-107979500D01*
X131221336Y-107979500D01*
X131154297Y-107959815D01*
X131108542Y-107907011D01*
X131098598Y-107837853D01*
X131101559Y-107823415D01*
X131120500Y-107752727D01*
X131120500Y-107647273D01*
X131093207Y-107545413D01*
X131040480Y-107454087D01*
X130965913Y-107379520D01*
X130874587Y-107326793D01*
X130772727Y-107299500D01*
X130772726Y-107299500D01*
X130417255Y-107299500D01*
X130350216Y-107279815D01*
X130329574Y-107263181D01*
X130316390Y-107249997D01*
X133375131Y-107249997D01*
X133375131Y-107250002D01*
X133392498Y-107359658D01*
X133442904Y-107458585D01*
X133442909Y-107458592D01*
X133521407Y-107537090D01*
X133521410Y-107537092D01*
X133521413Y-107537095D01*
X133560228Y-107556872D01*
X133620341Y-107587501D01*
X133729998Y-107604869D01*
X133730000Y-107604869D01*
X133730002Y-107604869D01*
X133839658Y-107587501D01*
X133839659Y-107587500D01*
X133839661Y-107587500D01*
X133938587Y-107537095D01*
X134017095Y-107458587D01*
X134067500Y-107359661D01*
X134067500Y-107359659D01*
X134067501Y-107359658D01*
X134084869Y-107250002D01*
X134084869Y-107249997D01*
X134067501Y-107140341D01*
X134041851Y-107090000D01*
X134017095Y-107041413D01*
X134017092Y-107041410D01*
X134017090Y-107041407D01*
X133972233Y-106996550D01*
X133938748Y-106935227D01*
X133943732Y-106865535D01*
X133985604Y-106809602D01*
X134051068Y-106785185D01*
X134059914Y-106784869D01*
X134060002Y-106784869D01*
X134169658Y-106767501D01*
X134169659Y-106767500D01*
X134169661Y-106767500D01*
X134268587Y-106717095D01*
X134347095Y-106638587D01*
X134397500Y-106539661D01*
X134397500Y-106539659D01*
X134397501Y-106539658D01*
X134414869Y-106430002D01*
X134414869Y-106429997D01*
X134397501Y-106320341D01*
X134363140Y-106252904D01*
X134347095Y-106221413D01*
X134347092Y-106221410D01*
X134347090Y-106221407D01*
X134268592Y-106142909D01*
X134268588Y-106142906D01*
X134268587Y-106142905D01*
X134264743Y-106140946D01*
X134169658Y-106092498D01*
X134060002Y-106075131D01*
X134059998Y-106075131D01*
X133950341Y-106092498D01*
X133851414Y-106142904D01*
X133851407Y-106142909D01*
X133772909Y-106221407D01*
X133772904Y-106221414D01*
X133722498Y-106320341D01*
X133705131Y-106429997D01*
X133705131Y-106430002D01*
X133722498Y-106539658D01*
X133772904Y-106638585D01*
X133772909Y-106638592D01*
X133817767Y-106683450D01*
X133851252Y-106744773D01*
X133846268Y-106814465D01*
X133804396Y-106870398D01*
X133738932Y-106894815D01*
X133730086Y-106895131D01*
X133729998Y-106895131D01*
X133620341Y-106912498D01*
X133521414Y-106962904D01*
X133521407Y-106962909D01*
X133442909Y-107041407D01*
X133442904Y-107041414D01*
X133392498Y-107140341D01*
X133375131Y-107249997D01*
X130316390Y-107249997D01*
X129605915Y-106539522D01*
X129605913Y-106539520D01*
X129560250Y-106513156D01*
X129514589Y-106486793D01*
X129463657Y-106473146D01*
X129412727Y-106459500D01*
X129412726Y-106459500D01*
X125850862Y-106459500D01*
X125783823Y-106439815D01*
X125763181Y-106423181D01*
X124499997Y-105159997D01*
X125935131Y-105159997D01*
X125935131Y-105160002D01*
X125952498Y-105269658D01*
X126002904Y-105368585D01*
X126002909Y-105368592D01*
X126081407Y-105447090D01*
X126081410Y-105447092D01*
X126081413Y-105447095D01*
X126160713Y-105487500D01*
X126180341Y-105497501D01*
X126289998Y-105514869D01*
X126290000Y-105514869D01*
X126290002Y-105514869D01*
X126399658Y-105497501D01*
X126399659Y-105497500D01*
X126399661Y-105497500D01*
X126498587Y-105447095D01*
X126577095Y-105368587D01*
X126592507Y-105338338D01*
X126640477Y-105287545D01*
X126708298Y-105270749D01*
X126774434Y-105293285D01*
X126817886Y-105347999D01*
X126825463Y-105375237D01*
X126832498Y-105419658D01*
X126882904Y-105518585D01*
X126882909Y-105518592D01*
X126961407Y-105597090D01*
X126961410Y-105597092D01*
X126961413Y-105597095D01*
X127060339Y-105647500D01*
X127060341Y-105647501D01*
X127169998Y-105664869D01*
X127170000Y-105664869D01*
X127170002Y-105664869D01*
X127279658Y-105647501D01*
X127279659Y-105647500D01*
X127279661Y-105647500D01*
X127378587Y-105597095D01*
X127457095Y-105518587D01*
X127507500Y-105419661D01*
X127507500Y-105419659D01*
X127507501Y-105419658D01*
X127519499Y-105343906D01*
X127549428Y-105280771D01*
X127608740Y-105243840D01*
X127661369Y-105240831D01*
X127712803Y-105248977D01*
X127749999Y-105254869D01*
X127750000Y-105254869D01*
X127750002Y-105254869D01*
X127859658Y-105237501D01*
X127859659Y-105237500D01*
X127859661Y-105237500D01*
X127958587Y-105187095D01*
X127995685Y-105149997D01*
X130255131Y-105149997D01*
X130255131Y-105150002D01*
X130272498Y-105259658D01*
X130322904Y-105358585D01*
X130322909Y-105358592D01*
X130401407Y-105437090D01*
X130401410Y-105437092D01*
X130401413Y-105437095D01*
X130500339Y-105487500D01*
X130500341Y-105487501D01*
X130609998Y-105504869D01*
X130610000Y-105504869D01*
X130610002Y-105504869D01*
X130719658Y-105487501D01*
X130719659Y-105487500D01*
X130719661Y-105487500D01*
X130818587Y-105437095D01*
X130897095Y-105358587D01*
X130947500Y-105259661D01*
X130947500Y-105259659D01*
X130947501Y-105259658D01*
X130964869Y-105150002D01*
X130964869Y-105149997D01*
X130949030Y-105049997D01*
X131535131Y-105049997D01*
X131535131Y-105050002D01*
X131552498Y-105159658D01*
X131602904Y-105258585D01*
X131602909Y-105258592D01*
X131681407Y-105337090D01*
X131681410Y-105337092D01*
X131681413Y-105337095D01*
X131780339Y-105387500D01*
X131780341Y-105387501D01*
X131889998Y-105404869D01*
X131890000Y-105404869D01*
X131890002Y-105404869D01*
X131999658Y-105387501D01*
X131999659Y-105387500D01*
X131999661Y-105387500D01*
X132098587Y-105337095D01*
X132177095Y-105258587D01*
X132227500Y-105159661D01*
X132227500Y-105159659D01*
X132227501Y-105159658D01*
X132244869Y-105050002D01*
X132244869Y-105049997D01*
X132227501Y-104940341D01*
X132216964Y-104919661D01*
X132196754Y-104879997D01*
X132625131Y-104879997D01*
X132625131Y-104880002D01*
X132642498Y-104989658D01*
X132692904Y-105088585D01*
X132692909Y-105088592D01*
X132771407Y-105167090D01*
X132771410Y-105167092D01*
X132771413Y-105167095D01*
X132870339Y-105217500D01*
X132870341Y-105217501D01*
X132979998Y-105234869D01*
X132980000Y-105234869D01*
X132980002Y-105234869D01*
X133089658Y-105217501D01*
X133089659Y-105217500D01*
X133089661Y-105217500D01*
X133188587Y-105167095D01*
X133267095Y-105088587D01*
X133267098Y-105088579D01*
X133268356Y-105086850D01*
X133270441Y-105085241D01*
X133273996Y-105081687D01*
X133274455Y-105082146D01*
X133323682Y-105044179D01*
X133393295Y-105038194D01*
X133455093Y-105070794D01*
X133456362Y-105072045D01*
X133461407Y-105077090D01*
X133461410Y-105077092D01*
X133461413Y-105077095D01*
X133521087Y-105107500D01*
X133560341Y-105127501D01*
X133669998Y-105144869D01*
X133670000Y-105144869D01*
X133670002Y-105144869D01*
X133779658Y-105127501D01*
X133779659Y-105127500D01*
X133779661Y-105127500D01*
X133878587Y-105077095D01*
X133957095Y-104998587D01*
X134007500Y-104899661D01*
X134007500Y-104899659D01*
X134007501Y-104899658D01*
X134024869Y-104790002D01*
X134024869Y-104789997D01*
X134007501Y-104680341D01*
X134006053Y-104677500D01*
X133957095Y-104581413D01*
X133957092Y-104581410D01*
X133957090Y-104581407D01*
X133878592Y-104502909D01*
X133878588Y-104502906D01*
X133878587Y-104502905D01*
X133874743Y-104500946D01*
X133779658Y-104452498D01*
X133670002Y-104435131D01*
X133669998Y-104435131D01*
X133560341Y-104452498D01*
X133461414Y-104502904D01*
X133461407Y-104502909D01*
X133382904Y-104581412D01*
X133381634Y-104583161D01*
X133379546Y-104584770D01*
X133376004Y-104588313D01*
X133375546Y-104587855D01*
X133326303Y-104625825D01*
X133256689Y-104631803D01*
X133194895Y-104599195D01*
X133193637Y-104597954D01*
X133188592Y-104592909D01*
X133188588Y-104592906D01*
X133188587Y-104592905D01*
X133143637Y-104570002D01*
X133089658Y-104542498D01*
X132980002Y-104525131D01*
X132979998Y-104525131D01*
X132870341Y-104542498D01*
X132771414Y-104592904D01*
X132771407Y-104592909D01*
X132692909Y-104671407D01*
X132692904Y-104671414D01*
X132642498Y-104770341D01*
X132625131Y-104879997D01*
X132196754Y-104879997D01*
X132177095Y-104841413D01*
X132177092Y-104841410D01*
X132177090Y-104841407D01*
X132098592Y-104762909D01*
X132098588Y-104762906D01*
X132098587Y-104762905D01*
X132094743Y-104760946D01*
X131999658Y-104712498D01*
X131890002Y-104695131D01*
X131889998Y-104695131D01*
X131780341Y-104712498D01*
X131681414Y-104762904D01*
X131681407Y-104762909D01*
X131602909Y-104841407D01*
X131602904Y-104841414D01*
X131552498Y-104940341D01*
X131535131Y-105049997D01*
X130949030Y-105049997D01*
X130947501Y-105040341D01*
X130913467Y-104973545D01*
X130897095Y-104941413D01*
X130897092Y-104941410D01*
X130897090Y-104941407D01*
X130818592Y-104862909D01*
X130818588Y-104862906D01*
X130818587Y-104862905D01*
X130807174Y-104857090D01*
X130719658Y-104812498D01*
X130610002Y-104795131D01*
X130609998Y-104795131D01*
X130500341Y-104812498D01*
X130401414Y-104862904D01*
X130401407Y-104862909D01*
X130322909Y-104941407D01*
X130322904Y-104941414D01*
X130272498Y-105040341D01*
X130255131Y-105149997D01*
X127995685Y-105149997D01*
X128037095Y-105108587D01*
X128087500Y-105009661D01*
X128087501Y-105009657D01*
X128090518Y-105000375D01*
X128093269Y-105001269D01*
X128116517Y-104952206D01*
X128175822Y-104915264D01*
X128189669Y-104912250D01*
X128219661Y-104907500D01*
X128318587Y-104857095D01*
X128397095Y-104778587D01*
X128447500Y-104679661D01*
X128447500Y-104679659D01*
X128447501Y-104679658D01*
X128464869Y-104570002D01*
X128464869Y-104569997D01*
X128447501Y-104460341D01*
X128430745Y-104427456D01*
X128397095Y-104361413D01*
X128397092Y-104361410D01*
X128397090Y-104361407D01*
X128318592Y-104282909D01*
X128318588Y-104282906D01*
X128318587Y-104282905D01*
X128243937Y-104244869D01*
X128219658Y-104232498D01*
X128110002Y-104215131D01*
X128109998Y-104215131D01*
X128000341Y-104232498D01*
X127901414Y-104282904D01*
X127901407Y-104282909D01*
X127822909Y-104361407D01*
X127822906Y-104361412D01*
X127822905Y-104361413D01*
X127789255Y-104427456D01*
X127772499Y-104460341D01*
X127769485Y-104469618D01*
X127766738Y-104468725D01*
X127743463Y-104517816D01*
X127684149Y-104554743D01*
X127670323Y-104557750D01*
X127640341Y-104562498D01*
X127541414Y-104612904D01*
X127541407Y-104612909D01*
X127462909Y-104691407D01*
X127462904Y-104691414D01*
X127412498Y-104790341D01*
X127400500Y-104866094D01*
X127370570Y-104929229D01*
X127311258Y-104966159D01*
X127258629Y-104969168D01*
X127170002Y-104955131D01*
X127169998Y-104955131D01*
X127060341Y-104972498D01*
X126961414Y-105022904D01*
X126961407Y-105022909D01*
X126882909Y-105101407D01*
X126882904Y-105101414D01*
X126867493Y-105131660D01*
X126819518Y-105182456D01*
X126751697Y-105199250D01*
X126685562Y-105176712D01*
X126642112Y-105121996D01*
X126634537Y-105094768D01*
X126627500Y-105050339D01*
X126577095Y-104951413D01*
X126577092Y-104951410D01*
X126577090Y-104951407D01*
X126498592Y-104872909D01*
X126498588Y-104872906D01*
X126498587Y-104872905D01*
X126467548Y-104857090D01*
X126399658Y-104822498D01*
X126290002Y-104805131D01*
X126289998Y-104805131D01*
X126180341Y-104822498D01*
X126081414Y-104872904D01*
X126081407Y-104872909D01*
X126002909Y-104951407D01*
X126002904Y-104951414D01*
X125952498Y-105050341D01*
X125935131Y-105159997D01*
X124499997Y-105159997D01*
X124064864Y-104724864D01*
X124031379Y-104663541D01*
X124030074Y-104656597D01*
X124027500Y-104640339D01*
X123977095Y-104541413D01*
X123977092Y-104541410D01*
X123977090Y-104541407D01*
X123898592Y-104462909D01*
X123898588Y-104462906D01*
X123898587Y-104462905D01*
X123872506Y-104449616D01*
X123799658Y-104412498D01*
X123690002Y-104395131D01*
X123689998Y-104395131D01*
X123580341Y-104412498D01*
X123481414Y-104462904D01*
X123481407Y-104462909D01*
X123402909Y-104541407D01*
X123402904Y-104541414D01*
X123392266Y-104562294D01*
X123344292Y-104613090D01*
X123281781Y-104630000D01*
X120793776Y-104630000D01*
X120737484Y-104616486D01*
X120729661Y-104612500D01*
X120729660Y-104612499D01*
X120729657Y-104612498D01*
X120620002Y-104595131D01*
X120619998Y-104595131D01*
X120510342Y-104612498D01*
X120506653Y-104614377D01*
X120502515Y-104616486D01*
X120446224Y-104630000D01*
X119504500Y-104630000D01*
X119437461Y-104610315D01*
X119391706Y-104557511D01*
X119380500Y-104506000D01*
X119380500Y-104339997D01*
X124465131Y-104339997D01*
X124465131Y-104340002D01*
X124482498Y-104449658D01*
X124532904Y-104548585D01*
X124532909Y-104548592D01*
X124611407Y-104627090D01*
X124611410Y-104627092D01*
X124611413Y-104627095D01*
X124710339Y-104677500D01*
X124710341Y-104677501D01*
X124819998Y-104694869D01*
X124820000Y-104694869D01*
X124820002Y-104694869D01*
X124929658Y-104677501D01*
X124929659Y-104677500D01*
X124929661Y-104677500D01*
X125028587Y-104627095D01*
X125107095Y-104548587D01*
X125157500Y-104449661D01*
X125157500Y-104449659D01*
X125157501Y-104449658D01*
X125174869Y-104340002D01*
X125174869Y-104339997D01*
X125157501Y-104230341D01*
X125146030Y-104207827D01*
X125107095Y-104131413D01*
X125107092Y-104131410D01*
X125107090Y-104131407D01*
X125028592Y-104052909D01*
X125028588Y-104052906D01*
X125028587Y-104052905D01*
X124993189Y-104034869D01*
X124929658Y-104002498D01*
X124820002Y-103985131D01*
X124819998Y-103985131D01*
X124710341Y-104002498D01*
X124611414Y-104052904D01*
X124611407Y-104052909D01*
X124532909Y-104131407D01*
X124532904Y-104131414D01*
X124482498Y-104230341D01*
X124465131Y-104339997D01*
X119380500Y-104339997D01*
X119380500Y-103752121D01*
X119400185Y-103685082D01*
X119452989Y-103639327D01*
X119522147Y-103629383D01*
X119523898Y-103629648D01*
X119619998Y-103644869D01*
X119620000Y-103644869D01*
X119620002Y-103644869D01*
X119729658Y-103627501D01*
X119729659Y-103627500D01*
X119729661Y-103627500D01*
X119828587Y-103577095D01*
X119907095Y-103498587D01*
X119957500Y-103399661D01*
X119957500Y-103399659D01*
X119957501Y-103399658D01*
X119970118Y-103319997D01*
X122565131Y-103319997D01*
X122565131Y-103320002D01*
X122582498Y-103429658D01*
X122632904Y-103528585D01*
X122632909Y-103528592D01*
X122711407Y-103607090D01*
X122711410Y-103607092D01*
X122711413Y-103607095D01*
X122784572Y-103644371D01*
X122810341Y-103657501D01*
X122919998Y-103674869D01*
X122920000Y-103674869D01*
X122920002Y-103674869D01*
X123029658Y-103657501D01*
X123029659Y-103657500D01*
X123029661Y-103657500D01*
X123128587Y-103607095D01*
X123207095Y-103528587D01*
X123257500Y-103429661D01*
X123257500Y-103429659D01*
X123257501Y-103429658D01*
X123274869Y-103320002D01*
X123274869Y-103319997D01*
X123257501Y-103210341D01*
X123246158Y-103188079D01*
X123207095Y-103111413D01*
X123207092Y-103111410D01*
X123207090Y-103111407D01*
X123128592Y-103032909D01*
X123128588Y-103032906D01*
X123128587Y-103032905D01*
X123100482Y-103018585D01*
X123029658Y-102982498D01*
X122920002Y-102965131D01*
X122919998Y-102965131D01*
X122810341Y-102982498D01*
X122711414Y-103032904D01*
X122711407Y-103032909D01*
X122632909Y-103111407D01*
X122632904Y-103111414D01*
X122582498Y-103210341D01*
X122565131Y-103319997D01*
X119970118Y-103319997D01*
X119974869Y-103290002D01*
X119974869Y-103289997D01*
X119957501Y-103180341D01*
X119922381Y-103111414D01*
X119907095Y-103081413D01*
X119907092Y-103081410D01*
X119907090Y-103081407D01*
X119828592Y-103002909D01*
X119828588Y-103002906D01*
X119828587Y-103002905D01*
X119782638Y-102979493D01*
X119729658Y-102952498D01*
X119620002Y-102935131D01*
X119619996Y-102935131D01*
X119523897Y-102950351D01*
X119454604Y-102941396D01*
X119401152Y-102896400D01*
X119380513Y-102829648D01*
X119380500Y-102827878D01*
X119380500Y-102589997D01*
X123625131Y-102589997D01*
X123625131Y-102590002D01*
X123642498Y-102699658D01*
X123692904Y-102798585D01*
X123692909Y-102798592D01*
X123771407Y-102877090D01*
X123771410Y-102877092D01*
X123771413Y-102877095D01*
X123818306Y-102900988D01*
X123870341Y-102927501D01*
X123979998Y-102944869D01*
X123980000Y-102944869D01*
X123980002Y-102944869D01*
X124089658Y-102927501D01*
X124089659Y-102927500D01*
X124089661Y-102927500D01*
X124188587Y-102877095D01*
X124225685Y-102839997D01*
X125735131Y-102839997D01*
X125735131Y-102840002D01*
X125752498Y-102949658D01*
X125802904Y-103048585D01*
X125802909Y-103048592D01*
X125881407Y-103127090D01*
X125881410Y-103127092D01*
X125881413Y-103127095D01*
X125955549Y-103164869D01*
X125980341Y-103177501D01*
X126089998Y-103194869D01*
X126090000Y-103194869D01*
X126090002Y-103194869D01*
X126132891Y-103188076D01*
X131835133Y-103188076D01*
X131835133Y-103188081D01*
X131852500Y-103297737D01*
X131902906Y-103396664D01*
X131902911Y-103396671D01*
X131981409Y-103475169D01*
X131981412Y-103475171D01*
X131981415Y-103475174D01*
X132080341Y-103525579D01*
X132080343Y-103525580D01*
X132190000Y-103542948D01*
X132190002Y-103542948D01*
X132190004Y-103542948D01*
X132299660Y-103525580D01*
X132299661Y-103525579D01*
X132299663Y-103525579D01*
X132330245Y-103509997D01*
X135545133Y-103509997D01*
X135545133Y-103510002D01*
X135562500Y-103619658D01*
X135612906Y-103718585D01*
X135612911Y-103718592D01*
X135691409Y-103797090D01*
X135691412Y-103797092D01*
X135691415Y-103797095D01*
X135784424Y-103844485D01*
X135790343Y-103847501D01*
X135900000Y-103864869D01*
X135900002Y-103864869D01*
X135900004Y-103864869D01*
X136009660Y-103847501D01*
X136009661Y-103847500D01*
X136009663Y-103847500D01*
X136010309Y-103847171D01*
X136011179Y-103847007D01*
X136018942Y-103844485D01*
X136019267Y-103845487D01*
X136078977Y-103834271D01*
X136143719Y-103860545D01*
X136154289Y-103869972D01*
X136211407Y-103927090D01*
X136211410Y-103927092D01*
X136211413Y-103927095D01*
X136289908Y-103967090D01*
X136310341Y-103977501D01*
X136419998Y-103994869D01*
X136420000Y-103994869D01*
X136420002Y-103994869D01*
X136529657Y-103977501D01*
X136529658Y-103977500D01*
X136529661Y-103977500D01*
X136623060Y-103929911D01*
X136691724Y-103917015D01*
X136756465Y-103943291D01*
X136767032Y-103952715D01*
X136781407Y-103967090D01*
X136781410Y-103967092D01*
X136781413Y-103967095D01*
X136845322Y-103999658D01*
X136880341Y-104017501D01*
X136989998Y-104034869D01*
X136990000Y-104034869D01*
X136990002Y-104034869D01*
X137099656Y-104017501D01*
X137099656Y-104017500D01*
X137099661Y-104017500D01*
X137186898Y-103973050D01*
X137255566Y-103960155D01*
X137316073Y-103983216D01*
X137321409Y-103987093D01*
X137420341Y-104037501D01*
X137529998Y-104054869D01*
X137530000Y-104054869D01*
X137530002Y-104054869D01*
X137639658Y-104037501D01*
X137639659Y-104037500D01*
X137639661Y-104037500D01*
X137738587Y-103987095D01*
X137738590Y-103987091D01*
X137742116Y-103984531D01*
X137747129Y-103982742D01*
X137747283Y-103982664D01*
X137747293Y-103982683D01*
X137807923Y-103961052D01*
X137875977Y-103976879D01*
X137887884Y-103984531D01*
X137891411Y-103987093D01*
X137891413Y-103987095D01*
X137951083Y-104017498D01*
X137990341Y-104037501D01*
X138099998Y-104054869D01*
X138100000Y-104054869D01*
X138100002Y-104054869D01*
X138209658Y-104037501D01*
X138209659Y-104037500D01*
X138209661Y-104037500D01*
X138284757Y-103999237D01*
X140605131Y-103999237D01*
X140605131Y-103999242D01*
X140622498Y-104108898D01*
X140672904Y-104207825D01*
X140672909Y-104207832D01*
X140751407Y-104286330D01*
X140751410Y-104286332D01*
X140751413Y-104286335D01*
X140830984Y-104326878D01*
X140850341Y-104336741D01*
X140959998Y-104354109D01*
X140960000Y-104354109D01*
X140960002Y-104354109D01*
X141069658Y-104336741D01*
X141069659Y-104336740D01*
X141069661Y-104336740D01*
X141168587Y-104286335D01*
X141247095Y-104207827D01*
X141297500Y-104108901D01*
X141297500Y-104108899D01*
X141297501Y-104108898D01*
X141314869Y-103999242D01*
X141314869Y-103999237D01*
X141297567Y-103889997D01*
X143305131Y-103889997D01*
X143305131Y-103890002D01*
X143322498Y-103999658D01*
X143372904Y-104098585D01*
X143372909Y-104098592D01*
X143451407Y-104177090D01*
X143451410Y-104177092D01*
X143451413Y-104177095D01*
X143550339Y-104227500D01*
X143550341Y-104227501D01*
X143659998Y-104244869D01*
X143660000Y-104244869D01*
X143660002Y-104244869D01*
X143769658Y-104227501D01*
X143769659Y-104227500D01*
X143769661Y-104227500D01*
X143868587Y-104177095D01*
X143947095Y-104098587D01*
X143997500Y-103999661D01*
X143997500Y-103999659D01*
X143997501Y-103999658D01*
X144014869Y-103890002D01*
X144014869Y-103889997D01*
X143997501Y-103780341D01*
X143983122Y-103752121D01*
X143947095Y-103681413D01*
X143947092Y-103681410D01*
X143947090Y-103681407D01*
X143868592Y-103602909D01*
X143868588Y-103602906D01*
X143868587Y-103602905D01*
X143817922Y-103577090D01*
X143769658Y-103552498D01*
X143660002Y-103535131D01*
X143659998Y-103535131D01*
X143550341Y-103552498D01*
X143451414Y-103602904D01*
X143451407Y-103602909D01*
X143372909Y-103681407D01*
X143372904Y-103681414D01*
X143322498Y-103780341D01*
X143305131Y-103889997D01*
X141297567Y-103889997D01*
X141297501Y-103889581D01*
X141284907Y-103864864D01*
X141247095Y-103790653D01*
X141247092Y-103790650D01*
X141247090Y-103790647D01*
X141168592Y-103712149D01*
X141168588Y-103712146D01*
X141168587Y-103712145D01*
X141108260Y-103681407D01*
X141069658Y-103661738D01*
X140960002Y-103644371D01*
X140959998Y-103644371D01*
X140850341Y-103661738D01*
X140751414Y-103712144D01*
X140751407Y-103712149D01*
X140672909Y-103790647D01*
X140672904Y-103790654D01*
X140622498Y-103889581D01*
X140605131Y-103999237D01*
X138284757Y-103999237D01*
X138308587Y-103987095D01*
X138387095Y-103908587D01*
X138437500Y-103809661D01*
X138437500Y-103809659D01*
X138437501Y-103809658D01*
X138454869Y-103700002D01*
X138454869Y-103699997D01*
X138437501Y-103590341D01*
X138409370Y-103535131D01*
X138387095Y-103491413D01*
X138387092Y-103491410D01*
X138387090Y-103491407D01*
X138308592Y-103412909D01*
X138308588Y-103412906D01*
X138308587Y-103412905D01*
X138263806Y-103390088D01*
X138209658Y-103362498D01*
X138100002Y-103345131D01*
X138099998Y-103345131D01*
X137990341Y-103362498D01*
X137891412Y-103412905D01*
X137887878Y-103415473D01*
X137882861Y-103417262D01*
X137882717Y-103417336D01*
X137882707Y-103417317D01*
X137822070Y-103438947D01*
X137754017Y-103423117D01*
X137742122Y-103415473D01*
X137738587Y-103412905D01*
X137639658Y-103362498D01*
X137530002Y-103345131D01*
X137529998Y-103345131D01*
X137420342Y-103362498D01*
X137333101Y-103406949D01*
X137264432Y-103419844D01*
X137203927Y-103396784D01*
X137198589Y-103392906D01*
X137099658Y-103342498D01*
X136990002Y-103325131D01*
X136989998Y-103325131D01*
X136880342Y-103342498D01*
X136786940Y-103390088D01*
X136718271Y-103402983D01*
X136653531Y-103376705D01*
X136642966Y-103367283D01*
X136628592Y-103352909D01*
X136628588Y-103352906D01*
X136628587Y-103352905D01*
X136608162Y-103342498D01*
X136529658Y-103302498D01*
X136420002Y-103285131D01*
X136419998Y-103285131D01*
X136310340Y-103302499D01*
X136310339Y-103302499D01*
X136309683Y-103302834D01*
X136308799Y-103302999D01*
X136301063Y-103305514D01*
X136300737Y-103304513D01*
X136241013Y-103315727D01*
X136176274Y-103289448D01*
X136165720Y-103280036D01*
X136108589Y-103222905D01*
X136040233Y-103188076D01*
X136009660Y-103172498D01*
X135900004Y-103155131D01*
X135900000Y-103155131D01*
X135790343Y-103172498D01*
X135691416Y-103222904D01*
X135691409Y-103222909D01*
X135612911Y-103301407D01*
X135612906Y-103301414D01*
X135562500Y-103400341D01*
X135545133Y-103509997D01*
X132330245Y-103509997D01*
X132398589Y-103475174D01*
X132477097Y-103396666D01*
X132527502Y-103297740D01*
X132527502Y-103297738D01*
X132527503Y-103297737D01*
X132544871Y-103188081D01*
X132544871Y-103188076D01*
X132527503Y-103078420D01*
X132504312Y-103032905D01*
X132477097Y-102979492D01*
X132477094Y-102979489D01*
X132477092Y-102979486D01*
X132398594Y-102900988D01*
X132398590Y-102900985D01*
X132398589Y-102900984D01*
X132351704Y-102877095D01*
X132299660Y-102850577D01*
X132190004Y-102833210D01*
X132190000Y-102833210D01*
X132080343Y-102850577D01*
X131981416Y-102900983D01*
X131981409Y-102900988D01*
X131902911Y-102979486D01*
X131902906Y-102979493D01*
X131852500Y-103078420D01*
X131835133Y-103188076D01*
X126132891Y-103188076D01*
X126199658Y-103177501D01*
X126199659Y-103177500D01*
X126199661Y-103177500D01*
X126298587Y-103127095D01*
X126377095Y-103048587D01*
X126427500Y-102949661D01*
X126427500Y-102949659D01*
X126427501Y-102949658D01*
X126444869Y-102840002D01*
X126444869Y-102839997D01*
X126427501Y-102730341D01*
X126411867Y-102699658D01*
X126377095Y-102631413D01*
X126377092Y-102631410D01*
X126377090Y-102631407D01*
X126298592Y-102552909D01*
X126298588Y-102552906D01*
X126298587Y-102552905D01*
X126272088Y-102539403D01*
X126199658Y-102502498D01*
X126090002Y-102485131D01*
X126089998Y-102485131D01*
X125980341Y-102502498D01*
X125881414Y-102552904D01*
X125881407Y-102552909D01*
X125802909Y-102631407D01*
X125802904Y-102631414D01*
X125752498Y-102730341D01*
X125735131Y-102839997D01*
X124225685Y-102839997D01*
X124267095Y-102798587D01*
X124317500Y-102699661D01*
X124317500Y-102699659D01*
X124317501Y-102699658D01*
X124334869Y-102590002D01*
X124334869Y-102589997D01*
X124317501Y-102480341D01*
X124303521Y-102452904D01*
X124267095Y-102381413D01*
X124267092Y-102381410D01*
X124267090Y-102381407D01*
X124188592Y-102302909D01*
X124188588Y-102302906D01*
X124188587Y-102302905D01*
X124113937Y-102264869D01*
X124089658Y-102252498D01*
X123980002Y-102235131D01*
X123979998Y-102235131D01*
X123870341Y-102252498D01*
X123771414Y-102302904D01*
X123771407Y-102302909D01*
X123692909Y-102381407D01*
X123692904Y-102381414D01*
X123642498Y-102480341D01*
X123625131Y-102589997D01*
X119380500Y-102589997D01*
X119380500Y-102280537D01*
X119398277Y-102219997D01*
X127425131Y-102219997D01*
X127425131Y-102220002D01*
X127442498Y-102329658D01*
X127492904Y-102428585D01*
X127492909Y-102428592D01*
X127571407Y-102507090D01*
X127571410Y-102507092D01*
X127571413Y-102507095D01*
X127661319Y-102552904D01*
X127670341Y-102557501D01*
X127779998Y-102574869D01*
X127780000Y-102574869D01*
X127780002Y-102574869D01*
X127889658Y-102557501D01*
X127889659Y-102557500D01*
X127889661Y-102557500D01*
X127988587Y-102507095D01*
X128067095Y-102428587D01*
X128117500Y-102329661D01*
X128117500Y-102329659D01*
X128117501Y-102329658D01*
X128134869Y-102220002D01*
X128134869Y-102219997D01*
X128117501Y-102110341D01*
X128091851Y-102060000D01*
X128091849Y-102059997D01*
X132775131Y-102059997D01*
X132775131Y-102060002D01*
X132792498Y-102169658D01*
X132842904Y-102268585D01*
X132842909Y-102268592D01*
X132921407Y-102347090D01*
X132921409Y-102347091D01*
X132921413Y-102347095D01*
X132941781Y-102357472D01*
X132992576Y-102405447D01*
X133009371Y-102473268D01*
X132986833Y-102539403D01*
X132973167Y-102555637D01*
X132927397Y-102601407D01*
X132927392Y-102601414D01*
X132876986Y-102700341D01*
X132859619Y-102809997D01*
X132859619Y-102810002D01*
X132876986Y-102919658D01*
X132927392Y-103018585D01*
X132927397Y-103018592D01*
X133005895Y-103097090D01*
X133005898Y-103097092D01*
X133005901Y-103097095D01*
X133064770Y-103127090D01*
X133104829Y-103147501D01*
X133214486Y-103164869D01*
X133214488Y-103164869D01*
X133214490Y-103164869D01*
X133324146Y-103147501D01*
X133324147Y-103147500D01*
X133324149Y-103147500D01*
X133423075Y-103097095D01*
X133501583Y-103018587D01*
X133551988Y-102919661D01*
X133551988Y-102919659D01*
X133551989Y-102919658D01*
X133564606Y-102839997D01*
X141985131Y-102839997D01*
X141985131Y-102840002D01*
X142002498Y-102949658D01*
X142052904Y-103048585D01*
X142052909Y-103048592D01*
X142131407Y-103127090D01*
X142131410Y-103127092D01*
X142131413Y-103127095D01*
X142205549Y-103164869D01*
X142230341Y-103177501D01*
X142339998Y-103194869D01*
X142340000Y-103194869D01*
X142340002Y-103194869D01*
X142449658Y-103177501D01*
X142449659Y-103177500D01*
X142449661Y-103177500D01*
X142548587Y-103127095D01*
X142627095Y-103048587D01*
X142677500Y-102949661D01*
X142677500Y-102949659D01*
X142677501Y-102949658D01*
X142694869Y-102840002D01*
X142694869Y-102839997D01*
X142679030Y-102739997D01*
X143085131Y-102739997D01*
X143085131Y-102740002D01*
X143102498Y-102849658D01*
X143152904Y-102948585D01*
X143152909Y-102948592D01*
X143231407Y-103027090D01*
X143231410Y-103027092D01*
X143231413Y-103027095D01*
X143273590Y-103048585D01*
X143330341Y-103077501D01*
X143439998Y-103094869D01*
X143440000Y-103094869D01*
X143440002Y-103094869D01*
X143549658Y-103077501D01*
X143549659Y-103077500D01*
X143549661Y-103077500D01*
X143648587Y-103027095D01*
X143727095Y-102948587D01*
X143777500Y-102849661D01*
X143777500Y-102849659D01*
X143777501Y-102849658D01*
X143794869Y-102740002D01*
X143794869Y-102739997D01*
X143777501Y-102630341D01*
X143762762Y-102601414D01*
X143727095Y-102531413D01*
X143727092Y-102531410D01*
X143727090Y-102531407D01*
X143648592Y-102452909D01*
X143648588Y-102452906D01*
X143648587Y-102452905D01*
X143573937Y-102414869D01*
X143549658Y-102402498D01*
X143440002Y-102385131D01*
X143439998Y-102385131D01*
X143330341Y-102402498D01*
X143231414Y-102452904D01*
X143231407Y-102452909D01*
X143152909Y-102531407D01*
X143152904Y-102531414D01*
X143102498Y-102630341D01*
X143085131Y-102739997D01*
X142679030Y-102739997D01*
X142677501Y-102730341D01*
X142661867Y-102699658D01*
X142627095Y-102631413D01*
X142627092Y-102631410D01*
X142627090Y-102631407D01*
X142548592Y-102552909D01*
X142548588Y-102552906D01*
X142548587Y-102552905D01*
X142522088Y-102539403D01*
X142449658Y-102502498D01*
X142340002Y-102485131D01*
X142339998Y-102485131D01*
X142230341Y-102502498D01*
X142131414Y-102552904D01*
X142131407Y-102552909D01*
X142052909Y-102631407D01*
X142052904Y-102631414D01*
X142002498Y-102730341D01*
X141985131Y-102839997D01*
X133564606Y-102839997D01*
X133569357Y-102810002D01*
X133569357Y-102809997D01*
X133551989Y-102700341D01*
X133516869Y-102631414D01*
X133501583Y-102601413D01*
X133501580Y-102601410D01*
X133501578Y-102601407D01*
X133423080Y-102522909D01*
X133423075Y-102522905D01*
X133402705Y-102512526D01*
X133351910Y-102464551D01*
X133335116Y-102396729D01*
X133357655Y-102330595D01*
X133371322Y-102314360D01*
X133417091Y-102268591D01*
X133417095Y-102268587D01*
X133467500Y-102169661D01*
X133467500Y-102169659D01*
X133467501Y-102169658D01*
X133484869Y-102060002D01*
X133484869Y-102059997D01*
X133467501Y-101950341D01*
X133456964Y-101929661D01*
X133441850Y-101899997D01*
X135795131Y-101899997D01*
X135795131Y-101900002D01*
X135812498Y-102009658D01*
X135862904Y-102108585D01*
X135862909Y-102108592D01*
X135941407Y-102187090D01*
X135941410Y-102187092D01*
X135941413Y-102187095D01*
X136005993Y-102220000D01*
X136040341Y-102237501D01*
X136149998Y-102254869D01*
X136150000Y-102254869D01*
X136150002Y-102254869D01*
X136259658Y-102237501D01*
X136259659Y-102237500D01*
X136259661Y-102237500D01*
X136358587Y-102187095D01*
X136437095Y-102108587D01*
X136487500Y-102009661D01*
X136487500Y-102009659D01*
X136487501Y-102009658D01*
X136504869Y-101900002D01*
X136504869Y-101899997D01*
X136487501Y-101790341D01*
X136465673Y-101747501D01*
X136437095Y-101691413D01*
X136437092Y-101691410D01*
X136437090Y-101691407D01*
X136358592Y-101612909D01*
X136358588Y-101612906D01*
X136358587Y-101612905D01*
X136308727Y-101587500D01*
X136259658Y-101562498D01*
X136150002Y-101545131D01*
X136149998Y-101545131D01*
X136040341Y-101562498D01*
X135941414Y-101612904D01*
X135941407Y-101612909D01*
X135862909Y-101691407D01*
X135862904Y-101691414D01*
X135812498Y-101790341D01*
X135795131Y-101899997D01*
X133441850Y-101899997D01*
X133417095Y-101851413D01*
X133417092Y-101851410D01*
X133417090Y-101851407D01*
X133338592Y-101772909D01*
X133338588Y-101772906D01*
X133338587Y-101772905D01*
X133307548Y-101757090D01*
X133239658Y-101722498D01*
X133130002Y-101705131D01*
X133129998Y-101705131D01*
X133020341Y-101722498D01*
X132921414Y-101772904D01*
X132921407Y-101772909D01*
X132842909Y-101851407D01*
X132842904Y-101851414D01*
X132792498Y-101950341D01*
X132775131Y-102059997D01*
X128091849Y-102059997D01*
X128067095Y-102011413D01*
X128067092Y-102011410D01*
X128067090Y-102011407D01*
X127988592Y-101932909D01*
X127988588Y-101932906D01*
X127988587Y-101932905D01*
X127963263Y-101920002D01*
X127889658Y-101882498D01*
X127780002Y-101865131D01*
X127779998Y-101865131D01*
X127670341Y-101882498D01*
X127571414Y-101932904D01*
X127571407Y-101932909D01*
X127492909Y-102011407D01*
X127492904Y-102011414D01*
X127442498Y-102110341D01*
X127425131Y-102219997D01*
X119398277Y-102219997D01*
X119400185Y-102213498D01*
X119452989Y-102167743D01*
X119522147Y-102157799D01*
X119523898Y-102158064D01*
X119629998Y-102174869D01*
X119630000Y-102174869D01*
X119630002Y-102174869D01*
X119739658Y-102157501D01*
X119739659Y-102157500D01*
X119739661Y-102157500D01*
X119838587Y-102107095D01*
X119917095Y-102028587D01*
X119967500Y-101929661D01*
X119967500Y-101929659D01*
X119967501Y-101929658D01*
X119984869Y-101820002D01*
X119984869Y-101819997D01*
X119967501Y-101710341D01*
X119964846Y-101705131D01*
X119917095Y-101611413D01*
X119917092Y-101611410D01*
X119917090Y-101611407D01*
X119838592Y-101532909D01*
X119838588Y-101532906D01*
X119838587Y-101532905D01*
X119792962Y-101509658D01*
X119739658Y-101482498D01*
X119660726Y-101469997D01*
X124735131Y-101469997D01*
X124735131Y-101470002D01*
X124752498Y-101579658D01*
X124802904Y-101678585D01*
X124802909Y-101678592D01*
X124881407Y-101757090D01*
X124881410Y-101757092D01*
X124881413Y-101757095D01*
X124966285Y-101800339D01*
X124980341Y-101807501D01*
X125089998Y-101824869D01*
X125090000Y-101824869D01*
X125090002Y-101824869D01*
X125199658Y-101807501D01*
X125199659Y-101807500D01*
X125199661Y-101807500D01*
X125298587Y-101757095D01*
X125377095Y-101678587D01*
X125427500Y-101579661D01*
X125427500Y-101579659D01*
X125427501Y-101579658D01*
X125444869Y-101470002D01*
X125444869Y-101469997D01*
X125427501Y-101360341D01*
X125419618Y-101344869D01*
X125377095Y-101261413D01*
X125377092Y-101261410D01*
X125377090Y-101261407D01*
X125355680Y-101239997D01*
X126905131Y-101239997D01*
X126905131Y-101240002D01*
X126922498Y-101349658D01*
X126972904Y-101448585D01*
X126972909Y-101448592D01*
X127051407Y-101527090D01*
X127051410Y-101527092D01*
X127051413Y-101527095D01*
X127137535Y-101570976D01*
X127150341Y-101577501D01*
X127259998Y-101594869D01*
X127260000Y-101594869D01*
X127260002Y-101594869D01*
X127369658Y-101577501D01*
X127369659Y-101577500D01*
X127369661Y-101577500D01*
X127468587Y-101527095D01*
X127547095Y-101448587D01*
X127566757Y-101409997D01*
X128895131Y-101409997D01*
X128895131Y-101410002D01*
X128912498Y-101519658D01*
X128962904Y-101618585D01*
X128962909Y-101618592D01*
X129041407Y-101697090D01*
X129041410Y-101697092D01*
X129041413Y-101697095D01*
X129115549Y-101734869D01*
X129140341Y-101747501D01*
X129249998Y-101764869D01*
X129250000Y-101764869D01*
X129250002Y-101764869D01*
X129359658Y-101747501D01*
X129359659Y-101747500D01*
X129359661Y-101747500D01*
X129458587Y-101697095D01*
X129537095Y-101618587D01*
X129587500Y-101519661D01*
X129587500Y-101519659D01*
X129587501Y-101519658D01*
X129604869Y-101410002D01*
X129604869Y-101409997D01*
X129600117Y-101379997D01*
X130465131Y-101379997D01*
X130465131Y-101380002D01*
X130482498Y-101489658D01*
X130532904Y-101588585D01*
X130532909Y-101588592D01*
X130611407Y-101667090D01*
X130611410Y-101667092D01*
X130611413Y-101667095D01*
X130710339Y-101717500D01*
X130710341Y-101717501D01*
X130819998Y-101734869D01*
X130820000Y-101734869D01*
X130820002Y-101734869D01*
X130929658Y-101717501D01*
X130929659Y-101717500D01*
X130929661Y-101717500D01*
X131028587Y-101667095D01*
X131107095Y-101588587D01*
X131157500Y-101489661D01*
X131157500Y-101489659D01*
X131157501Y-101489658D01*
X131174869Y-101380002D01*
X131174869Y-101379997D01*
X131157501Y-101270341D01*
X131154713Y-101264869D01*
X131107095Y-101171413D01*
X131107092Y-101171410D01*
X131107090Y-101171407D01*
X131028592Y-101092909D01*
X131028588Y-101092906D01*
X131028587Y-101092905D01*
X130962294Y-101059127D01*
X130929658Y-101042498D01*
X130820002Y-101025131D01*
X130819998Y-101025131D01*
X130710341Y-101042498D01*
X130611414Y-101092904D01*
X130611407Y-101092909D01*
X130532909Y-101171407D01*
X130532904Y-101171414D01*
X130482498Y-101270341D01*
X130465131Y-101379997D01*
X129600117Y-101379997D01*
X129587501Y-101300341D01*
X129561851Y-101250000D01*
X129537095Y-101201413D01*
X129537092Y-101201410D01*
X129537090Y-101201407D01*
X129458592Y-101122909D01*
X129458588Y-101122906D01*
X129458587Y-101122905D01*
X129450112Y-101118587D01*
X129359658Y-101072498D01*
X129250002Y-101055131D01*
X129249998Y-101055131D01*
X129140341Y-101072498D01*
X129041414Y-101122904D01*
X129041407Y-101122909D01*
X128962909Y-101201407D01*
X128962904Y-101201414D01*
X128912498Y-101300341D01*
X128895131Y-101409997D01*
X127566757Y-101409997D01*
X127597500Y-101349661D01*
X127597500Y-101349659D01*
X127597501Y-101349658D01*
X127614869Y-101240002D01*
X127614869Y-101239997D01*
X127597501Y-101130341D01*
X127586964Y-101109661D01*
X127547095Y-101031413D01*
X127547092Y-101031410D01*
X127547090Y-101031407D01*
X127515680Y-100999997D01*
X131485131Y-100999997D01*
X131485131Y-101000002D01*
X131502498Y-101109658D01*
X131552904Y-101208585D01*
X131552909Y-101208592D01*
X131631407Y-101287090D01*
X131631410Y-101287092D01*
X131631413Y-101287095D01*
X131666297Y-101304869D01*
X131730341Y-101337501D01*
X131839998Y-101354869D01*
X131840000Y-101354869D01*
X131840002Y-101354869D01*
X131949658Y-101337501D01*
X131949659Y-101337500D01*
X131949661Y-101337500D01*
X132048587Y-101287095D01*
X132127095Y-101208587D01*
X132177500Y-101109661D01*
X132177500Y-101109659D01*
X132177501Y-101109658D01*
X132194869Y-101000002D01*
X132194869Y-100999997D01*
X132180614Y-100909997D01*
X135875131Y-100909997D01*
X135875131Y-100910002D01*
X135892498Y-101019658D01*
X135942904Y-101118585D01*
X135942909Y-101118592D01*
X136021407Y-101197090D01*
X136021410Y-101197092D01*
X136021413Y-101197095D01*
X136105623Y-101240002D01*
X136120341Y-101247501D01*
X136229998Y-101264869D01*
X136230000Y-101264869D01*
X136230002Y-101264869D01*
X136339658Y-101247501D01*
X136339659Y-101247500D01*
X136339661Y-101247500D01*
X136354387Y-101239997D01*
X137095131Y-101239997D01*
X137095131Y-101240002D01*
X137112498Y-101349658D01*
X137162904Y-101448585D01*
X137162909Y-101448592D01*
X137241407Y-101527090D01*
X137241410Y-101527092D01*
X137241413Y-101527095D01*
X137340339Y-101577500D01*
X137340340Y-101577500D01*
X137340342Y-101577501D01*
X137340341Y-101577501D01*
X137413091Y-101589023D01*
X137476226Y-101618952D01*
X137513158Y-101678263D01*
X137512160Y-101748125D01*
X137504180Y-101767789D01*
X137482498Y-101810342D01*
X137465131Y-101919997D01*
X137465131Y-101920002D01*
X137482498Y-102029658D01*
X137532904Y-102128585D01*
X137532909Y-102128592D01*
X137611407Y-102207090D01*
X137611410Y-102207092D01*
X137611413Y-102207095D01*
X137671087Y-102237500D01*
X137710341Y-102257501D01*
X137819998Y-102274869D01*
X137820000Y-102274869D01*
X137820002Y-102274869D01*
X137929658Y-102257501D01*
X137929659Y-102257500D01*
X137929661Y-102257500D01*
X138028587Y-102207095D01*
X138107095Y-102128587D01*
X138157500Y-102029661D01*
X138157500Y-102029659D01*
X138157501Y-102029658D01*
X138174869Y-101920002D01*
X138174869Y-101919997D01*
X140215131Y-101919997D01*
X140215131Y-101920002D01*
X140232498Y-102029658D01*
X140282904Y-102128585D01*
X140282909Y-102128592D01*
X140361407Y-102207090D01*
X140361410Y-102207092D01*
X140361413Y-102207095D01*
X140421087Y-102237500D01*
X140460341Y-102257501D01*
X140569998Y-102274869D01*
X140570000Y-102274869D01*
X140570002Y-102274869D01*
X140679658Y-102257501D01*
X140679659Y-102257500D01*
X140679661Y-102257500D01*
X140778587Y-102207095D01*
X140778592Y-102207089D01*
X140786486Y-102201356D01*
X140788359Y-102203934D01*
X140835097Y-102178400D01*
X140904790Y-102183368D01*
X140922586Y-102192919D01*
X140922717Y-102192664D01*
X140931412Y-102197094D01*
X140931413Y-102197095D01*
X140963606Y-102213498D01*
X141030341Y-102247501D01*
X141139998Y-102264869D01*
X141140000Y-102264869D01*
X141140002Y-102264869D01*
X141249658Y-102247501D01*
X141249659Y-102247500D01*
X141249661Y-102247500D01*
X141348587Y-102197095D01*
X141427095Y-102118587D01*
X141477500Y-102019661D01*
X141477500Y-102019659D01*
X141477501Y-102019658D01*
X141494869Y-101910002D01*
X141494869Y-101909997D01*
X141477501Y-101800341D01*
X141455466Y-101757095D01*
X141427095Y-101701413D01*
X141427092Y-101701410D01*
X141427090Y-101701407D01*
X141348592Y-101622909D01*
X141348588Y-101622906D01*
X141348587Y-101622905D01*
X141340112Y-101618587D01*
X141249658Y-101572498D01*
X141140002Y-101555131D01*
X141139998Y-101555131D01*
X141030341Y-101572498D01*
X140931414Y-101622904D01*
X140923514Y-101628644D01*
X140921644Y-101626070D01*
X140874844Y-101651611D01*
X140805154Y-101646611D01*
X140787411Y-101637083D01*
X140787283Y-101637336D01*
X140679658Y-101582498D01*
X140570002Y-101565131D01*
X140569998Y-101565131D01*
X140460341Y-101582498D01*
X140361414Y-101632904D01*
X140361407Y-101632909D01*
X140282909Y-101711407D01*
X140282904Y-101711414D01*
X140232498Y-101810341D01*
X140215131Y-101919997D01*
X138174869Y-101919997D01*
X138157501Y-101810341D01*
X138152405Y-101800339D01*
X138107095Y-101711413D01*
X138107092Y-101711410D01*
X138107090Y-101711407D01*
X138028592Y-101632909D01*
X138028588Y-101632906D01*
X138028587Y-101632905D01*
X138020224Y-101628644D01*
X137929658Y-101582498D01*
X137856907Y-101570976D01*
X137793772Y-101541047D01*
X137756841Y-101481735D01*
X137757839Y-101411872D01*
X137765821Y-101392208D01*
X137787500Y-101349661D01*
X137801477Y-101261414D01*
X137804869Y-101240002D01*
X137804869Y-101239997D01*
X137787501Y-101130341D01*
X137776964Y-101109661D01*
X137737095Y-101031413D01*
X137737092Y-101031410D01*
X137737090Y-101031407D01*
X137658592Y-100952909D01*
X137658588Y-100952906D01*
X137658587Y-100952905D01*
X137652880Y-100949997D01*
X140795131Y-100949997D01*
X140795131Y-100950002D01*
X140812498Y-101059658D01*
X140862904Y-101158585D01*
X140862909Y-101158592D01*
X140941407Y-101237090D01*
X140941410Y-101237092D01*
X140941413Y-101237095D01*
X141019908Y-101277090D01*
X141040341Y-101287501D01*
X141149998Y-101304869D01*
X141150000Y-101304869D01*
X141150002Y-101304869D01*
X141259658Y-101287501D01*
X141259659Y-101287500D01*
X141259661Y-101287500D01*
X141358587Y-101237095D01*
X141437095Y-101158587D01*
X141487500Y-101059661D01*
X141487500Y-101059659D01*
X141487501Y-101059658D01*
X141504869Y-100950002D01*
X141504869Y-100949997D01*
X141487501Y-100840341D01*
X141467119Y-100800339D01*
X141437095Y-100741413D01*
X141437092Y-100741410D01*
X141437090Y-100741407D01*
X141358592Y-100662909D01*
X141358588Y-100662906D01*
X141358587Y-100662905D01*
X141338162Y-100652498D01*
X141259658Y-100612498D01*
X141150002Y-100595131D01*
X141149998Y-100595131D01*
X141040341Y-100612498D01*
X140941414Y-100662904D01*
X140941407Y-100662909D01*
X140862909Y-100741407D01*
X140862904Y-100741414D01*
X140812498Y-100840341D01*
X140795131Y-100949997D01*
X137652880Y-100949997D01*
X137559658Y-100902498D01*
X137450002Y-100885131D01*
X137449998Y-100885131D01*
X137340341Y-100902498D01*
X137241414Y-100952904D01*
X137241407Y-100952909D01*
X137162909Y-101031407D01*
X137162904Y-101031414D01*
X137112498Y-101130341D01*
X137095131Y-101239997D01*
X136354387Y-101239997D01*
X136438587Y-101197095D01*
X136517095Y-101118587D01*
X136567500Y-101019661D01*
X136567500Y-101019659D01*
X136567501Y-101019658D01*
X136584869Y-100910002D01*
X136584869Y-100909997D01*
X136567501Y-100800341D01*
X136567500Y-100800339D01*
X136517095Y-100701413D01*
X136517092Y-100701410D01*
X136517090Y-100701407D01*
X136438592Y-100622909D01*
X136438588Y-100622906D01*
X136438587Y-100622905D01*
X136430112Y-100618587D01*
X136339658Y-100572498D01*
X136230002Y-100555131D01*
X136229998Y-100555131D01*
X136120341Y-100572498D01*
X136021414Y-100622904D01*
X136021407Y-100622909D01*
X135942909Y-100701407D01*
X135942904Y-100701414D01*
X135892498Y-100800341D01*
X135875131Y-100909997D01*
X132180614Y-100909997D01*
X132177501Y-100890341D01*
X132172405Y-100880339D01*
X132127095Y-100791413D01*
X132127092Y-100791410D01*
X132127090Y-100791407D01*
X132048592Y-100712909D01*
X132048588Y-100712906D01*
X132048587Y-100712905D01*
X132017548Y-100697090D01*
X131949658Y-100662498D01*
X131840002Y-100645131D01*
X131839998Y-100645131D01*
X131730341Y-100662498D01*
X131631414Y-100712904D01*
X131631407Y-100712909D01*
X131552909Y-100791407D01*
X131552904Y-100791414D01*
X131502498Y-100890341D01*
X131485131Y-100999997D01*
X127515680Y-100999997D01*
X127468592Y-100952909D01*
X127468588Y-100952906D01*
X127468587Y-100952905D01*
X127462880Y-100949997D01*
X127369658Y-100902498D01*
X127260002Y-100885131D01*
X127259998Y-100885131D01*
X127150341Y-100902498D01*
X127051414Y-100952904D01*
X127051407Y-100952909D01*
X126972909Y-101031407D01*
X126972904Y-101031414D01*
X126922498Y-101130341D01*
X126905131Y-101239997D01*
X125355680Y-101239997D01*
X125298592Y-101182909D01*
X125298588Y-101182906D01*
X125298587Y-101182905D01*
X125242246Y-101154198D01*
X125199658Y-101132498D01*
X125090002Y-101115131D01*
X125089998Y-101115131D01*
X124980341Y-101132498D01*
X124881414Y-101182904D01*
X124881407Y-101182909D01*
X124802909Y-101261407D01*
X124802904Y-101261414D01*
X124752498Y-101360341D01*
X124735131Y-101469997D01*
X119660726Y-101469997D01*
X119630002Y-101465131D01*
X119629997Y-101465131D01*
X119523897Y-101481935D01*
X119454604Y-101472980D01*
X119401152Y-101427984D01*
X119380513Y-101361232D01*
X119380500Y-101359462D01*
X119380500Y-100804997D01*
X123410131Y-100804997D01*
X123410131Y-100805002D01*
X123427498Y-100914658D01*
X123477904Y-101013585D01*
X123477909Y-101013592D01*
X123556407Y-101092090D01*
X123556410Y-101092092D01*
X123556413Y-101092095D01*
X123635709Y-101132498D01*
X123655341Y-101142501D01*
X123764998Y-101159869D01*
X123765000Y-101159869D01*
X123765002Y-101159869D01*
X123874658Y-101142501D01*
X123874659Y-101142500D01*
X123874661Y-101142500D01*
X123973587Y-101092095D01*
X124052095Y-101013587D01*
X124102500Y-100914661D01*
X124102500Y-100914659D01*
X124102501Y-100914658D01*
X124119869Y-100805002D01*
X124119869Y-100804997D01*
X124102501Y-100695341D01*
X124085974Y-100662905D01*
X124052095Y-100596413D01*
X124052092Y-100596410D01*
X124052090Y-100596407D01*
X123973592Y-100517909D01*
X123973588Y-100517906D01*
X123973587Y-100517905D01*
X123969743Y-100515946D01*
X123874658Y-100467498D01*
X123765002Y-100450131D01*
X123764998Y-100450131D01*
X123655341Y-100467498D01*
X123556414Y-100517904D01*
X123556407Y-100517909D01*
X123477909Y-100596407D01*
X123477904Y-100596414D01*
X123427498Y-100695341D01*
X123410131Y-100804997D01*
X119380500Y-100804997D01*
X119380500Y-100179997D01*
X127035131Y-100179997D01*
X127035131Y-100180002D01*
X127052498Y-100289658D01*
X127102904Y-100388585D01*
X127102909Y-100388592D01*
X127181407Y-100467090D01*
X127181410Y-100467092D01*
X127181413Y-100467095D01*
X127280339Y-100517500D01*
X127280341Y-100517501D01*
X127389998Y-100534869D01*
X127390000Y-100534869D01*
X127390002Y-100534869D01*
X127499658Y-100517501D01*
X127499659Y-100517500D01*
X127499661Y-100517500D01*
X127598587Y-100467095D01*
X127677095Y-100388587D01*
X127727500Y-100289661D01*
X127727500Y-100289659D01*
X127727501Y-100289658D01*
X127733783Y-100249997D01*
X130465131Y-100249997D01*
X130465131Y-100250002D01*
X130482498Y-100359658D01*
X130532904Y-100458585D01*
X130532909Y-100458592D01*
X130611407Y-100537090D01*
X130611410Y-100537092D01*
X130611413Y-100537095D01*
X130680896Y-100572498D01*
X130710341Y-100587501D01*
X130819998Y-100604869D01*
X130820000Y-100604869D01*
X130820002Y-100604869D01*
X130929658Y-100587501D01*
X130929659Y-100587500D01*
X130929661Y-100587500D01*
X131028587Y-100537095D01*
X131107095Y-100458587D01*
X131157500Y-100359661D01*
X131157500Y-100359659D01*
X131157501Y-100359658D01*
X131174869Y-100250002D01*
X131174869Y-100249997D01*
X131157501Y-100140341D01*
X131121833Y-100070339D01*
X131107095Y-100041413D01*
X131107092Y-100041410D01*
X131107090Y-100041407D01*
X131028592Y-99962909D01*
X131028588Y-99962906D01*
X131028587Y-99962905D01*
X131020112Y-99958587D01*
X130929658Y-99912498D01*
X130820002Y-99895131D01*
X130819998Y-99895131D01*
X130710341Y-99912498D01*
X130611414Y-99962904D01*
X130611407Y-99962909D01*
X130532909Y-100041407D01*
X130532904Y-100041414D01*
X130482498Y-100140341D01*
X130465131Y-100249997D01*
X127733783Y-100249997D01*
X127744869Y-100180002D01*
X127744869Y-100179997D01*
X127727501Y-100070341D01*
X127712762Y-100041414D01*
X127677095Y-99971413D01*
X127677092Y-99971410D01*
X127677090Y-99971407D01*
X127598592Y-99892909D01*
X127598588Y-99892906D01*
X127598587Y-99892905D01*
X127533336Y-99859658D01*
X127499658Y-99842498D01*
X127390002Y-99825131D01*
X127389998Y-99825131D01*
X127280341Y-99842498D01*
X127181414Y-99892904D01*
X127181407Y-99892909D01*
X127102909Y-99971407D01*
X127102904Y-99971414D01*
X127052498Y-100070341D01*
X127035131Y-100179997D01*
X119380500Y-100179997D01*
X119380500Y-99749997D01*
X131415131Y-99749997D01*
X131415131Y-99750002D01*
X131432498Y-99859658D01*
X131482904Y-99958585D01*
X131482909Y-99958592D01*
X131561407Y-100037090D01*
X131561410Y-100037092D01*
X131561413Y-100037095D01*
X131660339Y-100087500D01*
X131660341Y-100087501D01*
X131769998Y-100104869D01*
X131770000Y-100104869D01*
X131770002Y-100104869D01*
X131879658Y-100087501D01*
X131879659Y-100087500D01*
X131879661Y-100087500D01*
X131978587Y-100037095D01*
X132057095Y-99958587D01*
X132107500Y-99859661D01*
X132107500Y-99859659D01*
X132107501Y-99859658D01*
X132115367Y-99809997D01*
X142695131Y-99809997D01*
X142695131Y-99810002D01*
X142712498Y-99919658D01*
X142762904Y-100018585D01*
X142762909Y-100018592D01*
X142807283Y-100062966D01*
X142840768Y-100124289D01*
X142835784Y-100193981D01*
X142830088Y-100206940D01*
X142782498Y-100300342D01*
X142765131Y-100409997D01*
X142765131Y-100410002D01*
X142782498Y-100519658D01*
X142832904Y-100618585D01*
X142832909Y-100618592D01*
X142911407Y-100697090D01*
X142911410Y-100697092D01*
X142911413Y-100697095D01*
X142975416Y-100729705D01*
X143026211Y-100777679D01*
X143043007Y-100845500D01*
X143020470Y-100911635D01*
X142975417Y-100950674D01*
X142951414Y-100962904D01*
X142951407Y-100962909D01*
X142872909Y-101041407D01*
X142872904Y-101041414D01*
X142822498Y-101140341D01*
X142805131Y-101249997D01*
X142805131Y-101250002D01*
X142822498Y-101359658D01*
X142872904Y-101458585D01*
X142872909Y-101458592D01*
X142951407Y-101537090D01*
X142951410Y-101537092D01*
X142951413Y-101537095D01*
X143030713Y-101577500D01*
X143050341Y-101587501D01*
X143159998Y-101604869D01*
X143160000Y-101604869D01*
X143160002Y-101604869D01*
X143269658Y-101587501D01*
X143269659Y-101587500D01*
X143269661Y-101587500D01*
X143368587Y-101537095D01*
X143447095Y-101458587D01*
X143497500Y-101359661D01*
X143497500Y-101359659D01*
X143497501Y-101359658D01*
X143514869Y-101250002D01*
X143514869Y-101247911D01*
X143515588Y-101245462D01*
X143516396Y-101240361D01*
X143517055Y-101240465D01*
X143534554Y-101180872D01*
X143587358Y-101135117D01*
X143656516Y-101125173D01*
X143720072Y-101154198D01*
X143749354Y-101191617D01*
X143752904Y-101198586D01*
X143752909Y-101198592D01*
X143831407Y-101277090D01*
X143831410Y-101277092D01*
X143831413Y-101277095D01*
X143885923Y-101304869D01*
X143930341Y-101327501D01*
X144039998Y-101344869D01*
X144040000Y-101344869D01*
X144040002Y-101344869D01*
X144149658Y-101327501D01*
X144149659Y-101327500D01*
X144149661Y-101327500D01*
X144248587Y-101277095D01*
X144327095Y-101198587D01*
X144377500Y-101099661D01*
X144377500Y-101099659D01*
X144377501Y-101099658D01*
X144394869Y-100990002D01*
X144394869Y-100989997D01*
X144377501Y-100880341D01*
X144357119Y-100840339D01*
X144327095Y-100781413D01*
X144327092Y-100781410D01*
X144327090Y-100781407D01*
X144248592Y-100702909D01*
X144248588Y-100702906D01*
X144248587Y-100702905D01*
X144233738Y-100695339D01*
X144149658Y-100652498D01*
X144040002Y-100635131D01*
X144039998Y-100635131D01*
X143930341Y-100652498D01*
X143831414Y-100702904D01*
X143831407Y-100702909D01*
X143752909Y-100781407D01*
X143752904Y-100781414D01*
X143702498Y-100880341D01*
X143685131Y-100989997D01*
X143685131Y-100992088D01*
X143684412Y-100994535D01*
X143683604Y-100999639D01*
X143682944Y-100999534D01*
X143665446Y-101059127D01*
X143612642Y-101104882D01*
X143543484Y-101114826D01*
X143479928Y-101085801D01*
X143450647Y-101048384D01*
X143449968Y-101047053D01*
X143447095Y-101041413D01*
X143447092Y-101041410D01*
X143447090Y-101041407D01*
X143368592Y-100962909D01*
X143368588Y-100962906D01*
X143368587Y-100962905D01*
X143304581Y-100930292D01*
X143253787Y-100882319D01*
X143236992Y-100814498D01*
X143259529Y-100748364D01*
X143304583Y-100709325D01*
X143328587Y-100697095D01*
X143407095Y-100618587D01*
X143457500Y-100519661D01*
X143457500Y-100519659D01*
X143457501Y-100519658D01*
X143474869Y-100410002D01*
X143474869Y-100409997D01*
X143457501Y-100300341D01*
X143431851Y-100250000D01*
X143407095Y-100201413D01*
X143407092Y-100201410D01*
X143407090Y-100201407D01*
X143362715Y-100157032D01*
X143329230Y-100095709D01*
X143334214Y-100026017D01*
X143339901Y-100013078D01*
X143387500Y-99919661D01*
X143388635Y-99912500D01*
X143404869Y-99810002D01*
X143404869Y-99809997D01*
X143387501Y-99700341D01*
X143387500Y-99700339D01*
X143337095Y-99601413D01*
X143337092Y-99601410D01*
X143337090Y-99601407D01*
X143258592Y-99522909D01*
X143258588Y-99522906D01*
X143258587Y-99522905D01*
X143250112Y-99518587D01*
X143159658Y-99472498D01*
X143050002Y-99455131D01*
X143049998Y-99455131D01*
X142940341Y-99472498D01*
X142841414Y-99522904D01*
X142841407Y-99522909D01*
X142762909Y-99601407D01*
X142762904Y-99601414D01*
X142712498Y-99700341D01*
X142695131Y-99809997D01*
X132115367Y-99809997D01*
X132124869Y-99750002D01*
X132124869Y-99749997D01*
X132107501Y-99640341D01*
X132085466Y-99597095D01*
X132057095Y-99541413D01*
X132057092Y-99541410D01*
X132057090Y-99541407D01*
X131978592Y-99462909D01*
X131978588Y-99462906D01*
X131978587Y-99462905D01*
X131963330Y-99455131D01*
X131879658Y-99412498D01*
X131770002Y-99395131D01*
X131769998Y-99395131D01*
X131660341Y-99412498D01*
X131561414Y-99462904D01*
X131561407Y-99462909D01*
X131482909Y-99541407D01*
X131482904Y-99541414D01*
X131432498Y-99640341D01*
X131415131Y-99749997D01*
X119380500Y-99749997D01*
X119380500Y-99309997D01*
X138045131Y-99309997D01*
X138045131Y-99310002D01*
X138062498Y-99419658D01*
X138112904Y-99518585D01*
X138112909Y-99518592D01*
X138191407Y-99597090D01*
X138191410Y-99597092D01*
X138191413Y-99597095D01*
X138199890Y-99601414D01*
X138290341Y-99647501D01*
X138399998Y-99664869D01*
X138400000Y-99664869D01*
X138400002Y-99664869D01*
X138509658Y-99647501D01*
X138509659Y-99647500D01*
X138509661Y-99647500D01*
X138608587Y-99597095D01*
X138687095Y-99518587D01*
X138737500Y-99419661D01*
X138737500Y-99419659D01*
X138737501Y-99419658D01*
X138754869Y-99310002D01*
X138754869Y-99309997D01*
X138737501Y-99200341D01*
X138725654Y-99177090D01*
X138687095Y-99101413D01*
X138687092Y-99101410D01*
X138687090Y-99101407D01*
X138608592Y-99022909D01*
X138608588Y-99022906D01*
X138608587Y-99022905D01*
X138562962Y-98999658D01*
X138509658Y-98972498D01*
X138400002Y-98955131D01*
X138399998Y-98955131D01*
X138290341Y-98972498D01*
X138191414Y-99022904D01*
X138191407Y-99022909D01*
X138112909Y-99101407D01*
X138112904Y-99101414D01*
X138062498Y-99200341D01*
X138045131Y-99309997D01*
X119380500Y-99309997D01*
X119380500Y-98909997D01*
X126945131Y-98909997D01*
X126945131Y-98910002D01*
X126962498Y-99019658D01*
X127012904Y-99118585D01*
X127012909Y-99118592D01*
X127091407Y-99197090D01*
X127091410Y-99197092D01*
X127091413Y-99197095D01*
X127150282Y-99227090D01*
X127190341Y-99247501D01*
X127299998Y-99264869D01*
X127300000Y-99264869D01*
X127300002Y-99264869D01*
X127409658Y-99247501D01*
X127409659Y-99247500D01*
X127409661Y-99247500D01*
X127508587Y-99197095D01*
X127587095Y-99118587D01*
X127637500Y-99019661D01*
X127637500Y-99019659D01*
X127637501Y-99019658D01*
X127654869Y-98910002D01*
X127654869Y-98909997D01*
X127651701Y-98889997D01*
X128745131Y-98889997D01*
X128745131Y-98890002D01*
X128762498Y-98999658D01*
X128812904Y-99098585D01*
X128812909Y-99098592D01*
X128891407Y-99177090D01*
X128891410Y-99177092D01*
X128891413Y-99177095D01*
X128989534Y-99227090D01*
X128990341Y-99227501D01*
X129099998Y-99244869D01*
X129100000Y-99244869D01*
X129100002Y-99244869D01*
X129209658Y-99227501D01*
X129209659Y-99227500D01*
X129209661Y-99227500D01*
X129308587Y-99177095D01*
X129387095Y-99098587D01*
X129437500Y-98999661D01*
X129437500Y-98999659D01*
X129437501Y-98999658D01*
X129446950Y-98939997D01*
X132475131Y-98939997D01*
X132475131Y-98940002D01*
X132492498Y-99049658D01*
X132542904Y-99148585D01*
X132542909Y-99148592D01*
X132621407Y-99227090D01*
X132621410Y-99227092D01*
X132621413Y-99227095D01*
X132695549Y-99264869D01*
X132720341Y-99277501D01*
X132829998Y-99294869D01*
X132830000Y-99294869D01*
X132830002Y-99294869D01*
X132939658Y-99277501D01*
X132939659Y-99277500D01*
X132939661Y-99277500D01*
X133038587Y-99227095D01*
X133117095Y-99148587D01*
X133167500Y-99049661D01*
X133167500Y-99049659D01*
X133167501Y-99049658D01*
X133184869Y-98940002D01*
X133184869Y-98939997D01*
X133167501Y-98830341D01*
X133142024Y-98780339D01*
X133117095Y-98731413D01*
X133117092Y-98731410D01*
X133117090Y-98731407D01*
X133038592Y-98652909D01*
X133038588Y-98652906D01*
X133038587Y-98652905D01*
X133034743Y-98650946D01*
X132939658Y-98602498D01*
X132830002Y-98585131D01*
X132829998Y-98585131D01*
X132720341Y-98602498D01*
X132621414Y-98652904D01*
X132621407Y-98652909D01*
X132542909Y-98731407D01*
X132542904Y-98731414D01*
X132492498Y-98830341D01*
X132475131Y-98939997D01*
X129446950Y-98939997D01*
X129454869Y-98890002D01*
X129454869Y-98889997D01*
X129437501Y-98780341D01*
X129420768Y-98747500D01*
X129387095Y-98681413D01*
X129387092Y-98681410D01*
X129387090Y-98681407D01*
X129308592Y-98602909D01*
X129308588Y-98602906D01*
X129308587Y-98602905D01*
X129304743Y-98600946D01*
X129209658Y-98552498D01*
X129100002Y-98535131D01*
X129099998Y-98535131D01*
X128990341Y-98552498D01*
X128891414Y-98602904D01*
X128891407Y-98602909D01*
X128812909Y-98681407D01*
X128812904Y-98681414D01*
X128762498Y-98780341D01*
X128745131Y-98889997D01*
X127651701Y-98889997D01*
X127637501Y-98800341D01*
X127637500Y-98800339D01*
X127587095Y-98701413D01*
X127587092Y-98701410D01*
X127587090Y-98701407D01*
X127508592Y-98622909D01*
X127508588Y-98622906D01*
X127508587Y-98622905D01*
X127500112Y-98618587D01*
X127409658Y-98572498D01*
X127300002Y-98555131D01*
X127299998Y-98555131D01*
X127190341Y-98572498D01*
X127091414Y-98622904D01*
X127091407Y-98622909D01*
X127012909Y-98701407D01*
X127012904Y-98701414D01*
X126962498Y-98800341D01*
X126945131Y-98909997D01*
X119380500Y-98909997D01*
X119380500Y-98409997D01*
X124905131Y-98409997D01*
X124905131Y-98410002D01*
X124922498Y-98519658D01*
X124972904Y-98618585D01*
X124972909Y-98618592D01*
X125051407Y-98697090D01*
X125051410Y-98697092D01*
X125051413Y-98697095D01*
X125150339Y-98747500D01*
X125150341Y-98747501D01*
X125259998Y-98764869D01*
X125260000Y-98764869D01*
X125260002Y-98764869D01*
X125369658Y-98747501D01*
X125369659Y-98747500D01*
X125369661Y-98747500D01*
X125468587Y-98697095D01*
X125547095Y-98618587D01*
X125597500Y-98519661D01*
X125597500Y-98519659D01*
X125597501Y-98519658D01*
X125614869Y-98410002D01*
X125614869Y-98409997D01*
X125597501Y-98300341D01*
X125576874Y-98259858D01*
X125547095Y-98201413D01*
X125547092Y-98201410D01*
X125547090Y-98201407D01*
X125468592Y-98122909D01*
X125468588Y-98122906D01*
X125468587Y-98122905D01*
X125423637Y-98100002D01*
X125369658Y-98072498D01*
X125260002Y-98055131D01*
X125259998Y-98055131D01*
X125150341Y-98072498D01*
X125051414Y-98122904D01*
X125051407Y-98122909D01*
X124972909Y-98201407D01*
X124972904Y-98201414D01*
X124922498Y-98300341D01*
X124905131Y-98409997D01*
X119380500Y-98409997D01*
X119380500Y-97999997D01*
X121175131Y-97999997D01*
X121175131Y-98000002D01*
X121192498Y-98109658D01*
X121242904Y-98208585D01*
X121242909Y-98208592D01*
X121321407Y-98287090D01*
X121321410Y-98287092D01*
X121321413Y-98287095D01*
X121363590Y-98308585D01*
X121420341Y-98337501D01*
X121529998Y-98354869D01*
X121530000Y-98354869D01*
X121530002Y-98354869D01*
X121639658Y-98337501D01*
X121639659Y-98337500D01*
X121639661Y-98337500D01*
X121738587Y-98287095D01*
X121738592Y-98287089D01*
X121746486Y-98281356D01*
X121747528Y-98282790D01*
X121798631Y-98254880D01*
X121868323Y-98259858D01*
X121902960Y-98282118D01*
X121903514Y-98281356D01*
X121911410Y-98287092D01*
X121911413Y-98287095D01*
X121953590Y-98308585D01*
X122010341Y-98337501D01*
X122119998Y-98354869D01*
X122120000Y-98354869D01*
X122120002Y-98354869D01*
X122229658Y-98337501D01*
X122229659Y-98337500D01*
X122229661Y-98337500D01*
X122328587Y-98287095D01*
X122407095Y-98208587D01*
X122457500Y-98109661D01*
X122457500Y-98109659D01*
X122457501Y-98109658D01*
X122474869Y-98000002D01*
X122474869Y-97999997D01*
X122457501Y-97890341D01*
X122442762Y-97861414D01*
X122407095Y-97791413D01*
X122407092Y-97791410D01*
X122407090Y-97791407D01*
X122328592Y-97712909D01*
X122328588Y-97712906D01*
X122328587Y-97712905D01*
X122320112Y-97708587D01*
X122229658Y-97662498D01*
X122120002Y-97645131D01*
X122119998Y-97645131D01*
X122010341Y-97662498D01*
X121911414Y-97712904D01*
X121903514Y-97718644D01*
X121902472Y-97717210D01*
X121851358Y-97745121D01*
X121781666Y-97740137D01*
X121747038Y-97717882D01*
X121746486Y-97718644D01*
X121738588Y-97712906D01*
X121738587Y-97712905D01*
X121730112Y-97708587D01*
X121639658Y-97662498D01*
X121530002Y-97645131D01*
X121529998Y-97645131D01*
X121420341Y-97662498D01*
X121321414Y-97712904D01*
X121321407Y-97712909D01*
X121242909Y-97791407D01*
X121242904Y-97791414D01*
X121192498Y-97890341D01*
X121175131Y-97999997D01*
X119380500Y-97999997D01*
X119380500Y-97627264D01*
X119382634Y-97619997D01*
X124135131Y-97619997D01*
X124135131Y-97620002D01*
X124152498Y-97729658D01*
X124202904Y-97828585D01*
X124202909Y-97828592D01*
X124281407Y-97907090D01*
X124281410Y-97907092D01*
X124281413Y-97907095D01*
X124380339Y-97957500D01*
X124380341Y-97957501D01*
X124489998Y-97974869D01*
X124490000Y-97974869D01*
X124490002Y-97974869D01*
X124599658Y-97957501D01*
X124599659Y-97957500D01*
X124599661Y-97957500D01*
X124698587Y-97907095D01*
X124777095Y-97828587D01*
X124827500Y-97729661D01*
X124827500Y-97729659D01*
X124827501Y-97729658D01*
X124844869Y-97620002D01*
X124844869Y-97619997D01*
X124827501Y-97510341D01*
X124822232Y-97500000D01*
X124791659Y-97439997D01*
X125135131Y-97439997D01*
X125135131Y-97440002D01*
X125152498Y-97549658D01*
X125202904Y-97648585D01*
X125202909Y-97648592D01*
X125281407Y-97727090D01*
X125281410Y-97727092D01*
X125281413Y-97727095D01*
X125373113Y-97773818D01*
X125380341Y-97777501D01*
X125489998Y-97794869D01*
X125490000Y-97794869D01*
X125490002Y-97794869D01*
X125599658Y-97777501D01*
X125599659Y-97777500D01*
X125599661Y-97777500D01*
X125698587Y-97727095D01*
X125777095Y-97648587D01*
X125827500Y-97549661D01*
X125827500Y-97549659D01*
X125827501Y-97549658D01*
X125838534Y-97479997D01*
X126175131Y-97479997D01*
X126175131Y-97480002D01*
X126192498Y-97589658D01*
X126242904Y-97688585D01*
X126242909Y-97688592D01*
X126321407Y-97767090D01*
X126321410Y-97767092D01*
X126321413Y-97767095D01*
X126399588Y-97806927D01*
X126420341Y-97817501D01*
X126529998Y-97834869D01*
X126530000Y-97834869D01*
X126530002Y-97834869D01*
X126639658Y-97817501D01*
X126639659Y-97817500D01*
X126639661Y-97817500D01*
X126693639Y-97789997D01*
X131625131Y-97789997D01*
X131625131Y-97790002D01*
X131642498Y-97899658D01*
X131692904Y-97998585D01*
X131692909Y-97998592D01*
X131771407Y-98077090D01*
X131771410Y-98077092D01*
X131771413Y-98077095D01*
X131816367Y-98100000D01*
X131870341Y-98127501D01*
X131979998Y-98144869D01*
X131980000Y-98144869D01*
X131980002Y-98144869D01*
X132089658Y-98127501D01*
X132089659Y-98127500D01*
X132089661Y-98127500D01*
X132188587Y-98077095D01*
X132267095Y-97998587D01*
X132317500Y-97899661D01*
X132317500Y-97899659D01*
X132317501Y-97899658D01*
X132334869Y-97790002D01*
X132334869Y-97789997D01*
X132317501Y-97680341D01*
X132301324Y-97648592D01*
X132267095Y-97581413D01*
X132267092Y-97581410D01*
X132267090Y-97581407D01*
X132188592Y-97502909D01*
X132188588Y-97502906D01*
X132188587Y-97502905D01*
X132182880Y-97499997D01*
X132595131Y-97499997D01*
X132595131Y-97500002D01*
X132612498Y-97609658D01*
X132662904Y-97708585D01*
X132662909Y-97708592D01*
X132741407Y-97787090D01*
X132741410Y-97787092D01*
X132741413Y-97787095D01*
X132794559Y-97814174D01*
X132840341Y-97837501D01*
X132949998Y-97854869D01*
X132950000Y-97854869D01*
X132950002Y-97854869D01*
X133046353Y-97839608D01*
X133115646Y-97848562D01*
X133169098Y-97893558D01*
X133189738Y-97960310D01*
X133176237Y-98018373D01*
X133162497Y-98045340D01*
X133145129Y-98154997D01*
X133145129Y-98155002D01*
X133162496Y-98264658D01*
X133212902Y-98363585D01*
X133212907Y-98363592D01*
X133291405Y-98442090D01*
X133291408Y-98442092D01*
X133291411Y-98442095D01*
X133316482Y-98454869D01*
X133390339Y-98492501D01*
X133499996Y-98509869D01*
X133499998Y-98509869D01*
X133500000Y-98509869D01*
X133609656Y-98492501D01*
X133609657Y-98492500D01*
X133609659Y-98492500D01*
X133708585Y-98442095D01*
X133787093Y-98363587D01*
X133837498Y-98264661D01*
X133837498Y-98264659D01*
X133837499Y-98264658D01*
X133854867Y-98155002D01*
X133854867Y-98154997D01*
X133837499Y-98045341D01*
X133819490Y-98009997D01*
X135885131Y-98009997D01*
X135885131Y-98010002D01*
X135902498Y-98119658D01*
X135952904Y-98218585D01*
X135952909Y-98218592D01*
X136031407Y-98297090D01*
X136031410Y-98297092D01*
X136031413Y-98297095D01*
X136110713Y-98337500D01*
X136130341Y-98347501D01*
X136239998Y-98364869D01*
X136240000Y-98364869D01*
X136240002Y-98364869D01*
X136349658Y-98347501D01*
X136349659Y-98347500D01*
X136349661Y-98347500D01*
X136448587Y-98297095D01*
X136527095Y-98218587D01*
X136577500Y-98119661D01*
X136577500Y-98119659D01*
X136577501Y-98119658D01*
X136585367Y-98069997D01*
X137925131Y-98069997D01*
X137925131Y-98070002D01*
X137942498Y-98179658D01*
X137992904Y-98278585D01*
X137992909Y-98278592D01*
X138071407Y-98357090D01*
X138071410Y-98357092D01*
X138071413Y-98357095D01*
X138130282Y-98387090D01*
X138170341Y-98407501D01*
X138279998Y-98424869D01*
X138280000Y-98424869D01*
X138280002Y-98424869D01*
X138389658Y-98407501D01*
X138389659Y-98407500D01*
X138389661Y-98407500D01*
X138488587Y-98357095D01*
X138567095Y-98278587D01*
X138617500Y-98179661D01*
X138617500Y-98179659D01*
X138617501Y-98179658D01*
X138633286Y-98079997D01*
X139785131Y-98079997D01*
X139785131Y-98080002D01*
X139802498Y-98189658D01*
X139852904Y-98288585D01*
X139852909Y-98288592D01*
X139931407Y-98367090D01*
X139931410Y-98367092D01*
X139931413Y-98367095D01*
X140015623Y-98410002D01*
X140030341Y-98417501D01*
X140139998Y-98434869D01*
X140140000Y-98434869D01*
X140140002Y-98434869D01*
X140249658Y-98417501D01*
X140249659Y-98417500D01*
X140249661Y-98417500D01*
X140348587Y-98367095D01*
X140427095Y-98288587D01*
X140477500Y-98189661D01*
X140477500Y-98189659D01*
X140477501Y-98189658D01*
X140491702Y-98099997D01*
X140795131Y-98099997D01*
X140795131Y-98100002D01*
X140812498Y-98209658D01*
X140862904Y-98308585D01*
X140862909Y-98308592D01*
X140941407Y-98387090D01*
X140941410Y-98387092D01*
X140941413Y-98387095D01*
X140986367Y-98410000D01*
X141040341Y-98437501D01*
X141149998Y-98454869D01*
X141150000Y-98454869D01*
X141150002Y-98454869D01*
X141259658Y-98437501D01*
X141259659Y-98437500D01*
X141259661Y-98437500D01*
X141358587Y-98387095D01*
X141437095Y-98308587D01*
X141487500Y-98209661D01*
X141487500Y-98209659D01*
X141487501Y-98209658D01*
X141504869Y-98100002D01*
X141504869Y-98099997D01*
X141487501Y-97990341D01*
X141479618Y-97974869D01*
X141437095Y-97891413D01*
X141437092Y-97891410D01*
X141437090Y-97891407D01*
X141358592Y-97812909D01*
X141358588Y-97812906D01*
X141358587Y-97812905D01*
X141354743Y-97810946D01*
X141259658Y-97762498D01*
X141150002Y-97745131D01*
X141149998Y-97745131D01*
X141040341Y-97762498D01*
X140941414Y-97812904D01*
X140941407Y-97812909D01*
X140862909Y-97891407D01*
X140862904Y-97891414D01*
X140812498Y-97990341D01*
X140795131Y-98099997D01*
X140491702Y-98099997D01*
X140494869Y-98080002D01*
X140494869Y-98079997D01*
X140477501Y-97970341D01*
X140461054Y-97938062D01*
X140427095Y-97871413D01*
X140427092Y-97871410D01*
X140427090Y-97871407D01*
X140348592Y-97792909D01*
X140348588Y-97792906D01*
X140348587Y-97792905D01*
X140316363Y-97776486D01*
X140249658Y-97742498D01*
X140140002Y-97725131D01*
X140139998Y-97725131D01*
X140030341Y-97742498D01*
X139931414Y-97792904D01*
X139931407Y-97792909D01*
X139852909Y-97871407D01*
X139852904Y-97871414D01*
X139802498Y-97970341D01*
X139785131Y-98079997D01*
X138633286Y-98079997D01*
X138634869Y-98070002D01*
X138634869Y-98069997D01*
X138617501Y-97960341D01*
X138590368Y-97907090D01*
X138567095Y-97861413D01*
X138567092Y-97861410D01*
X138567090Y-97861407D01*
X138488592Y-97782909D01*
X138488588Y-97782906D01*
X138488587Y-97782905D01*
X138470753Y-97773818D01*
X138389658Y-97732498D01*
X138280002Y-97715131D01*
X138279998Y-97715131D01*
X138170341Y-97732498D01*
X138071414Y-97782904D01*
X138071407Y-97782909D01*
X137992909Y-97861407D01*
X137992904Y-97861414D01*
X137942498Y-97960341D01*
X137925131Y-98069997D01*
X136585367Y-98069997D01*
X136594869Y-98010002D01*
X136594869Y-98009997D01*
X136577501Y-97900341D01*
X136574045Y-97893558D01*
X136527095Y-97801413D01*
X136527092Y-97801410D01*
X136527090Y-97801407D01*
X136448592Y-97722909D01*
X136448587Y-97722905D01*
X136421454Y-97709080D01*
X136370659Y-97661105D01*
X136353865Y-97593283D01*
X136372025Y-97539997D01*
X136915131Y-97539997D01*
X136915131Y-97540002D01*
X136932498Y-97649658D01*
X136982904Y-97748585D01*
X136982909Y-97748592D01*
X137061407Y-97827090D01*
X137061410Y-97827092D01*
X137061413Y-97827095D01*
X137160339Y-97877500D01*
X137160341Y-97877501D01*
X137269998Y-97894869D01*
X137270000Y-97894869D01*
X137270002Y-97894869D01*
X137379658Y-97877501D01*
X137379659Y-97877500D01*
X137379661Y-97877500D01*
X137478587Y-97827095D01*
X137557095Y-97748587D01*
X137607500Y-97649661D01*
X137607500Y-97649659D01*
X137607501Y-97649658D01*
X137624869Y-97540002D01*
X137624869Y-97539997D01*
X137607501Y-97430341D01*
X137587119Y-97390339D01*
X137557095Y-97331413D01*
X137557092Y-97331410D01*
X137557090Y-97331407D01*
X137478592Y-97252909D01*
X137478588Y-97252906D01*
X137478587Y-97252905D01*
X137441054Y-97233781D01*
X137379658Y-97202498D01*
X137270002Y-97185131D01*
X137269998Y-97185131D01*
X137160341Y-97202498D01*
X137061414Y-97252904D01*
X137061407Y-97252909D01*
X136982909Y-97331407D01*
X136982904Y-97331414D01*
X136932498Y-97430341D01*
X136915131Y-97539997D01*
X136372025Y-97539997D01*
X136376404Y-97527149D01*
X136431119Y-97483698D01*
X136440556Y-97481077D01*
X136440375Y-97480518D01*
X136449657Y-97477501D01*
X136449658Y-97477500D01*
X136449661Y-97477500D01*
X136548587Y-97427095D01*
X136627095Y-97348587D01*
X136677500Y-97249661D01*
X136677500Y-97249659D01*
X136677501Y-97249658D01*
X136694869Y-97140002D01*
X136694869Y-97139997D01*
X136677501Y-97030341D01*
X136677500Y-97030339D01*
X136627095Y-96931413D01*
X136627092Y-96931410D01*
X136627090Y-96931407D01*
X136585680Y-96889997D01*
X137995131Y-96889997D01*
X137995131Y-96890002D01*
X138012498Y-96999658D01*
X138062904Y-97098585D01*
X138062909Y-97098592D01*
X138141407Y-97177090D01*
X138141410Y-97177092D01*
X138141413Y-97177095D01*
X138230522Y-97222498D01*
X138240341Y-97227501D01*
X138349998Y-97244869D01*
X138350000Y-97244869D01*
X138350002Y-97244869D01*
X138459658Y-97227501D01*
X138459659Y-97227500D01*
X138459661Y-97227500D01*
X138558587Y-97177095D01*
X138637095Y-97098587D01*
X138687500Y-96999661D01*
X138687500Y-96999659D01*
X138687501Y-96999658D01*
X138704869Y-96890002D01*
X138704869Y-96889997D01*
X138701701Y-96869997D01*
X139015131Y-96869997D01*
X139015131Y-96870002D01*
X139032498Y-96979658D01*
X139082904Y-97078585D01*
X139082909Y-97078592D01*
X139161407Y-97157090D01*
X139161410Y-97157092D01*
X139161413Y-97157095D01*
X139250522Y-97202498D01*
X139260341Y-97207501D01*
X139369998Y-97224869D01*
X139370000Y-97224869D01*
X139370002Y-97224869D01*
X139479658Y-97207501D01*
X139479659Y-97207500D01*
X139479661Y-97207500D01*
X139578587Y-97157095D01*
X139657095Y-97078587D01*
X139707500Y-96979661D01*
X139707500Y-96979659D01*
X139707501Y-96979658D01*
X139724869Y-96870002D01*
X139724869Y-96869997D01*
X139707501Y-96760341D01*
X139685719Y-96717592D01*
X139657095Y-96661413D01*
X139657092Y-96661410D01*
X139657090Y-96661407D01*
X139578592Y-96582909D01*
X139578588Y-96582906D01*
X139578587Y-96582905D01*
X139572880Y-96579997D01*
X139479658Y-96532498D01*
X139370002Y-96515131D01*
X139369998Y-96515131D01*
X139260341Y-96532498D01*
X139161414Y-96582904D01*
X139161407Y-96582909D01*
X139082909Y-96661407D01*
X139082904Y-96661414D01*
X139032498Y-96760341D01*
X139015131Y-96869997D01*
X138701701Y-96869997D01*
X138687501Y-96780341D01*
X138679516Y-96764669D01*
X138637095Y-96681413D01*
X138637092Y-96681410D01*
X138637090Y-96681407D01*
X138558592Y-96602909D01*
X138558588Y-96602906D01*
X138558587Y-96602905D01*
X138550112Y-96598587D01*
X138459658Y-96552498D01*
X138350002Y-96535131D01*
X138349998Y-96535131D01*
X138240341Y-96552498D01*
X138141414Y-96602904D01*
X138141407Y-96602909D01*
X138062909Y-96681407D01*
X138062904Y-96681414D01*
X138012498Y-96780341D01*
X137995131Y-96889997D01*
X136585680Y-96889997D01*
X136548592Y-96852909D01*
X136548588Y-96852906D01*
X136548587Y-96852905D01*
X136517548Y-96837090D01*
X136449658Y-96802498D01*
X136340002Y-96785131D01*
X136339998Y-96785131D01*
X136230341Y-96802498D01*
X136131414Y-96852904D01*
X136131407Y-96852909D01*
X136052909Y-96931407D01*
X136052904Y-96931414D01*
X136002498Y-97030341D01*
X135985131Y-97139997D01*
X135985131Y-97140002D01*
X136002498Y-97249658D01*
X136052904Y-97348585D01*
X136052909Y-97348592D01*
X136131407Y-97427090D01*
X136131416Y-97427097D01*
X136158543Y-97440919D01*
X136209339Y-97488893D01*
X136226134Y-97556714D01*
X136203596Y-97622849D01*
X136148881Y-97666300D01*
X136139444Y-97668926D01*
X136139625Y-97669482D01*
X136130342Y-97672498D01*
X136031414Y-97722904D01*
X136031407Y-97722909D01*
X135952909Y-97801407D01*
X135952904Y-97801414D01*
X135902498Y-97900341D01*
X135885131Y-98009997D01*
X133819490Y-98009997D01*
X133801592Y-97974869D01*
X133787093Y-97946413D01*
X133785864Y-97945184D01*
X133784849Y-97943324D01*
X133781354Y-97938514D01*
X133781975Y-97938062D01*
X133752377Y-97883866D01*
X133757358Y-97814174D01*
X133781506Y-97776596D01*
X133781354Y-97776486D01*
X133783291Y-97773818D01*
X133785864Y-97769815D01*
X133787093Y-97768587D01*
X133837498Y-97669661D01*
X133837498Y-97669659D01*
X133837499Y-97669658D01*
X133854867Y-97560002D01*
X133854867Y-97559997D01*
X133837499Y-97450341D01*
X133832230Y-97440000D01*
X133787093Y-97351413D01*
X133787090Y-97351410D01*
X133787088Y-97351407D01*
X133708590Y-97272909D01*
X133708586Y-97272906D01*
X133708585Y-97272905D01*
X133683261Y-97260002D01*
X133609656Y-97222498D01*
X133500000Y-97205131D01*
X133499996Y-97205131D01*
X133390340Y-97222498D01*
X133323438Y-97256586D01*
X133254769Y-97269481D01*
X133190029Y-97243203D01*
X133179464Y-97233781D01*
X133158592Y-97212909D01*
X133158588Y-97212906D01*
X133158587Y-97212905D01*
X133138162Y-97202498D01*
X133059658Y-97162498D01*
X132950002Y-97145131D01*
X132949998Y-97145131D01*
X132840341Y-97162498D01*
X132741414Y-97212904D01*
X132741407Y-97212909D01*
X132662909Y-97291407D01*
X132662904Y-97291414D01*
X132612498Y-97390341D01*
X132595131Y-97499997D01*
X132182880Y-97499997D01*
X132143637Y-97480002D01*
X132089658Y-97452498D01*
X131980002Y-97435131D01*
X131979998Y-97435131D01*
X131870341Y-97452498D01*
X131771414Y-97502904D01*
X131771407Y-97502909D01*
X131692909Y-97581407D01*
X131692904Y-97581414D01*
X131642498Y-97680341D01*
X131625131Y-97789997D01*
X126693639Y-97789997D01*
X126738587Y-97767095D01*
X126817095Y-97688587D01*
X126867500Y-97589661D01*
X126867500Y-97589659D01*
X126867501Y-97589658D01*
X126884869Y-97480002D01*
X126884869Y-97479997D01*
X126867501Y-97370341D01*
X126851867Y-97339658D01*
X126817095Y-97271413D01*
X126817092Y-97271410D01*
X126817090Y-97271407D01*
X126805680Y-97259997D01*
X129360131Y-97259997D01*
X129360131Y-97260002D01*
X129377498Y-97369658D01*
X129427904Y-97468585D01*
X129427909Y-97468592D01*
X129506407Y-97547090D01*
X129506410Y-97547092D01*
X129506413Y-97547095D01*
X129580549Y-97584869D01*
X129605341Y-97597501D01*
X129714998Y-97614869D01*
X129715000Y-97614869D01*
X129715002Y-97614869D01*
X129824658Y-97597501D01*
X129824659Y-97597500D01*
X129824661Y-97597500D01*
X129923587Y-97547095D01*
X130002095Y-97468587D01*
X130052500Y-97369661D01*
X130052500Y-97369659D01*
X130052501Y-97369658D01*
X130069869Y-97260002D01*
X130069869Y-97259997D01*
X130630131Y-97259997D01*
X130630131Y-97260002D01*
X130647498Y-97369658D01*
X130697904Y-97468585D01*
X130697909Y-97468592D01*
X130776407Y-97547090D01*
X130776410Y-97547092D01*
X130776413Y-97547095D01*
X130850549Y-97584869D01*
X130875341Y-97597501D01*
X130984998Y-97614869D01*
X130985000Y-97614869D01*
X130985002Y-97614869D01*
X131094658Y-97597501D01*
X131094659Y-97597500D01*
X131094661Y-97597500D01*
X131193587Y-97547095D01*
X131272095Y-97468587D01*
X131322500Y-97369661D01*
X131322500Y-97369659D01*
X131322501Y-97369658D01*
X131339869Y-97260002D01*
X131339869Y-97259997D01*
X131322501Y-97150341D01*
X131317232Y-97140000D01*
X131272095Y-97051413D01*
X131272092Y-97051410D01*
X131272090Y-97051407D01*
X131193592Y-96972909D01*
X131193588Y-96972906D01*
X131193587Y-96972905D01*
X131135327Y-96943220D01*
X131094658Y-96922498D01*
X130985002Y-96905131D01*
X130984998Y-96905131D01*
X130875341Y-96922498D01*
X130776414Y-96972904D01*
X130776407Y-96972909D01*
X130697909Y-97051407D01*
X130697904Y-97051414D01*
X130647498Y-97150341D01*
X130630131Y-97259997D01*
X130069869Y-97259997D01*
X130052501Y-97150341D01*
X130047232Y-97140000D01*
X130002095Y-97051413D01*
X130002092Y-97051410D01*
X130002090Y-97051407D01*
X129923592Y-96972909D01*
X129923588Y-96972906D01*
X129923587Y-96972905D01*
X129865327Y-96943220D01*
X129824658Y-96922498D01*
X129715002Y-96905131D01*
X129714998Y-96905131D01*
X129605341Y-96922498D01*
X129506414Y-96972904D01*
X129506407Y-96972909D01*
X129427909Y-97051407D01*
X129427904Y-97051414D01*
X129377498Y-97150341D01*
X129360131Y-97259997D01*
X126805680Y-97259997D01*
X126738592Y-97192909D01*
X126738588Y-97192906D01*
X126738587Y-97192905D01*
X126707548Y-97177090D01*
X126639658Y-97142498D01*
X126530002Y-97125131D01*
X126529998Y-97125131D01*
X126420341Y-97142498D01*
X126321414Y-97192904D01*
X126321407Y-97192909D01*
X126242909Y-97271407D01*
X126242904Y-97271414D01*
X126192498Y-97370341D01*
X126175131Y-97479997D01*
X125838534Y-97479997D01*
X125844869Y-97440002D01*
X125844869Y-97439997D01*
X125827501Y-97330341D01*
X125798236Y-97272905D01*
X125777095Y-97231413D01*
X125777092Y-97231410D01*
X125777090Y-97231407D01*
X125698592Y-97152909D01*
X125698588Y-97152906D01*
X125698587Y-97152905D01*
X125673263Y-97140002D01*
X125599658Y-97102498D01*
X125490002Y-97085131D01*
X125489998Y-97085131D01*
X125380341Y-97102498D01*
X125281414Y-97152904D01*
X125281407Y-97152909D01*
X125202909Y-97231407D01*
X125202904Y-97231414D01*
X125152498Y-97330341D01*
X125135131Y-97439997D01*
X124791659Y-97439997D01*
X124777095Y-97411413D01*
X124777092Y-97411410D01*
X124777090Y-97411407D01*
X124698592Y-97332909D01*
X124698588Y-97332906D01*
X124698587Y-97332905D01*
X124690112Y-97328587D01*
X124599658Y-97282498D01*
X124490002Y-97265131D01*
X124489998Y-97265131D01*
X124380341Y-97282498D01*
X124281414Y-97332904D01*
X124281407Y-97332909D01*
X124202909Y-97411407D01*
X124202904Y-97411414D01*
X124152498Y-97510341D01*
X124135131Y-97619997D01*
X119382634Y-97619997D01*
X119400185Y-97560225D01*
X119452989Y-97514470D01*
X119522147Y-97504526D01*
X119560795Y-97516779D01*
X119561410Y-97517092D01*
X119561413Y-97517095D01*
X119660339Y-97567500D01*
X119660341Y-97567500D01*
X119660343Y-97567501D01*
X119769998Y-97584869D01*
X119770000Y-97584869D01*
X119770002Y-97584869D01*
X119879658Y-97567501D01*
X119879659Y-97567500D01*
X119879661Y-97567500D01*
X119978587Y-97517095D01*
X120057095Y-97438587D01*
X120107500Y-97339661D01*
X120107500Y-97339659D01*
X120107501Y-97339658D01*
X120124869Y-97230002D01*
X120124869Y-97229997D01*
X120107501Y-97120341D01*
X120107326Y-97119997D01*
X122415131Y-97119997D01*
X122415131Y-97120002D01*
X122432498Y-97229658D01*
X122482904Y-97328585D01*
X122482909Y-97328592D01*
X122561407Y-97407090D01*
X122561410Y-97407092D01*
X122561413Y-97407095D01*
X122625993Y-97440000D01*
X122660341Y-97457501D01*
X122769998Y-97474869D01*
X122770000Y-97474869D01*
X122770002Y-97474869D01*
X122879658Y-97457501D01*
X122879659Y-97457500D01*
X122879661Y-97457500D01*
X122978587Y-97407095D01*
X123057095Y-97328587D01*
X123107500Y-97229661D01*
X123107500Y-97229659D01*
X123107501Y-97229658D01*
X123124869Y-97120002D01*
X123124869Y-97119997D01*
X123107501Y-97010341D01*
X123089749Y-96975500D01*
X123057095Y-96911413D01*
X123057092Y-96911410D01*
X123057090Y-96911407D01*
X122978592Y-96832909D01*
X122978588Y-96832906D01*
X122978587Y-96832905D01*
X122973857Y-96830495D01*
X122879658Y-96782498D01*
X122770002Y-96765131D01*
X122769998Y-96765131D01*
X122660341Y-96782498D01*
X122561414Y-96832904D01*
X122561407Y-96832909D01*
X122482909Y-96911407D01*
X122482904Y-96911414D01*
X122432498Y-97010341D01*
X122415131Y-97119997D01*
X120107326Y-97119997D01*
X120072381Y-97051414D01*
X120057095Y-97021413D01*
X120057092Y-97021410D01*
X120057090Y-97021407D01*
X119978592Y-96942909D01*
X119978588Y-96942906D01*
X119978587Y-96942905D01*
X119956021Y-96931407D01*
X119879658Y-96892498D01*
X119770002Y-96875131D01*
X119769998Y-96875131D01*
X119660341Y-96892498D01*
X119560794Y-96943220D01*
X119492125Y-96956116D01*
X119427384Y-96929839D01*
X119387128Y-96872732D01*
X119380500Y-96832735D01*
X119380500Y-96237264D01*
X119400185Y-96170225D01*
X119452989Y-96124470D01*
X119522147Y-96114526D01*
X119560795Y-96126779D01*
X119561410Y-96127092D01*
X119561413Y-96127095D01*
X119660339Y-96177500D01*
X119660341Y-96177500D01*
X119660343Y-96177501D01*
X119769998Y-96194869D01*
X119770000Y-96194869D01*
X119770002Y-96194869D01*
X119879658Y-96177501D01*
X119879659Y-96177500D01*
X119879661Y-96177500D01*
X119978587Y-96127095D01*
X120025685Y-96079997D01*
X121345131Y-96079997D01*
X121345131Y-96080002D01*
X121362498Y-96189658D01*
X121412904Y-96288585D01*
X121412909Y-96288592D01*
X121491407Y-96367090D01*
X121491410Y-96367092D01*
X121491413Y-96367095D01*
X121575623Y-96410002D01*
X121590341Y-96417501D01*
X121699998Y-96434869D01*
X121700000Y-96434869D01*
X121700002Y-96434869D01*
X121809658Y-96417501D01*
X121809659Y-96417500D01*
X121809661Y-96417500D01*
X121863639Y-96389997D01*
X125945131Y-96389997D01*
X125945131Y-96390002D01*
X125962498Y-96499658D01*
X126012904Y-96598585D01*
X126012909Y-96598592D01*
X126091407Y-96677090D01*
X126091410Y-96677092D01*
X126091413Y-96677095D01*
X126190339Y-96727500D01*
X126190341Y-96727501D01*
X126299998Y-96744869D01*
X126300000Y-96744869D01*
X126300002Y-96744869D01*
X126409658Y-96727501D01*
X126409659Y-96727500D01*
X126409661Y-96727500D01*
X126508587Y-96677095D01*
X126587095Y-96598587D01*
X126637500Y-96499661D01*
X126637500Y-96499659D01*
X126637501Y-96499658D01*
X126651702Y-96409997D01*
X129995131Y-96409997D01*
X129995131Y-96410002D01*
X130012498Y-96519658D01*
X130062904Y-96618585D01*
X130062909Y-96618592D01*
X130141407Y-96697090D01*
X130141410Y-96697092D01*
X130141413Y-96697095D01*
X130181641Y-96717592D01*
X130240341Y-96747501D01*
X130349998Y-96764869D01*
X130350000Y-96764869D01*
X130350002Y-96764869D01*
X130459658Y-96747501D01*
X130459659Y-96747500D01*
X130459661Y-96747500D01*
X130558587Y-96697095D01*
X130637095Y-96618587D01*
X130672043Y-96549997D01*
X132705131Y-96549997D01*
X132705131Y-96550002D01*
X132722498Y-96659658D01*
X132772904Y-96758585D01*
X132772909Y-96758592D01*
X132851407Y-96837090D01*
X132851410Y-96837092D01*
X132851413Y-96837095D01*
X132950339Y-96887500D01*
X132950341Y-96887501D01*
X133059998Y-96904869D01*
X133060000Y-96904869D01*
X133060002Y-96904869D01*
X133169658Y-96887501D01*
X133169659Y-96887500D01*
X133169661Y-96887500D01*
X133268587Y-96837095D01*
X133347095Y-96758587D01*
X133397500Y-96659661D01*
X133397500Y-96659659D01*
X133397501Y-96659658D01*
X133414869Y-96550002D01*
X133414869Y-96549997D01*
X133397501Y-96440341D01*
X133394713Y-96434869D01*
X133347095Y-96341413D01*
X133347092Y-96341410D01*
X133347090Y-96341407D01*
X133268592Y-96262909D01*
X133268588Y-96262906D01*
X133268587Y-96262905D01*
X133264743Y-96260946D01*
X133169658Y-96212498D01*
X133060002Y-96195131D01*
X133059998Y-96195131D01*
X132950341Y-96212498D01*
X132851414Y-96262904D01*
X132851407Y-96262909D01*
X132772909Y-96341407D01*
X132772904Y-96341414D01*
X132722498Y-96440341D01*
X132705131Y-96549997D01*
X130672043Y-96549997D01*
X130687500Y-96519661D01*
X130687500Y-96519659D01*
X130687501Y-96519658D01*
X130704869Y-96410002D01*
X130704869Y-96409997D01*
X130687501Y-96300341D01*
X130680159Y-96285931D01*
X130637095Y-96201413D01*
X130637092Y-96201410D01*
X130637090Y-96201407D01*
X130558592Y-96122909D01*
X130558588Y-96122906D01*
X130558587Y-96122905D01*
X130542142Y-96114526D01*
X130459658Y-96072498D01*
X130350002Y-96055131D01*
X130349998Y-96055131D01*
X130240341Y-96072498D01*
X130141414Y-96122904D01*
X130141407Y-96122909D01*
X130062909Y-96201407D01*
X130062904Y-96201414D01*
X130012498Y-96300341D01*
X129995131Y-96409997D01*
X126651702Y-96409997D01*
X126654869Y-96390002D01*
X126654869Y-96389997D01*
X126637501Y-96280341D01*
X126615466Y-96237095D01*
X126587095Y-96181413D01*
X126587092Y-96181410D01*
X126587090Y-96181407D01*
X126508592Y-96102909D01*
X126508588Y-96102906D01*
X126508587Y-96102905D01*
X126463637Y-96080002D01*
X126409658Y-96052498D01*
X126300002Y-96035131D01*
X126299998Y-96035131D01*
X126190341Y-96052498D01*
X126091414Y-96102904D01*
X126091407Y-96102909D01*
X126012909Y-96181407D01*
X126012904Y-96181414D01*
X125962498Y-96280341D01*
X125945131Y-96389997D01*
X121863639Y-96389997D01*
X121908587Y-96367095D01*
X121987095Y-96288587D01*
X122037500Y-96189661D01*
X122037500Y-96189659D01*
X122037501Y-96189658D01*
X122054869Y-96080002D01*
X122054869Y-96079997D01*
X122037501Y-95970341D01*
X122026964Y-95949661D01*
X121987095Y-95871413D01*
X121987092Y-95871410D01*
X121987090Y-95871407D01*
X121908592Y-95792909D01*
X121908588Y-95792906D01*
X121908587Y-95792905D01*
X121870567Y-95773533D01*
X121809658Y-95742498D01*
X121700002Y-95725131D01*
X121699998Y-95725131D01*
X121590341Y-95742498D01*
X121491414Y-95792904D01*
X121491407Y-95792909D01*
X121412909Y-95871407D01*
X121412904Y-95871414D01*
X121362498Y-95970341D01*
X121345131Y-96079997D01*
X120025685Y-96079997D01*
X120057095Y-96048587D01*
X120107500Y-95949661D01*
X120107500Y-95949659D01*
X120107501Y-95949658D01*
X120124869Y-95840002D01*
X120124869Y-95839997D01*
X120107501Y-95730341D01*
X120066547Y-95649964D01*
X120057095Y-95631413D01*
X120057092Y-95631410D01*
X120057090Y-95631407D01*
X119978592Y-95552909D01*
X119978588Y-95552906D01*
X119978587Y-95552905D01*
X119962815Y-95544869D01*
X119879658Y-95502498D01*
X119770002Y-95485131D01*
X119769998Y-95485131D01*
X119660341Y-95502498D01*
X119560794Y-95553220D01*
X119492125Y-95566116D01*
X119427384Y-95539839D01*
X119387128Y-95482732D01*
X119380500Y-95442735D01*
X119380500Y-94869997D01*
X122245131Y-94869997D01*
X122245131Y-94870002D01*
X122262498Y-94979658D01*
X122312904Y-95078585D01*
X122312909Y-95078592D01*
X122391407Y-95157090D01*
X122391410Y-95157092D01*
X122391413Y-95157095D01*
X122447032Y-95185434D01*
X122490341Y-95207501D01*
X122599998Y-95224869D01*
X122600000Y-95224869D01*
X122600002Y-95224869D01*
X122709658Y-95207501D01*
X122709659Y-95207500D01*
X122709661Y-95207500D01*
X122808587Y-95157095D01*
X122887095Y-95078587D01*
X122896567Y-95059997D01*
X132975131Y-95059997D01*
X132975131Y-95060002D01*
X132992498Y-95169658D01*
X133042904Y-95268585D01*
X133042909Y-95268592D01*
X133121407Y-95347090D01*
X133121410Y-95347092D01*
X133121413Y-95347095D01*
X133183216Y-95378585D01*
X133220341Y-95397501D01*
X133329998Y-95414869D01*
X133330000Y-95414869D01*
X133330002Y-95414869D01*
X133439658Y-95397501D01*
X133439659Y-95397500D01*
X133439661Y-95397500D01*
X133538587Y-95347095D01*
X133617095Y-95268587D01*
X133667500Y-95169661D01*
X133667500Y-95169659D01*
X133667501Y-95169658D01*
X133684869Y-95060002D01*
X133684869Y-95059999D01*
X133681395Y-95038066D01*
X133690349Y-94968772D01*
X133735345Y-94915320D01*
X133747567Y-94908185D01*
X133808587Y-94877095D01*
X133887095Y-94798587D01*
X133937500Y-94699661D01*
X133937500Y-94699659D01*
X133937501Y-94699658D01*
X133954869Y-94590002D01*
X133954869Y-94589997D01*
X133937501Y-94480341D01*
X133933505Y-94472498D01*
X133922040Y-94449997D01*
X136655131Y-94449997D01*
X136655131Y-94450002D01*
X136672498Y-94559658D01*
X136722904Y-94658585D01*
X136722909Y-94658592D01*
X136801407Y-94737090D01*
X136801410Y-94737092D01*
X136801413Y-94737095D01*
X136900339Y-94787500D01*
X136945962Y-94794726D01*
X137009096Y-94824654D01*
X137046027Y-94883965D01*
X137049037Y-94897801D01*
X137052498Y-94919658D01*
X137093333Y-94999801D01*
X137102905Y-95018587D01*
X137181413Y-95097095D01*
X137181415Y-95097096D01*
X137182126Y-95097807D01*
X137215611Y-95159130D01*
X137216918Y-95204887D01*
X137202631Y-95295092D01*
X137202631Y-95295097D01*
X137219998Y-95404753D01*
X137265177Y-95493421D01*
X137270404Y-95503681D01*
X137270409Y-95503687D01*
X137348907Y-95582185D01*
X137348910Y-95582187D01*
X137348913Y-95582190D01*
X137445507Y-95631407D01*
X137447841Y-95632596D01*
X137557498Y-95649964D01*
X137557500Y-95649964D01*
X137557502Y-95649964D01*
X137667158Y-95632596D01*
X137667159Y-95632595D01*
X137667161Y-95632595D01*
X137766087Y-95582190D01*
X137844595Y-95503682D01*
X137861929Y-95469661D01*
X137909899Y-95418868D01*
X137977719Y-95402071D01*
X138043855Y-95424607D01*
X138060093Y-95438276D01*
X138098907Y-95477090D01*
X138098910Y-95477092D01*
X138098913Y-95477095D01*
X138192675Y-95524869D01*
X138197841Y-95527501D01*
X138307498Y-95544869D01*
X138307500Y-95544869D01*
X138307502Y-95544869D01*
X138417158Y-95527501D01*
X138417159Y-95527500D01*
X138417161Y-95527500D01*
X138516087Y-95477095D01*
X138594595Y-95398587D01*
X138645000Y-95299661D01*
X138645000Y-95299659D01*
X138649430Y-95290966D01*
X138652852Y-95292709D01*
X138681590Y-95250637D01*
X138745935Y-95223406D01*
X138814788Y-95235286D01*
X138866287Y-95282504D01*
X138882605Y-95327193D01*
X138892498Y-95389658D01*
X138942904Y-95488585D01*
X138942909Y-95488592D01*
X139021407Y-95567090D01*
X139021410Y-95567092D01*
X139021413Y-95567095D01*
X139084319Y-95599147D01*
X139120341Y-95617501D01*
X139229998Y-95634869D01*
X139230000Y-95634869D01*
X139230002Y-95634869D01*
X139339658Y-95617501D01*
X139339659Y-95617500D01*
X139339661Y-95617500D01*
X139438587Y-95567095D01*
X139517095Y-95488587D01*
X139567500Y-95389661D01*
X139567500Y-95389659D01*
X139567501Y-95389658D01*
X139584251Y-95283903D01*
X140435131Y-95283903D01*
X140435131Y-95283908D01*
X140452498Y-95393564D01*
X140502904Y-95492491D01*
X140502909Y-95492498D01*
X140581407Y-95570996D01*
X140581410Y-95570998D01*
X140581413Y-95571001D01*
X140636653Y-95599147D01*
X140680341Y-95621407D01*
X140789998Y-95638775D01*
X140790000Y-95638775D01*
X140790002Y-95638775D01*
X140899658Y-95621407D01*
X140899659Y-95621406D01*
X140899661Y-95621406D01*
X140998587Y-95571001D01*
X141049403Y-95520185D01*
X141110726Y-95486699D01*
X141180418Y-95491683D01*
X141236351Y-95533554D01*
X141247567Y-95551566D01*
X141259762Y-95575500D01*
X141271807Y-95599140D01*
X141271812Y-95599147D01*
X141350310Y-95677645D01*
X141350313Y-95677647D01*
X141350316Y-95677650D01*
X141442259Y-95724497D01*
X141449244Y-95728056D01*
X141558901Y-95745424D01*
X141558903Y-95745424D01*
X141558905Y-95745424D01*
X141668561Y-95728056D01*
X141668562Y-95728055D01*
X141668564Y-95728055D01*
X141767490Y-95677650D01*
X141845998Y-95599142D01*
X141846001Y-95599135D01*
X141851731Y-95591250D01*
X141853109Y-95592251D01*
X141893252Y-95549738D01*
X141961071Y-95532934D01*
X142027209Y-95555464D01*
X142043457Y-95569140D01*
X142046241Y-95571924D01*
X142046244Y-95571926D01*
X142046247Y-95571929D01*
X142091784Y-95595131D01*
X142145175Y-95622335D01*
X142254832Y-95639703D01*
X142254834Y-95639703D01*
X142254836Y-95639703D01*
X142364492Y-95622335D01*
X142364493Y-95622334D01*
X142364495Y-95622334D01*
X142463421Y-95571929D01*
X142502416Y-95532934D01*
X142548830Y-95486521D01*
X142550611Y-95488302D01*
X142594645Y-95454340D01*
X142664257Y-95448353D01*
X142695934Y-95459398D01*
X142790339Y-95507500D01*
X142790341Y-95507500D01*
X142790343Y-95507501D01*
X142899998Y-95524869D01*
X142900000Y-95524869D01*
X142900002Y-95524869D01*
X143009658Y-95507501D01*
X143009659Y-95507500D01*
X143009661Y-95507500D01*
X143108587Y-95457095D01*
X143187095Y-95378587D01*
X143237500Y-95279661D01*
X143237500Y-95279659D01*
X143237501Y-95279658D01*
X143254869Y-95170002D01*
X143254869Y-95169997D01*
X143237501Y-95060341D01*
X143210182Y-95006725D01*
X143187095Y-94961413D01*
X143187092Y-94961410D01*
X143187090Y-94961407D01*
X143108592Y-94882909D01*
X143108588Y-94882906D01*
X143108587Y-94882905D01*
X143097174Y-94877090D01*
X143009658Y-94832498D01*
X142900002Y-94815131D01*
X142899998Y-94815131D01*
X142790341Y-94832498D01*
X142691414Y-94882904D01*
X142691407Y-94882909D01*
X142606004Y-94968313D01*
X142604225Y-94966534D01*
X142560158Y-95000505D01*
X142490544Y-95006474D01*
X142458893Y-94995432D01*
X142453941Y-94992909D01*
X142431377Y-94981412D01*
X142364492Y-94947332D01*
X142254836Y-94929965D01*
X142254832Y-94929965D01*
X142145175Y-94947332D01*
X142046248Y-94997738D01*
X142046238Y-94997745D01*
X142044183Y-94999801D01*
X142041069Y-95001501D01*
X142038348Y-95003478D01*
X142038092Y-95003126D01*
X141982858Y-95033283D01*
X141913167Y-95028294D01*
X141857236Y-94986420D01*
X141832822Y-94920954D01*
X141833430Y-94906823D01*
X141833346Y-94906823D01*
X141833346Y-94897061D01*
X141815978Y-94787405D01*
X141801297Y-94758592D01*
X141765572Y-94688477D01*
X141765569Y-94688474D01*
X141765567Y-94688471D01*
X141687069Y-94609973D01*
X141687065Y-94609970D01*
X141687064Y-94609969D01*
X141670260Y-94601407D01*
X141588135Y-94559562D01*
X141478479Y-94542195D01*
X141478475Y-94542195D01*
X141368818Y-94559562D01*
X141269891Y-94609968D01*
X141269884Y-94609973D01*
X141191386Y-94688471D01*
X141191381Y-94688478D01*
X141140975Y-94787405D01*
X141126351Y-94879738D01*
X141096421Y-94942873D01*
X141037109Y-94979803D01*
X140967247Y-94978805D01*
X140947584Y-94970824D01*
X140899658Y-94946404D01*
X140790002Y-94929037D01*
X140789998Y-94929037D01*
X140680341Y-94946404D01*
X140581414Y-94996810D01*
X140581407Y-94996815D01*
X140502909Y-95075313D01*
X140502904Y-95075320D01*
X140452498Y-95174247D01*
X140435131Y-95283903D01*
X139584251Y-95283903D01*
X139584869Y-95280002D01*
X139584869Y-95279997D01*
X139567501Y-95170341D01*
X139534540Y-95105651D01*
X139517095Y-95071413D01*
X139517092Y-95071410D01*
X139517090Y-95071407D01*
X139438592Y-94992909D01*
X139438588Y-94992906D01*
X139438587Y-94992905D01*
X139339661Y-94942500D01*
X139336394Y-94941982D01*
X139332741Y-94940250D01*
X139330375Y-94939482D01*
X139330474Y-94939176D01*
X139273260Y-94912054D01*
X139236328Y-94852742D01*
X139237326Y-94782880D01*
X139245302Y-94763225D01*
X139267500Y-94719661D01*
X139268300Y-94714615D01*
X139284869Y-94610002D01*
X139284869Y-94609997D01*
X139267501Y-94500341D01*
X139263369Y-94492232D01*
X139217095Y-94401413D01*
X139217092Y-94401410D01*
X139217090Y-94401407D01*
X139138592Y-94322909D01*
X139138588Y-94322906D01*
X139138587Y-94322905D01*
X139113263Y-94310002D01*
X139039658Y-94272498D01*
X138930002Y-94255131D01*
X138929998Y-94255131D01*
X138820341Y-94272498D01*
X138721414Y-94322904D01*
X138721407Y-94322909D01*
X138642909Y-94401407D01*
X138642904Y-94401414D01*
X138592498Y-94500341D01*
X138575131Y-94609997D01*
X138575131Y-94610003D01*
X138592707Y-94720977D01*
X138583752Y-94790270D01*
X138538756Y-94843722D01*
X138472004Y-94864361D01*
X138426965Y-94853888D01*
X138426437Y-94855514D01*
X138417159Y-94852499D01*
X138307502Y-94835131D01*
X138307498Y-94835131D01*
X138197841Y-94852498D01*
X138098914Y-94902904D01*
X138098907Y-94902909D01*
X138020409Y-94981407D01*
X138020406Y-94981412D01*
X138020405Y-94981413D01*
X138003072Y-95015432D01*
X137955097Y-95066228D01*
X137887276Y-95083023D01*
X137821141Y-95060485D01*
X137804906Y-95046818D01*
X137765373Y-95007285D01*
X137731888Y-94945962D01*
X137730581Y-94900208D01*
X137744869Y-94810000D01*
X137744869Y-94809997D01*
X137727501Y-94700341D01*
X137727153Y-94699658D01*
X137677095Y-94601413D01*
X137677092Y-94601410D01*
X137677090Y-94601407D01*
X137598592Y-94522909D01*
X137598588Y-94522906D01*
X137598587Y-94522905D01*
X137499661Y-94472500D01*
X137499660Y-94472499D01*
X137499657Y-94472498D01*
X137499659Y-94472498D01*
X137454037Y-94465273D01*
X137390902Y-94435344D01*
X137353971Y-94376032D01*
X137350963Y-94362207D01*
X137347500Y-94340339D01*
X137297095Y-94241413D01*
X137297092Y-94241410D01*
X137297090Y-94241407D01*
X137218592Y-94162909D01*
X137218588Y-94162906D01*
X137218587Y-94162905D01*
X137207979Y-94157500D01*
X137119658Y-94112498D01*
X137010002Y-94095131D01*
X137009998Y-94095131D01*
X136900341Y-94112498D01*
X136801414Y-94162904D01*
X136801407Y-94162909D01*
X136722909Y-94241407D01*
X136722904Y-94241414D01*
X136672498Y-94340341D01*
X136655131Y-94449997D01*
X133922040Y-94449997D01*
X133887095Y-94381413D01*
X133887091Y-94381409D01*
X133887090Y-94381407D01*
X133808592Y-94302909D01*
X133808588Y-94302906D01*
X133808587Y-94302905D01*
X133709661Y-94252500D01*
X133709659Y-94252499D01*
X133709658Y-94252499D01*
X133694084Y-94250032D01*
X133630950Y-94220101D01*
X133594020Y-94160788D01*
X133595020Y-94090926D01*
X133625804Y-94039877D01*
X133637095Y-94028587D01*
X133687500Y-93929661D01*
X133687500Y-93929659D01*
X133687501Y-93929658D01*
X133704869Y-93820002D01*
X133704869Y-93819997D01*
X133687501Y-93710341D01*
X133682232Y-93700000D01*
X133682230Y-93699997D01*
X138005131Y-93699997D01*
X138005131Y-93700002D01*
X138022498Y-93809658D01*
X138072904Y-93908585D01*
X138072909Y-93908592D01*
X138151407Y-93987090D01*
X138151410Y-93987092D01*
X138151413Y-93987095D01*
X138250339Y-94037500D01*
X138250341Y-94037501D01*
X138359998Y-94054869D01*
X138360000Y-94054869D01*
X138360002Y-94054869D01*
X138469658Y-94037501D01*
X138469659Y-94037500D01*
X138469661Y-94037500D01*
X138568587Y-93987095D01*
X138647095Y-93908587D01*
X138697500Y-93809661D01*
X138697500Y-93809659D01*
X138697501Y-93809658D01*
X138714869Y-93700002D01*
X138714869Y-93699997D01*
X138700614Y-93609997D01*
X139475131Y-93609997D01*
X139475131Y-93610002D01*
X139492498Y-93719658D01*
X139542904Y-93818585D01*
X139542909Y-93818592D01*
X139596636Y-93872319D01*
X139630121Y-93933642D01*
X139625137Y-94003334D01*
X139596636Y-94047681D01*
X139562909Y-94081407D01*
X139562904Y-94081414D01*
X139512498Y-94180341D01*
X139495131Y-94289997D01*
X139495131Y-94290002D01*
X139512498Y-94399658D01*
X139538147Y-94449997D01*
X139562904Y-94498586D01*
X139562909Y-94498592D01*
X139641407Y-94577090D01*
X139641410Y-94577092D01*
X139641413Y-94577095D01*
X139705993Y-94610000D01*
X139740341Y-94627501D01*
X139849998Y-94644869D01*
X139850000Y-94644869D01*
X139850002Y-94644869D01*
X139959658Y-94627501D01*
X139959659Y-94627500D01*
X139959661Y-94627500D01*
X140058587Y-94577095D01*
X140137095Y-94498587D01*
X140149333Y-94474567D01*
X140197304Y-94423773D01*
X140265124Y-94406976D01*
X140331260Y-94429511D01*
X140347498Y-94443181D01*
X140411407Y-94507090D01*
X140411410Y-94507092D01*
X140411413Y-94507095D01*
X140495623Y-94550002D01*
X140510341Y-94557501D01*
X140619998Y-94574869D01*
X140620000Y-94574869D01*
X140620002Y-94574869D01*
X140729658Y-94557501D01*
X140729659Y-94557500D01*
X140729661Y-94557500D01*
X140828587Y-94507095D01*
X140907095Y-94428587D01*
X140957500Y-94329661D01*
X140957500Y-94329659D01*
X140957501Y-94329658D01*
X140974869Y-94220002D01*
X140974869Y-94219997D01*
X140956128Y-94101673D01*
X140965083Y-94032380D01*
X141010079Y-93978928D01*
X141066446Y-93958872D01*
X141146132Y-93951024D01*
X141334727Y-93893814D01*
X141508538Y-93800910D01*
X141660883Y-93675883D01*
X141785910Y-93523538D01*
X141878814Y-93349727D01*
X141878816Y-93349720D01*
X141880524Y-93345598D01*
X141924360Y-93291190D01*
X141990652Y-93269119D01*
X142051379Y-93282553D01*
X142100339Y-93307500D01*
X142100341Y-93307500D01*
X142100343Y-93307501D01*
X142209998Y-93324869D01*
X142210000Y-93324869D01*
X142210002Y-93324869D01*
X142319656Y-93307501D01*
X142319656Y-93307500D01*
X142319661Y-93307500D01*
X142385798Y-93273801D01*
X142454464Y-93260906D01*
X142519205Y-93287182D01*
X142559462Y-93344289D01*
X142560750Y-93348289D01*
X142561187Y-93349730D01*
X142654086Y-93523532D01*
X142654090Y-93523539D01*
X142779116Y-93675883D01*
X142931460Y-93800909D01*
X142931467Y-93800913D01*
X143105266Y-93893811D01*
X143105269Y-93893811D01*
X143105273Y-93893814D01*
X143293868Y-93951024D01*
X143490000Y-93970341D01*
X143686132Y-93951024D01*
X143874727Y-93893814D01*
X144048538Y-93800910D01*
X144200883Y-93675883D01*
X144325910Y-93523538D01*
X144372362Y-93436632D01*
X144418811Y-93349733D01*
X144418812Y-93349730D01*
X144418814Y-93349727D01*
X144476024Y-93161132D01*
X144495341Y-92965000D01*
X144476024Y-92768868D01*
X144418814Y-92580273D01*
X144418811Y-92580267D01*
X144418811Y-92580266D01*
X144325913Y-92406467D01*
X144325909Y-92406460D01*
X144200883Y-92254116D01*
X144048539Y-92129090D01*
X144048532Y-92129086D01*
X143874733Y-92036188D01*
X143874727Y-92036186D01*
X143686132Y-91978976D01*
X143686129Y-91978975D01*
X143490000Y-91959659D01*
X143293870Y-91978975D01*
X143105266Y-92036188D01*
X142931467Y-92129086D01*
X142931460Y-92129090D01*
X142779116Y-92254116D01*
X142654090Y-92406460D01*
X142654086Y-92406467D01*
X142561186Y-92580271D01*
X142558120Y-92590377D01*
X142519819Y-92648813D01*
X142456004Y-92677265D01*
X142386938Y-92666700D01*
X142383168Y-92664858D01*
X142319658Y-92632498D01*
X142210002Y-92615131D01*
X142209998Y-92615131D01*
X142100342Y-92632498D01*
X142054152Y-92656033D01*
X141985482Y-92668928D01*
X141920742Y-92642650D01*
X141880486Y-92585543D01*
X141879210Y-92581579D01*
X141878814Y-92580273D01*
X141878810Y-92580266D01*
X141785913Y-92406467D01*
X141785909Y-92406460D01*
X141660883Y-92254116D01*
X141508539Y-92129090D01*
X141508532Y-92129086D01*
X141334733Y-92036188D01*
X141334727Y-92036186D01*
X141146132Y-91978976D01*
X141146129Y-91978975D01*
X140950000Y-91959659D01*
X140753870Y-91978975D01*
X140565266Y-92036188D01*
X140391467Y-92129086D01*
X140391460Y-92129090D01*
X140239116Y-92254116D01*
X140114090Y-92406460D01*
X140114086Y-92406467D01*
X140021188Y-92580266D01*
X139963975Y-92768870D01*
X139944659Y-92965000D01*
X139959824Y-93118977D01*
X139946805Y-93187623D01*
X139898740Y-93238333D01*
X139836421Y-93255131D01*
X139829998Y-93255131D01*
X139720341Y-93272498D01*
X139621414Y-93322904D01*
X139621407Y-93322909D01*
X139542909Y-93401407D01*
X139542904Y-93401414D01*
X139492498Y-93500341D01*
X139475131Y-93609997D01*
X138700614Y-93609997D01*
X138697501Y-93590341D01*
X138674332Y-93544869D01*
X138647095Y-93491413D01*
X138647092Y-93491410D01*
X138647090Y-93491407D01*
X138568592Y-93412909D01*
X138568588Y-93412906D01*
X138568587Y-93412905D01*
X138540482Y-93398585D01*
X138469658Y-93362498D01*
X138360002Y-93345131D01*
X138359998Y-93345131D01*
X138250341Y-93362498D01*
X138151414Y-93412904D01*
X138151407Y-93412909D01*
X138072909Y-93491407D01*
X138072904Y-93491414D01*
X138022498Y-93590341D01*
X138005131Y-93699997D01*
X133682230Y-93699997D01*
X133637095Y-93611413D01*
X133637092Y-93611410D01*
X133637090Y-93611407D01*
X133558592Y-93532909D01*
X133558588Y-93532906D01*
X133558587Y-93532905D01*
X133523189Y-93514869D01*
X133459658Y-93482498D01*
X133350002Y-93465131D01*
X133349998Y-93465131D01*
X133240341Y-93482498D01*
X133141414Y-93532904D01*
X133141407Y-93532909D01*
X133062909Y-93611407D01*
X133062904Y-93611414D01*
X133012498Y-93710341D01*
X132995131Y-93819997D01*
X132995131Y-93820002D01*
X133012498Y-93929658D01*
X133062904Y-94028585D01*
X133062909Y-94028592D01*
X133141407Y-94107090D01*
X133141410Y-94107092D01*
X133141413Y-94107095D01*
X133240339Y-94157500D01*
X133240340Y-94157500D01*
X133240342Y-94157501D01*
X133240341Y-94157501D01*
X133255911Y-94159967D01*
X133319046Y-94189896D01*
X133355978Y-94249207D01*
X133354980Y-94319069D01*
X133324198Y-94370119D01*
X133312907Y-94381409D01*
X133312904Y-94381414D01*
X133262498Y-94480341D01*
X133245131Y-94589997D01*
X133245131Y-94590000D01*
X133248605Y-94611937D01*
X133239648Y-94681230D01*
X133194651Y-94734681D01*
X133182427Y-94741816D01*
X133121414Y-94772904D01*
X133121407Y-94772909D01*
X133042909Y-94851407D01*
X133042904Y-94851414D01*
X132992498Y-94950341D01*
X132975131Y-95059997D01*
X122896567Y-95059997D01*
X122937500Y-94979661D01*
X122937500Y-94979659D01*
X122937501Y-94979658D01*
X122954869Y-94870002D01*
X122954869Y-94869997D01*
X122937501Y-94760341D01*
X122917444Y-94720977D01*
X122887095Y-94661413D01*
X122887092Y-94661410D01*
X122887090Y-94661407D01*
X122808592Y-94582909D01*
X122808588Y-94582906D01*
X122808587Y-94582905D01*
X122762962Y-94559658D01*
X122744001Y-94549997D01*
X125295131Y-94549997D01*
X125295131Y-94550002D01*
X125312498Y-94659658D01*
X125362904Y-94758585D01*
X125362909Y-94758592D01*
X125441407Y-94837090D01*
X125441410Y-94837092D01*
X125441413Y-94837095D01*
X125519908Y-94877090D01*
X125540341Y-94887501D01*
X125649998Y-94904869D01*
X125650000Y-94904869D01*
X125650002Y-94904869D01*
X125759657Y-94887501D01*
X125759658Y-94887500D01*
X125759661Y-94887500D01*
X125793436Y-94870290D01*
X125862103Y-94857394D01*
X125926844Y-94883670D01*
X125937411Y-94893094D01*
X125981407Y-94937090D01*
X125981410Y-94937092D01*
X125981413Y-94937095D01*
X126054205Y-94974184D01*
X126080341Y-94987501D01*
X126189998Y-95004869D01*
X126190000Y-95004869D01*
X126190002Y-95004869D01*
X126299658Y-94987501D01*
X126299659Y-94987500D01*
X126299661Y-94987500D01*
X126398587Y-94937095D01*
X126477095Y-94858587D01*
X126527500Y-94759661D01*
X126527500Y-94759659D01*
X126527501Y-94759658D01*
X126544869Y-94650002D01*
X126544869Y-94649997D01*
X126527501Y-94540341D01*
X126502988Y-94492232D01*
X126477095Y-94441413D01*
X126477092Y-94441410D01*
X126477090Y-94441407D01*
X126398592Y-94362909D01*
X126398588Y-94362906D01*
X126398587Y-94362905D01*
X126358746Y-94342605D01*
X126299658Y-94312498D01*
X126190002Y-94295131D01*
X126189998Y-94295131D01*
X126080342Y-94312498D01*
X126046562Y-94329710D01*
X125977892Y-94342605D01*
X125913152Y-94316327D01*
X125902588Y-94306905D01*
X125858592Y-94262909D01*
X125858588Y-94262906D01*
X125858587Y-94262905D01*
X125831703Y-94249207D01*
X125759658Y-94212498D01*
X125650002Y-94195131D01*
X125649998Y-94195131D01*
X125540341Y-94212498D01*
X125441414Y-94262904D01*
X125441407Y-94262909D01*
X125362909Y-94341407D01*
X125362904Y-94341414D01*
X125312498Y-94440341D01*
X125295131Y-94549997D01*
X122744001Y-94549997D01*
X122709658Y-94532498D01*
X122600002Y-94515131D01*
X122599998Y-94515131D01*
X122490341Y-94532498D01*
X122391414Y-94582904D01*
X122391407Y-94582909D01*
X122312909Y-94661407D01*
X122312904Y-94661414D01*
X122262498Y-94760341D01*
X122245131Y-94869997D01*
X119380500Y-94869997D01*
X119380500Y-94665545D01*
X119400185Y-94598506D01*
X119452989Y-94552751D01*
X119522147Y-94542807D01*
X119585703Y-94571832D01*
X119592181Y-94577864D01*
X119611407Y-94597090D01*
X119611410Y-94597092D01*
X119611413Y-94597095D01*
X119671087Y-94627500D01*
X119710341Y-94647501D01*
X119819998Y-94664869D01*
X119820000Y-94664869D01*
X119820002Y-94664869D01*
X119929658Y-94647501D01*
X119929659Y-94647500D01*
X119929661Y-94647500D01*
X120028587Y-94597095D01*
X120107095Y-94518587D01*
X120157500Y-94419661D01*
X120157500Y-94419659D01*
X120157501Y-94419658D01*
X120174869Y-94310002D01*
X120174869Y-94309997D01*
X120805131Y-94309997D01*
X120805131Y-94310002D01*
X120822498Y-94419658D01*
X120872904Y-94518585D01*
X120872909Y-94518592D01*
X120951407Y-94597090D01*
X120951410Y-94597092D01*
X120951413Y-94597095D01*
X121011087Y-94627500D01*
X121050341Y-94647501D01*
X121159998Y-94664869D01*
X121160000Y-94664869D01*
X121160002Y-94664869D01*
X121269658Y-94647501D01*
X121269659Y-94647500D01*
X121269661Y-94647500D01*
X121368587Y-94597095D01*
X121447095Y-94518587D01*
X121497500Y-94419661D01*
X121497500Y-94419659D01*
X121497501Y-94419658D01*
X121514869Y-94310002D01*
X121514869Y-94309997D01*
X121497501Y-94200341D01*
X121492179Y-94189896D01*
X121447095Y-94101413D01*
X121447092Y-94101410D01*
X121447090Y-94101407D01*
X121368592Y-94022909D01*
X121368588Y-94022906D01*
X121368587Y-94022905D01*
X121329335Y-94002905D01*
X121269658Y-93972498D01*
X121160002Y-93955131D01*
X121159998Y-93955131D01*
X121050341Y-93972498D01*
X120951414Y-94022904D01*
X120951407Y-94022909D01*
X120872909Y-94101407D01*
X120872904Y-94101414D01*
X120822498Y-94200341D01*
X120805131Y-94309997D01*
X120174869Y-94309997D01*
X120157501Y-94200341D01*
X120152179Y-94189896D01*
X120107095Y-94101413D01*
X120107092Y-94101410D01*
X120107090Y-94101407D01*
X120028592Y-94022909D01*
X120028588Y-94022906D01*
X120028587Y-94022905D01*
X119989335Y-94002905D01*
X119929658Y-93972498D01*
X119820002Y-93955131D01*
X119819998Y-93955131D01*
X119710341Y-93972498D01*
X119611414Y-94022904D01*
X119611407Y-94022909D01*
X119592181Y-94042136D01*
X119530858Y-94075621D01*
X119461166Y-94070637D01*
X119405233Y-94028765D01*
X119380816Y-93963301D01*
X119380500Y-93954455D01*
X119380500Y-93329997D01*
X120145131Y-93329997D01*
X120145131Y-93330002D01*
X120162498Y-93439658D01*
X120212904Y-93538585D01*
X120212909Y-93538592D01*
X120291407Y-93617090D01*
X120291410Y-93617092D01*
X120291413Y-93617095D01*
X120390339Y-93667500D01*
X120390341Y-93667501D01*
X120499998Y-93684869D01*
X120500000Y-93684869D01*
X120500002Y-93684869D01*
X120609658Y-93667501D01*
X120609659Y-93667500D01*
X120609661Y-93667500D01*
X120708587Y-93617095D01*
X120787095Y-93538587D01*
X120837500Y-93439661D01*
X120837500Y-93439659D01*
X120837501Y-93439658D01*
X120854869Y-93330002D01*
X120854869Y-93329997D01*
X120837501Y-93220341D01*
X120837500Y-93220339D01*
X120822040Y-93189997D01*
X133825131Y-93189997D01*
X133825131Y-93190002D01*
X133842498Y-93299658D01*
X133892904Y-93398585D01*
X133892909Y-93398592D01*
X133971407Y-93477090D01*
X133971410Y-93477092D01*
X133971413Y-93477095D01*
X134045549Y-93514869D01*
X134070341Y-93527501D01*
X134179998Y-93544869D01*
X134180000Y-93544869D01*
X134180002Y-93544869D01*
X134289658Y-93527501D01*
X134289659Y-93527500D01*
X134289661Y-93527500D01*
X134388587Y-93477095D01*
X134467095Y-93398587D01*
X134517500Y-93299661D01*
X134517500Y-93299659D01*
X134517501Y-93299658D01*
X134534869Y-93190002D01*
X134534869Y-93189997D01*
X134530117Y-93159997D01*
X134935131Y-93159997D01*
X134935131Y-93160002D01*
X134952498Y-93269658D01*
X135002904Y-93368585D01*
X135002909Y-93368592D01*
X135081407Y-93447090D01*
X135081410Y-93447092D01*
X135081413Y-93447095D01*
X135180339Y-93497500D01*
X135180341Y-93497501D01*
X135289998Y-93514869D01*
X135290000Y-93514869D01*
X135290002Y-93514869D01*
X135399658Y-93497501D01*
X135399659Y-93497500D01*
X135399661Y-93497500D01*
X135498587Y-93447095D01*
X135577095Y-93368587D01*
X135627500Y-93269661D01*
X135627500Y-93269659D01*
X135627501Y-93269658D01*
X135644869Y-93160002D01*
X135644869Y-93159997D01*
X135627501Y-93050341D01*
X135623712Y-93042904D01*
X135577095Y-92951413D01*
X135577092Y-92951410D01*
X135577090Y-92951407D01*
X135498592Y-92872909D01*
X135498588Y-92872906D01*
X135498587Y-92872905D01*
X135458536Y-92852498D01*
X135399658Y-92822498D01*
X135290002Y-92805131D01*
X135289998Y-92805131D01*
X135180341Y-92822498D01*
X135081414Y-92872904D01*
X135081407Y-92872909D01*
X135002909Y-92951407D01*
X135002904Y-92951414D01*
X134952498Y-93050341D01*
X134935131Y-93159997D01*
X134530117Y-93159997D01*
X134517501Y-93080341D01*
X134502214Y-93050339D01*
X134467095Y-92981413D01*
X134467092Y-92981410D01*
X134467090Y-92981407D01*
X134388592Y-92902909D01*
X134388588Y-92902906D01*
X134388587Y-92902905D01*
X134337922Y-92877090D01*
X134289658Y-92852498D01*
X134180002Y-92835131D01*
X134179998Y-92835131D01*
X134070341Y-92852498D01*
X133971414Y-92902904D01*
X133971407Y-92902909D01*
X133892909Y-92981407D01*
X133892904Y-92981414D01*
X133842498Y-93080341D01*
X133825131Y-93189997D01*
X120822040Y-93189997D01*
X120787095Y-93121413D01*
X120787092Y-93121410D01*
X120787090Y-93121407D01*
X120708592Y-93042909D01*
X120708588Y-93042906D01*
X120708587Y-93042905D01*
X120704743Y-93040946D01*
X120609658Y-92992498D01*
X120500002Y-92975131D01*
X120499998Y-92975131D01*
X120390341Y-92992498D01*
X120291414Y-93042904D01*
X120291407Y-93042909D01*
X120212909Y-93121407D01*
X120212904Y-93121414D01*
X120162498Y-93220341D01*
X120145131Y-93329997D01*
X119380500Y-93329997D01*
X119380500Y-92452986D01*
X119400185Y-92385947D01*
X119430133Y-92359997D01*
X122345131Y-92359997D01*
X122345131Y-92360002D01*
X122362498Y-92469658D01*
X122412904Y-92568585D01*
X122412909Y-92568592D01*
X122491407Y-92647090D01*
X122491410Y-92647092D01*
X122491413Y-92647095D01*
X122561695Y-92682905D01*
X122590341Y-92697501D01*
X122699998Y-92714869D01*
X122700000Y-92714869D01*
X122700002Y-92714869D01*
X122809658Y-92697501D01*
X122809659Y-92697500D01*
X122809661Y-92697500D01*
X122908587Y-92647095D01*
X122965685Y-92589997D01*
X125895131Y-92589997D01*
X125895131Y-92590002D01*
X125912498Y-92699658D01*
X125962904Y-92798585D01*
X125962909Y-92798592D01*
X126041407Y-92877090D01*
X126041410Y-92877092D01*
X126041413Y-92877095D01*
X126140339Y-92927500D01*
X126140341Y-92927501D01*
X126249998Y-92944869D01*
X126250000Y-92944869D01*
X126250002Y-92944869D01*
X126359658Y-92927501D01*
X126359659Y-92927500D01*
X126359661Y-92927500D01*
X126458587Y-92877095D01*
X126537095Y-92798587D01*
X126587500Y-92699661D01*
X126587500Y-92699659D01*
X126587501Y-92699658D01*
X126604869Y-92590002D01*
X126604869Y-92589997D01*
X126587501Y-92480341D01*
X126573563Y-92452986D01*
X126537095Y-92381413D01*
X126537092Y-92381410D01*
X126537090Y-92381407D01*
X126458592Y-92302909D01*
X126458588Y-92302906D01*
X126458587Y-92302905D01*
X126408727Y-92277500D01*
X126359658Y-92252498D01*
X126250002Y-92235131D01*
X126249998Y-92235131D01*
X126140341Y-92252498D01*
X126041414Y-92302904D01*
X126041407Y-92302909D01*
X125962909Y-92381407D01*
X125962904Y-92381414D01*
X125912498Y-92480341D01*
X125895131Y-92589997D01*
X122965685Y-92589997D01*
X122987095Y-92568587D01*
X123037500Y-92469661D01*
X123037500Y-92469659D01*
X123037501Y-92469658D01*
X123054869Y-92360002D01*
X123054869Y-92359997D01*
X123037501Y-92250341D01*
X123029751Y-92235131D01*
X122987095Y-92151413D01*
X122987092Y-92151410D01*
X122987090Y-92151407D01*
X122908592Y-92072909D01*
X122908588Y-92072906D01*
X122908587Y-92072905D01*
X122843336Y-92039658D01*
X122809658Y-92022498D01*
X122700002Y-92005131D01*
X122699998Y-92005131D01*
X122590341Y-92022498D01*
X122491414Y-92072904D01*
X122491407Y-92072909D01*
X122412909Y-92151407D01*
X122412904Y-92151414D01*
X122362498Y-92250341D01*
X122345131Y-92359997D01*
X119430133Y-92359997D01*
X119452989Y-92340192D01*
X119522147Y-92330248D01*
X119542829Y-92335058D01*
X119550332Y-92337496D01*
X119550339Y-92337500D01*
X119550346Y-92337501D01*
X119550349Y-92337502D01*
X119659998Y-92354869D01*
X119660000Y-92354869D01*
X119660002Y-92354869D01*
X119769658Y-92337501D01*
X119769659Y-92337500D01*
X119769661Y-92337500D01*
X119868587Y-92287095D01*
X119947095Y-92208587D01*
X119997500Y-92109661D01*
X119997500Y-92109659D01*
X119997501Y-92109658D01*
X120014869Y-92000002D01*
X120014869Y-91999999D01*
X120005366Y-91940002D01*
X120002614Y-91922627D01*
X120006830Y-91889997D01*
X121075131Y-91889997D01*
X121075131Y-91890002D01*
X121092498Y-91999658D01*
X121142904Y-92098585D01*
X121142909Y-92098592D01*
X121221407Y-92177090D01*
X121221410Y-92177092D01*
X121221413Y-92177095D01*
X121283216Y-92208585D01*
X121320341Y-92227501D01*
X121429998Y-92244869D01*
X121430000Y-92244869D01*
X121430002Y-92244869D01*
X121539658Y-92227501D01*
X121539659Y-92227500D01*
X121539661Y-92227500D01*
X121638587Y-92177095D01*
X121717095Y-92098587D01*
X121767500Y-91999661D01*
X121767500Y-91999659D01*
X121767501Y-91999658D01*
X121784869Y-91890002D01*
X121784869Y-91889997D01*
X124775131Y-91889997D01*
X124775131Y-91890002D01*
X124792498Y-91999658D01*
X124842904Y-92098585D01*
X124842909Y-92098592D01*
X124921407Y-92177090D01*
X124921410Y-92177092D01*
X124921413Y-92177095D01*
X124983216Y-92208585D01*
X125020341Y-92227501D01*
X125129998Y-92244869D01*
X125130000Y-92244869D01*
X125130002Y-92244869D01*
X125239658Y-92227501D01*
X125239659Y-92227500D01*
X125239661Y-92227500D01*
X125338587Y-92177095D01*
X125417095Y-92098587D01*
X125467500Y-91999661D01*
X125467500Y-91999659D01*
X125467501Y-91999658D01*
X125484869Y-91890002D01*
X125484869Y-91889997D01*
X125476950Y-91839997D01*
X127075131Y-91839997D01*
X127075131Y-91840002D01*
X127092498Y-91949658D01*
X127142904Y-92048585D01*
X127142909Y-92048592D01*
X127221407Y-92127090D01*
X127221410Y-92127092D01*
X127221413Y-92127095D01*
X127319534Y-92177090D01*
X127320341Y-92177501D01*
X127429998Y-92194869D01*
X127430000Y-92194869D01*
X127430002Y-92194869D01*
X127539658Y-92177501D01*
X127539659Y-92177500D01*
X127539661Y-92177500D01*
X127638587Y-92127095D01*
X127717095Y-92048587D01*
X127767500Y-91949661D01*
X127767500Y-91949659D01*
X127767501Y-91949658D01*
X127784869Y-91840002D01*
X127784869Y-91839997D01*
X130775131Y-91839997D01*
X130775131Y-91840002D01*
X130792498Y-91949658D01*
X130842904Y-92048585D01*
X130842909Y-92048592D01*
X130921407Y-92127090D01*
X130921410Y-92127092D01*
X130921413Y-92127095D01*
X131019534Y-92177090D01*
X131020341Y-92177501D01*
X131129998Y-92194869D01*
X131130000Y-92194869D01*
X131130002Y-92194869D01*
X131239658Y-92177501D01*
X131239659Y-92177500D01*
X131239661Y-92177500D01*
X131338587Y-92127095D01*
X131417095Y-92048587D01*
X131467500Y-91949661D01*
X131467500Y-91949659D01*
X131467501Y-91949658D01*
X131473783Y-91909997D01*
X133025131Y-91909997D01*
X133025131Y-91910002D01*
X133042498Y-92019658D01*
X133092904Y-92118585D01*
X133092909Y-92118592D01*
X133171407Y-92197090D01*
X133171410Y-92197092D01*
X133171413Y-92197095D01*
X133250713Y-92237500D01*
X133270341Y-92247501D01*
X133379998Y-92264869D01*
X133380000Y-92264869D01*
X133380002Y-92264869D01*
X133489658Y-92247501D01*
X133489659Y-92247500D01*
X133489661Y-92247500D01*
X133588587Y-92197095D01*
X133667095Y-92118587D01*
X133717500Y-92019661D01*
X133717500Y-92019659D01*
X133717501Y-92019658D01*
X133734869Y-91910002D01*
X133734869Y-91909997D01*
X133733285Y-91899997D01*
X134685131Y-91899997D01*
X134685131Y-91900002D01*
X134702498Y-92009658D01*
X134752904Y-92108585D01*
X134752909Y-92108592D01*
X134831407Y-92187090D01*
X134831410Y-92187092D01*
X134831413Y-92187095D01*
X134873590Y-92208585D01*
X134930341Y-92237501D01*
X135039998Y-92254869D01*
X135040000Y-92254869D01*
X135040002Y-92254869D01*
X135149658Y-92237501D01*
X135149659Y-92237500D01*
X135149661Y-92237500D01*
X135248587Y-92187095D01*
X135327095Y-92108587D01*
X135377500Y-92009661D01*
X135377500Y-92009659D01*
X135377501Y-92009658D01*
X135390118Y-91929997D01*
X136365131Y-91929997D01*
X136365131Y-91930002D01*
X136382498Y-92039658D01*
X136432904Y-92138585D01*
X136432909Y-92138592D01*
X136511407Y-92217090D01*
X136511410Y-92217092D01*
X136511413Y-92217095D01*
X136585549Y-92254869D01*
X136610341Y-92267501D01*
X136719998Y-92284869D01*
X136720000Y-92284869D01*
X136720002Y-92284869D01*
X136829658Y-92267501D01*
X136829659Y-92267500D01*
X136829661Y-92267500D01*
X136928587Y-92217095D01*
X137007095Y-92138587D01*
X137057500Y-92039661D01*
X137057500Y-92039659D01*
X137057501Y-92039658D01*
X137073286Y-91939997D01*
X138045131Y-91939997D01*
X138045131Y-91940002D01*
X138062498Y-92049658D01*
X138112904Y-92148585D01*
X138112909Y-92148592D01*
X138191407Y-92227090D01*
X138191410Y-92227092D01*
X138191413Y-92227095D01*
X138244447Y-92254117D01*
X138290341Y-92277501D01*
X138399998Y-92294869D01*
X138400000Y-92294869D01*
X138400002Y-92294869D01*
X138509658Y-92277501D01*
X138509659Y-92277500D01*
X138509661Y-92277500D01*
X138608587Y-92227095D01*
X138687095Y-92148587D01*
X138737500Y-92049661D01*
X138737500Y-92049659D01*
X138737501Y-92049658D01*
X138754869Y-91940002D01*
X138754869Y-91939997D01*
X138737501Y-91830341D01*
X138729618Y-91814869D01*
X138687095Y-91731413D01*
X138687092Y-91731410D01*
X138687090Y-91731407D01*
X138608592Y-91652909D01*
X138608588Y-91652906D01*
X138608587Y-91652905D01*
X138600112Y-91648587D01*
X138509658Y-91602498D01*
X138400002Y-91585131D01*
X138399998Y-91585131D01*
X138290341Y-91602498D01*
X138191414Y-91652904D01*
X138191407Y-91652909D01*
X138112909Y-91731407D01*
X138112904Y-91731414D01*
X138062498Y-91830341D01*
X138045131Y-91939997D01*
X137073286Y-91939997D01*
X137074869Y-91930002D01*
X137074869Y-91929997D01*
X137057501Y-91820341D01*
X137050958Y-91807500D01*
X137007095Y-91721413D01*
X137007092Y-91721410D01*
X137007090Y-91721407D01*
X136928592Y-91642909D01*
X136928588Y-91642906D01*
X136928587Y-91642905D01*
X136920112Y-91638587D01*
X136829658Y-91592498D01*
X136720002Y-91575131D01*
X136719998Y-91575131D01*
X136610341Y-91592498D01*
X136511414Y-91642904D01*
X136511407Y-91642909D01*
X136432909Y-91721407D01*
X136432904Y-91721414D01*
X136382498Y-91820341D01*
X136365131Y-91929997D01*
X135390118Y-91929997D01*
X135394869Y-91900002D01*
X135394869Y-91899997D01*
X135377501Y-91790341D01*
X135369618Y-91774869D01*
X135327095Y-91691413D01*
X135327092Y-91691410D01*
X135327090Y-91691407D01*
X135248592Y-91612909D01*
X135248588Y-91612906D01*
X135248587Y-91612905D01*
X135203637Y-91590002D01*
X135149658Y-91562498D01*
X135040002Y-91545131D01*
X135039998Y-91545131D01*
X134930341Y-91562498D01*
X134831414Y-91612904D01*
X134831407Y-91612909D01*
X134752909Y-91691407D01*
X134752904Y-91691414D01*
X134702498Y-91790341D01*
X134685131Y-91899997D01*
X133733285Y-91899997D01*
X133717501Y-91800341D01*
X133709082Y-91783818D01*
X133698087Y-91762240D01*
X133691078Y-91724914D01*
X133681276Y-91719193D01*
X133671104Y-91706931D01*
X133667093Y-91701410D01*
X133588592Y-91622909D01*
X133588588Y-91622906D01*
X133588587Y-91622905D01*
X133562586Y-91609657D01*
X133489658Y-91572498D01*
X133380002Y-91555131D01*
X133379998Y-91555131D01*
X133270341Y-91572498D01*
X133171414Y-91622904D01*
X133171407Y-91622909D01*
X133092909Y-91701407D01*
X133092904Y-91701414D01*
X133042498Y-91800341D01*
X133025131Y-91909997D01*
X131473783Y-91909997D01*
X131484869Y-91840002D01*
X131484869Y-91839997D01*
X131467501Y-91730341D01*
X131464736Y-91724914D01*
X131417095Y-91631413D01*
X131417092Y-91631410D01*
X131417090Y-91631407D01*
X131338592Y-91552909D01*
X131338588Y-91552906D01*
X131338587Y-91552905D01*
X131312588Y-91539658D01*
X131239658Y-91502498D01*
X131130002Y-91485131D01*
X131129998Y-91485131D01*
X131020341Y-91502498D01*
X130921414Y-91552904D01*
X130921407Y-91552909D01*
X130842909Y-91631407D01*
X130842904Y-91631414D01*
X130792498Y-91730341D01*
X130775131Y-91839997D01*
X127784869Y-91839997D01*
X127767501Y-91730341D01*
X127764736Y-91724914D01*
X127717095Y-91631413D01*
X127717092Y-91631410D01*
X127717090Y-91631407D01*
X127638592Y-91552909D01*
X127638588Y-91552906D01*
X127638587Y-91552905D01*
X127612588Y-91539658D01*
X127539658Y-91502498D01*
X127430002Y-91485131D01*
X127429998Y-91485131D01*
X127320341Y-91502498D01*
X127221414Y-91552904D01*
X127221407Y-91552909D01*
X127142909Y-91631407D01*
X127142904Y-91631414D01*
X127092498Y-91730341D01*
X127075131Y-91839997D01*
X125476950Y-91839997D01*
X125467501Y-91780341D01*
X125458279Y-91762241D01*
X125417095Y-91681413D01*
X125417092Y-91681410D01*
X125417090Y-91681407D01*
X125338592Y-91602909D01*
X125338588Y-91602906D01*
X125338587Y-91602905D01*
X125330112Y-91598587D01*
X125239658Y-91552498D01*
X125130002Y-91535131D01*
X125129998Y-91535131D01*
X125020341Y-91552498D01*
X124921414Y-91602904D01*
X124921407Y-91602909D01*
X124842909Y-91681407D01*
X124842904Y-91681414D01*
X124792498Y-91780341D01*
X124775131Y-91889997D01*
X121784869Y-91889997D01*
X121767501Y-91780341D01*
X121758279Y-91762241D01*
X121717095Y-91681413D01*
X121717092Y-91681410D01*
X121717090Y-91681407D01*
X121638592Y-91602909D01*
X121638588Y-91602906D01*
X121638587Y-91602905D01*
X121630112Y-91598587D01*
X121539658Y-91552498D01*
X121430002Y-91535131D01*
X121429998Y-91535131D01*
X121320341Y-91552498D01*
X121221414Y-91602904D01*
X121221407Y-91602909D01*
X121142909Y-91681407D01*
X121142904Y-91681414D01*
X121092498Y-91780341D01*
X121075131Y-91889997D01*
X120006830Y-91889997D01*
X120011568Y-91853335D01*
X120056564Y-91799883D01*
X120123315Y-91779243D01*
X120181380Y-91792744D01*
X120192846Y-91798587D01*
X120210341Y-91807501D01*
X120319998Y-91824869D01*
X120320000Y-91824869D01*
X120320002Y-91824869D01*
X120429658Y-91807501D01*
X120429659Y-91807500D01*
X120429661Y-91807500D01*
X120528587Y-91757095D01*
X120607095Y-91678587D01*
X120657500Y-91579661D01*
X120657500Y-91579659D01*
X120657501Y-91579658D01*
X120674869Y-91470002D01*
X120674869Y-91469997D01*
X120657501Y-91360343D01*
X120657500Y-91360341D01*
X120657500Y-91360339D01*
X120647540Y-91340792D01*
X120634645Y-91272126D01*
X120660921Y-91207385D01*
X120718028Y-91167128D01*
X120758026Y-91160500D01*
X122033763Y-91160500D01*
X122100802Y-91180185D01*
G37*
%TD.AperFunction*%
%TD*%
M02*
