%TF.GenerationSoftware,KiCad,Pcbnew,8.0.5*%
%TF.CreationDate,2024-12-17T02:27:59+01:00*%
%TF.ProjectId,hardware v5,68617264-7761-4726-9520-76352e6b6963,rev?*%
%TF.SameCoordinates,Original*%
%TF.FileFunction,Legend,Top*%
%TF.FilePolarity,Positive*%
%FSLAX46Y46*%
G04 Gerber Fmt 4.6, Leading zero omitted, Abs format (unit mm)*
G04 Created by KiCad (PCBNEW 8.0.5) date 2024-12-17 02:27:59*
%MOMM*%
%LPD*%
G01*
G04 APERTURE LIST*
%ADD10C,0.100000*%
%ADD11C,0.200000*%
%ADD12C,0.120000*%
%ADD13C,0.152400*%
%ADD14C,0.250000*%
G04 APERTURE END LIST*
D10*
X125750276Y-99320877D02*
X126155038Y-99320877D01*
X126155038Y-99320877D02*
X126202657Y-99344687D01*
X126202657Y-99344687D02*
X126226466Y-99368496D01*
X126226466Y-99368496D02*
X126250276Y-99416115D01*
X126250276Y-99416115D02*
X126250276Y-99487544D01*
X126250276Y-99487544D02*
X126226466Y-99535163D01*
X126059800Y-99320877D02*
X126083609Y-99368496D01*
X126083609Y-99368496D02*
X126083609Y-99463734D01*
X126083609Y-99463734D02*
X126059800Y-99511353D01*
X126059800Y-99511353D02*
X126035990Y-99535163D01*
X126035990Y-99535163D02*
X125988371Y-99558972D01*
X125988371Y-99558972D02*
X125845514Y-99558972D01*
X125845514Y-99558972D02*
X125797895Y-99535163D01*
X125797895Y-99535163D02*
X125774085Y-99511353D01*
X125774085Y-99511353D02*
X125750276Y-99463734D01*
X125750276Y-99463734D02*
X125750276Y-99368496D01*
X125750276Y-99368496D02*
X125774085Y-99320877D01*
X125750276Y-99082782D02*
X126250276Y-99082782D01*
X125774085Y-99082782D02*
X125750276Y-99035163D01*
X125750276Y-99035163D02*
X125750276Y-98939925D01*
X125750276Y-98939925D02*
X125774085Y-98892306D01*
X125774085Y-98892306D02*
X125797895Y-98868496D01*
X125797895Y-98868496D02*
X125845514Y-98844687D01*
X125845514Y-98844687D02*
X125988371Y-98844687D01*
X125988371Y-98844687D02*
X126035990Y-98868496D01*
X126035990Y-98868496D02*
X126059800Y-98892306D01*
X126059800Y-98892306D02*
X126083609Y-98939925D01*
X126083609Y-98939925D02*
X126083609Y-99035163D01*
X126083609Y-99035163D02*
X126059800Y-99082782D01*
X126059800Y-98654210D02*
X126083609Y-98606591D01*
X126083609Y-98606591D02*
X126083609Y-98511353D01*
X126083609Y-98511353D02*
X126059800Y-98463734D01*
X126059800Y-98463734D02*
X126012180Y-98439925D01*
X126012180Y-98439925D02*
X125988371Y-98439925D01*
X125988371Y-98439925D02*
X125940752Y-98463734D01*
X125940752Y-98463734D02*
X125916942Y-98511353D01*
X125916942Y-98511353D02*
X125916942Y-98582782D01*
X125916942Y-98582782D02*
X125893133Y-98630401D01*
X125893133Y-98630401D02*
X125845514Y-98654210D01*
X125845514Y-98654210D02*
X125821704Y-98654210D01*
X125821704Y-98654210D02*
X125774085Y-98630401D01*
X125774085Y-98630401D02*
X125750276Y-98582782D01*
X125750276Y-98582782D02*
X125750276Y-98511353D01*
X125750276Y-98511353D02*
X125774085Y-98463734D01*
X125750276Y-98297067D02*
X125750276Y-98106591D01*
X125583609Y-98225639D02*
X126012180Y-98225639D01*
X126012180Y-98225639D02*
X126059800Y-98201829D01*
X126059800Y-98201829D02*
X126083609Y-98154210D01*
X126083609Y-98154210D02*
X126083609Y-98106591D01*
X126083609Y-97939925D02*
X125750276Y-97939925D01*
X125583609Y-97939925D02*
X125607419Y-97963734D01*
X125607419Y-97963734D02*
X125631228Y-97939925D01*
X125631228Y-97939925D02*
X125607419Y-97916115D01*
X125607419Y-97916115D02*
X125583609Y-97939925D01*
X125583609Y-97939925D02*
X125631228Y-97939925D01*
X126083609Y-97701830D02*
X125750276Y-97701830D01*
X125797895Y-97701830D02*
X125774085Y-97678020D01*
X125774085Y-97678020D02*
X125750276Y-97630401D01*
X125750276Y-97630401D02*
X125750276Y-97558973D01*
X125750276Y-97558973D02*
X125774085Y-97511354D01*
X125774085Y-97511354D02*
X125821704Y-97487544D01*
X125821704Y-97487544D02*
X126083609Y-97487544D01*
X125821704Y-97487544D02*
X125774085Y-97463735D01*
X125774085Y-97463735D02*
X125750276Y-97416116D01*
X125750276Y-97416116D02*
X125750276Y-97344687D01*
X125750276Y-97344687D02*
X125774085Y-97297068D01*
X125774085Y-97297068D02*
X125821704Y-97273258D01*
X125821704Y-97273258D02*
X126083609Y-97273258D01*
X126059800Y-96844687D02*
X126083609Y-96892306D01*
X126083609Y-96892306D02*
X126083609Y-96987544D01*
X126083609Y-96987544D02*
X126059800Y-97035163D01*
X126059800Y-97035163D02*
X126012180Y-97058972D01*
X126012180Y-97058972D02*
X125821704Y-97058972D01*
X125821704Y-97058972D02*
X125774085Y-97035163D01*
X125774085Y-97035163D02*
X125750276Y-96987544D01*
X125750276Y-96987544D02*
X125750276Y-96892306D01*
X125750276Y-96892306D02*
X125774085Y-96844687D01*
X125774085Y-96844687D02*
X125821704Y-96820877D01*
X125821704Y-96820877D02*
X125869323Y-96820877D01*
X125869323Y-96820877D02*
X125916942Y-97058972D01*
X126380000Y-95330000D02*
X126190000Y-95140000D01*
X126030000Y-95320000D02*
X126210000Y-95140000D01*
X126200000Y-97560000D02*
X126200000Y-95140000D01*
X126200000Y-95140000D02*
X126200000Y-97560000D01*
D11*
X136299673Y-109487219D02*
X136299673Y-108820552D01*
X136299673Y-108915790D02*
X136347292Y-108868171D01*
X136347292Y-108868171D02*
X136442530Y-108820552D01*
X136442530Y-108820552D02*
X136585387Y-108820552D01*
X136585387Y-108820552D02*
X136680625Y-108868171D01*
X136680625Y-108868171D02*
X136728244Y-108963409D01*
X136728244Y-108963409D02*
X136728244Y-109487219D01*
X136728244Y-108963409D02*
X136775863Y-108868171D01*
X136775863Y-108868171D02*
X136871101Y-108820552D01*
X136871101Y-108820552D02*
X137013958Y-108820552D01*
X137013958Y-108820552D02*
X137109197Y-108868171D01*
X137109197Y-108868171D02*
X137156816Y-108963409D01*
X137156816Y-108963409D02*
X137156816Y-109487219D01*
X138061577Y-109487219D02*
X138061577Y-108963409D01*
X138061577Y-108963409D02*
X138013958Y-108868171D01*
X138013958Y-108868171D02*
X137918720Y-108820552D01*
X137918720Y-108820552D02*
X137728244Y-108820552D01*
X137728244Y-108820552D02*
X137633006Y-108868171D01*
X138061577Y-109439600D02*
X137966339Y-109487219D01*
X137966339Y-109487219D02*
X137728244Y-109487219D01*
X137728244Y-109487219D02*
X137633006Y-109439600D01*
X137633006Y-109439600D02*
X137585387Y-109344361D01*
X137585387Y-109344361D02*
X137585387Y-109249123D01*
X137585387Y-109249123D02*
X137633006Y-109153885D01*
X137633006Y-109153885D02*
X137728244Y-109106266D01*
X137728244Y-109106266D02*
X137966339Y-109106266D01*
X137966339Y-109106266D02*
X138061577Y-109058647D01*
X138394911Y-108820552D02*
X138775863Y-108820552D01*
X138537768Y-108487219D02*
X138537768Y-109344361D01*
X138537768Y-109344361D02*
X138585387Y-109439600D01*
X138585387Y-109439600D02*
X138680625Y-109487219D01*
X138680625Y-109487219D02*
X138775863Y-109487219D01*
X139109197Y-109487219D02*
X139109197Y-108487219D01*
X139537768Y-109487219D02*
X139537768Y-108963409D01*
X139537768Y-108963409D02*
X139490149Y-108868171D01*
X139490149Y-108868171D02*
X139394911Y-108820552D01*
X139394911Y-108820552D02*
X139252054Y-108820552D01*
X139252054Y-108820552D02*
X139156816Y-108868171D01*
X139156816Y-108868171D02*
X139109197Y-108915790D01*
X140013959Y-109487219D02*
X140013959Y-108820552D01*
X140013959Y-108487219D02*
X139966340Y-108534838D01*
X139966340Y-108534838D02*
X140013959Y-108582457D01*
X140013959Y-108582457D02*
X140061578Y-108534838D01*
X140061578Y-108534838D02*
X140013959Y-108487219D01*
X140013959Y-108487219D02*
X140013959Y-108582457D01*
X140871101Y-109439600D02*
X140775863Y-109487219D01*
X140775863Y-109487219D02*
X140585387Y-109487219D01*
X140585387Y-109487219D02*
X140490149Y-109439600D01*
X140490149Y-109439600D02*
X140442530Y-109344361D01*
X140442530Y-109344361D02*
X140442530Y-108963409D01*
X140442530Y-108963409D02*
X140490149Y-108868171D01*
X140490149Y-108868171D02*
X140585387Y-108820552D01*
X140585387Y-108820552D02*
X140775863Y-108820552D01*
X140775863Y-108820552D02*
X140871101Y-108868171D01*
X140871101Y-108868171D02*
X140918720Y-108963409D01*
X140918720Y-108963409D02*
X140918720Y-109058647D01*
X140918720Y-109058647D02*
X140442530Y-109153885D01*
X141775863Y-108820552D02*
X141775863Y-109487219D01*
X141347292Y-108820552D02*
X141347292Y-109344361D01*
X141347292Y-109344361D02*
X141394911Y-109439600D01*
X141394911Y-109439600D02*
X141490149Y-109487219D01*
X141490149Y-109487219D02*
X141633006Y-109487219D01*
X141633006Y-109487219D02*
X141728244Y-109439600D01*
X141728244Y-109439600D02*
X141775863Y-109391980D01*
X142252054Y-109391980D02*
X142299673Y-109439600D01*
X142299673Y-109439600D02*
X142252054Y-109487219D01*
X142252054Y-109487219D02*
X142204435Y-109439600D01*
X142204435Y-109439600D02*
X142252054Y-109391980D01*
X142252054Y-109391980D02*
X142252054Y-109487219D01*
X142728244Y-108820552D02*
X142728244Y-109820552D01*
X142728244Y-108868171D02*
X142823482Y-108820552D01*
X142823482Y-108820552D02*
X143013958Y-108820552D01*
X143013958Y-108820552D02*
X143109196Y-108868171D01*
X143109196Y-108868171D02*
X143156815Y-108915790D01*
X143156815Y-108915790D02*
X143204434Y-109011028D01*
X143204434Y-109011028D02*
X143204434Y-109296742D01*
X143204434Y-109296742D02*
X143156815Y-109391980D01*
X143156815Y-109391980D02*
X143109196Y-109439600D01*
X143109196Y-109439600D02*
X143013958Y-109487219D01*
X143013958Y-109487219D02*
X142823482Y-109487219D01*
X142823482Y-109487219D02*
X142728244Y-109439600D01*
D10*
X131814836Y-92820276D02*
X131814836Y-93153609D01*
X131814836Y-92867895D02*
X131838646Y-92844085D01*
X131838646Y-92844085D02*
X131886265Y-92820276D01*
X131886265Y-92820276D02*
X131957693Y-92820276D01*
X131957693Y-92820276D02*
X132005312Y-92844085D01*
X132005312Y-92844085D02*
X132029122Y-92891704D01*
X132029122Y-92891704D02*
X132029122Y-93153609D01*
X132267217Y-93153609D02*
X132267217Y-92820276D01*
X132267217Y-92915514D02*
X132291027Y-92867895D01*
X132291027Y-92867895D02*
X132314836Y-92844085D01*
X132314836Y-92844085D02*
X132362455Y-92820276D01*
X132362455Y-92820276D02*
X132410074Y-92820276D01*
X132552932Y-93129800D02*
X132600551Y-93153609D01*
X132600551Y-93153609D02*
X132695789Y-93153609D01*
X132695789Y-93153609D02*
X132743408Y-93129800D01*
X132743408Y-93129800D02*
X132767217Y-93082180D01*
X132767217Y-93082180D02*
X132767217Y-93058371D01*
X132767217Y-93058371D02*
X132743408Y-93010752D01*
X132743408Y-93010752D02*
X132695789Y-92986942D01*
X132695789Y-92986942D02*
X132624360Y-92986942D01*
X132624360Y-92986942D02*
X132576741Y-92963133D01*
X132576741Y-92963133D02*
X132552932Y-92915514D01*
X132552932Y-92915514D02*
X132552932Y-92891704D01*
X132552932Y-92891704D02*
X132576741Y-92844085D01*
X132576741Y-92844085D02*
X132624360Y-92820276D01*
X132624360Y-92820276D02*
X132695789Y-92820276D01*
X132695789Y-92820276D02*
X132743408Y-92844085D01*
X132910075Y-92820276D02*
X133100551Y-92820276D01*
X132981503Y-92653609D02*
X132981503Y-93082180D01*
X132981503Y-93082180D02*
X133005313Y-93129800D01*
X133005313Y-93129800D02*
X133052932Y-93153609D01*
X133052932Y-93153609D02*
X133100551Y-93153609D01*
X133291027Y-93129800D02*
X133291027Y-93153609D01*
X133291027Y-93153609D02*
X133267217Y-93201228D01*
X133267217Y-93201228D02*
X133243408Y-93225038D01*
X133481503Y-93129800D02*
X133529122Y-93153609D01*
X133529122Y-93153609D02*
X133624360Y-93153609D01*
X133624360Y-93153609D02*
X133671979Y-93129800D01*
X133671979Y-93129800D02*
X133695788Y-93082180D01*
X133695788Y-93082180D02*
X133695788Y-93058371D01*
X133695788Y-93058371D02*
X133671979Y-93010752D01*
X133671979Y-93010752D02*
X133624360Y-92986942D01*
X133624360Y-92986942D02*
X133552931Y-92986942D01*
X133552931Y-92986942D02*
X133505312Y-92963133D01*
X133505312Y-92963133D02*
X133481503Y-92915514D01*
X133481503Y-92915514D02*
X133481503Y-92891704D01*
X133481503Y-92891704D02*
X133505312Y-92844085D01*
X133505312Y-92844085D02*
X133552931Y-92820276D01*
X133552931Y-92820276D02*
X133624360Y-92820276D01*
X133624360Y-92820276D02*
X133671979Y-92844085D01*
X133862455Y-92820276D02*
X133957693Y-93153609D01*
X133957693Y-93153609D02*
X134052931Y-92915514D01*
X134052931Y-92915514D02*
X134148169Y-93153609D01*
X134148169Y-93153609D02*
X134243407Y-92820276D01*
X134505313Y-93153609D02*
X134457694Y-93129800D01*
X134457694Y-93129800D02*
X134433884Y-93105990D01*
X134433884Y-93105990D02*
X134410075Y-93058371D01*
X134410075Y-93058371D02*
X134410075Y-92915514D01*
X134410075Y-92915514D02*
X134433884Y-92867895D01*
X134433884Y-92867895D02*
X134457694Y-92844085D01*
X134457694Y-92844085D02*
X134505313Y-92820276D01*
X134505313Y-92820276D02*
X134576741Y-92820276D01*
X134576741Y-92820276D02*
X134624360Y-92844085D01*
X134624360Y-92844085D02*
X134648170Y-92867895D01*
X134648170Y-92867895D02*
X134671979Y-92915514D01*
X134671979Y-92915514D02*
X134671979Y-93058371D01*
X134671979Y-93058371D02*
X134648170Y-93105990D01*
X134648170Y-93105990D02*
X134624360Y-93129800D01*
X134624360Y-93129800D02*
X134576741Y-93153609D01*
X134576741Y-93153609D02*
X134505313Y-93153609D01*
X134910075Y-93129800D02*
X134910075Y-93153609D01*
X134910075Y-93153609D02*
X134886265Y-93201228D01*
X134886265Y-93201228D02*
X134862456Y-93225038D01*
X135100551Y-93129800D02*
X135148170Y-93153609D01*
X135148170Y-93153609D02*
X135243408Y-93153609D01*
X135243408Y-93153609D02*
X135291027Y-93129800D01*
X135291027Y-93129800D02*
X135314836Y-93082180D01*
X135314836Y-93082180D02*
X135314836Y-93058371D01*
X135314836Y-93058371D02*
X135291027Y-93010752D01*
X135291027Y-93010752D02*
X135243408Y-92986942D01*
X135243408Y-92986942D02*
X135171979Y-92986942D01*
X135171979Y-92986942D02*
X135124360Y-92963133D01*
X135124360Y-92963133D02*
X135100551Y-92915514D01*
X135100551Y-92915514D02*
X135100551Y-92891704D01*
X135100551Y-92891704D02*
X135124360Y-92844085D01*
X135124360Y-92844085D02*
X135171979Y-92820276D01*
X135171979Y-92820276D02*
X135243408Y-92820276D01*
X135243408Y-92820276D02*
X135291027Y-92844085D01*
X135481503Y-92820276D02*
X135576741Y-93153609D01*
X135576741Y-93153609D02*
X135671979Y-92915514D01*
X135671979Y-92915514D02*
X135767217Y-93153609D01*
X135767217Y-93153609D02*
X135862455Y-92820276D01*
X136267218Y-93129800D02*
X136219599Y-93153609D01*
X136219599Y-93153609D02*
X136124361Y-93153609D01*
X136124361Y-93153609D02*
X136076742Y-93129800D01*
X136076742Y-93129800D02*
X136052932Y-93105990D01*
X136052932Y-93105990D02*
X136029123Y-93058371D01*
X136029123Y-93058371D02*
X136029123Y-92915514D01*
X136029123Y-92915514D02*
X136052932Y-92867895D01*
X136052932Y-92867895D02*
X136076742Y-92844085D01*
X136076742Y-92844085D02*
X136124361Y-92820276D01*
X136124361Y-92820276D02*
X136219599Y-92820276D01*
X136219599Y-92820276D02*
X136267218Y-92844085D01*
X136552932Y-93153609D02*
X136505313Y-93129800D01*
X136505313Y-93129800D02*
X136481503Y-93082180D01*
X136481503Y-93082180D02*
X136481503Y-92653609D01*
X136743408Y-93153609D02*
X136743408Y-92653609D01*
X136791027Y-92963133D02*
X136933884Y-93153609D01*
X136933884Y-92820276D02*
X136743408Y-93010752D01*
X137171980Y-93129800D02*
X137171980Y-93153609D01*
X137171980Y-93153609D02*
X137148170Y-93201228D01*
X137148170Y-93201228D02*
X137124361Y-93225038D01*
X137362456Y-93129800D02*
X137410075Y-93153609D01*
X137410075Y-93153609D02*
X137505313Y-93153609D01*
X137505313Y-93153609D02*
X137552932Y-93129800D01*
X137552932Y-93129800D02*
X137576741Y-93082180D01*
X137576741Y-93082180D02*
X137576741Y-93058371D01*
X137576741Y-93058371D02*
X137552932Y-93010752D01*
X137552932Y-93010752D02*
X137505313Y-92986942D01*
X137505313Y-92986942D02*
X137433884Y-92986942D01*
X137433884Y-92986942D02*
X137386265Y-92963133D01*
X137386265Y-92963133D02*
X137362456Y-92915514D01*
X137362456Y-92915514D02*
X137362456Y-92891704D01*
X137362456Y-92891704D02*
X137386265Y-92844085D01*
X137386265Y-92844085D02*
X137433884Y-92820276D01*
X137433884Y-92820276D02*
X137505313Y-92820276D01*
X137505313Y-92820276D02*
X137552932Y-92844085D01*
X137743408Y-92820276D02*
X137838646Y-93153609D01*
X137838646Y-93153609D02*
X137933884Y-92915514D01*
X137933884Y-92915514D02*
X138029122Y-93153609D01*
X138029122Y-93153609D02*
X138124360Y-92820276D01*
X138529123Y-93153609D02*
X138529123Y-92653609D01*
X138529123Y-93129800D02*
X138481504Y-93153609D01*
X138481504Y-93153609D02*
X138386266Y-93153609D01*
X138386266Y-93153609D02*
X138338647Y-93129800D01*
X138338647Y-93129800D02*
X138314837Y-93105990D01*
X138314837Y-93105990D02*
X138291028Y-93058371D01*
X138291028Y-93058371D02*
X138291028Y-92915514D01*
X138291028Y-92915514D02*
X138314837Y-92867895D01*
X138314837Y-92867895D02*
X138338647Y-92844085D01*
X138338647Y-92844085D02*
X138386266Y-92820276D01*
X138386266Y-92820276D02*
X138481504Y-92820276D01*
X138481504Y-92820276D02*
X138529123Y-92844085D01*
X138767218Y-93153609D02*
X138767218Y-92820276D01*
X138767218Y-92653609D02*
X138743409Y-92677419D01*
X138743409Y-92677419D02*
X138767218Y-92701228D01*
X138767218Y-92701228D02*
X138791028Y-92677419D01*
X138791028Y-92677419D02*
X138767218Y-92653609D01*
X138767218Y-92653609D02*
X138767218Y-92701228D01*
X139076742Y-93153609D02*
X139029123Y-93129800D01*
X139029123Y-93129800D02*
X139005313Y-93105990D01*
X139005313Y-93105990D02*
X138981504Y-93058371D01*
X138981504Y-93058371D02*
X138981504Y-92915514D01*
X138981504Y-92915514D02*
X139005313Y-92867895D01*
X139005313Y-92867895D02*
X139029123Y-92844085D01*
X139029123Y-92844085D02*
X139076742Y-92820276D01*
X139076742Y-92820276D02*
X139148170Y-92820276D01*
X139148170Y-92820276D02*
X139195789Y-92844085D01*
X139195789Y-92844085D02*
X139219599Y-92867895D01*
X139219599Y-92867895D02*
X139243408Y-92915514D01*
X139243408Y-92915514D02*
X139243408Y-93058371D01*
X139243408Y-93058371D02*
X139219599Y-93105990D01*
X139219599Y-93105990D02*
X139195789Y-93129800D01*
X139195789Y-93129800D02*
X139148170Y-93153609D01*
X139148170Y-93153609D02*
X139076742Y-93153609D01*
D12*
%TO.C,R22*%
X125810000Y-93763641D02*
X125810000Y-93456359D01*
X126570000Y-93763641D02*
X126570000Y-93456359D01*
%TO.C,C18*%
X125230000Y-102502164D02*
X125230000Y-102717836D01*
X125950000Y-102502164D02*
X125950000Y-102717836D01*
%TO.C,R4*%
X132786359Y-109140000D02*
X133093641Y-109140000D01*
X132786359Y-109900000D02*
X133093641Y-109900000D01*
%TO.C,C11*%
X126487836Y-103940000D02*
X126272164Y-103940000D01*
X126487836Y-104660000D02*
X126272164Y-104660000D01*
%TO.C,C21*%
X135400000Y-94212164D02*
X135400000Y-94427836D01*
X136120000Y-94212164D02*
X136120000Y-94427836D01*
D10*
%TO.C,ANT1*%
X146210000Y-108220000D02*
X146210000Y-108220000D01*
X146210000Y-108220000D02*
X146210000Y-108220000D01*
X146310000Y-108220000D02*
X146310000Y-108220000D01*
D11*
X147810000Y-107420000D02*
X149810000Y-107420000D01*
X147810000Y-109020000D02*
X149810000Y-109020000D01*
D10*
X146210000Y-108220000D02*
G75*
G02*
X146310000Y-108220000I50000J0D01*
G01*
X146310000Y-108220000D02*
G75*
G02*
X146210000Y-108220000I-50000J0D01*
G01*
X146310000Y-108220000D02*
G75*
G02*
X146210000Y-108220000I-50000J0D01*
G01*
%TO.C,FL1*%
X142577000Y-108130000D02*
X142577000Y-108130000D01*
X142677000Y-108130000D02*
X142677000Y-108130000D01*
X142577000Y-108130000D02*
G75*
G02*
X142677000Y-108130000I50000J0D01*
G01*
X142677000Y-108130000D02*
G75*
G02*
X142577000Y-108130000I-50000J0D01*
G01*
%TO.C,Y1*%
X144370478Y-101119623D02*
X144370478Y-101119623D01*
X144441188Y-101190334D02*
X144441188Y-101190334D01*
X144370478Y-101119623D02*
G75*
G02*
X144441189Y-101190335I35355J-35356D01*
G01*
X144441188Y-101190334D02*
G75*
G02*
X144370478Y-101119624I-35355J35355D01*
G01*
D12*
%TO.C,R17*%
X129803641Y-107850000D02*
X129496359Y-107850000D01*
X129803641Y-108610000D02*
X129496359Y-108610000D01*
%TO.C,L2*%
X145380200Y-98680000D02*
X145179800Y-98680000D01*
X145380200Y-99400000D02*
X145179800Y-99400000D01*
%TO.C,J3*%
X139620000Y-91635000D02*
X139620000Y-94295000D01*
X147300000Y-91635000D02*
X139620000Y-91635000D01*
X147300000Y-91635000D02*
X147300000Y-94295000D01*
X147300000Y-94295000D02*
X139620000Y-94295000D01*
X149900000Y-92965000D02*
X149900000Y-94295000D01*
X149900000Y-94295000D02*
X148570000Y-94295000D01*
D13*
%TO.C,U2*%
X130273001Y-107386999D02*
X132627001Y-107386999D01*
X132627001Y-105032999D02*
X130273001Y-105032999D01*
D12*
%TO.C,C3*%
X131912164Y-107620000D02*
X132127836Y-107620000D01*
X131912164Y-108340000D02*
X132127836Y-108340000D01*
%TO.C,U1*%
X135072500Y-96295000D02*
X135072500Y-96060000D01*
X135072500Y-103040000D02*
X135072500Y-102565000D01*
X135547500Y-95820000D02*
X135372500Y-95820000D01*
X135547500Y-103040000D02*
X135072500Y-103040000D01*
X141817500Y-95820000D02*
X142292500Y-95820000D01*
X141817500Y-103040000D02*
X142292500Y-103040000D01*
X142292500Y-95820000D02*
X142292500Y-96295000D01*
X142292500Y-103040000D02*
X142292500Y-102565000D01*
X135072500Y-95820000D02*
X134832500Y-95490000D01*
X135312500Y-95490000D01*
X135072500Y-95820000D01*
G36*
X135072500Y-95820000D02*
G01*
X134832500Y-95490000D01*
X135312500Y-95490000D01*
X135072500Y-95820000D01*
G37*
D10*
%TO.C,IC1*%
X140630000Y-106147000D02*
X140630000Y-106147000D01*
X140630000Y-106247000D02*
X140630000Y-106247000D01*
X140630000Y-106147000D02*
G75*
G02*
X140630000Y-106247000I0J-50000D01*
G01*
X140630000Y-106247000D02*
G75*
G02*
X140630000Y-106147000I0J50000D01*
G01*
D12*
%TO.C,U4*%
X149457500Y-98800000D02*
X148657500Y-98800000D01*
X149457500Y-98800000D02*
X150257500Y-98800000D01*
X149457500Y-101920000D02*
X148657500Y-101920000D01*
X149457500Y-101920000D02*
X150257500Y-101920000D01*
X148157500Y-98850000D02*
X147917500Y-98520000D01*
X148397500Y-98520000D01*
X148157500Y-98850000D01*
G36*
X148157500Y-98850000D02*
G01*
X147917500Y-98520000D01*
X148397500Y-98520000D01*
X148157500Y-98850000D01*
G37*
%TO.C,R16*%
X124210000Y-102783641D02*
X124210000Y-102476359D01*
X124970000Y-102783641D02*
X124970000Y-102476359D01*
%TO.C,R8*%
X126680000Y-95633641D02*
X126680000Y-95326359D01*
X127440000Y-95633641D02*
X127440000Y-95326359D01*
D10*
%TO.C,BT1*%
X119830001Y-97740000D02*
G75*
G02*
X124025302Y-100072624I2039999J-1270000D01*
G01*
X122923662Y-101167497D02*
G75*
G02*
X120620000Y-101059999I-1053662J2157497D01*
G01*
D14*
%TO.C,IC3*%
X134065000Y-108575000D02*
G75*
G02*
X133815000Y-108575000I-125000J0D01*
G01*
X133815000Y-108575000D02*
G75*
G02*
X134065000Y-108575000I125000J0D01*
G01*
D12*
%TO.C,C26*%
X134410000Y-94212164D02*
X134410000Y-94427836D01*
X135130000Y-94212164D02*
X135130000Y-94427836D01*
%TO.C,R12*%
X133533641Y-103670000D02*
X133226359Y-103670000D01*
X133533641Y-104430000D02*
X133226359Y-104430000D01*
D11*
%TO.C,S1*%
X121030000Y-93765000D02*
X121030000Y-93765000D01*
X121030000Y-93765000D02*
X121030000Y-94265000D01*
X121030000Y-94265000D02*
X121030000Y-93765000D01*
X121030000Y-94265000D02*
X121030000Y-94265000D01*
X121030000Y-94290000D02*
X121030000Y-94290000D01*
X121030000Y-94290000D02*
X121280000Y-94290000D01*
X121280000Y-94290000D02*
X121030000Y-94290000D01*
X121280000Y-94290000D02*
X121280000Y-94290000D01*
X122530000Y-91740000D02*
X122530000Y-91740000D01*
X122530000Y-91740000D02*
X124030000Y-91740000D01*
X124030000Y-91740000D02*
X122530000Y-91740000D01*
X124030000Y-91740000D02*
X124030000Y-91740000D01*
X125280000Y-94290000D02*
X125280000Y-94290000D01*
X125280000Y-94290000D02*
X125530000Y-94290000D01*
X125530000Y-93765000D02*
X125530000Y-93765000D01*
X125530000Y-93765000D02*
X125530000Y-94290000D01*
X125530000Y-94290000D02*
X125280000Y-94290000D01*
X125530000Y-94290000D02*
X125530000Y-93765000D01*
X125530000Y-94290000D02*
X125530000Y-94290000D01*
X125530000Y-94290000D02*
X125530000Y-94290000D01*
D12*
%TO.C,R9*%
X131230000Y-95066359D02*
X131230000Y-95373641D01*
X131990000Y-95066359D02*
X131990000Y-95373641D01*
%TO.C,C23*%
X142127836Y-103730000D02*
X141912164Y-103730000D01*
X142127836Y-104450000D02*
X141912164Y-104450000D01*
%TO.C,L1*%
X144280378Y-97140000D02*
X145079622Y-97140000D01*
X144280378Y-98260000D02*
X145079622Y-98260000D01*
%TO.C,R6*%
X127813641Y-105850000D02*
X127506359Y-105850000D01*
X127813641Y-106610000D02*
X127506359Y-106610000D01*
%TO.C,R10*%
X124100000Y-95736359D02*
X124100000Y-96043641D01*
X124860000Y-95736359D02*
X124860000Y-96043641D01*
%TO.C,C6*%
X132240000Y-95337836D02*
X132240000Y-95122164D01*
X132960000Y-95337836D02*
X132960000Y-95122164D01*
%TO.C,R7*%
X123110000Y-96053641D02*
X123110000Y-95746359D01*
X123870000Y-96053641D02*
X123870000Y-95746359D01*
%TO.C,C17*%
X133222164Y-99230000D02*
X133437836Y-99230000D01*
X133222164Y-99950000D02*
X133437836Y-99950000D01*
%TO.C,R15*%
X148400000Y-103816359D02*
X148400000Y-104123641D01*
X149160000Y-103816359D02*
X149160000Y-104123641D01*
%TO.C,R13*%
X136360000Y-94463641D02*
X136360000Y-94156359D01*
X137120000Y-94463641D02*
X137120000Y-94156359D01*
%TO.C,C8*%
X124870000Y-100017836D02*
X124870000Y-99802164D01*
X125590000Y-100017836D02*
X125590000Y-99802164D01*
%TO.C,R11*%
X133116359Y-102680000D02*
X133423641Y-102680000D01*
X133116359Y-103440000D02*
X133423641Y-103440000D01*
%TO.C,R3*%
X131316359Y-104000000D02*
X131623641Y-104000000D01*
X131316359Y-104760000D02*
X131623641Y-104760000D01*
%TO.C,C5*%
X137460000Y-105852164D02*
X137460000Y-106067836D01*
X138180000Y-105852164D02*
X138180000Y-106067836D01*
D10*
%TO.C,D1*%
X129260000Y-105730000D02*
G75*
G02*
X129160000Y-105730000I-50000J0D01*
G01*
X129160000Y-105730000D02*
G75*
G02*
X129260000Y-105730000I50000J0D01*
G01*
D12*
%TO.C,R14*%
X148370000Y-97593641D02*
X148370000Y-97286359D01*
X149130000Y-97593641D02*
X149130000Y-97286359D01*
%TO.C,C15*%
X133042164Y-101150000D02*
X133257836Y-101150000D01*
X133042164Y-101870000D02*
X133257836Y-101870000D01*
D11*
%TO.C,S3*%
X120645000Y-102000000D02*
X122645000Y-102000000D01*
X120645000Y-104600000D02*
X122645000Y-104600000D01*
D12*
%TO.C,C14*%
X120470000Y-95707836D02*
X120470000Y-95492164D01*
X121190000Y-95707836D02*
X121190000Y-95492164D01*
%TO.C,R5*%
X131193641Y-109150000D02*
X130886359Y-109150000D01*
X131193641Y-109910000D02*
X130886359Y-109910000D01*
%TO.C,C4*%
X134967836Y-109140000D02*
X134752164Y-109140000D01*
X134967836Y-109860000D02*
X134752164Y-109860000D01*
%TO.C,C7*%
X125110000Y-95917836D02*
X125110000Y-95702164D01*
X125830000Y-95917836D02*
X125830000Y-95702164D01*
%TO.C,C1*%
X143340000Y-99617836D02*
X143340000Y-99402164D01*
X144060000Y-99617836D02*
X144060000Y-99402164D01*
D11*
%TO.C,S2*%
X127030000Y-93715000D02*
X127030000Y-93715000D01*
X127030000Y-93715000D02*
X127030000Y-94215000D01*
X127030000Y-94215000D02*
X127030000Y-93715000D01*
X127030000Y-94215000D02*
X127030000Y-94215000D01*
X127030000Y-94240000D02*
X127030000Y-94240000D01*
X127030000Y-94240000D02*
X127280000Y-94240000D01*
X127280000Y-94240000D02*
X127030000Y-94240000D01*
X127280000Y-94240000D02*
X127280000Y-94240000D01*
X128530000Y-91690000D02*
X128530000Y-91690000D01*
X128530000Y-91690000D02*
X130030000Y-91690000D01*
X130030000Y-91690000D02*
X128530000Y-91690000D01*
X130030000Y-91690000D02*
X130030000Y-91690000D01*
X131280000Y-94240000D02*
X131280000Y-94240000D01*
X131280000Y-94240000D02*
X131530000Y-94240000D01*
X131530000Y-93715000D02*
X131530000Y-93715000D01*
X131530000Y-93715000D02*
X131530000Y-94240000D01*
X131530000Y-94240000D02*
X131280000Y-94240000D01*
X131530000Y-94240000D02*
X131530000Y-93715000D01*
X131530000Y-94240000D02*
X131530000Y-94240000D01*
X131530000Y-94240000D02*
X131530000Y-94240000D01*
D12*
%TO.C,R18*%
X129233641Y-109130000D02*
X128926359Y-109130000D01*
X129233641Y-109890000D02*
X128926359Y-109890000D01*
%TO.C,C16*%
X133052164Y-100200000D02*
X133267836Y-100200000D01*
X133052164Y-100920000D02*
X133267836Y-100920000D01*
%TD*%
M02*
