%TF.GenerationSoftware,KiCad,Pcbnew,10.0.0*%
%TF.CreationDate,2026-07-01T11:39:08+02:00*%
%TF.ProjectId,custom_screen,63757374-6f6d-45f7-9363-7265656e2e6b,rev?*%
%TF.SameCoordinates,Original*%
%TF.FileFunction,Copper,L2,Bot*%
%TF.FilePolarity,Positive*%
%FSLAX46Y46*%
G04 Gerber Fmt 4.6, Leading zero omitted, Abs format (unit mm)*
G04 Created by KiCad (PCBNEW 10.0.0) date 2026-07-01 11:39:08*
%MOMM*%
%LPD*%
G01*
G04 APERTURE LIST*
G04 Aperture macros list*
%AMRoundRect*
0 Rectangle with rounded corners*
0 $1 Rounding radius*
0 $2 $3 $4 $5 $6 $7 $8 $9 X,Y pos of 4 corners*
0 Add a 4 corners polygon primitive as box body*
4,1,4,$2,$3,$4,$5,$6,$7,$8,$9,$2,$3,0*
0 Add four circle primitives for the rounded corners*
1,1,$1+$1,$2,$3*
1,1,$1+$1,$4,$5*
1,1,$1+$1,$6,$7*
1,1,$1+$1,$8,$9*
0 Add four rect primitives between the rounded corners*
20,1,$1+$1,$2,$3,$4,$5,0*
20,1,$1+$1,$4,$5,$6,$7,0*
20,1,$1+$1,$6,$7,$8,$9,0*
20,1,$1+$1,$8,$9,$2,$3,0*%
G04 Aperture macros list end*
%TA.AperFunction,SMDPad,CuDef*%
%ADD10R,1.250000X0.600000*%
%TD*%
%TA.AperFunction,SMDPad,CuDef*%
%ADD11RoundRect,0.100000X-0.130000X-0.100000X0.130000X-0.100000X0.130000X0.100000X-0.130000X0.100000X0*%
%TD*%
%TA.AperFunction,SMDPad,CuDef*%
%ADD12RoundRect,0.100000X0.130000X0.100000X-0.130000X0.100000X-0.130000X-0.100000X0.130000X-0.100000X0*%
%TD*%
%TA.AperFunction,SMDPad,CuDef*%
%ADD13R,1.000000X1.000000*%
%TD*%
%TA.AperFunction,SMDPad,CuDef*%
%ADD14R,3.000000X0.350000*%
%TD*%
%TA.AperFunction,ComponentPad*%
%ADD15R,1.700000X1.700000*%
%TD*%
%TA.AperFunction,ComponentPad*%
%ADD16C,1.700000*%
%TD*%
%TA.AperFunction,SMDPad,CuDef*%
%ADD17RoundRect,0.140000X-0.170000X0.140000X-0.170000X-0.140000X0.170000X-0.140000X0.170000X0.140000X0*%
%TD*%
%TA.AperFunction,SMDPad,CuDef*%
%ADD18R,1.000000X0.500000*%
%TD*%
%TA.AperFunction,SMDPad,CuDef*%
%ADD19R,1.700000X1.200000*%
%TD*%
%TA.AperFunction,SMDPad,CuDef*%
%ADD20RoundRect,0.100000X-0.100000X0.130000X-0.100000X-0.130000X0.100000X-0.130000X0.100000X0.130000X0*%
%TD*%
%TA.AperFunction,SMDPad,CuDef*%
%ADD21RoundRect,0.140000X-0.140000X-0.170000X0.140000X-0.170000X0.140000X0.170000X-0.140000X0.170000X0*%
%TD*%
%TA.AperFunction,SMDPad,CuDef*%
%ADD22R,0.400000X0.700000*%
%TD*%
%TA.AperFunction,SMDPad,CuDef*%
%ADD23RoundRect,0.100000X0.100000X-0.130000X0.100000X0.130000X-0.100000X0.130000X-0.100000X-0.130000X0*%
%TD*%
%TA.AperFunction,SMDPad,CuDef*%
%ADD24RoundRect,0.140000X0.170000X-0.140000X0.170000X0.140000X-0.170000X0.140000X-0.170000X-0.140000X0*%
%TD*%
%TA.AperFunction,SMDPad,CuDef*%
%ADD25R,0.470000X0.550000*%
%TD*%
%TA.AperFunction,SMDPad,CuDef*%
%ADD26R,0.700000X0.400000*%
%TD*%
%TA.AperFunction,ViaPad*%
%ADD27C,0.500000*%
%TD*%
%TA.AperFunction,Conductor*%
%ADD28C,0.140000*%
%TD*%
%TA.AperFunction,Conductor*%
%ADD29C,0.400000*%
%TD*%
%TA.AperFunction,Conductor*%
%ADD30C,0.300000*%
%TD*%
%TA.AperFunction,Conductor*%
%ADD31C,0.160000*%
%TD*%
G04 APERTURE END LIST*
D10*
%TO.P,IC2,1,VCC_1*%
%TO.N,+3.3V*%
X135775000Y-118190000D03*
%TO.P,IC2,2,OUT_2*%
%TO.N,Net-(IC2-OUT)*%
X135775000Y-120090000D03*
%TO.P,IC2,3,GND_3*%
%TO.N,GND*%
X133675000Y-119140000D03*
%TD*%
D11*
%TO.P,R14,1*%
%TO.N,/GPIO3*%
X132800000Y-120140000D03*
%TO.P,R14,2*%
%TO.N,Net-(IC2-OUT)*%
X133440000Y-120140000D03*
%TD*%
D12*
%TO.P,C20,1*%
%TO.N,+3.3V*%
X133440000Y-118140000D03*
%TO.P,C20,2*%
%TO.N,GND*%
X132800000Y-118140000D03*
%TD*%
D13*
%TO.P,IC1,1,GND_1*%
%TO.N,GND*%
X146125000Y-118190000D03*
%TO.P,IC1,2,VDD_2*%
%TO.N,+3.3V*%
X146125000Y-120190000D03*
%TO.P,IC1,3,SCL_3*%
%TO.N,/SCL*%
X144125000Y-120190000D03*
%TO.P,IC1,4,SDA_4*%
%TO.N,/SDA*%
X144125000Y-118190000D03*
%TD*%
D14*
%TO.P,U2,1,C2P_1*%
%TO.N,Net-(U2-C2P)*%
X150050000Y-105440000D03*
%TO.P,U2,2,C2N_2*%
%TO.N,Net-(U2-C2N)*%
X150050000Y-106090000D03*
%TO.P,U2,3,C1P_3*%
%TO.N,Net-(U2-C1P)*%
X150050000Y-106740000D03*
%TO.P,U2,4,C1N_4*%
%TO.N,Net-(U2-C1N)*%
X150050000Y-107390000D03*
%TO.P,U2,5,VBAT_5*%
%TO.N,+3.3V*%
X150050000Y-108040000D03*
%TO.P,U2,6,VSS_6*%
%TO.N,unconnected-(U2-VSS-Pad6)*%
X150050000Y-108690000D03*
%TO.P,U2,7,VDD_7*%
%TO.N,+3.3V*%
X150050000Y-109340000D03*
%TO.P,U2,8,BS1_8*%
X150050000Y-109990000D03*
%TO.P,U2,9,CS_9*%
%TO.N,GND*%
X150050000Y-110640000D03*
%TO.P,U2,10,RES_10*%
%TO.N,Net-(D4-A)*%
X150050000Y-111290000D03*
%TO.P,U2,11,DC_11*%
%TO.N,GND*%
X150050000Y-111940000D03*
%TO.P,U2,12,D0_12*%
%TO.N,/SCL*%
X150050000Y-112590000D03*
%TO.P,U2,13,D1_13*%
%TO.N,/SDA*%
X150050000Y-113240000D03*
%TO.P,U2,14,D2_14*%
X150050000Y-113890000D03*
%TO.P,U2,15,VCOMH_15*%
%TO.N,Net-(U2-VCOMH)*%
X150050000Y-114540000D03*
%TO.P,U2,16,VCC_16*%
%TO.N,Net-(U2-VCC)*%
X150050000Y-115190000D03*
%TD*%
D15*
%TO.P,U5,1,GND_1*%
%TO.N,GND*%
X141500000Y-106500000D03*
D16*
%TO.P,U5,2,VCC_2*%
%TO.N,+3.3V*%
X141500000Y-109040000D03*
%TO.P,U5,3,SCK_3*%
%TO.N,/SCL*%
X141500000Y-111580000D03*
%TO.P,U5,4,SDA_4*%
%TO.N,/SDA*%
X141500000Y-114120000D03*
%TO.P,U5,5,SUP_1_5*%
%TO.N,GND*%
X155500000Y-105810000D03*
%TO.P,U5,6,SUP_2_6*%
%TO.N,/GPIO1*%
X155500000Y-114810000D03*
%TD*%
D17*
%TO.P,C7,1*%
%TO.N,Net-(U1-VCC)*%
X135400000Y-107320000D03*
%TO.P,C7,2*%
%TO.N,GND*%
X135400000Y-108280000D03*
%TD*%
D18*
%TO.P,J2,1,1_1*%
%TO.N,/SDA*%
X125110000Y-111900000D03*
%TO.P,J2,2,2_2*%
%TO.N,/SCL*%
X125110000Y-111100000D03*
%TO.P,J2,3,3_3*%
%TO.N,GND*%
X125110000Y-110300000D03*
%TO.P,J2,4,4_4*%
%TO.N,Net-(D1-K)*%
X125110000Y-109500000D03*
%TO.P,J2,5,5_5*%
%TO.N,+3.3V*%
X125110000Y-108700000D03*
D19*
%TO.P,J2,6,MP_1_6*%
%TO.N,GND*%
X123160000Y-113200000D03*
%TO.P,J2,7,MP_2_7*%
X123160000Y-107400000D03*
%TD*%
D20*
%TO.P,R4,1*%
%TO.N,+3.3V*%
X133350000Y-104730000D03*
%TO.P,R4,2*%
%TO.N,/SDA*%
X133350000Y-105370000D03*
%TD*%
%TO.P,R7,1*%
%TO.N,+3.3V*%
X128850000Y-105735000D03*
%TO.P,R7,2*%
%TO.N,Net-(D9-A)*%
X128850000Y-106375000D03*
%TD*%
D21*
%TO.P,C11,1*%
%TO.N,Net-(U1-VCOMH)*%
X134520000Y-104850000D03*
%TO.P,C11,2*%
%TO.N,GND*%
X135480000Y-104850000D03*
%TD*%
D11*
%TO.P,R6,1*%
%TO.N,Net-(U1-IREF)*%
X133830000Y-108350000D03*
%TO.P,R6,2*%
%TO.N,GND*%
X134470000Y-108350000D03*
%TD*%
D22*
%TO.P,D8,1,K_1*%
%TO.N,/SCL*%
X131800000Y-106250000D03*
%TO.P,D8,2,A_2*%
%TO.N,GND*%
X132500000Y-106250000D03*
%TD*%
D20*
%TO.P,C22,1*%
%TO.N,/GPIO2*%
X126450000Y-104830000D03*
%TO.P,C22,2*%
%TO.N,GND*%
X126450000Y-105470000D03*
%TD*%
D23*
%TO.P,R12,1*%
%TO.N,Net-(D1-K)*%
X125750000Y-105470000D03*
%TO.P,R12,2*%
%TO.N,/GPIO2*%
X125750000Y-104830000D03*
%TD*%
D24*
%TO.P,C12,1*%
%TO.N,Net-(D9-A)*%
X130850000Y-106230000D03*
%TO.P,C12,2*%
%TO.N,GND*%
X130850000Y-105270000D03*
%TD*%
D25*
%TO.P,D9,1,K_1*%
%TO.N,+3.3V*%
X129800000Y-104850000D03*
%TO.P,D9,2,A_2*%
%TO.N,Net-(D9-A)*%
X129800000Y-106450000D03*
%TD*%
D11*
%TO.P,C9,1*%
%TO.N,Net-(U1-C2P)*%
X126110000Y-107550000D03*
%TO.P,C9,2*%
%TO.N,Net-(U1-C2N)*%
X126750000Y-107550000D03*
%TD*%
D22*
%TO.P,D7,1,K_1*%
%TO.N,/SDA*%
X134150000Y-106250000D03*
%TO.P,D7,2,A_2*%
%TO.N,GND*%
X133450000Y-106250000D03*
%TD*%
D15*
%TO.P,U4,1,GND_1*%
%TO.N,GND*%
X137600000Y-106490000D03*
D16*
%TO.P,U4,2,VCC_2*%
%TO.N,+3.3V*%
X137600000Y-109030000D03*
%TO.P,U4,3,SCK_3*%
%TO.N,/SCL*%
X137600000Y-111570000D03*
%TO.P,U4,4,SDA_4*%
%TO.N,/SDA*%
X137600000Y-114110000D03*
%TO.P,U4,5,SUP_1_5*%
%TO.N,GND*%
X123600000Y-105800000D03*
%TO.P,U4,6,SUP_2_6*%
%TO.N,/GPIO2*%
X123600000Y-114800000D03*
%TD*%
D11*
%TO.P,C10,1*%
%TO.N,Net-(U1-C1P)*%
X127530000Y-107550000D03*
%TO.P,C10,2*%
%TO.N,Net-(U1-C1N)*%
X128170000Y-107550000D03*
%TD*%
D23*
%TO.P,C8,1*%
%TO.N,Net-(U1-VCC)*%
X135550000Y-106420000D03*
%TO.P,C8,2*%
%TO.N,GND*%
X135550000Y-105780000D03*
%TD*%
D20*
%TO.P,R5,1*%
%TO.N,+3.3V*%
X132650000Y-104730000D03*
%TO.P,R5,2*%
%TO.N,/SCL*%
X132650000Y-105370000D03*
%TD*%
D26*
%TO.P,D1,1,K_1*%
%TO.N,Net-(D1-K)*%
X127350000Y-105760000D03*
%TO.P,D1,2,A_2*%
%TO.N,GND*%
X127350000Y-105060000D03*
%TD*%
D27*
%TO.N,GND*%
X140750000Y-118215000D03*
X132550000Y-118890000D03*
X133675000Y-119140000D03*
X137775000Y-117840000D03*
X145125000Y-119115000D03*
X138925000Y-118340000D03*
X135475000Y-118990000D03*
X140025000Y-120340000D03*
X141875000Y-120490000D03*
X146125000Y-118190000D03*
X136775000Y-119140000D03*
X143100000Y-118240000D03*
X133300000Y-120765000D03*
%TO.N,+3.3V*%
X134425000Y-120290000D03*
X146125000Y-120190000D03*
%TO.N,/SDA*%
X144125000Y-118190000D03*
%TO.N,/SCL*%
X144125000Y-120190000D03*
%TO.N,/GPIO3*%
X132275000Y-120565000D03*
%TO.N,Net-(U2-VCC)*%
X149500000Y-115200000D03*
X150500000Y-115200000D03*
%TO.N,GND*%
X142400000Y-115700000D03*
%TO.N,Net-(U2-C2N)*%
X149900000Y-106100000D03*
%TO.N,/GPIO1*%
X154050000Y-105850000D03*
%TO.N,Net-(U2-C1N)*%
X152300000Y-106550000D03*
%TO.N,/SDA*%
X154000000Y-111890000D03*
%TO.N,Net-(U2-C1P)*%
X150350000Y-106750000D03*
%TO.N,/SCL*%
X154000000Y-111090000D03*
%TO.N,Net-(U2-C2P)*%
X151900000Y-105300000D03*
%TO.N,Net-(U2-VCOMH)*%
X151150000Y-114550000D03*
%TO.N,GND*%
X155950000Y-107390000D03*
X142400000Y-110525000D03*
X140900000Y-112850000D03*
X155950000Y-113190000D03*
X143150000Y-112825000D03*
X140900000Y-110250000D03*
X147950000Y-111750000D03*
X151200000Y-104850000D03*
X143400000Y-106850000D03*
X152000000Y-115700000D03*
%TO.N,Net-(U2-VCOMH)*%
X148800000Y-114550000D03*
%TO.N,GND*%
X152850000Y-107000000D03*
X147900000Y-104950000D03*
X154050000Y-104850000D03*
X154350000Y-107650000D03*
%TO.N,+3.3V*%
X148000000Y-107800000D03*
X148000000Y-106550000D03*
%TO.N,GND*%
X145625000Y-106475000D03*
%TO.N,+3.3V*%
X154000000Y-108690000D03*
%TO.N,GND*%
X144150000Y-111750000D03*
X152000000Y-113800000D03*
X146100000Y-115700000D03*
X148050000Y-110450000D03*
X140900000Y-107700000D03*
X153050000Y-110150000D03*
X156200000Y-110125000D03*
X148050000Y-113550000D03*
X143950000Y-113800000D03*
X152000000Y-111600000D03*
%TO.N,Net-(D4-A)*%
X150050000Y-111290000D03*
%TO.N,GND*%
X143200000Y-104850000D03*
X144700000Y-110550000D03*
X154475000Y-112750000D03*
%TO.N,Net-(U1-IREF)*%
X133750000Y-109350000D03*
%TO.N,GND*%
X138100000Y-112800000D03*
X127050000Y-113450000D03*
%TO.N,+3.3V*%
X130950000Y-108300000D03*
X130950000Y-109550000D03*
%TO.N,GND*%
X130250000Y-108300000D03*
X125050000Y-110300000D03*
%TO.N,/SCL*%
X125110000Y-111100000D03*
%TO.N,+3.3V*%
X128850000Y-108300000D03*
%TO.N,/SDA*%
X125110000Y-111900000D03*
%TO.N,GND*%
X130100000Y-110400000D03*
X136200000Y-104850000D03*
%TO.N,Net-(U1-C1N)*%
X128170000Y-108150000D03*
%TO.N,GND*%
X135100000Y-113400000D03*
X138200000Y-104950000D03*
X123100000Y-107400000D03*
X138100000Y-115450000D03*
X132200000Y-111700000D03*
X132950000Y-106250000D03*
X136500000Y-115600000D03*
X130200000Y-105700000D03*
X125000000Y-115600000D03*
%TO.N,Net-(U1-VCOMH)*%
X134450000Y-107250000D03*
%TO.N,GND*%
X136050000Y-108510000D03*
%TO.N,Net-(U1-C2P)*%
X126050000Y-108150000D03*
%TO.N,GND*%
X136300000Y-106350000D03*
X127400000Y-106385000D03*
X125000000Y-112750000D03*
%TO.N,/SCL*%
X132350000Y-108300000D03*
%TO.N,GND*%
X138150000Y-110300000D03*
X127975000Y-104800000D03*
X131550000Y-105300000D03*
X126300000Y-110450000D03*
X138100000Y-107750000D03*
%TO.N,Net-(D9-A)*%
X131650000Y-108300000D03*
%TO.N,Net-(U1-C1P)*%
X127450000Y-108150000D03*
%TO.N,GND*%
X123100000Y-113200000D03*
%TO.N,/SDA*%
X133050000Y-108300000D03*
%TO.N,Net-(U1-VCC)*%
X136000000Y-107750000D03*
%TO.N,Net-(U1-C2N)*%
X126750000Y-108150000D03*
%TO.N,/GPIO2*%
X125100000Y-105100000D03*
%TO.N,Net-(D1-K)*%
X125110000Y-109500000D03*
%TO.N,GND*%
X123250000Y-110200000D03*
%TO.N,Net-(D1-K)*%
X125650000Y-106300000D03*
%TD*%
%TO.N,GND*%
D28*
X143260000Y-119115000D02*
X143100000Y-118955000D01*
X146125000Y-118190000D02*
X146050000Y-118190000D01*
X143100000Y-118955000D02*
X143100000Y-118240000D01*
X145125000Y-119115000D02*
X143260000Y-119115000D01*
X146050000Y-118190000D02*
X145125000Y-119115000D01*
%TO.N,+3.3V*%
D29*
X134650000Y-118715000D02*
X134650000Y-119665000D01*
X134825000Y-118190000D02*
X135775000Y-118190000D01*
X133440000Y-118140000D02*
X134775000Y-118140000D01*
X134725000Y-118640000D02*
X134650000Y-118715000D01*
D30*
X145175000Y-121140000D02*
X139825000Y-121140000D01*
D29*
X134425000Y-119890000D02*
X134425000Y-120290000D01*
X134775000Y-118140000D02*
X134825000Y-118190000D01*
D30*
X139825000Y-121140000D02*
X136875000Y-118190000D01*
D29*
X134650000Y-119665000D02*
X134425000Y-119890000D01*
D30*
X146125000Y-120190000D02*
X145175000Y-121140000D01*
X136875000Y-118190000D02*
X135775000Y-118190000D01*
D29*
X134725000Y-118190000D02*
X134725000Y-118640000D01*
%TO.N,/GPIO3*%
D31*
X132425000Y-120140000D02*
X132800000Y-120140000D01*
X132275000Y-120290000D02*
X132425000Y-120140000D01*
X132275000Y-120565000D02*
X132275000Y-120290000D01*
%TO.N,Net-(IC2-OUT)*%
X134105000Y-120770000D02*
X133475000Y-120140000D01*
X135295000Y-120770000D02*
X134105000Y-120770000D01*
X135775000Y-120290000D02*
X135295000Y-120770000D01*
X133475000Y-120140000D02*
X133440000Y-120140000D01*
X135775000Y-120090000D02*
X135775000Y-120290000D01*
%TO.N,/SCL*%
X143425000Y-112350000D02*
X142655000Y-111580000D01*
X142655000Y-111580000D02*
X141500000Y-111580000D01*
X151860000Y-112590000D02*
X153360000Y-111090000D01*
%TO.N,/SDA*%
X150050000Y-113240000D02*
X148418823Y-113240000D01*
X148126250Y-112950000D02*
X143800000Y-112950000D01*
X154000000Y-111890000D02*
X153560000Y-111890000D01*
D30*
X150050000Y-113890000D02*
X150050000Y-113240000D01*
D31*
X148246250Y-113070000D02*
X148126250Y-112950000D01*
X148248823Y-113070000D02*
X148246250Y-113070000D01*
%TO.N,/GPIO1*%
X154050000Y-106500000D02*
X154050000Y-105850000D01*
%TO.N,/SCL*%
X153360000Y-111090000D02*
X154000000Y-111090000D01*
X148205000Y-112350000D02*
X143425000Y-112350000D01*
X150050000Y-112590000D02*
X148445000Y-112590000D01*
%TO.N,/GPIO1*%
X155500000Y-114810000D02*
X155450000Y-114760000D01*
X155450000Y-107900000D02*
X154050000Y-106500000D01*
X155450000Y-114760000D02*
X155450000Y-107900000D01*
%TO.N,Net-(U2-C1P)*%
D30*
X150050000Y-106740000D02*
X150340000Y-106740000D01*
%TO.N,Net-(U2-C1N)*%
X150050000Y-107390000D02*
X151710000Y-107390000D01*
X152300000Y-106800000D02*
X152300000Y-106550000D01*
X151710000Y-107390000D02*
X152300000Y-106800000D01*
%TO.N,Net-(U2-C2P)*%
X151750000Y-105300000D02*
X151610000Y-105440000D01*
%TO.N,/SDA*%
D31*
X148418823Y-113240000D02*
X148248823Y-113070000D01*
X153560000Y-111890000D02*
X152210000Y-113240000D01*
X152210000Y-113240000D02*
X150050000Y-113240000D01*
%TO.N,/SCL*%
X150050000Y-112590000D02*
X151860000Y-112590000D01*
%TO.N,Net-(U2-C1P)*%
D30*
X150340000Y-106740000D02*
X150350000Y-106750000D01*
%TO.N,Net-(U2-C2P)*%
X151610000Y-105440000D02*
X150050000Y-105440000D01*
%TO.N,/SDA*%
D31*
X142630000Y-114120000D02*
X141500000Y-114120000D01*
%TO.N,/SCL*%
X148445000Y-112590000D02*
X148205000Y-112350000D01*
%TO.N,/SDA*%
X143800000Y-112950000D02*
X142630000Y-114120000D01*
%TO.N,Net-(U2-C2P)*%
D30*
X151900000Y-105300000D02*
X151750000Y-105300000D01*
%TO.N,/GPIO2*%
D31*
X125100000Y-105100000D02*
X125370000Y-104830000D01*
X126450000Y-104830000D02*
X125750000Y-104830000D01*
%TO.N,Net-(D1-K)*%
X127350000Y-105760000D02*
X127175000Y-105760000D01*
%TO.N,Net-(D9-A)*%
X130850000Y-106230000D02*
X130880000Y-106230000D01*
%TO.N,Net-(U1-VCC)*%
D30*
X135550000Y-107170000D02*
X135400000Y-107320000D01*
%TO.N,Net-(D1-K)*%
D31*
X127175000Y-105760000D02*
X126535000Y-106400000D01*
X126535000Y-106400000D02*
X125750000Y-106400000D01*
X125750000Y-106400000D02*
X125650000Y-106300000D01*
%TO.N,/GPIO2*%
X125370000Y-104830000D02*
X125750000Y-104830000D01*
%TO.N,Net-(U1-VCC)*%
D30*
X135830000Y-107750000D02*
X135400000Y-107320000D01*
%TO.N,Net-(U1-VCOMH)*%
X134520000Y-104850000D02*
X134520000Y-105480000D01*
X134520000Y-105480000D02*
X134500000Y-105500000D01*
%TO.N,Net-(U1-IREF)*%
X133830000Y-109270000D02*
X133750000Y-109350000D01*
%TO.N,Net-(D9-A)*%
D31*
X130880000Y-106230000D02*
X131300000Y-106650000D01*
X129425000Y-106375000D02*
X129500000Y-106450000D01*
X131300000Y-106950000D02*
X131650000Y-107300000D01*
X130550000Y-106450000D02*
X129800000Y-106450000D01*
%TO.N,Net-(U1-VCOMH)*%
D30*
X134450000Y-107250000D02*
X134750000Y-106950000D01*
%TO.N,Net-(D1-K)*%
D31*
X125650000Y-106300000D02*
X125750000Y-106200000D01*
%TO.N,Net-(U1-IREF)*%
D30*
X133830000Y-108350000D02*
X133830000Y-109270000D01*
%TO.N,Net-(U1-VCC)*%
X135550000Y-106420000D02*
X135550000Y-107170000D01*
X136000000Y-107750000D02*
X135830000Y-107750000D01*
%TO.N,/SCL*%
D31*
X131800000Y-106250000D02*
X131800000Y-105900000D01*
%TO.N,Net-(D9-A)*%
X129500000Y-106450000D02*
X129800000Y-106450000D01*
%TO.N,/SCL*%
X132330000Y-105370000D02*
X132650000Y-105370000D01*
X131800000Y-106650000D02*
X132350000Y-107200000D01*
%TO.N,Net-(U1-C1N)*%
D30*
X128170000Y-108150000D02*
X128170000Y-107450000D01*
%TO.N,/SDA*%
D31*
X134150000Y-105800000D02*
X133720000Y-105370000D01*
%TO.N,/SCL*%
X132350000Y-107200000D02*
X132350000Y-108300000D01*
%TO.N,Net-(U1-VCOMH)*%
D30*
X134750000Y-106950000D02*
X134750000Y-105750000D01*
%TO.N,/SCL*%
D31*
X131800000Y-106250000D02*
X131800000Y-106650000D01*
X125110000Y-111100000D02*
X130550000Y-111100000D01*
%TO.N,Net-(U1-C1P)*%
D30*
X127450000Y-108150000D02*
X127450000Y-107950000D01*
%TO.N,/SCL*%
D31*
X137620000Y-111590000D02*
X137600000Y-111570000D01*
X132350000Y-109300000D02*
X132350000Y-108300000D01*
%TO.N,/SDA*%
X134150000Y-106250000D02*
X134150000Y-105800000D01*
X125110000Y-111900000D02*
X130950000Y-111900000D01*
X137600000Y-114110000D02*
X137620000Y-114130000D01*
X134150000Y-106650000D02*
X133050000Y-107750000D01*
X133050000Y-107750000D02*
X133050000Y-108300000D01*
X133720000Y-105370000D02*
X133350000Y-105370000D01*
%TO.N,GND*%
D30*
X132500000Y-106250000D02*
X132950000Y-106250000D01*
%TO.N,Net-(U1-C2P)*%
X126110000Y-107740000D02*
X126110000Y-107450000D01*
%TO.N,/SDA*%
D31*
X130950000Y-111900000D02*
X133050000Y-109800000D01*
%TO.N,Net-(D9-A)*%
X131650000Y-107300000D02*
X131650000Y-108300000D01*
X130770000Y-106230000D02*
X130550000Y-106450000D01*
%TO.N,Net-(U1-C1P)*%
D30*
X127530000Y-107870000D02*
X127530000Y-107450000D01*
%TO.N,/SCL*%
D31*
X131800000Y-105900000D02*
X132330000Y-105370000D01*
%TO.N,Net-(D9-A)*%
X131300000Y-106650000D02*
X131300000Y-106950000D01*
%TO.N,/SDA*%
X133050000Y-109800000D02*
X133050000Y-108300000D01*
%TO.N,Net-(D1-K)*%
X125750000Y-106200000D02*
X125750000Y-105470000D01*
%TO.N,Net-(D9-A)*%
X130850000Y-106230000D02*
X130770000Y-106230000D01*
%TO.N,Net-(U1-VCOMH)*%
D30*
X134750000Y-105750000D02*
X134500000Y-105500000D01*
%TO.N,Net-(D9-A)*%
D31*
X128850000Y-106375000D02*
X129425000Y-106375000D01*
%TO.N,/SCL*%
X130550000Y-111100000D02*
X132350000Y-109300000D01*
%TO.N,Net-(U1-C2P)*%
D30*
X126050000Y-108150000D02*
X126050000Y-107800000D01*
%TO.N,Net-(U1-C1P)*%
X127450000Y-107950000D02*
X127530000Y-107870000D01*
%TO.N,GND*%
X132950000Y-106250000D02*
X133450000Y-106250000D01*
%TO.N,Net-(U1-C2N)*%
X126750000Y-107450000D02*
X126750000Y-108150000D01*
%TO.N,Net-(U1-C2P)*%
X126050000Y-107800000D02*
X126110000Y-107740000D01*
%TO.N,/SDA*%
D31*
X134150000Y-106250000D02*
X134150000Y-106650000D01*
%TD*%
%TA.AperFunction,Conductor*%
%TO.N,GND*%
G36*
X136733472Y-118496131D02*
G01*
X136758604Y-118506541D01*
X136782610Y-118522581D01*
X139412795Y-121152766D01*
X139428837Y-121176775D01*
X139431885Y-121184134D01*
X139431883Y-121240771D01*
X139391842Y-121280815D01*
X139384483Y-121283864D01*
X139356158Y-121289500D01*
X132349000Y-121289500D01*
X132296674Y-121267826D01*
X132275000Y-121215500D01*
X132275000Y-121039500D01*
X132296674Y-120987174D01*
X132318668Y-120972002D01*
X132335703Y-120964347D01*
X132340220Y-120964213D01*
X132346880Y-120960367D01*
X132429587Y-120938207D01*
X132520913Y-120885480D01*
X132595480Y-120810913D01*
X132648207Y-120719587D01*
X132675499Y-120617729D01*
X132675500Y-120617729D01*
X132675500Y-120575542D01*
X132675865Y-120571880D01*
X132677604Y-120568634D01*
X132681129Y-120550909D01*
X132685443Y-120540494D01*
X132701057Y-120524877D01*
X132702621Y-120521961D01*
X132704559Y-120521375D01*
X132725482Y-120500448D01*
X132735911Y-120496128D01*
X132764219Y-120490500D01*
X132954672Y-120490500D01*
X132954674Y-120490500D01*
X133027740Y-120475966D01*
X133066651Y-120449966D01*
X133093325Y-120438917D01*
X133112187Y-120435166D01*
X133167732Y-120446214D01*
X133212260Y-120475966D01*
X133285326Y-120490500D01*
X133454154Y-120490500D01*
X133482467Y-120496131D01*
X133507599Y-120506540D01*
X133531603Y-120522579D01*
X133974432Y-120965409D01*
X134059151Y-121000501D01*
X134059152Y-121000501D01*
X134159462Y-121000501D01*
X134161747Y-121000501D01*
X134161779Y-121000500D01*
X135238221Y-121000500D01*
X135238253Y-121000501D01*
X135240538Y-121000501D01*
X135249150Y-121000501D01*
X135340850Y-121000501D01*
X135390476Y-120979944D01*
X135425568Y-120965409D01*
X135490409Y-120900568D01*
X135490409Y-120900567D01*
X135500814Y-120890162D01*
X135500814Y-120890161D01*
X135506899Y-120884075D01*
X135506902Y-120884073D01*
X135506904Y-120884069D01*
X135818397Y-120572579D01*
X135842401Y-120556541D01*
X135867532Y-120546131D01*
X135895848Y-120540500D01*
X136414819Y-120540500D01*
X136414820Y-120540500D01*
X136458722Y-120531767D01*
X136508504Y-120498504D01*
X136541767Y-120448722D01*
X136550500Y-120404820D01*
X136550500Y-119775180D01*
X136541767Y-119731278D01*
X136508504Y-119681496D01*
X136499051Y-119675180D01*
X136499048Y-119675177D01*
X136458722Y-119648233D01*
X136414820Y-119639500D01*
X136414819Y-119639500D01*
X135135178Y-119639500D01*
X135103372Y-119645826D01*
X135074501Y-119645826D01*
X135063450Y-119643628D01*
X135016359Y-119612164D01*
X135012965Y-119607084D01*
X135000500Y-119565981D01*
X135000500Y-118891977D01*
X135002353Y-118875523D01*
X135005493Y-118861755D01*
X135013554Y-118841209D01*
X135013963Y-118840500D01*
X135051614Y-118775288D01*
X135058732Y-118748722D01*
X135069224Y-118709563D01*
X135081996Y-118683667D01*
X135089768Y-118673540D01*
X135092223Y-118670339D01*
X135131786Y-118643910D01*
X135135113Y-118643019D01*
X135154256Y-118640500D01*
X136414819Y-118640500D01*
X136414820Y-118640500D01*
X136458722Y-118631767D01*
X136508504Y-118598504D01*
X136530994Y-118564843D01*
X136531340Y-118564333D01*
X136546165Y-118542654D01*
X136546388Y-118542747D01*
X136558525Y-118524582D01*
X136558702Y-118524324D01*
X136562420Y-118521896D01*
X136598308Y-118495283D01*
X136603583Y-118493683D01*
X136625054Y-118490500D01*
X136705158Y-118490500D01*
X136733472Y-118496131D01*
G37*
%TD.AperFunction*%
%TA.AperFunction,Conductor*%
G36*
X143417186Y-117500925D02*
G01*
X143445500Y-117506564D01*
X143455619Y-117510758D01*
X143495659Y-117550815D01*
X143498099Y-117600601D01*
X143496604Y-117605529D01*
X143487319Y-117625160D01*
X143483233Y-117631274D01*
X143479313Y-117650980D01*
X143479313Y-117650982D01*
X143474500Y-117675180D01*
X143474500Y-118704820D01*
X143482652Y-118745802D01*
X143483233Y-118748722D01*
X143496044Y-118767896D01*
X143516496Y-118798504D01*
X143566278Y-118831767D01*
X143610180Y-118840500D01*
X143610181Y-118840500D01*
X144639819Y-118840500D01*
X144639820Y-118840500D01*
X144683722Y-118831767D01*
X144733504Y-118798504D01*
X144766767Y-118748722D01*
X144775500Y-118704820D01*
X144775500Y-118699848D01*
X145525001Y-118699848D01*
X145528466Y-118717272D01*
X145530802Y-118729019D01*
X145552898Y-118762090D01*
X145552901Y-118762093D01*
X145552904Y-118762096D01*
X145585982Y-118784198D01*
X145615151Y-118789999D01*
X146000000Y-118789999D01*
X146000000Y-118315000D01*
X145525001Y-118315000D01*
X145525001Y-118699848D01*
X144775500Y-118699848D01*
X144775500Y-117675180D01*
X144766767Y-117631278D01*
X144764976Y-117628597D01*
X144753930Y-117601927D01*
X144751794Y-117591191D01*
X144762840Y-117535641D01*
X144802891Y-117505938D01*
X144807839Y-117504437D01*
X144829320Y-117501254D01*
X145477598Y-117501406D01*
X145505912Y-117507045D01*
X145516031Y-117511239D01*
X145556071Y-117551296D01*
X145558508Y-117601093D01*
X145557011Y-117606025D01*
X145547731Y-117625642D01*
X145530801Y-117650980D01*
X145530801Y-117650982D01*
X145525000Y-117680151D01*
X145525000Y-118065000D01*
X146551000Y-118065000D01*
X146603326Y-118086674D01*
X146625000Y-118139000D01*
X146625000Y-118241000D01*
X146603326Y-118293326D01*
X146551000Y-118315000D01*
X146250000Y-118315000D01*
X146250000Y-118789999D01*
X146551000Y-118789999D01*
X146603326Y-118811673D01*
X146625000Y-118863999D01*
X146625000Y-119465500D01*
X146603326Y-119517826D01*
X146551000Y-119539500D01*
X145610180Y-119539500D01*
X145588229Y-119543866D01*
X145588225Y-119543866D01*
X145566277Y-119548233D01*
X145516496Y-119581494D01*
X145516494Y-119581496D01*
X145483234Y-119631275D01*
X145483233Y-119631275D01*
X145481597Y-119639500D01*
X145474501Y-119675178D01*
X145474500Y-119675181D01*
X145474500Y-120370158D01*
X145468867Y-120398474D01*
X145458459Y-120423604D01*
X145442418Y-120447610D01*
X145082610Y-120807418D01*
X145058604Y-120823458D01*
X145033474Y-120833867D01*
X145005158Y-120839500D01*
X144853598Y-120839500D01*
X144825283Y-120833868D01*
X144814874Y-120829557D01*
X144774825Y-120789513D01*
X144772485Y-120783864D01*
X144768279Y-120741119D01*
X144772563Y-120719587D01*
X144775500Y-120704820D01*
X144775500Y-119675180D01*
X144775499Y-119675177D01*
X144773762Y-119666446D01*
X144766767Y-119631278D01*
X144733504Y-119581496D01*
X144725459Y-119576120D01*
X144725458Y-119576119D01*
X144725458Y-119576120D01*
X144683722Y-119548233D01*
X144639820Y-119539500D01*
X144639819Y-119539500D01*
X143610184Y-119539500D01*
X143610180Y-119539500D01*
X143588229Y-119543866D01*
X143588225Y-119543866D01*
X143566277Y-119548233D01*
X143516496Y-119581494D01*
X143516494Y-119581496D01*
X143483234Y-119631275D01*
X143483233Y-119631275D01*
X143481597Y-119639500D01*
X143474578Y-119674788D01*
X143474500Y-119675180D01*
X143474500Y-120704820D01*
X143477437Y-120719585D01*
X143477437Y-120719586D01*
X143480827Y-120736627D01*
X143480826Y-120765506D01*
X143478628Y-120776553D01*
X143447172Y-120823635D01*
X143442103Y-120827023D01*
X143400982Y-120839500D01*
X139994842Y-120839500D01*
X139966524Y-120833867D01*
X139941395Y-120823458D01*
X139917389Y-120807418D01*
X138230978Y-119121007D01*
X141024500Y-119121007D01*
X141024500Y-119121008D01*
X141024500Y-119258991D01*
X141031183Y-119292591D01*
X141051417Y-119394320D01*
X141051420Y-119394331D01*
X141051422Y-119394336D01*
X141104222Y-119521807D01*
X141144104Y-119581495D01*
X141177368Y-119631278D01*
X141180886Y-119636542D01*
X141278458Y-119734114D01*
X141383100Y-119804034D01*
X141393800Y-119811183D01*
X141396546Y-119812165D01*
X141510576Y-119859398D01*
X141520672Y-119863580D01*
X141656007Y-119890500D01*
X141656009Y-119890500D01*
X141793991Y-119890500D01*
X141793993Y-119890500D01*
X141929328Y-119863580D01*
X142056811Y-119810775D01*
X142171542Y-119734114D01*
X142269114Y-119636542D01*
X142345775Y-119521811D01*
X142398580Y-119394328D01*
X142425500Y-119258993D01*
X142425500Y-119121007D01*
X142398580Y-118985672D01*
X142360220Y-118893062D01*
X142345776Y-118858191D01*
X142343785Y-118855212D01*
X142269114Y-118743458D01*
X142171542Y-118645886D01*
X142163482Y-118640501D01*
X142163481Y-118640499D01*
X142163481Y-118640500D01*
X142056808Y-118569223D01*
X142056807Y-118569222D01*
X142056805Y-118569221D01*
X141929336Y-118516422D01*
X141929331Y-118516420D01*
X141929318Y-118516416D01*
X141929319Y-118516416D01*
X141838694Y-118498391D01*
X141838694Y-118498390D01*
X141793993Y-118489500D01*
X141656007Y-118489500D01*
X141629271Y-118494818D01*
X141520678Y-118516417D01*
X141520668Y-118516420D01*
X141520662Y-118516422D01*
X141393191Y-118569222D01*
X141278461Y-118645882D01*
X141278460Y-118645884D01*
X141180884Y-118743460D01*
X141180882Y-118743461D01*
X141104222Y-118858191D01*
X141051422Y-118985662D01*
X141051420Y-118985668D01*
X141051417Y-118985678D01*
X141024500Y-119121007D01*
X138230978Y-119121007D01*
X137059511Y-117949540D01*
X137050066Y-117944087D01*
X136990987Y-117909977D01*
X136990984Y-117909976D01*
X136990983Y-117909976D01*
X136914566Y-117889500D01*
X136914564Y-117889500D01*
X136914562Y-117889500D01*
X136628797Y-117889500D01*
X136600480Y-117883867D01*
X136586211Y-117877957D01*
X136549272Y-117844478D01*
X136545587Y-117837583D01*
X136545585Y-117837583D01*
X136544611Y-117835760D01*
X136543982Y-117834241D01*
X136542303Y-117831440D01*
X136536459Y-117820506D01*
X136532512Y-117817427D01*
X136508504Y-117781496D01*
X136508503Y-117781495D01*
X136458722Y-117748233D01*
X136414820Y-117739500D01*
X136414819Y-117739500D01*
X135135184Y-117739500D01*
X135135180Y-117739500D01*
X135113229Y-117743866D01*
X135113225Y-117743866D01*
X135091277Y-117748233D01*
X135041496Y-117781494D01*
X135041495Y-117781495D01*
X135041490Y-117781501D01*
X135036271Y-117789312D01*
X135015856Y-117809725D01*
X135005319Y-117816765D01*
X134952158Y-117828247D01*
X134942858Y-117826712D01*
X134917911Y-117817787D01*
X134910285Y-117813384D01*
X134910278Y-117813382D01*
X134821148Y-117789500D01*
X134821146Y-117789500D01*
X134821144Y-117789500D01*
X133594674Y-117789500D01*
X133285326Y-117789500D01*
X133236615Y-117799188D01*
X133236615Y-117799189D01*
X133224766Y-117801546D01*
X133212258Y-117804034D01*
X133129398Y-117859398D01*
X133074034Y-117942258D01*
X133074034Y-117942259D01*
X133072586Y-117949540D01*
X133059500Y-118015326D01*
X133059500Y-118264674D01*
X133074034Y-118337740D01*
X133129399Y-118420601D01*
X133212260Y-118475966D01*
X133285326Y-118490500D01*
X133393856Y-118490500D01*
X134236133Y-118490500D01*
X134264443Y-118496129D01*
X134274855Y-118500442D01*
X134314904Y-118540484D01*
X134315528Y-118541989D01*
X134316827Y-118545126D01*
X134319935Y-118592586D01*
X134298245Y-118673540D01*
X134296785Y-118673149D01*
X134287716Y-118696782D01*
X134286962Y-118697880D01*
X134285445Y-118699929D01*
X134285274Y-118700340D01*
X134283109Y-118703497D01*
X134261934Y-118717272D01*
X134247286Y-118728711D01*
X134248087Y-118730643D01*
X134239103Y-118734365D01*
X134210780Y-118740000D01*
X133775000Y-118740000D01*
X133775000Y-119539999D01*
X134085948Y-119539999D01*
X134114266Y-119545632D01*
X134124237Y-119549762D01*
X134164286Y-119589810D01*
X134166604Y-119640030D01*
X134166327Y-119640924D01*
X134147972Y-119671345D01*
X134144530Y-119674786D01*
X134123541Y-119711142D01*
X134123535Y-119711152D01*
X134122706Y-119712587D01*
X134098387Y-119754707D01*
X134098385Y-119754709D01*
X134074500Y-119843853D01*
X134074500Y-120061532D01*
X134069921Y-120087159D01*
X134069414Y-120088530D01*
X134053928Y-120125917D01*
X134053650Y-120130931D01*
X134051792Y-120135416D01*
X134050959Y-120138522D01*
X134050955Y-120138535D01*
X134034802Y-120198820D01*
X134022030Y-120224718D01*
X134015171Y-120233656D01*
X133966127Y-120261971D01*
X133965269Y-120262084D01*
X133918604Y-120252802D01*
X133915620Y-120251079D01*
X133900301Y-120239324D01*
X133852578Y-120191600D01*
X133836542Y-120167601D01*
X133826131Y-120142467D01*
X133820500Y-120114151D01*
X133820500Y-120015324D01*
X133820499Y-120015321D01*
X133819329Y-120009435D01*
X133819329Y-120009436D01*
X133814854Y-119986943D01*
X133805966Y-119942260D01*
X133750601Y-119859399D01*
X133750598Y-119859397D01*
X133727335Y-119843854D01*
X133727334Y-119843853D01*
X133667740Y-119804034D01*
X133594674Y-119789500D01*
X133594672Y-119789500D01*
X133285327Y-119789500D01*
X133285326Y-119789500D01*
X133280127Y-119790533D01*
X133248792Y-119796766D01*
X133248793Y-119796767D01*
X133212258Y-119804034D01*
X133173348Y-119830032D01*
X133146675Y-119841080D01*
X133127814Y-119844832D01*
X133072265Y-119833783D01*
X133027741Y-119804034D01*
X133003384Y-119799189D01*
X133003384Y-119799188D01*
X132954674Y-119789500D01*
X132645326Y-119789500D01*
X132596615Y-119799188D01*
X132596615Y-119799189D01*
X132584437Y-119801611D01*
X132572258Y-119804034D01*
X132489397Y-119859399D01*
X132486072Y-119864376D01*
X132465661Y-119884787D01*
X132447346Y-119897026D01*
X132406231Y-119909499D01*
X132379149Y-119909499D01*
X132377315Y-119910259D01*
X132375330Y-119910258D01*
X132372001Y-119910921D01*
X132371869Y-119910258D01*
X132320678Y-119910255D01*
X132280631Y-119870205D01*
X132275000Y-119841890D01*
X132275000Y-119449846D01*
X132950001Y-119449846D01*
X132955802Y-119479019D01*
X132977898Y-119512090D01*
X132977901Y-119512093D01*
X132977904Y-119512096D01*
X133010982Y-119534198D01*
X133040151Y-119539999D01*
X133575000Y-119539999D01*
X133575000Y-119240000D01*
X132950001Y-119240000D01*
X132950001Y-119449846D01*
X132275000Y-119449846D01*
X132275000Y-118830151D01*
X132950000Y-118830151D01*
X132950000Y-119040000D01*
X133575000Y-119040000D01*
X133575000Y-118740000D01*
X133040156Y-118740000D01*
X133040152Y-118740000D01*
X133023482Y-118743315D01*
X133010978Y-118745802D01*
X132977910Y-118767896D01*
X132977906Y-118767900D01*
X132977904Y-118767903D01*
X132977902Y-118767904D01*
X132955801Y-118800981D01*
X132955801Y-118800982D01*
X132950000Y-118830151D01*
X132275000Y-118830151D01*
X132275000Y-117572343D01*
X132296674Y-117520017D01*
X132348999Y-117498343D01*
X143417186Y-117500925D01*
G37*
%TD.AperFunction*%
%TD*%
%TA.AperFunction,Conductor*%
%TO.N,GND*%
G36*
X156739091Y-104516129D02*
G01*
X156749503Y-104520442D01*
X156789553Y-104560485D01*
X156789556Y-104560492D01*
X156793867Y-104570900D01*
X156793867Y-104588782D01*
X156795189Y-104588782D01*
X156799500Y-116010753D01*
X156793867Y-116039099D01*
X156789556Y-116049507D01*
X156749508Y-116089555D01*
X156749507Y-116089556D01*
X156739099Y-116093867D01*
X156710781Y-116099500D01*
X145105393Y-116099500D01*
X145100317Y-116100000D01*
X142174000Y-116100000D01*
X142121674Y-116078326D01*
X142100000Y-116026000D01*
X142100000Y-114975631D01*
X142095557Y-114964905D01*
X142117231Y-114912579D01*
X142122657Y-114907665D01*
X142125434Y-114905389D01*
X142137782Y-114897139D01*
X142148111Y-114886809D01*
X142150944Y-114884488D01*
X142152081Y-114884144D01*
X142153106Y-114883322D01*
X142152888Y-114883043D01*
X142155748Y-114880802D01*
X142155750Y-114880800D01*
X142155758Y-114880795D01*
X142727715Y-114334414D01*
X142730129Y-114332210D01*
X142739267Y-114324230D01*
X142760568Y-114315409D01*
X142825409Y-114250568D01*
X142825409Y-114250567D01*
X142835814Y-114240162D01*
X142835815Y-114240159D01*
X143036713Y-114039259D01*
X143037881Y-114038119D01*
X143185460Y-113897141D01*
X143185481Y-113897121D01*
X143186854Y-113895792D01*
X143187045Y-113895605D01*
X143196998Y-113880878D01*
X143205972Y-113870001D01*
X143863396Y-113212579D01*
X143887400Y-113196541D01*
X143912531Y-113186131D01*
X143940847Y-113180500D01*
X147985733Y-113180500D01*
X148013458Y-113185890D01*
X148037612Y-113195652D01*
X148062206Y-113211933D01*
X148115926Y-113265653D01*
X148121378Y-113269742D01*
X148126389Y-113273944D01*
X148126434Y-113274031D01*
X148131167Y-113278320D01*
X148217332Y-113364485D01*
X148217339Y-113364493D01*
X148260286Y-113407440D01*
X148268478Y-113427218D01*
X148288254Y-113435409D01*
X148323350Y-113449945D01*
X148348160Y-113460221D01*
X148348161Y-113460222D01*
X148348163Y-113460222D01*
X148362903Y-113466328D01*
X148379709Y-113473291D01*
X148379241Y-113474419D01*
X148397401Y-113483388D01*
X148397984Y-113482452D01*
X148408325Y-113488891D01*
X148406954Y-113491091D01*
X148440439Y-113524574D01*
X148444650Y-113538458D01*
X148448375Y-113557186D01*
X148437326Y-113612733D01*
X148408233Y-113656274D01*
X148408233Y-113656275D01*
X148399500Y-113700180D01*
X148399500Y-114079818D01*
X148408232Y-114123722D01*
X148433574Y-114161649D01*
X148444623Y-114188323D01*
X148448375Y-114207184D01*
X148437326Y-114262733D01*
X148408233Y-114306274D01*
X148408233Y-114306275D01*
X148399500Y-114350180D01*
X148399500Y-114729818D01*
X148408232Y-114773722D01*
X148433574Y-114811649D01*
X148444623Y-114838323D01*
X148448375Y-114857184D01*
X148437326Y-114912733D01*
X148408233Y-114956274D01*
X148408233Y-114956275D01*
X148404383Y-114975631D01*
X148399500Y-115000180D01*
X148399500Y-115379819D01*
X148402973Y-115397283D01*
X148408232Y-115423720D01*
X148408233Y-115423722D01*
X148424307Y-115447780D01*
X148424309Y-115447782D01*
X148441496Y-115473504D01*
X148491278Y-115506767D01*
X148535180Y-115515500D01*
X149215891Y-115515500D01*
X149235041Y-115518021D01*
X149253219Y-115522891D01*
X149271068Y-115530283D01*
X149345413Y-115573207D01*
X149442589Y-115599244D01*
X149446287Y-115600500D01*
X149552729Y-115600500D01*
X149562992Y-115600500D01*
X149571880Y-115595367D01*
X149654587Y-115573207D01*
X149711897Y-115540117D01*
X149728931Y-115530284D01*
X149746780Y-115522891D01*
X149764957Y-115518021D01*
X149784108Y-115515500D01*
X150215891Y-115515500D01*
X150235041Y-115518021D01*
X150253219Y-115522891D01*
X150271068Y-115530283D01*
X150345413Y-115573207D01*
X150442589Y-115599244D01*
X150446287Y-115600500D01*
X150552729Y-115600500D01*
X150562992Y-115600500D01*
X150571880Y-115595367D01*
X150654587Y-115573207D01*
X150711897Y-115540117D01*
X150728931Y-115530284D01*
X150746780Y-115522891D01*
X150764957Y-115518021D01*
X150784108Y-115515500D01*
X151564819Y-115515500D01*
X151564820Y-115515500D01*
X151608722Y-115506767D01*
X151658504Y-115473504D01*
X151691767Y-115423722D01*
X151700500Y-115379820D01*
X151700500Y-115000180D01*
X151691767Y-114956278D01*
X151666424Y-114918349D01*
X151655375Y-114891675D01*
X151651623Y-114872811D01*
X151662671Y-114817266D01*
X151691767Y-114773722D01*
X151700500Y-114729820D01*
X151700500Y-114350180D01*
X151691767Y-114306278D01*
X151666424Y-114268349D01*
X151655376Y-114241678D01*
X151651623Y-114222812D01*
X151662670Y-114167267D01*
X151691767Y-114123722D01*
X151700500Y-114079820D01*
X151700500Y-113700180D01*
X151691767Y-113656278D01*
X151666424Y-113618349D01*
X151655375Y-113591675D01*
X151652941Y-113579438D01*
X151651623Y-113572811D01*
X151662669Y-113517269D01*
X151663767Y-113515626D01*
X151684183Y-113495210D01*
X151702506Y-113482967D01*
X151743613Y-113470500D01*
X152153221Y-113470500D01*
X152153253Y-113470501D01*
X152155538Y-113470501D01*
X152164150Y-113470501D01*
X152255850Y-113470501D01*
X152305476Y-113449944D01*
X152340568Y-113435409D01*
X152405409Y-113370568D01*
X152405409Y-113370567D01*
X152415814Y-113360162D01*
X152415814Y-113360161D01*
X152421899Y-113354075D01*
X152421902Y-113354073D01*
X152421904Y-113354069D01*
X153597060Y-112178914D01*
X153621061Y-112162877D01*
X153631476Y-112158564D01*
X153688107Y-112158564D01*
X153698517Y-112162876D01*
X153722523Y-112178916D01*
X153754087Y-112210480D01*
X153845413Y-112263207D01*
X153942589Y-112289244D01*
X153946287Y-112290500D01*
X154052729Y-112290500D01*
X154062992Y-112290500D01*
X154071880Y-112285367D01*
X154154587Y-112263207D01*
X154245913Y-112210480D01*
X154320480Y-112135913D01*
X154373207Y-112044587D01*
X154395367Y-111961880D01*
X154400500Y-111952991D01*
X154400500Y-111837267D01*
X154379643Y-111759432D01*
X154373361Y-111735988D01*
X154373220Y-111735445D01*
X154373208Y-111735415D01*
X154351183Y-111697266D01*
X154320480Y-111644087D01*
X154245913Y-111569520D01*
X154245904Y-111569515D01*
X154240762Y-111566546D01*
X154231924Y-111561443D01*
X154210217Y-111542406D01*
X154203357Y-111533466D01*
X154188701Y-111478771D01*
X154188814Y-111477910D01*
X154209855Y-111435238D01*
X154212296Y-111432797D01*
X154227612Y-111421045D01*
X154245913Y-111410480D01*
X154320480Y-111335913D01*
X154373207Y-111244587D01*
X154395367Y-111161880D01*
X154400500Y-111152991D01*
X154400500Y-111036286D01*
X154399244Y-111032589D01*
X154373357Y-110935976D01*
X154373220Y-110935446D01*
X154373208Y-110935415D01*
X154362456Y-110916792D01*
X154320480Y-110844087D01*
X154245913Y-110769520D01*
X154245911Y-110769518D01*
X154154592Y-110716795D01*
X154154587Y-110716793D01*
X154154585Y-110716792D01*
X154154583Y-110716791D01*
X154154582Y-110716791D01*
X154052729Y-110689500D01*
X154052728Y-110689500D01*
X153947272Y-110689500D01*
X153947271Y-110689500D01*
X153866932Y-110711026D01*
X153845413Y-110716792D01*
X153845411Y-110716793D01*
X153845406Y-110716795D01*
X153778554Y-110755393D01*
X153754086Y-110769520D01*
X153754085Y-110769520D01*
X153754085Y-110769521D01*
X153732916Y-110790691D01*
X153732914Y-110790693D01*
X153696189Y-110827417D01*
X153672186Y-110843456D01*
X153647058Y-110853866D01*
X153618736Y-110859500D01*
X153314150Y-110859500D01*
X153291352Y-110868943D01*
X153291351Y-110868942D01*
X153229434Y-110894588D01*
X153229433Y-110894589D01*
X151796605Y-112327418D01*
X151772597Y-112343459D01*
X151761991Y-112347852D01*
X151705361Y-112347855D01*
X151702877Y-112346826D01*
X151699528Y-112345439D01*
X151666312Y-112318182D01*
X151658504Y-112306496D01*
X151658502Y-112306494D01*
X151608721Y-112273232D01*
X151600844Y-112271666D01*
X151586406Y-112268794D01*
X151564820Y-112264500D01*
X151564819Y-112264500D01*
X148535178Y-112264500D01*
X148513588Y-112268794D01*
X148484716Y-112268794D01*
X148463109Y-112264496D01*
X148425220Y-112244244D01*
X148421225Y-112240249D01*
X148421225Y-112240248D01*
X148335570Y-112154593D01*
X148335568Y-112154591D01*
X148335566Y-112154590D01*
X148335564Y-112154589D01*
X148335560Y-112154587D01*
X148321214Y-112148645D01*
X148321212Y-112148643D01*
X148300476Y-112140054D01*
X148250850Y-112119499D01*
X148250848Y-112119499D01*
X148148253Y-112119499D01*
X148148221Y-112119500D01*
X143565847Y-112119500D01*
X143537529Y-112113867D01*
X143512400Y-112103458D01*
X143488394Y-112087418D01*
X143222381Y-111821405D01*
X143213412Y-111810317D01*
X143213376Y-111810344D01*
X143212905Y-111809691D01*
X143212603Y-111809317D01*
X143212307Y-111808860D01*
X143209648Y-111805170D01*
X143209646Y-111805167D01*
X143189491Y-111782300D01*
X143099196Y-111698155D01*
X143097320Y-111696344D01*
X142871225Y-111470249D01*
X142871225Y-111470248D01*
X142785570Y-111384593D01*
X142785561Y-111384586D01*
X142756779Y-111372665D01*
X142734647Y-111358435D01*
X142511710Y-111150682D01*
X142457517Y-111100180D01*
X148399500Y-111100180D01*
X148399500Y-111479819D01*
X148403934Y-111502110D01*
X148408233Y-111523723D01*
X148438829Y-111569515D01*
X148438830Y-111569515D01*
X148438834Y-111569521D01*
X148441496Y-111573504D01*
X148491278Y-111606767D01*
X148535180Y-111615500D01*
X149783212Y-111615500D01*
X149802362Y-111618021D01*
X149820540Y-111622891D01*
X149838391Y-111630285D01*
X149879234Y-111653866D01*
X149895413Y-111663207D01*
X149992589Y-111689244D01*
X149996287Y-111690500D01*
X150102729Y-111690500D01*
X150112992Y-111690500D01*
X150121880Y-111685367D01*
X150204587Y-111663207D01*
X150261614Y-111630281D01*
X150279451Y-111622893D01*
X150297641Y-111618019D01*
X150316787Y-111615500D01*
X151564819Y-111615500D01*
X151564820Y-111615500D01*
X151608722Y-111606767D01*
X151658504Y-111573504D01*
X151691767Y-111523722D01*
X151700500Y-111479820D01*
X151700500Y-111100180D01*
X151691767Y-111056278D01*
X151658504Y-111006496D01*
X151658501Y-111006494D01*
X151608722Y-110973233D01*
X151564820Y-110964500D01*
X151564819Y-110964500D01*
X150316789Y-110964500D01*
X150297635Y-110961978D01*
X150279454Y-110957106D01*
X150261609Y-110949714D01*
X150204591Y-110916795D01*
X150204584Y-110916792D01*
X150204585Y-110916792D01*
X150204583Y-110916791D01*
X150204582Y-110916791D01*
X150102729Y-110889500D01*
X150102728Y-110889500D01*
X149997272Y-110889500D01*
X149997271Y-110889500D01*
X149895417Y-110916791D01*
X149895415Y-110916791D01*
X149895414Y-110916792D01*
X149895408Y-110916795D01*
X149838392Y-110949714D01*
X149820546Y-110957106D01*
X149802365Y-110961978D01*
X149783211Y-110964500D01*
X148535180Y-110964500D01*
X148513229Y-110968866D01*
X148513225Y-110968866D01*
X148491277Y-110973233D01*
X148441496Y-111006494D01*
X148441494Y-111006496D01*
X148408233Y-111056276D01*
X148408233Y-111056277D01*
X148399500Y-111100180D01*
X142457517Y-111100180D01*
X142155843Y-110819054D01*
X142155839Y-110819051D01*
X142155835Y-110819047D01*
X142153107Y-110817031D01*
X142144775Y-110809854D01*
X142137784Y-110802863D01*
X142137780Y-110802860D01*
X142119569Y-110790691D01*
X141973913Y-110693367D01*
X141973914Y-110693367D01*
X141973912Y-110693366D01*
X141791843Y-110617951D01*
X141791838Y-110617949D01*
X141791825Y-110617945D01*
X141791826Y-110617945D01*
X141662388Y-110592200D01*
X141662387Y-110592199D01*
X141611240Y-110582025D01*
X141598541Y-110579500D01*
X141598540Y-110579500D01*
X141401459Y-110579500D01*
X141346662Y-110590398D01*
X141346662Y-110590399D01*
X141319115Y-110595878D01*
X141208171Y-110617946D01*
X141208161Y-110617949D01*
X141208155Y-110617951D01*
X141026086Y-110693366D01*
X140861948Y-110803039D01*
X140860567Y-110804511D01*
X140724511Y-110940567D01*
X140723039Y-110941948D01*
X140613367Y-111106085D01*
X140598000Y-111143186D01*
X140581964Y-111167189D01*
X140576331Y-111172823D01*
X140524007Y-111194502D01*
X140471679Y-111172833D01*
X140450000Y-111120509D01*
X140450000Y-109506249D01*
X140455631Y-109477935D01*
X140458681Y-109470571D01*
X140498728Y-109430524D01*
X140555363Y-109430522D01*
X140555366Y-109430523D01*
X140595414Y-109470570D01*
X140595415Y-109470572D01*
X140613365Y-109513910D01*
X140613366Y-109513912D01*
X140613367Y-109513913D01*
X140686594Y-109623504D01*
X140722861Y-109677782D01*
X140862218Y-109817139D01*
X141026086Y-109926632D01*
X141208165Y-110002051D01*
X141401459Y-110040500D01*
X141401461Y-110040500D01*
X141419821Y-110040500D01*
X141466539Y-110057112D01*
X141477317Y-110065886D01*
X141495484Y-110078633D01*
X141495488Y-110078635D01*
X141495489Y-110078636D01*
X141626077Y-110156989D01*
X141626086Y-110156993D01*
X141626095Y-110156999D01*
X141644786Y-110166561D01*
X141675479Y-110179730D01*
X141695283Y-110186685D01*
X141726591Y-110195357D01*
X141726597Y-110195358D01*
X141726600Y-110195359D01*
X141747128Y-110199579D01*
X141747147Y-110199582D01*
X141747152Y-110199583D01*
X141747161Y-110199584D01*
X141747166Y-110199585D01*
X141780250Y-110204083D01*
X141780247Y-110204083D01*
X141801192Y-110205500D01*
X141801200Y-110205500D01*
X147488156Y-110205500D01*
X147488157Y-110205500D01*
X147526615Y-110200669D01*
X147586044Y-110185500D01*
X147622112Y-110171309D01*
X147645197Y-110158703D01*
X147663861Y-110146707D01*
X147692113Y-110125557D01*
X147708878Y-110111030D01*
X147742734Y-110077174D01*
X147795060Y-110055500D01*
X148084180Y-110055500D01*
X148123399Y-110066747D01*
X148142416Y-110078633D01*
X148418901Y-110251437D01*
X148436339Y-110268352D01*
X148436342Y-110268350D01*
X148436479Y-110268487D01*
X148441207Y-110273073D01*
X148441493Y-110273501D01*
X148441496Y-110273504D01*
X148491278Y-110306767D01*
X148535180Y-110315500D01*
X148535181Y-110315500D01*
X151564819Y-110315500D01*
X151564820Y-110315500D01*
X151608722Y-110306767D01*
X151658504Y-110273504D01*
X151658504Y-110273502D01*
X151664566Y-110269453D01*
X151665191Y-110270388D01*
X151674795Y-110263664D01*
X153409108Y-109463213D01*
X153519396Y-109412311D01*
X153550406Y-109405500D01*
X154193255Y-109405500D01*
X154193264Y-109405500D01*
X154223330Y-109402566D01*
X154270375Y-109393295D01*
X154299305Y-109384603D01*
X154326465Y-109373466D01*
X154346340Y-109363605D01*
X154376758Y-109345703D01*
X154395028Y-109333115D01*
X154542723Y-109214958D01*
X154552261Y-109206669D01*
X154566910Y-109192856D01*
X154575743Y-109183822D01*
X154576920Y-109182516D01*
X154597152Y-109154268D01*
X154624016Y-109106194D01*
X154637471Y-109074156D01*
X154644175Y-109051328D01*
X154648893Y-109029644D01*
X154653917Y-108994704D01*
X154654444Y-108987326D01*
X154655500Y-108972580D01*
X154655500Y-108467546D01*
X154655037Y-108455559D01*
X154653569Y-108436549D01*
X154653568Y-108436543D01*
X154653567Y-108436526D01*
X154652184Y-108424616D01*
X154652094Y-108424037D01*
X154643284Y-108391351D01*
X154643282Y-108391346D01*
X154643281Y-108391342D01*
X154634340Y-108368451D01*
X154623761Y-108341363D01*
X154608089Y-108311362D01*
X154594482Y-108291059D01*
X154580846Y-108273556D01*
X154557223Y-108247331D01*
X154557219Y-108247327D01*
X154541236Y-108231947D01*
X154356438Y-108077950D01*
X154344936Y-108068365D01*
X154316131Y-108049348D01*
X154316123Y-108049344D01*
X154316120Y-108049342D01*
X154267418Y-108024461D01*
X154235124Y-108012265D01*
X154208338Y-108005429D01*
X154186524Y-108001493D01*
X154186506Y-108001490D01*
X154151419Y-107997718D01*
X154129251Y-107996927D01*
X152839089Y-108043004D01*
X152811159Y-108038596D01*
X151948850Y-107725028D01*
X151907081Y-107686776D01*
X151904594Y-107630194D01*
X151921812Y-107603158D01*
X151950460Y-107574511D01*
X152540460Y-106984511D01*
X152569327Y-106934511D01*
X152580021Y-106915989D01*
X152600500Y-106839562D01*
X152600500Y-106838747D01*
X152602313Y-106833431D01*
X152603723Y-106831826D01*
X152610600Y-106816541D01*
X152612199Y-106814116D01*
X152612204Y-106814112D01*
X152618800Y-106800738D01*
X152618799Y-106800737D01*
X152624209Y-106789771D01*
X152626490Y-106785503D01*
X152632114Y-106775762D01*
X152673207Y-106704587D01*
X152695367Y-106621880D01*
X152700500Y-106612991D01*
X152700500Y-106496288D01*
X152699247Y-106492597D01*
X152688944Y-106454147D01*
X152673207Y-106395413D01*
X152620480Y-106304087D01*
X152545913Y-106229520D01*
X152502499Y-106204455D01*
X152502498Y-106204454D01*
X152454609Y-106176804D01*
X152454594Y-106176797D01*
X152454591Y-106176795D01*
X152454584Y-106176792D01*
X152454585Y-106176792D01*
X152454583Y-106176791D01*
X152454582Y-106176791D01*
X152352729Y-106149500D01*
X152352728Y-106149500D01*
X152247272Y-106149500D01*
X152247271Y-106149500D01*
X152192338Y-106164219D01*
X152145413Y-106176792D01*
X152145411Y-106176793D01*
X152145406Y-106176795D01*
X152054088Y-106229518D01*
X151979518Y-106304088D01*
X151926795Y-106395406D01*
X151926793Y-106395411D01*
X151926792Y-106395413D01*
X151926791Y-106395417D01*
X151899500Y-106497270D01*
X151899500Y-106602726D01*
X151904633Y-106621883D01*
X151921149Y-106683525D01*
X151923037Y-106712336D01*
X151920304Y-106733096D01*
X151899263Y-106775762D01*
X151837233Y-106837793D01*
X151813224Y-106853836D01*
X151805865Y-106856884D01*
X151749228Y-106856882D01*
X151709181Y-106816834D01*
X151706131Y-106809471D01*
X151700500Y-106781157D01*
X151700500Y-106551515D01*
X151700500Y-106550180D01*
X151699500Y-106545152D01*
X151691767Y-106506278D01*
X151662589Y-106462611D01*
X151659883Y-106456263D01*
X151659843Y-106452462D01*
X151655375Y-106441675D01*
X151651623Y-106422811D01*
X151662671Y-106367266D01*
X151691767Y-106323722D01*
X151700500Y-106279820D01*
X151700500Y-105900180D01*
X151691767Y-105856278D01*
X151685293Y-105846590D01*
X151674245Y-105819919D01*
X151672046Y-105808864D01*
X151674229Y-105797885D01*
X151673974Y-105797270D01*
X153649500Y-105797270D01*
X153649500Y-105902729D01*
X153669066Y-105975750D01*
X153676792Y-106004585D01*
X153676793Y-106004587D01*
X153676795Y-106004592D01*
X153729519Y-106095912D01*
X153729521Y-106095914D01*
X153787418Y-106153812D01*
X153803457Y-106177814D01*
X153813868Y-106202948D01*
X153819500Y-106231263D01*
X153819500Y-106446844D01*
X153819499Y-106446873D01*
X153819499Y-106545850D01*
X153837606Y-106589563D01*
X153854589Y-106630565D01*
X153854593Y-106630570D01*
X153934054Y-106710031D01*
X153934060Y-106710036D01*
X155187418Y-107963394D01*
X155203457Y-107987397D01*
X155213868Y-108012531D01*
X155219500Y-108040846D01*
X155219500Y-113051571D01*
X155212254Y-113083506D01*
X154614916Y-114332119D01*
X154614647Y-114332849D01*
X154613600Y-114335521D01*
X154537951Y-114518155D01*
X154537949Y-114518161D01*
X154537946Y-114518171D01*
X154522881Y-114593912D01*
X154499500Y-114711460D01*
X154499500Y-114908539D01*
X154500304Y-114912579D01*
X154537946Y-115101827D01*
X154537949Y-115101838D01*
X154537951Y-115101843D01*
X154613365Y-115283910D01*
X154706783Y-115423720D01*
X154711114Y-115430201D01*
X154722861Y-115447782D01*
X154862218Y-115587139D01*
X155026086Y-115696632D01*
X155208165Y-115772051D01*
X155401459Y-115810500D01*
X155401461Y-115810500D01*
X155598539Y-115810500D01*
X155598541Y-115810500D01*
X155791835Y-115772051D01*
X155973914Y-115696632D01*
X156137782Y-115587139D01*
X156277139Y-115447782D01*
X156386632Y-115283914D01*
X156462051Y-115101835D01*
X156500500Y-114908541D01*
X156500500Y-114711459D01*
X156462051Y-114518165D01*
X156386632Y-114336086D01*
X156386631Y-114336084D01*
X156386515Y-114335910D01*
X156380147Y-114324226D01*
X156379788Y-114323399D01*
X156040547Y-113712823D01*
X155909530Y-113477015D01*
X155906745Y-113473291D01*
X155884469Y-113443503D01*
X155884458Y-113443491D01*
X155880089Y-113439049D01*
X155880081Y-113439042D01*
X155846974Y-113413420D01*
X155807999Y-113390917D01*
X155792678Y-113379160D01*
X155760839Y-113347322D01*
X155749081Y-113331999D01*
X155726565Y-113293003D01*
X155719171Y-113275150D01*
X155719091Y-113274853D01*
X155707977Y-113233367D01*
X155707521Y-113231664D01*
X155705000Y-113212515D01*
X155705000Y-113152225D01*
X155704999Y-113152215D01*
X155702446Y-113132200D01*
X155700021Y-113113185D01*
X155698548Y-113107505D01*
X155698545Y-113107497D01*
X155685791Y-113075605D01*
X155680500Y-113048127D01*
X155680500Y-107956527D01*
X155680501Y-107956490D01*
X155680501Y-107854148D01*
X155657155Y-107797788D01*
X155657151Y-107797781D01*
X155645411Y-107769437D01*
X155645410Y-107769434D01*
X155645408Y-107769431D01*
X155576353Y-107700376D01*
X155576346Y-107700370D01*
X154312581Y-106436605D01*
X154296541Y-106412599D01*
X154286131Y-106387467D01*
X154280500Y-106359153D01*
X154280500Y-106231263D01*
X154286131Y-106202949D01*
X154296542Y-106177814D01*
X154312584Y-106153808D01*
X154316893Y-106149500D01*
X154370480Y-106095913D01*
X154423207Y-106004587D01*
X154445367Y-105921880D01*
X154450500Y-105912991D01*
X154450500Y-105796284D01*
X154449242Y-105792578D01*
X154448726Y-105790654D01*
X154448726Y-105790655D01*
X154423207Y-105695413D01*
X154370480Y-105604087D01*
X154295913Y-105529520D01*
X154295911Y-105529518D01*
X154204592Y-105476795D01*
X154204587Y-105476793D01*
X154204585Y-105476792D01*
X154204583Y-105476791D01*
X154204582Y-105476791D01*
X154102729Y-105449500D01*
X154102728Y-105449500D01*
X153997272Y-105449500D01*
X153997271Y-105449500D01*
X153978286Y-105454587D01*
X153895413Y-105476792D01*
X153895411Y-105476793D01*
X153895406Y-105476795D01*
X153804088Y-105529518D01*
X153729518Y-105604088D01*
X153676795Y-105695406D01*
X153676793Y-105695411D01*
X153676792Y-105695413D01*
X153673282Y-105708512D01*
X153649500Y-105797270D01*
X151673974Y-105797270D01*
X151671966Y-105792420D01*
X151681681Y-105760410D01*
X151683089Y-105753326D01*
X151684433Y-105751314D01*
X151684443Y-105751308D01*
X151684448Y-105751293D01*
X151685190Y-105750183D01*
X151685190Y-105750182D01*
X151685379Y-105749900D01*
X151717972Y-105726565D01*
X151716720Y-105724061D01*
X151716730Y-105724056D01*
X151726830Y-105720223D01*
X151727786Y-105719539D01*
X151729839Y-105718990D01*
X151733818Y-105715500D01*
X151748238Y-105707175D01*
X151775573Y-105697894D01*
X151802539Y-105694344D01*
X151831348Y-105696232D01*
X151847273Y-105700500D01*
X151952729Y-105700500D01*
X151962992Y-105700500D01*
X151971880Y-105695367D01*
X152054587Y-105673207D01*
X152145913Y-105620480D01*
X152220480Y-105545913D01*
X152273207Y-105454587D01*
X152295367Y-105371880D01*
X152300500Y-105362991D01*
X152300500Y-105246288D01*
X152299247Y-105242597D01*
X152289515Y-105206278D01*
X152273207Y-105145413D01*
X152220480Y-105054087D01*
X152145913Y-104979520D01*
X152145911Y-104979518D01*
X152054592Y-104926795D01*
X152054587Y-104926793D01*
X152054585Y-104926792D01*
X152054583Y-104926791D01*
X152054582Y-104926791D01*
X151952729Y-104899500D01*
X151952728Y-104899500D01*
X151847272Y-104899500D01*
X151847271Y-104899500D01*
X151766932Y-104921026D01*
X151745413Y-104926792D01*
X151745411Y-104926793D01*
X151745406Y-104926795D01*
X151654083Y-104979521D01*
X151596100Y-105037504D01*
X151588830Y-105043881D01*
X151581204Y-105049734D01*
X151573150Y-105055116D01*
X151565488Y-105059539D01*
X151542610Y-105082418D01*
X151518604Y-105098458D01*
X151493474Y-105108867D01*
X151465158Y-105114500D01*
X148535180Y-105114500D01*
X148513229Y-105118866D01*
X148513225Y-105118866D01*
X148491277Y-105123233D01*
X148441496Y-105156494D01*
X148441494Y-105156496D01*
X148408233Y-105206276D01*
X148399500Y-105250181D01*
X148399500Y-105475389D01*
X148377826Y-105527715D01*
X148325500Y-105549389D01*
X148287740Y-105539030D01*
X148270333Y-105528702D01*
X148234793Y-105513232D01*
X148234783Y-105513229D01*
X148209564Y-105505824D01*
X148209558Y-105505822D01*
X148209553Y-105505821D01*
X148203361Y-105504474D01*
X148187876Y-105501105D01*
X148187845Y-105501100D01*
X148152942Y-105496083D01*
X148152923Y-105496081D01*
X148130818Y-105494500D01*
X148130808Y-105494500D01*
X147943350Y-105494500D01*
X147943335Y-105494500D01*
X147922574Y-105495893D01*
X147889772Y-105500313D01*
X147869346Y-105504474D01*
X147869333Y-105504477D01*
X147856105Y-105508110D01*
X147816709Y-105525064D01*
X147816707Y-105525064D01*
X147816705Y-105525066D01*
X147758740Y-105560188D01*
X147744042Y-105572151D01*
X147725466Y-105587270D01*
X147714003Y-105599593D01*
X147714001Y-105599595D01*
X147700102Y-105616857D01*
X147700099Y-105616862D01*
X147679982Y-105645864D01*
X147668672Y-105664945D01*
X147580462Y-105841366D01*
X147573355Y-105857911D01*
X147563579Y-105884884D01*
X147558434Y-105902139D01*
X147558433Y-105902144D01*
X147551976Y-105929493D01*
X147551974Y-105929502D01*
X147548864Y-105947212D01*
X147548858Y-105947253D01*
X147545545Y-105975706D01*
X147545541Y-105975750D01*
X147544500Y-105993710D01*
X147544500Y-107293407D01*
X147522826Y-107345733D01*
X147520959Y-107347536D01*
X147170078Y-107674629D01*
X147119619Y-107694500D01*
X144710303Y-107694500D01*
X144657977Y-107672826D01*
X144652519Y-107666727D01*
X144564977Y-107557299D01*
X144556662Y-107547729D01*
X144542852Y-107533084D01*
X144533834Y-107524267D01*
X144533822Y-107524256D01*
X144532516Y-107523079D01*
X144504264Y-107502845D01*
X144504259Y-107502842D01*
X144504256Y-107502840D01*
X144461024Y-107478684D01*
X144456185Y-107475980D01*
X144456182Y-107475978D01*
X144456179Y-107475977D01*
X144424147Y-107462525D01*
X144424125Y-107462518D01*
X144401343Y-107455828D01*
X144401331Y-107455825D01*
X144379637Y-107451106D01*
X144344698Y-107446082D01*
X144322581Y-107444500D01*
X144322572Y-107444500D01*
X143161843Y-107444500D01*
X143149248Y-107446082D01*
X143123394Y-107449329D01*
X143123392Y-107449329D01*
X143123388Y-107449330D01*
X143068293Y-107463391D01*
X143063955Y-107464499D01*
X143027900Y-107478684D01*
X143004828Y-107491281D01*
X143004797Y-107491300D01*
X142986140Y-107503289D01*
X142986139Y-107503290D01*
X142957888Y-107524439D01*
X142941114Y-107538974D01*
X142941112Y-107538976D01*
X142557264Y-107922826D01*
X142504938Y-107944500D01*
X141704408Y-107944500D01*
X141692700Y-107945386D01*
X141680988Y-107946273D01*
X141680974Y-107946275D01*
X141644072Y-107951895D01*
X141621192Y-107957175D01*
X141621162Y-107957183D01*
X141589476Y-107967068D01*
X141589465Y-107967071D01*
X141568827Y-107975167D01*
X141568815Y-107975171D01*
X141536962Y-107990370D01*
X141517671Y-108001329D01*
X141479059Y-108027071D01*
X141438011Y-108039500D01*
X141401459Y-108039500D01*
X141346662Y-108050398D01*
X141346662Y-108050399D01*
X141319115Y-108055878D01*
X141208171Y-108077946D01*
X141208161Y-108077949D01*
X141208155Y-108077951D01*
X141026086Y-108153366D01*
X140861948Y-108263039D01*
X140860567Y-108264511D01*
X140724511Y-108400567D01*
X140723039Y-108401948D01*
X140613367Y-108566085D01*
X140598000Y-108603186D01*
X140581964Y-108627189D01*
X140576331Y-108632823D01*
X140524007Y-108654502D01*
X140471679Y-108632833D01*
X140450000Y-108580509D01*
X140450000Y-104599218D01*
X140455629Y-104570909D01*
X140459943Y-104560494D01*
X140499982Y-104520448D01*
X140510411Y-104516128D01*
X140538719Y-104510500D01*
X156710781Y-104510500D01*
X156739091Y-104516129D01*
G37*
%TD.AperFunction*%
%TA.AperFunction,Conductor*%
G36*
X140555366Y-111970523D02*
G01*
X140595414Y-112010570D01*
X140595415Y-112010572D01*
X140613366Y-112053912D01*
X140722859Y-112217780D01*
X140862218Y-112357139D01*
X141026086Y-112466632D01*
X141049547Y-112476350D01*
X141049546Y-112476350D01*
X141205859Y-112541096D01*
X141208165Y-112542051D01*
X141401459Y-112580500D01*
X141401461Y-112580500D01*
X141598539Y-112580500D01*
X141598541Y-112580500D01*
X141791835Y-112542051D01*
X141791836Y-112542050D01*
X141791838Y-112542050D01*
X141795315Y-112540995D01*
X141795345Y-112541096D01*
X141803541Y-112538609D01*
X141803533Y-112538574D01*
X141804258Y-112538392D01*
X141804777Y-112538234D01*
X141805295Y-112538132D01*
X142899837Y-112206131D01*
X142956202Y-112211684D01*
X142973643Y-112224619D01*
X143225370Y-112476346D01*
X143225373Y-112476350D01*
X143266463Y-112517440D01*
X143274655Y-112537218D01*
X143361070Y-112573010D01*
X143361068Y-112573012D01*
X143361083Y-112573015D01*
X143367728Y-112575768D01*
X143379149Y-112580500D01*
X143379150Y-112580500D01*
X143379151Y-112580500D01*
X143702982Y-112580500D01*
X143731292Y-112586129D01*
X143738653Y-112589178D01*
X143778705Y-112629222D01*
X143778710Y-112685859D01*
X143738665Y-112725912D01*
X143738658Y-112725914D01*
X143675254Y-112752176D01*
X143675251Y-112752179D01*
X143669437Y-112754587D01*
X143669431Y-112754591D01*
X142965102Y-113458919D01*
X142912776Y-113480593D01*
X142892118Y-113477651D01*
X141801161Y-113160483D01*
X141801132Y-113160478D01*
X141794851Y-113159198D01*
X141791839Y-113157950D01*
X141791829Y-113157947D01*
X141662388Y-113132200D01*
X141662285Y-113132179D01*
X141662204Y-113132163D01*
X141619684Y-113123705D01*
X141598541Y-113119500D01*
X141598540Y-113119500D01*
X141401459Y-113119500D01*
X141346662Y-113130398D01*
X141346662Y-113130399D01*
X141319115Y-113135878D01*
X141208171Y-113157946D01*
X141208161Y-113157949D01*
X141208155Y-113157951D01*
X141026086Y-113233366D01*
X140861948Y-113343039D01*
X140860567Y-113344511D01*
X140724511Y-113480567D01*
X140723039Y-113481948D01*
X140613367Y-113646085D01*
X140598000Y-113683186D01*
X140581964Y-113707189D01*
X140576331Y-113712823D01*
X140524007Y-113734502D01*
X140471679Y-113712833D01*
X140450000Y-113660509D01*
X140450000Y-112046249D01*
X140455631Y-112017935D01*
X140458681Y-112010571D01*
X140498728Y-111970524D01*
X140555363Y-111970522D01*
X140555366Y-111970523D01*
G37*
%TD.AperFunction*%
%TD*%
%TA.AperFunction,Conductor*%
%TO.N,+3.3V*%
G36*
X148165740Y-105655021D02*
G01*
X148190984Y-105662434D01*
X148243730Y-105693730D01*
X148251073Y-105701073D01*
X148258327Y-105714357D01*
X148259750Y-105713425D01*
X148279701Y-105743857D01*
X148299995Y-105810715D01*
X148300000Y-105811843D01*
X148300000Y-107575000D01*
X148450000Y-107800000D01*
X151667315Y-107800000D01*
X151688825Y-107801879D01*
X151709863Y-107805586D01*
X151730711Y-107811167D01*
X152384572Y-108048935D01*
X152793304Y-108197566D01*
X152800079Y-108200480D01*
X152807762Y-108199723D01*
X153070524Y-108190338D01*
X153140916Y-108187824D01*
X154134801Y-108152328D01*
X154169891Y-108156101D01*
X154196671Y-108162936D01*
X154245388Y-108187824D01*
X154339635Y-108266362D01*
X154339636Y-108266363D01*
X154441686Y-108351405D01*
X154465309Y-108377630D01*
X154478916Y-108397933D01*
X154498439Y-108447921D01*
X154498529Y-108448500D01*
X154500000Y-108467546D01*
X154500000Y-108972572D01*
X154494976Y-109007512D01*
X154488272Y-109030340D01*
X154461408Y-109078414D01*
X154460231Y-109079720D01*
X154445582Y-109093533D01*
X154297887Y-109211690D01*
X154267469Y-109229592D01*
X154240309Y-109240729D01*
X154193264Y-109250000D01*
X153499998Y-109250000D01*
X151586946Y-110132947D01*
X151561588Y-110141472D01*
X151535913Y-110147112D01*
X151509308Y-110150000D01*
X148602993Y-110150000D01*
X148568809Y-110145195D01*
X148536596Y-110135956D01*
X148505062Y-110121914D01*
X148385465Y-110047166D01*
X148150000Y-109900000D01*
X147699999Y-109900000D01*
X147699998Y-109900000D01*
X147598923Y-110001075D01*
X147570671Y-110022225D01*
X147547586Y-110034831D01*
X147488157Y-110050000D01*
X141801200Y-110050000D01*
X141768100Y-110045500D01*
X141736792Y-110036828D01*
X141706099Y-110023659D01*
X141575488Y-109945293D01*
X141548118Y-109923012D01*
X141534985Y-109908766D01*
X141505408Y-109852935D01*
X141503251Y-109843704D01*
X141500000Y-109815496D01*
X141500000Y-108879822D01*
X148399499Y-108879822D01*
X148408231Y-108923717D01*
X148408232Y-108923721D01*
X148408233Y-108923722D01*
X148441496Y-108973504D01*
X148491278Y-109006767D01*
X148491281Y-109006767D01*
X148491282Y-109006768D01*
X148491284Y-109006768D01*
X148497097Y-109008532D01*
X148497113Y-109008536D01*
X148497156Y-109008549D01*
X148503255Y-109009149D01*
X148518326Y-109012148D01*
X148535176Y-109015500D01*
X151564822Y-109015500D01*
X151564824Y-109015500D01*
X151596745Y-109009150D01*
X151600880Y-109008326D01*
X151608717Y-109006768D01*
X151608717Y-109006767D01*
X151608718Y-109006767D01*
X151608722Y-109006767D01*
X151608723Y-109006765D01*
X151613868Y-109005742D01*
X151624006Y-108996554D01*
X151658504Y-108973504D01*
X151691767Y-108923722D01*
X151700500Y-108879820D01*
X151700500Y-108500180D01*
X151700500Y-108500177D01*
X151691768Y-108456282D01*
X151691767Y-108456281D01*
X151691767Y-108456278D01*
X151658504Y-108406496D01*
X151658503Y-108406494D01*
X151658501Y-108406493D01*
X151608728Y-108373236D01*
X151608717Y-108373230D01*
X151608715Y-108373230D01*
X151564826Y-108364500D01*
X151564822Y-108364500D01*
X151564820Y-108364500D01*
X148535180Y-108364500D01*
X148535178Y-108364500D01*
X148535174Y-108364500D01*
X148491283Y-108373230D01*
X148491281Y-108373230D01*
X148491270Y-108373236D01*
X148441497Y-108406493D01*
X148441493Y-108406497D01*
X148408236Y-108456270D01*
X148408230Y-108456281D01*
X148408230Y-108456283D01*
X148399500Y-108500172D01*
X148399500Y-108500176D01*
X148399500Y-108500177D01*
X148399500Y-108500180D01*
X148399500Y-108879820D01*
X148399500Y-108879822D01*
X148399499Y-108879822D01*
X141500000Y-108879822D01*
X141500000Y-108284191D01*
X141505023Y-108249256D01*
X141510925Y-108229156D01*
X141541483Y-108177154D01*
X141546237Y-108172319D01*
X141565866Y-108156088D01*
X141603929Y-108130712D01*
X141635778Y-108115515D01*
X141667484Y-108105624D01*
X141704408Y-108100000D01*
X142600000Y-108100000D01*
X143051076Y-107648923D01*
X143079326Y-107627775D01*
X143102418Y-107615167D01*
X143161843Y-107600000D01*
X144322572Y-107600000D01*
X144357507Y-107605023D01*
X144380335Y-107611726D01*
X144428414Y-107638591D01*
X144429720Y-107639768D01*
X144443534Y-107654418D01*
X144600000Y-107850000D01*
X147209999Y-107850000D01*
X147210000Y-107850000D01*
X147700000Y-107393221D01*
X147700000Y-105993711D01*
X147703317Y-105965223D01*
X147709774Y-105937869D01*
X147719546Y-105910906D01*
X147807754Y-105734490D01*
X147827868Y-105705494D01*
X147839322Y-105693180D01*
X147897287Y-105658058D01*
X147910524Y-105654423D01*
X147943350Y-105650000D01*
X148130808Y-105650000D01*
X148165740Y-105655021D01*
G37*
%TD.AperFunction*%
%TD*%
%TA.AperFunction,Conductor*%
%TO.N,GND*%
G36*
X125209764Y-104506131D02*
G01*
X125217127Y-104509181D01*
X125257175Y-104549228D01*
X125257177Y-104605865D01*
X125257176Y-104605868D01*
X125255046Y-104611010D01*
X125240741Y-104625314D01*
X125243274Y-104627644D01*
X125208742Y-104665188D01*
X125182594Y-104683460D01*
X125172188Y-104687770D01*
X125115552Y-104687769D01*
X125104076Y-104683015D01*
X125104071Y-104683015D01*
X125069044Y-104694633D01*
X125062298Y-104696522D01*
X125055495Y-104698083D01*
X125048614Y-104699323D01*
X125047266Y-104699500D01*
X125047260Y-104699501D01*
X124945418Y-104726790D01*
X124945417Y-104726790D01*
X124945411Y-104726793D01*
X124945406Y-104726795D01*
X124854088Y-104779518D01*
X124779518Y-104854088D01*
X124726795Y-104945406D01*
X124726793Y-104945411D01*
X124726792Y-104945413D01*
X124726791Y-104945417D01*
X124699500Y-105047270D01*
X124699500Y-105152729D01*
X124726791Y-105254582D01*
X124726792Y-105254584D01*
X124726804Y-105254609D01*
X124761856Y-105315318D01*
X124761861Y-105315326D01*
X124779520Y-105345913D01*
X124854087Y-105420480D01*
X124945413Y-105473207D01*
X125042589Y-105499244D01*
X125046287Y-105500500D01*
X125152729Y-105500500D01*
X125161169Y-105500500D01*
X125167013Y-105496852D01*
X125169408Y-105496029D01*
X125254587Y-105473207D01*
X125281963Y-105457400D01*
X125288731Y-105455078D01*
X125292471Y-105455310D01*
X125303092Y-105451705D01*
X125314265Y-105450234D01*
X125368961Y-105464887D01*
X125369648Y-105465414D01*
X125396085Y-105504970D01*
X125396977Y-105508298D01*
X125399500Y-105527456D01*
X125399500Y-105624674D01*
X125407422Y-105664501D01*
X125414034Y-105697740D01*
X125469398Y-105780600D01*
X125469400Y-105780602D01*
X125469401Y-105780603D01*
X125469404Y-105780605D01*
X125474368Y-105783922D01*
X125494788Y-105804340D01*
X125504898Y-105819470D01*
X125515948Y-105875018D01*
X125511739Y-105888898D01*
X125505855Y-105903104D01*
X125474487Y-105938874D01*
X125404085Y-105979520D01*
X125329518Y-106054087D01*
X125276795Y-106145406D01*
X125276793Y-106145411D01*
X125276792Y-106145413D01*
X125275786Y-106149166D01*
X125249500Y-106247270D01*
X125249500Y-106352729D01*
X125276791Y-106454582D01*
X125276792Y-106454585D01*
X125276793Y-106454587D01*
X125276795Y-106454592D01*
X125314649Y-106520156D01*
X125329517Y-106545909D01*
X125329518Y-106545910D01*
X125329520Y-106545913D01*
X125404087Y-106620480D01*
X125495413Y-106673207D01*
X125592589Y-106699244D01*
X125596287Y-106700500D01*
X125702729Y-106700500D01*
X125712992Y-106700500D01*
X125721880Y-106695367D01*
X125804587Y-106673207D01*
X125852954Y-106645281D01*
X125870791Y-106637893D01*
X125888981Y-106633019D01*
X125908127Y-106630500D01*
X126478221Y-106630500D01*
X126478253Y-106630501D01*
X126480538Y-106630501D01*
X126489150Y-106630501D01*
X126580850Y-106630501D01*
X126619234Y-106614600D01*
X126630474Y-106609945D01*
X126630476Y-106609944D01*
X126641205Y-106605500D01*
X126665568Y-106595409D01*
X126730409Y-106530568D01*
X126730409Y-106530567D01*
X126740814Y-106520162D01*
X126740814Y-106520161D01*
X126746899Y-106514075D01*
X126746902Y-106514073D01*
X126746904Y-106514069D01*
X127118396Y-106142579D01*
X127142400Y-106126541D01*
X127167531Y-106116131D01*
X127195847Y-106110500D01*
X127620500Y-106110500D01*
X127672826Y-106132174D01*
X127694500Y-106184500D01*
X127694500Y-106764730D01*
X127696658Y-106790548D01*
X127700747Y-106814836D01*
X127703495Y-106831153D01*
X127703495Y-106831156D01*
X127714633Y-106858019D01*
X127728875Y-106892372D01*
X127730210Y-106895590D01*
X127730211Y-106895593D01*
X127756179Y-106932026D01*
X127770763Y-106952487D01*
X127801319Y-106984505D01*
X127801323Y-106984508D01*
X127801327Y-106984512D01*
X127943739Y-107096408D01*
X127971493Y-107145779D01*
X127956207Y-107200314D01*
X127939130Y-107216125D01*
X127899907Y-107242331D01*
X127860841Y-107254773D01*
X127857662Y-107254860D01*
X127854570Y-107255209D01*
X127854453Y-107254172D01*
X127802263Y-107243782D01*
X127800091Y-107242331D01*
X127757741Y-107214034D01*
X127721592Y-107206843D01*
X127709966Y-107203522D01*
X127698758Y-107199303D01*
X127687832Y-107194136D01*
X127645995Y-107169981D01*
X127645990Y-107169979D01*
X127645984Y-107169976D01*
X127645982Y-107169976D01*
X127569566Y-107149500D01*
X127569564Y-107149500D01*
X127569562Y-107149500D01*
X127490438Y-107149500D01*
X127490436Y-107149500D01*
X127490434Y-107149500D01*
X127414018Y-107169975D01*
X127414014Y-107169977D01*
X127397069Y-107179760D01*
X127397067Y-107179761D01*
X127372167Y-107194136D01*
X127361239Y-107199305D01*
X127353070Y-107202379D01*
X127350036Y-107203521D01*
X127338407Y-107206843D01*
X127302259Y-107214033D01*
X127257737Y-107243782D01*
X127219399Y-107269398D01*
X127219398Y-107269399D01*
X127219397Y-107269400D01*
X127219396Y-107269400D01*
X127219392Y-107269405D01*
X127209703Y-107283906D01*
X127189292Y-107304318D01*
X127179926Y-107310577D01*
X127124378Y-107321630D01*
X127124374Y-107321629D01*
X127121130Y-107320984D01*
X127074046Y-107289520D01*
X127060605Y-107269404D01*
X127060603Y-107269402D01*
X127060601Y-107269399D01*
X127060600Y-107269398D01*
X126998384Y-107227827D01*
X126977739Y-107214033D01*
X126941592Y-107206843D01*
X126929966Y-107203522D01*
X126918758Y-107199303D01*
X126907832Y-107194136D01*
X126865995Y-107169981D01*
X126865990Y-107169979D01*
X126865984Y-107169976D01*
X126865982Y-107169976D01*
X126789566Y-107149500D01*
X126789564Y-107149500D01*
X126789562Y-107149500D01*
X126710438Y-107149500D01*
X126710436Y-107149500D01*
X126710434Y-107149500D01*
X126634018Y-107169975D01*
X126634014Y-107169977D01*
X126617069Y-107179760D01*
X126607425Y-107185328D01*
X126588571Y-107196213D01*
X126585216Y-107198036D01*
X126583206Y-107199062D01*
X126564001Y-107205730D01*
X126522260Y-107214034D01*
X126522258Y-107214034D01*
X126479907Y-107242331D01*
X126445734Y-107254475D01*
X126443280Y-107254705D01*
X126437665Y-107254861D01*
X126434098Y-107255570D01*
X126430312Y-107255927D01*
X126406641Y-107248635D01*
X126382263Y-107243782D01*
X126380091Y-107242331D01*
X126337741Y-107214034D01*
X126301592Y-107206843D01*
X126289966Y-107203522D01*
X126278758Y-107199303D01*
X126267832Y-107194136D01*
X126225995Y-107169981D01*
X126225990Y-107169979D01*
X126225984Y-107169976D01*
X126225982Y-107169976D01*
X126149566Y-107149500D01*
X126149564Y-107149500D01*
X126149562Y-107149500D01*
X126070438Y-107149500D01*
X126070436Y-107149500D01*
X126070434Y-107149500D01*
X125994018Y-107169975D01*
X125994014Y-107169977D01*
X125977069Y-107179760D01*
X125977067Y-107179761D01*
X125952167Y-107194136D01*
X125941239Y-107199305D01*
X125933070Y-107202379D01*
X125930036Y-107203521D01*
X125918407Y-107206843D01*
X125882259Y-107214033D01*
X125799398Y-107269398D01*
X125744033Y-107352260D01*
X125742971Y-107355762D01*
X125742612Y-107359407D01*
X125729500Y-107425326D01*
X125729500Y-107674673D01*
X125739424Y-107724568D01*
X125739451Y-107724704D01*
X125745397Y-107754898D01*
X125745372Y-107754903D01*
X125748075Y-107768490D01*
X125748105Y-107768643D01*
X125748096Y-107768687D01*
X125749500Y-107782943D01*
X125749500Y-107838733D01*
X125743866Y-107867053D01*
X125727858Y-107905697D01*
X125723578Y-107914377D01*
X125676795Y-107995406D01*
X125676793Y-107995411D01*
X125676792Y-107995413D01*
X125676791Y-107995417D01*
X125650324Y-108094197D01*
X125649500Y-108097271D01*
X125649500Y-108176310D01*
X125627826Y-108228636D01*
X125575500Y-108250310D01*
X125564970Y-108249557D01*
X125529799Y-108244500D01*
X125529793Y-108244500D01*
X124674000Y-108244500D01*
X124673999Y-108244500D01*
X124640944Y-108248054D01*
X124589435Y-108259259D01*
X124520657Y-108293687D01*
X124467858Y-108339437D01*
X124462380Y-108344418D01*
X124462379Y-108344420D01*
X124426668Y-108403006D01*
X124420482Y-108413154D01*
X124400799Y-108480187D01*
X124394500Y-108523995D01*
X124394500Y-108975500D01*
X124398054Y-109008555D01*
X124409260Y-109060067D01*
X124443685Y-109128839D01*
X124443692Y-109128849D01*
X124450030Y-109136163D01*
X124467918Y-109189901D01*
X124466684Y-109199059D01*
X124461083Y-109227222D01*
X124459500Y-109235180D01*
X124459500Y-109764819D01*
X124462319Y-109778992D01*
X124468232Y-109808720D01*
X124468232Y-109808721D01*
X124468233Y-109808722D01*
X124493039Y-109845848D01*
X124501496Y-109858504D01*
X124551278Y-109891767D01*
X124595180Y-109900500D01*
X124595181Y-109900500D01*
X125624819Y-109900500D01*
X125624820Y-109900500D01*
X125668722Y-109891767D01*
X125718504Y-109858504D01*
X125751767Y-109808722D01*
X125752373Y-109805674D01*
X125754100Y-109803088D01*
X125754556Y-109801989D01*
X125754774Y-109802079D01*
X125783835Y-109758582D01*
X125839383Y-109747529D01*
X125886477Y-109778992D01*
X125887079Y-109779907D01*
X125982800Y-109927839D01*
X126003572Y-109953493D01*
X126040635Y-109990440D01*
X126040636Y-109990441D01*
X126103404Y-110027617D01*
X126106610Y-110029516D01*
X126173649Y-110049201D01*
X126217460Y-110055500D01*
X126217466Y-110055500D01*
X130912456Y-110055500D01*
X130912548Y-110055500D01*
X130913539Y-110055495D01*
X130913799Y-110055494D01*
X130915883Y-110055476D01*
X130960850Y-110048426D01*
X131027549Y-110027618D01*
X131067495Y-110008558D01*
X131067498Y-110008555D01*
X131067500Y-110008555D01*
X131150092Y-109953493D01*
X131189595Y-109927157D01*
X131245154Y-109916166D01*
X131292213Y-109947681D01*
X131303205Y-110003241D01*
X131282968Y-110041055D01*
X130486605Y-110837418D01*
X130462599Y-110853458D01*
X130437469Y-110863867D01*
X130409153Y-110869500D01*
X125842776Y-110869500D01*
X125814459Y-110863867D01*
X125800190Y-110857957D01*
X125763251Y-110824478D01*
X125760654Y-110819620D01*
X125753337Y-110799175D01*
X125751767Y-110791278D01*
X125718504Y-110741496D01*
X125718501Y-110741494D01*
X125668722Y-110708233D01*
X125624820Y-110699500D01*
X125624819Y-110699500D01*
X124595184Y-110699500D01*
X124595180Y-110699500D01*
X124573229Y-110703866D01*
X124573225Y-110703866D01*
X124551277Y-110708233D01*
X124501496Y-110741494D01*
X124501494Y-110741496D01*
X124468234Y-110791275D01*
X124468233Y-110791275D01*
X124459500Y-110835181D01*
X124459500Y-111364818D01*
X124468232Y-111408722D01*
X124493574Y-111446649D01*
X124504623Y-111473323D01*
X124508375Y-111492184D01*
X124497326Y-111547733D01*
X124468232Y-111591275D01*
X124467170Y-111594778D01*
X124466811Y-111598426D01*
X124463082Y-111617173D01*
X124459500Y-111635180D01*
X124459500Y-112164820D01*
X124468233Y-112208722D01*
X124501496Y-112258504D01*
X124551278Y-112291767D01*
X124595180Y-112300500D01*
X124595181Y-112300500D01*
X125624819Y-112300500D01*
X125624820Y-112300500D01*
X125668722Y-112291767D01*
X125718504Y-112258504D01*
X125751767Y-112208722D01*
X125752607Y-112204500D01*
X125763658Y-112177821D01*
X125772236Y-112164984D01*
X125812288Y-112135282D01*
X125817560Y-112133683D01*
X125839033Y-112130500D01*
X130893221Y-112130500D01*
X130893253Y-112130501D01*
X130895538Y-112130501D01*
X130904150Y-112130501D01*
X130995850Y-112130501D01*
X131045476Y-112109944D01*
X131080568Y-112095409D01*
X131145409Y-112030568D01*
X131145409Y-112030567D01*
X131155814Y-112020162D01*
X131155816Y-112020159D01*
X133170148Y-110005827D01*
X133170163Y-110005820D01*
X133170160Y-110005817D01*
X133245408Y-109930569D01*
X133245409Y-109930568D01*
X133280500Y-109845849D01*
X133280500Y-109628692D01*
X133286131Y-109600378D01*
X133289181Y-109593014D01*
X133329228Y-109552967D01*
X133385858Y-109552963D01*
X133387436Y-109553616D01*
X133423211Y-109584986D01*
X133429517Y-109595909D01*
X133429518Y-109595910D01*
X133429520Y-109595913D01*
X133504087Y-109670480D01*
X133595413Y-109723207D01*
X133692589Y-109749244D01*
X133696287Y-109750500D01*
X133802729Y-109750500D01*
X133812992Y-109750500D01*
X133821880Y-109745367D01*
X133904587Y-109723207D01*
X133995913Y-109670480D01*
X134070480Y-109595913D01*
X134123207Y-109504587D01*
X134145367Y-109421880D01*
X134150500Y-109412991D01*
X134150500Y-109297275D01*
X134134275Y-109236720D01*
X134132388Y-109227235D01*
X134131131Y-109217684D01*
X134130500Y-109208038D01*
X134130500Y-108679144D01*
X134133685Y-108657667D01*
X134134751Y-108654151D01*
X134139786Y-108637551D01*
X134149068Y-108617927D01*
X134195966Y-108547740D01*
X134210500Y-108474674D01*
X134210500Y-108225326D01*
X134195966Y-108152260D01*
X134140601Y-108069399D01*
X134140264Y-108069174D01*
X134138442Y-108067957D01*
X134138434Y-108067946D01*
X134138432Y-108067950D01*
X134057740Y-108014034D01*
X133984674Y-107999500D01*
X133984672Y-107999500D01*
X133675326Y-107999500D01*
X133626615Y-108009188D01*
X133626615Y-108009189D01*
X133614437Y-108011611D01*
X133602258Y-108014034D01*
X133568017Y-108036913D01*
X133519399Y-108069398D01*
X133519397Y-108069400D01*
X133519396Y-108069400D01*
X133519390Y-108069407D01*
X133518537Y-108070685D01*
X133517451Y-108071770D01*
X133517090Y-108072211D01*
X133517046Y-108072175D01*
X133498125Y-108091096D01*
X133488761Y-108097353D01*
X133433212Y-108108403D01*
X133430653Y-108107894D01*
X133383561Y-108076429D01*
X133381021Y-108072346D01*
X133370480Y-108054087D01*
X133311115Y-107994722D01*
X133294218Y-107968554D01*
X133293727Y-107967254D01*
X133290434Y-107957439D01*
X133285687Y-107945979D01*
X133285277Y-107944893D01*
X133285335Y-107943047D01*
X133280500Y-107918735D01*
X133280500Y-107890845D01*
X133286132Y-107862529D01*
X133296540Y-107837399D01*
X133312578Y-107813396D01*
X133912768Y-107213205D01*
X133936774Y-107197166D01*
X133944137Y-107194117D01*
X134000774Y-107194121D01*
X134040815Y-107234161D01*
X134043864Y-107241520D01*
X134049500Y-107269845D01*
X134049500Y-107302729D01*
X134076791Y-107404582D01*
X134076795Y-107404591D01*
X134108889Y-107460179D01*
X134129520Y-107495913D01*
X134204087Y-107570480D01*
X134295413Y-107623207D01*
X134392589Y-107649244D01*
X134396287Y-107650500D01*
X134502729Y-107650500D01*
X134512992Y-107650500D01*
X134521880Y-107645367D01*
X134604587Y-107623207D01*
X134695913Y-107570480D01*
X134770480Y-107495913D01*
X134794056Y-107455076D01*
X134813087Y-107433374D01*
X134819411Y-107428522D01*
X134874116Y-107413863D01*
X134923157Y-107442168D01*
X134924198Y-107443524D01*
X134939500Y-107488586D01*
X134939500Y-107503371D01*
X134942317Y-107527659D01*
X134942317Y-107527661D01*
X134942318Y-107527662D01*
X134986187Y-107627016D01*
X135062984Y-107703813D01*
X135162338Y-107747682D01*
X135186627Y-107750500D01*
X135360157Y-107750499D01*
X135388471Y-107756130D01*
X135413603Y-107766540D01*
X135437609Y-107782580D01*
X135645489Y-107990460D01*
X135698166Y-108020873D01*
X135700465Y-108022200D01*
X135708504Y-108027571D01*
X135716148Y-108033436D01*
X135723421Y-108039814D01*
X135754087Y-108070480D01*
X135845413Y-108123207D01*
X135942589Y-108149244D01*
X135946287Y-108150500D01*
X136052729Y-108150500D01*
X136062992Y-108150500D01*
X136071880Y-108145367D01*
X136154587Y-108123207D01*
X136245913Y-108070480D01*
X136320480Y-107995913D01*
X136373207Y-107904587D01*
X136395367Y-107821880D01*
X136400500Y-107812991D01*
X136400500Y-107696287D01*
X136399245Y-107692593D01*
X136380654Y-107623208D01*
X136373207Y-107595413D01*
X136320480Y-107504087D01*
X136245913Y-107429520D01*
X136240038Y-107426128D01*
X136221190Y-107415246D01*
X136154592Y-107376795D01*
X136154587Y-107376793D01*
X136154585Y-107376792D01*
X136154583Y-107376791D01*
X136154582Y-107376791D01*
X136052729Y-107349500D01*
X136052728Y-107349500D01*
X135952371Y-107349500D01*
X135933216Y-107346978D01*
X135919055Y-107343183D01*
X135874123Y-107308703D01*
X135874121Y-107308699D01*
X135870410Y-107302270D01*
X135860499Y-107265276D01*
X135860499Y-107136626D01*
X135858516Y-107119533D01*
X135857682Y-107112340D01*
X135857682Y-107112338D01*
X135856803Y-107110347D01*
X135852091Y-107088008D01*
X135850500Y-107072744D01*
X135850500Y-106734244D01*
X135853686Y-106712764D01*
X135859266Y-106694368D01*
X135859785Y-106692657D01*
X135869070Y-106673027D01*
X135878830Y-106658419D01*
X135885966Y-106647740D01*
X135900500Y-106574674D01*
X135900500Y-106265326D01*
X135885966Y-106192260D01*
X135844786Y-106130629D01*
X135830602Y-106109400D01*
X135830601Y-106109399D01*
X135819177Y-106101766D01*
X135747740Y-106054034D01*
X135735569Y-106051613D01*
X135674674Y-106039500D01*
X135674672Y-106039500D01*
X135425327Y-106039500D01*
X135425326Y-106039500D01*
X135420228Y-106040514D01*
X135389496Y-106046626D01*
X135389497Y-106046627D01*
X135352258Y-106054034D01*
X135269398Y-106109398D01*
X135225576Y-106174985D01*
X135214034Y-106192259D01*
X135208451Y-106220326D01*
X135199500Y-106265326D01*
X135199500Y-106574674D01*
X135206497Y-106609848D01*
X135214034Y-106647741D01*
X135230930Y-106673028D01*
X135240214Y-106692657D01*
X135246313Y-106712761D01*
X135249500Y-106734244D01*
X135249500Y-106801576D01*
X135243866Y-106829896D01*
X135238608Y-106842589D01*
X135202459Y-106880888D01*
X135195290Y-106884355D01*
X135171599Y-106891243D01*
X135162342Y-106892316D01*
X135162323Y-106892320D01*
X135162170Y-106892372D01*
X135161814Y-106892433D01*
X135158603Y-106893147D01*
X135158570Y-106892998D01*
X135140485Y-106896148D01*
X135128413Y-106896427D01*
X135075600Y-106875968D01*
X135073389Y-106873857D01*
X135050520Y-106822044D01*
X135050500Y-106820343D01*
X135050500Y-105709451D01*
X135049245Y-105705756D01*
X135047097Y-105697740D01*
X135030021Y-105634011D01*
X134990460Y-105565489D01*
X134934511Y-105509540D01*
X134852581Y-105427610D01*
X134836541Y-105403604D01*
X134826131Y-105378472D01*
X134820500Y-105350158D01*
X134820500Y-105315699D01*
X134826131Y-105287385D01*
X134836542Y-105262250D01*
X134852587Y-105238242D01*
X134857326Y-105233503D01*
X134880329Y-105210500D01*
X134903813Y-105187016D01*
X134947682Y-105087662D01*
X134950500Y-105063373D01*
X134950499Y-104636628D01*
X134947682Y-104612338D01*
X134947681Y-104612336D01*
X134947681Y-104612335D01*
X134946908Y-104609741D01*
X134943847Y-104590324D01*
X134943572Y-104578409D01*
X134964031Y-104525600D01*
X134966153Y-104523378D01*
X135017972Y-104500519D01*
X135019656Y-104500500D01*
X138561281Y-104500500D01*
X138589591Y-104506129D01*
X138600003Y-104510442D01*
X138640052Y-104550484D01*
X138644367Y-104560900D01*
X138650000Y-104589218D01*
X138650000Y-108563749D01*
X138644364Y-108592074D01*
X138641315Y-108599433D01*
X138601263Y-108639478D01*
X138544626Y-108639472D01*
X138504584Y-108599427D01*
X138493839Y-108573486D01*
X138493839Y-108573484D01*
X138486633Y-108556089D01*
X138486632Y-108556086D01*
X138377139Y-108392218D01*
X138237782Y-108252861D01*
X138229415Y-108247270D01*
X138225270Y-108244500D01*
X138073912Y-108143366D01*
X137891843Y-108067951D01*
X137891838Y-108067949D01*
X137891825Y-108067945D01*
X137891826Y-108067945D01*
X137762388Y-108042200D01*
X137762387Y-108042199D01*
X137711240Y-108032025D01*
X137698541Y-108029500D01*
X137698540Y-108029500D01*
X137501459Y-108029500D01*
X137446662Y-108040398D01*
X137446662Y-108040399D01*
X137419115Y-108045878D01*
X137308171Y-108067946D01*
X137308161Y-108067949D01*
X137308155Y-108067951D01*
X137126086Y-108143366D01*
X136961948Y-108253039D01*
X136960567Y-108254511D01*
X136824511Y-108390567D01*
X136823039Y-108391948D01*
X136713366Y-108556086D01*
X136637951Y-108738155D01*
X136637945Y-108738173D01*
X136605850Y-108899534D01*
X136605850Y-108899535D01*
X136599500Y-108931459D01*
X136599500Y-109128541D01*
X136605261Y-109157504D01*
X136611979Y-109191276D01*
X136611979Y-109191277D01*
X136637946Y-109321827D01*
X136637949Y-109321838D01*
X136637951Y-109321843D01*
X136713366Y-109503912D01*
X136822859Y-109667780D01*
X136962218Y-109807139D01*
X137126086Y-109916632D01*
X137159723Y-109930565D01*
X137159722Y-109930565D01*
X137304278Y-109990441D01*
X137308165Y-109992051D01*
X137501459Y-110030500D01*
X137501461Y-110030500D01*
X137698539Y-110030500D01*
X137698541Y-110030500D01*
X137891835Y-109992051D01*
X138073914Y-109916632D01*
X138237782Y-109807139D01*
X138377139Y-109667782D01*
X138486632Y-109503914D01*
X138502000Y-109466811D01*
X138518039Y-109442806D01*
X138523675Y-109437170D01*
X138576000Y-109415497D01*
X138628326Y-109437171D01*
X138650000Y-109489497D01*
X138650000Y-111103749D01*
X138644364Y-111132074D01*
X138641315Y-111139433D01*
X138601263Y-111179478D01*
X138544626Y-111179472D01*
X138504585Y-111139430D01*
X138503993Y-111138001D01*
X138503992Y-111137997D01*
X138486632Y-111096086D01*
X138377139Y-110932218D01*
X138237786Y-110792865D01*
X138237782Y-110792861D01*
X138235412Y-110791277D01*
X138111128Y-110708233D01*
X138073912Y-110683366D01*
X137891843Y-110607951D01*
X137891838Y-110607949D01*
X137891825Y-110607945D01*
X137891826Y-110607945D01*
X137762388Y-110582200D01*
X137762387Y-110582199D01*
X137711240Y-110572025D01*
X137698541Y-110569500D01*
X137698540Y-110569500D01*
X137501459Y-110569500D01*
X137446662Y-110580398D01*
X137446662Y-110580399D01*
X137419115Y-110585878D01*
X137308171Y-110607946D01*
X137308161Y-110607949D01*
X137308155Y-110607951D01*
X137126086Y-110683366D01*
X136961948Y-110793039D01*
X136960567Y-110794511D01*
X136824511Y-110930567D01*
X136823039Y-110931948D01*
X136713366Y-111096086D01*
X136637951Y-111278155D01*
X136637949Y-111278161D01*
X136637946Y-111278171D01*
X136599500Y-111471460D01*
X136599500Y-111668538D01*
X136637946Y-111861827D01*
X136637949Y-111861838D01*
X136637951Y-111861843D01*
X136713365Y-112043910D01*
X136794155Y-112164820D01*
X136822860Y-112207781D01*
X136962218Y-112347139D01*
X137126086Y-112456632D01*
X137283112Y-112521674D01*
X137308165Y-112532051D01*
X137501459Y-112570500D01*
X137501461Y-112570500D01*
X137698539Y-112570500D01*
X137698541Y-112570500D01*
X137891835Y-112532051D01*
X138073914Y-112456632D01*
X138237782Y-112347139D01*
X138377139Y-112207782D01*
X138486632Y-112043914D01*
X138502000Y-112006811D01*
X138518039Y-111982806D01*
X138523675Y-111977170D01*
X138576000Y-111955497D01*
X138628326Y-111977171D01*
X138650000Y-112029497D01*
X138650000Y-113643749D01*
X138644364Y-113672074D01*
X138641315Y-113679433D01*
X138601263Y-113719478D01*
X138544626Y-113719472D01*
X138504584Y-113679427D01*
X138501538Y-113672074D01*
X138492602Y-113650500D01*
X138492601Y-113650496D01*
X138486634Y-113636089D01*
X138377139Y-113472218D01*
X138237783Y-113332862D01*
X138237782Y-113332861D01*
X138226018Y-113325000D01*
X138217590Y-113319368D01*
X138073912Y-113223366D01*
X137891843Y-113147951D01*
X137891838Y-113147949D01*
X137891825Y-113147945D01*
X137891826Y-113147945D01*
X137762388Y-113122200D01*
X137762387Y-113122199D01*
X137711240Y-113112025D01*
X137698541Y-113109500D01*
X137698540Y-113109500D01*
X137501459Y-113109500D01*
X137446662Y-113120398D01*
X137446662Y-113120399D01*
X137419115Y-113125878D01*
X137308171Y-113147946D01*
X137308161Y-113147949D01*
X137308155Y-113147951D01*
X137126086Y-113223366D01*
X136961948Y-113333039D01*
X136960567Y-113334511D01*
X136824511Y-113470567D01*
X136823039Y-113471948D01*
X136713366Y-113636086D01*
X136637951Y-113818155D01*
X136637949Y-113818161D01*
X136637946Y-113818171D01*
X136599500Y-114011460D01*
X136599500Y-114208538D01*
X136637946Y-114401827D01*
X136637949Y-114401838D01*
X136637951Y-114401843D01*
X136713365Y-114583910D01*
X136713366Y-114583912D01*
X136713367Y-114583913D01*
X136791910Y-114701460D01*
X136822861Y-114747782D01*
X136962218Y-114887139D01*
X137126086Y-114996632D01*
X137308165Y-115072051D01*
X137501459Y-115110500D01*
X137501461Y-115110500D01*
X137698539Y-115110500D01*
X137698541Y-115110500D01*
X137891835Y-115072051D01*
X138073914Y-114996632D01*
X138237782Y-114887139D01*
X138377139Y-114747782D01*
X138486632Y-114583914D01*
X138502000Y-114546811D01*
X138518039Y-114522806D01*
X138523675Y-114517170D01*
X138576000Y-114495497D01*
X138628326Y-114517171D01*
X138650000Y-114569497D01*
X138650000Y-116026000D01*
X138628326Y-116078326D01*
X138576000Y-116100000D01*
X135099685Y-116100000D01*
X135094609Y-116099500D01*
X135089882Y-116099500D01*
X122389219Y-116099500D01*
X122360904Y-116093868D01*
X122350495Y-116089557D01*
X122310446Y-116049513D01*
X122306129Y-116039091D01*
X122300500Y-116010781D01*
X122300500Y-113988717D01*
X122306129Y-113960408D01*
X122310443Y-113949993D01*
X122350482Y-113909947D01*
X122360911Y-113905627D01*
X122389219Y-113899999D01*
X122891709Y-113899999D01*
X122920023Y-113905630D01*
X122927386Y-113908680D01*
X122967434Y-113948727D01*
X122967436Y-114005364D01*
X122964388Y-114012723D01*
X122948346Y-114036732D01*
X122824511Y-114160567D01*
X122823039Y-114161948D01*
X122713366Y-114326086D01*
X122637951Y-114508155D01*
X122637949Y-114508161D01*
X122637946Y-114508171D01*
X122622882Y-114583909D01*
X122622881Y-114583914D01*
X122604542Y-114676114D01*
X122599500Y-114701460D01*
X122599500Y-114898539D01*
X122609046Y-114946531D01*
X122637946Y-115091827D01*
X122637949Y-115091838D01*
X122637951Y-115091843D01*
X122713365Y-115273910D01*
X122713366Y-115273912D01*
X122713367Y-115273913D01*
X122817796Y-115430201D01*
X122822861Y-115437782D01*
X122962218Y-115577139D01*
X123126086Y-115686632D01*
X123308165Y-115762051D01*
X123501459Y-115800500D01*
X123501461Y-115800500D01*
X123698539Y-115800500D01*
X123698541Y-115800500D01*
X123891835Y-115762051D01*
X124073914Y-115686632D01*
X124237782Y-115577139D01*
X124377139Y-115437782D01*
X124486632Y-115273914D01*
X124562051Y-115091835D01*
X124600500Y-114898541D01*
X124600500Y-114701459D01*
X124562051Y-114508165D01*
X124486632Y-114326086D01*
X124377139Y-114162218D01*
X124237782Y-114022861D01*
X124237781Y-114022860D01*
X124211596Y-114005364D01*
X124134273Y-113953698D01*
X124113856Y-113933280D01*
X124107596Y-113923911D01*
X124096547Y-113868365D01*
X124099290Y-113854573D01*
X124103501Y-113840697D01*
X124104192Y-113839025D01*
X124104198Y-113839017D01*
X124110000Y-113809848D01*
X124110000Y-113325000D01*
X123248719Y-113325000D01*
X123220404Y-113319368D01*
X123209995Y-113315057D01*
X123169946Y-113275013D01*
X123165629Y-113264591D01*
X123160000Y-113236281D01*
X123160000Y-113200000D01*
X123123719Y-113200000D01*
X123095404Y-113194368D01*
X123084995Y-113190057D01*
X123044946Y-113150013D01*
X123040629Y-113139591D01*
X123035000Y-113111281D01*
X123035000Y-112543348D01*
X123195807Y-112543348D01*
X123280273Y-113070273D01*
X123285000Y-113075000D01*
X124109999Y-113075000D01*
X124109999Y-112590151D01*
X124104197Y-112560981D01*
X124104196Y-112560980D01*
X124104196Y-112560978D01*
X124082102Y-112527910D01*
X124082094Y-112527902D01*
X124049017Y-112505801D01*
X124019848Y-112500000D01*
X124019847Y-112500000D01*
X123285000Y-112500000D01*
X123263326Y-112521674D01*
X123211000Y-112543348D01*
X123195807Y-112543348D01*
X123035000Y-112543348D01*
X123035000Y-112500000D01*
X122389219Y-112500000D01*
X122360904Y-112494368D01*
X122350495Y-112490057D01*
X122310446Y-112450013D01*
X122306129Y-112439591D01*
X122300500Y-112411281D01*
X122300500Y-108188717D01*
X122306129Y-108160408D01*
X122310443Y-108149993D01*
X122350482Y-108109947D01*
X122360911Y-108105627D01*
X122389219Y-108099999D01*
X123035000Y-108099999D01*
X123285000Y-108099999D01*
X124019847Y-108099999D01*
X124019848Y-108099999D01*
X124049018Y-108094197D01*
X124049019Y-108094196D01*
X124049020Y-108094196D01*
X124082088Y-108072102D01*
X124082089Y-108072100D01*
X124082093Y-108072098D01*
X124082096Y-108072095D01*
X124104198Y-108039017D01*
X124110000Y-108009848D01*
X124110000Y-107525000D01*
X123285000Y-107525000D01*
X123285000Y-108099999D01*
X123035000Y-108099999D01*
X123035000Y-107275000D01*
X123285000Y-107275000D01*
X124109999Y-107275000D01*
X124109999Y-106790151D01*
X124104197Y-106760981D01*
X124104196Y-106760980D01*
X124104196Y-106760978D01*
X124082102Y-106727910D01*
X124082094Y-106727902D01*
X124049017Y-106705801D01*
X124048157Y-106705630D01*
X124019848Y-106700000D01*
X124019847Y-106700000D01*
X123285000Y-106700000D01*
X123285000Y-107275000D01*
X123035000Y-107275000D01*
X123035000Y-106700000D01*
X122389219Y-106700000D01*
X122360904Y-106694368D01*
X122350495Y-106690057D01*
X122310446Y-106650013D01*
X122306129Y-106639591D01*
X122300500Y-106611281D01*
X122300500Y-104589218D01*
X122306129Y-104560909D01*
X122310443Y-104550494D01*
X122350482Y-104510448D01*
X122360911Y-104506128D01*
X122389219Y-104500500D01*
X125181450Y-104500500D01*
X125209764Y-104506131D01*
G37*
%TD.AperFunction*%
%TA.AperFunction,Conductor*%
G36*
X130291662Y-108057521D02*
G01*
X130317185Y-108064359D01*
X130335156Y-108069174D01*
X130353003Y-108076566D01*
X130391997Y-108099080D01*
X130407322Y-108110839D01*
X130439159Y-108142676D01*
X130450918Y-108158001D01*
X130473430Y-108196992D01*
X130480823Y-108214839D01*
X130489513Y-108247270D01*
X130492479Y-108258337D01*
X130495000Y-108277490D01*
X130495000Y-108322508D01*
X130492479Y-108341661D01*
X130480824Y-108385158D01*
X130473430Y-108403006D01*
X130450918Y-108441997D01*
X130439159Y-108457322D01*
X130407322Y-108489159D01*
X130391996Y-108500919D01*
X130353002Y-108523432D01*
X130335156Y-108530824D01*
X130302908Y-108539465D01*
X130291665Y-108542478D01*
X130272513Y-108545000D01*
X130227490Y-108545000D01*
X130208337Y-108542478D01*
X130164841Y-108530823D01*
X130146994Y-108523431D01*
X130108002Y-108500919D01*
X130092676Y-108489159D01*
X130060839Y-108457322D01*
X130049079Y-108441996D01*
X130029866Y-108408719D01*
X130026567Y-108403005D01*
X130019175Y-108385157D01*
X130007521Y-108341659D01*
X130005000Y-108322508D01*
X130005000Y-108277488D01*
X130007521Y-108258338D01*
X130016365Y-108225327D01*
X130019175Y-108214839D01*
X130026563Y-108197000D01*
X130049083Y-108157995D01*
X130060836Y-108142678D01*
X130092677Y-108110837D01*
X130107994Y-108099084D01*
X130146997Y-108076566D01*
X130164839Y-108069176D01*
X130193452Y-108061509D01*
X130208339Y-108057521D01*
X130227490Y-108055000D01*
X130272511Y-108055000D01*
X130291662Y-108057521D01*
G37*
%TD.AperFunction*%
%TA.AperFunction,Conductor*%
G36*
X133018851Y-105643976D02*
G01*
X133065947Y-105675435D01*
X133065953Y-105675444D01*
X133069398Y-105680600D01*
X133069402Y-105680604D01*
X133138687Y-105726897D01*
X133159103Y-105747312D01*
X133165248Y-105756508D01*
X133176300Y-105812056D01*
X133163944Y-105840624D01*
X133161163Y-105844517D01*
X133159862Y-105849441D01*
X133156686Y-105858845D01*
X133155805Y-105860971D01*
X133155801Y-105860982D01*
X133155801Y-105860983D01*
X133150000Y-105890151D01*
X133150000Y-106125000D01*
X133361281Y-106125000D01*
X133389591Y-106130629D01*
X133400003Y-106134942D01*
X133440053Y-106174985D01*
X133440056Y-106174992D01*
X133444367Y-106185400D01*
X133450000Y-106213718D01*
X133450000Y-106250000D01*
X133486281Y-106250000D01*
X133514591Y-106255629D01*
X133525003Y-106259942D01*
X133565053Y-106299985D01*
X133565056Y-106299992D01*
X133569367Y-106310400D01*
X133575000Y-106338718D01*
X133575000Y-106699999D01*
X133580653Y-106699999D01*
X133608967Y-106705630D01*
X133616330Y-106708680D01*
X133656378Y-106748727D01*
X133656380Y-106805364D01*
X133653332Y-106812723D01*
X133637290Y-106836732D01*
X132854589Y-107619434D01*
X132854588Y-107619436D01*
X132840054Y-107654525D01*
X132819499Y-107704148D01*
X132819499Y-107806490D01*
X132819500Y-107806527D01*
X132819500Y-107918736D01*
X132813867Y-107947052D01*
X132809566Y-107957439D01*
X132803459Y-107972182D01*
X132787418Y-107996188D01*
X132762733Y-108020873D01*
X132738727Y-108036913D01*
X132728320Y-108041224D01*
X132671683Y-108041225D01*
X132671682Y-108041225D01*
X132661274Y-108036914D01*
X132637266Y-108020873D01*
X132612581Y-107996188D01*
X132596541Y-107972182D01*
X132586131Y-107947050D01*
X132580500Y-107918736D01*
X132580500Y-107154149D01*
X132570453Y-107129894D01*
X132570450Y-107129890D01*
X132563180Y-107112337D01*
X132556170Y-107095413D01*
X132545409Y-107069432D01*
X132480568Y-107004591D01*
X132476353Y-107000376D01*
X132476346Y-107000370D01*
X132312708Y-106836732D01*
X132296668Y-106812726D01*
X132293618Y-106805362D01*
X132293620Y-106748727D01*
X132333667Y-106708680D01*
X132341032Y-106705629D01*
X132369346Y-106699999D01*
X132375000Y-106699999D01*
X132625000Y-106699999D01*
X132709847Y-106699999D01*
X132709848Y-106699999D01*
X132739018Y-106694197D01*
X132739019Y-106694196D01*
X132739020Y-106694196D01*
X132772088Y-106672102D01*
X132772089Y-106672100D01*
X132772093Y-106672098D01*
X132772096Y-106672095D01*
X132794198Y-106639017D01*
X132800000Y-106609848D01*
X133150001Y-106609848D01*
X133152275Y-106621282D01*
X133155802Y-106639019D01*
X133177898Y-106672090D01*
X133177901Y-106672093D01*
X133177904Y-106672096D01*
X133210982Y-106694198D01*
X133240151Y-106699999D01*
X133325000Y-106699999D01*
X133325000Y-106375000D01*
X133150001Y-106375000D01*
X133150001Y-106609848D01*
X132800000Y-106609848D01*
X132800000Y-106375000D01*
X132625000Y-106375000D01*
X132625000Y-106699999D01*
X132375000Y-106699999D01*
X132375000Y-106338718D01*
X132380629Y-106310409D01*
X132384943Y-106299994D01*
X132395351Y-106289584D01*
X132396674Y-106286392D01*
X132399865Y-106285070D01*
X132424982Y-106259948D01*
X132435411Y-106255628D01*
X132463719Y-106250000D01*
X132500000Y-106250000D01*
X132500000Y-106213718D01*
X132505629Y-106185409D01*
X132509943Y-106174994D01*
X132549982Y-106134948D01*
X132560411Y-106130628D01*
X132588719Y-106125000D01*
X132799999Y-106125000D01*
X132799999Y-105890152D01*
X132799010Y-105885180D01*
X132794197Y-105860983D01*
X132794195Y-105860980D01*
X132791408Y-105854249D01*
X132792139Y-105853946D01*
X132785403Y-105837686D01*
X132783203Y-105826625D01*
X132794254Y-105771081D01*
X132796093Y-105768329D01*
X132843186Y-105736871D01*
X132847740Y-105735966D01*
X132904961Y-105697733D01*
X132930600Y-105680602D01*
X132935753Y-105675449D01*
X132935829Y-105675525D01*
X132950707Y-105660645D01*
X132960077Y-105654384D01*
X133015614Y-105643333D01*
X133018851Y-105643976D01*
G37*
%TD.AperFunction*%
%TA.AperFunction,Conductor*%
G36*
X131062003Y-105001146D02*
G01*
X131062415Y-105001155D01*
X131062589Y-105001231D01*
X131094957Y-105015523D01*
X131126334Y-105025563D01*
X131177499Y-105036124D01*
X131210285Y-105039328D01*
X131719818Y-105034896D01*
X131739238Y-105037317D01*
X132087777Y-105128808D01*
X132132885Y-105163057D01*
X132140563Y-105219172D01*
X132121314Y-105252709D01*
X131656604Y-105717418D01*
X131632597Y-105733459D01*
X131606724Y-105744176D01*
X131588722Y-105748686D01*
X131588744Y-105748792D01*
X131586592Y-105749219D01*
X131585670Y-105749451D01*
X131585194Y-105749497D01*
X131577545Y-105751018D01*
X131563229Y-105753866D01*
X131563225Y-105753866D01*
X131541277Y-105758233D01*
X131491496Y-105791494D01*
X131491494Y-105791496D01*
X131458233Y-105841276D01*
X131449500Y-105885181D01*
X131449500Y-105978008D01*
X131443864Y-106006333D01*
X131440815Y-106013692D01*
X131400763Y-106053737D01*
X131344126Y-106053731D01*
X131344108Y-106053724D01*
X131343862Y-106053622D01*
X131304510Y-106015155D01*
X131300615Y-106006333D01*
X131263813Y-105922984D01*
X131187016Y-105846187D01*
X131134612Y-105823048D01*
X131118203Y-105805863D01*
X131087662Y-105802318D01*
X131087663Y-105802318D01*
X131082804Y-105801754D01*
X131082801Y-105801753D01*
X131063373Y-105799500D01*
X131063369Y-105799500D01*
X130636627Y-105799500D01*
X130633811Y-105799826D01*
X130612341Y-105802316D01*
X130512982Y-105846187D01*
X130436187Y-105922982D01*
X130392318Y-106022337D01*
X130392316Y-106022342D01*
X130389500Y-106046627D01*
X130389500Y-106130781D01*
X130383867Y-106159099D01*
X130379556Y-106169507D01*
X130339508Y-106209555D01*
X130339507Y-106209556D01*
X130329099Y-106213867D01*
X130300781Y-106219500D01*
X130272749Y-106219500D01*
X130244432Y-106213867D01*
X130230163Y-106207957D01*
X130193221Y-106174473D01*
X130190621Y-106169608D01*
X130183308Y-106149166D01*
X130176767Y-106116278D01*
X130143504Y-106066496D01*
X130124932Y-106054087D01*
X130093722Y-106033233D01*
X130049820Y-106024500D01*
X130049819Y-106024500D01*
X129716970Y-106024500D01*
X129664644Y-106002826D01*
X129642970Y-105950500D01*
X129663437Y-105899410D01*
X129788534Y-105768330D01*
X130459368Y-105065411D01*
X130504743Y-105042953D01*
X130511601Y-105042193D01*
X130560607Y-105031633D01*
X130590660Y-105021873D01*
X130626000Y-105006268D01*
X130637243Y-105001305D01*
X130667133Y-104995000D01*
X131032868Y-104995000D01*
X131062003Y-105001146D01*
G37*
%TD.AperFunction*%
%TA.AperFunction,Conductor*%
G36*
X128389163Y-104522174D02*
G01*
X128410837Y-104574500D01*
X128402444Y-104608728D01*
X128226785Y-104945411D01*
X128209745Y-104978071D01*
X127952873Y-105470406D01*
X127909453Y-105506772D01*
X127853036Y-105501783D01*
X127825737Y-105477287D01*
X127808506Y-105451498D01*
X127808503Y-105451495D01*
X127801945Y-105447113D01*
X127781531Y-105426699D01*
X127775271Y-105417331D01*
X127764219Y-105361786D01*
X127766419Y-105350726D01*
X127777468Y-105324055D01*
X127794198Y-105299017D01*
X127800000Y-105269848D01*
X127800000Y-105185000D01*
X126900001Y-105185000D01*
X126900001Y-105269848D01*
X126905801Y-105299016D01*
X126905802Y-105299018D01*
X126922532Y-105324056D01*
X126933582Y-105350736D01*
X126935779Y-105361785D01*
X126924729Y-105417328D01*
X126918471Y-105426694D01*
X126898055Y-105447111D01*
X126891501Y-105451490D01*
X126891498Y-105451492D01*
X126891496Y-105451495D01*
X126891494Y-105451496D01*
X126858233Y-105501276D01*
X126849500Y-105545181D01*
X126849500Y-105714153D01*
X126843867Y-105742469D01*
X126833459Y-105767599D01*
X126817418Y-105791605D01*
X126471605Y-106137418D01*
X126447599Y-106153458D01*
X126422469Y-106163867D01*
X126394153Y-106169500D01*
X126094556Y-106169500D01*
X126066238Y-106163867D01*
X126046891Y-106155853D01*
X126011125Y-106124487D01*
X126002414Y-106109400D01*
X125995282Y-106097046D01*
X125987890Y-106079197D01*
X125983021Y-106061022D01*
X125980500Y-106041873D01*
X125980500Y-105868349D01*
X125986131Y-105840035D01*
X125994563Y-105819677D01*
X126021820Y-105786468D01*
X126026748Y-105783175D01*
X126031027Y-105780689D01*
X126034719Y-105777848D01*
X126045003Y-105770976D01*
X126046307Y-105757734D01*
X126050034Y-105751516D01*
X126085966Y-105697740D01*
X126100500Y-105624674D01*
X126100500Y-105315326D01*
X126087580Y-105250373D01*
X126087580Y-105221510D01*
X126089135Y-105213688D01*
X126120602Y-105166600D01*
X126176147Y-105155552D01*
X126183961Y-105157106D01*
X126210637Y-105168155D01*
X126252260Y-105195966D01*
X126325326Y-105210500D01*
X126325328Y-105210500D01*
X126574672Y-105210500D01*
X126574674Y-105210500D01*
X126647740Y-105195966D01*
X126730601Y-105140601D01*
X126785966Y-105057740D01*
X126795661Y-105008998D01*
X126806710Y-104982325D01*
X126815288Y-104969486D01*
X126855339Y-104939785D01*
X126860611Y-104938186D01*
X126882089Y-104935000D01*
X127225000Y-104935000D01*
X127475000Y-104935000D01*
X127799999Y-104935000D01*
X127799999Y-104850151D01*
X127794197Y-104820981D01*
X127794196Y-104820980D01*
X127794196Y-104820978D01*
X127772102Y-104787910D01*
X127772094Y-104787902D01*
X127739017Y-104765801D01*
X127709848Y-104760000D01*
X127709847Y-104760000D01*
X127475000Y-104760000D01*
X127475000Y-104935000D01*
X127225000Y-104935000D01*
X127225000Y-104760000D01*
X126990152Y-104760000D01*
X126970704Y-104763868D01*
X126960979Y-104765802D01*
X126931471Y-104785518D01*
X126918681Y-104792354D01*
X126905869Y-104797662D01*
X126849233Y-104797664D01*
X126809183Y-104757619D01*
X126806131Y-104750251D01*
X126800500Y-104721937D01*
X126800500Y-104675327D01*
X126790852Y-104626826D01*
X126790389Y-104624499D01*
X126787618Y-104610569D01*
X126786197Y-104596140D01*
X126786197Y-104589218D01*
X126786196Y-104576835D01*
X126807866Y-104524512D01*
X126810215Y-104522162D01*
X126862530Y-104500500D01*
X128336837Y-104500500D01*
X128389163Y-104522174D01*
G37*
%TD.AperFunction*%
%TD*%
%TA.AperFunction,Conductor*%
%TO.N,+3.3V*%
G36*
X133643039Y-104520185D02*
G01*
X133688794Y-104572989D01*
X133700000Y-104624500D01*
X133700000Y-104883225D01*
X133680315Y-104950264D01*
X133627511Y-104996019D01*
X133558353Y-105005963D01*
X133551809Y-105004842D01*
X133474678Y-104989500D01*
X133474674Y-104989500D01*
X133225326Y-104989500D01*
X133225323Y-104989500D01*
X133152260Y-105004033D01*
X133114742Y-105029102D01*
X133048064Y-105049980D01*
X133045851Y-105050000D01*
X132954149Y-105050000D01*
X132887110Y-105030315D01*
X132885258Y-105029102D01*
X132847739Y-105004033D01*
X132774677Y-104989500D01*
X132774674Y-104989500D01*
X132525326Y-104989500D01*
X132525324Y-104989500D01*
X132452264Y-105004032D01*
X132452259Y-105004034D01*
X132434526Y-105015883D01*
X132367848Y-105036758D01*
X132334156Y-105032715D01*
X131749094Y-104879137D01*
X131208933Y-104883834D01*
X131157768Y-104873273D01*
X131133685Y-104862639D01*
X131087663Y-104842318D01*
X131063373Y-104839500D01*
X130636634Y-104839500D01*
X130636611Y-104839502D01*
X130612340Y-104842317D01*
X130527851Y-104879622D01*
X130478845Y-104890182D01*
X130411090Y-104890771D01*
X130411089Y-104890771D01*
X130411089Y-104890772D01*
X129374636Y-105976795D01*
X129336638Y-106016610D01*
X129276113Y-106051518D01*
X129246933Y-106055000D01*
X129154149Y-106055000D01*
X129087110Y-106035315D01*
X129085258Y-106034102D01*
X129047739Y-106009033D01*
X128974677Y-105994500D01*
X128974674Y-105994500D01*
X128725326Y-105994500D01*
X128725323Y-105994500D01*
X128652264Y-106009032D01*
X128652260Y-106009033D01*
X128569399Y-106064399D01*
X128514033Y-106147260D01*
X128514032Y-106147264D01*
X128499500Y-106220321D01*
X128499500Y-106529678D01*
X128514032Y-106602735D01*
X128514033Y-106602739D01*
X128514034Y-106602740D01*
X128529102Y-106625292D01*
X128549980Y-106691967D01*
X128550000Y-106694181D01*
X128550000Y-106700000D01*
X129110000Y-107100000D01*
X130710402Y-107100000D01*
X130777441Y-107119685D01*
X130807230Y-107146538D01*
X131222828Y-107666035D01*
X131249336Y-107730681D01*
X131250000Y-107743497D01*
X131250000Y-108245406D01*
X131249500Y-108247273D01*
X131249500Y-108352727D01*
X131250000Y-108354593D01*
X131250000Y-109633637D01*
X131230315Y-109700676D01*
X131194783Y-109736811D01*
X130981239Y-109879174D01*
X130914540Y-109899982D01*
X130912456Y-109900000D01*
X126217460Y-109900000D01*
X126150421Y-109880315D01*
X126113353Y-109843363D01*
X125780393Y-109328788D01*
X125760501Y-109261810D01*
X125760500Y-109261425D01*
X125760500Y-109235177D01*
X125751768Y-109191282D01*
X125751767Y-109191281D01*
X125751767Y-109191278D01*
X125718504Y-109141496D01*
X125668724Y-109108234D01*
X125668719Y-109108232D01*
X125654716Y-109105445D01*
X125654602Y-109105424D01*
X125633094Y-109101145D01*
X125632353Y-109100000D01*
X125627334Y-109100000D01*
X125624820Y-109099500D01*
X124674000Y-109099500D01*
X124606961Y-109079815D01*
X124561206Y-109027011D01*
X124550000Y-108975500D01*
X124550000Y-108524000D01*
X124569685Y-108456961D01*
X124622489Y-108411206D01*
X124674000Y-108400000D01*
X125529793Y-108400000D01*
X125596832Y-108419685D01*
X125636122Y-108460203D01*
X125719999Y-108599999D01*
X125719999Y-108600000D01*
X125720000Y-108600000D01*
X128341665Y-108600000D01*
X128341667Y-108600000D01*
X128550000Y-108350000D01*
X128550000Y-108295559D01*
X128554225Y-108263465D01*
X128558564Y-108247275D01*
X128558565Y-108247273D01*
X129849500Y-108247273D01*
X129849500Y-108352726D01*
X129876793Y-108454586D01*
X129876794Y-108454589D01*
X129880035Y-108460203D01*
X129929520Y-108545913D01*
X130004087Y-108620480D01*
X130095413Y-108673207D01*
X130197273Y-108700500D01*
X130197275Y-108700500D01*
X130302725Y-108700500D01*
X130302727Y-108700500D01*
X130404587Y-108673207D01*
X130495913Y-108620480D01*
X130570480Y-108545913D01*
X130623207Y-108454587D01*
X130650500Y-108352727D01*
X130650500Y-108247273D01*
X130623207Y-108145413D01*
X130570480Y-108054087D01*
X130495913Y-107979520D01*
X130404587Y-107926793D01*
X130302727Y-107899500D01*
X130197273Y-107899500D01*
X130095413Y-107926793D01*
X130095410Y-107926794D01*
X130004085Y-107979521D01*
X129929521Y-108054085D01*
X129876794Y-108145410D01*
X129876793Y-108145413D01*
X129849500Y-108247273D01*
X128558565Y-108247273D01*
X128570500Y-108202727D01*
X128570500Y-108097273D01*
X128554225Y-108036533D01*
X128550000Y-108004440D01*
X128550000Y-107685841D01*
X128550500Y-107675673D01*
X128550500Y-107430918D01*
X128550500Y-107425326D01*
X128550000Y-107422812D01*
X128550000Y-107374999D01*
X128538727Y-107366141D01*
X128535966Y-107352260D01*
X128480601Y-107269399D01*
X128480600Y-107269398D01*
X128397740Y-107214033D01*
X128363740Y-107207270D01*
X128325934Y-107193041D01*
X128305246Y-107181097D01*
X128290635Y-107171212D01*
X127897390Y-106862233D01*
X127856837Y-106805337D01*
X127850000Y-106764730D01*
X127850000Y-106034153D01*
X127864063Y-105976795D01*
X128347609Y-105050000D01*
X128599534Y-104567141D01*
X128647997Y-104516811D01*
X128709471Y-104500500D01*
X133576000Y-104500500D01*
X133643039Y-104520185D01*
G37*
%TD.AperFunction*%
%TD*%
%TA.AperFunction,Conductor*%
%TO.N,/SCL*%
G36*
X142045258Y-110930177D02*
G01*
X142049822Y-110932808D01*
X143083478Y-111896061D01*
X143086145Y-111899763D01*
X143086884Y-111901383D01*
X143087202Y-111910331D01*
X143087199Y-111910338D01*
X143086644Y-111911822D01*
X143083958Y-111915997D01*
X142984004Y-112015951D01*
X142981746Y-112017714D01*
X142979340Y-112019156D01*
X142976721Y-112020316D01*
X141760159Y-112389327D01*
X141755616Y-112389775D01*
X141753839Y-112389600D01*
X141745946Y-112385383D01*
X141744818Y-112384010D01*
X141742665Y-112379989D01*
X141632957Y-112019047D01*
X141501790Y-111587510D01*
X141501341Y-111582974D01*
X141501680Y-111579511D01*
X141504285Y-111573223D01*
X142029850Y-110934346D01*
X142033374Y-110931460D01*
X142034951Y-110930620D01*
X142043858Y-110929751D01*
X142045258Y-110930177D01*
G37*
%TD.AperFunction*%
%TD*%
%TA.AperFunction,Conductor*%
%TO.N,/GPIO1*%
G36*
X155531389Y-113117520D02*
G01*
X155533343Y-113120110D01*
X155548027Y-113146540D01*
X155549500Y-113152220D01*
X155549500Y-113242729D01*
X155576791Y-113344585D01*
X155576793Y-113344589D01*
X155629517Y-113435909D01*
X155629519Y-113435912D01*
X155629520Y-113435913D01*
X155704087Y-113510480D01*
X155704088Y-113510481D01*
X155704090Y-113510482D01*
X155769225Y-113548088D01*
X155773602Y-113552538D01*
X156243863Y-114398928D01*
X156244886Y-114407824D01*
X156239318Y-114414837D01*
X156239162Y-114414923D01*
X155505526Y-114808038D01*
X155496615Y-114808925D01*
X155494474Y-114808038D01*
X154760218Y-114414591D01*
X154754544Y-114407663D01*
X154755189Y-114399231D01*
X155366818Y-113120743D01*
X155373479Y-113114760D01*
X155377372Y-113114093D01*
X155523116Y-113114093D01*
X155531389Y-113117520D01*
G37*
%TD.AperFunction*%
%TD*%
%TA.AperFunction,Conductor*%
%TO.N,/SDA*%
G36*
X142970705Y-113662437D02*
G01*
X142975711Y-113665398D01*
X143078260Y-113767947D01*
X143081687Y-113776220D01*
X143078260Y-113784493D01*
X143078069Y-113784680D01*
X142048346Y-114768354D01*
X142039996Y-114771591D01*
X142031804Y-114767976D01*
X142031228Y-114767327D01*
X141503272Y-114125544D01*
X141500664Y-114116980D01*
X141501113Y-114114717D01*
X141743381Y-113317657D01*
X141749064Y-113310740D01*
X141757838Y-113309827D01*
X142970705Y-113662437D01*
G37*
%TD.AperFunction*%
%TD*%
M02*
