M48
; DRILL file KiCad 10.0.0 date 2026-07-01T11:39:04
; FORMAT={-:-/ absolute / metric / decimal}
; #@! TF.CreationDate,2026-07-01T11:39:04+02:00
; #@! TF.GenerationSoftware,Kicad,Pcbnew,10.0.0
; #@! TF.FileFunction,Plated,1,2,PTH
FMAT,2
METRIC
; #@! TA.AperFunction,Plated,PTH,ViaDrill
T1C0.300
; #@! TA.AperFunction,Plated,PTH,ComponentDrill
T2C1.000
%
G90
G05
T1
X123.1Y-107.4
X123.1Y-113.2
X123.25Y-110.2
X125.0Y-112.75
X125.0Y-115.6
X125.05Y-110.3
X125.1Y-105.1
X125.11Y-109.5
X125.11Y-111.1
X125.11Y-111.9
X125.65Y-106.3
X126.05Y-108.15
X126.3Y-110.45
X126.75Y-108.15
X127.05Y-113.45
X127.4Y-106.385
X127.45Y-108.15
X127.975Y-104.8
X128.17Y-108.15
X128.85Y-108.3
X130.1Y-110.4
X130.2Y-105.7
X130.25Y-108.3
X130.95Y-108.3
X130.95Y-109.55
X131.55Y-105.3
X131.65Y-108.3
X132.2Y-111.7
X132.275Y-120.565
X132.35Y-108.3
X132.55Y-118.89
X132.95Y-106.25
X133.05Y-108.3
X133.3Y-120.765
X133.675Y-119.14
X133.75Y-109.35
X134.425Y-120.29
X134.45Y-107.25
X135.1Y-113.4
X135.475Y-118.99
X136.0Y-107.75
X136.05Y-108.51
X136.2Y-104.85
X136.3Y-106.35
X136.5Y-115.6
X136.775Y-119.14
X137.775Y-117.84
X138.1Y-107.75
X138.1Y-112.8
X138.1Y-115.45
X138.15Y-110.3
X138.2Y-104.95
X138.925Y-118.34
X140.025Y-120.34
X140.75Y-118.215
X140.9Y-107.7
X140.9Y-110.25
X140.9Y-112.85
X141.875Y-120.49
X142.4Y-110.525
X142.4Y-115.7
X143.1Y-118.24
X143.15Y-112.825
X143.2Y-104.85
X143.4Y-106.85
X143.95Y-113.8
X144.125Y-118.19
X144.125Y-120.19
X144.15Y-111.75
X144.7Y-110.55
X145.125Y-119.115
X145.625Y-106.475
X146.1Y-115.7
X146.125Y-118.19
X146.125Y-120.19
X147.9Y-104.95
X147.95Y-111.75
X148.0Y-106.55
X148.0Y-107.8
X148.05Y-110.45
X148.05Y-113.55
X148.8Y-114.55
X149.5Y-115.2
X149.9Y-106.1
X150.05Y-111.29
X150.35Y-106.75
X150.5Y-115.2
X151.15Y-114.55
X151.2Y-104.85
X151.9Y-105.3
X152.0Y-111.6
X152.0Y-113.8
X152.0Y-115.7
X152.3Y-106.55
X152.85Y-107.0
X153.05Y-110.15
X154.0Y-108.69
X154.0Y-111.09
X154.0Y-111.89
X154.05Y-104.85
X154.05Y-105.85
X154.35Y-107.65
X154.475Y-112.75
X155.95Y-107.39
X155.95Y-113.19
X156.2Y-110.125
T2
X123.6Y-105.8
X123.6Y-114.8
X137.6Y-106.49
X137.6Y-109.03
X137.6Y-111.57
X137.6Y-114.11
X141.5Y-106.5
X141.5Y-109.04
X141.5Y-111.58
X141.5Y-114.12
X155.5Y-105.81
X155.5Y-114.81
M30
