%TF.GenerationSoftware,KiCad,Pcbnew,10.0.0*%
%TF.CreationDate,2026-07-01T11:39:09+02:00*%
%TF.ProjectId,custom_screen,63757374-6f6d-45f7-9363-7265656e2e6b,rev?*%
%TF.SameCoordinates,Original*%
%TF.FileFunction,Soldermask,Top*%
%TF.FilePolarity,Negative*%
%FSLAX46Y46*%
G04 Gerber Fmt 4.6, Leading zero omitted, Abs format (unit mm)*
G04 Created by KiCad (PCBNEW 10.0.0) date 2026-07-01 11:39:09*
%MOMM*%
%LPD*%
G01*
G04 APERTURE LIST*
G04 Aperture macros list*
%AMRoundRect*
0 Rectangle with rounded corners*
0 $1 Rounding radius*
0 $2 $3 $4 $5 $6 $7 $8 $9 X,Y pos of 4 corners*
0 Add a 4 corners polygon primitive as box body*
4,1,4,$2,$3,$4,$5,$6,$7,$8,$9,$2,$3,0*
0 Add four circle primitives for the rounded corners*
1,1,$1+$1,$2,$3*
1,1,$1+$1,$4,$5*
1,1,$1+$1,$6,$7*
1,1,$1+$1,$8,$9*
0 Add four rect primitives between the rounded corners*
20,1,$1+$1,$2,$3,$4,$5,0*
20,1,$1+$1,$4,$5,$6,$7,0*
20,1,$1+$1,$6,$7,$8,$9,0*
20,1,$1+$1,$8,$9,$2,$3,0*%
G04 Aperture macros list end*
%ADD10C,1.550000*%
%ADD11RoundRect,0.100000X0.100000X-0.130000X0.100000X0.130000X-0.100000X0.130000X-0.100000X-0.130000X0*%
%ADD12R,0.500000X1.000000*%
%ADD13R,1.200000X1.700000*%
%ADD14R,1.700000X1.700000*%
%ADD15C,1.700000*%
%ADD16RoundRect,0.100000X-0.100000X0.130000X-0.100000X-0.130000X0.100000X-0.130000X0.100000X0.130000X0*%
%ADD17RoundRect,0.100000X0.130000X0.100000X-0.130000X0.100000X-0.130000X-0.100000X0.130000X-0.100000X0*%
%ADD18RoundRect,0.100000X-0.130000X-0.100000X0.130000X-0.100000X0.130000X0.100000X-0.130000X0.100000X0*%
%ADD19RoundRect,0.140000X0.170000X-0.140000X0.170000X0.140000X-0.170000X0.140000X-0.170000X-0.140000X0*%
%ADD20R,1.000000X0.500000*%
%ADD21R,1.700000X1.200000*%
%ADD22R,0.700000X0.400000*%
%ADD23R,0.470000X0.550000*%
%ADD24RoundRect,0.140000X0.140000X0.170000X-0.140000X0.170000X-0.140000X-0.170000X0.140000X-0.170000X0*%
%ADD25R,0.350000X3.000000*%
G04 APERTURE END LIST*
D10*
X131100000Y-119190000D02*
G75*
G02*
X129550000Y-119190000I-775000J0D01*
G01*
X129550000Y-119190000D02*
G75*
G02*
X131100000Y-119190000I775000J0D01*
G01*
X149300000Y-119190000D02*
G75*
G02*
X147750000Y-119190000I-775000J0D01*
G01*
X147750000Y-119190000D02*
G75*
G02*
X149300000Y-119190000I775000J0D01*
G01*
D11*
%TO.C,C13*%
X146125000Y-119510000D03*
X146125000Y-118870000D03*
%TD*%
D12*
%TO.C,J1*%
X137625000Y-120290000D03*
X136825000Y-120290000D03*
X136025000Y-120290000D03*
X135225000Y-120290000D03*
X134425000Y-120290000D03*
D13*
X138925000Y-118340000D03*
X133125000Y-118340000D03*
%TD*%
D14*
%TO.C,U5*%
X141500000Y-106500000D03*
D15*
X141500000Y-109040000D03*
X141500000Y-111580000D03*
X141500000Y-114120000D03*
X155500000Y-105810000D03*
X155500000Y-114810000D03*
%TD*%
D16*
%TO.C,R10*%
X143350000Y-107930000D03*
X143350000Y-108570000D03*
%TD*%
%TO.C,R8*%
X144050000Y-107930000D03*
X144050000Y-108570000D03*
%TD*%
D17*
%TO.C,C23*%
X153270000Y-105100000D03*
X152630000Y-105100000D03*
%TD*%
D18*
%TO.C,R13*%
X152630000Y-105850000D03*
X153270000Y-105850000D03*
%TD*%
D19*
%TO.C,C17*%
X146750000Y-108330000D03*
X146750000Y-107370000D03*
%TD*%
%TO.C,C16*%
X149750000Y-108380000D03*
X149750000Y-107420000D03*
%TD*%
D20*
%TO.C,J3*%
X154000000Y-111890000D03*
X154000000Y-111090000D03*
X154000000Y-110290000D03*
X154000000Y-109490000D03*
X154000000Y-108690000D03*
D21*
X155950000Y-113190000D03*
X155950000Y-107390000D03*
%TD*%
D22*
%TO.C,D6*%
X150800000Y-108600000D03*
X150800000Y-107900000D03*
%TD*%
%TO.C,D2*%
X152800000Y-108250000D03*
X152800000Y-107550000D03*
%TD*%
D23*
%TO.C,D4*%
X148650000Y-108350000D03*
X148650000Y-106750000D03*
%TD*%
D18*
%TO.C,C15*%
X151030000Y-106700000D03*
X151670000Y-106700000D03*
%TD*%
D22*
%TO.C,D5*%
X151800000Y-108600000D03*
X151800000Y-107900000D03*
%TD*%
D17*
%TO.C,C19*%
X145875000Y-108400000D03*
X145235000Y-108400000D03*
%TD*%
D18*
%TO.C,R9*%
X148030000Y-105900000D03*
X148670000Y-105900000D03*
%TD*%
D17*
%TO.C,C14*%
X151675000Y-106000000D03*
X151035000Y-106000000D03*
%TD*%
D24*
%TO.C,C18*%
X145830000Y-107550000D03*
X144870000Y-107550000D03*
%TD*%
D14*
%TO.C,U4*%
X137600000Y-106490000D03*
D15*
X137600000Y-109030000D03*
X137600000Y-111570000D03*
X137600000Y-114110000D03*
X123600000Y-105800000D03*
X123600000Y-114800000D03*
%TD*%
D25*
%TO.C,U1*%
X126050000Y-108300000D03*
X126750000Y-108300000D03*
X127450000Y-108300000D03*
X128150000Y-108300000D03*
X128850000Y-108300000D03*
X129550000Y-108300000D03*
X130250000Y-108300000D03*
X130950000Y-108300000D03*
X131650000Y-108300000D03*
X132350000Y-108300000D03*
X133050000Y-108300000D03*
X133750000Y-108300000D03*
X134450000Y-108300000D03*
X135150000Y-108300000D03*
%TD*%
G36*
X139978326Y-104471674D02*
G01*
X140000000Y-104524000D01*
X140000000Y-116300000D01*
X145076000Y-116300000D01*
X145128326Y-116321674D01*
X145150000Y-116374000D01*
X145150000Y-117176000D01*
X145128326Y-117228326D01*
X145076000Y-117250000D01*
X135124000Y-117250000D01*
X135071674Y-117228326D01*
X135050000Y-117176000D01*
X135050000Y-116700748D01*
X135252402Y-116700748D01*
X135252402Y-116799251D01*
X135290094Y-116890250D01*
X135290097Y-116890254D01*
X135359746Y-116959903D01*
X135359749Y-116959905D01*
X135450748Y-116997597D01*
X135450751Y-116997598D01*
X135549249Y-116997598D01*
X135549251Y-116997597D01*
X135640250Y-116959905D01*
X135640254Y-116959903D01*
X135709903Y-116890254D01*
X135709905Y-116890250D01*
X135747597Y-116799252D01*
X135747597Y-116799249D01*
X135750000Y-116750002D01*
X135750000Y-116749997D01*
X135747597Y-116700750D01*
X135747597Y-116700748D01*
X136252402Y-116700748D01*
X136252402Y-116799251D01*
X136290094Y-116890250D01*
X136290097Y-116890254D01*
X136359746Y-116959903D01*
X136359749Y-116959905D01*
X136450748Y-116997597D01*
X136450751Y-116997598D01*
X136549249Y-116997598D01*
X136549251Y-116997597D01*
X136640250Y-116959905D01*
X136640254Y-116959903D01*
X136709903Y-116890254D01*
X136709905Y-116890250D01*
X136747597Y-116799252D01*
X136747597Y-116799249D01*
X136750000Y-116750002D01*
X136750000Y-116749997D01*
X136747597Y-116700750D01*
X136747597Y-116700748D01*
X137702402Y-116700748D01*
X137702402Y-116799251D01*
X137740094Y-116890250D01*
X137740097Y-116890254D01*
X137809746Y-116959903D01*
X137809749Y-116959905D01*
X137900748Y-116997597D01*
X137900751Y-116997598D01*
X137999249Y-116997598D01*
X137999251Y-116997597D01*
X138090250Y-116959905D01*
X138090254Y-116959903D01*
X138159903Y-116890254D01*
X138159905Y-116890250D01*
X138197597Y-116799252D01*
X138197597Y-116799249D01*
X138200000Y-116750002D01*
X138200000Y-116749997D01*
X138197597Y-116700750D01*
X138197597Y-116700748D01*
X138702402Y-116700748D01*
X138702402Y-116799251D01*
X138740094Y-116890250D01*
X138740097Y-116890254D01*
X138809746Y-116959903D01*
X138809749Y-116959905D01*
X138900748Y-116997597D01*
X138900751Y-116997598D01*
X138999249Y-116997598D01*
X138999251Y-116997597D01*
X139090250Y-116959905D01*
X139090254Y-116959903D01*
X139159903Y-116890254D01*
X139159905Y-116890250D01*
X139197597Y-116799252D01*
X139197597Y-116799249D01*
X139200000Y-116750002D01*
X139200000Y-116749997D01*
X139197597Y-116700750D01*
X139197597Y-116700748D01*
X139702402Y-116700748D01*
X139702402Y-116799251D01*
X139740094Y-116890250D01*
X139740097Y-116890254D01*
X139809746Y-116959903D01*
X139809749Y-116959905D01*
X139900748Y-116997597D01*
X139900751Y-116997598D01*
X139999249Y-116997598D01*
X139999251Y-116997597D01*
X140090250Y-116959905D01*
X140090254Y-116959903D01*
X140159903Y-116890254D01*
X140159905Y-116890250D01*
X140197597Y-116799252D01*
X140197597Y-116799249D01*
X140200000Y-116750002D01*
X140200000Y-116749997D01*
X140197597Y-116700750D01*
X140197597Y-116700748D01*
X141252402Y-116700748D01*
X141252402Y-116799251D01*
X141290094Y-116890250D01*
X141290097Y-116890254D01*
X141359746Y-116959903D01*
X141359749Y-116959905D01*
X141450748Y-116997597D01*
X141450751Y-116997598D01*
X141549249Y-116997598D01*
X141549251Y-116997597D01*
X141640250Y-116959905D01*
X141640254Y-116959903D01*
X141709903Y-116890254D01*
X141709905Y-116890250D01*
X141747597Y-116799252D01*
X141747597Y-116799249D01*
X141750000Y-116750002D01*
X141750000Y-116749997D01*
X141747597Y-116700750D01*
X141747597Y-116700748D01*
X142252402Y-116700748D01*
X142252402Y-116799251D01*
X142290094Y-116890250D01*
X142290097Y-116890254D01*
X142359746Y-116959903D01*
X142359749Y-116959905D01*
X142450748Y-116997597D01*
X142450751Y-116997598D01*
X142549249Y-116997598D01*
X142549251Y-116997597D01*
X142640250Y-116959905D01*
X142640254Y-116959903D01*
X142709903Y-116890254D01*
X142709905Y-116890250D01*
X142747597Y-116799252D01*
X142747597Y-116799249D01*
X142750000Y-116750002D01*
X142750000Y-116749997D01*
X142747597Y-116700750D01*
X142747597Y-116700748D01*
X143252402Y-116700748D01*
X143252402Y-116799251D01*
X143290094Y-116890250D01*
X143290097Y-116890254D01*
X143359746Y-116959903D01*
X143359749Y-116959905D01*
X143450748Y-116997597D01*
X143450751Y-116997598D01*
X143549249Y-116997598D01*
X143549251Y-116997597D01*
X143640250Y-116959905D01*
X143640254Y-116959903D01*
X143709903Y-116890254D01*
X143709905Y-116890250D01*
X143747597Y-116799252D01*
X143747597Y-116799249D01*
X143750000Y-116750002D01*
X143750000Y-116749997D01*
X143747597Y-116700750D01*
X143747597Y-116700748D01*
X144252402Y-116700748D01*
X144252402Y-116799251D01*
X144290094Y-116890250D01*
X144290097Y-116890254D01*
X144359746Y-116959903D01*
X144359749Y-116959905D01*
X144450748Y-116997597D01*
X144450751Y-116997598D01*
X144549249Y-116997598D01*
X144549251Y-116997597D01*
X144640250Y-116959905D01*
X144640254Y-116959903D01*
X144709903Y-116890254D01*
X144709905Y-116890250D01*
X144747597Y-116799252D01*
X144747597Y-116799249D01*
X144750000Y-116750002D01*
X144750000Y-116749997D01*
X144747597Y-116700750D01*
X144747597Y-116700747D01*
X144709905Y-116609749D01*
X144709903Y-116609746D01*
X144640254Y-116540097D01*
X144640250Y-116540094D01*
X144549250Y-116502402D01*
X144450750Y-116502402D01*
X144359749Y-116540094D01*
X144290094Y-116609749D01*
X144252402Y-116700748D01*
X143747597Y-116700748D01*
X143747597Y-116700747D01*
X143709905Y-116609749D01*
X143709903Y-116609746D01*
X143640254Y-116540097D01*
X143640250Y-116540094D01*
X143549250Y-116502402D01*
X143450750Y-116502402D01*
X143359749Y-116540094D01*
X143290094Y-116609749D01*
X143252402Y-116700748D01*
X142747597Y-116700748D01*
X142747597Y-116700747D01*
X142709905Y-116609749D01*
X142709903Y-116609746D01*
X142640254Y-116540097D01*
X142640250Y-116540094D01*
X142549250Y-116502402D01*
X142450750Y-116502402D01*
X142359749Y-116540094D01*
X142290094Y-116609749D01*
X142252402Y-116700748D01*
X141747597Y-116700748D01*
X141747597Y-116700747D01*
X141709905Y-116609749D01*
X141709903Y-116609746D01*
X141640254Y-116540097D01*
X141640250Y-116540094D01*
X141549250Y-116502402D01*
X141450750Y-116502402D01*
X141359749Y-116540094D01*
X141290094Y-116609749D01*
X141252402Y-116700748D01*
X140197597Y-116700748D01*
X140197597Y-116700747D01*
X140159905Y-116609749D01*
X140159903Y-116609746D01*
X140090254Y-116540097D01*
X140090250Y-116540094D01*
X139999250Y-116502402D01*
X139900750Y-116502402D01*
X139809749Y-116540094D01*
X139740094Y-116609749D01*
X139702402Y-116700748D01*
X139197597Y-116700748D01*
X139197597Y-116700747D01*
X139159905Y-116609749D01*
X139159903Y-116609746D01*
X139090254Y-116540097D01*
X139090250Y-116540094D01*
X138999250Y-116502402D01*
X138900750Y-116502402D01*
X138809749Y-116540094D01*
X138740094Y-116609749D01*
X138702402Y-116700748D01*
X138197597Y-116700748D01*
X138197597Y-116700747D01*
X138159905Y-116609749D01*
X138159903Y-116609746D01*
X138090254Y-116540097D01*
X138090250Y-116540094D01*
X137999250Y-116502402D01*
X137900750Y-116502402D01*
X137809749Y-116540094D01*
X137740094Y-116609749D01*
X137702402Y-116700748D01*
X136747597Y-116700748D01*
X136747597Y-116700747D01*
X136709905Y-116609749D01*
X136709903Y-116609746D01*
X136640254Y-116540097D01*
X136640250Y-116540094D01*
X136549250Y-116502402D01*
X136450750Y-116502402D01*
X136359749Y-116540094D01*
X136290094Y-116609749D01*
X136252402Y-116700748D01*
X135747597Y-116700748D01*
X135747597Y-116700747D01*
X135709905Y-116609749D01*
X135709903Y-116609746D01*
X135640254Y-116540097D01*
X135640250Y-116540094D01*
X135549250Y-116502402D01*
X135450750Y-116502402D01*
X135359749Y-116540094D01*
X135290094Y-116609749D01*
X135252402Y-116700748D01*
X135050000Y-116700748D01*
X135050000Y-116374000D01*
X135071674Y-116321674D01*
X135124000Y-116300000D01*
X139100000Y-116300000D01*
X139100000Y-115800748D01*
X139302402Y-115800748D01*
X139302402Y-115899251D01*
X139340094Y-115990250D01*
X139340097Y-115990254D01*
X139409746Y-116059903D01*
X139409749Y-116059905D01*
X139500748Y-116097597D01*
X139500751Y-116097598D01*
X139599249Y-116097598D01*
X139599251Y-116097597D01*
X139690250Y-116059905D01*
X139690254Y-116059903D01*
X139759903Y-115990254D01*
X139759905Y-115990250D01*
X139797597Y-115899252D01*
X139797597Y-115899249D01*
X139800000Y-115850002D01*
X139800000Y-115849997D01*
X139797597Y-115800750D01*
X139797597Y-115800747D01*
X139759905Y-115709749D01*
X139759903Y-115709746D01*
X139690254Y-115640097D01*
X139690250Y-115640094D01*
X139599250Y-115602402D01*
X139500750Y-115602402D01*
X139409749Y-115640094D01*
X139340094Y-115709749D01*
X139302402Y-115800748D01*
X139100000Y-115800748D01*
X139100000Y-114800748D01*
X139302402Y-114800748D01*
X139302402Y-114899251D01*
X139340094Y-114990250D01*
X139340097Y-114990254D01*
X139409746Y-115059903D01*
X139409749Y-115059905D01*
X139500748Y-115097597D01*
X139500751Y-115097598D01*
X139599249Y-115097598D01*
X139599251Y-115097597D01*
X139690250Y-115059905D01*
X139690254Y-115059903D01*
X139759903Y-114990254D01*
X139759905Y-114990250D01*
X139797597Y-114899252D01*
X139797597Y-114899249D01*
X139800000Y-114850002D01*
X139800000Y-114849997D01*
X139797597Y-114800750D01*
X139797597Y-114800747D01*
X139759905Y-114709749D01*
X139759903Y-114709746D01*
X139690254Y-114640097D01*
X139690250Y-114640094D01*
X139599250Y-114602402D01*
X139500750Y-114602402D01*
X139409749Y-114640094D01*
X139340094Y-114709749D01*
X139302402Y-114800748D01*
X139100000Y-114800748D01*
X139100000Y-113150748D01*
X139302402Y-113150748D01*
X139302402Y-113249251D01*
X139340094Y-113340250D01*
X139340097Y-113340254D01*
X139409746Y-113409903D01*
X139409749Y-113409905D01*
X139500748Y-113447597D01*
X139500751Y-113447598D01*
X139599249Y-113447598D01*
X139599251Y-113447597D01*
X139690250Y-113409905D01*
X139690254Y-113409903D01*
X139759903Y-113340254D01*
X139759905Y-113340250D01*
X139797597Y-113249252D01*
X139797597Y-113249249D01*
X139800000Y-113200002D01*
X139800000Y-113199997D01*
X139797597Y-113150750D01*
X139797597Y-113150747D01*
X139759905Y-113059749D01*
X139759903Y-113059746D01*
X139690254Y-112990097D01*
X139690250Y-112990094D01*
X139599250Y-112952402D01*
X139500750Y-112952402D01*
X139409749Y-112990094D01*
X139340094Y-113059749D01*
X139302402Y-113150748D01*
X139100000Y-113150748D01*
X139100000Y-112150748D01*
X139302402Y-112150748D01*
X139302402Y-112249251D01*
X139340094Y-112340250D01*
X139340097Y-112340254D01*
X139409746Y-112409903D01*
X139409749Y-112409905D01*
X139500748Y-112447597D01*
X139500751Y-112447598D01*
X139599249Y-112447598D01*
X139599251Y-112447597D01*
X139690250Y-112409905D01*
X139690254Y-112409903D01*
X139759903Y-112340254D01*
X139759905Y-112340250D01*
X139797597Y-112249252D01*
X139797597Y-112249249D01*
X139800000Y-112200002D01*
X139800000Y-112199997D01*
X139797597Y-112150750D01*
X139797597Y-112150747D01*
X139759905Y-112059749D01*
X139759903Y-112059746D01*
X139690254Y-111990097D01*
X139690250Y-111990094D01*
X139599250Y-111952402D01*
X139500750Y-111952402D01*
X139409749Y-111990094D01*
X139340094Y-112059749D01*
X139302402Y-112150748D01*
X139100000Y-112150748D01*
X139100000Y-110800748D01*
X139302402Y-110800748D01*
X139302402Y-110899251D01*
X139340094Y-110990250D01*
X139340097Y-110990254D01*
X139409746Y-111059903D01*
X139409749Y-111059905D01*
X139500748Y-111097597D01*
X139500751Y-111097598D01*
X139599249Y-111097598D01*
X139599251Y-111097597D01*
X139690250Y-111059905D01*
X139690254Y-111059903D01*
X139759903Y-110990254D01*
X139759905Y-110990250D01*
X139797597Y-110899252D01*
X139797597Y-110899249D01*
X139800000Y-110850002D01*
X139800000Y-110849997D01*
X139797597Y-110800750D01*
X139797597Y-110800747D01*
X139759905Y-110709749D01*
X139759903Y-110709746D01*
X139690254Y-110640097D01*
X139690250Y-110640094D01*
X139599250Y-110602402D01*
X139500750Y-110602402D01*
X139409749Y-110640094D01*
X139340094Y-110709749D01*
X139302402Y-110800748D01*
X139100000Y-110800748D01*
X139100000Y-109800748D01*
X139302402Y-109800748D01*
X139302402Y-109899251D01*
X139340094Y-109990250D01*
X139340097Y-109990254D01*
X139409746Y-110059903D01*
X139409749Y-110059905D01*
X139500748Y-110097597D01*
X139500751Y-110097598D01*
X139599249Y-110097598D01*
X139599251Y-110097597D01*
X139690250Y-110059905D01*
X139690254Y-110059903D01*
X139759903Y-109990254D01*
X139759905Y-109990250D01*
X139797597Y-109899252D01*
X139797597Y-109899249D01*
X139800000Y-109850002D01*
X139800000Y-109849997D01*
X139797597Y-109800750D01*
X139797597Y-109800747D01*
X139759905Y-109709749D01*
X139759903Y-109709746D01*
X139690254Y-109640097D01*
X139690250Y-109640094D01*
X139599250Y-109602402D01*
X139500750Y-109602402D01*
X139409749Y-109640094D01*
X139340094Y-109709749D01*
X139302402Y-109800748D01*
X139100000Y-109800748D01*
X139100000Y-108300748D01*
X139302402Y-108300748D01*
X139302402Y-108399251D01*
X139340094Y-108490250D01*
X139340097Y-108490254D01*
X139409746Y-108559903D01*
X139409749Y-108559905D01*
X139500748Y-108597597D01*
X139500751Y-108597598D01*
X139599249Y-108597598D01*
X139599251Y-108597597D01*
X139690250Y-108559905D01*
X139690254Y-108559903D01*
X139759903Y-108490254D01*
X139759905Y-108490250D01*
X139797597Y-108399252D01*
X139797597Y-108399249D01*
X139800000Y-108350002D01*
X139800000Y-108349997D01*
X139797597Y-108300750D01*
X139797597Y-108300747D01*
X139759905Y-108209749D01*
X139759903Y-108209746D01*
X139690254Y-108140097D01*
X139690250Y-108140094D01*
X139599250Y-108102402D01*
X139500750Y-108102402D01*
X139409749Y-108140094D01*
X139340094Y-108209749D01*
X139302402Y-108300748D01*
X139100000Y-108300748D01*
X139100000Y-107300748D01*
X139302402Y-107300748D01*
X139302402Y-107399251D01*
X139340094Y-107490250D01*
X139340097Y-107490254D01*
X139409746Y-107559903D01*
X139409749Y-107559905D01*
X139500748Y-107597597D01*
X139500751Y-107597598D01*
X139599249Y-107597598D01*
X139599251Y-107597597D01*
X139690250Y-107559905D01*
X139690254Y-107559903D01*
X139759903Y-107490254D01*
X139759905Y-107490250D01*
X139797597Y-107399252D01*
X139797597Y-107399249D01*
X139800000Y-107350002D01*
X139800000Y-107349997D01*
X139797597Y-107300750D01*
X139797597Y-107300747D01*
X139759905Y-107209749D01*
X139759903Y-107209746D01*
X139690254Y-107140097D01*
X139690250Y-107140094D01*
X139599250Y-107102402D01*
X139500750Y-107102402D01*
X139409749Y-107140094D01*
X139340094Y-107209749D01*
X139302402Y-107300748D01*
X139100000Y-107300748D01*
X139100000Y-105800748D01*
X139302402Y-105800748D01*
X139302402Y-105899251D01*
X139340094Y-105990250D01*
X139340097Y-105990254D01*
X139409746Y-106059903D01*
X139409749Y-106059905D01*
X139500748Y-106097597D01*
X139500751Y-106097598D01*
X139599249Y-106097598D01*
X139599251Y-106097597D01*
X139690250Y-106059905D01*
X139690254Y-106059903D01*
X139759903Y-105990254D01*
X139759905Y-105990250D01*
X139797597Y-105899252D01*
X139797597Y-105899249D01*
X139800000Y-105850002D01*
X139800000Y-105849997D01*
X139797597Y-105800750D01*
X139797597Y-105800747D01*
X139759905Y-105709749D01*
X139759903Y-105709746D01*
X139690254Y-105640097D01*
X139690250Y-105640094D01*
X139599250Y-105602402D01*
X139500750Y-105602402D01*
X139409749Y-105640094D01*
X139340094Y-105709749D01*
X139302402Y-105800748D01*
X139100000Y-105800748D01*
X139100000Y-104800748D01*
X139302402Y-104800748D01*
X139302402Y-104899251D01*
X139340094Y-104990250D01*
X139340097Y-104990254D01*
X139409746Y-105059903D01*
X139409749Y-105059905D01*
X139500748Y-105097597D01*
X139500751Y-105097598D01*
X139599249Y-105097598D01*
X139599251Y-105097597D01*
X139690250Y-105059905D01*
X139690254Y-105059903D01*
X139759903Y-104990254D01*
X139759905Y-104990250D01*
X139797597Y-104899252D01*
X139797597Y-104899249D01*
X139800000Y-104850002D01*
X139800000Y-104849997D01*
X139797597Y-104800750D01*
X139797597Y-104800747D01*
X139759905Y-104709749D01*
X139759903Y-104709746D01*
X139690254Y-104640097D01*
X139690250Y-104640094D01*
X139599250Y-104602402D01*
X139500750Y-104602402D01*
X139409749Y-104640094D01*
X139340094Y-104709749D01*
X139302402Y-104800748D01*
X139100000Y-104800748D01*
X139100000Y-104524000D01*
X139121674Y-104471674D01*
X139174000Y-104450000D01*
X139926000Y-104450000D01*
X139978326Y-104471674D01*
G37*
M02*
