  0
SECTION
  2
HEADER
  9
$ANGBASE
  50
0.0
  9
$ANGDIR
  70
1
  9
$MEASUREMENT
  70
1
  9
$INSUNITS
  70
4
  0
ENDSEC
  0
SECTION
  2
TABLES
  0
TABLE
  2
LTYPE
  70
4
  0
LTYPE
  5
40F
  2
CONTINUOUS
  70
0
  3
Solid line
  72
65
  73
0
  40
0.0
  0
LTYPE
  5
410
  2
DASHDOT
 70
0
  3
Dash Dot ____ _ ____ _
 72
65
 73
4
 40
2.0
 49
1.25
 49
-0.25
 49
0.25
 49
-0.25
  0
LTYPE
  5
411
  2
DASHED
 70
0
  3
Dashed __ __ __ __ __
 72
65
 73
2
 40
0.75
 49
0.5
 49
-0.25
  0
LTYPE
  5
43B
  2
DOTTED
 70
0
  3
Dotted .  .  .  .
 72
65
 73
2
 40
0.2
 49
0.0
 49
-0.2
  0
ENDTAB
  0
TABLE
  2
STYLE
  70
4
  0
STYLE
  2
KICAD
  70
0
  40
0
  41
1
  42
1
  50
0
  71
0
  3
isocp.shx
  0
STYLE
  2
KICADB
  70
0
  40
0
  41
1
  42
1
  50
0
  71
0
  3
isocp.shx
  0
STYLE
  2
KICADI
  70
0
  40
0
  41
1
  42
1
  50
15
  71
0
  3
isocp.shx
  0
STYLE
  2
KICADBI
  70
0
  40
0
  41
1
  42
1
  50
15
  71
0
  3
isocp.shx
  0
ENDTAB
  0
TABLE
  2
LAYER
  70
1
  0
LAYER
  2
BLACK
  70
0
  62
250
  6
CONTINUOUS
  0
ENDTAB
  0
ENDSEC
  0
SECTION
  2
ENTITIES
0
LINE
8
BLACK
6
CONTINUOUS
10
139.0999999999999943
20
-104.4499999999999886
11
140.
21
-104.4499999999999886
0
LINE
8
BLACK
6
CONTINUOUS
10
140.
20
-104.4499999999999886
11
140.
21
-104.3100000000000023
0
LINE
8
BLACK
6
CONTINUOUS
10
140.
20
-104.3100000000000023
11
157.
21
-104.3100000000000023
0
LINE
8
BLACK
6
CONTINUOUS
10
157.
20
-104.3100000000000023
11
157.
21
-116.2999999999999972
0
LINE
8
BLACK
6
CONTINUOUS
10
157.
20
-116.2999999999999972
11
145.1500000000000057
21
-116.2999999999999972
0
LINE
8
BLACK
6
CONTINUOUS
10
145.1500000000000057
20
-116.2999999999999972
11
145.1500000000000057
21
-117.25
0
LINE
8
BLACK
6
CONTINUOUS
10
145.1500000000000057
20
-117.25
11
150.3249999999999886
21
-117.25
0
LINE
8
BLACK
6
CONTINUOUS
10
150.3249999999999886
20
-117.25
11
150.3249999999999886
21
-121.4899999999999949
0
LINE
8
BLACK
6
CONTINUOUS
10
150.3249999999999886
20
-121.4899999999999949
11
128.5749999999999886
21
-121.4899999999999949
0
LINE
8
BLACK
6
CONTINUOUS
10
128.5749999999999886
20
-121.4899999999999949
11
128.5749999999999886
21
-117.25
0
LINE
8
BLACK
6
CONTINUOUS
10
128.5749999999999886
20
-117.25
11
135.0499999999999829
21
-117.1999999999999886
0
LINE
8
BLACK
6
CONTINUOUS
10
135.0499999999999829
20
-117.1999999999999886
11
135.0499999999999829
21
-116.2999999999999972
0
LINE
8
BLACK
6
CONTINUOUS
10
135.0499999999999829
20
-116.2999999999999972
11
122.0999999999999943
21
-116.2999999999999972
0
LINE
8
BLACK
6
CONTINUOUS
10
122.0999999999999943
20
-116.2999999999999972
11
122.0999999999999943
21
-104.2999999999999972
0
LINE
8
BLACK
6
CONTINUOUS
10
122.0999999999999943
20
-104.2999999999999972
11
139.0999999999999943
21
-104.2999999999999972
0
LINE
8
BLACK
6
CONTINUOUS
10
139.0999999999999943
20
-104.2999999999999972
11
139.0999999999999943
21
-104.4499999999999886
0
CIRCLE
8
BLACK
10
143.5
20
-116.75
40
0.25
0
CIRCLE
8
BLACK
10
142.5
20
-116.75
40
0.25
0
CIRCLE
8
BLACK
10
141.5
20
-116.75
40
0.25
0
CIRCLE
8
BLACK
10
139.9499999999999886
20
-116.75
40
0.25
0
CIRCLE
8
BLACK
10
138.9499999999999886
20
-116.75
40
0.25
0
CIRCLE
8
BLACK
10
137.9499999999999886
20
-116.75
40
0.25
0
CIRCLE
8
BLACK
10
136.5
20
-116.75
40
0.25
0
CIRCLE
8
BLACK
10
135.5
20
-116.75
40
0.25
0
CIRCLE
8
BLACK
10
144.5
20
-116.75
40
0.25
0
CIRCLE
8
BLACK
10
139.5499999999999829
20
-115.8499999999999943
40
0.25
0
CIRCLE
8
BLACK
10
139.5499999999999829
20
-114.8499999999999943
40
0.25
0
CIRCLE
8
BLACK
10
139.5499999999999829
20
-113.1999999999999886
40
0.25
0
CIRCLE
8
BLACK
10
139.5499999999999829
20
-112.1999999999999886
40
0.25
0
CIRCLE
8
BLACK
10
139.5499999999999829
20
-110.8499999999999943
40
0.25
0
CIRCLE
8
BLACK
10
139.5499999999999829
20
-109.8499999999999943
40
0.25
0
CIRCLE
8
BLACK
10
139.5499999999999829
20
-108.3499999999999943
40
0.25
0
CIRCLE
8
BLACK
10
139.5499999999999829
20
-107.3499999999999943
40
0.25
0
CIRCLE
8
BLACK
10
139.5499999999999829
20
-105.8499999999999943
40
0.25
0
CIRCLE
8
BLACK
10
139.5499999999999829
20
-104.8499999999999943
40
0.25
0
CIRCLE
8
BLACK
10
130.3249999999999886
20
-119.1899999999999977
40
0.5
0
CIRCLE
8
BLACK
10
141.7249999999999943
20
-119.1899999999999977
40
0.5
0
CIRCLE
8
BLACK
10
148.5250000000000057
20
-119.1899999999999977
40
0.5
0
LINE
8
BLACK
6
CONTINUOUS
10
124.6827679999999958
20
-124.6298379999999923
11
124.6827679999999958
21
-122.6298379999999923
0
LINE
8
BLACK
6
CONTINUOUS
10
124.6827679999999958
20
-122.6298379999999923
11
125.1589579999999984
21
-122.6298379999999923
0
LINE
8
BLACK
6
CONTINUOUS
10
125.1589579999999984
20
-122.6298379999999923
11
125.4446729999999945
21
-122.7250760000000014
0
LINE
8
BLACK
6
CONTINUOUS
10
125.4446729999999945
20
-122.7250760000000014
11
125.6351489999999984
21
-122.915551999999991
0
LINE
8
BLACK
6
CONTINUOUS
10
125.6351489999999984
20
-122.915551999999991
11
125.7303869999999932
21
-123.1060279999999949
0
LINE
8
BLACK
6
CONTINUOUS
10
125.7303869999999932
20
-123.1060279999999949
11
125.8256249999999881
21
-123.4869799999999884
0
LINE
8
BLACK
6
CONTINUOUS
10
125.8256249999999881
20
-123.4869799999999884
11
125.8256249999999881
21
-123.7726949999999988
0
LINE
8
BLACK
6
CONTINUOUS
10
125.8256249999999881
20
-123.7726949999999988
11
125.7303869999999932
21
-124.1536469999999923
0
LINE
8
BLACK
6
CONTINUOUS
10
125.7303869999999932
20
-124.1536469999999923
11
125.6351489999999984
21
-124.3441229999999962
0
LINE
8
BLACK
6
CONTINUOUS
10
125.6351489999999984
20
-124.3441229999999962
11
125.4446729999999945
21
-124.5345999999999975
0
LINE
8
BLACK
6
CONTINUOUS
10
125.4446729999999945
20
-124.5345999999999975
11
125.1589579999999984
21
-124.6298379999999923
0
LINE
8
BLACK
6
CONTINUOUS
10
125.1589579999999984
20
-124.6298379999999923
11
124.6827679999999958
21
-124.6298379999999923
0
LINE
8
BLACK
6
CONTINUOUS
10
126.6827679999999958
20
-124.6298379999999923
11
126.6827679999999958
21
-123.2965039999999988
0
LINE
8
BLACK
6
CONTINUOUS
10
126.6827679999999958
20
-123.6774569999999898
11
126.7780059999999906
21
-123.4869799999999884
0
LINE
8
BLACK
6
CONTINUOUS
10
126.7780059999999906
20
-123.4869799999999884
11
126.8732439999999997
21
-123.3917419999999936
0
LINE
8
BLACK
6
CONTINUOUS
10
126.8732439999999997
20
-123.3917419999999936
11
127.0637199999999893
21
-123.2965039999999988
0
LINE
8
BLACK
6
CONTINUOUS
10
127.0637199999999893
20
-123.2965039999999988
11
127.2541969999999907
21
-123.2965039999999988
0
LINE
8
BLACK
6
CONTINUOUS
10
127.9208629999999971
20
-124.6298379999999923
11
127.9208629999999971
21
-123.2965039999999988
0
LINE
8
BLACK
6
CONTINUOUS
10
127.9208629999999971
20
-122.6298379999999923
11
127.8256249999999881
21
-122.7250760000000014
0
LINE
8
BLACK
6
CONTINUOUS
10
127.8256249999999881
20
-122.7250760000000014
11
127.9208629999999971
21
-122.8203139999999962
0
LINE
8
BLACK
6
CONTINUOUS
10
127.9208629999999971
20
-122.8203139999999962
11
128.0161009999999919
21
-122.7250760000000014
0
LINE
8
BLACK
6
CONTINUOUS
10
128.0161009999999919
20
-122.7250760000000014
11
127.9208629999999971
21
-122.6298379999999923
0
LINE
8
BLACK
6
CONTINUOUS
10
127.9208629999999971
20
-122.6298379999999923
11
127.9208629999999971
21
-122.8203139999999962
0
LINE
8
BLACK
6
CONTINUOUS
10
129.1589579999999842
20
-124.6298379999999923
11
128.9684819999999945
21
-124.5345999999999975
0
LINE
8
BLACK
6
CONTINUOUS
10
128.9684819999999945
20
-124.5345999999999975
11
128.8732439999999997
21
-124.3441229999999962
0
LINE
8
BLACK
6
CONTINUOUS
10
128.8732439999999997
20
-124.3441229999999962
11
128.8732439999999997
21
-122.6298379999999923
0
LINE
8
BLACK
6
CONTINUOUS
10
130.2065769999999816
20
-124.6298379999999923
11
130.0161009999999919
21
-124.5345999999999975
0
LINE
8
BLACK
6
CONTINUOUS
10
130.0161009999999919
20
-124.5345999999999975
11
129.9208629999999971
21
-124.3441229999999962
0
LINE
8
BLACK
6
CONTINUOUS
10
129.9208629999999971
20
-124.3441229999999962
11
129.9208629999999971
21
-122.6298379999999923
0
LINE
8
BLACK
6
CONTINUOUS
10
132.492291999999992
20
-124.6298379999999923
11
132.492291999999992
21
-122.6298379999999923
0
LINE
8
BLACK
6
CONTINUOUS
10
132.492291999999992
20
-122.6298379999999923
11
133.1589589999999816
21
-124.0584089999999975
0
LINE
8
BLACK
6
CONTINUOUS
10
133.1589589999999816
20
-124.0584089999999975
11
133.8256250000000023
21
-122.6298379999999923
0
LINE
8
BLACK
6
CONTINUOUS
10
133.8256250000000023
20
-122.6298379999999923
11
133.8256250000000023
21
-124.6298379999999923
0
LINE
8
BLACK
6
CONTINUOUS
10
135.6351489999999842
20
-124.6298379999999923
11
135.6351489999999842
21
-123.5822189999999949
0
LINE
8
BLACK
6
CONTINUOUS
10
135.6351489999999842
20
-123.5822189999999949
11
135.5399109999999894
21
-123.3917419999999936
0
LINE
8
BLACK
6
CONTINUOUS
10
135.5399109999999894
20
-123.3917419999999936
11
135.3494349999999997
21
-123.2965039999999988
0
LINE
8
BLACK
6
CONTINUOUS
10
135.3494349999999997
20
-123.2965039999999988
11
134.9684819999999945
21
-123.2965039999999988
0
LINE
8
BLACK
6
CONTINUOUS
10
134.9684819999999945
20
-123.2965039999999988
11
134.7780060000000049
21
-123.3917419999999936
0
LINE
8
BLACK
6
CONTINUOUS
10
135.6351489999999842
20
-124.5345999999999975
11
135.4446729999999945
21
-124.6298379999999923
0
LINE
8
BLACK
6
CONTINUOUS
10
135.4446729999999945
20
-124.6298379999999923
11
134.9684819999999945
21
-124.6298379999999923
0
LINE
8
BLACK
6
CONTINUOUS
10
134.9684819999999945
20
-124.6298379999999923
11
134.7780060000000049
21
-124.5345999999999975
0
LINE
8
BLACK
6
CONTINUOUS
10
134.7780060000000049
20
-124.5345999999999975
11
134.6827679999999816
21
-124.3441229999999962
0
LINE
8
BLACK
6
CONTINUOUS
10
134.6827679999999816
20
-124.3441229999999962
11
134.6827679999999816
21
-124.1536469999999923
0
LINE
8
BLACK
6
CONTINUOUS
10
134.6827679999999816
20
-124.1536469999999923
11
134.7780060000000049
21
-123.9631709999999885
0
LINE
8
BLACK
6
CONTINUOUS
10
134.7780060000000049
20
-123.9631709999999885
11
134.9684819999999945
21
-123.8679329999999936
0
LINE
8
BLACK
6
CONTINUOUS
10
134.9684819999999945
20
-123.8679329999999936
11
135.4446729999999945
21
-123.8679329999999936
0
LINE
8
BLACK
6
CONTINUOUS
10
135.4446729999999945
20
-123.8679329999999936
11
135.6351489999999842
21
-123.7726949999999988
0
LINE
8
BLACK
6
CONTINUOUS
10
136.5875299999999868
20
-123.2965039999999988
11
136.5875299999999868
21
-125.2965039999999988
0
LINE
8
BLACK
6
CONTINUOUS
10
136.5875299999999868
20
-123.3917419999999936
11
136.7780060000000049
21
-123.2965039999999988
0
LINE
8
BLACK
6
CONTINUOUS
10
136.7780060000000049
20
-123.2965039999999988
11
137.1589589999999816
21
-123.2965039999999988
0
LINE
8
BLACK
6
CONTINUOUS
10
137.1589589999999816
20
-123.2965039999999988
11
137.3494349999999997
21
-123.3917419999999936
0
LINE
8
BLACK
6
CONTINUOUS
10
137.3494349999999997
20
-123.3917419999999936
11
137.4446729999999945
21
-123.4869799999999884
0
LINE
8
BLACK
6
CONTINUOUS
10
137.4446729999999945
20
-123.4869799999999884
11
137.5399109999999894
21
-123.6774569999999898
0
LINE
8
BLACK
6
CONTINUOUS
10
137.5399109999999894
20
-123.6774569999999898
11
137.5399109999999894
21
-124.2488850000000014
0
LINE
8
BLACK
6
CONTINUOUS
10
137.5399109999999894
20
-124.2488850000000014
11
137.4446729999999945
21
-124.439360999999991
0
LINE
8
BLACK
6
CONTINUOUS
10
137.4446729999999945
20
-124.439360999999991
11
137.3494349999999997
21
-124.5345999999999975
0
LINE
8
BLACK
6
CONTINUOUS
10
137.3494349999999997
20
-124.5345999999999975
11
137.1589589999999816
21
-124.6298379999999923
0
LINE
8
BLACK
6
CONTINUOUS
10
137.1589589999999816
20
-124.6298379999999923
11
136.7780060000000049
21
-124.6298379999999923
0
LINE
8
BLACK
6
CONTINUOUS
10
136.7780060000000049
20
-124.6298379999999923
11
136.5875299999999868
21
-124.5345999999999975
0
LINE
8
BLACK
6
CONTINUOUS
10
138.3970539999999971
20
-124.439360999999991
11
138.492291999999992
21
-124.5345999999999975
0
LINE
8
BLACK
6
CONTINUOUS
10
138.492291999999992
20
-124.5345999999999975
11
138.3970539999999971
21
-124.6298379999999923
0
LINE
8
BLACK
6
CONTINUOUS
10
138.3970539999999971
20
-124.6298379999999923
11
138.3018160000000023
21
-124.5345999999999975
0
LINE
8
BLACK
6
CONTINUOUS
10
138.3018160000000023
20
-124.5345999999999975
11
138.3970539999999971
21
-124.439360999999991
0
LINE
8
BLACK
6
CONTINUOUS
10
138.3970539999999971
20
-124.439360999999991
11
138.3970539999999971
21
-124.6298379999999923
0
LINE
8
BLACK
6
CONTINUOUS
10
138.3970539999999971
20
-123.3917419999999936
11
138.492291999999992
21
-123.4869799999999884
0
LINE
8
BLACK
6
CONTINUOUS
10
138.492291999999992
20
-123.4869799999999884
11
138.3970539999999971
21
-123.5822189999999949
0
LINE
8
BLACK
6
CONTINUOUS
10
138.3970539999999971
20
-123.5822189999999949
11
138.3018160000000023
21
-123.4869799999999884
0
LINE
8
BLACK
6
CONTINUOUS
10
138.3018160000000023
20
-123.4869799999999884
11
138.3970539999999971
21
-123.3917419999999936
0
LINE
8
BLACK
6
CONTINUOUS
10
138.3970539999999971
20
-123.3917419999999936
11
138.3970539999999971
21
-123.5822189999999949
  0
ENDSEC
  0
EOF
