%TF.GenerationSoftware,KiCad,Pcbnew,10.0.0*%
%TF.CreationDate,2026-07-01T11:39:08+02:00*%
%TF.ProjectId,custom_screen,63757374-6f6d-45f7-9363-7265656e2e6b,rev?*%
%TF.SameCoordinates,Original*%
%TF.FileFunction,Copper,L1,Top*%
%TF.FilePolarity,Positive*%
%FSLAX46Y46*%
G04 Gerber Fmt 4.6, Leading zero omitted, Abs format (unit mm)*
G04 Created by KiCad (PCBNEW 10.0.0) date 2026-07-01 11:39:08*
%MOMM*%
%LPD*%
G01*
G04 APERTURE LIST*
G04 Aperture macros list*
%AMRoundRect*
0 Rectangle with rounded corners*
0 $1 Rounding radius*
0 $2 $3 $4 $5 $6 $7 $8 $9 X,Y pos of 4 corners*
0 Add a 4 corners polygon primitive as box body*
4,1,4,$2,$3,$4,$5,$6,$7,$8,$9,$2,$3,0*
0 Add four circle primitives for the rounded corners*
1,1,$1+$1,$2,$3*
1,1,$1+$1,$4,$5*
1,1,$1+$1,$6,$7*
1,1,$1+$1,$8,$9*
0 Add four rect primitives between the rounded corners*
20,1,$1+$1,$2,$3,$4,$5,0*
20,1,$1+$1,$4,$5,$6,$7,0*
20,1,$1+$1,$6,$7,$8,$9,0*
20,1,$1+$1,$8,$9,$2,$3,0*%
G04 Aperture macros list end*
%TA.AperFunction,SMDPad,CuDef*%
%ADD10RoundRect,0.100000X0.100000X-0.130000X0.100000X0.130000X-0.100000X0.130000X-0.100000X-0.130000X0*%
%TD*%
%TA.AperFunction,SMDPad,CuDef*%
%ADD11R,0.500000X1.000000*%
%TD*%
%TA.AperFunction,SMDPad,CuDef*%
%ADD12R,1.200000X1.700000*%
%TD*%
%TA.AperFunction,ComponentPad*%
%ADD13R,1.700000X1.700000*%
%TD*%
%TA.AperFunction,ComponentPad*%
%ADD14C,1.700000*%
%TD*%
%TA.AperFunction,SMDPad,CuDef*%
%ADD15RoundRect,0.100000X-0.100000X0.130000X-0.100000X-0.130000X0.100000X-0.130000X0.100000X0.130000X0*%
%TD*%
%TA.AperFunction,SMDPad,CuDef*%
%ADD16RoundRect,0.100000X0.130000X0.100000X-0.130000X0.100000X-0.130000X-0.100000X0.130000X-0.100000X0*%
%TD*%
%TA.AperFunction,SMDPad,CuDef*%
%ADD17RoundRect,0.100000X-0.130000X-0.100000X0.130000X-0.100000X0.130000X0.100000X-0.130000X0.100000X0*%
%TD*%
%TA.AperFunction,SMDPad,CuDef*%
%ADD18RoundRect,0.140000X0.170000X-0.140000X0.170000X0.140000X-0.170000X0.140000X-0.170000X-0.140000X0*%
%TD*%
%TA.AperFunction,SMDPad,CuDef*%
%ADD19R,1.000000X0.500000*%
%TD*%
%TA.AperFunction,SMDPad,CuDef*%
%ADD20R,1.700000X1.200000*%
%TD*%
%TA.AperFunction,SMDPad,CuDef*%
%ADD21R,0.700000X0.400000*%
%TD*%
%TA.AperFunction,SMDPad,CuDef*%
%ADD22R,0.470000X0.550000*%
%TD*%
%TA.AperFunction,SMDPad,CuDef*%
%ADD23RoundRect,0.140000X0.140000X0.170000X-0.140000X0.170000X-0.140000X-0.170000X0.140000X-0.170000X0*%
%TD*%
%TA.AperFunction,SMDPad,CuDef*%
%ADD24R,0.350000X3.000000*%
%TD*%
%TA.AperFunction,ViaPad*%
%ADD25C,0.500000*%
%TD*%
%TA.AperFunction,Conductor*%
%ADD26C,0.160000*%
%TD*%
%TA.AperFunction,Conductor*%
%ADD27C,0.140000*%
%TD*%
%TA.AperFunction,Conductor*%
%ADD28C,0.120000*%
%TD*%
%TA.AperFunction,Conductor*%
%ADD29C,0.400000*%
%TD*%
%TA.AperFunction,Conductor*%
%ADD30C,0.300000*%
%TD*%
G04 APERTURE END LIST*
D10*
%TO.P,C13,1*%
%TO.N,+3.3V*%
X146125000Y-119510000D03*
%TO.P,C13,2*%
%TO.N,GND*%
X146125000Y-118870000D03*
%TD*%
D11*
%TO.P,J1,1,1_1*%
%TO.N,/SDA*%
X137625000Y-120290000D03*
%TO.P,J1,2,2_2*%
%TO.N,/SCL*%
X136825000Y-120290000D03*
%TO.P,J1,3,3_3*%
%TO.N,GND*%
X136025000Y-120290000D03*
%TO.P,J1,4,4_4*%
%TO.N,/GPIO3*%
X135225000Y-120290000D03*
%TO.P,J1,5,5_5*%
%TO.N,+3.3V*%
X134425000Y-120290000D03*
D12*
%TO.P,J1,6,MP_1_6*%
%TO.N,GND*%
X138925000Y-118340000D03*
%TO.P,J1,7,MP_2_7*%
X133125000Y-118340000D03*
%TD*%
D13*
%TO.P,U5,1,GND_1*%
%TO.N,GND*%
X141500000Y-106500000D03*
D14*
%TO.P,U5,2,VCC_2*%
%TO.N,+3.3V*%
X141500000Y-109040000D03*
%TO.P,U5,3,SCK_3*%
%TO.N,/SCL*%
X141500000Y-111580000D03*
%TO.P,U5,4,SDA_4*%
%TO.N,/SDA*%
X141500000Y-114120000D03*
%TO.P,U5,5,SUP_1_5*%
%TO.N,GND*%
X155500000Y-105810000D03*
%TO.P,U5,6,SUP_2_6*%
%TO.N,/GPIO1*%
X155500000Y-114810000D03*
%TD*%
D15*
%TO.P,R10,1*%
%TO.N,+3.3V*%
X143350000Y-107930000D03*
%TO.P,R10,2*%
%TO.N,/SCL*%
X143350000Y-108570000D03*
%TD*%
%TO.P,R8,1*%
%TO.N,+3.3V*%
X144050000Y-107930000D03*
%TO.P,R8,2*%
%TO.N,/SDA*%
X144050000Y-108570000D03*
%TD*%
D16*
%TO.P,C23,1*%
%TO.N,/GPIO1*%
X153270000Y-105100000D03*
%TO.P,C23,2*%
%TO.N,GND*%
X152630000Y-105100000D03*
%TD*%
D17*
%TO.P,R13,1*%
%TO.N,Net-(D2-K)*%
X152630000Y-105850000D03*
%TO.P,R13,2*%
%TO.N,/GPIO1*%
X153270000Y-105850000D03*
%TD*%
D18*
%TO.P,C17,1*%
%TO.N,Net-(U2-VCOMH)*%
X146750000Y-108330000D03*
%TO.P,C17,2*%
%TO.N,GND*%
X146750000Y-107370000D03*
%TD*%
%TO.P,C16,1*%
%TO.N,Net-(D4-A)*%
X149750000Y-108380000D03*
%TO.P,C16,2*%
%TO.N,GND*%
X149750000Y-107420000D03*
%TD*%
D19*
%TO.P,J3,1,1_1*%
%TO.N,/SDA*%
X154000000Y-111890000D03*
%TO.P,J3,2,2_2*%
%TO.N,/SCL*%
X154000000Y-111090000D03*
%TO.P,J3,3,3_3*%
%TO.N,GND*%
X154000000Y-110290000D03*
%TO.P,J3,4,4_4*%
%TO.N,Net-(D2-K)*%
X154000000Y-109490000D03*
%TO.P,J3,5,5_5*%
%TO.N,+3.3V*%
X154000000Y-108690000D03*
D20*
%TO.P,J3,6,MP_1_6*%
%TO.N,GND*%
X155950000Y-113190000D03*
%TO.P,J3,7,MP_2_7*%
X155950000Y-107390000D03*
%TD*%
D21*
%TO.P,D6,1,K_1*%
%TO.N,/SDA*%
X150800000Y-108600000D03*
%TO.P,D6,2,A_2*%
%TO.N,GND*%
X150800000Y-107900000D03*
%TD*%
%TO.P,D2,1,K_1*%
%TO.N,Net-(D2-K)*%
X152800000Y-108250000D03*
%TO.P,D2,2,A_2*%
%TO.N,GND*%
X152800000Y-107550000D03*
%TD*%
D22*
%TO.P,D4,1,K_1*%
%TO.N,+3.3V*%
X148650000Y-108350000D03*
%TO.P,D4,2,A_2*%
%TO.N,Net-(D4-A)*%
X148650000Y-106750000D03*
%TD*%
D17*
%TO.P,C15,1*%
%TO.N,Net-(U2-C1P)*%
X151030000Y-106700000D03*
%TO.P,C15,2*%
%TO.N,Net-(U2-C1N)*%
X151670000Y-106700000D03*
%TD*%
D21*
%TO.P,D5,1,K_1*%
%TO.N,/SCL*%
X151800000Y-108600000D03*
%TO.P,D5,2,A_2*%
%TO.N,GND*%
X151800000Y-107900000D03*
%TD*%
D16*
%TO.P,C19,1*%
%TO.N,Net-(U2-VCC)*%
X145875000Y-108400000D03*
%TO.P,C19,2*%
%TO.N,GND*%
X145235000Y-108400000D03*
%TD*%
D17*
%TO.P,R9,1*%
%TO.N,+3.3V*%
X148030000Y-105900000D03*
%TO.P,R9,2*%
%TO.N,Net-(D4-A)*%
X148670000Y-105900000D03*
%TD*%
D16*
%TO.P,C14,1*%
%TO.N,Net-(U2-C2P)*%
X151675000Y-106000000D03*
%TO.P,C14,2*%
%TO.N,Net-(U2-C2N)*%
X151035000Y-106000000D03*
%TD*%
D23*
%TO.P,C18,1*%
%TO.N,Net-(U2-VCC)*%
X145830000Y-107550000D03*
%TO.P,C18,2*%
%TO.N,GND*%
X144870000Y-107550000D03*
%TD*%
D13*
%TO.P,U4,1,GND_1*%
%TO.N,GND*%
X137600000Y-106490000D03*
D14*
%TO.P,U4,2,VCC_2*%
%TO.N,+3.3V*%
X137600000Y-109030000D03*
%TO.P,U4,3,SCK_3*%
%TO.N,/SCL*%
X137600000Y-111570000D03*
%TO.P,U4,4,SDA_4*%
%TO.N,/SDA*%
X137600000Y-114110000D03*
%TO.P,U4,5,SUP_1_5*%
%TO.N,GND*%
X123600000Y-105800000D03*
%TO.P,U4,6,SUP_2_6*%
%TO.N,/GPIO2*%
X123600000Y-114800000D03*
%TD*%
D24*
%TO.P,U1,1,C2P_1*%
%TO.N,Net-(U1-C2P)*%
X126050000Y-108300000D03*
%TO.P,U1,2,C2N_2*%
%TO.N,Net-(U1-C2N)*%
X126750000Y-108300000D03*
%TO.P,U1,3,C1P_3*%
%TO.N,Net-(U1-C1P)*%
X127450000Y-108300000D03*
%TO.P,U1,4,C1N_4*%
%TO.N,Net-(U1-C1N)*%
X128150000Y-108300000D03*
%TO.P,U1,5,VBAT_5*%
%TO.N,+3.3V*%
X128850000Y-108300000D03*
%TO.P,U1,6,VBREF_6*%
%TO.N,unconnected-(U1-VBREF-Pad6)*%
X129550000Y-108300000D03*
%TO.P,U1,7,VSS_7*%
%TO.N,GND*%
X130250000Y-108300000D03*
%TO.P,U1,8,VDD_8*%
%TO.N,+3.3V*%
X130950000Y-108300000D03*
%TO.P,U1,9,RES_9*%
%TO.N,Net-(D9-A)*%
X131650000Y-108300000D03*
%TO.P,U1,10,SCL_10*%
%TO.N,/SCL*%
X132350000Y-108300000D03*
%TO.P,U1,11,SDA_11*%
%TO.N,/SDA*%
X133050000Y-108300000D03*
%TO.P,U1,12,IREF_12*%
%TO.N,Net-(U1-IREF)*%
X133750000Y-108300000D03*
%TO.P,U1,13,VCOMH_13*%
%TO.N,Net-(U1-VCOMH)*%
X134450000Y-108300000D03*
%TO.P,U1,14,VCC_14*%
%TO.N,Net-(U1-VCC)*%
X135150000Y-108300000D03*
%TD*%
D25*
%TO.N,GND*%
X140750000Y-118215000D03*
X132550000Y-118890000D03*
X133675000Y-119140000D03*
X137775000Y-117840000D03*
X145125000Y-119115000D03*
X138925000Y-118340000D03*
X135475000Y-118990000D03*
X140025000Y-120340000D03*
X141875000Y-120490000D03*
X146125000Y-118190000D03*
X136775000Y-119140000D03*
X143100000Y-118240000D03*
X133300000Y-120765000D03*
%TO.N,+3.3V*%
X134425000Y-120290000D03*
X146125000Y-120190000D03*
%TO.N,/SDA*%
X144125000Y-118190000D03*
%TO.N,/SCL*%
X144125000Y-120190000D03*
%TO.N,/GPIO3*%
X132275000Y-120565000D03*
%TO.N,Net-(U2-VCC)*%
X149500000Y-115200000D03*
X150500000Y-115200000D03*
%TO.N,GND*%
X142400000Y-115700000D03*
%TO.N,Net-(U2-C2N)*%
X149900000Y-106100000D03*
%TO.N,/GPIO1*%
X154050000Y-105850000D03*
%TO.N,Net-(U2-C1N)*%
X152300000Y-106550000D03*
%TO.N,/SDA*%
X154000000Y-111890000D03*
%TO.N,Net-(U2-C1P)*%
X150350000Y-106750000D03*
%TO.N,/SCL*%
X154000000Y-111090000D03*
%TO.N,Net-(U2-C2P)*%
X151900000Y-105300000D03*
%TO.N,Net-(U2-VCOMH)*%
X151150000Y-114550000D03*
%TO.N,GND*%
X155950000Y-107390000D03*
X142400000Y-110525000D03*
X140900000Y-112850000D03*
X155950000Y-113190000D03*
X143150000Y-112825000D03*
X140900000Y-110250000D03*
X147950000Y-111750000D03*
X151200000Y-104850000D03*
X143400000Y-106850000D03*
X152000000Y-115700000D03*
%TO.N,Net-(U2-VCOMH)*%
X148800000Y-114550000D03*
%TO.N,GND*%
X152850000Y-107000000D03*
X147900000Y-104950000D03*
X154050000Y-104850000D03*
X154350000Y-107650000D03*
%TO.N,+3.3V*%
X148000000Y-107800000D03*
X148000000Y-106550000D03*
%TO.N,GND*%
X145625000Y-106475000D03*
%TO.N,+3.3V*%
X154000000Y-108690000D03*
%TO.N,GND*%
X144150000Y-111750000D03*
X152000000Y-113800000D03*
X146100000Y-115700000D03*
X148050000Y-110450000D03*
X140900000Y-107700000D03*
X153050000Y-110150000D03*
X156200000Y-110125000D03*
X148050000Y-113550000D03*
X143950000Y-113800000D03*
X152000000Y-111600000D03*
%TO.N,Net-(D4-A)*%
X150050000Y-111290000D03*
%TO.N,GND*%
X143200000Y-104850000D03*
X144700000Y-110550000D03*
X154475000Y-112750000D03*
%TO.N,Net-(U1-IREF)*%
X133750000Y-109350000D03*
%TO.N,GND*%
X138100000Y-112800000D03*
X127050000Y-113450000D03*
%TO.N,+3.3V*%
X130950000Y-108300000D03*
X130950000Y-109550000D03*
%TO.N,GND*%
X130250000Y-108300000D03*
X125050000Y-110300000D03*
%TO.N,/SCL*%
X125110000Y-111100000D03*
%TO.N,+3.3V*%
X128850000Y-108300000D03*
%TO.N,/SDA*%
X125110000Y-111900000D03*
%TO.N,GND*%
X130100000Y-110400000D03*
X136200000Y-104850000D03*
%TO.N,Net-(U1-C1N)*%
X128170000Y-108150000D03*
%TO.N,GND*%
X135100000Y-113400000D03*
X138200000Y-104950000D03*
X123100000Y-107400000D03*
X138100000Y-115450000D03*
X132200000Y-111700000D03*
X132950000Y-106250000D03*
X136500000Y-115600000D03*
X130200000Y-105700000D03*
X125000000Y-115600000D03*
%TO.N,Net-(U1-VCOMH)*%
X134450000Y-107250000D03*
%TO.N,GND*%
X136050000Y-108510000D03*
%TO.N,Net-(U1-C2P)*%
X126050000Y-108150000D03*
%TO.N,GND*%
X136300000Y-106350000D03*
X127400000Y-106385000D03*
X125000000Y-112750000D03*
%TO.N,/SCL*%
X132350000Y-108300000D03*
%TO.N,GND*%
X138150000Y-110300000D03*
X127975000Y-104800000D03*
X131550000Y-105300000D03*
X126300000Y-110450000D03*
X138100000Y-107750000D03*
%TO.N,Net-(D9-A)*%
X131650000Y-108300000D03*
%TO.N,Net-(U1-C1P)*%
X127450000Y-108150000D03*
%TO.N,GND*%
X123100000Y-113200000D03*
%TO.N,/SDA*%
X133050000Y-108300000D03*
%TO.N,Net-(U1-VCC)*%
X136000000Y-107750000D03*
%TO.N,Net-(U1-C2N)*%
X126750000Y-108150000D03*
%TO.N,/GPIO2*%
X125100000Y-105100000D03*
%TO.N,Net-(D1-K)*%
X125110000Y-109500000D03*
%TO.N,GND*%
X123250000Y-110200000D03*
%TO.N,Net-(D1-K)*%
X125650000Y-106300000D03*
%TD*%
%TO.N,/SDA*%
D26*
X137610000Y-114120000D02*
X137600000Y-114110000D01*
X141500000Y-114120000D02*
X137610000Y-114120000D01*
%TO.N,/SCL*%
D27*
X141500000Y-111580000D02*
X137610000Y-111580000D01*
X137610000Y-111580000D02*
X137600000Y-111570000D01*
%TO.N,+3.3V*%
X137610000Y-109040000D02*
X137600000Y-109030000D01*
X141500000Y-109040000D02*
X137610000Y-109040000D01*
%TO.N,GND*%
X137610000Y-106500000D02*
X137600000Y-106490000D01*
X141500000Y-106500000D02*
X137610000Y-106500000D01*
%TO.N,/SCL*%
D26*
X136920000Y-112250000D02*
X137600000Y-111570000D01*
X126400000Y-112250000D02*
X136920000Y-112250000D01*
X125110000Y-111100000D02*
X125250000Y-111100000D01*
X125250000Y-111100000D02*
X126400000Y-112250000D01*
%TO.N,/SDA*%
X137600000Y-114105000D02*
X137600000Y-114110000D01*
X126000000Y-112850000D02*
X136345000Y-112850000D01*
X136345000Y-112850000D02*
X137600000Y-114105000D01*
X125110000Y-111960000D02*
X126000000Y-112850000D01*
X125110000Y-111900000D02*
X125110000Y-111960000D01*
X140000000Y-119465000D02*
X140000000Y-117950000D01*
X140000000Y-117950000D02*
X140350000Y-117600000D01*
X138825000Y-120640000D02*
X140000000Y-119465000D01*
X137975000Y-120640000D02*
X138825000Y-120640000D01*
X137625000Y-120290000D02*
X137975000Y-120640000D01*
X140350000Y-117600000D02*
X140750000Y-117600000D01*
X143535000Y-117600000D02*
X144125000Y-118190000D01*
X141500000Y-114120000D02*
X140750000Y-114870000D01*
X140750000Y-114870000D02*
X140750000Y-117600000D01*
X140750000Y-117600000D02*
X143535000Y-117600000D01*
%TO.N,GND*%
D28*
X137200000Y-117265000D02*
X137775000Y-117840000D01*
X136500000Y-115600000D02*
X137200000Y-116300000D01*
X137200000Y-116300000D02*
X137200000Y-117265000D01*
%TO.N,+3.3V*%
D29*
X146125000Y-119510000D02*
X146125000Y-120190000D01*
%TO.N,/SCL*%
D26*
X136825000Y-120290000D02*
X136825000Y-120950000D01*
X142175000Y-121140000D02*
X143125000Y-120190000D01*
X143125000Y-120190000D02*
X144125000Y-120190000D01*
X137015000Y-121140000D02*
X142175000Y-121140000D01*
X136825000Y-120950000D02*
X137015000Y-121140000D01*
%TO.N,/GPIO3*%
X132275000Y-120290000D02*
X132425000Y-120140000D01*
X132425000Y-120140000D02*
X133375000Y-120140000D01*
X132275000Y-120565000D02*
X132275000Y-120290000D01*
X133375000Y-120140000D02*
X134075000Y-119440000D01*
X135225000Y-119630000D02*
X135225000Y-120290000D01*
X135035000Y-119440000D02*
X135225000Y-119630000D01*
X134075000Y-119440000D02*
X135035000Y-119440000D01*
%TO.N,/SCL*%
X154000000Y-111090000D02*
X153140000Y-111090000D01*
%TO.N,/GPIO1*%
X154050000Y-105850000D02*
X153270000Y-105850000D01*
%TO.N,/SCL*%
X153140000Y-111090000D02*
X151600000Y-109550000D01*
D27*
X142170000Y-111580000D02*
X143350000Y-110400000D01*
D26*
X151600000Y-108800000D02*
X151800000Y-108600000D01*
X151600000Y-109550000D02*
X151600000Y-108800000D01*
D27*
X143350000Y-110400000D02*
X143350000Y-108570000D01*
X141500000Y-111580000D02*
X142170000Y-111580000D01*
%TO.N,Net-(U2-C2N)*%
D30*
X150140000Y-106000000D02*
X151035000Y-106000000D01*
%TO.N,/SDA*%
D26*
X144050000Y-108570000D02*
X144050000Y-111125000D01*
%TO.N,Net-(U2-C2N)*%
D30*
X150040000Y-106100000D02*
X150140000Y-106000000D01*
%TO.N,Net-(D2-K)*%
X152800000Y-108250000D02*
X153150000Y-108250000D01*
X153700000Y-106900000D02*
X153250000Y-106450000D01*
X153700000Y-107700000D02*
X153700000Y-106900000D01*
%TO.N,/SDA*%
D26*
X141480000Y-114140000D02*
X141500000Y-114120000D01*
X144050000Y-111125000D02*
X141500000Y-113675000D01*
%TO.N,Net-(D4-A)*%
X148650000Y-106750000D02*
X148650000Y-107250000D01*
%TO.N,Net-(U2-C1P)*%
D30*
X150350000Y-106750000D02*
X150980000Y-106750000D01*
%TO.N,Net-(D2-K)*%
X152800000Y-108250000D02*
X152800000Y-109000000D01*
%TO.N,Net-(U2-C1P)*%
X150980000Y-106750000D02*
X151030000Y-106700000D01*
%TO.N,Net-(D4-A)*%
D26*
X150050000Y-111290000D02*
X150050000Y-110300000D01*
%TO.N,Net-(D2-K)*%
D30*
X153250000Y-106450000D02*
X152977818Y-106450000D01*
%TO.N,/SDA*%
D26*
X153140000Y-111890000D02*
X154000000Y-111890000D01*
%TO.N,Net-(D2-K)*%
D30*
X152800000Y-109000000D02*
X153290000Y-109490000D01*
%TO.N,+3.3V*%
D27*
X141500000Y-109040000D02*
X141490000Y-109050000D01*
%TO.N,Net-(D4-A)*%
D26*
X148670000Y-105900000D02*
X148670000Y-106730000D01*
X150050000Y-110300000D02*
X149750000Y-110000000D01*
%TO.N,+3.3V*%
D27*
X141500000Y-109040000D02*
X141480000Y-109020000D01*
%TO.N,Net-(U2-C1N)*%
D30*
X152150000Y-106700000D02*
X152300000Y-106550000D01*
%TO.N,Net-(D4-A)*%
D26*
X149750000Y-110000000D02*
X149750000Y-108380000D01*
%TO.N,GND*%
D27*
X141475000Y-106475000D02*
X141500000Y-106500000D01*
%TO.N,/SDA*%
D26*
X141500000Y-113675000D02*
X141500000Y-114120000D01*
X150800000Y-108600000D02*
X151000000Y-108800000D01*
%TO.N,Net-(D2-K)*%
D30*
X153150000Y-108250000D02*
X153700000Y-107700000D01*
%TO.N,Net-(U2-C2N)*%
X149900000Y-106100000D02*
X150040000Y-106100000D01*
%TO.N,Net-(U2-C2P)*%
X151675000Y-105525000D02*
X151900000Y-105300000D01*
%TO.N,Net-(D2-K)*%
X152977818Y-106450000D02*
X152630000Y-106102182D01*
%TO.N,Net-(D4-A)*%
D26*
X148670000Y-106730000D02*
X148650000Y-106750000D01*
%TO.N,/SDA*%
X151000000Y-108800000D02*
X151000000Y-109750000D01*
%TO.N,Net-(D4-A)*%
X148650000Y-107250000D02*
X149750000Y-108350000D01*
X149750000Y-108350000D02*
X149750000Y-108380000D01*
%TO.N,Net-(U2-C2P)*%
D30*
X151675000Y-106000000D02*
X151675000Y-105525000D01*
%TO.N,/GPIO1*%
D26*
X153270000Y-105100000D02*
X153270000Y-105850000D01*
%TO.N,/SDA*%
X151000000Y-109750000D02*
X153140000Y-111890000D01*
%TO.N,Net-(U2-C1N)*%
D30*
X151670000Y-106700000D02*
X152150000Y-106700000D01*
%TO.N,Net-(D2-K)*%
X152630000Y-106102182D02*
X152630000Y-105850000D01*
X153290000Y-109490000D02*
X154000000Y-109490000D01*
%TO.N,/GPIO2*%
D26*
X123600000Y-114800000D02*
X124350000Y-114050000D01*
X124350000Y-106900000D02*
X125050000Y-106200000D01*
%TO.N,Net-(D1-K)*%
X124800000Y-107150000D02*
X125650000Y-106300000D01*
X125050000Y-109500000D02*
X124800000Y-109250000D01*
X124800000Y-109250000D02*
X124800000Y-107150000D01*
%TO.N,/GPIO2*%
X125050000Y-106200000D02*
X125050000Y-105150000D01*
%TO.N,Net-(U1-VCC)*%
D30*
X135450000Y-108300000D02*
X136000000Y-107750000D01*
%TO.N,/GPIO2*%
D26*
X125050000Y-105150000D02*
X125100000Y-105100000D01*
X124350000Y-114050000D02*
X124350000Y-106900000D01*
%TO.N,+3.3V*%
D27*
X137230000Y-109030000D02*
X137210000Y-109050000D01*
%TO.N,GND*%
X137200000Y-106500000D02*
X137215000Y-106485000D01*
%TO.N,+3.3V*%
X137630000Y-109060000D02*
X137600000Y-109030000D01*
%TO.N,Net-(U1-VCC)*%
D30*
X135150000Y-108300000D02*
X135450000Y-108300000D01*
%TO.N,Net-(D1-K)*%
D26*
X125110000Y-109500000D02*
X125050000Y-109500000D01*
%TD*%
%TA.AperFunction,Conductor*%
%TO.N,GND*%
G36*
X138136303Y-117499693D02*
G01*
X138164617Y-117505332D01*
X138175027Y-117509647D01*
X138215060Y-117549692D01*
X138219370Y-117560101D01*
X138225000Y-117588410D01*
X138225000Y-118190000D01*
X138836281Y-118190000D01*
X138864591Y-118195629D01*
X138875003Y-118199942D01*
X138915052Y-118239984D01*
X138919367Y-118250400D01*
X138925000Y-118278718D01*
X138925000Y-118340000D01*
X138986281Y-118340000D01*
X139014591Y-118345629D01*
X139025003Y-118349942D01*
X139065053Y-118389985D01*
X139065056Y-118389992D01*
X139069367Y-118400400D01*
X139075000Y-118428718D01*
X139075000Y-119289999D01*
X139534847Y-119289999D01*
X139534848Y-119289999D01*
X139564018Y-119284197D01*
X139564019Y-119284196D01*
X139564020Y-119284196D01*
X139597088Y-119262102D01*
X139597089Y-119262100D01*
X139597093Y-119262098D01*
X139597096Y-119262095D01*
X139619197Y-119229017D01*
X139620050Y-119224726D01*
X139629620Y-119204637D01*
X139630048Y-119200276D01*
X139632758Y-119198049D01*
X139635682Y-119191912D01*
X139638555Y-119188450D01*
X139641485Y-119190881D01*
X139673813Y-119164327D01*
X139730180Y-119169854D01*
X139766129Y-119213619D01*
X139766304Y-119214195D01*
X139769500Y-119235707D01*
X139769500Y-119324153D01*
X139763867Y-119352469D01*
X139753459Y-119377599D01*
X139737418Y-119401605D01*
X138761605Y-120377418D01*
X138737599Y-120393458D01*
X138712469Y-120403867D01*
X138684153Y-120409500D01*
X138115847Y-120409500D01*
X138087532Y-120403868D01*
X138075968Y-120399078D01*
X138035921Y-120359032D01*
X138031130Y-120347466D01*
X138025500Y-120319153D01*
X138025500Y-119775181D01*
X138025500Y-119775180D01*
X138025000Y-119772666D01*
X138016767Y-119731278D01*
X137983504Y-119681496D01*
X137983503Y-119681495D01*
X137983501Y-119681493D01*
X137967048Y-119670500D01*
X137967047Y-119670500D01*
X137933722Y-119648233D01*
X137889820Y-119639500D01*
X137889819Y-119639500D01*
X137360181Y-119639500D01*
X137360180Y-119639500D01*
X137345546Y-119642411D01*
X137316276Y-119648233D01*
X137278348Y-119673575D01*
X137251675Y-119684623D01*
X137232814Y-119688375D01*
X137177265Y-119677326D01*
X137133723Y-119648233D01*
X137128235Y-119647141D01*
X137111774Y-119643866D01*
X137111771Y-119643866D01*
X137089820Y-119639500D01*
X137089816Y-119639500D01*
X136560184Y-119639500D01*
X136560180Y-119639500D01*
X136538229Y-119643866D01*
X136538225Y-119643866D01*
X136516277Y-119648233D01*
X136466496Y-119681494D01*
X136466495Y-119681496D01*
X136466492Y-119681498D01*
X136466491Y-119681500D01*
X136462111Y-119688055D01*
X136441698Y-119708467D01*
X136432330Y-119714727D01*
X136376783Y-119725778D01*
X136365728Y-119723579D01*
X136339058Y-119712532D01*
X136314019Y-119695802D01*
X136314018Y-119695801D01*
X136314017Y-119695801D01*
X136301448Y-119693301D01*
X136284848Y-119690000D01*
X136284844Y-119690000D01*
X136175000Y-119690000D01*
X136175000Y-120889999D01*
X136284846Y-120889999D01*
X136284848Y-120889999D01*
X136314016Y-120884197D01*
X136339059Y-120867464D01*
X136365726Y-120856419D01*
X136376782Y-120854220D01*
X136432330Y-120865270D01*
X136432331Y-120865271D01*
X136441699Y-120871531D01*
X136462113Y-120891945D01*
X136466496Y-120898504D01*
X136516278Y-120931767D01*
X136521515Y-120932808D01*
X136548193Y-120943858D01*
X136564355Y-120954657D01*
X136593247Y-120992198D01*
X136594804Y-120996743D01*
X136595503Y-120998274D01*
X136615055Y-121045476D01*
X136629591Y-121080568D01*
X136694432Y-121145409D01*
X136701791Y-121152768D01*
X136717833Y-121176778D01*
X136720880Y-121184135D01*
X136720878Y-121240773D01*
X136680837Y-121280815D01*
X136673478Y-121283864D01*
X136645153Y-121289500D01*
X132349000Y-121289500D01*
X132296674Y-121267826D01*
X132275000Y-121215500D01*
X132275000Y-121039500D01*
X132296674Y-120987174D01*
X132318668Y-120972002D01*
X132335703Y-120964347D01*
X132340220Y-120964213D01*
X132346880Y-120960367D01*
X132429587Y-120938207D01*
X132520913Y-120885480D01*
X132595480Y-120810913D01*
X132648207Y-120719587D01*
X132670367Y-120636880D01*
X132675500Y-120627991D01*
X132675500Y-120512274D01*
X132675019Y-120510479D01*
X132666280Y-120477866D01*
X132664393Y-120449059D01*
X132665863Y-120437889D01*
X132694178Y-120388842D01*
X132698168Y-120385782D01*
X132743204Y-120370500D01*
X133318221Y-120370500D01*
X133318253Y-120370501D01*
X133320538Y-120370501D01*
X133329150Y-120370501D01*
X133420850Y-120370501D01*
X133470476Y-120349944D01*
X133505568Y-120335409D01*
X133570409Y-120270568D01*
X133570409Y-120270567D01*
X133580814Y-120260162D01*
X133580814Y-120260161D01*
X133586899Y-120254075D01*
X133586902Y-120254073D01*
X133586904Y-120254069D01*
X133887769Y-119953205D01*
X133911770Y-119937168D01*
X133919133Y-119934118D01*
X133975768Y-119934117D01*
X134015816Y-119974162D01*
X134018866Y-119981527D01*
X134024500Y-120009845D01*
X134024500Y-120804817D01*
X134033232Y-120848720D01*
X134033232Y-120848721D01*
X134033233Y-120848722D01*
X134058941Y-120887198D01*
X134066496Y-120898504D01*
X134116278Y-120931767D01*
X134160180Y-120940500D01*
X134160181Y-120940500D01*
X134689819Y-120940500D01*
X134689820Y-120940500D01*
X134733722Y-120931767D01*
X134771652Y-120906423D01*
X134798321Y-120895376D01*
X134817187Y-120891623D01*
X134872734Y-120902672D01*
X134916278Y-120931767D01*
X134960180Y-120940500D01*
X134960181Y-120940500D01*
X135489819Y-120940500D01*
X135489820Y-120940500D01*
X135533722Y-120931767D01*
X135583504Y-120898504D01*
X135587886Y-120891944D01*
X135608298Y-120871530D01*
X135617668Y-120865269D01*
X135673211Y-120854219D01*
X135684267Y-120856417D01*
X135710940Y-120867465D01*
X135735982Y-120884198D01*
X135765151Y-120889999D01*
X135875000Y-120889999D01*
X135875000Y-119690000D01*
X135765156Y-119690000D01*
X135765152Y-119690000D01*
X135745704Y-119693868D01*
X135735979Y-119695802D01*
X135710938Y-119712533D01*
X135684262Y-119723581D01*
X135673215Y-119725779D01*
X135617667Y-119714727D01*
X135617663Y-119714725D01*
X135608296Y-119708465D01*
X135587887Y-119688054D01*
X135583508Y-119681501D01*
X135583503Y-119681495D01*
X135583502Y-119681494D01*
X135551945Y-119660409D01*
X135533722Y-119648233D01*
X135533721Y-119648232D01*
X135533720Y-119648232D01*
X135528474Y-119647188D01*
X135501805Y-119636140D01*
X135485815Y-119625456D01*
X135461755Y-119589449D01*
X135458290Y-119590885D01*
X135429677Y-119521808D01*
X135420409Y-119499432D01*
X135240817Y-119319840D01*
X135165569Y-119244592D01*
X135165565Y-119244589D01*
X135165564Y-119244588D01*
X135128153Y-119229093D01*
X135105665Y-119219778D01*
X135080850Y-119209499D01*
X135080849Y-119209499D01*
X134978253Y-119209499D01*
X134978221Y-119209500D01*
X134029148Y-119209500D01*
X134004334Y-119219777D01*
X134004335Y-119219778D01*
X133941740Y-119245704D01*
X133927858Y-119249914D01*
X133914931Y-119252485D01*
X133859382Y-119241435D01*
X133829680Y-119201377D01*
X133829216Y-119199848D01*
X138225001Y-119199848D01*
X138227079Y-119210295D01*
X138230802Y-119229019D01*
X138252898Y-119262090D01*
X138252901Y-119262093D01*
X138252904Y-119262096D01*
X138285982Y-119284198D01*
X138315151Y-119289999D01*
X138775000Y-119289999D01*
X138775000Y-118490000D01*
X138225001Y-118490000D01*
X138225001Y-119199848D01*
X133829216Y-119199848D01*
X133828181Y-119196437D01*
X133825000Y-119174972D01*
X133825000Y-118490000D01*
X133275000Y-118490000D01*
X133275000Y-119289999D01*
X133705653Y-119289999D01*
X133733967Y-119295630D01*
X133741330Y-119298680D01*
X133781378Y-119338727D01*
X133781380Y-119395364D01*
X133778332Y-119402723D01*
X133762290Y-119426732D01*
X133311605Y-119877418D01*
X133287599Y-119893458D01*
X133262469Y-119903867D01*
X133234153Y-119909500D01*
X132481778Y-119909500D01*
X132481746Y-119909499D01*
X132479461Y-119909499D01*
X132470849Y-119909499D01*
X132379150Y-119909499D01*
X132379149Y-119909499D01*
X132377315Y-119910259D01*
X132375330Y-119910258D01*
X132372001Y-119910921D01*
X132371869Y-119910258D01*
X132320678Y-119910255D01*
X132280631Y-119870205D01*
X132275000Y-119841890D01*
X132275000Y-119199848D01*
X132425001Y-119199848D01*
X132427079Y-119210295D01*
X132430802Y-119229019D01*
X132452898Y-119262090D01*
X132452901Y-119262093D01*
X132452904Y-119262096D01*
X132485982Y-119284198D01*
X132515151Y-119289999D01*
X132975000Y-119289999D01*
X132975000Y-118490000D01*
X132425001Y-118490000D01*
X132425001Y-119199848D01*
X132275000Y-119199848D01*
X132275000Y-117582228D01*
X132296674Y-117529902D01*
X132349000Y-117508228D01*
X132401326Y-117529902D01*
X132417370Y-117553917D01*
X132419370Y-117558747D01*
X132425000Y-117587058D01*
X132425000Y-118190000D01*
X133824999Y-118190000D01*
X133824999Y-117587423D01*
X133830629Y-117559112D01*
X133834942Y-117548698D01*
X133874986Y-117508651D01*
X133874986Y-117508650D01*
X133885391Y-117504340D01*
X133913723Y-117498708D01*
X138136303Y-117499693D01*
G37*
%TD.AperFunction*%
%TA.AperFunction,Conductor*%
G36*
X146551018Y-117501656D02*
G01*
X146603338Y-117523342D01*
X146625000Y-117575656D01*
X146625000Y-119972109D01*
X146603326Y-120024435D01*
X146551000Y-120046109D01*
X146498674Y-120024435D01*
X146479522Y-119991262D01*
X146478022Y-119985664D01*
X146475500Y-119966511D01*
X146475500Y-119355327D01*
X146468441Y-119319840D01*
X146460966Y-119282260D01*
X146405601Y-119199399D01*
X146401172Y-119196440D01*
X146322740Y-119144034D01*
X146249674Y-119129500D01*
X146249672Y-119129500D01*
X146000326Y-119129500D01*
X145951615Y-119139188D01*
X145951615Y-119139189D01*
X145939437Y-119141611D01*
X145927258Y-119144034D01*
X145844398Y-119199398D01*
X145789033Y-119282259D01*
X145774500Y-119355327D01*
X145774500Y-119966511D01*
X145771979Y-119985663D01*
X145767108Y-120003842D01*
X145759716Y-120021688D01*
X145751794Y-120035410D01*
X145751791Y-120035417D01*
X145724500Y-120137270D01*
X145724500Y-120242729D01*
X145751791Y-120344582D01*
X145751795Y-120344591D01*
X145766754Y-120370500D01*
X145804520Y-120435913D01*
X145879087Y-120510480D01*
X145970413Y-120563207D01*
X146067589Y-120589244D01*
X146071287Y-120590500D01*
X146177729Y-120590500D01*
X146187992Y-120590500D01*
X146196880Y-120585367D01*
X146279587Y-120563207D01*
X146370913Y-120510480D01*
X146445480Y-120435913D01*
X146486915Y-120364145D01*
X146531847Y-120329668D01*
X146588000Y-120337060D01*
X146622478Y-120381993D01*
X146625000Y-120401146D01*
X146625000Y-121215500D01*
X146603326Y-121267826D01*
X146551000Y-121289500D01*
X142544846Y-121289500D01*
X142516526Y-121283866D01*
X142509163Y-121280816D01*
X142469118Y-121240766D01*
X142469118Y-121184136D01*
X142472169Y-121176769D01*
X142488207Y-121152768D01*
X142805476Y-120835500D01*
X143188397Y-120452578D01*
X143212400Y-120436541D01*
X143237531Y-120426131D01*
X143265847Y-120420500D01*
X143743737Y-120420500D01*
X143772052Y-120426131D01*
X143797181Y-120436540D01*
X143821187Y-120452580D01*
X143879087Y-120510480D01*
X143970413Y-120563207D01*
X144067589Y-120589244D01*
X144071287Y-120590500D01*
X144177729Y-120590500D01*
X144187992Y-120590500D01*
X144196880Y-120585367D01*
X144279587Y-120563207D01*
X144370913Y-120510480D01*
X144445480Y-120435913D01*
X144498207Y-120344587D01*
X144520367Y-120261880D01*
X144525500Y-120252991D01*
X144525500Y-120136288D01*
X144524247Y-120132597D01*
X144514063Y-120094591D01*
X144498207Y-120035413D01*
X144445480Y-119944087D01*
X144370913Y-119869520D01*
X144360621Y-119863578D01*
X144323057Y-119841890D01*
X144279592Y-119816795D01*
X144279587Y-119816793D01*
X144279585Y-119816792D01*
X144279583Y-119816791D01*
X144279582Y-119816791D01*
X144177729Y-119789500D01*
X144177728Y-119789500D01*
X144072272Y-119789500D01*
X144072271Y-119789500D01*
X144014438Y-119804996D01*
X143970413Y-119816792D01*
X143970411Y-119816793D01*
X143970406Y-119816795D01*
X143926942Y-119841890D01*
X143889375Y-119863580D01*
X143879083Y-119869522D01*
X143871188Y-119877418D01*
X143860781Y-119887826D01*
X143844740Y-119903867D01*
X143821189Y-119927417D01*
X143797186Y-119943456D01*
X143772058Y-119953866D01*
X143743736Y-119959500D01*
X143181779Y-119959500D01*
X143181747Y-119959499D01*
X143179462Y-119959499D01*
X143170850Y-119959499D01*
X143079151Y-119959499D01*
X143079150Y-119959499D01*
X143000253Y-119992177D01*
X143000251Y-119992179D01*
X142994437Y-119994587D01*
X142994432Y-119994591D01*
X142111605Y-120877418D01*
X142087599Y-120893458D01*
X142062469Y-120903867D01*
X142034153Y-120909500D01*
X139074848Y-120909500D01*
X139046528Y-120903866D01*
X139039165Y-120900816D01*
X138999120Y-120860766D01*
X138999120Y-120804134D01*
X139002168Y-120796775D01*
X139018214Y-120772761D01*
X139020409Y-120770568D01*
X139020409Y-120770567D01*
X139030808Y-120760170D01*
X139030815Y-120760160D01*
X140120159Y-119670816D01*
X140120162Y-119670814D01*
X140130567Y-119660409D01*
X140130568Y-119660409D01*
X140195409Y-119595568D01*
X140212954Y-119553208D01*
X140230501Y-119510849D01*
X140230501Y-119419150D01*
X140230501Y-119413192D01*
X140230501Y-119411873D01*
X140230500Y-119411844D01*
X140230500Y-119121004D01*
X141024500Y-119121004D01*
X141024500Y-119121007D01*
X141024500Y-119150907D01*
X141024500Y-119258993D01*
X141027007Y-119271595D01*
X141029514Y-119284199D01*
X141029514Y-119284200D01*
X141051417Y-119394320D01*
X141051420Y-119394331D01*
X141051422Y-119394336D01*
X141104217Y-119521794D01*
X141104223Y-119521808D01*
X141104297Y-119521956D01*
X141104956Y-119522905D01*
X141173478Y-119625456D01*
X141180886Y-119636542D01*
X141278458Y-119734114D01*
X141393189Y-119810775D01*
X141393190Y-119810775D01*
X141393191Y-119810776D01*
X141520667Y-119863578D01*
X141520672Y-119863580D01*
X141656007Y-119890500D01*
X141656009Y-119890500D01*
X141793991Y-119890500D01*
X141793993Y-119890500D01*
X141929328Y-119863580D01*
X142056811Y-119810775D01*
X142171542Y-119734114D01*
X142269114Y-119636542D01*
X142345775Y-119521811D01*
X142398580Y-119394328D01*
X142425500Y-119258993D01*
X142425500Y-119121007D01*
X142398580Y-118985672D01*
X142345775Y-118858189D01*
X142269114Y-118743458D01*
X142171542Y-118645886D01*
X142171536Y-118645882D01*
X142057905Y-118569956D01*
X142056956Y-118569297D01*
X142056808Y-118569223D01*
X142056794Y-118569217D01*
X141929336Y-118516422D01*
X141929331Y-118516420D01*
X141929318Y-118516416D01*
X141929319Y-118516416D01*
X141838694Y-118498391D01*
X141838694Y-118498390D01*
X141793993Y-118489500D01*
X141656007Y-118489500D01*
X141617642Y-118497131D01*
X141520678Y-118516417D01*
X141520668Y-118516420D01*
X141520662Y-118516422D01*
X141393191Y-118569222D01*
X141278461Y-118645882D01*
X141278460Y-118645884D01*
X141180884Y-118743460D01*
X141180882Y-118743461D01*
X141104222Y-118858191D01*
X141051422Y-118985662D01*
X141051416Y-118985680D01*
X141028945Y-119098657D01*
X141024500Y-119121004D01*
X140230500Y-119121004D01*
X140230500Y-118090846D01*
X140236131Y-118062532D01*
X140246542Y-118037397D01*
X140262578Y-118013397D01*
X140413397Y-117862578D01*
X140437400Y-117846541D01*
X140462531Y-117836131D01*
X140490847Y-117830500D01*
X143394153Y-117830500D01*
X143422467Y-117836131D01*
X143447599Y-117846541D01*
X143471605Y-117862581D01*
X143692418Y-118083394D01*
X143708457Y-118107397D01*
X143718868Y-118132531D01*
X143724500Y-118160846D01*
X143724500Y-118242729D01*
X143734143Y-118278718D01*
X143751792Y-118344585D01*
X143751793Y-118344587D01*
X143751795Y-118344592D01*
X143804518Y-118435911D01*
X143804520Y-118435913D01*
X143879087Y-118510480D01*
X143970413Y-118563207D01*
X144067589Y-118589244D01*
X144071287Y-118590500D01*
X144177729Y-118590500D01*
X144187992Y-118590500D01*
X144196880Y-118585367D01*
X144279587Y-118563207D01*
X144370913Y-118510480D01*
X144445480Y-118435913D01*
X144498207Y-118344587D01*
X144520367Y-118261880D01*
X144525500Y-118252991D01*
X144525500Y-118136286D01*
X144524244Y-118132589D01*
X144498357Y-118035976D01*
X144498220Y-118035446D01*
X144498208Y-118035415D01*
X144485494Y-118013394D01*
X144445480Y-117944087D01*
X144370913Y-117869520D01*
X144370910Y-117869518D01*
X144370908Y-117869516D01*
X144340870Y-117852174D01*
X144340869Y-117852174D01*
X144279592Y-117816795D01*
X144279587Y-117816793D01*
X144279585Y-117816792D01*
X144279583Y-117816791D01*
X144279582Y-117816791D01*
X144177729Y-117789500D01*
X144177728Y-117789500D01*
X144095847Y-117789500D01*
X144067529Y-117783867D01*
X144042400Y-117773458D01*
X144018394Y-117757418D01*
X143898756Y-117637780D01*
X143882716Y-117613774D01*
X143879666Y-117606410D01*
X143879668Y-117549775D01*
X143919715Y-117509728D01*
X143927066Y-117506683D01*
X143955397Y-117501051D01*
X146551018Y-117501656D01*
G37*
%TD.AperFunction*%
%TD*%
%TA.AperFunction,Conductor*%
%TO.N,GND*%
G36*
X156739091Y-104516129D02*
G01*
X156749503Y-104520442D01*
X156789553Y-104560485D01*
X156789556Y-104560492D01*
X156793867Y-104570900D01*
X156799500Y-104599218D01*
X156799500Y-106601281D01*
X156793867Y-106629599D01*
X156789556Y-106640007D01*
X156749508Y-106680055D01*
X156749507Y-106680056D01*
X156739099Y-106684367D01*
X156710781Y-106690000D01*
X156100000Y-106690000D01*
X156100000Y-108089999D01*
X156710781Y-108089999D01*
X156739091Y-108095628D01*
X156749503Y-108099941D01*
X156789552Y-108139983D01*
X156791241Y-108144059D01*
X156793867Y-108150399D01*
X156799500Y-108178717D01*
X156799500Y-112401281D01*
X156793867Y-112429599D01*
X156789556Y-112440007D01*
X156749508Y-112480055D01*
X156749507Y-112480056D01*
X156739099Y-112484367D01*
X156710781Y-112490000D01*
X156100000Y-112490000D01*
X156100000Y-113101281D01*
X156094367Y-113129599D01*
X156090056Y-113140007D01*
X156050008Y-113180055D01*
X156050007Y-113180056D01*
X156039599Y-113184367D01*
X156011281Y-113190000D01*
X155950000Y-113190000D01*
X155950000Y-113251281D01*
X155944367Y-113279599D01*
X155940056Y-113290007D01*
X155900008Y-113330055D01*
X155900007Y-113330056D01*
X155889599Y-113334367D01*
X155861281Y-113340000D01*
X155000001Y-113340000D01*
X155000001Y-113799852D01*
X155005800Y-113829013D01*
X155006357Y-113829846D01*
X155017406Y-113856522D01*
X155019604Y-113867573D01*
X155008554Y-113923122D01*
X155002295Y-113932489D01*
X154981879Y-113952905D01*
X154861949Y-114033039D01*
X154860572Y-114034506D01*
X154724511Y-114170567D01*
X154723039Y-114171948D01*
X154613366Y-114336086D01*
X154537951Y-114518155D01*
X154537949Y-114518161D01*
X154537946Y-114518171D01*
X154522881Y-114593913D01*
X154499500Y-114711459D01*
X154499500Y-114908540D01*
X154507846Y-114950500D01*
X154537945Y-115101825D01*
X154537949Y-115101838D01*
X154537951Y-115101843D01*
X154613365Y-115283910D01*
X154613366Y-115283912D01*
X154613367Y-115283913D01*
X154711114Y-115430201D01*
X154722861Y-115447782D01*
X154862218Y-115587139D01*
X155026086Y-115696632D01*
X155208165Y-115772051D01*
X155401459Y-115810500D01*
X155401461Y-115810500D01*
X155598539Y-115810500D01*
X155598541Y-115810500D01*
X155791835Y-115772051D01*
X155973914Y-115696632D01*
X156137782Y-115587139D01*
X156277139Y-115447782D01*
X156386632Y-115283914D01*
X156462051Y-115101835D01*
X156500500Y-114908541D01*
X156500500Y-114711459D01*
X156462051Y-114518165D01*
X156453396Y-114497271D01*
X156386632Y-114336086D01*
X156277139Y-114172218D01*
X156137781Y-114032860D01*
X156137779Y-114032859D01*
X156134974Y-114030557D01*
X156135390Y-114030049D01*
X156118627Y-114013286D01*
X156114202Y-114006663D01*
X156103154Y-113951114D01*
X156134622Y-113904023D01*
X156134623Y-113904022D01*
X156136949Y-113902468D01*
X156178058Y-113889999D01*
X156710781Y-113889999D01*
X156739091Y-113895628D01*
X156749503Y-113899941D01*
X156789553Y-113939984D01*
X156789556Y-113939991D01*
X156793867Y-113950399D01*
X156799500Y-113978717D01*
X156799500Y-116010781D01*
X156793867Y-116039099D01*
X156789556Y-116049507D01*
X156749508Y-116089555D01*
X156749507Y-116089556D01*
X156739099Y-116093867D01*
X156710781Y-116099500D01*
X151759957Y-116099500D01*
X151707631Y-116077826D01*
X151685957Y-116025500D01*
X151689739Y-116004677D01*
X151689024Y-116004467D01*
X151691368Y-115996482D01*
X151694173Y-115986934D01*
X151698892Y-115965247D01*
X151703917Y-115930303D01*
X151703918Y-115930290D01*
X151705500Y-115908177D01*
X151705500Y-115178963D01*
X151701007Y-115141858D01*
X151701006Y-115141857D01*
X151701006Y-115141850D01*
X151686879Y-115084369D01*
X151686766Y-115083913D01*
X151647766Y-115013499D01*
X151645416Y-115009256D01*
X151647300Y-115008211D01*
X151635365Y-114960277D01*
X151646290Y-114931238D01*
X151671394Y-114892168D01*
X151689768Y-114851932D01*
X151694173Y-114836934D01*
X151698892Y-114815247D01*
X151703917Y-114780303D01*
X151703918Y-114780290D01*
X151705500Y-114758177D01*
X151705500Y-114187298D01*
X151705500Y-114187282D01*
X151704609Y-114170664D01*
X151701777Y-114144316D01*
X151699117Y-114127893D01*
X151697477Y-114120351D01*
X151684588Y-114083803D01*
X151684587Y-114083801D01*
X151684586Y-114083798D01*
X151657148Y-114028968D01*
X151648936Y-114016675D01*
X151635615Y-113996733D01*
X151634423Y-113995357D01*
X151634422Y-113995356D01*
X151634415Y-113995349D01*
X151600992Y-113966378D01*
X151542237Y-113928600D01*
X151542238Y-113928600D01*
X151502010Y-113910215D01*
X151501989Y-113910208D01*
X151487018Y-113905805D01*
X151465334Y-113901080D01*
X151465318Y-113901077D01*
X151430387Y-113896044D01*
X151424608Y-113895629D01*
X151408249Y-113894454D01*
X151408263Y-113894454D01*
X147906329Y-113893360D01*
X147854010Y-113871670D01*
X147845060Y-113860824D01*
X147842150Y-113856522D01*
X147833377Y-113843553D01*
X147833374Y-113843550D01*
X147618611Y-113526075D01*
X147605905Y-113484628D01*
X147605874Y-113334367D01*
X147605720Y-112580151D01*
X155000000Y-112580151D01*
X155000000Y-113040000D01*
X155800000Y-113040000D01*
X155800000Y-112490000D01*
X155090156Y-112490000D01*
X155090152Y-112490000D01*
X155073482Y-112493315D01*
X155060978Y-112495802D01*
X155027910Y-112517896D01*
X155027906Y-112517900D01*
X155027904Y-112517903D01*
X155027902Y-112517904D01*
X155005801Y-112550981D01*
X155005801Y-112550982D01*
X155000000Y-112580151D01*
X147605720Y-112580151D01*
X147605099Y-109532256D01*
X147604129Y-109514942D01*
X147601049Y-109487503D01*
X147598157Y-109470408D01*
X147592155Y-109443982D01*
X147587377Y-109427313D01*
X147578301Y-109401234D01*
X147571698Y-109385200D01*
X147481878Y-109197576D01*
X147262754Y-108739850D01*
X147255500Y-108707897D01*
X147255500Y-108204416D01*
X147255500Y-108204409D01*
X147253725Y-108180983D01*
X147248097Y-108144051D01*
X147242815Y-108121163D01*
X147232925Y-108089464D01*
X147227532Y-108075978D01*
X147223931Y-108066973D01*
X147223929Y-108066969D01*
X147223514Y-108066128D01*
X147206875Y-108032410D01*
X147206868Y-108032398D01*
X147194495Y-108011588D01*
X147194490Y-108011581D01*
X147164286Y-107968771D01*
X147161013Y-107965225D01*
X147153385Y-107957257D01*
X147136719Y-107935375D01*
X147131886Y-107930622D01*
X147121411Y-107922590D01*
X147101646Y-107907433D01*
X147101640Y-107907429D01*
X147049623Y-107876860D01*
X147014665Y-107861728D01*
X147014663Y-107861727D01*
X147014660Y-107861726D01*
X147001167Y-107857763D01*
X147001135Y-107857754D01*
X147000757Y-107857643D01*
X147000757Y-107857642D01*
X147000695Y-107857625D01*
X146994528Y-107855815D01*
X146972867Y-107851104D01*
X146972860Y-107851103D01*
X146972861Y-107851103D01*
X146937930Y-107846081D01*
X146937935Y-107846081D01*
X146915819Y-107844500D01*
X146915807Y-107844500D01*
X146555670Y-107844500D01*
X146555669Y-107844500D01*
X146528012Y-107846980D01*
X146528002Y-107846981D01*
X146527998Y-107846982D01*
X146518895Y-107848628D01*
X146484564Y-107854836D01*
X146457772Y-107862205D01*
X146429168Y-107872902D01*
X146410296Y-107881540D01*
X146353697Y-107883607D01*
X146312212Y-107845048D01*
X146305500Y-107814252D01*
X146305500Y-107311910D01*
X146305498Y-107311057D01*
X146305498Y-107311056D01*
X146305493Y-107310035D01*
X146305493Y-107310026D01*
X146300653Y-107277904D01*
X146298792Y-107265554D01*
X146298791Y-107265550D01*
X146278497Y-107198692D01*
X146259746Y-107158601D01*
X146239795Y-107128169D01*
X146239789Y-107128163D01*
X146236633Y-107124500D01*
X146236762Y-107124388D01*
X146232251Y-107119469D01*
X146211027Y-107091117D01*
X146203681Y-107083771D01*
X146173082Y-107060001D01*
X146173083Y-107060001D01*
X146166882Y-107056322D01*
X146139070Y-107039820D01*
X146120329Y-107028700D01*
X146084793Y-107013232D01*
X146084783Y-107013229D01*
X146059564Y-107005824D01*
X146059558Y-107005822D01*
X146059553Y-107005821D01*
X146053856Y-107004581D01*
X146037876Y-107001105D01*
X146037845Y-107001100D01*
X146002942Y-106996083D01*
X146002923Y-106996081D01*
X145980818Y-106994500D01*
X145980808Y-106994500D01*
X145618407Y-106994500D01*
X145610742Y-106994689D01*
X145610722Y-106994689D01*
X145610721Y-106994690D01*
X145598537Y-106995291D01*
X145590843Y-106995861D01*
X145578747Y-106997058D01*
X145571088Y-106998009D01*
X145559007Y-106999811D01*
X145551450Y-107001129D01*
X145479160Y-107015587D01*
X145468877Y-107019070D01*
X145441218Y-107028438D01*
X145441215Y-107028438D01*
X145441213Y-107028440D01*
X145384326Y-107056322D01*
X145384325Y-107056322D01*
X145350926Y-107078438D01*
X145350921Y-107078442D01*
X145345366Y-107083256D01*
X145345358Y-107083264D01*
X145316382Y-107116706D01*
X145278609Y-107175485D01*
X145278607Y-107175487D01*
X145260226Y-107215737D01*
X145260221Y-107215753D01*
X145255826Y-107230718D01*
X145255824Y-107230727D01*
X145251106Y-107252415D01*
X145246082Y-107287357D01*
X145244500Y-107309475D01*
X145244500Y-107843829D01*
X145247206Y-107872700D01*
X145255764Y-107917970D01*
X145263790Y-107945850D01*
X145263793Y-107945859D01*
X145274706Y-107973689D01*
X145274711Y-107973702D01*
X145284266Y-107993731D01*
X145301694Y-108024418D01*
X145304761Y-108029019D01*
X145314001Y-108042881D01*
X145389256Y-108139984D01*
X145407857Y-108163985D01*
X145418648Y-108183315D01*
X145419374Y-108185250D01*
X145422172Y-108194186D01*
X145430295Y-108214834D01*
X145431135Y-108216591D01*
X145432272Y-108219619D01*
X145432253Y-108220163D01*
X145434028Y-108224893D01*
X145434431Y-108226277D01*
X145434434Y-108226284D01*
X145438608Y-108235473D01*
X145438612Y-108235481D01*
X145438613Y-108235482D01*
X145449176Y-108254467D01*
X145457087Y-108275999D01*
X145458577Y-108283486D01*
X145460000Y-108297930D01*
X145460000Y-108502070D01*
X145458577Y-108516510D01*
X145456669Y-108526100D01*
X145448563Y-108547985D01*
X145444377Y-108555413D01*
X145444376Y-108555415D01*
X145428497Y-108589376D01*
X145420169Y-108611405D01*
X145420157Y-108611438D01*
X145410822Y-108643230D01*
X145407863Y-108656835D01*
X145406459Y-108663293D01*
X145406106Y-108664914D01*
X145406104Y-108664923D01*
X145401083Y-108699847D01*
X145400492Y-108708102D01*
X145378634Y-108755513D01*
X145135139Y-108995576D01*
X145110853Y-109026501D01*
X145078938Y-109079863D01*
X145063189Y-109115871D01*
X145058602Y-109131495D01*
X145055821Y-109140965D01*
X145054058Y-109149069D01*
X145051106Y-109162641D01*
X145046082Y-109197579D01*
X145044500Y-109219698D01*
X145044500Y-114016675D01*
X145049110Y-114054253D01*
X145049113Y-114054270D01*
X145063603Y-114112433D01*
X145077160Y-114147780D01*
X145077163Y-114147785D01*
X145089623Y-114171242D01*
X145093010Y-114176649D01*
X145101402Y-114190044D01*
X145119594Y-114214937D01*
X145122227Y-114218540D01*
X145136564Y-114235476D01*
X146304135Y-115430200D01*
X146835359Y-115973779D01*
X146856430Y-116026351D01*
X146834156Y-116078424D01*
X146782435Y-116099500D01*
X145105393Y-116099500D01*
X145100317Y-116100000D01*
X142174000Y-116100000D01*
X142121674Y-116078326D01*
X142100000Y-116026000D01*
X142100000Y-114975631D01*
X142095557Y-114964905D01*
X142117231Y-114912579D01*
X142128439Y-114903381D01*
X142137782Y-114897139D01*
X142277139Y-114757782D01*
X142386632Y-114593914D01*
X142462051Y-114411835D01*
X142500500Y-114218541D01*
X142500500Y-114218535D01*
X142500857Y-114214920D01*
X142501033Y-114214937D01*
X142501819Y-114207121D01*
X142501746Y-114207110D01*
X142501965Y-114205671D01*
X142501984Y-114205489D01*
X142502019Y-114205319D01*
X142637530Y-112886915D01*
X142658813Y-112842160D01*
X142976786Y-112524190D01*
X143700476Y-111800500D01*
X144245409Y-111255568D01*
X144280501Y-111170849D01*
X144280501Y-111079150D01*
X144280501Y-111073192D01*
X144280501Y-111071873D01*
X144280500Y-111071844D01*
X144280500Y-108968349D01*
X144286131Y-108940035D01*
X144294563Y-108919677D01*
X144321820Y-108886468D01*
X144326748Y-108883175D01*
X144331027Y-108880689D01*
X144334719Y-108877848D01*
X144345003Y-108870976D01*
X144346307Y-108857734D01*
X144350034Y-108851516D01*
X144385966Y-108797740D01*
X144400500Y-108724674D01*
X144400500Y-108415326D01*
X144385966Y-108342260D01*
X144385965Y-108342259D01*
X144385207Y-108338446D01*
X144396256Y-108282897D01*
X144407360Y-108269849D01*
X144421363Y-108256815D01*
X144429133Y-108248010D01*
X144434444Y-108240766D01*
X144445726Y-108225379D01*
X144445726Y-108225377D01*
X144445731Y-108225372D01*
X144459463Y-108202581D01*
X144471721Y-108177326D01*
X144480667Y-108153666D01*
X144488184Y-108126625D01*
X144492967Y-108100453D01*
X144495500Y-108072498D01*
X144495500Y-107708362D01*
X144493822Y-107685582D01*
X144490646Y-107664136D01*
X144485650Y-107641850D01*
X144479572Y-107621778D01*
X144471369Y-107600471D01*
X144462117Y-107580869D01*
X144450878Y-107560986D01*
X144366966Y-107435118D01*
X144336291Y-107401221D01*
X144336289Y-107401220D01*
X144336288Y-107401218D01*
X144318483Y-107386591D01*
X144303037Y-107373902D01*
X144279068Y-107359527D01*
X144263840Y-107350394D01*
X144263831Y-107350389D01*
X144243515Y-107341974D01*
X144243486Y-107341964D01*
X144214336Y-107333121D01*
X144214321Y-107333117D01*
X144186014Y-107327487D01*
X144158664Y-107324794D01*
X144155677Y-107324500D01*
X144155676Y-107324500D01*
X142759306Y-107324500D01*
X142739189Y-107325807D01*
X142739162Y-107325810D01*
X142720214Y-107328284D01*
X142720198Y-107328286D01*
X142720193Y-107328287D01*
X142720191Y-107328287D01*
X142720180Y-107328289D01*
X142700420Y-107332185D01*
X142700413Y-107332187D01*
X142682390Y-107336972D01*
X142682348Y-107336985D01*
X142663266Y-107343402D01*
X142663229Y-107343416D01*
X142645546Y-107350670D01*
X142627409Y-107359525D01*
X141454514Y-108029750D01*
X141428126Y-108038776D01*
X141422988Y-108039500D01*
X141401459Y-108039500D01*
X141351186Y-108049500D01*
X141349149Y-108049905D01*
X141349136Y-108049907D01*
X141208171Y-108077946D01*
X141208161Y-108077949D01*
X141208155Y-108077951D01*
X141026086Y-108153366D01*
X140861948Y-108263039D01*
X140860567Y-108264511D01*
X140724511Y-108400567D01*
X140723039Y-108401948D01*
X140613367Y-108566085D01*
X140598000Y-108603186D01*
X140581964Y-108627189D01*
X140576331Y-108632823D01*
X140524007Y-108654502D01*
X140471679Y-108632833D01*
X140450000Y-108580509D01*
X140450000Y-105979272D01*
X147544500Y-105979272D01*
X147544500Y-108436195D01*
X147547288Y-108465505D01*
X147554010Y-108500514D01*
X147555708Y-108509360D01*
X147556105Y-108511425D01*
X147556106Y-108511430D01*
X147586442Y-108578049D01*
X147586444Y-108578052D01*
X147629549Y-108633031D01*
X147629554Y-108633036D01*
X147643854Y-108646711D01*
X147661543Y-108663626D01*
X147927301Y-108853453D01*
X147930458Y-108855650D01*
X147930482Y-108855666D01*
X147930496Y-108855676D01*
X147935466Y-108859045D01*
X147970411Y-108875520D01*
X147978887Y-108879516D01*
X148045926Y-108899201D01*
X148089737Y-108905500D01*
X148748620Y-108905500D01*
X148748638Y-108905500D01*
X148765261Y-108904609D01*
X148791619Y-108901775D01*
X148840513Y-108886465D01*
X148849510Y-108883648D01*
X148849511Y-108883647D01*
X148849519Y-108883645D01*
X148894565Y-108859048D01*
X148910837Y-108850163D01*
X148910838Y-108850162D01*
X148910842Y-108850160D01*
X148946274Y-108823636D01*
X148973636Y-108796274D01*
X148984761Y-108783889D01*
X149001395Y-108763247D01*
X149029516Y-108709488D01*
X149049201Y-108642449D01*
X149055500Y-108598638D01*
X149055500Y-108160128D01*
X149077174Y-108107802D01*
X149129500Y-108086128D01*
X149181826Y-108107802D01*
X149257418Y-108183394D01*
X149273457Y-108207397D01*
X149283868Y-108232531D01*
X149289500Y-108260846D01*
X149289500Y-108563372D01*
X149292317Y-108587659D01*
X149292317Y-108587661D01*
X149292318Y-108587662D01*
X149336187Y-108687016D01*
X149412984Y-108763813D01*
X149461926Y-108785422D01*
X149485555Y-108802012D01*
X149499021Y-108816115D01*
X149519500Y-108867218D01*
X149519500Y-109946844D01*
X149519499Y-109946873D01*
X149519499Y-110045849D01*
X149528245Y-110066962D01*
X149528250Y-110066976D01*
X149554589Y-110130565D01*
X149554593Y-110130570D01*
X149634054Y-110210031D01*
X149634060Y-110210036D01*
X149787418Y-110363394D01*
X149803457Y-110387397D01*
X149813868Y-110412531D01*
X149819500Y-110440846D01*
X149819500Y-110908736D01*
X149813867Y-110937052D01*
X149804668Y-110959264D01*
X149803459Y-110962182D01*
X149787418Y-110986188D01*
X149729518Y-111044087D01*
X149676795Y-111135406D01*
X149676793Y-111135411D01*
X149676792Y-111135413D01*
X149676791Y-111135417D01*
X149649500Y-111237270D01*
X149649500Y-111342729D01*
X149670961Y-111422823D01*
X149676791Y-111444582D01*
X149676798Y-111444597D01*
X149682861Y-111455098D01*
X149682862Y-111455099D01*
X149729520Y-111535913D01*
X149804087Y-111610480D01*
X149895413Y-111663207D01*
X149992589Y-111689244D01*
X149996287Y-111690500D01*
X150102729Y-111690500D01*
X150112992Y-111690500D01*
X150121880Y-111685367D01*
X150204587Y-111663207D01*
X150295913Y-111610480D01*
X150370480Y-111535913D01*
X150423207Y-111444587D01*
X150445367Y-111361880D01*
X150450500Y-111352991D01*
X150450500Y-111236286D01*
X150449244Y-111232589D01*
X150423357Y-111135976D01*
X150423220Y-111135446D01*
X150423208Y-111135415D01*
X150423203Y-111135406D01*
X150370480Y-111044087D01*
X150312581Y-110986188D01*
X150296541Y-110962182D01*
X150286131Y-110937050D01*
X150280500Y-110908736D01*
X150280500Y-110254152D01*
X150280390Y-110253688D01*
X150279504Y-110251747D01*
X150245410Y-110169434D01*
X150245408Y-110169431D01*
X150176353Y-110100376D01*
X150176346Y-110100370D01*
X150012581Y-109936605D01*
X149996541Y-109912599D01*
X149986131Y-109887467D01*
X149980500Y-109859153D01*
X149980500Y-108873780D01*
X149986133Y-108845462D01*
X149993594Y-108827448D01*
X150032071Y-108788072D01*
X150087016Y-108763813D01*
X150159838Y-108690990D01*
X150171749Y-108681329D01*
X150183456Y-108673700D01*
X150239128Y-108663293D01*
X150285843Y-108695284D01*
X150287488Y-108697807D01*
X150299500Y-108738223D01*
X150299500Y-108814819D01*
X150299758Y-108816115D01*
X150308232Y-108858720D01*
X150308233Y-108858722D01*
X150330534Y-108892100D01*
X150330535Y-108892100D01*
X150330536Y-108892102D01*
X150341496Y-108908504D01*
X150391278Y-108941767D01*
X150435180Y-108950500D01*
X150680781Y-108950500D01*
X150709091Y-108956129D01*
X150719503Y-108960442D01*
X150759552Y-109000484D01*
X150762204Y-109006885D01*
X150763867Y-109010900D01*
X150769500Y-109039218D01*
X150769500Y-109698178D01*
X150769499Y-109698192D01*
X150769499Y-109704150D01*
X150769499Y-109795850D01*
X150778318Y-109817139D01*
X150782025Y-109826089D01*
X150782029Y-109826101D01*
X150804587Y-109880561D01*
X150804589Y-109880565D01*
X150804593Y-109880570D01*
X150884054Y-109960031D01*
X150884060Y-109960036D01*
X152938509Y-112014485D01*
X152938516Y-112014493D01*
X152940373Y-112016350D01*
X153009431Y-112085408D01*
X153009434Y-112085410D01*
X153009436Y-112085411D01*
X153009438Y-112085412D01*
X153037783Y-112097152D01*
X153037789Y-112097155D01*
X153044521Y-112099943D01*
X153044522Y-112099944D01*
X153094150Y-112120501D01*
X153094151Y-112120501D01*
X153194461Y-112120501D01*
X153196746Y-112120501D01*
X153196778Y-112120500D01*
X153267224Y-112120500D01*
X153295538Y-112126131D01*
X153309806Y-112132041D01*
X153346751Y-112165526D01*
X153349347Y-112170383D01*
X153356661Y-112190825D01*
X153358231Y-112198718D01*
X153358232Y-112198721D01*
X153370968Y-112217781D01*
X153391496Y-112248504D01*
X153441278Y-112281767D01*
X153485180Y-112290500D01*
X153485181Y-112290500D01*
X154514819Y-112290500D01*
X154514820Y-112290500D01*
X154558722Y-112281767D01*
X154608504Y-112248504D01*
X154641767Y-112198722D01*
X154650500Y-112154820D01*
X154650500Y-111625180D01*
X154641767Y-111581278D01*
X154616424Y-111543349D01*
X154605375Y-111516675D01*
X154602941Y-111504438D01*
X154601623Y-111497811D01*
X154612671Y-111442266D01*
X154641767Y-111398722D01*
X154650500Y-111354820D01*
X154650500Y-110825180D01*
X154641767Y-110781278D01*
X154608504Y-110731496D01*
X154608500Y-110731493D01*
X154601942Y-110727111D01*
X154601941Y-110727110D01*
X154581533Y-110706702D01*
X154578625Y-110702350D01*
X154575272Y-110697333D01*
X154564219Y-110641788D01*
X154566419Y-110630726D01*
X154577468Y-110604055D01*
X154594198Y-110579017D01*
X154600000Y-110549848D01*
X154600000Y-110440000D01*
X153400001Y-110440000D01*
X153400001Y-110549848D01*
X153405801Y-110579016D01*
X153405802Y-110579018D01*
X153422532Y-110604056D01*
X153433582Y-110630736D01*
X153435779Y-110641785D01*
X153424729Y-110697328D01*
X153418471Y-110706694D01*
X153398055Y-110727111D01*
X153391501Y-110731490D01*
X153391498Y-110731492D01*
X153391496Y-110731495D01*
X153391494Y-110731496D01*
X153358232Y-110781277D01*
X153357391Y-110785507D01*
X153346341Y-110812178D01*
X153337926Y-110824771D01*
X153290833Y-110856236D01*
X153248082Y-110852025D01*
X153241447Y-110849277D01*
X153227401Y-110843459D01*
X153203394Y-110827418D01*
X151862581Y-109486605D01*
X151846541Y-109462599D01*
X151836131Y-109437467D01*
X151830500Y-109409153D01*
X151830500Y-109039218D01*
X151836129Y-109010909D01*
X151840443Y-109000494D01*
X151880482Y-108960448D01*
X151890911Y-108956128D01*
X151919219Y-108950500D01*
X152164819Y-108950500D01*
X152164820Y-108950500D01*
X152208722Y-108941767D01*
X152258504Y-108908504D01*
X152291767Y-108858722D01*
X152300500Y-108814820D01*
X152300500Y-108678597D01*
X152306129Y-108650288D01*
X152310443Y-108639873D01*
X152350482Y-108599827D01*
X152356135Y-108597485D01*
X152398879Y-108593279D01*
X152425679Y-108598610D01*
X152452211Y-108609564D01*
X152462092Y-108616133D01*
X152461774Y-108616610D01*
X152492265Y-108653695D01*
X152495170Y-108661810D01*
X152499500Y-108686751D01*
X152499500Y-109039566D01*
X152519976Y-109115983D01*
X152519976Y-109115984D01*
X152519977Y-109115987D01*
X152519978Y-109115989D01*
X152519979Y-109115990D01*
X152528710Y-109131112D01*
X152553993Y-109174903D01*
X152559540Y-109184511D01*
X153105489Y-109730460D01*
X153105491Y-109730461D01*
X153105492Y-109730462D01*
X153105494Y-109730463D01*
X153105905Y-109730760D01*
X153107403Y-109731566D01*
X153153651Y-109758267D01*
X153153653Y-109758268D01*
X153174012Y-109770022D01*
X153250438Y-109790500D01*
X153298466Y-109790500D01*
X153326780Y-109796131D01*
X153347136Y-109804563D01*
X153380345Y-109831816D01*
X153391495Y-109848503D01*
X153391496Y-109848504D01*
X153402086Y-109855580D01*
X153429015Y-109888017D01*
X153429456Y-109889049D01*
X153430119Y-109890736D01*
X153430281Y-109890979D01*
X153431574Y-109894002D01*
X153431863Y-109919493D01*
X153433596Y-109938864D01*
X153435571Y-109939257D01*
X153433580Y-109949267D01*
X153422531Y-109975942D01*
X153405801Y-110000979D01*
X153401450Y-110022858D01*
X153400000Y-110030151D01*
X153400000Y-110140000D01*
X154599999Y-110140000D01*
X154599999Y-110030146D01*
X154594198Y-110000982D01*
X154577467Y-109975943D01*
X154566417Y-109949266D01*
X154564219Y-109938212D01*
X154575269Y-109882670D01*
X154581527Y-109873304D01*
X154601944Y-109852886D01*
X154608504Y-109848504D01*
X154641767Y-109798722D01*
X154650500Y-109754820D01*
X154650500Y-109225180D01*
X154641767Y-109181278D01*
X154616424Y-109143349D01*
X154605375Y-109116675D01*
X154605239Y-109115989D01*
X154601623Y-109097811D01*
X154612672Y-109042265D01*
X154614477Y-109039564D01*
X154641767Y-108998722D01*
X154650500Y-108954820D01*
X154650500Y-108425180D01*
X154641767Y-108381278D01*
X154608504Y-108331496D01*
X154585068Y-108315837D01*
X154585067Y-108315835D01*
X154585067Y-108315836D01*
X154558723Y-108298233D01*
X154548316Y-108296163D01*
X154544777Y-108295459D01*
X154514820Y-108289500D01*
X154514819Y-108289500D01*
X153728842Y-108289500D01*
X153700522Y-108283866D01*
X153693159Y-108280816D01*
X153653114Y-108240766D01*
X153653114Y-108184136D01*
X153656165Y-108176769D01*
X153672201Y-108152769D01*
X153799971Y-108025000D01*
X153825125Y-107999846D01*
X155000001Y-107999846D01*
X155005802Y-108029019D01*
X155027898Y-108062090D01*
X155027901Y-108062093D01*
X155027904Y-108062096D01*
X155060982Y-108084198D01*
X155090151Y-108089999D01*
X155800000Y-108089999D01*
X155800000Y-107540000D01*
X155000001Y-107540000D01*
X155000001Y-107999846D01*
X153825125Y-107999846D01*
X153940460Y-107884511D01*
X153966411Y-107839562D01*
X153980021Y-107815989D01*
X153996240Y-107755456D01*
X153997405Y-107752295D01*
X154000500Y-107748943D01*
X154000500Y-106859449D01*
X153999244Y-106855749D01*
X153983145Y-106795669D01*
X153983145Y-106795667D01*
X153983144Y-106795666D01*
X153980623Y-106786256D01*
X153980625Y-106786255D01*
X153980620Y-106786246D01*
X153980022Y-106784014D01*
X153980021Y-106784013D01*
X153980021Y-106784011D01*
X153977794Y-106780155D01*
X153977794Y-106780151D01*
X155000000Y-106780151D01*
X155000000Y-107240000D01*
X155800000Y-107240000D01*
X155800000Y-106690000D01*
X155090156Y-106690000D01*
X155090152Y-106690000D01*
X155073482Y-106693315D01*
X155060978Y-106695802D01*
X155027910Y-106717896D01*
X155027906Y-106717900D01*
X155027904Y-106717903D01*
X155027902Y-106717904D01*
X155005801Y-106750981D01*
X155005801Y-106750982D01*
X155000000Y-106780151D01*
X153977794Y-106780151D01*
X153977793Y-106780152D01*
X153963925Y-106756132D01*
X153960952Y-106750982D01*
X153940460Y-106715489D01*
X153912654Y-106687683D01*
X153884511Y-106659539D01*
X153884511Y-106659540D01*
X153519871Y-106294900D01*
X153503831Y-106270894D01*
X153499520Y-106260487D01*
X153499518Y-106203852D01*
X153501853Y-106198214D01*
X153529107Y-106165006D01*
X153580601Y-106130601D01*
X153587077Y-106120907D01*
X153615737Y-106095719D01*
X153620750Y-106093233D01*
X153623652Y-106092306D01*
X153626618Y-106090323D01*
X153630898Y-106088202D01*
X153640528Y-106087549D01*
X153663769Y-106080500D01*
X153668737Y-106080500D01*
X153697052Y-106086131D01*
X153722181Y-106096540D01*
X153746187Y-106112580D01*
X153804087Y-106170480D01*
X153895413Y-106223207D01*
X153992589Y-106249244D01*
X153996287Y-106250500D01*
X154102729Y-106250500D01*
X154112992Y-106250500D01*
X154121880Y-106245367D01*
X154204587Y-106223207D01*
X154295913Y-106170480D01*
X154370480Y-106095913D01*
X154423207Y-106004587D01*
X154445367Y-105921880D01*
X154450500Y-105912991D01*
X154450500Y-105796285D01*
X154449242Y-105792579D01*
X154444619Y-105775326D01*
X154444618Y-105775325D01*
X154442137Y-105766065D01*
X154423207Y-105695413D01*
X154370480Y-105604087D01*
X154295913Y-105529520D01*
X154269092Y-105514035D01*
X154204591Y-105476795D01*
X154204584Y-105476792D01*
X154204585Y-105476792D01*
X154204583Y-105476791D01*
X154204582Y-105476791D01*
X154102729Y-105449500D01*
X154102728Y-105449500D01*
X153997272Y-105449500D01*
X153997271Y-105449500D01*
X153945383Y-105463403D01*
X153895413Y-105476792D01*
X153895411Y-105476793D01*
X153895406Y-105476795D01*
X153843495Y-105506767D01*
X153804086Y-105529520D01*
X153804085Y-105529520D01*
X153804085Y-105529521D01*
X153785398Y-105548209D01*
X153785396Y-105548211D01*
X153746189Y-105587417D01*
X153722186Y-105603456D01*
X153697058Y-105613866D01*
X153668736Y-105619500D01*
X153668350Y-105619500D01*
X153640033Y-105613867D01*
X153619678Y-105605436D01*
X153586469Y-105578180D01*
X153580604Y-105569403D01*
X153580603Y-105569401D01*
X153580601Y-105569399D01*
X153580596Y-105569395D01*
X153545626Y-105546028D01*
X153525212Y-105525614D01*
X153518652Y-105515797D01*
X153507600Y-105460249D01*
X153511811Y-105446368D01*
X153514561Y-105439728D01*
X153541818Y-105406514D01*
X153553788Y-105398515D01*
X153580601Y-105380601D01*
X153635966Y-105297740D01*
X153650500Y-105224674D01*
X153650500Y-104975326D01*
X153635966Y-104902260D01*
X153580601Y-104819399D01*
X153557955Y-104804268D01*
X153497740Y-104764034D01*
X153424674Y-104749500D01*
X153424672Y-104749500D01*
X153115326Y-104749500D01*
X153066615Y-104759188D01*
X153066615Y-104759189D01*
X153054437Y-104761611D01*
X153042258Y-104764034D01*
X152959398Y-104819398D01*
X152904033Y-104902260D01*
X152902971Y-104905762D01*
X152902612Y-104909407D01*
X152889500Y-104975326D01*
X152889500Y-105224674D01*
X152898476Y-105269799D01*
X152904034Y-105297741D01*
X152940773Y-105352726D01*
X152959398Y-105380600D01*
X152959402Y-105380604D01*
X152994373Y-105403970D01*
X153014788Y-105424383D01*
X153021347Y-105434198D01*
X153032400Y-105489746D01*
X153028185Y-105503641D01*
X153026528Y-105507640D01*
X152986474Y-105547683D01*
X152972599Y-105551891D01*
X152957810Y-105554833D01*
X152902265Y-105543783D01*
X152857741Y-105514034D01*
X152833384Y-105509189D01*
X152784674Y-105499500D01*
X152784672Y-105499500D01*
X152475327Y-105499500D01*
X152475326Y-105499500D01*
X152468796Y-105500799D01*
X152442084Y-105506112D01*
X152442080Y-105506113D01*
X152438793Y-105506767D01*
X152402258Y-105514034D01*
X152402256Y-105514035D01*
X152392004Y-105520884D01*
X152381198Y-105524072D01*
X152379099Y-105523849D01*
X152374692Y-105525674D01*
X152366881Y-105527227D01*
X152311333Y-105516173D01*
X152279873Y-105469084D01*
X152278743Y-105463403D01*
X152279842Y-105429817D01*
X152295367Y-105371881D01*
X152300500Y-105362991D01*
X152300500Y-105246286D01*
X152299244Y-105242589D01*
X152273357Y-105145976D01*
X152273220Y-105145446D01*
X152273208Y-105145415D01*
X152273203Y-105145406D01*
X152220480Y-105054087D01*
X152145913Y-104979520D01*
X152145911Y-104979518D01*
X152054592Y-104926795D01*
X152054587Y-104926793D01*
X152054585Y-104926792D01*
X152054583Y-104926791D01*
X152054582Y-104926791D01*
X151952729Y-104899500D01*
X151952728Y-104899500D01*
X151847272Y-104899500D01*
X151847271Y-104899500D01*
X151810297Y-104909407D01*
X151745413Y-104926792D01*
X151745411Y-104926793D01*
X151745406Y-104926795D01*
X151654088Y-104979518D01*
X151579518Y-105054088D01*
X151526795Y-105145406D01*
X151526793Y-105145411D01*
X151526790Y-105145417D01*
X151526790Y-105145419D01*
X151502572Y-105235799D01*
X151499462Y-105244963D01*
X151483458Y-105283602D01*
X151467417Y-105307610D01*
X151434539Y-105340488D01*
X151394977Y-105409010D01*
X151394977Y-105409011D01*
X151394976Y-105409014D01*
X151394976Y-105409015D01*
X151374500Y-105485432D01*
X151374500Y-105585546D01*
X151368865Y-105613870D01*
X151364673Y-105623988D01*
X151324621Y-105664033D01*
X151274829Y-105666478D01*
X151252627Y-105659744D01*
X151245562Y-105660616D01*
X151238390Y-105659190D01*
X151238385Y-105659189D01*
X151189674Y-105649500D01*
X150880326Y-105649500D01*
X150831614Y-105659188D01*
X150831615Y-105659189D01*
X150807258Y-105664034D01*
X150781969Y-105680931D01*
X150762342Y-105690214D01*
X150742239Y-105696313D01*
X150720755Y-105699500D01*
X150100438Y-105699500D01*
X150055142Y-105711636D01*
X150035991Y-105714157D01*
X150017172Y-105714157D01*
X149998015Y-105711634D01*
X149988734Y-105709146D01*
X149988734Y-105709147D01*
X149952727Y-105699500D01*
X149847273Y-105699500D01*
X149847271Y-105699500D01*
X149801978Y-105711636D01*
X149745413Y-105726792D01*
X149745411Y-105726793D01*
X149745406Y-105726795D01*
X149654088Y-105779518D01*
X149579518Y-105854088D01*
X149526795Y-105945406D01*
X149526793Y-105945411D01*
X149526792Y-105945413D01*
X149526791Y-105945417D01*
X149499500Y-106047270D01*
X149499500Y-106152729D01*
X149526791Y-106254582D01*
X149526792Y-106254585D01*
X149526793Y-106254587D01*
X149526795Y-106254592D01*
X149537805Y-106273661D01*
X149579517Y-106345909D01*
X149579518Y-106345910D01*
X149579520Y-106345913D01*
X149654087Y-106420480D01*
X149745413Y-106473207D01*
X149847270Y-106500499D01*
X149847271Y-106500500D01*
X149893138Y-106500500D01*
X149895196Y-106500615D01*
X149897695Y-106501817D01*
X149919378Y-106506129D01*
X149929790Y-106510442D01*
X149942941Y-106523590D01*
X149946231Y-106525174D01*
X149947150Y-106527799D01*
X149969839Y-106550484D01*
X149971760Y-106555121D01*
X149974936Y-106602344D01*
X149974899Y-106602484D01*
X149974833Y-106602730D01*
X149949500Y-106697268D01*
X149949500Y-106697270D01*
X149949500Y-106802729D01*
X149967654Y-106870480D01*
X149976792Y-106904585D01*
X149976793Y-106904587D01*
X149976795Y-106904592D01*
X149987543Y-106923207D01*
X150029088Y-106995166D01*
X150029520Y-106995913D01*
X150104087Y-107070480D01*
X150195413Y-107123207D01*
X150292589Y-107149244D01*
X150296287Y-107150500D01*
X150402729Y-107150500D01*
X150412992Y-107150500D01*
X150421880Y-107145367D01*
X150504587Y-107123207D01*
X150585646Y-107076407D01*
X150594318Y-107072131D01*
X150601129Y-107069309D01*
X150601130Y-107069311D01*
X150632949Y-107056131D01*
X150661263Y-107050500D01*
X151184672Y-107050500D01*
X151184674Y-107050500D01*
X151257740Y-107035966D01*
X151296651Y-107009966D01*
X151323325Y-106998917D01*
X151342187Y-106995166D01*
X151397732Y-107006214D01*
X151442260Y-107035966D01*
X151515326Y-107050500D01*
X151515328Y-107050500D01*
X151824672Y-107050500D01*
X151824674Y-107050500D01*
X151897740Y-107035966D01*
X151897741Y-107035965D01*
X151897742Y-107035965D01*
X151923026Y-107019070D01*
X151942662Y-107009783D01*
X151962764Y-107003686D01*
X151984242Y-107000500D01*
X152199827Y-107000500D01*
X152208715Y-106995367D01*
X152265989Y-106980021D01*
X152291513Y-106965283D01*
X152309362Y-106957891D01*
X152327540Y-106953021D01*
X152346690Y-106950500D01*
X152362992Y-106950500D01*
X152371880Y-106945367D01*
X152454587Y-106923207D01*
X152545913Y-106870480D01*
X152620480Y-106795913D01*
X152666759Y-106715754D01*
X152685797Y-106694047D01*
X152694735Y-106687189D01*
X152749431Y-106672530D01*
X152750970Y-106672732D01*
X152754519Y-106673199D01*
X152789918Y-106687859D01*
X152793303Y-106690456D01*
X152793307Y-106690460D01*
X152861829Y-106730021D01*
X152861830Y-106730021D01*
X152861832Y-106730022D01*
X152900042Y-106740260D01*
X152933566Y-106749243D01*
X152937269Y-106750500D01*
X152938254Y-106750500D01*
X152938256Y-106750500D01*
X153017380Y-106750500D01*
X153080158Y-106750500D01*
X153108472Y-106756131D01*
X153133604Y-106766541D01*
X153157610Y-106782581D01*
X153367418Y-106992389D01*
X153383457Y-107016392D01*
X153393868Y-107041526D01*
X153399500Y-107069841D01*
X153399500Y-107530157D01*
X153393867Y-107558473D01*
X153384586Y-107580882D01*
X153383459Y-107583603D01*
X153367418Y-107607609D01*
X153332109Y-107642918D01*
X153308103Y-107658958D01*
X153282973Y-107669367D01*
X153254657Y-107675000D01*
X152341584Y-107675000D01*
X152331940Y-107678995D01*
X152275303Y-107678993D01*
X152269666Y-107676658D01*
X152236461Y-107649404D01*
X152222095Y-107627903D01*
X152189017Y-107605801D01*
X152159848Y-107600000D01*
X152159847Y-107600000D01*
X151925000Y-107600000D01*
X151925000Y-107811281D01*
X151919367Y-107839599D01*
X151915056Y-107850007D01*
X151875008Y-107890055D01*
X151875007Y-107890056D01*
X151864599Y-107894367D01*
X151836281Y-107900000D01*
X151800000Y-107900000D01*
X151800000Y-107936281D01*
X151794367Y-107964599D01*
X151790056Y-107975007D01*
X151750008Y-108015055D01*
X151750007Y-108015056D01*
X151739599Y-108019367D01*
X151711281Y-108025000D01*
X151346709Y-108025000D01*
X151328315Y-108032619D01*
X151271678Y-108032617D01*
X151271677Y-108032616D01*
X151264671Y-108025609D01*
X151260440Y-108026422D01*
X151253292Y-108025000D01*
X151253291Y-108025000D01*
X150350001Y-108025000D01*
X150350001Y-108109848D01*
X150355801Y-108139016D01*
X150355802Y-108139018D01*
X150363407Y-108150399D01*
X150372484Y-108163985D01*
X150372532Y-108164056D01*
X150383580Y-108190730D01*
X150385936Y-108202574D01*
X150386040Y-108203093D01*
X150376236Y-108256714D01*
X150372276Y-108263058D01*
X150350616Y-108285401D01*
X150335440Y-108295542D01*
X150334503Y-108294140D01*
X150311341Y-108307458D01*
X150306735Y-108308676D01*
X150250607Y-108301099D01*
X150219447Y-108265445D01*
X150216126Y-108257428D01*
X150210499Y-108229121D01*
X150210499Y-108196627D01*
X150208175Y-108176589D01*
X150208022Y-108173955D01*
X150207682Y-108172340D01*
X150207682Y-108172338D01*
X150163813Y-108072984D01*
X150087016Y-107996187D01*
X150034612Y-107973048D01*
X150018203Y-107955863D01*
X149987662Y-107952318D01*
X149987663Y-107952318D01*
X149982804Y-107951754D01*
X149982801Y-107951753D01*
X149963373Y-107949500D01*
X149963369Y-107949500D01*
X149720847Y-107949500D01*
X149692529Y-107943867D01*
X149667400Y-107933458D01*
X149643394Y-107917418D01*
X149416127Y-107690151D01*
X150350000Y-107690151D01*
X150350000Y-107775000D01*
X150675000Y-107775000D01*
X150925000Y-107775000D01*
X151253286Y-107775000D01*
X151253287Y-107775000D01*
X151271677Y-107767381D01*
X151328315Y-107767380D01*
X151346713Y-107775000D01*
X151675000Y-107775000D01*
X151675000Y-107600000D01*
X151440156Y-107600000D01*
X151440152Y-107600000D01*
X151423482Y-107603315D01*
X151410978Y-107605802D01*
X151377910Y-107627896D01*
X151377906Y-107627900D01*
X151377903Y-107627904D01*
X151377898Y-107627909D01*
X151369702Y-107640175D01*
X151349286Y-107660589D01*
X151339918Y-107666848D01*
X151284369Y-107677896D01*
X151284364Y-107677895D01*
X151281128Y-107677251D01*
X151234041Y-107645783D01*
X151222095Y-107627903D01*
X151189017Y-107605801D01*
X151159848Y-107600000D01*
X151159847Y-107600000D01*
X150925000Y-107600000D01*
X150925000Y-107775000D01*
X150675000Y-107775000D01*
X150675000Y-107600000D01*
X150440156Y-107600000D01*
X150440152Y-107600000D01*
X150423482Y-107603315D01*
X150410978Y-107605802D01*
X150377910Y-107627896D01*
X150377906Y-107627900D01*
X150377904Y-107627903D01*
X150377902Y-107627904D01*
X150355801Y-107660981D01*
X150355801Y-107660982D01*
X150350000Y-107690151D01*
X149416127Y-107690151D01*
X149066127Y-107340151D01*
X152350000Y-107340151D01*
X152350000Y-107425000D01*
X152675000Y-107425000D01*
X152925000Y-107425000D01*
X153249999Y-107425000D01*
X153249999Y-107340151D01*
X153244197Y-107310981D01*
X153244196Y-107310980D01*
X153244196Y-107310978D01*
X153222102Y-107277910D01*
X153222094Y-107277902D01*
X153189017Y-107255801D01*
X153171991Y-107252415D01*
X153159848Y-107250000D01*
X153159847Y-107250000D01*
X152925000Y-107250000D01*
X152925000Y-107425000D01*
X152675000Y-107425000D01*
X152675000Y-107250000D01*
X152440156Y-107250000D01*
X152440152Y-107250000D01*
X152423482Y-107253315D01*
X152410978Y-107255802D01*
X152377910Y-107277896D01*
X152377906Y-107277900D01*
X152377904Y-107277903D01*
X152377902Y-107277904D01*
X152355801Y-107310981D01*
X152355801Y-107310982D01*
X152350000Y-107340151D01*
X149066127Y-107340151D01*
X148987328Y-107261352D01*
X148971288Y-107237346D01*
X148966976Y-107226937D01*
X148966975Y-107170304D01*
X148969309Y-107164669D01*
X148989617Y-107139931D01*
X148988347Y-107138661D01*
X148993501Y-107133506D01*
X148993500Y-107133506D01*
X148993504Y-107133504D01*
X149026767Y-107083722D01*
X149035500Y-107039820D01*
X149035500Y-106460180D01*
X149026767Y-106416278D01*
X148993504Y-106366496D01*
X148989819Y-106364034D01*
X148989815Y-106364031D01*
X148952268Y-106338942D01*
X148931856Y-106318532D01*
X148928948Y-106314180D01*
X148925595Y-106309163D01*
X148914542Y-106253618D01*
X148915189Y-106250364D01*
X148946654Y-106203281D01*
X148980601Y-106180601D01*
X149035966Y-106097740D01*
X149050500Y-106024674D01*
X149050500Y-105775326D01*
X149035966Y-105702260D01*
X148980601Y-105619399D01*
X148971893Y-105613580D01*
X148971892Y-105613579D01*
X148971892Y-105613580D01*
X148897740Y-105564034D01*
X148884890Y-105561478D01*
X148824674Y-105549500D01*
X148824672Y-105549500D01*
X148515327Y-105549500D01*
X148515326Y-105549500D01*
X148510127Y-105550533D01*
X148478792Y-105556766D01*
X148478793Y-105556767D01*
X148442257Y-105564034D01*
X148427139Y-105574135D01*
X148371590Y-105585181D01*
X148336582Y-105567657D01*
X148333906Y-105565254D01*
X148333903Y-105565251D01*
X148333896Y-105565245D01*
X148333889Y-105565239D01*
X148313247Y-105548605D01*
X148313245Y-105548604D01*
X148313244Y-105548603D01*
X148259487Y-105520483D01*
X148192450Y-105500799D01*
X148148642Y-105494500D01*
X148148638Y-105494500D01*
X147926636Y-105494500D01*
X147885463Y-105500050D01*
X147885459Y-105500051D01*
X147885457Y-105500051D01*
X147822155Y-105517432D01*
X147817667Y-105518737D01*
X147817664Y-105518738D01*
X147817664Y-105518739D01*
X147806597Y-105525674D01*
X147749456Y-105561478D01*
X147749455Y-105561479D01*
X147701872Y-105612634D01*
X147701867Y-105612640D01*
X147676645Y-105649002D01*
X147574007Y-105854277D01*
X147561750Y-105888092D01*
X147548660Y-105943543D01*
X147548658Y-105943559D01*
X147544500Y-105979272D01*
X140450000Y-105979272D01*
X140450000Y-104599218D01*
X140455629Y-104570909D01*
X140459943Y-104560494D01*
X140499982Y-104520448D01*
X140510411Y-104516128D01*
X140538719Y-104510500D01*
X156710781Y-104510500D01*
X156739091Y-104516129D01*
G37*
%TD.AperFunction*%
%TA.AperFunction,Conductor*%
G36*
X143761672Y-108875498D02*
G01*
X143774126Y-108915000D01*
X143819161Y-110982542D01*
X143814147Y-111010976D01*
X143804576Y-111035585D01*
X143765409Y-111076496D01*
X143757723Y-111076663D01*
X142306739Y-112542281D01*
X142289141Y-112555423D01*
X141038117Y-113226730D01*
X141038095Y-113226744D01*
X141037718Y-113226997D01*
X141029679Y-113231675D01*
X141027320Y-113232855D01*
X141026086Y-113233367D01*
X141025450Y-113233791D01*
X141022061Y-113235488D01*
X141021824Y-113235504D01*
X141019356Y-113236652D01*
X141017660Y-113237528D01*
X141017659Y-113237529D01*
X140991060Y-113251281D01*
X140557985Y-113475181D01*
X140501549Y-113479958D01*
X140458265Y-113443431D01*
X140450000Y-113409446D01*
X140450000Y-112286927D01*
X140471674Y-112234601D01*
X140524000Y-112212927D01*
X140558381Y-112221399D01*
X141014753Y-112460869D01*
X141014813Y-112460893D01*
X141015600Y-112461220D01*
X141022082Y-112463956D01*
X141026086Y-112466632D01*
X141149868Y-112517904D01*
X141208165Y-112542051D01*
X141401459Y-112580500D01*
X141401461Y-112580500D01*
X141598539Y-112580500D01*
X141598541Y-112580500D01*
X141791835Y-112542051D01*
X141973914Y-112466632D01*
X142137782Y-112357139D01*
X142277139Y-112217782D01*
X142378469Y-112066128D01*
X142383337Y-112060153D01*
X142383153Y-112060005D01*
X142385424Y-112057193D01*
X142385437Y-112057181D01*
X143105791Y-110961287D01*
X143105795Y-110961277D01*
X143107102Y-110958936D01*
X143107691Y-110959264D01*
X143119598Y-110942234D01*
X143536930Y-110524904D01*
X143536931Y-110524903D01*
X143570500Y-110443860D01*
X143570500Y-110356140D01*
X143570500Y-108975030D01*
X143576131Y-108946716D01*
X143584563Y-108926358D01*
X143611815Y-108893152D01*
X143630601Y-108880601D01*
X143630603Y-108880597D01*
X143630607Y-108880595D01*
X143635758Y-108875445D01*
X143635833Y-108875520D01*
X143650707Y-108860645D01*
X143659032Y-108855082D01*
X143714580Y-108844033D01*
X143761672Y-108875498D01*
G37*
%TD.AperFunction*%
%TA.AperFunction,Conductor*%
G36*
X140555366Y-109430523D02*
G01*
X140595414Y-109470570D01*
X140595415Y-109470572D01*
X140613364Y-109513908D01*
X140613366Y-109513911D01*
X140613367Y-109513913D01*
X140707321Y-109654524D01*
X140722861Y-109677782D01*
X140862218Y-109817139D01*
X140947125Y-109873872D01*
X141026086Y-109926632D01*
X141026088Y-109926633D01*
X141026090Y-109926634D01*
X141205583Y-110000982D01*
X141205584Y-110000982D01*
X141205586Y-110000983D01*
X141208165Y-110002051D01*
X141401459Y-110040500D01*
X141401461Y-110040500D01*
X141468165Y-110040500D01*
X141489646Y-110043686D01*
X141500170Y-110046879D01*
X141500176Y-110046880D01*
X141500179Y-110046881D01*
X141528488Y-110052512D01*
X141558826Y-110055500D01*
X141558827Y-110055500D01*
X142656564Y-110055500D01*
X142656571Y-110055500D01*
X142679239Y-110053355D01*
X142685718Y-110052743D01*
X142712972Y-110047541D01*
X142741089Y-110039367D01*
X142765504Y-110029695D01*
X142791584Y-110016400D01*
X142815005Y-110001529D01*
X142838139Y-109983574D01*
X143004827Y-109826938D01*
X143057799Y-109806901D01*
X143109426Y-109830190D01*
X143129500Y-109880865D01*
X143129500Y-110263294D01*
X143123867Y-110291610D01*
X143113459Y-110316740D01*
X143097418Y-110340746D01*
X142848799Y-110589364D01*
X142796473Y-110611038D01*
X142794490Y-110611011D01*
X142735215Y-110609422D01*
X142735204Y-110609422D01*
X142735203Y-110609422D01*
X142712683Y-110610453D01*
X142712674Y-110610453D01*
X142712674Y-110610454D01*
X142709395Y-110610843D01*
X142707210Y-110611117D01*
X142694751Y-110616295D01*
X142682919Y-110621211D01*
X142673844Y-110624982D01*
X142661588Y-110626583D01*
X142651606Y-110634224D01*
X142642686Y-110637932D01*
X142642682Y-110637932D01*
X142642670Y-110637939D01*
X142639624Y-110639204D01*
X142635876Y-110639701D01*
X142628190Y-110645614D01*
X142628189Y-110645613D01*
X142614333Y-110656271D01*
X142614326Y-110656278D01*
X142610436Y-110659269D01*
X142608713Y-110662769D01*
X142557325Y-110714157D01*
X142541998Y-110725917D01*
X142502998Y-110748433D01*
X142485153Y-110755825D01*
X142452216Y-110764650D01*
X142441665Y-110767478D01*
X142422513Y-110770000D01*
X142377488Y-110770000D01*
X142358335Y-110767478D01*
X142314842Y-110755824D01*
X142296995Y-110748432D01*
X142258002Y-110725919D01*
X142242680Y-110714162D01*
X142209393Y-110680875D01*
X142199922Y-110669257D01*
X142193633Y-110659706D01*
X142191993Y-110657508D01*
X142130715Y-110608490D01*
X142130714Y-110608489D01*
X142130711Y-110608487D01*
X142122548Y-110604845D01*
X142122540Y-110604843D01*
X142063352Y-110591407D01*
X141598370Y-110578939D01*
X141595071Y-110579146D01*
X141595064Y-110579045D01*
X141589078Y-110579500D01*
X141401459Y-110579500D01*
X141346662Y-110590398D01*
X141346662Y-110590399D01*
X141319115Y-110595878D01*
X141208171Y-110617946D01*
X141208161Y-110617949D01*
X141208155Y-110617951D01*
X141026087Y-110693365D01*
X141022880Y-110695080D01*
X141022872Y-110695065D01*
X141019700Y-110696901D01*
X141017191Y-110698145D01*
X141014709Y-110699152D01*
X141007578Y-110702895D01*
X141006845Y-110703279D01*
X141006820Y-110703292D01*
X140558383Y-110938597D01*
X140501978Y-110943717D01*
X140458473Y-110907453D01*
X140450000Y-110873070D01*
X140450000Y-109506249D01*
X140455631Y-109477935D01*
X140458681Y-109470571D01*
X140498728Y-109430524D01*
X140555363Y-109430522D01*
X140555366Y-109430523D01*
G37*
%TD.AperFunction*%
%TD*%
%TA.AperFunction,Conductor*%
%TO.N,Net-(U2-VCC)*%
G36*
X146015740Y-107155021D02*
G01*
X146040984Y-107162434D01*
X146093730Y-107193730D01*
X146101073Y-107201073D01*
X146108327Y-107214357D01*
X146109750Y-107213425D01*
X146129701Y-107243857D01*
X146149995Y-107310715D01*
X146150000Y-107311843D01*
X146150000Y-108163965D01*
X146148432Y-108183622D01*
X146145176Y-108203897D01*
X146143232Y-108225988D01*
X146143231Y-108226014D01*
X146135034Y-108726025D01*
X146135368Y-108739055D01*
X146135368Y-108739069D01*
X146135369Y-108739070D01*
X146136771Y-108759789D01*
X146138196Y-108772750D01*
X146141302Y-108793103D01*
X146143811Y-108805914D01*
X146143814Y-108805926D01*
X146148652Y-108826102D01*
X146152231Y-108838669D01*
X146248978Y-109131271D01*
X146252069Y-109142304D01*
X146253843Y-109149988D01*
X146253844Y-109150000D01*
X146253846Y-109150000D01*
X146445233Y-109979346D01*
X146447614Y-109993220D01*
X146449197Y-110007142D01*
X146449991Y-110021202D01*
X146448314Y-114069176D01*
X147306411Y-114982632D01*
X147324674Y-115002073D01*
X147324675Y-115002074D01*
X149050000Y-115000000D01*
X149200455Y-114899695D01*
X149213784Y-114891961D01*
X149360526Y-114818591D01*
X149415980Y-114805500D01*
X150648808Y-114805500D01*
X150715847Y-114825185D01*
X150728188Y-114834239D01*
X150906262Y-114982634D01*
X150932606Y-115000366D01*
X150977049Y-115024081D01*
X151006440Y-115036091D01*
X151033972Y-115044176D01*
X151055653Y-115048893D01*
X151090591Y-115053917D01*
X151112724Y-115055500D01*
X151412666Y-115055500D01*
X151412668Y-115055500D01*
X151419357Y-115055141D01*
X151487354Y-115071206D01*
X151535873Y-115121482D01*
X151550000Y-115178963D01*
X151550000Y-115908170D01*
X151544975Y-115943114D01*
X151540570Y-115958112D01*
X151502827Y-116016855D01*
X151501458Y-116018042D01*
X151446597Y-116045518D01*
X151439039Y-116047163D01*
X151412668Y-116050000D01*
X147197303Y-116050000D01*
X147162366Y-116044976D01*
X147137360Y-116037633D01*
X147083615Y-116005326D01*
X147071608Y-115993040D01*
X147071607Y-115993039D01*
X146171979Y-115072489D01*
X145247776Y-114126792D01*
X145226951Y-114098295D01*
X145214491Y-114074838D01*
X145200000Y-114016668D01*
X145200000Y-109219707D01*
X145205023Y-109184773D01*
X145212391Y-109159679D01*
X145244309Y-109106313D01*
X145555000Y-108800000D01*
X145555000Y-108721978D01*
X145560023Y-108687044D01*
X145569363Y-108655234D01*
X145585241Y-108621273D01*
X145600965Y-108597741D01*
X145600967Y-108597738D01*
X145615499Y-108524678D01*
X145615500Y-108524676D01*
X145615500Y-108275321D01*
X145606144Y-108228293D01*
X145600966Y-108202261D01*
X145600966Y-108202260D01*
X145580187Y-108171162D01*
X145576010Y-108161968D01*
X145575431Y-108157890D01*
X145570569Y-108147727D01*
X145561731Y-108119497D01*
X145561730Y-108119497D01*
X145556049Y-108101353D01*
X145436910Y-107947626D01*
X145419479Y-107916934D01*
X145408558Y-107889083D01*
X145400000Y-107843816D01*
X145400000Y-107309484D01*
X145405023Y-107274548D01*
X145409427Y-107259550D01*
X145447197Y-107200777D01*
X145452766Y-107195951D01*
X145509655Y-107168068D01*
X145581950Y-107153610D01*
X145594047Y-107151805D01*
X145600119Y-107151204D01*
X145606189Y-107150603D01*
X145618407Y-107150000D01*
X145980808Y-107150000D01*
X146015740Y-107155021D01*
G37*
%TD.AperFunction*%
%TD*%
%TA.AperFunction,Conductor*%
%TO.N,+3.3V*%
G36*
X144183995Y-107485633D02*
G01*
X144204328Y-107494055D01*
X144237582Y-107521374D01*
X144321494Y-107647242D01*
X144330746Y-107666844D01*
X144336824Y-107686916D01*
X144340000Y-107708362D01*
X144340000Y-108072498D01*
X144335217Y-108098670D01*
X144326271Y-108122330D01*
X144312539Y-108145121D01*
X144304769Y-108153926D01*
X144281815Y-108171429D01*
X144276301Y-108174128D01*
X144259262Y-108182466D01*
X144226734Y-108190000D01*
X144185209Y-108190000D01*
X144181561Y-108189910D01*
X144177934Y-108189731D01*
X144175010Y-108189516D01*
X144174681Y-108189500D01*
X144174680Y-108189500D01*
X144174674Y-108189500D01*
X143925326Y-108189500D01*
X143925320Y-108189500D01*
X143925319Y-108189500D01*
X143924977Y-108189516D01*
X143922066Y-108189731D01*
X143918440Y-108189910D01*
X143914791Y-108190000D01*
X143485209Y-108190000D01*
X143481561Y-108189910D01*
X143477934Y-108189731D01*
X143475010Y-108189516D01*
X143474681Y-108189500D01*
X143474680Y-108189500D01*
X143474674Y-108189500D01*
X143225326Y-108189500D01*
X143225320Y-108189500D01*
X143225319Y-108189500D01*
X143224977Y-108189516D01*
X143222066Y-108189731D01*
X143218440Y-108189910D01*
X143214791Y-108190000D01*
X143104162Y-108190000D01*
X142959729Y-108349996D01*
X142959728Y-108349997D01*
X142959727Y-108349999D01*
X142956302Y-109612666D01*
X142950592Y-109640968D01*
X142940510Y-109665123D01*
X142922895Y-109690547D01*
X142753203Y-109850006D01*
X142731654Y-109870255D01*
X142708233Y-109885126D01*
X142683818Y-109894798D01*
X142656564Y-109900000D01*
X141558826Y-109900000D01*
X141530508Y-109894367D01*
X141520096Y-109890054D01*
X141480049Y-109850006D01*
X141475737Y-109839597D01*
X141470106Y-109811287D01*
X141470093Y-109612666D01*
X141470002Y-108257659D01*
X141475632Y-108229349D01*
X141483622Y-108210058D01*
X141515272Y-108174129D01*
X142672334Y-107512952D01*
X142704556Y-107494539D01*
X142722273Y-107487271D01*
X142740319Y-107482479D01*
X142759311Y-107480000D01*
X144155677Y-107480000D01*
X144183995Y-107485633D01*
G37*
%TD.AperFunction*%
%TD*%
%TA.AperFunction,Conductor*%
%TO.N,Net-(U2-VCOMH)*%
G36*
X146950739Y-108005022D02*
G01*
X146957346Y-108006961D01*
X146970839Y-108010924D01*
X147022852Y-108041491D01*
X147027685Y-108046244D01*
X147035242Y-108059814D01*
X147037226Y-108058415D01*
X147067430Y-108101224D01*
X147084482Y-108135778D01*
X147094372Y-108167477D01*
X147100000Y-108204409D01*
X147100000Y-108760002D01*
X147431441Y-109452344D01*
X147440517Y-109478423D01*
X147446519Y-109504849D01*
X147449599Y-109532288D01*
X147450420Y-113554968D01*
X147450420Y-113554969D01*
X147704578Y-113930681D01*
X147704579Y-113930681D01*
X147784499Y-114048823D01*
X151408211Y-114049955D01*
X151443142Y-114054988D01*
X151458141Y-114059398D01*
X151516891Y-114097173D01*
X151518083Y-114098549D01*
X151545528Y-114153392D01*
X151547168Y-114160934D01*
X151550000Y-114187282D01*
X151550000Y-114758170D01*
X151544975Y-114793114D01*
X151540570Y-114808112D01*
X151502827Y-114866855D01*
X151501458Y-114868042D01*
X151446597Y-114895518D01*
X151439039Y-114897163D01*
X151412668Y-114900000D01*
X151112724Y-114900000D01*
X151077786Y-114894976D01*
X151050254Y-114886891D01*
X151005811Y-114863176D01*
X150750000Y-114650000D01*
X150749998Y-114650000D01*
X149349998Y-114650000D01*
X149089157Y-114780420D01*
X149062148Y-114790204D01*
X149046617Y-114793865D01*
X149034753Y-114796661D01*
X149006219Y-114799967D01*
X147552282Y-114798913D01*
X147517351Y-114793865D01*
X147492549Y-114786563D01*
X147437963Y-114753323D01*
X147339132Y-114650000D01*
X146697783Y-113979499D01*
X146677269Y-113950785D01*
X146664942Y-113926965D01*
X146651071Y-113870010D01*
X146650987Y-113554968D01*
X146650000Y-109848780D01*
X146299867Y-108789843D01*
X146295022Y-108769644D01*
X146291916Y-108749291D01*
X146290514Y-108728572D01*
X146298711Y-108228547D01*
X146304304Y-108193712D01*
X146311238Y-108171451D01*
X146339543Y-108123121D01*
X146341352Y-108121208D01*
X146357020Y-108107233D01*
X146452679Y-108035489D01*
X146483629Y-108018554D01*
X146512240Y-108007854D01*
X146555670Y-108000000D01*
X146915807Y-108000000D01*
X146950739Y-108005022D01*
G37*
%TD.AperFunction*%
%TD*%
%TA.AperFunction,Conductor*%
%TO.N,+3.3V*%
G36*
X148215677Y-105669685D02*
G01*
X148236319Y-105686319D01*
X148253181Y-105703181D01*
X148286666Y-105764504D01*
X148289500Y-105790862D01*
X148289500Y-106024675D01*
X148297617Y-106065479D01*
X148300000Y-106089672D01*
X148300000Y-106338603D01*
X148280315Y-106405642D01*
X148279104Y-106407491D01*
X148273233Y-106416277D01*
X148273231Y-106416282D01*
X148264500Y-106460177D01*
X148264500Y-106460180D01*
X148264500Y-107039820D01*
X148273233Y-107083722D01*
X148273233Y-107083723D01*
X148273234Y-107083724D01*
X148279100Y-107092503D01*
X148299980Y-107159180D01*
X148300000Y-107161396D01*
X148300000Y-107250000D01*
X148870148Y-107915173D01*
X148898831Y-107978883D01*
X148900000Y-107995870D01*
X148900000Y-108598638D01*
X148880315Y-108665677D01*
X148863681Y-108686319D01*
X148836319Y-108713681D01*
X148774996Y-108747166D01*
X148748638Y-108750000D01*
X148089737Y-108750000D01*
X148022698Y-108730315D01*
X148017683Y-108726917D01*
X147751925Y-108537090D01*
X147708816Y-108482107D01*
X147700000Y-108436188D01*
X147700000Y-105979272D01*
X147713091Y-105923818D01*
X147815727Y-105718546D01*
X147863314Y-105667387D01*
X147926636Y-105650000D01*
X148148638Y-105650000D01*
X148215677Y-105669685D01*
G37*
%TD.AperFunction*%
%TD*%
%TA.AperFunction,Conductor*%
%TO.N,GND*%
G36*
X138589591Y-104506129D02*
G01*
X138600003Y-104510442D01*
X138640053Y-104550485D01*
X138640056Y-104550492D01*
X138644367Y-104560900D01*
X138644367Y-104578731D01*
X138645689Y-104578730D01*
X138650000Y-108563669D01*
X138644364Y-108592074D01*
X138641315Y-108599433D01*
X138601263Y-108639478D01*
X138544626Y-108639472D01*
X138504584Y-108599426D01*
X138496546Y-108580020D01*
X138486632Y-108556086D01*
X138377139Y-108392218D01*
X138237783Y-108252862D01*
X138237782Y-108252861D01*
X138229415Y-108247270D01*
X138226626Y-108245406D01*
X138073912Y-108143366D01*
X137891843Y-108067951D01*
X137891838Y-108067949D01*
X137891825Y-108067945D01*
X137891826Y-108067945D01*
X137762388Y-108042200D01*
X137762387Y-108042199D01*
X137711240Y-108032025D01*
X137698541Y-108029500D01*
X137698540Y-108029500D01*
X137501459Y-108029500D01*
X137446662Y-108040398D01*
X137446662Y-108040399D01*
X137419115Y-108045878D01*
X137308171Y-108067946D01*
X137308161Y-108067949D01*
X137308155Y-108067951D01*
X137126086Y-108143366D01*
X136961949Y-108253038D01*
X136960564Y-108254514D01*
X136953893Y-108261184D01*
X136944068Y-108269435D01*
X136109157Y-108855116D01*
X136095247Y-108866108D01*
X136074135Y-108884846D01*
X136074119Y-108884861D01*
X136061565Y-108897353D01*
X136061562Y-108897356D01*
X136043080Y-108917975D01*
X136043063Y-108917994D01*
X136032011Y-108931838D01*
X136032011Y-108931839D01*
X136015689Y-108954862D01*
X136015669Y-108954892D01*
X136006270Y-108969897D01*
X135614351Y-109682989D01*
X135570153Y-109718406D01*
X135513858Y-109712198D01*
X135478441Y-109668000D01*
X135475500Y-109647347D01*
X135475500Y-108675767D01*
X135481132Y-108647451D01*
X135487561Y-108631930D01*
X135518926Y-108596164D01*
X135521907Y-108594443D01*
X135539746Y-108587052D01*
X135565989Y-108580021D01*
X135634511Y-108540460D01*
X135690460Y-108484511D01*
X135992391Y-108182579D01*
X136016390Y-108166543D01*
X136048213Y-108153362D01*
X136048212Y-108153360D01*
X136055027Y-108150538D01*
X136064178Y-108147431D01*
X136154587Y-108123207D01*
X136245913Y-108070480D01*
X136320480Y-107995913D01*
X136373207Y-107904587D01*
X136395367Y-107821880D01*
X136400500Y-107812991D01*
X136400500Y-107696286D01*
X136399244Y-107692589D01*
X136373357Y-107595976D01*
X136373220Y-107595446D01*
X136373208Y-107595415D01*
X136369052Y-107588217D01*
X136320480Y-107504087D01*
X136245913Y-107429520D01*
X136245911Y-107429518D01*
X136154592Y-107376795D01*
X136154587Y-107376793D01*
X136154585Y-107376792D01*
X136154583Y-107376791D01*
X136154582Y-107376791D01*
X136052729Y-107349500D01*
X136052728Y-107349500D01*
X135947272Y-107349500D01*
X135947271Y-107349500D01*
X135866932Y-107371026D01*
X135845413Y-107376792D01*
X135845411Y-107376793D01*
X135845406Y-107376795D01*
X135754088Y-107429518D01*
X135679518Y-107504088D01*
X135626795Y-107595406D01*
X135626793Y-107595411D01*
X135626790Y-107595418D01*
X135624785Y-107602901D01*
X135613904Y-107623618D01*
X135613632Y-107625669D01*
X135612288Y-107626697D01*
X135609654Y-107631713D01*
X135605847Y-107636185D01*
X135603026Y-107633783D01*
X135568652Y-107660086D01*
X135512509Y-107652616D01*
X135478092Y-107607636D01*
X135477995Y-107607272D01*
X135475500Y-107588217D01*
X135475500Y-106785182D01*
X135474818Y-106781753D01*
X135474818Y-106781752D01*
X135466767Y-106741278D01*
X135433504Y-106691496D01*
X135433501Y-106691494D01*
X135383722Y-106658233D01*
X135339820Y-106649500D01*
X135339819Y-106649500D01*
X134960184Y-106649500D01*
X134960180Y-106649500D01*
X134938229Y-106653866D01*
X134938225Y-106653866D01*
X134916277Y-106658233D01*
X134866496Y-106691494D01*
X134866495Y-106691496D01*
X134866487Y-106691503D01*
X134865969Y-106692135D01*
X134864764Y-106693226D01*
X134863923Y-106694068D01*
X134863881Y-106694026D01*
X134849891Y-106706705D01*
X134845056Y-106709935D01*
X134839925Y-106713364D01*
X134784378Y-106724415D01*
X134781134Y-106723770D01*
X134736365Y-106693855D01*
X134735813Y-106694309D01*
X134734317Y-106692486D01*
X134734044Y-106692304D01*
X134733504Y-106691496D01*
X134733502Y-106691494D01*
X134683722Y-106658233D01*
X134639820Y-106649500D01*
X134639819Y-106649500D01*
X134260184Y-106649500D01*
X134260180Y-106649500D01*
X134238229Y-106653866D01*
X134238225Y-106653866D01*
X134216277Y-106658233D01*
X134166496Y-106691494D01*
X134166495Y-106691496D01*
X134166487Y-106691503D01*
X134165969Y-106692135D01*
X134164764Y-106693226D01*
X134163923Y-106694068D01*
X134163881Y-106694026D01*
X134149891Y-106706705D01*
X134145056Y-106709935D01*
X134139925Y-106713364D01*
X134084378Y-106724415D01*
X134081134Y-106723770D01*
X134036365Y-106693855D01*
X134035813Y-106694309D01*
X134034317Y-106692486D01*
X134034044Y-106692304D01*
X134033504Y-106691496D01*
X134033502Y-106691494D01*
X133983722Y-106658233D01*
X133939820Y-106649500D01*
X133939819Y-106649500D01*
X133560184Y-106649500D01*
X133560180Y-106649500D01*
X133538229Y-106653866D01*
X133538225Y-106653866D01*
X133516277Y-106658233D01*
X133466496Y-106691494D01*
X133466495Y-106691496D01*
X133466487Y-106691503D01*
X133465969Y-106692135D01*
X133464764Y-106693226D01*
X133463923Y-106694068D01*
X133463881Y-106694026D01*
X133449891Y-106706705D01*
X133445056Y-106709935D01*
X133439925Y-106713364D01*
X133384378Y-106724415D01*
X133381134Y-106723770D01*
X133336365Y-106693855D01*
X133335813Y-106694309D01*
X133334317Y-106692486D01*
X133334044Y-106692304D01*
X133333504Y-106691496D01*
X133333502Y-106691494D01*
X133283722Y-106658233D01*
X133239820Y-106649500D01*
X133239819Y-106649500D01*
X132860184Y-106649500D01*
X132860180Y-106649500D01*
X132838229Y-106653866D01*
X132838225Y-106653866D01*
X132816277Y-106658233D01*
X132766496Y-106691494D01*
X132766495Y-106691496D01*
X132766487Y-106691503D01*
X132765969Y-106692135D01*
X132764764Y-106693226D01*
X132763923Y-106694068D01*
X132763881Y-106694026D01*
X132749891Y-106706705D01*
X132745056Y-106709935D01*
X132739925Y-106713364D01*
X132684378Y-106724415D01*
X132681134Y-106723770D01*
X132636365Y-106693855D01*
X132635813Y-106694309D01*
X132634317Y-106692486D01*
X132634044Y-106692304D01*
X132633504Y-106691496D01*
X132633502Y-106691494D01*
X132583722Y-106658233D01*
X132539820Y-106649500D01*
X132539819Y-106649500D01*
X132160184Y-106649500D01*
X132160180Y-106649500D01*
X132138229Y-106653866D01*
X132138225Y-106653866D01*
X132116277Y-106658233D01*
X132066496Y-106691494D01*
X132066495Y-106691496D01*
X132066487Y-106691503D01*
X132065969Y-106692135D01*
X132064764Y-106693226D01*
X132063923Y-106694068D01*
X132063881Y-106694026D01*
X132049891Y-106706705D01*
X132045056Y-106709935D01*
X132039925Y-106713364D01*
X131984378Y-106724415D01*
X131981134Y-106723770D01*
X131936365Y-106693855D01*
X131935813Y-106694309D01*
X131934317Y-106692486D01*
X131934044Y-106692304D01*
X131933504Y-106691496D01*
X131933502Y-106691494D01*
X131883722Y-106658233D01*
X131839820Y-106649500D01*
X131839819Y-106649500D01*
X131460184Y-106649500D01*
X131460180Y-106649500D01*
X131438229Y-106653866D01*
X131438225Y-106653866D01*
X131416277Y-106658233D01*
X131366496Y-106691494D01*
X131363685Y-106693802D01*
X131362497Y-106692355D01*
X131315513Y-106711794D01*
X131275546Y-106700052D01*
X131242155Y-106678600D01*
X131201915Y-106660226D01*
X131201912Y-106660225D01*
X131186926Y-106655824D01*
X131165238Y-106651106D01*
X131130296Y-106646082D01*
X131108179Y-106644500D01*
X131108170Y-106644500D01*
X130787332Y-106644500D01*
X130787316Y-106644500D01*
X130770709Y-106645391D01*
X130744362Y-106648223D01*
X130727918Y-106650887D01*
X130720379Y-106652527D01*
X130720372Y-106652528D01*
X130683807Y-106665430D01*
X130683788Y-106665438D01*
X130628920Y-106692913D01*
X130628908Y-106692920D01*
X130596680Y-106714464D01*
X130595303Y-106715658D01*
X130595302Y-106715659D01*
X130566345Y-106749092D01*
X130528599Y-106807845D01*
X130510225Y-106848086D01*
X130505824Y-106863071D01*
X130505824Y-106863072D01*
X130501106Y-106884760D01*
X130496082Y-106919702D01*
X130494500Y-106941820D01*
X130494500Y-108245406D01*
X130494658Y-108247815D01*
X130494592Y-108247819D01*
X130495000Y-108254051D01*
X130495000Y-108345945D01*
X130494592Y-108352172D01*
X130494658Y-108352177D01*
X130494500Y-108354586D01*
X130494500Y-110460563D01*
X130498457Y-110495423D01*
X130498458Y-110495425D01*
X130510921Y-110549606D01*
X130510923Y-110549609D01*
X130522593Y-110582691D01*
X130522595Y-110582695D01*
X130534583Y-110607374D01*
X130534588Y-110607384D01*
X130545674Y-110626584D01*
X130545680Y-110626594D01*
X130565463Y-110655823D01*
X130579179Y-110673264D01*
X131064275Y-111206870D01*
X131096830Y-111234076D01*
X131096835Y-111234079D01*
X131153636Y-111269635D01*
X131153638Y-111269636D01*
X131153648Y-111269642D01*
X131192344Y-111287036D01*
X131192349Y-111287037D01*
X131192350Y-111287038D01*
X131206101Y-111291075D01*
X131216667Y-111294178D01*
X131238347Y-111298894D01*
X131273282Y-111303917D01*
X131279317Y-111304348D01*
X131295404Y-111305500D01*
X131295412Y-111305500D01*
X135206287Y-111305500D01*
X135206289Y-111305500D01*
X135224275Y-111304456D01*
X135252768Y-111301138D01*
X135270513Y-111298021D01*
X135292015Y-111292944D01*
X135297850Y-111291567D01*
X135297851Y-111291567D01*
X135297858Y-111291564D01*
X135297866Y-111291563D01*
X135315128Y-111286416D01*
X135324381Y-111283061D01*
X135342063Y-111276653D01*
X135342072Y-111276648D01*
X135342089Y-111276643D01*
X135358638Y-111269534D01*
X138016379Y-109940662D01*
X138021121Y-109938498D01*
X138073914Y-109916632D01*
X138237782Y-109807139D01*
X138377139Y-109667782D01*
X138486632Y-109503914D01*
X138502000Y-109466811D01*
X138518039Y-109442806D01*
X138523675Y-109437170D01*
X138576000Y-109415497D01*
X138628326Y-109437171D01*
X138650000Y-109489497D01*
X138650000Y-110866684D01*
X138628326Y-110919010D01*
X138576000Y-110940684D01*
X138541222Y-110932002D01*
X138080871Y-110686891D01*
X138080905Y-110686825D01*
X138077232Y-110684865D01*
X138077118Y-110685080D01*
X138073911Y-110683366D01*
X137891843Y-110607951D01*
X137891838Y-110607949D01*
X137891825Y-110607945D01*
X137891826Y-110607945D01*
X137762388Y-110582200D01*
X137762387Y-110582199D01*
X137711240Y-110572025D01*
X137698541Y-110569500D01*
X137698540Y-110569500D01*
X137501459Y-110569500D01*
X137446662Y-110580398D01*
X137446662Y-110580399D01*
X137419115Y-110585878D01*
X137308171Y-110607946D01*
X137308161Y-110607949D01*
X137308155Y-110607951D01*
X137126086Y-110683366D01*
X136961948Y-110793039D01*
X136960567Y-110794511D01*
X136824511Y-110930567D01*
X136823039Y-110931949D01*
X136722152Y-111082936D01*
X136717057Y-111089166D01*
X136717248Y-111089322D01*
X136714952Y-111092135D01*
X136219519Y-111838099D01*
X136123317Y-111982949D01*
X136120998Y-111986440D01*
X136073994Y-112018038D01*
X136059355Y-112019500D01*
X126540848Y-112019500D01*
X126512530Y-112013867D01*
X126487401Y-112003458D01*
X126463395Y-111987418D01*
X125526741Y-111050765D01*
X125514981Y-111035439D01*
X125505572Y-111019142D01*
X125498179Y-111001294D01*
X125483207Y-110945413D01*
X125430480Y-110854087D01*
X125355913Y-110779520D01*
X125355911Y-110779518D01*
X125264592Y-110726795D01*
X125264587Y-110726793D01*
X125264585Y-110726792D01*
X125264583Y-110726791D01*
X125264582Y-110726791D01*
X125162729Y-110699500D01*
X125162728Y-110699500D01*
X125057272Y-110699500D01*
X125057271Y-110699500D01*
X124976932Y-110721026D01*
X124955413Y-110726792D01*
X124955411Y-110726793D01*
X124955406Y-110726795D01*
X124864088Y-110779518D01*
X124789518Y-110854088D01*
X124736795Y-110945406D01*
X124736793Y-110945411D01*
X124736790Y-110945417D01*
X124736790Y-110945419D01*
X124729786Y-110971558D01*
X124718905Y-110992276D01*
X124718632Y-110994329D01*
X124717286Y-110995358D01*
X124714649Y-111000381D01*
X124710841Y-111004853D01*
X124708018Y-111002449D01*
X124673652Y-111028746D01*
X124617509Y-111021276D01*
X124583092Y-110976296D01*
X124582995Y-110975932D01*
X124580500Y-110956877D01*
X124580500Y-109648096D01*
X124586129Y-109619787D01*
X124588465Y-109614147D01*
X124628507Y-109574098D01*
X124685145Y-109574092D01*
X124720924Y-109605471D01*
X124721111Y-109605795D01*
X124728498Y-109623631D01*
X124736794Y-109654591D01*
X124765660Y-109704587D01*
X124789517Y-109745909D01*
X124789518Y-109745910D01*
X124789520Y-109745913D01*
X124864087Y-109820480D01*
X124955413Y-109873207D01*
X125052589Y-109899244D01*
X125056287Y-109900500D01*
X125162729Y-109900500D01*
X125172992Y-109900500D01*
X125181880Y-109895367D01*
X125264587Y-109873207D01*
X125355913Y-109820480D01*
X125430480Y-109745913D01*
X125483207Y-109654587D01*
X125505367Y-109571880D01*
X125510500Y-109562991D01*
X125510500Y-109446286D01*
X125509244Y-109442589D01*
X125483207Y-109345413D01*
X125430480Y-109254087D01*
X125355913Y-109179520D01*
X125267615Y-109128541D01*
X125267615Y-109128540D01*
X125267613Y-109128540D01*
X125264596Y-109126798D01*
X125264597Y-109126798D01*
X125264591Y-109126795D01*
X125264582Y-109126791D01*
X125162729Y-109099500D01*
X125162728Y-109099500D01*
X125119219Y-109099500D01*
X125090904Y-109093868D01*
X125080495Y-109089557D01*
X125040446Y-109049513D01*
X125036129Y-109039091D01*
X125030500Y-109010781D01*
X125030500Y-107290845D01*
X125036132Y-107262529D01*
X125046540Y-107237399D01*
X125062578Y-107213396D01*
X125543395Y-106732578D01*
X125567403Y-106716539D01*
X125567872Y-106716345D01*
X125575069Y-106713364D01*
X125592531Y-106706132D01*
X125620846Y-106700500D01*
X125636475Y-106700500D01*
X125664785Y-106706129D01*
X125675197Y-106710442D01*
X125715246Y-106750484D01*
X125718868Y-106759227D01*
X125724500Y-106787543D01*
X125724500Y-107883211D01*
X125721978Y-107902361D01*
X125717985Y-107917262D01*
X125717107Y-107920542D01*
X125709716Y-107938385D01*
X125676793Y-107995411D01*
X125676792Y-107995413D01*
X125676791Y-107995417D01*
X125649500Y-108097270D01*
X125649500Y-108202729D01*
X125676791Y-108304582D01*
X125676795Y-108304591D01*
X125704266Y-108352172D01*
X125709714Y-108361607D01*
X125717106Y-108379454D01*
X125721978Y-108397635D01*
X125724500Y-108416789D01*
X125724500Y-109814819D01*
X125733233Y-109858722D01*
X125765954Y-109907694D01*
X125766496Y-109908504D01*
X125816278Y-109941767D01*
X125860180Y-109950500D01*
X125860181Y-109950500D01*
X126239819Y-109950500D01*
X126239820Y-109950500D01*
X126283722Y-109941767D01*
X126333504Y-109908504D01*
X126333506Y-109908500D01*
X126338660Y-109903348D01*
X126339460Y-109904148D01*
X126350711Y-109892890D01*
X126360079Y-109886630D01*
X126415610Y-109875580D01*
X126418849Y-109876224D01*
X126460590Y-109904103D01*
X126461343Y-109903351D01*
X126465119Y-109907127D01*
X126465944Y-109907678D01*
X126466496Y-109908504D01*
X126516278Y-109941767D01*
X126560180Y-109950500D01*
X126560181Y-109950500D01*
X126939819Y-109950500D01*
X126939820Y-109950500D01*
X126983722Y-109941767D01*
X127033504Y-109908504D01*
X127033506Y-109908500D01*
X127038660Y-109903348D01*
X127039460Y-109904148D01*
X127050711Y-109892890D01*
X127060079Y-109886630D01*
X127115610Y-109875580D01*
X127118849Y-109876224D01*
X127160590Y-109904103D01*
X127161343Y-109903351D01*
X127165119Y-109907127D01*
X127165944Y-109907678D01*
X127166496Y-109908504D01*
X127216278Y-109941767D01*
X127260180Y-109950500D01*
X127260181Y-109950500D01*
X127639819Y-109950500D01*
X127639820Y-109950500D01*
X127683722Y-109941767D01*
X127733504Y-109908504D01*
X127733506Y-109908500D01*
X127738660Y-109903348D01*
X127739460Y-109904148D01*
X127750711Y-109892890D01*
X127760079Y-109886630D01*
X127815610Y-109875580D01*
X127818849Y-109876224D01*
X127860590Y-109904103D01*
X127861343Y-109903351D01*
X127865119Y-109907127D01*
X127865944Y-109907678D01*
X127866496Y-109908504D01*
X127916278Y-109941767D01*
X127960180Y-109950500D01*
X127960181Y-109950500D01*
X128339819Y-109950500D01*
X128339820Y-109950500D01*
X128383722Y-109941767D01*
X128433504Y-109908504D01*
X128433506Y-109908500D01*
X128438660Y-109903348D01*
X128439460Y-109904148D01*
X128450711Y-109892890D01*
X128460079Y-109886630D01*
X128515610Y-109875580D01*
X128518849Y-109876224D01*
X128560590Y-109904103D01*
X128561343Y-109903351D01*
X128565119Y-109907127D01*
X128565944Y-109907678D01*
X128566496Y-109908504D01*
X128616278Y-109941767D01*
X128660180Y-109950500D01*
X128660181Y-109950500D01*
X129039819Y-109950500D01*
X129039820Y-109950500D01*
X129083722Y-109941767D01*
X129133504Y-109908504D01*
X129133506Y-109908500D01*
X129138660Y-109903348D01*
X129139460Y-109904148D01*
X129150711Y-109892890D01*
X129160079Y-109886630D01*
X129215610Y-109875580D01*
X129218849Y-109876224D01*
X129260590Y-109904103D01*
X129261343Y-109903351D01*
X129265119Y-109907127D01*
X129265944Y-109907678D01*
X129266496Y-109908504D01*
X129316278Y-109941767D01*
X129360180Y-109950500D01*
X129360181Y-109950500D01*
X129739819Y-109950500D01*
X129739820Y-109950500D01*
X129783722Y-109941767D01*
X129833504Y-109908504D01*
X129866767Y-109858722D01*
X129875500Y-109814820D01*
X129875500Y-106785180D01*
X129866767Y-106741278D01*
X129833504Y-106691496D01*
X129833501Y-106691494D01*
X129783722Y-106658233D01*
X129739820Y-106649500D01*
X129739819Y-106649500D01*
X129360184Y-106649500D01*
X129360180Y-106649500D01*
X129338229Y-106653866D01*
X129338225Y-106653866D01*
X129316277Y-106658233D01*
X129266496Y-106691494D01*
X129266495Y-106691496D01*
X129266487Y-106691503D01*
X129265969Y-106692135D01*
X129264764Y-106693226D01*
X129263923Y-106694068D01*
X129263881Y-106694026D01*
X129249891Y-106706705D01*
X129245056Y-106709935D01*
X129239925Y-106713364D01*
X129184378Y-106724415D01*
X129181134Y-106723770D01*
X129136365Y-106693855D01*
X129135813Y-106694309D01*
X129134317Y-106692486D01*
X129134044Y-106692304D01*
X129133504Y-106691496D01*
X129133502Y-106691494D01*
X129083722Y-106658233D01*
X129039820Y-106649500D01*
X129039819Y-106649500D01*
X128660184Y-106649500D01*
X128660180Y-106649500D01*
X128638229Y-106653866D01*
X128638225Y-106653866D01*
X128616277Y-106658233D01*
X128566496Y-106691494D01*
X128566495Y-106691496D01*
X128566487Y-106691503D01*
X128565969Y-106692135D01*
X128564764Y-106693226D01*
X128563923Y-106694068D01*
X128563881Y-106694026D01*
X128549891Y-106706705D01*
X128545056Y-106709935D01*
X128539925Y-106713364D01*
X128484378Y-106724415D01*
X128481134Y-106723770D01*
X128436365Y-106693855D01*
X128435813Y-106694309D01*
X128434317Y-106692486D01*
X128434044Y-106692304D01*
X128433504Y-106691496D01*
X128433502Y-106691494D01*
X128383722Y-106658233D01*
X128339820Y-106649500D01*
X128339819Y-106649500D01*
X127960184Y-106649500D01*
X127960180Y-106649500D01*
X127938229Y-106653866D01*
X127938225Y-106653866D01*
X127916277Y-106658233D01*
X127866496Y-106691494D01*
X127866495Y-106691496D01*
X127866487Y-106691503D01*
X127865969Y-106692135D01*
X127864764Y-106693226D01*
X127863923Y-106694068D01*
X127863881Y-106694026D01*
X127849891Y-106706705D01*
X127845056Y-106709935D01*
X127839925Y-106713364D01*
X127784378Y-106724415D01*
X127781134Y-106723770D01*
X127736365Y-106693855D01*
X127735813Y-106694309D01*
X127734317Y-106692486D01*
X127734044Y-106692304D01*
X127733504Y-106691496D01*
X127733502Y-106691494D01*
X127683722Y-106658233D01*
X127639820Y-106649500D01*
X127639819Y-106649500D01*
X127260184Y-106649500D01*
X127260180Y-106649500D01*
X127238229Y-106653866D01*
X127238225Y-106653866D01*
X127216277Y-106658233D01*
X127166496Y-106691494D01*
X127166495Y-106691496D01*
X127166487Y-106691503D01*
X127165969Y-106692135D01*
X127164764Y-106693226D01*
X127163923Y-106694068D01*
X127163881Y-106694026D01*
X127149891Y-106706705D01*
X127145056Y-106709935D01*
X127139925Y-106713364D01*
X127084378Y-106724415D01*
X127081134Y-106723770D01*
X127036365Y-106693855D01*
X127035813Y-106694309D01*
X127034317Y-106692486D01*
X127034044Y-106692304D01*
X127033504Y-106691496D01*
X127033502Y-106691494D01*
X126983722Y-106658233D01*
X126939820Y-106649500D01*
X126939819Y-106649500D01*
X126560184Y-106649500D01*
X126560180Y-106649500D01*
X126538229Y-106653866D01*
X126538225Y-106653866D01*
X126516277Y-106658233D01*
X126466496Y-106691494D01*
X126466495Y-106691496D01*
X126466487Y-106691503D01*
X126465969Y-106692135D01*
X126464764Y-106693226D01*
X126463923Y-106694068D01*
X126463881Y-106694026D01*
X126449891Y-106706705D01*
X126445056Y-106709935D01*
X126439925Y-106713364D01*
X126384378Y-106724415D01*
X126381134Y-106723770D01*
X126336365Y-106693855D01*
X126335813Y-106694309D01*
X126334317Y-106692486D01*
X126334044Y-106692304D01*
X126333504Y-106691496D01*
X126333502Y-106691494D01*
X126283722Y-106658233D01*
X126239820Y-106649500D01*
X126239819Y-106649500D01*
X126053565Y-106649500D01*
X126025250Y-106643868D01*
X126014841Y-106639557D01*
X125974792Y-106599513D01*
X125974446Y-106598678D01*
X125971349Y-106551229D01*
X125972243Y-106547893D01*
X125979630Y-106530063D01*
X125981406Y-106526987D01*
X126023207Y-106454587D01*
X126045367Y-106371880D01*
X126050500Y-106362991D01*
X126050500Y-106246286D01*
X126049244Y-106242589D01*
X126023357Y-106145976D01*
X126023220Y-106145446D01*
X126023208Y-106145415D01*
X126018121Y-106136604D01*
X125970480Y-106054087D01*
X125895913Y-105979520D01*
X125895910Y-105979518D01*
X125895909Y-105979517D01*
X125891171Y-105976782D01*
X125891169Y-105976781D01*
X125804592Y-105926795D01*
X125804587Y-105926793D01*
X125804585Y-105926792D01*
X125804583Y-105926791D01*
X125804582Y-105926791D01*
X125702729Y-105899500D01*
X125702728Y-105899500D01*
X125597272Y-105899500D01*
X125597271Y-105899500D01*
X125559069Y-105909736D01*
X125495413Y-105926792D01*
X125495411Y-105926793D01*
X125495406Y-105926795D01*
X125418123Y-105971415D01*
X125409444Y-105975695D01*
X125385869Y-105985461D01*
X125329232Y-105985463D01*
X125289182Y-105945416D01*
X125286131Y-105938050D01*
X125280500Y-105909736D01*
X125280500Y-105515688D01*
X125286132Y-105487372D01*
X125294146Y-105468024D01*
X125325513Y-105432257D01*
X125345913Y-105420480D01*
X125420480Y-105345913D01*
X125473207Y-105254587D01*
X125495367Y-105171880D01*
X125500500Y-105162991D01*
X125500500Y-105046286D01*
X125499241Y-105042577D01*
X125494233Y-105023887D01*
X125494233Y-105023886D01*
X125473207Y-104945413D01*
X125420480Y-104854087D01*
X125345913Y-104779520D01*
X125345911Y-104779518D01*
X125254592Y-104726795D01*
X125254587Y-104726793D01*
X125254585Y-104726792D01*
X125254583Y-104726791D01*
X125254582Y-104726791D01*
X125152729Y-104699500D01*
X125152728Y-104699500D01*
X125047272Y-104699500D01*
X125047271Y-104699500D01*
X124966932Y-104721026D01*
X124945413Y-104726792D01*
X124945411Y-104726793D01*
X124945406Y-104726795D01*
X124854088Y-104779518D01*
X124779518Y-104854088D01*
X124726795Y-104945406D01*
X124726793Y-104945411D01*
X124726792Y-104945413D01*
X124726791Y-104945417D01*
X124699500Y-105047270D01*
X124699500Y-105152729D01*
X124726791Y-105254582D01*
X124726792Y-105254585D01*
X124726793Y-105254587D01*
X124726795Y-105254592D01*
X124779518Y-105345910D01*
X124779520Y-105345913D01*
X124787420Y-105353813D01*
X124803457Y-105377814D01*
X124813867Y-105402947D01*
X124819500Y-105431263D01*
X124819500Y-106059152D01*
X124813867Y-106087468D01*
X124803459Y-106112598D01*
X124787418Y-106136604D01*
X124154589Y-106769434D01*
X124154588Y-106769436D01*
X124140054Y-106804525D01*
X124119499Y-106854148D01*
X124119499Y-106956490D01*
X124119500Y-106956527D01*
X124119500Y-113281133D01*
X124097826Y-113333459D01*
X124083275Y-113344765D01*
X123129548Y-113910945D01*
X123128849Y-113911454D01*
X123126479Y-113913105D01*
X123126088Y-113913366D01*
X123126086Y-113913367D01*
X123077665Y-113945720D01*
X122961948Y-114023039D01*
X122960567Y-114024511D01*
X122824511Y-114160567D01*
X122823039Y-114161948D01*
X122713366Y-114326086D01*
X122637951Y-114508155D01*
X122637949Y-114508161D01*
X122637946Y-114508171D01*
X122622882Y-114583910D01*
X122622881Y-114583914D01*
X122604542Y-114676114D01*
X122599500Y-114701460D01*
X122599500Y-114898539D01*
X122609046Y-114946531D01*
X122637946Y-115091827D01*
X122637949Y-115091838D01*
X122637951Y-115091843D01*
X122713365Y-115273910D01*
X122713366Y-115273912D01*
X122713367Y-115273913D01*
X122817796Y-115430201D01*
X122822861Y-115437782D01*
X122962218Y-115577139D01*
X123126086Y-115686632D01*
X123308165Y-115762051D01*
X123501459Y-115800500D01*
X123501461Y-115800500D01*
X123698539Y-115800500D01*
X123698541Y-115800500D01*
X123891835Y-115762051D01*
X124073914Y-115686632D01*
X124237782Y-115577139D01*
X124377139Y-115437782D01*
X124486632Y-115273914D01*
X124562051Y-115091835D01*
X124600500Y-114898541D01*
X124600500Y-114714998D01*
X124601174Y-114707706D01*
X124600952Y-114707687D01*
X124601264Y-114704058D01*
X124586169Y-113468597D01*
X124585629Y-113424410D01*
X124582057Y-113407273D01*
X124580500Y-113392173D01*
X124580500Y-112048096D01*
X124585625Y-112025340D01*
X124585357Y-112023299D01*
X124586387Y-112021956D01*
X124587646Y-112016369D01*
X124590166Y-112011059D01*
X124593527Y-112012654D01*
X124619842Y-111978371D01*
X124675996Y-111970986D01*
X124720924Y-112005471D01*
X124721111Y-112005795D01*
X124728498Y-112023632D01*
X124736792Y-112054584D01*
X124736793Y-112054588D01*
X124789520Y-112145913D01*
X124864087Y-112220480D01*
X124955413Y-112273207D01*
X125057270Y-112300499D01*
X125057271Y-112300500D01*
X125057273Y-112300500D01*
X125082212Y-112300500D01*
X125085248Y-112300751D01*
X125088293Y-112302318D01*
X125107467Y-112306131D01*
X125132599Y-112316541D01*
X125156605Y-112332581D01*
X125798509Y-112974485D01*
X125798516Y-112974493D01*
X125841462Y-113017439D01*
X125849654Y-113037218D01*
X125936070Y-113073010D01*
X125936068Y-113073012D01*
X125936083Y-113073015D01*
X125942728Y-113075768D01*
X125954149Y-113080500D01*
X125954150Y-113080500D01*
X125954151Y-113080500D01*
X136165980Y-113080500D01*
X136218306Y-113102174D01*
X136236540Y-113132201D01*
X136634156Y-114390397D01*
X136634779Y-114392081D01*
X136634721Y-114392102D01*
X136637419Y-114400154D01*
X136637443Y-114400148D01*
X136637661Y-114400877D01*
X136637850Y-114401439D01*
X136637946Y-114401826D01*
X136637952Y-114401844D01*
X136713365Y-114583910D01*
X136713366Y-114583912D01*
X136713367Y-114583913D01*
X136791910Y-114701460D01*
X136822861Y-114747782D01*
X136962218Y-114887139D01*
X137126086Y-114996632D01*
X137308165Y-115072051D01*
X137501459Y-115110500D01*
X137501461Y-115110500D01*
X137698539Y-115110500D01*
X137698541Y-115110500D01*
X137891835Y-115072051D01*
X138073914Y-114996632D01*
X138073923Y-114996625D01*
X138076499Y-114995249D01*
X138081918Y-114992752D01*
X138081887Y-114992682D01*
X138083520Y-114991948D01*
X138083539Y-114991941D01*
X138542417Y-114758241D01*
X138598881Y-114753809D01*
X138641941Y-114790600D01*
X138650000Y-114824183D01*
X138650000Y-116026000D01*
X138628326Y-116078326D01*
X138576000Y-116100000D01*
X135099685Y-116100000D01*
X135094609Y-116099500D01*
X135089882Y-116099500D01*
X122389219Y-116099500D01*
X122360904Y-116093868D01*
X122350495Y-116089557D01*
X122310446Y-116049513D01*
X122306129Y-116039091D01*
X122300500Y-116010781D01*
X122300500Y-104589218D01*
X122306129Y-104560909D01*
X122310443Y-104550494D01*
X122350482Y-104510448D01*
X122360911Y-104506128D01*
X122389219Y-104500500D01*
X138561281Y-104500500D01*
X138589591Y-104506129D01*
G37*
%TD.AperFunction*%
%TA.AperFunction,Conductor*%
G36*
X138641734Y-112246564D02*
G01*
X138650000Y-112280549D01*
X138650000Y-113403070D01*
X138628326Y-113455396D01*
X138576000Y-113477070D01*
X138541617Y-113468597D01*
X138085245Y-113229128D01*
X138083620Y-113228374D01*
X138083656Y-113228294D01*
X138083653Y-113228293D01*
X138083659Y-113228280D01*
X138077234Y-113224872D01*
X138077123Y-113225082D01*
X138073920Y-113223370D01*
X137891837Y-113147949D01*
X137890143Y-113147441D01*
X137890168Y-113147355D01*
X137890073Y-113147321D01*
X137890073Y-113147320D01*
X137882812Y-113144863D01*
X137882779Y-113144951D01*
X137881082Y-113144313D01*
X137881069Y-113144308D01*
X136841368Y-112810808D01*
X136549867Y-112717304D01*
X136526151Y-112704552D01*
X136523000Y-112702023D01*
X136475568Y-112654591D01*
X136475566Y-112654590D01*
X136475564Y-112654589D01*
X136451453Y-112644602D01*
X136443215Y-112637990D01*
X136435697Y-112624288D01*
X136419184Y-112607774D01*
X136419184Y-112598632D01*
X136417796Y-112591659D01*
X136415973Y-112588335D01*
X136416664Y-112585964D01*
X136415533Y-112580278D01*
X136415533Y-112580277D01*
X136418322Y-112580277D01*
X136419184Y-112577317D01*
X136419184Y-112551137D01*
X136429953Y-112540367D01*
X136431821Y-112533960D01*
X136441880Y-112528441D01*
X136459233Y-112511089D01*
X136479681Y-112507702D01*
X136481476Y-112506718D01*
X136483422Y-112507083D01*
X136492316Y-112505610D01*
X137495393Y-112570356D01*
X137495397Y-112570355D01*
X137497822Y-112570512D01*
X137497822Y-112570500D01*
X137698539Y-112570500D01*
X137698541Y-112570500D01*
X137891835Y-112532051D01*
X138073914Y-112456632D01*
X138073922Y-112456626D01*
X138076190Y-112455415D01*
X138080649Y-112453343D01*
X138082337Y-112452469D01*
X138082341Y-112452469D01*
X138542016Y-112214814D01*
X138598450Y-112210037D01*
X138641734Y-112246564D01*
G37*
%TD.AperFunction*%
%TD*%
%TA.AperFunction,Conductor*%
%TO.N,+3.3V*%
G36*
X131143106Y-106805023D02*
G01*
X131158104Y-106809427D01*
X131216855Y-106847172D01*
X131218042Y-106848541D01*
X131237907Y-106892004D01*
X131241363Y-106890908D01*
X131244195Y-106899835D01*
X131245582Y-106908794D01*
X131247087Y-106912087D01*
X131246608Y-106915423D01*
X131250000Y-106937331D01*
X131250000Y-108235350D01*
X131249500Y-108242980D01*
X131249500Y-108357021D01*
X131250000Y-108364651D01*
X131250000Y-109900000D01*
X131500000Y-110150000D01*
X135349998Y-110150000D01*
X135350000Y-110150000D01*
X135700000Y-109850000D01*
X136142537Y-109044807D01*
X136158864Y-109021776D01*
X136177351Y-109001151D01*
X136198464Y-108982413D01*
X137053353Y-108382720D01*
X137084831Y-108366774D01*
X137115113Y-108356533D01*
X137154833Y-108350000D01*
X137908170Y-108350000D01*
X137943106Y-108355023D01*
X137958104Y-108359427D01*
X138016855Y-108397172D01*
X138018042Y-108398541D01*
X138045518Y-108453402D01*
X138047163Y-108460960D01*
X138050000Y-108487331D01*
X138050000Y-109655534D01*
X138044976Y-109690471D01*
X138040238Y-109706606D01*
X138004101Y-109763939D01*
X137993887Y-109773109D01*
X137966502Y-109791748D01*
X135289096Y-111130451D01*
X135262135Y-111140224D01*
X135234782Y-111146682D01*
X135206289Y-111150000D01*
X131295412Y-111150000D01*
X131260477Y-111144977D01*
X131236154Y-111137835D01*
X131179336Y-111102269D01*
X130694240Y-110568663D01*
X130674457Y-110539434D01*
X130662464Y-110514746D01*
X130650000Y-110460564D01*
X130650000Y-108354593D01*
X130650500Y-108352727D01*
X130650500Y-108247273D01*
X130650000Y-108245406D01*
X130650000Y-106941829D01*
X130655023Y-106906893D01*
X130659427Y-106891895D01*
X130697172Y-106833144D01*
X130698541Y-106831957D01*
X130753420Y-106804477D01*
X130760979Y-106802833D01*
X130787332Y-106800000D01*
X131108170Y-106800000D01*
X131143106Y-106805023D01*
G37*
%TD.AperFunction*%
%TD*%
%TA.AperFunction,Conductor*%
%TO.N,/SDA*%
G36*
X141104758Y-113380528D02*
G01*
X141498038Y-114114474D01*
X141498925Y-114123385D01*
X141498038Y-114125526D01*
X141104758Y-114859471D01*
X141097830Y-114865145D01*
X141089072Y-114864338D01*
X139810420Y-114203271D01*
X139804644Y-114196428D01*
X139804093Y-114192878D01*
X139804093Y-114047121D01*
X139807520Y-114038848D01*
X139810415Y-114036731D01*
X141089073Y-113375660D01*
X141097995Y-113374905D01*
X141104758Y-113380528D01*
G37*
%TD.AperFunction*%
%TD*%
%TA.AperFunction,Conductor*%
%TO.N,/SDA*%
G36*
X138008672Y-113365538D02*
G01*
X138012990Y-113366822D01*
X139287581Y-114035631D01*
X139291130Y-114038497D01*
X139293193Y-114040971D01*
X139295907Y-114048464D01*
X139295907Y-114190500D01*
X139295016Y-114194978D01*
X139293794Y-114197928D01*
X139288295Y-114203876D01*
X138012970Y-114853376D01*
X138008576Y-114854614D01*
X138006729Y-114854759D01*
X137998304Y-114852067D01*
X137997007Y-114850981D01*
X137994205Y-114847537D01*
X137603059Y-114117575D01*
X137601730Y-114113214D01*
X137601385Y-114109747D01*
X137602715Y-114103066D01*
X137638270Y-114036713D01*
X137638850Y-114035630D01*
X137994111Y-113372636D01*
X137997006Y-113369115D01*
X137998411Y-113367966D01*
X138006923Y-113365371D01*
X138008672Y-113365538D01*
G37*
%TD.AperFunction*%
%TD*%
%TA.AperFunction,Conductor*%
%TO.N,/SCL*%
G36*
X141101674Y-110838015D02*
G01*
X141103018Y-110839126D01*
X141105877Y-110842618D01*
X141496939Y-111572424D01*
X141498269Y-111576791D01*
X141498613Y-111580248D01*
X141497283Y-111586933D01*
X141105890Y-112317357D01*
X141102993Y-112320881D01*
X141101592Y-112322029D01*
X141093070Y-112324626D01*
X141091328Y-112324460D01*
X141087005Y-112323174D01*
X139812418Y-111654367D01*
X139808867Y-111651499D01*
X139806805Y-111649025D01*
X139804093Y-111641534D01*
X139804093Y-111519400D01*
X139804981Y-111514928D01*
X139806216Y-111511947D01*
X139811586Y-111506068D01*
X141079830Y-110840590D01*
X141086985Y-110836834D01*
X141091361Y-110835544D01*
X141093165Y-110835381D01*
X141101674Y-110838015D01*
G37*
%TD.AperFunction*%
%TD*%
%TA.AperFunction,Conductor*%
%TO.N,/SCL*%
G36*
X138010986Y-110825850D02*
G01*
X139289706Y-111506698D01*
X139295398Y-111513611D01*
X139295907Y-111517025D01*
X139295907Y-111642878D01*
X139292480Y-111651151D01*
X139289580Y-111653271D01*
X138010927Y-112314338D01*
X138002004Y-112315094D01*
X137995242Y-112309472D01*
X137601960Y-111575525D01*
X137601074Y-111566615D01*
X137601961Y-111564474D01*
X137632920Y-111506698D01*
X137995176Y-110830650D01*
X138002103Y-110824978D01*
X138010986Y-110825850D01*
G37*
%TD.AperFunction*%
%TD*%
%TA.AperFunction,Conductor*%
%TO.N,/SCL*%
G36*
X136859741Y-111174316D02*
G01*
X137563232Y-111549839D01*
X137594091Y-111566312D01*
X137599775Y-111573231D01*
X137600223Y-111577794D01*
X137517805Y-112404663D01*
X137513575Y-112412556D01*
X137505409Y-112415179D01*
X136196704Y-112330706D01*
X136188669Y-112326753D01*
X136185758Y-112319030D01*
X136185758Y-112173530D01*
X136187711Y-112167058D01*
X136844488Y-111178164D01*
X136851917Y-111173170D01*
X136859741Y-111174316D01*
G37*
%TD.AperFunction*%
%TD*%
%TA.AperFunction,Conductor*%
%TO.N,/SDA*%
G36*
X136793873Y-112958877D02*
G01*
X137833574Y-113292377D01*
X137837561Y-113294591D01*
X137838966Y-113295781D01*
X137843051Y-113303643D01*
X137843206Y-113305344D01*
X137842754Y-113309791D01*
X137603193Y-114102477D01*
X137601045Y-114106505D01*
X137598842Y-114109195D01*
X137593175Y-114112982D01*
X136799886Y-114352726D01*
X136795339Y-114353168D01*
X136793525Y-114352987D01*
X136785681Y-114348813D01*
X136784579Y-114347484D01*
X136782429Y-114343542D01*
X136709421Y-114112520D01*
X136526130Y-113532522D01*
X136349586Y-112973873D01*
X136349086Y-112969337D01*
X136349363Y-112966140D01*
X136352745Y-112958878D01*
X136453189Y-112858434D01*
X136456984Y-112855900D01*
X136459941Y-112854676D01*
X136467990Y-112854345D01*
X136793873Y-112958877D01*
G37*
%TD.AperFunction*%
%TD*%
%TA.AperFunction,Conductor*%
%TO.N,/SDA*%
G36*
X141500777Y-114122365D02*
G01*
X141503687Y-114125908D01*
X141895421Y-114859769D01*
X141896293Y-114868682D01*
X141891072Y-114875340D01*
X140832761Y-115503608D01*
X140826788Y-115505247D01*
X140681558Y-115505247D01*
X140673285Y-115501820D01*
X140669859Y-115493690D01*
X140667192Y-115275448D01*
X140654223Y-114214033D01*
X140657548Y-114205722D01*
X140664760Y-114202251D01*
X141492207Y-114119776D01*
X141500777Y-114122365D01*
G37*
%TD.AperFunction*%
%TD*%
%TA.AperFunction,Conductor*%
%TO.N,/SCL*%
G36*
X142059187Y-110746852D02*
G01*
X142067362Y-110750499D01*
X142069002Y-110752697D01*
X142078295Y-110768792D01*
X142079520Y-110770913D01*
X142154087Y-110845480D01*
X142154088Y-110845481D01*
X142154090Y-110845482D01*
X142245410Y-110898206D01*
X142245414Y-110898208D01*
X142325744Y-110919731D01*
X142347270Y-110925499D01*
X142347272Y-110925500D01*
X142347273Y-110925500D01*
X142452728Y-110925500D01*
X142452728Y-110925499D01*
X142503657Y-110911853D01*
X142554585Y-110898208D01*
X142554589Y-110898206D01*
X142618730Y-110861174D01*
X142645913Y-110845480D01*
X142720480Y-110770913D01*
X142720590Y-110770721D01*
X142720681Y-110770651D01*
X142720944Y-110770309D01*
X142721035Y-110770379D01*
X142727685Y-110765264D01*
X142731034Y-110764866D01*
X142877427Y-110768792D01*
X142885386Y-110772215D01*
X142974345Y-110861174D01*
X142977772Y-110869447D01*
X142975849Y-110875874D01*
X142255495Y-111971768D01*
X142248087Y-111976799D01*
X142240214Y-111975666D01*
X141506205Y-111584391D01*
X141500517Y-111577475D01*
X141500066Y-111572914D01*
X141582240Y-110744922D01*
X141586466Y-110737030D01*
X141594193Y-110734384D01*
X142059187Y-110746852D01*
G37*
%TD.AperFunction*%
%TD*%
%TA.AperFunction,Conductor*%
%TO.N,/SDA*%
G36*
X142381813Y-112689829D02*
G01*
X142382147Y-112690029D01*
X142384409Y-112691794D01*
X142484795Y-112792180D01*
X142487331Y-112795975D01*
X142488785Y-112799485D01*
X142489615Y-112805159D01*
X142347334Y-114189420D01*
X142345991Y-114193782D01*
X142345137Y-114195364D01*
X142338220Y-114201007D01*
X142336536Y-114201515D01*
X142332021Y-114201959D01*
X141507847Y-114121540D01*
X141503478Y-114120219D01*
X141500411Y-114118583D01*
X141495592Y-114113764D01*
X141105895Y-113382715D01*
X141104575Y-113378342D01*
X141104402Y-113376560D01*
X141106998Y-113368013D01*
X141108123Y-113366641D01*
X141111632Y-113363756D01*
X142367531Y-112689832D01*
X142371890Y-112688500D01*
X142374637Y-112688225D01*
X142381813Y-112689829D01*
G37*
%TD.AperFunction*%
%TD*%
%TA.AperFunction,Conductor*%
%TO.N,/GPIO2*%
G36*
X124426715Y-113418180D02*
G01*
X124430141Y-113426310D01*
X124445776Y-114705963D01*
X124442451Y-114714277D01*
X124435237Y-114717748D01*
X123607794Y-114800223D01*
X123599222Y-114797634D01*
X123596312Y-114794091D01*
X123204578Y-114060230D01*
X123203706Y-114051317D01*
X123208926Y-114044660D01*
X124267239Y-113416391D01*
X124273212Y-113414753D01*
X124418442Y-113414753D01*
X124426715Y-113418180D01*
G37*
%TD.AperFunction*%
%TD*%
M02*
