  0
SECTION
  2
HEADER
  9
$ANGBASE
  50
0.0
  9
$ANGDIR
  70
1
  9
$MEASUREMENT
  70
1
  9
$INSUNITS
  70
4
  0
ENDSEC
  0
SECTION
  2
TABLES
  0
TABLE
  2
LTYPE
  70
4
  0
LTYPE
  5
40F
  2
CONTINUOUS
  70
0
  3
Solid line
  72
65
  73
0
  40
0.0
  0
LTYPE
  5
410
  2
DASHDOT
 70
0
  3
Dash Dot ____ _ ____ _
 72
65
 73
4
 40
2.0
 49
1.25
 49
-0.25
 49
0.25
 49
-0.25
  0
LTYPE
  5
411
  2
DASHED
 70
0
  3
Dashed __ __ __ __ __
 72
65
 73
2
 40
0.75
 49
0.5
 49
-0.25
  0
LTYPE
  5
43B
  2
DOTTED
 70
0
  3
Dotted .  .  .  .
 72
65
 73
2
 40
0.2
 49
0.0
 49
-0.2
  0
ENDTAB
  0
TABLE
  2
STYLE
  70
4
  0
STYLE
  2
KICAD
  70
0
  40
0
  41
1
  42
1
  50
0
  71
0
  3
isocp.shx
  0
STYLE
  2
KICADB
  70
0
  40
0
  41
1
  42
1
  50
0
  71
0
  3
isocp.shx
  0
STYLE
  2
KICADI
  70
0
  40
0
  41
1
  42
1
  50
15
  71
0
  3
isocp.shx
  0
STYLE
  2
KICADBI
  70
0
  40
0
  41
1
  42
1
  50
15
  71
0
  3
isocp.shx
  0
ENDTAB
  0
TABLE
  2
LAYER
  70
1
  0
LAYER
  2
BLACK
  70
0
  62
250
  6
CONTINUOUS
  0
ENDTAB
  0
ENDSEC
  0
SECTION
  2
ENTITIES
0
LINE
8
BLACK
6
CONTINUOUS
10
139.0999999999999943
20
-104.4499999999999886
11
140.
21
-104.4499999999999886
0
LINE
8
BLACK
6
CONTINUOUS
10
140.
20
-104.4499999999999886
11
140.
21
-104.3100000000000023
0
LINE
8
BLACK
6
CONTINUOUS
10
140.
20
-104.3100000000000023
11
157.
21
-104.3100000000000023
0
LINE
8
BLACK
6
CONTINUOUS
10
157.
20
-104.3100000000000023
11
157.
21
-116.2999999999999972
0
LINE
8
BLACK
6
CONTINUOUS
10
157.
20
-116.2999999999999972
11
145.1500000000000057
21
-116.2999999999999972
0
LINE
8
BLACK
6
CONTINUOUS
10
145.1500000000000057
20
-116.2999999999999972
11
145.1500000000000057
21
-117.25
0
LINE
8
BLACK
6
CONTINUOUS
10
145.1500000000000057
20
-117.25
11
150.3249999999999886
21
-117.25
0
LINE
8
BLACK
6
CONTINUOUS
10
150.3249999999999886
20
-117.25
11
150.3249999999999886
21
-121.4899999999999949
0
LINE
8
BLACK
6
CONTINUOUS
10
150.3249999999999886
20
-121.4899999999999949
11
128.5749999999999886
21
-121.4899999999999949
0
LINE
8
BLACK
6
CONTINUOUS
10
128.5749999999999886
20
-121.4899999999999949
11
128.5749999999999886
21
-117.25
0
LINE
8
BLACK
6
CONTINUOUS
10
128.5749999999999886
20
-117.25
11
135.0499999999999829
21
-117.1999999999999886
0
LINE
8
BLACK
6
CONTINUOUS
10
135.0499999999999829
20
-117.1999999999999886
11
135.0499999999999829
21
-116.2999999999999972
0
LINE
8
BLACK
6
CONTINUOUS
10
135.0499999999999829
20
-116.2999999999999972
11
122.0999999999999943
21
-116.2999999999999972
0
LINE
8
BLACK
6
CONTINUOUS
10
122.0999999999999943
20
-116.2999999999999972
11
122.0999999999999943
21
-104.2999999999999972
0
LINE
8
BLACK
6
CONTINUOUS
10
122.0999999999999943
20
-104.2999999999999972
11
139.0999999999999943
21
-104.2999999999999972
0
LINE
8
BLACK
6
CONTINUOUS
10
139.0999999999999943
20
-104.2999999999999972
11
139.0999999999999943
21
-104.4499999999999886
0
CIRCLE
8
BLACK
10
143.5
20
-116.75
40
0.25
0
CIRCLE
8
BLACK
10
142.5
20
-116.75
40
0.25
0
CIRCLE
8
BLACK
10
141.5
20
-116.75
40
0.25
0
CIRCLE
8
BLACK
10
139.9499999999999886
20
-116.75
40
0.25
0
CIRCLE
8
BLACK
10
138.9499999999999886
20
-116.75
40
0.25
0
CIRCLE
8
BLACK
10
137.9499999999999886
20
-116.75
40
0.25
0
CIRCLE
8
BLACK
10
136.5
20
-116.75
40
0.25
0
CIRCLE
8
BLACK
10
135.5
20
-116.75
40
0.25
0
CIRCLE
8
BLACK
10
144.5
20
-116.75
40
0.25
0
CIRCLE
8
BLACK
10
139.5499999999999829
20
-115.8499999999999943
40
0.25
0
CIRCLE
8
BLACK
10
139.5499999999999829
20
-114.8499999999999943
40
0.25
0
CIRCLE
8
BLACK
10
139.5499999999999829
20
-113.1999999999999886
40
0.25
0
CIRCLE
8
BLACK
10
139.5499999999999829
20
-112.1999999999999886
40
0.25
0
CIRCLE
8
BLACK
10
139.5499999999999829
20
-110.8499999999999943
40
0.25
0
CIRCLE
8
BLACK
10
139.5499999999999829
20
-109.8499999999999943
40
0.25
0
CIRCLE
8
BLACK
10
139.5499999999999829
20
-108.3499999999999943
40
0.25
0
CIRCLE
8
BLACK
10
139.5499999999999829
20
-107.3499999999999943
40
0.25
0
CIRCLE
8
BLACK
10
139.5499999999999829
20
-105.8499999999999943
40
0.25
0
CIRCLE
8
BLACK
10
139.5499999999999829
20
-104.8499999999999943
40
0.25
0
CIRCLE
8
BLACK
10
130.3249999999999886
20
-119.1899999999999977
40
0.5
0
CIRCLE
8
BLACK
10
141.7249999999999943
20
-119.1899999999999977
40
0.5
0
CIRCLE
8
BLACK
10
148.5250000000000057
20
-119.1899999999999977
40
0.5
0
LINE
8
BLACK
6
CONTINUOUS
10
122.9499999999999886
20
-107.25
11
123.25
21
-107.5499999999999972
0
LINE
8
BLACK
6
CONTINUOUS
10
123.25
20
-107.25
11
122.9499999999999886
21
-107.5499999999999972
0
LINE
8
BLACK
6
CONTINUOUS
10
122.9499999999999886
20
-113.0499999999999972
11
123.25
21
-113.3499999999999943
0
LINE
8
BLACK
6
CONTINUOUS
10
123.25
20
-113.0499999999999972
11
122.9499999999999886
21
-113.3499999999999943
0
LINE
8
BLACK
6
CONTINUOUS
10
123.0999999999999943
20
-110.0499999999999972
11
123.3999999999999915
21
-110.3499999999999943
0
LINE
8
BLACK
6
CONTINUOUS
10
123.3999999999999915
20
-110.0499999999999972
11
123.0999999999999943
21
-110.3499999999999943
0
LINE
8
BLACK
6
CONTINUOUS
10
124.8499999999999943
20
-112.5999999999999943
11
125.1499999999999915
21
-112.8999999999999915
0
LINE
8
BLACK
6
CONTINUOUS
10
125.1499999999999915
20
-112.5999999999999943
11
124.8499999999999943
21
-112.8999999999999915
0
LINE
8
BLACK
6
CONTINUOUS
10
124.8499999999999943
20
-115.4499999999999886
11
125.1499999999999915
21
-115.75
0
LINE
8
BLACK
6
CONTINUOUS
10
125.1499999999999915
20
-115.4499999999999886
11
124.8499999999999943
21
-115.75
0
LINE
8
BLACK
6
CONTINUOUS
10
124.8999999999999915
20
-110.1499999999999915
11
125.1999999999999886
21
-110.4499999999999886
0
LINE
8
BLACK
6
CONTINUOUS
10
125.1999999999999886
20
-110.1499999999999915
11
124.8999999999999915
21
-110.4499999999999886
0
LINE
8
BLACK
6
CONTINUOUS
10
124.9499999999999886
20
-104.9499999999999886
11
125.25
21
-105.25
0
LINE
8
BLACK
6
CONTINUOUS
10
125.25
20
-104.9499999999999886
11
124.9499999999999886
21
-105.25
0
LINE
8
BLACK
6
CONTINUOUS
10
124.9599999999999937
20
-109.3499999999999943
11
125.2599999999999909
21
-109.6499999999999915
0
LINE
8
BLACK
6
CONTINUOUS
10
125.2599999999999909
20
-109.3499999999999943
11
124.9599999999999937
21
-109.6499999999999915
0
LINE
8
BLACK
6
CONTINUOUS
10
124.9599999999999937
20
-110.9499999999999886
11
125.2599999999999909
21
-111.25
0
LINE
8
BLACK
6
CONTINUOUS
10
125.2599999999999909
20
-110.9499999999999886
11
124.9599999999999937
21
-111.25
0
LINE
8
BLACK
6
CONTINUOUS
10
124.9599999999999937
20
-111.75
11
125.2599999999999909
21
-112.0499999999999972
0
LINE
8
BLACK
6
CONTINUOUS
10
125.2599999999999909
20
-111.75
11
124.9599999999999937
21
-112.0499999999999972
0
LINE
8
BLACK
6
CONTINUOUS
10
125.5
20
-106.1499999999999915
11
125.7999999999999972
21
-106.4499999999999886
0
LINE
8
BLACK
6
CONTINUOUS
10
125.7999999999999972
20
-106.1499999999999915
11
125.5
21
-106.4499999999999886
0
LINE
8
BLACK
6
CONTINUOUS
10
125.8999999999999915
20
-108.
11
126.1999999999999886
21
-108.2999999999999972
0
LINE
8
BLACK
6
CONTINUOUS
10
126.1999999999999886
20
-108.
11
125.8999999999999915
21
-108.2999999999999972
0
LINE
8
BLACK
6
CONTINUOUS
10
126.1499999999999915
20
-110.2999999999999972
11
126.4499999999999886
21
-110.5999999999999943
0
LINE
8
BLACK
6
CONTINUOUS
10
126.4499999999999886
20
-110.2999999999999972
11
126.1499999999999915
21
-110.5999999999999943
0
LINE
8
BLACK
6
CONTINUOUS
10
126.5999999999999943
20
-108.
11
126.8999999999999915
21
-108.2999999999999972
0
LINE
8
BLACK
6
CONTINUOUS
10
126.8999999999999915
20
-108.
11
126.5999999999999943
21
-108.2999999999999972
0
LINE
8
BLACK
6
CONTINUOUS
10
126.8999999999999915
20
-113.2999999999999972
11
127.1999999999999886
21
-113.5999999999999943
0
LINE
8
BLACK
6
CONTINUOUS
10
127.1999999999999886
20
-113.2999999999999972
11
126.8999999999999915
21
-113.5999999999999943
0
LINE
8
BLACK
6
CONTINUOUS
10
127.25
20
-106.2349999999999994
11
127.5499999999999972
21
-106.5349999999999966
0
LINE
8
BLACK
6
CONTINUOUS
10
127.5499999999999972
20
-106.2349999999999994
11
127.25
21
-106.5349999999999966
0
LINE
8
BLACK
6
CONTINUOUS
10
127.2999999999999972
20
-108.
11
127.5999999999999943
21
-108.2999999999999972
0
LINE
8
BLACK
6
CONTINUOUS
10
127.5999999999999943
20
-108.
11
127.2999999999999972
21
-108.2999999999999972
0
LINE
8
BLACK
6
CONTINUOUS
10
127.8249999999999886
20
-104.6499999999999915
11
128.125
21
-104.9499999999999886
0
LINE
8
BLACK
6
CONTINUOUS
10
128.125
20
-104.6499999999999915
11
127.8249999999999886
21
-104.9499999999999886
0
LINE
8
BLACK
6
CONTINUOUS
10
128.0199999999999818
20
-108.
11
128.3199999999999932
21
-108.2999999999999972
0
LINE
8
BLACK
6
CONTINUOUS
10
128.3199999999999932
20
-108.
11
128.0199999999999818
21
-108.2999999999999972
0
LINE
8
BLACK
6
CONTINUOUS
10
128.6999999999999886
20
-108.1499999999999915
11
129.
21
-108.4499999999999886
0
LINE
8
BLACK
6
CONTINUOUS
10
129.
20
-108.1499999999999915
11
128.6999999999999886
21
-108.4499999999999886
0
LINE
8
BLACK
6
CONTINUOUS
10
129.9499999999999886
20
-110.25
11
130.25
21
-110.5499999999999972
0
LINE
8
BLACK
6
CONTINUOUS
10
130.25
20
-110.25
11
129.9499999999999886
21
-110.5499999999999972
0
LINE
8
BLACK
6
CONTINUOUS
10
130.0499999999999829
20
-105.5499999999999972
11
130.3499999999999943
21
-105.8499999999999943
0
LINE
8
BLACK
6
CONTINUOUS
10
130.3499999999999943
20
-105.5499999999999972
11
130.0499999999999829
21
-105.8499999999999943
0
LINE
8
BLACK
6
CONTINUOUS
10
130.0999999999999943
20
-108.1499999999999915
11
130.4000000000000057
21
-108.4499999999999886
0
LINE
8
BLACK
6
CONTINUOUS
10
130.4000000000000057
20
-108.1499999999999915
11
130.0999999999999943
21
-108.4499999999999886
0
LINE
8
BLACK
6
CONTINUOUS
10
130.7999999999999829
20
-108.1499999999999915
11
131.0999999999999943
21
-108.4499999999999886
0
LINE
8
BLACK
6
CONTINUOUS
10
131.0999999999999943
20
-108.1499999999999915
11
130.7999999999999829
21
-108.4499999999999886
0
LINE
8
BLACK
6
CONTINUOUS
10
130.7999999999999829
20
-109.3999999999999915
11
131.0999999999999943
21
-109.6999999999999886
0
LINE
8
BLACK
6
CONTINUOUS
10
131.0999999999999943
20
-109.3999999999999915
11
130.7999999999999829
21
-109.6999999999999886
0
LINE
8
BLACK
6
CONTINUOUS
10
131.4000000000000057
20
-105.1499999999999915
11
131.6999999999999886
21
-105.4499999999999886
0
LINE
8
BLACK
6
CONTINUOUS
10
131.6999999999999886
20
-105.1499999999999915
11
131.4000000000000057
21
-105.4499999999999886
0
LINE
8
BLACK
6
CONTINUOUS
10
131.5
20
-108.1499999999999915
11
131.7999999999999829
21
-108.4499999999999886
0
LINE
8
BLACK
6
CONTINUOUS
10
131.7999999999999829
20
-108.1499999999999915
11
131.5
21
-108.4499999999999886
0
LINE
8
BLACK
6
CONTINUOUS
10
132.0499999999999829
20
-111.5499999999999972
11
132.3499999999999943
21
-111.8499999999999943
0
LINE
8
BLACK
6
CONTINUOUS
10
132.3499999999999943
20
-111.5499999999999972
11
132.0499999999999829
21
-111.8499999999999943
0
LINE
8
BLACK
6
CONTINUOUS
10
132.125
20
-120.414999999999992
11
132.4249999999999829
21
-120.7149999999999892
0
LINE
8
BLACK
6
CONTINUOUS
10
132.4249999999999829
20
-120.414999999999992
11
132.125
21
-120.7149999999999892
0
LINE
8
BLACK
6
CONTINUOUS
10
132.1999999999999886
20
-108.1499999999999915
11
132.5
21
-108.4499999999999886
0
LINE
8
BLACK
6
CONTINUOUS
10
132.5
20
-108.1499999999999915
11
132.1999999999999886
21
-108.4499999999999886
0
LINE
8
BLACK
6
CONTINUOUS
10
132.4000000000000057
20
-118.7399999999999949
11
132.6999999999999886
21
-119.039999999999992
0
LINE
8
BLACK
6
CONTINUOUS
10
132.6999999999999886
20
-118.7399999999999949
11
132.4000000000000057
21
-119.039999999999992
0
LINE
8
BLACK
6
CONTINUOUS
10
132.7999999999999829
20
-106.0999999999999943
11
133.0999999999999943
21
-106.3999999999999915
0
LINE
8
BLACK
6
CONTINUOUS
10
133.0999999999999943
20
-106.0999999999999943
11
132.7999999999999829
21
-106.3999999999999915
0
LINE
8
BLACK
6
CONTINUOUS
10
132.9000000000000057
20
-108.1499999999999915
11
133.1999999999999886
21
-108.4499999999999886
0
LINE
8
BLACK
6
CONTINUOUS
10
133.1999999999999886
20
-108.1499999999999915
11
132.9000000000000057
21
-108.4499999999999886
0
LINE
8
BLACK
6
CONTINUOUS
10
133.1500000000000057
20
-120.6149999999999949
11
133.4499999999999886
21
-120.914999999999992
0
LINE
8
BLACK
6
CONTINUOUS
10
133.4499999999999886
20
-120.6149999999999949
11
133.1500000000000057
21
-120.914999999999992
0
LINE
8
BLACK
6
CONTINUOUS
10
133.5250000000000057
20
-118.9899999999999949
11
133.8249999999999886
21
-119.289999999999992
0
LINE
8
BLACK
6
CONTINUOUS
10
133.8249999999999886
20
-118.9899999999999949
11
133.5250000000000057
21
-119.289999999999992
0
LINE
8
BLACK
6
CONTINUOUS
10
133.5999999999999943
20
-109.1999999999999886
11
133.9000000000000057
21
-109.5
0
LINE
8
BLACK
6
CONTINUOUS
10
133.9000000000000057
20
-109.1999999999999886
11
133.5999999999999943
21
-109.5
0
LINE
8
BLACK
6
CONTINUOUS
10
134.2750000000000057
20
-120.1400000000000006
11
134.5749999999999886
21
-120.4399999999999977
0
LINE
8
BLACK
6
CONTINUOUS
10
134.5749999999999886
20
-120.1400000000000006
11
134.2750000000000057
21
-120.4399999999999977
0
LINE
8
BLACK
6
CONTINUOUS
10
134.2999999999999829
20
-107.0999999999999943
11
134.5999999999999943
21
-107.3999999999999915
0
LINE
8
BLACK
6
CONTINUOUS
10
134.5999999999999943
20
-107.0999999999999943
11
134.2999999999999829
21
-107.3999999999999915
0
LINE
8
BLACK
6
CONTINUOUS
10
134.9499999999999886
20
-113.25
11
135.25
21
-113.5499999999999972
0
LINE
8
BLACK
6
CONTINUOUS
10
135.25
20
-113.25
11
134.9499999999999886
21
-113.5499999999999972
0
LINE
8
BLACK
6
CONTINUOUS
10
135.3249999999999886
20
-118.8399999999999892
11
135.625
21
-119.1400000000000006
0
LINE
8
BLACK
6
CONTINUOUS
10
135.625
20
-118.8399999999999892
11
135.3249999999999886
21
-119.1400000000000006
0
LINE
8
BLACK
6
CONTINUOUS
10
135.8499999999999943
20
-107.5999999999999943
11
136.1500000000000057
21
-107.8999999999999915
0
LINE
8
BLACK
6
CONTINUOUS
10
136.1500000000000057
20
-107.5999999999999943
11
135.8499999999999943
21
-107.8999999999999915
0
LINE
8
BLACK
6
CONTINUOUS
10
135.9000000000000057
20
-108.3599999999999994
11
136.1999999999999886
21
-108.6599999999999966
0
LINE
8
BLACK
6
CONTINUOUS
10
136.1999999999999886
20
-108.3599999999999994
11
135.9000000000000057
21
-108.6599999999999966
0
LINE
8
BLACK
6
CONTINUOUS
10
136.0499999999999829
20
-104.6999999999999886
11
136.3499999999999943
21
-105.
0
LINE
8
BLACK
6
CONTINUOUS
10
136.3499999999999943
20
-104.6999999999999886
11
136.0499999999999829
21
-105.
0
LINE
8
BLACK
6
CONTINUOUS
10
136.1500000000000057
20
-106.1999999999999886
11
136.4499999999999886
21
-106.5
0
LINE
8
BLACK
6
CONTINUOUS
10
136.4499999999999886
20
-106.1999999999999886
11
136.1500000000000057
21
-106.5
0
LINE
8
BLACK
6
CONTINUOUS
10
136.3499999999999943
20
-115.4499999999999886
11
136.6500000000000057
21
-115.75
0
LINE
8
BLACK
6
CONTINUOUS
10
136.6500000000000057
20
-115.4499999999999886
11
136.3499999999999943
21
-115.75
0
LINE
8
BLACK
6
CONTINUOUS
10
136.625
20
-118.9899999999999949
11
136.9249999999999829
21
-119.289999999999992
0
LINE
8
BLACK
6
CONTINUOUS
10
136.9249999999999829
20
-118.9899999999999949
11
136.625
21
-119.289999999999992
0
LINE
8
BLACK
6
CONTINUOUS
10
137.625
20
-117.6899999999999977
11
137.9249999999999829
21
-117.9899999999999949
0
LINE
8
BLACK
6
CONTINUOUS
10
137.9249999999999829
20
-117.6899999999999977
11
137.625
21
-117.9899999999999949
0
LINE
8
BLACK
6
CONTINUOUS
10
137.9499999999999886
20
-107.5999999999999943
11
138.25
21
-107.8999999999999915
0
LINE
8
BLACK
6
CONTINUOUS
10
138.25
20
-107.5999999999999943
11
137.9499999999999886
21
-107.8999999999999915
0
LINE
8
BLACK
6
CONTINUOUS
10
137.9499999999999886
20
-112.6499999999999915
11
138.25
21
-112.9499999999999886
0
LINE
8
BLACK
6
CONTINUOUS
10
138.25
20
-112.6499999999999915
11
137.9499999999999886
21
-112.9499999999999886
0
LINE
8
BLACK
6
CONTINUOUS
10
137.9499999999999886
20
-115.2999999999999972
11
138.25
21
-115.5999999999999943
0
LINE
8
BLACK
6
CONTINUOUS
10
138.25
20
-115.2999999999999972
11
137.9499999999999886
21
-115.5999999999999943
0
LINE
8
BLACK
6
CONTINUOUS
10
138.
20
-110.1499999999999915
11
138.2999999999999829
21
-110.4499999999999886
0
LINE
8
BLACK
6
CONTINUOUS
10
138.2999999999999829
20
-110.1499999999999915
11
138.
21
-110.4499999999999886
0
LINE
8
BLACK
6
CONTINUOUS
10
138.0499999999999829
20
-104.7999999999999972
11
138.3499999999999943
21
-105.0999999999999943
0
LINE
8
BLACK
6
CONTINUOUS
10
138.3499999999999943
20
-104.7999999999999972
11
138.0499999999999829
21
-105.0999999999999943
0
LINE
8
BLACK
6
CONTINUOUS
10
138.7750000000000057
20
-118.1899999999999977
11
139.0749999999999886
21
-118.4899999999999949
0
LINE
8
BLACK
6
CONTINUOUS
10
139.0749999999999886
20
-118.1899999999999977
11
138.7750000000000057
21
-118.4899999999999949
0
LINE
8
BLACK
6
CONTINUOUS
10
139.875
20
-120.1899999999999977
11
140.1749999999999829
21
-120.4899999999999949
0
LINE
8
BLACK
6
CONTINUOUS
10
140.1749999999999829
20
-120.1899999999999977
11
139.875
21
-120.4899999999999949
0
LINE
8
BLACK
6
CONTINUOUS
10
140.5999999999999943
20
-118.0649999999999977
11
140.9000000000000057
21
-118.3649999999999949
0
LINE
8
BLACK
6
CONTINUOUS
10
140.9000000000000057
20
-118.0649999999999977
11
140.5999999999999943
21
-118.3649999999999949
0
LINE
8
BLACK
6
CONTINUOUS
10
140.75
20
-107.5499999999999972
11
141.0499999999999829
21
-107.8499999999999943
0
LINE
8
BLACK
6
CONTINUOUS
10
141.0499999999999829
20
-107.5499999999999972
11
140.75
21
-107.8499999999999943
0
LINE
8
BLACK
6
CONTINUOUS
10
140.75
20
-110.0999999999999943
11
141.0499999999999829
21
-110.3999999999999915
0
LINE
8
BLACK
6
CONTINUOUS
10
141.0499999999999829
20
-110.0999999999999943
11
140.75
21
-110.3999999999999915
0
LINE
8
BLACK
6
CONTINUOUS
10
140.75
20
-112.6999999999999886
11
141.0499999999999829
21
-113.
0
LINE
8
BLACK
6
CONTINUOUS
10
141.0499999999999829
20
-112.6999999999999886
11
140.75
21
-113.
0
LINE
8
BLACK
6
CONTINUOUS
10
141.7249999999999943
20
-120.3399999999999892
11
142.0250000000000057
21
-120.6400000000000006
0
LINE
8
BLACK
6
CONTINUOUS
10
142.0250000000000057
20
-120.3399999999999892
11
141.7249999999999943
21
-120.6400000000000006
0
LINE
8
BLACK
6
CONTINUOUS
10
142.25
20
-110.375
11
142.5499999999999829
21
-110.6749999999999972
0
LINE
8
BLACK
6
CONTINUOUS
10
142.5499999999999829
20
-110.375
11
142.25
21
-110.6749999999999972
0
LINE
8
BLACK
6
CONTINUOUS
10
142.25
20
-115.5499999999999972
11
142.5499999999999829
21
-115.8499999999999943
0
LINE
8
BLACK
6
CONTINUOUS
10
142.5499999999999829
20
-115.5499999999999972
11
142.25
21
-115.8499999999999943
0
LINE
8
BLACK
6
CONTINUOUS
10
142.9499999999999886
20
-118.0899999999999892
11
143.25
21
-118.3900000000000006
0
LINE
8
BLACK
6
CONTINUOUS
10
143.25
20
-118.0899999999999892
11
142.9499999999999886
21
-118.3900000000000006
0
LINE
8
BLACK
6
CONTINUOUS
10
143.
20
-112.6749999999999972
11
143.2999999999999829
21
-112.9749999999999943
0
LINE
8
BLACK
6
CONTINUOUS
10
143.2999999999999829
20
-112.6749999999999972
11
143.
21
-112.9749999999999943
0
LINE
8
BLACK
6
CONTINUOUS
10
143.0499999999999829
20
-104.6999999999999886
11
143.3499999999999943
21
-105.
0
LINE
8
BLACK
6
CONTINUOUS
10
143.3499999999999943
20
-104.6999999999999886
11
143.0499999999999829
21
-105.
0
LINE
8
BLACK
6
CONTINUOUS
10
143.25
20
-106.6999999999999886
11
143.5499999999999829
21
-107.
0
LINE
8
BLACK
6
CONTINUOUS
10
143.5499999999999829
20
-106.6999999999999886
11
143.25
21
-107.
0
LINE
8
BLACK
6
CONTINUOUS
10
143.7999999999999829
20
-113.6499999999999915
11
144.0999999999999943
21
-113.9499999999999886
0
LINE
8
BLACK
6
CONTINUOUS
10
144.0999999999999943
20
-113.6499999999999915
11
143.7999999999999829
21
-113.9499999999999886
0
LINE
8
BLACK
6
CONTINUOUS
10
143.9749999999999943
20
-118.039999999999992
11
144.2750000000000057
21
-118.3399999999999892
0
LINE
8
BLACK
6
CONTINUOUS
10
144.2750000000000057
20
-118.039999999999992
11
143.9749999999999943
21
-118.3399999999999892
0
LINE
8
BLACK
6
CONTINUOUS
10
143.9749999999999943
20
-120.039999999999992
11
144.2750000000000057
21
-120.3399999999999892
0
LINE
8
BLACK
6
CONTINUOUS
10
144.2750000000000057
20
-120.039999999999992
11
143.9749999999999943
21
-120.3399999999999892
0
LINE
8
BLACK
6
CONTINUOUS
10
144.
20
-111.5999999999999943
11
144.2999999999999829
21
-111.8999999999999915
0
LINE
8
BLACK
6
CONTINUOUS
10
144.2999999999999829
20
-111.5999999999999943
11
144.
21
-111.8999999999999915
0
LINE
8
BLACK
6
CONTINUOUS
10
144.5499999999999829
20
-110.3999999999999915
11
144.8499999999999943
21
-110.6999999999999886
0
LINE
8
BLACK
6
CONTINUOUS
10
144.8499999999999943
20
-110.3999999999999915
11
144.5499999999999829
21
-110.6999999999999886
0
LINE
8
BLACK
6
CONTINUOUS
10
144.9749999999999943
20
-118.9649999999999892
11
145.2750000000000057
21
-119.2650000000000006
0
LINE
8
BLACK
6
CONTINUOUS
10
145.2750000000000057
20
-118.9649999999999892
11
144.9749999999999943
21
-119.2650000000000006
0
LINE
8
BLACK
6
CONTINUOUS
10
145.4749999999999943
20
-106.3249999999999886
11
145.7750000000000057
21
-106.625
0
LINE
8
BLACK
6
CONTINUOUS
10
145.7750000000000057
20
-106.3249999999999886
11
145.4749999999999943
21
-106.625
0
LINE
8
BLACK
6
CONTINUOUS
10
145.9499999999999886
20
-115.5499999999999972
11
146.25
21
-115.8499999999999943
0
LINE
8
BLACK
6
CONTINUOUS
10
146.25
20
-115.5499999999999972
11
145.9499999999999886
21
-115.8499999999999943
0
LINE
8
BLACK
6
CONTINUOUS
10
145.9749999999999943
20
-118.039999999999992
11
146.2750000000000057
21
-118.3399999999999892
0
LINE
8
BLACK
6
CONTINUOUS
10
146.2750000000000057
20
-118.039999999999992
11
145.9749999999999943
21
-118.3399999999999892
0
LINE
8
BLACK
6
CONTINUOUS
10
145.9749999999999943
20
-120.039999999999992
11
146.2750000000000057
21
-120.3399999999999892
0
LINE
8
BLACK
6
CONTINUOUS
10
146.2750000000000057
20
-120.039999999999992
11
145.9749999999999943
21
-120.3399999999999892
0
LINE
8
BLACK
6
CONTINUOUS
10
147.75
20
-104.7999999999999972
11
148.0499999999999829
21
-105.0999999999999943
0
LINE
8
BLACK
6
CONTINUOUS
10
148.0499999999999829
20
-104.7999999999999972
11
147.75
21
-105.0999999999999943
0
LINE
8
BLACK
6
CONTINUOUS
10
147.7999999999999829
20
-111.5999999999999943
11
148.0999999999999943
21
-111.8999999999999915
0
LINE
8
BLACK
6
CONTINUOUS
10
148.0999999999999943
20
-111.5999999999999943
11
147.7999999999999829
21
-111.8999999999999915
0
LINE
8
BLACK
6
CONTINUOUS
10
147.8499999999999943
20
-106.3999999999999915
11
148.1500000000000057
21
-106.6999999999999886
0
LINE
8
BLACK
6
CONTINUOUS
10
148.1500000000000057
20
-106.3999999999999915
11
147.8499999999999943
21
-106.6999999999999886
0
LINE
8
BLACK
6
CONTINUOUS
10
147.8499999999999943
20
-107.6499999999999915
11
148.1500000000000057
21
-107.9499999999999886
0
LINE
8
BLACK
6
CONTINUOUS
10
148.1500000000000057
20
-107.6499999999999915
11
147.8499999999999943
21
-107.9499999999999886
0
LINE
8
BLACK
6
CONTINUOUS
10
147.9000000000000057
20
-110.2999999999999972
11
148.1999999999999886
21
-110.5999999999999943
0
LINE
8
BLACK
6
CONTINUOUS
10
148.1999999999999886
20
-110.2999999999999972
11
147.9000000000000057
21
-110.5999999999999943
0
LINE
8
BLACK
6
CONTINUOUS
10
147.9000000000000057
20
-113.3999999999999915
11
148.1999999999999886
21
-113.6999999999999886
0
LINE
8
BLACK
6
CONTINUOUS
10
148.1999999999999886
20
-113.3999999999999915
11
147.9000000000000057
21
-113.6999999999999886
0
LINE
8
BLACK
6
CONTINUOUS
10
148.6500000000000057
20
-114.3999999999999915
11
148.9499999999999886
21
-114.6999999999999886
0
LINE
8
BLACK
6
CONTINUOUS
10
148.9499999999999886
20
-114.3999999999999915
11
148.6500000000000057
21
-114.6999999999999886
0
LINE
8
BLACK
6
CONTINUOUS
10
149.3499999999999943
20
-115.0499999999999972
11
149.6500000000000057
21
-115.3499999999999943
0
LINE
8
BLACK
6
CONTINUOUS
10
149.6500000000000057
20
-115.0499999999999972
11
149.3499999999999943
21
-115.3499999999999943
0
LINE
8
BLACK
6
CONTINUOUS
10
149.75
20
-105.9499999999999886
11
150.0499999999999829
21
-106.25
0
LINE
8
BLACK
6
CONTINUOUS
10
150.0499999999999829
20
-105.9499999999999886
11
149.75
21
-106.25
0
LINE
8
BLACK
6
CONTINUOUS
10
149.9000000000000057
20
-111.1400000000000006
11
150.1999999999999886
21
-111.4399999999999977
0
LINE
8
BLACK
6
CONTINUOUS
10
150.1999999999999886
20
-111.1400000000000006
11
149.9000000000000057
21
-111.4399999999999977
0
LINE
8
BLACK
6
CONTINUOUS
10
150.1999999999999886
20
-106.5999999999999943
11
150.5
21
-106.8999999999999915
0
LINE
8
BLACK
6
CONTINUOUS
10
150.5
20
-106.5999999999999943
11
150.1999999999999886
21
-106.8999999999999915
0
LINE
8
BLACK
6
CONTINUOUS
10
150.3499999999999943
20
-115.0499999999999972
11
150.6500000000000057
21
-115.3499999999999943
0
LINE
8
BLACK
6
CONTINUOUS
10
150.6500000000000057
20
-115.0499999999999972
11
150.3499999999999943
21
-115.3499999999999943
0
LINE
8
BLACK
6
CONTINUOUS
10
151.
20
-114.3999999999999915
11
151.2999999999999829
21
-114.6999999999999886
0
LINE
8
BLACK
6
CONTINUOUS
10
151.2999999999999829
20
-114.3999999999999915
11
151.
21
-114.6999999999999886
0
LINE
8
BLACK
6
CONTINUOUS
10
151.0499999999999829
20
-104.6999999999999886
11
151.3499999999999943
21
-105.
0
LINE
8
BLACK
6
CONTINUOUS
10
151.3499999999999943
20
-104.6999999999999886
11
151.0499999999999829
21
-105.
0
LINE
8
BLACK
6
CONTINUOUS
10
151.75
20
-105.1499999999999915
11
152.0499999999999829
21
-105.4499999999999886
0
LINE
8
BLACK
6
CONTINUOUS
10
152.0499999999999829
20
-105.1499999999999915
11
151.75
21
-105.4499999999999886
0
LINE
8
BLACK
6
CONTINUOUS
10
151.8499999999999943
20
-111.4499999999999886
11
152.1500000000000057
21
-111.75
0
LINE
8
BLACK
6
CONTINUOUS
10
152.1500000000000057
20
-111.4499999999999886
11
151.8499999999999943
21
-111.75
0
LINE
8
BLACK
6
CONTINUOUS
10
151.8499999999999943
20
-113.6499999999999915
11
152.1500000000000057
21
-113.9499999999999886
0
LINE
8
BLACK
6
CONTINUOUS
10
152.1500000000000057
20
-113.6499999999999915
11
151.8499999999999943
21
-113.9499999999999886
0
LINE
8
BLACK
6
CONTINUOUS
10
151.8499999999999943
20
-115.5499999999999972
11
152.1500000000000057
21
-115.8499999999999943
0
LINE
8
BLACK
6
CONTINUOUS
10
152.1500000000000057
20
-115.5499999999999972
11
151.8499999999999943
21
-115.8499999999999943
0
LINE
8
BLACK
6
CONTINUOUS
10
152.1500000000000057
20
-106.3999999999999915
11
152.4499999999999886
21
-106.6999999999999886
0
LINE
8
BLACK
6
CONTINUOUS
10
152.4499999999999886
20
-106.3999999999999915
11
152.1500000000000057
21
-106.6999999999999886
0
LINE
8
BLACK
6
CONTINUOUS
10
152.6999999999999886
20
-106.8499999999999943
11
153.
21
-107.1499999999999915
0
LINE
8
BLACK
6
CONTINUOUS
10
153.
20
-106.8499999999999943
11
152.6999999999999886
21
-107.1499999999999915
0
LINE
8
BLACK
6
CONTINUOUS
10
152.9000000000000057
20
-110.
11
153.1999999999999886
21
-110.2999999999999972
0
LINE
8
BLACK
6
CONTINUOUS
10
153.1999999999999886
20
-110.
11
152.9000000000000057
21
-110.2999999999999972
0
LINE
8
BLACK
6
CONTINUOUS
10
153.8499999999999943
20
-108.539999999999992
11
154.1500000000000057
21
-108.8399999999999892
0
LINE
8
BLACK
6
CONTINUOUS
10
154.1500000000000057
20
-108.539999999999992
11
153.8499999999999943
21
-108.8399999999999892
0
LINE
8
BLACK
6
CONTINUOUS
10
153.8499999999999943
20
-110.9399999999999977
11
154.1500000000000057
21
-111.2399999999999949
0
LINE
8
BLACK
6
CONTINUOUS
10
154.1500000000000057
20
-110.9399999999999977
11
153.8499999999999943
21
-111.2399999999999949
0
LINE
8
BLACK
6
CONTINUOUS
10
153.8499999999999943
20
-111.7399999999999949
11
154.1500000000000057
21
-112.039999999999992
0
LINE
8
BLACK
6
CONTINUOUS
10
154.1500000000000057
20
-111.7399999999999949
11
153.8499999999999943
21
-112.039999999999992
0
LINE
8
BLACK
6
CONTINUOUS
10
153.9000000000000057
20
-104.6999999999999886
11
154.1999999999999886
21
-105.
0
LINE
8
BLACK
6
CONTINUOUS
10
154.1999999999999886
20
-104.6999999999999886
11
153.9000000000000057
21
-105.
0
LINE
8
BLACK
6
CONTINUOUS
10
153.9000000000000057
20
-105.6999999999999886
11
154.1999999999999886
21
-106.
0
LINE
8
BLACK
6
CONTINUOUS
10
154.1999999999999886
20
-105.6999999999999886
11
153.9000000000000057
21
-106.
0
LINE
8
BLACK
6
CONTINUOUS
10
154.1999999999999886
20
-107.5
11
154.5
21
-107.7999999999999972
0
LINE
8
BLACK
6
CONTINUOUS
10
154.5
20
-107.5
11
154.1999999999999886
21
-107.7999999999999972
0
LINE
8
BLACK
6
CONTINUOUS
10
154.3249999999999886
20
-112.5999999999999943
11
154.625
21
-112.8999999999999915
0
LINE
8
BLACK
6
CONTINUOUS
10
154.625
20
-112.5999999999999943
11
154.3249999999999886
21
-112.8999999999999915
0
LINE
8
BLACK
6
CONTINUOUS
10
155.7999999999999829
20
-107.2399999999999949
11
156.0999999999999943
21
-107.539999999999992
0
LINE
8
BLACK
6
CONTINUOUS
10
156.0999999999999943
20
-107.2399999999999949
11
155.7999999999999829
21
-107.539999999999992
0
LINE
8
BLACK
6
CONTINUOUS
10
155.7999999999999829
20
-113.039999999999992
11
156.0999999999999943
21
-113.3399999999999892
0
LINE
8
BLACK
6
CONTINUOUS
10
156.0999999999999943
20
-113.039999999999992
11
155.7999999999999829
21
-113.3399999999999892
0
LINE
8
BLACK
6
CONTINUOUS
10
156.0499999999999829
20
-109.9749999999999943
11
156.3499999999999943
21
-110.2749999999999915
0
LINE
8
BLACK
6
CONTINUOUS
10
156.3499999999999943
20
-109.9749999999999943
11
156.0499999999999829
21
-110.2749999999999915
0
CIRCLE
8
BLACK
10
123.5999999999999943
20
-105.7999999999999972
40
0.5
0
CIRCLE
8
BLACK
10
123.5999999999999943
20
-114.7999999999999972
40
0.5
0
CIRCLE
8
BLACK
10
137.5999999999999943
20
-106.4899999999999949
40
0.5
0
CIRCLE
8
BLACK
10
137.5999999999999943
20
-109.0300000000000011
40
0.5
0
CIRCLE
8
BLACK
10
137.5999999999999943
20
-111.5699999999999932
40
0.5
0
CIRCLE
8
BLACK
10
137.5999999999999943
20
-114.1099999999999994
40
0.5
0
CIRCLE
8
BLACK
10
141.5
20
-106.5
40
0.5
0
CIRCLE
8
BLACK
10
141.5
20
-109.039999999999992
40
0.5
0
CIRCLE
8
BLACK
10
141.5
20
-111.5799999999999983
40
0.5
0
CIRCLE
8
BLACK
10
141.5
20
-114.1199999999999903
40
0.5
0
CIRCLE
8
BLACK
10
155.5
20
-105.8100000000000023
40
0.5
0
CIRCLE
8
BLACK
10
155.5
20
-114.8099999999999881
40
0.5
0
LINE
8
BLACK
6
CONTINUOUS
10
124.6827679999999958
20
-124.6298379999999923
11
124.6827679999999958
21
-122.6298379999999923
0
LINE
8
BLACK
6
CONTINUOUS
10
124.6827679999999958
20
-122.6298379999999923
11
125.1589579999999984
21
-122.6298379999999923
0
LINE
8
BLACK
6
CONTINUOUS
10
125.1589579999999984
20
-122.6298379999999923
11
125.4446729999999945
21
-122.7250760000000014
0
LINE
8
BLACK
6
CONTINUOUS
10
125.4446729999999945
20
-122.7250760000000014
11
125.6351489999999984
21
-122.915551999999991
0
LINE
8
BLACK
6
CONTINUOUS
10
125.6351489999999984
20
-122.915551999999991
11
125.7303869999999932
21
-123.1060279999999949
0
LINE
8
BLACK
6
CONTINUOUS
10
125.7303869999999932
20
-123.1060279999999949
11
125.8256249999999881
21
-123.4869799999999884
0
LINE
8
BLACK
6
CONTINUOUS
10
125.8256249999999881
20
-123.4869799999999884
11
125.8256249999999881
21
-123.7726949999999988
0
LINE
8
BLACK
6
CONTINUOUS
10
125.8256249999999881
20
-123.7726949999999988
11
125.7303869999999932
21
-124.1536469999999923
0
LINE
8
BLACK
6
CONTINUOUS
10
125.7303869999999932
20
-124.1536469999999923
11
125.6351489999999984
21
-124.3441229999999962
0
LINE
8
BLACK
6
CONTINUOUS
10
125.6351489999999984
20
-124.3441229999999962
11
125.4446729999999945
21
-124.5345999999999975
0
LINE
8
BLACK
6
CONTINUOUS
10
125.4446729999999945
20
-124.5345999999999975
11
125.1589579999999984
21
-124.6298379999999923
0
LINE
8
BLACK
6
CONTINUOUS
10
125.1589579999999984
20
-124.6298379999999923
11
124.6827679999999958
21
-124.6298379999999923
0
LINE
8
BLACK
6
CONTINUOUS
10
126.6827679999999958
20
-124.6298379999999923
11
126.6827679999999958
21
-123.2965039999999988
0
LINE
8
BLACK
6
CONTINUOUS
10
126.6827679999999958
20
-123.6774569999999898
11
126.7780059999999906
21
-123.4869799999999884
0
LINE
8
BLACK
6
CONTINUOUS
10
126.7780059999999906
20
-123.4869799999999884
11
126.8732439999999997
21
-123.3917419999999936
0
LINE
8
BLACK
6
CONTINUOUS
10
126.8732439999999997
20
-123.3917419999999936
11
127.0637199999999893
21
-123.2965039999999988
0
LINE
8
BLACK
6
CONTINUOUS
10
127.0637199999999893
20
-123.2965039999999988
11
127.2541969999999907
21
-123.2965039999999988
0
LINE
8
BLACK
6
CONTINUOUS
10
127.9208629999999971
20
-124.6298379999999923
11
127.9208629999999971
21
-123.2965039999999988
0
LINE
8
BLACK
6
CONTINUOUS
10
127.9208629999999971
20
-122.6298379999999923
11
127.8256249999999881
21
-122.7250760000000014
0
LINE
8
BLACK
6
CONTINUOUS
10
127.8256249999999881
20
-122.7250760000000014
11
127.9208629999999971
21
-122.8203139999999962
0
LINE
8
BLACK
6
CONTINUOUS
10
127.9208629999999971
20
-122.8203139999999962
11
128.0161009999999919
21
-122.7250760000000014
0
LINE
8
BLACK
6
CONTINUOUS
10
128.0161009999999919
20
-122.7250760000000014
11
127.9208629999999971
21
-122.6298379999999923
0
LINE
8
BLACK
6
CONTINUOUS
10
127.9208629999999971
20
-122.6298379999999923
11
127.9208629999999971
21
-122.8203139999999962
0
LINE
8
BLACK
6
CONTINUOUS
10
129.1589579999999842
20
-124.6298379999999923
11
128.9684819999999945
21
-124.5345999999999975
0
LINE
8
BLACK
6
CONTINUOUS
10
128.9684819999999945
20
-124.5345999999999975
11
128.8732439999999997
21
-124.3441229999999962
0
LINE
8
BLACK
6
CONTINUOUS
10
128.8732439999999997
20
-124.3441229999999962
11
128.8732439999999997
21
-122.6298379999999923
0
LINE
8
BLACK
6
CONTINUOUS
10
130.2065769999999816
20
-124.6298379999999923
11
130.0161009999999919
21
-124.5345999999999975
0
LINE
8
BLACK
6
CONTINUOUS
10
130.0161009999999919
20
-124.5345999999999975
11
129.9208629999999971
21
-124.3441229999999962
0
LINE
8
BLACK
6
CONTINUOUS
10
129.9208629999999971
20
-124.3441229999999962
11
129.9208629999999971
21
-122.6298379999999923
0
LINE
8
BLACK
6
CONTINUOUS
10
132.492291999999992
20
-124.6298379999999923
11
132.492291999999992
21
-122.6298379999999923
0
LINE
8
BLACK
6
CONTINUOUS
10
132.492291999999992
20
-122.6298379999999923
11
133.1589589999999816
21
-124.0584089999999975
0
LINE
8
BLACK
6
CONTINUOUS
10
133.1589589999999816
20
-124.0584089999999975
11
133.8256250000000023
21
-122.6298379999999923
0
LINE
8
BLACK
6
CONTINUOUS
10
133.8256250000000023
20
-122.6298379999999923
11
133.8256250000000023
21
-124.6298379999999923
0
LINE
8
BLACK
6
CONTINUOUS
10
135.6351489999999842
20
-124.6298379999999923
11
135.6351489999999842
21
-123.5822189999999949
0
LINE
8
BLACK
6
CONTINUOUS
10
135.6351489999999842
20
-123.5822189999999949
11
135.5399109999999894
21
-123.3917419999999936
0
LINE
8
BLACK
6
CONTINUOUS
10
135.5399109999999894
20
-123.3917419999999936
11
135.3494349999999997
21
-123.2965039999999988
0
LINE
8
BLACK
6
CONTINUOUS
10
135.3494349999999997
20
-123.2965039999999988
11
134.9684819999999945
21
-123.2965039999999988
0
LINE
8
BLACK
6
CONTINUOUS
10
134.9684819999999945
20
-123.2965039999999988
11
134.7780060000000049
21
-123.3917419999999936
0
LINE
8
BLACK
6
CONTINUOUS
10
135.6351489999999842
20
-124.5345999999999975
11
135.4446729999999945
21
-124.6298379999999923
0
LINE
8
BLACK
6
CONTINUOUS
10
135.4446729999999945
20
-124.6298379999999923
11
134.9684819999999945
21
-124.6298379999999923
0
LINE
8
BLACK
6
CONTINUOUS
10
134.9684819999999945
20
-124.6298379999999923
11
134.7780060000000049
21
-124.5345999999999975
0
LINE
8
BLACK
6
CONTINUOUS
10
134.7780060000000049
20
-124.5345999999999975
11
134.6827679999999816
21
-124.3441229999999962
0
LINE
8
BLACK
6
CONTINUOUS
10
134.6827679999999816
20
-124.3441229999999962
11
134.6827679999999816
21
-124.1536469999999923
0
LINE
8
BLACK
6
CONTINUOUS
10
134.6827679999999816
20
-124.1536469999999923
11
134.7780060000000049
21
-123.9631709999999885
0
LINE
8
BLACK
6
CONTINUOUS
10
134.7780060000000049
20
-123.9631709999999885
11
134.9684819999999945
21
-123.8679329999999936
0
LINE
8
BLACK
6
CONTINUOUS
10
134.9684819999999945
20
-123.8679329999999936
11
135.4446729999999945
21
-123.8679329999999936
0
LINE
8
BLACK
6
CONTINUOUS
10
135.4446729999999945
20
-123.8679329999999936
11
135.6351489999999842
21
-123.7726949999999988
0
LINE
8
BLACK
6
CONTINUOUS
10
136.5875299999999868
20
-123.2965039999999988
11
136.5875299999999868
21
-125.2965039999999988
0
LINE
8
BLACK
6
CONTINUOUS
10
136.5875299999999868
20
-123.3917419999999936
11
136.7780060000000049
21
-123.2965039999999988
0
LINE
8
BLACK
6
CONTINUOUS
10
136.7780060000000049
20
-123.2965039999999988
11
137.1589589999999816
21
-123.2965039999999988
0
LINE
8
BLACK
6
CONTINUOUS
10
137.1589589999999816
20
-123.2965039999999988
11
137.3494349999999997
21
-123.3917419999999936
0
LINE
8
BLACK
6
CONTINUOUS
10
137.3494349999999997
20
-123.3917419999999936
11
137.4446729999999945
21
-123.4869799999999884
0
LINE
8
BLACK
6
CONTINUOUS
10
137.4446729999999945
20
-123.4869799999999884
11
137.5399109999999894
21
-123.6774569999999898
0
LINE
8
BLACK
6
CONTINUOUS
10
137.5399109999999894
20
-123.6774569999999898
11
137.5399109999999894
21
-124.2488850000000014
0
LINE
8
BLACK
6
CONTINUOUS
10
137.5399109999999894
20
-124.2488850000000014
11
137.4446729999999945
21
-124.439360999999991
0
LINE
8
BLACK
6
CONTINUOUS
10
137.4446729999999945
20
-124.439360999999991
11
137.3494349999999997
21
-124.5345999999999975
0
LINE
8
BLACK
6
CONTINUOUS
10
137.3494349999999997
20
-124.5345999999999975
11
137.1589589999999816
21
-124.6298379999999923
0
LINE
8
BLACK
6
CONTINUOUS
10
137.1589589999999816
20
-124.6298379999999923
11
136.7780060000000049
21
-124.6298379999999923
0
LINE
8
BLACK
6
CONTINUOUS
10
136.7780060000000049
20
-124.6298379999999923
11
136.5875299999999868
21
-124.5345999999999975
0
LINE
8
BLACK
6
CONTINUOUS
10
138.3970539999999971
20
-124.439360999999991
11
138.492291999999992
21
-124.5345999999999975
0
LINE
8
BLACK
6
CONTINUOUS
10
138.492291999999992
20
-124.5345999999999975
11
138.3970539999999971
21
-124.6298379999999923
0
LINE
8
BLACK
6
CONTINUOUS
10
138.3970539999999971
20
-124.6298379999999923
11
138.3018160000000023
21
-124.5345999999999975
0
LINE
8
BLACK
6
CONTINUOUS
10
138.3018160000000023
20
-124.5345999999999975
11
138.3970539999999971
21
-124.439360999999991
0
LINE
8
BLACK
6
CONTINUOUS
10
138.3970539999999971
20
-124.439360999999991
11
138.3970539999999971
21
-124.6298379999999923
0
LINE
8
BLACK
6
CONTINUOUS
10
138.3970539999999971
20
-123.3917419999999936
11
138.492291999999992
21
-123.4869799999999884
0
LINE
8
BLACK
6
CONTINUOUS
10
138.492291999999992
20
-123.4869799999999884
11
138.3970539999999971
21
-123.5822189999999949
0
LINE
8
BLACK
6
CONTINUOUS
10
138.3970539999999971
20
-123.5822189999999949
11
138.3018160000000023
21
-123.4869799999999884
0
LINE
8
BLACK
6
CONTINUOUS
10
138.3018160000000023
20
-123.4869799999999884
11
138.3970539999999971
21
-123.3917419999999936
0
LINE
8
BLACK
6
CONTINUOUS
10
138.3970539999999971
20
-123.3917419999999936
11
138.3970539999999971
21
-123.5822189999999949
0
LINE
8
BLACK
6
CONTINUOUS
10
121.7749999999999915
20
-127.7650000000000006
11
122.0749999999999886
21
-128.0649999999999977
0
LINE
8
BLACK
6
CONTINUOUS
10
122.0749999999999886
20
-127.7650000000000006
11
121.7749999999999915
21
-128.0649999999999977
0
LINE
8
BLACK
6
CONTINUOUS
10
125.0637199999999893
20
-126.8298379999999952
11
125.2541969999999907
21
-126.8298379999999952
0
LINE
8
BLACK
6
CONTINUOUS
10
125.2541969999999907
20
-126.8298379999999952
11
125.4446729999999945
21
-126.92507599999999
0
LINE
8
BLACK
6
CONTINUOUS
10
125.4446729999999945
20
-126.92507599999999
11
125.5399109999999894
21
-127.0203139999999991
0
LINE
8
BLACK
6
CONTINUOUS
10
125.5399109999999894
20
-127.0203139999999991
11
125.6351489999999984
21
-127.2107899999999887
0
LINE
8
BLACK
6
CONTINUOUS
10
125.6351489999999984
20
-127.2107899999999887
11
125.7303869999999932
21
-127.5917419999999964
0
LINE
8
BLACK
6
CONTINUOUS
10
125.7303869999999932
20
-127.5917419999999964
11
125.7303869999999932
21
-128.0679329999999823
0
LINE
8
BLACK
6
CONTINUOUS
10
125.7303869999999932
20
-128.0679329999999823
11
125.6351489999999984
21
-128.44888499999999
0
LINE
8
BLACK
6
CONTINUOUS
10
125.6351489999999984
20
-128.44888499999999
11
125.5399109999999894
21
-128.6393610000000081
0
LINE
8
BLACK
6
CONTINUOUS
10
125.5399109999999894
20
-128.6393610000000081
11
125.4446729999999945
21
-128.7346000000000004
0
LINE
8
BLACK
6
CONTINUOUS
10
125.4446729999999945
20
-128.7346000000000004
11
125.2541969999999907
21
-128.8298379999999952
0
LINE
8
BLACK
6
CONTINUOUS
10
125.2541969999999907
20
-128.8298379999999952
11
125.0637199999999893
21
-128.8298379999999952
0
LINE
8
BLACK
6
CONTINUOUS
10
125.0637199999999893
20
-128.8298379999999952
11
124.8732439999999997
21
-128.7346000000000004
0
LINE
8
BLACK
6
CONTINUOUS
10
124.8732439999999997
20
-128.7346000000000004
11
124.7780059999999906
21
-128.6393610000000081
0
LINE
8
BLACK
6
CONTINUOUS
10
124.7780059999999906
20
-128.6393610000000081
11
124.6827679999999958
21
-128.44888499999999
0
LINE
8
BLACK
6
CONTINUOUS
10
124.6827679999999958
20
-128.44888499999999
11
124.587530000000001
21
-128.0679329999999823
0
LINE
8
BLACK
6
CONTINUOUS
10
124.587530000000001
20
-128.0679329999999823
11
124.587530000000001
21
-127.5917419999999964
0
LINE
8
BLACK
6
CONTINUOUS
10
124.587530000000001
20
-127.5917419999999964
11
124.6827679999999958
21
-127.2107899999999887
0
LINE
8
BLACK
6
CONTINUOUS
10
124.6827679999999958
20
-127.2107899999999887
11
124.7780059999999906
21
-127.0203139999999991
0
LINE
8
BLACK
6
CONTINUOUS
10
124.7780059999999906
20
-127.0203139999999991
11
124.8732439999999997
21
-126.92507599999999
0
LINE
8
BLACK
6
CONTINUOUS
10
124.8732439999999997
20
-126.92507599999999
11
125.0637199999999893
21
-126.8298379999999952
0
LINE
8
BLACK
6
CONTINUOUS
10
126.6827679999999958
20
-128.7346000000000004
11
126.6827679999999958
21
-128.8298379999999952
0
LINE
8
BLACK
6
CONTINUOUS
10
126.6827679999999958
20
-128.8298379999999952
11
126.587530000000001
21
-129.0203139999999848
0
LINE
8
BLACK
6
CONTINUOUS
10
126.587530000000001
20
-129.0203139999999848
11
126.492291999999992
21
-129.1155520000000081
0
LINE
8
BLACK
6
CONTINUOUS
10
127.3494349999999997
20
-126.8298379999999952
11
128.5875299999999868
21
-126.8298379999999952
0
LINE
8
BLACK
6
CONTINUOUS
10
128.5875299999999868
20
-126.8298379999999952
11
127.9208629999999971
21
-127.5917419999999964
0
LINE
8
BLACK
6
CONTINUOUS
10
127.9208629999999971
20
-127.5917419999999964
11
128.2065780000000075
21
-127.5917419999999964
0
LINE
8
BLACK
6
CONTINUOUS
10
128.2065780000000075
20
-127.5917419999999964
11
128.3970539999999971
21
-127.6869799999999913
0
LINE
8
BLACK
6
CONTINUOUS
10
128.3970539999999971
20
-127.6869799999999913
11
128.492291999999992
21
-127.7822189999999978
0
LINE
8
BLACK
6
CONTINUOUS
10
128.492291999999992
20
-127.7822189999999978
11
128.5875299999999868
21
-127.9726949999999874
0
LINE
8
BLACK
6
CONTINUOUS
10
128.5875299999999868
20
-127.9726949999999874
11
128.5875299999999868
21
-128.44888499999999
0
LINE
8
BLACK
6
CONTINUOUS
10
128.5875299999999868
20
-128.44888499999999
11
128.492291999999992
21
-128.6393610000000081
0
LINE
8
BLACK
6
CONTINUOUS
10
128.492291999999992
20
-128.6393610000000081
11
128.3970539999999971
21
-128.7346000000000004
0
LINE
8
BLACK
6
CONTINUOUS
10
128.3970539999999971
20
-128.7346000000000004
11
128.2065780000000075
21
-128.8298379999999952
0
LINE
8
BLACK
6
CONTINUOUS
10
128.2065780000000075
20
-128.8298379999999952
11
127.6351489999999984
21
-128.8298379999999952
0
LINE
8
BLACK
6
CONTINUOUS
10
127.6351489999999984
20
-128.8298379999999952
11
127.4446729999999945
21
-128.7346000000000004
0
LINE
8
BLACK
6
CONTINUOUS
10
127.4446729999999945
20
-128.7346000000000004
11
127.3494349999999997
21
-128.6393610000000081
0
LINE
8
BLACK
6
CONTINUOUS
10
129.8256250000000023
20
-126.8298379999999952
11
130.0161019999999894
21
-126.8298379999999952
0
LINE
8
BLACK
6
CONTINUOUS
10
130.0161019999999894
20
-126.8298379999999952
11
130.2065780000000075
21
-126.92507599999999
0
LINE
8
BLACK
6
CONTINUOUS
10
130.2065780000000075
20
-126.92507599999999
11
130.3018160000000023
21
-127.0203139999999991
0
LINE
8
BLACK
6
CONTINUOUS
10
130.3018160000000023
20
-127.0203139999999991
11
130.3970539999999971
21
-127.2107899999999887
0
LINE
8
BLACK
6
CONTINUOUS
10
130.3970539999999971
20
-127.2107899999999887
11
130.492291999999992
21
-127.5917419999999964
0
LINE
8
BLACK
6
CONTINUOUS
10
130.492291999999992
20
-127.5917419999999964
11
130.492291999999992
21
-128.0679329999999823
0
LINE
8
BLACK
6
CONTINUOUS
10
130.492291999999992
20
-128.0679329999999823
11
130.3970539999999971
21
-128.44888499999999
0
LINE
8
BLACK
6
CONTINUOUS
10
130.3970539999999971
20
-128.44888499999999
11
130.3018160000000023
21
-128.6393610000000081
0
LINE
8
BLACK
6
CONTINUOUS
10
130.3018160000000023
20
-128.6393610000000081
11
130.2065780000000075
21
-128.7346000000000004
0
LINE
8
BLACK
6
CONTINUOUS
10
130.2065780000000075
20
-128.7346000000000004
11
130.0161019999999894
21
-128.8298379999999952
0
LINE
8
BLACK
6
CONTINUOUS
10
130.0161019999999894
20
-128.8298379999999952
11
129.8256250000000023
21
-128.8298379999999952
0
LINE
8
BLACK
6
CONTINUOUS
10
129.8256250000000023
20
-128.8298379999999952
11
129.6351489999999842
21
-128.7346000000000004
0
LINE
8
BLACK
6
CONTINUOUS
10
129.6351489999999842
20
-128.7346000000000004
11
129.5399109999999894
21
-128.6393610000000081
0
LINE
8
BLACK
6
CONTINUOUS
10
129.5399109999999894
20
-128.6393610000000081
11
129.4446729999999945
21
-128.44888499999999
0
LINE
8
BLACK
6
CONTINUOUS
10
129.4446729999999945
20
-128.44888499999999
11
129.3494349999999997
21
-128.0679329999999823
0
LINE
8
BLACK
6
CONTINUOUS
10
129.3494349999999997
20
-128.0679329999999823
11
129.3494349999999997
21
-127.5917419999999964
0
LINE
8
BLACK
6
CONTINUOUS
10
129.3494349999999997
20
-127.5917419999999964
11
129.4446729999999945
21
-127.2107899999999887
0
LINE
8
BLACK
6
CONTINUOUS
10
129.4446729999999945
20
-127.2107899999999887
11
129.5399109999999894
21
-127.0203139999999991
0
LINE
8
BLACK
6
CONTINUOUS
10
129.5399109999999894
20
-127.0203139999999991
11
129.6351489999999842
21
-126.92507599999999
0
LINE
8
BLACK
6
CONTINUOUS
10
129.6351489999999842
20
-126.92507599999999
11
129.8256250000000023
21
-126.8298379999999952
0
LINE
8
BLACK
6
CONTINUOUS
10
131.7303870000000074
20
-126.8298379999999952
11
131.9208639999999946
21
-126.8298379999999952
0
LINE
8
BLACK
6
CONTINUOUS
10
131.9208639999999946
20
-126.8298379999999952
11
132.1113399999999842
21
-126.92507599999999
0
LINE
8
BLACK
6
CONTINUOUS
10
132.1113399999999842
20
-126.92507599999999
11
132.2065780000000075
21
-127.0203139999999991
0
LINE
8
BLACK
6
CONTINUOUS
10
132.2065780000000075
20
-127.0203139999999991
11
132.3018160000000023
21
-127.2107899999999887
0
LINE
8
BLACK
6
CONTINUOUS
10
132.3018160000000023
20
-127.2107899999999887
11
132.3970539999999971
21
-127.5917419999999964
0
LINE
8
BLACK
6
CONTINUOUS
10
132.3970539999999971
20
-127.5917419999999964
11
132.3970539999999971
21
-128.0679329999999823
0
LINE
8
BLACK
6
CONTINUOUS
10
132.3970539999999971
20
-128.0679329999999823
11
132.3018160000000023
21
-128.44888499999999
0
LINE
8
BLACK
6
CONTINUOUS
10
132.3018160000000023
20
-128.44888499999999
11
132.2065780000000075
21
-128.6393610000000081
0
LINE
8
BLACK
6
CONTINUOUS
10
132.2065780000000075
20
-128.6393610000000081
11
132.1113399999999842
21
-128.7346000000000004
0
LINE
8
BLACK
6
CONTINUOUS
10
132.1113399999999842
20
-128.7346000000000004
11
131.9208639999999946
21
-128.8298379999999952
0
LINE
8
BLACK
6
CONTINUOUS
10
131.9208639999999946
20
-128.8298379999999952
11
131.7303870000000074
21
-128.8298379999999952
0
LINE
8
BLACK
6
CONTINUOUS
10
131.7303870000000074
20
-128.8298379999999952
11
131.5399109999999894
21
-128.7346000000000004
0
LINE
8
BLACK
6
CONTINUOUS
10
131.5399109999999894
20
-128.7346000000000004
11
131.4446729999999945
21
-128.6393610000000081
0
LINE
8
BLACK
6
CONTINUOUS
10
131.4446729999999945
20
-128.6393610000000081
11
131.3494349999999997
21
-128.44888499999999
0
LINE
8
BLACK
6
CONTINUOUS
10
131.3494349999999997
20
-128.44888499999999
11
131.2541970000000049
21
-128.0679329999999823
0
LINE
8
BLACK
6
CONTINUOUS
10
131.2541970000000049
20
-128.0679329999999823
11
131.2541970000000049
21
-127.5917419999999964
0
LINE
8
BLACK
6
CONTINUOUS
10
131.2541970000000049
20
-127.5917419999999964
11
131.3494349999999997
21
-127.2107899999999887
0
LINE
8
BLACK
6
CONTINUOUS
10
131.3494349999999997
20
-127.2107899999999887
11
131.4446729999999945
21
-127.0203139999999991
0
LINE
8
BLACK
6
CONTINUOUS
10
131.4446729999999945
20
-127.0203139999999991
11
131.5399109999999894
21
-126.92507599999999
0
LINE
8
BLACK
6
CONTINUOUS
10
131.5399109999999894
20
-126.92507599999999
11
131.7303870000000074
21
-126.8298379999999952
0
LINE
8
BLACK
6
CONTINUOUS
10
133.2541970000000049
20
-128.8298379999999952
11
133.2541970000000049
21
-127.4965039999999874
0
LINE
8
BLACK
6
CONTINUOUS
10
133.2541970000000049
20
-127.6869799999999913
11
133.3494349999999997
21
-127.5917419999999964
0
LINE
8
BLACK
6
CONTINUOUS
10
133.3494349999999997
20
-127.5917419999999964
11
133.5399109999999894
21
-127.4965039999999874
0
LINE
8
BLACK
6
CONTINUOUS
10
133.5399109999999894
20
-127.4965039999999874
11
133.8256259999999997
21
-127.4965039999999874
0
LINE
8
BLACK
6
CONTINUOUS
10
133.8256259999999997
20
-127.4965039999999874
11
134.0161019999999894
21
-127.5917419999999964
0
LINE
8
BLACK
6
CONTINUOUS
10
134.0161019999999894
20
-127.5917419999999964
11
134.1113399999999842
21
-127.7822189999999978
0
LINE
8
BLACK
6
CONTINUOUS
10
134.1113399999999842
20
-127.7822189999999978
11
134.1113399999999842
21
-128.8298379999999952
0
LINE
8
BLACK
6
CONTINUOUS
10
134.1113399999999842
20
-127.7822189999999978
11
134.2065780000000075
21
-127.5917419999999964
0
LINE
8
BLACK
6
CONTINUOUS
10
134.2065780000000075
20
-127.5917419999999964
11
134.3970539999999971
21
-127.4965039999999874
0
LINE
8
BLACK
6
CONTINUOUS
10
134.3970539999999971
20
-127.4965039999999874
11
134.6827679999999816
21
-127.4965039999999874
0
LINE
8
BLACK
6
CONTINUOUS
10
134.6827679999999816
20
-127.4965039999999874
11
134.8732449999999972
21
-127.5917419999999964
0
LINE
8
BLACK
6
CONTINUOUS
10
134.8732449999999972
20
-127.5917419999999964
11
134.968482999999992
21
-127.7822189999999978
0
LINE
8
BLACK
6
CONTINUOUS
10
134.968482999999992
20
-127.7822189999999978
11
134.968482999999992
21
-128.8298379999999952
0
LINE
8
BLACK
6
CONTINUOUS
10
135.9208639999999946
20
-128.8298379999999952
11
135.9208639999999946
21
-127.4965039999999874
0
LINE
8
BLACK
6
CONTINUOUS
10
135.9208639999999946
20
-127.6869799999999913
11
136.0161019999999894
21
-127.5917419999999964
0
LINE
8
BLACK
6
CONTINUOUS
10
136.0161019999999894
20
-127.5917419999999964
11
136.2065780000000075
21
-127.4965039999999874
0
LINE
8
BLACK
6
CONTINUOUS
10
136.2065780000000075
20
-127.4965039999999874
11
136.4922929999999894
21
-127.4965039999999874
0
LINE
8
BLACK
6
CONTINUOUS
10
136.4922929999999894
20
-127.4965039999999874
11
136.6827690000000075
21
-127.5917419999999964
0
LINE
8
BLACK
6
CONTINUOUS
10
136.6827690000000075
20
-127.5917419999999964
11
136.7780070000000023
21
-127.7822189999999978
0
LINE
8
BLACK
6
CONTINUOUS
10
136.7780070000000023
20
-127.7822189999999978
11
136.7780070000000023
21
-128.8298379999999952
0
LINE
8
BLACK
6
CONTINUOUS
10
136.7780070000000023
20
-127.7822189999999978
11
136.8732449999999972
21
-127.5917419999999964
0
LINE
8
BLACK
6
CONTINUOUS
10
136.8732449999999972
20
-127.5917419999999964
11
137.0637209999999868
21
-127.4965039999999874
0
LINE
8
BLACK
6
CONTINUOUS
10
137.0637209999999868
20
-127.4965039999999874
11
137.3494349999999997
21
-127.4965039999999874
0
LINE
8
BLACK
6
CONTINUOUS
10
137.3494349999999997
20
-127.4965039999999874
11
137.5399119999999868
21
-127.5917419999999964
0
LINE
8
BLACK
6
CONTINUOUS
10
137.5399119999999868
20
-127.5917419999999964
11
137.6351499999999817
21
-127.7822189999999978
0
LINE
8
BLACK
6
CONTINUOUS
10
137.6351499999999817
20
-127.7822189999999978
11
137.6351499999999817
21
-128.8298379999999952
0
LINE
8
BLACK
6
CONTINUOUS
10
141.5399119999999868
20
-126.7346000000000004
11
139.8256269999999972
21
-129.3060279999999977
0
LINE
8
BLACK
6
CONTINUOUS
10
144.1113409999999817
20
-126.8298379999999952
11
144.3018179999999973
21
-126.8298379999999952
0
LINE
8
BLACK
6
CONTINUOUS
10
144.3018179999999973
20
-126.8298379999999952
11
144.4922939999999869
21
-126.92507599999999
0
LINE
8
BLACK
6
CONTINUOUS
10
144.4922939999999869
20
-126.92507599999999
11
144.5875319999999817
21
-127.0203139999999991
0
LINE
8
BLACK
6
CONTINUOUS
10
144.5875319999999817
20
-127.0203139999999991
11
144.682770000000005
21
-127.2107899999999887
0
LINE
8
BLACK
6
CONTINUOUS
10
144.682770000000005
20
-127.2107899999999887
11
144.7780079999999998
21
-127.5917419999999964
0
LINE
8
BLACK
6
CONTINUOUS
10
144.7780079999999998
20
-127.5917419999999964
11
144.7780079999999998
21
-128.0679329999999823
0
LINE
8
BLACK
6
CONTINUOUS
10
144.7780079999999998
20
-128.0679329999999823
11
144.682770000000005
21
-128.44888499999999
0
LINE
8
BLACK
6
CONTINUOUS
10
144.682770000000005
20
-128.44888499999999
11
144.5875319999999817
21
-128.6393610000000081
0
LINE
8
BLACK
6
CONTINUOUS
10
144.5875319999999817
20
-128.6393610000000081
11
144.4922939999999869
21
-128.7346000000000004
0
LINE
8
BLACK
6
CONTINUOUS
10
144.4922939999999869
20
-128.7346000000000004
11
144.3018179999999973
21
-128.8298379999999952
0
LINE
8
BLACK
6
CONTINUOUS
10
144.3018179999999973
20
-128.8298379999999952
11
144.1113409999999817
21
-128.8298379999999952
0
LINE
8
BLACK
6
CONTINUOUS
10
144.1113409999999817
20
-128.8298379999999952
11
143.9208649999999921
21
-128.7346000000000004
0
LINE
8
BLACK
6
CONTINUOUS
10
143.9208649999999921
20
-128.7346000000000004
11
143.8256269999999972
21
-128.6393610000000081
0
LINE
8
BLACK
6
CONTINUOUS
10
143.8256269999999972
20
-128.6393610000000081
11
143.7303890000000024
21
-128.44888499999999
0
LINE
8
BLACK
6
CONTINUOUS
10
143.7303890000000024
20
-128.44888499999999
11
143.6351510000000076
21
-128.0679329999999823
0
LINE
8
BLACK
6
CONTINUOUS
10
143.6351510000000076
20
-128.0679329999999823
11
143.6351510000000076
21
-127.5917419999999964
0
LINE
8
BLACK
6
CONTINUOUS
10
143.6351510000000076
20
-127.5917419999999964
11
143.7303890000000024
21
-127.2107899999999887
0
LINE
8
BLACK
6
CONTINUOUS
10
143.7303890000000024
20
-127.2107899999999887
11
143.8256269999999972
21
-127.0203139999999991
0
LINE
8
BLACK
6
CONTINUOUS
10
143.8256269999999972
20
-127.0203139999999991
11
143.9208649999999921
21
-126.92507599999999
0
LINE
8
BLACK
6
CONTINUOUS
10
143.9208649999999921
20
-126.92507599999999
11
144.1113409999999817
21
-126.8298379999999952
0
LINE
8
BLACK
6
CONTINUOUS
10
145.7303890000000024
20
-128.7346000000000004
11
145.7303890000000024
21
-128.8298379999999952
0
LINE
8
BLACK
6
CONTINUOUS
10
145.7303890000000024
20
-128.8298379999999952
11
145.6351510000000076
21
-129.0203139999999848
0
LINE
8
BLACK
6
CONTINUOUS
10
145.6351510000000076
20
-129.0203139999999848
11
145.5399129999999843
21
-129.1155520000000081
0
LINE
8
BLACK
6
CONTINUOUS
10
146.9684839999999895
20
-126.8298379999999952
11
147.158961000000005
21
-126.8298379999999952
0
LINE
8
BLACK
6
CONTINUOUS
10
147.158961000000005
20
-126.8298379999999952
11
147.3494369999999947
21
-126.92507599999999
0
LINE
8
BLACK
6
CONTINUOUS
10
147.3494369999999947
20
-126.92507599999999
11
147.4446749999999895
21
-127.0203139999999991
0
LINE
8
BLACK
6
CONTINUOUS
10
147.4446749999999895
20
-127.0203139999999991
11
147.5399129999999843
21
-127.2107899999999887
0
LINE
8
BLACK
6
CONTINUOUS
10
147.5399129999999843
20
-127.2107899999999887
11
147.6351509999999791
21
-127.5917419999999964
0
LINE
8
BLACK
6
CONTINUOUS
10
147.6351509999999791
20
-127.5917419999999964
11
147.6351509999999791
21
-128.0679329999999823
0
LINE
8
BLACK
6
CONTINUOUS
10
147.6351509999999791
20
-128.0679329999999823
11
147.5399129999999843
21
-128.44888499999999
0
LINE
8
BLACK
6
CONTINUOUS
10
147.5399129999999843
20
-128.44888499999999
11
147.4446749999999895
21
-128.6393610000000081
0
LINE
8
BLACK
6
CONTINUOUS
10
147.4446749999999895
20
-128.6393610000000081
11
147.3494369999999947
21
-128.7346000000000004
0
LINE
8
BLACK
6
CONTINUOUS
10
147.3494369999999947
20
-128.7346000000000004
11
147.158961000000005
21
-128.8298379999999952
0
LINE
8
BLACK
6
CONTINUOUS
10
147.158961000000005
20
-128.8298379999999952
11
146.9684839999999895
21
-128.8298379999999952
0
LINE
8
BLACK
6
CONTINUOUS
10
146.9684839999999895
20
-128.8298379999999952
11
146.7780079999999998
21
-128.7346000000000004
0
LINE
8
BLACK
6
CONTINUOUS
10
146.7780079999999998
20
-128.7346000000000004
11
146.682770000000005
21
-128.6393610000000081
0
LINE
8
BLACK
6
CONTINUOUS
10
146.682770000000005
20
-128.6393610000000081
11
146.5875319999999817
21
-128.44888499999999
0
LINE
8
BLACK
6
CONTINUOUS
10
146.5875319999999817
20
-128.44888499999999
11
146.4922939999999869
21
-128.0679329999999823
0
LINE
8
BLACK
6
CONTINUOUS
10
146.4922939999999869
20
-128.0679329999999823
11
146.4922939999999869
21
-127.5917419999999964
0
LINE
8
BLACK
6
CONTINUOUS
10
146.4922939999999869
20
-127.5917419999999964
11
146.5875319999999817
21
-127.2107899999999887
0
LINE
8
BLACK
6
CONTINUOUS
10
146.5875319999999817
20
-127.2107899999999887
11
146.682770000000005
21
-127.0203139999999991
0
LINE
8
BLACK
6
CONTINUOUS
10
146.682770000000005
20
-127.0203139999999991
11
146.7780079999999998
21
-126.92507599999999
0
LINE
8
BLACK
6
CONTINUOUS
10
146.7780079999999998
20
-126.92507599999999
11
146.9684839999999895
21
-126.8298379999999952
0
LINE
8
BLACK
6
CONTINUOUS
10
149.5399129999999843
20
-128.8298379999999952
11
148.3970559999999921
21
-128.8298379999999952
0
LINE
8
BLACK
6
CONTINUOUS
10
148.9684839999999895
20
-128.8298379999999952
11
148.9684839999999895
21
-126.8298379999999952
0
LINE
8
BLACK
6
CONTINUOUS
10
148.9684839999999895
20
-126.8298379999999952
11
148.7780079999999998
21
-127.1155519999999939
0
LINE
8
BLACK
6
CONTINUOUS
10
148.7780079999999998
20
-127.1155519999999939
11
148.5875319999999817
21
-127.3060279999999977
0
LINE
8
BLACK
6
CONTINUOUS
10
148.5875319999999817
20
-127.3060279999999977
11
148.3970559999999921
21
-127.4012659999999926
0
LINE
8
BLACK
6
CONTINUOUS
10
151.4446749999999895
20
-128.8298379999999952
11
150.3018179999999973
21
-128.8298379999999952
0
LINE
8
BLACK
6
CONTINUOUS
10
150.8732459999999946
20
-128.8298379999999952
11
150.8732459999999946
21
-126.8298379999999952
0
LINE
8
BLACK
6
CONTINUOUS
10
150.8732459999999946
20
-126.8298379999999952
11
150.682770000000005
21
-127.1155519999999939
0
LINE
8
BLACK
6
CONTINUOUS
10
150.682770000000005
20
-127.1155519999999939
11
150.4922939999999869
21
-127.3060279999999977
0
LINE
8
BLACK
6
CONTINUOUS
10
150.4922939999999869
20
-127.3060279999999977
11
150.3018179999999973
21
-127.4012659999999926
0
LINE
8
BLACK
6
CONTINUOUS
10
152.5875319999999817
20
-127.6869799999999913
11
152.3970559999999921
21
-127.5917419999999964
0
LINE
8
BLACK
6
CONTINUOUS
10
152.3970559999999921
20
-127.5917419999999964
11
152.3018179999999973
21
-127.4965039999999874
0
LINE
8
BLACK
6
CONTINUOUS
10
152.3018179999999973
20
-127.4965039999999874
11
152.2065800000000024
21
-127.3060279999999977
0
LINE
8
BLACK
6
CONTINUOUS
10
152.2065800000000024
20
-127.3060279999999977
11
152.2065800000000024
21
-127.2107899999999887
0
LINE
8
BLACK
6
CONTINUOUS
10
152.2065800000000024
20
-127.2107899999999887
11
152.3018179999999973
21
-127.0203139999999991
0
LINE
8
BLACK
6
CONTINUOUS
10
152.3018179999999973
20
-127.0203139999999991
11
152.3970559999999921
21
-126.92507599999999
0
LINE
8
BLACK
6
CONTINUOUS
10
152.3970559999999921
20
-126.92507599999999
11
152.5875319999999817
21
-126.8298379999999952
0
LINE
8
BLACK
6
CONTINUOUS
10
152.5875319999999817
20
-126.8298379999999952
11
152.9684849999999869
21
-126.8298379999999952
0
LINE
8
BLACK
6
CONTINUOUS
10
152.9684849999999869
20
-126.8298379999999952
11
153.158961000000005
21
-126.92507599999999
0
LINE
8
BLACK
6
CONTINUOUS
10
153.158961000000005
20
-126.92507599999999
11
153.2541989999999998
21
-127.0203139999999991
0
LINE
8
BLACK
6
CONTINUOUS
10
153.2541989999999998
20
-127.0203139999999991
11
153.3494369999999947
21
-127.2107899999999887
0
LINE
8
BLACK
6
CONTINUOUS
10
153.3494369999999947
20
-127.2107899999999887
11
153.3494369999999947
21
-127.3060279999999977
0
LINE
8
BLACK
6
CONTINUOUS
10
153.3494369999999947
20
-127.3060279999999977
11
153.2541989999999998
21
-127.4965039999999874
0
LINE
8
BLACK
6
CONTINUOUS
10
153.2541989999999998
20
-127.4965039999999874
11
153.158961000000005
21
-127.5917419999999964
0
LINE
8
BLACK
6
CONTINUOUS
10
153.158961000000005
20
-127.5917419999999964
11
152.9684849999999869
21
-127.6869799999999913
0
LINE
8
BLACK
6
CONTINUOUS
10
152.9684849999999869
20
-127.6869799999999913
11
152.5875319999999817
21
-127.6869799999999913
0
LINE
8
BLACK
6
CONTINUOUS
10
152.5875319999999817
20
-127.6869799999999913
11
152.3970559999999921
21
-127.7822189999999978
0
LINE
8
BLACK
6
CONTINUOUS
10
152.3970559999999921
20
-127.7822189999999978
11
152.3018179999999973
21
-127.8774569999999926
0
LINE
8
BLACK
6
CONTINUOUS
10
152.3018179999999973
20
-127.8774569999999926
11
152.2065800000000024
21
-128.0679329999999823
0
LINE
8
BLACK
6
CONTINUOUS
10
152.2065800000000024
20
-128.0679329999999823
11
152.2065800000000024
21
-128.44888499999999
0
LINE
8
BLACK
6
CONTINUOUS
10
152.2065800000000024
20
-128.44888499999999
11
152.3018179999999973
21
-128.6393610000000081
0
LINE
8
BLACK
6
CONTINUOUS
10
152.3018179999999973
20
-128.6393610000000081
11
152.3970559999999921
21
-128.7346000000000004
0
LINE
8
BLACK
6
CONTINUOUS
10
152.3970559999999921
20
-128.7346000000000004
11
152.5875319999999817
21
-128.8298379999999952
0
LINE
8
BLACK
6
CONTINUOUS
10
152.5875319999999817
20
-128.8298379999999952
11
152.9684849999999869
21
-128.8298379999999952
0
LINE
8
BLACK
6
CONTINUOUS
10
152.9684849999999869
20
-128.8298379999999952
11
153.158961000000005
21
-128.7346000000000004
0
LINE
8
BLACK
6
CONTINUOUS
10
153.158961000000005
20
-128.7346000000000004
11
153.2541989999999998
21
-128.6393610000000081
0
LINE
8
BLACK
6
CONTINUOUS
10
153.2541989999999998
20
-128.6393610000000081
11
153.3494369999999947
21
-128.44888499999999
0
LINE
8
BLACK
6
CONTINUOUS
10
153.3494369999999947
20
-128.44888499999999
11
153.3494369999999947
21
-128.0679329999999823
0
LINE
8
BLACK
6
CONTINUOUS
10
153.3494369999999947
20
-128.0679329999999823
11
153.2541989999999998
21
-127.8774569999999926
0
LINE
8
BLACK
6
CONTINUOUS
10
153.2541989999999998
20
-127.8774569999999926
11
153.158961000000005
21
-127.7822189999999978
0
LINE
8
BLACK
6
CONTINUOUS
10
153.158961000000005
20
-127.7822189999999978
11
152.9684849999999869
21
-127.6869799999999913
0
LINE
8
BLACK
6
CONTINUOUS
10
154.1113419999999792
20
-126.8298379999999952
11
154.1113419999999792
21
-127.2107899999999887
0
LINE
8
BLACK
6
CONTINUOUS
10
154.8732469999999921
20
-126.8298379999999952
11
154.8732469999999921
21
-127.2107899999999887
0
LINE
8
BLACK
6
CONTINUOUS
10
157.8256289999999922
20
-129.5917419999999822
11
157.7303899999999999
21
-129.4965039999999874
0
LINE
8
BLACK
6
CONTINUOUS
10
157.7303899999999999
20
-129.4965039999999874
11
157.5399139999999818
21
-129.2107900000000029
0
LINE
8
BLACK
6
CONTINUOUS
10
157.5399139999999818
20
-129.2107900000000029
11
157.444675999999987
21
-129.0203139999999848
0
LINE
8
BLACK
6
CONTINUOUS
10
157.444675999999987
20
-129.0203139999999848
11
157.3494379999999921
21
-128.7346000000000004
0
LINE
8
BLACK
6
CONTINUOUS
10
157.3494379999999921
20
-128.7346000000000004
11
157.2541999999999973
21
-128.2584090000000003
0
LINE
8
BLACK
6
CONTINUOUS
10
157.2541999999999973
20
-128.2584090000000003
11
157.2541999999999973
21
-127.8774569999999926
0
LINE
8
BLACK
6
CONTINUOUS
10
157.2541999999999973
20
-127.8774569999999926
11
157.3494379999999921
21
-127.4012659999999926
0
LINE
8
BLACK
6
CONTINUOUS
10
157.3494379999999921
20
-127.4012659999999926
11
157.444675999999987
21
-127.1155519999999939
0
LINE
8
BLACK
6
CONTINUOUS
10
157.444675999999987
20
-127.1155519999999939
11
157.5399139999999818
21
-126.92507599999999
0
LINE
8
BLACK
6
CONTINUOUS
10
157.5399139999999818
20
-126.92507599999999
11
157.7303899999999999
21
-126.6393609999999939
0
LINE
8
BLACK
6
CONTINUOUS
10
157.7303899999999999
20
-126.6393609999999939
11
157.8256289999999922
21
-126.544122999999999
0
LINE
8
BLACK
6
CONTINUOUS
10
159.635152000000005
20
-128.8298379999999952
11
158.4922949999999844
21
-128.8298379999999952
0
LINE
8
BLACK
6
CONTINUOUS
10
159.0637229999999818
20
-128.8298379999999952
11
159.0637229999999818
21
-126.8298379999999952
0
LINE
8
BLACK
6
CONTINUOUS
10
159.0637229999999818
20
-126.8298379999999952
11
158.8732469999999921
21
-127.1155519999999939
0
LINE
8
BLACK
6
CONTINUOUS
10
158.8732469999999921
20
-127.1155519999999939
11
158.6827710000000025
21
-127.3060279999999977
0
LINE
8
BLACK
6
CONTINUOUS
10
158.6827710000000025
20
-127.3060279999999977
11
158.4922949999999844
21
-127.4012659999999926
0
LINE
8
BLACK
6
CONTINUOUS
10
160.8732469999999921
20
-126.8298379999999952
11
161.0637239999999792
21
-126.8298379999999952
0
LINE
8
BLACK
6
CONTINUOUS
10
161.0637239999999792
20
-126.8298379999999952
11
161.2541999999999973
21
-126.92507599999999
0
LINE
8
BLACK
6
CONTINUOUS
10
161.2541999999999973
20
-126.92507599999999
11
161.3494379999999921
21
-127.0203139999999991
0
LINE
8
BLACK
6
CONTINUOUS
10
161.3494379999999921
20
-127.0203139999999991
11
161.444675999999987
21
-127.2107899999999887
0
LINE
8
BLACK
6
CONTINUOUS
10
161.444675999999987
20
-127.2107899999999887
11
161.5399139999999818
21
-127.5917419999999964
0
LINE
8
BLACK
6
CONTINUOUS
10
161.5399139999999818
20
-127.5917419999999964
11
161.5399139999999818
21
-128.0679329999999823
0
LINE
8
BLACK
6
CONTINUOUS
10
161.5399139999999818
20
-128.0679329999999823
11
161.444675999999987
21
-128.44888499999999
0
LINE
8
BLACK
6
CONTINUOUS
10
161.444675999999987
20
-128.44888499999999
11
161.3494379999999921
21
-128.6393610000000081
0
LINE
8
BLACK
6
CONTINUOUS
10
161.3494379999999921
20
-128.6393610000000081
11
161.2541999999999973
21
-128.7346000000000004
0
LINE
8
BLACK
6
CONTINUOUS
10
161.2541999999999973
20
-128.7346000000000004
11
161.0637239999999792
21
-128.8298379999999952
0
LINE
8
BLACK
6
CONTINUOUS
10
161.0637239999999792
20
-128.8298379999999952
11
160.8732469999999921
21
-128.8298379999999952
0
LINE
8
BLACK
6
CONTINUOUS
10
160.8732469999999921
20
-128.8298379999999952
11
160.6827710000000025
21
-128.7346000000000004
0
LINE
8
BLACK
6
CONTINUOUS
10
160.6827710000000025
20
-128.7346000000000004
11
160.5875329999999792
21
-128.6393610000000081
0
LINE
8
BLACK
6
CONTINUOUS
10
160.5875329999999792
20
-128.6393610000000081
11
160.4922949999999844
21
-128.44888499999999
0
LINE
8
BLACK
6
CONTINUOUS
10
160.4922949999999844
20
-128.44888499999999
11
160.3970569999999896
21
-128.0679329999999823
0
LINE
8
BLACK
6
CONTINUOUS
10
160.3970569999999896
20
-128.0679329999999823
11
160.3970569999999896
21
-127.5917419999999964
0
LINE
8
BLACK
6
CONTINUOUS
10
160.3970569999999896
20
-127.5917419999999964
11
160.4922949999999844
21
-127.2107899999999887
0
LINE
8
BLACK
6
CONTINUOUS
10
160.4922949999999844
20
-127.2107899999999887
11
160.5875329999999792
21
-127.0203139999999991
0
LINE
8
BLACK
6
CONTINUOUS
10
160.5875329999999792
20
-127.0203139999999991
11
160.6827710000000025
21
-126.92507599999999
0
LINE
8
BLACK
6
CONTINUOUS
10
160.6827710000000025
20
-126.92507599999999
11
160.8732469999999921
21
-126.8298379999999952
0
LINE
8
BLACK
6
CONTINUOUS
10
163.2541999999999973
20
-126.8298379999999952
11
162.8732469999999921
21
-126.8298379999999952
0
LINE
8
BLACK
6
CONTINUOUS
10
162.8732469999999921
20
-126.8298379999999952
11
162.6827710000000025
21
-126.92507599999999
0
LINE
8
BLACK
6
CONTINUOUS
10
162.6827710000000025
20
-126.92507599999999
11
162.5875329999999792
21
-127.0203139999999991
0
LINE
8
BLACK
6
CONTINUOUS
10
162.5875329999999792
20
-127.0203139999999991
11
162.3970569999999896
21
-127.3060279999999977
0
LINE
8
BLACK
6
CONTINUOUS
10
162.3970569999999896
20
-127.3060279999999977
11
162.3018189999999947
21
-127.6869799999999913
0
LINE
8
BLACK
6
CONTINUOUS
10
162.3018189999999947
20
-127.6869799999999913
11
162.3018189999999947
21
-128.44888499999999
0
LINE
8
BLACK
6
CONTINUOUS
10
162.3018189999999947
20
-128.44888499999999
11
162.3970569999999896
21
-128.6393610000000081
0
LINE
8
BLACK
6
CONTINUOUS
10
162.3970569999999896
20
-128.6393610000000081
11
162.4922949999999844
21
-128.7346000000000004
0
LINE
8
BLACK
6
CONTINUOUS
10
162.4922949999999844
20
-128.7346000000000004
11
162.6827710000000025
21
-128.8298379999999952
0
LINE
8
BLACK
6
CONTINUOUS
10
162.6827710000000025
20
-128.8298379999999952
11
163.0637239999999792
21
-128.8298379999999952
0
LINE
8
BLACK
6
CONTINUOUS
10
163.0637239999999792
20
-128.8298379999999952
11
163.2541999999999973
21
-128.7346000000000004
0
LINE
8
BLACK
6
CONTINUOUS
10
163.2541999999999973
20
-128.7346000000000004
11
163.3494379999999921
21
-128.6393610000000081
0
LINE
8
BLACK
6
CONTINUOUS
10
163.3494379999999921
20
-128.6393610000000081
11
163.444675999999987
21
-128.44888499999999
0
LINE
8
BLACK
6
CONTINUOUS
10
163.444675999999987
20
-128.44888499999999
11
163.444675999999987
21
-127.9726949999999874
0
LINE
8
BLACK
6
CONTINUOUS
10
163.444675999999987
20
-127.9726949999999874
11
163.3494379999999921
21
-127.7822189999999978
0
LINE
8
BLACK
6
CONTINUOUS
10
163.3494379999999921
20
-127.7822189999999978
11
163.2541999999999973
21
-127.6869799999999913
0
LINE
8
BLACK
6
CONTINUOUS
10
163.2541999999999973
20
-127.6869799999999913
11
163.0637239999999792
21
-127.5917419999999964
0
LINE
8
BLACK
6
CONTINUOUS
10
163.0637239999999792
20
-127.5917419999999964
11
162.6827710000000025
21
-127.5917419999999964
0
LINE
8
BLACK
6
CONTINUOUS
10
162.6827710000000025
20
-127.5917419999999964
11
162.4922949999999844
21
-127.6869799999999913
0
LINE
8
BLACK
6
CONTINUOUS
10
162.4922949999999844
20
-127.6869799999999913
11
162.3970569999999896
21
-127.7822189999999978
0
LINE
8
BLACK
6
CONTINUOUS
10
162.3970569999999896
20
-127.7822189999999978
11
162.3018189999999947
21
-127.9726949999999874
0
LINE
8
BLACK
6
CONTINUOUS
10
165.8256289999999922
20
-128.8298379999999952
11
165.8256289999999922
21
-126.8298379999999952
0
LINE
8
BLACK
6
CONTINUOUS
10
166.6827719999999999
20
-128.8298379999999952
11
166.6827719999999999
21
-127.7822189999999978
0
LINE
8
BLACK
6
CONTINUOUS
10
166.6827719999999999
20
-127.7822189999999978
11
166.5875340000000051
21
-127.5917419999999964
0
LINE
8
BLACK
6
CONTINUOUS
10
166.5875340000000051
20
-127.5917419999999964
11
166.397057999999987
21
-127.4965039999999874
0
LINE
8
BLACK
6
CONTINUOUS
10
166.397057999999987
20
-127.4965039999999874
11
166.1113430000000051
21
-127.4965039999999874
0
LINE
8
BLACK
6
CONTINUOUS
10
166.1113430000000051
20
-127.4965039999999874
11
165.920866999999987
21
-127.5917419999999964
0
LINE
8
BLACK
6
CONTINUOUS
10
165.920866999999987
20
-127.5917419999999964
11
165.8256289999999922
21
-127.6869799999999913
0
LINE
8
BLACK
6
CONTINUOUS
10
167.920866999999987
20
-128.8298379999999952
11
167.7303909999999973
21
-128.7346000000000004
0
LINE
8
BLACK
6
CONTINUOUS
10
167.7303909999999973
20
-128.7346000000000004
11
167.6351530000000025
21
-128.6393610000000081
0
LINE
8
BLACK
6
CONTINUOUS
10
167.6351530000000025
20
-128.6393610000000081
11
167.5399149999999793
21
-128.44888499999999
0
LINE
8
BLACK
6
CONTINUOUS
10
167.5399149999999793
20
-128.44888499999999
11
167.5399149999999793
21
-127.8774569999999926
0
LINE
8
BLACK
6
CONTINUOUS
10
167.5399149999999793
20
-127.8774569999999926
11
167.6351530000000025
21
-127.6869799999999913
0
LINE
8
BLACK
6
CONTINUOUS
10
167.6351530000000025
20
-127.6869799999999913
11
167.7303909999999973
21
-127.5917419999999964
0
LINE
8
BLACK
6
CONTINUOUS
10
167.7303909999999973
20
-127.5917419999999964
11
167.920866999999987
21
-127.4965039999999874
0
LINE
8
BLACK
6
CONTINUOUS
10
167.920866999999987
20
-127.4965039999999874
11
168.2065819999999974
21
-127.4965039999999874
0
LINE
8
BLACK
6
CONTINUOUS
10
168.2065819999999974
20
-127.4965039999999874
11
168.397057999999987
21
-127.5917419999999964
0
LINE
8
BLACK
6
CONTINUOUS
10
168.397057999999987
20
-127.5917419999999964
11
168.4922959999999819
21
-127.6869799999999913
0
LINE
8
BLACK
6
CONTINUOUS
10
168.4922959999999819
20
-127.6869799999999913
11
168.5875340000000051
21
-127.8774569999999926
0
LINE
8
BLACK
6
CONTINUOUS
10
168.5875340000000051
20
-127.8774569999999926
11
168.5875340000000051
21
-128.44888499999999
0
LINE
8
BLACK
6
CONTINUOUS
10
168.5875340000000051
20
-128.44888499999999
11
168.4922959999999819
21
-128.6393610000000081
0
LINE
8
BLACK
6
CONTINUOUS
10
168.4922959999999819
20
-128.6393610000000081
11
168.397057999999987
21
-128.7346000000000004
0
LINE
8
BLACK
6
CONTINUOUS
10
168.397057999999987
20
-128.7346000000000004
11
168.2065819999999974
21
-128.8298379999999952
0
LINE
8
BLACK
6
CONTINUOUS
10
168.2065819999999974
20
-128.8298379999999952
11
167.920866999999987
21
-128.8298379999999952
0
LINE
8
BLACK
6
CONTINUOUS
10
169.7303909999999973
20
-128.8298379999999952
11
169.5399149999999793
21
-128.7346000000000004
0
LINE
8
BLACK
6
CONTINUOUS
10
169.5399149999999793
20
-128.7346000000000004
11
169.4446769999999844
21
-128.5441229999999848
0
LINE
8
BLACK
6
CONTINUOUS
10
169.4446769999999844
20
-128.5441229999999848
11
169.4446769999999844
21
-126.8298379999999952
0
LINE
8
BLACK
6
CONTINUOUS
10
171.2542009999999948
20
-128.7346000000000004
11
171.0637250000000051
21
-128.8298379999999952
0
LINE
8
BLACK
6
CONTINUOUS
10
171.0637250000000051
20
-128.8298379999999952
11
170.6827719999999999
21
-128.8298379999999952
0
LINE
8
BLACK
6
CONTINUOUS
10
170.6827719999999999
20
-128.8298379999999952
11
170.4922959999999819
21
-128.7346000000000004
0
LINE
8
BLACK
6
CONTINUOUS
10
170.4922959999999819
20
-128.7346000000000004
11
170.397057999999987
21
-128.5441229999999848
0
LINE
8
BLACK
6
CONTINUOUS
10
170.397057999999987
20
-128.5441229999999848
11
170.397057999999987
21
-127.7822189999999978
0
LINE
8
BLACK
6
CONTINUOUS
10
170.397057999999987
20
-127.7822189999999978
11
170.4922959999999819
21
-127.5917419999999964
0
LINE
8
BLACK
6
CONTINUOUS
10
170.4922959999999819
20
-127.5917419999999964
11
170.6827719999999999
21
-127.4965039999999874
0
LINE
8
BLACK
6
CONTINUOUS
10
170.6827719999999999
20
-127.4965039999999874
11
171.0637250000000051
21
-127.4965039999999874
0
LINE
8
BLACK
6
CONTINUOUS
10
171.0637250000000051
20
-127.4965039999999874
11
171.2542009999999948
21
-127.5917419999999964
0
LINE
8
BLACK
6
CONTINUOUS
10
171.2542009999999948
20
-127.5917419999999964
11
171.3494389999999896
21
-127.7822189999999978
0
LINE
8
BLACK
6
CONTINUOUS
10
171.3494389999999896
20
-127.7822189999999978
11
171.3494389999999896
21
-127.9726949999999874
0
LINE
8
BLACK
6
CONTINUOUS
10
171.3494389999999896
20
-127.9726949999999874
11
170.397057999999987
21
-128.1631710000000055
0
LINE
8
BLACK
6
CONTINUOUS
10
172.1113440000000026
20
-128.7346000000000004
11
172.3018199999999922
21
-128.8298379999999952
0
LINE
8
BLACK
6
CONTINUOUS
10
172.3018199999999922
20
-128.8298379999999952
11
172.6827719999999999
21
-128.8298379999999952
0
LINE
8
BLACK
6
CONTINUOUS
10
172.6827719999999999
20
-128.8298379999999952
11
172.8732489999999871
21
-128.7346000000000004
0
LINE
8
BLACK
6
CONTINUOUS
10
172.8732489999999871
20
-128.7346000000000004
11
172.9684869999999819
21
-128.5441229999999848
0
LINE
8
BLACK
6
CONTINUOUS
10
172.9684869999999819
20
-128.5441229999999848
11
172.9684869999999819
21
-128.44888499999999
0
LINE
8
BLACK
6
CONTINUOUS
10
172.9684869999999819
20
-128.44888499999999
11
172.8732489999999871
21
-128.2584090000000003
0
LINE
8
BLACK
6
CONTINUOUS
10
172.8732489999999871
20
-128.2584090000000003
11
172.6827719999999999
21
-128.1631710000000055
0
LINE
8
BLACK
6
CONTINUOUS
10
172.6827719999999999
20
-128.1631710000000055
11
172.397057999999987
21
-128.1631710000000055
0
LINE
8
BLACK
6
CONTINUOUS
10
172.397057999999987
20
-128.1631710000000055
11
172.2065819999999974
21
-128.0679329999999823
0
LINE
8
BLACK
6
CONTINUOUS
10
172.2065819999999974
20
-128.0679329999999823
11
172.1113440000000026
21
-127.8774569999999926
0
LINE
8
BLACK
6
CONTINUOUS
10
172.1113440000000026
20
-127.8774569999999926
11
172.1113440000000026
21
-127.7822189999999978
0
LINE
8
BLACK
6
CONTINUOUS
10
172.1113440000000026
20
-127.7822189999999978
11
172.2065819999999974
21
-127.5917419999999964
0
LINE
8
BLACK
6
CONTINUOUS
10
172.2065819999999974
20
-127.5917419999999964
11
172.397057999999987
21
-127.4965039999999874
0
LINE
8
BLACK
6
CONTINUOUS
10
172.397057999999987
20
-127.4965039999999874
11
172.6827719999999999
21
-127.4965039999999874
0
LINE
8
BLACK
6
CONTINUOUS
10
172.6827719999999999
20
-127.4965039999999874
11
172.8732489999999871
21
-127.5917419999999964
0
LINE
8
BLACK
6
CONTINUOUS
10
173.635154
20
-129.5917419999999822
11
173.7303919999999948
21
-129.4965039999999874
0
LINE
8
BLACK
6
CONTINUOUS
10
173.7303919999999948
20
-129.4965039999999874
11
173.9208679999999845
21
-129.2107900000000029
0
LINE
8
BLACK
6
CONTINUOUS
10
173.9208679999999845
20
-129.2107900000000029
11
174.0161059999999793
21
-129.0203139999999848
0
LINE
8
BLACK
6
CONTINUOUS
10
174.0161059999999793
20
-129.0203139999999848
11
174.1113440000000026
21
-128.7346000000000004
0
LINE
8
BLACK
6
CONTINUOUS
10
174.1113440000000026
20
-128.7346000000000004
11
174.2065819999999974
21
-128.2584090000000003
0
LINE
8
BLACK
6
CONTINUOUS
10
174.2065819999999974
20
-128.2584090000000003
11
174.2065819999999974
21
-127.8774569999999926
0
LINE
8
BLACK
6
CONTINUOUS
10
174.2065819999999974
20
-127.8774569999999926
11
174.1113440000000026
21
-127.4012659999999926
0
LINE
8
BLACK
6
CONTINUOUS
10
174.1113440000000026
20
-127.4012659999999926
11
174.0161059999999793
21
-127.1155519999999939
0
LINE
8
BLACK
6
CONTINUOUS
10
174.0161059999999793
20
-127.1155519999999939
11
173.9208679999999845
21
-126.92507599999999
0
LINE
8
BLACK
6
CONTINUOUS
10
173.9208679999999845
20
-126.92507599999999
11
173.7303919999999948
21
-126.6393609999999939
0
LINE
8
BLACK
6
CONTINUOUS
10
173.7303919999999948
20
-126.6393609999999939
11
173.635154
21
-126.544122999999999
0
CIRCLE
8
BLACK
10
121.5749999999999886
20
-130.5550000000000068
40
0.5
0
LINE
8
BLACK
6
CONTINUOUS
10
125.7303869999999932
20
-131.4698379999999815
11
124.587530000000001
21
-131.4698379999999815
0
LINE
8
BLACK
6
CONTINUOUS
10
125.1589579999999984
20
-131.4698379999999815
11
125.1589579999999984
21
-129.4698379999999815
0
LINE
8
BLACK
6
CONTINUOUS
10
125.1589579999999984
20
-129.4698379999999815
11
124.9684819999999945
21
-129.7555519999999945
0
LINE
8
BLACK
6
CONTINUOUS
10
124.9684819999999945
20
-129.7555519999999945
11
124.7780059999999906
21
-129.9460279999999841
0
LINE
8
BLACK
6
CONTINUOUS
10
124.7780059999999906
20
-129.9460279999999841
11
124.587530000000001
21
-130.0412660000000074
0
LINE
8
BLACK
6
CONTINUOUS
10
126.6827679999999958
20
-131.3745999999999867
11
126.6827679999999958
21
-131.4698379999999815
0
LINE
8
BLACK
6
CONTINUOUS
10
126.6827679999999958
20
-131.4698379999999815
11
126.587530000000001
21
-131.6603139999999996
0
LINE
8
BLACK
6
CONTINUOUS
10
126.587530000000001
20
-131.6603139999999996
11
126.492291999999992
21
-131.7555519999999945
0
LINE
8
BLACK
6
CONTINUOUS
10
127.9208629999999971
20
-129.4698379999999815
11
128.1113399999999842
21
-129.4698379999999815
0
LINE
8
BLACK
6
CONTINUOUS
10
128.1113399999999842
20
-129.4698379999999815
11
128.3018160000000023
21
-129.5650760000000048
0
LINE
8
BLACK
6
CONTINUOUS
10
128.3018160000000023
20
-129.5650760000000048
11
128.3970539999999971
21
-129.6603139999999996
0
LINE
8
BLACK
6
CONTINUOUS
10
128.3970539999999971
20
-129.6603139999999996
11
128.492291999999992
21
-129.8507899999999893
0
LINE
8
BLACK
6
CONTINUOUS
10
128.492291999999992
20
-129.8507899999999893
11
128.5875299999999868
21
-130.231741999999997
0
LINE
8
BLACK
6
CONTINUOUS
10
128.5875299999999868
20
-130.231741999999997
11
128.5875299999999868
21
-130.707932999999997
0
LINE
8
BLACK
6
CONTINUOUS
10
128.5875299999999868
20
-130.707932999999997
11
128.492291999999992
21
-131.0888850000000048
0
LINE
8
BLACK
6
CONTINUOUS
10
128.492291999999992
20
-131.0888850000000048
11
128.3970539999999971
21
-131.2793609999999944
0
LINE
8
BLACK
6
CONTINUOUS
10
128.3970539999999971
20
-131.2793609999999944
11
128.3018160000000023
21
-131.3745999999999867
0
LINE
8
BLACK
6
CONTINUOUS
10
128.3018160000000023
20
-131.3745999999999867
11
128.1113399999999842
21
-131.4698379999999815
0
LINE
8
BLACK
6
CONTINUOUS
10
128.1113399999999842
20
-131.4698379999999815
11
127.9208629999999971
21
-131.4698379999999815
0
LINE
8
BLACK
6
CONTINUOUS
10
127.9208629999999971
20
-131.4698379999999815
11
127.7303869999999932
21
-131.3745999999999867
0
LINE
8
BLACK
6
CONTINUOUS
10
127.7303869999999932
20
-131.3745999999999867
11
127.6351489999999984
21
-131.2793609999999944
0
LINE
8
BLACK
6
CONTINUOUS
10
127.6351489999999984
20
-131.2793609999999944
11
127.5399109999999894
21
-131.0888850000000048
0
LINE
8
BLACK
6
CONTINUOUS
10
127.5399109999999894
20
-131.0888850000000048
11
127.4446729999999945
21
-130.707932999999997
0
LINE
8
BLACK
6
CONTINUOUS
10
127.4446729999999945
20
-130.707932999999997
11
127.4446729999999945
21
-130.231741999999997
0
LINE
8
BLACK
6
CONTINUOUS
10
127.4446729999999945
20
-130.231741999999997
11
127.5399109999999894
21
-129.8507899999999893
0
LINE
8
BLACK
6
CONTINUOUS
10
127.5399109999999894
20
-129.8507899999999893
11
127.6351489999999984
21
-129.6603139999999996
0
LINE
8
BLACK
6
CONTINUOUS
10
127.6351489999999984
20
-129.6603139999999996
11
127.7303869999999932
21
-129.5650760000000048
0
LINE
8
BLACK
6
CONTINUOUS
10
127.7303869999999932
20
-129.5650760000000048
11
127.9208629999999971
21
-129.4698379999999815
0
LINE
8
BLACK
6
CONTINUOUS
10
129.8256250000000023
20
-129.4698379999999815
11
130.0161019999999894
21
-129.4698379999999815
0
LINE
8
BLACK
6
CONTINUOUS
10
130.0161019999999894
20
-129.4698379999999815
11
130.2065780000000075
21
-129.5650760000000048
0
LINE
8
BLACK
6
CONTINUOUS
10
130.2065780000000075
20
-129.5650760000000048
11
130.3018160000000023
21
-129.6603139999999996
0
LINE
8
BLACK
6
CONTINUOUS
10
130.3018160000000023
20
-129.6603139999999996
11
130.3970539999999971
21
-129.8507899999999893
0
LINE
8
BLACK
6
CONTINUOUS
10
130.3970539999999971
20
-129.8507899999999893
11
130.492291999999992
21
-130.231741999999997
0
LINE
8
BLACK
6
CONTINUOUS
10
130.492291999999992
20
-130.231741999999997
11
130.492291999999992
21
-130.707932999999997
0
LINE
8
BLACK
6
CONTINUOUS
10
130.492291999999992
20
-130.707932999999997
11
130.3970539999999971
21
-131.0888850000000048
0
LINE
8
BLACK
6
CONTINUOUS
10
130.3970539999999971
20
-131.0888850000000048
11
130.3018160000000023
21
-131.2793609999999944
0
LINE
8
BLACK
6
CONTINUOUS
10
130.3018160000000023
20
-131.2793609999999944
11
130.2065780000000075
21
-131.3745999999999867
0
LINE
8
BLACK
6
CONTINUOUS
10
130.2065780000000075
20
-131.3745999999999867
11
130.0161019999999894
21
-131.4698379999999815
0
LINE
8
BLACK
6
CONTINUOUS
10
130.0161019999999894
20
-131.4698379999999815
11
129.8256250000000023
21
-131.4698379999999815
0
LINE
8
BLACK
6
CONTINUOUS
10
129.8256250000000023
20
-131.4698379999999815
11
129.6351489999999842
21
-131.3745999999999867
0
LINE
8
BLACK
6
CONTINUOUS
10
129.6351489999999842
20
-131.3745999999999867
11
129.5399109999999894
21
-131.2793609999999944
0
LINE
8
BLACK
6
CONTINUOUS
10
129.5399109999999894
20
-131.2793609999999944
11
129.4446729999999945
21
-131.0888850000000048
0
LINE
8
BLACK
6
CONTINUOUS
10
129.4446729999999945
20
-131.0888850000000048
11
129.3494349999999997
21
-130.707932999999997
0
LINE
8
BLACK
6
CONTINUOUS
10
129.3494349999999997
20
-130.707932999999997
11
129.3494349999999997
21
-130.231741999999997
0
LINE
8
BLACK
6
CONTINUOUS
10
129.3494349999999997
20
-130.231741999999997
11
129.4446729999999945
21
-129.8507899999999893
0
LINE
8
BLACK
6
CONTINUOUS
10
129.4446729999999945
20
-129.8507899999999893
11
129.5399109999999894
21
-129.6603139999999996
0
LINE
8
BLACK
6
CONTINUOUS
10
129.5399109999999894
20
-129.6603139999999996
11
129.6351489999999842
21
-129.5650760000000048
0
LINE
8
BLACK
6
CONTINUOUS
10
129.6351489999999842
20
-129.5650760000000048
11
129.8256250000000023
21
-129.4698379999999815
0
LINE
8
BLACK
6
CONTINUOUS
10
131.7303870000000074
20
-129.4698379999999815
11
131.9208639999999946
21
-129.4698379999999815
0
LINE
8
BLACK
6
CONTINUOUS
10
131.9208639999999946
20
-129.4698379999999815
11
132.1113399999999842
21
-129.5650760000000048
0
LINE
8
BLACK
6
CONTINUOUS
10
132.1113399999999842
20
-129.5650760000000048
11
132.2065780000000075
21
-129.6603139999999996
0
LINE
8
BLACK
6
CONTINUOUS
10
132.2065780000000075
20
-129.6603139999999996
11
132.3018160000000023
21
-129.8507899999999893
0
LINE
8
BLACK
6
CONTINUOUS
10
132.3018160000000023
20
-129.8507899999999893
11
132.3970539999999971
21
-130.231741999999997
0
LINE
8
BLACK
6
CONTINUOUS
10
132.3970539999999971
20
-130.231741999999997
11
132.3970539999999971
21
-130.707932999999997
0
LINE
8
BLACK
6
CONTINUOUS
10
132.3970539999999971
20
-130.707932999999997
11
132.3018160000000023
21
-131.0888850000000048
0
LINE
8
BLACK
6
CONTINUOUS
10
132.3018160000000023
20
-131.0888850000000048
11
132.2065780000000075
21
-131.2793609999999944
0
LINE
8
BLACK
6
CONTINUOUS
10
132.2065780000000075
20
-131.2793609999999944
11
132.1113399999999842
21
-131.3745999999999867
0
LINE
8
BLACK
6
CONTINUOUS
10
132.1113399999999842
20
-131.3745999999999867
11
131.9208639999999946
21
-131.4698379999999815
0
LINE
8
BLACK
6
CONTINUOUS
10
131.9208639999999946
20
-131.4698379999999815
11
131.7303870000000074
21
-131.4698379999999815
0
LINE
8
BLACK
6
CONTINUOUS
10
131.7303870000000074
20
-131.4698379999999815
11
131.5399109999999894
21
-131.3745999999999867
0
LINE
8
BLACK
6
CONTINUOUS
10
131.5399109999999894
20
-131.3745999999999867
11
131.4446729999999945
21
-131.2793609999999944
0
LINE
8
BLACK
6
CONTINUOUS
10
131.4446729999999945
20
-131.2793609999999944
11
131.3494349999999997
21
-131.0888850000000048
0
LINE
8
BLACK
6
CONTINUOUS
10
131.3494349999999997
20
-131.0888850000000048
11
131.2541970000000049
21
-130.707932999999997
0
LINE
8
BLACK
6
CONTINUOUS
10
131.2541970000000049
20
-130.707932999999997
11
131.2541970000000049
21
-130.231741999999997
0
LINE
8
BLACK
6
CONTINUOUS
10
131.2541970000000049
20
-130.231741999999997
11
131.3494349999999997
21
-129.8507899999999893
0
LINE
8
BLACK
6
CONTINUOUS
10
131.3494349999999997
20
-129.8507899999999893
11
131.4446729999999945
21
-129.6603139999999996
0
LINE
8
BLACK
6
CONTINUOUS
10
131.4446729999999945
20
-129.6603139999999996
11
131.5399109999999894
21
-129.5650760000000048
0
LINE
8
BLACK
6
CONTINUOUS
10
131.5399109999999894
20
-129.5650760000000048
11
131.7303870000000074
21
-129.4698379999999815
0
LINE
8
BLACK
6
CONTINUOUS
10
133.2541970000000049
20
-131.4698379999999815
11
133.2541970000000049
21
-130.1365040000000022
0
LINE
8
BLACK
6
CONTINUOUS
10
133.2541970000000049
20
-130.3269799999999918
11
133.3494349999999997
21
-130.231741999999997
0
LINE
8
BLACK
6
CONTINUOUS
10
133.3494349999999997
20
-130.231741999999997
11
133.5399109999999894
21
-130.1365040000000022
0
LINE
8
BLACK
6
CONTINUOUS
10
133.5399109999999894
20
-130.1365040000000022
11
133.8256259999999997
21
-130.1365040000000022
0
LINE
8
BLACK
6
CONTINUOUS
10
133.8256259999999997
20
-130.1365040000000022
11
134.0161019999999894
21
-130.231741999999997
0
LINE
8
BLACK
6
CONTINUOUS
10
134.0161019999999894
20
-130.231741999999997
11
134.1113399999999842
21
-130.4222189999999841
0
LINE
8
BLACK
6
CONTINUOUS
10
134.1113399999999842
20
-130.4222189999999841
11
134.1113399999999842
21
-131.4698379999999815
0
LINE
8
BLACK
6
CONTINUOUS
10
134.1113399999999842
20
-130.4222189999999841
11
134.2065780000000075
21
-130.231741999999997
0
LINE
8
BLACK
6
CONTINUOUS
10
134.2065780000000075
20
-130.231741999999997
11
134.3970539999999971
21
-130.1365040000000022
0
LINE
8
BLACK
6
CONTINUOUS
10
134.3970539999999971
20
-130.1365040000000022
11
134.6827679999999816
21
-130.1365040000000022
0
LINE
8
BLACK
6
CONTINUOUS
10
134.6827679999999816
20
-130.1365040000000022
11
134.8732449999999972
21
-130.231741999999997
0
LINE
8
BLACK
6
CONTINUOUS
10
134.8732449999999972
20
-130.231741999999997
11
134.968482999999992
21
-130.4222189999999841
0
LINE
8
BLACK
6
CONTINUOUS
10
134.968482999999992
20
-130.4222189999999841
11
134.968482999999992
21
-131.4698379999999815
0
LINE
8
BLACK
6
CONTINUOUS
10
135.9208639999999946
20
-131.4698379999999815
11
135.9208639999999946
21
-130.1365040000000022
0
LINE
8
BLACK
6
CONTINUOUS
10
135.9208639999999946
20
-130.3269799999999918
11
136.0161019999999894
21
-130.231741999999997
0
LINE
8
BLACK
6
CONTINUOUS
10
136.0161019999999894
20
-130.231741999999997
11
136.2065780000000075
21
-130.1365040000000022
0
LINE
8
BLACK
6
CONTINUOUS
10
136.2065780000000075
20
-130.1365040000000022
11
136.4922929999999894
21
-130.1365040000000022
0
LINE
8
BLACK
6
CONTINUOUS
10
136.4922929999999894
20
-130.1365040000000022
11
136.6827690000000075
21
-130.231741999999997
0
LINE
8
BLACK
6
CONTINUOUS
10
136.6827690000000075
20
-130.231741999999997
11
136.7780070000000023
21
-130.4222189999999841
0
LINE
8
BLACK
6
CONTINUOUS
10
136.7780070000000023
20
-130.4222189999999841
11
136.7780070000000023
21
-131.4698379999999815
0
LINE
8
BLACK
6
CONTINUOUS
10
136.7780070000000023
20
-130.4222189999999841
11
136.8732449999999972
21
-130.231741999999997
0
LINE
8
BLACK
6
CONTINUOUS
10
136.8732449999999972
20
-130.231741999999997
11
137.0637209999999868
21
-130.1365040000000022
0
LINE
8
BLACK
6
CONTINUOUS
10
137.0637209999999868
20
-130.1365040000000022
11
137.3494349999999997
21
-130.1365040000000022
0
LINE
8
BLACK
6
CONTINUOUS
10
137.3494349999999997
20
-130.1365040000000022
11
137.5399119999999868
21
-130.231741999999997
0
LINE
8
BLACK
6
CONTINUOUS
10
137.5399119999999868
20
-130.231741999999997
11
137.6351499999999817
21
-130.4222189999999841
0
LINE
8
BLACK
6
CONTINUOUS
10
137.6351499999999817
20
-130.4222189999999841
11
137.6351499999999817
21
-131.4698379999999815
0
LINE
8
BLACK
6
CONTINUOUS
10
141.5399119999999868
20
-129.3745999999999867
11
139.8256269999999972
21
-131.9460279999999841
0
LINE
8
BLACK
6
CONTINUOUS
10
144.1113409999999817
20
-129.4698379999999815
11
144.3018179999999973
21
-129.4698379999999815
0
LINE
8
BLACK
6
CONTINUOUS
10
144.3018179999999973
20
-129.4698379999999815
11
144.4922939999999869
21
-129.5650760000000048
0
LINE
8
BLACK
6
CONTINUOUS
10
144.4922939999999869
20
-129.5650760000000048
11
144.5875319999999817
21
-129.6603139999999996
0
LINE
8
BLACK
6
CONTINUOUS
10
144.5875319999999817
20
-129.6603139999999996
11
144.682770000000005
21
-129.8507899999999893
0
LINE
8
BLACK
6
CONTINUOUS
10
144.682770000000005
20
-129.8507899999999893
11
144.7780079999999998
21
-130.231741999999997
0
LINE
8
BLACK
6
CONTINUOUS
10
144.7780079999999998
20
-130.231741999999997
11
144.7780079999999998
21
-130.707932999999997
0
LINE
8
BLACK
6
CONTINUOUS
10
144.7780079999999998
20
-130.707932999999997
11
144.682770000000005
21
-131.0888850000000048
0
LINE
8
BLACK
6
CONTINUOUS
10
144.682770000000005
20
-131.0888850000000048
11
144.5875319999999817
21
-131.2793609999999944
0
LINE
8
BLACK
6
CONTINUOUS
10
144.5875319999999817
20
-131.2793609999999944
11
144.4922939999999869
21
-131.3745999999999867
0
LINE
8
BLACK
6
CONTINUOUS
10
144.4922939999999869
20
-131.3745999999999867
11
144.3018179999999973
21
-131.4698379999999815
0
LINE
8
BLACK
6
CONTINUOUS
10
144.3018179999999973
20
-131.4698379999999815
11
144.1113409999999817
21
-131.4698379999999815
0
LINE
8
BLACK
6
CONTINUOUS
10
144.1113409999999817
20
-131.4698379999999815
11
143.9208649999999921
21
-131.3745999999999867
0
LINE
8
BLACK
6
CONTINUOUS
10
143.9208649999999921
20
-131.3745999999999867
11
143.8256269999999972
21
-131.2793609999999944
0
LINE
8
BLACK
6
CONTINUOUS
10
143.8256269999999972
20
-131.2793609999999944
11
143.7303890000000024
21
-131.0888850000000048
0
LINE
8
BLACK
6
CONTINUOUS
10
143.7303890000000024
20
-131.0888850000000048
11
143.6351510000000076
21
-130.707932999999997
0
LINE
8
BLACK
6
CONTINUOUS
10
143.6351510000000076
20
-130.707932999999997
11
143.6351510000000076
21
-130.231741999999997
0
LINE
8
BLACK
6
CONTINUOUS
10
143.6351510000000076
20
-130.231741999999997
11
143.7303890000000024
21
-129.8507899999999893
0
LINE
8
BLACK
6
CONTINUOUS
10
143.7303890000000024
20
-129.8507899999999893
11
143.8256269999999972
21
-129.6603139999999996
0
LINE
8
BLACK
6
CONTINUOUS
10
143.8256269999999972
20
-129.6603139999999996
11
143.9208649999999921
21
-129.5650760000000048
0
LINE
8
BLACK
6
CONTINUOUS
10
143.9208649999999921
20
-129.5650760000000048
11
144.1113409999999817
21
-129.4698379999999815
0
LINE
8
BLACK
6
CONTINUOUS
10
145.7303890000000024
20
-131.3745999999999867
11
145.7303890000000024
21
-131.4698379999999815
0
LINE
8
BLACK
6
CONTINUOUS
10
145.7303890000000024
20
-131.4698379999999815
11
145.6351510000000076
21
-131.6603139999999996
0
LINE
8
BLACK
6
CONTINUOUS
10
145.6351510000000076
20
-131.6603139999999996
11
145.5399129999999843
21
-131.7555519999999945
0
LINE
8
BLACK
6
CONTINUOUS
10
146.9684839999999895
20
-129.4698379999999815
11
147.158961000000005
21
-129.4698379999999815
0
LINE
8
BLACK
6
CONTINUOUS
10
147.158961000000005
20
-129.4698379999999815
11
147.3494369999999947
21
-129.5650760000000048
0
LINE
8
BLACK
6
CONTINUOUS
10
147.3494369999999947
20
-129.5650760000000048
11
147.4446749999999895
21
-129.6603139999999996
0
LINE
8
BLACK
6
CONTINUOUS
10
147.4446749999999895
20
-129.6603139999999996
11
147.5399129999999843
21
-129.8507899999999893
0
LINE
8
BLACK
6
CONTINUOUS
10
147.5399129999999843
20
-129.8507899999999893
11
147.6351509999999791
21
-130.231741999999997
0
LINE
8
BLACK
6
CONTINUOUS
10
147.6351509999999791
20
-130.231741999999997
11
147.6351509999999791
21
-130.707932999999997
0
LINE
8
BLACK
6
CONTINUOUS
10
147.6351509999999791
20
-130.707932999999997
11
147.5399129999999843
21
-131.0888850000000048
0
LINE
8
BLACK
6
CONTINUOUS
10
147.5399129999999843
20
-131.0888850000000048
11
147.4446749999999895
21
-131.2793609999999944
0
LINE
8
BLACK
6
CONTINUOUS
10
147.4446749999999895
20
-131.2793609999999944
11
147.3494369999999947
21
-131.3745999999999867
0
LINE
8
BLACK
6
CONTINUOUS
10
147.3494369999999947
20
-131.3745999999999867
11
147.158961000000005
21
-131.4698379999999815
0
LINE
8
BLACK
6
CONTINUOUS
10
147.158961000000005
20
-131.4698379999999815
11
146.9684839999999895
21
-131.4698379999999815
0
LINE
8
BLACK
6
CONTINUOUS
10
146.9684839999999895
20
-131.4698379999999815
11
146.7780079999999998
21
-131.3745999999999867
0
LINE
8
BLACK
6
CONTINUOUS
10
146.7780079999999998
20
-131.3745999999999867
11
146.682770000000005
21
-131.2793609999999944
0
LINE
8
BLACK
6
CONTINUOUS
10
146.682770000000005
20
-131.2793609999999944
11
146.5875319999999817
21
-131.0888850000000048
0
LINE
8
BLACK
6
CONTINUOUS
10
146.5875319999999817
20
-131.0888850000000048
11
146.4922939999999869
21
-130.707932999999997
0
LINE
8
BLACK
6
CONTINUOUS
10
146.4922939999999869
20
-130.707932999999997
11
146.4922939999999869
21
-130.231741999999997
0
LINE
8
BLACK
6
CONTINUOUS
10
146.4922939999999869
20
-130.231741999999997
11
146.5875319999999817
21
-129.8507899999999893
0
LINE
8
BLACK
6
CONTINUOUS
10
146.5875319999999817
20
-129.8507899999999893
11
146.682770000000005
21
-129.6603139999999996
0
LINE
8
BLACK
6
CONTINUOUS
10
146.682770000000005
20
-129.6603139999999996
11
146.7780079999999998
21
-129.5650760000000048
0
LINE
8
BLACK
6
CONTINUOUS
10
146.7780079999999998
20
-129.5650760000000048
11
146.9684839999999895
21
-129.4698379999999815
0
LINE
8
BLACK
6
CONTINUOUS
10
148.3018179999999973
20
-129.4698379999999815
11
149.5399129999999843
21
-129.4698379999999815
0
LINE
8
BLACK
6
CONTINUOUS
10
149.5399129999999843
20
-129.4698379999999815
11
148.8732459999999946
21
-130.231741999999997
0
LINE
8
BLACK
6
CONTINUOUS
10
148.8732459999999946
20
-130.231741999999997
11
149.158961000000005
21
-130.231741999999997
0
LINE
8
BLACK
6
CONTINUOUS
10
149.158961000000005
20
-130.231741999999997
11
149.3494369999999947
21
-130.3269799999999918
0
LINE
8
BLACK
6
CONTINUOUS
10
149.3494369999999947
20
-130.3269799999999918
11
149.4446749999999895
21
-130.4222189999999841
0
LINE
8
BLACK
6
CONTINUOUS
10
149.4446749999999895
20
-130.4222189999999841
11
149.5399129999999843
21
-130.6126950000000022
0
LINE
8
BLACK
6
CONTINUOUS
10
149.5399129999999843
20
-130.6126950000000022
11
149.5399129999999843
21
-131.0888850000000048
0
LINE
8
BLACK
6
CONTINUOUS
10
149.5399129999999843
20
-131.0888850000000048
11
149.4446749999999895
21
-131.2793609999999944
0
LINE
8
BLACK
6
CONTINUOUS
10
149.4446749999999895
20
-131.2793609999999944
11
149.3494369999999947
21
-131.3745999999999867
0
LINE
8
BLACK
6
CONTINUOUS
10
149.3494369999999947
20
-131.3745999999999867
11
149.158961000000005
21
-131.4698379999999815
0
LINE
8
BLACK
6
CONTINUOUS
10
149.158961000000005
20
-131.4698379999999815
11
148.5875319999999817
21
-131.4698379999999815
0
LINE
8
BLACK
6
CONTINUOUS
10
148.5875319999999817
20
-131.4698379999999815
11
148.3970559999999921
21
-131.3745999999999867
0
LINE
8
BLACK
6
CONTINUOUS
10
148.3970559999999921
20
-131.3745999999999867
11
148.3018179999999973
21
-131.2793609999999944
0
LINE
8
BLACK
6
CONTINUOUS
10
150.4922939999999869
20
-131.4698379999999815
11
150.8732459999999946
21
-131.4698379999999815
0
LINE
8
BLACK
6
CONTINUOUS
10
150.8732459999999946
20
-131.4698379999999815
11
151.0637229999999818
21
-131.3745999999999867
0
LINE
8
BLACK
6
CONTINUOUS
10
151.0637229999999818
20
-131.3745999999999867
11
151.158961000000005
21
-131.2793609999999944
0
LINE
8
BLACK
6
CONTINUOUS
10
151.158961000000005
20
-131.2793609999999944
11
151.3494369999999947
21
-130.9936469999999815
0
LINE
8
BLACK
6
CONTINUOUS
10
151.3494369999999947
20
-130.9936469999999815
11
151.4446749999999895
21
-130.6126950000000022
0
LINE
8
BLACK
6
CONTINUOUS
10
151.4446749999999895
20
-130.6126950000000022
11
151.4446749999999895
21
-129.8507899999999893
0
LINE
8
BLACK
6
CONTINUOUS
10
151.4446749999999895
20
-129.8507899999999893
11
151.3494369999999947
21
-129.6603139999999996
0
LINE
8
BLACK
6
CONTINUOUS
10
151.3494369999999947
20
-129.6603139999999996
11
151.2541989999999998
21
-129.5650760000000048
0
LINE
8
BLACK
6
CONTINUOUS
10
151.2541989999999998
20
-129.5650760000000048
11
151.0637229999999818
21
-129.4698379999999815
0
LINE
8
BLACK
6
CONTINUOUS
10
151.0637229999999818
20
-129.4698379999999815
11
150.682770000000005
21
-129.4698379999999815
0
LINE
8
BLACK
6
CONTINUOUS
10
150.682770000000005
20
-129.4698379999999815
11
150.4922939999999869
21
-129.5650760000000048
0
LINE
8
BLACK
6
CONTINUOUS
10
150.4922939999999869
20
-129.5650760000000048
11
150.3970559999999921
21
-129.6603139999999996
0
LINE
8
BLACK
6
CONTINUOUS
10
150.3970559999999921
20
-129.6603139999999996
11
150.3018179999999973
21
-129.8507899999999893
0
LINE
8
BLACK
6
CONTINUOUS
10
150.3018179999999973
20
-129.8507899999999893
11
150.3018179999999973
21
-130.3269799999999918
0
LINE
8
BLACK
6
CONTINUOUS
10
150.3018179999999973
20
-130.3269799999999918
11
150.3970559999999921
21
-130.5174570000000074
0
LINE
8
BLACK
6
CONTINUOUS
10
150.3970559999999921
20
-130.5174570000000074
11
150.4922939999999869
21
-130.6126950000000022
0
LINE
8
BLACK
6
CONTINUOUS
10
150.4922939999999869
20
-130.6126950000000022
11
150.682770000000005
21
-130.707932999999997
0
LINE
8
BLACK
6
CONTINUOUS
10
150.682770000000005
20
-130.707932999999997
11
151.0637229999999818
21
-130.707932999999997
0
LINE
8
BLACK
6
CONTINUOUS
10
151.0637229999999818
20
-130.707932999999997
11
151.2541989999999998
21
-130.6126950000000022
0
LINE
8
BLACK
6
CONTINUOUS
10
151.2541989999999998
20
-130.6126950000000022
11
151.3494369999999947
21
-130.5174570000000074
0
LINE
8
BLACK
6
CONTINUOUS
10
151.3494369999999947
20
-130.5174570000000074
11
151.4446749999999895
21
-130.3269799999999918
0
LINE
8
BLACK
6
CONTINUOUS
10
153.158961000000005
20
-130.1365040000000022
11
153.158961000000005
21
-131.4698379999999815
0
LINE
8
BLACK
6
CONTINUOUS
10
152.682770000000005
20
-129.3745999999999867
11
152.2065800000000024
21
-130.8031709999999919
0
LINE
8
BLACK
6
CONTINUOUS
10
152.2065800000000024
20
-130.8031709999999919
11
153.4446749999999895
21
-130.8031709999999919
0
LINE
8
BLACK
6
CONTINUOUS
10
154.1113419999999792
20
-129.4698379999999815
11
154.1113419999999792
21
-129.8507899999999893
0
LINE
8
BLACK
6
CONTINUOUS
10
154.8732469999999921
20
-129.4698379999999815
11
154.8732469999999921
21
-129.8507899999999893
0
LINE
8
BLACK
6
CONTINUOUS
10
157.8256289999999922
20
-132.231741999999997
11
157.7303899999999999
21
-132.1365040000000022
0
LINE
8
BLACK
6
CONTINUOUS
10
157.7303899999999999
20
-132.1365040000000022
11
157.5399139999999818
21
-131.8507899999999893
0
LINE
8
BLACK
6
CONTINUOUS
10
157.5399139999999818
20
-131.8507899999999893
11
157.444675999999987
21
-131.6603139999999996
0
LINE
8
BLACK
6
CONTINUOUS
10
157.444675999999987
20
-131.6603139999999996
11
157.3494379999999921
21
-131.3745999999999867
0
LINE
8
BLACK
6
CONTINUOUS
10
157.3494379999999921
20
-131.3745999999999867
11
157.2541999999999973
21
-130.8984089999999867
0
LINE
8
BLACK
6
CONTINUOUS
10
157.2541999999999973
20
-130.8984089999999867
11
157.2541999999999973
21
-130.5174570000000074
0
LINE
8
BLACK
6
CONTINUOUS
10
157.2541999999999973
20
-130.5174570000000074
11
157.3494379999999921
21
-130.0412660000000074
0
LINE
8
BLACK
6
CONTINUOUS
10
157.3494379999999921
20
-130.0412660000000074
11
157.444675999999987
21
-129.7555519999999945
0
LINE
8
BLACK
6
CONTINUOUS
10
157.444675999999987
20
-129.7555519999999945
11
157.5399139999999818
21
-129.5650760000000048
0
LINE
8
BLACK
6
CONTINUOUS
10
157.5399139999999818
20
-129.5650760000000048
11
157.7303899999999999
21
-129.2793609999999944
0
LINE
8
BLACK
6
CONTINUOUS
10
157.7303899999999999
20
-129.2793609999999944
11
157.8256289999999922
21
-129.1841229999999996
0
LINE
8
BLACK
6
CONTINUOUS
10
159.635152000000005
20
-131.4698379999999815
11
158.4922949999999844
21
-131.4698379999999815
0
LINE
8
BLACK
6
CONTINUOUS
10
159.0637229999999818
20
-131.4698379999999815
11
159.0637229999999818
21
-129.4698379999999815
0
LINE
8
BLACK
6
CONTINUOUS
10
159.0637229999999818
20
-129.4698379999999815
11
158.8732469999999921
21
-129.7555519999999945
0
LINE
8
BLACK
6
CONTINUOUS
10
158.8732469999999921
20
-129.7555519999999945
11
158.6827710000000025
21
-129.9460279999999841
0
LINE
8
BLACK
6
CONTINUOUS
10
158.6827710000000025
20
-129.9460279999999841
11
158.4922949999999844
21
-130.0412660000000074
0
LINE
8
BLACK
6
CONTINUOUS
10
160.3970569999999896
20
-129.6603139999999996
11
160.4922949999999844
21
-129.5650760000000048
0
LINE
8
BLACK
6
CONTINUOUS
10
160.4922949999999844
20
-129.5650760000000048
11
160.6827710000000025
21
-129.4698379999999815
0
LINE
8
BLACK
6
CONTINUOUS
10
160.6827710000000025
20
-129.4698379999999815
11
161.1589620000000025
21
-129.4698379999999815
0
LINE
8
BLACK
6
CONTINUOUS
10
161.1589620000000025
20
-129.4698379999999815
11
161.3494379999999921
21
-129.5650760000000048
0
LINE
8
BLACK
6
CONTINUOUS
10
161.3494379999999921
20
-129.5650760000000048
11
161.444675999999987
21
-129.6603139999999996
0
LINE
8
BLACK
6
CONTINUOUS
10
161.444675999999987
20
-129.6603139999999996
11
161.5399139999999818
21
-129.8507899999999893
0
LINE
8
BLACK
6
CONTINUOUS
10
161.5399139999999818
20
-129.8507899999999893
11
161.5399139999999818
21
-130.0412660000000074
0
LINE
8
BLACK
6
CONTINUOUS
10
161.5399139999999818
20
-130.0412660000000074
11
161.444675999999987
21
-130.3269799999999918
0
LINE
8
BLACK
6
CONTINUOUS
10
161.444675999999987
20
-130.3269799999999918
11
160.3018189999999947
21
-131.4698379999999815
0
LINE
8
BLACK
6
CONTINUOUS
10
160.3018189999999947
20
-131.4698379999999815
11
161.5399139999999818
21
-131.4698379999999815
0
LINE
8
BLACK
6
CONTINUOUS
10
163.920866999999987
20
-131.4698379999999815
11
163.920866999999987
21
-129.4698379999999815
0
LINE
8
BLACK
6
CONTINUOUS
10
164.7780099999999948
20
-131.4698379999999815
11
164.7780099999999948
21
-130.4222189999999841
0
LINE
8
BLACK
6
CONTINUOUS
10
164.7780099999999948
20
-130.4222189999999841
11
164.6827719999999999
21
-130.231741999999997
0
LINE
8
BLACK
6
CONTINUOUS
10
164.6827719999999999
20
-130.231741999999997
11
164.4922959999999819
21
-130.1365040000000022
0
LINE
8
BLACK
6
CONTINUOUS
10
164.4922959999999819
20
-130.1365040000000022
11
164.2065809999999999
21
-130.1365040000000022
0
LINE
8
BLACK
6
CONTINUOUS
10
164.2065809999999999
20
-130.1365040000000022
11
164.0161049999999818
21
-130.231741999999997
0
LINE
8
BLACK
6
CONTINUOUS
10
164.0161049999999818
20
-130.231741999999997
11
163.920866999999987
21
-130.3269799999999918
0
LINE
8
BLACK
6
CONTINUOUS
10
166.0161049999999818
20
-131.4698379999999815
11
165.8256289999999922
21
-131.3745999999999867
0
LINE
8
BLACK
6
CONTINUOUS
10
165.8256289999999922
20
-131.3745999999999867
11
165.7303909999999973
21
-131.2793609999999944
0
LINE
8
BLACK
6
CONTINUOUS
10
165.7303909999999973
20
-131.2793609999999944
11
165.6351530000000025
21
-131.0888850000000048
0
LINE
8
BLACK
6
CONTINUOUS
10
165.6351530000000025
20
-131.0888850000000048
11
165.6351530000000025
21
-130.5174570000000074
0
LINE
8
BLACK
6
CONTINUOUS
10
165.6351530000000025
20
-130.5174570000000074
11
165.7303909999999973
21
-130.3269799999999918
0
LINE
8
BLACK
6
CONTINUOUS
10
165.7303909999999973
20
-130.3269799999999918
11
165.8256289999999922
21
-130.231741999999997
0
LINE
8
BLACK
6
CONTINUOUS
10
165.8256289999999922
20
-130.231741999999997
11
166.0161049999999818
21
-130.1365040000000022
0
LINE
8
BLACK
6
CONTINUOUS
10
166.0161049999999818
20
-130.1365040000000022
11
166.3018199999999922
21
-130.1365040000000022
0
LINE
8
BLACK
6
CONTINUOUS
10
166.3018199999999922
20
-130.1365040000000022
11
166.4922959999999819
21
-130.231741999999997
0
LINE
8
BLACK
6
CONTINUOUS
10
166.4922959999999819
20
-130.231741999999997
11
166.5875340000000051
21
-130.3269799999999918
0
LINE
8
BLACK
6
CONTINUOUS
10
166.5875340000000051
20
-130.3269799999999918
11
166.6827719999999999
21
-130.5174570000000074
0
LINE
8
BLACK
6
CONTINUOUS
10
166.6827719999999999
20
-130.5174570000000074
11
166.6827719999999999
21
-131.0888850000000048
0
LINE
8
BLACK
6
CONTINUOUS
10
166.6827719999999999
20
-131.0888850000000048
11
166.5875340000000051
21
-131.2793609999999944
0
LINE
8
BLACK
6
CONTINUOUS
10
166.5875340000000051
20
-131.2793609999999944
11
166.4922959999999819
21
-131.3745999999999867
0
LINE
8
BLACK
6
CONTINUOUS
10
166.4922959999999819
20
-131.3745999999999867
11
166.3018199999999922
21
-131.4698379999999815
0
LINE
8
BLACK
6
CONTINUOUS
10
166.3018199999999922
20
-131.4698379999999815
11
166.0161049999999818
21
-131.4698379999999815
0
LINE
8
BLACK
6
CONTINUOUS
10
167.8256289999999922
20
-131.4698379999999815
11
167.6351530000000025
21
-131.3745999999999867
0
LINE
8
BLACK
6
CONTINUOUS
10
167.6351530000000025
20
-131.3745999999999867
11
167.5399149999999793
21
-131.1841229999999996
0
LINE
8
BLACK
6
CONTINUOUS
10
167.5399149999999793
20
-131.1841229999999996
11
167.5399149999999793
21
-129.4698379999999815
0
LINE
8
BLACK
6
CONTINUOUS
10
169.3494389999999896
20
-131.3745999999999867
11
169.158963
21
-131.4698379999999815
0
LINE
8
BLACK
6
CONTINUOUS
10
169.158963
20
-131.4698379999999815
11
168.7780099999999948
21
-131.4698379999999815
0
LINE
8
BLACK
6
CONTINUOUS
10
168.7780099999999948
20
-131.4698379999999815
11
168.5875340000000051
21
-131.3745999999999867
0
LINE
8
BLACK
6
CONTINUOUS
10
168.5875340000000051
20
-131.3745999999999867
11
168.4922959999999819
21
-131.1841229999999996
0
LINE
8
BLACK
6
CONTINUOUS
10
168.4922959999999819
20
-131.1841229999999996
11
168.4922959999999819
21
-130.4222189999999841
0
LINE
8
BLACK
6
CONTINUOUS
10
168.4922959999999819
20
-130.4222189999999841
11
168.5875340000000051
21
-130.231741999999997
0
LINE
8
BLACK
6
CONTINUOUS
10
168.5875340000000051
20
-130.231741999999997
11
168.7780099999999948
21
-130.1365040000000022
0
LINE
8
BLACK
6
CONTINUOUS
10
168.7780099999999948
20
-130.1365040000000022
11
169.158963
21
-130.1365040000000022
0
LINE
8
BLACK
6
CONTINUOUS
10
169.158963
20
-130.1365040000000022
11
169.3494389999999896
21
-130.231741999999997
0
LINE
8
BLACK
6
CONTINUOUS
10
169.3494389999999896
20
-130.231741999999997
11
169.4446769999999844
21
-130.4222189999999841
0
LINE
8
BLACK
6
CONTINUOUS
10
169.4446769999999844
20
-130.4222189999999841
11
169.4446769999999844
21
-130.6126950000000022
0
LINE
8
BLACK
6
CONTINUOUS
10
169.4446769999999844
20
-130.6126950000000022
11
168.4922959999999819
21
-130.8031709999999919
0
LINE
8
BLACK
6
CONTINUOUS
10
170.2065819999999974
20
-131.3745999999999867
11
170.397057999999987
21
-131.4698379999999815
0
LINE
8
BLACK
6
CONTINUOUS
10
170.397057999999987
20
-131.4698379999999815
11
170.7780099999999948
21
-131.4698379999999815
0
LINE
8
BLACK
6
CONTINUOUS
10
170.7780099999999948
20
-131.4698379999999815
11
170.9684869999999819
21
-131.3745999999999867
0
LINE
8
BLACK
6
CONTINUOUS
10
170.9684869999999819
20
-131.3745999999999867
11
171.0637250000000051
21
-131.1841229999999996
0
LINE
8
BLACK
6
CONTINUOUS
10
171.0637250000000051
20
-131.1841229999999996
11
171.0637250000000051
21
-131.0888850000000048
0
LINE
8
BLACK
6
CONTINUOUS
10
171.0637250000000051
20
-131.0888850000000048
11
170.9684869999999819
21
-130.8984089999999867
0
LINE
8
BLACK
6
CONTINUOUS
10
170.9684869999999819
20
-130.8984089999999867
11
170.7780099999999948
21
-130.8031709999999919
0
LINE
8
BLACK
6
CONTINUOUS
10
170.7780099999999948
20
-130.8031709999999919
11
170.4922959999999819
21
-130.8031709999999919
0
LINE
8
BLACK
6
CONTINUOUS
10
170.4922959999999819
20
-130.8031709999999919
11
170.3018199999999922
21
-130.707932999999997
0
LINE
8
BLACK
6
CONTINUOUS
10
170.3018199999999922
20
-130.707932999999997
11
170.2065819999999974
21
-130.5174570000000074
0
LINE
8
BLACK
6
CONTINUOUS
10
170.2065819999999974
20
-130.5174570000000074
11
170.2065819999999974
21
-130.4222189999999841
0
LINE
8
BLACK
6
CONTINUOUS
10
170.2065819999999974
20
-130.4222189999999841
11
170.3018199999999922
21
-130.231741999999997
0
LINE
8
BLACK
6
CONTINUOUS
10
170.3018199999999922
20
-130.231741999999997
11
170.4922959999999819
21
-130.1365040000000022
0
LINE
8
BLACK
6
CONTINUOUS
10
170.4922959999999819
20
-130.1365040000000022
11
170.7780099999999948
21
-130.1365040000000022
0
LINE
8
BLACK
6
CONTINUOUS
10
170.7780099999999948
20
-130.1365040000000022
11
170.9684869999999819
21
-130.231741999999997
0
LINE
8
BLACK
6
CONTINUOUS
10
171.7303919999999948
20
-132.231741999999997
11
171.8256299999999896
21
-132.1365040000000022
0
LINE
8
BLACK
6
CONTINUOUS
10
171.8256299999999896
20
-132.1365040000000022
11
172.0161059999999793
21
-131.8507899999999893
0
LINE
8
BLACK
6
CONTINUOUS
10
172.0161059999999793
20
-131.8507899999999893
11
172.1113440000000026
21
-131.6603139999999996
0
LINE
8
BLACK
6
CONTINUOUS
10
172.1113440000000026
20
-131.6603139999999996
11
172.2065819999999974
21
-131.3745999999999867
0
LINE
8
BLACK
6
CONTINUOUS
10
172.2065819999999974
20
-131.3745999999999867
11
172.3018199999999922
21
-130.8984089999999867
0
LINE
8
BLACK
6
CONTINUOUS
10
172.3018199999999922
20
-130.8984089999999867
11
172.3018199999999922
21
-130.5174570000000074
0
LINE
8
BLACK
6
CONTINUOUS
10
172.3018199999999922
20
-130.5174570000000074
11
172.2065819999999974
21
-130.0412660000000074
0
LINE
8
BLACK
6
CONTINUOUS
10
172.2065819999999974
20
-130.0412660000000074
11
172.1113440000000026
21
-129.7555519999999945
0
LINE
8
BLACK
6
CONTINUOUS
10
172.1113440000000026
20
-129.7555519999999945
11
172.0161059999999793
21
-129.5650760000000048
0
LINE
8
BLACK
6
CONTINUOUS
10
172.0161059999999793
20
-129.5650760000000048
11
171.8256299999999896
21
-129.2793609999999944
0
LINE
8
BLACK
6
CONTINUOUS
10
171.8256299999999896
20
-129.2793609999999944
11
171.7303919999999948
21
-129.1841229999999996
  0
ENDSEC
  0
EOF
