%TF.GenerationSoftware,KiCad,Pcbnew,10.0.0*%
%TF.CreationDate,2026-06-05T02:46:44+02:00*%
%TF.ProjectId,aux_flex_pcb,6175785f-666c-4657-985f-7063622e6b69,rev?*%
%TF.SameCoordinates,Original*%
%TF.FileFunction,Other,ECO1*%
%FSLAX46Y46*%
G04 Gerber Fmt 4.6, Leading zero omitted, Abs format (unit mm)*
G04 Created by KiCad (PCBNEW 10.0.0) date 2026-06-05 02:46:44*
%MOMM*%
%LPD*%
G01*
G04 APERTURE LIST*
%ADD10C,0.250000*%
%ADD11C,0.100000*%
G04 APERTURE END LIST*
D10*
X139029949Y-111902224D02*
X139125187Y-111949843D01*
X139125187Y-111949843D02*
X139315663Y-111949843D01*
X139315663Y-111949843D02*
X139410901Y-111902224D01*
X139410901Y-111902224D02*
X139458520Y-111806985D01*
X139458520Y-111806985D02*
X139458520Y-111759366D01*
X139458520Y-111759366D02*
X139410901Y-111664128D01*
X139410901Y-111664128D02*
X139315663Y-111616509D01*
X139315663Y-111616509D02*
X139172806Y-111616509D01*
X139172806Y-111616509D02*
X139077568Y-111568890D01*
X139077568Y-111568890D02*
X139029949Y-111473652D01*
X139029949Y-111473652D02*
X139029949Y-111426033D01*
X139029949Y-111426033D02*
X139077568Y-111330795D01*
X139077568Y-111330795D02*
X139172806Y-111283176D01*
X139172806Y-111283176D02*
X139315663Y-111283176D01*
X139315663Y-111283176D02*
X139410901Y-111330795D01*
X139744235Y-111283176D02*
X140125187Y-111283176D01*
X139887092Y-110949843D02*
X139887092Y-111806985D01*
X139887092Y-111806985D02*
X139934711Y-111902224D01*
X139934711Y-111902224D02*
X140029949Y-111949843D01*
X140029949Y-111949843D02*
X140125187Y-111949843D01*
X140458521Y-111949843D02*
X140458521Y-111283176D01*
X140458521Y-110949843D02*
X140410902Y-110997462D01*
X140410902Y-110997462D02*
X140458521Y-111045081D01*
X140458521Y-111045081D02*
X140506140Y-110997462D01*
X140506140Y-110997462D02*
X140458521Y-110949843D01*
X140458521Y-110949843D02*
X140458521Y-111045081D01*
X140791854Y-111283176D02*
X141172806Y-111283176D01*
X140934711Y-111949843D02*
X140934711Y-111092700D01*
X140934711Y-111092700D02*
X140982330Y-110997462D01*
X140982330Y-110997462D02*
X141077568Y-110949843D01*
X141077568Y-110949843D02*
X141172806Y-110949843D01*
X141363283Y-111283176D02*
X141744235Y-111283176D01*
X141506140Y-111949843D02*
X141506140Y-111092700D01*
X141506140Y-111092700D02*
X141553759Y-110997462D01*
X141553759Y-110997462D02*
X141648997Y-110949843D01*
X141648997Y-110949843D02*
X141744235Y-110949843D01*
X142458521Y-111902224D02*
X142363283Y-111949843D01*
X142363283Y-111949843D02*
X142172807Y-111949843D01*
X142172807Y-111949843D02*
X142077569Y-111902224D01*
X142077569Y-111902224D02*
X142029950Y-111806985D01*
X142029950Y-111806985D02*
X142029950Y-111426033D01*
X142029950Y-111426033D02*
X142077569Y-111330795D01*
X142077569Y-111330795D02*
X142172807Y-111283176D01*
X142172807Y-111283176D02*
X142363283Y-111283176D01*
X142363283Y-111283176D02*
X142458521Y-111330795D01*
X142458521Y-111330795D02*
X142506140Y-111426033D01*
X142506140Y-111426033D02*
X142506140Y-111521271D01*
X142506140Y-111521271D02*
X142029950Y-111616509D01*
X142934712Y-111283176D02*
X142934712Y-111949843D01*
X142934712Y-111378414D02*
X142982331Y-111330795D01*
X142982331Y-111330795D02*
X143077569Y-111283176D01*
X143077569Y-111283176D02*
X143220426Y-111283176D01*
X143220426Y-111283176D02*
X143315664Y-111330795D01*
X143315664Y-111330795D02*
X143363283Y-111426033D01*
X143363283Y-111426033D02*
X143363283Y-111949843D01*
X144220426Y-111902224D02*
X144125188Y-111949843D01*
X144125188Y-111949843D02*
X143934712Y-111949843D01*
X143934712Y-111949843D02*
X143839474Y-111902224D01*
X143839474Y-111902224D02*
X143791855Y-111806985D01*
X143791855Y-111806985D02*
X143791855Y-111426033D01*
X143791855Y-111426033D02*
X143839474Y-111330795D01*
X143839474Y-111330795D02*
X143934712Y-111283176D01*
X143934712Y-111283176D02*
X144125188Y-111283176D01*
X144125188Y-111283176D02*
X144220426Y-111330795D01*
X144220426Y-111330795D02*
X144268045Y-111426033D01*
X144268045Y-111426033D02*
X144268045Y-111521271D01*
X144268045Y-111521271D02*
X143791855Y-111616509D01*
X144696617Y-111949843D02*
X144696617Y-111283176D01*
X144696617Y-111473652D02*
X144744236Y-111378414D01*
X144744236Y-111378414D02*
X144791855Y-111330795D01*
X144791855Y-111330795D02*
X144887093Y-111283176D01*
X144887093Y-111283176D02*
X144982331Y-111283176D01*
X139077568Y-112893120D02*
X139077568Y-113893120D01*
X139077568Y-112940739D02*
X139172806Y-112893120D01*
X139172806Y-112893120D02*
X139363282Y-112893120D01*
X139363282Y-112893120D02*
X139458520Y-112940739D01*
X139458520Y-112940739D02*
X139506139Y-112988358D01*
X139506139Y-112988358D02*
X139553758Y-113083596D01*
X139553758Y-113083596D02*
X139553758Y-113369310D01*
X139553758Y-113369310D02*
X139506139Y-113464548D01*
X139506139Y-113464548D02*
X139458520Y-113512168D01*
X139458520Y-113512168D02*
X139363282Y-113559787D01*
X139363282Y-113559787D02*
X139172806Y-113559787D01*
X139172806Y-113559787D02*
X139077568Y-113512168D01*
X140125187Y-113559787D02*
X140029949Y-113512168D01*
X140029949Y-113512168D02*
X139982330Y-113464548D01*
X139982330Y-113464548D02*
X139934711Y-113369310D01*
X139934711Y-113369310D02*
X139934711Y-113083596D01*
X139934711Y-113083596D02*
X139982330Y-112988358D01*
X139982330Y-112988358D02*
X140029949Y-112940739D01*
X140029949Y-112940739D02*
X140125187Y-112893120D01*
X140125187Y-112893120D02*
X140268044Y-112893120D01*
X140268044Y-112893120D02*
X140363282Y-112940739D01*
X140363282Y-112940739D02*
X140410901Y-112988358D01*
X140410901Y-112988358D02*
X140458520Y-113083596D01*
X140458520Y-113083596D02*
X140458520Y-113369310D01*
X140458520Y-113369310D02*
X140410901Y-113464548D01*
X140410901Y-113464548D02*
X140363282Y-113512168D01*
X140363282Y-113512168D02*
X140268044Y-113559787D01*
X140268044Y-113559787D02*
X140125187Y-113559787D01*
X141029949Y-113559787D02*
X140934711Y-113512168D01*
X140934711Y-113512168D02*
X140887092Y-113416929D01*
X140887092Y-113416929D02*
X140887092Y-112559787D01*
X141315664Y-112893120D02*
X141553759Y-113559787D01*
X141791854Y-112893120D02*
X141553759Y-113559787D01*
X141553759Y-113559787D02*
X141458521Y-113797882D01*
X141458521Y-113797882D02*
X141410902Y-113845501D01*
X141410902Y-113845501D02*
X141315664Y-113893120D01*
X142172807Y-113559787D02*
X142172807Y-112893120D01*
X142172807Y-112559787D02*
X142125188Y-112607406D01*
X142125188Y-112607406D02*
X142172807Y-112655025D01*
X142172807Y-112655025D02*
X142220426Y-112607406D01*
X142220426Y-112607406D02*
X142172807Y-112559787D01*
X142172807Y-112559787D02*
X142172807Y-112655025D01*
X142648997Y-113559787D02*
X142648997Y-112893120D01*
X142648997Y-112988358D02*
X142696616Y-112940739D01*
X142696616Y-112940739D02*
X142791854Y-112893120D01*
X142791854Y-112893120D02*
X142934711Y-112893120D01*
X142934711Y-112893120D02*
X143029949Y-112940739D01*
X143029949Y-112940739D02*
X143077568Y-113035977D01*
X143077568Y-113035977D02*
X143077568Y-113559787D01*
X143077568Y-113035977D02*
X143125187Y-112940739D01*
X143125187Y-112940739D02*
X143220425Y-112893120D01*
X143220425Y-112893120D02*
X143363282Y-112893120D01*
X143363282Y-112893120D02*
X143458521Y-112940739D01*
X143458521Y-112940739D02*
X143506140Y-113035977D01*
X143506140Y-113035977D02*
X143506140Y-113559787D01*
X143982330Y-113559787D02*
X143982330Y-112893120D01*
X143982330Y-112559787D02*
X143934711Y-112607406D01*
X143934711Y-112607406D02*
X143982330Y-112655025D01*
X143982330Y-112655025D02*
X144029949Y-112607406D01*
X144029949Y-112607406D02*
X143982330Y-112559787D01*
X143982330Y-112559787D02*
X143982330Y-112655025D01*
X144887091Y-113559787D02*
X144887091Y-112559787D01*
X144887091Y-113512168D02*
X144791853Y-113559787D01*
X144791853Y-113559787D02*
X144601377Y-113559787D01*
X144601377Y-113559787D02*
X144506139Y-113512168D01*
X144506139Y-113512168D02*
X144458520Y-113464548D01*
X144458520Y-113464548D02*
X144410901Y-113369310D01*
X144410901Y-113369310D02*
X144410901Y-113083596D01*
X144410901Y-113083596D02*
X144458520Y-112988358D01*
X144458520Y-112988358D02*
X144506139Y-112940739D01*
X144506139Y-112940739D02*
X144601377Y-112893120D01*
X144601377Y-112893120D02*
X144791853Y-112893120D01*
X144791853Y-112893120D02*
X144887091Y-112940739D01*
X145744234Y-113512168D02*
X145648996Y-113559787D01*
X145648996Y-113559787D02*
X145458520Y-113559787D01*
X145458520Y-113559787D02*
X145363282Y-113512168D01*
X145363282Y-113512168D02*
X145315663Y-113416929D01*
X145315663Y-113416929D02*
X145315663Y-113035977D01*
X145315663Y-113035977D02*
X145363282Y-112940739D01*
X145363282Y-112940739D02*
X145458520Y-112893120D01*
X145458520Y-112893120D02*
X145648996Y-112893120D01*
X145648996Y-112893120D02*
X145744234Y-112940739D01*
X145744234Y-112940739D02*
X145791853Y-113035977D01*
X145791853Y-113035977D02*
X145791853Y-113131215D01*
X145791853Y-113131215D02*
X145315663Y-113226453D01*
X139220425Y-115169731D02*
X139125187Y-115122112D01*
X139125187Y-115122112D02*
X139077568Y-115074492D01*
X139077568Y-115074492D02*
X139029949Y-114979254D01*
X139029949Y-114979254D02*
X139029949Y-114693540D01*
X139029949Y-114693540D02*
X139077568Y-114598302D01*
X139077568Y-114598302D02*
X139125187Y-114550683D01*
X139125187Y-114550683D02*
X139220425Y-114503064D01*
X139220425Y-114503064D02*
X139363282Y-114503064D01*
X139363282Y-114503064D02*
X139458520Y-114550683D01*
X139458520Y-114550683D02*
X139506139Y-114598302D01*
X139506139Y-114598302D02*
X139553758Y-114693540D01*
X139553758Y-114693540D02*
X139553758Y-114979254D01*
X139553758Y-114979254D02*
X139506139Y-115074492D01*
X139506139Y-115074492D02*
X139458520Y-115122112D01*
X139458520Y-115122112D02*
X139363282Y-115169731D01*
X139363282Y-115169731D02*
X139220425Y-115169731D01*
X139982330Y-114503064D02*
X139982330Y-115169731D01*
X139982330Y-114598302D02*
X140029949Y-114550683D01*
X140029949Y-114550683D02*
X140125187Y-114503064D01*
X140125187Y-114503064D02*
X140268044Y-114503064D01*
X140268044Y-114503064D02*
X140363282Y-114550683D01*
X140363282Y-114550683D02*
X140410901Y-114645921D01*
X140410901Y-114645921D02*
X140410901Y-115169731D01*
X141982330Y-114645921D02*
X141648997Y-114645921D01*
X141648997Y-115169731D02*
X141648997Y-114169731D01*
X141648997Y-114169731D02*
X142125187Y-114169731D01*
X142506140Y-115074492D02*
X142553759Y-115122112D01*
X142553759Y-115122112D02*
X142506140Y-115169731D01*
X142506140Y-115169731D02*
X142458521Y-115122112D01*
X142458521Y-115122112D02*
X142506140Y-115074492D01*
X142506140Y-115074492D02*
X142506140Y-115169731D01*
X143553758Y-115074492D02*
X143506139Y-115122112D01*
X143506139Y-115122112D02*
X143363282Y-115169731D01*
X143363282Y-115169731D02*
X143268044Y-115169731D01*
X143268044Y-115169731D02*
X143125187Y-115122112D01*
X143125187Y-115122112D02*
X143029949Y-115026873D01*
X143029949Y-115026873D02*
X142982330Y-114931635D01*
X142982330Y-114931635D02*
X142934711Y-114741159D01*
X142934711Y-114741159D02*
X142934711Y-114598302D01*
X142934711Y-114598302D02*
X142982330Y-114407826D01*
X142982330Y-114407826D02*
X143029949Y-114312588D01*
X143029949Y-114312588D02*
X143125187Y-114217350D01*
X143125187Y-114217350D02*
X143268044Y-114169731D01*
X143268044Y-114169731D02*
X143363282Y-114169731D01*
X143363282Y-114169731D02*
X143506139Y-114217350D01*
X143506139Y-114217350D02*
X143553758Y-114264969D01*
X144410901Y-114503064D02*
X144410901Y-115169731D01*
X143982330Y-114503064D02*
X143982330Y-115026873D01*
X143982330Y-115026873D02*
X144029949Y-115122112D01*
X144029949Y-115122112D02*
X144125187Y-115169731D01*
X144125187Y-115169731D02*
X144268044Y-115169731D01*
X144268044Y-115169731D02*
X144363282Y-115122112D01*
X144363282Y-115122112D02*
X144410901Y-115074492D01*
X145601378Y-115122112D02*
X145696616Y-115169731D01*
X145696616Y-115169731D02*
X145887092Y-115169731D01*
X145887092Y-115169731D02*
X145982330Y-115122112D01*
X145982330Y-115122112D02*
X146029949Y-115026873D01*
X146029949Y-115026873D02*
X146029949Y-114979254D01*
X146029949Y-114979254D02*
X145982330Y-114884016D01*
X145982330Y-114884016D02*
X145887092Y-114836397D01*
X145887092Y-114836397D02*
X145744235Y-114836397D01*
X145744235Y-114836397D02*
X145648997Y-114788778D01*
X145648997Y-114788778D02*
X145601378Y-114693540D01*
X145601378Y-114693540D02*
X145601378Y-114645921D01*
X145601378Y-114645921D02*
X145648997Y-114550683D01*
X145648997Y-114550683D02*
X145744235Y-114503064D01*
X145744235Y-114503064D02*
X145887092Y-114503064D01*
X145887092Y-114503064D02*
X145982330Y-114550683D01*
X146458521Y-115169731D02*
X146458521Y-114503064D01*
X146458521Y-114169731D02*
X146410902Y-114217350D01*
X146410902Y-114217350D02*
X146458521Y-114264969D01*
X146458521Y-114264969D02*
X146506140Y-114217350D01*
X146506140Y-114217350D02*
X146458521Y-114169731D01*
X146458521Y-114169731D02*
X146458521Y-114264969D01*
X147363282Y-115169731D02*
X147363282Y-114169731D01*
X147363282Y-115122112D02*
X147268044Y-115169731D01*
X147268044Y-115169731D02*
X147077568Y-115169731D01*
X147077568Y-115169731D02*
X146982330Y-115122112D01*
X146982330Y-115122112D02*
X146934711Y-115074492D01*
X146934711Y-115074492D02*
X146887092Y-114979254D01*
X146887092Y-114979254D02*
X146887092Y-114693540D01*
X146887092Y-114693540D02*
X146934711Y-114598302D01*
X146934711Y-114598302D02*
X146982330Y-114550683D01*
X146982330Y-114550683D02*
X147077568Y-114503064D01*
X147077568Y-114503064D02*
X147268044Y-114503064D01*
X147268044Y-114503064D02*
X147363282Y-114550683D01*
X148220425Y-115122112D02*
X148125187Y-115169731D01*
X148125187Y-115169731D02*
X147934711Y-115169731D01*
X147934711Y-115169731D02*
X147839473Y-115122112D01*
X147839473Y-115122112D02*
X147791854Y-115026873D01*
X147791854Y-115026873D02*
X147791854Y-114645921D01*
X147791854Y-114645921D02*
X147839473Y-114550683D01*
X147839473Y-114550683D02*
X147934711Y-114503064D01*
X147934711Y-114503064D02*
X148125187Y-114503064D01*
X148125187Y-114503064D02*
X148220425Y-114550683D01*
X148220425Y-114550683D02*
X148268044Y-114645921D01*
X148268044Y-114645921D02*
X148268044Y-114741159D01*
X148268044Y-114741159D02*
X147791854Y-114836397D01*
X138934711Y-116113008D02*
X139315663Y-116113008D01*
X139077568Y-116779675D02*
X139077568Y-115922532D01*
X139077568Y-115922532D02*
X139125187Y-115827294D01*
X139125187Y-115827294D02*
X139220425Y-115779675D01*
X139220425Y-115779675D02*
X139315663Y-115779675D01*
X139791854Y-116779675D02*
X139696616Y-116732056D01*
X139696616Y-116732056D02*
X139648997Y-116684436D01*
X139648997Y-116684436D02*
X139601378Y-116589198D01*
X139601378Y-116589198D02*
X139601378Y-116303484D01*
X139601378Y-116303484D02*
X139648997Y-116208246D01*
X139648997Y-116208246D02*
X139696616Y-116160627D01*
X139696616Y-116160627D02*
X139791854Y-116113008D01*
X139791854Y-116113008D02*
X139934711Y-116113008D01*
X139934711Y-116113008D02*
X140029949Y-116160627D01*
X140029949Y-116160627D02*
X140077568Y-116208246D01*
X140077568Y-116208246D02*
X140125187Y-116303484D01*
X140125187Y-116303484D02*
X140125187Y-116589198D01*
X140125187Y-116589198D02*
X140077568Y-116684436D01*
X140077568Y-116684436D02*
X140029949Y-116732056D01*
X140029949Y-116732056D02*
X139934711Y-116779675D01*
X139934711Y-116779675D02*
X139791854Y-116779675D01*
X140553759Y-116779675D02*
X140553759Y-116113008D01*
X140553759Y-116303484D02*
X140601378Y-116208246D01*
X140601378Y-116208246D02*
X140648997Y-116160627D01*
X140648997Y-116160627D02*
X140744235Y-116113008D01*
X140744235Y-116113008D02*
X140839473Y-116113008D01*
X142363283Y-116779675D02*
X142363283Y-116255865D01*
X142363283Y-116255865D02*
X142315664Y-116160627D01*
X142315664Y-116160627D02*
X142220426Y-116113008D01*
X142220426Y-116113008D02*
X142029950Y-116113008D01*
X142029950Y-116113008D02*
X141934712Y-116160627D01*
X142363283Y-116732056D02*
X142268045Y-116779675D01*
X142268045Y-116779675D02*
X142029950Y-116779675D01*
X142029950Y-116779675D02*
X141934712Y-116732056D01*
X141934712Y-116732056D02*
X141887093Y-116636817D01*
X141887093Y-116636817D02*
X141887093Y-116541579D01*
X141887093Y-116541579D02*
X141934712Y-116446341D01*
X141934712Y-116446341D02*
X142029950Y-116398722D01*
X142029950Y-116398722D02*
X142268045Y-116398722D01*
X142268045Y-116398722D02*
X142363283Y-116351103D01*
X142982331Y-116779675D02*
X142887093Y-116732056D01*
X142887093Y-116732056D02*
X142839474Y-116636817D01*
X142839474Y-116636817D02*
X142839474Y-115779675D01*
X143506141Y-116779675D02*
X143410903Y-116732056D01*
X143410903Y-116732056D02*
X143363284Y-116636817D01*
X143363284Y-116636817D02*
X143363284Y-115779675D01*
X144553761Y-116113008D02*
X145077570Y-116113008D01*
X145077570Y-116113008D02*
X144553761Y-116779675D01*
X144553761Y-116779675D02*
X145077570Y-116779675D01*
X145601380Y-116779675D02*
X145506142Y-116732056D01*
X145506142Y-116732056D02*
X145458523Y-116684436D01*
X145458523Y-116684436D02*
X145410904Y-116589198D01*
X145410904Y-116589198D02*
X145410904Y-116303484D01*
X145410904Y-116303484D02*
X145458523Y-116208246D01*
X145458523Y-116208246D02*
X145506142Y-116160627D01*
X145506142Y-116160627D02*
X145601380Y-116113008D01*
X145601380Y-116113008D02*
X145744237Y-116113008D01*
X145744237Y-116113008D02*
X145839475Y-116160627D01*
X145839475Y-116160627D02*
X145887094Y-116208246D01*
X145887094Y-116208246D02*
X145934713Y-116303484D01*
X145934713Y-116303484D02*
X145934713Y-116589198D01*
X145934713Y-116589198D02*
X145887094Y-116684436D01*
X145887094Y-116684436D02*
X145839475Y-116732056D01*
X145839475Y-116732056D02*
X145744237Y-116779675D01*
X145744237Y-116779675D02*
X145601380Y-116779675D01*
X146363285Y-116113008D02*
X146363285Y-116779675D01*
X146363285Y-116208246D02*
X146410904Y-116160627D01*
X146410904Y-116160627D02*
X146506142Y-116113008D01*
X146506142Y-116113008D02*
X146648999Y-116113008D01*
X146648999Y-116113008D02*
X146744237Y-116160627D01*
X146744237Y-116160627D02*
X146791856Y-116255865D01*
X146791856Y-116255865D02*
X146791856Y-116779675D01*
X147648999Y-116732056D02*
X147553761Y-116779675D01*
X147553761Y-116779675D02*
X147363285Y-116779675D01*
X147363285Y-116779675D02*
X147268047Y-116732056D01*
X147268047Y-116732056D02*
X147220428Y-116636817D01*
X147220428Y-116636817D02*
X147220428Y-116255865D01*
X147220428Y-116255865D02*
X147268047Y-116160627D01*
X147268047Y-116160627D02*
X147363285Y-116113008D01*
X147363285Y-116113008D02*
X147553761Y-116113008D01*
X147553761Y-116113008D02*
X147648999Y-116160627D01*
X147648999Y-116160627D02*
X147696618Y-116255865D01*
X147696618Y-116255865D02*
X147696618Y-116351103D01*
X147696618Y-116351103D02*
X147220428Y-116446341D01*
X139220425Y-118389619D02*
X139125187Y-118342000D01*
X139125187Y-118342000D02*
X139077568Y-118294380D01*
X139077568Y-118294380D02*
X139029949Y-118199142D01*
X139029949Y-118199142D02*
X139029949Y-117913428D01*
X139029949Y-117913428D02*
X139077568Y-117818190D01*
X139077568Y-117818190D02*
X139125187Y-117770571D01*
X139125187Y-117770571D02*
X139220425Y-117722952D01*
X139220425Y-117722952D02*
X139363282Y-117722952D01*
X139363282Y-117722952D02*
X139458520Y-117770571D01*
X139458520Y-117770571D02*
X139506139Y-117818190D01*
X139506139Y-117818190D02*
X139553758Y-117913428D01*
X139553758Y-117913428D02*
X139553758Y-118199142D01*
X139553758Y-118199142D02*
X139506139Y-118294380D01*
X139506139Y-118294380D02*
X139458520Y-118342000D01*
X139458520Y-118342000D02*
X139363282Y-118389619D01*
X139363282Y-118389619D02*
X139220425Y-118389619D01*
X139982330Y-117722952D02*
X139982330Y-118389619D01*
X139982330Y-117818190D02*
X140029949Y-117770571D01*
X140029949Y-117770571D02*
X140125187Y-117722952D01*
X140125187Y-117722952D02*
X140268044Y-117722952D01*
X140268044Y-117722952D02*
X140363282Y-117770571D01*
X140363282Y-117770571D02*
X140410901Y-117865809D01*
X140410901Y-117865809D02*
X140410901Y-118389619D01*
X141648997Y-117389619D02*
X141648997Y-118199142D01*
X141648997Y-118199142D02*
X141696616Y-118294380D01*
X141696616Y-118294380D02*
X141744235Y-118342000D01*
X141744235Y-118342000D02*
X141839473Y-118389619D01*
X141839473Y-118389619D02*
X142029949Y-118389619D01*
X142029949Y-118389619D02*
X142125187Y-118342000D01*
X142125187Y-118342000D02*
X142172806Y-118294380D01*
X142172806Y-118294380D02*
X142220425Y-118199142D01*
X142220425Y-118199142D02*
X142220425Y-117389619D01*
X142648997Y-118342000D02*
X142744235Y-118389619D01*
X142744235Y-118389619D02*
X142934711Y-118389619D01*
X142934711Y-118389619D02*
X143029949Y-118342000D01*
X143029949Y-118342000D02*
X143077568Y-118246761D01*
X143077568Y-118246761D02*
X143077568Y-118199142D01*
X143077568Y-118199142D02*
X143029949Y-118103904D01*
X143029949Y-118103904D02*
X142934711Y-118056285D01*
X142934711Y-118056285D02*
X142791854Y-118056285D01*
X142791854Y-118056285D02*
X142696616Y-118008666D01*
X142696616Y-118008666D02*
X142648997Y-117913428D01*
X142648997Y-117913428D02*
X142648997Y-117865809D01*
X142648997Y-117865809D02*
X142696616Y-117770571D01*
X142696616Y-117770571D02*
X142791854Y-117722952D01*
X142791854Y-117722952D02*
X142934711Y-117722952D01*
X142934711Y-117722952D02*
X143029949Y-117770571D01*
X143887092Y-118342000D02*
X143791854Y-118389619D01*
X143791854Y-118389619D02*
X143601378Y-118389619D01*
X143601378Y-118389619D02*
X143506140Y-118342000D01*
X143506140Y-118342000D02*
X143458521Y-118246761D01*
X143458521Y-118246761D02*
X143458521Y-117865809D01*
X143458521Y-117865809D02*
X143506140Y-117770571D01*
X143506140Y-117770571D02*
X143601378Y-117722952D01*
X143601378Y-117722952D02*
X143791854Y-117722952D01*
X143791854Y-117722952D02*
X143887092Y-117770571D01*
X143887092Y-117770571D02*
X143934711Y-117865809D01*
X143934711Y-117865809D02*
X143934711Y-117961047D01*
X143934711Y-117961047D02*
X143458521Y-118056285D01*
X144363283Y-118389619D02*
X144363283Y-117722952D01*
X144363283Y-117913428D02*
X144410902Y-117818190D01*
X144410902Y-117818190D02*
X144458521Y-117770571D01*
X144458521Y-117770571D02*
X144553759Y-117722952D01*
X144553759Y-117722952D02*
X144648997Y-117722952D01*
X144982331Y-118294380D02*
X145029950Y-118342000D01*
X145029950Y-118342000D02*
X144982331Y-118389619D01*
X144982331Y-118389619D02*
X144934712Y-118342000D01*
X144934712Y-118342000D02*
X144982331Y-118294380D01*
X144982331Y-118294380D02*
X144982331Y-118389619D01*
X145839473Y-118342000D02*
X145744235Y-118389619D01*
X145744235Y-118389619D02*
X145553759Y-118389619D01*
X145553759Y-118389619D02*
X145458521Y-118342000D01*
X145458521Y-118342000D02*
X145410902Y-118246761D01*
X145410902Y-118246761D02*
X145410902Y-117865809D01*
X145410902Y-117865809D02*
X145458521Y-117770571D01*
X145458521Y-117770571D02*
X145553759Y-117722952D01*
X145553759Y-117722952D02*
X145744235Y-117722952D01*
X145744235Y-117722952D02*
X145839473Y-117770571D01*
X145839473Y-117770571D02*
X145887092Y-117865809D01*
X145887092Y-117865809D02*
X145887092Y-117961047D01*
X145887092Y-117961047D02*
X145410902Y-118056285D01*
X146744235Y-118342000D02*
X146648997Y-118389619D01*
X146648997Y-118389619D02*
X146458521Y-118389619D01*
X146458521Y-118389619D02*
X146363283Y-118342000D01*
X146363283Y-118342000D02*
X146315664Y-118294380D01*
X146315664Y-118294380D02*
X146268045Y-118199142D01*
X146268045Y-118199142D02*
X146268045Y-117913428D01*
X146268045Y-117913428D02*
X146315664Y-117818190D01*
X146315664Y-117818190D02*
X146363283Y-117770571D01*
X146363283Y-117770571D02*
X146458521Y-117722952D01*
X146458521Y-117722952D02*
X146648997Y-117722952D01*
X146648997Y-117722952D02*
X146744235Y-117770571D01*
X147315664Y-118389619D02*
X147220426Y-118342000D01*
X147220426Y-118342000D02*
X147172807Y-118294380D01*
X147172807Y-118294380D02*
X147125188Y-118199142D01*
X147125188Y-118199142D02*
X147125188Y-117913428D01*
X147125188Y-117913428D02*
X147172807Y-117818190D01*
X147172807Y-117818190D02*
X147220426Y-117770571D01*
X147220426Y-117770571D02*
X147315664Y-117722952D01*
X147315664Y-117722952D02*
X147458521Y-117722952D01*
X147458521Y-117722952D02*
X147553759Y-117770571D01*
X147553759Y-117770571D02*
X147601378Y-117818190D01*
X147601378Y-117818190D02*
X147648997Y-117913428D01*
X147648997Y-117913428D02*
X147648997Y-118199142D01*
X147648997Y-118199142D02*
X147601378Y-118294380D01*
X147601378Y-118294380D02*
X147553759Y-118342000D01*
X147553759Y-118342000D02*
X147458521Y-118389619D01*
X147458521Y-118389619D02*
X147315664Y-118389619D01*
X148601378Y-118389619D02*
X148029950Y-118389619D01*
X148315664Y-118389619D02*
X148315664Y-117389619D01*
X148315664Y-117389619D02*
X148220426Y-117532476D01*
X148220426Y-117532476D02*
X148125188Y-117627714D01*
X148125188Y-117627714D02*
X148029950Y-117675333D01*
X149934712Y-118389619D02*
X149839474Y-118342000D01*
X149839474Y-118342000D02*
X149791855Y-118246761D01*
X149791855Y-118246761D02*
X149791855Y-117389619D01*
X150744236Y-118389619D02*
X150744236Y-117865809D01*
X150744236Y-117865809D02*
X150696617Y-117770571D01*
X150696617Y-117770571D02*
X150601379Y-117722952D01*
X150601379Y-117722952D02*
X150410903Y-117722952D01*
X150410903Y-117722952D02*
X150315665Y-117770571D01*
X150744236Y-118342000D02*
X150648998Y-118389619D01*
X150648998Y-118389619D02*
X150410903Y-118389619D01*
X150410903Y-118389619D02*
X150315665Y-118342000D01*
X150315665Y-118342000D02*
X150268046Y-118246761D01*
X150268046Y-118246761D02*
X150268046Y-118151523D01*
X150268046Y-118151523D02*
X150315665Y-118056285D01*
X150315665Y-118056285D02*
X150410903Y-118008666D01*
X150410903Y-118008666D02*
X150648998Y-118008666D01*
X150648998Y-118008666D02*
X150744236Y-117961047D01*
X151125189Y-117722952D02*
X151363284Y-118389619D01*
X151601379Y-117722952D02*
X151363284Y-118389619D01*
X151363284Y-118389619D02*
X151268046Y-118627714D01*
X151268046Y-118627714D02*
X151220427Y-118675333D01*
X151220427Y-118675333D02*
X151125189Y-118722952D01*
X152363284Y-118342000D02*
X152268046Y-118389619D01*
X152268046Y-118389619D02*
X152077570Y-118389619D01*
X152077570Y-118389619D02*
X151982332Y-118342000D01*
X151982332Y-118342000D02*
X151934713Y-118246761D01*
X151934713Y-118246761D02*
X151934713Y-117865809D01*
X151934713Y-117865809D02*
X151982332Y-117770571D01*
X151982332Y-117770571D02*
X152077570Y-117722952D01*
X152077570Y-117722952D02*
X152268046Y-117722952D01*
X152268046Y-117722952D02*
X152363284Y-117770571D01*
X152363284Y-117770571D02*
X152410903Y-117865809D01*
X152410903Y-117865809D02*
X152410903Y-117961047D01*
X152410903Y-117961047D02*
X151934713Y-118056285D01*
X152839475Y-118389619D02*
X152839475Y-117722952D01*
X152839475Y-117913428D02*
X152887094Y-117818190D01*
X152887094Y-117818190D02*
X152934713Y-117770571D01*
X152934713Y-117770571D02*
X153029951Y-117722952D01*
X153029951Y-117722952D02*
X153125189Y-117722952D01*
D11*
X163800000Y-100800000D02*
X163400000Y-101100000D01*
X163725000Y-100225000D02*
X163800000Y-100800000D01*
X163800000Y-100800000D02*
X163725000Y-100225000D01*
X155300000Y-105625000D02*
X155550000Y-113450000D01*
X158275000Y-98225000D02*
X155300000Y-105625000D01*
X163800000Y-100800000D02*
X158275000Y-98225000D01*
X158800000Y-102975000D02*
X157775000Y-103125000D01*
X159075000Y-104150000D02*
X158800000Y-102975000D01*
X155550000Y-113450000D02*
X158800000Y-102975000D01*
X159550000Y-111650000D02*
X158500000Y-111375000D01*
X159550000Y-111650000D02*
X159550000Y-112475000D01*
X155550000Y-113450000D02*
X159550000Y-111650000D01*
X168425000Y-117500000D02*
X167675000Y-117925000D01*
X168100000Y-116500000D02*
X168425000Y-117500000D01*
X168425000Y-117500000D02*
X168100000Y-116500000D01*
X168425000Y-117500000D02*
X155550000Y-113450000D01*
G36*
X163043039Y-100819685D02*
G01*
X163088794Y-100872489D01*
X163100000Y-100924000D01*
X163100000Y-103376000D01*
X163080315Y-103443039D01*
X163027511Y-103488794D01*
X162976000Y-103500000D01*
X160224000Y-103500000D01*
X160156961Y-103480315D01*
X160111206Y-103427511D01*
X160100000Y-103376000D01*
X160100000Y-100924000D01*
X160119685Y-100856961D01*
X160172489Y-100811206D01*
X160224000Y-100800000D01*
X162976000Y-100800000D01*
X163043039Y-100819685D01*
G37*
G36*
X171943039Y-116819685D02*
G01*
X171988794Y-116872489D01*
X172000000Y-116924000D01*
X172000000Y-118876000D01*
X171980315Y-118943039D01*
X171927511Y-118988794D01*
X171876000Y-119000000D01*
X169449000Y-119000000D01*
X169381961Y-118980315D01*
X169336206Y-118927511D01*
X169325000Y-118876000D01*
X169325000Y-116924000D01*
X169344685Y-116856961D01*
X169397489Y-116811206D01*
X169449000Y-116800000D01*
X171876000Y-116800000D01*
X171943039Y-116819685D01*
G37*
G36*
X160943039Y-108419685D02*
G01*
X160988794Y-108472489D01*
X161000000Y-108524000D01*
X161000000Y-110400000D01*
X162200000Y-110400000D01*
X162200000Y-108524000D01*
X162219685Y-108456961D01*
X162272489Y-108411206D01*
X162324000Y-108400000D01*
X162976000Y-108400000D01*
X163043039Y-108419685D01*
X163088794Y-108472489D01*
X163100000Y-108524000D01*
X163100000Y-112176000D01*
X163080315Y-112243039D01*
X163027511Y-112288794D01*
X162976000Y-112300000D01*
X160224000Y-112300000D01*
X160156961Y-112280315D01*
X160111206Y-112227511D01*
X160100000Y-112176000D01*
X160100000Y-108524000D01*
X160119685Y-108456961D01*
X160172489Y-108411206D01*
X160224000Y-108400000D01*
X160876000Y-108400000D01*
X160943039Y-108419685D01*
G37*
G36*
X167243039Y-100819685D02*
G01*
X167288794Y-100872489D01*
X167300000Y-100924000D01*
X167300000Y-103876000D01*
X167280315Y-103943039D01*
X167227511Y-103988794D01*
X167176000Y-104000000D01*
X164124000Y-104000000D01*
X164056961Y-103980315D01*
X164011206Y-103927511D01*
X164000000Y-103876000D01*
X164000000Y-100924000D01*
X164019685Y-100856961D01*
X164072489Y-100811206D01*
X164124000Y-100800000D01*
X167176000Y-100800000D01*
X167243039Y-100819685D01*
G37*
M02*
