%TF.GenerationSoftware,KiCad,Pcbnew,10.0.0*%
%TF.CreationDate,2026-06-05T02:46:44+02:00*%
%TF.ProjectId,aux_flex_pcb,6175785f-666c-4657-985f-7063622e6b69,rev?*%
%TF.SameCoordinates,Original*%
%TF.FileFunction,Soldermask,Bot*%
%TF.FilePolarity,Negative*%
%FSLAX46Y46*%
G04 Gerber Fmt 4.6, Leading zero omitted, Abs format (unit mm)*
G04 Created by KiCad (PCBNEW 10.0.0) date 2026-06-05 02:46:44*
%MOMM*%
%LPD*%
G01*
G04 APERTURE LIST*
%ADD10R,0.250000X0.530000*%
%ADD11R,0.180000X0.530000*%
%ADD12R,0.240000X0.350000*%
%ADD13R,0.300000X0.420000*%
G04 APERTURE END LIST*
D10*
%TO.C,J2*%
X170985000Y-118440000D03*
X170985000Y-117360000D03*
D11*
X170600000Y-118440000D03*
X170600000Y-117360000D03*
D10*
X170215000Y-118440000D03*
X170215000Y-117360000D03*
%TD*%
%TO.C,J3*%
X174270000Y-118440000D03*
X174270000Y-117360000D03*
D11*
X173885000Y-118440000D03*
X173885000Y-117360000D03*
D10*
X173500000Y-118440000D03*
X173500000Y-117360000D03*
%TD*%
D12*
%TO.C,J4*%
X166020000Y-103357007D03*
X165620000Y-103357007D03*
X165220000Y-103357007D03*
X165220000Y-101207007D03*
X165620000Y-101207007D03*
X166020000Y-101207007D03*
D13*
X166650000Y-102912007D03*
X164590000Y-102912007D03*
X164590000Y-101652007D03*
X166650000Y-101652007D03*
%TD*%
G36*
X162851950Y-109319685D02*
G01*
X162897705Y-109372489D01*
X162908911Y-109424000D01*
X162908911Y-112176000D01*
X162889226Y-112243039D01*
X162836422Y-112288794D01*
X162784911Y-112300000D01*
X160432911Y-112300000D01*
X160365872Y-112280315D01*
X160320117Y-112227511D01*
X160308911Y-112176000D01*
X160308911Y-109424000D01*
X160328596Y-109356961D01*
X160381400Y-109311206D01*
X160432911Y-109300000D01*
X162784911Y-109300000D01*
X162851950Y-109319685D01*
G37*
G36*
X162843039Y-101019685D02*
G01*
X162888794Y-101072489D01*
X162900000Y-101124000D01*
X162900000Y-104101000D01*
X162880315Y-104168039D01*
X162827511Y-104213794D01*
X162776000Y-104225000D01*
X160424000Y-104225000D01*
X160356961Y-104205315D01*
X160311206Y-104152511D01*
X160300000Y-104101000D01*
X160300000Y-101124000D01*
X160319685Y-101056961D01*
X160372489Y-101011206D01*
X160424000Y-101000000D01*
X162776000Y-101000000D01*
X162843039Y-101019685D01*
G37*
M02*
