%TF.GenerationSoftware,KiCad,Pcbnew,10.0.0*%
%TF.CreationDate,2026-06-05T02:46:44+02:00*%
%TF.ProjectId,aux_flex_pcb,6175785f-666c-4657-985f-7063622e6b69,rev?*%
%TF.SameCoordinates,Original*%
%TF.FileFunction,Copper,L2,Bot*%
%TF.FilePolarity,Positive*%
%FSLAX46Y46*%
G04 Gerber Fmt 4.6, Leading zero omitted, Abs format (unit mm)*
G04 Created by KiCad (PCBNEW 10.0.0) date 2026-06-05 02:46:44*
%MOMM*%
%LPD*%
G01*
G04 APERTURE LIST*
%TA.AperFunction,SMDPad,CuDef*%
%ADD10R,0.250000X0.530000*%
%TD*%
%TA.AperFunction,SMDPad,CuDef*%
%ADD11R,0.180000X0.530000*%
%TD*%
%TA.AperFunction,SMDPad,CuDef*%
%ADD12R,0.240000X0.350000*%
%TD*%
%TA.AperFunction,SMDPad,CuDef*%
%ADD13R,0.300000X0.420000*%
%TD*%
%TA.AperFunction,ViaPad*%
%ADD14C,0.550000*%
%TD*%
%TA.AperFunction,Conductor*%
%ADD15C,0.500000*%
%TD*%
%TA.AperFunction,Conductor*%
%ADD16C,0.120000*%
%TD*%
%TA.AperFunction,Conductor*%
%ADD17C,0.200000*%
%TD*%
G04 APERTURE END LIST*
D10*
%TO.P,J2,1,1_1*%
%TO.N,GND*%
X170985000Y-118440000D03*
%TO.P,J2,2,2_2*%
X170985000Y-117360000D03*
D11*
%TO.P,J2,3,3_3*%
%TO.N,unconnected-(J2-Pad3)*%
X170600000Y-118440000D03*
%TO.P,J2,4,4_4*%
%TO.N,unconnected-(J2-Pad4)*%
X170600000Y-117360000D03*
D10*
%TO.P,J2,5,5_5*%
%TO.N,BAT+*%
X170215000Y-118440000D03*
%TO.P,J2,6,6_6*%
X170215000Y-117360000D03*
%TD*%
%TO.P,J3,1,1_1*%
%TO.N,GND*%
X174270000Y-118440000D03*
%TO.P,J3,2,2_2*%
X174270000Y-117360000D03*
D11*
%TO.P,J3,3,3_3*%
%TO.N,unconnected-(J3-Pad3)*%
X173885000Y-118440000D03*
%TO.P,J3,4,4_4*%
%TO.N,unconnected-(J3-Pad4)*%
X173885000Y-117360000D03*
D10*
%TO.P,J3,5,5_5*%
%TO.N,BAT1+*%
X173500000Y-118440000D03*
%TO.P,J3,6,6_6*%
X173500000Y-117360000D03*
%TD*%
D12*
%TO.P,J4,1,1_1*%
%TO.N,3.3V_AUX*%
X166020000Y-103357007D03*
%TO.P,J4,2,2_2*%
%TO.N,/tx_sup*%
X165620000Y-103357007D03*
%TO.P,J4,3,3_3*%
%TO.N,/P-*%
X165220000Y-103357007D03*
%TO.P,J4,4,4_4*%
%TO.N,GND*%
X165220000Y-101207007D03*
%TO.P,J4,5,5_5*%
%TO.N,/rx_sup*%
X165620000Y-101207007D03*
%TO.P,J4,6,6_6*%
%TO.N,3.3V_AUX*%
X166020000Y-101207007D03*
D13*
%TO.P,J4,MP1,MP1_MP1*%
%TO.N,GND*%
X166650000Y-102912007D03*
%TO.P,J4,MP2,MP2_MP2*%
X164590000Y-102912007D03*
%TO.P,J4,MP3,MP3_MP3*%
X164590000Y-101652007D03*
%TO.P,J4,MP4,MP4_MP4*%
X166650000Y-101652007D03*
%TD*%
D14*
%TO.N,/SWDIO*%
X168300000Y-104982007D03*
%TO.N,GND*%
X166050000Y-108657007D03*
X170625000Y-107857007D03*
X170650000Y-103450000D03*
X174700000Y-117300000D03*
X170500000Y-105500000D03*
X171550000Y-118175000D03*
X165750000Y-107157007D03*
X170700000Y-102050000D03*
X168850000Y-106707007D03*
X164450000Y-104432007D03*
X164800000Y-102250000D03*
X166725000Y-108207007D03*
X170650000Y-106732007D03*
X165350000Y-105725000D03*
X166600000Y-103475000D03*
X169075000Y-107907007D03*
X171500000Y-117300000D03*
X168825000Y-101857007D03*
%TO.N,/P-*%
X161600000Y-101400000D03*
X160700000Y-102300000D03*
X164575000Y-103682007D03*
X161600000Y-102300000D03*
X160700000Y-101400000D03*
X162400000Y-102300000D03*
X161600000Y-103100000D03*
X162400000Y-101400000D03*
%TO.N,3.3V_AUX*%
X166020000Y-102282007D03*
%TO.N,/rx_sup*%
X165350000Y-102725000D03*
X168050000Y-103800000D03*
%TO.N,/tx_sup*%
X167075000Y-104002905D03*
%TO.N,/SWCLK*%
X169800000Y-107100000D03*
X165350000Y-103957007D03*
%TO.N,BAT+*%
X161600000Y-110400000D03*
X161600000Y-111100000D03*
%TO.N,BAT1+*%
X173100000Y-118500000D03*
%TD*%
%TO.N,BAT+*%
D15*
X161600000Y-111100000D02*
X161000000Y-111700000D01*
X161000000Y-111700000D02*
X161000000Y-117440000D01*
%TO.N,/P-*%
D16*
X164900000Y-103357007D02*
X164575000Y-103682007D01*
X165220000Y-103357007D02*
X164900000Y-103357007D01*
%TO.N,3.3V_AUX*%
D17*
X166020000Y-102282007D02*
X166020000Y-101207007D01*
X166020000Y-103357007D02*
X166020000Y-102282007D01*
%TO.N,/rx_sup*%
D16*
X165625000Y-101212007D02*
X165620000Y-101207007D01*
X165350000Y-101900000D02*
X165620000Y-101630000D01*
X165350000Y-102725000D02*
X165350000Y-101900000D01*
X165620000Y-101630000D02*
X165620000Y-101207007D01*
%TO.N,/tx_sup*%
X166902905Y-104175000D02*
X166183176Y-104175000D01*
X167075000Y-104002905D02*
X166902905Y-104175000D01*
X165600000Y-103337007D02*
X165620000Y-103357007D01*
X166183176Y-104175000D02*
X165620000Y-103611824D01*
X165620000Y-103611824D02*
X165620000Y-103357007D01*
%TO.N,/SWCLK*%
X169207106Y-105800000D02*
X169207106Y-105207106D01*
X169800000Y-106392894D02*
X169207106Y-105800000D01*
X169207106Y-105207106D02*
X168500000Y-104500000D01*
X169800000Y-107100000D02*
X169800000Y-106392894D01*
X165892993Y-104500000D02*
X165350000Y-103957007D01*
X168500000Y-104500000D02*
X165892993Y-104500000D01*
%TO.N,BAT+*%
D15*
X162000000Y-118440000D02*
X170160000Y-118440000D01*
X161000000Y-117440000D02*
G75*
G03*
X162000000Y-118440000I1000000J0D01*
G01*
%TD*%
%TA.AperFunction,Conductor*%
%TO.N,/P-*%
G36*
X162843039Y-101020185D02*
G01*
X162888794Y-101072989D01*
X162900000Y-101124500D01*
X162900000Y-104176000D01*
X162880315Y-104243039D01*
X162827511Y-104288794D01*
X162776000Y-104300000D01*
X160424500Y-104300000D01*
X160357461Y-104280315D01*
X160311706Y-104227511D01*
X160300500Y-104176000D01*
X160300500Y-101124500D01*
X160320185Y-101057461D01*
X160372989Y-101011706D01*
X160424500Y-101000500D01*
X162776000Y-101000500D01*
X162843039Y-101020185D01*
G37*
%TD.AperFunction*%
%TD*%
%TA.AperFunction,Conductor*%
%TO.N,GND*%
G36*
X171793106Y-117005523D02*
G01*
X171808104Y-117009927D01*
X171866855Y-117047672D01*
X171868042Y-117049041D01*
X171887907Y-117092504D01*
X171891363Y-117091408D01*
X171894195Y-117100335D01*
X171895582Y-117109294D01*
X171897087Y-117112587D01*
X171896608Y-117115923D01*
X171900000Y-117137831D01*
X171900000Y-118657670D01*
X171894975Y-118692614D01*
X171890570Y-118707612D01*
X171852827Y-118766355D01*
X171851458Y-118767542D01*
X171796597Y-118795018D01*
X171789039Y-118796663D01*
X171762668Y-118799500D01*
X170982330Y-118799500D01*
X170947389Y-118794475D01*
X170932390Y-118790070D01*
X170873644Y-118752327D01*
X170872457Y-118750958D01*
X170844977Y-118696083D01*
X170843332Y-118688521D01*
X170840500Y-118662168D01*
X170840500Y-118160177D01*
X170831768Y-118116282D01*
X170831766Y-118116276D01*
X170827853Y-118110419D01*
X170812621Y-118078581D01*
X170802717Y-118046949D01*
X170797052Y-118009898D01*
X170797052Y-117791120D01*
X170802073Y-117756190D01*
X170811416Y-117724371D01*
X170827291Y-117690420D01*
X170831767Y-117683722D01*
X170840500Y-117639820D01*
X170840500Y-117142329D01*
X170845523Y-117107393D01*
X170849927Y-117092395D01*
X170887672Y-117033644D01*
X170889041Y-117032457D01*
X170943920Y-117004977D01*
X170951479Y-117003333D01*
X170977832Y-117000500D01*
X171758170Y-117000500D01*
X171793106Y-117005523D01*
G37*
%TD.AperFunction*%
%TD*%
%TA.AperFunction,Conductor*%
%TO.N,BAT1+*%
G36*
X173587539Y-117020185D02*
G01*
X173633294Y-117072989D01*
X173644500Y-117124500D01*
X173644500Y-117639820D01*
X173644500Y-117639822D01*
X173644499Y-117639822D01*
X173653231Y-117683717D01*
X173653232Y-117683720D01*
X173653233Y-117683722D01*
X173679102Y-117722438D01*
X173699980Y-117789115D01*
X173700000Y-117791328D01*
X173700000Y-118008671D01*
X173680315Y-118075710D01*
X173679103Y-118077561D01*
X173653232Y-118116279D01*
X173653231Y-118116282D01*
X173644500Y-118160177D01*
X173644500Y-118675500D01*
X173624815Y-118742539D01*
X173572011Y-118788294D01*
X173520500Y-118799500D01*
X172824000Y-118799500D01*
X172756961Y-118779815D01*
X172711206Y-118727011D01*
X172700000Y-118675500D01*
X172700000Y-117124500D01*
X172719685Y-117057461D01*
X172772489Y-117011706D01*
X172824000Y-117000500D01*
X173520500Y-117000500D01*
X173587539Y-117020185D01*
G37*
%TD.AperFunction*%
%TD*%
%TA.AperFunction,Conductor*%
%TO.N,BAT+*%
G36*
X170252606Y-117005523D02*
G01*
X170267604Y-117009927D01*
X170326355Y-117047672D01*
X170327542Y-117049041D01*
X170347407Y-117092504D01*
X170350863Y-117091408D01*
X170353695Y-117100335D01*
X170355082Y-117109294D01*
X170356587Y-117112587D01*
X170356108Y-117115923D01*
X170359500Y-117137831D01*
X170359500Y-117595453D01*
X170354237Y-117613374D01*
X170359499Y-117639822D01*
X170368231Y-117683717D01*
X170368232Y-117683720D01*
X170368233Y-117683722D01*
X170372144Y-117689575D01*
X170387376Y-117721413D01*
X170397282Y-117753049D01*
X170402948Y-117790102D01*
X170402948Y-118008878D01*
X170397925Y-118043815D01*
X170388586Y-118075619D01*
X170372711Y-118109573D01*
X170368234Y-118116272D01*
X170368233Y-118116275D01*
X170368231Y-118116279D01*
X170359500Y-118160178D01*
X170359500Y-118657670D01*
X170354475Y-118692614D01*
X170350070Y-118707612D01*
X170312327Y-118766355D01*
X170310958Y-118767542D01*
X170256097Y-118795018D01*
X170248539Y-118796663D01*
X170222168Y-118799500D01*
X169704624Y-118799500D01*
X169669688Y-118794477D01*
X169637822Y-118785120D01*
X169603976Y-118769317D01*
X169570052Y-118746701D01*
X169543770Y-118723143D01*
X169530319Y-118707082D01*
X169504000Y-118652798D01*
X169502613Y-118646156D01*
X169500000Y-118620833D01*
X169500000Y-118455373D01*
X169505023Y-118420439D01*
X169514379Y-118388575D01*
X169530180Y-118354729D01*
X169700000Y-118100000D01*
X169700000Y-117142329D01*
X169705023Y-117107393D01*
X169709427Y-117092395D01*
X169747172Y-117033644D01*
X169748541Y-117032457D01*
X169803420Y-117004977D01*
X169810979Y-117003333D01*
X169837332Y-117000500D01*
X170217670Y-117000500D01*
X170252606Y-117005523D01*
G37*
%TD.AperFunction*%
%TD*%
%TA.AperFunction,Conductor*%
%TO.N,BAT+*%
G36*
X162843039Y-109319685D02*
G01*
X162888794Y-109372489D01*
X162900000Y-109424000D01*
X162900000Y-112208835D01*
X162880315Y-112275874D01*
X162827511Y-112321629D01*
X162812986Y-112327190D01*
X161318061Y-112794355D01*
X161281075Y-112800000D01*
X160759598Y-112800000D01*
X160692559Y-112780315D01*
X160662770Y-112753462D01*
X160327672Y-112334590D01*
X160301164Y-112269944D01*
X160300500Y-112257128D01*
X160300500Y-109424000D01*
X160320185Y-109356961D01*
X160372989Y-109311206D01*
X160424500Y-109300000D01*
X162776000Y-109300000D01*
X162843039Y-109319685D01*
G37*
%TD.AperFunction*%
%TD*%
%TA.AperFunction,Conductor*%
%TO.N,GND*%
G36*
X174893106Y-117005523D02*
G01*
X174908104Y-117009927D01*
X174966855Y-117047672D01*
X174968042Y-117049041D01*
X174987907Y-117092504D01*
X174991363Y-117091408D01*
X174994195Y-117100335D01*
X174995582Y-117109294D01*
X174997087Y-117112587D01*
X174996608Y-117115923D01*
X175000000Y-117137831D01*
X175000000Y-118657670D01*
X174994975Y-118692614D01*
X174990570Y-118707612D01*
X174952827Y-118766355D01*
X174951458Y-118767542D01*
X174896597Y-118795018D01*
X174889039Y-118796663D01*
X174862668Y-118799500D01*
X174267330Y-118799500D01*
X174232389Y-118794475D01*
X174217390Y-118790070D01*
X174158644Y-118752327D01*
X174157457Y-118750958D01*
X174129977Y-118696083D01*
X174128332Y-118688521D01*
X174125500Y-118662168D01*
X174125500Y-118160173D01*
X174122904Y-118147124D01*
X174122900Y-118147109D01*
X174116767Y-118116276D01*
X174113825Y-118109175D01*
X174112759Y-118104718D01*
X174115045Y-118103771D01*
X174104392Y-118069743D01*
X174103403Y-118065605D01*
X174103654Y-118060661D01*
X174100000Y-118036756D01*
X174100000Y-117764258D01*
X174105023Y-117729324D01*
X174122221Y-117670749D01*
X174121076Y-117663680D01*
X174122492Y-117654942D01*
X174125500Y-117639821D01*
X174125500Y-117142329D01*
X174130523Y-117107393D01*
X174134927Y-117092395D01*
X174172672Y-117033644D01*
X174174041Y-117032457D01*
X174228920Y-117004977D01*
X174236479Y-117003333D01*
X174262832Y-117000500D01*
X174858170Y-117000500D01*
X174893106Y-117005523D01*
G37*
%TD.AperFunction*%
%TD*%
%TA.AperFunction,Conductor*%
%TO.N,GND*%
G36*
X170917606Y-100980523D02*
G01*
X170932604Y-100984927D01*
X170991355Y-101022672D01*
X170992542Y-101024041D01*
X171020018Y-101078902D01*
X171021663Y-101086460D01*
X171024500Y-101112831D01*
X171024500Y-108183007D01*
X171004815Y-108250046D01*
X170952011Y-108295801D01*
X170900500Y-108307007D01*
X169475000Y-108307007D01*
X169475000Y-108424875D01*
X169459396Y-108485093D01*
X169440990Y-108518225D01*
X169391227Y-108567269D01*
X169332594Y-108582007D01*
X166825000Y-108582007D01*
X166825000Y-108783007D01*
X166805315Y-108850046D01*
X166752511Y-108895801D01*
X166701000Y-108907007D01*
X165857333Y-108907007D01*
X165790294Y-108887322D01*
X165744539Y-108834518D01*
X165743050Y-108831126D01*
X165584717Y-108455084D01*
X165575000Y-108406965D01*
X165575000Y-106107007D01*
X165400000Y-105882007D01*
X165399999Y-105882007D01*
X164174000Y-105882007D01*
X164106961Y-105862322D01*
X164061206Y-105809518D01*
X164050000Y-105758007D01*
X164050000Y-104075946D01*
X164055021Y-104041019D01*
X164058207Y-104030166D01*
X164095977Y-103971385D01*
X164159531Y-103942356D01*
X164228686Y-103952294D01*
X164235672Y-103955484D01*
X164271842Y-103980597D01*
X164313737Y-104022492D01*
X164410763Y-104078510D01*
X164518982Y-104107507D01*
X164518984Y-104107507D01*
X164631016Y-104107507D01*
X164631018Y-104107507D01*
X164739237Y-104078510D01*
X164739241Y-104078508D01*
X164759973Y-104066538D01*
X164792733Y-104053421D01*
X164806462Y-104050091D01*
X164876250Y-104053414D01*
X164932706Y-104093361D01*
X164944032Y-104107588D01*
X164954402Y-104122812D01*
X165009515Y-104218270D01*
X165088737Y-104297492D01*
X165185763Y-104353510D01*
X165293982Y-104382507D01*
X165293984Y-104382507D01*
X165401589Y-104382507D01*
X165420681Y-104383985D01*
X165449282Y-104388443D01*
X165501490Y-104409516D01*
X165503903Y-104411212D01*
X165520280Y-104424979D01*
X165714540Y-104619239D01*
X165773754Y-104678453D01*
X165851122Y-104710500D01*
X167752810Y-104710500D01*
X167787742Y-104715521D01*
X167801061Y-104719432D01*
X167859839Y-104757206D01*
X167888864Y-104820759D01*
X167890074Y-104829173D01*
X167887112Y-104878916D01*
X167874500Y-104925983D01*
X167874500Y-104925989D01*
X167874500Y-105038025D01*
X167903497Y-105146244D01*
X167959515Y-105243270D01*
X168038737Y-105322492D01*
X168135763Y-105378510D01*
X168243982Y-105407507D01*
X168243984Y-105407507D01*
X168356016Y-105407507D01*
X168356018Y-105407507D01*
X168464237Y-105378510D01*
X168561263Y-105322492D01*
X168640485Y-105243270D01*
X168662445Y-105205232D01*
X168684258Y-105177495D01*
X168694311Y-105167910D01*
X168756412Y-105135900D01*
X168825961Y-105142543D01*
X168833854Y-105145703D01*
X168875447Y-105173139D01*
X168947679Y-105245371D01*
X168968829Y-105273623D01*
X168981437Y-105296712D01*
X168996606Y-105356141D01*
X168996606Y-105758129D01*
X168996606Y-105841871D01*
X169028653Y-105919239D01*
X169028654Y-105919240D01*
X169540573Y-106431159D01*
X169561723Y-106459411D01*
X169574331Y-106482500D01*
X169589500Y-106541929D01*
X169589500Y-106641582D01*
X169584475Y-106676523D01*
X169577957Y-106698717D01*
X169550258Y-106747709D01*
X169546692Y-106751587D01*
X169541572Y-106756587D01*
X169541618Y-106756633D01*
X169459513Y-106838738D01*
X169459014Y-106839431D01*
X169457653Y-106841961D01*
X169403499Y-106935758D01*
X169403498Y-106935759D01*
X169403494Y-106935770D01*
X169374500Y-107043982D01*
X169374500Y-107156018D01*
X169403497Y-107264237D01*
X169459515Y-107361263D01*
X169538737Y-107440485D01*
X169635763Y-107496503D01*
X169743982Y-107525500D01*
X169743984Y-107525500D01*
X169856016Y-107525500D01*
X169856018Y-107525500D01*
X169964237Y-107496503D01*
X170061263Y-107440485D01*
X170140485Y-107361263D01*
X170196503Y-107264237D01*
X170225500Y-107156018D01*
X170225500Y-107043982D01*
X170196503Y-106935763D01*
X170140485Y-106838737D01*
X170064394Y-106762646D01*
X170051933Y-106748091D01*
X170034854Y-106724700D01*
X170012839Y-106672835D01*
X170012333Y-106669935D01*
X170010500Y-106648691D01*
X170010500Y-106351024D01*
X170010500Y-106351023D01*
X169978453Y-106273655D01*
X169919239Y-106214441D01*
X169466532Y-105761734D01*
X169445380Y-105733478D01*
X169432773Y-105710389D01*
X169417606Y-105650964D01*
X169417606Y-105165236D01*
X169417606Y-105165235D01*
X169385559Y-105087867D01*
X169326345Y-105028653D01*
X168619239Y-104321547D01*
X168541871Y-104289500D01*
X168479440Y-104289500D01*
X168444505Y-104284477D01*
X168433651Y-104281290D01*
X168374873Y-104243516D01*
X168345848Y-104179960D01*
X168355788Y-104110811D01*
X168358978Y-104103824D01*
X168384088Y-104067659D01*
X168390485Y-104061263D01*
X168446503Y-103964237D01*
X168475500Y-103856018D01*
X168475500Y-103743982D01*
X168446503Y-103635763D01*
X168390485Y-103538737D01*
X168311263Y-103459515D01*
X168221243Y-103407542D01*
X168214239Y-103403498D01*
X168214238Y-103403497D01*
X168214237Y-103403497D01*
X168106018Y-103374500D01*
X168106017Y-103374500D01*
X167993982Y-103374500D01*
X167885770Y-103403494D01*
X167885759Y-103403498D01*
X167885758Y-103403499D01*
X167788737Y-103459514D01*
X167788728Y-103459521D01*
X167709521Y-103538728D01*
X167709516Y-103538734D01*
X167670448Y-103606402D01*
X167653498Y-103635760D01*
X167653497Y-103635761D01*
X167639179Y-103689198D01*
X167637355Y-103694228D01*
X167634581Y-103698004D01*
X167626665Y-103716490D01*
X167620173Y-103727140D01*
X167599126Y-103746270D01*
X167595992Y-103750538D01*
X167593294Y-103751572D01*
X167568471Y-103774136D01*
X167499569Y-103785721D01*
X167438224Y-103760523D01*
X167427063Y-103751853D01*
X167415452Y-103741609D01*
X167336265Y-103662422D01*
X167336263Y-103662420D01*
X167249229Y-103612171D01*
X167239239Y-103606403D01*
X167239238Y-103606402D01*
X167239237Y-103606402D01*
X167131018Y-103577405D01*
X167131017Y-103577405D01*
X167018982Y-103577405D01*
X166910770Y-103606399D01*
X166910759Y-103606403D01*
X166910758Y-103606404D01*
X166813737Y-103662419D01*
X166813728Y-103662426D01*
X166734521Y-103741633D01*
X166734516Y-103741639D01*
X166690783Y-103817386D01*
X166690781Y-103817389D01*
X166678498Y-103838665D01*
X166678497Y-103838666D01*
X166671948Y-103863107D01*
X166668898Y-103870513D01*
X166665980Y-103874147D01*
X166660123Y-103887826D01*
X166651989Y-103901169D01*
X166600303Y-103948156D01*
X166592328Y-103952031D01*
X166538136Y-103964500D01*
X166339560Y-103964500D01*
X166304624Y-103959477D01*
X166279382Y-103952065D01*
X166226637Y-103920769D01*
X166186839Y-103880971D01*
X166165690Y-103852721D01*
X166159035Y-103840533D01*
X166144184Y-103772263D01*
X166168598Y-103706802D01*
X166175202Y-103697980D01*
X166205571Y-103669197D01*
X166248504Y-103640511D01*
X166281767Y-103590729D01*
X166281768Y-103590724D01*
X166290500Y-103546829D01*
X166290500Y-103167184D01*
X166290500Y-103167179D01*
X166281769Y-103123297D01*
X166281767Y-103123286D01*
X166281762Y-103123273D01*
X166280775Y-103120019D01*
X166277821Y-103108227D01*
X166272881Y-103083392D01*
X166270500Y-103059207D01*
X166270500Y-102702446D01*
X166275522Y-102667513D01*
X166282934Y-102642268D01*
X166314229Y-102589525D01*
X166360485Y-102543270D01*
X166416503Y-102446244D01*
X166445500Y-102338025D01*
X166445500Y-102225989D01*
X166416503Y-102117770D01*
X166360485Y-102020744D01*
X166319425Y-101979684D01*
X166298272Y-101951426D01*
X166285666Y-101928338D01*
X166270500Y-101868915D01*
X166270500Y-101504806D01*
X166272880Y-101480628D01*
X166276666Y-101461595D01*
X166278805Y-101455619D01*
X166290500Y-101396829D01*
X166290500Y-101117329D01*
X166295523Y-101082393D01*
X166299927Y-101067395D01*
X166337672Y-101008644D01*
X166339041Y-101007457D01*
X166393920Y-100979977D01*
X166401479Y-100978333D01*
X166427832Y-100975500D01*
X170882670Y-100975500D01*
X170917606Y-100980523D01*
G37*
%TD.AperFunction*%
%TA.AperFunction,Conductor*%
G36*
X165242606Y-100980523D02*
G01*
X165257604Y-100984927D01*
X165316355Y-101022672D01*
X165317542Y-101024041D01*
X165337407Y-101067504D01*
X165340863Y-101066408D01*
X165343695Y-101075335D01*
X165345082Y-101084294D01*
X165346587Y-101087587D01*
X165346108Y-101090923D01*
X165349500Y-101112831D01*
X165349500Y-101352460D01*
X165344237Y-101370381D01*
X165358230Y-101440721D01*
X165358232Y-101440727D01*
X165358629Y-101441458D01*
X165367967Y-101463530D01*
X165373114Y-101479967D01*
X165374362Y-101549826D01*
X165374362Y-101549828D01*
X165372418Y-101556914D01*
X165340517Y-101611789D01*
X165230753Y-101721553D01*
X165223524Y-101728780D01*
X165223525Y-101728781D01*
X165171546Y-101780760D01*
X165139501Y-101858123D01*
X165139500Y-101858129D01*
X165139500Y-102266582D01*
X165134475Y-102301523D01*
X165127957Y-102323717D01*
X165100258Y-102372709D01*
X165096692Y-102376587D01*
X165091572Y-102381587D01*
X165091618Y-102381633D01*
X165009513Y-102463738D01*
X165009014Y-102464431D01*
X165007653Y-102466961D01*
X164953499Y-102560758D01*
X164953498Y-102560759D01*
X164953494Y-102560770D01*
X164931657Y-102642272D01*
X164924500Y-102668982D01*
X164924500Y-102781017D01*
X164953497Y-102889236D01*
X164953497Y-102889237D01*
X164983269Y-102940805D01*
X164985454Y-102945431D01*
X164986173Y-102950018D01*
X164993830Y-102969143D01*
X164997752Y-102985309D01*
X164995023Y-103053339D01*
X164994688Y-103054356D01*
X164956436Y-103110703D01*
X164949766Y-103116278D01*
X164895536Y-103142529D01*
X164891453Y-103143379D01*
X164888953Y-103143900D01*
X164863663Y-103146507D01*
X164858127Y-103146507D01*
X164780758Y-103178555D01*
X164750300Y-103209013D01*
X164722044Y-103230165D01*
X164701742Y-103241250D01*
X164647494Y-103256308D01*
X164642228Y-103256528D01*
X164635076Y-103256444D01*
X164635076Y-103256507D01*
X164518982Y-103256507D01*
X164410770Y-103285501D01*
X164410759Y-103285505D01*
X164410758Y-103285506D01*
X164313737Y-103341521D01*
X164313733Y-103341524D01*
X164274287Y-103380971D01*
X164246033Y-103402122D01*
X164236107Y-103407542D01*
X164167834Y-103422394D01*
X164102370Y-103397977D01*
X164060499Y-103342046D01*
X164057813Y-103334842D01*
X164050000Y-103291522D01*
X164050000Y-101117329D01*
X164055023Y-101082393D01*
X164059427Y-101067395D01*
X164097172Y-101008644D01*
X164098541Y-101007457D01*
X164153420Y-100979977D01*
X164160979Y-100978333D01*
X164187332Y-100975500D01*
X165207670Y-100975500D01*
X165242606Y-100980523D01*
G37*
%TD.AperFunction*%
%TD*%
M02*
