%TF.GenerationSoftware,KiCad,Pcbnew,9.0.6-rc1*%
%TF.CreationDate,2025-11-21T10:50:26+01:00*%
%TF.ProjectId,hardware_V8,68617264-7761-4726-955f-56382e6b6963,rev?*%
%TF.SameCoordinates,Original*%
%TF.FileFunction,Paste,Bot*%
%TF.FilePolarity,Positive*%
%FSLAX46Y46*%
G04 Gerber Fmt 4.6, Leading zero omitted, Abs format (unit mm)*
G04 Created by KiCad (PCBNEW 9.0.6-rc1) date 2025-11-21 10:50:26*
%MOMM*%
%LPD*%
G01*
G04 APERTURE LIST*
G04 Aperture macros list*
%AMRoundRect*
0 Rectangle with rounded corners*
0 $1 Rounding radius*
0 $2 $3 $4 $5 $6 $7 $8 $9 X,Y pos of 4 corners*
0 Add a 4 corners polygon primitive as box body*
4,1,4,$2,$3,$4,$5,$6,$7,$8,$9,$2,$3,0*
0 Add four circle primitives for the rounded corners*
1,1,$1+$1,$2,$3*
1,1,$1+$1,$4,$5*
1,1,$1+$1,$6,$7*
1,1,$1+$1,$8,$9*
0 Add four rect primitives between the rounded corners*
20,1,$1+$1,$2,$3,$4,$5,0*
20,1,$1+$1,$4,$5,$6,$7,0*
20,1,$1+$1,$6,$7,$8,$9,0*
20,1,$1+$1,$8,$9,$2,$3,0*%
G04 Aperture macros list end*
%ADD10R,0.240000X0.450000*%
%ADD11R,0.500000X0.470000*%
%ADD12RoundRect,0.147500X0.172500X-0.147500X0.172500X0.147500X-0.172500X0.147500X-0.172500X-0.147500X0*%
%ADD13RoundRect,0.140000X-0.170000X0.140000X-0.170000X-0.140000X0.170000X-0.140000X0.170000X0.140000X0*%
%ADD14RoundRect,0.140000X0.140000X0.170000X-0.140000X0.170000X-0.140000X-0.170000X0.140000X-0.170000X0*%
%ADD15R,1.540000X1.540000*%
%ADD16R,0.750000X1.800000*%
%ADD17R,0.600000X1.800000*%
%ADD18R,1.300000X0.900000*%
%ADD19RoundRect,0.090000X0.139000X0.090000X-0.139000X0.090000X-0.139000X-0.090000X0.139000X-0.090000X0*%
%ADD20C,0.700000*%
%ADD21R,0.800000X0.650000*%
%ADD22R,0.800000X0.300000*%
%ADD23RoundRect,0.090000X-0.139000X-0.090000X0.139000X-0.090000X0.139000X0.090000X-0.139000X0.090000X0*%
%ADD24R,0.700000X1.800000*%
%ADD25R,0.800000X1.800000*%
%ADD26RoundRect,0.140000X-0.140000X-0.170000X0.140000X-0.170000X0.140000X0.170000X-0.140000X0.170000X0*%
G04 APERTURE END LIST*
D10*
%TO.C,J2*%
X130130000Y-88320000D03*
X130530000Y-88320000D03*
X130930000Y-88320000D03*
X130930000Y-90770000D03*
X130530000Y-90770000D03*
X130130000Y-90770000D03*
D11*
X129380000Y-88350000D03*
X131680000Y-88350000D03*
X131680000Y-90740000D03*
X129380000Y-90740000D03*
%TD*%
D12*
%TO.C,L1*%
X126740000Y-106285000D03*
X126740000Y-105315000D03*
%TD*%
D13*
%TO.C,C3*%
X127930000Y-106240000D03*
X127930000Y-107200000D03*
%TD*%
D14*
%TO.C,C2*%
X126760000Y-104270000D03*
X125800000Y-104270000D03*
%TD*%
D15*
%TO.C,U3*%
X130430000Y-106265000D03*
X130430000Y-102365000D03*
X132370000Y-106265000D03*
X132370000Y-102365000D03*
%TD*%
D16*
%TO.C,S3*%
X113165000Y-89880000D03*
D17*
X114390000Y-89880000D03*
D16*
X115615000Y-89880000D03*
D18*
X112540000Y-87930000D03*
X116240000Y-87930000D03*
%TD*%
D19*
%TO.C,C15*%
X130132500Y-96300000D03*
X129267500Y-96300000D03*
%TD*%
%TO.C,C27*%
X130132500Y-98100000D03*
X129267500Y-98100000D03*
%TD*%
D16*
%TO.C,S1*%
X115575000Y-105450000D03*
D17*
X114350000Y-105450000D03*
D16*
X113125000Y-105450000D03*
D18*
X116200000Y-107400000D03*
X112500000Y-107400000D03*
%TD*%
D20*
%TO.C,TP5*%
X131350000Y-98650000D03*
%TD*%
D19*
%TO.C,R16*%
X130137500Y-94530000D03*
X129272500Y-94530000D03*
%TD*%
%TO.C,R10*%
X130132500Y-93800000D03*
X129267500Y-93800000D03*
%TD*%
D14*
%TO.C,C16*%
X130180000Y-97200000D03*
X129220000Y-97200000D03*
%TD*%
D16*
%TO.C,S2*%
X120975000Y-105450000D03*
D17*
X119750000Y-105450000D03*
D16*
X118525000Y-105450000D03*
D18*
X121600000Y-107400000D03*
X117900000Y-107400000D03*
%TD*%
D21*
%TO.C,J1*%
X117200000Y-100950000D03*
X117200000Y-100100000D03*
D22*
X117200000Y-98920000D03*
X117200000Y-97920000D03*
X117200000Y-97420000D03*
X117200000Y-96420000D03*
D21*
X117200000Y-95240000D03*
X117200000Y-94390000D03*
D22*
X117200000Y-95920000D03*
X117200000Y-96920000D03*
X117200000Y-98420000D03*
X117200000Y-99420000D03*
%TD*%
D23*
%TO.C,C26*%
X129267500Y-91800000D03*
X130132500Y-91800000D03*
%TD*%
D20*
%TO.C,TP3*%
X131350000Y-97400000D03*
%TD*%
D24*
%TO.C,IC4*%
X119030000Y-92770000D03*
D25*
X120130000Y-92770000D03*
X121230000Y-92770000D03*
X122330000Y-92770000D03*
X123430000Y-92770000D03*
X124530000Y-92770000D03*
X125630000Y-92770000D03*
X126730000Y-92770000D03*
D24*
X127830000Y-92770000D03*
X127830000Y-102270000D03*
D25*
X126730000Y-102270000D03*
X125630000Y-102270000D03*
X124530000Y-102270000D03*
X123430000Y-102270000D03*
X122330000Y-102270000D03*
X121230000Y-102270000D03*
X120130000Y-102270000D03*
D24*
X119030000Y-102270000D03*
%TD*%
D20*
%TO.C,TP4*%
X131350000Y-96100000D03*
%TD*%
%TO.C,TP6*%
X131350000Y-94800000D03*
%TD*%
D23*
%TO.C,C8*%
X129272500Y-95240000D03*
X130137500Y-95240000D03*
%TD*%
D26*
%TO.C,C28*%
X129220000Y-92700000D03*
X130180000Y-92700000D03*
%TD*%
M02*
