M48
; DRILL file {KiCad 9.0.0} date 2025-05-19T12:09:39+0200
; FORMAT={-:-/ absolute / metric / decimal}
; #@! TF.CreationDate,2025-05-19T12:09:39+02:00
; #@! TF.GenerationSoftware,Kicad,Pcbnew,9.0.0
; #@! TF.FileFunction,Plated,1,6,PTH
FMAT,2
METRIC
; #@! TA.AperFunction,Plated,PTH,ViaDrill
T1C0.300
; #@! TA.AperFunction,Plated,PTH,ComponentDrill
T2C1.000
%
G90
G05
T1
X142.49Y-91.9
X142.5Y-86.5
X142.5Y-92.6
X142.5Y-94.2
X142.55Y-94.975
X142.575Y-85.75
X142.85Y-91.41
X142.9Y-93.3
X143.0Y-87.8
X143.0Y-88.5
X143.0Y-92.6
X143.0Y-94.2
X143.025Y-89.375
X143.1Y-86.5
X143.75Y-87.35
X143.9Y-93.5
X144.25Y-94.25
X144.4Y-91.3
X144.4Y-92.301
X144.45Y-87.95
X144.475Y-90.4
X144.9Y-94.3
X144.95Y-87.95
X145.225Y-85.775
X145.418Y-92.723
X145.45Y-93.25
X145.592Y-94.492
X145.9Y-91.3
X146.1Y-88.405
X146.1Y-88.9
X146.1Y-89.4
X146.1Y-89.9
X146.1Y-90.4
X146.15Y-92.3
X146.4Y-88.0
X146.4Y-91.3
X146.9Y-87.0
X146.9Y-87.9
X146.9Y-91.9
X146.9Y-93.1
X146.9Y-93.85
X147.4Y-87.7
X147.85Y-87.5
X147.9Y-92.1
X148.075Y-89.3
X148.075Y-89.8
X148.075Y-90.3
X148.075Y-90.8
X148.35Y-87.5
X148.4Y-92.1
X148.45Y-94.1
X148.7Y-93.2
X148.8Y-91.8
X148.85Y-87.5
X149.14Y-92.86
X149.15Y-93.5
X149.2Y-91.5
X149.216Y-92.106
X149.35Y-87.5
X149.35Y-88.0
X149.35Y-88.5
X149.35Y-89.0
X149.35Y-89.5
X149.35Y-90.0
X149.35Y-90.5
X149.35Y-91.0
X149.6Y-94.58
X150.025Y-94.975
X151.2Y-88.1
X151.2Y-91.0
X151.2Y-92.6
X151.2Y-94.2
X151.3Y-86.5
X151.7Y-87.3
X151.7Y-93.325
X151.725Y-88.9
X151.725Y-90.2
X151.75Y-91.825
X151.75Y-95.0
X151.775Y-85.75
X151.8Y-86.5
X151.8Y-88.1
X151.8Y-91.0
X151.8Y-92.6
X151.8Y-94.2
T2
X147.15Y-89.85
M30
