%TF.GenerationSoftware,KiCad,Pcbnew,9.0.0*%
%TF.CreationDate,2025-05-19T12:09:42+02:00*%
%TF.ProjectId,custom_gps,63757374-6f6d-45f6-9770-732e6b696361,rev?*%
%TF.SameCoordinates,Original*%
%TF.FileFunction,Paste,Top*%
%TF.FilePolarity,Positive*%
%FSLAX46Y46*%
G04 Gerber Fmt 4.6, Leading zero omitted, Abs format (unit mm)*
G04 Created by KiCad (PCBNEW 9.0.0) date 2025-05-19 12:09:42*
%MOMM*%
%LPD*%
G01*
G04 APERTURE LIST*
G04 Aperture macros list*
%AMRoundRect*
0 Rectangle with rounded corners*
0 $1 Rounding radius*
0 $2 $3 $4 $5 $6 $7 $8 $9 X,Y pos of 4 corners*
0 Add a 4 corners polygon primitive as box body*
4,1,4,$2,$3,$4,$5,$6,$7,$8,$9,$2,$3,0*
0 Add four circle primitives for the rounded corners*
1,1,$1+$1,$2,$3*
1,1,$1+$1,$4,$5*
1,1,$1+$1,$6,$7*
1,1,$1+$1,$8,$9*
0 Add four rect primitives between the rounded corners*
20,1,$1+$1,$2,$3,$4,$5,0*
20,1,$1+$1,$4,$5,$6,$7,0*
20,1,$1+$1,$6,$7,$8,$9,0*
20,1,$1+$1,$8,$9,$2,$3,0*%
G04 Aperture macros list end*
%ADD10RoundRect,0.079500X-0.079500X-0.100500X0.079500X-0.100500X0.079500X0.100500X-0.079500X0.100500X0*%
%ADD11RoundRect,0.079500X0.079500X0.100500X-0.079500X0.100500X-0.079500X-0.100500X0.079500X-0.100500X0*%
%ADD12RoundRect,0.079500X0.100500X-0.079500X0.100500X0.079500X-0.100500X0.079500X-0.100500X-0.079500X0*%
%ADD13R,0.520000X0.450000*%
%ADD14RoundRect,0.140000X0.140000X0.170000X-0.140000X0.170000X-0.140000X-0.170000X0.140000X-0.170000X0*%
%ADD15C,0.270000*%
%ADD16R,0.250000X0.270000*%
%ADD17R,0.270000X0.250000*%
%ADD18R,0.250000X0.325000*%
G04 APERTURE END LIST*
D10*
%TO.C,R3*%
X149555000Y-92100000D03*
X150245000Y-92100000D03*
%TD*%
D11*
%TO.C,C1*%
X144445000Y-89400000D03*
X143755000Y-89400000D03*
%TD*%
D10*
%TO.C,C3*%
X149555000Y-93500000D03*
X150245000Y-93500000D03*
%TD*%
D12*
%TO.C,C5*%
X145000000Y-87095000D03*
X145000000Y-86405000D03*
%TD*%
D13*
%TO.C,J1*%
X145785000Y-87062500D03*
X146615000Y-87062500D03*
X146615000Y-86362500D03*
X145785000Y-86362500D03*
%TD*%
D14*
%TO.C,C4*%
X144780000Y-88500000D03*
X143820000Y-88500000D03*
%TD*%
D10*
%TO.C,C2*%
X149555000Y-94200000D03*
X150245000Y-94200000D03*
%TD*%
%TO.C,R2*%
X149555000Y-92800000D03*
X150245000Y-92800000D03*
%TD*%
D15*
%TO.C,IC1*%
X143400000Y-90800000D03*
X143900000Y-90800000D03*
X144400000Y-90800000D03*
X144900000Y-90800000D03*
X145400000Y-90800000D03*
X145900000Y-90800000D03*
X146400000Y-90800000D03*
X146900000Y-90800000D03*
X147400000Y-90800000D03*
X143400000Y-91300000D03*
X143900000Y-91300000D03*
X146900000Y-91300000D03*
X147400000Y-91300000D03*
X143400000Y-91800000D03*
X144400000Y-91800000D03*
X144900000Y-91800000D03*
X145400000Y-91800000D03*
X145900000Y-91800000D03*
X146400000Y-91800000D03*
X147400000Y-91800000D03*
X143400000Y-92300000D03*
X143900000Y-92300000D03*
X147400000Y-92300000D03*
X143400000Y-92800000D03*
X143900000Y-92800000D03*
X144400000Y-92800000D03*
X144900000Y-92800000D03*
X146400000Y-92800000D03*
X147400000Y-92800000D03*
X143400000Y-93300000D03*
X144400000Y-93300000D03*
X144900000Y-93300000D03*
X146400000Y-93300000D03*
X147400000Y-93300000D03*
X143400000Y-93800000D03*
X144400000Y-93800000D03*
X144900000Y-93800000D03*
X145400000Y-93800000D03*
X145900000Y-93800000D03*
X146400000Y-93800000D03*
X147400000Y-93800000D03*
X143400000Y-94300000D03*
X146900000Y-94300000D03*
X147400000Y-94300000D03*
X143400000Y-94800000D03*
X143900000Y-94800000D03*
X144400000Y-94800000D03*
X144900000Y-94800000D03*
X145400000Y-94800000D03*
X145900000Y-94800000D03*
X146400000Y-94800000D03*
X146900000Y-94800000D03*
X147400000Y-94800000D03*
%TD*%
D16*
%TO.C,D1*%
X150013000Y-86500000D03*
X149588000Y-86500000D03*
%TD*%
D17*
%TO.C,D2*%
X150400000Y-88087000D03*
X150400000Y-88512000D03*
%TD*%
D10*
%TO.C,C6*%
X147405000Y-86400000D03*
X148095000Y-86400000D03*
%TD*%
D18*
%TO.C,FL1*%
X147150000Y-88440000D03*
X147650000Y-88727000D03*
X148150000Y-88727000D03*
X148150000Y-88153000D03*
X147650000Y-88153000D03*
%TD*%
M02*
