%TF.GenerationSoftware,KiCad,Pcbnew,8.0.5*%
%TF.CreationDate,2024-11-08T04:09:33+01:00*%
%TF.ProjectId,hardware v4 pro max,68617264-7761-4726-9520-76342070726f,rev?*%
%TF.SameCoordinates,Original*%
%TF.FileFunction,Legend,Bot*%
%TF.FilePolarity,Positive*%
%FSLAX46Y46*%
G04 Gerber Fmt 4.6, Leading zero omitted, Abs format (unit mm)*
G04 Created by KiCad (PCBNEW 8.0.5) date 2024-11-08 04:09:33*
%MOMM*%
%LPD*%
G01*
G04 APERTURE LIST*
%ADD10C,0.100000*%
%ADD11C,0.120000*%
%ADD12C,0.150000*%
G04 APERTURE END LIST*
D10*
X144349723Y-101015163D02*
X143849723Y-101015163D01*
X144325914Y-101015163D02*
X144349723Y-100967544D01*
X144349723Y-100967544D02*
X144349723Y-100872306D01*
X144349723Y-100872306D02*
X144325914Y-100824687D01*
X144325914Y-100824687D02*
X144302104Y-100800877D01*
X144302104Y-100800877D02*
X144254485Y-100777068D01*
X144254485Y-100777068D02*
X144111628Y-100777068D01*
X144111628Y-100777068D02*
X144064009Y-100800877D01*
X144064009Y-100800877D02*
X144040200Y-100824687D01*
X144040200Y-100824687D02*
X144016390Y-100872306D01*
X144016390Y-100872306D02*
X144016390Y-100967544D01*
X144016390Y-100967544D02*
X144040200Y-101015163D01*
X144016390Y-100562782D02*
X144349723Y-100562782D01*
X144254485Y-100562782D02*
X144302104Y-100538972D01*
X144302104Y-100538972D02*
X144325914Y-100515163D01*
X144325914Y-100515163D02*
X144349723Y-100467544D01*
X144349723Y-100467544D02*
X144349723Y-100419925D01*
X144040200Y-100062782D02*
X144016390Y-100110401D01*
X144016390Y-100110401D02*
X144016390Y-100205639D01*
X144016390Y-100205639D02*
X144040200Y-100253258D01*
X144040200Y-100253258D02*
X144087819Y-100277067D01*
X144087819Y-100277067D02*
X144278295Y-100277067D01*
X144278295Y-100277067D02*
X144325914Y-100253258D01*
X144325914Y-100253258D02*
X144349723Y-100205639D01*
X144349723Y-100205639D02*
X144349723Y-100110401D01*
X144349723Y-100110401D02*
X144325914Y-100062782D01*
X144325914Y-100062782D02*
X144278295Y-100038972D01*
X144278295Y-100038972D02*
X144230676Y-100038972D01*
X144230676Y-100038972D02*
X144183057Y-100277067D01*
X144040200Y-99848496D02*
X144016390Y-99800877D01*
X144016390Y-99800877D02*
X144016390Y-99705639D01*
X144016390Y-99705639D02*
X144040200Y-99658020D01*
X144040200Y-99658020D02*
X144087819Y-99634211D01*
X144087819Y-99634211D02*
X144111628Y-99634211D01*
X144111628Y-99634211D02*
X144159247Y-99658020D01*
X144159247Y-99658020D02*
X144183057Y-99705639D01*
X144183057Y-99705639D02*
X144183057Y-99777068D01*
X144183057Y-99777068D02*
X144206866Y-99824687D01*
X144206866Y-99824687D02*
X144254485Y-99848496D01*
X144254485Y-99848496D02*
X144278295Y-99848496D01*
X144278295Y-99848496D02*
X144325914Y-99824687D01*
X144325914Y-99824687D02*
X144349723Y-99777068D01*
X144349723Y-99777068D02*
X144349723Y-99705639D01*
X144349723Y-99705639D02*
X144325914Y-99658020D01*
X144040200Y-99443734D02*
X144016390Y-99396115D01*
X144016390Y-99396115D02*
X144016390Y-99300877D01*
X144016390Y-99300877D02*
X144040200Y-99253258D01*
X144040200Y-99253258D02*
X144087819Y-99229449D01*
X144087819Y-99229449D02*
X144111628Y-99229449D01*
X144111628Y-99229449D02*
X144159247Y-99253258D01*
X144159247Y-99253258D02*
X144183057Y-99300877D01*
X144183057Y-99300877D02*
X144183057Y-99372306D01*
X144183057Y-99372306D02*
X144206866Y-99419925D01*
X144206866Y-99419925D02*
X144254485Y-99443734D01*
X144254485Y-99443734D02*
X144278295Y-99443734D01*
X144278295Y-99443734D02*
X144325914Y-99419925D01*
X144325914Y-99419925D02*
X144349723Y-99372306D01*
X144349723Y-99372306D02*
X144349723Y-99300877D01*
X144349723Y-99300877D02*
X144325914Y-99253258D01*
X144349723Y-98800877D02*
X144016390Y-98800877D01*
X144349723Y-99015163D02*
X144087819Y-99015163D01*
X144087819Y-99015163D02*
X144040200Y-98991353D01*
X144040200Y-98991353D02*
X144016390Y-98943734D01*
X144016390Y-98943734D02*
X144016390Y-98872306D01*
X144016390Y-98872306D02*
X144040200Y-98824687D01*
X144040200Y-98824687D02*
X144064009Y-98800877D01*
X144016390Y-98562782D02*
X144349723Y-98562782D01*
X144254485Y-98562782D02*
X144302104Y-98538972D01*
X144302104Y-98538972D02*
X144325914Y-98515163D01*
X144325914Y-98515163D02*
X144349723Y-98467544D01*
X144349723Y-98467544D02*
X144349723Y-98419925D01*
X144040200Y-98062782D02*
X144016390Y-98110401D01*
X144016390Y-98110401D02*
X144016390Y-98205639D01*
X144016390Y-98205639D02*
X144040200Y-98253258D01*
X144040200Y-98253258D02*
X144087819Y-98277067D01*
X144087819Y-98277067D02*
X144278295Y-98277067D01*
X144278295Y-98277067D02*
X144325914Y-98253258D01*
X144325914Y-98253258D02*
X144349723Y-98205639D01*
X144349723Y-98205639D02*
X144349723Y-98110401D01*
X144349723Y-98110401D02*
X144325914Y-98062782D01*
X144325914Y-98062782D02*
X144278295Y-98038972D01*
X144278295Y-98038972D02*
X144230676Y-98038972D01*
X144230676Y-98038972D02*
X144183057Y-98277067D01*
D11*
%TO.C,C11*%
X126340000Y-94322164D02*
X126340000Y-94537836D01*
X127060000Y-94322164D02*
X127060000Y-94537836D01*
%TO.C,C19*%
X138887836Y-100770000D02*
X138672164Y-100770000D01*
X138887836Y-101490000D02*
X138672164Y-101490000D01*
%TO.C,C12*%
X139722164Y-101690000D02*
X139937836Y-101690000D01*
X139722164Y-102410000D02*
X139937836Y-102410000D01*
%TO.C,R8*%
X136360000Y-92246359D02*
X136360000Y-92553641D01*
X137120000Y-92246359D02*
X137120000Y-92553641D01*
D10*
%TO.C,WSEN-PADS1*%
X140200000Y-99793000D02*
X140200000Y-99793000D01*
X140300000Y-99793000D02*
X140300000Y-99793000D01*
X140200000Y-99793000D02*
G75*
G02*
X140300000Y-99793000I50000J0D01*
G01*
X140300000Y-99793000D02*
G75*
G02*
X140200000Y-99793000I-50000J0D01*
G01*
D11*
%TO.C,C2*%
X139517836Y-95650000D02*
X139302164Y-95650000D01*
X139517836Y-96370000D02*
X139302164Y-96370000D01*
%TO.C,C10*%
X128227836Y-94520000D02*
X128012164Y-94520000D01*
X128227836Y-95240000D02*
X128012164Y-95240000D01*
%TO.C,C24*%
X143740000Y-96507836D02*
X143740000Y-96292164D01*
X144460000Y-96507836D02*
X144460000Y-96292164D01*
%TO.C,R1*%
X151330000Y-94086359D02*
X151330000Y-94393641D01*
X152090000Y-94086359D02*
X152090000Y-94393641D01*
%TO.C,R9*%
X135370000Y-92563641D02*
X135370000Y-92256359D01*
X136130000Y-92563641D02*
X136130000Y-92256359D01*
%TO.C,R2*%
X146003641Y-94870000D02*
X145696359Y-94870000D01*
X146003641Y-95630000D02*
X145696359Y-95630000D01*
%TO.C,R10*%
X128740000Y-92513641D02*
X128740000Y-92206359D01*
X129500000Y-92513641D02*
X129500000Y-92206359D01*
%TO.C,C6*%
X134430000Y-92302164D02*
X134430000Y-92517836D01*
X135150000Y-92302164D02*
X135150000Y-92517836D01*
D10*
%TO.C,D2*%
X151730000Y-91285000D02*
G75*
G02*
X151630000Y-91285000I-50000J0D01*
G01*
X151630000Y-91285000D02*
G75*
G02*
X151730000Y-91285000I50000J0D01*
G01*
D11*
%TO.C,R7*%
X127760000Y-92226359D02*
X127760000Y-92533641D01*
X128520000Y-92226359D02*
X128520000Y-92533641D01*
%TO.C,C22*%
X142780000Y-96497836D02*
X142780000Y-96282164D01*
X143500000Y-96497836D02*
X143500000Y-96282164D01*
%TO.C,R20*%
X140873641Y-96620000D02*
X140566359Y-96620000D01*
X140873641Y-97380000D02*
X140566359Y-97380000D01*
%TO.C,J4*%
X145655000Y-96910000D02*
X145655000Y-97710000D01*
X145805000Y-96910000D02*
X145655000Y-96910000D01*
X148325000Y-96090000D02*
X149735000Y-96090000D01*
X148325000Y-105250000D02*
X149735000Y-105250000D01*
%TO.C,R13*%
X131620000Y-94446359D02*
X131620000Y-94753641D01*
X132380000Y-94446359D02*
X132380000Y-94753641D01*
D10*
%TO.C,D3*%
X150780000Y-91315000D02*
G75*
G02*
X150680000Y-91315000I-50000J0D01*
G01*
X150680000Y-91315000D02*
G75*
G02*
X150780000Y-91315000I50000J0D01*
G01*
%TO.C,J1*%
X137410000Y-105497000D02*
X137910000Y-105497000D01*
X137410000Y-109748000D02*
X137410000Y-105497000D01*
X139910000Y-109748000D02*
X142910000Y-109748000D01*
X145410000Y-105497000D02*
X144910000Y-105497000D01*
X145410000Y-109748000D02*
X145410000Y-105497000D01*
D11*
%TO.C,C13*%
X142292164Y-101850000D02*
X142507836Y-101850000D01*
X142292164Y-102570000D02*
X142507836Y-102570000D01*
%TO.C,C7*%
X129750000Y-92272164D02*
X129750000Y-92487836D01*
X130470000Y-92272164D02*
X130470000Y-92487836D01*
%TO.C,C20*%
X138897836Y-99820000D02*
X138682164Y-99820000D01*
X138897836Y-100540000D02*
X138682164Y-100540000D01*
%TO.C,R19*%
X138830000Y-98316359D02*
X138830000Y-98623641D01*
X139590000Y-98316359D02*
X139590000Y-98623641D01*
%TO.C,PA1010D1*%
D10*
X135530000Y-105630000D02*
X127530000Y-105630000D01*
X127530000Y-95630000D01*
X135530000Y-95630000D01*
X135530000Y-105630000D01*
D12*
X132530000Y-100130000D02*
G75*
G02*
X130530000Y-100130000I-1000000J0D01*
G01*
X130530000Y-100130000D02*
G75*
G02*
X132530000Y-100130000I1000000J0D01*
G01*
D11*
%TO.C,C25*%
X138907836Y-102610000D02*
X138692164Y-102610000D01*
X138907836Y-103330000D02*
X138692164Y-103330000D01*
%TD*%
M02*
