%TF.GenerationSoftware,KiCad,Pcbnew,8.0.5*%
%TF.CreationDate,2024-11-08T04:09:33+01:00*%
%TF.ProjectId,hardware v4 pro max,68617264-7761-4726-9520-76342070726f,rev?*%
%TF.SameCoordinates,Original*%
%TF.FileFunction,Paste,Bot*%
%TF.FilePolarity,Positive*%
%FSLAX46Y46*%
G04 Gerber Fmt 4.6, Leading zero omitted, Abs format (unit mm)*
G04 Created by KiCad (PCBNEW 8.0.5) date 2024-11-08 04:09:33*
%MOMM*%
%LPD*%
G01*
G04 APERTURE LIST*
G04 Aperture macros list*
%AMRoundRect*
0 Rectangle with rounded corners*
0 $1 Rounding radius*
0 $2 $3 $4 $5 $6 $7 $8 $9 X,Y pos of 4 corners*
0 Add a 4 corners polygon primitive as box body*
4,1,4,$2,$3,$4,$5,$6,$7,$8,$9,$2,$3,0*
0 Add four circle primitives for the rounded corners*
1,1,$1+$1,$2,$3*
1,1,$1+$1,$4,$5*
1,1,$1+$1,$6,$7*
1,1,$1+$1,$8,$9*
0 Add four rect primitives between the rounded corners*
20,1,$1+$1,$2,$3,$4,$5,0*
20,1,$1+$1,$4,$5,$6,$7,0*
20,1,$1+$1,$6,$7,$8,$9,0*
20,1,$1+$1,$8,$9,$2,$3,0*%
G04 Aperture macros list end*
%ADD10RoundRect,0.140000X0.170000X-0.140000X0.170000X0.140000X-0.170000X0.140000X-0.170000X-0.140000X0*%
%ADD11RoundRect,0.140000X-0.140000X-0.170000X0.140000X-0.170000X0.140000X0.170000X-0.140000X0.170000X0*%
%ADD12RoundRect,0.140000X0.140000X0.170000X-0.140000X0.170000X-0.140000X-0.170000X0.140000X-0.170000X0*%
%ADD13RoundRect,0.135000X0.185000X-0.135000X0.185000X0.135000X-0.185000X0.135000X-0.185000X-0.135000X0*%
%ADD14R,0.375000X0.350000*%
%ADD15R,0.350000X0.375000*%
%ADD16RoundRect,0.140000X-0.170000X0.140000X-0.170000X-0.140000X0.170000X-0.140000X0.170000X0.140000X0*%
%ADD17RoundRect,0.135000X-0.185000X0.135000X-0.185000X-0.135000X0.185000X-0.135000X0.185000X0.135000X0*%
%ADD18RoundRect,0.135000X-0.135000X-0.185000X0.135000X-0.185000X0.135000X0.185000X-0.135000X0.185000X0*%
%ADD19RoundRect,0.090000X-0.090000X0.139000X-0.090000X-0.139000X0.090000X-0.139000X0.090000X0.139000X0*%
%ADD20RoundRect,0.150000X-0.425000X0.150000X-0.425000X-0.150000X0.425000X-0.150000X0.425000X0.150000X0*%
%ADD21RoundRect,0.075000X-0.500000X0.075000X-0.500000X-0.075000X0.500000X-0.075000X0.500000X0.075000X0*%
%ADD22R,0.700000X1.600000*%
%ADD23R,0.700000X1.500000*%
%ADD24R,1.000000X0.800000*%
%ADD25R,0.600000X1.550000*%
%ADD26R,1.200000X1.800000*%
%ADD27R,1.200000X0.800000*%
G04 APERTURE END LIST*
D10*
%TO.C,C11*%
X126700000Y-94910000D03*
X126700000Y-93950000D03*
%TD*%
D11*
%TO.C,C19*%
X138300000Y-101130000D03*
X139260000Y-101130000D03*
%TD*%
D12*
%TO.C,C12*%
X140310000Y-102050000D03*
X139350000Y-102050000D03*
%TD*%
D13*
%TO.C,R8*%
X136740000Y-92910000D03*
X136740000Y-91890000D03*
%TD*%
D14*
%TO.C,WSEN-PADS1*%
X141038000Y-99793000D03*
X141038000Y-99293000D03*
D15*
X141250000Y-98830000D03*
X141750000Y-98830000D03*
X142250000Y-98830000D03*
D14*
X142463000Y-99293000D03*
X142463000Y-99793000D03*
D15*
X142250000Y-100256000D03*
X141750000Y-100256000D03*
X141250000Y-100256000D03*
%TD*%
D11*
%TO.C,C2*%
X138930000Y-96010000D03*
X139890000Y-96010000D03*
%TD*%
%TO.C,C10*%
X127640000Y-94880000D03*
X128600000Y-94880000D03*
%TD*%
D16*
%TO.C,C24*%
X144100000Y-95920000D03*
X144100000Y-96880000D03*
%TD*%
D13*
%TO.C,R1*%
X151710000Y-94750000D03*
X151710000Y-93730000D03*
%TD*%
D17*
%TO.C,R9*%
X135750000Y-91900000D03*
X135750000Y-92920000D03*
%TD*%
D18*
%TO.C,R2*%
X145340000Y-95250000D03*
X146360000Y-95250000D03*
%TD*%
D17*
%TO.C,R10*%
X129120000Y-91850000D03*
X129120000Y-92870000D03*
%TD*%
D10*
%TO.C,C6*%
X134790000Y-92890000D03*
X134790000Y-91930000D03*
%TD*%
D19*
%TO.C,D2*%
X151680000Y-91887500D03*
X151680000Y-92752500D03*
%TD*%
D13*
%TO.C,R7*%
X128140000Y-92890000D03*
X128140000Y-91870000D03*
%TD*%
D16*
%TO.C,C22*%
X143140000Y-95910000D03*
X143140000Y-96870000D03*
%TD*%
D18*
%TO.C,R20*%
X140210000Y-97000000D03*
X141230000Y-97000000D03*
%TD*%
D20*
%TO.C,J4*%
X146490000Y-97470000D03*
X146490000Y-98270000D03*
D21*
X146490000Y-99420000D03*
X146490000Y-100420000D03*
X146490000Y-100920000D03*
X146490000Y-101920000D03*
D20*
X146490000Y-103070000D03*
X146490000Y-103870000D03*
X146490000Y-103870000D03*
X146490000Y-103070000D03*
D21*
X146490000Y-102420000D03*
X146490000Y-101420000D03*
X146490000Y-99920000D03*
X146490000Y-98920000D03*
D20*
X146490000Y-98270000D03*
X146490000Y-97470000D03*
%TD*%
D13*
%TO.C,R13*%
X132000000Y-95110000D03*
X132000000Y-94090000D03*
%TD*%
D22*
%TO.C,SW1*%
X130495000Y-106667500D03*
D23*
X131995000Y-106667500D03*
X134995000Y-106667500D03*
D24*
X136395000Y-109382500D03*
X136395000Y-107452500D03*
X129095000Y-109382500D03*
X129095000Y-107452500D03*
%TD*%
D19*
%TO.C,D3*%
X150730000Y-91917500D03*
X150730000Y-92782500D03*
%TD*%
D25*
%TO.C,J1*%
X143910000Y-105173000D03*
X142910000Y-105173000D03*
X141910000Y-105173000D03*
X140910000Y-105173000D03*
X139910000Y-105173000D03*
X138910000Y-105173000D03*
D26*
X144410000Y-109048000D03*
X138410000Y-109048000D03*
%TD*%
D12*
%TO.C,C13*%
X142880000Y-102210000D03*
X141920000Y-102210000D03*
%TD*%
D10*
%TO.C,C7*%
X130110000Y-92860000D03*
X130110000Y-91900000D03*
%TD*%
D11*
%TO.C,C20*%
X138310000Y-100180000D03*
X139270000Y-100180000D03*
%TD*%
D13*
%TO.C,R19*%
X139210000Y-98980000D03*
X139210000Y-97960000D03*
%TD*%
D27*
%TO.C,PA1010D1*%
X136380000Y-96780000D03*
X136380000Y-98380000D03*
X136380000Y-101280000D03*
X136380000Y-102880000D03*
X136380000Y-104480000D03*
X126680000Y-104480000D03*
X126680000Y-102880000D03*
X126680000Y-101280000D03*
X126680000Y-98380000D03*
X126680000Y-96780000D03*
%TD*%
D11*
%TO.C,C25*%
X138320000Y-102970000D03*
X139280000Y-102970000D03*
%TD*%
M02*
