%TF.GenerationSoftware,KiCad,Pcbnew,8.0.5*%
%TF.CreationDate,2024-11-08T04:09:32+01:00*%
%TF.ProjectId,hardware v4 pro max,68617264-7761-4726-9520-76342070726f,rev?*%
%TF.SameCoordinates,Original*%
%TF.FileFunction,Copper,L3,Inr*%
%TF.FilePolarity,Positive*%
%FSLAX46Y46*%
G04 Gerber Fmt 4.6, Leading zero omitted, Abs format (unit mm)*
G04 Created by KiCad (PCBNEW 8.0.5) date 2024-11-08 04:09:32*
%MOMM*%
%LPD*%
G01*
G04 APERTURE LIST*
%TA.AperFunction,ComponentPad*%
%ADD10R,1.700000X1.700000*%
%TD*%
%TA.AperFunction,ComponentPad*%
%ADD11O,1.700000X1.700000*%
%TD*%
%TA.AperFunction,ComponentPad*%
%ADD12C,1.000000*%
%TD*%
%TA.AperFunction,ComponentPad*%
%ADD13O,1.800000X1.000000*%
%TD*%
%TA.AperFunction,ComponentPad*%
%ADD14O,2.100000X1.000000*%
%TD*%
%TA.AperFunction,ViaPad*%
%ADD15C,0.400000*%
%TD*%
%TA.AperFunction,Conductor*%
%ADD16C,0.150000*%
%TD*%
%TA.AperFunction,Conductor*%
%ADD17C,0.200000*%
%TD*%
G04 APERTURE END LIST*
D10*
%TO.N,GND*%
%TO.C,J3*%
X148570000Y-92965000D03*
D11*
%TO.N,+3.3V*%
X146030000Y-92965000D03*
%TO.N,OLED_SCL*%
X143490000Y-92965000D03*
%TO.N,OLED_SDA*%
X140950000Y-92965000D03*
%TD*%
D12*
%TO.N,GND*%
%TO.C,TP1*%
X127050000Y-108950000D03*
%TD*%
%TO.N,BAT+*%
%TO.C,TP2*%
X127090000Y-106930000D03*
%TD*%
D13*
%TO.N,GND*%
%TO.C,J4*%
X151245000Y-96350000D03*
D14*
X147065000Y-96350000D03*
D13*
X151245000Y-104990000D03*
D14*
X147065000Y-104990000D03*
%TD*%
D15*
%TO.N,Net-(BT1-+)*%
X126950000Y-103730000D03*
%TO.N,GNDGPS*%
X128100000Y-99940000D03*
X126460000Y-102240000D03*
X126990000Y-102240000D03*
X128570000Y-99940000D03*
%TO.N,GND*%
X136350000Y-94160000D03*
X130300000Y-98220000D03*
X150430000Y-98280000D03*
X149090000Y-105540000D03*
X128300000Y-107850000D03*
X136130000Y-102000000D03*
X138350000Y-96890000D03*
X143220000Y-106520000D03*
X149930000Y-103260000D03*
X145260000Y-106520000D03*
X137360000Y-99160000D03*
X137100000Y-94670000D03*
X127780000Y-109600000D03*
X140670000Y-106520000D03*
X151380000Y-106520000D03*
X137450000Y-104820000D03*
X147060000Y-94160000D03*
X129130000Y-101880000D03*
X130030000Y-100950000D03*
X130180000Y-95610000D03*
X133890000Y-103780000D03*
X132880000Y-97160000D03*
X143160000Y-101250000D03*
X142200000Y-106520000D03*
X129820000Y-94635000D03*
X138710000Y-106550000D03*
X138050000Y-104340000D03*
X140570000Y-101920000D03*
X133380000Y-94600000D03*
X126350000Y-109660000D03*
X143000000Y-102920000D03*
X139370000Y-96870000D03*
X138900000Y-91580000D03*
X149340000Y-106520000D03*
X129800000Y-93790000D03*
X132460000Y-100920000D03*
X128710000Y-93790000D03*
X141150000Y-100950000D03*
X138270000Y-106990000D03*
X130330000Y-105260000D03*
X145650000Y-96580000D03*
X151160000Y-103200000D03*
X148640000Y-91490000D03*
X141140000Y-101910000D03*
X136080000Y-108230000D03*
X127950000Y-93890000D03*
X126320000Y-108020000D03*
X133340000Y-105670000D03*
X132400000Y-91890000D03*
X144680000Y-91590000D03*
X133300000Y-102380000D03*
X147810000Y-106520000D03*
X150330000Y-102310000D03*
X138270000Y-109030000D03*
X140090000Y-94190000D03*
X147710000Y-98490000D03*
X148320000Y-106520000D03*
X148830000Y-106520000D03*
X138630000Y-93270000D03*
X142180000Y-95280000D03*
X142710000Y-106520000D03*
X131220000Y-96450000D03*
X147680000Y-102870000D03*
X146790000Y-106520000D03*
X149130000Y-102280000D03*
X150360000Y-106520000D03*
X129140000Y-100990000D03*
X142190000Y-91570000D03*
X140140000Y-98080000D03*
X138270000Y-107500000D03*
X151440000Y-97360000D03*
X131280000Y-91390000D03*
X143730000Y-106520000D03*
X130080000Y-104190000D03*
X129030000Y-104190000D03*
X144040000Y-100990000D03*
X147300000Y-106520000D03*
X150410000Y-97380000D03*
X151750000Y-103830000D03*
X149810000Y-104430000D03*
X138280000Y-98070000D03*
X134280000Y-95700000D03*
X142170000Y-93680000D03*
X144730000Y-94040000D03*
X138270000Y-108010000D03*
X129750000Y-98910000D03*
X147260000Y-91500000D03*
X130110000Y-102970000D03*
X129530000Y-97190000D03*
X141180000Y-106520000D03*
X148790000Y-95740000D03*
X151890000Y-106520000D03*
X133390000Y-104260000D03*
X131300000Y-92060000D03*
X136130000Y-97560000D03*
X134140000Y-105660000D03*
X148580000Y-94560000D03*
X133660000Y-92220000D03*
X133729834Y-93419834D03*
X141690000Y-106520000D03*
X151420000Y-98330000D03*
X144750000Y-106520000D03*
X137500000Y-109660000D03*
X131160000Y-98850000D03*
X136150000Y-100500000D03*
X138270000Y-108520000D03*
X131600000Y-97130000D03*
X138300000Y-99180000D03*
X148310000Y-101990000D03*
X130100000Y-101850000D03*
X132060000Y-103400000D03*
X133350000Y-106610000D03*
X131190000Y-95500000D03*
X138860000Y-92440000D03*
X149850000Y-106520000D03*
X142280000Y-102910000D03*
X144509834Y-97819834D03*
X133360000Y-99280000D03*
X131150000Y-101820000D03*
X144240000Y-106520000D03*
X137430000Y-96900000D03*
X131100000Y-103420000D03*
X149920000Y-92770000D03*
X138270000Y-109540000D03*
X128400000Y-108690000D03*
X139270000Y-106560000D03*
X129130000Y-103010000D03*
X150990000Y-94360000D03*
X149930000Y-95390000D03*
X139380000Y-94050000D03*
X150870000Y-106520000D03*
X135720000Y-93630000D03*
X151640000Y-102310000D03*
X141150000Y-98100000D03*
X143960000Y-94870000D03*
X146280000Y-106520000D03*
X134100000Y-106620000D03*
X137580000Y-101880000D03*
X137110000Y-107710000D03*
X132840000Y-100330000D03*
X145770000Y-106520000D03*
X143440000Y-91560000D03*
X131980000Y-93300000D03*
%TO.N,+3.3V*%
X136520275Y-105883344D03*
X136020388Y-105894068D03*
X127060000Y-95820000D03*
X127549196Y-93250066D03*
X135510000Y-95650000D03*
X135190000Y-96140000D03*
X136750000Y-93180000D03*
X142710000Y-97160000D03*
X143920000Y-104260000D03*
X133960000Y-100270000D03*
X141024490Y-103355427D03*
X143920000Y-104770000D03*
X126680000Y-96780000D03*
X133290000Y-94010000D03*
X126540000Y-95820000D03*
X142720000Y-97620000D03*
X138930000Y-103690000D03*
X137020000Y-106400000D03*
X139780013Y-95341573D03*
X134450000Y-100260000D03*
X137020000Y-105899997D03*
%TO.N,vusb*%
X132260000Y-109150000D03*
X132280000Y-109570000D03*
X145300000Y-105010000D03*
X151650000Y-100330000D03*
X144915000Y-105395000D03*
%TO.N,Net-(SW1-B)*%
X133070000Y-107460000D03*
X133570000Y-107460000D03*
%TO.N,B2*%
X134520000Y-96860000D03*
%TO.N,B1*%
X134510000Y-97430000D03*
%TO.N,Net-(U1-NRST)*%
X134800000Y-93800000D03*
X132750000Y-101580000D03*
X134539999Y-99667215D03*
%TO.N,SPI_MOSi*%
X126460000Y-93020000D03*
X137557500Y-95220000D03*
%TO.N,SPI_SCK*%
X126860000Y-93370000D03*
X134611802Y-101361317D03*
%TO.N,SPI_MISO*%
X136990000Y-103680000D03*
X133360000Y-95680000D03*
%TO.N,SPI_CS*%
X132100000Y-96100000D03*
X136500000Y-94865000D03*
%TO.N,COMPASSDA*%
X142900000Y-104810000D03*
X141478477Y-94897064D03*
X134562492Y-99163252D03*
%TO.N,COMPASSCL*%
X141940251Y-104764958D03*
X134579999Y-98652671D03*
%TO.N,USART_RX*%
X140941084Y-103890141D03*
X142900000Y-95170000D03*
%TO.N,USART_TX*%
X138100000Y-103700000D03*
%TO.N,OLED_SCL*%
X137530000Y-103700000D03*
%TO.N,Net-(J4-CC2)*%
X148760000Y-103100000D03*
%TO.N,Net-(J4-D--PadA7)*%
X147270000Y-99830000D03*
%TO.N,Net-(J4-D+-PadA6)*%
X147240000Y-101400000D03*
%TO.N,Net-(J4-CC1)*%
X148750000Y-98240000D03*
%TO.N,Net-(PA1010D1-RX)*%
X135930000Y-105230000D03*
%TO.N,Net-(PA1010D1-TX)*%
X135850000Y-103720000D03*
%TO.N,ALIMGPS*%
X127990000Y-106030000D03*
X134565416Y-100863471D03*
%TO.N,Net-(R10-Pad1)*%
X126880000Y-91970000D03*
%TO.N,Net-(U1-PA4)*%
X129220000Y-108682498D03*
X135370000Y-103230000D03*
%TO.N,BAT+*%
X130140000Y-107610000D03*
X130130000Y-107060000D03*
%TO.N,SWDIO*%
X137900000Y-93550000D03*
X138930000Y-94610000D03*
%TO.N,SWCLK*%
X137340000Y-93630000D03*
X139230000Y-95280000D03*
%TO.N,SWO*%
X133780000Y-91500000D03*
X138307500Y-95190000D03*
%TO.N,D+*%
X150595000Y-101310000D03*
X140790000Y-95283906D03*
%TO.N,D-*%
X141540000Y-95393267D03*
X150595000Y-99410000D03*
%TO.N,Net-(U1-PB0)*%
X151020000Y-95180000D03*
X143120000Y-100410000D03*
%TO.N,Net-(U1-PB1)*%
X145070000Y-95950000D03*
X143050000Y-99810000D03*
%TD*%
D16*
%TO.N,SPI_MOSi*%
X130955066Y-92875066D02*
X126604934Y-92875066D01*
X126604934Y-92875066D02*
X126460000Y-93020000D01*
X137557500Y-95220000D02*
X137537500Y-95240000D01*
X133320000Y-95240000D02*
X130955066Y-92875066D01*
X137537500Y-95240000D02*
X133320000Y-95240000D01*
%TO.N,SPI_SCK*%
X126860000Y-93370000D02*
X126860000Y-93700331D01*
X126860000Y-93700331D02*
X134520986Y-101361317D01*
X134520986Y-101361317D02*
X134611802Y-101361317D01*
%TO.N,SPI_MISO*%
X133360000Y-96810331D02*
X136990000Y-100440331D01*
X136990000Y-100440331D02*
X136990000Y-103680000D01*
X133360000Y-95680000D02*
X133360000Y-96810331D01*
%TO.N,OLED_SCL*%
X141213577Y-94330000D02*
X142660000Y-94330000D01*
X142660000Y-94330000D02*
X143490000Y-93500000D01*
X143490000Y-93500000D02*
X143490000Y-92965000D01*
X140400000Y-96950000D02*
X140400000Y-95143577D01*
X139745000Y-101485000D02*
X139745000Y-97605000D01*
X140400000Y-95143577D02*
X141213577Y-94330000D01*
X137530000Y-103700000D02*
X139745000Y-101485000D01*
X139745000Y-97605000D02*
X140400000Y-96950000D01*
%TO.N,ALIMGPS*%
X134520000Y-102700000D02*
X133810000Y-102700000D01*
X134644287Y-100863471D02*
X134986802Y-101205986D01*
X134565416Y-100863471D02*
X134644287Y-100863471D01*
X133663554Y-102846447D02*
X130480000Y-106030000D01*
X134986802Y-102233198D02*
X134520000Y-102700000D01*
X134986802Y-101205986D02*
X134986802Y-102233198D01*
X130480000Y-106030000D02*
X127990000Y-106030000D01*
X133810000Y-102700000D02*
X133663554Y-102846447D01*
%TO.N,Net-(U1-PA4)*%
X130580000Y-107700331D02*
X130580000Y-106283554D01*
X129597833Y-108682498D02*
X130580000Y-107700331D01*
X129220000Y-108682498D02*
X129597833Y-108682498D01*
X135090000Y-102950000D02*
X135370000Y-103230000D01*
X133913554Y-102950000D02*
X135090000Y-102950000D01*
X130580000Y-106283554D02*
X133913554Y-102950000D01*
%TO.N,SWDIO*%
X138930000Y-94610000D02*
X137900000Y-93580000D01*
X137900000Y-93580000D02*
X137900000Y-93550000D01*
%TO.N,SWCLK*%
X137340000Y-93630000D02*
X138585007Y-94875007D01*
X138805494Y-95095494D02*
X138990000Y-95280000D01*
X138585825Y-94875007D02*
X138805494Y-95094676D01*
X138585007Y-94875007D02*
X138585825Y-94875007D01*
X138805494Y-95094676D02*
X138805494Y-95095494D01*
X138990000Y-95280000D02*
X139230000Y-95280000D01*
%TO.N,SWO*%
X134539669Y-91500000D02*
X133780000Y-91500000D01*
X138307500Y-95190000D02*
X138229669Y-95190000D01*
X138229669Y-95190000D02*
X134539669Y-91500000D01*
D17*
%TO.N,D+*%
X144350000Y-100530000D02*
X149815000Y-100530000D01*
X141040000Y-95533906D02*
X141040000Y-97220000D01*
X141040000Y-97220000D02*
X144350000Y-100530000D01*
X149815000Y-100530000D02*
X150595000Y-101310000D01*
X140790000Y-95283906D02*
X141040000Y-95533906D01*
%TO.N,D-*%
X141340000Y-95593267D02*
X141340000Y-97095736D01*
X141540000Y-95393267D02*
X141340000Y-95593267D01*
X149775000Y-100230000D02*
X150595000Y-99410000D01*
X144474264Y-100230000D02*
X149775000Y-100230000D01*
X141340000Y-97095736D02*
X144474264Y-100230000D01*
%TD*%
%TA.AperFunction,Conductor*%
%TO.N,GND*%
G36*
X152192539Y-91190185D02*
G01*
X152238294Y-91242989D01*
X152249500Y-91294500D01*
X152249500Y-100298970D01*
X152240963Y-100328041D01*
X152248477Y-100345136D01*
X152249500Y-100361029D01*
X152249500Y-106726000D01*
X152229815Y-106793039D01*
X152177011Y-106838794D01*
X152125500Y-106850000D01*
X145110000Y-106850000D01*
X145110000Y-109845500D01*
X145090315Y-109912539D01*
X145037511Y-109958294D01*
X144986000Y-109969500D01*
X132671752Y-109969500D01*
X132604713Y-109949815D01*
X132558958Y-109897011D01*
X132549014Y-109827853D01*
X132564996Y-109788471D01*
X132562664Y-109787283D01*
X132567095Y-109778587D01*
X132617500Y-109679661D01*
X132617500Y-109679659D01*
X132617501Y-109679658D01*
X132634869Y-109570002D01*
X132634869Y-109569997D01*
X132617501Y-109460343D01*
X132617500Y-109460341D01*
X132617500Y-109460339D01*
X132585056Y-109396664D01*
X132572161Y-109327999D01*
X132585056Y-109284081D01*
X132597500Y-109259661D01*
X132614869Y-109150000D01*
X132614869Y-109149997D01*
X132597501Y-109040341D01*
X132586117Y-109017999D01*
X132547095Y-108941413D01*
X132547092Y-108941410D01*
X132547090Y-108941407D01*
X132468592Y-108862909D01*
X132468588Y-108862906D01*
X132468587Y-108862905D01*
X132464743Y-108860946D01*
X132369658Y-108812498D01*
X132260002Y-108795131D01*
X132259998Y-108795131D01*
X132150341Y-108812498D01*
X132051414Y-108862904D01*
X132051407Y-108862909D01*
X131972909Y-108941407D01*
X131972904Y-108941414D01*
X131922498Y-109040341D01*
X131905131Y-109149997D01*
X131905131Y-109150002D01*
X131922498Y-109259658D01*
X131954942Y-109323332D01*
X131967838Y-109392001D01*
X131954942Y-109435920D01*
X131942498Y-109460341D01*
X131925131Y-109569997D01*
X131925131Y-109570002D01*
X131942498Y-109679658D01*
X131997336Y-109787283D01*
X131994344Y-109788807D01*
X132012046Y-109838427D01*
X131996218Y-109906480D01*
X131946109Y-109955172D01*
X131888248Y-109969500D01*
X126174500Y-109969500D01*
X126107461Y-109949815D01*
X126061706Y-109897011D01*
X126050500Y-109845500D01*
X126050500Y-106929999D01*
X126434722Y-106929999D01*
X126434722Y-106930000D01*
X126453762Y-107086818D01*
X126502117Y-107214318D01*
X126509780Y-107234523D01*
X126599517Y-107364530D01*
X126717760Y-107469283D01*
X126717762Y-107469284D01*
X126857634Y-107542696D01*
X127011014Y-107580500D01*
X127011015Y-107580500D01*
X127168985Y-107580500D01*
X127322365Y-107542696D01*
X127462240Y-107469283D01*
X127580483Y-107364530D01*
X127670220Y-107234523D01*
X127726237Y-107086818D01*
X127745278Y-106930000D01*
X127726237Y-106773182D01*
X127726133Y-106772909D01*
X127700429Y-106705131D01*
X127670220Y-106625477D01*
X127580483Y-106495470D01*
X127462240Y-106390717D01*
X127462238Y-106390716D01*
X127462237Y-106390715D01*
X127322365Y-106317303D01*
X127168986Y-106279500D01*
X127168985Y-106279500D01*
X127011015Y-106279500D01*
X127011014Y-106279500D01*
X126857634Y-106317303D01*
X126717762Y-106390715D01*
X126599516Y-106495471D01*
X126509781Y-106625475D01*
X126509780Y-106625476D01*
X126453762Y-106773181D01*
X126434722Y-106929999D01*
X126050500Y-106929999D01*
X126050500Y-103729997D01*
X126595131Y-103729997D01*
X126595131Y-103730002D01*
X126612498Y-103839658D01*
X126662904Y-103938585D01*
X126662909Y-103938592D01*
X126741407Y-104017090D01*
X126741410Y-104017092D01*
X126741413Y-104017095D01*
X126815549Y-104054869D01*
X126840341Y-104067501D01*
X126949998Y-104084869D01*
X126950000Y-104084869D01*
X126950002Y-104084869D01*
X127059658Y-104067501D01*
X127059659Y-104067500D01*
X127059661Y-104067500D01*
X127158587Y-104017095D01*
X127237095Y-103938587D01*
X127287500Y-103839661D01*
X127287500Y-103839659D01*
X127287501Y-103839658D01*
X127304869Y-103730002D01*
X127304869Y-103729997D01*
X127287501Y-103620341D01*
X127270205Y-103586396D01*
X127237095Y-103521413D01*
X127237092Y-103521410D01*
X127237090Y-103521407D01*
X127158592Y-103442909D01*
X127158588Y-103442906D01*
X127158587Y-103442905D01*
X127150112Y-103438587D01*
X127059658Y-103392498D01*
X126950002Y-103375131D01*
X126949998Y-103375131D01*
X126840341Y-103392498D01*
X126741414Y-103442904D01*
X126741407Y-103442909D01*
X126662909Y-103521407D01*
X126662904Y-103521414D01*
X126612498Y-103620341D01*
X126595131Y-103729997D01*
X126050500Y-103729997D01*
X126050500Y-102624487D01*
X126070185Y-102557448D01*
X126122989Y-102511693D01*
X126192147Y-102501749D01*
X126247382Y-102524167D01*
X126251409Y-102527093D01*
X126350341Y-102577501D01*
X126459998Y-102594869D01*
X126460000Y-102594869D01*
X126460002Y-102594869D01*
X126569656Y-102577501D01*
X126569656Y-102577500D01*
X126569661Y-102577500D01*
X126668587Y-102527095D01*
X126668588Y-102527093D01*
X126668705Y-102527034D01*
X126737375Y-102514138D01*
X126781295Y-102527034D01*
X126781411Y-102527093D01*
X126781413Y-102527095D01*
X126880339Y-102577500D01*
X126880341Y-102577500D01*
X126880343Y-102577501D01*
X126989998Y-102594869D01*
X126990000Y-102594869D01*
X126990002Y-102594869D01*
X127099658Y-102577501D01*
X127099659Y-102577500D01*
X127099661Y-102577500D01*
X127198587Y-102527095D01*
X127277095Y-102448587D01*
X127327500Y-102349661D01*
X127327500Y-102349659D01*
X127327501Y-102349658D01*
X127344869Y-102240002D01*
X127344869Y-102239997D01*
X127327501Y-102130341D01*
X127306147Y-102088431D01*
X127277095Y-102031413D01*
X127277092Y-102031410D01*
X127277090Y-102031407D01*
X127198592Y-101952909D01*
X127198588Y-101952906D01*
X127198587Y-101952905D01*
X127163189Y-101934869D01*
X127099658Y-101902498D01*
X126990002Y-101885131D01*
X126989998Y-101885131D01*
X126880341Y-101902498D01*
X126781294Y-101952965D01*
X126712624Y-101965861D01*
X126668706Y-101952965D01*
X126569658Y-101902498D01*
X126460002Y-101885131D01*
X126459998Y-101885131D01*
X126350341Y-101902498D01*
X126251408Y-101952907D01*
X126247377Y-101955836D01*
X126181568Y-101979310D01*
X126113516Y-101963479D01*
X126064825Y-101913369D01*
X126050500Y-101855512D01*
X126050500Y-101579997D01*
X132395131Y-101579997D01*
X132395131Y-101580002D01*
X132412498Y-101689658D01*
X132462904Y-101788585D01*
X132462909Y-101788592D01*
X132541407Y-101867090D01*
X132541410Y-101867092D01*
X132541413Y-101867095D01*
X132640339Y-101917500D01*
X132640341Y-101917501D01*
X132749998Y-101934869D01*
X132750000Y-101934869D01*
X132750002Y-101934869D01*
X132859658Y-101917501D01*
X132859659Y-101917500D01*
X132859661Y-101917500D01*
X132958587Y-101867095D01*
X133037095Y-101788587D01*
X133087500Y-101689661D01*
X133087500Y-101689659D01*
X133087501Y-101689658D01*
X133104869Y-101580002D01*
X133104869Y-101579997D01*
X133087501Y-101470341D01*
X133055365Y-101407271D01*
X133037095Y-101371413D01*
X133037092Y-101371410D01*
X133037090Y-101371407D01*
X132958592Y-101292909D01*
X132958588Y-101292906D01*
X132958587Y-101292905D01*
X132934802Y-101280786D01*
X132859658Y-101242498D01*
X132750002Y-101225131D01*
X132749998Y-101225131D01*
X132640341Y-101242498D01*
X132541414Y-101292904D01*
X132541407Y-101292909D01*
X132462909Y-101371407D01*
X132462904Y-101371414D01*
X132412498Y-101470341D01*
X132395131Y-101579997D01*
X126050500Y-101579997D01*
X126050500Y-99939997D01*
X127745131Y-99939997D01*
X127745131Y-99940002D01*
X127762498Y-100049658D01*
X127812904Y-100148585D01*
X127812909Y-100148592D01*
X127891407Y-100227090D01*
X127891410Y-100227092D01*
X127891413Y-100227095D01*
X127955993Y-100260000D01*
X127990341Y-100277501D01*
X128099998Y-100294869D01*
X128100000Y-100294869D01*
X128100002Y-100294869D01*
X128209656Y-100277501D01*
X128209656Y-100277500D01*
X128209661Y-100277500D01*
X128278709Y-100242318D01*
X128347374Y-100229423D01*
X128391287Y-100242316D01*
X128460339Y-100277500D01*
X128460341Y-100277500D01*
X128460343Y-100277501D01*
X128569998Y-100294869D01*
X128570000Y-100294869D01*
X128570002Y-100294869D01*
X128679658Y-100277501D01*
X128679659Y-100277500D01*
X128679661Y-100277500D01*
X128778587Y-100227095D01*
X128857095Y-100148587D01*
X128907500Y-100049661D01*
X128907500Y-100049659D01*
X128907501Y-100049658D01*
X128924869Y-99940002D01*
X128924869Y-99939997D01*
X128907501Y-99830341D01*
X128885418Y-99787001D01*
X128857095Y-99731413D01*
X128857092Y-99731410D01*
X128857090Y-99731407D01*
X128778592Y-99652909D01*
X128778588Y-99652906D01*
X128778587Y-99652905D01*
X128748706Y-99637680D01*
X128679658Y-99602498D01*
X128570002Y-99585131D01*
X128569998Y-99585131D01*
X128460341Y-99602498D01*
X128391294Y-99637680D01*
X128322625Y-99650576D01*
X128278706Y-99637680D01*
X128209658Y-99602498D01*
X128100002Y-99585131D01*
X128099998Y-99585131D01*
X127990341Y-99602498D01*
X127891414Y-99652904D01*
X127891407Y-99652909D01*
X127812909Y-99731407D01*
X127812904Y-99731414D01*
X127762498Y-99830341D01*
X127745131Y-99939997D01*
X126050500Y-99939997D01*
X126050500Y-96779997D01*
X126325131Y-96779997D01*
X126325131Y-96780002D01*
X126342498Y-96889658D01*
X126392904Y-96988585D01*
X126392909Y-96988592D01*
X126471407Y-97067090D01*
X126471410Y-97067092D01*
X126471413Y-97067095D01*
X126570339Y-97117500D01*
X126570341Y-97117501D01*
X126679998Y-97134869D01*
X126680000Y-97134869D01*
X126680002Y-97134869D01*
X126789658Y-97117501D01*
X126789659Y-97117500D01*
X126789661Y-97117500D01*
X126888587Y-97067095D01*
X126967095Y-96988587D01*
X127017500Y-96889661D01*
X127017500Y-96889659D01*
X127017501Y-96889658D01*
X127034869Y-96780002D01*
X127034869Y-96779997D01*
X127017501Y-96670341D01*
X126967855Y-96572905D01*
X126967095Y-96571413D01*
X126967092Y-96571410D01*
X126967090Y-96571407D01*
X126888592Y-96492909D01*
X126888588Y-96492906D01*
X126888587Y-96492905D01*
X126813937Y-96454869D01*
X126789658Y-96442498D01*
X126680002Y-96425131D01*
X126679998Y-96425131D01*
X126570341Y-96442498D01*
X126471414Y-96492904D01*
X126471407Y-96492909D01*
X126392909Y-96571407D01*
X126392904Y-96571414D01*
X126342498Y-96670341D01*
X126325131Y-96779997D01*
X126050500Y-96779997D01*
X126050500Y-96125545D01*
X126070185Y-96058506D01*
X126122989Y-96012751D01*
X126192147Y-96002807D01*
X126255703Y-96031832D01*
X126262181Y-96037864D01*
X126331407Y-96107090D01*
X126331410Y-96107092D01*
X126331413Y-96107095D01*
X126395993Y-96140000D01*
X126430341Y-96157501D01*
X126539998Y-96174869D01*
X126540000Y-96174869D01*
X126540002Y-96174869D01*
X126649656Y-96157501D01*
X126649656Y-96157500D01*
X126649661Y-96157500D01*
X126743709Y-96109580D01*
X126812374Y-96096685D01*
X126856288Y-96109578D01*
X126950339Y-96157500D01*
X126950341Y-96157500D01*
X126950343Y-96157501D01*
X127059998Y-96174869D01*
X127060000Y-96174869D01*
X127060002Y-96174869D01*
X127169658Y-96157501D01*
X127169659Y-96157500D01*
X127169661Y-96157500D01*
X127268587Y-96107095D01*
X127347095Y-96028587D01*
X127397500Y-95929661D01*
X127397500Y-95929659D01*
X127397501Y-95929658D01*
X127414869Y-95820002D01*
X127414869Y-95819997D01*
X127397501Y-95710341D01*
X127382226Y-95680362D01*
X127347095Y-95611413D01*
X127347092Y-95611410D01*
X127347090Y-95611407D01*
X127268592Y-95532909D01*
X127268588Y-95532906D01*
X127268587Y-95532905D01*
X127217922Y-95507090D01*
X127169658Y-95482498D01*
X127060002Y-95465131D01*
X127059998Y-95465131D01*
X126950341Y-95482498D01*
X126856294Y-95530418D01*
X126787625Y-95543314D01*
X126743706Y-95530418D01*
X126649658Y-95482498D01*
X126540002Y-95465131D01*
X126539998Y-95465131D01*
X126430341Y-95482498D01*
X126331414Y-95532904D01*
X126331407Y-95532909D01*
X126262181Y-95602136D01*
X126200858Y-95635621D01*
X126131166Y-95630637D01*
X126075233Y-95588765D01*
X126050816Y-95523301D01*
X126050500Y-95514455D01*
X126050500Y-93404487D01*
X126070185Y-93337448D01*
X126122989Y-93291693D01*
X126192147Y-93281749D01*
X126247382Y-93304167D01*
X126251409Y-93307093D01*
X126350341Y-93357501D01*
X126418101Y-93368233D01*
X126481235Y-93398162D01*
X126518167Y-93457473D01*
X126521176Y-93471306D01*
X126522499Y-93479658D01*
X126522499Y-93479659D01*
X126522500Y-93479661D01*
X126572905Y-93578587D01*
X126598180Y-93603862D01*
X126631665Y-93665183D01*
X126634499Y-93691543D01*
X126634499Y-93745186D01*
X126637845Y-93753265D01*
X126657204Y-93799999D01*
X126657204Y-93800000D01*
X126668829Y-93828066D01*
X126668830Y-93828067D01*
X126732264Y-93891501D01*
X126732265Y-93891501D01*
X126749705Y-93908941D01*
X126749706Y-93908942D01*
X131829705Y-98988942D01*
X131863190Y-99050265D01*
X131858206Y-99119957D01*
X131816334Y-99175890D01*
X131750870Y-99200307D01*
X131717833Y-99198240D01*
X131623620Y-99179500D01*
X131623616Y-99179500D01*
X131436384Y-99179500D01*
X131436379Y-99179500D01*
X131252756Y-99216025D01*
X131252748Y-99216027D01*
X131079771Y-99287676D01*
X131079762Y-99287681D01*
X130924092Y-99391697D01*
X130924088Y-99391700D01*
X130791700Y-99524088D01*
X130791697Y-99524092D01*
X130687681Y-99679762D01*
X130687676Y-99679771D01*
X130616027Y-99852748D01*
X130616025Y-99852756D01*
X130579500Y-100036379D01*
X130579500Y-100223620D01*
X130616025Y-100407243D01*
X130616027Y-100407251D01*
X130687676Y-100580228D01*
X130687681Y-100580237D01*
X130791697Y-100735907D01*
X130791700Y-100735911D01*
X130924088Y-100868299D01*
X130924092Y-100868302D01*
X131079762Y-100972318D01*
X131079771Y-100972323D01*
X131118956Y-100988554D01*
X131252749Y-101043973D01*
X131436379Y-101080499D01*
X131436383Y-101080500D01*
X131436384Y-101080500D01*
X131623617Y-101080500D01*
X131623618Y-101080499D01*
X131807251Y-101043973D01*
X131980231Y-100972322D01*
X132135908Y-100868302D01*
X132268302Y-100735908D01*
X132372322Y-100580231D01*
X132443973Y-100407251D01*
X132480500Y-100223616D01*
X132480500Y-100036384D01*
X132461759Y-99942166D01*
X132467986Y-99872575D01*
X132510849Y-99817398D01*
X132576739Y-99794153D01*
X132644736Y-99810221D01*
X132671057Y-99830294D01*
X134238766Y-101398003D01*
X134272251Y-101459326D01*
X134273558Y-101466285D01*
X134274300Y-101470975D01*
X134324706Y-101569902D01*
X134324711Y-101569909D01*
X134403209Y-101648407D01*
X134403212Y-101648409D01*
X134403215Y-101648412D01*
X134484171Y-101689661D01*
X134502143Y-101698818D01*
X134611800Y-101716186D01*
X134611801Y-101716186D01*
X134611801Y-101716185D01*
X134611802Y-101716186D01*
X134617899Y-101715220D01*
X134687191Y-101724171D01*
X134740646Y-101769164D01*
X134761289Y-101835915D01*
X134761302Y-101837692D01*
X134761302Y-102088431D01*
X134741617Y-102155470D01*
X134724983Y-102176112D01*
X134462914Y-102438181D01*
X134401591Y-102471666D01*
X134375233Y-102474500D01*
X133869296Y-102474500D01*
X133869288Y-102474499D01*
X133854854Y-102474499D01*
X133765145Y-102474499D01*
X133765144Y-102474499D01*
X133682263Y-102508830D01*
X133566607Y-102624487D01*
X133474369Y-102716725D01*
X131931093Y-104260002D01*
X130422914Y-105768181D01*
X130361591Y-105801666D01*
X130335233Y-105804500D01*
X128311545Y-105804500D01*
X128244506Y-105784815D01*
X128223864Y-105768181D01*
X128198592Y-105742909D01*
X128198588Y-105742906D01*
X128198587Y-105742905D01*
X128178166Y-105732500D01*
X128099658Y-105692498D01*
X127990002Y-105675131D01*
X127989998Y-105675131D01*
X127880341Y-105692498D01*
X127781414Y-105742904D01*
X127781407Y-105742909D01*
X127702909Y-105821407D01*
X127702904Y-105821414D01*
X127652498Y-105920341D01*
X127635131Y-106029997D01*
X127635131Y-106030002D01*
X127652498Y-106139658D01*
X127702904Y-106238585D01*
X127702909Y-106238592D01*
X127781407Y-106317090D01*
X127781410Y-106317092D01*
X127781413Y-106317095D01*
X127880339Y-106367500D01*
X127880341Y-106367501D01*
X127989998Y-106384869D01*
X127990000Y-106384869D01*
X127990002Y-106384869D01*
X128099658Y-106367501D01*
X128099659Y-106367500D01*
X128099661Y-106367500D01*
X128198587Y-106317095D01*
X128198592Y-106317090D01*
X128223864Y-106291819D01*
X128285187Y-106258334D01*
X128311545Y-106255500D01*
X130230500Y-106255500D01*
X130297539Y-106275185D01*
X130343294Y-106327989D01*
X130354500Y-106379500D01*
X130354500Y-106595503D01*
X130334815Y-106662542D01*
X130282011Y-106708297D01*
X130212853Y-106718241D01*
X130211102Y-106717976D01*
X130130002Y-106705131D01*
X130129998Y-106705131D01*
X130020341Y-106722498D01*
X129921414Y-106772904D01*
X129921407Y-106772909D01*
X129842909Y-106851407D01*
X129842904Y-106851414D01*
X129792498Y-106950341D01*
X129775131Y-107059997D01*
X129775131Y-107060002D01*
X129792498Y-107169658D01*
X129842903Y-107268584D01*
X129843899Y-107269954D01*
X129844593Y-107271900D01*
X129847336Y-107277283D01*
X129846640Y-107277637D01*
X129867379Y-107335761D01*
X129854066Y-107399134D01*
X129802498Y-107500341D01*
X129785131Y-107609997D01*
X129785131Y-107610002D01*
X129802498Y-107719658D01*
X129841060Y-107795340D01*
X129852905Y-107818587D01*
X129910191Y-107875873D01*
X129943675Y-107937194D01*
X129938691Y-108006886D01*
X129910190Y-108051234D01*
X129583075Y-108378350D01*
X129521752Y-108411835D01*
X129452061Y-108406851D01*
X129437649Y-108399115D01*
X129437283Y-108399834D01*
X129329658Y-108344996D01*
X129220002Y-108327629D01*
X129219998Y-108327629D01*
X129110341Y-108344996D01*
X129011414Y-108395402D01*
X129011407Y-108395407D01*
X128932909Y-108473905D01*
X128932904Y-108473912D01*
X128882498Y-108572839D01*
X128865131Y-108682495D01*
X128865131Y-108682500D01*
X128882498Y-108792156D01*
X128932904Y-108891083D01*
X128932909Y-108891090D01*
X129011407Y-108969588D01*
X129011410Y-108969590D01*
X129011413Y-108969593D01*
X129106416Y-109017999D01*
X129110341Y-109019999D01*
X129219998Y-109037367D01*
X129220000Y-109037367D01*
X129220002Y-109037367D01*
X129329658Y-109019999D01*
X129329659Y-109019998D01*
X129329661Y-109019998D01*
X129428587Y-108969593D01*
X129428592Y-108969588D01*
X129453863Y-108944318D01*
X129515186Y-108910833D01*
X129541544Y-108907999D01*
X129642687Y-108907999D01*
X129642688Y-108907999D01*
X129713575Y-108878636D01*
X129725569Y-108873668D01*
X129789003Y-108810234D01*
X129789003Y-108810233D01*
X129806441Y-108792795D01*
X129806443Y-108792792D01*
X130457718Y-108141516D01*
X130519039Y-108108033D01*
X130588731Y-108113017D01*
X130644664Y-108154889D01*
X130669081Y-108220353D01*
X130665172Y-108261291D01*
X130644500Y-108338441D01*
X130644500Y-108496556D01*
X130685423Y-108649283D01*
X130685426Y-108649290D01*
X130764475Y-108786209D01*
X130764479Y-108786214D01*
X130764480Y-108786216D01*
X130876284Y-108898020D01*
X130876286Y-108898021D01*
X130876290Y-108898024D01*
X131000253Y-108969593D01*
X131013216Y-108977077D01*
X131165943Y-109018000D01*
X131165945Y-109018000D01*
X131324055Y-109018000D01*
X131324057Y-109018000D01*
X131476784Y-108977077D01*
X131613716Y-108898020D01*
X131725520Y-108786216D01*
X131804577Y-108649284D01*
X131845500Y-108496557D01*
X131845500Y-108338443D01*
X131804577Y-108185716D01*
X131759727Y-108108033D01*
X131725524Y-108048790D01*
X131725518Y-108048782D01*
X131613717Y-107936981D01*
X131613709Y-107936975D01*
X131476790Y-107857926D01*
X131476786Y-107857924D01*
X131476784Y-107857923D01*
X131324057Y-107817000D01*
X131165943Y-107817000D01*
X131013216Y-107857923D01*
X131013211Y-107857925D01*
X130990223Y-107871197D01*
X130922322Y-107887668D01*
X130856296Y-107864815D01*
X130813106Y-107809893D01*
X130808095Y-107757399D01*
X130805501Y-107757399D01*
X130805501Y-107645487D01*
X130805500Y-107645473D01*
X130805500Y-107459997D01*
X132715131Y-107459997D01*
X132715131Y-107460002D01*
X132732498Y-107569658D01*
X132782904Y-107668585D01*
X132782909Y-107668592D01*
X132861407Y-107747090D01*
X132861410Y-107747092D01*
X132861413Y-107747095D01*
X132952173Y-107793339D01*
X132960341Y-107797501D01*
X133069998Y-107814869D01*
X133070000Y-107814869D01*
X133070002Y-107814869D01*
X133179656Y-107797501D01*
X133179656Y-107797500D01*
X133179661Y-107797500D01*
X133263710Y-107754675D01*
X133332374Y-107741780D01*
X133376287Y-107754673D01*
X133460339Y-107797500D01*
X133460341Y-107797500D01*
X133460343Y-107797501D01*
X133569998Y-107814869D01*
X133570000Y-107814869D01*
X133570002Y-107814869D01*
X133629491Y-107805446D01*
X133679661Y-107797500D01*
X133679669Y-107797495D01*
X133686305Y-107795340D01*
X133756147Y-107793339D01*
X133815982Y-107829415D01*
X133846815Y-107892114D01*
X133838856Y-107961528D01*
X133812315Y-108000948D01*
X133764481Y-108048782D01*
X133764475Y-108048790D01*
X133685426Y-108185709D01*
X133685423Y-108185716D01*
X133644500Y-108338443D01*
X133644500Y-108496556D01*
X133685423Y-108649283D01*
X133685426Y-108649290D01*
X133764475Y-108786209D01*
X133764479Y-108786214D01*
X133764480Y-108786216D01*
X133876284Y-108898020D01*
X133876286Y-108898021D01*
X133876290Y-108898024D01*
X134000253Y-108969593D01*
X134013216Y-108977077D01*
X134165943Y-109018000D01*
X134165945Y-109018000D01*
X134324055Y-109018000D01*
X134324057Y-109018000D01*
X134476784Y-108977077D01*
X134613716Y-108898020D01*
X134725520Y-108786216D01*
X134804577Y-108649284D01*
X134845500Y-108496557D01*
X134845500Y-108338443D01*
X134804577Y-108185716D01*
X134759727Y-108108033D01*
X134725524Y-108048790D01*
X134725518Y-108048782D01*
X134613717Y-107936981D01*
X134613709Y-107936975D01*
X134476790Y-107857926D01*
X134476786Y-107857924D01*
X134476784Y-107857923D01*
X134324057Y-107817000D01*
X134165943Y-107817000D01*
X134013216Y-107857923D01*
X134013211Y-107857925D01*
X134011535Y-107858893D01*
X134009942Y-107859279D01*
X134005706Y-107861034D01*
X134005432Y-107860373D01*
X133943634Y-107875360D01*
X133877608Y-107852503D01*
X133834422Y-107797578D01*
X133827786Y-107728025D01*
X133853541Y-107678073D01*
X133851356Y-107676486D01*
X133857089Y-107668592D01*
X133857095Y-107668587D01*
X133907500Y-107569661D01*
X133907500Y-107569659D01*
X133907501Y-107569658D01*
X133924869Y-107460002D01*
X133924869Y-107459997D01*
X133907501Y-107350341D01*
X133900072Y-107335761D01*
X133857095Y-107251413D01*
X133857092Y-107251410D01*
X133857090Y-107251407D01*
X133778592Y-107172909D01*
X133778588Y-107172906D01*
X133778587Y-107172905D01*
X133772214Y-107169658D01*
X133679658Y-107122498D01*
X133570002Y-107105131D01*
X133569998Y-107105131D01*
X133460341Y-107122498D01*
X133376294Y-107165323D01*
X133307625Y-107178219D01*
X133263706Y-107165323D01*
X133179658Y-107122498D01*
X133070002Y-107105131D01*
X133069998Y-107105131D01*
X132960341Y-107122498D01*
X132861414Y-107172904D01*
X132861407Y-107172909D01*
X132782909Y-107251407D01*
X132782904Y-107251414D01*
X132732498Y-107350341D01*
X132715131Y-107459997D01*
X130805500Y-107459997D01*
X130805500Y-106428321D01*
X130825185Y-106361282D01*
X130841819Y-106340640D01*
X131952462Y-105229997D01*
X135575131Y-105229997D01*
X135575131Y-105230002D01*
X135592498Y-105339658D01*
X135642904Y-105438585D01*
X135642909Y-105438592D01*
X135724264Y-105519947D01*
X135757749Y-105581270D01*
X135752765Y-105650962D01*
X135736907Y-105680506D01*
X135733293Y-105685480D01*
X135682886Y-105784409D01*
X135665519Y-105894065D01*
X135665519Y-105894070D01*
X135682886Y-106003726D01*
X135733292Y-106102653D01*
X135733297Y-106102660D01*
X135811795Y-106181158D01*
X135811798Y-106181160D01*
X135811801Y-106181163D01*
X135861120Y-106206292D01*
X135910729Y-106231569D01*
X136020386Y-106248937D01*
X136020388Y-106248937D01*
X136020390Y-106248937D01*
X136130044Y-106231569D01*
X136130044Y-106231568D01*
X136130049Y-106231568D01*
X136224564Y-106183410D01*
X136293229Y-106170515D01*
X136337143Y-106183409D01*
X136410614Y-106220844D01*
X136410616Y-106220844D01*
X136410618Y-106220845D01*
X136465444Y-106229528D01*
X136520275Y-106238213D01*
X136526566Y-106237216D01*
X136595857Y-106246166D01*
X136649312Y-106291159D01*
X136669956Y-106357909D01*
X136668443Y-106379081D01*
X136665131Y-106399996D01*
X136665131Y-106400002D01*
X136682498Y-106509658D01*
X136732904Y-106608585D01*
X136732909Y-106608592D01*
X136811407Y-106687090D01*
X136811410Y-106687092D01*
X136811413Y-106687095D01*
X136853025Y-106708297D01*
X136910341Y-106737501D01*
X137019998Y-106754869D01*
X137020000Y-106754869D01*
X137020002Y-106754869D01*
X137129658Y-106737501D01*
X137129659Y-106737500D01*
X137129661Y-106737500D01*
X137228587Y-106687095D01*
X137307095Y-106608587D01*
X137357500Y-106509661D01*
X137357500Y-106509659D01*
X137357501Y-106509658D01*
X137374869Y-106400002D01*
X137374869Y-106399997D01*
X137357501Y-106290341D01*
X137314676Y-106206292D01*
X137301780Y-106137623D01*
X137314674Y-106093708D01*
X137357500Y-106009658D01*
X137374869Y-105899997D01*
X137374869Y-105899994D01*
X137357501Y-105790338D01*
X137354479Y-105784407D01*
X137307095Y-105691410D01*
X137307092Y-105691407D01*
X137307090Y-105691404D01*
X137228592Y-105612906D01*
X137228588Y-105612903D01*
X137228587Y-105612902D01*
X137210301Y-105603585D01*
X137129658Y-105562495D01*
X137020002Y-105545128D01*
X137019998Y-105545128D01*
X136910341Y-105562495D01*
X136842773Y-105596923D01*
X136774103Y-105609819D01*
X136730185Y-105596923D01*
X136629933Y-105545842D01*
X136520277Y-105528475D01*
X136520273Y-105528475D01*
X136410615Y-105545843D01*
X136401338Y-105548858D01*
X136400471Y-105546192D01*
X136346773Y-105556269D01*
X136282037Y-105529984D01*
X136241788Y-105472872D01*
X136238805Y-105403066D01*
X136241815Y-105394997D01*
X144560131Y-105394997D01*
X144560131Y-105395002D01*
X144577498Y-105504658D01*
X144627904Y-105603585D01*
X144627909Y-105603592D01*
X144706407Y-105682090D01*
X144706410Y-105682092D01*
X144706413Y-105682095D01*
X144805339Y-105732500D01*
X144805341Y-105732501D01*
X144914998Y-105749869D01*
X144915000Y-105749869D01*
X144915002Y-105749869D01*
X145024658Y-105732501D01*
X145024659Y-105732500D01*
X145024661Y-105732500D01*
X145123587Y-105682095D01*
X145202095Y-105603587D01*
X145252500Y-105504661D01*
X145259895Y-105457968D01*
X145289823Y-105394837D01*
X145349134Y-105357905D01*
X145362955Y-105354897D01*
X145409661Y-105347500D01*
X145508587Y-105297095D01*
X145587095Y-105218587D01*
X145637500Y-105119661D01*
X145637500Y-105119659D01*
X145637501Y-105119658D01*
X145654869Y-105010002D01*
X145654869Y-105009997D01*
X145637501Y-104900341D01*
X145626964Y-104879661D01*
X145587095Y-104801413D01*
X145587092Y-104801410D01*
X145587090Y-104801407D01*
X145508592Y-104722909D01*
X145508588Y-104722906D01*
X145508587Y-104722905D01*
X145504743Y-104720946D01*
X145409658Y-104672498D01*
X145300002Y-104655131D01*
X145299998Y-104655131D01*
X145190341Y-104672498D01*
X145091414Y-104722904D01*
X145091407Y-104722909D01*
X145012909Y-104801407D01*
X145012904Y-104801414D01*
X144962499Y-104900341D01*
X144955104Y-104947030D01*
X144925174Y-105010164D01*
X144865863Y-105047095D01*
X144852030Y-105050104D01*
X144805341Y-105057499D01*
X144706414Y-105107904D01*
X144706407Y-105107909D01*
X144627909Y-105186407D01*
X144627904Y-105186414D01*
X144577498Y-105285341D01*
X144560131Y-105394997D01*
X136241815Y-105394997D01*
X136248678Y-105376599D01*
X136267500Y-105339661D01*
X136284869Y-105230000D01*
X136284869Y-105229997D01*
X136267501Y-105120341D01*
X136235482Y-105057500D01*
X136217095Y-105021413D01*
X136217092Y-105021410D01*
X136217090Y-105021407D01*
X136138592Y-104942909D01*
X136138588Y-104942906D01*
X136138587Y-104942905D01*
X136092962Y-104919658D01*
X136039658Y-104892498D01*
X135930002Y-104875131D01*
X135929998Y-104875131D01*
X135820341Y-104892498D01*
X135721414Y-104942904D01*
X135721407Y-104942909D01*
X135642909Y-105021407D01*
X135642904Y-105021414D01*
X135592498Y-105120341D01*
X135575131Y-105229997D01*
X131952462Y-105229997D01*
X132417504Y-104764955D01*
X141585382Y-104764955D01*
X141585382Y-104764960D01*
X141602749Y-104874616D01*
X141653155Y-104973543D01*
X141653160Y-104973550D01*
X141731658Y-105052048D01*
X141731661Y-105052050D01*
X141731664Y-105052053D01*
X141830590Y-105102458D01*
X141830592Y-105102459D01*
X141940249Y-105119827D01*
X141940251Y-105119827D01*
X141940253Y-105119827D01*
X142049909Y-105102459D01*
X142049910Y-105102458D01*
X142049912Y-105102458D01*
X142148838Y-105052053D01*
X142227346Y-104973545D01*
X142277751Y-104874619D01*
X142277751Y-104874617D01*
X142277752Y-104874616D01*
X142287987Y-104809997D01*
X142545131Y-104809997D01*
X142545131Y-104810002D01*
X142562498Y-104919658D01*
X142612904Y-105018585D01*
X142612909Y-105018592D01*
X142691407Y-105097090D01*
X142691410Y-105097092D01*
X142691413Y-105097095D01*
X142745923Y-105124869D01*
X142790341Y-105147501D01*
X142899998Y-105164869D01*
X142900000Y-105164869D01*
X142900002Y-105164869D01*
X143009658Y-105147501D01*
X143009659Y-105147500D01*
X143009661Y-105147500D01*
X143108587Y-105097095D01*
X143187095Y-105018587D01*
X143237500Y-104919661D01*
X143237500Y-104919659D01*
X143237501Y-104919658D01*
X143254869Y-104810002D01*
X143254869Y-104809997D01*
X143237501Y-104700341D01*
X143214550Y-104655297D01*
X143187095Y-104601413D01*
X143187092Y-104601410D01*
X143187090Y-104601407D01*
X143108592Y-104522909D01*
X143108588Y-104522906D01*
X143108587Y-104522905D01*
X143104743Y-104520946D01*
X143009658Y-104472498D01*
X142900002Y-104455131D01*
X142899998Y-104455131D01*
X142790341Y-104472498D01*
X142691414Y-104522904D01*
X142691407Y-104522909D01*
X142612909Y-104601407D01*
X142612904Y-104601414D01*
X142562498Y-104700341D01*
X142545131Y-104809997D01*
X142287987Y-104809997D01*
X142295120Y-104764960D01*
X142295120Y-104764955D01*
X142277752Y-104655299D01*
X142234950Y-104571295D01*
X142227346Y-104556371D01*
X142227343Y-104556368D01*
X142227341Y-104556365D01*
X142148843Y-104477867D01*
X142148839Y-104477864D01*
X142148838Y-104477863D01*
X142144994Y-104475904D01*
X142049909Y-104427456D01*
X141940253Y-104410089D01*
X141940249Y-104410089D01*
X141830592Y-104427456D01*
X141731665Y-104477862D01*
X141731658Y-104477867D01*
X141653160Y-104556365D01*
X141653155Y-104556372D01*
X141602749Y-104655299D01*
X141585382Y-104764955D01*
X132417504Y-104764955D01*
X132922462Y-104259997D01*
X143565131Y-104259997D01*
X143565131Y-104260002D01*
X143582498Y-104369658D01*
X143627870Y-104458706D01*
X143640766Y-104527375D01*
X143627870Y-104571294D01*
X143582498Y-104660341D01*
X143565131Y-104769997D01*
X143565131Y-104770002D01*
X143582498Y-104879658D01*
X143632904Y-104978585D01*
X143632909Y-104978592D01*
X143711407Y-105057090D01*
X143711410Y-105057092D01*
X143711413Y-105057095D01*
X143810339Y-105107500D01*
X143810341Y-105107501D01*
X143919998Y-105124869D01*
X143920000Y-105124869D01*
X143920002Y-105124869D01*
X144029658Y-105107501D01*
X144029659Y-105107500D01*
X144029661Y-105107500D01*
X144128587Y-105057095D01*
X144207095Y-104978587D01*
X144257500Y-104879661D01*
X144257500Y-104879659D01*
X144257501Y-104879658D01*
X144274869Y-104770002D01*
X144274869Y-104769997D01*
X144257501Y-104660343D01*
X144257500Y-104660341D01*
X144257500Y-104660339D01*
X144212128Y-104571291D01*
X144199233Y-104502626D01*
X144212127Y-104458710D01*
X144257500Y-104369661D01*
X144274869Y-104260000D01*
X144269744Y-104227641D01*
X144257501Y-104150341D01*
X144257500Y-104150339D01*
X144207095Y-104051413D01*
X144207092Y-104051410D01*
X144207090Y-104051407D01*
X144128592Y-103972909D01*
X144128588Y-103972906D01*
X144128587Y-103972905D01*
X144103564Y-103960155D01*
X144029658Y-103922498D01*
X143920002Y-103905131D01*
X143919998Y-103905131D01*
X143810341Y-103922498D01*
X143711414Y-103972904D01*
X143711407Y-103972909D01*
X143632909Y-104051407D01*
X143632904Y-104051414D01*
X143582498Y-104150341D01*
X143565131Y-104259997D01*
X132922462Y-104259997D01*
X133970641Y-103211819D01*
X134031964Y-103178334D01*
X134058322Y-103175500D01*
X134900593Y-103175500D01*
X134967632Y-103195185D01*
X135013387Y-103247989D01*
X135023066Y-103280102D01*
X135032498Y-103339658D01*
X135082904Y-103438585D01*
X135082909Y-103438592D01*
X135161407Y-103517090D01*
X135161410Y-103517092D01*
X135161413Y-103517095D01*
X135253493Y-103564012D01*
X135260341Y-103567501D01*
X135369998Y-103584869D01*
X135371348Y-103584869D01*
X135372928Y-103585333D01*
X135379639Y-103586396D01*
X135379501Y-103587263D01*
X135438387Y-103604554D01*
X135484142Y-103657358D01*
X135491746Y-103710241D01*
X135495131Y-103710241D01*
X135495131Y-103720002D01*
X135512498Y-103829658D01*
X135562904Y-103928585D01*
X135562909Y-103928592D01*
X135641407Y-104007090D01*
X135641410Y-104007092D01*
X135641413Y-104007095D01*
X135735175Y-104054869D01*
X135740341Y-104057501D01*
X135849998Y-104074869D01*
X135850000Y-104074869D01*
X135850002Y-104074869D01*
X135959658Y-104057501D01*
X135959659Y-104057500D01*
X135959661Y-104057500D01*
X136058587Y-104007095D01*
X136137095Y-103928587D01*
X136187500Y-103829661D01*
X136187500Y-103829659D01*
X136187501Y-103829658D01*
X136204869Y-103720002D01*
X136204869Y-103719997D01*
X136187501Y-103610341D01*
X136179805Y-103595237D01*
X136137095Y-103511413D01*
X136137092Y-103511410D01*
X136137090Y-103511407D01*
X136058592Y-103432909D01*
X136058588Y-103432906D01*
X136058587Y-103432905D01*
X136013276Y-103409818D01*
X135959658Y-103382498D01*
X135850002Y-103365131D01*
X135848652Y-103365131D01*
X135847071Y-103364666D01*
X135840361Y-103363604D01*
X135840498Y-103362736D01*
X135781613Y-103345446D01*
X135735858Y-103292642D01*
X135728254Y-103239759D01*
X135724869Y-103239759D01*
X135724869Y-103229997D01*
X135707501Y-103120341D01*
X135681001Y-103068332D01*
X135657095Y-103021413D01*
X135657092Y-103021410D01*
X135657090Y-103021407D01*
X135578592Y-102942909D01*
X135578588Y-102942906D01*
X135578587Y-102942905D01*
X135574743Y-102940946D01*
X135479658Y-102892498D01*
X135367061Y-102874665D01*
X135303926Y-102844736D01*
X135298778Y-102839873D01*
X135298610Y-102839705D01*
X135281170Y-102822264D01*
X135217736Y-102758830D01*
X135217735Y-102758829D01*
X135193457Y-102748772D01*
X135193457Y-102748771D01*
X135134858Y-102724500D01*
X135134856Y-102724499D01*
X135134855Y-102724499D01*
X135113767Y-102724499D01*
X135046728Y-102704814D01*
X135000973Y-102652010D01*
X134991029Y-102582852D01*
X135020054Y-102519296D01*
X135026067Y-102512836D01*
X135097098Y-102441805D01*
X135097101Y-102441804D01*
X135114537Y-102424368D01*
X135114538Y-102424368D01*
X135177972Y-102360934D01*
X135192192Y-102326603D01*
X135212303Y-102278052D01*
X135212303Y-102188343D01*
X135212303Y-102178354D01*
X135212302Y-102178340D01*
X135212302Y-101161132D01*
X135212300Y-101161127D01*
X135177974Y-101078252D01*
X134940699Y-100840977D01*
X134907214Y-100779654D01*
X134905909Y-100772709D01*
X134902916Y-100753810D01*
X134852511Y-100654884D01*
X134776871Y-100579244D01*
X134743388Y-100517924D01*
X134748372Y-100448232D01*
X134754062Y-100435287D01*
X134787500Y-100369661D01*
X134788868Y-100361029D01*
X134804869Y-100260002D01*
X134804869Y-100259997D01*
X134787501Y-100150343D01*
X134787500Y-100150341D01*
X134787500Y-100150339D01*
X134749096Y-100074967D01*
X134736201Y-100006300D01*
X134762478Y-99941560D01*
X134771885Y-99931010D01*
X134827094Y-99875802D01*
X134877499Y-99776876D01*
X134877499Y-99776874D01*
X134877500Y-99776873D01*
X134894868Y-99667217D01*
X134894868Y-99667212D01*
X134877500Y-99557556D01*
X134860447Y-99524088D01*
X134844869Y-99493515D01*
X134831974Y-99424847D01*
X134848276Y-99382124D01*
X134845156Y-99380535D01*
X134849587Y-99371839D01*
X134899992Y-99272913D01*
X134899992Y-99272911D01*
X134899993Y-99272910D01*
X134917361Y-99163254D01*
X134917361Y-99163249D01*
X134899993Y-99053595D01*
X134899992Y-99053593D01*
X134899992Y-99053591D01*
X134863225Y-98981431D01*
X134850330Y-98912767D01*
X134863225Y-98868848D01*
X134865531Y-98864322D01*
X134913504Y-98813525D01*
X134981325Y-98796729D01*
X135047460Y-98819265D01*
X135063698Y-98832934D01*
X136728181Y-100497417D01*
X136761666Y-100558740D01*
X136764500Y-100585098D01*
X136764500Y-103358455D01*
X136744815Y-103425494D01*
X136728181Y-103446136D01*
X136702909Y-103471407D01*
X136702904Y-103471414D01*
X136652498Y-103570341D01*
X136635131Y-103679997D01*
X136635131Y-103680002D01*
X136652498Y-103789658D01*
X136702904Y-103888585D01*
X136702909Y-103888592D01*
X136781407Y-103967090D01*
X136781410Y-103967092D01*
X136781413Y-103967095D01*
X136859908Y-104007090D01*
X136880341Y-104017501D01*
X136989998Y-104034869D01*
X136990000Y-104034869D01*
X136990002Y-104034869D01*
X137099656Y-104017501D01*
X137099656Y-104017500D01*
X137099661Y-104017500D01*
X137186898Y-103973050D01*
X137255566Y-103960155D01*
X137316073Y-103983216D01*
X137321409Y-103987093D01*
X137420341Y-104037501D01*
X137529998Y-104054869D01*
X137530000Y-104054869D01*
X137530002Y-104054869D01*
X137639658Y-104037501D01*
X137639659Y-104037500D01*
X137639661Y-104037500D01*
X137738587Y-103987095D01*
X137738590Y-103987091D01*
X137742116Y-103984531D01*
X137747129Y-103982742D01*
X137747283Y-103982664D01*
X137747293Y-103982683D01*
X137807923Y-103961052D01*
X137875977Y-103976879D01*
X137887884Y-103984531D01*
X137891411Y-103987093D01*
X137891413Y-103987095D01*
X137950282Y-104017090D01*
X137990341Y-104037501D01*
X138099998Y-104054869D01*
X138100000Y-104054869D01*
X138100002Y-104054869D01*
X138209658Y-104037501D01*
X138209659Y-104037500D01*
X138209661Y-104037500D01*
X138308587Y-103987095D01*
X138387095Y-103908587D01*
X138407064Y-103869394D01*
X138455035Y-103818601D01*
X138522855Y-103801805D01*
X138588991Y-103824341D01*
X138628030Y-103869394D01*
X138642905Y-103898587D01*
X138642907Y-103898589D01*
X138642909Y-103898592D01*
X138721407Y-103977090D01*
X138721410Y-103977092D01*
X138721413Y-103977095D01*
X138780282Y-104007090D01*
X138820341Y-104027501D01*
X138929998Y-104044869D01*
X138930000Y-104044869D01*
X138930002Y-104044869D01*
X139039658Y-104027501D01*
X139039659Y-104027500D01*
X139039661Y-104027500D01*
X139138587Y-103977095D01*
X139217095Y-103898587D01*
X139221400Y-103890138D01*
X140586215Y-103890138D01*
X140586215Y-103890143D01*
X140603582Y-103999799D01*
X140653988Y-104098726D01*
X140653993Y-104098733D01*
X140732491Y-104177231D01*
X140732494Y-104177233D01*
X140732497Y-104177236D01*
X140831423Y-104227641D01*
X140831425Y-104227642D01*
X140941082Y-104245010D01*
X140941084Y-104245010D01*
X140941086Y-104245010D01*
X141050742Y-104227642D01*
X141050743Y-104227641D01*
X141050745Y-104227641D01*
X141149671Y-104177236D01*
X141228179Y-104098728D01*
X141278584Y-103999802D01*
X141278584Y-103999800D01*
X141278585Y-103999799D01*
X141295953Y-103890143D01*
X141295953Y-103890138D01*
X141278585Y-103780484D01*
X141278584Y-103780482D01*
X141278584Y-103780480D01*
X141257556Y-103739210D01*
X141244661Y-103670545D01*
X141270937Y-103605804D01*
X141280362Y-103595237D01*
X141311581Y-103564018D01*
X141311585Y-103564014D01*
X141345527Y-103497399D01*
X147089500Y-103497399D01*
X147089500Y-103622601D01*
X147121905Y-103743536D01*
X147184505Y-103851964D01*
X147273036Y-103940495D01*
X147381464Y-104003095D01*
X147502399Y-104035500D01*
X147502401Y-104035500D01*
X147627599Y-104035500D01*
X147627601Y-104035500D01*
X147748536Y-104003095D01*
X147856964Y-103940495D01*
X147945495Y-103851964D01*
X148008095Y-103743536D01*
X148040500Y-103622601D01*
X148040500Y-103497399D01*
X148008095Y-103376464D01*
X147945495Y-103268036D01*
X147856964Y-103179505D01*
X147748536Y-103116905D01*
X147748537Y-103116905D01*
X147685454Y-103100002D01*
X147685435Y-103099997D01*
X148405131Y-103099997D01*
X148405131Y-103100002D01*
X148422498Y-103209658D01*
X148472904Y-103308585D01*
X148472909Y-103308592D01*
X148551407Y-103387090D01*
X148551410Y-103387092D01*
X148551413Y-103387095D01*
X148616229Y-103420120D01*
X148650341Y-103437501D01*
X148759998Y-103454869D01*
X148760000Y-103454869D01*
X148760002Y-103454869D01*
X148869658Y-103437501D01*
X148869659Y-103437500D01*
X148869661Y-103437500D01*
X148968587Y-103387095D01*
X149047095Y-103308587D01*
X149097500Y-103209661D01*
X149097500Y-103209659D01*
X149097501Y-103209658D01*
X149114869Y-103100002D01*
X149114869Y-103099997D01*
X149097501Y-102990341D01*
X149073331Y-102942904D01*
X149047095Y-102891413D01*
X149047092Y-102891410D01*
X149047090Y-102891407D01*
X148968592Y-102812909D01*
X148968588Y-102812906D01*
X148968587Y-102812905D01*
X148964743Y-102810946D01*
X148869658Y-102762498D01*
X148760002Y-102745131D01*
X148759998Y-102745131D01*
X148650341Y-102762498D01*
X148551414Y-102812904D01*
X148551407Y-102812909D01*
X148472909Y-102891407D01*
X148472904Y-102891414D01*
X148422498Y-102990341D01*
X148405131Y-103099997D01*
X147685435Y-103099997D01*
X147627601Y-103084500D01*
X147502399Y-103084500D01*
X147444546Y-103100002D01*
X147381463Y-103116905D01*
X147273037Y-103179504D01*
X147273034Y-103179506D01*
X147184506Y-103268034D01*
X147184504Y-103268037D01*
X147121905Y-103376463D01*
X147117608Y-103392500D01*
X147089500Y-103497399D01*
X141345527Y-103497399D01*
X141361990Y-103465088D01*
X141361990Y-103465086D01*
X141361991Y-103465085D01*
X141379359Y-103355429D01*
X141379359Y-103355424D01*
X141361991Y-103245768D01*
X141343592Y-103209658D01*
X141311585Y-103146840D01*
X141311582Y-103146837D01*
X141311580Y-103146834D01*
X141233082Y-103068336D01*
X141233078Y-103068333D01*
X141233077Y-103068332D01*
X141229233Y-103066373D01*
X141134148Y-103017925D01*
X141024492Y-103000558D01*
X141024488Y-103000558D01*
X140914831Y-103017925D01*
X140815904Y-103068331D01*
X140815897Y-103068336D01*
X140737399Y-103146834D01*
X140737394Y-103146841D01*
X140686988Y-103245768D01*
X140669621Y-103355424D01*
X140669621Y-103355429D01*
X140686988Y-103465085D01*
X140708016Y-103506354D01*
X140720912Y-103575023D01*
X140694635Y-103639763D01*
X140685213Y-103650328D01*
X140653993Y-103681548D01*
X140653988Y-103681555D01*
X140603582Y-103780482D01*
X140586215Y-103890138D01*
X139221400Y-103890138D01*
X139267500Y-103799661D01*
X139267500Y-103799659D01*
X139267501Y-103799658D01*
X139284869Y-103690002D01*
X139284869Y-103689997D01*
X139267501Y-103580341D01*
X139259181Y-103564012D01*
X139217095Y-103481413D01*
X139217092Y-103481410D01*
X139217090Y-103481407D01*
X139138592Y-103402909D01*
X139138588Y-103402906D01*
X139138587Y-103402905D01*
X139098536Y-103382498D01*
X139039658Y-103352498D01*
X138930002Y-103335131D01*
X138929998Y-103335131D01*
X138820341Y-103352498D01*
X138721414Y-103402904D01*
X138721407Y-103402909D01*
X138642909Y-103481407D01*
X138642904Y-103481414D01*
X138622936Y-103520604D01*
X138574962Y-103571399D01*
X138507141Y-103588194D01*
X138441006Y-103565656D01*
X138401967Y-103520602D01*
X138400180Y-103517095D01*
X138387095Y-103491413D01*
X138387090Y-103491407D01*
X138309974Y-103414291D01*
X138276489Y-103352968D01*
X138281473Y-103283276D01*
X138309972Y-103238931D01*
X139855294Y-101693610D01*
X139855297Y-101693608D01*
X139872735Y-101676170D01*
X139872736Y-101676170D01*
X139936170Y-101612736D01*
X139952109Y-101574256D01*
X139970501Y-101529855D01*
X139970501Y-101440145D01*
X139970501Y-101430156D01*
X139970500Y-101430142D01*
X139970500Y-101399997D01*
X146885131Y-101399997D01*
X146885131Y-101400002D01*
X146902498Y-101509658D01*
X146952904Y-101608585D01*
X146952909Y-101608592D01*
X147031407Y-101687090D01*
X147031410Y-101687092D01*
X147031413Y-101687095D01*
X147086612Y-101715220D01*
X147130341Y-101737501D01*
X147239998Y-101754869D01*
X147240000Y-101754869D01*
X147240002Y-101754869D01*
X147349658Y-101737501D01*
X147349659Y-101737500D01*
X147349661Y-101737500D01*
X147448587Y-101687095D01*
X147527095Y-101608587D01*
X147577500Y-101509661D01*
X147577500Y-101509659D01*
X147577501Y-101509658D01*
X147594869Y-101400002D01*
X147594869Y-101399997D01*
X147577501Y-101290341D01*
X147577500Y-101290339D01*
X147527095Y-101191413D01*
X147527092Y-101191410D01*
X147527090Y-101191407D01*
X147448592Y-101112909D01*
X147448588Y-101112906D01*
X147448587Y-101112905D01*
X147426021Y-101101407D01*
X147349658Y-101062498D01*
X147240002Y-101045131D01*
X147239998Y-101045131D01*
X147130341Y-101062498D01*
X147031414Y-101112904D01*
X147031407Y-101112909D01*
X146952909Y-101191407D01*
X146952904Y-101191414D01*
X146902498Y-101290341D01*
X146885131Y-101399997D01*
X139970500Y-101399997D01*
X139970500Y-97749766D01*
X139990185Y-97682727D01*
X140006815Y-97662089D01*
X140510294Y-97158609D01*
X140510297Y-97158608D01*
X140527735Y-97141170D01*
X140527736Y-97141170D01*
X140577819Y-97091087D01*
X140639142Y-97057602D01*
X140708834Y-97062586D01*
X140764767Y-97104458D01*
X140789184Y-97169922D01*
X140789500Y-97178768D01*
X140789500Y-97269829D01*
X140805918Y-97309466D01*
X140827636Y-97361897D01*
X141831319Y-98365580D01*
X142827347Y-99361607D01*
X142860832Y-99422930D01*
X142855848Y-99492622D01*
X142827348Y-99536969D01*
X142762906Y-99601410D01*
X142762904Y-99601414D01*
X142712498Y-99700341D01*
X142695131Y-99809997D01*
X142695131Y-99810002D01*
X142712498Y-99919658D01*
X142762904Y-100018585D01*
X142762909Y-100018592D01*
X142807283Y-100062966D01*
X142840768Y-100124289D01*
X142835784Y-100193981D01*
X142830088Y-100206940D01*
X142782498Y-100300342D01*
X142765131Y-100409997D01*
X142765131Y-100410002D01*
X142782498Y-100519658D01*
X142832904Y-100618585D01*
X142832909Y-100618592D01*
X142911407Y-100697090D01*
X142911410Y-100697092D01*
X142911413Y-100697095D01*
X142987594Y-100735911D01*
X143010341Y-100747501D01*
X143119998Y-100764869D01*
X143120000Y-100764869D01*
X143120002Y-100764869D01*
X143229658Y-100747501D01*
X143229659Y-100747500D01*
X143229661Y-100747500D01*
X143328587Y-100697095D01*
X143407095Y-100618587D01*
X143457500Y-100519661D01*
X143457500Y-100519659D01*
X143457501Y-100519658D01*
X143474869Y-100410002D01*
X143474869Y-100409998D01*
X143459129Y-100310622D01*
X143468083Y-100241329D01*
X143513079Y-100187877D01*
X143579831Y-100167237D01*
X143647145Y-100185962D01*
X143669283Y-100203543D01*
X144130565Y-100664825D01*
X144130568Y-100664829D01*
X144137636Y-100671897D01*
X144208103Y-100742364D01*
X144300172Y-100780500D01*
X144399828Y-100780500D01*
X149659877Y-100780500D01*
X149726916Y-100800185D01*
X149747558Y-100816819D01*
X150211526Y-101280786D01*
X150245011Y-101342109D01*
X150246318Y-101349068D01*
X150257499Y-101419658D01*
X150257499Y-101419659D01*
X150257500Y-101419661D01*
X150303357Y-101509661D01*
X150307904Y-101518585D01*
X150307909Y-101518592D01*
X150386407Y-101597090D01*
X150386410Y-101597092D01*
X150386413Y-101597095D01*
X150485339Y-101647500D01*
X150485341Y-101647501D01*
X150594998Y-101664869D01*
X150595000Y-101664869D01*
X150595002Y-101664869D01*
X150704658Y-101647501D01*
X150704659Y-101647500D01*
X150704661Y-101647500D01*
X150803587Y-101597095D01*
X150882095Y-101518587D01*
X150932500Y-101419661D01*
X150932500Y-101419659D01*
X150932501Y-101419658D01*
X150949869Y-101310002D01*
X150949869Y-101309997D01*
X150932501Y-101200341D01*
X150932500Y-101200339D01*
X150882095Y-101101413D01*
X150882092Y-101101410D01*
X150882090Y-101101407D01*
X150803592Y-101022909D01*
X150803588Y-101022906D01*
X150803587Y-101022905D01*
X150704661Y-100972500D01*
X150704659Y-100972499D01*
X150704658Y-100972499D01*
X150634068Y-100961318D01*
X150570934Y-100931388D01*
X150565786Y-100926526D01*
X150086941Y-100447681D01*
X150053456Y-100386358D01*
X150057487Y-100329997D01*
X151295131Y-100329997D01*
X151295131Y-100330002D01*
X151312498Y-100439658D01*
X151362904Y-100538585D01*
X151362909Y-100538592D01*
X151441407Y-100617090D01*
X151441410Y-100617092D01*
X151441413Y-100617095D01*
X151515575Y-100654882D01*
X151540341Y-100667501D01*
X151649998Y-100684869D01*
X151650000Y-100684869D01*
X151650002Y-100684869D01*
X151759658Y-100667501D01*
X151759659Y-100667500D01*
X151759661Y-100667500D01*
X151858587Y-100617095D01*
X151937095Y-100538587D01*
X151987500Y-100439661D01*
X151987500Y-100439659D01*
X151987501Y-100439658D01*
X152003027Y-100341631D01*
X152006618Y-100334054D01*
X152006523Y-100333905D01*
X152003027Y-100318368D01*
X151987501Y-100220341D01*
X151950943Y-100148592D01*
X151937095Y-100121413D01*
X151937092Y-100121410D01*
X151937090Y-100121407D01*
X151858592Y-100042909D01*
X151858588Y-100042906D01*
X151858587Y-100042905D01*
X151802482Y-100014318D01*
X151759658Y-99992498D01*
X151650002Y-99975131D01*
X151649998Y-99975131D01*
X151540341Y-99992498D01*
X151441414Y-100042904D01*
X151441407Y-100042909D01*
X151362909Y-100121407D01*
X151362904Y-100121414D01*
X151312498Y-100220341D01*
X151295131Y-100329997D01*
X150057487Y-100329997D01*
X150058440Y-100316666D01*
X150086941Y-100272319D01*
X150322881Y-100036379D01*
X150565788Y-99793471D01*
X150627109Y-99759988D01*
X150634070Y-99758681D01*
X150704657Y-99747501D01*
X150704658Y-99747500D01*
X150704661Y-99747500D01*
X150803587Y-99697095D01*
X150882095Y-99618587D01*
X150932500Y-99519661D01*
X150932500Y-99519659D01*
X150932501Y-99519658D01*
X150949869Y-99410002D01*
X150949869Y-99409997D01*
X150932501Y-99300341D01*
X150889540Y-99216025D01*
X150882095Y-99201413D01*
X150882092Y-99201410D01*
X150882090Y-99201407D01*
X150803592Y-99122909D01*
X150803588Y-99122906D01*
X150803587Y-99122905D01*
X150797801Y-99119957D01*
X150704658Y-99072498D01*
X150595002Y-99055131D01*
X150594998Y-99055131D01*
X150485341Y-99072498D01*
X150386414Y-99122904D01*
X150386407Y-99122909D01*
X150307909Y-99201407D01*
X150307904Y-99201414D01*
X150257498Y-99300341D01*
X150246319Y-99370927D01*
X150216390Y-99434062D01*
X150211527Y-99439210D01*
X149707558Y-99943181D01*
X149646235Y-99976666D01*
X149619877Y-99979500D01*
X147746376Y-99979500D01*
X147679337Y-99959815D01*
X147633582Y-99907011D01*
X147623638Y-99837853D01*
X147623902Y-99836103D01*
X147624869Y-99829997D01*
X147607501Y-99720341D01*
X147607500Y-99720339D01*
X147557095Y-99621413D01*
X147557092Y-99621410D01*
X147557090Y-99621407D01*
X147478592Y-99542909D01*
X147478588Y-99542906D01*
X147478587Y-99542905D01*
X147441664Y-99524092D01*
X147379658Y-99492498D01*
X147270002Y-99475131D01*
X147269998Y-99475131D01*
X147160341Y-99492498D01*
X147061414Y-99542904D01*
X147061407Y-99542909D01*
X146982909Y-99621407D01*
X146982904Y-99621414D01*
X146932498Y-99720341D01*
X146915131Y-99829997D01*
X146916098Y-99836103D01*
X146907142Y-99905396D01*
X146862145Y-99958848D01*
X146795394Y-99979487D01*
X146793624Y-99979500D01*
X144629386Y-99979500D01*
X144562347Y-99959815D01*
X144541705Y-99943181D01*
X143125614Y-98527090D01*
X142765521Y-98166996D01*
X142732037Y-98105675D01*
X142737021Y-98035983D01*
X142778893Y-97980050D01*
X142820947Y-97962279D01*
X142820375Y-97960518D01*
X142829657Y-97957501D01*
X142829658Y-97957500D01*
X142829661Y-97957500D01*
X142928587Y-97907095D01*
X143007095Y-97828587D01*
X143057500Y-97729661D01*
X143057500Y-97729659D01*
X143057501Y-97729658D01*
X143059443Y-97717399D01*
X147089500Y-97717399D01*
X147089500Y-97842601D01*
X147121905Y-97963536D01*
X147184505Y-98071964D01*
X147273036Y-98160495D01*
X147381464Y-98223095D01*
X147502399Y-98255500D01*
X147502401Y-98255500D01*
X147627599Y-98255500D01*
X147627601Y-98255500D01*
X147685458Y-98239997D01*
X148395131Y-98239997D01*
X148395131Y-98240002D01*
X148412498Y-98349658D01*
X148462904Y-98448585D01*
X148462909Y-98448592D01*
X148541407Y-98527090D01*
X148541410Y-98527092D01*
X148541413Y-98527095D01*
X148640339Y-98577500D01*
X148640341Y-98577501D01*
X148749998Y-98594869D01*
X148750000Y-98594869D01*
X148750002Y-98594869D01*
X148859658Y-98577501D01*
X148859659Y-98577500D01*
X148859661Y-98577500D01*
X148958587Y-98527095D01*
X149037095Y-98448587D01*
X149087500Y-98349661D01*
X149087500Y-98349659D01*
X149087501Y-98349658D01*
X149104869Y-98240002D01*
X149104869Y-98239997D01*
X149087501Y-98130341D01*
X149057757Y-98071965D01*
X149037095Y-98031413D01*
X149037092Y-98031410D01*
X149037090Y-98031407D01*
X148958592Y-97952909D01*
X148958588Y-97952906D01*
X148958587Y-97952905D01*
X148954743Y-97950946D01*
X148859658Y-97902498D01*
X148750002Y-97885131D01*
X148749998Y-97885131D01*
X148640341Y-97902498D01*
X148541414Y-97952904D01*
X148541407Y-97952909D01*
X148462909Y-98031407D01*
X148462904Y-98031414D01*
X148412498Y-98130341D01*
X148395131Y-98239997D01*
X147685458Y-98239997D01*
X147748536Y-98223095D01*
X147856964Y-98160495D01*
X147945495Y-98071964D01*
X148008095Y-97963536D01*
X148040500Y-97842601D01*
X148040500Y-97717399D01*
X148008095Y-97596464D01*
X147945495Y-97488036D01*
X147856964Y-97399505D01*
X147748536Y-97336905D01*
X147748537Y-97336905D01*
X147686719Y-97320341D01*
X147627601Y-97304500D01*
X147502399Y-97304500D01*
X147443281Y-97320341D01*
X147381463Y-97336905D01*
X147273037Y-97399504D01*
X147273034Y-97399506D01*
X147184506Y-97488034D01*
X147184504Y-97488037D01*
X147121905Y-97596463D01*
X147110618Y-97638587D01*
X147089500Y-97717399D01*
X143059443Y-97717399D01*
X143074869Y-97620002D01*
X143074869Y-97619997D01*
X143057501Y-97510341D01*
X143040648Y-97477265D01*
X143019866Y-97436479D01*
X143006971Y-97367811D01*
X143019866Y-97323895D01*
X143047500Y-97269661D01*
X143056520Y-97212717D01*
X143064869Y-97160002D01*
X143064869Y-97159997D01*
X143047501Y-97050341D01*
X143043588Y-97042661D01*
X142997095Y-96951413D01*
X142997092Y-96951410D01*
X142997090Y-96951407D01*
X142918592Y-96872909D01*
X142918588Y-96872906D01*
X142918587Y-96872905D01*
X142893263Y-96860002D01*
X142819658Y-96822498D01*
X142710002Y-96805131D01*
X142709998Y-96805131D01*
X142600341Y-96822498D01*
X142501414Y-96872904D01*
X142501407Y-96872909D01*
X142422909Y-96951407D01*
X142422904Y-96951414D01*
X142372498Y-97050341D01*
X142355131Y-97159997D01*
X142355131Y-97160002D01*
X142372498Y-97269658D01*
X142410132Y-97343519D01*
X142423028Y-97412188D01*
X142410132Y-97456107D01*
X142382498Y-97510342D01*
X142379482Y-97519625D01*
X142377150Y-97518867D01*
X142353214Y-97569342D01*
X142293897Y-97606265D01*
X142224034Y-97605257D01*
X142173003Y-97574478D01*
X141626819Y-97028294D01*
X141593334Y-96966971D01*
X141590500Y-96940613D01*
X141590500Y-95949997D01*
X144715131Y-95949997D01*
X144715131Y-95950002D01*
X144732498Y-96059658D01*
X144782904Y-96158585D01*
X144782909Y-96158592D01*
X144861407Y-96237090D01*
X144861410Y-96237092D01*
X144861413Y-96237095D01*
X144960339Y-96287500D01*
X144960341Y-96287501D01*
X145069998Y-96304869D01*
X145070000Y-96304869D01*
X145070002Y-96304869D01*
X145179658Y-96287501D01*
X145179659Y-96287500D01*
X145179661Y-96287500D01*
X145278587Y-96237095D01*
X145357095Y-96158587D01*
X145407500Y-96059661D01*
X145407500Y-96059659D01*
X145407501Y-96059658D01*
X145424869Y-95950002D01*
X145424869Y-95949997D01*
X145407501Y-95840341D01*
X145381677Y-95789658D01*
X145357095Y-95741413D01*
X145357092Y-95741410D01*
X145357090Y-95741407D01*
X145278592Y-95662909D01*
X145278588Y-95662906D01*
X145278587Y-95662905D01*
X145253263Y-95650002D01*
X145179658Y-95612498D01*
X145070002Y-95595131D01*
X145069998Y-95595131D01*
X144960341Y-95612498D01*
X144861414Y-95662904D01*
X144861407Y-95662909D01*
X144782909Y-95741407D01*
X144782904Y-95741414D01*
X144732498Y-95840341D01*
X144715131Y-95949997D01*
X141590500Y-95949997D01*
X141590500Y-95836897D01*
X141610185Y-95769858D01*
X141658203Y-95726414D01*
X141748587Y-95680362D01*
X141827095Y-95601854D01*
X141877500Y-95502928D01*
X141877500Y-95502926D01*
X141877501Y-95502925D01*
X141894869Y-95393269D01*
X141894869Y-95393264D01*
X141877501Y-95283608D01*
X141855152Y-95239746D01*
X141827095Y-95184680D01*
X141827092Y-95184677D01*
X141827090Y-95184674D01*
X141823367Y-95180951D01*
X141817386Y-95169997D01*
X142545131Y-95169997D01*
X142545131Y-95170002D01*
X142562498Y-95279658D01*
X142612904Y-95378585D01*
X142612909Y-95378592D01*
X142691407Y-95457090D01*
X142691410Y-95457092D01*
X142691413Y-95457095D01*
X142748441Y-95486152D01*
X142790341Y-95507501D01*
X142899998Y-95524869D01*
X142900000Y-95524869D01*
X142900002Y-95524869D01*
X143009658Y-95507501D01*
X143009659Y-95507500D01*
X143009661Y-95507500D01*
X143108587Y-95457095D01*
X143187095Y-95378587D01*
X143237500Y-95279661D01*
X143237500Y-95279659D01*
X143237501Y-95279658D01*
X143253286Y-95179997D01*
X150665131Y-95179997D01*
X150665131Y-95180002D01*
X150682498Y-95289658D01*
X150732904Y-95388585D01*
X150732909Y-95388592D01*
X150811407Y-95467090D01*
X150811410Y-95467092D01*
X150811413Y-95467095D01*
X150889908Y-95507090D01*
X150910341Y-95517501D01*
X151019998Y-95534869D01*
X151020000Y-95534869D01*
X151020002Y-95534869D01*
X151129658Y-95517501D01*
X151129659Y-95517500D01*
X151129661Y-95517500D01*
X151228587Y-95467095D01*
X151307095Y-95388587D01*
X151357500Y-95289661D01*
X151357500Y-95289659D01*
X151357501Y-95289658D01*
X151374869Y-95180002D01*
X151374869Y-95179997D01*
X151357501Y-95070341D01*
X151352405Y-95060339D01*
X151307095Y-94971413D01*
X151307092Y-94971410D01*
X151307090Y-94971407D01*
X151228592Y-94892909D01*
X151228588Y-94892906D01*
X151228587Y-94892905D01*
X151208166Y-94882500D01*
X151129658Y-94842498D01*
X151020002Y-94825131D01*
X151019998Y-94825131D01*
X150910341Y-94842498D01*
X150811414Y-94892904D01*
X150811407Y-94892909D01*
X150732909Y-94971407D01*
X150732904Y-94971414D01*
X150682498Y-95070341D01*
X150665131Y-95179997D01*
X143253286Y-95179997D01*
X143254869Y-95170002D01*
X143254869Y-95169997D01*
X143237501Y-95060341D01*
X143232199Y-95049936D01*
X143187095Y-94961413D01*
X143187092Y-94961410D01*
X143187090Y-94961407D01*
X143108592Y-94882909D01*
X143108588Y-94882906D01*
X143108587Y-94882905D01*
X143084190Y-94870474D01*
X143009658Y-94832498D01*
X142900002Y-94815131D01*
X142899998Y-94815131D01*
X142790341Y-94832498D01*
X142691414Y-94882904D01*
X142691407Y-94882909D01*
X142612909Y-94961407D01*
X142612904Y-94961414D01*
X142562498Y-95060341D01*
X142545131Y-95169997D01*
X141817386Y-95169997D01*
X141789882Y-95119628D01*
X141794866Y-95049936D01*
X141800557Y-95036988D01*
X141815977Y-95006725D01*
X141816397Y-95004073D01*
X141833346Y-94897066D01*
X141833346Y-94897061D01*
X141815978Y-94787405D01*
X141789681Y-94735794D01*
X141776785Y-94667125D01*
X141803062Y-94602385D01*
X141860168Y-94562128D01*
X141900166Y-94555500D01*
X142600703Y-94555500D01*
X142600711Y-94555501D01*
X142615145Y-94555501D01*
X142704853Y-94555501D01*
X142704855Y-94555501D01*
X142763460Y-94531225D01*
X142787736Y-94521170D01*
X142851170Y-94457736D01*
X142851170Y-94457735D01*
X142868608Y-94440297D01*
X142868610Y-94440294D01*
X143310672Y-93998231D01*
X143371993Y-93964748D01*
X143410502Y-93962511D01*
X143490000Y-93970341D01*
X143686132Y-93951024D01*
X143874727Y-93893814D01*
X143879055Y-93891501D01*
X144048532Y-93800913D01*
X144048538Y-93800910D01*
X144200883Y-93675883D01*
X144325910Y-93523538D01*
X144413469Y-93359727D01*
X144418811Y-93349733D01*
X144418811Y-93349732D01*
X144418814Y-93349727D01*
X144476024Y-93161132D01*
X144495341Y-92965000D01*
X145024659Y-92965000D01*
X145043975Y-93161129D01*
X145043976Y-93161132D01*
X145093142Y-93323211D01*
X145101188Y-93349733D01*
X145194086Y-93523532D01*
X145194090Y-93523539D01*
X145319116Y-93675883D01*
X145471460Y-93800909D01*
X145471467Y-93800913D01*
X145645266Y-93893811D01*
X145645269Y-93893811D01*
X145645273Y-93893814D01*
X145833868Y-93951024D01*
X146030000Y-93970341D01*
X146226132Y-93951024D01*
X146414727Y-93893814D01*
X146419055Y-93891501D01*
X146588532Y-93800913D01*
X146588538Y-93800910D01*
X146740883Y-93675883D01*
X146865910Y-93523538D01*
X146953469Y-93359727D01*
X146958811Y-93349733D01*
X146958811Y-93349732D01*
X146958814Y-93349727D01*
X147016024Y-93161132D01*
X147035341Y-92965000D01*
X147016024Y-92768868D01*
X146958814Y-92580273D01*
X146958811Y-92580269D01*
X146958811Y-92580266D01*
X146865913Y-92406467D01*
X146865909Y-92406460D01*
X146740883Y-92254116D01*
X146588539Y-92129090D01*
X146588532Y-92129086D01*
X146414733Y-92036188D01*
X146414727Y-92036186D01*
X146226132Y-91978976D01*
X146226129Y-91978975D01*
X146030000Y-91959659D01*
X145833870Y-91978975D01*
X145645266Y-92036188D01*
X145471467Y-92129086D01*
X145471460Y-92129090D01*
X145319116Y-92254116D01*
X145194090Y-92406460D01*
X145194086Y-92406467D01*
X145101188Y-92580266D01*
X145043975Y-92768870D01*
X145024659Y-92965000D01*
X144495341Y-92965000D01*
X144476024Y-92768868D01*
X144418814Y-92580273D01*
X144418811Y-92580269D01*
X144418811Y-92580266D01*
X144325913Y-92406467D01*
X144325909Y-92406460D01*
X144200883Y-92254116D01*
X144048539Y-92129090D01*
X144048532Y-92129086D01*
X143874733Y-92036188D01*
X143874727Y-92036186D01*
X143686132Y-91978976D01*
X143686129Y-91978975D01*
X143490000Y-91959659D01*
X143293870Y-91978975D01*
X143105266Y-92036188D01*
X142931467Y-92129086D01*
X142931460Y-92129090D01*
X142779116Y-92254116D01*
X142654090Y-92406460D01*
X142654086Y-92406467D01*
X142561188Y-92580266D01*
X142503975Y-92768870D01*
X142484659Y-92965000D01*
X142503975Y-93161129D01*
X142503976Y-93161132D01*
X142553142Y-93323211D01*
X142561188Y-93349733D01*
X142654086Y-93523532D01*
X142654090Y-93523539D01*
X142749818Y-93640182D01*
X142779117Y-93675883D01*
X142792050Y-93686497D01*
X142831383Y-93744241D01*
X142833253Y-93814086D01*
X142801064Y-93870029D01*
X142602912Y-94068182D01*
X142541592Y-94101666D01*
X142515233Y-94104500D01*
X141435598Y-94104500D01*
X141368559Y-94084815D01*
X141322804Y-94032011D01*
X141312860Y-93962853D01*
X141341885Y-93899297D01*
X141377145Y-93871142D01*
X141508532Y-93800913D01*
X141508538Y-93800910D01*
X141660883Y-93675883D01*
X141785910Y-93523538D01*
X141873469Y-93359727D01*
X141878811Y-93349733D01*
X141878811Y-93349732D01*
X141878814Y-93349727D01*
X141936024Y-93161132D01*
X141955341Y-92965000D01*
X141936024Y-92768868D01*
X141878814Y-92580273D01*
X141878811Y-92580269D01*
X141878811Y-92580266D01*
X141785913Y-92406467D01*
X141785909Y-92406460D01*
X141660883Y-92254116D01*
X141508539Y-92129090D01*
X141508532Y-92129086D01*
X141334733Y-92036188D01*
X141334727Y-92036186D01*
X141146132Y-91978976D01*
X141146129Y-91978975D01*
X140950000Y-91959659D01*
X140753870Y-91978975D01*
X140565266Y-92036188D01*
X140391467Y-92129086D01*
X140391460Y-92129090D01*
X140239116Y-92254116D01*
X140114090Y-92406460D01*
X140114086Y-92406467D01*
X140021188Y-92580266D01*
X139963975Y-92768870D01*
X139944659Y-92965000D01*
X139963975Y-93161129D01*
X139963976Y-93161132D01*
X140013142Y-93323211D01*
X140021188Y-93349733D01*
X140114086Y-93523532D01*
X140114090Y-93523539D01*
X140239116Y-93675883D01*
X140391460Y-93800909D01*
X140391467Y-93800913D01*
X140565266Y-93893811D01*
X140565269Y-93893811D01*
X140565273Y-93893814D01*
X140753868Y-93951024D01*
X140950000Y-93970341D01*
X140954968Y-93970341D01*
X141022007Y-93990026D01*
X141067762Y-94042830D01*
X141077706Y-94111988D01*
X141048681Y-94175544D01*
X141042649Y-94182022D01*
X140208832Y-95015838D01*
X140208827Y-95015845D01*
X140204026Y-95027437D01*
X140160183Y-95081839D01*
X140093888Y-95103902D01*
X140026189Y-95086621D01*
X140001785Y-95067662D01*
X139988605Y-95054482D01*
X139988601Y-95054479D01*
X139988600Y-95054478D01*
X139955540Y-95037633D01*
X139889671Y-95004071D01*
X139780015Y-94986704D01*
X139780011Y-94986704D01*
X139670355Y-95004071D01*
X139604485Y-95037633D01*
X139535815Y-95050528D01*
X139471075Y-95024250D01*
X139460511Y-95014828D01*
X139438592Y-94992909D01*
X139438588Y-94992906D01*
X139438587Y-94992905D01*
X139339661Y-94942500D01*
X139336394Y-94941982D01*
X139332741Y-94940250D01*
X139330375Y-94939482D01*
X139330474Y-94939176D01*
X139273260Y-94912054D01*
X139236328Y-94852742D01*
X139237326Y-94782880D01*
X139245302Y-94763225D01*
X139267500Y-94719661D01*
X139269133Y-94709355D01*
X139284869Y-94610002D01*
X139284869Y-94609997D01*
X139267501Y-94500341D01*
X139236904Y-94440291D01*
X139217095Y-94401413D01*
X139217092Y-94401410D01*
X139217090Y-94401407D01*
X139138592Y-94322909D01*
X139138588Y-94322906D01*
X139138587Y-94322905D01*
X139087922Y-94297090D01*
X139039658Y-94272498D01*
X138927061Y-94254665D01*
X138863926Y-94224736D01*
X138858778Y-94219873D01*
X138290525Y-93651620D01*
X138257040Y-93590297D01*
X138256172Y-93559760D01*
X138254869Y-93559760D01*
X138254869Y-93549997D01*
X138237501Y-93440341D01*
X138227857Y-93421413D01*
X138187095Y-93341413D01*
X138187092Y-93341410D01*
X138187090Y-93341407D01*
X138108592Y-93262909D01*
X138108588Y-93262906D01*
X138108587Y-93262905D01*
X138104743Y-93260946D01*
X138009658Y-93212498D01*
X137900002Y-93195131D01*
X137899998Y-93195131D01*
X137790341Y-93212498D01*
X137691414Y-93262904D01*
X137691407Y-93262909D01*
X137653908Y-93300408D01*
X137592585Y-93333893D01*
X137522893Y-93328907D01*
X137509948Y-93323217D01*
X137449661Y-93292500D01*
X137449659Y-93292499D01*
X137449656Y-93292498D01*
X137340002Y-93275131D01*
X137339997Y-93275131D01*
X137247794Y-93289734D01*
X137178501Y-93280779D01*
X137125049Y-93235783D01*
X137105924Y-93186659D01*
X137087501Y-93070341D01*
X137061851Y-93020000D01*
X137037095Y-92971413D01*
X137037092Y-92971410D01*
X137037090Y-92971407D01*
X136958592Y-92892909D01*
X136958588Y-92892906D01*
X136958587Y-92892905D01*
X136954743Y-92890946D01*
X136859658Y-92842498D01*
X136750002Y-92825131D01*
X136749998Y-92825131D01*
X136640341Y-92842498D01*
X136541414Y-92892904D01*
X136541410Y-92892906D01*
X136484126Y-92950191D01*
X136422802Y-92983675D01*
X136353111Y-92978690D01*
X136308764Y-92950190D01*
X134748280Y-91389706D01*
X134748278Y-91389703D01*
X134740756Y-91382181D01*
X134707271Y-91320858D01*
X134712255Y-91251166D01*
X134754127Y-91195233D01*
X134819591Y-91170816D01*
X134828437Y-91170500D01*
X152125500Y-91170500D01*
X152192539Y-91190185D01*
G37*
%TD.AperFunction*%
%TA.AperFunction,Conductor*%
G36*
X138778064Y-95386987D02*
G01*
X138779350Y-95388255D01*
X138791759Y-95400664D01*
X138791762Y-95400668D01*
X138798830Y-95407736D01*
X138862264Y-95471170D01*
X138883685Y-95480043D01*
X138883687Y-95480044D01*
X138916498Y-95493634D01*
X138945145Y-95505501D01*
X138945146Y-95505501D01*
X138947408Y-95506438D01*
X138987637Y-95533319D01*
X139021408Y-95567091D01*
X139021411Y-95567093D01*
X139021413Y-95567095D01*
X139110522Y-95612498D01*
X139120341Y-95617501D01*
X139229998Y-95634869D01*
X139230000Y-95634869D01*
X139230002Y-95634869D01*
X139339656Y-95617501D01*
X139339656Y-95617500D01*
X139339661Y-95617500D01*
X139405527Y-95583939D01*
X139474195Y-95571044D01*
X139538935Y-95597321D01*
X139549501Y-95606744D01*
X139571420Y-95628663D01*
X139571423Y-95628665D01*
X139571426Y-95628668D01*
X139647291Y-95667323D01*
X139670354Y-95679074D01*
X139780011Y-95696442D01*
X139780013Y-95696442D01*
X139780015Y-95696442D01*
X139889669Y-95679074D01*
X139889669Y-95679073D01*
X139889674Y-95679073D01*
X139988600Y-95628668D01*
X139988602Y-95628665D01*
X139994205Y-95625811D01*
X140062874Y-95612915D01*
X140127615Y-95639191D01*
X140167872Y-95696298D01*
X140174500Y-95736296D01*
X140174500Y-96805232D01*
X140154815Y-96872271D01*
X140138181Y-96892913D01*
X139553830Y-97477263D01*
X139553830Y-97477265D01*
X139519499Y-97560144D01*
X139519499Y-97664288D01*
X139519500Y-97664297D01*
X139519500Y-101340232D01*
X139499815Y-101407271D01*
X139483181Y-101427913D01*
X137601220Y-103309873D01*
X137539897Y-103343358D01*
X137532937Y-103344665D01*
X137420342Y-103362498D01*
X137415175Y-103365131D01*
X137395792Y-103375007D01*
X137327124Y-103387902D01*
X137262384Y-103361624D01*
X137222128Y-103304517D01*
X137215500Y-103264521D01*
X137215500Y-100395477D01*
X137215498Y-100395472D01*
X137181172Y-100312597D01*
X137110671Y-100242096D01*
X137110664Y-100242090D01*
X134739809Y-97871235D01*
X134706324Y-97809912D01*
X134711308Y-97740220D01*
X134739807Y-97695874D01*
X134797095Y-97638587D01*
X134847500Y-97539661D01*
X134847500Y-97539659D01*
X134847501Y-97539658D01*
X134864869Y-97430002D01*
X134864869Y-97429997D01*
X134847501Y-97320341D01*
X134821764Y-97269829D01*
X134797095Y-97221413D01*
X134797094Y-97221412D01*
X134792664Y-97212717D01*
X134794713Y-97211672D01*
X134775763Y-97158573D01*
X134791583Y-97090518D01*
X134801929Y-97076902D01*
X134801356Y-97076486D01*
X134807089Y-97068592D01*
X134807095Y-97068587D01*
X134857500Y-96969661D01*
X134857500Y-96969659D01*
X134857501Y-96969658D01*
X134874869Y-96860002D01*
X134874869Y-96859997D01*
X134857501Y-96750341D01*
X134814305Y-96665564D01*
X134807095Y-96651413D01*
X134807092Y-96651410D01*
X134807090Y-96651407D01*
X134728592Y-96572909D01*
X134728588Y-96572906D01*
X134728587Y-96572905D01*
X134724743Y-96570946D01*
X134629658Y-96522498D01*
X134520002Y-96505131D01*
X134519998Y-96505131D01*
X134410341Y-96522498D01*
X134311414Y-96572904D01*
X134311407Y-96572909D01*
X134232909Y-96651407D01*
X134232904Y-96651414D01*
X134182498Y-96750341D01*
X134165131Y-96859997D01*
X134165131Y-96860002D01*
X134182498Y-96969658D01*
X134184707Y-96973992D01*
X134197603Y-97042661D01*
X134171326Y-97107401D01*
X134114220Y-97147658D01*
X134044414Y-97150650D01*
X133986541Y-97117967D01*
X133621819Y-96753245D01*
X133588334Y-96691922D01*
X133585500Y-96665564D01*
X133585500Y-96001544D01*
X133605185Y-95934505D01*
X133621815Y-95913866D01*
X133647095Y-95888587D01*
X133697500Y-95789661D01*
X133697500Y-95789659D01*
X133697501Y-95789658D01*
X133714869Y-95680002D01*
X133714869Y-95679997D01*
X133703608Y-95608898D01*
X133712563Y-95539604D01*
X133757559Y-95486152D01*
X133824311Y-95465513D01*
X133826081Y-95465500D01*
X135039168Y-95465500D01*
X135106207Y-95485185D01*
X135151962Y-95537989D01*
X135161906Y-95607147D01*
X135161641Y-95608899D01*
X135155131Y-95649999D01*
X135155131Y-95650003D01*
X135157874Y-95667323D01*
X135148919Y-95736616D01*
X135103922Y-95790068D01*
X135088701Y-95797417D01*
X135089034Y-95798070D01*
X135080339Y-95802499D01*
X135080339Y-95802500D01*
X134981413Y-95852905D01*
X134981412Y-95852906D01*
X134981407Y-95852909D01*
X134902909Y-95931407D01*
X134902904Y-95931414D01*
X134852498Y-96030341D01*
X134835131Y-96139997D01*
X134835131Y-96140002D01*
X134852498Y-96249658D01*
X134902904Y-96348585D01*
X134902909Y-96348592D01*
X134981407Y-96427090D01*
X134981410Y-96427092D01*
X134981413Y-96427095D01*
X135035923Y-96454869D01*
X135080341Y-96477501D01*
X135189998Y-96494869D01*
X135190000Y-96494869D01*
X135190002Y-96494869D01*
X135299658Y-96477501D01*
X135299659Y-96477500D01*
X135299661Y-96477500D01*
X135398587Y-96427095D01*
X135477095Y-96348587D01*
X135527500Y-96249661D01*
X135527500Y-96249659D01*
X135527501Y-96249658D01*
X135544869Y-96140002D01*
X135544869Y-96140000D01*
X135542125Y-96122677D01*
X135551078Y-96053386D01*
X135596073Y-95999933D01*
X135611299Y-95992584D01*
X135610966Y-95991930D01*
X135619659Y-95987500D01*
X135619661Y-95987500D01*
X135718587Y-95937095D01*
X135797095Y-95858587D01*
X135847500Y-95759661D01*
X135847500Y-95759659D01*
X135847501Y-95759658D01*
X135864869Y-95650002D01*
X135864869Y-95649999D01*
X135858359Y-95608899D01*
X135867313Y-95539605D01*
X135912309Y-95486153D01*
X135979060Y-95465513D01*
X135980832Y-95465500D01*
X137255955Y-95465500D01*
X137322994Y-95485185D01*
X137343636Y-95501819D01*
X137348907Y-95507090D01*
X137348910Y-95507092D01*
X137348913Y-95507095D01*
X137447839Y-95557500D01*
X137447841Y-95557501D01*
X137557498Y-95574869D01*
X137557500Y-95574869D01*
X137557502Y-95574869D01*
X137667158Y-95557501D01*
X137667159Y-95557500D01*
X137667161Y-95557500D01*
X137766087Y-95507095D01*
X137844595Y-95428587D01*
X137844598Y-95428579D01*
X137845856Y-95426850D01*
X137847941Y-95425241D01*
X137851496Y-95421687D01*
X137851955Y-95422146D01*
X137901182Y-95384179D01*
X137970795Y-95378194D01*
X138032593Y-95410794D01*
X138033862Y-95412045D01*
X138098907Y-95477090D01*
X138098910Y-95477092D01*
X138098913Y-95477095D01*
X138157782Y-95507090D01*
X138197841Y-95527501D01*
X138307498Y-95544869D01*
X138307500Y-95544869D01*
X138307502Y-95544869D01*
X138417158Y-95527501D01*
X138417159Y-95527500D01*
X138417161Y-95527500D01*
X138516087Y-95477095D01*
X138558082Y-95435100D01*
X138601496Y-95391687D01*
X138603498Y-95393689D01*
X138646648Y-95360398D01*
X138716260Y-95354399D01*
X138778064Y-95386987D01*
G37*
%TD.AperFunction*%
%TA.AperFunction,Conductor*%
G36*
X130877338Y-93120251D02*
G01*
X130897980Y-93136885D01*
X133065180Y-95304085D01*
X133098665Y-95365408D01*
X133093681Y-95435100D01*
X133077820Y-95464647D01*
X133072906Y-95471410D01*
X133022498Y-95570341D01*
X133005131Y-95679997D01*
X133005131Y-95680002D01*
X133022498Y-95789658D01*
X133054724Y-95852905D01*
X133072905Y-95888587D01*
X133098181Y-95913863D01*
X133131666Y-95975184D01*
X133134500Y-96001544D01*
X133134500Y-96755473D01*
X133134499Y-96755487D01*
X133134499Y-96855188D01*
X133151298Y-96895743D01*
X133168829Y-96938065D01*
X133168831Y-96938068D01*
X133249700Y-97018937D01*
X133249706Y-97018942D01*
X134399735Y-98168971D01*
X134433220Y-98230294D01*
X134428236Y-98299986D01*
X134386364Y-98355919D01*
X134374752Y-98363149D01*
X134371406Y-98365580D01*
X134292908Y-98444078D01*
X134292903Y-98444085D01*
X134242497Y-98543012D01*
X134225130Y-98652668D01*
X134225130Y-98652673D01*
X134242497Y-98762327D01*
X134242498Y-98762330D01*
X134242499Y-98762332D01*
X134279264Y-98834488D01*
X134292160Y-98903156D01*
X134279264Y-98947075D01*
X134224990Y-99053593D01*
X134207623Y-99163249D01*
X134207623Y-99163254D01*
X134224990Y-99272910D01*
X134257620Y-99336950D01*
X134270516Y-99405619D01*
X134254272Y-99448371D01*
X134257335Y-99449932D01*
X134202497Y-99557556D01*
X134185130Y-99667212D01*
X134185130Y-99667217D01*
X134204025Y-99786515D01*
X134200954Y-99787001D01*
X134202472Y-99840545D01*
X134166379Y-99900370D01*
X134103672Y-99931184D01*
X134063155Y-99931469D01*
X133960002Y-99915131D01*
X133959998Y-99915131D01*
X133850341Y-99932498D01*
X133751414Y-99982904D01*
X133751407Y-99982909D01*
X133694127Y-100040190D01*
X133632804Y-100073675D01*
X133563112Y-100068691D01*
X133518765Y-100040190D01*
X129578572Y-96099997D01*
X131745131Y-96099997D01*
X131745131Y-96100002D01*
X131762498Y-96209658D01*
X131812904Y-96308585D01*
X131812909Y-96308592D01*
X131891407Y-96387090D01*
X131891410Y-96387092D01*
X131891413Y-96387095D01*
X131969908Y-96427090D01*
X131990341Y-96437501D01*
X132099998Y-96454869D01*
X132100000Y-96454869D01*
X132100002Y-96454869D01*
X132209658Y-96437501D01*
X132209659Y-96437500D01*
X132209661Y-96437500D01*
X132308587Y-96387095D01*
X132387095Y-96308587D01*
X132437500Y-96209661D01*
X132437500Y-96209659D01*
X132437501Y-96209658D01*
X132454869Y-96100002D01*
X132454869Y-96099997D01*
X132437501Y-95990341D01*
X132406583Y-95929661D01*
X132387095Y-95891413D01*
X132387092Y-95891410D01*
X132387090Y-95891407D01*
X132308592Y-95812909D01*
X132308588Y-95812906D01*
X132308587Y-95812905D01*
X132288166Y-95802500D01*
X132209658Y-95762498D01*
X132100002Y-95745131D01*
X132099998Y-95745131D01*
X131990341Y-95762498D01*
X131891414Y-95812904D01*
X131891407Y-95812909D01*
X131812909Y-95891407D01*
X131812904Y-95891414D01*
X131762498Y-95990341D01*
X131745131Y-96099997D01*
X129578572Y-96099997D01*
X127231840Y-93753265D01*
X127198355Y-93691942D01*
X127203339Y-93622250D01*
X127245211Y-93566317D01*
X127310675Y-93541900D01*
X127375814Y-93555098D01*
X127421909Y-93578585D01*
X127439537Y-93587567D01*
X127549194Y-93604935D01*
X127549196Y-93604935D01*
X127549198Y-93604935D01*
X127658854Y-93587567D01*
X127658855Y-93587566D01*
X127658857Y-93587566D01*
X127757783Y-93537161D01*
X127836291Y-93458653D01*
X127886696Y-93359727D01*
X127886696Y-93359725D01*
X127886697Y-93359724D01*
X127904065Y-93250068D01*
X127903098Y-93243963D01*
X127912054Y-93174670D01*
X127957051Y-93121218D01*
X128023802Y-93100579D01*
X128025572Y-93100566D01*
X130810299Y-93100566D01*
X130877338Y-93120251D01*
G37*
%TD.AperFunction*%
%TA.AperFunction,Conductor*%
G36*
X133419203Y-91190185D02*
G01*
X133464958Y-91242989D01*
X133474902Y-91312147D01*
X133462649Y-91350794D01*
X133442498Y-91390341D01*
X133425131Y-91499997D01*
X133425131Y-91500002D01*
X133442498Y-91609658D01*
X133492904Y-91708585D01*
X133492909Y-91708592D01*
X133571407Y-91787090D01*
X133571410Y-91787092D01*
X133571413Y-91787095D01*
X133670339Y-91837500D01*
X133670341Y-91837501D01*
X133779998Y-91854869D01*
X133780000Y-91854869D01*
X133780002Y-91854869D01*
X133889658Y-91837501D01*
X133889659Y-91837500D01*
X133889661Y-91837500D01*
X133988587Y-91787095D01*
X133988592Y-91787090D01*
X134013864Y-91761819D01*
X134075187Y-91728334D01*
X134101545Y-91725500D01*
X134394902Y-91725500D01*
X134461941Y-91745185D01*
X134482583Y-91761819D01*
X137430119Y-94709355D01*
X137463604Y-94770678D01*
X137458620Y-94840370D01*
X137416748Y-94896303D01*
X137398736Y-94907518D01*
X137348913Y-94932905D01*
X137348912Y-94932906D01*
X137348908Y-94932908D01*
X137303638Y-94978180D01*
X137242315Y-95011666D01*
X137215956Y-95014500D01*
X136976376Y-95014500D01*
X136909337Y-94994815D01*
X136863582Y-94942011D01*
X136853638Y-94872853D01*
X136853902Y-94871103D01*
X136854869Y-94864997D01*
X136837501Y-94755341D01*
X136792553Y-94667125D01*
X136787095Y-94656413D01*
X136787092Y-94656410D01*
X136787090Y-94656407D01*
X136708592Y-94577909D01*
X136708588Y-94577906D01*
X136708587Y-94577905D01*
X136672591Y-94559564D01*
X136609658Y-94527498D01*
X136500002Y-94510131D01*
X136499998Y-94510131D01*
X136390341Y-94527498D01*
X136291414Y-94577904D01*
X136291407Y-94577909D01*
X136212909Y-94656407D01*
X136212904Y-94656414D01*
X136162498Y-94755341D01*
X136145131Y-94864997D01*
X136146098Y-94871103D01*
X136137142Y-94940396D01*
X136092145Y-94993848D01*
X136025394Y-95014487D01*
X136023624Y-95014500D01*
X133464767Y-95014500D01*
X133397728Y-94994815D01*
X133377086Y-94978181D01*
X132408902Y-94009997D01*
X132935131Y-94009997D01*
X132935131Y-94010002D01*
X132952498Y-94119658D01*
X133002904Y-94218585D01*
X133002909Y-94218592D01*
X133081407Y-94297090D01*
X133081410Y-94297092D01*
X133081413Y-94297095D01*
X133180339Y-94347500D01*
X133180341Y-94347501D01*
X133289998Y-94364869D01*
X133290000Y-94364869D01*
X133290002Y-94364869D01*
X133399658Y-94347501D01*
X133399659Y-94347500D01*
X133399661Y-94347500D01*
X133498587Y-94297095D01*
X133577095Y-94218587D01*
X133627500Y-94119661D01*
X133627500Y-94119659D01*
X133627501Y-94119658D01*
X133644869Y-94010002D01*
X133644869Y-94009997D01*
X133627501Y-93900341D01*
X133612056Y-93870029D01*
X133577095Y-93801413D01*
X133577092Y-93801410D01*
X133577090Y-93801407D01*
X133575680Y-93799997D01*
X134445131Y-93799997D01*
X134445131Y-93799999D01*
X134462498Y-93909658D01*
X134512904Y-94008585D01*
X134512909Y-94008592D01*
X134591407Y-94087090D01*
X134591410Y-94087092D01*
X134591413Y-94087095D01*
X134640269Y-94111988D01*
X134690341Y-94137501D01*
X134799998Y-94154869D01*
X134800000Y-94154869D01*
X134800002Y-94154869D01*
X134909658Y-94137501D01*
X134909659Y-94137500D01*
X134909661Y-94137500D01*
X135008587Y-94087095D01*
X135087095Y-94008587D01*
X135137500Y-93909661D01*
X135137500Y-93909659D01*
X135137501Y-93909658D01*
X135154869Y-93799999D01*
X135154869Y-93799997D01*
X135137501Y-93690341D01*
X135124682Y-93665183D01*
X135087095Y-93591413D01*
X135087092Y-93591410D01*
X135087090Y-93591407D01*
X135008592Y-93512909D01*
X135008588Y-93512906D01*
X135008587Y-93512905D01*
X134943336Y-93479658D01*
X134909658Y-93462498D01*
X134800002Y-93445131D01*
X134799998Y-93445131D01*
X134690341Y-93462498D01*
X134591414Y-93512904D01*
X134591407Y-93512909D01*
X134512909Y-93591407D01*
X134512904Y-93591414D01*
X134462498Y-93690341D01*
X134445131Y-93799997D01*
X133575680Y-93799997D01*
X133498592Y-93722909D01*
X133498588Y-93722906D01*
X133498587Y-93722905D01*
X133494743Y-93720946D01*
X133399658Y-93672498D01*
X133290002Y-93655131D01*
X133289998Y-93655131D01*
X133180341Y-93672498D01*
X133081414Y-93722904D01*
X133081407Y-93722909D01*
X133002909Y-93801407D01*
X133002904Y-93801414D01*
X132952498Y-93900341D01*
X132935131Y-94009997D01*
X132408902Y-94009997D01*
X131163676Y-92764771D01*
X131146236Y-92747330D01*
X131082802Y-92683896D01*
X131082801Y-92683895D01*
X131058523Y-92673838D01*
X131058523Y-92673837D01*
X130999924Y-92649566D01*
X130999922Y-92649565D01*
X130999921Y-92649565D01*
X130910211Y-92649565D01*
X130895777Y-92649565D01*
X130895769Y-92649566D01*
X126664231Y-92649566D01*
X126664223Y-92649565D01*
X126649789Y-92649565D01*
X126560080Y-92649565D01*
X126560079Y-92649565D01*
X126560074Y-92649566D01*
X126537518Y-92658909D01*
X126470674Y-92666821D01*
X126460002Y-92665131D01*
X126459998Y-92665131D01*
X126350341Y-92682498D01*
X126251408Y-92732907D01*
X126247377Y-92735836D01*
X126181568Y-92759310D01*
X126113516Y-92743479D01*
X126064825Y-92693369D01*
X126050500Y-92635512D01*
X126050500Y-91969997D01*
X126525131Y-91969997D01*
X126525131Y-91970002D01*
X126542498Y-92079658D01*
X126592904Y-92178585D01*
X126592909Y-92178592D01*
X126671407Y-92257090D01*
X126671410Y-92257092D01*
X126671413Y-92257095D01*
X126770339Y-92307500D01*
X126770341Y-92307501D01*
X126879998Y-92324869D01*
X126880000Y-92324869D01*
X126880002Y-92324869D01*
X126989658Y-92307501D01*
X126989659Y-92307500D01*
X126989661Y-92307500D01*
X127088587Y-92257095D01*
X127167095Y-92178587D01*
X127217500Y-92079661D01*
X127217500Y-92079659D01*
X127217501Y-92079658D01*
X127234869Y-91970002D01*
X127234869Y-91969997D01*
X127217501Y-91860341D01*
X127214713Y-91854869D01*
X127167095Y-91761413D01*
X127167092Y-91761410D01*
X127167090Y-91761407D01*
X127088592Y-91682909D01*
X127088588Y-91682906D01*
X127088587Y-91682905D01*
X127084743Y-91680946D01*
X126989658Y-91632498D01*
X126880002Y-91615131D01*
X126879998Y-91615131D01*
X126770341Y-91632498D01*
X126671414Y-91682904D01*
X126671407Y-91682909D01*
X126592909Y-91761407D01*
X126592904Y-91761414D01*
X126542498Y-91860341D01*
X126525131Y-91969997D01*
X126050500Y-91969997D01*
X126050500Y-91294500D01*
X126070185Y-91227461D01*
X126122989Y-91181706D01*
X126174500Y-91170500D01*
X133352164Y-91170500D01*
X133419203Y-91190185D01*
G37*
%TD.AperFunction*%
%TD*%
M02*
