  0
SECTION
  2
HEADER
  9
$ANGBASE
  50
0.0
  9
$ANGDIR
  70
1
  9
$MEASUREMENT
  70
1
  9
$INSUNITS
  70
4
  0
ENDSEC
  0
SECTION
  2
TABLES
  0
TABLE
  2
LTYPE
  70
4
  0
LTYPE
  5
40F
  2
CONTINUOUS
  70
0
  3
Solid line
  72
65
  73
0
  40
0.0
  0
LTYPE
  5
410
  2
DASHDOT
 70
0
  3
Dash Dot ____ _ ____ _
 72
65
 73
4
 40
2.0
 49
1.25
 49
-0.25
 49
0.25
 49
-0.25
  0
LTYPE
  5
411
  2
DASHED
 70
0
  3
Dashed __ __ __ __ __
 72
65
 73
2
 40
0.75
 49
0.5
 49
-0.25
  0
LTYPE
  5
43B
  2
DOTTED
 70
0
  3
Dotted .  .  .  .
 72
65
 73
2
 40
0.2
 49
0.0
 49
-0.2
  0
ENDTAB
  0
TABLE
  2
STYLE
  70
4
  0
STYLE
  2
KICAD
  70
0
  40
0
  41
1
  42
1
  50
0
  71
0
  3
isocp.shx
  0
STYLE
  2
KICADB
  70
0
  40
0
  41
1
  42
1
  50
0
  71
0
  3
isocp.shx
  0
STYLE
  2
KICADI
  70
0
  40
0
  41
1
  42
1
  50
15
  71
0
  3
isocp.shx
  0
STYLE
  2
KICADBI
  70
0
  40
0
  41
1
  42
1
  50
15
  71
0
  3
isocp.shx
  0
ENDTAB
  0
TABLE
  2
LAYER
  70
1
  0
LAYER
  2
BLACK
  70
0
  62
250
  6
CONTINUOUS
  0
ENDTAB
  0
ENDSEC
  0
SECTION
  2
ENTITIES
0
LINE
8
BLACK
6
CONTINUOUS
10
110.3199999999999932
20
-91.5
11
116.6499999999999915
21
-91.5
0
LINE
8
BLACK
6
CONTINUOUS
10
116.6499999999999915
20
-91.5
11
116.6499999999999915
21
-108.5
0
LINE
8
BLACK
6
CONTINUOUS
10
116.6499999999999915
20
-108.5
11
110.3199999999999932
21
-108.5
0
LINE
8
BLACK
6
CONTINUOUS
10
110.3199999999999932
20
-108.5
11
110.3199999999999932
21
-109.5
0
LINE
8
BLACK
6
CONTINUOUS
10
110.3199999999999932
20
-109.5
11
100.3199999999999932
21
-109.5
0
LINE
8
BLACK
6
CONTINUOUS
10
100.3199999999999932
20
-109.5
11
100.3199999999999932
21
-108.5
0
LINE
8
BLACK
6
CONTINUOUS
10
100.3199999999999932
20
-108.5
11
94.
21
-108.5
0
LINE
8
BLACK
6
CONTINUOUS
10
94.
20
-108.5
11
94.
21
-91.5
0
LINE
8
BLACK
6
CONTINUOUS
10
94.
20
-91.5
11
100.3199999999999932
21
-91.5
0
LINE
8
BLACK
6
CONTINUOUS
10
100.3199999999999932
20
-91.5
11
100.3198679999999996
21
-90.5
0
LINE
8
BLACK
6
CONTINUOUS
10
100.3198679999999996
20
-90.5
11
110.3199999999999932
21
-90.5
0
LINE
8
BLACK
6
CONTINUOUS
10
110.3199999999999932
20
-90.5
11
110.3199999999999932
21
-91.5
0
LINE
8
BLACK
6
CONTINUOUS
10
94.3499999999999943
20
-100.6499999999999915
11
94.6499999999999915
21
-100.9499999999999886
0
LINE
8
BLACK
6
CONTINUOUS
10
94.6499999999999915
20
-100.6499999999999915
11
94.3499999999999943
21
-100.9499999999999886
0
LINE
8
BLACK
6
CONTINUOUS
10
94.3499999999999943
20
-102.8999999999999915
11
94.6499999999999915
21
-103.1999999999999886
0
LINE
8
BLACK
6
CONTINUOUS
10
94.6499999999999915
20
-102.8999999999999915
11
94.3499999999999943
21
-103.1999999999999886
0
LINE
8
BLACK
6
CONTINUOUS
10
94.3599999999999994
20
-99.4499999999999886
11
94.6599999999999966
21
-99.75
0
LINE
8
BLACK
6
CONTINUOUS
10
94.6599999999999966
20
-99.4499999999999886
11
94.3599999999999994
21
-99.75
0
LINE
8
BLACK
6
CONTINUOUS
10
94.3924999999999983
20
-97.8999999999999915
11
94.6924999999999955
21
-98.1999999999999886
0
LINE
8
BLACK
6
CONTINUOUS
10
94.6924999999999955
20
-97.8999999999999915
11
94.3924999999999983
21
-98.1999999999999886
0
LINE
8
BLACK
6
CONTINUOUS
10
94.3924999999999983
20
-98.5999999999999943
11
94.6924999999999955
21
-98.8999999999999915
0
LINE
8
BLACK
6
CONTINUOUS
10
94.6924999999999955
20
-98.5999999999999943
11
94.3924999999999983
21
-98.8999999999999915
0
LINE
8
BLACK
6
CONTINUOUS
10
94.4200000000000017
20
-107.769999999999996
11
94.7199999999999989
21
-108.0699999999999932
0
LINE
8
BLACK
6
CONTINUOUS
10
94.7199999999999989
20
-107.769999999999996
11
94.4200000000000017
21
-108.0699999999999932
0
LINE
8
BLACK
6
CONTINUOUS
10
94.4499999999999886
20
-91.8499999999999943
11
94.75
21
-92.1499999999999915
0
LINE
8
BLACK
6
CONTINUOUS
10
94.75
20
-91.8499999999999943
11
94.4499999999999886
21
-92.1499999999999915
0
LINE
8
BLACK
6
CONTINUOUS
10
94.5499999999999972
20
-93.1499999999999915
11
94.8499999999999943
21
-93.4500000000000028
0
LINE
8
BLACK
6
CONTINUOUS
10
94.8499999999999943
20
-93.1499999999999915
11
94.5499999999999972
21
-93.4500000000000028
0
LINE
8
BLACK
6
CONTINUOUS
10
94.5499999999999972
20
-105.1999999999999886
11
94.8499999999999943
21
-105.5
0
LINE
8
BLACK
6
CONTINUOUS
10
94.8499999999999943
20
-105.1999999999999886
11
94.5499999999999972
21
-105.5
0
LINE
8
BLACK
6
CONTINUOUS
10
94.5999999999999943
20
-105.7999999999999972
11
94.8999999999999915
21
-106.0999999999999943
0
LINE
8
BLACK
6
CONTINUOUS
10
94.8999999999999915
20
-105.7999999999999972
11
94.5999999999999943
21
-106.0999999999999943
0
LINE
8
BLACK
6
CONTINUOUS
10
95.1899999999999977
20
-97.3499999999999943
11
95.4899999999999949
21
-97.6499999999999915
0
LINE
8
BLACK
6
CONTINUOUS
10
95.4899999999999949
20
-97.3499999999999943
11
95.1899999999999977
21
-97.6499999999999915
0
LINE
8
BLACK
6
CONTINUOUS
10
95.3199999999999932
20
-99.4499999999999886
11
95.6199999999999903
21
-99.75
0
LINE
8
BLACK
6
CONTINUOUS
10
95.6199999999999903
20
-99.4499999999999886
11
95.3199999999999932
21
-99.75
0
LINE
8
BLACK
6
CONTINUOUS
10
95.7999999999999972
20
-99.8999999999999915
11
96.0999999999999943
21
-100.1999999999999886
0
LINE
8
BLACK
6
CONTINUOUS
10
96.0999999999999943
20
-99.8999999999999915
11
95.7999999999999972
21
-100.1999999999999886
0
LINE
8
BLACK
6
CONTINUOUS
10
95.8499999999999943
20
-101.3699999999999903
11
96.1499999999999915
21
-101.6700000000000017
0
LINE
8
BLACK
6
CONTINUOUS
10
96.1499999999999915
20
-101.3699999999999903
11
95.8499999999999943
21
-101.6700000000000017
0
LINE
8
BLACK
6
CONTINUOUS
10
96.1099999999999994
20
-95.3499999999999943
11
96.4099999999999966
21
-95.6499999999999915
0
LINE
8
BLACK
6
CONTINUOUS
10
96.4099999999999966
20
-95.3499999999999943
11
96.1099999999999994
21
-95.6499999999999915
0
LINE
8
BLACK
6
CONTINUOUS
10
96.1499999999999915
20
-107.789999999999992
11
96.4499999999999886
21
-108.0899999999999892
0
LINE
8
BLACK
6
CONTINUOUS
10
96.4499999999999886
20
-107.789999999999992
11
96.1499999999999915
21
-108.0899999999999892
0
LINE
8
BLACK
6
CONTINUOUS
10
96.1999999999999886
20
-97.3999999999999915
11
96.5
21
-97.6999999999999886
0
LINE
8
BLACK
6
CONTINUOUS
10
96.5
20
-97.3999999999999915
11
96.1999999999999886
21
-97.6999999999999886
0
LINE
8
BLACK
6
CONTINUOUS
10
96.5374999999999943
20
-96.3374999999999915
11
96.8374999999999915
21
-96.6374999999999886
0
LINE
8
BLACK
6
CONTINUOUS
10
96.8374999999999915
20
-96.3374999999999915
11
96.5374999999999943
21
-96.6374999999999886
0
LINE
8
BLACK
6
CONTINUOUS
10
96.6999999999999886
20
-102.3999999999999915
11
97.
21
-102.6999999999999886
0
LINE
8
BLACK
6
CONTINUOUS
10
97.
20
-102.3999999999999915
11
96.6999999999999886
21
-102.6999999999999886
0
LINE
8
BLACK
6
CONTINUOUS
10
96.768777
20
-93.8187769999999972
11
97.0687769999999972
21
-94.1187769999999944
0
LINE
8
BLACK
6
CONTINUOUS
10
97.0687769999999972
20
-93.8187769999999972
11
96.768777
21
-94.1187769999999944
0
LINE
8
BLACK
6
CONTINUOUS
10
96.8499999999999943
20
-97.3999999999999915
11
97.1499999999999915
21
-97.6999999999999886
0
LINE
8
BLACK
6
CONTINUOUS
10
97.1499999999999915
20
-97.3999999999999915
11
96.8499999999999943
21
-97.6999999999999886
0
LINE
8
BLACK
6
CONTINUOUS
10
96.8499999999999943
20
-106.0499999999999972
11
97.1499999999999915
21
-106.3499999999999943
0
LINE
8
BLACK
6
CONTINUOUS
10
97.1499999999999915
20
-106.0499999999999972
11
96.8499999999999943
21
-106.3499999999999943
0
LINE
8
BLACK
6
CONTINUOUS
10
97.0499999999999972
20
-104.5074999999999932
11
97.3499999999999943
21
-104.8074999999999903
0
LINE
8
BLACK
6
CONTINUOUS
10
97.3499999999999943
20
-104.5074999999999932
11
97.0499999999999972
21
-104.8074999999999903
0
LINE
8
BLACK
6
CONTINUOUS
10
97.0999999999999943
20
-95.8499999999999943
11
97.3999999999999915
21
-96.1499999999999915
0
LINE
8
BLACK
6
CONTINUOUS
10
97.3999999999999915
20
-95.8499999999999943
11
97.0999999999999943
21
-96.1499999999999915
0
LINE
8
BLACK
6
CONTINUOUS
10
97.0999999999999943
20
-107.5649999999999977
11
97.3999999999999915
21
-107.8649999999999949
0
LINE
8
BLACK
6
CONTINUOUS
10
97.3999999999999915
20
-107.5649999999999977
11
97.0999999999999943
21
-107.8649999999999949
0
LINE
8
BLACK
6
CONTINUOUS
10
97.25
20
-91.7999999999999972
11
97.5499999999999972
21
-92.0999999999999943
0
LINE
8
BLACK
6
CONTINUOUS
10
97.5499999999999972
20
-91.7999999999999972
11
97.25
21
-92.0999999999999943
0
LINE
8
BLACK
6
CONTINUOUS
10
97.3499999999999943
20
-93.0499999999999972
11
97.6499999999999915
21
-93.3499999999999943
0
LINE
8
BLACK
6
CONTINUOUS
10
97.6499999999999915
20
-93.0499999999999972
11
97.3499999999999943
21
-93.3499999999999943
0
LINE
8
BLACK
6
CONTINUOUS
10
97.4200000000000017
20
-100.539999999999992
11
97.7199999999999989
21
-100.8399999999999892
0
LINE
8
BLACK
6
CONTINUOUS
10
97.7199999999999989
20
-100.539999999999992
11
97.4200000000000017
21
-100.8399999999999892
0
LINE
8
BLACK
6
CONTINUOUS
10
97.5
20
-98.8499999999999943
11
97.7999999999999972
21
-99.1499999999999915
0
LINE
8
BLACK
6
CONTINUOUS
10
97.7999999999999972
20
-98.8499999999999943
11
97.5
21
-99.1499999999999915
0
LINE
8
BLACK
6
CONTINUOUS
10
97.5
20
-101.3499999999999943
11
97.7999999999999972
21
-101.6499999999999915
0
LINE
8
BLACK
6
CONTINUOUS
10
97.7999999999999972
20
-101.3499999999999943
11
97.5
21
-101.6499999999999915
0
LINE
8
BLACK
6
CONTINUOUS
10
97.6999999999999886
20
-105.8699999999999903
11
98.
21
-106.1700000000000017
0
LINE
8
BLACK
6
CONTINUOUS
10
98.
20
-105.8699999999999903
11
97.6999999999999886
21
-106.1700000000000017
0
LINE
8
BLACK
6
CONTINUOUS
10
97.75
20
-104.5074999999999932
11
98.0499999999999972
21
-104.8074999999999903
0
LINE
8
BLACK
6
CONTINUOUS
10
98.0499999999999972
20
-104.5074999999999932
11
97.75
21
-104.8074999999999903
0
LINE
8
BLACK
6
CONTINUOUS
10
97.8000019999999921
20
-96.8499999999999943
11
98.1000019999999893
21
-97.1499999999999915
0
LINE
8
BLACK
6
CONTINUOUS
10
98.1000019999999893
20
-96.8499999999999943
11
97.8000019999999921
21
-97.1499999999999915
0
LINE
8
BLACK
6
CONTINUOUS
10
98.039999999999992
20
-107.5649999999999977
11
98.3399999999999892
21
-107.8649999999999949
0
LINE
8
BLACK
6
CONTINUOUS
10
98.3399999999999892
20
-107.5649999999999977
11
98.039999999999992
21
-107.8649999999999949
0
LINE
8
BLACK
6
CONTINUOUS
10
98.1999999999999886
20
-103.0999999999999943
11
98.5
21
-103.3999999999999915
0
LINE
8
BLACK
6
CONTINUOUS
10
98.5
20
-103.0999999999999943
11
98.1999999999999886
21
-103.3999999999999915
0
LINE
8
BLACK
6
CONTINUOUS
10
98.3221249999999998
20
-97.0228879999999947
11
98.6221249999999969
21
-97.3228879999999918
0
LINE
8
BLACK
6
CONTINUOUS
10
98.6221249999999969
20
-97.0228879999999947
11
98.3221249999999998
21
-97.3228879999999918
0
LINE
8
BLACK
6
CONTINUOUS
10
98.3499999999999943
20
-105.8999999999999915
11
98.6499999999999915
21
-106.1999999999999886
0
LINE
8
BLACK
6
CONTINUOUS
10
98.6499999999999915
20
-105.8999999999999915
11
98.3499999999999943
21
-106.1999999999999886
0
LINE
8
BLACK
6
CONTINUOUS
10
98.4200000000000017
20
-94.6799999999999926
11
98.7199999999999989
21
-94.9799999999999898
0
LINE
8
BLACK
6
CONTINUOUS
10
98.7199999999999989
20
-94.6799999999999926
11
98.4200000000000017
21
-94.9799999999999898
0
LINE
8
BLACK
6
CONTINUOUS
10
98.8499999999999943
20
-100.4499999999999886
11
99.1499999999999915
21
-100.75
0
LINE
8
BLACK
6
CONTINUOUS
10
99.1499999999999915
20
-100.4499999999999886
11
98.8499999999999943
21
-100.75
0
LINE
8
BLACK
6
CONTINUOUS
10
98.8499999999999943
20
-101.1499999999999915
11
99.1499999999999915
21
-101.4499999999999886
0
LINE
8
BLACK
6
CONTINUOUS
10
99.1499999999999915
20
-101.1499999999999915
11
98.8499999999999943
21
-101.4499999999999886
0
LINE
8
BLACK
6
CONTINUOUS
10
98.8523390000000006
20
-101.7758419999999973
11
99.1523389999999978
21
-102.0758419999999944
0
LINE
8
BLACK
6
CONTINUOUS
10
99.1523389999999978
20
-101.7758419999999973
11
98.8523390000000006
21
-102.0758419999999944
0
LINE
8
BLACK
6
CONTINUOUS
10
98.8999999999999915
20
-98.8499999999999943
11
99.1999999999999886
21
-99.1499999999999915
0
LINE
8
BLACK
6
CONTINUOUS
10
99.1999999999999886
20
-98.8499999999999943
11
98.8999999999999915
21
-99.1499999999999915
0
LINE
8
BLACK
6
CONTINUOUS
10
99.1875
20
-105.8999999999999915
11
99.4874999999999972
21
-106.1999999999999886
0
LINE
8
BLACK
6
CONTINUOUS
10
99.4874999999999972
20
-105.8999999999999915
11
99.1875
21
-106.1999999999999886
0
LINE
8
BLACK
6
CONTINUOUS
10
99.5499999999999972
20
-94.5999999999999943
11
99.8499999999999943
21
-94.8999999999999915
0
LINE
8
BLACK
6
CONTINUOUS
10
99.8499999999999943
20
-94.5999999999999943
11
99.5499999999999972
21
-94.8999999999999915
0
LINE
8
BLACK
6
CONTINUOUS
10
99.5499999999999972
20
-106.9899999999999949
11
99.8499999999999943
21
-107.289999999999992
0
LINE
8
BLACK
6
CONTINUOUS
10
99.8499999999999943
20
-106.9899999999999949
11
99.5499999999999972
21
-107.289999999999992
0
LINE
8
BLACK
6
CONTINUOUS
10
99.7099999999999937
20
-93.4200000000000017
11
100.0099999999999909
21
-93.7199999999999989
0
LINE
8
BLACK
6
CONTINUOUS
10
100.0099999999999909
20
-93.4200000000000017
11
99.7099999999999937
21
-93.7199999999999989
0
LINE
8
BLACK
6
CONTINUOUS
10
99.75
20
-106.1499999999999915
11
100.0499999999999972
21
-106.4499999999999886
0
LINE
8
BLACK
6
CONTINUOUS
10
100.0499999999999972
20
-106.1499999999999915
11
99.75
21
-106.4499999999999886
0
LINE
8
BLACK
6
CONTINUOUS
10
99.8199999999999932
20
-91.8499999999999943
11
100.1199999999999903
21
-92.1499999999999915
0
LINE
8
BLACK
6
CONTINUOUS
10
100.1199999999999903
20
-91.8499999999999943
11
99.8199999999999932
21
-92.1499999999999915
0
LINE
8
BLACK
6
CONTINUOUS
10
100.4499999999999886
20
-107.2999999999999972
11
100.75
21
-107.5999999999999943
0
LINE
8
BLACK
6
CONTINUOUS
10
100.75
20
-107.2999999999999972
11
100.4499999999999886
21
-107.5999999999999943
0
LINE
8
BLACK
6
CONTINUOUS
10
100.5999999999999943
20
-96.0499999999999972
11
100.8999999999999915
21
-96.3499999999999943
0
LINE
8
BLACK
6
CONTINUOUS
10
100.8999999999999915
20
-96.0499999999999972
11
100.5999999999999943
21
-96.3499999999999943
0
LINE
8
BLACK
6
CONTINUOUS
10
100.8999999999999915
20
-105.4499999999999886
11
101.1999999999999886
21
-105.75
0
LINE
8
BLACK
6
CONTINUOUS
10
101.1999999999999886
20
-105.4499999999999886
11
100.8999999999999915
21
-105.75
0
LINE
8
BLACK
6
CONTINUOUS
10
101.1999999999999886
20
-97.6999999999999886
11
101.5
21
-98.
0
LINE
8
BLACK
6
CONTINUOUS
10
101.5
20
-97.6999999999999886
11
101.1999999999999886
21
-98.
0
LINE
8
BLACK
6
CONTINUOUS
10
101.25
20
-102.8128889999999984
11
101.5499999999999972
21
-103.1128889999999956
0
LINE
8
BLACK
6
CONTINUOUS
10
101.5499999999999972
20
-102.8128889999999984
11
101.25
21
-103.1128889999999956
0
LINE
8
BLACK
6
CONTINUOUS
10
101.25
20
-103.4499999999999886
11
101.5499999999999972
21
-103.75
0
LINE
8
BLACK
6
CONTINUOUS
10
101.5499999999999972
20
-103.4499999999999886
11
101.25
21
-103.75
0
LINE
8
BLACK
6
CONTINUOUS
10
101.5456889999999959
20
-105.60380099999999
11
101.845688999999993
21
-105.9038010000000014
0
LINE
8
BLACK
6
CONTINUOUS
10
101.845688999999993
20
-105.60380099999999
11
101.5456889999999959
21
-105.9038010000000014
0
LINE
8
BLACK
6
CONTINUOUS
10
101.8499999999999943
20
-107.25
11
102.1499999999999915
21
-107.5499999999999972
0
LINE
8
BLACK
6
CONTINUOUS
10
102.1499999999999915
20
-107.25
11
101.8499999999999943
21
-107.5499999999999972
0
LINE
8
BLACK
6
CONTINUOUS
10
101.9749999999999943
20
-101.7999999999999972
11
102.2749999999999915
21
-102.0999999999999943
0
LINE
8
BLACK
6
CONTINUOUS
10
102.2749999999999915
20
-101.7999999999999972
11
101.9749999999999943
21
-102.0999999999999943
0
LINE
8
BLACK
6
CONTINUOUS
10
101.9809079999999994
20
-99.3586129999999912
11
102.2809079999999966
21
-99.6586130000000026
0
LINE
8
BLACK
6
CONTINUOUS
10
102.2809079999999966
20
-99.3586129999999912
11
101.9809079999999994
21
-99.6586130000000026
0
LINE
8
BLACK
6
CONTINUOUS
10
102.0014059999999887
20
-98.7823410000000024
11
102.3014060000000001
21
-99.0823409999999996
0
LINE
8
BLACK
6
CONTINUOUS
10
102.3014060000000001
20
-98.7823410000000024
11
102.0014059999999887
21
-99.0823409999999996
0
LINE
8
BLACK
6
CONTINUOUS
10
102.1999999999999886
20
-99.8999999999999915
11
102.5
21
-100.1999999999999886
0
LINE
8
BLACK
6
CONTINUOUS
10
102.5
20
-99.8999999999999915
11
102.1999999999999886
21
-100.1999999999999886
0
LINE
8
BLACK
6
CONTINUOUS
10
102.1999999999999886
20
-104.0999999999999943
11
102.5
21
-104.3999999999999915
0
LINE
8
BLACK
6
CONTINUOUS
10
102.5
20
-104.0999999999999943
11
102.1999999999999886
21
-104.3999999999999915
0
LINE
8
BLACK
6
CONTINUOUS
10
102.25
20
-100.6999999999999886
11
102.5499999999999972
21
-101.
0
LINE
8
BLACK
6
CONTINUOUS
10
102.5499999999999972
20
-100.6999999999999886
11
102.25
21
-101.
0
LINE
8
BLACK
6
CONTINUOUS
10
102.3499999999999943
20
-93.7000000000000028
11
102.6499999999999915
21
-94.
0
LINE
8
BLACK
6
CONTINUOUS
10
102.6499999999999915
20
-93.7000000000000028
11
102.3499999999999943
21
-94.
0
LINE
8
BLACK
6
CONTINUOUS
10
102.5499999999999972
20
-98.5999999999999943
11
102.8499999999999943
21
-98.8999999999999915
0
LINE
8
BLACK
6
CONTINUOUS
10
102.8499999999999943
20
-98.5999999999999943
11
102.5499999999999972
21
-98.8999999999999915
0
LINE
8
BLACK
6
CONTINUOUS
10
102.6499999999999915
20
-99.1999999999999886
11
102.9499999999999886
21
-99.5
0
LINE
8
BLACK
6
CONTINUOUS
10
102.9499999999999886
20
-99.1999999999999886
11
102.6499999999999915
21
-99.5
0
LINE
8
BLACK
6
CONTINUOUS
10
102.6499999999999915
20
-107.1999999999999886
11
102.9499999999999886
21
-107.5
0
LINE
8
BLACK
6
CONTINUOUS
10
102.9499999999999886
20
-107.1999999999999886
11
102.6499999999999915
21
-107.5
0
LINE
8
BLACK
6
CONTINUOUS
10
102.6999999999999886
20
-94.1499999999999915
11
103.
21
-94.4499999999999886
0
LINE
8
BLACK
6
CONTINUOUS
10
103.
20
-94.1499999999999915
11
102.6999999999999886
21
-94.4499999999999886
0
LINE
8
BLACK
6
CONTINUOUS
10
102.7999999999999972
20
-106.6999999999999886
11
103.0999999999999943
21
-107.
0
LINE
8
BLACK
6
CONTINUOUS
10
103.0999999999999943
20
-106.6999999999999886
11
102.7999999999999972
21
-107.
0
LINE
8
BLACK
6
CONTINUOUS
10
103.
20
-95.6999999999999886
11
103.2999999999999972
21
-96.
0
LINE
8
BLACK
6
CONTINUOUS
10
103.2999999999999972
20
-95.6999999999999886
11
103.
21
-96.
0
LINE
8
BLACK
6
CONTINUOUS
10
103.0499999999999972
20
-101.25
11
103.3499999999999943
21
-101.5499999999999972
0
LINE
8
BLACK
6
CONTINUOUS
10
103.3499999999999943
20
-101.25
11
103.0499999999999972
21
-101.5499999999999972
0
LINE
8
BLACK
6
CONTINUOUS
10
103.2999999999999972
20
-103.8499999999999943
11
103.5999999999999943
21
-104.1499999999999915
0
LINE
8
BLACK
6
CONTINUOUS
10
103.5999999999999943
20
-103.8499999999999943
11
103.2999999999999972
21
-104.1499999999999915
0
LINE
8
BLACK
6
CONTINUOUS
10
103.3900000000000006
20
-98.9799999999999898
11
103.6899999999999977
21
-99.2800000000000011
0
LINE
8
BLACK
6
CONTINUOUS
10
103.6899999999999977
20
-98.9799999999999898
11
103.3900000000000006
21
-99.2800000000000011
0
LINE
8
BLACK
6
CONTINUOUS
10
103.3999999999999915
20
-94.1499999999999915
11
103.6999999999999886
21
-94.4499999999999886
0
LINE
8
BLACK
6
CONTINUOUS
10
103.6999999999999886
20
-94.1499999999999915
11
103.3999999999999915
21
-94.4499999999999886
0
LINE
8
BLACK
6
CONTINUOUS
10
104.1999999999999886
20
-104.6999999999999886
11
104.5
21
-105.
0
LINE
8
BLACK
6
CONTINUOUS
10
104.5
20
-104.6999999999999886
11
104.1999999999999886
21
-105.
0
LINE
8
BLACK
6
CONTINUOUS
10
104.2399999999999949
20
-98.5799999999999983
11
104.539999999999992
21
-98.8799999999999955
0
LINE
8
BLACK
6
CONTINUOUS
10
104.539999999999992
20
-98.5799999999999983
11
104.2399999999999949
21
-98.8799999999999955
0
LINE
8
BLACK
6
CONTINUOUS
10
104.25
20
-94.3499999999999943
11
104.5499999999999972
21
-94.6499999999999915
0
LINE
8
BLACK
6
CONTINUOUS
10
104.5499999999999972
20
-94.3499999999999943
11
104.25
21
-94.6499999999999915
0
LINE
8
BLACK
6
CONTINUOUS
10
104.289999999999992
20
-102.1999999999999886
11
104.5899999999999892
21
-102.5
0
LINE
8
BLACK
6
CONTINUOUS
10
104.5899999999999892
20
-102.1999999999999886
11
104.289999999999992
21
-102.5
0
LINE
8
BLACK
6
CONTINUOUS
10
105.1999999999999886
20
-94.1499999999999915
11
105.5
21
-94.4499999999999886
0
LINE
8
BLACK
6
CONTINUOUS
10
105.5
20
-94.1499999999999915
11
105.1999999999999886
21
-94.4499999999999886
0
LINE
8
BLACK
6
CONTINUOUS
10
105.25
20
-103.4099999999999966
11
105.5499999999999972
21
-103.7099999999999937
0
LINE
8
BLACK
6
CONTINUOUS
10
105.5499999999999972
20
-103.4099999999999966
11
105.25
21
-103.7099999999999937
0
LINE
8
BLACK
6
CONTINUOUS
10
105.5499999999999972
20
-104.75
11
105.8499999999999943
21
-105.0499999999999972
0
LINE
8
BLACK
6
CONTINUOUS
10
105.8499999999999943
20
-104.75
11
105.5499999999999972
21
-105.0499999999999972
0
LINE
8
BLACK
6
CONTINUOUS
10
105.6499999999999915
20
-92.1749999999999972
11
105.9499999999999886
21
-92.4749999999999943
0
LINE
8
BLACK
6
CONTINUOUS
10
105.9499999999999886
20
-92.1749999999999972
11
105.6499999999999915
21
-92.4749999999999943
0
LINE
8
BLACK
6
CONTINUOUS
10
105.7999999999999972
20
-106.1401479999999964
11
106.0999999999999943
21
-106.4401479999999935
0
LINE
8
BLACK
6
CONTINUOUS
10
106.0999999999999943
20
-106.1401479999999964
11
105.7999999999999972
21
-106.4401479999999935
0
LINE
8
BLACK
6
CONTINUOUS
10
105.9499999999999886
20
-98.75
11
106.25
21
-99.0499999999999972
0
LINE
8
BLACK
6
CONTINUOUS
10
106.25
20
-98.75
11
105.9499999999999886
21
-99.0499999999999972
0
LINE
8
BLACK
6
CONTINUOUS
10
105.9499999999999886
20
-99.4499999999999886
11
106.25
21
-99.75
0
LINE
8
BLACK
6
CONTINUOUS
10
106.25
20
-99.4499999999999886
11
105.9499999999999886
21
-99.75
0
LINE
8
BLACK
6
CONTINUOUS
10
106.2749999999999915
20
-94.125
11
106.5749999999999886
21
-94.4249999999999972
0
LINE
8
BLACK
6
CONTINUOUS
10
106.5749999999999886
20
-94.125
11
106.2749999999999915
21
-94.4249999999999972
0
LINE
8
BLACK
6
CONTINUOUS
10
106.3999999999999915
20
-106.4585919999999959
11
106.6999999999999886
21
-106.758591999999993
0
LINE
8
BLACK
6
CONTINUOUS
10
106.6999999999999886
20
-106.4585919999999959
11
106.3999999999999915
21
-106.758591999999993
0
LINE
8
BLACK
6
CONTINUOUS
10
106.3999999999999915
20
-107.8499999999999943
11
106.6999999999999886
21
-108.1499999999999915
0
LINE
8
BLACK
6
CONTINUOUS
10
106.6999999999999886
20
-107.8499999999999943
11
106.3999999999999915
21
-108.1499999999999915
0
LINE
8
BLACK
6
CONTINUOUS
10
106.4000479999999982
20
-107.1499999999999915
11
106.7000479999999953
21
-107.4499999999999886
0
LINE
8
BLACK
6
CONTINUOUS
10
106.7000479999999953
20
-107.1499999999999915
11
106.4000479999999982
21
-107.4499999999999886
0
LINE
8
BLACK
6
CONTINUOUS
10
106.5600000000000023
20
-95.6700000000000017
11
106.8599999999999994
21
-95.9699999999999989
0
LINE
8
BLACK
6
CONTINUOUS
10
106.8599999999999994
20
-95.6700000000000017
11
106.5600000000000023
21
-95.9699999999999989
0
LINE
8
BLACK
6
CONTINUOUS
10
106.7199999999999989
20
-100.8999999999999915
11
107.019999999999996
21
-101.1999999999999886
0
LINE
8
BLACK
6
CONTINUOUS
10
107.019999999999996
20
-100.8999999999999915
11
106.7199999999999989
21
-101.1999999999999886
0
LINE
8
BLACK
6
CONTINUOUS
10
106.7999999999999972
20
-92.2000000000000028
11
107.0999999999999943
21
-92.5
0
LINE
8
BLACK
6
CONTINUOUS
10
107.0999999999999943
20
-92.2000000000000028
11
106.7999999999999972
21
-92.5
0
LINE
8
BLACK
6
CONTINUOUS
10
106.8199999999999932
20
-102.0999999999999943
11
107.1199999999999903
21
-102.3999999999999915
0
LINE
8
BLACK
6
CONTINUOUS
10
107.1199999999999903
20
-102.0999999999999943
11
106.8199999999999932
21
-102.3999999999999915
0
LINE
8
BLACK
6
CONTINUOUS
10
106.9699999999999989
20
-98.6499999999999915
11
107.269999999999996
21
-98.9499999999999886
0
LINE
8
BLACK
6
CONTINUOUS
10
107.269999999999996
20
-98.6499999999999915
11
106.9699999999999989
21
-98.9499999999999886
0
LINE
8
BLACK
6
CONTINUOUS
10
107.1499999999999915
20
-92.8575000000000017
11
107.4499999999999886
21
-93.1574999999999989
0
LINE
8
BLACK
6
CONTINUOUS
10
107.4499999999999886
20
-92.8575000000000017
11
107.1499999999999915
21
-93.1574999999999989
0
LINE
8
BLACK
6
CONTINUOUS
10
107.2452729999999974
20
-104.2027269999999959
11
107.5452729999999946
21
-104.502726999999993
0
LINE
8
BLACK
6
CONTINUOUS
10
107.5452729999999946
20
-104.2027269999999959
11
107.2452729999999974
21
-104.502726999999993
0
LINE
8
BLACK
6
CONTINUOUS
10
107.2999999999999972
20
-104.75
11
107.5999999999999943
21
-105.0499999999999972
0
LINE
8
BLACK
6
CONTINUOUS
10
107.5999999999999943
20
-104.75
11
107.2999999999999972
21
-105.0499999999999972
0
LINE
8
BLACK
6
CONTINUOUS
10
107.4899999999999949
20
-100.9099999999999966
11
107.789999999999992
21
-101.2099999999999937
0
LINE
8
BLACK
6
CONTINUOUS
10
107.789999999999992
20
-100.9099999999999966
11
107.4899999999999949
21
-101.2099999999999937
0
LINE
8
BLACK
6
CONTINUOUS
10
107.8499999999999943
20
-91.8999999999999915
11
108.1499999999999915
21
-92.2000000000000028
0
LINE
8
BLACK
6
CONTINUOUS
10
108.1499999999999915
20
-91.8999999999999915
11
107.8499999999999943
21
-92.2000000000000028
0
LINE
8
BLACK
6
CONTINUOUS
10
108.1799999999999926
20
-99.3699999999999903
11
108.4799999999999898
21
-99.6700000000000017
0
LINE
8
BLACK
6
CONTINUOUS
10
108.4799999999999898
20
-99.3699999999999903
11
108.1799999999999926
21
-99.6700000000000017
0
LINE
8
BLACK
6
CONTINUOUS
10
108.3499999999999943
20
-106.
11
108.6499999999999915
21
-106.2999999999999972
0
LINE
8
BLACK
6
CONTINUOUS
10
108.6499999999999915
20
-106.
11
108.3499999999999943
21
-106.2999999999999972
0
LINE
8
BLACK
6
CONTINUOUS
10
108.4099999999999966
20
-95.4399999999999977
11
108.7099999999999937
21
-95.7399999999999949
0
LINE
8
BLACK
6
CONTINUOUS
10
108.7099999999999937
20
-95.4399999999999977
11
108.4099999999999966
21
-95.7399999999999949
0
LINE
8
BLACK
6
CONTINUOUS
10
108.4499999999999886
20
-96.3999999999999915
11
108.75
21
-96.6999999999999886
0
LINE
8
BLACK
6
CONTINUOUS
10
108.75
20
-96.3999999999999915
11
108.4499999999999886
21
-96.6999999999999886
0
LINE
8
BLACK
6
CONTINUOUS
10
108.5499999999999972
20
-92.0999999999999943
11
108.8499999999999943
21
-92.3999999999999915
0
LINE
8
BLACK
6
CONTINUOUS
10
108.8499999999999943
20
-92.0999999999999943
11
108.5499999999999972
21
-92.3999999999999915
0
LINE
8
BLACK
6
CONTINUOUS
10
108.5499999999999972
20
-102.0799999999999983
11
108.8499999999999943
21
-102.3799999999999955
0
LINE
8
BLACK
6
CONTINUOUS
10
108.8499999999999943
20
-102.0799999999999983
11
108.5499999999999972
21
-102.3799999999999955
0
LINE
8
BLACK
6
CONTINUOUS
10
108.9499999999999886
20
-94.125
11
109.25
21
-94.4249999999999972
0
LINE
8
BLACK
6
CONTINUOUS
10
109.25
20
-94.125
11
108.9499999999999886
21
-94.4249999999999972
0
LINE
8
BLACK
6
CONTINUOUS
10
109.25
20
-104.5999999999999943
11
109.5499999999999972
21
-104.8999999999999915
0
LINE
8
BLACK
6
CONTINUOUS
10
109.5499999999999972
20
-104.5999999999999943
11
109.25
21
-104.8999999999999915
0
LINE
8
BLACK
6
CONTINUOUS
10
109.3099999999999881
20
-98.6599999999999966
11
109.6099999999999994
21
-98.9599999999999937
0
LINE
8
BLACK
6
CONTINUOUS
10
109.6099999999999994
20
-98.6599999999999966
11
109.3099999999999881
21
-98.9599999999999937
0
LINE
8
BLACK
6
CONTINUOUS
10
109.5499999999999972
20
-103.0999999999999943
11
109.8499999999999943
21
-103.3999999999999915
0
LINE
8
BLACK
6
CONTINUOUS
10
109.8499999999999943
20
-103.0999999999999943
11
109.5499999999999972
21
-103.3999999999999915
0
LINE
8
BLACK
6
CONTINUOUS
10
109.5499999999999972
20
-107.75
11
109.8499999999999943
21
-108.0499999999999972
0
LINE
8
BLACK
6
CONTINUOUS
10
109.8499999999999943
20
-107.75
11
109.5499999999999972
21
-108.0499999999999972
0
LINE
8
BLACK
6
CONTINUOUS
10
109.6999999999999886
20
-94.1499999999999915
11
110.
21
-94.4499999999999886
0
LINE
8
BLACK
6
CONTINUOUS
10
110.
20
-94.1499999999999915
11
109.6999999999999886
21
-94.4499999999999886
0
LINE
8
BLACK
6
CONTINUOUS
10
109.8999999999999915
20
-104.5999999999999943
11
110.1999999999999886
21
-104.8999999999999915
0
LINE
8
BLACK
6
CONTINUOUS
10
110.1999999999999886
20
-104.5999999999999943
11
109.8999999999999915
21
-104.8999999999999915
0
LINE
8
BLACK
6
CONTINUOUS
10
109.9499999999999886
20
-96.3999999999999915
11
110.25
21
-96.6999999999999886
0
LINE
8
BLACK
6
CONTINUOUS
10
110.25
20
-96.3999999999999915
11
109.9499999999999886
21
-96.6999999999999886
0
LINE
8
BLACK
6
CONTINUOUS
10
110.
20
-95.3199999999999932
11
110.2999999999999972
21
-95.6199999999999903
0
LINE
8
BLACK
6
CONTINUOUS
10
110.2999999999999972
20
-95.3199999999999932
11
110.
21
-95.6199999999999903
0
LINE
8
BLACK
6
CONTINUOUS
10
110.0019810000000007
20
-106.2549999999999955
11
110.3019809999999978
21
-106.5549999999999926
0
LINE
8
BLACK
6
CONTINUOUS
10
110.3019809999999978
20
-106.2549999999999955
11
110.0019810000000007
21
-106.5549999999999926
0
LINE
8
BLACK
6
CONTINUOUS
10
110.6361189999999937
20
-107.0510029999999944
11
110.9361189999999908
21
-107.3510029999999915
0
LINE
8
BLACK
6
CONTINUOUS
10
110.9361189999999908
20
-107.0510029999999944
11
110.6361189999999937
21
-107.3510029999999915
0
LINE
8
BLACK
6
CONTINUOUS
10
110.6499999999999915
20
-107.8499999999999943
11
110.9499999999999886
21
-108.1499999999999915
0
LINE
8
BLACK
6
CONTINUOUS
10
110.9499999999999886
20
-107.8499999999999943
11
110.6499999999999915
21
-108.1499999999999915
0
LINE
8
BLACK
6
CONTINUOUS
10
110.75
20
-101.0499999999999972
11
111.0499999999999972
21
-101.3499999999999943
0
LINE
8
BLACK
6
CONTINUOUS
10
111.0499999999999972
20
-101.0499999999999972
11
110.75
21
-101.3499999999999943
0
LINE
8
BLACK
6
CONTINUOUS
10
110.7999999999999972
20
-104.2199999999999989
11
111.0999999999999943
21
-104.519999999999996
0
LINE
8
BLACK
6
CONTINUOUS
10
111.0999999999999943
20
-104.2199999999999989
11
110.7999999999999972
21
-104.519999999999996
0
LINE
8
BLACK
6
CONTINUOUS
10
110.9499999999999886
20
-94.1499999999999915
11
111.25
21
-94.4499999999999886
0
LINE
8
BLACK
6
CONTINUOUS
10
111.25
20
-94.1499999999999915
11
110.9499999999999886
21
-94.4499999999999886
0
LINE
8
BLACK
6
CONTINUOUS
10
111.1014720000000011
20
-100.2014719999999954
11
111.4014719999999983
21
-100.5014719999999926
0
LINE
8
BLACK
6
CONTINUOUS
10
111.4014719999999983
20
-100.2014719999999954
11
111.1014720000000011
21
-100.5014719999999926
0
LINE
8
BLACK
6
CONTINUOUS
10
111.1014720000000011
20
-101.8985279999999989
11
111.4014719999999983
21
-102.198527999999996
0
LINE
8
BLACK
6
CONTINUOUS
10
111.4014719999999983
20
-101.8985279999999989
11
111.1014720000000011
21
-102.198527999999996
0
LINE
8
BLACK
6
CONTINUOUS
10
111.5999999999999943
20
-106.4499999999999886
11
111.8999999999999915
21
-106.75
0
LINE
8
BLACK
6
CONTINUOUS
10
111.8999999999999915
20
-106.4499999999999886
11
111.5999999999999943
21
-106.75
0
LINE
8
BLACK
6
CONTINUOUS
10
111.6999999999999886
20
-104.7999999999999972
11
112.
21
-105.0999999999999943
0
LINE
8
BLACK
6
CONTINUOUS
10
112.
20
-104.7999999999999972
11
111.6999999999999886
21
-105.0999999999999943
0
LINE
8
BLACK
6
CONTINUOUS
10
111.75
20
-96.3999999999999915
11
112.0499999999999972
21
-96.6999999999999886
0
LINE
8
BLACK
6
CONTINUOUS
10
112.0499999999999972
20
-96.3999999999999915
11
111.75
21
-96.6999999999999886
0
LINE
8
BLACK
6
CONTINUOUS
10
111.9499999999999886
20
-99.8499999999999943
11
112.25
21
-100.1499999999999915
0
LINE
8
BLACK
6
CONTINUOUS
10
112.25
20
-99.8499999999999943
11
111.9499999999999886
21
-100.1499999999999915
0
LINE
8
BLACK
6
CONTINUOUS
10
111.9499999999999886
20
-102.25
11
112.25
21
-102.5499999999999972
0
LINE
8
BLACK
6
CONTINUOUS
10
112.25
20
-102.25
11
111.9499999999999886
21
-102.5499999999999972
0
LINE
8
BLACK
6
CONTINUOUS
10
112.289999999999992
20
-95.6299999999999955
11
112.5899999999999892
21
-95.9299999999999926
0
LINE
8
BLACK
6
CONTINUOUS
10
112.5899999999999892
20
-95.6299999999999955
11
112.289999999999992
21
-95.9299999999999926
0
LINE
8
BLACK
6
CONTINUOUS
10
112.3999999999999915
20
-103.0999999999999943
11
112.6999999999999886
21
-103.3999999999999915
0
LINE
8
BLACK
6
CONTINUOUS
10
112.6999999999999886
20
-103.0999999999999943
11
112.3999999999999915
21
-103.3999999999999915
0
LINE
8
BLACK
6
CONTINUOUS
10
112.4424999999999955
20
-107.7999999999999972
11
112.7424999999999926
21
-108.0999999999999943
0
LINE
8
BLACK
6
CONTINUOUS
10
112.7424999999999926
20
-107.7999999999999972
11
112.4424999999999955
21
-108.0999999999999943
0
LINE
8
BLACK
6
CONTINUOUS
10
112.5999999999999943
20
-104.7999999999999972
11
112.8999999999999915
21
-105.0999999999999943
0
LINE
8
BLACK
6
CONTINUOUS
10
112.8999999999999915
20
-104.7999999999999972
11
112.5999999999999943
21
-105.0999999999999943
0
LINE
8
BLACK
6
CONTINUOUS
10
112.7985279999999904
20
-100.2014719999999954
11
113.0985280000000017
21
-100.5014719999999926
0
LINE
8
BLACK
6
CONTINUOUS
10
113.0985280000000017
20
-100.2014719999999954
11
112.7985279999999904
21
-100.5014719999999926
0
LINE
8
BLACK
6
CONTINUOUS
10
112.7985279999999904
20
-101.8985279999999989
11
113.0985280000000017
21
-102.198527999999996
0
LINE
8
BLACK
6
CONTINUOUS
10
113.0985280000000017
20
-101.8985279999999989
11
112.7985279999999904
21
-102.198527999999996
0
LINE
8
BLACK
6
CONTINUOUS
10
112.8499999999999943
20
-92.1349999999999909
11
113.1499999999999915
21
-92.4350000000000023
0
LINE
8
BLACK
6
CONTINUOUS
10
113.1499999999999915
20
-92.1349999999999909
11
112.8499999999999943
21
-92.4350000000000023
0
LINE
8
BLACK
6
CONTINUOUS
10
112.8999999999999915
20
-92.7999999999999972
11
113.1999999999999886
21
-93.0999999999999943
0
LINE
8
BLACK
6
CONTINUOUS
10
113.1999999999999886
20
-92.7999999999999972
11
112.8999999999999915
21
-93.0999999999999943
0
LINE
8
BLACK
6
CONTINUOUS
10
112.8999999999999915
20
-98.5999999999999943
11
113.1999999999999886
21
-98.8999999999999915
0
LINE
8
BLACK
6
CONTINUOUS
10
113.1999999999999886
20
-98.5999999999999943
11
112.8999999999999915
21
-98.8999999999999915
0
LINE
8
BLACK
6
CONTINUOUS
10
112.9541339999999963
20
-106.5799999999999983
11
113.2541339999999934
21
-106.8799999999999955
0
LINE
8
BLACK
6
CONTINUOUS
10
113.2541339999999934
20
-106.5799999999999983
11
112.9541339999999963
21
-106.8799999999999955
0
LINE
8
BLACK
6
CONTINUOUS
10
113.1499999999999915
20
-101.0499999999999972
11
113.4499999999999886
21
-101.3499999999999943
0
LINE
8
BLACK
6
CONTINUOUS
10
113.4499999999999886
20
-101.0499999999999972
11
113.1499999999999915
21
-101.3499999999999943
0
LINE
8
BLACK
6
CONTINUOUS
10
113.5499999999999972
20
-92.1424999999999983
11
113.8499999999999943
21
-92.4424999999999955
0
LINE
8
BLACK
6
CONTINUOUS
10
113.8499999999999943
20
-92.1424999999999983
11
113.5499999999999972
21
-92.4424999999999955
0
LINE
8
BLACK
6
CONTINUOUS
10
113.6999999999999886
20
-96.1999999999999886
11
114.
21
-96.5
0
LINE
8
BLACK
6
CONTINUOUS
10
114.
20
-96.1999999999999886
11
113.6999999999999886
21
-96.5
0
LINE
8
BLACK
6
CONTINUOUS
10
113.9749999999999943
20
-94.5249999999999915
11
114.2749999999999915
21
-94.8249999999999886
0
LINE
8
BLACK
6
CONTINUOUS
10
114.2749999999999915
20
-94.5249999999999915
11
113.9749999999999943
21
-94.8249999999999886
0
LINE
8
BLACK
6
CONTINUOUS
10
114.
20
-107.5999999999999943
11
114.2999999999999972
21
-107.8999999999999915
0
LINE
8
BLACK
6
CONTINUOUS
10
114.2999999999999972
20
-107.5999999999999943
11
114.
21
-107.8999999999999915
0
LINE
8
BLACK
6
CONTINUOUS
10
114.0999999999999943
20
-98.0849999999999937
11
114.3999999999999915
21
-98.3849999999999909
0
LINE
8
BLACK
6
CONTINUOUS
10
114.3999999999999915
20
-98.0849999999999937
11
114.0999999999999943
21
-98.3849999999999909
0
LINE
8
BLACK
6
CONTINUOUS
10
114.0999999999999943
20
-100.2849999999999966
11
114.3999999999999915
21
-100.5849999999999937
0
LINE
8
BLACK
6
CONTINUOUS
10
114.3999999999999915
20
-100.2849999999999966
11
114.0999999999999943
21
-100.5849999999999937
0
LINE
8
BLACK
6
CONTINUOUS
10
114.5499999999999972
20
-106.7599999999999909
11
114.8499999999999943
21
-107.0599999999999881
0
LINE
8
BLACK
6
CONTINUOUS
10
114.8499999999999943
20
-106.7599999999999909
11
114.5499999999999972
21
-107.0599999999999881
0
LINE
8
BLACK
6
CONTINUOUS
10
114.5499999999999972
20
-107.9200000000000017
11
114.8499999999999943
21
-108.2199999999999989
0
LINE
8
BLACK
6
CONTINUOUS
10
114.8499999999999943
20
-107.9200000000000017
11
114.5499999999999972
21
-108.2199999999999989
0
LINE
8
BLACK
6
CONTINUOUS
10
114.5999999999999943
20
-95.8999999999999915
11
114.8999999999999915
21
-96.1999999999999886
0
LINE
8
BLACK
6
CONTINUOUS
10
114.8999999999999915
20
-95.8999999999999915
11
114.5999999999999943
21
-96.1999999999999886
0
LINE
8
BLACK
6
CONTINUOUS
10
114.75
20
-100.2999999999999972
11
115.0499999999999972
21
-100.5999999999999943
0
LINE
8
BLACK
6
CONTINUOUS
10
115.0499999999999972
20
-100.2999999999999972
11
114.75
21
-100.5999999999999943
0
LINE
8
BLACK
6
CONTINUOUS
10
114.75300399999999
20
-101.3806019999999961
11
115.0530040000000014
21
-101.6806019999999933
0
LINE
8
BLACK
6
CONTINUOUS
10
115.0530040000000014
20
-101.3806019999999961
11
114.75300399999999
21
-101.6806019999999933
0
LINE
8
BLACK
6
CONTINUOUS
10
114.8999999999999915
20
-99.1850000000000023
11
115.1999999999999886
21
-99.4849999999999994
0
LINE
8
BLACK
6
CONTINUOUS
10
115.1999999999999886
20
-99.1850000000000023
11
114.8999999999999915
21
-99.4849999999999994
0
LINE
8
BLACK
6
CONTINUOUS
10
114.8999999999999915
20
-103.5849999999999937
11
115.1999999999999886
21
-103.8849999999999909
0
LINE
8
BLACK
6
CONTINUOUS
10
115.1999999999999886
20
-103.5849999999999937
11
114.8999999999999915
21
-103.8849999999999909
0
LINE
8
BLACK
6
CONTINUOUS
10
115.
20
-96.7999999999999972
11
115.2999999999999972
21
-97.0999999999999943
0
LINE
8
BLACK
6
CONTINUOUS
10
115.2999999999999972
20
-96.7999999999999972
11
115.
21
-97.0999999999999943
0
LINE
8
BLACK
6
CONTINUOUS
10
115.0499999999999972
20
-92.1749999999999972
11
115.3499999999999943
21
-92.4749999999999943
0
LINE
8
BLACK
6
CONTINUOUS
10
115.3499999999999943
20
-92.1749999999999972
11
115.0499999999999972
21
-92.4749999999999943
0
LINE
8
BLACK
6
CONTINUOUS
10
115.1999999999999886
20
-101.7999999999999972
11
115.5
21
-102.0999999999999943
0
LINE
8
BLACK
6
CONTINUOUS
10
115.5
20
-101.7999999999999972
11
115.1999999999999886
21
-102.0999999999999943
0
LINE
8
BLACK
6
CONTINUOUS
10
115.3499999999999943
20
-104.75
11
115.6499999999999915
21
-105.0499999999999972
0
LINE
8
BLACK
6
CONTINUOUS
10
115.6499999999999915
20
-104.75
11
115.3499999999999943
21
-105.0499999999999972
0
LINE
8
BLACK
6
CONTINUOUS
10
115.8499999999999943
20
-94.2199999999999989
11
116.1499999999999915
21
-94.519999999999996
0
LINE
8
BLACK
6
CONTINUOUS
10
116.1499999999999915
20
-94.2199999999999989
11
115.8499999999999943
21
-94.519999999999996
0
LINE
8
BLACK
6
CONTINUOUS
10
115.9899999999999949
20
-104.5499999999999972
11
116.289999999999992
21
-104.8499999999999943
0
LINE
8
BLACK
6
CONTINUOUS
10
116.289999999999992
20
-104.5499999999999972
11
115.9899999999999949
21
-104.8499999999999943
0
LINE
8
BLACK
6
CONTINUOUS
10
116.
20
-91.8499999999999943
11
116.2999999999999972
21
-92.1499999999999915
0
LINE
8
BLACK
6
CONTINUOUS
10
116.2999999999999972
20
-91.8499999999999943
11
116.
21
-92.1499999999999915
0
LINE
8
BLACK
6
CONTINUOUS
10
116.0499999999999972
20
-106.25
11
116.3499999999999943
21
-106.5499999999999972
0
LINE
8
BLACK
6
CONTINUOUS
10
116.3499999999999943
20
-106.25
11
116.0499999999999972
21
-106.5499999999999972
0
CIRCLE
8
BLACK
10
95.2249999999999943
20
-95.6799999999999926
40
0.3
0
LINE
8
BLACK
6
CONTINUOUS
10
94.8249999999999886
20
-95.9799999999999898
11
95.625
21
-95.9799999999999898
0
ARC
8
BLACK
10
95.625
20
-95.6799999999999926
40
0.3
50
-90.00000000
51
90.00000000
0
LINE
8
BLACK
6
CONTINUOUS
10
95.625
20
-95.3799999999999955
11
94.8249999999999886
21
-95.3799999999999955
0
ARC
8
BLACK
10
94.8249999999999886
20
-95.6799999999999926
40
0.3
50
90.00000000
51
270.00000000
0
CIRCLE
8
BLACK
10
95.2249999999999943
20
-104.3199999999999932
40
0.3
0
LINE
8
BLACK
6
CONTINUOUS
10
94.8249999999999886
20
-104.6199999999999903
11
95.625
21
-104.6199999999999903
0
ARC
8
BLACK
10
95.625
20
-104.3199999999999932
40
0.3
50
-90.00000000
51
90.00000000
0
LINE
8
BLACK
6
CONTINUOUS
10
95.625
20
-104.019999999999996
11
94.8249999999999886
21
-104.019999999999996
0
ARC
8
BLACK
10
94.8249999999999886
20
-104.3199999999999932
40
0.3
50
90.00000000
51
270.00000000
0
CIRCLE
8
BLACK
10
99.4050000000000011
20
-95.6799999999999926
40
0.3
0
LINE
8
BLACK
6
CONTINUOUS
10
98.8549999999999898
20
-95.9799999999999898
11
99.9549999999999983
21
-95.9799999999999898
0
ARC
8
BLACK
10
99.9549999999999983
20
-95.6799999999999926
40
0.3
50
-90.00000000
51
90.00000000
0
LINE
8
BLACK
6
CONTINUOUS
10
99.9549999999999983
20
-95.3799999999999955
11
98.8549999999999898
21
-95.3799999999999955
0
ARC
8
BLACK
10
98.8549999999999898
20
-95.6799999999999926
40
0.3
50
90.00000000
51
270.00000000
0
CIRCLE
8
BLACK
10
99.4050000000000011
20
-104.3199999999999932
40
0.3
0
LINE
8
BLACK
6
CONTINUOUS
10
98.8549999999999898
20
-104.6199999999999903
11
99.9549999999999983
21
-104.6199999999999903
0
ARC
8
BLACK
10
99.9549999999999983
20
-104.3199999999999932
40
0.3
50
-90.00000000
51
90.00000000
0
LINE
8
BLACK
6
CONTINUOUS
10
99.9549999999999983
20
-104.019999999999996
11
98.8549999999999898
21
-104.019999999999996
0
ARC
8
BLACK
10
98.8549999999999898
20
-104.3199999999999932
40
0.3
50
90.00000000
51
270.00000000
0
LINE
8
BLACK
6
CONTINUOUS
10
95.5
20
-106.5
11
95.5
21
-107.5
0
LINE
8
BLACK
6
CONTINUOUS
10
95.
20
-107.
11
96.
21
-107.
0
LINE
8
BLACK
6
CONTINUOUS
10
96.1899999999999977
20
-92.5
11
96.1899999999999977
21
-93.5
0
LINE
8
BLACK
6
CONTINUOUS
10
95.6899999999999977
20
-93.
11
96.6899999999999977
21
-93.
0
LINE
8
BLACK
6
CONTINUOUS
10
98.7299999999999898
20
-92.5
11
98.7299999999999898
21
-93.5
0
LINE
8
BLACK
6
CONTINUOUS
10
98.2299999999999898
20
-93.
11
99.2299999999999898
21
-93.
0
LINE
8
BLACK
6
CONTINUOUS
10
101.269999999999996
20
-92.5
11
101.269999999999996
21
-93.5
0
LINE
8
BLACK
6
CONTINUOUS
10
100.769999999999996
20
-93.
11
101.769999999999996
21
-93.
0
LINE
8
BLACK
6
CONTINUOUS
10
103.8100000000000023
20
-92.5
11
103.8100000000000023
21
-93.5
0
LINE
8
BLACK
6
CONTINUOUS
10
103.3100000000000023
20
-93.
11
104.3100000000000023
21
-93.
0
LINE
8
BLACK
6
CONTINUOUS
10
104.5
20
-106.5
11
104.5
21
-107.5
0
LINE
8
BLACK
6
CONTINUOUS
10
104.
20
-107.
11
105.
21
-107.
0
LINE
8
BLACK
6
CONTINUOUS
10
96.5827680000000015
20
-112.6398379999999975
11
96.5827680000000015
21
-110.6398379999999975
0
LINE
8
BLACK
6
CONTINUOUS
10
96.5827680000000015
20
-110.6398379999999975
11
97.0589579999999899
21
-110.6398379999999975
0
LINE
8
BLACK
6
CONTINUOUS
10
97.0589579999999899
20
-110.6398379999999975
11
97.3446730000000002
21
-110.7350759999999923
0
LINE
8
BLACK
6
CONTINUOUS
10
97.3446730000000002
20
-110.7350759999999923
11
97.5351489999999899
21
-110.9255519999999962
0
LINE
8
BLACK
6
CONTINUOUS
10
97.5351489999999899
20
-110.9255519999999962
11
97.6303869999999989
21
-111.116028
0
LINE
8
BLACK
6
CONTINUOUS
10
97.6303869999999989
20
-111.116028
11
97.7256249999999937
21
-111.4969799999999935
0
LINE
8
BLACK
6
CONTINUOUS
10
97.7256249999999937
20
-111.4969799999999935
11
97.7256249999999937
21
-111.7826949999999897
0
LINE
8
BLACK
6
CONTINUOUS
10
97.7256249999999937
20
-111.7826949999999897
11
97.6303869999999989
21
-112.1636469999999974
0
LINE
8
BLACK
6
CONTINUOUS
10
97.6303869999999989
20
-112.1636469999999974
11
97.5351489999999899
21
-112.3541230000000013
0
LINE
8
BLACK
6
CONTINUOUS
10
97.5351489999999899
20
-112.3541230000000013
11
97.3446730000000002
21
-112.5445999999999884
0
LINE
8
BLACK
6
CONTINUOUS
10
97.3446730000000002
20
-112.5445999999999884
11
97.0589579999999899
21
-112.6398379999999975
0
LINE
8
BLACK
6
CONTINUOUS
10
97.0589579999999899
20
-112.6398379999999975
11
96.5827680000000015
21
-112.6398379999999975
0
LINE
8
BLACK
6
CONTINUOUS
10
98.5827680000000015
20
-112.6398379999999975
11
98.5827680000000015
21
-111.3065039999999897
0
LINE
8
BLACK
6
CONTINUOUS
10
98.5827680000000015
20
-111.6874569999999949
11
98.6780059999999963
21
-111.4969799999999935
0
LINE
8
BLACK
6
CONTINUOUS
10
98.6780059999999963
20
-111.4969799999999935
11
98.7732439999999912
21
-111.4017419999999987
0
LINE
8
BLACK
6
CONTINUOUS
10
98.7732439999999912
20
-111.4017419999999987
11
98.963719999999995
21
-111.3065039999999897
0
LINE
8
BLACK
6
CONTINUOUS
10
98.963719999999995
20
-111.3065039999999897
11
99.1541969999999964
21
-111.3065039999999897
0
LINE
8
BLACK
6
CONTINUOUS
10
99.8208629999999886
20
-112.6398379999999975
11
99.8208629999999886
21
-111.3065039999999897
0
LINE
8
BLACK
6
CONTINUOUS
10
99.8208629999999886
20
-110.6398379999999975
11
99.7256249999999937
21
-110.7350759999999923
0
LINE
8
BLACK
6
CONTINUOUS
10
99.7256249999999937
20
-110.7350759999999923
11
99.8208629999999886
21
-110.8303140000000013
0
LINE
8
BLACK
6
CONTINUOUS
10
99.8208629999999886
20
-110.8303140000000013
11
99.9161009999999976
21
-110.7350759999999923
0
LINE
8
BLACK
6
CONTINUOUS
10
99.9161009999999976
20
-110.7350759999999923
11
99.8208629999999886
21
-110.6398379999999975
0
LINE
8
BLACK
6
CONTINUOUS
10
99.8208629999999886
20
-110.6398379999999975
11
99.8208629999999886
21
-110.8303140000000013
0
LINE
8
BLACK
6
CONTINUOUS
10
101.0589579999999899
20
-112.6398379999999975
11
100.8684820000000002
21
-112.5445999999999884
0
LINE
8
BLACK
6
CONTINUOUS
10
100.8684820000000002
20
-112.5445999999999884
11
100.7732439999999912
21
-112.3541230000000013
0
LINE
8
BLACK
6
CONTINUOUS
10
100.7732439999999912
20
-112.3541230000000013
11
100.7732439999999912
21
-110.6398379999999975
0
LINE
8
BLACK
6
CONTINUOUS
10
102.1065770000000015
20
-112.6398379999999975
11
101.9161009999999976
21
-112.5445999999999884
0
LINE
8
BLACK
6
CONTINUOUS
10
101.9161009999999976
20
-112.5445999999999884
11
101.8208629999999886
21
-112.3541230000000013
0
LINE
8
BLACK
6
CONTINUOUS
10
101.8208629999999886
20
-112.3541230000000013
11
101.8208629999999886
21
-110.6398379999999975
0
LINE
8
BLACK
6
CONTINUOUS
10
104.3922919999999976
20
-112.6398379999999975
11
104.3922919999999976
21
-110.6398379999999975
0
LINE
8
BLACK
6
CONTINUOUS
10
104.3922919999999976
20
-110.6398379999999975
11
105.0589590000000015
21
-112.0684089999999884
0
LINE
8
BLACK
6
CONTINUOUS
10
105.0589590000000015
20
-112.0684089999999884
11
105.7256249999999937
21
-110.6398379999999975
0
LINE
8
BLACK
6
CONTINUOUS
10
105.7256249999999937
20
-110.6398379999999975
11
105.7256249999999937
21
-112.6398379999999975
0
LINE
8
BLACK
6
CONTINUOUS
10
107.5351489999999899
20
-112.6398379999999975
11
107.5351489999999899
21
-111.5922190000000001
0
LINE
8
BLACK
6
CONTINUOUS
10
107.5351489999999899
20
-111.5922190000000001
11
107.4399109999999951
21
-111.4017419999999987
0
LINE
8
BLACK
6
CONTINUOUS
10
107.4399109999999951
20
-111.4017419999999987
11
107.2494349999999912
21
-111.3065039999999897
0
LINE
8
BLACK
6
CONTINUOUS
10
107.2494349999999912
20
-111.3065039999999897
11
106.8684820000000002
21
-111.3065039999999897
0
LINE
8
BLACK
6
CONTINUOUS
10
106.8684820000000002
20
-111.3065039999999897
11
106.6780059999999963
21
-111.4017419999999987
0
LINE
8
BLACK
6
CONTINUOUS
10
107.5351489999999899
20
-112.5445999999999884
11
107.3446730000000002
21
-112.6398379999999975
0
LINE
8
BLACK
6
CONTINUOUS
10
107.3446730000000002
20
-112.6398379999999975
11
106.8684820000000002
21
-112.6398379999999975
0
LINE
8
BLACK
6
CONTINUOUS
10
106.8684820000000002
20
-112.6398379999999975
11
106.6780059999999963
21
-112.5445999999999884
0
LINE
8
BLACK
6
CONTINUOUS
10
106.6780059999999963
20
-112.5445999999999884
11
106.5827680000000015
21
-112.3541230000000013
0
LINE
8
BLACK
6
CONTINUOUS
10
106.5827680000000015
20
-112.3541230000000013
11
106.5827680000000015
21
-112.1636469999999974
0
LINE
8
BLACK
6
CONTINUOUS
10
106.5827680000000015
20
-112.1636469999999974
11
106.6780059999999963
21
-111.9731709999999936
0
LINE
8
BLACK
6
CONTINUOUS
10
106.6780059999999963
20
-111.9731709999999936
11
106.8684820000000002
21
-111.8779329999999987
0
LINE
8
BLACK
6
CONTINUOUS
10
106.8684820000000002
20
-111.8779329999999987
11
107.3446730000000002
21
-111.8779329999999987
0
LINE
8
BLACK
6
CONTINUOUS
10
107.3446730000000002
20
-111.8779329999999987
11
107.5351489999999899
21
-111.7826949999999897
0
LINE
8
BLACK
6
CONTINUOUS
10
108.4875299999999925
20
-111.3065039999999897
11
108.4875299999999925
21
-113.3065039999999897
0
LINE
8
BLACK
6
CONTINUOUS
10
108.4875299999999925
20
-111.4017419999999987
11
108.6780059999999963
21
-111.3065039999999897
0
LINE
8
BLACK
6
CONTINUOUS
10
108.6780059999999963
20
-111.3065039999999897
11
109.0589590000000015
21
-111.3065039999999897
0
LINE
8
BLACK
6
CONTINUOUS
10
109.0589590000000015
20
-111.3065039999999897
11
109.2494349999999912
21
-111.4017419999999987
0
LINE
8
BLACK
6
CONTINUOUS
10
109.2494349999999912
20
-111.4017419999999987
11
109.3446730000000002
21
-111.4969799999999935
0
LINE
8
BLACK
6
CONTINUOUS
10
109.3446730000000002
20
-111.4969799999999935
11
109.4399109999999951
21
-111.6874569999999949
0
LINE
8
BLACK
6
CONTINUOUS
10
109.4399109999999951
20
-111.6874569999999949
11
109.4399109999999951
21
-112.2588849999999923
0
LINE
8
BLACK
6
CONTINUOUS
10
109.4399109999999951
20
-112.2588849999999923
11
109.3446730000000002
21
-112.4493609999999961
0
LINE
8
BLACK
6
CONTINUOUS
10
109.3446730000000002
20
-112.4493609999999961
11
109.2494349999999912
21
-112.5445999999999884
0
LINE
8
BLACK
6
CONTINUOUS
10
109.2494349999999912
20
-112.5445999999999884
11
109.0589590000000015
21
-112.6398379999999975
0
LINE
8
BLACK
6
CONTINUOUS
10
109.0589590000000015
20
-112.6398379999999975
11
108.6780059999999963
21
-112.6398379999999975
0
LINE
8
BLACK
6
CONTINUOUS
10
108.6780059999999963
20
-112.6398379999999975
11
108.4875299999999925
21
-112.5445999999999884
0
LINE
8
BLACK
6
CONTINUOUS
10
110.2970539999999886
20
-112.4493609999999961
11
110.3922919999999976
21
-112.5445999999999884
0
LINE
8
BLACK
6
CONTINUOUS
10
110.3922919999999976
20
-112.5445999999999884
11
110.2970539999999886
21
-112.6398379999999975
0
LINE
8
BLACK
6
CONTINUOUS
10
110.2970539999999886
20
-112.6398379999999975
11
110.2018159999999938
21
-112.5445999999999884
0
LINE
8
BLACK
6
CONTINUOUS
10
110.2018159999999938
20
-112.5445999999999884
11
110.2970539999999886
21
-112.4493609999999961
0
LINE
8
BLACK
6
CONTINUOUS
10
110.2970539999999886
20
-112.4493609999999961
11
110.2970539999999886
21
-112.6398379999999975
0
LINE
8
BLACK
6
CONTINUOUS
10
110.2970539999999886
20
-111.4017419999999987
11
110.3922919999999976
21
-111.4969799999999935
0
LINE
8
BLACK
6
CONTINUOUS
10
110.3922919999999976
20
-111.4969799999999935
11
110.2970539999999886
21
-111.5922190000000001
0
LINE
8
BLACK
6
CONTINUOUS
10
110.2970539999999886
20
-111.5922190000000001
11
110.2018159999999938
21
-111.4969799999999935
0
LINE
8
BLACK
6
CONTINUOUS
10
110.2018159999999938
20
-111.4969799999999935
11
110.2970539999999886
21
-111.4017419999999987
0
LINE
8
BLACK
6
CONTINUOUS
10
110.2970539999999886
20
-111.4017419999999987
11
110.2970539999999886
21
-111.5922190000000001
0
LINE
8
BLACK
6
CONTINUOUS
10
93.6749999999999972
20
-115.7749999999999915
11
93.9749999999999943
21
-116.0749999999999886
0
LINE
8
BLACK
6
CONTINUOUS
10
93.9749999999999943
20
-115.7749999999999915
11
93.6749999999999972
21
-116.0749999999999886
0
LINE
8
BLACK
6
CONTINUOUS
10
96.963719999999995
20
-114.8398380000000003
11
97.1541969999999964
21
-114.8398380000000003
0
LINE
8
BLACK
6
CONTINUOUS
10
97.1541969999999964
20
-114.8398380000000003
11
97.3446730000000002
21
-114.9350759999999951
0
LINE
8
BLACK
6
CONTINUOUS
10
97.3446730000000002
20
-114.9350759999999951
11
97.4399109999999951
21
-115.03031399999999
0
LINE
8
BLACK
6
CONTINUOUS
10
97.4399109999999951
20
-115.03031399999999
11
97.5351489999999899
21
-115.2207899999999938
0
LINE
8
BLACK
6
CONTINUOUS
10
97.5351489999999899
20
-115.2207899999999938
11
97.6303869999999989
21
-115.6017420000000016
0
LINE
8
BLACK
6
CONTINUOUS
10
97.6303869999999989
20
-115.6017420000000016
11
97.6303869999999989
21
-116.0779330000000016
0
LINE
8
BLACK
6
CONTINUOUS
10
97.6303869999999989
20
-116.0779330000000016
11
97.5351489999999899
21
-116.4588849999999951
0
LINE
8
BLACK
6
CONTINUOUS
10
97.5351489999999899
20
-116.4588849999999951
11
97.4399109999999951
21
-116.649360999999999
0
LINE
8
BLACK
6
CONTINUOUS
10
97.4399109999999951
20
-116.649360999999999
11
97.3446730000000002
21
-116.7445999999999913
0
LINE
8
BLACK
6
CONTINUOUS
10
97.3446730000000002
20
-116.7445999999999913
11
97.1541969999999964
21
-116.8398380000000003
0
LINE
8
BLACK
6
CONTINUOUS
10
97.1541969999999964
20
-116.8398380000000003
11
96.963719999999995
21
-116.8398380000000003
0
LINE
8
BLACK
6
CONTINUOUS
10
96.963719999999995
20
-116.8398380000000003
11
96.7732439999999912
21
-116.7445999999999913
0
LINE
8
BLACK
6
CONTINUOUS
10
96.7732439999999912
20
-116.7445999999999913
11
96.6780059999999963
21
-116.649360999999999
0
LINE
8
BLACK
6
CONTINUOUS
10
96.6780059999999963
20
-116.649360999999999
11
96.5827680000000015
21
-116.4588849999999951
0
LINE
8
BLACK
6
CONTINUOUS
10
96.5827680000000015
20
-116.4588849999999951
11
96.4875299999999925
21
-116.0779330000000016
0
LINE
8
BLACK
6
CONTINUOUS
10
96.4875299999999925
20
-116.0779330000000016
11
96.4875299999999925
21
-115.6017420000000016
0
LINE
8
BLACK
6
CONTINUOUS
10
96.4875299999999925
20
-115.6017420000000016
11
96.5827680000000015
21
-115.2207899999999938
0
LINE
8
BLACK
6
CONTINUOUS
10
96.5827680000000015
20
-115.2207899999999938
11
96.6780059999999963
21
-115.03031399999999
0
LINE
8
BLACK
6
CONTINUOUS
10
96.6780059999999963
20
-115.03031399999999
11
96.7732439999999912
21
-114.9350759999999951
0
LINE
8
BLACK
6
CONTINUOUS
10
96.7732439999999912
20
-114.9350759999999951
11
96.963719999999995
21
-114.8398380000000003
0
LINE
8
BLACK
6
CONTINUOUS
10
98.5827680000000015
20
-116.7445999999999913
11
98.5827680000000015
21
-116.8398380000000003
0
LINE
8
BLACK
6
CONTINUOUS
10
98.5827680000000015
20
-116.8398380000000003
11
98.4875299999999925
21
-117.03031399999999
0
LINE
8
BLACK
6
CONTINUOUS
10
98.4875299999999925
20
-117.03031399999999
11
98.3922919999999976
21
-117.125551999999999
0
LINE
8
BLACK
6
CONTINUOUS
10
99.2494349999999912
20
-114.8398380000000003
11
100.4875299999999925
21
-114.8398380000000003
0
LINE
8
BLACK
6
CONTINUOUS
10
100.4875299999999925
20
-114.8398380000000003
11
99.8208629999999886
21
-115.6017420000000016
0
LINE
8
BLACK
6
CONTINUOUS
10
99.8208629999999886
20
-115.6017420000000016
11
100.106577999999999
21
-115.6017420000000016
0
LINE
8
BLACK
6
CONTINUOUS
10
100.106577999999999
20
-115.6017420000000016
11
100.2970539999999886
21
-115.6969799999999964
0
LINE
8
BLACK
6
CONTINUOUS
10
100.2970539999999886
20
-115.6969799999999964
11
100.3922919999999976
21
-115.7922189999999887
0
LINE
8
BLACK
6
CONTINUOUS
10
100.3922919999999976
20
-115.7922189999999887
11
100.4875299999999925
21
-115.9826949999999925
0
LINE
8
BLACK
6
CONTINUOUS
10
100.4875299999999925
20
-115.9826949999999925
11
100.4875299999999925
21
-116.4588849999999951
0
LINE
8
BLACK
6
CONTINUOUS
10
100.4875299999999925
20
-116.4588849999999951
11
100.3922919999999976
21
-116.649360999999999
0
LINE
8
BLACK
6
CONTINUOUS
10
100.3922919999999976
20
-116.649360999999999
11
100.2970539999999886
21
-116.7445999999999913
0
LINE
8
BLACK
6
CONTINUOUS
10
100.2970539999999886
20
-116.7445999999999913
11
100.106577999999999
21
-116.8398380000000003
0
LINE
8
BLACK
6
CONTINUOUS
10
100.106577999999999
20
-116.8398380000000003
11
99.5351489999999899
21
-116.8398380000000003
0
LINE
8
BLACK
6
CONTINUOUS
10
99.5351489999999899
20
-116.8398380000000003
11
99.3446730000000002
21
-116.7445999999999913
0
LINE
8
BLACK
6
CONTINUOUS
10
99.3446730000000002
20
-116.7445999999999913
11
99.2494349999999912
21
-116.649360999999999
0
LINE
8
BLACK
6
CONTINUOUS
10
101.7256249999999937
20
-114.8398380000000003
11
101.9161019999999951
21
-114.8398380000000003
0
LINE
8
BLACK
6
CONTINUOUS
10
101.9161019999999951
20
-114.8398380000000003
11
102.106577999999999
21
-114.9350759999999951
0
LINE
8
BLACK
6
CONTINUOUS
10
102.106577999999999
20
-114.9350759999999951
11
102.2018159999999938
21
-115.03031399999999
0
LINE
8
BLACK
6
CONTINUOUS
10
102.2018159999999938
20
-115.03031399999999
11
102.2970539999999886
21
-115.2207899999999938
0
LINE
8
BLACK
6
CONTINUOUS
10
102.2970539999999886
20
-115.2207899999999938
11
102.3922919999999976
21
-115.6017420000000016
0
LINE
8
BLACK
6
CONTINUOUS
10
102.3922919999999976
20
-115.6017420000000016
11
102.3922919999999976
21
-116.0779330000000016
0
LINE
8
BLACK
6
CONTINUOUS
10
102.3922919999999976
20
-116.0779330000000016
11
102.2970539999999886
21
-116.4588849999999951
0
LINE
8
BLACK
6
CONTINUOUS
10
102.2970539999999886
20
-116.4588849999999951
11
102.2018159999999938
21
-116.649360999999999
0
LINE
8
BLACK
6
CONTINUOUS
10
102.2018159999999938
20
-116.649360999999999
11
102.106577999999999
21
-116.7445999999999913
0
LINE
8
BLACK
6
CONTINUOUS
10
102.106577999999999
20
-116.7445999999999913
11
101.9161019999999951
21
-116.8398380000000003
0
LINE
8
BLACK
6
CONTINUOUS
10
101.9161019999999951
20
-116.8398380000000003
11
101.7256249999999937
21
-116.8398380000000003
0
LINE
8
BLACK
6
CONTINUOUS
10
101.7256249999999937
20
-116.8398380000000003
11
101.5351489999999899
21
-116.7445999999999913
0
LINE
8
BLACK
6
CONTINUOUS
10
101.5351489999999899
20
-116.7445999999999913
11
101.4399109999999951
21
-116.649360999999999
0
LINE
8
BLACK
6
CONTINUOUS
10
101.4399109999999951
20
-116.649360999999999
11
101.3446730000000002
21
-116.4588849999999951
0
LINE
8
BLACK
6
CONTINUOUS
10
101.3446730000000002
20
-116.4588849999999951
11
101.2494349999999912
21
-116.0779330000000016
0
LINE
8
BLACK
6
CONTINUOUS
10
101.2494349999999912
20
-116.0779330000000016
11
101.2494349999999912
21
-115.6017420000000016
0
LINE
8
BLACK
6
CONTINUOUS
10
101.2494349999999912
20
-115.6017420000000016
11
101.3446730000000002
21
-115.2207899999999938
0
LINE
8
BLACK
6
CONTINUOUS
10
101.3446730000000002
20
-115.2207899999999938
11
101.4399109999999951
21
-115.03031399999999
0
LINE
8
BLACK
6
CONTINUOUS
10
101.4399109999999951
20
-115.03031399999999
11
101.5351489999999899
21
-114.9350759999999951
0
LINE
8
BLACK
6
CONTINUOUS
10
101.5351489999999899
20
-114.9350759999999951
11
101.7256249999999937
21
-114.8398380000000003
0
LINE
8
BLACK
6
CONTINUOUS
10
103.6303869999999989
20
-114.8398380000000003
11
103.8208640000000003
21
-114.8398380000000003
0
LINE
8
BLACK
6
CONTINUOUS
10
103.8208640000000003
20
-114.8398380000000003
11
104.0113399999999899
21
-114.9350759999999951
0
LINE
8
BLACK
6
CONTINUOUS
10
104.0113399999999899
20
-114.9350759999999951
11
104.106577999999999
21
-115.03031399999999
0
LINE
8
BLACK
6
CONTINUOUS
10
104.106577999999999
20
-115.03031399999999
11
104.2018159999999938
21
-115.2207899999999938
0
LINE
8
BLACK
6
CONTINUOUS
10
104.2018159999999938
20
-115.2207899999999938
11
104.2970539999999886
21
-115.6017420000000016
0
LINE
8
BLACK
6
CONTINUOUS
10
104.2970539999999886
20
-115.6017420000000016
11
104.2970539999999886
21
-116.0779330000000016
0
LINE
8
BLACK
6
CONTINUOUS
10
104.2970539999999886
20
-116.0779330000000016
11
104.2018159999999938
21
-116.4588849999999951
0
LINE
8
BLACK
6
CONTINUOUS
10
104.2018159999999938
20
-116.4588849999999951
11
104.106577999999999
21
-116.649360999999999
0
LINE
8
BLACK
6
CONTINUOUS
10
104.106577999999999
20
-116.649360999999999
11
104.0113399999999899
21
-116.7445999999999913
0
LINE
8
BLACK
6
CONTINUOUS
10
104.0113399999999899
20
-116.7445999999999913
11
103.8208640000000003
21
-116.8398380000000003
0
LINE
8
BLACK
6
CONTINUOUS
10
103.8208640000000003
20
-116.8398380000000003
11
103.6303869999999989
21
-116.8398380000000003
0
LINE
8
BLACK
6
CONTINUOUS
10
103.6303869999999989
20
-116.8398380000000003
11
103.4399109999999951
21
-116.7445999999999913
0
LINE
8
BLACK
6
CONTINUOUS
10
103.4399109999999951
20
-116.7445999999999913
11
103.3446730000000002
21
-116.649360999999999
0
LINE
8
BLACK
6
CONTINUOUS
10
103.3446730000000002
20
-116.649360999999999
11
103.2494349999999912
21
-116.4588849999999951
0
LINE
8
BLACK
6
CONTINUOUS
10
103.2494349999999912
20
-116.4588849999999951
11
103.1541969999999964
21
-116.0779330000000016
0
LINE
8
BLACK
6
CONTINUOUS
10
103.1541969999999964
20
-116.0779330000000016
11
103.1541969999999964
21
-115.6017420000000016
0
LINE
8
BLACK
6
CONTINUOUS
10
103.1541969999999964
20
-115.6017420000000016
11
103.2494349999999912
21
-115.2207899999999938
0
LINE
8
BLACK
6
CONTINUOUS
10
103.2494349999999912
20
-115.2207899999999938
11
103.3446730000000002
21
-115.03031399999999
0
LINE
8
BLACK
6
CONTINUOUS
10
103.3446730000000002
20
-115.03031399999999
11
103.4399109999999951
21
-114.9350759999999951
0
LINE
8
BLACK
6
CONTINUOUS
10
103.4399109999999951
20
-114.9350759999999951
11
103.6303869999999989
21
-114.8398380000000003
0
LINE
8
BLACK
6
CONTINUOUS
10
105.1541969999999964
20
-116.8398380000000003
11
105.1541969999999964
21
-115.5065039999999925
0
LINE
8
BLACK
6
CONTINUOUS
10
105.1541969999999964
20
-115.6969799999999964
11
105.2494349999999912
21
-115.6017420000000016
0
LINE
8
BLACK
6
CONTINUOUS
10
105.2494349999999912
20
-115.6017420000000016
11
105.4399109999999951
21
-115.5065039999999925
0
LINE
8
BLACK
6
CONTINUOUS
10
105.4399109999999951
20
-115.5065039999999925
11
105.7256259999999912
21
-115.5065039999999925
0
LINE
8
BLACK
6
CONTINUOUS
10
105.7256259999999912
20
-115.5065039999999925
11
105.9161019999999951
21
-115.6017420000000016
0
LINE
8
BLACK
6
CONTINUOUS
10
105.9161019999999951
20
-115.6017420000000016
11
106.0113399999999899
21
-115.7922189999999887
0
LINE
8
BLACK
6
CONTINUOUS
10
106.0113399999999899
20
-115.7922189999999887
11
106.0113399999999899
21
-116.8398380000000003
0
LINE
8
BLACK
6
CONTINUOUS
10
106.0113399999999899
20
-115.7922189999999887
11
106.106577999999999
21
-115.6017420000000016
0
LINE
8
BLACK
6
CONTINUOUS
10
106.106577999999999
20
-115.6017420000000016
11
106.2970539999999886
21
-115.5065039999999925
0
LINE
8
BLACK
6
CONTINUOUS
10
106.2970539999999886
20
-115.5065039999999925
11
106.5827680000000015
21
-115.5065039999999925
0
LINE
8
BLACK
6
CONTINUOUS
10
106.5827680000000015
20
-115.5065039999999925
11
106.7732449999999886
21
-115.6017420000000016
0
LINE
8
BLACK
6
CONTINUOUS
10
106.7732449999999886
20
-115.6017420000000016
11
106.8684829999999977
21
-115.7922189999999887
0
LINE
8
BLACK
6
CONTINUOUS
10
106.8684829999999977
20
-115.7922189999999887
11
106.8684829999999977
21
-116.8398380000000003
0
LINE
8
BLACK
6
CONTINUOUS
10
107.8208640000000003
20
-116.8398380000000003
11
107.8208640000000003
21
-115.5065039999999925
0
LINE
8
BLACK
6
CONTINUOUS
10
107.8208640000000003
20
-115.6969799999999964
11
107.9161019999999951
21
-115.6017420000000016
0
LINE
8
BLACK
6
CONTINUOUS
10
107.9161019999999951
20
-115.6017420000000016
11
108.106577999999999
21
-115.5065039999999925
0
LINE
8
BLACK
6
CONTINUOUS
10
108.106577999999999
20
-115.5065039999999925
11
108.3922929999999951
21
-115.5065039999999925
0
LINE
8
BLACK
6
CONTINUOUS
10
108.3922929999999951
20
-115.5065039999999925
11
108.582768999999999
21
-115.6017420000000016
0
LINE
8
BLACK
6
CONTINUOUS
10
108.582768999999999
20
-115.6017420000000016
11
108.6780069999999938
21
-115.7922189999999887
0
LINE
8
BLACK
6
CONTINUOUS
10
108.6780069999999938
20
-115.7922189999999887
11
108.6780069999999938
21
-116.8398380000000003
0
LINE
8
BLACK
6
CONTINUOUS
10
108.6780069999999938
20
-115.7922189999999887
11
108.7732449999999886
21
-115.6017420000000016
0
LINE
8
BLACK
6
CONTINUOUS
10
108.7732449999999886
20
-115.6017420000000016
11
108.9637209999999925
21
-115.5065039999999925
0
LINE
8
BLACK
6
CONTINUOUS
10
108.9637209999999925
20
-115.5065039999999925
11
109.2494349999999912
21
-115.5065039999999925
0
LINE
8
BLACK
6
CONTINUOUS
10
109.2494349999999912
20
-115.5065039999999925
11
109.4399119999999925
21
-115.6017420000000016
0
LINE
8
BLACK
6
CONTINUOUS
10
109.4399119999999925
20
-115.6017420000000016
11
109.5351500000000016
21
-115.7922189999999887
0
LINE
8
BLACK
6
CONTINUOUS
10
109.5351500000000016
20
-115.7922189999999887
11
109.5351500000000016
21
-116.8398380000000003
0
LINE
8
BLACK
6
CONTINUOUS
10
113.4399119999999925
20
-114.7445999999999913
11
111.7256269999999887
21
-117.3160279999999887
0
LINE
8
BLACK
6
CONTINUOUS
10
116.0113410000000016
20
-114.8398380000000003
11
116.2018179999999887
21
-114.8398380000000003
0
LINE
8
BLACK
6
CONTINUOUS
10
116.2018179999999887
20
-114.8398380000000003
11
116.3922939999999926
21
-114.9350759999999951
0
LINE
8
BLACK
6
CONTINUOUS
10
116.3922939999999926
20
-114.9350759999999951
11
116.4875320000000016
21
-115.03031399999999
0
LINE
8
BLACK
6
CONTINUOUS
10
116.4875320000000016
20
-115.03031399999999
11
116.5827699999999965
21
-115.2207899999999938
0
LINE
8
BLACK
6
CONTINUOUS
10
116.5827699999999965
20
-115.2207899999999938
11
116.6780079999999913
21
-115.6017420000000016
0
LINE
8
BLACK
6
CONTINUOUS
10
116.6780079999999913
20
-115.6017420000000016
11
116.6780079999999913
21
-116.0779330000000016
0
LINE
8
BLACK
6
CONTINUOUS
10
116.6780079999999913
20
-116.0779330000000016
11
116.5827699999999965
21
-116.4588849999999951
0
LINE
8
BLACK
6
CONTINUOUS
10
116.5827699999999965
20
-116.4588849999999951
11
116.4875320000000016
21
-116.649360999999999
0
LINE
8
BLACK
6
CONTINUOUS
10
116.4875320000000016
20
-116.649360999999999
11
116.3922939999999926
21
-116.7445999999999913
0
LINE
8
BLACK
6
CONTINUOUS
10
116.3922939999999926
20
-116.7445999999999913
11
116.2018179999999887
21
-116.8398380000000003
0
LINE
8
BLACK
6
CONTINUOUS
10
116.2018179999999887
20
-116.8398380000000003
11
116.0113410000000016
21
-116.8398380000000003
0
LINE
8
BLACK
6
CONTINUOUS
10
116.0113410000000016
20
-116.8398380000000003
11
115.8208649999999977
21
-116.7445999999999913
0
LINE
8
BLACK
6
CONTINUOUS
10
115.8208649999999977
20
-116.7445999999999913
11
115.7256269999999887
21
-116.649360999999999
0
LINE
8
BLACK
6
CONTINUOUS
10
115.7256269999999887
20
-116.649360999999999
11
115.6303889999999939
21
-116.4588849999999951
0
LINE
8
BLACK
6
CONTINUOUS
10
115.6303889999999939
20
-116.4588849999999951
11
115.535150999999999
21
-116.0779330000000016
0
LINE
8
BLACK
6
CONTINUOUS
10
115.535150999999999
20
-116.0779330000000016
11
115.535150999999999
21
-115.6017420000000016
0
LINE
8
BLACK
6
CONTINUOUS
10
115.535150999999999
20
-115.6017420000000016
11
115.6303889999999939
21
-115.2207899999999938
0
LINE
8
BLACK
6
CONTINUOUS
10
115.6303889999999939
20
-115.2207899999999938
11
115.7256269999999887
21
-115.03031399999999
0
LINE
8
BLACK
6
CONTINUOUS
10
115.7256269999999887
20
-115.03031399999999
11
115.8208649999999977
21
-114.9350759999999951
0
LINE
8
BLACK
6
CONTINUOUS
10
115.8208649999999977
20
-114.9350759999999951
11
116.0113410000000016
21
-114.8398380000000003
0
LINE
8
BLACK
6
CONTINUOUS
10
117.6303889999999939
20
-116.7445999999999913
11
117.6303889999999939
21
-116.8398380000000003
0
LINE
8
BLACK
6
CONTINUOUS
10
117.6303889999999939
20
-116.8398380000000003
11
117.535150999999999
21
-117.03031399999999
0
LINE
8
BLACK
6
CONTINUOUS
10
117.535150999999999
20
-117.03031399999999
11
117.43991299999999
21
-117.125551999999999
0
LINE
8
BLACK
6
CONTINUOUS
10
118.8684839999999951
20
-114.8398380000000003
11
119.0589609999999965
21
-114.8398380000000003
0
LINE
8
BLACK
6
CONTINUOUS
10
119.0589609999999965
20
-114.8398380000000003
11
119.2494370000000004
21
-114.9350759999999951
0
LINE
8
BLACK
6
CONTINUOUS
10
119.2494370000000004
20
-114.9350759999999951
11
119.3446749999999952
21
-115.03031399999999
0
LINE
8
BLACK
6
CONTINUOUS
10
119.3446749999999952
20
-115.03031399999999
11
119.43991299999999
21
-115.2207899999999938
0
LINE
8
BLACK
6
CONTINUOUS
10
119.43991299999999
20
-115.2207899999999938
11
119.535150999999999
21
-115.6017420000000016
0
LINE
8
BLACK
6
CONTINUOUS
10
119.535150999999999
20
-115.6017420000000016
11
119.535150999999999
21
-116.0779330000000016
0
LINE
8
BLACK
6
CONTINUOUS
10
119.535150999999999
20
-116.0779330000000016
11
119.43991299999999
21
-116.4588849999999951
0
LINE
8
BLACK
6
CONTINUOUS
10
119.43991299999999
20
-116.4588849999999951
11
119.3446749999999952
21
-116.649360999999999
0
LINE
8
BLACK
6
CONTINUOUS
10
119.3446749999999952
20
-116.649360999999999
11
119.2494370000000004
21
-116.7445999999999913
0
LINE
8
BLACK
6
CONTINUOUS
10
119.2494370000000004
20
-116.7445999999999913
11
119.0589609999999965
21
-116.8398380000000003
0
LINE
8
BLACK
6
CONTINUOUS
10
119.0589609999999965
20
-116.8398380000000003
11
118.8684839999999951
21
-116.8398380000000003
0
LINE
8
BLACK
6
CONTINUOUS
10
118.8684839999999951
20
-116.8398380000000003
11
118.6780079999999913
21
-116.7445999999999913
0
LINE
8
BLACK
6
CONTINUOUS
10
118.6780079999999913
20
-116.7445999999999913
11
118.5827699999999965
21
-116.649360999999999
0
LINE
8
BLACK
6
CONTINUOUS
10
118.5827699999999965
20
-116.649360999999999
11
118.4875320000000016
21
-116.4588849999999951
0
LINE
8
BLACK
6
CONTINUOUS
10
118.4875320000000016
20
-116.4588849999999951
11
118.3922939999999926
21
-116.0779330000000016
0
LINE
8
BLACK
6
CONTINUOUS
10
118.3922939999999926
20
-116.0779330000000016
11
118.3922939999999926
21
-115.6017420000000016
0
LINE
8
BLACK
6
CONTINUOUS
10
118.3922939999999926
20
-115.6017420000000016
11
118.4875320000000016
21
-115.2207899999999938
0
LINE
8
BLACK
6
CONTINUOUS
10
118.4875320000000016
20
-115.2207899999999938
11
118.5827699999999965
21
-115.03031399999999
0
LINE
8
BLACK
6
CONTINUOUS
10
118.5827699999999965
20
-115.03031399999999
11
118.6780079999999913
21
-114.9350759999999951
0
LINE
8
BLACK
6
CONTINUOUS
10
118.6780079999999913
20
-114.9350759999999951
11
118.8684839999999951
21
-114.8398380000000003
0
LINE
8
BLACK
6
CONTINUOUS
10
121.43991299999999
20
-116.8398380000000003
11
120.2970559999999978
21
-116.8398380000000003
0
LINE
8
BLACK
6
CONTINUOUS
10
120.8684839999999951
20
-116.8398380000000003
11
120.8684839999999951
21
-114.8398380000000003
0
LINE
8
BLACK
6
CONTINUOUS
10
120.8684839999999951
20
-114.8398380000000003
11
120.6780079999999913
21
-115.125551999999999
0
LINE
8
BLACK
6
CONTINUOUS
10
120.6780079999999913
20
-115.125551999999999
11
120.4875320000000016
21
-115.3160279999999887
0
LINE
8
BLACK
6
CONTINUOUS
10
120.4875320000000016
20
-115.3160279999999887
11
120.2970559999999978
21
-115.4112659999999977
0
LINE
8
BLACK
6
CONTINUOUS
10
123.3446749999999952
20
-116.8398380000000003
11
122.2018179999999887
21
-116.8398380000000003
0
LINE
8
BLACK
6
CONTINUOUS
10
122.7732460000000003
20
-116.8398380000000003
11
122.7732460000000003
21
-114.8398380000000003
0
LINE
8
BLACK
6
CONTINUOUS
10
122.7732460000000003
20
-114.8398380000000003
11
122.5827699999999965
21
-115.125551999999999
0
LINE
8
BLACK
6
CONTINUOUS
10
122.5827699999999965
20
-115.125551999999999
11
122.3922939999999926
21
-115.3160279999999887
0
LINE
8
BLACK
6
CONTINUOUS
10
122.3922939999999926
20
-115.3160279999999887
11
122.2018179999999887
21
-115.4112659999999977
0
LINE
8
BLACK
6
CONTINUOUS
10
124.4875319999999874
20
-115.6969799999999964
11
124.2970559999999978
21
-115.6017420000000016
0
LINE
8
BLACK
6
CONTINUOUS
10
124.2970559999999978
20
-115.6017420000000016
11
124.2018179999999887
21
-115.5065039999999925
0
LINE
8
BLACK
6
CONTINUOUS
10
124.2018179999999887
20
-115.5065039999999925
11
124.1065799999999939
21
-115.3160279999999887
0
LINE
8
BLACK
6
CONTINUOUS
10
124.1065799999999939
20
-115.3160279999999887
11
124.1065799999999939
21
-115.2207899999999938
0
LINE
8
BLACK
6
CONTINUOUS
10
124.1065799999999939
20
-115.2207899999999938
11
124.2018179999999887
21
-115.03031399999999
0
LINE
8
BLACK
6
CONTINUOUS
10
124.2018179999999887
20
-115.03031399999999
11
124.2970559999999978
21
-114.9350759999999951
0
LINE
8
BLACK
6
CONTINUOUS
10
124.2970559999999978
20
-114.9350759999999951
11
124.4875319999999874
21
-114.8398380000000003
0
LINE
8
BLACK
6
CONTINUOUS
10
124.4875319999999874
20
-114.8398380000000003
11
124.8684849999999926
21
-114.8398380000000003
0
LINE
8
BLACK
6
CONTINUOUS
10
124.8684849999999926
20
-114.8398380000000003
11
125.0589609999999965
21
-114.9350759999999951
0
LINE
8
BLACK
6
CONTINUOUS
10
125.0589609999999965
20
-114.9350759999999951
11
125.1541989999999913
21
-115.03031399999999
0
LINE
8
BLACK
6
CONTINUOUS
10
125.1541989999999913
20
-115.03031399999999
11
125.2494370000000004
21
-115.2207899999999938
0
LINE
8
BLACK
6
CONTINUOUS
10
125.2494370000000004
20
-115.2207899999999938
11
125.2494370000000004
21
-115.3160279999999887
0
LINE
8
BLACK
6
CONTINUOUS
10
125.2494370000000004
20
-115.3160279999999887
11
125.1541989999999913
21
-115.5065039999999925
0
LINE
8
BLACK
6
CONTINUOUS
10
125.1541989999999913
20
-115.5065039999999925
11
125.0589609999999965
21
-115.6017420000000016
0
LINE
8
BLACK
6
CONTINUOUS
10
125.0589609999999965
20
-115.6017420000000016
11
124.8684849999999926
21
-115.6969799999999964
0
LINE
8
BLACK
6
CONTINUOUS
10
124.8684849999999926
20
-115.6969799999999964
11
124.4875319999999874
21
-115.6969799999999964
0
LINE
8
BLACK
6
CONTINUOUS
10
124.4875319999999874
20
-115.6969799999999964
11
124.2970559999999978
21
-115.7922189999999887
0
LINE
8
BLACK
6
CONTINUOUS
10
124.2970559999999978
20
-115.7922189999999887
11
124.2018179999999887
21
-115.8874569999999977
0
LINE
8
BLACK
6
CONTINUOUS
10
124.2018179999999887
20
-115.8874569999999977
11
124.1065799999999939
21
-116.0779330000000016
0
LINE
8
BLACK
6
CONTINUOUS
10
124.1065799999999939
20
-116.0779330000000016
11
124.1065799999999939
21
-116.4588849999999951
0
LINE
8
BLACK
6
CONTINUOUS
10
124.1065799999999939
20
-116.4588849999999951
11
124.2018179999999887
21
-116.649360999999999
0
LINE
8
BLACK
6
CONTINUOUS
10
124.2018179999999887
20
-116.649360999999999
11
124.2970559999999978
21
-116.7445999999999913
0
LINE
8
BLACK
6
CONTINUOUS
10
124.2970559999999978
20
-116.7445999999999913
11
124.4875319999999874
21
-116.8398380000000003
0
LINE
8
BLACK
6
CONTINUOUS
10
124.4875319999999874
20
-116.8398380000000003
11
124.8684849999999926
21
-116.8398380000000003
0
LINE
8
BLACK
6
CONTINUOUS
10
124.8684849999999926
20
-116.8398380000000003
11
125.0589609999999965
21
-116.7445999999999913
0
LINE
8
BLACK
6
CONTINUOUS
10
125.0589609999999965
20
-116.7445999999999913
11
125.1541989999999913
21
-116.649360999999999
0
LINE
8
BLACK
6
CONTINUOUS
10
125.1541989999999913
20
-116.649360999999999
11
125.2494370000000004
21
-116.4588849999999951
0
LINE
8
BLACK
6
CONTINUOUS
10
125.2494370000000004
20
-116.4588849999999951
11
125.2494370000000004
21
-116.0779330000000016
0
LINE
8
BLACK
6
CONTINUOUS
10
125.2494370000000004
20
-116.0779330000000016
11
125.1541989999999913
21
-115.8874569999999977
0
LINE
8
BLACK
6
CONTINUOUS
10
125.1541989999999913
20
-115.8874569999999977
11
125.0589609999999965
21
-115.7922189999999887
0
LINE
8
BLACK
6
CONTINUOUS
10
125.0589609999999965
20
-115.7922189999999887
11
124.8684849999999926
21
-115.6969799999999964
0
LINE
8
BLACK
6
CONTINUOUS
10
126.0113419999999991
20
-114.8398380000000003
11
126.0113419999999991
21
-115.2207899999999938
0
LINE
8
BLACK
6
CONTINUOUS
10
126.7732469999999978
20
-114.8398380000000003
11
126.7732469999999978
21
-115.2207899999999938
0
LINE
8
BLACK
6
CONTINUOUS
10
129.7256289999999979
20
-117.6017420000000016
11
129.6303900000000056
21
-117.5065039999999925
0
LINE
8
BLACK
6
CONTINUOUS
10
129.6303900000000056
20
-117.5065039999999925
11
129.4399139999999875
21
-117.2207899999999938
0
LINE
8
BLACK
6
CONTINUOUS
10
129.4399139999999875
20
-117.2207899999999938
11
129.3446759999999927
21
-117.03031399999999
0
LINE
8
BLACK
6
CONTINUOUS
10
129.3446759999999927
20
-117.03031399999999
11
129.2494379999999978
21
-116.7445999999999913
0
LINE
8
BLACK
6
CONTINUOUS
10
129.2494379999999978
20
-116.7445999999999913
11
129.154200000000003
21
-116.2684089999999912
0
LINE
8
BLACK
6
CONTINUOUS
10
129.154200000000003
20
-116.2684089999999912
11
129.154200000000003
21
-115.8874569999999977
0
LINE
8
BLACK
6
CONTINUOUS
10
129.154200000000003
20
-115.8874569999999977
11
129.2494379999999978
21
-115.4112659999999977
0
LINE
8
BLACK
6
CONTINUOUS
10
129.2494379999999978
20
-115.4112659999999977
11
129.3446759999999927
21
-115.125551999999999
0
LINE
8
BLACK
6
CONTINUOUS
10
129.3446759999999927
20
-115.125551999999999
11
129.4399139999999875
21
-114.9350759999999951
0
LINE
8
BLACK
6
CONTINUOUS
10
129.4399139999999875
20
-114.9350759999999951
11
129.6303900000000056
21
-114.649360999999999
0
LINE
8
BLACK
6
CONTINUOUS
10
129.6303900000000056
20
-114.649360999999999
11
129.7256289999999979
21
-114.5541229999999899
0
LINE
8
BLACK
6
CONTINUOUS
10
131.5351519999999823
20
-116.8398380000000003
11
130.3922949999999901
21
-116.8398380000000003
0
LINE
8
BLACK
6
CONTINUOUS
10
130.9637229999999875
20
-116.8398380000000003
11
130.9637229999999875
21
-114.8398380000000003
0
LINE
8
BLACK
6
CONTINUOUS
10
130.9637229999999875
20
-114.8398380000000003
11
130.7732469999999978
21
-115.125551999999999
0
LINE
8
BLACK
6
CONTINUOUS
10
130.7732469999999978
20
-115.125551999999999
11
130.5827710000000081
21
-115.3160279999999887
0
LINE
8
BLACK
6
CONTINUOUS
10
130.5827710000000081
20
-115.3160279999999887
11
130.3922949999999901
21
-115.4112659999999977
0
LINE
8
BLACK
6
CONTINUOUS
10
133.3446759999999927
20
-114.8398380000000003
11
132.3922949999999901
21
-114.8398380000000003
0
LINE
8
BLACK
6
CONTINUOUS
10
132.3922949999999901
20
-114.8398380000000003
11
132.2970569999999952
21
-115.7922189999999887
0
LINE
8
BLACK
6
CONTINUOUS
10
132.2970569999999952
20
-115.7922189999999887
11
132.3922949999999901
21
-115.6969799999999964
0
LINE
8
BLACK
6
CONTINUOUS
10
132.3922949999999901
20
-115.6969799999999964
11
132.5827710000000081
21
-115.6017420000000016
0
LINE
8
BLACK
6
CONTINUOUS
10
132.5827710000000081
20
-115.6017420000000016
11
133.0589620000000082
21
-115.6017420000000016
0
LINE
8
BLACK
6
CONTINUOUS
10
133.0589620000000082
20
-115.6017420000000016
11
133.2494379999999978
21
-115.6969799999999964
0
LINE
8
BLACK
6
CONTINUOUS
10
133.2494379999999978
20
-115.6969799999999964
11
133.3446759999999927
21
-115.7922189999999887
0
LINE
8
BLACK
6
CONTINUOUS
10
133.3446759999999927
20
-115.7922189999999887
11
133.4399139999999875
21
-115.9826949999999925
0
LINE
8
BLACK
6
CONTINUOUS
10
133.4399139999999875
20
-115.9826949999999925
11
133.4399139999999875
21
-116.4588849999999951
0
LINE
8
BLACK
6
CONTINUOUS
10
133.4399139999999875
20
-116.4588849999999951
11
133.3446759999999927
21
-116.649360999999999
0
LINE
8
BLACK
6
CONTINUOUS
10
133.3446759999999927
20
-116.649360999999999
11
133.2494379999999978
21
-116.7445999999999913
0
LINE
8
BLACK
6
CONTINUOUS
10
133.2494379999999978
20
-116.7445999999999913
11
133.0589620000000082
21
-116.8398380000000003
0
LINE
8
BLACK
6
CONTINUOUS
10
133.0589620000000082
20
-116.8398380000000003
11
132.5827710000000081
21
-116.8398380000000003
0
LINE
8
BLACK
6
CONTINUOUS
10
132.5827710000000081
20
-116.8398380000000003
11
132.3922949999999901
21
-116.7445999999999913
0
LINE
8
BLACK
6
CONTINUOUS
10
132.3922949999999901
20
-116.7445999999999913
11
132.2970569999999952
21
-116.649360999999999
0
LINE
8
BLACK
6
CONTINUOUS
10
134.5827709999999797
20
-115.6969799999999964
11
134.3922949999999901
21
-115.6017420000000016
0
LINE
8
BLACK
6
CONTINUOUS
10
134.3922949999999901
20
-115.6017420000000016
11
134.2970569999999952
21
-115.5065039999999925
0
LINE
8
BLACK
6
CONTINUOUS
10
134.2970569999999952
20
-115.5065039999999925
11
134.2018190000000004
21
-115.3160279999999887
0
LINE
8
BLACK
6
CONTINUOUS
10
134.2018190000000004
20
-115.3160279999999887
11
134.2018190000000004
21
-115.2207899999999938
0
LINE
8
BLACK
6
CONTINUOUS
10
134.2018190000000004
20
-115.2207899999999938
11
134.2970569999999952
21
-115.03031399999999
0
LINE
8
BLACK
6
CONTINUOUS
10
134.2970569999999952
20
-115.03031399999999
11
134.3922949999999901
21
-114.9350759999999951
0
LINE
8
BLACK
6
CONTINUOUS
10
134.3922949999999901
20
-114.9350759999999951
11
134.5827709999999797
21
-114.8398380000000003
0
LINE
8
BLACK
6
CONTINUOUS
10
134.5827709999999797
20
-114.8398380000000003
11
134.9637239999999849
21
-114.8398380000000003
0
LINE
8
BLACK
6
CONTINUOUS
10
134.9637239999999849
20
-114.8398380000000003
11
135.154200000000003
21
-114.9350759999999951
0
LINE
8
BLACK
6
CONTINUOUS
10
135.154200000000003
20
-114.9350759999999951
11
135.2494379999999978
21
-115.03031399999999
0
LINE
8
BLACK
6
CONTINUOUS
10
135.2494379999999978
20
-115.03031399999999
11
135.3446759999999927
21
-115.2207899999999938
0
LINE
8
BLACK
6
CONTINUOUS
10
135.3446759999999927
20
-115.2207899999999938
11
135.3446759999999927
21
-115.3160279999999887
0
LINE
8
BLACK
6
CONTINUOUS
10
135.3446759999999927
20
-115.3160279999999887
11
135.2494379999999978
21
-115.5065039999999925
0
LINE
8
BLACK
6
CONTINUOUS
10
135.2494379999999978
20
-115.5065039999999925
11
135.154200000000003
21
-115.6017420000000016
0
LINE
8
BLACK
6
CONTINUOUS
10
135.154200000000003
20
-115.6017420000000016
11
134.9637239999999849
21
-115.6969799999999964
0
LINE
8
BLACK
6
CONTINUOUS
10
134.9637239999999849
20
-115.6969799999999964
11
134.5827709999999797
21
-115.6969799999999964
0
LINE
8
BLACK
6
CONTINUOUS
10
134.5827709999999797
20
-115.6969799999999964
11
134.3922949999999901
21
-115.7922189999999887
0
LINE
8
BLACK
6
CONTINUOUS
10
134.3922949999999901
20
-115.7922189999999887
11
134.2970569999999952
21
-115.8874569999999977
0
LINE
8
BLACK
6
CONTINUOUS
10
134.2970569999999952
20
-115.8874569999999977
11
134.2018190000000004
21
-116.0779330000000016
0
LINE
8
BLACK
6
CONTINUOUS
10
134.2018190000000004
20
-116.0779330000000016
11
134.2018190000000004
21
-116.4588849999999951
0
LINE
8
BLACK
6
CONTINUOUS
10
134.2018190000000004
20
-116.4588849999999951
11
134.2970569999999952
21
-116.649360999999999
0
LINE
8
BLACK
6
CONTINUOUS
10
134.2970569999999952
20
-116.649360999999999
11
134.3922949999999901
21
-116.7445999999999913
0
LINE
8
BLACK
6
CONTINUOUS
10
134.3922949999999901
20
-116.7445999999999913
11
134.5827709999999797
21
-116.8398380000000003
0
LINE
8
BLACK
6
CONTINUOUS
10
134.5827709999999797
20
-116.8398380000000003
11
134.9637239999999849
21
-116.8398380000000003
0
LINE
8
BLACK
6
CONTINUOUS
10
134.9637239999999849
20
-116.8398380000000003
11
135.154200000000003
21
-116.7445999999999913
0
LINE
8
BLACK
6
CONTINUOUS
10
135.154200000000003
20
-116.7445999999999913
11
135.2494379999999978
21
-116.649360999999999
0
LINE
8
BLACK
6
CONTINUOUS
10
135.2494379999999978
20
-116.649360999999999
11
135.3446759999999927
21
-116.4588849999999951
0
LINE
8
BLACK
6
CONTINUOUS
10
135.3446759999999927
20
-116.4588849999999951
11
135.3446759999999927
21
-116.0779330000000016
0
LINE
8
BLACK
6
CONTINUOUS
10
135.3446759999999927
20
-116.0779330000000016
11
135.2494379999999978
21
-115.8874569999999977
0
LINE
8
BLACK
6
CONTINUOUS
10
135.2494379999999978
20
-115.8874569999999977
11
135.154200000000003
21
-115.7922189999999887
0
LINE
8
BLACK
6
CONTINUOUS
10
135.154200000000003
20
-115.7922189999999887
11
134.9637239999999849
21
-115.6969799999999964
0
LINE
8
BLACK
6
CONTINUOUS
10
137.7256289999999979
20
-116.8398380000000003
11
137.7256289999999979
21
-114.8398380000000003
0
LINE
8
BLACK
6
CONTINUOUS
10
138.5827720000000056
20
-116.8398380000000003
11
138.5827720000000056
21
-115.7922189999999887
0
LINE
8
BLACK
6
CONTINUOUS
10
138.5827720000000056
20
-115.7922189999999887
11
138.4875339999999824
21
-115.6017420000000016
0
LINE
8
BLACK
6
CONTINUOUS
10
138.4875339999999824
20
-115.6017420000000016
11
138.2970579999999927
21
-115.5065039999999925
0
LINE
8
BLACK
6
CONTINUOUS
10
138.2970579999999927
20
-115.5065039999999925
11
138.0113429999999823
21
-115.5065039999999925
0
LINE
8
BLACK
6
CONTINUOUS
10
138.0113429999999823
20
-115.5065039999999925
11
137.8208669999999927
21
-115.6017420000000016
0
LINE
8
BLACK
6
CONTINUOUS
10
137.8208669999999927
20
-115.6017420000000016
11
137.7256289999999979
21
-115.6969799999999964
0
LINE
8
BLACK
6
CONTINUOUS
10
139.8208669999999927
20
-116.8398380000000003
11
139.630391000000003
21
-116.7445999999999913
0
LINE
8
BLACK
6
CONTINUOUS
10
139.630391000000003
20
-116.7445999999999913
11
139.5351529999999798
21
-116.649360999999999
0
LINE
8
BLACK
6
CONTINUOUS
10
139.5351529999999798
20
-116.649360999999999
11
139.439914999999985
21
-116.4588849999999951
0
LINE
8
BLACK
6
CONTINUOUS
10
139.439914999999985
20
-116.4588849999999951
11
139.439914999999985
21
-115.8874569999999977
0
LINE
8
BLACK
6
CONTINUOUS
10
139.439914999999985
20
-115.8874569999999977
11
139.5351529999999798
21
-115.6969799999999964
0
LINE
8
BLACK
6
CONTINUOUS
10
139.5351529999999798
20
-115.6969799999999964
11
139.630391000000003
21
-115.6017420000000016
0
LINE
8
BLACK
6
CONTINUOUS
10
139.630391000000003
20
-115.6017420000000016
11
139.8208669999999927
21
-115.5065039999999925
0
LINE
8
BLACK
6
CONTINUOUS
10
139.8208669999999927
20
-115.5065039999999925
11
140.1065820000000031
21
-115.5065039999999925
0
LINE
8
BLACK
6
CONTINUOUS
10
140.1065820000000031
20
-115.5065039999999925
11
140.2970579999999927
21
-115.6017420000000016
0
LINE
8
BLACK
6
CONTINUOUS
10
140.2970579999999927
20
-115.6017420000000016
11
140.3922959999999875
21
-115.6969799999999964
0
LINE
8
BLACK
6
CONTINUOUS
10
140.3922959999999875
20
-115.6969799999999964
11
140.4875339999999824
21
-115.8874569999999977
0
LINE
8
BLACK
6
CONTINUOUS
10
140.4875339999999824
20
-115.8874569999999977
11
140.4875339999999824
21
-116.4588849999999951
0
LINE
8
BLACK
6
CONTINUOUS
10
140.4875339999999824
20
-116.4588849999999951
11
140.3922959999999875
21
-116.649360999999999
0
LINE
8
BLACK
6
CONTINUOUS
10
140.3922959999999875
20
-116.649360999999999
11
140.2970579999999927
21
-116.7445999999999913
0
LINE
8
BLACK
6
CONTINUOUS
10
140.2970579999999927
20
-116.7445999999999913
11
140.1065820000000031
21
-116.8398380000000003
0
LINE
8
BLACK
6
CONTINUOUS
10
140.1065820000000031
20
-116.8398380000000003
11
139.8208669999999927
21
-116.8398380000000003
0
LINE
8
BLACK
6
CONTINUOUS
10
141.630391000000003
20
-116.8398380000000003
11
141.439914999999985
21
-116.7445999999999913
0
LINE
8
BLACK
6
CONTINUOUS
10
141.439914999999985
20
-116.7445999999999913
11
141.3446769999999901
21
-116.5541229999999899
0
LINE
8
BLACK
6
CONTINUOUS
10
141.3446769999999901
20
-116.5541229999999899
11
141.3446769999999901
21
-114.8398380000000003
0
LINE
8
BLACK
6
CONTINUOUS
10
143.1542010000000005
20
-116.7445999999999913
11
142.9637249999999824
21
-116.8398380000000003
0
LINE
8
BLACK
6
CONTINUOUS
10
142.9637249999999824
20
-116.8398380000000003
11
142.5827720000000056
21
-116.8398380000000003
0
LINE
8
BLACK
6
CONTINUOUS
10
142.5827720000000056
20
-116.8398380000000003
11
142.3922959999999875
21
-116.7445999999999913
0
LINE
8
BLACK
6
CONTINUOUS
10
142.3922959999999875
20
-116.7445999999999913
11
142.2970579999999927
21
-116.5541229999999899
0
LINE
8
BLACK
6
CONTINUOUS
10
142.2970579999999927
20
-116.5541229999999899
11
142.2970579999999927
21
-115.7922189999999887
0
LINE
8
BLACK
6
CONTINUOUS
10
142.2970579999999927
20
-115.7922189999999887
11
142.3922959999999875
21
-115.6017420000000016
0
LINE
8
BLACK
6
CONTINUOUS
10
142.3922959999999875
20
-115.6017420000000016
11
142.5827720000000056
21
-115.5065039999999925
0
LINE
8
BLACK
6
CONTINUOUS
10
142.5827720000000056
20
-115.5065039999999925
11
142.9637249999999824
21
-115.5065039999999925
0
LINE
8
BLACK
6
CONTINUOUS
10
142.9637249999999824
20
-115.5065039999999925
11
143.1542010000000005
21
-115.6017420000000016
0
LINE
8
BLACK
6
CONTINUOUS
10
143.1542010000000005
20
-115.6017420000000016
11
143.2494389999999953
21
-115.7922189999999887
0
LINE
8
BLACK
6
CONTINUOUS
10
143.2494389999999953
20
-115.7922189999999887
11
143.2494389999999953
21
-115.9826949999999925
0
LINE
8
BLACK
6
CONTINUOUS
10
143.2494389999999953
20
-115.9826949999999925
11
142.2970579999999927
21
-116.1731709999999964
0
LINE
8
BLACK
6
CONTINUOUS
10
144.0113439999999798
20
-116.7445999999999913
11
144.2018199999999979
21
-116.8398380000000003
0
LINE
8
BLACK
6
CONTINUOUS
10
144.2018199999999979
20
-116.8398380000000003
11
144.5827720000000056
21
-116.8398380000000003
0
LINE
8
BLACK
6
CONTINUOUS
10
144.5827720000000056
20
-116.8398380000000003
11
144.7732489999999927
21
-116.7445999999999913
0
LINE
8
BLACK
6
CONTINUOUS
10
144.7732489999999927
20
-116.7445999999999913
11
144.8684869999999876
21
-116.5541229999999899
0
LINE
8
BLACK
6
CONTINUOUS
10
144.8684869999999876
20
-116.5541229999999899
11
144.8684869999999876
21
-116.4588849999999951
0
LINE
8
BLACK
6
CONTINUOUS
10
144.8684869999999876
20
-116.4588849999999951
11
144.7732489999999927
21
-116.2684089999999912
0
LINE
8
BLACK
6
CONTINUOUS
10
144.7732489999999927
20
-116.2684089999999912
11
144.5827720000000056
21
-116.1731709999999964
0
LINE
8
BLACK
6
CONTINUOUS
10
144.5827720000000056
20
-116.1731709999999964
11
144.2970579999999927
21
-116.1731709999999964
0
LINE
8
BLACK
6
CONTINUOUS
10
144.2970579999999927
20
-116.1731709999999964
11
144.1065820000000031
21
-116.0779330000000016
0
LINE
8
BLACK
6
CONTINUOUS
10
144.1065820000000031
20
-116.0779330000000016
11
144.0113439999999798
21
-115.8874569999999977
0
LINE
8
BLACK
6
CONTINUOUS
10
144.0113439999999798
20
-115.8874569999999977
11
144.0113439999999798
21
-115.7922189999999887
0
LINE
8
BLACK
6
CONTINUOUS
10
144.0113439999999798
20
-115.7922189999999887
11
144.1065820000000031
21
-115.6017420000000016
0
LINE
8
BLACK
6
CONTINUOUS
10
144.1065820000000031
20
-115.6017420000000016
11
144.2970579999999927
21
-115.5065039999999925
0
LINE
8
BLACK
6
CONTINUOUS
10
144.2970579999999927
20
-115.5065039999999925
11
144.5827720000000056
21
-115.5065039999999925
0
LINE
8
BLACK
6
CONTINUOUS
10
144.5827720000000056
20
-115.5065039999999925
11
144.7732489999999927
21
-115.6017420000000016
0
LINE
8
BLACK
6
CONTINUOUS
10
145.5351540000000057
20
-117.6017420000000016
11
145.6303920000000005
21
-117.5065039999999925
0
LINE
8
BLACK
6
CONTINUOUS
10
145.6303920000000005
20
-117.5065039999999925
11
145.8208679999999902
21
-117.2207899999999938
0
LINE
8
BLACK
6
CONTINUOUS
10
145.8208679999999902
20
-117.2207899999999938
11
145.916105999999985
21
-117.03031399999999
0
LINE
8
BLACK
6
CONTINUOUS
10
145.916105999999985
20
-117.03031399999999
11
146.0113439999999798
21
-116.7445999999999913
0
LINE
8
BLACK
6
CONTINUOUS
10
146.0113439999999798
20
-116.7445999999999913
11
146.1065820000000031
21
-116.2684089999999912
0
LINE
8
BLACK
6
CONTINUOUS
10
146.1065820000000031
20
-116.2684089999999912
11
146.1065820000000031
21
-115.8874569999999977
0
LINE
8
BLACK
6
CONTINUOUS
10
146.1065820000000031
20
-115.8874569999999977
11
146.0113439999999798
21
-115.4112659999999977
0
LINE
8
BLACK
6
CONTINUOUS
10
146.0113439999999798
20
-115.4112659999999977
11
145.916105999999985
21
-115.125551999999999
0
LINE
8
BLACK
6
CONTINUOUS
10
145.916105999999985
20
-115.125551999999999
11
145.8208679999999902
21
-114.9350759999999951
0
LINE
8
BLACK
6
CONTINUOUS
10
145.8208679999999902
20
-114.9350759999999951
11
145.6303920000000005
21
-114.649360999999999
0
LINE
8
BLACK
6
CONTINUOUS
10
145.6303920000000005
20
-114.649360999999999
11
145.5351540000000057
21
-114.5541229999999899
0
CIRCLE
8
BLACK
10
93.6749999999999972
20
-118.5649999999999977
40
0.3
0
LINE
8
BLACK
6
CONTINUOUS
10
96.963719999999995
20
-117.4798380000000009
11
97.1541969999999964
21
-117.4798380000000009
0
LINE
8
BLACK
6
CONTINUOUS
10
97.1541969999999964
20
-117.4798380000000009
11
97.3446730000000002
21
-117.5750759999999957
0
LINE
8
BLACK
6
CONTINUOUS
10
97.3446730000000002
20
-117.5750759999999957
11
97.4399109999999951
21
-117.6703139999999905
0
LINE
8
BLACK
6
CONTINUOUS
10
97.4399109999999951
20
-117.6703139999999905
11
97.5351489999999899
21
-117.8607899999999944
0
LINE
8
BLACK
6
CONTINUOUS
10
97.5351489999999899
20
-117.8607899999999944
11
97.6303869999999989
21
-118.2417419999999879
0
LINE
8
BLACK
6
CONTINUOUS
10
97.6303869999999989
20
-118.2417419999999879
11
97.6303869999999989
21
-118.7179329999999879
0
LINE
8
BLACK
6
CONTINUOUS
10
97.6303869999999989
20
-118.7179329999999879
11
97.5351489999999899
21
-119.0988849999999957
0
LINE
8
BLACK
6
CONTINUOUS
10
97.5351489999999899
20
-119.0988849999999957
11
97.4399109999999951
21
-119.2893609999999995
0
LINE
8
BLACK
6
CONTINUOUS
10
97.4399109999999951
20
-119.2893609999999995
11
97.3446730000000002
21
-119.3845999999999918
0
LINE
8
BLACK
6
CONTINUOUS
10
97.3446730000000002
20
-119.3845999999999918
11
97.1541969999999964
21
-119.4798380000000009
0
LINE
8
BLACK
6
CONTINUOUS
10
97.1541969999999964
20
-119.4798380000000009
11
96.963719999999995
21
-119.4798380000000009
0
LINE
8
BLACK
6
CONTINUOUS
10
96.963719999999995
20
-119.4798380000000009
11
96.7732439999999912
21
-119.3845999999999918
0
LINE
8
BLACK
6
CONTINUOUS
10
96.7732439999999912
20
-119.3845999999999918
11
96.6780059999999963
21
-119.2893609999999995
0
LINE
8
BLACK
6
CONTINUOUS
10
96.6780059999999963
20
-119.2893609999999995
11
96.5827680000000015
21
-119.0988849999999957
0
LINE
8
BLACK
6
CONTINUOUS
10
96.5827680000000015
20
-119.0988849999999957
11
96.4875299999999925
21
-118.7179329999999879
0
LINE
8
BLACK
6
CONTINUOUS
10
96.4875299999999925
20
-118.7179329999999879
11
96.4875299999999925
21
-118.2417419999999879
0
LINE
8
BLACK
6
CONTINUOUS
10
96.4875299999999925
20
-118.2417419999999879
11
96.5827680000000015
21
-117.8607899999999944
0
LINE
8
BLACK
6
CONTINUOUS
10
96.5827680000000015
20
-117.8607899999999944
11
96.6780059999999963
21
-117.6703139999999905
0
LINE
8
BLACK
6
CONTINUOUS
10
96.6780059999999963
20
-117.6703139999999905
11
96.7732439999999912
21
-117.5750759999999957
0
LINE
8
BLACK
6
CONTINUOUS
10
96.7732439999999912
20
-117.5750759999999957
11
96.963719999999995
21
-117.4798380000000009
0
LINE
8
BLACK
6
CONTINUOUS
10
98.5827680000000015
20
-119.3845999999999918
11
98.5827680000000015
21
-119.4798380000000009
0
LINE
8
BLACK
6
CONTINUOUS
10
98.5827680000000015
20
-119.4798380000000009
11
98.4875299999999925
21
-119.6703139999999905
0
LINE
8
BLACK
6
CONTINUOUS
10
98.4875299999999925
20
-119.6703139999999905
11
98.3922919999999976
21
-119.7655519999999996
0
LINE
8
BLACK
6
CONTINUOUS
10
100.2970539999999886
20
-117.4798380000000009
11
99.9161009999999976
21
-117.4798380000000009
0
LINE
8
BLACK
6
CONTINUOUS
10
99.9161009999999976
20
-117.4798380000000009
11
99.7256249999999937
21
-117.5750759999999957
0
LINE
8
BLACK
6
CONTINUOUS
10
99.7256249999999937
20
-117.5750759999999957
11
99.6303869999999989
21
-117.6703139999999905
0
LINE
8
BLACK
6
CONTINUOUS
10
99.6303869999999989
20
-117.6703139999999905
11
99.4399109999999951
21
-117.9560279999999892
0
LINE
8
BLACK
6
CONTINUOUS
10
99.4399109999999951
20
-117.9560279999999892
11
99.3446730000000002
21
-118.3369799999999969
0
LINE
8
BLACK
6
CONTINUOUS
10
99.3446730000000002
20
-118.3369799999999969
11
99.3446730000000002
21
-119.0988849999999957
0
LINE
8
BLACK
6
CONTINUOUS
10
99.3446730000000002
20
-119.0988849999999957
11
99.4399109999999951
21
-119.2893609999999995
0
LINE
8
BLACK
6
CONTINUOUS
10
99.4399109999999951
20
-119.2893609999999995
11
99.5351489999999899
21
-119.3845999999999918
0
LINE
8
BLACK
6
CONTINUOUS
10
99.5351489999999899
20
-119.3845999999999918
11
99.7256249999999937
21
-119.4798380000000009
0
LINE
8
BLACK
6
CONTINUOUS
10
99.7256249999999937
20
-119.4798380000000009
11
100.106577999999999
21
-119.4798380000000009
0
LINE
8
BLACK
6
CONTINUOUS
10
100.106577999999999
20
-119.4798380000000009
11
100.2970539999999886
21
-119.3845999999999918
0
LINE
8
BLACK
6
CONTINUOUS
10
100.2970539999999886
20
-119.3845999999999918
11
100.3922919999999976
21
-119.2893609999999995
0
LINE
8
BLACK
6
CONTINUOUS
10
100.3922919999999976
20
-119.2893609999999995
11
100.4875299999999925
21
-119.0988849999999957
0
LINE
8
BLACK
6
CONTINUOUS
10
100.4875299999999925
20
-119.0988849999999957
11
100.4875299999999925
21
-118.6226949999999931
0
LINE
8
BLACK
6
CONTINUOUS
10
100.4875299999999925
20
-118.6226949999999931
11
100.3922919999999976
21
-118.4322189999999893
0
LINE
8
BLACK
6
CONTINUOUS
10
100.3922919999999976
20
-118.4322189999999893
11
100.2970539999999886
21
-118.3369799999999969
0
LINE
8
BLACK
6
CONTINUOUS
10
100.2970539999999886
20
-118.3369799999999969
11
100.106577999999999
21
-118.2417419999999879
0
LINE
8
BLACK
6
CONTINUOUS
10
100.106577999999999
20
-118.2417419999999879
11
99.7256249999999937
21
-118.2417419999999879
0
LINE
8
BLACK
6
CONTINUOUS
10
99.7256249999999937
20
-118.2417419999999879
11
99.5351489999999899
21
-118.3369799999999969
0
LINE
8
BLACK
6
CONTINUOUS
10
99.5351489999999899
20
-118.3369799999999969
11
99.4399109999999951
21
-118.4322189999999893
0
LINE
8
BLACK
6
CONTINUOUS
10
99.4399109999999951
20
-118.4322189999999893
11
99.3446730000000002
21
-118.6226949999999931
0
LINE
8
BLACK
6
CONTINUOUS
10
101.7256249999999937
20
-117.4798380000000009
11
101.9161019999999951
21
-117.4798380000000009
0
LINE
8
BLACK
6
CONTINUOUS
10
101.9161019999999951
20
-117.4798380000000009
11
102.106577999999999
21
-117.5750759999999957
0
LINE
8
BLACK
6
CONTINUOUS
10
102.106577999999999
20
-117.5750759999999957
11
102.2018159999999938
21
-117.6703139999999905
0
LINE
8
BLACK
6
CONTINUOUS
10
102.2018159999999938
20
-117.6703139999999905
11
102.2970539999999886
21
-117.8607899999999944
0
LINE
8
BLACK
6
CONTINUOUS
10
102.2970539999999886
20
-117.8607899999999944
11
102.3922919999999976
21
-118.2417419999999879
0
LINE
8
BLACK
6
CONTINUOUS
10
102.3922919999999976
20
-118.2417419999999879
11
102.3922919999999976
21
-118.7179329999999879
0
LINE
8
BLACK
6
CONTINUOUS
10
102.3922919999999976
20
-118.7179329999999879
11
102.2970539999999886
21
-119.0988849999999957
0
LINE
8
BLACK
6
CONTINUOUS
10
102.2970539999999886
20
-119.0988849999999957
11
102.2018159999999938
21
-119.2893609999999995
0
LINE
8
BLACK
6
CONTINUOUS
10
102.2018159999999938
20
-119.2893609999999995
11
102.106577999999999
21
-119.3845999999999918
0
LINE
8
BLACK
6
CONTINUOUS
10
102.106577999999999
20
-119.3845999999999918
11
101.9161019999999951
21
-119.4798380000000009
0
LINE
8
BLACK
6
CONTINUOUS
10
101.9161019999999951
20
-119.4798380000000009
11
101.7256249999999937
21
-119.4798380000000009
0
LINE
8
BLACK
6
CONTINUOUS
10
101.7256249999999937
20
-119.4798380000000009
11
101.5351489999999899
21
-119.3845999999999918
0
LINE
8
BLACK
6
CONTINUOUS
10
101.5351489999999899
20
-119.3845999999999918
11
101.4399109999999951
21
-119.2893609999999995
0
LINE
8
BLACK
6
CONTINUOUS
10
101.4399109999999951
20
-119.2893609999999995
11
101.3446730000000002
21
-119.0988849999999957
0
LINE
8
BLACK
6
CONTINUOUS
10
101.3446730000000002
20
-119.0988849999999957
11
101.2494349999999912
21
-118.7179329999999879
0
LINE
8
BLACK
6
CONTINUOUS
10
101.2494349999999912
20
-118.7179329999999879
11
101.2494349999999912
21
-118.2417419999999879
0
LINE
8
BLACK
6
CONTINUOUS
10
101.2494349999999912
20
-118.2417419999999879
11
101.3446730000000002
21
-117.8607899999999944
0
LINE
8
BLACK
6
CONTINUOUS
10
101.3446730000000002
20
-117.8607899999999944
11
101.4399109999999951
21
-117.6703139999999905
0
LINE
8
BLACK
6
CONTINUOUS
10
101.4399109999999951
20
-117.6703139999999905
11
101.5351489999999899
21
-117.5750759999999957
0
LINE
8
BLACK
6
CONTINUOUS
10
101.5351489999999899
20
-117.5750759999999957
11
101.7256249999999937
21
-117.4798380000000009
0
LINE
8
BLACK
6
CONTINUOUS
10
103.6303869999999989
20
-117.4798380000000009
11
103.8208640000000003
21
-117.4798380000000009
0
LINE
8
BLACK
6
CONTINUOUS
10
103.8208640000000003
20
-117.4798380000000009
11
104.0113399999999899
21
-117.5750759999999957
0
LINE
8
BLACK
6
CONTINUOUS
10
104.0113399999999899
20
-117.5750759999999957
11
104.106577999999999
21
-117.6703139999999905
0
LINE
8
BLACK
6
CONTINUOUS
10
104.106577999999999
20
-117.6703139999999905
11
104.2018159999999938
21
-117.8607899999999944
0
LINE
8
BLACK
6
CONTINUOUS
10
104.2018159999999938
20
-117.8607899999999944
11
104.2970539999999886
21
-118.2417419999999879
0
LINE
8
BLACK
6
CONTINUOUS
10
104.2970539999999886
20
-118.2417419999999879
11
104.2970539999999886
21
-118.7179329999999879
0
LINE
8
BLACK
6
CONTINUOUS
10
104.2970539999999886
20
-118.7179329999999879
11
104.2018159999999938
21
-119.0988849999999957
0
LINE
8
BLACK
6
CONTINUOUS
10
104.2018159999999938
20
-119.0988849999999957
11
104.106577999999999
21
-119.2893609999999995
0
LINE
8
BLACK
6
CONTINUOUS
10
104.106577999999999
20
-119.2893609999999995
11
104.0113399999999899
21
-119.3845999999999918
0
LINE
8
BLACK
6
CONTINUOUS
10
104.0113399999999899
20
-119.3845999999999918
11
103.8208640000000003
21
-119.4798380000000009
0
LINE
8
BLACK
6
CONTINUOUS
10
103.8208640000000003
20
-119.4798380000000009
11
103.6303869999999989
21
-119.4798380000000009
0
LINE
8
BLACK
6
CONTINUOUS
10
103.6303869999999989
20
-119.4798380000000009
11
103.4399109999999951
21
-119.3845999999999918
0
LINE
8
BLACK
6
CONTINUOUS
10
103.4399109999999951
20
-119.3845999999999918
11
103.3446730000000002
21
-119.2893609999999995
0
LINE
8
BLACK
6
CONTINUOUS
10
103.3446730000000002
20
-119.2893609999999995
11
103.2494349999999912
21
-119.0988849999999957
0
LINE
8
BLACK
6
CONTINUOUS
10
103.2494349999999912
20
-119.0988849999999957
11
103.1541969999999964
21
-118.7179329999999879
0
LINE
8
BLACK
6
CONTINUOUS
10
103.1541969999999964
20
-118.7179329999999879
11
103.1541969999999964
21
-118.2417419999999879
0
LINE
8
BLACK
6
CONTINUOUS
10
103.1541969999999964
20
-118.2417419999999879
11
103.2494349999999912
21
-117.8607899999999944
0
LINE
8
BLACK
6
CONTINUOUS
10
103.2494349999999912
20
-117.8607899999999944
11
103.3446730000000002
21
-117.6703139999999905
0
LINE
8
BLACK
6
CONTINUOUS
10
103.3446730000000002
20
-117.6703139999999905
11
103.4399109999999951
21
-117.5750759999999957
0
LINE
8
BLACK
6
CONTINUOUS
10
103.4399109999999951
20
-117.5750759999999957
11
103.6303869999999989
21
-117.4798380000000009
0
LINE
8
BLACK
6
CONTINUOUS
10
105.1541969999999964
20
-119.4798380000000009
11
105.1541969999999964
21
-118.1465039999999931
0
LINE
8
BLACK
6
CONTINUOUS
10
105.1541969999999964
20
-118.3369799999999969
11
105.2494349999999912
21
-118.2417419999999879
0
LINE
8
BLACK
6
CONTINUOUS
10
105.2494349999999912
20
-118.2417419999999879
11
105.4399109999999951
21
-118.1465039999999931
0
LINE
8
BLACK
6
CONTINUOUS
10
105.4399109999999951
20
-118.1465039999999931
11
105.7256259999999912
21
-118.1465039999999931
0
LINE
8
BLACK
6
CONTINUOUS
10
105.7256259999999912
20
-118.1465039999999931
11
105.9161019999999951
21
-118.2417419999999879
0
LINE
8
BLACK
6
CONTINUOUS
10
105.9161019999999951
20
-118.2417419999999879
11
106.0113399999999899
21
-118.4322189999999893
0
LINE
8
BLACK
6
CONTINUOUS
10
106.0113399999999899
20
-118.4322189999999893
11
106.0113399999999899
21
-119.4798380000000009
0
LINE
8
BLACK
6
CONTINUOUS
10
106.0113399999999899
20
-118.4322189999999893
11
106.106577999999999
21
-118.2417419999999879
0
LINE
8
BLACK
6
CONTINUOUS
10
106.106577999999999
20
-118.2417419999999879
11
106.2970539999999886
21
-118.1465039999999931
0
LINE
8
BLACK
6
CONTINUOUS
10
106.2970539999999886
20
-118.1465039999999931
11
106.5827680000000015
21
-118.1465039999999931
0
LINE
8
BLACK
6
CONTINUOUS
10
106.5827680000000015
20
-118.1465039999999931
11
106.7732449999999886
21
-118.2417419999999879
0
LINE
8
BLACK
6
CONTINUOUS
10
106.7732449999999886
20
-118.2417419999999879
11
106.8684829999999977
21
-118.4322189999999893
0
LINE
8
BLACK
6
CONTINUOUS
10
106.8684829999999977
20
-118.4322189999999893
11
106.8684829999999977
21
-119.4798380000000009
0
LINE
8
BLACK
6
CONTINUOUS
10
107.8208640000000003
20
-119.4798380000000009
11
107.8208640000000003
21
-118.1465039999999931
0
LINE
8
BLACK
6
CONTINUOUS
10
107.8208640000000003
20
-118.3369799999999969
11
107.9161019999999951
21
-118.2417419999999879
0
LINE
8
BLACK
6
CONTINUOUS
10
107.9161019999999951
20
-118.2417419999999879
11
108.106577999999999
21
-118.1465039999999931
0
LINE
8
BLACK
6
CONTINUOUS
10
108.106577999999999
20
-118.1465039999999931
11
108.3922929999999951
21
-118.1465039999999931
0
LINE
8
BLACK
6
CONTINUOUS
10
108.3922929999999951
20
-118.1465039999999931
11
108.582768999999999
21
-118.2417419999999879
0
LINE
8
BLACK
6
CONTINUOUS
10
108.582768999999999
20
-118.2417419999999879
11
108.6780069999999938
21
-118.4322189999999893
0
LINE
8
BLACK
6
CONTINUOUS
10
108.6780069999999938
20
-118.4322189999999893
11
108.6780069999999938
21
-119.4798380000000009
0
LINE
8
BLACK
6
CONTINUOUS
10
108.6780069999999938
20
-118.4322189999999893
11
108.7732449999999886
21
-118.2417419999999879
0
LINE
8
BLACK
6
CONTINUOUS
10
108.7732449999999886
20
-118.2417419999999879
11
108.9637209999999925
21
-118.1465039999999931
0
LINE
8
BLACK
6
CONTINUOUS
10
108.9637209999999925
20
-118.1465039999999931
11
109.2494349999999912
21
-118.1465039999999931
0
LINE
8
BLACK
6
CONTINUOUS
10
109.2494349999999912
20
-118.1465039999999931
11
109.4399119999999925
21
-118.2417419999999879
0
LINE
8
BLACK
6
CONTINUOUS
10
109.4399119999999925
20
-118.2417419999999879
11
109.5351500000000016
21
-118.4322189999999893
0
LINE
8
BLACK
6
CONTINUOUS
10
109.5351500000000016
20
-118.4322189999999893
11
109.5351500000000016
21
-119.4798380000000009
0
LINE
8
BLACK
6
CONTINUOUS
10
113.4399119999999925
20
-117.3845999999999918
11
111.7256269999999887
21
-119.9560279999999892
0
LINE
8
BLACK
6
CONTINUOUS
10
116.0113410000000016
20
-117.4798380000000009
11
116.2018179999999887
21
-117.4798380000000009
0
LINE
8
BLACK
6
CONTINUOUS
10
116.2018179999999887
20
-117.4798380000000009
11
116.3922939999999926
21
-117.5750759999999957
0
LINE
8
BLACK
6
CONTINUOUS
10
116.3922939999999926
20
-117.5750759999999957
11
116.4875320000000016
21
-117.6703139999999905
0
LINE
8
BLACK
6
CONTINUOUS
10
116.4875320000000016
20
-117.6703139999999905
11
116.5827699999999965
21
-117.8607899999999944
0
LINE
8
BLACK
6
CONTINUOUS
10
116.5827699999999965
20
-117.8607899999999944
11
116.6780079999999913
21
-118.2417419999999879
0
LINE
8
BLACK
6
CONTINUOUS
10
116.6780079999999913
20
-118.2417419999999879
11
116.6780079999999913
21
-118.7179329999999879
0
LINE
8
BLACK
6
CONTINUOUS
10
116.6780079999999913
20
-118.7179329999999879
11
116.5827699999999965
21
-119.0988849999999957
0
LINE
8
BLACK
6
CONTINUOUS
10
116.5827699999999965
20
-119.0988849999999957
11
116.4875320000000016
21
-119.2893609999999995
0
LINE
8
BLACK
6
CONTINUOUS
10
116.4875320000000016
20
-119.2893609999999995
11
116.3922939999999926
21
-119.3845999999999918
0
LINE
8
BLACK
6
CONTINUOUS
10
116.3922939999999926
20
-119.3845999999999918
11
116.2018179999999887
21
-119.4798380000000009
0
LINE
8
BLACK
6
CONTINUOUS
10
116.2018179999999887
20
-119.4798380000000009
11
116.0113410000000016
21
-119.4798380000000009
0
LINE
8
BLACK
6
CONTINUOUS
10
116.0113410000000016
20
-119.4798380000000009
11
115.8208649999999977
21
-119.3845999999999918
0
LINE
8
BLACK
6
CONTINUOUS
10
115.8208649999999977
20
-119.3845999999999918
11
115.7256269999999887
21
-119.2893609999999995
0
LINE
8
BLACK
6
CONTINUOUS
10
115.7256269999999887
20
-119.2893609999999995
11
115.6303889999999939
21
-119.0988849999999957
0
LINE
8
BLACK
6
CONTINUOUS
10
115.6303889999999939
20
-119.0988849999999957
11
115.535150999999999
21
-118.7179329999999879
0
LINE
8
BLACK
6
CONTINUOUS
10
115.535150999999999
20
-118.7179329999999879
11
115.535150999999999
21
-118.2417419999999879
0
LINE
8
BLACK
6
CONTINUOUS
10
115.535150999999999
20
-118.2417419999999879
11
115.6303889999999939
21
-117.8607899999999944
0
LINE
8
BLACK
6
CONTINUOUS
10
115.6303889999999939
20
-117.8607899999999944
11
115.7256269999999887
21
-117.6703139999999905
0
LINE
8
BLACK
6
CONTINUOUS
10
115.7256269999999887
20
-117.6703139999999905
11
115.8208649999999977
21
-117.5750759999999957
0
LINE
8
BLACK
6
CONTINUOUS
10
115.8208649999999977
20
-117.5750759999999957
11
116.0113410000000016
21
-117.4798380000000009
0
LINE
8
BLACK
6
CONTINUOUS
10
117.6303889999999939
20
-119.3845999999999918
11
117.6303889999999939
21
-119.4798380000000009
0
LINE
8
BLACK
6
CONTINUOUS
10
117.6303889999999939
20
-119.4798380000000009
11
117.535150999999999
21
-119.6703139999999905
0
LINE
8
BLACK
6
CONTINUOUS
10
117.535150999999999
20
-119.6703139999999905
11
117.43991299999999
21
-119.7655519999999996
0
LINE
8
BLACK
6
CONTINUOUS
10
118.8684839999999951
20
-117.4798380000000009
11
119.0589609999999965
21
-117.4798380000000009
0
LINE
8
BLACK
6
CONTINUOUS
10
119.0589609999999965
20
-117.4798380000000009
11
119.2494370000000004
21
-117.5750759999999957
0
LINE
8
BLACK
6
CONTINUOUS
10
119.2494370000000004
20
-117.5750759999999957
11
119.3446749999999952
21
-117.6703139999999905
0
LINE
8
BLACK
6
CONTINUOUS
10
119.3446749999999952
20
-117.6703139999999905
11
119.43991299999999
21
-117.8607899999999944
0
LINE
8
BLACK
6
CONTINUOUS
10
119.43991299999999
20
-117.8607899999999944
11
119.535150999999999
21
-118.2417419999999879
0
LINE
8
BLACK
6
CONTINUOUS
10
119.535150999999999
20
-118.2417419999999879
11
119.535150999999999
21
-118.7179329999999879
0
LINE
8
BLACK
6
CONTINUOUS
10
119.535150999999999
20
-118.7179329999999879
11
119.43991299999999
21
-119.0988849999999957
0
LINE
8
BLACK
6
CONTINUOUS
10
119.43991299999999
20
-119.0988849999999957
11
119.3446749999999952
21
-119.2893609999999995
0
LINE
8
BLACK
6
CONTINUOUS
10
119.3446749999999952
20
-119.2893609999999995
11
119.2494370000000004
21
-119.3845999999999918
0
LINE
8
BLACK
6
CONTINUOUS
10
119.2494370000000004
20
-119.3845999999999918
11
119.0589609999999965
21
-119.4798380000000009
0
LINE
8
BLACK
6
CONTINUOUS
10
119.0589609999999965
20
-119.4798380000000009
11
118.8684839999999951
21
-119.4798380000000009
0
LINE
8
BLACK
6
CONTINUOUS
10
118.8684839999999951
20
-119.4798380000000009
11
118.6780079999999913
21
-119.3845999999999918
0
LINE
8
BLACK
6
CONTINUOUS
10
118.6780079999999913
20
-119.3845999999999918
11
118.5827699999999965
21
-119.2893609999999995
0
LINE
8
BLACK
6
CONTINUOUS
10
118.5827699999999965
20
-119.2893609999999995
11
118.4875320000000016
21
-119.0988849999999957
0
LINE
8
BLACK
6
CONTINUOUS
10
118.4875320000000016
20
-119.0988849999999957
11
118.3922939999999926
21
-118.7179329999999879
0
LINE
8
BLACK
6
CONTINUOUS
10
118.3922939999999926
20
-118.7179329999999879
11
118.3922939999999926
21
-118.2417419999999879
0
LINE
8
BLACK
6
CONTINUOUS
10
118.3922939999999926
20
-118.2417419999999879
11
118.4875320000000016
21
-117.8607899999999944
0
LINE
8
BLACK
6
CONTINUOUS
10
118.4875320000000016
20
-117.8607899999999944
11
118.5827699999999965
21
-117.6703139999999905
0
LINE
8
BLACK
6
CONTINUOUS
10
118.5827699999999965
20
-117.6703139999999905
11
118.6780079999999913
21
-117.5750759999999957
0
LINE
8
BLACK
6
CONTINUOUS
10
118.6780079999999913
20
-117.5750759999999957
11
118.8684839999999951
21
-117.4798380000000009
0
LINE
8
BLACK
6
CONTINUOUS
10
120.2970559999999978
20
-117.6703139999999905
11
120.3922939999999926
21
-117.5750759999999957
0
LINE
8
BLACK
6
CONTINUOUS
10
120.3922939999999926
20
-117.5750759999999957
11
120.5827699999999965
21
-117.4798380000000009
0
LINE
8
BLACK
6
CONTINUOUS
10
120.5827699999999965
20
-117.4798380000000009
11
121.0589609999999965
21
-117.4798380000000009
0
LINE
8
BLACK
6
CONTINUOUS
10
121.0589609999999965
20
-117.4798380000000009
11
121.2494370000000004
21
-117.5750759999999957
0
LINE
8
BLACK
6
CONTINUOUS
10
121.2494370000000004
20
-117.5750759999999957
11
121.3446749999999952
21
-117.6703139999999905
0
LINE
8
BLACK
6
CONTINUOUS
10
121.3446749999999952
20
-117.6703139999999905
11
121.43991299999999
21
-117.8607899999999944
0
LINE
8
BLACK
6
CONTINUOUS
10
121.43991299999999
20
-117.8607899999999944
11
121.43991299999999
21
-118.0512659999999983
0
LINE
8
BLACK
6
CONTINUOUS
10
121.43991299999999
20
-118.0512659999999983
11
121.3446749999999952
21
-118.3369799999999969
0
LINE
8
BLACK
6
CONTINUOUS
10
121.3446749999999952
20
-118.3369799999999969
11
120.2018179999999887
21
-119.4798380000000009
0
LINE
8
BLACK
6
CONTINUOUS
10
120.2018179999999887
20
-119.4798380000000009
11
121.43991299999999
21
-119.4798380000000009
0
LINE
8
BLACK
6
CONTINUOUS
10
122.1065799999999939
20
-117.4798380000000009
11
123.3446749999999952
21
-117.4798380000000009
0
LINE
8
BLACK
6
CONTINUOUS
10
123.3446749999999952
20
-117.4798380000000009
11
122.6780079999999913
21
-118.2417419999999879
0
LINE
8
BLACK
6
CONTINUOUS
10
122.6780079999999913
20
-118.2417419999999879
11
122.9637229999999875
21
-118.2417419999999879
0
LINE
8
BLACK
6
CONTINUOUS
10
122.9637229999999875
20
-118.2417419999999879
11
123.1541989999999913
21
-118.3369799999999969
0
LINE
8
BLACK
6
CONTINUOUS
10
123.1541989999999913
20
-118.3369799999999969
11
123.2494370000000004
21
-118.4322189999999893
0
LINE
8
BLACK
6
CONTINUOUS
10
123.2494370000000004
20
-118.4322189999999893
11
123.3446749999999952
21
-118.6226949999999931
0
LINE
8
BLACK
6
CONTINUOUS
10
123.3446749999999952
20
-118.6226949999999931
11
123.3446749999999952
21
-119.0988849999999957
0
LINE
8
BLACK
6
CONTINUOUS
10
123.3446749999999952
20
-119.0988849999999957
11
123.2494370000000004
21
-119.2893609999999995
0
LINE
8
BLACK
6
CONTINUOUS
10
123.2494370000000004
20
-119.2893609999999995
11
123.1541989999999913
21
-119.3845999999999918
0
LINE
8
BLACK
6
CONTINUOUS
10
123.1541989999999913
20
-119.3845999999999918
11
122.9637229999999875
21
-119.4798380000000009
0
LINE
8
BLACK
6
CONTINUOUS
10
122.9637229999999875
20
-119.4798380000000009
11
122.3922939999999926
21
-119.4798380000000009
0
LINE
8
BLACK
6
CONTINUOUS
10
122.3922939999999926
20
-119.4798380000000009
11
122.2018179999999887
21
-119.3845999999999918
0
LINE
8
BLACK
6
CONTINUOUS
10
122.2018179999999887
20
-119.3845999999999918
11
122.1065799999999939
21
-119.2893609999999995
0
LINE
8
BLACK
6
CONTINUOUS
10
125.0589609999999965
20
-117.4798380000000009
11
124.6780079999999913
21
-117.4798380000000009
0
LINE
8
BLACK
6
CONTINUOUS
10
124.6780079999999913
20
-117.4798380000000009
11
124.4875319999999874
21
-117.5750759999999957
0
LINE
8
BLACK
6
CONTINUOUS
10
124.4875319999999874
20
-117.5750759999999957
11
124.3922939999999926
21
-117.6703139999999905
0
LINE
8
BLACK
6
CONTINUOUS
10
124.3922939999999926
20
-117.6703139999999905
11
124.2018179999999887
21
-117.9560279999999892
0
LINE
8
BLACK
6
CONTINUOUS
10
124.2018179999999887
20
-117.9560279999999892
11
124.1065799999999939
21
-118.3369799999999969
0
LINE
8
BLACK
6
CONTINUOUS
10
124.1065799999999939
20
-118.3369799999999969
11
124.1065799999999939
21
-119.0988849999999957
0
LINE
8
BLACK
6
CONTINUOUS
10
124.1065799999999939
20
-119.0988849999999957
11
124.2018179999999887
21
-119.2893609999999995
0
LINE
8
BLACK
6
CONTINUOUS
10
124.2018179999999887
20
-119.2893609999999995
11
124.2970559999999978
21
-119.3845999999999918
0
LINE
8
BLACK
6
CONTINUOUS
10
124.2970559999999978
20
-119.3845999999999918
11
124.4875319999999874
21
-119.4798380000000009
0
LINE
8
BLACK
6
CONTINUOUS
10
124.4875319999999874
20
-119.4798380000000009
11
124.8684849999999926
21
-119.4798380000000009
0
LINE
8
BLACK
6
CONTINUOUS
10
124.8684849999999926
20
-119.4798380000000009
11
125.0589609999999965
21
-119.3845999999999918
0
LINE
8
BLACK
6
CONTINUOUS
10
125.0589609999999965
20
-119.3845999999999918
11
125.1541989999999913
21
-119.2893609999999995
0
LINE
8
BLACK
6
CONTINUOUS
10
125.1541989999999913
20
-119.2893609999999995
11
125.2494370000000004
21
-119.0988849999999957
0
LINE
8
BLACK
6
CONTINUOUS
10
125.2494370000000004
20
-119.0988849999999957
11
125.2494370000000004
21
-118.6226949999999931
0
LINE
8
BLACK
6
CONTINUOUS
10
125.2494370000000004
20
-118.6226949999999931
11
125.1541989999999913
21
-118.4322189999999893
0
LINE
8
BLACK
6
CONTINUOUS
10
125.1541989999999913
20
-118.4322189999999893
11
125.0589609999999965
21
-118.3369799999999969
0
LINE
8
BLACK
6
CONTINUOUS
10
125.0589609999999965
20
-118.3369799999999969
11
124.8684849999999926
21
-118.2417419999999879
0
LINE
8
BLACK
6
CONTINUOUS
10
124.8684849999999926
20
-118.2417419999999879
11
124.4875319999999874
21
-118.2417419999999879
0
LINE
8
BLACK
6
CONTINUOUS
10
124.4875319999999874
20
-118.2417419999999879
11
124.2970559999999978
21
-118.3369799999999969
0
LINE
8
BLACK
6
CONTINUOUS
10
124.2970559999999978
20
-118.3369799999999969
11
124.2018179999999887
21
-118.4322189999999893
0
LINE
8
BLACK
6
CONTINUOUS
10
124.2018179999999887
20
-118.4322189999999893
11
124.1065799999999939
21
-118.6226949999999931
0
LINE
8
BLACK
6
CONTINUOUS
10
126.0113419999999991
20
-117.4798380000000009
11
126.0113419999999991
21
-117.8607899999999944
0
LINE
8
BLACK
6
CONTINUOUS
10
126.7732469999999978
20
-117.4798380000000009
11
126.7732469999999978
21
-117.8607899999999944
0
LINE
8
BLACK
6
CONTINUOUS
10
129.7256289999999979
20
-120.2417419999999879
11
129.6303900000000056
21
-120.1465039999999931
0
LINE
8
BLACK
6
CONTINUOUS
10
129.6303900000000056
20
-120.1465039999999931
11
129.4399139999999875
21
-119.8607899999999944
0
LINE
8
BLACK
6
CONTINUOUS
10
129.4399139999999875
20
-119.8607899999999944
11
129.3446759999999927
21
-119.6703139999999905
0
LINE
8
BLACK
6
CONTINUOUS
10
129.3446759999999927
20
-119.6703139999999905
11
129.2494379999999978
21
-119.3845999999999918
0
LINE
8
BLACK
6
CONTINUOUS
10
129.2494379999999978
20
-119.3845999999999918
11
129.154200000000003
21
-118.9084089999999918
0
LINE
8
BLACK
6
CONTINUOUS
10
129.154200000000003
20
-118.9084089999999918
11
129.154200000000003
21
-118.5274569999999983
0
LINE
8
BLACK
6
CONTINUOUS
10
129.154200000000003
20
-118.5274569999999983
11
129.2494379999999978
21
-118.0512659999999983
0
LINE
8
BLACK
6
CONTINUOUS
10
129.2494379999999978
20
-118.0512659999999983
11
129.3446759999999927
21
-117.7655519999999996
0
LINE
8
BLACK
6
CONTINUOUS
10
129.3446759999999927
20
-117.7655519999999996
11
129.4399139999999875
21
-117.5750759999999957
0
LINE
8
BLACK
6
CONTINUOUS
10
129.4399139999999875
20
-117.5750759999999957
11
129.6303900000000056
21
-117.2893609999999995
0
LINE
8
BLACK
6
CONTINUOUS
10
129.6303900000000056
20
-117.2893609999999995
11
129.7256289999999979
21
-117.1941229999999905
0
LINE
8
BLACK
6
CONTINUOUS
10
130.8684849999999926
20
-117.4798380000000009
11
131.0589620000000082
21
-117.4798380000000009
0
LINE
8
BLACK
6
CONTINUOUS
10
131.0589620000000082
20
-117.4798380000000009
11
131.2494379999999978
21
-117.5750759999999957
0
LINE
8
BLACK
6
CONTINUOUS
10
131.2494379999999978
20
-117.5750759999999957
11
131.3446759999999927
21
-117.6703139999999905
0
LINE
8
BLACK
6
CONTINUOUS
10
131.3446759999999927
20
-117.6703139999999905
11
131.4399139999999875
21
-117.8607899999999944
0
LINE
8
BLACK
6
CONTINUOUS
10
131.4399139999999875
20
-117.8607899999999944
11
131.5351519999999823
21
-118.2417419999999879
0
LINE
8
BLACK
6
CONTINUOUS
10
131.5351519999999823
20
-118.2417419999999879
11
131.5351519999999823
21
-118.7179329999999879
0
LINE
8
BLACK
6
CONTINUOUS
10
131.5351519999999823
20
-118.7179329999999879
11
131.4399139999999875
21
-119.0988849999999957
0
LINE
8
BLACK
6
CONTINUOUS
10
131.4399139999999875
20
-119.0988849999999957
11
131.3446759999999927
21
-119.2893609999999995
0
LINE
8
BLACK
6
CONTINUOUS
10
131.3446759999999927
20
-119.2893609999999995
11
131.2494379999999978
21
-119.3845999999999918
0
LINE
8
BLACK
6
CONTINUOUS
10
131.2494379999999978
20
-119.3845999999999918
11
131.0589620000000082
21
-119.4798380000000009
0
LINE
8
BLACK
6
CONTINUOUS
10
131.0589620000000082
20
-119.4798380000000009
11
130.8684849999999926
21
-119.4798380000000009
0
LINE
8
BLACK
6
CONTINUOUS
10
130.8684849999999926
20
-119.4798380000000009
11
130.678009000000003
21
-119.3845999999999918
0
LINE
8
BLACK
6
CONTINUOUS
10
130.678009000000003
20
-119.3845999999999918
11
130.5827710000000081
21
-119.2893609999999995
0
LINE
8
BLACK
6
CONTINUOUS
10
130.5827710000000081
20
-119.2893609999999995
11
130.4875329999999849
21
-119.0988849999999957
0
LINE
8
BLACK
6
CONTINUOUS
10
130.4875329999999849
20
-119.0988849999999957
11
130.3922949999999901
21
-118.7179329999999879
0
LINE
8
BLACK
6
CONTINUOUS
10
130.3922949999999901
20
-118.7179329999999879
11
130.3922949999999901
21
-118.2417419999999879
0
LINE
8
BLACK
6
CONTINUOUS
10
130.3922949999999901
20
-118.2417419999999879
11
130.4875329999999849
21
-117.8607899999999944
0
LINE
8
BLACK
6
CONTINUOUS
10
130.4875329999999849
20
-117.8607899999999944
11
130.5827710000000081
21
-117.6703139999999905
0
LINE
8
BLACK
6
CONTINUOUS
10
130.5827710000000081
20
-117.6703139999999905
11
130.678009000000003
21
-117.5750759999999957
0
LINE
8
BLACK
6
CONTINUOUS
10
130.678009000000003
20
-117.5750759999999957
11
130.8684849999999926
21
-117.4798380000000009
0
LINE
8
BLACK
6
CONTINUOUS
10
133.9161049999999875
20
-119.4798380000000009
11
133.9161049999999875
21
-117.4798380000000009
0
LINE
8
BLACK
6
CONTINUOUS
10
134.7732479999999953
20
-119.4798380000000009
11
134.7732479999999953
21
-118.4322189999999893
0
LINE
8
BLACK
6
CONTINUOUS
10
134.7732479999999953
20
-118.4322189999999893
11
134.6780100000000004
21
-118.2417419999999879
0
LINE
8
BLACK
6
CONTINUOUS
10
134.6780100000000004
20
-118.2417419999999879
11
134.4875339999999824
21
-118.1465039999999931
0
LINE
8
BLACK
6
CONTINUOUS
10
134.4875339999999824
20
-118.1465039999999931
11
134.2018190000000004
21
-118.1465039999999931
0
LINE
8
BLACK
6
CONTINUOUS
10
134.2018190000000004
20
-118.1465039999999931
11
134.0113429999999823
21
-118.2417419999999879
0
LINE
8
BLACK
6
CONTINUOUS
10
134.0113429999999823
20
-118.2417419999999879
11
133.9161049999999875
21
-118.3369799999999969
0
LINE
8
BLACK
6
CONTINUOUS
10
136.0113429999999823
20
-119.4798380000000009
11
135.8208669999999927
21
-119.3845999999999918
0
LINE
8
BLACK
6
CONTINUOUS
10
135.8208669999999927
20
-119.3845999999999918
11
135.7256289999999979
21
-119.2893609999999995
0
LINE
8
BLACK
6
CONTINUOUS
10
135.7256289999999979
20
-119.2893609999999995
11
135.630391000000003
21
-119.0988849999999957
0
LINE
8
BLACK
6
CONTINUOUS
10
135.630391000000003
20
-119.0988849999999957
11
135.630391000000003
21
-118.5274569999999983
0
LINE
8
BLACK
6
CONTINUOUS
10
135.630391000000003
20
-118.5274569999999983
11
135.7256289999999979
21
-118.3369799999999969
0
LINE
8
BLACK
6
CONTINUOUS
10
135.7256289999999979
20
-118.3369799999999969
11
135.8208669999999927
21
-118.2417419999999879
0
LINE
8
BLACK
6
CONTINUOUS
10
135.8208669999999927
20
-118.2417419999999879
11
136.0113429999999823
21
-118.1465039999999931
0
LINE
8
BLACK
6
CONTINUOUS
10
136.0113429999999823
20
-118.1465039999999931
11
136.2970579999999927
21
-118.1465039999999931
0
LINE
8
BLACK
6
CONTINUOUS
10
136.2970579999999927
20
-118.1465039999999931
11
136.4875339999999824
21
-118.2417419999999879
0
LINE
8
BLACK
6
CONTINUOUS
10
136.4875339999999824
20
-118.2417419999999879
11
136.5827720000000056
21
-118.3369799999999969
0
LINE
8
BLACK
6
CONTINUOUS
10
136.5827720000000056
20
-118.3369799999999969
11
136.6780100000000004
21
-118.5274569999999983
0
LINE
8
BLACK
6
CONTINUOUS
10
136.6780100000000004
20
-118.5274569999999983
11
136.6780100000000004
21
-119.0988849999999957
0
LINE
8
BLACK
6
CONTINUOUS
10
136.6780100000000004
20
-119.0988849999999957
11
136.5827720000000056
21
-119.2893609999999995
0
LINE
8
BLACK
6
CONTINUOUS
10
136.5827720000000056
20
-119.2893609999999995
11
136.4875339999999824
21
-119.3845999999999918
0
LINE
8
BLACK
6
CONTINUOUS
10
136.4875339999999824
20
-119.3845999999999918
11
136.2970579999999927
21
-119.4798380000000009
0
LINE
8
BLACK
6
CONTINUOUS
10
136.2970579999999927
20
-119.4798380000000009
11
136.0113429999999823
21
-119.4798380000000009
0
LINE
8
BLACK
6
CONTINUOUS
10
137.8208669999999927
20
-119.4798380000000009
11
137.630391000000003
21
-119.3845999999999918
0
LINE
8
BLACK
6
CONTINUOUS
10
137.630391000000003
20
-119.3845999999999918
11
137.5351529999999798
21
-119.1941229999999905
0
LINE
8
BLACK
6
CONTINUOUS
10
137.5351529999999798
20
-119.1941229999999905
11
137.5351529999999798
21
-117.4798380000000009
0
LINE
8
BLACK
6
CONTINUOUS
10
139.3446769999999901
20
-119.3845999999999918
11
139.1542010000000005
21
-119.4798380000000009
0
LINE
8
BLACK
6
CONTINUOUS
10
139.1542010000000005
20
-119.4798380000000009
11
138.7732479999999953
21
-119.4798380000000009
0
LINE
8
BLACK
6
CONTINUOUS
10
138.7732479999999953
20
-119.4798380000000009
11
138.5827720000000056
21
-119.3845999999999918
0
LINE
8
BLACK
6
CONTINUOUS
10
138.5827720000000056
20
-119.3845999999999918
11
138.4875339999999824
21
-119.1941229999999905
0
LINE
8
BLACK
6
CONTINUOUS
10
138.4875339999999824
20
-119.1941229999999905
11
138.4875339999999824
21
-118.4322189999999893
0
LINE
8
BLACK
6
CONTINUOUS
10
138.4875339999999824
20
-118.4322189999999893
11
138.5827720000000056
21
-118.2417419999999879
0
LINE
8
BLACK
6
CONTINUOUS
10
138.5827720000000056
20
-118.2417419999999879
11
138.7732479999999953
21
-118.1465039999999931
0
LINE
8
BLACK
6
CONTINUOUS
10
138.7732479999999953
20
-118.1465039999999931
11
139.1542010000000005
21
-118.1465039999999931
0
LINE
8
BLACK
6
CONTINUOUS
10
139.1542010000000005
20
-118.1465039999999931
11
139.3446769999999901
21
-118.2417419999999879
0
LINE
8
BLACK
6
CONTINUOUS
10
139.3446769999999901
20
-118.2417419999999879
11
139.439914999999985
21
-118.4322189999999893
0
LINE
8
BLACK
6
CONTINUOUS
10
139.439914999999985
20
-118.4322189999999893
11
139.439914999999985
21
-118.6226949999999931
0
LINE
8
BLACK
6
CONTINUOUS
10
139.439914999999985
20
-118.6226949999999931
11
138.4875339999999824
21
-118.813170999999997
0
LINE
8
BLACK
6
CONTINUOUS
10
140.2018199999999979
20
-119.3845999999999918
11
140.3922959999999875
21
-119.4798380000000009
0
LINE
8
BLACK
6
CONTINUOUS
10
140.3922959999999875
20
-119.4798380000000009
11
140.7732479999999953
21
-119.4798380000000009
0
LINE
8
BLACK
6
CONTINUOUS
10
140.7732479999999953
20
-119.4798380000000009
11
140.9637249999999824
21
-119.3845999999999918
0
LINE
8
BLACK
6
CONTINUOUS
10
140.9637249999999824
20
-119.3845999999999918
11
141.0589630000000056
21
-119.1941229999999905
0
LINE
8
BLACK
6
CONTINUOUS
10
141.0589630000000056
20
-119.1941229999999905
11
141.0589630000000056
21
-119.0988849999999957
0
LINE
8
BLACK
6
CONTINUOUS
10
141.0589630000000056
20
-119.0988849999999957
11
140.9637249999999824
21
-118.9084089999999918
0
LINE
8
BLACK
6
CONTINUOUS
10
140.9637249999999824
20
-118.9084089999999918
11
140.7732479999999953
21
-118.813170999999997
0
LINE
8
BLACK
6
CONTINUOUS
10
140.7732479999999953
20
-118.813170999999997
11
140.4875339999999824
21
-118.813170999999997
0
LINE
8
BLACK
6
CONTINUOUS
10
140.4875339999999824
20
-118.813170999999997
11
140.2970579999999927
21
-118.7179329999999879
0
LINE
8
BLACK
6
CONTINUOUS
10
140.2970579999999927
20
-118.7179329999999879
11
140.2018199999999979
21
-118.5274569999999983
0
LINE
8
BLACK
6
CONTINUOUS
10
140.2018199999999979
20
-118.5274569999999983
11
140.2018199999999979
21
-118.4322189999999893
0
LINE
8
BLACK
6
CONTINUOUS
10
140.2018199999999979
20
-118.4322189999999893
11
140.2970579999999927
21
-118.2417419999999879
0
LINE
8
BLACK
6
CONTINUOUS
10
140.2970579999999927
20
-118.2417419999999879
11
140.4875339999999824
21
-118.1465039999999931
0
LINE
8
BLACK
6
CONTINUOUS
10
140.4875339999999824
20
-118.1465039999999931
11
140.7732479999999953
21
-118.1465039999999931
0
LINE
8
BLACK
6
CONTINUOUS
10
140.7732479999999953
20
-118.1465039999999931
11
140.9637249999999824
21
-118.2417419999999879
0
LINE
8
BLACK
6
CONTINUOUS
10
143.4399159999999824
20
-118.7179329999999879
11
144.9637259999999799
21
-118.7179329999999879
0
LINE
8
BLACK
6
CONTINUOUS
10
144.2018209999999954
20
-119.4798380000000009
11
144.2018209999999954
21
-117.9560279999999892
0
LINE
8
BLACK
6
CONTINUOUS
10
148.2970589999999902
20
-118.1465039999999931
11
148.2970589999999902
21
-119.4798380000000009
0
LINE
8
BLACK
6
CONTINUOUS
10
147.8208679999999902
20
-117.3845999999999918
11
147.3446779999999876
21
-118.813170999999997
0
LINE
8
BLACK
6
CONTINUOUS
10
147.3446779999999876
20
-118.813170999999997
11
148.5827730000000031
21
-118.813170999999997
0
LINE
8
BLACK
6
CONTINUOUS
10
150.7732499999999902
20
-119.3845999999999918
11
150.9637259999999799
21
-119.4798380000000009
0
LINE
8
BLACK
6
CONTINUOUS
10
150.9637259999999799
20
-119.4798380000000009
11
151.3446779999999876
21
-119.4798380000000009
0
LINE
8
BLACK
6
CONTINUOUS
10
151.3446779999999876
20
-119.4798380000000009
11
151.5351550000000032
21
-119.3845999999999918
0
LINE
8
BLACK
6
CONTINUOUS
10
151.5351550000000032
20
-119.3845999999999918
11
151.630392999999998
21
-119.1941229999999905
0
LINE
8
BLACK
6
CONTINUOUS
10
151.630392999999998
20
-119.1941229999999905
11
151.630392999999998
21
-119.0988849999999957
0
LINE
8
BLACK
6
CONTINUOUS
10
151.630392999999998
20
-119.0988849999999957
11
151.5351550000000032
21
-118.9084089999999918
0
LINE
8
BLACK
6
CONTINUOUS
10
151.5351550000000032
20
-118.9084089999999918
11
151.3446779999999876
21
-118.813170999999997
0
LINE
8
BLACK
6
CONTINUOUS
10
151.3446779999999876
20
-118.813170999999997
11
151.0589640000000031
21
-118.813170999999997
0
LINE
8
BLACK
6
CONTINUOUS
10
151.0589640000000031
20
-118.813170999999997
11
150.868487999999985
21
-118.7179329999999879
0
LINE
8
BLACK
6
CONTINUOUS
10
150.868487999999985
20
-118.7179329999999879
11
150.7732499999999902
21
-118.5274569999999983
0
LINE
8
BLACK
6
CONTINUOUS
10
150.7732499999999902
20
-118.5274569999999983
11
150.7732499999999902
21
-118.4322189999999893
0
LINE
8
BLACK
6
CONTINUOUS
10
150.7732499999999902
20
-118.4322189999999893
11
150.868487999999985
21
-118.2417419999999879
0
LINE
8
BLACK
6
CONTINUOUS
10
150.868487999999985
20
-118.2417419999999879
11
151.0589640000000031
21
-118.1465039999999931
0
LINE
8
BLACK
6
CONTINUOUS
10
151.0589640000000031
20
-118.1465039999999931
11
151.3446779999999876
21
-118.1465039999999931
0
LINE
8
BLACK
6
CONTINUOUS
10
151.3446779999999876
20
-118.1465039999999931
11
151.5351550000000032
21
-118.2417419999999879
0
LINE
8
BLACK
6
CONTINUOUS
10
152.7732499999999902
20
-119.4798380000000009
11
152.5827740000000006
21
-119.3845999999999918
0
LINE
8
BLACK
6
CONTINUOUS
10
152.5827740000000006
20
-119.3845999999999918
11
152.4875360000000057
21
-119.1941229999999905
0
LINE
8
BLACK
6
CONTINUOUS
10
152.4875360000000057
20
-119.1941229999999905
11
152.4875360000000057
21
-117.4798380000000009
0
LINE
8
BLACK
6
CONTINUOUS
10
153.8208689999999876
20
-119.4798380000000009
11
153.630392999999998
21
-119.3845999999999918
0
LINE
8
BLACK
6
CONTINUOUS
10
153.630392999999998
20
-119.3845999999999918
11
153.5351550000000032
21
-119.2893609999999995
0
LINE
8
BLACK
6
CONTINUOUS
10
153.5351550000000032
20
-119.2893609999999995
11
153.4399169999999799
21
-119.0988849999999957
0
LINE
8
BLACK
6
CONTINUOUS
10
153.4399169999999799
20
-119.0988849999999957
11
153.4399169999999799
21
-118.5274569999999983
0
LINE
8
BLACK
6
CONTINUOUS
10
153.4399169999999799
20
-118.5274569999999983
11
153.5351550000000032
21
-118.3369799999999969
0
LINE
8
BLACK
6
CONTINUOUS
10
153.5351550000000032
20
-118.3369799999999969
11
153.630392999999998
21
-118.2417419999999879
0
LINE
8
BLACK
6
CONTINUOUS
10
153.630392999999998
20
-118.2417419999999879
11
153.8208689999999876
21
-118.1465039999999931
0
LINE
8
BLACK
6
CONTINUOUS
10
153.8208689999999876
20
-118.1465039999999931
11
154.106583999999998
21
-118.1465039999999931
0
LINE
8
BLACK
6
CONTINUOUS
10
154.106583999999998
20
-118.1465039999999931
11
154.2970599999999877
21
-118.2417419999999879
0
LINE
8
BLACK
6
CONTINUOUS
10
154.2970599999999877
20
-118.2417419999999879
11
154.3922979999999825
21
-118.3369799999999969
0
LINE
8
BLACK
6
CONTINUOUS
10
154.3922979999999825
20
-118.3369799999999969
11
154.4875360000000057
21
-118.5274569999999983
0
LINE
8
BLACK
6
CONTINUOUS
10
154.4875360000000057
20
-118.5274569999999983
11
154.4875360000000057
21
-119.0988849999999957
0
LINE
8
BLACK
6
CONTINUOUS
10
154.4875360000000057
20
-119.0988849999999957
11
154.3922979999999825
21
-119.2893609999999995
0
LINE
8
BLACK
6
CONTINUOUS
10
154.3922979999999825
20
-119.2893609999999995
11
154.2970599999999877
21
-119.3845999999999918
0
LINE
8
BLACK
6
CONTINUOUS
10
154.2970599999999877
20
-119.3845999999999918
11
154.106583999999998
21
-119.4798380000000009
0
LINE
8
BLACK
6
CONTINUOUS
10
154.106583999999998
20
-119.4798380000000009
11
153.8208689999999876
21
-119.4798380000000009
0
LINE
8
BLACK
6
CONTINUOUS
10
155.0589650000000006
20
-118.1465039999999931
11
155.8208689999999876
21
-118.1465039999999931
0
LINE
8
BLACK
6
CONTINUOUS
10
155.3446789999999851
20
-117.4798380000000009
11
155.3446789999999851
21
-119.1941229999999905
0
LINE
8
BLACK
6
CONTINUOUS
10
155.3446789999999851
20
-119.1941229999999905
11
155.4399169999999799
21
-119.3845999999999918
0
LINE
8
BLACK
6
CONTINUOUS
10
155.4399169999999799
20
-119.3845999999999918
11
155.630392999999998
21
-119.4798380000000009
0
LINE
8
BLACK
6
CONTINUOUS
10
155.630392999999998
20
-119.4798380000000009
11
155.8208689999999876
21
-119.4798380000000009
0
LINE
8
BLACK
6
CONTINUOUS
10
156.3922979999999825
20
-119.3845999999999918
11
156.5827740000000006
21
-119.4798380000000009
0
LINE
8
BLACK
6
CONTINUOUS
10
156.5827740000000006
20
-119.4798380000000009
11
156.9637259999999799
21
-119.4798380000000009
0
LINE
8
BLACK
6
CONTINUOUS
10
156.9637259999999799
20
-119.4798380000000009
11
157.1542029999999954
21
-119.3845999999999918
0
LINE
8
BLACK
6
CONTINUOUS
10
157.1542029999999954
20
-119.3845999999999918
11
157.2494409999999903
21
-119.1941229999999905
0
LINE
8
BLACK
6
CONTINUOUS
10
157.2494409999999903
20
-119.1941229999999905
11
157.2494409999999903
21
-119.0988849999999957
0
LINE
8
BLACK
6
CONTINUOUS
10
157.2494409999999903
20
-119.0988849999999957
11
157.1542029999999954
21
-118.9084089999999918
0
LINE
8
BLACK
6
CONTINUOUS
10
157.1542029999999954
20
-118.9084089999999918
11
156.9637259999999799
21
-118.813170999999997
0
LINE
8
BLACK
6
CONTINUOUS
10
156.9637259999999799
20
-118.813170999999997
11
156.6780119999999954
21
-118.813170999999997
0
LINE
8
BLACK
6
CONTINUOUS
10
156.6780119999999954
20
-118.813170999999997
11
156.4875360000000057
21
-118.7179329999999879
0
LINE
8
BLACK
6
CONTINUOUS
10
156.4875360000000057
20
-118.7179329999999879
11
156.3922979999999825
21
-118.5274569999999983
0
LINE
8
BLACK
6
CONTINUOUS
10
156.3922979999999825
20
-118.5274569999999983
11
156.3922979999999825
21
-118.4322189999999893
0
LINE
8
BLACK
6
CONTINUOUS
10
156.3922979999999825
20
-118.4322189999999893
11
156.4875360000000057
21
-118.2417419999999879
0
LINE
8
BLACK
6
CONTINUOUS
10
156.4875360000000057
20
-118.2417419999999879
11
156.6780119999999954
21
-118.1465039999999931
0
LINE
8
BLACK
6
CONTINUOUS
10
156.6780119999999954
20
-118.1465039999999931
11
156.9637259999999799
21
-118.1465039999999931
0
LINE
8
BLACK
6
CONTINUOUS
10
156.9637259999999799
20
-118.1465039999999931
11
157.1542029999999954
21
-118.2417419999999879
0
LINE
8
BLACK
6
CONTINUOUS
10
157.9161079999999799
20
-120.2417419999999879
11
158.0113460000000032
21
-120.1465039999999931
0
LINE
8
BLACK
6
CONTINUOUS
10
158.0113460000000032
20
-120.1465039999999931
11
158.2018219999999928
21
-119.8607899999999944
0
LINE
8
BLACK
6
CONTINUOUS
10
158.2018219999999928
20
-119.8607899999999944
11
158.2970599999999877
21
-119.6703139999999905
0
LINE
8
BLACK
6
CONTINUOUS
10
158.2970599999999877
20
-119.6703139999999905
11
158.3922979999999825
21
-119.3845999999999918
0
LINE
8
BLACK
6
CONTINUOUS
10
158.3922979999999825
20
-119.3845999999999918
11
158.4875360000000057
21
-118.9084089999999918
0
LINE
8
BLACK
6
CONTINUOUS
10
158.4875360000000057
20
-118.9084089999999918
11
158.4875360000000057
21
-118.5274569999999983
0
LINE
8
BLACK
6
CONTINUOUS
10
158.4875360000000057
20
-118.5274569999999983
11
158.3922979999999825
21
-118.0512659999999983
0
LINE
8
BLACK
6
CONTINUOUS
10
158.3922979999999825
20
-118.0512659999999983
11
158.2970599999999877
21
-117.7655519999999996
0
LINE
8
BLACK
6
CONTINUOUS
10
158.2970599999999877
20
-117.7655519999999996
11
158.2018219999999928
21
-117.5750759999999957
0
LINE
8
BLACK
6
CONTINUOUS
10
158.2018219999999928
20
-117.5750759999999957
11
158.0113460000000032
21
-117.2893609999999995
0
LINE
8
BLACK
6
CONTINUOUS
10
158.0113460000000032
20
-117.2893609999999995
11
157.9161079999999799
21
-117.1941229999999905
0
LINE
8
BLACK
6
CONTINUOUS
10
93.4749999999999943
20
-120.7049999999999983
11
93.4749999999999943
21
-121.7049999999999983
0
LINE
8
BLACK
6
CONTINUOUS
10
92.9749999999999943
20
-121.2049999999999983
11
93.9749999999999943
21
-121.2049999999999983
0
LINE
8
BLACK
6
CONTINUOUS
10
97.6303869999999989
20
-122.1198380000000014
11
96.4875299999999925
21
-122.1198380000000014
0
LINE
8
BLACK
6
CONTINUOUS
10
97.0589579999999899
20
-122.1198380000000014
11
97.0589579999999899
21
-120.1198380000000014
0
LINE
8
BLACK
6
CONTINUOUS
10
97.0589579999999899
20
-120.1198380000000014
11
96.8684820000000002
21
-120.4055520000000001
0
LINE
8
BLACK
6
CONTINUOUS
10
96.8684820000000002
20
-120.4055520000000001
11
96.6780059999999963
21
-120.5960279999999898
0
LINE
8
BLACK
6
CONTINUOUS
10
96.6780059999999963
20
-120.5960279999999898
11
96.4875299999999925
21
-120.6912659999999988
0
LINE
8
BLACK
6
CONTINUOUS
10
98.5827680000000015
20
-122.0245999999999924
11
98.5827680000000015
21
-122.1198380000000014
0
LINE
8
BLACK
6
CONTINUOUS
10
98.5827680000000015
20
-122.1198380000000014
11
98.4875299999999925
21
-122.3103139999999911
0
LINE
8
BLACK
6
CONTINUOUS
10
98.4875299999999925
20
-122.3103139999999911
11
98.3922919999999976
21
-122.4055520000000001
0
LINE
8
BLACK
6
CONTINUOUS
10
99.8208629999999886
20
-120.1198380000000014
11
100.0113399999999899
21
-120.1198380000000014
0
LINE
8
BLACK
6
CONTINUOUS
10
100.0113399999999899
20
-120.1198380000000014
11
100.2018159999999938
21
-120.2150759999999963
0
LINE
8
BLACK
6
CONTINUOUS
10
100.2018159999999938
20
-120.2150759999999963
11
100.2970539999999886
21
-120.3103139999999911
0
LINE
8
BLACK
6
CONTINUOUS
10
100.2970539999999886
20
-120.3103139999999911
11
100.3922919999999976
21
-120.500789999999995
0
LINE
8
BLACK
6
CONTINUOUS
10
100.3922919999999976
20
-120.500789999999995
11
100.4875299999999925
21
-120.8817419999999885
0
LINE
8
BLACK
6
CONTINUOUS
10
100.4875299999999925
20
-120.8817419999999885
11
100.4875299999999925
21
-121.3579329999999885
0
LINE
8
BLACK
6
CONTINUOUS
10
100.4875299999999925
20
-121.3579329999999885
11
100.3922919999999976
21
-121.7388849999999962
0
LINE
8
BLACK
6
CONTINUOUS
10
100.3922919999999976
20
-121.7388849999999962
11
100.2970539999999886
21
-121.9293610000000001
0
LINE
8
BLACK
6
CONTINUOUS
10
100.2970539999999886
20
-121.9293610000000001
11
100.2018159999999938
21
-122.0245999999999924
0
LINE
8
BLACK
6
CONTINUOUS
10
100.2018159999999938
20
-122.0245999999999924
11
100.0113399999999899
21
-122.1198380000000014
0
LINE
8
BLACK
6
CONTINUOUS
10
100.0113399999999899
20
-122.1198380000000014
11
99.8208629999999886
21
-122.1198380000000014
0
LINE
8
BLACK
6
CONTINUOUS
10
99.8208629999999886
20
-122.1198380000000014
11
99.6303869999999989
21
-122.0245999999999924
0
LINE
8
BLACK
6
CONTINUOUS
10
99.6303869999999989
20
-122.0245999999999924
11
99.5351489999999899
21
-121.9293610000000001
0
LINE
8
BLACK
6
CONTINUOUS
10
99.5351489999999899
20
-121.9293610000000001
11
99.4399109999999951
21
-121.7388849999999962
0
LINE
8
BLACK
6
CONTINUOUS
10
99.4399109999999951
20
-121.7388849999999962
11
99.3446730000000002
21
-121.3579329999999885
0
LINE
8
BLACK
6
CONTINUOUS
10
99.3446730000000002
20
-121.3579329999999885
11
99.3446730000000002
21
-120.8817419999999885
0
LINE
8
BLACK
6
CONTINUOUS
10
99.3446730000000002
20
-120.8817419999999885
11
99.4399109999999951
21
-120.500789999999995
0
LINE
8
BLACK
6
CONTINUOUS
10
99.4399109999999951
20
-120.500789999999995
11
99.5351489999999899
21
-120.3103139999999911
0
LINE
8
BLACK
6
CONTINUOUS
10
99.5351489999999899
20
-120.3103139999999911
11
99.6303869999999989
21
-120.2150759999999963
0
LINE
8
BLACK
6
CONTINUOUS
10
99.6303869999999989
20
-120.2150759999999963
11
99.8208629999999886
21
-120.1198380000000014
0
LINE
8
BLACK
6
CONTINUOUS
10
101.7256249999999937
20
-120.1198380000000014
11
101.9161019999999951
21
-120.1198380000000014
0
LINE
8
BLACK
6
CONTINUOUS
10
101.9161019999999951
20
-120.1198380000000014
11
102.106577999999999
21
-120.2150759999999963
0
LINE
8
BLACK
6
CONTINUOUS
10
102.106577999999999
20
-120.2150759999999963
11
102.2018159999999938
21
-120.3103139999999911
0
LINE
8
BLACK
6
CONTINUOUS
10
102.2018159999999938
20
-120.3103139999999911
11
102.2970539999999886
21
-120.500789999999995
0
LINE
8
BLACK
6
CONTINUOUS
10
102.2970539999999886
20
-120.500789999999995
11
102.3922919999999976
21
-120.8817419999999885
0
LINE
8
BLACK
6
CONTINUOUS
10
102.3922919999999976
20
-120.8817419999999885
11
102.3922919999999976
21
-121.3579329999999885
0
LINE
8
BLACK
6
CONTINUOUS
10
102.3922919999999976
20
-121.3579329999999885
11
102.2970539999999886
21
-121.7388849999999962
0
LINE
8
BLACK
6
CONTINUOUS
10
102.2970539999999886
20
-121.7388849999999962
11
102.2018159999999938
21
-121.9293610000000001
0
LINE
8
BLACK
6
CONTINUOUS
10
102.2018159999999938
20
-121.9293610000000001
11
102.106577999999999
21
-122.0245999999999924
0
LINE
8
BLACK
6
CONTINUOUS
10
102.106577999999999
20
-122.0245999999999924
11
101.9161019999999951
21
-122.1198380000000014
0
LINE
8
BLACK
6
CONTINUOUS
10
101.9161019999999951
20
-122.1198380000000014
11
101.7256249999999937
21
-122.1198380000000014
0
LINE
8
BLACK
6
CONTINUOUS
10
101.7256249999999937
20
-122.1198380000000014
11
101.5351489999999899
21
-122.0245999999999924
0
LINE
8
BLACK
6
CONTINUOUS
10
101.5351489999999899
20
-122.0245999999999924
11
101.4399109999999951
21
-121.9293610000000001
0
LINE
8
BLACK
6
CONTINUOUS
10
101.4399109999999951
20
-121.9293610000000001
11
101.3446730000000002
21
-121.7388849999999962
0
LINE
8
BLACK
6
CONTINUOUS
10
101.3446730000000002
20
-121.7388849999999962
11
101.2494349999999912
21
-121.3579329999999885
0
LINE
8
BLACK
6
CONTINUOUS
10
101.2494349999999912
20
-121.3579329999999885
11
101.2494349999999912
21
-120.8817419999999885
0
LINE
8
BLACK
6
CONTINUOUS
10
101.2494349999999912
20
-120.8817419999999885
11
101.3446730000000002
21
-120.500789999999995
0
LINE
8
BLACK
6
CONTINUOUS
10
101.3446730000000002
20
-120.500789999999995
11
101.4399109999999951
21
-120.3103139999999911
0
LINE
8
BLACK
6
CONTINUOUS
10
101.4399109999999951
20
-120.3103139999999911
11
101.5351489999999899
21
-120.2150759999999963
0
LINE
8
BLACK
6
CONTINUOUS
10
101.5351489999999899
20
-120.2150759999999963
11
101.7256249999999937
21
-120.1198380000000014
0
LINE
8
BLACK
6
CONTINUOUS
10
103.6303869999999989
20
-120.1198380000000014
11
103.8208640000000003
21
-120.1198380000000014
0
LINE
8
BLACK
6
CONTINUOUS
10
103.8208640000000003
20
-120.1198380000000014
11
104.0113399999999899
21
-120.2150759999999963
0
LINE
8
BLACK
6
CONTINUOUS
10
104.0113399999999899
20
-120.2150759999999963
11
104.106577999999999
21
-120.3103139999999911
0
LINE
8
BLACK
6
CONTINUOUS
10
104.106577999999999
20
-120.3103139999999911
11
104.2018159999999938
21
-120.500789999999995
0
LINE
8
BLACK
6
CONTINUOUS
10
104.2018159999999938
20
-120.500789999999995
11
104.2970539999999886
21
-120.8817419999999885
0
LINE
8
BLACK
6
CONTINUOUS
10
104.2970539999999886
20
-120.8817419999999885
11
104.2970539999999886
21
-121.3579329999999885
0
LINE
8
BLACK
6
CONTINUOUS
10
104.2970539999999886
20
-121.3579329999999885
11
104.2018159999999938
21
-121.7388849999999962
0
LINE
8
BLACK
6
CONTINUOUS
10
104.2018159999999938
20
-121.7388849999999962
11
104.106577999999999
21
-121.9293610000000001
0
LINE
8
BLACK
6
CONTINUOUS
10
104.106577999999999
20
-121.9293610000000001
11
104.0113399999999899
21
-122.0245999999999924
0
LINE
8
BLACK
6
CONTINUOUS
10
104.0113399999999899
20
-122.0245999999999924
11
103.8208640000000003
21
-122.1198380000000014
0
LINE
8
BLACK
6
CONTINUOUS
10
103.8208640000000003
20
-122.1198380000000014
11
103.6303869999999989
21
-122.1198380000000014
0
LINE
8
BLACK
6
CONTINUOUS
10
103.6303869999999989
20
-122.1198380000000014
11
103.4399109999999951
21
-122.0245999999999924
0
LINE
8
BLACK
6
CONTINUOUS
10
103.4399109999999951
20
-122.0245999999999924
11
103.3446730000000002
21
-121.9293610000000001
0
LINE
8
BLACK
6
CONTINUOUS
10
103.3446730000000002
20
-121.9293610000000001
11
103.2494349999999912
21
-121.7388849999999962
0
LINE
8
BLACK
6
CONTINUOUS
10
103.2494349999999912
20
-121.7388849999999962
11
103.1541969999999964
21
-121.3579329999999885
0
LINE
8
BLACK
6
CONTINUOUS
10
103.1541969999999964
20
-121.3579329999999885
11
103.1541969999999964
21
-120.8817419999999885
0
LINE
8
BLACK
6
CONTINUOUS
10
103.1541969999999964
20
-120.8817419999999885
11
103.2494349999999912
21
-120.500789999999995
0
LINE
8
BLACK
6
CONTINUOUS
10
103.2494349999999912
20
-120.500789999999995
11
103.3446730000000002
21
-120.3103139999999911
0
LINE
8
BLACK
6
CONTINUOUS
10
103.3446730000000002
20
-120.3103139999999911
11
103.4399109999999951
21
-120.2150759999999963
0
LINE
8
BLACK
6
CONTINUOUS
10
103.4399109999999951
20
-120.2150759999999963
11
103.6303869999999989
21
-120.1198380000000014
0
LINE
8
BLACK
6
CONTINUOUS
10
105.1541969999999964
20
-122.1198380000000014
11
105.1541969999999964
21
-120.7865039999999937
0
LINE
8
BLACK
6
CONTINUOUS
10
105.1541969999999964
20
-120.9769799999999975
11
105.2494349999999912
21
-120.8817419999999885
0
LINE
8
BLACK
6
CONTINUOUS
10
105.2494349999999912
20
-120.8817419999999885
11
105.4399109999999951
21
-120.7865039999999937
0
LINE
8
BLACK
6
CONTINUOUS
10
105.4399109999999951
20
-120.7865039999999937
11
105.7256259999999912
21
-120.7865039999999937
0
LINE
8
BLACK
6
CONTINUOUS
10
105.7256259999999912
20
-120.7865039999999937
11
105.9161019999999951
21
-120.8817419999999885
0
LINE
8
BLACK
6
CONTINUOUS
10
105.9161019999999951
20
-120.8817419999999885
11
106.0113399999999899
21
-121.0722189999999898
0
LINE
8
BLACK
6
CONTINUOUS
10
106.0113399999999899
20
-121.0722189999999898
11
106.0113399999999899
21
-122.1198380000000014
0
LINE
8
BLACK
6
CONTINUOUS
10
106.0113399999999899
20
-121.0722189999999898
11
106.106577999999999
21
-120.8817419999999885
0
LINE
8
BLACK
6
CONTINUOUS
10
106.106577999999999
20
-120.8817419999999885
11
106.2970539999999886
21
-120.7865039999999937
0
LINE
8
BLACK
6
CONTINUOUS
10
106.2970539999999886
20
-120.7865039999999937
11
106.5827680000000015
21
-120.7865039999999937
0
LINE
8
BLACK
6
CONTINUOUS
10
106.5827680000000015
20
-120.7865039999999937
11
106.7732449999999886
21
-120.8817419999999885
0
LINE
8
BLACK
6
CONTINUOUS
10
106.7732449999999886
20
-120.8817419999999885
11
106.8684829999999977
21
-121.0722189999999898
0
LINE
8
BLACK
6
CONTINUOUS
10
106.8684829999999977
20
-121.0722189999999898
11
106.8684829999999977
21
-122.1198380000000014
0
LINE
8
BLACK
6
CONTINUOUS
10
107.8208640000000003
20
-122.1198380000000014
11
107.8208640000000003
21
-120.7865039999999937
0
LINE
8
BLACK
6
CONTINUOUS
10
107.8208640000000003
20
-120.9769799999999975
11
107.9161019999999951
21
-120.8817419999999885
0
LINE
8
BLACK
6
CONTINUOUS
10
107.9161019999999951
20
-120.8817419999999885
11
108.106577999999999
21
-120.7865039999999937
0
LINE
8
BLACK
6
CONTINUOUS
10
108.106577999999999
20
-120.7865039999999937
11
108.3922929999999951
21
-120.7865039999999937
0
LINE
8
BLACK
6
CONTINUOUS
10
108.3922929999999951
20
-120.7865039999999937
11
108.582768999999999
21
-120.8817419999999885
0
LINE
8
BLACK
6
CONTINUOUS
10
108.582768999999999
20
-120.8817419999999885
11
108.6780069999999938
21
-121.0722189999999898
0
LINE
8
BLACK
6
CONTINUOUS
10
108.6780069999999938
20
-121.0722189999999898
11
108.6780069999999938
21
-122.1198380000000014
0
LINE
8
BLACK
6
CONTINUOUS
10
108.6780069999999938
20
-121.0722189999999898
11
108.7732449999999886
21
-120.8817419999999885
0
LINE
8
BLACK
6
CONTINUOUS
10
108.7732449999999886
20
-120.8817419999999885
11
108.9637209999999925
21
-120.7865039999999937
0
LINE
8
BLACK
6
CONTINUOUS
10
108.9637209999999925
20
-120.7865039999999937
11
109.2494349999999912
21
-120.7865039999999937
0
LINE
8
BLACK
6
CONTINUOUS
10
109.2494349999999912
20
-120.7865039999999937
11
109.4399119999999925
21
-120.8817419999999885
0
LINE
8
BLACK
6
CONTINUOUS
10
109.4399119999999925
20
-120.8817419999999885
11
109.5351500000000016
21
-121.0722189999999898
0
LINE
8
BLACK
6
CONTINUOUS
10
109.5351500000000016
20
-121.0722189999999898
11
109.5351500000000016
21
-122.1198380000000014
0
LINE
8
BLACK
6
CONTINUOUS
10
113.4399119999999925
20
-120.0245999999999924
11
111.7256269999999887
21
-122.5960279999999898
0
LINE
8
BLACK
6
CONTINUOUS
10
116.0113410000000016
20
-120.1198380000000014
11
116.2018179999999887
21
-120.1198380000000014
0
LINE
8
BLACK
6
CONTINUOUS
10
116.2018179999999887
20
-120.1198380000000014
11
116.3922939999999926
21
-120.2150759999999963
0
LINE
8
BLACK
6
CONTINUOUS
10
116.3922939999999926
20
-120.2150759999999963
11
116.4875320000000016
21
-120.3103139999999911
0
LINE
8
BLACK
6
CONTINUOUS
10
116.4875320000000016
20
-120.3103139999999911
11
116.5827699999999965
21
-120.500789999999995
0
LINE
8
BLACK
6
CONTINUOUS
10
116.5827699999999965
20
-120.500789999999995
11
116.6780079999999913
21
-120.8817419999999885
0
LINE
8
BLACK
6
CONTINUOUS
10
116.6780079999999913
20
-120.8817419999999885
11
116.6780079999999913
21
-121.3579329999999885
0
LINE
8
BLACK
6
CONTINUOUS
10
116.6780079999999913
20
-121.3579329999999885
11
116.5827699999999965
21
-121.7388849999999962
0
LINE
8
BLACK
6
CONTINUOUS
10
116.5827699999999965
20
-121.7388849999999962
11
116.4875320000000016
21
-121.9293610000000001
0
LINE
8
BLACK
6
CONTINUOUS
10
116.4875320000000016
20
-121.9293610000000001
11
116.3922939999999926
21
-122.0245999999999924
0
LINE
8
BLACK
6
CONTINUOUS
10
116.3922939999999926
20
-122.0245999999999924
11
116.2018179999999887
21
-122.1198380000000014
0
LINE
8
BLACK
6
CONTINUOUS
10
116.2018179999999887
20
-122.1198380000000014
11
116.0113410000000016
21
-122.1198380000000014
0
LINE
8
BLACK
6
CONTINUOUS
10
116.0113410000000016
20
-122.1198380000000014
11
115.8208649999999977
21
-122.0245999999999924
0
LINE
8
BLACK
6
CONTINUOUS
10
115.8208649999999977
20
-122.0245999999999924
11
115.7256269999999887
21
-121.9293610000000001
0
LINE
8
BLACK
6
CONTINUOUS
10
115.7256269999999887
20
-121.9293610000000001
11
115.6303889999999939
21
-121.7388849999999962
0
LINE
8
BLACK
6
CONTINUOUS
10
115.6303889999999939
20
-121.7388849999999962
11
115.535150999999999
21
-121.3579329999999885
0
LINE
8
BLACK
6
CONTINUOUS
10
115.535150999999999
20
-121.3579329999999885
11
115.535150999999999
21
-120.8817419999999885
0
LINE
8
BLACK
6
CONTINUOUS
10
115.535150999999999
20
-120.8817419999999885
11
115.6303889999999939
21
-120.500789999999995
0
LINE
8
BLACK
6
CONTINUOUS
10
115.6303889999999939
20
-120.500789999999995
11
115.7256269999999887
21
-120.3103139999999911
0
LINE
8
BLACK
6
CONTINUOUS
10
115.7256269999999887
20
-120.3103139999999911
11
115.8208649999999977
21
-120.2150759999999963
0
LINE
8
BLACK
6
CONTINUOUS
10
115.8208649999999977
20
-120.2150759999999963
11
116.0113410000000016
21
-120.1198380000000014
0
LINE
8
BLACK
6
CONTINUOUS
10
117.6303889999999939
20
-122.0245999999999924
11
117.6303889999999939
21
-122.1198380000000014
0
LINE
8
BLACK
6
CONTINUOUS
10
117.6303889999999939
20
-122.1198380000000014
11
117.535150999999999
21
-122.3103139999999911
0
LINE
8
BLACK
6
CONTINUOUS
10
117.535150999999999
20
-122.3103139999999911
11
117.43991299999999
21
-122.4055520000000001
0
LINE
8
BLACK
6
CONTINUOUS
10
118.8684839999999951
20
-120.1198380000000014
11
119.0589609999999965
21
-120.1198380000000014
0
LINE
8
BLACK
6
CONTINUOUS
10
119.0589609999999965
20
-120.1198380000000014
11
119.2494370000000004
21
-120.2150759999999963
0
LINE
8
BLACK
6
CONTINUOUS
10
119.2494370000000004
20
-120.2150759999999963
11
119.3446749999999952
21
-120.3103139999999911
0
LINE
8
BLACK
6
CONTINUOUS
10
119.3446749999999952
20
-120.3103139999999911
11
119.43991299999999
21
-120.500789999999995
0
LINE
8
BLACK
6
CONTINUOUS
10
119.43991299999999
20
-120.500789999999995
11
119.535150999999999
21
-120.8817419999999885
0
LINE
8
BLACK
6
CONTINUOUS
10
119.535150999999999
20
-120.8817419999999885
11
119.535150999999999
21
-121.3579329999999885
0
LINE
8
BLACK
6
CONTINUOUS
10
119.535150999999999
20
-121.3579329999999885
11
119.43991299999999
21
-121.7388849999999962
0
LINE
8
BLACK
6
CONTINUOUS
10
119.43991299999999
20
-121.7388849999999962
11
119.3446749999999952
21
-121.9293610000000001
0
LINE
8
BLACK
6
CONTINUOUS
10
119.3446749999999952
20
-121.9293610000000001
11
119.2494370000000004
21
-122.0245999999999924
0
LINE
8
BLACK
6
CONTINUOUS
10
119.2494370000000004
20
-122.0245999999999924
11
119.0589609999999965
21
-122.1198380000000014
0
LINE
8
BLACK
6
CONTINUOUS
10
119.0589609999999965
20
-122.1198380000000014
11
118.8684839999999951
21
-122.1198380000000014
0
LINE
8
BLACK
6
CONTINUOUS
10
118.8684839999999951
20
-122.1198380000000014
11
118.6780079999999913
21
-122.0245999999999924
0
LINE
8
BLACK
6
CONTINUOUS
10
118.6780079999999913
20
-122.0245999999999924
11
118.5827699999999965
21
-121.9293610000000001
0
LINE
8
BLACK
6
CONTINUOUS
10
118.5827699999999965
20
-121.9293610000000001
11
118.4875320000000016
21
-121.7388849999999962
0
LINE
8
BLACK
6
CONTINUOUS
10
118.4875320000000016
20
-121.7388849999999962
11
118.3922939999999926
21
-121.3579329999999885
0
LINE
8
BLACK
6
CONTINUOUS
10
118.3922939999999926
20
-121.3579329999999885
11
118.3922939999999926
21
-120.8817419999999885
0
LINE
8
BLACK
6
CONTINUOUS
10
118.3922939999999926
20
-120.8817419999999885
11
118.4875320000000016
21
-120.500789999999995
0
LINE
8
BLACK
6
CONTINUOUS
10
118.4875320000000016
20
-120.500789999999995
11
118.5827699999999965
21
-120.3103139999999911
0
LINE
8
BLACK
6
CONTINUOUS
10
118.5827699999999965
20
-120.3103139999999911
11
118.6780079999999913
21
-120.2150759999999963
0
LINE
8
BLACK
6
CONTINUOUS
10
118.6780079999999913
20
-120.2150759999999963
11
118.8684839999999951
21
-120.1198380000000014
0
LINE
8
BLACK
6
CONTINUOUS
10
120.2018179999999887
20
-120.1198380000000014
11
121.43991299999999
21
-120.1198380000000014
0
LINE
8
BLACK
6
CONTINUOUS
10
121.43991299999999
20
-120.1198380000000014
11
120.7732460000000003
21
-120.8817419999999885
0
LINE
8
BLACK
6
CONTINUOUS
10
120.7732460000000003
20
-120.8817419999999885
11
121.0589609999999965
21
-120.8817419999999885
0
LINE
8
BLACK
6
CONTINUOUS
10
121.0589609999999965
20
-120.8817419999999885
11
121.2494370000000004
21
-120.9769799999999975
0
LINE
8
BLACK
6
CONTINUOUS
10
121.2494370000000004
20
-120.9769799999999975
11
121.3446749999999952
21
-121.0722189999999898
0
LINE
8
BLACK
6
CONTINUOUS
10
121.3446749999999952
20
-121.0722189999999898
11
121.43991299999999
21
-121.2626949999999937
0
LINE
8
BLACK
6
CONTINUOUS
10
121.43991299999999
20
-121.2626949999999937
11
121.43991299999999
21
-121.7388849999999962
0
LINE
8
BLACK
6
CONTINUOUS
10
121.43991299999999
20
-121.7388849999999962
11
121.3446749999999952
21
-121.9293610000000001
0
LINE
8
BLACK
6
CONTINUOUS
10
121.3446749999999952
20
-121.9293610000000001
11
121.2494370000000004
21
-122.0245999999999924
0
LINE
8
BLACK
6
CONTINUOUS
10
121.2494370000000004
20
-122.0245999999999924
11
121.0589609999999965
21
-122.1198380000000014
0
LINE
8
BLACK
6
CONTINUOUS
10
121.0589609999999965
20
-122.1198380000000014
11
120.4875320000000016
21
-122.1198380000000014
0
LINE
8
BLACK
6
CONTINUOUS
10
120.4875320000000016
20
-122.1198380000000014
11
120.2970559999999978
21
-122.0245999999999924
0
LINE
8
BLACK
6
CONTINUOUS
10
120.2970559999999978
20
-122.0245999999999924
11
120.2018179999999887
21
-121.9293610000000001
0
LINE
8
BLACK
6
CONTINUOUS
10
122.3922939999999926
20
-122.1198380000000014
11
122.7732460000000003
21
-122.1198380000000014
0
LINE
8
BLACK
6
CONTINUOUS
10
122.7732460000000003
20
-122.1198380000000014
11
122.9637229999999875
21
-122.0245999999999924
0
LINE
8
BLACK
6
CONTINUOUS
10
122.9637229999999875
20
-122.0245999999999924
11
123.0589609999999965
21
-121.9293610000000001
0
LINE
8
BLACK
6
CONTINUOUS
10
123.0589609999999965
20
-121.9293610000000001
11
123.2494370000000004
21
-121.6436470000000014
0
LINE
8
BLACK
6
CONTINUOUS
10
123.2494370000000004
20
-121.6436470000000014
11
123.3446749999999952
21
-121.2626949999999937
0
LINE
8
BLACK
6
CONTINUOUS
10
123.3446749999999952
20
-121.2626949999999937
11
123.3446749999999952
21
-120.500789999999995
0
LINE
8
BLACK
6
CONTINUOUS
10
123.3446749999999952
20
-120.500789999999995
11
123.2494370000000004
21
-120.3103139999999911
0
LINE
8
BLACK
6
CONTINUOUS
10
123.2494370000000004
20
-120.3103139999999911
11
123.1541989999999913
21
-120.2150759999999963
0
LINE
8
BLACK
6
CONTINUOUS
10
123.1541989999999913
20
-120.2150759999999963
11
122.9637229999999875
21
-120.1198380000000014
0
LINE
8
BLACK
6
CONTINUOUS
10
122.9637229999999875
20
-120.1198380000000014
11
122.5827699999999965
21
-120.1198380000000014
0
LINE
8
BLACK
6
CONTINUOUS
10
122.5827699999999965
20
-120.1198380000000014
11
122.3922939999999926
21
-120.2150759999999963
0
LINE
8
BLACK
6
CONTINUOUS
10
122.3922939999999926
20
-120.2150759999999963
11
122.2970559999999978
21
-120.3103139999999911
0
LINE
8
BLACK
6
CONTINUOUS
10
122.2970559999999978
20
-120.3103139999999911
11
122.2018179999999887
21
-120.500789999999995
0
LINE
8
BLACK
6
CONTINUOUS
10
122.2018179999999887
20
-120.500789999999995
11
122.2018179999999887
21
-120.9769799999999975
0
LINE
8
BLACK
6
CONTINUOUS
10
122.2018179999999887
20
-120.9769799999999975
11
122.2970559999999978
21
-121.1674569999999989
0
LINE
8
BLACK
6
CONTINUOUS
10
122.2970559999999978
20
-121.1674569999999989
11
122.3922939999999926
21
-121.2626949999999937
0
LINE
8
BLACK
6
CONTINUOUS
10
122.3922939999999926
20
-121.2626949999999937
11
122.5827699999999965
21
-121.3579329999999885
0
LINE
8
BLACK
6
CONTINUOUS
10
122.5827699999999965
20
-121.3579329999999885
11
122.9637229999999875
21
-121.3579329999999885
0
LINE
8
BLACK
6
CONTINUOUS
10
122.9637229999999875
20
-121.3579329999999885
11
123.1541989999999913
21
-121.2626949999999937
0
LINE
8
BLACK
6
CONTINUOUS
10
123.1541989999999913
20
-121.2626949999999937
11
123.2494370000000004
21
-121.1674569999999989
0
LINE
8
BLACK
6
CONTINUOUS
10
123.2494370000000004
20
-121.1674569999999989
11
123.3446749999999952
21
-120.9769799999999975
0
LINE
8
BLACK
6
CONTINUOUS
10
125.0589609999999965
20
-120.7865039999999937
11
125.0589609999999965
21
-122.1198380000000014
0
LINE
8
BLACK
6
CONTINUOUS
10
124.5827699999999965
20
-120.0245999999999924
11
124.1065799999999939
21
-121.4531709999999975
0
LINE
8
BLACK
6
CONTINUOUS
10
124.1065799999999939
20
-121.4531709999999975
11
125.3446749999999952
21
-121.4531709999999975
0
LINE
8
BLACK
6
CONTINUOUS
10
126.0113419999999991
20
-120.1198380000000014
11
126.0113419999999991
21
-120.500789999999995
0
LINE
8
BLACK
6
CONTINUOUS
10
126.7732469999999978
20
-120.1198380000000014
11
126.7732469999999978
21
-120.500789999999995
0
LINE
8
BLACK
6
CONTINUOUS
10
129.7256289999999979
20
-122.8817419999999885
11
129.6303900000000056
21
-122.7865039999999937
0
LINE
8
BLACK
6
CONTINUOUS
10
129.6303900000000056
20
-122.7865039999999937
11
129.4399139999999875
21
-122.500789999999995
0
LINE
8
BLACK
6
CONTINUOUS
10
129.4399139999999875
20
-122.500789999999995
11
129.3446759999999927
21
-122.3103139999999911
0
LINE
8
BLACK
6
CONTINUOUS
10
129.3446759999999927
20
-122.3103139999999911
11
129.2494379999999978
21
-122.0245999999999924
0
LINE
8
BLACK
6
CONTINUOUS
10
129.2494379999999978
20
-122.0245999999999924
11
129.154200000000003
21
-121.5484089999999924
0
LINE
8
BLACK
6
CONTINUOUS
10
129.154200000000003
20
-121.5484089999999924
11
129.154200000000003
21
-121.1674569999999989
0
LINE
8
BLACK
6
CONTINUOUS
10
129.154200000000003
20
-121.1674569999999989
11
129.2494379999999978
21
-120.6912659999999988
0
LINE
8
BLACK
6
CONTINUOUS
10
129.2494379999999978
20
-120.6912659999999988
11
129.3446759999999927
21
-120.4055520000000001
0
LINE
8
BLACK
6
CONTINUOUS
10
129.3446759999999927
20
-120.4055520000000001
11
129.4399139999999875
21
-120.2150759999999963
0
LINE
8
BLACK
6
CONTINUOUS
10
129.4399139999999875
20
-120.2150759999999963
11
129.6303900000000056
21
-119.9293610000000001
0
LINE
8
BLACK
6
CONTINUOUS
10
129.6303900000000056
20
-119.9293610000000001
11
129.7256289999999979
21
-119.8341229999999911
0
LINE
8
BLACK
6
CONTINUOUS
10
131.3446759999999927
20
-120.1198380000000014
11
130.9637229999999875
21
-120.1198380000000014
0
LINE
8
BLACK
6
CONTINUOUS
10
130.9637229999999875
20
-120.1198380000000014
11
130.7732469999999978
21
-120.2150759999999963
0
LINE
8
BLACK
6
CONTINUOUS
10
130.7732469999999978
20
-120.2150759999999963
11
130.678009000000003
21
-120.3103139999999911
0
LINE
8
BLACK
6
CONTINUOUS
10
130.678009000000003
20
-120.3103139999999911
11
130.4875329999999849
21
-120.5960279999999898
0
LINE
8
BLACK
6
CONTINUOUS
10
130.4875329999999849
20
-120.5960279999999898
11
130.3922949999999901
21
-120.9769799999999975
0
LINE
8
BLACK
6
CONTINUOUS
10
130.3922949999999901
20
-120.9769799999999975
11
130.3922949999999901
21
-121.7388849999999962
0
LINE
8
BLACK
6
CONTINUOUS
10
130.3922949999999901
20
-121.7388849999999962
11
130.4875329999999849
21
-121.9293610000000001
0
LINE
8
BLACK
6
CONTINUOUS
10
130.4875329999999849
20
-121.9293610000000001
11
130.5827710000000081
21
-122.0245999999999924
0
LINE
8
BLACK
6
CONTINUOUS
10
130.5827710000000081
20
-122.0245999999999924
11
130.7732469999999978
21
-122.1198380000000014
0
LINE
8
BLACK
6
CONTINUOUS
10
130.7732469999999978
20
-122.1198380000000014
11
131.154200000000003
21
-122.1198380000000014
0
LINE
8
BLACK
6
CONTINUOUS
10
131.154200000000003
20
-122.1198380000000014
11
131.3446759999999927
21
-122.0245999999999924
0
LINE
8
BLACK
6
CONTINUOUS
10
131.3446759999999927
20
-122.0245999999999924
11
131.4399139999999875
21
-121.9293610000000001
0
LINE
8
BLACK
6
CONTINUOUS
10
131.4399139999999875
20
-121.9293610000000001
11
131.5351519999999823
21
-121.7388849999999962
0
LINE
8
BLACK
6
CONTINUOUS
10
131.5351519999999823
20
-121.7388849999999962
11
131.5351519999999823
21
-121.2626949999999937
0
LINE
8
BLACK
6
CONTINUOUS
10
131.5351519999999823
20
-121.2626949999999937
11
131.4399139999999875
21
-121.0722189999999898
0
LINE
8
BLACK
6
CONTINUOUS
10
131.4399139999999875
20
-121.0722189999999898
11
131.3446759999999927
21
-120.9769799999999975
0
LINE
8
BLACK
6
CONTINUOUS
10
131.3446759999999927
20
-120.9769799999999975
11
131.154200000000003
21
-120.8817419999999885
0
LINE
8
BLACK
6
CONTINUOUS
10
131.154200000000003
20
-120.8817419999999885
11
130.7732469999999978
21
-120.8817419999999885
0
LINE
8
BLACK
6
CONTINUOUS
10
130.7732469999999978
20
-120.8817419999999885
11
130.5827710000000081
21
-120.9769799999999975
0
LINE
8
BLACK
6
CONTINUOUS
10
130.5827710000000081
20
-120.9769799999999975
11
130.4875329999999849
21
-121.0722189999999898
0
LINE
8
BLACK
6
CONTINUOUS
10
130.4875329999999849
20
-121.0722189999999898
11
130.3922949999999901
21
-121.2626949999999937
0
LINE
8
BLACK
6
CONTINUOUS
10
133.9161049999999875
20
-122.1198380000000014
11
133.9161049999999875
21
-120.1198380000000014
0
LINE
8
BLACK
6
CONTINUOUS
10
134.7732479999999953
20
-122.1198380000000014
11
134.7732479999999953
21
-121.0722189999999898
0
LINE
8
BLACK
6
CONTINUOUS
10
134.7732479999999953
20
-121.0722189999999898
11
134.6780100000000004
21
-120.8817419999999885
0
LINE
8
BLACK
6
CONTINUOUS
10
134.6780100000000004
20
-120.8817419999999885
11
134.4875339999999824
21
-120.7865039999999937
0
LINE
8
BLACK
6
CONTINUOUS
10
134.4875339999999824
20
-120.7865039999999937
11
134.2018190000000004
21
-120.7865039999999937
0
LINE
8
BLACK
6
CONTINUOUS
10
134.2018190000000004
20
-120.7865039999999937
11
134.0113429999999823
21
-120.8817419999999885
0
LINE
8
BLACK
6
CONTINUOUS
10
134.0113429999999823
20
-120.8817419999999885
11
133.9161049999999875
21
-120.9769799999999975
0
LINE
8
BLACK
6
CONTINUOUS
10
136.0113429999999823
20
-122.1198380000000014
11
135.8208669999999927
21
-122.0245999999999924
0
LINE
8
BLACK
6
CONTINUOUS
10
135.8208669999999927
20
-122.0245999999999924
11
135.7256289999999979
21
-121.9293610000000001
0
LINE
8
BLACK
6
CONTINUOUS
10
135.7256289999999979
20
-121.9293610000000001
11
135.630391000000003
21
-121.7388849999999962
0
LINE
8
BLACK
6
CONTINUOUS
10
135.630391000000003
20
-121.7388849999999962
11
135.630391000000003
21
-121.1674569999999989
0
LINE
8
BLACK
6
CONTINUOUS
10
135.630391000000003
20
-121.1674569999999989
11
135.7256289999999979
21
-120.9769799999999975
0
LINE
8
BLACK
6
CONTINUOUS
10
135.7256289999999979
20
-120.9769799999999975
11
135.8208669999999927
21
-120.8817419999999885
0
LINE
8
BLACK
6
CONTINUOUS
10
135.8208669999999927
20
-120.8817419999999885
11
136.0113429999999823
21
-120.7865039999999937
0
LINE
8
BLACK
6
CONTINUOUS
10
136.0113429999999823
20
-120.7865039999999937
11
136.2970579999999927
21
-120.7865039999999937
0
LINE
8
BLACK
6
CONTINUOUS
10
136.2970579999999927
20
-120.7865039999999937
11
136.4875339999999824
21
-120.8817419999999885
0
LINE
8
BLACK
6
CONTINUOUS
10
136.4875339999999824
20
-120.8817419999999885
11
136.5827720000000056
21
-120.9769799999999975
0
LINE
8
BLACK
6
CONTINUOUS
10
136.5827720000000056
20
-120.9769799999999975
11
136.6780100000000004
21
-121.1674569999999989
0
LINE
8
BLACK
6
CONTINUOUS
10
136.6780100000000004
20
-121.1674569999999989
11
136.6780100000000004
21
-121.7388849999999962
0
LINE
8
BLACK
6
CONTINUOUS
10
136.6780100000000004
20
-121.7388849999999962
11
136.5827720000000056
21
-121.9293610000000001
0
LINE
8
BLACK
6
CONTINUOUS
10
136.5827720000000056
20
-121.9293610000000001
11
136.4875339999999824
21
-122.0245999999999924
0
LINE
8
BLACK
6
CONTINUOUS
10
136.4875339999999824
20
-122.0245999999999924
11
136.2970579999999927
21
-122.1198380000000014
0
LINE
8
BLACK
6
CONTINUOUS
10
136.2970579999999927
20
-122.1198380000000014
11
136.0113429999999823
21
-122.1198380000000014
0
LINE
8
BLACK
6
CONTINUOUS
10
137.8208669999999927
20
-122.1198380000000014
11
137.630391000000003
21
-122.0245999999999924
0
LINE
8
BLACK
6
CONTINUOUS
10
137.630391000000003
20
-122.0245999999999924
11
137.5351529999999798
21
-121.8341229999999911
0
LINE
8
BLACK
6
CONTINUOUS
10
137.5351529999999798
20
-121.8341229999999911
11
137.5351529999999798
21
-120.1198380000000014
0
LINE
8
BLACK
6
CONTINUOUS
10
139.3446769999999901
20
-122.0245999999999924
11
139.1542010000000005
21
-122.1198380000000014
0
LINE
8
BLACK
6
CONTINUOUS
10
139.1542010000000005
20
-122.1198380000000014
11
138.7732479999999953
21
-122.1198380000000014
0
LINE
8
BLACK
6
CONTINUOUS
10
138.7732479999999953
20
-122.1198380000000014
11
138.5827720000000056
21
-122.0245999999999924
0
LINE
8
BLACK
6
CONTINUOUS
10
138.5827720000000056
20
-122.0245999999999924
11
138.4875339999999824
21
-121.8341229999999911
0
LINE
8
BLACK
6
CONTINUOUS
10
138.4875339999999824
20
-121.8341229999999911
11
138.4875339999999824
21
-121.0722189999999898
0
LINE
8
BLACK
6
CONTINUOUS
10
138.4875339999999824
20
-121.0722189999999898
11
138.5827720000000056
21
-120.8817419999999885
0
LINE
8
BLACK
6
CONTINUOUS
10
138.5827720000000056
20
-120.8817419999999885
11
138.7732479999999953
21
-120.7865039999999937
0
LINE
8
BLACK
6
CONTINUOUS
10
138.7732479999999953
20
-120.7865039999999937
11
139.1542010000000005
21
-120.7865039999999937
0
LINE
8
BLACK
6
CONTINUOUS
10
139.1542010000000005
20
-120.7865039999999937
11
139.3446769999999901
21
-120.8817419999999885
0
LINE
8
BLACK
6
CONTINUOUS
10
139.3446769999999901
20
-120.8817419999999885
11
139.439914999999985
21
-121.0722189999999898
0
LINE
8
BLACK
6
CONTINUOUS
10
139.439914999999985
20
-121.0722189999999898
11
139.439914999999985
21
-121.2626949999999937
0
LINE
8
BLACK
6
CONTINUOUS
10
139.439914999999985
20
-121.2626949999999937
11
138.4875339999999824
21
-121.4531709999999975
0
LINE
8
BLACK
6
CONTINUOUS
10
140.2018199999999979
20
-122.0245999999999924
11
140.3922959999999875
21
-122.1198380000000014
0
LINE
8
BLACK
6
CONTINUOUS
10
140.3922959999999875
20
-122.1198380000000014
11
140.7732479999999953
21
-122.1198380000000014
0
LINE
8
BLACK
6
CONTINUOUS
10
140.7732479999999953
20
-122.1198380000000014
11
140.9637249999999824
21
-122.0245999999999924
0
LINE
8
BLACK
6
CONTINUOUS
10
140.9637249999999824
20
-122.0245999999999924
11
141.0589630000000056
21
-121.8341229999999911
0
LINE
8
BLACK
6
CONTINUOUS
10
141.0589630000000056
20
-121.8341229999999911
11
141.0589630000000056
21
-121.7388849999999962
0
LINE
8
BLACK
6
CONTINUOUS
10
141.0589630000000056
20
-121.7388849999999962
11
140.9637249999999824
21
-121.5484089999999924
0
LINE
8
BLACK
6
CONTINUOUS
10
140.9637249999999824
20
-121.5484089999999924
11
140.7732479999999953
21
-121.4531709999999975
0
LINE
8
BLACK
6
CONTINUOUS
10
140.7732479999999953
20
-121.4531709999999975
11
140.4875339999999824
21
-121.4531709999999975
0
LINE
8
BLACK
6
CONTINUOUS
10
140.4875339999999824
20
-121.4531709999999975
11
140.2970579999999927
21
-121.3579329999999885
0
LINE
8
BLACK
6
CONTINUOUS
10
140.2970579999999927
20
-121.3579329999999885
11
140.2018199999999979
21
-121.1674569999999989
0
LINE
8
BLACK
6
CONTINUOUS
10
140.2018199999999979
20
-121.1674569999999989
11
140.2018199999999979
21
-121.0722189999999898
0
LINE
8
BLACK
6
CONTINUOUS
10
140.2018199999999979
20
-121.0722189999999898
11
140.2970579999999927
21
-120.8817419999999885
0
LINE
8
BLACK
6
CONTINUOUS
10
140.2970579999999927
20
-120.8817419999999885
11
140.4875339999999824
21
-120.7865039999999937
0
LINE
8
BLACK
6
CONTINUOUS
10
140.4875339999999824
20
-120.7865039999999937
11
140.7732479999999953
21
-120.7865039999999937
0
LINE
8
BLACK
6
CONTINUOUS
10
140.7732479999999953
20
-120.7865039999999937
11
140.9637249999999824
21
-120.8817419999999885
0
LINE
8
BLACK
6
CONTINUOUS
10
141.7256299999999953
20
-122.8817419999999885
11
141.8208679999999902
21
-122.7865039999999937
0
LINE
8
BLACK
6
CONTINUOUS
10
141.8208679999999902
20
-122.7865039999999937
11
142.0113439999999798
21
-122.500789999999995
0
LINE
8
BLACK
6
CONTINUOUS
10
142.0113439999999798
20
-122.500789999999995
11
142.1065820000000031
21
-122.3103139999999911
0
LINE
8
BLACK
6
CONTINUOUS
10
142.1065820000000031
20
-122.3103139999999911
11
142.2018199999999979
21
-122.0245999999999924
0
LINE
8
BLACK
6
CONTINUOUS
10
142.2018199999999979
20
-122.0245999999999924
11
142.2970579999999927
21
-121.5484089999999924
0
LINE
8
BLACK
6
CONTINUOUS
10
142.2970579999999927
20
-121.5484089999999924
11
142.2970579999999927
21
-121.1674569999999989
0
LINE
8
BLACK
6
CONTINUOUS
10
142.2970579999999927
20
-121.1674569999999989
11
142.2018199999999979
21
-120.6912659999999988
0
LINE
8
BLACK
6
CONTINUOUS
10
142.2018199999999979
20
-120.6912659999999988
11
142.1065820000000031
21
-120.4055520000000001
0
LINE
8
BLACK
6
CONTINUOUS
10
142.1065820000000031
20
-120.4055520000000001
11
142.0113439999999798
21
-120.2150759999999963
0
LINE
8
BLACK
6
CONTINUOUS
10
142.0113439999999798
20
-120.2150759999999963
11
141.8208679999999902
21
-119.9293610000000001
0
LINE
8
BLACK
6
CONTINUOUS
10
141.8208679999999902
20
-119.9293610000000001
11
141.7256299999999953
21
-119.8341229999999911
  0
ENDSEC
  0
EOF
