M48
; DRILL file KiCad 10.0.0 date 2026-06-27T13:30:46
; FORMAT={-:-/ absolute / metric / decimal}
; #@! TF.CreationDate,2026-06-27T13:30:46+02:00
; #@! TF.GenerationSoftware,Kicad,Pcbnew,10.0.0
; #@! TF.FileFunction,Plated,1,6,PTH
FMAT,2
METRIC
; #@! TA.AperFunction,Plated,PTH,ViaDrill
T1C0.300
; #@! TA.AperFunction,Plated,PTH,ComponentDrill
T2C0.600
; #@! TA.AperFunction,Plated,PTH,ComponentDrill
T3C1.000
%
G90
G05
T1
X94.5Y-100.8
X94.5Y-103.05
X94.51Y-99.6
X94.542Y-98.05
X94.542Y-98.75
X94.57Y-107.92
X94.6Y-92.0
X94.7Y-93.3
X94.7Y-105.35
X94.75Y-105.95
X95.34Y-97.5
X95.47Y-99.6
X95.95Y-100.05
X96.0Y-101.52
X96.26Y-95.5
X96.3Y-107.94
X96.35Y-97.55
X96.688Y-96.487
X96.85Y-102.55
X96.919Y-93.969
X97.0Y-97.55
X97.0Y-106.2
X97.2Y-104.657
X97.25Y-96.0
X97.25Y-107.715
X97.4Y-91.95
X97.5Y-93.2
X97.57Y-100.69
X97.65Y-99.0
X97.65Y-101.5
X97.85Y-106.02
X97.9Y-104.657
X97.95Y-97.0
X98.19Y-107.715
X98.35Y-103.25
X98.472Y-97.173
X98.5Y-106.05
X98.57Y-94.83
X99.0Y-100.6
X99.0Y-101.3
X99.002Y-101.926
X99.05Y-99.0
X99.337Y-106.05
X99.7Y-94.75
X99.7Y-107.14
X99.86Y-93.57
X99.9Y-106.3
X99.97Y-92.0
X100.6Y-107.45
X100.75Y-96.2
X101.05Y-105.6
X101.35Y-97.85
X101.4Y-102.963
X101.4Y-103.6
X101.696Y-105.754
X102.0Y-107.4
X102.125Y-101.95
X102.131Y-99.509
X102.151Y-98.932
X102.35Y-100.05
X102.35Y-104.25
X102.4Y-100.85
X102.5Y-93.85
X102.7Y-98.75
X102.8Y-99.35
X102.8Y-107.35
X102.85Y-94.3
X102.95Y-106.85
X103.15Y-95.85
X103.2Y-101.4
X103.45Y-104.0
X103.54Y-99.13
X103.55Y-94.3
X104.35Y-104.85
X104.39Y-98.73
X104.4Y-94.5
X104.44Y-102.35
X105.35Y-94.3
X105.4Y-103.56
X105.7Y-104.9
X105.8Y-92.325
X105.95Y-106.29
X106.1Y-98.9
X106.1Y-99.6
X106.425Y-94.275
X106.55Y-106.609
X106.55Y-108.0
X106.55Y-107.3
X106.71Y-95.82
X106.87Y-101.05
X106.95Y-92.35
X106.97Y-102.25
X107.12Y-98.8
X107.3Y-93.007
X107.395Y-104.353
X107.45Y-104.9
X107.64Y-101.06
X108.0Y-92.05
X108.33Y-99.52
X108.5Y-106.15
X108.56Y-95.59
X108.6Y-96.55
X108.7Y-92.25
X108.7Y-102.23
X109.1Y-94.275
X109.4Y-104.75
X109.46Y-98.81
X109.7Y-103.25
X109.7Y-107.9
X109.85Y-94.3
X110.05Y-104.75
X110.1Y-96.55
X110.15Y-95.47
X110.152Y-106.405
X110.786Y-107.201
X110.8Y-108.0
X110.9Y-101.2
X110.95Y-104.37
X111.1Y-94.3
X111.251Y-100.351
X111.251Y-102.049
X111.75Y-106.6
X111.85Y-104.95
X111.9Y-96.55
X112.1Y-100.0
X112.1Y-102.4
X112.44Y-95.78
X112.55Y-103.25
X112.593Y-107.95
X112.75Y-104.95
X112.949Y-100.351
X112.949Y-102.049
X113.0Y-92.285
X113.05Y-92.95
X113.05Y-98.75
X113.104Y-106.73
X113.3Y-101.2
X113.7Y-92.292
X113.85Y-96.35
X114.125Y-94.675
X114.15Y-107.75
X114.25Y-98.235
X114.25Y-100.435
X114.7Y-106.91
X114.7Y-108.07
X114.75Y-96.05
X114.9Y-100.45
X114.903Y-101.531
X115.05Y-99.335
X115.05Y-103.735
X115.15Y-96.95
X115.2Y-92.325
X115.35Y-101.95
X115.5Y-104.9
X116.0Y-94.37
X116.14Y-104.7
X116.15Y-92.0
X116.2Y-106.4
T3
X95.5Y-107.0
X96.19Y-93.0
X98.73Y-93.0
X101.27Y-93.0
X103.81Y-93.0
X104.5Y-107.0
T2
G00X94.825Y-95.68
M15
G01X95.625Y-95.68
M16
G05
G00X94.825Y-104.32
M15
G01X95.625Y-104.32
M16
G05
G00X98.855Y-95.68
M15
G01X99.955Y-95.68
M16
G05
G00X98.855Y-104.32
M15
G01X99.955Y-104.32
M16
G05
M30
