%TF.GenerationSoftware,KiCad,Pcbnew,10.0.0*%
%TF.CreationDate,2026-06-27T13:30:49+02:00*%
%TF.ProjectId,hardware_V11,68617264-7761-4726-955f-5631312e6b69,rev?*%
%TF.SameCoordinates,Original*%
%TF.FileFunction,Legend,Top*%
%TF.FilePolarity,Positive*%
%FSLAX46Y46*%
G04 Gerber Fmt 4.6, Leading zero omitted, Abs format (unit mm)*
G04 Created by KiCad (PCBNEW 10.0.0) date 2026-06-27 13:30:49*
%MOMM*%
%LPD*%
G01*
G04 APERTURE LIST*
%ADD10C,0.125000*%
%ADD11C,0.120000*%
%ADD12C,0.100000*%
%ADD13C,0.000000*%
G04 APERTURE END LIST*
D10*
X115732309Y-102520144D02*
X116232309Y-102353478D01*
X116232309Y-102353478D02*
X115732309Y-102186811D01*
X116232309Y-101758240D02*
X116232309Y-102043954D01*
X116232309Y-101901097D02*
X115732309Y-101901097D01*
X115732309Y-101901097D02*
X115803738Y-101948716D01*
X115803738Y-101948716D02*
X115851357Y-101996335D01*
X115851357Y-101996335D02*
X115875166Y-102043954D01*
X115779928Y-101567764D02*
X115756119Y-101543955D01*
X115756119Y-101543955D02*
X115732309Y-101496336D01*
X115732309Y-101496336D02*
X115732309Y-101377288D01*
X115732309Y-101377288D02*
X115756119Y-101329669D01*
X115756119Y-101329669D02*
X115779928Y-101305860D01*
X115779928Y-101305860D02*
X115827547Y-101282050D01*
X115827547Y-101282050D02*
X115875166Y-101282050D01*
X115875166Y-101282050D02*
X115946595Y-101305860D01*
X115946595Y-101305860D02*
X116232309Y-101591574D01*
X116232309Y-101591574D02*
X116232309Y-101282050D01*
X116184690Y-101067765D02*
X116208500Y-101043955D01*
X116208500Y-101043955D02*
X116232309Y-101067765D01*
X116232309Y-101067765D02*
X116208500Y-101091574D01*
X116208500Y-101091574D02*
X116184690Y-101067765D01*
X116184690Y-101067765D02*
X116232309Y-101067765D01*
X115732309Y-100734432D02*
X115732309Y-100686813D01*
X115732309Y-100686813D02*
X115756119Y-100639194D01*
X115756119Y-100639194D02*
X115779928Y-100615384D01*
X115779928Y-100615384D02*
X115827547Y-100591575D01*
X115827547Y-100591575D02*
X115922785Y-100567765D01*
X115922785Y-100567765D02*
X116041833Y-100567765D01*
X116041833Y-100567765D02*
X116137071Y-100591575D01*
X116137071Y-100591575D02*
X116184690Y-100615384D01*
X116184690Y-100615384D02*
X116208500Y-100639194D01*
X116208500Y-100639194D02*
X116232309Y-100686813D01*
X116232309Y-100686813D02*
X116232309Y-100734432D01*
X116232309Y-100734432D02*
X116208500Y-100782051D01*
X116208500Y-100782051D02*
X116184690Y-100805860D01*
X116184690Y-100805860D02*
X116137071Y-100829670D01*
X116137071Y-100829670D02*
X116041833Y-100853479D01*
X116041833Y-100853479D02*
X115922785Y-100853479D01*
X115922785Y-100853479D02*
X115827547Y-100829670D01*
X115827547Y-100829670D02*
X115779928Y-100805860D01*
X115779928Y-100805860D02*
X115756119Y-100782051D01*
X115756119Y-100782051D02*
X115732309Y-100734432D01*
X116232309Y-99972528D02*
X115898976Y-99972528D01*
X115946595Y-99972528D02*
X115922785Y-99948718D01*
X115922785Y-99948718D02*
X115898976Y-99901099D01*
X115898976Y-99901099D02*
X115898976Y-99829671D01*
X115898976Y-99829671D02*
X115922785Y-99782052D01*
X115922785Y-99782052D02*
X115970404Y-99758242D01*
X115970404Y-99758242D02*
X116232309Y-99758242D01*
X115970404Y-99758242D02*
X115922785Y-99734433D01*
X115922785Y-99734433D02*
X115898976Y-99686814D01*
X115898976Y-99686814D02*
X115898976Y-99615385D01*
X115898976Y-99615385D02*
X115922785Y-99567766D01*
X115922785Y-99567766D02*
X115970404Y-99543956D01*
X115970404Y-99543956D02*
X116232309Y-99543956D01*
X116184690Y-99305861D02*
X116208500Y-99282051D01*
X116208500Y-99282051D02*
X116232309Y-99305861D01*
X116232309Y-99305861D02*
X116208500Y-99329670D01*
X116208500Y-99329670D02*
X116184690Y-99305861D01*
X116184690Y-99305861D02*
X116232309Y-99305861D01*
X115898976Y-99067766D02*
X116398976Y-99067766D01*
X115922785Y-99067766D02*
X115898976Y-99020147D01*
X115898976Y-99020147D02*
X115898976Y-98924909D01*
X115898976Y-98924909D02*
X115922785Y-98877290D01*
X115922785Y-98877290D02*
X115946595Y-98853480D01*
X115946595Y-98853480D02*
X115994214Y-98829671D01*
X115994214Y-98829671D02*
X116137071Y-98829671D01*
X116137071Y-98829671D02*
X116184690Y-98853480D01*
X116184690Y-98853480D02*
X116208500Y-98877290D01*
X116208500Y-98877290D02*
X116232309Y-98924909D01*
X116232309Y-98924909D02*
X116232309Y-99020147D01*
X116232309Y-99020147D02*
X116208500Y-99067766D01*
X116232309Y-98543956D02*
X116208500Y-98591575D01*
X116208500Y-98591575D02*
X116184690Y-98615385D01*
X116184690Y-98615385D02*
X116137071Y-98639194D01*
X116137071Y-98639194D02*
X115994214Y-98639194D01*
X115994214Y-98639194D02*
X115946595Y-98615385D01*
X115946595Y-98615385D02*
X115922785Y-98591575D01*
X115922785Y-98591575D02*
X115898976Y-98543956D01*
X115898976Y-98543956D02*
X115898976Y-98472528D01*
X115898976Y-98472528D02*
X115922785Y-98424909D01*
X115922785Y-98424909D02*
X115946595Y-98401099D01*
X115946595Y-98401099D02*
X115994214Y-98377290D01*
X115994214Y-98377290D02*
X116137071Y-98377290D01*
X116137071Y-98377290D02*
X116184690Y-98401099D01*
X116184690Y-98401099D02*
X116208500Y-98424909D01*
X116208500Y-98424909D02*
X116232309Y-98472528D01*
X116232309Y-98472528D02*
X116232309Y-98543956D01*
X116232309Y-98163004D02*
X115898976Y-98163004D01*
X115946595Y-98163004D02*
X115922785Y-98139194D01*
X115922785Y-98139194D02*
X115898976Y-98091575D01*
X115898976Y-98091575D02*
X115898976Y-98020147D01*
X115898976Y-98020147D02*
X115922785Y-97972528D01*
X115922785Y-97972528D02*
X115970404Y-97948718D01*
X115970404Y-97948718D02*
X116232309Y-97948718D01*
X115970404Y-97948718D02*
X115922785Y-97924909D01*
X115922785Y-97924909D02*
X115898976Y-97877290D01*
X115898976Y-97877290D02*
X115898976Y-97805861D01*
X115898976Y-97805861D02*
X115922785Y-97758242D01*
X115922785Y-97758242D02*
X115970404Y-97734432D01*
X115970404Y-97734432D02*
X116232309Y-97734432D01*
X116232309Y-97496337D02*
X115898976Y-97496337D01*
X115946595Y-97496337D02*
X115922785Y-97472527D01*
X115922785Y-97472527D02*
X115898976Y-97424908D01*
X115898976Y-97424908D02*
X115898976Y-97353480D01*
X115898976Y-97353480D02*
X115922785Y-97305861D01*
X115922785Y-97305861D02*
X115970404Y-97282051D01*
X115970404Y-97282051D02*
X116232309Y-97282051D01*
X115970404Y-97282051D02*
X115922785Y-97258242D01*
X115922785Y-97258242D02*
X115898976Y-97210623D01*
X115898976Y-97210623D02*
X115898976Y-97139194D01*
X115898976Y-97139194D02*
X115922785Y-97091575D01*
X115922785Y-97091575D02*
X115970404Y-97067765D01*
X115970404Y-97067765D02*
X116232309Y-97067765D01*
X116208500Y-96639194D02*
X116232309Y-96686813D01*
X116232309Y-96686813D02*
X116232309Y-96782051D01*
X116232309Y-96782051D02*
X116208500Y-96829670D01*
X116208500Y-96829670D02*
X116160880Y-96853479D01*
X116160880Y-96853479D02*
X115970404Y-96853479D01*
X115970404Y-96853479D02*
X115922785Y-96829670D01*
X115922785Y-96829670D02*
X115898976Y-96782051D01*
X115898976Y-96782051D02*
X115898976Y-96686813D01*
X115898976Y-96686813D02*
X115922785Y-96639194D01*
X115922785Y-96639194D02*
X115970404Y-96615384D01*
X115970404Y-96615384D02*
X116018023Y-96615384D01*
X116018023Y-96615384D02*
X116065642Y-96853479D01*
X116232309Y-96401099D02*
X115898976Y-96401099D01*
X115994214Y-96401099D02*
X115946595Y-96377289D01*
X115946595Y-96377289D02*
X115922785Y-96353480D01*
X115922785Y-96353480D02*
X115898976Y-96305861D01*
X115898976Y-96305861D02*
X115898976Y-96258242D01*
X115898976Y-96139194D02*
X116232309Y-96020146D01*
X115898976Y-95901099D02*
X116232309Y-96020146D01*
X116232309Y-96020146D02*
X116351357Y-96067765D01*
X116351357Y-96067765D02*
X116375166Y-96091575D01*
X116375166Y-96091575D02*
X116398976Y-96139194D01*
%TO.C,C19*%
D11*
X95097836Y-99240000D02*
X94882164Y-99240000D01*
X95097836Y-99960000D02*
X94882164Y-99960000D01*
%TO.C,C25*%
X113615000Y-107582836D02*
X113615000Y-107367164D01*
X114335000Y-107582836D02*
X114335000Y-107367164D01*
%TO.C,C21*%
X115640000Y-94957836D02*
X115640000Y-94742164D01*
X116360000Y-94957836D02*
X116360000Y-94742164D01*
%TO.C,J2*%
D12*
X94250000Y-94405000D02*
X94250000Y-96930000D01*
D13*
X94250000Y-96930000D02*
X94249999Y-96930000D01*
X94249999Y-96930000D01*
X94249999Y-96930000D01*
X94249999Y-96930000D01*
X94249999Y-96930000D01*
X94249999Y-96930000D01*
X94249999Y-96930000D01*
X94249999Y-96929999D01*
X94249999Y-96929999D01*
X94249999Y-96929999D01*
X94249999Y-96929999D01*
X94249999Y-96929999D01*
X94250000Y-96929999D01*
X94250000Y-96929999D01*
X94250000Y-96929999D01*
X94250000Y-96929999D01*
X94250000Y-96929999D01*
X94250000Y-96929999D01*
X94250000Y-96929999D01*
X94250000Y-96929999D01*
X94250000Y-96929999D01*
X94250000Y-96929999D01*
X94250000Y-96929999D01*
X94250000Y-96929999D01*
X94250001Y-96929999D01*
X94250001Y-96929999D01*
X94250001Y-96929999D01*
X94250001Y-96929999D01*
X94250001Y-96929999D01*
X94250001Y-96929999D01*
X94250001Y-96930000D01*
X94250001Y-96930000D01*
X94250001Y-96930000D01*
X94250001Y-96930000D01*
X94250001Y-96930000D01*
X94250001Y-96930000D01*
X94250001Y-96930000D01*
X94250000Y-96930000D01*
X94250000Y-96930000D02*
X94250001Y-96930000D01*
X94250001Y-96930000D01*
X94250001Y-96930000D01*
X94250001Y-96930000D01*
X94250001Y-96930000D01*
X94250001Y-96930000D01*
X94250001Y-96930001D01*
X94250001Y-96930001D01*
X94250001Y-96930001D01*
X94250001Y-96930001D01*
X94250001Y-96930001D01*
X94250001Y-96930001D01*
X94250001Y-96930001D01*
X94250000Y-96930001D01*
X94250000Y-96930001D01*
X94250000Y-96930001D01*
X94250000Y-96930001D01*
X94250000Y-96930001D01*
X94250000Y-96930001D01*
X94250000Y-96930001D01*
X94250000Y-96930001D01*
X94250000Y-96930001D01*
X94250000Y-96930001D01*
X94250000Y-96930001D01*
X94250000Y-96930001D01*
X94249999Y-96930001D01*
X94249999Y-96930001D01*
X94249999Y-96930001D01*
X94249999Y-96930001D01*
X94249999Y-96930001D01*
X94249999Y-96930001D01*
X94249999Y-96930000D01*
X94249999Y-96930000D01*
X94249999Y-96930000D01*
X94249999Y-96930000D01*
X94249999Y-96930000D01*
X94249999Y-96930000D01*
X94250000Y-96930000D01*
D12*
X94250000Y-96930000D02*
X94250000Y-97005000D01*
X94250000Y-97005000D02*
X94600000Y-97005000D01*
X94600000Y-94405000D02*
X94250000Y-94405000D01*
X97800000Y-97005000D02*
X98150000Y-97005000D01*
X98150000Y-94405000D02*
X97800000Y-94405000D01*
X98150000Y-97005000D02*
X98150000Y-94405000D01*
%TO.C,IC3*%
D13*
X115137500Y-107400000D02*
X115137499Y-107400000D01*
X115137499Y-107400000D01*
X115137499Y-107400000D01*
X115137499Y-107400000D01*
X115137499Y-107400000D01*
X115137499Y-107400000D01*
X115137499Y-107400000D01*
X115137499Y-107399999D01*
X115137499Y-107399999D01*
X115137499Y-107399999D01*
X115137499Y-107399999D01*
X115137499Y-107399999D01*
X115137500Y-107399999D01*
X115137500Y-107399999D01*
X115137500Y-107399999D01*
X115137500Y-107399999D01*
X115137500Y-107399999D01*
X115137500Y-107399999D01*
X115137500Y-107399999D01*
X115137500Y-107399999D01*
X115137500Y-107399999D01*
X115137500Y-107399999D01*
X115137500Y-107399999D01*
X115137500Y-107399999D01*
X115137501Y-107399999D01*
X115137501Y-107399999D01*
X115137501Y-107399999D01*
X115137501Y-107399999D01*
X115137501Y-107399999D01*
X115137501Y-107399999D01*
X115137501Y-107400000D01*
X115137501Y-107400000D01*
X115137501Y-107400000D01*
X115137501Y-107400000D01*
X115137501Y-107400000D01*
X115137501Y-107400000D01*
X115137501Y-107400000D01*
X115137500Y-107400000D01*
X115137500Y-107400000D02*
X115137501Y-107400000D01*
X115137501Y-107400000D01*
X115137501Y-107400000D01*
X115137501Y-107400000D01*
X115137501Y-107400000D01*
X115137501Y-107400000D01*
X115137501Y-107400001D01*
X115137501Y-107400001D01*
X115137501Y-107400001D01*
X115137501Y-107400001D01*
X115137501Y-107400001D01*
X115137501Y-107400001D01*
X115137501Y-107400001D01*
X115137500Y-107400001D01*
X115137500Y-107400001D01*
X115137500Y-107400001D01*
X115137500Y-107400001D01*
X115137500Y-107400001D01*
X115137500Y-107400001D01*
X115137500Y-107400001D01*
X115137500Y-107400001D01*
X115137500Y-107400001D01*
X115137500Y-107400001D01*
X115137500Y-107400001D01*
X115137500Y-107400001D01*
X115137499Y-107400001D01*
X115137499Y-107400001D01*
X115137499Y-107400001D01*
X115137499Y-107400001D01*
X115137499Y-107400001D01*
X115137499Y-107400001D01*
X115137499Y-107400000D01*
X115137499Y-107400000D01*
X115137499Y-107400000D01*
X115137499Y-107400000D01*
X115137499Y-107400000D01*
X115137499Y-107400000D01*
X115137500Y-107400000D01*
D12*
D13*
X115137500Y-107500000D02*
X115137499Y-107500000D01*
X115137499Y-107500000D01*
X115137499Y-107500000D01*
X115137499Y-107500000D01*
X115137499Y-107500000D01*
X115137499Y-107500000D01*
X115137499Y-107500000D01*
X115137499Y-107499999D01*
X115137499Y-107499999D01*
X115137499Y-107499999D01*
X115137499Y-107499999D01*
X115137499Y-107499999D01*
X115137500Y-107499999D01*
X115137500Y-107499999D01*
X115137500Y-107499999D01*
X115137500Y-107499999D01*
X115137500Y-107499999D01*
X115137500Y-107499999D01*
X115137500Y-107499999D01*
X115137500Y-107499999D01*
X115137500Y-107499999D01*
X115137500Y-107499999D01*
X115137500Y-107499999D01*
X115137500Y-107499999D01*
X115137501Y-107499999D01*
X115137501Y-107499999D01*
X115137501Y-107499999D01*
X115137501Y-107499999D01*
X115137501Y-107499999D01*
X115137501Y-107499999D01*
X115137501Y-107500000D01*
X115137501Y-107500000D01*
X115137501Y-107500000D01*
X115137501Y-107500000D01*
X115137501Y-107500000D01*
X115137501Y-107500000D01*
X115137501Y-107500000D01*
X115137500Y-107500000D01*
X115137500Y-107500000D02*
X115137501Y-107500000D01*
X115137501Y-107500000D01*
X115137501Y-107500000D01*
X115137501Y-107500000D01*
X115137501Y-107500000D01*
X115137501Y-107500000D01*
X115137501Y-107500001D01*
X115137501Y-107500001D01*
X115137501Y-107500001D01*
X115137501Y-107500001D01*
X115137501Y-107500001D01*
X115137501Y-107500001D01*
X115137501Y-107500001D01*
X115137500Y-107500001D01*
X115137500Y-107500001D01*
X115137500Y-107500001D01*
X115137500Y-107500001D01*
X115137500Y-107500001D01*
X115137500Y-107500001D01*
X115137500Y-107500001D01*
X115137500Y-107500001D01*
X115137500Y-107500001D01*
X115137500Y-107500001D01*
X115137500Y-107500001D01*
X115137500Y-107500001D01*
X115137499Y-107500001D01*
X115137499Y-107500001D01*
X115137499Y-107500001D01*
X115137499Y-107500001D01*
X115137499Y-107500001D01*
X115137499Y-107500001D01*
X115137499Y-107500000D01*
X115137499Y-107500000D01*
X115137499Y-107500000D01*
X115137499Y-107500000D01*
X115137499Y-107500000D01*
X115137499Y-107500000D01*
X115137500Y-107500000D01*
D12*
X115137500Y-107400000D02*
G75*
G02*
X115137500Y-107500000I0J-50000D01*
G01*
X115137500Y-107500000D02*
G75*
G02*
X115137500Y-107400000I0J50000D01*
G01*
D11*
%TO.C,U6*%
X96685894Y-98100000D02*
X96445894Y-97770000D01*
X96925894Y-97770000D01*
X96685894Y-98100000D01*
G36*
X96685894Y-98100000D02*
G01*
X96445894Y-97770000D01*
X96925894Y-97770000D01*
X96685894Y-98100000D01*
G37*
%TD*%
M02*
