  0
SECTION
  2
HEADER
  9
$ANGBASE
  50
0.0
  9
$ANGDIR
  70
1
  9
$MEASUREMENT
  70
1
  9
$INSUNITS
  70
4
  0
ENDSEC
  0
SECTION
  2
TABLES
  0
TABLE
  2
LTYPE
  70
4
  0
LTYPE
  5
40F
  2
CONTINUOUS
  70
0
  3
Solid line
  72
65
  73
0
  40
0.0
  0
LTYPE
  5
410
  2
DASHDOT
 70
0
  3
Dash Dot ____ _ ____ _
 72
65
 73
4
 40
2.0
 49
1.25
 49
-0.25
 49
0.25
 49
-0.25
  0
LTYPE
  5
411
  2
DASHED
 70
0
  3
Dashed __ __ __ __ __
 72
65
 73
2
 40
0.75
 49
0.5
 49
-0.25
  0
LTYPE
  5
43B
  2
DOTTED
 70
0
  3
Dotted .  .  .  .
 72
65
 73
2
 40
0.2
 49
0.0
 49
-0.2
  0
ENDTAB
  0
TABLE
  2
STYLE
  70
4
  0
STYLE
  2
KICAD
  70
0
  40
0
  41
1
  42
1
  50
0
  71
0
  3
isocp.shx
  0
STYLE
  2
KICADB
  70
0
  40
0
  41
1
  42
1
  50
0
  71
0
  3
isocp.shx
  0
STYLE
  2
KICADI
  70
0
  40
0
  41
1
  42
1
  50
15
  71
0
  3
isocp.shx
  0
STYLE
  2
KICADBI
  70
0
  40
0
  41
1
  42
1
  50
15
  71
0
  3
isocp.shx
  0
ENDTAB
  0
TABLE
  2
LAYER
  70
1
  0
LAYER
  2
BLACK
  70
0
  62
250
  6
CONTINUOUS
  0
ENDTAB
  0
ENDSEC
  0
SECTION
  2
ENTITIES
0
LINE
8
BLACK
6
CONTINUOUS
10
110.3199999999999932
20
-91.5
11
116.6499999999999915
21
-91.5
0
LINE
8
BLACK
6
CONTINUOUS
10
116.6499999999999915
20
-91.5
11
116.6499999999999915
21
-108.5
0
LINE
8
BLACK
6
CONTINUOUS
10
116.6499999999999915
20
-108.5
11
110.3199999999999932
21
-108.5
0
LINE
8
BLACK
6
CONTINUOUS
10
110.3199999999999932
20
-108.5
11
110.3199999999999932
21
-109.5
0
LINE
8
BLACK
6
CONTINUOUS
10
110.3199999999999932
20
-109.5
11
100.3199999999999932
21
-109.5
0
LINE
8
BLACK
6
CONTINUOUS
10
100.3199999999999932
20
-109.5
11
100.3199999999999932
21
-108.5
0
LINE
8
BLACK
6
CONTINUOUS
10
100.3199999999999932
20
-108.5
11
94.
21
-108.5
0
LINE
8
BLACK
6
CONTINUOUS
10
94.
20
-108.5
11
94.
21
-91.5
0
LINE
8
BLACK
6
CONTINUOUS
10
94.
20
-91.5
11
100.3199999999999932
21
-91.5
0
LINE
8
BLACK
6
CONTINUOUS
10
100.3199999999999932
20
-91.5
11
100.3198679999999996
21
-90.5
0
LINE
8
BLACK
6
CONTINUOUS
10
100.3198679999999996
20
-90.5
11
110.3199999999999932
21
-90.5
0
LINE
8
BLACK
6
CONTINUOUS
10
110.3199999999999932
20
-90.5
11
110.3199999999999932
21
-91.5
0
LINE
8
BLACK
6
CONTINUOUS
10
105.0749999999999886
20
-92.9249999999999972
11
105.9749999999999943
21
-93.8250000000000028
0
LINE
8
BLACK
6
CONTINUOUS
10
105.9749999999999943
20
-92.9249999999999972
11
105.0749999999999886
21
-93.8250000000000028
0
LINE
8
BLACK
6
CONTINUOUS
10
109.3249999999999886
20
-92.9249999999999972
11
110.2249999999999943
21
-93.8250000000000028
0
LINE
8
BLACK
6
CONTINUOUS
10
110.2249999999999943
20
-92.9249999999999972
11
109.3249999999999886
21
-93.8250000000000028
0
LINE
8
BLACK
6
CONTINUOUS
10
110.7749999999999915
20
-92.9249999999999972
11
111.6749999999999972
21
-93.8250000000000028
0
LINE
8
BLACK
6
CONTINUOUS
10
111.6749999999999972
20
-92.9249999999999972
11
110.7749999999999915
21
-93.8250000000000028
0
LINE
8
BLACK
6
CONTINUOUS
10
115.0249999999999915
20
-92.9249999999999972
11
115.9249999999999972
21
-93.8250000000000028
0
LINE
8
BLACK
6
CONTINUOUS
10
115.9249999999999972
20
-92.9249999999999972
11
115.0249999999999915
21
-93.8250000000000028
0
CIRCLE
8
BLACK
10
112.0999999999999943
20
-101.1999999999999886
40
0.7999999999999999
0
LINE
8
BLACK
6
CONTINUOUS
10
96.5827680000000015
20
-112.6398379999999975
11
96.5827680000000015
21
-110.6398379999999975
0
LINE
8
BLACK
6
CONTINUOUS
10
96.5827680000000015
20
-110.6398379999999975
11
97.0589579999999899
21
-110.6398379999999975
0
LINE
8
BLACK
6
CONTINUOUS
10
97.0589579999999899
20
-110.6398379999999975
11
97.3446730000000002
21
-110.7350759999999923
0
LINE
8
BLACK
6
CONTINUOUS
10
97.3446730000000002
20
-110.7350759999999923
11
97.5351489999999899
21
-110.9255519999999962
0
LINE
8
BLACK
6
CONTINUOUS
10
97.5351489999999899
20
-110.9255519999999962
11
97.6303869999999989
21
-111.116028
0
LINE
8
BLACK
6
CONTINUOUS
10
97.6303869999999989
20
-111.116028
11
97.7256249999999937
21
-111.4969799999999935
0
LINE
8
BLACK
6
CONTINUOUS
10
97.7256249999999937
20
-111.4969799999999935
11
97.7256249999999937
21
-111.7826949999999897
0
LINE
8
BLACK
6
CONTINUOUS
10
97.7256249999999937
20
-111.7826949999999897
11
97.6303869999999989
21
-112.1636469999999974
0
LINE
8
BLACK
6
CONTINUOUS
10
97.6303869999999989
20
-112.1636469999999974
11
97.5351489999999899
21
-112.3541230000000013
0
LINE
8
BLACK
6
CONTINUOUS
10
97.5351489999999899
20
-112.3541230000000013
11
97.3446730000000002
21
-112.5445999999999884
0
LINE
8
BLACK
6
CONTINUOUS
10
97.3446730000000002
20
-112.5445999999999884
11
97.0589579999999899
21
-112.6398379999999975
0
LINE
8
BLACK
6
CONTINUOUS
10
97.0589579999999899
20
-112.6398379999999975
11
96.5827680000000015
21
-112.6398379999999975
0
LINE
8
BLACK
6
CONTINUOUS
10
98.5827680000000015
20
-112.6398379999999975
11
98.5827680000000015
21
-111.3065039999999897
0
LINE
8
BLACK
6
CONTINUOUS
10
98.5827680000000015
20
-111.6874569999999949
11
98.6780059999999963
21
-111.4969799999999935
0
LINE
8
BLACK
6
CONTINUOUS
10
98.6780059999999963
20
-111.4969799999999935
11
98.7732439999999912
21
-111.4017419999999987
0
LINE
8
BLACK
6
CONTINUOUS
10
98.7732439999999912
20
-111.4017419999999987
11
98.963719999999995
21
-111.3065039999999897
0
LINE
8
BLACK
6
CONTINUOUS
10
98.963719999999995
20
-111.3065039999999897
11
99.1541969999999964
21
-111.3065039999999897
0
LINE
8
BLACK
6
CONTINUOUS
10
99.8208629999999886
20
-112.6398379999999975
11
99.8208629999999886
21
-111.3065039999999897
0
LINE
8
BLACK
6
CONTINUOUS
10
99.8208629999999886
20
-110.6398379999999975
11
99.7256249999999937
21
-110.7350759999999923
0
LINE
8
BLACK
6
CONTINUOUS
10
99.7256249999999937
20
-110.7350759999999923
11
99.8208629999999886
21
-110.8303140000000013
0
LINE
8
BLACK
6
CONTINUOUS
10
99.8208629999999886
20
-110.8303140000000013
11
99.9161009999999976
21
-110.7350759999999923
0
LINE
8
BLACK
6
CONTINUOUS
10
99.9161009999999976
20
-110.7350759999999923
11
99.8208629999999886
21
-110.6398379999999975
0
LINE
8
BLACK
6
CONTINUOUS
10
99.8208629999999886
20
-110.6398379999999975
11
99.8208629999999886
21
-110.8303140000000013
0
LINE
8
BLACK
6
CONTINUOUS
10
101.0589579999999899
20
-112.6398379999999975
11
100.8684820000000002
21
-112.5445999999999884
0
LINE
8
BLACK
6
CONTINUOUS
10
100.8684820000000002
20
-112.5445999999999884
11
100.7732439999999912
21
-112.3541230000000013
0
LINE
8
BLACK
6
CONTINUOUS
10
100.7732439999999912
20
-112.3541230000000013
11
100.7732439999999912
21
-110.6398379999999975
0
LINE
8
BLACK
6
CONTINUOUS
10
102.1065770000000015
20
-112.6398379999999975
11
101.9161009999999976
21
-112.5445999999999884
0
LINE
8
BLACK
6
CONTINUOUS
10
101.9161009999999976
20
-112.5445999999999884
11
101.8208629999999886
21
-112.3541230000000013
0
LINE
8
BLACK
6
CONTINUOUS
10
101.8208629999999886
20
-112.3541230000000013
11
101.8208629999999886
21
-110.6398379999999975
0
LINE
8
BLACK
6
CONTINUOUS
10
104.3922919999999976
20
-112.6398379999999975
11
104.3922919999999976
21
-110.6398379999999975
0
LINE
8
BLACK
6
CONTINUOUS
10
104.3922919999999976
20
-110.6398379999999975
11
105.0589590000000015
21
-112.0684089999999884
0
LINE
8
BLACK
6
CONTINUOUS
10
105.0589590000000015
20
-112.0684089999999884
11
105.7256249999999937
21
-110.6398379999999975
0
LINE
8
BLACK
6
CONTINUOUS
10
105.7256249999999937
20
-110.6398379999999975
11
105.7256249999999937
21
-112.6398379999999975
0
LINE
8
BLACK
6
CONTINUOUS
10
107.5351489999999899
20
-112.6398379999999975
11
107.5351489999999899
21
-111.5922190000000001
0
LINE
8
BLACK
6
CONTINUOUS
10
107.5351489999999899
20
-111.5922190000000001
11
107.4399109999999951
21
-111.4017419999999987
0
LINE
8
BLACK
6
CONTINUOUS
10
107.4399109999999951
20
-111.4017419999999987
11
107.2494349999999912
21
-111.3065039999999897
0
LINE
8
BLACK
6
CONTINUOUS
10
107.2494349999999912
20
-111.3065039999999897
11
106.8684820000000002
21
-111.3065039999999897
0
LINE
8
BLACK
6
CONTINUOUS
10
106.8684820000000002
20
-111.3065039999999897
11
106.6780059999999963
21
-111.4017419999999987
0
LINE
8
BLACK
6
CONTINUOUS
10
107.5351489999999899
20
-112.5445999999999884
11
107.3446730000000002
21
-112.6398379999999975
0
LINE
8
BLACK
6
CONTINUOUS
10
107.3446730000000002
20
-112.6398379999999975
11
106.8684820000000002
21
-112.6398379999999975
0
LINE
8
BLACK
6
CONTINUOUS
10
106.8684820000000002
20
-112.6398379999999975
11
106.6780059999999963
21
-112.5445999999999884
0
LINE
8
BLACK
6
CONTINUOUS
10
106.6780059999999963
20
-112.5445999999999884
11
106.5827680000000015
21
-112.3541230000000013
0
LINE
8
BLACK
6
CONTINUOUS
10
106.5827680000000015
20
-112.3541230000000013
11
106.5827680000000015
21
-112.1636469999999974
0
LINE
8
BLACK
6
CONTINUOUS
10
106.5827680000000015
20
-112.1636469999999974
11
106.6780059999999963
21
-111.9731709999999936
0
LINE
8
BLACK
6
CONTINUOUS
10
106.6780059999999963
20
-111.9731709999999936
11
106.8684820000000002
21
-111.8779329999999987
0
LINE
8
BLACK
6
CONTINUOUS
10
106.8684820000000002
20
-111.8779329999999987
11
107.3446730000000002
21
-111.8779329999999987
0
LINE
8
BLACK
6
CONTINUOUS
10
107.3446730000000002
20
-111.8779329999999987
11
107.5351489999999899
21
-111.7826949999999897
0
LINE
8
BLACK
6
CONTINUOUS
10
108.4875299999999925
20
-111.3065039999999897
11
108.4875299999999925
21
-113.3065039999999897
0
LINE
8
BLACK
6
CONTINUOUS
10
108.4875299999999925
20
-111.4017419999999987
11
108.6780059999999963
21
-111.3065039999999897
0
LINE
8
BLACK
6
CONTINUOUS
10
108.6780059999999963
20
-111.3065039999999897
11
109.0589590000000015
21
-111.3065039999999897
0
LINE
8
BLACK
6
CONTINUOUS
10
109.0589590000000015
20
-111.3065039999999897
11
109.2494349999999912
21
-111.4017419999999987
0
LINE
8
BLACK
6
CONTINUOUS
10
109.2494349999999912
20
-111.4017419999999987
11
109.3446730000000002
21
-111.4969799999999935
0
LINE
8
BLACK
6
CONTINUOUS
10
109.3446730000000002
20
-111.4969799999999935
11
109.4399109999999951
21
-111.6874569999999949
0
LINE
8
BLACK
6
CONTINUOUS
10
109.4399109999999951
20
-111.6874569999999949
11
109.4399109999999951
21
-112.2588849999999923
0
LINE
8
BLACK
6
CONTINUOUS
10
109.4399109999999951
20
-112.2588849999999923
11
109.3446730000000002
21
-112.4493609999999961
0
LINE
8
BLACK
6
CONTINUOUS
10
109.3446730000000002
20
-112.4493609999999961
11
109.2494349999999912
21
-112.5445999999999884
0
LINE
8
BLACK
6
CONTINUOUS
10
109.2494349999999912
20
-112.5445999999999884
11
109.0589590000000015
21
-112.6398379999999975
0
LINE
8
BLACK
6
CONTINUOUS
10
109.0589590000000015
20
-112.6398379999999975
11
108.6780059999999963
21
-112.6398379999999975
0
LINE
8
BLACK
6
CONTINUOUS
10
108.6780059999999963
20
-112.6398379999999975
11
108.4875299999999925
21
-112.5445999999999884
0
LINE
8
BLACK
6
CONTINUOUS
10
110.2970539999999886
20
-112.4493609999999961
11
110.3922919999999976
21
-112.5445999999999884
0
LINE
8
BLACK
6
CONTINUOUS
10
110.3922919999999976
20
-112.5445999999999884
11
110.2970539999999886
21
-112.6398379999999975
0
LINE
8
BLACK
6
CONTINUOUS
10
110.2970539999999886
20
-112.6398379999999975
11
110.2018159999999938
21
-112.5445999999999884
0
LINE
8
BLACK
6
CONTINUOUS
10
110.2018159999999938
20
-112.5445999999999884
11
110.2970539999999886
21
-112.4493609999999961
0
LINE
8
BLACK
6
CONTINUOUS
10
110.2970539999999886
20
-112.4493609999999961
11
110.2970539999999886
21
-112.6398379999999975
0
LINE
8
BLACK
6
CONTINUOUS
10
110.2970539999999886
20
-111.4017419999999987
11
110.3922919999999976
21
-111.4969799999999935
0
LINE
8
BLACK
6
CONTINUOUS
10
110.3922919999999976
20
-111.4969799999999935
11
110.2970539999999886
21
-111.5922190000000001
0
LINE
8
BLACK
6
CONTINUOUS
10
110.2970539999999886
20
-111.5922190000000001
11
110.2018159999999938
21
-111.4969799999999935
0
LINE
8
BLACK
6
CONTINUOUS
10
110.2018159999999938
20
-111.4969799999999935
11
110.2970539999999886
21
-111.4017419999999987
0
LINE
8
BLACK
6
CONTINUOUS
10
110.2970539999999886
20
-111.4017419999999987
11
110.2970539999999886
21
-111.5922190000000001
0
LINE
8
BLACK
6
CONTINUOUS
10
93.0750000000000028
20
-115.4749999999999943
11
93.9749999999999943
21
-116.375
0
LINE
8
BLACK
6
CONTINUOUS
10
93.9749999999999943
20
-115.4749999999999943
11
93.0750000000000028
21
-116.375
0
LINE
8
BLACK
6
CONTINUOUS
10
96.963719999999995
20
-114.8398380000000003
11
97.1541969999999964
21
-114.8398380000000003
0
LINE
8
BLACK
6
CONTINUOUS
10
97.1541969999999964
20
-114.8398380000000003
11
97.3446730000000002
21
-114.9350759999999951
0
LINE
8
BLACK
6
CONTINUOUS
10
97.3446730000000002
20
-114.9350759999999951
11
97.4399109999999951
21
-115.03031399999999
0
LINE
8
BLACK
6
CONTINUOUS
10
97.4399109999999951
20
-115.03031399999999
11
97.5351489999999899
21
-115.2207899999999938
0
LINE
8
BLACK
6
CONTINUOUS
10
97.5351489999999899
20
-115.2207899999999938
11
97.6303869999999989
21
-115.6017420000000016
0
LINE
8
BLACK
6
CONTINUOUS
10
97.6303869999999989
20
-115.6017420000000016
11
97.6303869999999989
21
-116.0779330000000016
0
LINE
8
BLACK
6
CONTINUOUS
10
97.6303869999999989
20
-116.0779330000000016
11
97.5351489999999899
21
-116.4588849999999951
0
LINE
8
BLACK
6
CONTINUOUS
10
97.5351489999999899
20
-116.4588849999999951
11
97.4399109999999951
21
-116.649360999999999
0
LINE
8
BLACK
6
CONTINUOUS
10
97.4399109999999951
20
-116.649360999999999
11
97.3446730000000002
21
-116.7445999999999913
0
LINE
8
BLACK
6
CONTINUOUS
10
97.3446730000000002
20
-116.7445999999999913
11
97.1541969999999964
21
-116.8398380000000003
0
LINE
8
BLACK
6
CONTINUOUS
10
97.1541969999999964
20
-116.8398380000000003
11
96.963719999999995
21
-116.8398380000000003
0
LINE
8
BLACK
6
CONTINUOUS
10
96.963719999999995
20
-116.8398380000000003
11
96.7732439999999912
21
-116.7445999999999913
0
LINE
8
BLACK
6
CONTINUOUS
10
96.7732439999999912
20
-116.7445999999999913
11
96.6780059999999963
21
-116.649360999999999
0
LINE
8
BLACK
6
CONTINUOUS
10
96.6780059999999963
20
-116.649360999999999
11
96.5827680000000015
21
-116.4588849999999951
0
LINE
8
BLACK
6
CONTINUOUS
10
96.5827680000000015
20
-116.4588849999999951
11
96.4875299999999925
21
-116.0779330000000016
0
LINE
8
BLACK
6
CONTINUOUS
10
96.4875299999999925
20
-116.0779330000000016
11
96.4875299999999925
21
-115.6017420000000016
0
LINE
8
BLACK
6
CONTINUOUS
10
96.4875299999999925
20
-115.6017420000000016
11
96.5827680000000015
21
-115.2207899999999938
0
LINE
8
BLACK
6
CONTINUOUS
10
96.5827680000000015
20
-115.2207899999999938
11
96.6780059999999963
21
-115.03031399999999
0
LINE
8
BLACK
6
CONTINUOUS
10
96.6780059999999963
20
-115.03031399999999
11
96.7732439999999912
21
-114.9350759999999951
0
LINE
8
BLACK
6
CONTINUOUS
10
96.7732439999999912
20
-114.9350759999999951
11
96.963719999999995
21
-114.8398380000000003
0
LINE
8
BLACK
6
CONTINUOUS
10
98.5827680000000015
20
-116.7445999999999913
11
98.5827680000000015
21
-116.8398380000000003
0
LINE
8
BLACK
6
CONTINUOUS
10
98.5827680000000015
20
-116.8398380000000003
11
98.4875299999999925
21
-117.03031399999999
0
LINE
8
BLACK
6
CONTINUOUS
10
98.4875299999999925
20
-117.03031399999999
11
98.3922919999999976
21
-117.125551999999999
0
LINE
8
BLACK
6
CONTINUOUS
10
99.5351489999999899
20
-116.8398380000000003
11
99.9161009999999976
21
-116.8398380000000003
0
LINE
8
BLACK
6
CONTINUOUS
10
99.9161009999999976
20
-116.8398380000000003
11
100.106577999999999
21
-116.7445999999999913
0
LINE
8
BLACK
6
CONTINUOUS
10
100.106577999999999
20
-116.7445999999999913
11
100.2018159999999938
21
-116.649360999999999
0
LINE
8
BLACK
6
CONTINUOUS
10
100.2018159999999938
20
-116.649360999999999
11
100.3922919999999976
21
-116.3636470000000003
0
LINE
8
BLACK
6
CONTINUOUS
10
100.3922919999999976
20
-116.3636470000000003
11
100.4875299999999925
21
-115.9826949999999925
0
LINE
8
BLACK
6
CONTINUOUS
10
100.4875299999999925
20
-115.9826949999999925
11
100.4875299999999925
21
-115.2207899999999938
0
LINE
8
BLACK
6
CONTINUOUS
10
100.4875299999999925
20
-115.2207899999999938
11
100.3922919999999976
21
-115.03031399999999
0
LINE
8
BLACK
6
CONTINUOUS
10
100.3922919999999976
20
-115.03031399999999
11
100.2970539999999886
21
-114.9350759999999951
0
LINE
8
BLACK
6
CONTINUOUS
10
100.2970539999999886
20
-114.9350759999999951
11
100.106577999999999
21
-114.8398380000000003
0
LINE
8
BLACK
6
CONTINUOUS
10
100.106577999999999
20
-114.8398380000000003
11
99.7256249999999937
21
-114.8398380000000003
0
LINE
8
BLACK
6
CONTINUOUS
10
99.7256249999999937
20
-114.8398380000000003
11
99.5351489999999899
21
-114.9350759999999951
0
LINE
8
BLACK
6
CONTINUOUS
10
99.5351489999999899
20
-114.9350759999999951
11
99.4399109999999951
21
-115.03031399999999
0
LINE
8
BLACK
6
CONTINUOUS
10
99.4399109999999951
20
-115.03031399999999
11
99.3446730000000002
21
-115.2207899999999938
0
LINE
8
BLACK
6
CONTINUOUS
10
99.3446730000000002
20
-115.2207899999999938
11
99.3446730000000002
21
-115.6969799999999964
0
LINE
8
BLACK
6
CONTINUOUS
10
99.3446730000000002
20
-115.6969799999999964
11
99.4399109999999951
21
-115.8874569999999977
0
LINE
8
BLACK
6
CONTINUOUS
10
99.4399109999999951
20
-115.8874569999999977
11
99.5351489999999899
21
-115.9826949999999925
0
LINE
8
BLACK
6
CONTINUOUS
10
99.5351489999999899
20
-115.9826949999999925
11
99.7256249999999937
21
-116.0779330000000016
0
LINE
8
BLACK
6
CONTINUOUS
10
99.7256249999999937
20
-116.0779330000000016
11
100.106577999999999
21
-116.0779330000000016
0
LINE
8
BLACK
6
CONTINUOUS
10
100.106577999999999
20
-116.0779330000000016
11
100.2970539999999886
21
-115.9826949999999925
0
LINE
8
BLACK
6
CONTINUOUS
10
100.2970539999999886
20
-115.9826949999999925
11
100.3922919999999976
21
-115.8874569999999977
0
LINE
8
BLACK
6
CONTINUOUS
10
100.3922919999999976
20
-115.8874569999999977
11
100.4875299999999925
21
-115.6969799999999964
0
LINE
8
BLACK
6
CONTINUOUS
10
101.7256249999999937
20
-114.8398380000000003
11
101.9161019999999951
21
-114.8398380000000003
0
LINE
8
BLACK
6
CONTINUOUS
10
101.9161019999999951
20
-114.8398380000000003
11
102.106577999999999
21
-114.9350759999999951
0
LINE
8
BLACK
6
CONTINUOUS
10
102.106577999999999
20
-114.9350759999999951
11
102.2018159999999938
21
-115.03031399999999
0
LINE
8
BLACK
6
CONTINUOUS
10
102.2018159999999938
20
-115.03031399999999
11
102.2970539999999886
21
-115.2207899999999938
0
LINE
8
BLACK
6
CONTINUOUS
10
102.2970539999999886
20
-115.2207899999999938
11
102.3922919999999976
21
-115.6017420000000016
0
LINE
8
BLACK
6
CONTINUOUS
10
102.3922919999999976
20
-115.6017420000000016
11
102.3922919999999976
21
-116.0779330000000016
0
LINE
8
BLACK
6
CONTINUOUS
10
102.3922919999999976
20
-116.0779330000000016
11
102.2970539999999886
21
-116.4588849999999951
0
LINE
8
BLACK
6
CONTINUOUS
10
102.2970539999999886
20
-116.4588849999999951
11
102.2018159999999938
21
-116.649360999999999
0
LINE
8
BLACK
6
CONTINUOUS
10
102.2018159999999938
20
-116.649360999999999
11
102.106577999999999
21
-116.7445999999999913
0
LINE
8
BLACK
6
CONTINUOUS
10
102.106577999999999
20
-116.7445999999999913
11
101.9161019999999951
21
-116.8398380000000003
0
LINE
8
BLACK
6
CONTINUOUS
10
101.9161019999999951
20
-116.8398380000000003
11
101.7256249999999937
21
-116.8398380000000003
0
LINE
8
BLACK
6
CONTINUOUS
10
101.7256249999999937
20
-116.8398380000000003
11
101.5351489999999899
21
-116.7445999999999913
0
LINE
8
BLACK
6
CONTINUOUS
10
101.5351489999999899
20
-116.7445999999999913
11
101.4399109999999951
21
-116.649360999999999
0
LINE
8
BLACK
6
CONTINUOUS
10
101.4399109999999951
20
-116.649360999999999
11
101.3446730000000002
21
-116.4588849999999951
0
LINE
8
BLACK
6
CONTINUOUS
10
101.3446730000000002
20
-116.4588849999999951
11
101.2494349999999912
21
-116.0779330000000016
0
LINE
8
BLACK
6
CONTINUOUS
10
101.2494349999999912
20
-116.0779330000000016
11
101.2494349999999912
21
-115.6017420000000016
0
LINE
8
BLACK
6
CONTINUOUS
10
101.2494349999999912
20
-115.6017420000000016
11
101.3446730000000002
21
-115.2207899999999938
0
LINE
8
BLACK
6
CONTINUOUS
10
101.3446730000000002
20
-115.2207899999999938
11
101.4399109999999951
21
-115.03031399999999
0
LINE
8
BLACK
6
CONTINUOUS
10
101.4399109999999951
20
-115.03031399999999
11
101.5351489999999899
21
-114.9350759999999951
0
LINE
8
BLACK
6
CONTINUOUS
10
101.5351489999999899
20
-114.9350759999999951
11
101.7256249999999937
21
-114.8398380000000003
0
LINE
8
BLACK
6
CONTINUOUS
10
103.6303869999999989
20
-114.8398380000000003
11
103.8208640000000003
21
-114.8398380000000003
0
LINE
8
BLACK
6
CONTINUOUS
10
103.8208640000000003
20
-114.8398380000000003
11
104.0113399999999899
21
-114.9350759999999951
0
LINE
8
BLACK
6
CONTINUOUS
10
104.0113399999999899
20
-114.9350759999999951
11
104.106577999999999
21
-115.03031399999999
0
LINE
8
BLACK
6
CONTINUOUS
10
104.106577999999999
20
-115.03031399999999
11
104.2018159999999938
21
-115.2207899999999938
0
LINE
8
BLACK
6
CONTINUOUS
10
104.2018159999999938
20
-115.2207899999999938
11
104.2970539999999886
21
-115.6017420000000016
0
LINE
8
BLACK
6
CONTINUOUS
10
104.2970539999999886
20
-115.6017420000000016
11
104.2970539999999886
21
-116.0779330000000016
0
LINE
8
BLACK
6
CONTINUOUS
10
104.2970539999999886
20
-116.0779330000000016
11
104.2018159999999938
21
-116.4588849999999951
0
LINE
8
BLACK
6
CONTINUOUS
10
104.2018159999999938
20
-116.4588849999999951
11
104.106577999999999
21
-116.649360999999999
0
LINE
8
BLACK
6
CONTINUOUS
10
104.106577999999999
20
-116.649360999999999
11
104.0113399999999899
21
-116.7445999999999913
0
LINE
8
BLACK
6
CONTINUOUS
10
104.0113399999999899
20
-116.7445999999999913
11
103.8208640000000003
21
-116.8398380000000003
0
LINE
8
BLACK
6
CONTINUOUS
10
103.8208640000000003
20
-116.8398380000000003
11
103.6303869999999989
21
-116.8398380000000003
0
LINE
8
BLACK
6
CONTINUOUS
10
103.6303869999999989
20
-116.8398380000000003
11
103.4399109999999951
21
-116.7445999999999913
0
LINE
8
BLACK
6
CONTINUOUS
10
103.4399109999999951
20
-116.7445999999999913
11
103.3446730000000002
21
-116.649360999999999
0
LINE
8
BLACK
6
CONTINUOUS
10
103.3446730000000002
20
-116.649360999999999
11
103.2494349999999912
21
-116.4588849999999951
0
LINE
8
BLACK
6
CONTINUOUS
10
103.2494349999999912
20
-116.4588849999999951
11
103.1541969999999964
21
-116.0779330000000016
0
LINE
8
BLACK
6
CONTINUOUS
10
103.1541969999999964
20
-116.0779330000000016
11
103.1541969999999964
21
-115.6017420000000016
0
LINE
8
BLACK
6
CONTINUOUS
10
103.1541969999999964
20
-115.6017420000000016
11
103.2494349999999912
21
-115.2207899999999938
0
LINE
8
BLACK
6
CONTINUOUS
10
103.2494349999999912
20
-115.2207899999999938
11
103.3446730000000002
21
-115.03031399999999
0
LINE
8
BLACK
6
CONTINUOUS
10
103.3446730000000002
20
-115.03031399999999
11
103.4399109999999951
21
-114.9350759999999951
0
LINE
8
BLACK
6
CONTINUOUS
10
103.4399109999999951
20
-114.9350759999999951
11
103.6303869999999989
21
-114.8398380000000003
0
LINE
8
BLACK
6
CONTINUOUS
10
105.1541969999999964
20
-116.8398380000000003
11
105.1541969999999964
21
-115.5065039999999925
0
LINE
8
BLACK
6
CONTINUOUS
10
105.1541969999999964
20
-115.6969799999999964
11
105.2494349999999912
21
-115.6017420000000016
0
LINE
8
BLACK
6
CONTINUOUS
10
105.2494349999999912
20
-115.6017420000000016
11
105.4399109999999951
21
-115.5065039999999925
0
LINE
8
BLACK
6
CONTINUOUS
10
105.4399109999999951
20
-115.5065039999999925
11
105.7256259999999912
21
-115.5065039999999925
0
LINE
8
BLACK
6
CONTINUOUS
10
105.7256259999999912
20
-115.5065039999999925
11
105.9161019999999951
21
-115.6017420000000016
0
LINE
8
BLACK
6
CONTINUOUS
10
105.9161019999999951
20
-115.6017420000000016
11
106.0113399999999899
21
-115.7922189999999887
0
LINE
8
BLACK
6
CONTINUOUS
10
106.0113399999999899
20
-115.7922189999999887
11
106.0113399999999899
21
-116.8398380000000003
0
LINE
8
BLACK
6
CONTINUOUS
10
106.0113399999999899
20
-115.7922189999999887
11
106.106577999999999
21
-115.6017420000000016
0
LINE
8
BLACK
6
CONTINUOUS
10
106.106577999999999
20
-115.6017420000000016
11
106.2970539999999886
21
-115.5065039999999925
0
LINE
8
BLACK
6
CONTINUOUS
10
106.2970539999999886
20
-115.5065039999999925
11
106.5827680000000015
21
-115.5065039999999925
0
LINE
8
BLACK
6
CONTINUOUS
10
106.5827680000000015
20
-115.5065039999999925
11
106.7732449999999886
21
-115.6017420000000016
0
LINE
8
BLACK
6
CONTINUOUS
10
106.7732449999999886
20
-115.6017420000000016
11
106.8684829999999977
21
-115.7922189999999887
0
LINE
8
BLACK
6
CONTINUOUS
10
106.8684829999999977
20
-115.7922189999999887
11
106.8684829999999977
21
-116.8398380000000003
0
LINE
8
BLACK
6
CONTINUOUS
10
107.8208640000000003
20
-116.8398380000000003
11
107.8208640000000003
21
-115.5065039999999925
0
LINE
8
BLACK
6
CONTINUOUS
10
107.8208640000000003
20
-115.6969799999999964
11
107.9161019999999951
21
-115.6017420000000016
0
LINE
8
BLACK
6
CONTINUOUS
10
107.9161019999999951
20
-115.6017420000000016
11
108.106577999999999
21
-115.5065039999999925
0
LINE
8
BLACK
6
CONTINUOUS
10
108.106577999999999
20
-115.5065039999999925
11
108.3922929999999951
21
-115.5065039999999925
0
LINE
8
BLACK
6
CONTINUOUS
10
108.3922929999999951
20
-115.5065039999999925
11
108.582768999999999
21
-115.6017420000000016
0
LINE
8
BLACK
6
CONTINUOUS
10
108.582768999999999
20
-115.6017420000000016
11
108.6780069999999938
21
-115.7922189999999887
0
LINE
8
BLACK
6
CONTINUOUS
10
108.6780069999999938
20
-115.7922189999999887
11
108.6780069999999938
21
-116.8398380000000003
0
LINE
8
BLACK
6
CONTINUOUS
10
108.6780069999999938
20
-115.7922189999999887
11
108.7732449999999886
21
-115.6017420000000016
0
LINE
8
BLACK
6
CONTINUOUS
10
108.7732449999999886
20
-115.6017420000000016
11
108.9637209999999925
21
-115.5065039999999925
0
LINE
8
BLACK
6
CONTINUOUS
10
108.9637209999999925
20
-115.5065039999999925
11
109.2494349999999912
21
-115.5065039999999925
0
LINE
8
BLACK
6
CONTINUOUS
10
109.2494349999999912
20
-115.5065039999999925
11
109.4399119999999925
21
-115.6017420000000016
0
LINE
8
BLACK
6
CONTINUOUS
10
109.4399119999999925
20
-115.6017420000000016
11
109.5351500000000016
21
-115.7922189999999887
0
LINE
8
BLACK
6
CONTINUOUS
10
109.5351500000000016
20
-115.7922189999999887
11
109.5351500000000016
21
-116.8398380000000003
0
LINE
8
BLACK
6
CONTINUOUS
10
113.4399119999999925
20
-114.7445999999999913
11
111.7256269999999887
21
-117.3160279999999887
0
LINE
8
BLACK
6
CONTINUOUS
10
116.0113410000000016
20
-114.8398380000000003
11
116.2018179999999887
21
-114.8398380000000003
0
LINE
8
BLACK
6
CONTINUOUS
10
116.2018179999999887
20
-114.8398380000000003
11
116.3922939999999926
21
-114.9350759999999951
0
LINE
8
BLACK
6
CONTINUOUS
10
116.3922939999999926
20
-114.9350759999999951
11
116.4875320000000016
21
-115.03031399999999
0
LINE
8
BLACK
6
CONTINUOUS
10
116.4875320000000016
20
-115.03031399999999
11
116.5827699999999965
21
-115.2207899999999938
0
LINE
8
BLACK
6
CONTINUOUS
10
116.5827699999999965
20
-115.2207899999999938
11
116.6780079999999913
21
-115.6017420000000016
0
LINE
8
BLACK
6
CONTINUOUS
10
116.6780079999999913
20
-115.6017420000000016
11
116.6780079999999913
21
-116.0779330000000016
0
LINE
8
BLACK
6
CONTINUOUS
10
116.6780079999999913
20
-116.0779330000000016
11
116.5827699999999965
21
-116.4588849999999951
0
LINE
8
BLACK
6
CONTINUOUS
10
116.5827699999999965
20
-116.4588849999999951
11
116.4875320000000016
21
-116.649360999999999
0
LINE
8
BLACK
6
CONTINUOUS
10
116.4875320000000016
20
-116.649360999999999
11
116.3922939999999926
21
-116.7445999999999913
0
LINE
8
BLACK
6
CONTINUOUS
10
116.3922939999999926
20
-116.7445999999999913
11
116.2018179999999887
21
-116.8398380000000003
0
LINE
8
BLACK
6
CONTINUOUS
10
116.2018179999999887
20
-116.8398380000000003
11
116.0113410000000016
21
-116.8398380000000003
0
LINE
8
BLACK
6
CONTINUOUS
10
116.0113410000000016
20
-116.8398380000000003
11
115.8208649999999977
21
-116.7445999999999913
0
LINE
8
BLACK
6
CONTINUOUS
10
115.8208649999999977
20
-116.7445999999999913
11
115.7256269999999887
21
-116.649360999999999
0
LINE
8
BLACK
6
CONTINUOUS
10
115.7256269999999887
20
-116.649360999999999
11
115.6303889999999939
21
-116.4588849999999951
0
LINE
8
BLACK
6
CONTINUOUS
10
115.6303889999999939
20
-116.4588849999999951
11
115.535150999999999
21
-116.0779330000000016
0
LINE
8
BLACK
6
CONTINUOUS
10
115.535150999999999
20
-116.0779330000000016
11
115.535150999999999
21
-115.6017420000000016
0
LINE
8
BLACK
6
CONTINUOUS
10
115.535150999999999
20
-115.6017420000000016
11
115.6303889999999939
21
-115.2207899999999938
0
LINE
8
BLACK
6
CONTINUOUS
10
115.6303889999999939
20
-115.2207899999999938
11
115.7256269999999887
21
-115.03031399999999
0
LINE
8
BLACK
6
CONTINUOUS
10
115.7256269999999887
20
-115.03031399999999
11
115.8208649999999977
21
-114.9350759999999951
0
LINE
8
BLACK
6
CONTINUOUS
10
115.8208649999999977
20
-114.9350759999999951
11
116.0113410000000016
21
-114.8398380000000003
0
LINE
8
BLACK
6
CONTINUOUS
10
117.6303889999999939
20
-116.7445999999999913
11
117.6303889999999939
21
-116.8398380000000003
0
LINE
8
BLACK
6
CONTINUOUS
10
117.6303889999999939
20
-116.8398380000000003
11
117.535150999999999
21
-117.03031399999999
0
LINE
8
BLACK
6
CONTINUOUS
10
117.535150999999999
20
-117.03031399999999
11
117.43991299999999
21
-117.125551999999999
0
LINE
8
BLACK
6
CONTINUOUS
10
118.8684839999999951
20
-114.8398380000000003
11
119.0589609999999965
21
-114.8398380000000003
0
LINE
8
BLACK
6
CONTINUOUS
10
119.0589609999999965
20
-114.8398380000000003
11
119.2494370000000004
21
-114.9350759999999951
0
LINE
8
BLACK
6
CONTINUOUS
10
119.2494370000000004
20
-114.9350759999999951
11
119.3446749999999952
21
-115.03031399999999
0
LINE
8
BLACK
6
CONTINUOUS
10
119.3446749999999952
20
-115.03031399999999
11
119.43991299999999
21
-115.2207899999999938
0
LINE
8
BLACK
6
CONTINUOUS
10
119.43991299999999
20
-115.2207899999999938
11
119.535150999999999
21
-115.6017420000000016
0
LINE
8
BLACK
6
CONTINUOUS
10
119.535150999999999
20
-115.6017420000000016
11
119.535150999999999
21
-116.0779330000000016
0
LINE
8
BLACK
6
CONTINUOUS
10
119.535150999999999
20
-116.0779330000000016
11
119.43991299999999
21
-116.4588849999999951
0
LINE
8
BLACK
6
CONTINUOUS
10
119.43991299999999
20
-116.4588849999999951
11
119.3446749999999952
21
-116.649360999999999
0
LINE
8
BLACK
6
CONTINUOUS
10
119.3446749999999952
20
-116.649360999999999
11
119.2494370000000004
21
-116.7445999999999913
0
LINE
8
BLACK
6
CONTINUOUS
10
119.2494370000000004
20
-116.7445999999999913
11
119.0589609999999965
21
-116.8398380000000003
0
LINE
8
BLACK
6
CONTINUOUS
10
119.0589609999999965
20
-116.8398380000000003
11
118.8684839999999951
21
-116.8398380000000003
0
LINE
8
BLACK
6
CONTINUOUS
10
118.8684839999999951
20
-116.8398380000000003
11
118.6780079999999913
21
-116.7445999999999913
0
LINE
8
BLACK
6
CONTINUOUS
10
118.6780079999999913
20
-116.7445999999999913
11
118.5827699999999965
21
-116.649360999999999
0
LINE
8
BLACK
6
CONTINUOUS
10
118.5827699999999965
20
-116.649360999999999
11
118.4875320000000016
21
-116.4588849999999951
0
LINE
8
BLACK
6
CONTINUOUS
10
118.4875320000000016
20
-116.4588849999999951
11
118.3922939999999926
21
-116.0779330000000016
0
LINE
8
BLACK
6
CONTINUOUS
10
118.3922939999999926
20
-116.0779330000000016
11
118.3922939999999926
21
-115.6017420000000016
0
LINE
8
BLACK
6
CONTINUOUS
10
118.3922939999999926
20
-115.6017420000000016
11
118.4875320000000016
21
-115.2207899999999938
0
LINE
8
BLACK
6
CONTINUOUS
10
118.4875320000000016
20
-115.2207899999999938
11
118.5827699999999965
21
-115.03031399999999
0
LINE
8
BLACK
6
CONTINUOUS
10
118.5827699999999965
20
-115.03031399999999
11
118.6780079999999913
21
-114.9350759999999951
0
LINE
8
BLACK
6
CONTINUOUS
10
118.6780079999999913
20
-114.9350759999999951
11
118.8684839999999951
21
-114.8398380000000003
0
LINE
8
BLACK
6
CONTINUOUS
10
120.2018179999999887
20
-114.8398380000000003
11
121.43991299999999
21
-114.8398380000000003
0
LINE
8
BLACK
6
CONTINUOUS
10
121.43991299999999
20
-114.8398380000000003
11
120.7732460000000003
21
-115.6017420000000016
0
LINE
8
BLACK
6
CONTINUOUS
10
120.7732460000000003
20
-115.6017420000000016
11
121.0589609999999965
21
-115.6017420000000016
0
LINE
8
BLACK
6
CONTINUOUS
10
121.0589609999999965
20
-115.6017420000000016
11
121.2494370000000004
21
-115.6969799999999964
0
LINE
8
BLACK
6
CONTINUOUS
10
121.2494370000000004
20
-115.6969799999999964
11
121.3446749999999952
21
-115.7922189999999887
0
LINE
8
BLACK
6
CONTINUOUS
10
121.3446749999999952
20
-115.7922189999999887
11
121.43991299999999
21
-115.9826949999999925
0
LINE
8
BLACK
6
CONTINUOUS
10
121.43991299999999
20
-115.9826949999999925
11
121.43991299999999
21
-116.4588849999999951
0
LINE
8
BLACK
6
CONTINUOUS
10
121.43991299999999
20
-116.4588849999999951
11
121.3446749999999952
21
-116.649360999999999
0
LINE
8
BLACK
6
CONTINUOUS
10
121.3446749999999952
20
-116.649360999999999
11
121.2494370000000004
21
-116.7445999999999913
0
LINE
8
BLACK
6
CONTINUOUS
10
121.2494370000000004
20
-116.7445999999999913
11
121.0589609999999965
21
-116.8398380000000003
0
LINE
8
BLACK
6
CONTINUOUS
10
121.0589609999999965
20
-116.8398380000000003
11
120.4875320000000016
21
-116.8398380000000003
0
LINE
8
BLACK
6
CONTINUOUS
10
120.4875320000000016
20
-116.8398380000000003
11
120.2970559999999978
21
-116.7445999999999913
0
LINE
8
BLACK
6
CONTINUOUS
10
120.2970559999999978
20
-116.7445999999999913
11
120.2018179999999887
21
-116.649360999999999
0
LINE
8
BLACK
6
CONTINUOUS
10
123.2494370000000004
20
-114.8398380000000003
11
122.2970559999999978
21
-114.8398380000000003
0
LINE
8
BLACK
6
CONTINUOUS
10
122.2970559999999978
20
-114.8398380000000003
11
122.2018179999999887
21
-115.7922189999999887
0
LINE
8
BLACK
6
CONTINUOUS
10
122.2018179999999887
20
-115.7922189999999887
11
122.2970559999999978
21
-115.6969799999999964
0
LINE
8
BLACK
6
CONTINUOUS
10
122.2970559999999978
20
-115.6969799999999964
11
122.4875319999999874
21
-115.6017420000000016
0
LINE
8
BLACK
6
CONTINUOUS
10
122.4875319999999874
20
-115.6017420000000016
11
122.9637229999999875
21
-115.6017420000000016
0
LINE
8
BLACK
6
CONTINUOUS
10
122.9637229999999875
20
-115.6017420000000016
11
123.1541989999999913
21
-115.6969799999999964
0
LINE
8
BLACK
6
CONTINUOUS
10
123.1541989999999913
20
-115.6969799999999964
11
123.2494370000000004
21
-115.7922189999999887
0
LINE
8
BLACK
6
CONTINUOUS
10
123.2494370000000004
20
-115.7922189999999887
11
123.3446749999999952
21
-115.9826949999999925
0
LINE
8
BLACK
6
CONTINUOUS
10
123.3446749999999952
20
-115.9826949999999925
11
123.3446749999999952
21
-116.4588849999999951
0
LINE
8
BLACK
6
CONTINUOUS
10
123.3446749999999952
20
-116.4588849999999951
11
123.2494370000000004
21
-116.649360999999999
0
LINE
8
BLACK
6
CONTINUOUS
10
123.2494370000000004
20
-116.649360999999999
11
123.1541989999999913
21
-116.7445999999999913
0
LINE
8
BLACK
6
CONTINUOUS
10
123.1541989999999913
20
-116.7445999999999913
11
122.9637229999999875
21
-116.8398380000000003
0
LINE
8
BLACK
6
CONTINUOUS
10
122.9637229999999875
20
-116.8398380000000003
11
122.4875319999999874
21
-116.8398380000000003
0
LINE
8
BLACK
6
CONTINUOUS
10
122.4875319999999874
20
-116.8398380000000003
11
122.2970559999999978
21
-116.7445999999999913
0
LINE
8
BLACK
6
CONTINUOUS
10
122.2970559999999978
20
-116.7445999999999913
11
122.2018179999999887
21
-116.649360999999999
0
LINE
8
BLACK
6
CONTINUOUS
10
125.0589609999999965
20
-115.5065039999999925
11
125.0589609999999965
21
-116.8398380000000003
0
LINE
8
BLACK
6
CONTINUOUS
10
124.5827699999999965
20
-114.7445999999999913
11
124.1065799999999939
21
-116.1731709999999964
0
LINE
8
BLACK
6
CONTINUOUS
10
124.1065799999999939
20
-116.1731709999999964
11
125.3446749999999952
21
-116.1731709999999964
0
LINE
8
BLACK
6
CONTINUOUS
10
126.0113419999999991
20
-114.8398380000000003
11
126.0113419999999991
21
-115.2207899999999938
0
LINE
8
BLACK
6
CONTINUOUS
10
126.7732469999999978
20
-114.8398380000000003
11
126.7732469999999978
21
-115.2207899999999938
0
LINE
8
BLACK
6
CONTINUOUS
10
129.7256289999999979
20
-117.6017420000000016
11
129.6303900000000056
21
-117.5065039999999925
0
LINE
8
BLACK
6
CONTINUOUS
10
129.6303900000000056
20
-117.5065039999999925
11
129.4399139999999875
21
-117.2207899999999938
0
LINE
8
BLACK
6
CONTINUOUS
10
129.4399139999999875
20
-117.2207899999999938
11
129.3446759999999927
21
-117.03031399999999
0
LINE
8
BLACK
6
CONTINUOUS
10
129.3446759999999927
20
-117.03031399999999
11
129.2494379999999978
21
-116.7445999999999913
0
LINE
8
BLACK
6
CONTINUOUS
10
129.2494379999999978
20
-116.7445999999999913
11
129.154200000000003
21
-116.2684089999999912
0
LINE
8
BLACK
6
CONTINUOUS
10
129.154200000000003
20
-116.2684089999999912
11
129.154200000000003
21
-115.8874569999999977
0
LINE
8
BLACK
6
CONTINUOUS
10
129.154200000000003
20
-115.8874569999999977
11
129.2494379999999978
21
-115.4112659999999977
0
LINE
8
BLACK
6
CONTINUOUS
10
129.2494379999999978
20
-115.4112659999999977
11
129.3446759999999927
21
-115.125551999999999
0
LINE
8
BLACK
6
CONTINUOUS
10
129.3446759999999927
20
-115.125551999999999
11
129.4399139999999875
21
-114.9350759999999951
0
LINE
8
BLACK
6
CONTINUOUS
10
129.4399139999999875
20
-114.9350759999999951
11
129.6303900000000056
21
-114.649360999999999
0
LINE
8
BLACK
6
CONTINUOUS
10
129.6303900000000056
20
-114.649360999999999
11
129.7256289999999979
21
-114.5541229999999899
0
LINE
8
BLACK
6
CONTINUOUS
10
131.3446759999999927
20
-115.5065039999999925
11
131.3446759999999927
21
-116.8398380000000003
0
LINE
8
BLACK
6
CONTINUOUS
10
130.8684849999999926
20
-114.7445999999999913
11
130.3922949999999901
21
-116.1731709999999964
0
LINE
8
BLACK
6
CONTINUOUS
10
130.3922949999999901
20
-116.1731709999999964
11
131.6303900000000056
21
-116.1731709999999964
0
LINE
8
BLACK
6
CONTINUOUS
10
133.9161049999999875
20
-116.8398380000000003
11
133.9161049999999875
21
-114.8398380000000003
0
LINE
8
BLACK
6
CONTINUOUS
10
134.7732479999999953
20
-116.8398380000000003
11
134.7732479999999953
21
-115.7922189999999887
0
LINE
8
BLACK
6
CONTINUOUS
10
134.7732479999999953
20
-115.7922189999999887
11
134.6780100000000004
21
-115.6017420000000016
0
LINE
8
BLACK
6
CONTINUOUS
10
134.6780100000000004
20
-115.6017420000000016
11
134.4875339999999824
21
-115.5065039999999925
0
LINE
8
BLACK
6
CONTINUOUS
10
134.4875339999999824
20
-115.5065039999999925
11
134.2018190000000004
21
-115.5065039999999925
0
LINE
8
BLACK
6
CONTINUOUS
10
134.2018190000000004
20
-115.5065039999999925
11
134.0113429999999823
21
-115.6017420000000016
0
LINE
8
BLACK
6
CONTINUOUS
10
134.0113429999999823
20
-115.6017420000000016
11
133.9161049999999875
21
-115.6969799999999964
0
LINE
8
BLACK
6
CONTINUOUS
10
136.0113429999999823
20
-116.8398380000000003
11
135.8208669999999927
21
-116.7445999999999913
0
LINE
8
BLACK
6
CONTINUOUS
10
135.8208669999999927
20
-116.7445999999999913
11
135.7256289999999979
21
-116.649360999999999
0
LINE
8
BLACK
6
CONTINUOUS
10
135.7256289999999979
20
-116.649360999999999
11
135.630391000000003
21
-116.4588849999999951
0
LINE
8
BLACK
6
CONTINUOUS
10
135.630391000000003
20
-116.4588849999999951
11
135.630391000000003
21
-115.8874569999999977
0
LINE
8
BLACK
6
CONTINUOUS
10
135.630391000000003
20
-115.8874569999999977
11
135.7256289999999979
21
-115.6969799999999964
0
LINE
8
BLACK
6
CONTINUOUS
10
135.7256289999999979
20
-115.6969799999999964
11
135.8208669999999927
21
-115.6017420000000016
0
LINE
8
BLACK
6
CONTINUOUS
10
135.8208669999999927
20
-115.6017420000000016
11
136.0113429999999823
21
-115.5065039999999925
0
LINE
8
BLACK
6
CONTINUOUS
10
136.0113429999999823
20
-115.5065039999999925
11
136.2970579999999927
21
-115.5065039999999925
0
LINE
8
BLACK
6
CONTINUOUS
10
136.2970579999999927
20
-115.5065039999999925
11
136.4875339999999824
21
-115.6017420000000016
0
LINE
8
BLACK
6
CONTINUOUS
10
136.4875339999999824
20
-115.6017420000000016
11
136.5827720000000056
21
-115.6969799999999964
0
LINE
8
BLACK
6
CONTINUOUS
10
136.5827720000000056
20
-115.6969799999999964
11
136.6780100000000004
21
-115.8874569999999977
0
LINE
8
BLACK
6
CONTINUOUS
10
136.6780100000000004
20
-115.8874569999999977
11
136.6780100000000004
21
-116.4588849999999951
0
LINE
8
BLACK
6
CONTINUOUS
10
136.6780100000000004
20
-116.4588849999999951
11
136.5827720000000056
21
-116.649360999999999
0
LINE
8
BLACK
6
CONTINUOUS
10
136.5827720000000056
20
-116.649360999999999
11
136.4875339999999824
21
-116.7445999999999913
0
LINE
8
BLACK
6
CONTINUOUS
10
136.4875339999999824
20
-116.7445999999999913
11
136.2970579999999927
21
-116.8398380000000003
0
LINE
8
BLACK
6
CONTINUOUS
10
136.2970579999999927
20
-116.8398380000000003
11
136.0113429999999823
21
-116.8398380000000003
0
LINE
8
BLACK
6
CONTINUOUS
10
137.8208669999999927
20
-116.8398380000000003
11
137.630391000000003
21
-116.7445999999999913
0
LINE
8
BLACK
6
CONTINUOUS
10
137.630391000000003
20
-116.7445999999999913
11
137.5351529999999798
21
-116.5541229999999899
0
LINE
8
BLACK
6
CONTINUOUS
10
137.5351529999999798
20
-116.5541229999999899
11
137.5351529999999798
21
-114.8398380000000003
0
LINE
8
BLACK
6
CONTINUOUS
10
139.3446769999999901
20
-116.7445999999999913
11
139.1542010000000005
21
-116.8398380000000003
0
LINE
8
BLACK
6
CONTINUOUS
10
139.1542010000000005
20
-116.8398380000000003
11
138.7732479999999953
21
-116.8398380000000003
0
LINE
8
BLACK
6
CONTINUOUS
10
138.7732479999999953
20
-116.8398380000000003
11
138.5827720000000056
21
-116.7445999999999913
0
LINE
8
BLACK
6
CONTINUOUS
10
138.5827720000000056
20
-116.7445999999999913
11
138.4875339999999824
21
-116.5541229999999899
0
LINE
8
BLACK
6
CONTINUOUS
10
138.4875339999999824
20
-116.5541229999999899
11
138.4875339999999824
21
-115.7922189999999887
0
LINE
8
BLACK
6
CONTINUOUS
10
138.4875339999999824
20
-115.7922189999999887
11
138.5827720000000056
21
-115.6017420000000016
0
LINE
8
BLACK
6
CONTINUOUS
10
138.5827720000000056
20
-115.6017420000000016
11
138.7732479999999953
21
-115.5065039999999925
0
LINE
8
BLACK
6
CONTINUOUS
10
138.7732479999999953
20
-115.5065039999999925
11
139.1542010000000005
21
-115.5065039999999925
0
LINE
8
BLACK
6
CONTINUOUS
10
139.1542010000000005
20
-115.5065039999999925
11
139.3446769999999901
21
-115.6017420000000016
0
LINE
8
BLACK
6
CONTINUOUS
10
139.3446769999999901
20
-115.6017420000000016
11
139.439914999999985
21
-115.7922189999999887
0
LINE
8
BLACK
6
CONTINUOUS
10
139.439914999999985
20
-115.7922189999999887
11
139.439914999999985
21
-115.9826949999999925
0
LINE
8
BLACK
6
CONTINUOUS
10
139.439914999999985
20
-115.9826949999999925
11
138.4875339999999824
21
-116.1731709999999964
0
LINE
8
BLACK
6
CONTINUOUS
10
140.2018199999999979
20
-116.7445999999999913
11
140.3922959999999875
21
-116.8398380000000003
0
LINE
8
BLACK
6
CONTINUOUS
10
140.3922959999999875
20
-116.8398380000000003
11
140.7732479999999953
21
-116.8398380000000003
0
LINE
8
BLACK
6
CONTINUOUS
10
140.7732479999999953
20
-116.8398380000000003
11
140.9637249999999824
21
-116.7445999999999913
0
LINE
8
BLACK
6
CONTINUOUS
10
140.9637249999999824
20
-116.7445999999999913
11
141.0589630000000056
21
-116.5541229999999899
0
LINE
8
BLACK
6
CONTINUOUS
10
141.0589630000000056
20
-116.5541229999999899
11
141.0589630000000056
21
-116.4588849999999951
0
LINE
8
BLACK
6
CONTINUOUS
10
141.0589630000000056
20
-116.4588849999999951
11
140.9637249999999824
21
-116.2684089999999912
0
LINE
8
BLACK
6
CONTINUOUS
10
140.9637249999999824
20
-116.2684089999999912
11
140.7732479999999953
21
-116.1731709999999964
0
LINE
8
BLACK
6
CONTINUOUS
10
140.7732479999999953
20
-116.1731709999999964
11
140.4875339999999824
21
-116.1731709999999964
0
LINE
8
BLACK
6
CONTINUOUS
10
140.4875339999999824
20
-116.1731709999999964
11
140.2970579999999927
21
-116.0779330000000016
0
LINE
8
BLACK
6
CONTINUOUS
10
140.2970579999999927
20
-116.0779330000000016
11
140.2018199999999979
21
-115.8874569999999977
0
LINE
8
BLACK
6
CONTINUOUS
10
140.2018199999999979
20
-115.8874569999999977
11
140.2018199999999979
21
-115.7922189999999887
0
LINE
8
BLACK
6
CONTINUOUS
10
140.2018199999999979
20
-115.7922189999999887
11
140.2970579999999927
21
-115.6017420000000016
0
LINE
8
BLACK
6
CONTINUOUS
10
140.2970579999999927
20
-115.6017420000000016
11
140.4875339999999824
21
-115.5065039999999925
0
LINE
8
BLACK
6
CONTINUOUS
10
140.4875339999999824
20
-115.5065039999999925
11
140.7732479999999953
21
-115.5065039999999925
0
LINE
8
BLACK
6
CONTINUOUS
10
140.7732479999999953
20
-115.5065039999999925
11
140.9637249999999824
21
-115.6017420000000016
0
LINE
8
BLACK
6
CONTINUOUS
10
141.7256299999999953
20
-117.6017420000000016
11
141.8208679999999902
21
-117.5065039999999925
0
LINE
8
BLACK
6
CONTINUOUS
10
141.8208679999999902
20
-117.5065039999999925
11
142.0113439999999798
21
-117.2207899999999938
0
LINE
8
BLACK
6
CONTINUOUS
10
142.0113439999999798
20
-117.2207899999999938
11
142.1065820000000031
21
-117.03031399999999
0
LINE
8
BLACK
6
CONTINUOUS
10
142.1065820000000031
20
-117.03031399999999
11
142.2018199999999979
21
-116.7445999999999913
0
LINE
8
BLACK
6
CONTINUOUS
10
142.2018199999999979
20
-116.7445999999999913
11
142.2970579999999927
21
-116.2684089999999912
0
LINE
8
BLACK
6
CONTINUOUS
10
142.2970579999999927
20
-116.2684089999999912
11
142.2970579999999927
21
-115.8874569999999977
0
LINE
8
BLACK
6
CONTINUOUS
10
142.2970579999999927
20
-115.8874569999999977
11
142.2018199999999979
21
-115.4112659999999977
0
LINE
8
BLACK
6
CONTINUOUS
10
142.2018199999999979
20
-115.4112659999999977
11
142.1065820000000031
21
-115.125551999999999
0
LINE
8
BLACK
6
CONTINUOUS
10
142.1065820000000031
20
-115.125551999999999
11
142.0113439999999798
21
-114.9350759999999951
0
LINE
8
BLACK
6
CONTINUOUS
10
142.0113439999999798
20
-114.9350759999999951
11
141.8208679999999902
21
-114.649360999999999
0
LINE
8
BLACK
6
CONTINUOUS
10
141.8208679999999902
20
-114.649360999999999
11
141.7256299999999953
21
-114.5541229999999899
0
LINE
8
BLACK
6
CONTINUOUS
10
145.3446779999999876
20
-117.6017420000000016
11
145.2494389999999953
21
-117.5065039999999925
0
LINE
8
BLACK
6
CONTINUOUS
10
145.2494389999999953
20
-117.5065039999999925
11
145.0589630000000056
21
-117.2207899999999938
0
LINE
8
BLACK
6
CONTINUOUS
10
145.0589630000000056
20
-117.2207899999999938
11
144.9637249999999824
21
-117.03031399999999
0
LINE
8
BLACK
6
CONTINUOUS
10
144.9637249999999824
20
-117.03031399999999
11
144.8684869999999876
21
-116.7445999999999913
0
LINE
8
BLACK
6
CONTINUOUS
10
144.8684869999999876
20
-116.7445999999999913
11
144.7732489999999927
21
-116.2684089999999912
0
LINE
8
BLACK
6
CONTINUOUS
10
144.7732489999999927
20
-116.2684089999999912
11
144.7732489999999927
21
-115.8874569999999977
0
LINE
8
BLACK
6
CONTINUOUS
10
144.7732489999999927
20
-115.8874569999999977
11
144.8684869999999876
21
-115.4112659999999977
0
LINE
8
BLACK
6
CONTINUOUS
10
144.8684869999999876
20
-115.4112659999999977
11
144.9637249999999824
21
-115.125551999999999
0
LINE
8
BLACK
6
CONTINUOUS
10
144.9637249999999824
20
-115.125551999999999
11
145.0589630000000056
21
-114.9350759999999951
0
LINE
8
BLACK
6
CONTINUOUS
10
145.0589630000000056
20
-114.9350759999999951
11
145.2494389999999953
21
-114.649360999999999
0
LINE
8
BLACK
6
CONTINUOUS
10
145.2494389999999953
20
-114.649360999999999
11
145.3446779999999876
21
-114.5541229999999899
0
LINE
8
BLACK
6
CONTINUOUS
10
146.1065820000000031
20
-115.5065039999999925
11
146.1065820000000031
21
-116.8398380000000003
0
LINE
8
BLACK
6
CONTINUOUS
10
146.1065820000000031
20
-115.6969799999999964
11
146.2018199999999979
21
-115.6017420000000016
0
LINE
8
BLACK
6
CONTINUOUS
10
146.2018199999999979
20
-115.6017420000000016
11
146.3922959999999875
21
-115.5065039999999925
0
LINE
8
BLACK
6
CONTINUOUS
10
146.3922959999999875
20
-115.5065039999999925
11
146.6780109999999979
21
-115.5065039999999925
0
LINE
8
BLACK
6
CONTINUOUS
10
146.6780109999999979
20
-115.5065039999999925
11
146.8684869999999876
21
-115.6017420000000016
0
LINE
8
BLACK
6
CONTINUOUS
10
146.8684869999999876
20
-115.6017420000000016
11
146.9637249999999824
21
-115.7922189999999887
0
LINE
8
BLACK
6
CONTINUOUS
10
146.9637249999999824
20
-115.7922189999999887
11
146.9637249999999824
21
-116.8398380000000003
0
LINE
8
BLACK
6
CONTINUOUS
10
148.2018199999999979
20
-116.8398380000000003
11
148.0113439999999798
21
-116.7445999999999913
0
LINE
8
BLACK
6
CONTINUOUS
10
148.0113439999999798
20
-116.7445999999999913
11
147.916105999999985
21
-116.649360999999999
0
LINE
8
BLACK
6
CONTINUOUS
10
147.916105999999985
20
-116.649360999999999
11
147.8208679999999902
21
-116.4588849999999951
0
LINE
8
BLACK
6
CONTINUOUS
10
147.8208679999999902
20
-116.4588849999999951
11
147.8208679999999902
21
-115.8874569999999977
0
LINE
8
BLACK
6
CONTINUOUS
10
147.8208679999999902
20
-115.8874569999999977
11
147.916105999999985
21
-115.6969799999999964
0
LINE
8
BLACK
6
CONTINUOUS
10
147.916105999999985
20
-115.6969799999999964
11
148.0113439999999798
21
-115.6017420000000016
0
LINE
8
BLACK
6
CONTINUOUS
10
148.0113439999999798
20
-115.6017420000000016
11
148.2018199999999979
21
-115.5065039999999925
0
LINE
8
BLACK
6
CONTINUOUS
10
148.2018199999999979
20
-115.5065039999999925
11
148.4875349999999798
21
-115.5065039999999925
0
LINE
8
BLACK
6
CONTINUOUS
10
148.4875349999999798
20
-115.5065039999999925
11
148.6780109999999979
21
-115.6017420000000016
0
LINE
8
BLACK
6
CONTINUOUS
10
148.6780109999999979
20
-115.6017420000000016
11
148.7732489999999927
21
-115.6969799999999964
0
LINE
8
BLACK
6
CONTINUOUS
10
148.7732489999999927
20
-115.6969799999999964
11
148.8684869999999876
21
-115.8874569999999977
0
LINE
8
BLACK
6
CONTINUOUS
10
148.8684869999999876
20
-115.8874569999999977
11
148.8684869999999876
21
-116.4588849999999951
0
LINE
8
BLACK
6
CONTINUOUS
10
148.8684869999999876
20
-116.4588849999999951
11
148.7732489999999927
21
-116.649360999999999
0
LINE
8
BLACK
6
CONTINUOUS
10
148.7732489999999927
20
-116.649360999999999
11
148.6780109999999979
21
-116.7445999999999913
0
LINE
8
BLACK
6
CONTINUOUS
10
148.6780109999999979
20
-116.7445999999999913
11
148.4875349999999798
21
-116.8398380000000003
0
LINE
8
BLACK
6
CONTINUOUS
10
148.4875349999999798
20
-116.8398380000000003
11
148.2018199999999979
21
-116.8398380000000003
0
LINE
8
BLACK
6
CONTINUOUS
10
149.4399159999999824
20
-115.5065039999999925
11
150.2018199999999979
21
-115.5065039999999925
0
LINE
8
BLACK
6
CONTINUOUS
10
149.7256299999999953
20
-114.8398380000000003
11
149.7256299999999953
21
-116.5541229999999899
0
LINE
8
BLACK
6
CONTINUOUS
10
149.7256299999999953
20
-116.5541229999999899
11
149.8208679999999902
21
-116.7445999999999913
0
LINE
8
BLACK
6
CONTINUOUS
10
149.8208679999999902
20
-116.7445999999999913
11
150.0113439999999798
21
-116.8398380000000003
0
LINE
8
BLACK
6
CONTINUOUS
10
150.0113439999999798
20
-116.8398380000000003
11
150.2018199999999979
21
-116.8398380000000003
0
LINE
8
BLACK
6
CONTINUOUS
10
152.392296999999985
20
-115.5065039999999925
11
152.392296999999985
21
-117.5065039999999925
0
LINE
8
BLACK
6
CONTINUOUS
10
152.392296999999985
20
-115.6017420000000016
11
152.5827730000000031
21
-115.5065039999999925
0
LINE
8
BLACK
6
CONTINUOUS
10
152.5827730000000031
20
-115.5065039999999925
11
152.9637259999999799
21
-115.5065039999999925
0
LINE
8
BLACK
6
CONTINUOUS
10
152.9637259999999799
20
-115.5065039999999925
11
153.154201999999998
21
-115.6017420000000016
0
LINE
8
BLACK
6
CONTINUOUS
10
153.154201999999998
20
-115.6017420000000016
11
153.2494399999999928
21
-115.6969799999999964
0
LINE
8
BLACK
6
CONTINUOUS
10
153.2494399999999928
20
-115.6969799999999964
11
153.3446779999999876
21
-115.8874569999999977
0
LINE
8
BLACK
6
CONTINUOUS
10
153.3446779999999876
20
-115.8874569999999977
11
153.3446779999999876
21
-116.4588849999999951
0
LINE
8
BLACK
6
CONTINUOUS
10
153.3446779999999876
20
-116.4588849999999951
11
153.2494399999999928
21
-116.649360999999999
0
LINE
8
BLACK
6
CONTINUOUS
10
153.2494399999999928
20
-116.649360999999999
11
153.154201999999998
21
-116.7445999999999913
0
LINE
8
BLACK
6
CONTINUOUS
10
153.154201999999998
20
-116.7445999999999913
11
152.9637259999999799
21
-116.8398380000000003
0
LINE
8
BLACK
6
CONTINUOUS
10
152.9637259999999799
20
-116.8398380000000003
11
152.5827730000000031
21
-116.8398380000000003
0
LINE
8
BLACK
6
CONTINUOUS
10
152.5827730000000031
20
-116.8398380000000003
11
152.392296999999985
21
-116.7445999999999913
0
LINE
8
BLACK
6
CONTINUOUS
10
154.4875349999999798
20
-116.8398380000000003
11
154.2970589999999902
21
-116.7445999999999913
0
LINE
8
BLACK
6
CONTINUOUS
10
154.2970589999999902
20
-116.7445999999999913
11
154.2018209999999954
21
-116.5541229999999899
0
LINE
8
BLACK
6
CONTINUOUS
10
154.2018209999999954
20
-116.5541229999999899
11
154.2018209999999954
21
-114.8398380000000003
0
LINE
8
BLACK
6
CONTINUOUS
10
156.1065830000000005
20
-116.8398380000000003
11
156.1065830000000005
21
-115.7922189999999887
0
LINE
8
BLACK
6
CONTINUOUS
10
156.1065830000000005
20
-115.7922189999999887
11
156.0113450000000057
21
-115.6017420000000016
0
LINE
8
BLACK
6
CONTINUOUS
10
156.0113450000000057
20
-115.6017420000000016
11
155.8208689999999876
21
-115.5065039999999925
0
LINE
8
BLACK
6
CONTINUOUS
10
155.8208689999999876
20
-115.5065039999999925
11
155.4399159999999824
21
-115.5065039999999925
0
LINE
8
BLACK
6
CONTINUOUS
10
155.4399159999999824
20
-115.5065039999999925
11
155.2494399999999928
21
-115.6017420000000016
0
LINE
8
BLACK
6
CONTINUOUS
10
156.1065830000000005
20
-116.7445999999999913
11
155.9161069999999825
21
-116.8398380000000003
0
LINE
8
BLACK
6
CONTINUOUS
10
155.9161069999999825
20
-116.8398380000000003
11
155.4399159999999824
21
-116.8398380000000003
0
LINE
8
BLACK
6
CONTINUOUS
10
155.4399159999999824
20
-116.8398380000000003
11
155.2494399999999928
21
-116.7445999999999913
0
LINE
8
BLACK
6
CONTINUOUS
10
155.2494399999999928
20
-116.7445999999999913
11
155.154201999999998
21
-116.5541229999999899
0
LINE
8
BLACK
6
CONTINUOUS
10
155.154201999999998
20
-116.5541229999999899
11
155.154201999999998
21
-116.3636470000000003
0
LINE
8
BLACK
6
CONTINUOUS
10
155.154201999999998
20
-116.3636470000000003
11
155.2494399999999928
21
-116.1731709999999964
0
LINE
8
BLACK
6
CONTINUOUS
10
155.2494399999999928
20
-116.1731709999999964
11
155.4399159999999824
21
-116.0779330000000016
0
LINE
8
BLACK
6
CONTINUOUS
10
155.4399159999999824
20
-116.0779330000000016
11
155.9161069999999825
21
-116.0779330000000016
0
LINE
8
BLACK
6
CONTINUOUS
10
155.9161069999999825
20
-116.0779330000000016
11
156.1065830000000005
21
-115.9826949999999925
0
LINE
8
BLACK
6
CONTINUOUS
10
156.7732499999999902
20
-115.5065039999999925
11
157.5351540000000057
21
-115.5065039999999925
0
LINE
8
BLACK
6
CONTINUOUS
10
157.0589640000000031
20
-114.8398380000000003
11
157.0589640000000031
21
-116.5541229999999899
0
LINE
8
BLACK
6
CONTINUOUS
10
157.0589640000000031
20
-116.5541229999999899
11
157.154201999999998
21
-116.7445999999999913
0
LINE
8
BLACK
6
CONTINUOUS
10
157.154201999999998
20
-116.7445999999999913
11
157.3446779999999876
21
-116.8398380000000003
0
LINE
8
BLACK
6
CONTINUOUS
10
157.3446779999999876
20
-116.8398380000000003
11
157.5351540000000057
21
-116.8398380000000003
0
LINE
8
BLACK
6
CONTINUOUS
10
158.9637259999999799
20
-116.7445999999999913
11
158.7732499999999902
21
-116.8398380000000003
0
LINE
8
BLACK
6
CONTINUOUS
10
158.7732499999999902
20
-116.8398380000000003
11
158.392296999999985
21
-116.8398380000000003
0
LINE
8
BLACK
6
CONTINUOUS
10
158.392296999999985
20
-116.8398380000000003
11
158.2018209999999954
21
-116.7445999999999913
0
LINE
8
BLACK
6
CONTINUOUS
10
158.2018209999999954
20
-116.7445999999999913
11
158.1065830000000005
21
-116.5541229999999899
0
LINE
8
BLACK
6
CONTINUOUS
10
158.1065830000000005
20
-116.5541229999999899
11
158.1065830000000005
21
-115.7922189999999887
0
LINE
8
BLACK
6
CONTINUOUS
10
158.1065830000000005
20
-115.7922189999999887
11
158.2018209999999954
21
-115.6017420000000016
0
LINE
8
BLACK
6
CONTINUOUS
10
158.2018209999999954
20
-115.6017420000000016
11
158.392296999999985
21
-115.5065039999999925
0
LINE
8
BLACK
6
CONTINUOUS
10
158.392296999999985
20
-115.5065039999999925
11
158.7732499999999902
21
-115.5065039999999925
0
LINE
8
BLACK
6
CONTINUOUS
10
158.7732499999999902
20
-115.5065039999999925
11
158.9637259999999799
21
-115.6017420000000016
0
LINE
8
BLACK
6
CONTINUOUS
10
158.9637259999999799
20
-115.6017420000000016
11
159.0589640000000031
21
-115.7922189999999887
0
LINE
8
BLACK
6
CONTINUOUS
10
159.0589640000000031
20
-115.7922189999999887
11
159.0589640000000031
21
-115.9826949999999925
0
LINE
8
BLACK
6
CONTINUOUS
10
159.0589640000000031
20
-115.9826949999999925
11
158.1065830000000005
21
-116.1731709999999964
0
LINE
8
BLACK
6
CONTINUOUS
10
160.7732499999999902
20
-116.8398380000000003
11
160.7732499999999902
21
-114.8398380000000003
0
LINE
8
BLACK
6
CONTINUOUS
10
160.7732499999999902
20
-116.7445999999999913
11
160.5827740000000006
21
-116.8398380000000003
0
LINE
8
BLACK
6
CONTINUOUS
10
160.5827740000000006
20
-116.8398380000000003
11
160.2018209999999954
21
-116.8398380000000003
0
LINE
8
BLACK
6
CONTINUOUS
10
160.2018209999999954
20
-116.8398380000000003
11
160.0113450000000057
21
-116.7445999999999913
0
LINE
8
BLACK
6
CONTINUOUS
10
160.0113450000000057
20
-116.7445999999999913
11
159.9161069999999825
21
-116.649360999999999
0
LINE
8
BLACK
6
CONTINUOUS
10
159.9161069999999825
20
-116.649360999999999
11
159.8208689999999876
21
-116.4588849999999951
0
LINE
8
BLACK
6
CONTINUOUS
10
159.8208689999999876
20
-116.4588849999999951
11
159.8208689999999876
21
-115.8874569999999977
0
LINE
8
BLACK
6
CONTINUOUS
10
159.8208689999999876
20
-115.8874569999999977
11
159.9161069999999825
21
-115.6969799999999964
0
LINE
8
BLACK
6
CONTINUOUS
10
159.9161069999999825
20
-115.6969799999999964
11
160.0113450000000057
21
-115.6017420000000016
0
LINE
8
BLACK
6
CONTINUOUS
10
160.0113450000000057
20
-115.6017420000000016
11
160.2018209999999954
21
-115.5065039999999925
0
LINE
8
BLACK
6
CONTINUOUS
10
160.2018209999999954
20
-115.5065039999999925
11
160.5827740000000006
21
-115.5065039999999925
0
LINE
8
BLACK
6
CONTINUOUS
10
160.5827740000000006
20
-115.5065039999999925
11
160.7732499999999902
21
-115.6017420000000016
0
LINE
8
BLACK
6
CONTINUOUS
10
161.5351550000000032
20
-117.6017420000000016
11
161.630392999999998
21
-117.5065039999999925
0
LINE
8
BLACK
6
CONTINUOUS
10
161.630392999999998
20
-117.5065039999999925
11
161.8208689999999876
21
-117.2207899999999938
0
LINE
8
BLACK
6
CONTINUOUS
10
161.8208689999999876
20
-117.2207899999999938
11
161.9161069999999825
21
-117.03031399999999
0
LINE
8
BLACK
6
CONTINUOUS
10
161.9161069999999825
20
-117.03031399999999
11
162.0113450000000057
21
-116.7445999999999913
0
LINE
8
BLACK
6
CONTINUOUS
10
162.0113450000000057
20
-116.7445999999999913
11
162.1065830000000005
21
-116.2684089999999912
0
LINE
8
BLACK
6
CONTINUOUS
10
162.1065830000000005
20
-116.2684089999999912
11
162.1065830000000005
21
-115.8874569999999977
0
LINE
8
BLACK
6
CONTINUOUS
10
162.1065830000000005
20
-115.8874569999999977
11
162.0113450000000057
21
-115.4112659999999977
0
LINE
8
BLACK
6
CONTINUOUS
10
162.0113450000000057
20
-115.4112659999999977
11
161.9161069999999825
21
-115.125551999999999
0
LINE
8
BLACK
6
CONTINUOUS
10
161.9161069999999825
20
-115.125551999999999
11
161.8208689999999876
21
-114.9350759999999951
0
LINE
8
BLACK
6
CONTINUOUS
10
161.8208689999999876
20
-114.9350759999999951
11
161.630392999999998
21
-114.649360999999999
0
LINE
8
BLACK
6
CONTINUOUS
10
161.630392999999998
20
-114.649360999999999
11
161.5351550000000032
21
-114.5541229999999899
0
CIRCLE
8
BLACK
10
93.1749999999999972
20
-118.5649999999999977
40
0.7999999999999999
0
LINE
8
BLACK
6
CONTINUOUS
10
97.6303869999999989
20
-119.4798380000000009
11
96.4875299999999925
21
-119.4798380000000009
0
LINE
8
BLACK
6
CONTINUOUS
10
97.0589579999999899
20
-119.4798380000000009
11
97.0589579999999899
21
-117.4798380000000009
0
LINE
8
BLACK
6
CONTINUOUS
10
97.0589579999999899
20
-117.4798380000000009
11
96.8684820000000002
21
-117.7655519999999996
0
LINE
8
BLACK
6
CONTINUOUS
10
96.8684820000000002
20
-117.7655519999999996
11
96.6780059999999963
21
-117.9560279999999892
0
LINE
8
BLACK
6
CONTINUOUS
10
96.6780059999999963
20
-117.9560279999999892
11
96.4875299999999925
21
-118.0512659999999983
0
LINE
8
BLACK
6
CONTINUOUS
10
98.5827680000000015
20
-119.3845999999999918
11
98.5827680000000015
21
-119.4798380000000009
0
LINE
8
BLACK
6
CONTINUOUS
10
98.5827680000000015
20
-119.4798380000000009
11
98.4875299999999925
21
-119.6703139999999905
0
LINE
8
BLACK
6
CONTINUOUS
10
98.4875299999999925
20
-119.6703139999999905
11
98.3922919999999976
21
-119.7655519999999996
0
LINE
8
BLACK
6
CONTINUOUS
10
100.2970539999999886
20
-117.4798380000000009
11
99.9161009999999976
21
-117.4798380000000009
0
LINE
8
BLACK
6
CONTINUOUS
10
99.9161009999999976
20
-117.4798380000000009
11
99.7256249999999937
21
-117.5750759999999957
0
LINE
8
BLACK
6
CONTINUOUS
10
99.7256249999999937
20
-117.5750759999999957
11
99.6303869999999989
21
-117.6703139999999905
0
LINE
8
BLACK
6
CONTINUOUS
10
99.6303869999999989
20
-117.6703139999999905
11
99.4399109999999951
21
-117.9560279999999892
0
LINE
8
BLACK
6
CONTINUOUS
10
99.4399109999999951
20
-117.9560279999999892
11
99.3446730000000002
21
-118.3369799999999969
0
LINE
8
BLACK
6
CONTINUOUS
10
99.3446730000000002
20
-118.3369799999999969
11
99.3446730000000002
21
-119.0988849999999957
0
LINE
8
BLACK
6
CONTINUOUS
10
99.3446730000000002
20
-119.0988849999999957
11
99.4399109999999951
21
-119.2893609999999995
0
LINE
8
BLACK
6
CONTINUOUS
10
99.4399109999999951
20
-119.2893609999999995
11
99.5351489999999899
21
-119.3845999999999918
0
LINE
8
BLACK
6
CONTINUOUS
10
99.5351489999999899
20
-119.3845999999999918
11
99.7256249999999937
21
-119.4798380000000009
0
LINE
8
BLACK
6
CONTINUOUS
10
99.7256249999999937
20
-119.4798380000000009
11
100.106577999999999
21
-119.4798380000000009
0
LINE
8
BLACK
6
CONTINUOUS
10
100.106577999999999
20
-119.4798380000000009
11
100.2970539999999886
21
-119.3845999999999918
0
LINE
8
BLACK
6
CONTINUOUS
10
100.2970539999999886
20
-119.3845999999999918
11
100.3922919999999976
21
-119.2893609999999995
0
LINE
8
BLACK
6
CONTINUOUS
10
100.3922919999999976
20
-119.2893609999999995
11
100.4875299999999925
21
-119.0988849999999957
0
LINE
8
BLACK
6
CONTINUOUS
10
100.4875299999999925
20
-119.0988849999999957
11
100.4875299999999925
21
-118.6226949999999931
0
LINE
8
BLACK
6
CONTINUOUS
10
100.4875299999999925
20
-118.6226949999999931
11
100.3922919999999976
21
-118.4322189999999893
0
LINE
8
BLACK
6
CONTINUOUS
10
100.3922919999999976
20
-118.4322189999999893
11
100.2970539999999886
21
-118.3369799999999969
0
LINE
8
BLACK
6
CONTINUOUS
10
100.2970539999999886
20
-118.3369799999999969
11
100.106577999999999
21
-118.2417419999999879
0
LINE
8
BLACK
6
CONTINUOUS
10
100.106577999999999
20
-118.2417419999999879
11
99.7256249999999937
21
-118.2417419999999879
0
LINE
8
BLACK
6
CONTINUOUS
10
99.7256249999999937
20
-118.2417419999999879
11
99.5351489999999899
21
-118.3369799999999969
0
LINE
8
BLACK
6
CONTINUOUS
10
99.5351489999999899
20
-118.3369799999999969
11
99.4399109999999951
21
-118.4322189999999893
0
LINE
8
BLACK
6
CONTINUOUS
10
99.4399109999999951
20
-118.4322189999999893
11
99.3446730000000002
21
-118.6226949999999931
0
LINE
8
BLACK
6
CONTINUOUS
10
101.7256249999999937
20
-117.4798380000000009
11
101.9161019999999951
21
-117.4798380000000009
0
LINE
8
BLACK
6
CONTINUOUS
10
101.9161019999999951
20
-117.4798380000000009
11
102.106577999999999
21
-117.5750759999999957
0
LINE
8
BLACK
6
CONTINUOUS
10
102.106577999999999
20
-117.5750759999999957
11
102.2018159999999938
21
-117.6703139999999905
0
LINE
8
BLACK
6
CONTINUOUS
10
102.2018159999999938
20
-117.6703139999999905
11
102.2970539999999886
21
-117.8607899999999944
0
LINE
8
BLACK
6
CONTINUOUS
10
102.2970539999999886
20
-117.8607899999999944
11
102.3922919999999976
21
-118.2417419999999879
0
LINE
8
BLACK
6
CONTINUOUS
10
102.3922919999999976
20
-118.2417419999999879
11
102.3922919999999976
21
-118.7179329999999879
0
LINE
8
BLACK
6
CONTINUOUS
10
102.3922919999999976
20
-118.7179329999999879
11
102.2970539999999886
21
-119.0988849999999957
0
LINE
8
BLACK
6
CONTINUOUS
10
102.2970539999999886
20
-119.0988849999999957
11
102.2018159999999938
21
-119.2893609999999995
0
LINE
8
BLACK
6
CONTINUOUS
10
102.2018159999999938
20
-119.2893609999999995
11
102.106577999999999
21
-119.3845999999999918
0
LINE
8
BLACK
6
CONTINUOUS
10
102.106577999999999
20
-119.3845999999999918
11
101.9161019999999951
21
-119.4798380000000009
0
LINE
8
BLACK
6
CONTINUOUS
10
101.9161019999999951
20
-119.4798380000000009
11
101.7256249999999937
21
-119.4798380000000009
0
LINE
8
BLACK
6
CONTINUOUS
10
101.7256249999999937
20
-119.4798380000000009
11
101.5351489999999899
21
-119.3845999999999918
0
LINE
8
BLACK
6
CONTINUOUS
10
101.5351489999999899
20
-119.3845999999999918
11
101.4399109999999951
21
-119.2893609999999995
0
LINE
8
BLACK
6
CONTINUOUS
10
101.4399109999999951
20
-119.2893609999999995
11
101.3446730000000002
21
-119.0988849999999957
0
LINE
8
BLACK
6
CONTINUOUS
10
101.3446730000000002
20
-119.0988849999999957
11
101.2494349999999912
21
-118.7179329999999879
0
LINE
8
BLACK
6
CONTINUOUS
10
101.2494349999999912
20
-118.7179329999999879
11
101.2494349999999912
21
-118.2417419999999879
0
LINE
8
BLACK
6
CONTINUOUS
10
101.2494349999999912
20
-118.2417419999999879
11
101.3446730000000002
21
-117.8607899999999944
0
LINE
8
BLACK
6
CONTINUOUS
10
101.3446730000000002
20
-117.8607899999999944
11
101.4399109999999951
21
-117.6703139999999905
0
LINE
8
BLACK
6
CONTINUOUS
10
101.4399109999999951
20
-117.6703139999999905
11
101.5351489999999899
21
-117.5750759999999957
0
LINE
8
BLACK
6
CONTINUOUS
10
101.5351489999999899
20
-117.5750759999999957
11
101.7256249999999937
21
-117.4798380000000009
0
LINE
8
BLACK
6
CONTINUOUS
10
103.6303869999999989
20
-117.4798380000000009
11
103.8208640000000003
21
-117.4798380000000009
0
LINE
8
BLACK
6
CONTINUOUS
10
103.8208640000000003
20
-117.4798380000000009
11
104.0113399999999899
21
-117.5750759999999957
0
LINE
8
BLACK
6
CONTINUOUS
10
104.0113399999999899
20
-117.5750759999999957
11
104.106577999999999
21
-117.6703139999999905
0
LINE
8
BLACK
6
CONTINUOUS
10
104.106577999999999
20
-117.6703139999999905
11
104.2018159999999938
21
-117.8607899999999944
0
LINE
8
BLACK
6
CONTINUOUS
10
104.2018159999999938
20
-117.8607899999999944
11
104.2970539999999886
21
-118.2417419999999879
0
LINE
8
BLACK
6
CONTINUOUS
10
104.2970539999999886
20
-118.2417419999999879
11
104.2970539999999886
21
-118.7179329999999879
0
LINE
8
BLACK
6
CONTINUOUS
10
104.2970539999999886
20
-118.7179329999999879
11
104.2018159999999938
21
-119.0988849999999957
0
LINE
8
BLACK
6
CONTINUOUS
10
104.2018159999999938
20
-119.0988849999999957
11
104.106577999999999
21
-119.2893609999999995
0
LINE
8
BLACK
6
CONTINUOUS
10
104.106577999999999
20
-119.2893609999999995
11
104.0113399999999899
21
-119.3845999999999918
0
LINE
8
BLACK
6
CONTINUOUS
10
104.0113399999999899
20
-119.3845999999999918
11
103.8208640000000003
21
-119.4798380000000009
0
LINE
8
BLACK
6
CONTINUOUS
10
103.8208640000000003
20
-119.4798380000000009
11
103.6303869999999989
21
-119.4798380000000009
0
LINE
8
BLACK
6
CONTINUOUS
10
103.6303869999999989
20
-119.4798380000000009
11
103.4399109999999951
21
-119.3845999999999918
0
LINE
8
BLACK
6
CONTINUOUS
10
103.4399109999999951
20
-119.3845999999999918
11
103.3446730000000002
21
-119.2893609999999995
0
LINE
8
BLACK
6
CONTINUOUS
10
103.3446730000000002
20
-119.2893609999999995
11
103.2494349999999912
21
-119.0988849999999957
0
LINE
8
BLACK
6
CONTINUOUS
10
103.2494349999999912
20
-119.0988849999999957
11
103.1541969999999964
21
-118.7179329999999879
0
LINE
8
BLACK
6
CONTINUOUS
10
103.1541969999999964
20
-118.7179329999999879
11
103.1541969999999964
21
-118.2417419999999879
0
LINE
8
BLACK
6
CONTINUOUS
10
103.1541969999999964
20
-118.2417419999999879
11
103.2494349999999912
21
-117.8607899999999944
0
LINE
8
BLACK
6
CONTINUOUS
10
103.2494349999999912
20
-117.8607899999999944
11
103.3446730000000002
21
-117.6703139999999905
0
LINE
8
BLACK
6
CONTINUOUS
10
103.3446730000000002
20
-117.6703139999999905
11
103.4399109999999951
21
-117.5750759999999957
0
LINE
8
BLACK
6
CONTINUOUS
10
103.4399109999999951
20
-117.5750759999999957
11
103.6303869999999989
21
-117.4798380000000009
0
LINE
8
BLACK
6
CONTINUOUS
10
105.1541969999999964
20
-119.4798380000000009
11
105.1541969999999964
21
-118.1465039999999931
0
LINE
8
BLACK
6
CONTINUOUS
10
105.1541969999999964
20
-118.3369799999999969
11
105.2494349999999912
21
-118.2417419999999879
0
LINE
8
BLACK
6
CONTINUOUS
10
105.2494349999999912
20
-118.2417419999999879
11
105.4399109999999951
21
-118.1465039999999931
0
LINE
8
BLACK
6
CONTINUOUS
10
105.4399109999999951
20
-118.1465039999999931
11
105.7256259999999912
21
-118.1465039999999931
0
LINE
8
BLACK
6
CONTINUOUS
10
105.7256259999999912
20
-118.1465039999999931
11
105.9161019999999951
21
-118.2417419999999879
0
LINE
8
BLACK
6
CONTINUOUS
10
105.9161019999999951
20
-118.2417419999999879
11
106.0113399999999899
21
-118.4322189999999893
0
LINE
8
BLACK
6
CONTINUOUS
10
106.0113399999999899
20
-118.4322189999999893
11
106.0113399999999899
21
-119.4798380000000009
0
LINE
8
BLACK
6
CONTINUOUS
10
106.0113399999999899
20
-118.4322189999999893
11
106.106577999999999
21
-118.2417419999999879
0
LINE
8
BLACK
6
CONTINUOUS
10
106.106577999999999
20
-118.2417419999999879
11
106.2970539999999886
21
-118.1465039999999931
0
LINE
8
BLACK
6
CONTINUOUS
10
106.2970539999999886
20
-118.1465039999999931
11
106.5827680000000015
21
-118.1465039999999931
0
LINE
8
BLACK
6
CONTINUOUS
10
106.5827680000000015
20
-118.1465039999999931
11
106.7732449999999886
21
-118.2417419999999879
0
LINE
8
BLACK
6
CONTINUOUS
10
106.7732449999999886
20
-118.2417419999999879
11
106.8684829999999977
21
-118.4322189999999893
0
LINE
8
BLACK
6
CONTINUOUS
10
106.8684829999999977
20
-118.4322189999999893
11
106.8684829999999977
21
-119.4798380000000009
0
LINE
8
BLACK
6
CONTINUOUS
10
107.8208640000000003
20
-119.4798380000000009
11
107.8208640000000003
21
-118.1465039999999931
0
LINE
8
BLACK
6
CONTINUOUS
10
107.8208640000000003
20
-118.3369799999999969
11
107.9161019999999951
21
-118.2417419999999879
0
LINE
8
BLACK
6
CONTINUOUS
10
107.9161019999999951
20
-118.2417419999999879
11
108.106577999999999
21
-118.1465039999999931
0
LINE
8
BLACK
6
CONTINUOUS
10
108.106577999999999
20
-118.1465039999999931
11
108.3922929999999951
21
-118.1465039999999931
0
LINE
8
BLACK
6
CONTINUOUS
10
108.3922929999999951
20
-118.1465039999999931
11
108.582768999999999
21
-118.2417419999999879
0
LINE
8
BLACK
6
CONTINUOUS
10
108.582768999999999
20
-118.2417419999999879
11
108.6780069999999938
21
-118.4322189999999893
0
LINE
8
BLACK
6
CONTINUOUS
10
108.6780069999999938
20
-118.4322189999999893
11
108.6780069999999938
21
-119.4798380000000009
0
LINE
8
BLACK
6
CONTINUOUS
10
108.6780069999999938
20
-118.4322189999999893
11
108.7732449999999886
21
-118.2417419999999879
0
LINE
8
BLACK
6
CONTINUOUS
10
108.7732449999999886
20
-118.2417419999999879
11
108.9637209999999925
21
-118.1465039999999931
0
LINE
8
BLACK
6
CONTINUOUS
10
108.9637209999999925
20
-118.1465039999999931
11
109.2494349999999912
21
-118.1465039999999931
0
LINE
8
BLACK
6
CONTINUOUS
10
109.2494349999999912
20
-118.1465039999999931
11
109.4399119999999925
21
-118.2417419999999879
0
LINE
8
BLACK
6
CONTINUOUS
10
109.4399119999999925
20
-118.2417419999999879
11
109.5351500000000016
21
-118.4322189999999893
0
LINE
8
BLACK
6
CONTINUOUS
10
109.5351500000000016
20
-118.4322189999999893
11
109.5351500000000016
21
-119.4798380000000009
0
LINE
8
BLACK
6
CONTINUOUS
10
113.4399119999999925
20
-117.3845999999999918
11
111.7256269999999887
21
-119.9560279999999892
0
LINE
8
BLACK
6
CONTINUOUS
10
116.0113410000000016
20
-117.4798380000000009
11
116.2018179999999887
21
-117.4798380000000009
0
LINE
8
BLACK
6
CONTINUOUS
10
116.2018179999999887
20
-117.4798380000000009
11
116.3922939999999926
21
-117.5750759999999957
0
LINE
8
BLACK
6
CONTINUOUS
10
116.3922939999999926
20
-117.5750759999999957
11
116.4875320000000016
21
-117.6703139999999905
0
LINE
8
BLACK
6
CONTINUOUS
10
116.4875320000000016
20
-117.6703139999999905
11
116.5827699999999965
21
-117.8607899999999944
0
LINE
8
BLACK
6
CONTINUOUS
10
116.5827699999999965
20
-117.8607899999999944
11
116.6780079999999913
21
-118.2417419999999879
0
LINE
8
BLACK
6
CONTINUOUS
10
116.6780079999999913
20
-118.2417419999999879
11
116.6780079999999913
21
-118.7179329999999879
0
LINE
8
BLACK
6
CONTINUOUS
10
116.6780079999999913
20
-118.7179329999999879
11
116.5827699999999965
21
-119.0988849999999957
0
LINE
8
BLACK
6
CONTINUOUS
10
116.5827699999999965
20
-119.0988849999999957
11
116.4875320000000016
21
-119.2893609999999995
0
LINE
8
BLACK
6
CONTINUOUS
10
116.4875320000000016
20
-119.2893609999999995
11
116.3922939999999926
21
-119.3845999999999918
0
LINE
8
BLACK
6
CONTINUOUS
10
116.3922939999999926
20
-119.3845999999999918
11
116.2018179999999887
21
-119.4798380000000009
0
LINE
8
BLACK
6
CONTINUOUS
10
116.2018179999999887
20
-119.4798380000000009
11
116.0113410000000016
21
-119.4798380000000009
0
LINE
8
BLACK
6
CONTINUOUS
10
116.0113410000000016
20
-119.4798380000000009
11
115.8208649999999977
21
-119.3845999999999918
0
LINE
8
BLACK
6
CONTINUOUS
10
115.8208649999999977
20
-119.3845999999999918
11
115.7256269999999887
21
-119.2893609999999995
0
LINE
8
BLACK
6
CONTINUOUS
10
115.7256269999999887
20
-119.2893609999999995
11
115.6303889999999939
21
-119.0988849999999957
0
LINE
8
BLACK
6
CONTINUOUS
10
115.6303889999999939
20
-119.0988849999999957
11
115.535150999999999
21
-118.7179329999999879
0
LINE
8
BLACK
6
CONTINUOUS
10
115.535150999999999
20
-118.7179329999999879
11
115.535150999999999
21
-118.2417419999999879
0
LINE
8
BLACK
6
CONTINUOUS
10
115.535150999999999
20
-118.2417419999999879
11
115.6303889999999939
21
-117.8607899999999944
0
LINE
8
BLACK
6
CONTINUOUS
10
115.6303889999999939
20
-117.8607899999999944
11
115.7256269999999887
21
-117.6703139999999905
0
LINE
8
BLACK
6
CONTINUOUS
10
115.7256269999999887
20
-117.6703139999999905
11
115.8208649999999977
21
-117.5750759999999957
0
LINE
8
BLACK
6
CONTINUOUS
10
115.8208649999999977
20
-117.5750759999999957
11
116.0113410000000016
21
-117.4798380000000009
0
LINE
8
BLACK
6
CONTINUOUS
10
117.6303889999999939
20
-119.3845999999999918
11
117.6303889999999939
21
-119.4798380000000009
0
LINE
8
BLACK
6
CONTINUOUS
10
117.6303889999999939
20
-119.4798380000000009
11
117.535150999999999
21
-119.6703139999999905
0
LINE
8
BLACK
6
CONTINUOUS
10
117.535150999999999
20
-119.6703139999999905
11
117.43991299999999
21
-119.7655519999999996
0
LINE
8
BLACK
6
CONTINUOUS
10
118.8684839999999951
20
-117.4798380000000009
11
119.0589609999999965
21
-117.4798380000000009
0
LINE
8
BLACK
6
CONTINUOUS
10
119.0589609999999965
20
-117.4798380000000009
11
119.2494370000000004
21
-117.5750759999999957
0
LINE
8
BLACK
6
CONTINUOUS
10
119.2494370000000004
20
-117.5750759999999957
11
119.3446749999999952
21
-117.6703139999999905
0
LINE
8
BLACK
6
CONTINUOUS
10
119.3446749999999952
20
-117.6703139999999905
11
119.43991299999999
21
-117.8607899999999944
0
LINE
8
BLACK
6
CONTINUOUS
10
119.43991299999999
20
-117.8607899999999944
11
119.535150999999999
21
-118.2417419999999879
0
LINE
8
BLACK
6
CONTINUOUS
10
119.535150999999999
20
-118.2417419999999879
11
119.535150999999999
21
-118.7179329999999879
0
LINE
8
BLACK
6
CONTINUOUS
10
119.535150999999999
20
-118.7179329999999879
11
119.43991299999999
21
-119.0988849999999957
0
LINE
8
BLACK
6
CONTINUOUS
10
119.43991299999999
20
-119.0988849999999957
11
119.3446749999999952
21
-119.2893609999999995
0
LINE
8
BLACK
6
CONTINUOUS
10
119.3446749999999952
20
-119.2893609999999995
11
119.2494370000000004
21
-119.3845999999999918
0
LINE
8
BLACK
6
CONTINUOUS
10
119.2494370000000004
20
-119.3845999999999918
11
119.0589609999999965
21
-119.4798380000000009
0
LINE
8
BLACK
6
CONTINUOUS
10
119.0589609999999965
20
-119.4798380000000009
11
118.8684839999999951
21
-119.4798380000000009
0
LINE
8
BLACK
6
CONTINUOUS
10
118.8684839999999951
20
-119.4798380000000009
11
118.6780079999999913
21
-119.3845999999999918
0
LINE
8
BLACK
6
CONTINUOUS
10
118.6780079999999913
20
-119.3845999999999918
11
118.5827699999999965
21
-119.2893609999999995
0
LINE
8
BLACK
6
CONTINUOUS
10
118.5827699999999965
20
-119.2893609999999995
11
118.4875320000000016
21
-119.0988849999999957
0
LINE
8
BLACK
6
CONTINUOUS
10
118.4875320000000016
20
-119.0988849999999957
11
118.3922939999999926
21
-118.7179329999999879
0
LINE
8
BLACK
6
CONTINUOUS
10
118.3922939999999926
20
-118.7179329999999879
11
118.3922939999999926
21
-118.2417419999999879
0
LINE
8
BLACK
6
CONTINUOUS
10
118.3922939999999926
20
-118.2417419999999879
11
118.4875320000000016
21
-117.8607899999999944
0
LINE
8
BLACK
6
CONTINUOUS
10
118.4875320000000016
20
-117.8607899999999944
11
118.5827699999999965
21
-117.6703139999999905
0
LINE
8
BLACK
6
CONTINUOUS
10
118.5827699999999965
20
-117.6703139999999905
11
118.6780079999999913
21
-117.5750759999999957
0
LINE
8
BLACK
6
CONTINUOUS
10
118.6780079999999913
20
-117.5750759999999957
11
118.8684839999999951
21
-117.4798380000000009
0
LINE
8
BLACK
6
CONTINUOUS
10
121.2494370000000004
20
-117.4798380000000009
11
120.8684839999999951
21
-117.4798380000000009
0
LINE
8
BLACK
6
CONTINUOUS
10
120.8684839999999951
20
-117.4798380000000009
11
120.6780079999999913
21
-117.5750759999999957
0
LINE
8
BLACK
6
CONTINUOUS
10
120.6780079999999913
20
-117.5750759999999957
11
120.5827699999999965
21
-117.6703139999999905
0
LINE
8
BLACK
6
CONTINUOUS
10
120.5827699999999965
20
-117.6703139999999905
11
120.3922939999999926
21
-117.9560279999999892
0
LINE
8
BLACK
6
CONTINUOUS
10
120.3922939999999926
20
-117.9560279999999892
11
120.2970559999999978
21
-118.3369799999999969
0
LINE
8
BLACK
6
CONTINUOUS
10
120.2970559999999978
20
-118.3369799999999969
11
120.2970559999999978
21
-119.0988849999999957
0
LINE
8
BLACK
6
CONTINUOUS
10
120.2970559999999978
20
-119.0988849999999957
11
120.3922939999999926
21
-119.2893609999999995
0
LINE
8
BLACK
6
CONTINUOUS
10
120.3922939999999926
20
-119.2893609999999995
11
120.4875320000000016
21
-119.3845999999999918
0
LINE
8
BLACK
6
CONTINUOUS
10
120.4875320000000016
20
-119.3845999999999918
11
120.6780079999999913
21
-119.4798380000000009
0
LINE
8
BLACK
6
CONTINUOUS
10
120.6780079999999913
20
-119.4798380000000009
11
121.0589609999999965
21
-119.4798380000000009
0
LINE
8
BLACK
6
CONTINUOUS
10
121.0589609999999965
20
-119.4798380000000009
11
121.2494370000000004
21
-119.3845999999999918
0
LINE
8
BLACK
6
CONTINUOUS
10
121.2494370000000004
20
-119.3845999999999918
11
121.3446749999999952
21
-119.2893609999999995
0
LINE
8
BLACK
6
CONTINUOUS
10
121.3446749999999952
20
-119.2893609999999995
11
121.43991299999999
21
-119.0988849999999957
0
LINE
8
BLACK
6
CONTINUOUS
10
121.43991299999999
20
-119.0988849999999957
11
121.43991299999999
21
-118.6226949999999931
0
LINE
8
BLACK
6
CONTINUOUS
10
121.43991299999999
20
-118.6226949999999931
11
121.3446749999999952
21
-118.4322189999999893
0
LINE
8
BLACK
6
CONTINUOUS
10
121.3446749999999952
20
-118.4322189999999893
11
121.2494370000000004
21
-118.3369799999999969
0
LINE
8
BLACK
6
CONTINUOUS
10
121.2494370000000004
20
-118.3369799999999969
11
121.0589609999999965
21
-118.2417419999999879
0
LINE
8
BLACK
6
CONTINUOUS
10
121.0589609999999965
20
-118.2417419999999879
11
120.6780079999999913
21
-118.2417419999999879
0
LINE
8
BLACK
6
CONTINUOUS
10
120.6780079999999913
20
-118.2417419999999879
11
120.4875320000000016
21
-118.3369799999999969
0
LINE
8
BLACK
6
CONTINUOUS
10
120.4875320000000016
20
-118.3369799999999969
11
120.3922939999999926
21
-118.4322189999999893
0
LINE
8
BLACK
6
CONTINUOUS
10
120.3922939999999926
20
-118.4322189999999893
11
120.2970559999999978
21
-118.6226949999999931
0
LINE
8
BLACK
6
CONTINUOUS
10
122.1065799999999939
20
-117.4798380000000009
11
123.3446749999999952
21
-117.4798380000000009
0
LINE
8
BLACK
6
CONTINUOUS
10
123.3446749999999952
20
-117.4798380000000009
11
122.6780079999999913
21
-118.2417419999999879
0
LINE
8
BLACK
6
CONTINUOUS
10
122.6780079999999913
20
-118.2417419999999879
11
122.9637229999999875
21
-118.2417419999999879
0
LINE
8
BLACK
6
CONTINUOUS
10
122.9637229999999875
20
-118.2417419999999879
11
123.1541989999999913
21
-118.3369799999999969
0
LINE
8
BLACK
6
CONTINUOUS
10
123.1541989999999913
20
-118.3369799999999969
11
123.2494370000000004
21
-118.4322189999999893
0
LINE
8
BLACK
6
CONTINUOUS
10
123.2494370000000004
20
-118.4322189999999893
11
123.3446749999999952
21
-118.6226949999999931
0
LINE
8
BLACK
6
CONTINUOUS
10
123.3446749999999952
20
-118.6226949999999931
11
123.3446749999999952
21
-119.0988849999999957
0
LINE
8
BLACK
6
CONTINUOUS
10
123.3446749999999952
20
-119.0988849999999957
11
123.2494370000000004
21
-119.2893609999999995
0
LINE
8
BLACK
6
CONTINUOUS
10
123.2494370000000004
20
-119.2893609999999995
11
123.1541989999999913
21
-119.3845999999999918
0
LINE
8
BLACK
6
CONTINUOUS
10
123.1541989999999913
20
-119.3845999999999918
11
122.9637229999999875
21
-119.4798380000000009
0
LINE
8
BLACK
6
CONTINUOUS
10
122.9637229999999875
20
-119.4798380000000009
11
122.3922939999999926
21
-119.4798380000000009
0
LINE
8
BLACK
6
CONTINUOUS
10
122.3922939999999926
20
-119.4798380000000009
11
122.2018179999999887
21
-119.3845999999999918
0
LINE
8
BLACK
6
CONTINUOUS
10
122.2018179999999887
20
-119.3845999999999918
11
122.1065799999999939
21
-119.2893609999999995
0
LINE
8
BLACK
6
CONTINUOUS
10
124.5827699999999965
20
-117.4798380000000009
11
124.7732469999999978
21
-117.4798380000000009
0
LINE
8
BLACK
6
CONTINUOUS
10
124.7732469999999978
20
-117.4798380000000009
11
124.9637229999999875
21
-117.5750759999999957
0
LINE
8
BLACK
6
CONTINUOUS
10
124.9637229999999875
20
-117.5750759999999957
11
125.0589609999999965
21
-117.6703139999999905
0
LINE
8
BLACK
6
CONTINUOUS
10
125.0589609999999965
20
-117.6703139999999905
11
125.1541989999999913
21
-117.8607899999999944
0
LINE
8
BLACK
6
CONTINUOUS
10
125.1541989999999913
20
-117.8607899999999944
11
125.2494370000000004
21
-118.2417419999999879
0
LINE
8
BLACK
6
CONTINUOUS
10
125.2494370000000004
20
-118.2417419999999879
11
125.2494370000000004
21
-118.7179329999999879
0
LINE
8
BLACK
6
CONTINUOUS
10
125.2494370000000004
20
-118.7179329999999879
11
125.1541989999999913
21
-119.0988849999999957
0
LINE
8
BLACK
6
CONTINUOUS
10
125.1541989999999913
20
-119.0988849999999957
11
125.0589609999999965
21
-119.2893609999999995
0
LINE
8
BLACK
6
CONTINUOUS
10
125.0589609999999965
20
-119.2893609999999995
11
124.9637229999999875
21
-119.3845999999999918
0
LINE
8
BLACK
6
CONTINUOUS
10
124.9637229999999875
20
-119.3845999999999918
11
124.7732469999999978
21
-119.4798380000000009
0
LINE
8
BLACK
6
CONTINUOUS
10
124.7732469999999978
20
-119.4798380000000009
11
124.5827699999999965
21
-119.4798380000000009
0
LINE
8
BLACK
6
CONTINUOUS
10
124.5827699999999965
20
-119.4798380000000009
11
124.3922939999999926
21
-119.3845999999999918
0
LINE
8
BLACK
6
CONTINUOUS
10
124.3922939999999926
20
-119.3845999999999918
11
124.2970559999999978
21
-119.2893609999999995
0
LINE
8
BLACK
6
CONTINUOUS
10
124.2970559999999978
20
-119.2893609999999995
11
124.2018179999999887
21
-119.0988849999999957
0
LINE
8
BLACK
6
CONTINUOUS
10
124.2018179999999887
20
-119.0988849999999957
11
124.1065799999999939
21
-118.7179329999999879
0
LINE
8
BLACK
6
CONTINUOUS
10
124.1065799999999939
20
-118.7179329999999879
11
124.1065799999999939
21
-118.2417419999999879
0
LINE
8
BLACK
6
CONTINUOUS
10
124.1065799999999939
20
-118.2417419999999879
11
124.2018179999999887
21
-117.8607899999999944
0
LINE
8
BLACK
6
CONTINUOUS
10
124.2018179999999887
20
-117.8607899999999944
11
124.2970559999999978
21
-117.6703139999999905
0
LINE
8
BLACK
6
CONTINUOUS
10
124.2970559999999978
20
-117.6703139999999905
11
124.3922939999999926
21
-117.5750759999999957
0
LINE
8
BLACK
6
CONTINUOUS
10
124.3922939999999926
20
-117.5750759999999957
11
124.5827699999999965
21
-117.4798380000000009
0
LINE
8
BLACK
6
CONTINUOUS
10
126.0113419999999991
20
-117.4798380000000009
11
126.0113419999999991
21
-117.8607899999999944
0
LINE
8
BLACK
6
CONTINUOUS
10
126.7732469999999978
20
-117.4798380000000009
11
126.7732469999999978
21
-117.8607899999999944
0
LINE
8
BLACK
6
CONTINUOUS
10
129.7256289999999979
20
-120.2417419999999879
11
129.6303900000000056
21
-120.1465039999999931
0
LINE
8
BLACK
6
CONTINUOUS
10
129.6303900000000056
20
-120.1465039999999931
11
129.4399139999999875
21
-119.8607899999999944
0
LINE
8
BLACK
6
CONTINUOUS
10
129.4399139999999875
20
-119.8607899999999944
11
129.3446759999999927
21
-119.6703139999999905
0
LINE
8
BLACK
6
CONTINUOUS
10
129.3446759999999927
20
-119.6703139999999905
11
129.2494379999999978
21
-119.3845999999999918
0
LINE
8
BLACK
6
CONTINUOUS
10
129.2494379999999978
20
-119.3845999999999918
11
129.154200000000003
21
-118.9084089999999918
0
LINE
8
BLACK
6
CONTINUOUS
10
129.154200000000003
20
-118.9084089999999918
11
129.154200000000003
21
-118.5274569999999983
0
LINE
8
BLACK
6
CONTINUOUS
10
129.154200000000003
20
-118.5274569999999983
11
129.2494379999999978
21
-118.0512659999999983
0
LINE
8
BLACK
6
CONTINUOUS
10
129.2494379999999978
20
-118.0512659999999983
11
129.3446759999999927
21
-117.7655519999999996
0
LINE
8
BLACK
6
CONTINUOUS
10
129.3446759999999927
20
-117.7655519999999996
11
129.4399139999999875
21
-117.5750759999999957
0
LINE
8
BLACK
6
CONTINUOUS
10
129.4399139999999875
20
-117.5750759999999957
11
129.6303900000000056
21
-117.2893609999999995
0
LINE
8
BLACK
6
CONTINUOUS
10
129.6303900000000056
20
-117.2893609999999995
11
129.7256289999999979
21
-117.1941229999999905
0
LINE
8
BLACK
6
CONTINUOUS
10
131.5351519999999823
20
-119.4798380000000009
11
130.3922949999999901
21
-119.4798380000000009
0
LINE
8
BLACK
6
CONTINUOUS
10
130.9637229999999875
20
-119.4798380000000009
11
130.9637229999999875
21
-117.4798380000000009
0
LINE
8
BLACK
6
CONTINUOUS
10
130.9637229999999875
20
-117.4798380000000009
11
130.7732469999999978
21
-117.7655519999999996
0
LINE
8
BLACK
6
CONTINUOUS
10
130.7732469999999978
20
-117.7655519999999996
11
130.5827710000000081
21
-117.9560279999999892
0
LINE
8
BLACK
6
CONTINUOUS
10
130.5827710000000081
20
-117.9560279999999892
11
130.3922949999999901
21
-118.0512659999999983
0
LINE
8
BLACK
6
CONTINUOUS
10
133.9161049999999875
20
-119.4798380000000009
11
133.9161049999999875
21
-117.4798380000000009
0
LINE
8
BLACK
6
CONTINUOUS
10
134.7732479999999953
20
-119.4798380000000009
11
134.7732479999999953
21
-118.4322189999999893
0
LINE
8
BLACK
6
CONTINUOUS
10
134.7732479999999953
20
-118.4322189999999893
11
134.6780100000000004
21
-118.2417419999999879
0
LINE
8
BLACK
6
CONTINUOUS
10
134.6780100000000004
20
-118.2417419999999879
11
134.4875339999999824
21
-118.1465039999999931
0
LINE
8
BLACK
6
CONTINUOUS
10
134.4875339999999824
20
-118.1465039999999931
11
134.2018190000000004
21
-118.1465039999999931
0
LINE
8
BLACK
6
CONTINUOUS
10
134.2018190000000004
20
-118.1465039999999931
11
134.0113429999999823
21
-118.2417419999999879
0
LINE
8
BLACK
6
CONTINUOUS
10
134.0113429999999823
20
-118.2417419999999879
11
133.9161049999999875
21
-118.3369799999999969
0
LINE
8
BLACK
6
CONTINUOUS
10
136.0113429999999823
20
-119.4798380000000009
11
135.8208669999999927
21
-119.3845999999999918
0
LINE
8
BLACK
6
CONTINUOUS
10
135.8208669999999927
20
-119.3845999999999918
11
135.7256289999999979
21
-119.2893609999999995
0
LINE
8
BLACK
6
CONTINUOUS
10
135.7256289999999979
20
-119.2893609999999995
11
135.630391000000003
21
-119.0988849999999957
0
LINE
8
BLACK
6
CONTINUOUS
10
135.630391000000003
20
-119.0988849999999957
11
135.630391000000003
21
-118.5274569999999983
0
LINE
8
BLACK
6
CONTINUOUS
10
135.630391000000003
20
-118.5274569999999983
11
135.7256289999999979
21
-118.3369799999999969
0
LINE
8
BLACK
6
CONTINUOUS
10
135.7256289999999979
20
-118.3369799999999969
11
135.8208669999999927
21
-118.2417419999999879
0
LINE
8
BLACK
6
CONTINUOUS
10
135.8208669999999927
20
-118.2417419999999879
11
136.0113429999999823
21
-118.1465039999999931
0
LINE
8
BLACK
6
CONTINUOUS
10
136.0113429999999823
20
-118.1465039999999931
11
136.2970579999999927
21
-118.1465039999999931
0
LINE
8
BLACK
6
CONTINUOUS
10
136.2970579999999927
20
-118.1465039999999931
11
136.4875339999999824
21
-118.2417419999999879
0
LINE
8
BLACK
6
CONTINUOUS
10
136.4875339999999824
20
-118.2417419999999879
11
136.5827720000000056
21
-118.3369799999999969
0
LINE
8
BLACK
6
CONTINUOUS
10
136.5827720000000056
20
-118.3369799999999969
11
136.6780100000000004
21
-118.5274569999999983
0
LINE
8
BLACK
6
CONTINUOUS
10
136.6780100000000004
20
-118.5274569999999983
11
136.6780100000000004
21
-119.0988849999999957
0
LINE
8
BLACK
6
CONTINUOUS
10
136.6780100000000004
20
-119.0988849999999957
11
136.5827720000000056
21
-119.2893609999999995
0
LINE
8
BLACK
6
CONTINUOUS
10
136.5827720000000056
20
-119.2893609999999995
11
136.4875339999999824
21
-119.3845999999999918
0
LINE
8
BLACK
6
CONTINUOUS
10
136.4875339999999824
20
-119.3845999999999918
11
136.2970579999999927
21
-119.4798380000000009
0
LINE
8
BLACK
6
CONTINUOUS
10
136.2970579999999927
20
-119.4798380000000009
11
136.0113429999999823
21
-119.4798380000000009
0
LINE
8
BLACK
6
CONTINUOUS
10
137.8208669999999927
20
-119.4798380000000009
11
137.630391000000003
21
-119.3845999999999918
0
LINE
8
BLACK
6
CONTINUOUS
10
137.630391000000003
20
-119.3845999999999918
11
137.5351529999999798
21
-119.1941229999999905
0
LINE
8
BLACK
6
CONTINUOUS
10
137.5351529999999798
20
-119.1941229999999905
11
137.5351529999999798
21
-117.4798380000000009
0
LINE
8
BLACK
6
CONTINUOUS
10
139.3446769999999901
20
-119.3845999999999918
11
139.1542010000000005
21
-119.4798380000000009
0
LINE
8
BLACK
6
CONTINUOUS
10
139.1542010000000005
20
-119.4798380000000009
11
138.7732479999999953
21
-119.4798380000000009
0
LINE
8
BLACK
6
CONTINUOUS
10
138.7732479999999953
20
-119.4798380000000009
11
138.5827720000000056
21
-119.3845999999999918
0
LINE
8
BLACK
6
CONTINUOUS
10
138.5827720000000056
20
-119.3845999999999918
11
138.4875339999999824
21
-119.1941229999999905
0
LINE
8
BLACK
6
CONTINUOUS
10
138.4875339999999824
20
-119.1941229999999905
11
138.4875339999999824
21
-118.4322189999999893
0
LINE
8
BLACK
6
CONTINUOUS
10
138.4875339999999824
20
-118.4322189999999893
11
138.5827720000000056
21
-118.2417419999999879
0
LINE
8
BLACK
6
CONTINUOUS
10
138.5827720000000056
20
-118.2417419999999879
11
138.7732479999999953
21
-118.1465039999999931
0
LINE
8
BLACK
6
CONTINUOUS
10
138.7732479999999953
20
-118.1465039999999931
11
139.1542010000000005
21
-118.1465039999999931
0
LINE
8
BLACK
6
CONTINUOUS
10
139.1542010000000005
20
-118.1465039999999931
11
139.3446769999999901
21
-118.2417419999999879
0
LINE
8
BLACK
6
CONTINUOUS
10
139.3446769999999901
20
-118.2417419999999879
11
139.439914999999985
21
-118.4322189999999893
0
LINE
8
BLACK
6
CONTINUOUS
10
139.439914999999985
20
-118.4322189999999893
11
139.439914999999985
21
-118.6226949999999931
0
LINE
8
BLACK
6
CONTINUOUS
10
139.439914999999985
20
-118.6226949999999931
11
138.4875339999999824
21
-118.813170999999997
0
LINE
8
BLACK
6
CONTINUOUS
10
140.1065820000000031
20
-120.2417419999999879
11
140.2018199999999979
21
-120.1465039999999931
0
LINE
8
BLACK
6
CONTINUOUS
10
140.2018199999999979
20
-120.1465039999999931
11
140.3922959999999875
21
-119.8607899999999944
0
LINE
8
BLACK
6
CONTINUOUS
10
140.3922959999999875
20
-119.8607899999999944
11
140.4875339999999824
21
-119.6703139999999905
0
LINE
8
BLACK
6
CONTINUOUS
10
140.4875339999999824
20
-119.6703139999999905
11
140.5827720000000056
21
-119.3845999999999918
0
LINE
8
BLACK
6
CONTINUOUS
10
140.5827720000000056
20
-119.3845999999999918
11
140.6780100000000004
21
-118.9084089999999918
0
LINE
8
BLACK
6
CONTINUOUS
10
140.6780100000000004
20
-118.9084089999999918
11
140.6780100000000004
21
-118.5274569999999983
0
LINE
8
BLACK
6
CONTINUOUS
10
140.6780100000000004
20
-118.5274569999999983
11
140.5827720000000056
21
-118.0512659999999983
0
LINE
8
BLACK
6
CONTINUOUS
10
140.5827720000000056
20
-118.0512659999999983
11
140.4875339999999824
21
-117.7655519999999996
0
LINE
8
BLACK
6
CONTINUOUS
10
140.4875339999999824
20
-117.7655519999999996
11
140.3922959999999875
21
-117.5750759999999957
0
LINE
8
BLACK
6
CONTINUOUS
10
140.3922959999999875
20
-117.5750759999999957
11
140.2018199999999979
21
-117.2893609999999995
0
LINE
8
BLACK
6
CONTINUOUS
10
140.2018199999999979
20
-117.2893609999999995
11
140.1065820000000031
21
-117.1941229999999905
0
LINE
8
BLACK
6
CONTINUOUS
10
143.7256299999999953
20
-120.2417419999999879
11
143.630391000000003
21
-120.1465039999999931
0
LINE
8
BLACK
6
CONTINUOUS
10
143.630391000000003
20
-120.1465039999999931
11
143.439914999999985
21
-119.8607899999999944
0
LINE
8
BLACK
6
CONTINUOUS
10
143.439914999999985
20
-119.8607899999999944
11
143.3446769999999901
21
-119.6703139999999905
0
LINE
8
BLACK
6
CONTINUOUS
10
143.3446769999999901
20
-119.6703139999999905
11
143.2494389999999953
21
-119.3845999999999918
0
LINE
8
BLACK
6
CONTINUOUS
10
143.2494389999999953
20
-119.3845999999999918
11
143.1542010000000005
21
-118.9084089999999918
0
LINE
8
BLACK
6
CONTINUOUS
10
143.1542010000000005
20
-118.9084089999999918
11
143.1542010000000005
21
-118.5274569999999983
0
LINE
8
BLACK
6
CONTINUOUS
10
143.1542010000000005
20
-118.5274569999999983
11
143.2494389999999953
21
-118.0512659999999983
0
LINE
8
BLACK
6
CONTINUOUS
10
143.2494389999999953
20
-118.0512659999999983
11
143.3446769999999901
21
-117.7655519999999996
0
LINE
8
BLACK
6
CONTINUOUS
10
143.3446769999999901
20
-117.7655519999999996
11
143.439914999999985
21
-117.5750759999999957
0
LINE
8
BLACK
6
CONTINUOUS
10
143.439914999999985
20
-117.5750759999999957
11
143.630391000000003
21
-117.2893609999999995
0
LINE
8
BLACK
6
CONTINUOUS
10
143.630391000000003
20
-117.2893609999999995
11
143.7256299999999953
21
-117.1941229999999905
0
LINE
8
BLACK
6
CONTINUOUS
10
144.4875339999999824
20
-118.1465039999999931
11
144.4875339999999824
21
-119.4798380000000009
0
LINE
8
BLACK
6
CONTINUOUS
10
144.4875339999999824
20
-118.3369799999999969
11
144.5827720000000056
21
-118.2417419999999879
0
LINE
8
BLACK
6
CONTINUOUS
10
144.5827720000000056
20
-118.2417419999999879
11
144.7732479999999953
21
-118.1465039999999931
0
LINE
8
BLACK
6
CONTINUOUS
10
144.7732479999999953
20
-118.1465039999999931
11
145.0589630000000056
21
-118.1465039999999931
0
LINE
8
BLACK
6
CONTINUOUS
10
145.0589630000000056
20
-118.1465039999999931
11
145.2494389999999953
21
-118.2417419999999879
0
LINE
8
BLACK
6
CONTINUOUS
10
145.2494389999999953
20
-118.2417419999999879
11
145.3446769999999901
21
-118.4322189999999893
0
LINE
8
BLACK
6
CONTINUOUS
10
145.3446769999999901
20
-118.4322189999999893
11
145.3446769999999901
21
-119.4798380000000009
0
LINE
8
BLACK
6
CONTINUOUS
10
146.5827720000000056
20
-119.4798380000000009
11
146.3922959999999875
21
-119.3845999999999918
0
LINE
8
BLACK
6
CONTINUOUS
10
146.3922959999999875
20
-119.3845999999999918
11
146.2970579999999927
21
-119.2893609999999995
0
LINE
8
BLACK
6
CONTINUOUS
10
146.2970579999999927
20
-119.2893609999999995
11
146.2018199999999979
21
-119.0988849999999957
0
LINE
8
BLACK
6
CONTINUOUS
10
146.2018199999999979
20
-119.0988849999999957
11
146.2018199999999979
21
-118.5274569999999983
0
LINE
8
BLACK
6
CONTINUOUS
10
146.2018199999999979
20
-118.5274569999999983
11
146.2970579999999927
21
-118.3369799999999969
0
LINE
8
BLACK
6
CONTINUOUS
10
146.2970579999999927
20
-118.3369799999999969
11
146.3922959999999875
21
-118.2417419999999879
0
LINE
8
BLACK
6
CONTINUOUS
10
146.3922959999999875
20
-118.2417419999999879
11
146.5827720000000056
21
-118.1465039999999931
0
LINE
8
BLACK
6
CONTINUOUS
10
146.5827720000000056
20
-118.1465039999999931
11
146.8684869999999876
21
-118.1465039999999931
0
LINE
8
BLACK
6
CONTINUOUS
10
146.8684869999999876
20
-118.1465039999999931
11
147.0589630000000056
21
-118.2417419999999879
0
LINE
8
BLACK
6
CONTINUOUS
10
147.0589630000000056
20
-118.2417419999999879
11
147.1542010000000005
21
-118.3369799999999969
0
LINE
8
BLACK
6
CONTINUOUS
10
147.1542010000000005
20
-118.3369799999999969
11
147.2494389999999953
21
-118.5274569999999983
0
LINE
8
BLACK
6
CONTINUOUS
10
147.2494389999999953
20
-118.5274569999999983
11
147.2494389999999953
21
-119.0988849999999957
0
LINE
8
BLACK
6
CONTINUOUS
10
147.2494389999999953
20
-119.0988849999999957
11
147.1542010000000005
21
-119.2893609999999995
0
LINE
8
BLACK
6
CONTINUOUS
10
147.1542010000000005
20
-119.2893609999999995
11
147.0589630000000056
21
-119.3845999999999918
0
LINE
8
BLACK
6
CONTINUOUS
10
147.0589630000000056
20
-119.3845999999999918
11
146.8684869999999876
21
-119.4798380000000009
0
LINE
8
BLACK
6
CONTINUOUS
10
146.8684869999999876
20
-119.4798380000000009
11
146.5827720000000056
21
-119.4798380000000009
0
LINE
8
BLACK
6
CONTINUOUS
10
147.8208679999999902
20
-118.1465039999999931
11
148.5827720000000056
21
-118.1465039999999931
0
LINE
8
BLACK
6
CONTINUOUS
10
148.1065820000000031
20
-117.4798380000000009
11
148.1065820000000031
21
-119.1941229999999905
0
LINE
8
BLACK
6
CONTINUOUS
10
148.1065820000000031
20
-119.1941229999999905
11
148.2018199999999979
21
-119.3845999999999918
0
LINE
8
BLACK
6
CONTINUOUS
10
148.2018199999999979
20
-119.3845999999999918
11
148.3922959999999875
21
-119.4798380000000009
0
LINE
8
BLACK
6
CONTINUOUS
10
148.3922959999999875
20
-119.4798380000000009
11
148.5827720000000056
21
-119.4798380000000009
0
LINE
8
BLACK
6
CONTINUOUS
10
150.7732489999999927
20
-118.1465039999999931
11
150.7732489999999927
21
-120.1465039999999931
0
LINE
8
BLACK
6
CONTINUOUS
10
150.7732489999999927
20
-118.2417419999999879
11
150.9637249999999824
21
-118.1465039999999931
0
LINE
8
BLACK
6
CONTINUOUS
10
150.9637249999999824
20
-118.1465039999999931
11
151.3446779999999876
21
-118.1465039999999931
0
LINE
8
BLACK
6
CONTINUOUS
10
151.3446779999999876
20
-118.1465039999999931
11
151.5351540000000057
21
-118.2417419999999879
0
LINE
8
BLACK
6
CONTINUOUS
10
151.5351540000000057
20
-118.2417419999999879
11
151.6303920000000005
21
-118.3369799999999969
0
LINE
8
BLACK
6
CONTINUOUS
10
151.6303920000000005
20
-118.3369799999999969
11
151.7256299999999953
21
-118.5274569999999983
0
LINE
8
BLACK
6
CONTINUOUS
10
151.7256299999999953
20
-118.5274569999999983
11
151.7256299999999953
21
-119.0988849999999957
0
LINE
8
BLACK
6
CONTINUOUS
10
151.7256299999999953
20
-119.0988849999999957
11
151.6303920000000005
21
-119.2893609999999995
0
LINE
8
BLACK
6
CONTINUOUS
10
151.6303920000000005
20
-119.2893609999999995
11
151.5351540000000057
21
-119.3845999999999918
0
LINE
8
BLACK
6
CONTINUOUS
10
151.5351540000000057
20
-119.3845999999999918
11
151.3446779999999876
21
-119.4798380000000009
0
LINE
8
BLACK
6
CONTINUOUS
10
151.3446779999999876
20
-119.4798380000000009
11
150.9637249999999824
21
-119.4798380000000009
0
LINE
8
BLACK
6
CONTINUOUS
10
150.9637249999999824
20
-119.4798380000000009
11
150.7732489999999927
21
-119.3845999999999918
0
LINE
8
BLACK
6
CONTINUOUS
10
152.8684869999999876
20
-119.4798380000000009
11
152.6780109999999979
21
-119.3845999999999918
0
LINE
8
BLACK
6
CONTINUOUS
10
152.6780109999999979
20
-119.3845999999999918
11
152.5827730000000031
21
-119.1941229999999905
0
LINE
8
BLACK
6
CONTINUOUS
10
152.5827730000000031
20
-119.1941229999999905
11
152.5827730000000031
21
-117.4798380000000009
0
LINE
8
BLACK
6
CONTINUOUS
10
154.4875349999999798
20
-119.4798380000000009
11
154.4875349999999798
21
-118.4322189999999893
0
LINE
8
BLACK
6
CONTINUOUS
10
154.4875349999999798
20
-118.4322189999999893
11
154.392296999999985
21
-118.2417419999999879
0
LINE
8
BLACK
6
CONTINUOUS
10
154.392296999999985
20
-118.2417419999999879
11
154.2018209999999954
21
-118.1465039999999931
0
LINE
8
BLACK
6
CONTINUOUS
10
154.2018209999999954
20
-118.1465039999999931
11
153.8208679999999902
21
-118.1465039999999931
0
LINE
8
BLACK
6
CONTINUOUS
10
153.8208679999999902
20
-118.1465039999999931
11
153.6303920000000005
21
-118.2417419999999879
0
LINE
8
BLACK
6
CONTINUOUS
10
154.4875349999999798
20
-119.3845999999999918
11
154.2970589999999902
21
-119.4798380000000009
0
LINE
8
BLACK
6
CONTINUOUS
10
154.2970589999999902
20
-119.4798380000000009
11
153.8208679999999902
21
-119.4798380000000009
0
LINE
8
BLACK
6
CONTINUOUS
10
153.8208679999999902
20
-119.4798380000000009
11
153.6303920000000005
21
-119.3845999999999918
0
LINE
8
BLACK
6
CONTINUOUS
10
153.6303920000000005
20
-119.3845999999999918
11
153.5351540000000057
21
-119.1941229999999905
0
LINE
8
BLACK
6
CONTINUOUS
10
153.5351540000000057
20
-119.1941229999999905
11
153.5351540000000057
21
-119.0036470000000008
0
LINE
8
BLACK
6
CONTINUOUS
10
153.5351540000000057
20
-119.0036470000000008
11
153.6303920000000005
21
-118.813170999999997
0
LINE
8
BLACK
6
CONTINUOUS
10
153.6303920000000005
20
-118.813170999999997
11
153.8208679999999902
21
-118.7179329999999879
0
LINE
8
BLACK
6
CONTINUOUS
10
153.8208679999999902
20
-118.7179329999999879
11
154.2970589999999902
21
-118.7179329999999879
0
LINE
8
BLACK
6
CONTINUOUS
10
154.2970589999999902
20
-118.7179329999999879
11
154.4875349999999798
21
-118.6226949999999931
0
LINE
8
BLACK
6
CONTINUOUS
10
155.154201999999998
20
-118.1465039999999931
11
155.916105999999985
21
-118.1465039999999931
0
LINE
8
BLACK
6
CONTINUOUS
10
155.4399159999999824
20
-117.4798380000000009
11
155.4399159999999824
21
-119.1941229999999905
0
LINE
8
BLACK
6
CONTINUOUS
10
155.4399159999999824
20
-119.1941229999999905
11
155.5351540000000057
21
-119.3845999999999918
0
LINE
8
BLACK
6
CONTINUOUS
10
155.5351540000000057
20
-119.3845999999999918
11
155.7256299999999953
21
-119.4798380000000009
0
LINE
8
BLACK
6
CONTINUOUS
10
155.7256299999999953
20
-119.4798380000000009
11
155.916105999999985
21
-119.4798380000000009
0
LINE
8
BLACK
6
CONTINUOUS
10
157.3446779999999876
20
-119.3845999999999918
11
157.154201999999998
21
-119.4798380000000009
0
LINE
8
BLACK
6
CONTINUOUS
10
157.154201999999998
20
-119.4798380000000009
11
156.7732489999999927
21
-119.4798380000000009
0
LINE
8
BLACK
6
CONTINUOUS
10
156.7732489999999927
20
-119.4798380000000009
11
156.5827730000000031
21
-119.3845999999999918
0
LINE
8
BLACK
6
CONTINUOUS
10
156.5827730000000031
20
-119.3845999999999918
11
156.4875349999999798
21
-119.1941229999999905
0
LINE
8
BLACK
6
CONTINUOUS
10
156.4875349999999798
20
-119.1941229999999905
11
156.4875349999999798
21
-118.4322189999999893
0
LINE
8
BLACK
6
CONTINUOUS
10
156.4875349999999798
20
-118.4322189999999893
11
156.5827730000000031
21
-118.2417419999999879
0
LINE
8
BLACK
6
CONTINUOUS
10
156.5827730000000031
20
-118.2417419999999879
11
156.7732489999999927
21
-118.1465039999999931
0
LINE
8
BLACK
6
CONTINUOUS
10
156.7732489999999927
20
-118.1465039999999931
11
157.154201999999998
21
-118.1465039999999931
0
LINE
8
BLACK
6
CONTINUOUS
10
157.154201999999998
20
-118.1465039999999931
11
157.3446779999999876
21
-118.2417419999999879
0
LINE
8
BLACK
6
CONTINUOUS
10
157.3446779999999876
20
-118.2417419999999879
11
157.4399159999999824
21
-118.4322189999999893
0
LINE
8
BLACK
6
CONTINUOUS
10
157.4399159999999824
20
-118.4322189999999893
11
157.4399159999999824
21
-118.6226949999999931
0
LINE
8
BLACK
6
CONTINUOUS
10
157.4399159999999824
20
-118.6226949999999931
11
156.4875349999999798
21
-118.813170999999997
0
LINE
8
BLACK
6
CONTINUOUS
10
159.154201999999998
20
-119.4798380000000009
11
159.154201999999998
21
-117.4798380000000009
0
LINE
8
BLACK
6
CONTINUOUS
10
159.154201999999998
20
-119.3845999999999918
11
158.9637259999999799
21
-119.4798380000000009
0
LINE
8
BLACK
6
CONTINUOUS
10
158.9637259999999799
20
-119.4798380000000009
11
158.5827730000000031
21
-119.4798380000000009
0
LINE
8
BLACK
6
CONTINUOUS
10
158.5827730000000031
20
-119.4798380000000009
11
158.392296999999985
21
-119.3845999999999918
0
LINE
8
BLACK
6
CONTINUOUS
10
158.392296999999985
20
-119.3845999999999918
11
158.2970589999999902
21
-119.2893609999999995
0
LINE
8
BLACK
6
CONTINUOUS
10
158.2970589999999902
20
-119.2893609999999995
11
158.2018209999999954
21
-119.0988849999999957
0
LINE
8
BLACK
6
CONTINUOUS
10
158.2018209999999954
20
-119.0988849999999957
11
158.2018209999999954
21
-118.5274569999999983
0
LINE
8
BLACK
6
CONTINUOUS
10
158.2018209999999954
20
-118.5274569999999983
11
158.2970589999999902
21
-118.3369799999999969
0
LINE
8
BLACK
6
CONTINUOUS
10
158.2970589999999902
20
-118.3369799999999969
11
158.392296999999985
21
-118.2417419999999879
0
LINE
8
BLACK
6
CONTINUOUS
10
158.392296999999985
20
-118.2417419999999879
11
158.5827730000000031
21
-118.1465039999999931
0
LINE
8
BLACK
6
CONTINUOUS
10
158.5827730000000031
20
-118.1465039999999931
11
158.9637259999999799
21
-118.1465039999999931
0
LINE
8
BLACK
6
CONTINUOUS
10
158.9637259999999799
20
-118.1465039999999931
11
159.154201999999998
21
-118.2417419999999879
0
LINE
8
BLACK
6
CONTINUOUS
10
159.9161069999999825
20
-120.2417419999999879
11
160.0113450000000057
21
-120.1465039999999931
0
LINE
8
BLACK
6
CONTINUOUS
10
160.0113450000000057
20
-120.1465039999999931
11
160.2018209999999954
21
-119.8607899999999944
0
LINE
8
BLACK
6
CONTINUOUS
10
160.2018209999999954
20
-119.8607899999999944
11
160.2970589999999902
21
-119.6703139999999905
0
LINE
8
BLACK
6
CONTINUOUS
10
160.2970589999999902
20
-119.6703139999999905
11
160.392296999999985
21
-119.3845999999999918
0
LINE
8
BLACK
6
CONTINUOUS
10
160.392296999999985
20
-119.3845999999999918
11
160.4875349999999798
21
-118.9084089999999918
0
LINE
8
BLACK
6
CONTINUOUS
10
160.4875349999999798
20
-118.9084089999999918
11
160.4875349999999798
21
-118.5274569999999983
0
LINE
8
BLACK
6
CONTINUOUS
10
160.4875349999999798
20
-118.5274569999999983
11
160.392296999999985
21
-118.0512659999999983
0
LINE
8
BLACK
6
CONTINUOUS
10
160.392296999999985
20
-118.0512659999999983
11
160.2970589999999902
21
-117.7655519999999996
0
LINE
8
BLACK
6
CONTINUOUS
10
160.2970589999999902
20
-117.7655519999999996
11
160.2018209999999954
21
-117.5750759999999957
0
LINE
8
BLACK
6
CONTINUOUS
10
160.2018209999999954
20
-117.5750759999999957
11
160.0113450000000057
21
-117.2893609999999995
0
LINE
8
BLACK
6
CONTINUOUS
10
160.0113450000000057
20
-117.2893609999999995
11
159.9161069999999825
21
-117.1941229999999905
  0
ENDSEC
  0
EOF
