%TF.GenerationSoftware,KiCad,Pcbnew,10.0.0*%
%TF.CreationDate,2026-06-27T13:30:49+02:00*%
%TF.ProjectId,hardware_V11,68617264-7761-4726-955f-5631312e6b69,rev?*%
%TF.SameCoordinates,Original*%
%TF.FileFunction,Copper,L6,Bot*%
%TF.FilePolarity,Positive*%
%FSLAX46Y46*%
G04 Gerber Fmt 4.6, Leading zero omitted, Abs format (unit mm)*
G04 Created by KiCad (PCBNEW 10.0.0) date 2026-06-27 13:30:49*
%MOMM*%
%LPD*%
G01*
G04 APERTURE LIST*
G04 Aperture macros list*
%AMRoundRect*
0 Rectangle with rounded corners*
0 $1 Rounding radius*
0 $2 $3 $4 $5 $6 $7 $8 $9 X,Y pos of 4 corners*
0 Add a 4 corners polygon primitive as box body*
4,1,4,$2,$3,$4,$5,$6,$7,$8,$9,$2,$3,0*
0 Add four circle primitives for the rounded corners*
1,1,$1+$1,$2,$3*
1,1,$1+$1,$4,$5*
1,1,$1+$1,$6,$7*
1,1,$1+$1,$8,$9*
0 Add four rect primitives between the rounded corners*
20,1,$1+$1,$2,$3,$4,$5,0*
20,1,$1+$1,$4,$5,$6,$7,0*
20,1,$1+$1,$6,$7,$8,$9,0*
20,1,$1+$1,$8,$9,$2,$3,0*%
G04 Aperture macros list end*
%TA.AperFunction,SMDPad,CuDef*%
%ADD10RoundRect,0.100000X-0.217500X-0.100000X0.217500X-0.100000X0.217500X0.100000X-0.217500X0.100000X0*%
%TD*%
%TA.AperFunction,SMDPad,CuDef*%
%ADD11R,0.350000X0.350000*%
%TD*%
%TA.AperFunction,SMDPad,CuDef*%
%ADD12RoundRect,0.100000X0.100000X-0.217500X0.100000X0.217500X-0.100000X0.217500X-0.100000X-0.217500X0*%
%TD*%
%TA.AperFunction,SMDPad,CuDef*%
%ADD13RoundRect,0.100000X0.217500X0.100000X-0.217500X0.100000X-0.217500X-0.100000X0.217500X-0.100000X0*%
%TD*%
%TA.AperFunction,SMDPad,CuDef*%
%ADD14RoundRect,0.147500X-0.172500X0.147500X-0.172500X-0.147500X0.172500X-0.147500X0.172500X0.147500X0*%
%TD*%
%TA.AperFunction,SMDPad,CuDef*%
%ADD15R,0.800000X1.200000*%
%TD*%
%TA.AperFunction,SMDPad,CuDef*%
%ADD16R,0.300000X0.600000*%
%TD*%
%TA.AperFunction,SMDPad,CuDef*%
%ADD17R,0.600000X0.300000*%
%TD*%
%TA.AperFunction,SMDPad,CuDef*%
%ADD18RoundRect,0.100000X-0.100000X0.217500X-0.100000X-0.217500X0.100000X-0.217500X0.100000X0.217500X0*%
%TD*%
%TA.AperFunction,ComponentPad*%
%ADD19R,1.700000X1.700000*%
%TD*%
%TA.AperFunction,ComponentPad*%
%ADD20C,1.700000*%
%TD*%
%TA.AperFunction,SMDPad,CuDef*%
%ADD21RoundRect,0.150000X0.425000X-0.150000X0.425000X0.150000X-0.425000X0.150000X-0.425000X-0.150000X0*%
%TD*%
%TA.AperFunction,SMDPad,CuDef*%
%ADD22RoundRect,0.075000X0.500000X-0.075000X0.500000X0.075000X-0.500000X0.075000X-0.500000X-0.075000X0*%
%TD*%
%TA.AperFunction,ComponentPad*%
%ADD23O,1.800000X1.000000*%
%TD*%
%TA.AperFunction,ComponentPad*%
%ADD24O,2.100000X1.000000*%
%TD*%
%TA.AperFunction,SMDPad,CuDef*%
%ADD25R,0.750000X1.800000*%
%TD*%
%TA.AperFunction,SMDPad,CuDef*%
%ADD26R,0.600000X1.800000*%
%TD*%
%TA.AperFunction,SMDPad,CuDef*%
%ADD27R,1.300000X0.900000*%
%TD*%
%TA.AperFunction,SMDPad,CuDef*%
%ADD28R,0.300000X0.850000*%
%TD*%
%TA.AperFunction,SMDPad,CuDef*%
%ADD29R,1.420000X0.610000*%
%TD*%
%TA.AperFunction,SMDPad,CuDef*%
%ADD30RoundRect,0.140000X-0.170000X0.140000X-0.170000X-0.140000X0.170000X-0.140000X0.170000X0.140000X0*%
%TD*%
%TA.AperFunction,ViaPad*%
%ADD31C,0.400000*%
%TD*%
%TA.AperFunction,Conductor*%
%ADD32C,0.160000*%
%TD*%
%TA.AperFunction,Conductor*%
%ADD33C,0.200000*%
%TD*%
%TA.AperFunction,Conductor*%
%ADD34C,0.400000*%
%TD*%
%TA.AperFunction,Conductor*%
%ADD35C,0.120000*%
%TD*%
G04 APERTURE END LIST*
D10*
%TO.P,R24,1*%
%TO.N,Net-(U4-SUP_2)*%
X96057500Y-105350000D03*
%TO.P,R24,2*%
%TO.N,/ECRAN_SUP*%
X95242500Y-105350000D03*
%TD*%
D11*
%TO.P,IC1,1,GND_1_1*%
%TO.N,GND*%
X105325000Y-95025000D03*
%TO.P,IC1,2,CSB_2*%
%TO.N,unconnected-(IC1-CSB-Pad2)*%
X104675000Y-95025000D03*
%TO.P,IC1,3,SDI_3*%
%TO.N,/SENSOR_SDA*%
X104025000Y-95025000D03*
%TO.P,IC1,4,SCK_4*%
%TO.N,/SENSOR_SCL*%
X103375000Y-95025000D03*
%TO.P,IC1,5,SDO_5*%
%TO.N,unconnected-(IC1-SDO-Pad5)*%
X103375000Y-96475000D03*
%TO.P,IC1,6,VDDIO_6*%
%TO.N,3.3V_AUX*%
X104025000Y-96475000D03*
%TO.P,IC1,7,GND_2_7*%
%TO.N,GND*%
X104675000Y-96475000D03*
%TO.P,IC1,8,VDD_8*%
%TO.N,3.3V_AUX*%
X105325000Y-96475000D03*
%TD*%
D12*
%TO.P,C16,1*%
%TO.N,3.3V_AUX*%
X103650000Y-97342500D03*
%TO.P,C16,2*%
%TO.N,GND*%
X103650000Y-98157500D03*
%TD*%
%TO.P,C15,1*%
%TO.N,3.3V_AUX*%
X104600000Y-97352500D03*
%TO.P,C15,2*%
%TO.N,GND*%
X104600000Y-98167500D03*
%TD*%
D10*
%TO.P,R23,1*%
%TO.N,/SENSOR_SDA*%
X113407500Y-107950000D03*
%TO.P,R23,2*%
%TO.N,3.3V_AUX*%
X112592500Y-107950000D03*
%TD*%
D13*
%TO.P,R22,1*%
%TO.N,3.3V_AUX*%
X112592500Y-107250000D03*
%TO.P,R22,2*%
%TO.N,/SENSOR_SCL*%
X113407500Y-107250000D03*
%TD*%
%TO.P,R19,1*%
%TO.N,GND*%
X101592500Y-95700000D03*
%TO.P,R19,2*%
%TO.N,/USB_DET*%
X102407500Y-95700000D03*
%TD*%
D10*
%TO.P,R12,1*%
%TO.N,/USB_DET*%
X102407500Y-96400000D03*
%TO.P,R12,2*%
%TO.N,vusb*%
X101592500Y-96400000D03*
%TD*%
%TO.P,R11,1*%
%TO.N,GND*%
X102407500Y-97100000D03*
%TO.P,R11,2*%
%TO.N,Net-(J3-CC2)*%
X101592500Y-97100000D03*
%TD*%
D13*
%TO.P,R8,1*%
%TO.N,Net-(J3-CC1)*%
X101342500Y-101400000D03*
%TO.P,R8,2*%
%TO.N,GND*%
X102157500Y-101400000D03*
%TD*%
D10*
%TO.P,C9,1*%
%TO.N,/USB_DET*%
X102407500Y-95000000D03*
%TO.P,C9,2*%
%TO.N,GND*%
X101592500Y-95000000D03*
%TD*%
D14*
%TO.P,LEDRED1,1,K_1*%
%TO.N,Net-(IC5-~{CHRG})*%
X99130000Y-107715000D03*
%TO.P,LEDRED1,2,A_2*%
%TO.N,Net-(LEDRED1-A)*%
X99130000Y-106745000D03*
%TD*%
D13*
%TO.P,R4,1*%
%TO.N,Net-(LEDRED1-A)*%
X98892500Y-105350000D03*
%TO.P,R4,2*%
%TO.N,vusb*%
X99707500Y-105350000D03*
%TD*%
D14*
%TO.P,LEDGREEN1,1,K_1*%
%TO.N,GND*%
X98190000Y-107715000D03*
%TO.P,LEDGREEN1,2,A_2*%
%TO.N,Net-(LEDGREEN1-A)*%
X98190000Y-106745000D03*
%TD*%
D15*
%TO.P,PA1010D1,1,I2C_SDA_1*%
%TO.N,unconnected-(PA1010D1-I2C_SDA-Pad1)*%
X115450000Y-106050000D03*
%TO.P,PA1010D1,2,I2C_SCL_2*%
%TO.N,unconnected-(PA1010D1-I2C_SCL-Pad2)*%
X113850000Y-106050000D03*
%TO.P,PA1010D1,3,1PPS_3*%
%TO.N,unconnected-(PA1010D1-1PPS-Pad3)*%
X110950000Y-106050000D03*
%TO.P,PA1010D1,4,TX_4*%
%TO.N,Net-(PA1010D1-TX)*%
X109350000Y-106050000D03*
%TO.P,PA1010D1,5,RX_5*%
%TO.N,Net-(PA1010D1-RX)*%
X107750000Y-106050000D03*
%TO.P,PA1010D1,6,NRESET_6*%
%TO.N,unconnected-(PA1010D1-NRESET-Pad6)*%
X107750000Y-96350000D03*
%TO.P,PA1010D1,7,GND_7*%
%TO.N,GND*%
X109350000Y-96350000D03*
%TO.P,PA1010D1,8,WAKE_UP_8*%
%TO.N,unconnected-(PA1010D1-WAKE_UP-Pad8)*%
X110950000Y-96350000D03*
%TO.P,PA1010D1,9,VBACKUP_9*%
%TO.N,BAT+*%
X113850000Y-96350000D03*
%TO.P,PA1010D1,10,VCC_10*%
%TO.N,3.3V_GPS*%
X115450000Y-96350000D03*
%TD*%
D16*
%TO.P,IC2,1,AP_SDO_/_AP_AD0_1*%
%TO.N,GND*%
X104000000Y-99450000D03*
%TO.P,IC2,2,RESV_1_2*%
X104500000Y-99450000D03*
%TO.P,IC2,3,RESV_2_3*%
X105000000Y-99450000D03*
%TO.P,IC2,4,INT1_/_INT_4*%
%TO.N,unconnected-(IC2-INT1_{slash}_INT-Pad4)*%
X105500000Y-99450000D03*
D17*
%TO.P,IC2,5,VDDIO_5*%
%TO.N,3.3V_AUX*%
X105650000Y-100100000D03*
%TO.P,IC2,6,GND_6*%
%TO.N,GND*%
X105650000Y-100600000D03*
%TO.P,IC2,7,RESV_3_7*%
X105650000Y-101100000D03*
D16*
%TO.P,IC2,8,VDD_8*%
%TO.N,3.3V_AUX*%
X105500000Y-101750000D03*
%TO.P,IC2,9,INT2_/_FSYNC_/_CLKIN_9*%
%TO.N,GND*%
X105000000Y-101750000D03*
%TO.P,IC2,10,RESV_4_10*%
X104500000Y-101750000D03*
%TO.P,IC2,11,RESV_5_11*%
X104000000Y-101750000D03*
D17*
%TO.P,IC2,12,AP_CS_12*%
%TO.N,3.3V_AUX*%
X103850000Y-101100000D03*
%TO.P,IC2,13,AP_SCL_/_AP_SCLK_13*%
%TO.N,/SENSOR_SCL*%
X103850000Y-100600000D03*
%TO.P,IC2,14,AP_SDA_/_AP_SDIO_/_AP_SDI_14*%
%TO.N,/SENSOR_SDA*%
X103850000Y-100100000D03*
%TD*%
D18*
%TO.P,R27,1*%
%TO.N,GND*%
X107100000Y-107957500D03*
%TO.P,R27,2*%
%TO.N,/GPS_EN*%
X107100000Y-107142500D03*
%TD*%
%TO.P,R21,1*%
%TO.N,GND*%
X110150000Y-107957500D03*
%TO.P,R21,2*%
%TO.N,/AUX_EN*%
X110150000Y-107142500D03*
%TD*%
D19*
%TO.P,U4,1,GND_1*%
%TO.N,GND*%
X103810000Y-93000000D03*
D20*
%TO.P,U4,2,VCC_2*%
%TO.N,3.3V_AUX*%
X101270000Y-93000000D03*
%TO.P,U4,3,SCK_3*%
%TO.N,/OLED_SCL*%
X98730000Y-93000000D03*
%TO.P,U4,4,SDA_4*%
%TO.N,/OLED_SDA*%
X96190000Y-93000000D03*
%TO.P,U4,5,SUP_1_5*%
%TO.N,GND*%
X104500000Y-107000000D03*
%TO.P,U4,6,SUP_2_6*%
%TO.N,Net-(U4-SUP_2)*%
X95500000Y-107000000D03*
%TD*%
D12*
%TO.P,C14,1*%
%TO.N,3.3V_AUX*%
X105025000Y-102817500D03*
%TO.P,C14,2*%
%TO.N,GND*%
X105025000Y-103632500D03*
%TD*%
D21*
%TO.P,J3,A1,GND_A1*%
%TO.N,GND*%
X99980000Y-103200000D03*
%TO.P,J3,A4,VBUS_A4*%
%TO.N,vusb*%
X99980000Y-102400000D03*
D22*
%TO.P,J3,A5,CC1_A5*%
%TO.N,Net-(J3-CC1)*%
X99980000Y-101250000D03*
%TO.P,J3,A6,D+_A6*%
%TO.N,/D+*%
X99980000Y-100250000D03*
%TO.P,J3,A7,D-_A7*%
%TO.N,/D-*%
X99980000Y-99750000D03*
%TO.P,J3,A8,SBUS1_A8*%
%TO.N,unconnected-(J3-SBUS1-PadA8)*%
X99980000Y-98750000D03*
D21*
%TO.P,J3,A9,VBUS_A9*%
%TO.N,vusb*%
X99980000Y-97600000D03*
%TO.P,J3,A12,GND_A12*%
%TO.N,GND*%
X99980000Y-96800000D03*
%TO.P,J3,B1,GND_B1*%
X99980000Y-96800000D03*
%TO.P,J3,B4,VBUS_B4*%
%TO.N,vusb*%
X99980000Y-97600000D03*
D22*
%TO.P,J3,B5,CC2_B5*%
%TO.N,Net-(J3-CC2)*%
X99980000Y-98250000D03*
%TO.P,J3,B6,D+_B6*%
%TO.N,/D+*%
X99980000Y-99250000D03*
%TO.P,J3,B7,D-_B7*%
%TO.N,/D-*%
X99980000Y-100750000D03*
%TO.P,J3,B8,SBUS2_B8*%
%TO.N,unconnected-(J3-SBUS2-PadB8)*%
X99980000Y-101750000D03*
D21*
%TO.P,J3,B9,VBUS_B9*%
%TO.N,vusb*%
X99980000Y-102400000D03*
%TO.P,J3,B12,GND_B12*%
%TO.N,GND*%
X99980000Y-103200000D03*
D23*
%TO.P,J3,SH,MP1_SH*%
X95225000Y-104320000D03*
D24*
X99405000Y-104320000D03*
D23*
X95225000Y-95680000D03*
D24*
X99405000Y-95680000D03*
%TD*%
D14*
%TO.P,LEDBLUE1,1,K_1*%
%TO.N,GND*%
X97250000Y-107715000D03*
%TO.P,LEDBLUE1,2,A_2*%
%TO.N,Net-(LEDBLUE1-A)*%
X97250000Y-106745000D03*
%TD*%
D25*
%TO.P,S1,1,COM_1_1*%
%TO.N,+3.3V*%
X106425000Y-94275000D03*
D26*
%TO.P,S1,2,NO_2*%
%TO.N,/B1*%
X107650000Y-94275000D03*
D25*
%TO.P,S1,3,COM_2_3*%
%TO.N,+3.3V*%
X108875000Y-94275000D03*
D27*
%TO.P,S1,MP1,MP1_MP1*%
%TO.N,GND*%
X105800000Y-92325000D03*
%TO.P,S1,MP2,MP2_MP2*%
X109500000Y-92325000D03*
%TD*%
D12*
%TO.P,C29,1*%
%TO.N,vusb*%
X101950000Y-102867500D03*
%TO.P,C29,2*%
%TO.N,GND*%
X101950000Y-103682500D03*
%TD*%
D28*
%TO.P,IC5,1,GND_1*%
%TO.N,GND*%
X103950000Y-104975000D03*
%TO.P,IC5,2,~{CHRG}_2*%
%TO.N,Net-(IC5-~{CHRG})*%
X103450000Y-104975000D03*
%TO.P,IC5,3,BAT_3*%
%TO.N,BAT+*%
X102950000Y-104975000D03*
%TO.P,IC5,4,VCC_4*%
%TO.N,vusb*%
X102950000Y-103075000D03*
%TO.P,IC5,5,~{EN}_5*%
%TO.N,GND*%
X103450000Y-103075000D03*
%TO.P,IC5,6,PROG_6*%
%TO.N,Net-(IC5-PROG)*%
X103950000Y-103075000D03*
D29*
%TO.P,IC5,7,EP_7*%
%TO.N,GND*%
X103450000Y-104025000D03*
%TD*%
D18*
%TO.P,C13,1*%
%TO.N,3.3V_AUX*%
X105850000Y-98307500D03*
%TO.P,C13,2*%
%TO.N,GND*%
X105850000Y-97492500D03*
%TD*%
D25*
%TO.P,S3,1,COM_1_1*%
%TO.N,GND*%
X112125000Y-94275000D03*
D26*
%TO.P,S3,2,NO_2*%
%TO.N,/B_PW*%
X113350000Y-94275000D03*
D25*
%TO.P,S3,3,COM_2_3*%
%TO.N,GND*%
X114575000Y-94275000D03*
D27*
%TO.P,S3,MP1,MP1_MP1*%
X111500000Y-92325000D03*
%TO.P,S3,MP2,MP2_MP2*%
X115200000Y-92325000D03*
%TD*%
D30*
%TO.P,C24,1*%
%TO.N,3.3V_AUX*%
X105850000Y-102770000D03*
%TO.P,C24,2*%
%TO.N,GND*%
X105850000Y-103730000D03*
%TD*%
D13*
%TO.P,R17,1*%
%TO.N,Net-(IC5-PROG)*%
X105042500Y-104550000D03*
%TO.P,R17,2*%
%TO.N,GND*%
X105857500Y-104550000D03*
%TD*%
D31*
%TO.N,GND*%
X96350000Y-97550000D03*
%TO.N,/ECRAN_SUP*%
X97000000Y-97550000D03*
X94700000Y-105350000D03*
%TO.N,GND*%
X102700000Y-98750000D03*
X103150000Y-95850000D03*
X104400000Y-94500000D03*
%TO.N,/SENSOR_SCL*%
X102850000Y-94300000D03*
%TO.N,/SENSOR_SDA*%
X103550000Y-94300000D03*
%TO.N,GND*%
X113104134Y-106730000D03*
%TO.N,3.3V_AUX*%
X114150000Y-107750000D03*
X112592500Y-107950000D03*
%TO.N,/USB_DET*%
X102800000Y-99350000D03*
%TO.N,3.3V_AUX*%
X106100000Y-99600000D03*
X111850000Y-104950000D03*
X106100000Y-98900000D03*
X112750000Y-104950000D03*
X96687500Y-96487500D03*
X114250000Y-100435000D03*
X113700000Y-92292500D03*
X96918777Y-93968777D03*
X114900000Y-100450000D03*
X108000000Y-92050000D03*
%TO.N,GND*%
X97650000Y-101500000D03*
X109850000Y-94300000D03*
X112100000Y-100000000D03*
X110150000Y-95470000D03*
X96300000Y-107940000D03*
X94750000Y-105950000D03*
X99050000Y-99000000D03*
X97250000Y-107715000D03*
X108500000Y-106150000D03*
X102000000Y-107400000D03*
X111100000Y-94300000D03*
X99700000Y-94750000D03*
X104440000Y-102350000D03*
X108560000Y-95590000D03*
X115350000Y-101950000D03*
X116140000Y-104700000D03*
X96850000Y-102550000D03*
X96260000Y-95500000D03*
X97250000Y-96000000D03*
X109700000Y-107900000D03*
X112550000Y-103250000D03*
X105950000Y-106290148D03*
X114125000Y-94675000D03*
X110950000Y-104370000D03*
X99000000Y-100600000D03*
X115500000Y-104900000D03*
X111750000Y-106600000D03*
X98190000Y-107715000D03*
X104350000Y-104850000D03*
X100600000Y-107450000D03*
X113300000Y-101200000D03*
X108700000Y-102230000D03*
X108330000Y-99520000D03*
X110100000Y-96550000D03*
X94500000Y-100800000D03*
X109460000Y-98810000D03*
X116000000Y-94370000D03*
X103200000Y-101400000D03*
X105700000Y-104900000D03*
X107120000Y-98800000D03*
X108700000Y-92250000D03*
X97570000Y-100690000D03*
X115200000Y-92325000D03*
X112948528Y-102048528D03*
X106970000Y-102250000D03*
X94510000Y-99600000D03*
X111900000Y-96550000D03*
X106870000Y-101050000D03*
X94600000Y-92000000D03*
X97500000Y-93200000D03*
X103540000Y-99130000D03*
X95340000Y-97500000D03*
X106950000Y-92350000D03*
X109700000Y-103250000D03*
X98500000Y-106050000D03*
X112440000Y-95780000D03*
X99970000Y-92000000D03*
X105350000Y-94300000D03*
X101350000Y-97850000D03*
X108600000Y-96550000D03*
X94700000Y-93300000D03*
X111251472Y-102048528D03*
X116200000Y-106400000D03*
X110900000Y-101200000D03*
X105400000Y-103560000D03*
X107640000Y-101060000D03*
X99700000Y-107140000D03*
X105800000Y-92325000D03*
X98570000Y-94830000D03*
X94570000Y-107920000D03*
X112100000Y-102400000D03*
X111251472Y-100351472D03*
X113050000Y-98750000D03*
X102500000Y-93850000D03*
X112948528Y-100351472D03*
X116150000Y-92000000D03*
X94500000Y-103050000D03*
X97650000Y-99000000D03*
X103450000Y-104000000D03*
X97400000Y-91950000D03*
X99860000Y-93570000D03*
X104390000Y-98730000D03*
%TO.N,+3.3V*%
X109100000Y-94275000D03*
X101050000Y-105600000D03*
X95470000Y-99600000D03*
X113000000Y-92285000D03*
X101695689Y-105753801D03*
X95950000Y-100050000D03*
X106425000Y-94275000D03*
%TO.N,BAT+*%
X113850000Y-96350000D03*
X102800000Y-107350000D03*
X106550000Y-108000000D03*
X110800000Y-108000000D03*
X106550048Y-107300000D03*
X99337500Y-106050000D03*
X110786119Y-107201003D03*
X99900000Y-106300000D03*
X102950000Y-106850000D03*
%TO.N,/B_PW*%
X96000000Y-101520000D03*
X113050000Y-92950000D03*
%TO.N,3.3V_GPS*%
X115150000Y-96950000D03*
X114750000Y-96050000D03*
X109400000Y-104750000D03*
X110050000Y-104750000D03*
%TO.N,/GPS_EN*%
X106550000Y-106608592D03*
X101400000Y-103600000D03*
%TO.N,Net-(J1-CLK)*%
X102350000Y-104250000D03*
X114903004Y-101530602D03*
%TO.N,/SPI_MOSI*%
X115050000Y-99335000D03*
X99000000Y-101300000D03*
%TO.N,Net-(LEDGREEN1-A)*%
X94542500Y-98050000D03*
X97850000Y-106020000D03*
%TO.N,/B1*%
X107300000Y-93007500D03*
X100750000Y-96200000D03*
%TO.N,/SPI_CS*%
X98350000Y-103250000D03*
X114250000Y-98235000D03*
%TO.N,/SPI_MISO*%
X115050000Y-103735000D03*
X99002339Y-101925842D03*
%TO.N,/SD_DET*%
X106710000Y-95820000D03*
X102125000Y-101950000D03*
%TO.N,Net-(PA1010D1-TX)*%
X107395273Y-104352727D03*
X97900000Y-104657500D03*
%TO.N,Net-(LEDBLUE1-A)*%
X97000000Y-106200000D03*
X94542500Y-98750000D03*
%TO.N,/AUX_EN*%
X101400000Y-102962889D03*
X110151981Y-106405000D03*
%TO.N,/SENSOR_SCL*%
X114700000Y-106910000D03*
X102400000Y-100850000D03*
%TO.N,/OLED_SCL*%
X98472125Y-97172888D03*
%TO.N,/SENSOR_SDA*%
X114700000Y-108070000D03*
%TO.N,/OLED_SDA*%
X97950002Y-97000000D03*
%TO.N,/SENSOR_SDA*%
X102350000Y-100050000D03*
%TO.N,Net-(PA1010D1-RX)*%
X97200000Y-104657500D03*
X107450000Y-104900000D03*
%TO.N,/D-*%
X102130908Y-99508613D03*
%TO.N,/D+*%
X102151406Y-98932341D03*
%TD*%
%TO.N,/ECRAN_SUP*%
D32*
X95242500Y-105350000D02*
X94700000Y-105350000D01*
%TO.N,Net-(U4-SUP_2)*%
X96050000Y-106250000D02*
X95500000Y-106800000D01*
X96050000Y-105357500D02*
X96050000Y-106250000D01*
X96057500Y-105350000D02*
X96050000Y-105357500D01*
X95500000Y-106800000D02*
X95500000Y-107000000D01*
%TO.N,Net-(IC5-PROG)*%
X105000000Y-104507500D02*
X105000000Y-104592500D01*
X104450000Y-103957500D02*
X105000000Y-104507500D01*
X104450000Y-103600000D02*
X104450000Y-103957500D01*
X103950000Y-103100000D02*
X104450000Y-103600000D01*
X103950000Y-103075000D02*
X103950000Y-103100000D01*
%TO.N,/USB_DET*%
X102657500Y-96650000D02*
X102407500Y-96400000D01*
X102800000Y-96650000D02*
X102657500Y-96650000D01*
X103100000Y-96950000D02*
X102800000Y-96650000D01*
X103100000Y-99050000D02*
X103100000Y-96950000D01*
X102800000Y-99350000D02*
X103100000Y-99050000D01*
%TO.N,/SENSOR_SDA*%
X104025000Y-94775000D02*
X104025000Y-95025000D01*
X103550000Y-94300000D02*
X104025000Y-94775000D01*
%TO.N,/SENSOR_SCL*%
X102850000Y-94300000D02*
X103375000Y-94825000D01*
X103375000Y-94825000D02*
X103375000Y-95025000D01*
%TO.N,/USB_DET*%
X102407500Y-95000000D02*
X102407500Y-96400000D01*
%TO.N,Net-(J3-CC2)*%
X100800000Y-97834314D02*
X101534314Y-97100000D01*
X100800000Y-98100000D02*
X100800000Y-97834314D01*
X101534314Y-97100000D02*
X101592500Y-97100000D01*
X100650000Y-98250000D02*
X100800000Y-98100000D01*
X99980000Y-98250000D02*
X100650000Y-98250000D01*
%TO.N,vusb*%
D33*
X100850000Y-97300000D02*
X100550000Y-97600000D01*
X101250000Y-96400000D02*
X100850000Y-96800000D01*
X100850000Y-96800000D02*
X100850000Y-97300000D01*
X101592500Y-96400000D02*
X101250000Y-96400000D01*
X100550000Y-97600000D02*
X99980000Y-97600000D01*
%TO.N,Net-(J3-CC1)*%
D32*
X100900000Y-101400000D02*
X101342500Y-101400000D01*
X100750000Y-101250000D02*
X100900000Y-101400000D01*
X99980000Y-101250000D02*
X100750000Y-101250000D01*
%TO.N,3.3V_AUX*%
D33*
X112592500Y-107250000D02*
X112592500Y-107950000D01*
%TO.N,/SENSOR_SCL*%
D32*
X114360000Y-107250000D02*
X114700000Y-106910000D01*
X113415000Y-107250000D02*
X114360000Y-107250000D01*
X113407500Y-107242500D02*
X113415000Y-107250000D01*
X113407500Y-107250000D02*
X113407500Y-107242500D01*
%TO.N,/SENSOR_SDA*%
X113657500Y-108200000D02*
X113407500Y-107950000D01*
X114570000Y-108200000D02*
X113657500Y-108200000D01*
X114700000Y-108070000D02*
X114570000Y-108200000D01*
%TO.N,/SENSOR_SCL*%
X102650000Y-100600000D02*
X103850000Y-100600000D01*
X102400000Y-100850000D02*
X102650000Y-100600000D01*
%TO.N,/SENSOR_SDA*%
X103500000Y-100100000D02*
X103850000Y-100100000D01*
X102399999Y-100099999D02*
X103499999Y-100099999D01*
X102350000Y-100050000D02*
X102399999Y-100099999D01*
X103499999Y-100099999D02*
X103500000Y-100100000D01*
%TO.N,3.3V_AUX*%
D33*
X104500000Y-101100000D02*
X104750000Y-100850000D01*
X96687500Y-96487500D02*
X96800000Y-96375000D01*
X105050000Y-100100000D02*
X105650000Y-100100000D01*
X96800000Y-96375000D02*
X96800000Y-94087554D01*
X103850000Y-101100000D02*
X104500000Y-101100000D01*
X104750000Y-100400000D02*
X105050000Y-100100000D01*
X104750000Y-100850000D02*
X104750000Y-100400000D01*
X96800000Y-94087554D02*
X96918777Y-93968777D01*
%TO.N,/B_PW*%
D32*
X113050000Y-92950000D02*
X113200000Y-92950000D01*
X113350000Y-93100000D02*
X113350000Y-94275000D01*
X113200000Y-92950000D02*
X113350000Y-93100000D01*
%TO.N,3.3V_GPS*%
D34*
X114750000Y-96050000D02*
X115150000Y-96050000D01*
X115450000Y-96350000D02*
X115450000Y-96650000D01*
X115450000Y-96650000D02*
X115150000Y-96950000D01*
X115150000Y-96050000D02*
X115450000Y-96350000D01*
%TO.N,/GPS_EN*%
D32*
X107040000Y-107052500D02*
X107040000Y-107082500D01*
X106550000Y-106608592D02*
X106596092Y-106608592D01*
X106596092Y-106608592D02*
X107040000Y-107052500D01*
X107040000Y-107082500D02*
X107100000Y-107142500D01*
%TO.N,Net-(LEDGREEN1-A)*%
X98190000Y-106640000D02*
X98190000Y-106745000D01*
X97850000Y-106020000D02*
X97850000Y-106300000D01*
X97850000Y-106300000D02*
X98190000Y-106640000D01*
%TO.N,/B1*%
X107557500Y-93007500D02*
X107650000Y-93100000D01*
X107300000Y-93007500D02*
X107557500Y-93007500D01*
X107650000Y-93100000D02*
X107650000Y-94275000D01*
%TO.N,Net-(PA1010D1-TX)*%
X107395273Y-104352727D02*
X107652727Y-104352727D01*
X107652727Y-104352727D02*
X109350000Y-106050000D01*
%TO.N,Net-(LEDBLUE1-A)*%
X97250000Y-106450000D02*
X97250000Y-106745000D01*
X97000000Y-106200000D02*
X97250000Y-106450000D01*
%TO.N,/AUX_EN*%
X110150000Y-106424998D02*
X110150000Y-107142500D01*
X110151981Y-106423017D02*
X110150000Y-106424998D01*
X110151981Y-106405000D02*
X110151981Y-106423017D01*
%TO.N,Net-(PA1010D1-RX)*%
X107750000Y-105050000D02*
X107750000Y-106050000D01*
X107450000Y-104900000D02*
X107600000Y-104900000D01*
X107600000Y-104900000D02*
X107750000Y-105050000D01*
%TO.N,Net-(J3-CC2)*%
D35*
X99725000Y-98230000D02*
X99705000Y-98250000D01*
%TO.N,/D-*%
D33*
X101552500Y-99525000D02*
X101067501Y-99525000D01*
X99980000Y-99750000D02*
X100842501Y-99750000D01*
X100842501Y-100462498D02*
X100842501Y-99750000D01*
X101067501Y-99525000D02*
X100842501Y-99750000D01*
X102025591Y-99520000D02*
X101557500Y-99520000D01*
X99980000Y-100750000D02*
X100554999Y-100750000D01*
X100554999Y-100750000D02*
X100842501Y-100462498D01*
X102036978Y-99508613D02*
X102025591Y-99520000D01*
X102130908Y-99508613D02*
X102036978Y-99508613D01*
X101557500Y-99520000D02*
X101552500Y-99525000D01*
%TO.N,/D+*%
X99150000Y-99543302D02*
X99443302Y-99250000D01*
X99150000Y-100100000D02*
X99150000Y-99543302D01*
X100700000Y-99250000D02*
X99980000Y-99250000D01*
X102151406Y-98932341D02*
X102058747Y-99025000D01*
X102058747Y-99025000D02*
X100925000Y-99025000D01*
X99443302Y-99250000D02*
X99980000Y-99250000D01*
X100925000Y-99025000D02*
X100700000Y-99250000D01*
X99300000Y-100250000D02*
X99150000Y-100100000D01*
X99980000Y-100250000D02*
X99300000Y-100250000D01*
%TO.N,Net-(IC5-~{CHRG})*%
D32*
X99675000Y-107735000D02*
X99150000Y-107735000D01*
X103200000Y-108000000D02*
X99940000Y-108000000D01*
X103420000Y-105005000D02*
X103420000Y-107780000D01*
X103420000Y-107780000D02*
X103200000Y-108000000D01*
X99940000Y-108000000D02*
X99675000Y-107735000D01*
X103450000Y-104975000D02*
X103420000Y-105005000D01*
X99150000Y-107735000D02*
X99130000Y-107715000D01*
%TO.N,Net-(LEDRED1-A)*%
X98910000Y-106525000D02*
X99130000Y-106745000D01*
X98910000Y-105367500D02*
X98910000Y-106525000D01*
X98892500Y-105350000D02*
X98910000Y-105367500D01*
%TO.N,vusb*%
D33*
X100050000Y-105350000D02*
X99707500Y-105350000D01*
X100324842Y-102400000D02*
X100850000Y-102925158D01*
X100850000Y-102925158D02*
X100850000Y-104550000D01*
X100850000Y-104550000D02*
X100050000Y-105350000D01*
X99980000Y-102400000D02*
X100324842Y-102400000D01*
%TD*%
%TA.AperFunction,Conductor*%
%TO.N,vusb*%
G36*
X100410897Y-97256607D02*
G01*
X100445804Y-97261777D01*
X100460787Y-97266245D01*
X100519402Y-97304267D01*
X100520594Y-97305654D01*
X100547804Y-97360599D01*
X100549416Y-97368162D01*
X100552139Y-97394536D01*
X100550598Y-97758697D01*
X100545426Y-97793613D01*
X100540959Y-97808590D01*
X100502935Y-97867207D01*
X100502924Y-97867216D01*
X100501443Y-97868488D01*
X100446770Y-97895639D01*
X100439442Y-97897218D01*
X100413323Y-97900000D01*
X98950004Y-97900000D01*
X98830003Y-97979997D01*
X98830004Y-97979998D01*
X98650000Y-98099999D01*
X98650000Y-102050000D01*
X98800000Y-102200000D01*
X98800001Y-102200000D01*
X98806221Y-102202577D01*
X98818730Y-102204223D01*
X98849198Y-102212386D01*
X98871088Y-102221455D01*
X98871116Y-102221389D01*
X98878627Y-102224500D01*
X98878629Y-102224500D01*
X98878630Y-102224501D01*
X98960144Y-102246342D01*
X98960147Y-102246342D01*
X99044531Y-102246342D01*
X99044534Y-102246342D01*
X99126048Y-102224501D01*
X99199131Y-102182306D01*
X99258803Y-102122634D01*
X99258805Y-102122631D01*
X99263747Y-102116191D01*
X99264451Y-102116731D01*
X99277840Y-102099701D01*
X99291470Y-102086706D01*
X99347802Y-102055950D01*
X99357927Y-102053493D01*
X99387154Y-102050000D01*
X101222085Y-102050000D01*
X101240512Y-102051376D01*
X101258651Y-102054103D01*
X101276667Y-102058204D01*
X101900000Y-102250000D01*
X101981843Y-102250000D01*
X101998023Y-102251060D01*
X102014002Y-102253163D01*
X102029915Y-102256328D01*
X102082805Y-102270500D01*
X102082807Y-102270500D01*
X102167192Y-102270500D01*
X102167193Y-102270500D01*
X102167195Y-102270500D01*
X102220092Y-102256325D01*
X102235998Y-102253163D01*
X102251979Y-102251060D01*
X102268157Y-102250000D01*
X102588673Y-102250000D01*
X102623607Y-102255023D01*
X102651776Y-102263294D01*
X102694303Y-102285442D01*
X102896662Y-102447330D01*
X103089541Y-102601633D01*
X103113683Y-102627380D01*
X103127318Y-102646870D01*
X103148072Y-102697839D01*
X103148358Y-102699579D01*
X103150000Y-102719691D01*
X103150000Y-103408170D01*
X103144975Y-103443114D01*
X103140570Y-103458112D01*
X103102827Y-103516855D01*
X103101458Y-103518042D01*
X103046597Y-103545518D01*
X103039039Y-103547163D01*
X103012668Y-103550000D01*
X102802002Y-103550000D01*
X102768417Y-103545365D01*
X102736704Y-103536442D01*
X102705629Y-103522884D01*
X102547091Y-103426000D01*
X102517915Y-103408170D01*
X102300000Y-103275000D01*
X102299999Y-103275000D01*
X102217982Y-103275000D01*
X102188641Y-103271479D01*
X102185822Y-103270792D01*
X102148234Y-103259755D01*
X102147526Y-103261465D01*
X102144086Y-103260627D01*
X102136032Y-103257291D01*
X102105229Y-103251164D01*
X102105195Y-103251156D01*
X102071726Y-103244500D01*
X102071723Y-103244500D01*
X101929565Y-103244500D01*
X101894629Y-103239477D01*
X101867793Y-103231597D01*
X101821074Y-103205939D01*
X101767523Y-103159081D01*
X101744542Y-103132299D01*
X101735637Y-103118295D01*
X101716279Y-103052932D01*
X101716146Y-103038846D01*
X101720365Y-103005584D01*
X101720500Y-103005084D01*
X101720500Y-102920694D01*
X101706327Y-102867797D01*
X101703164Y-102851893D01*
X101701061Y-102835918D01*
X101700000Y-102819734D01*
X101700000Y-102750000D01*
X101699997Y-102749997D01*
X101647488Y-102732494D01*
X101628546Y-102724375D01*
X101610264Y-102714667D01*
X101599535Y-102708257D01*
X101596801Y-102706430D01*
X101523710Y-102664230D01*
X101466641Y-102648939D01*
X101442196Y-102642389D01*
X101442195Y-102642389D01*
X101357802Y-102642389D01*
X101353010Y-102643673D01*
X101337109Y-102646835D01*
X101321130Y-102648939D01*
X101304950Y-102650000D01*
X100899999Y-102650000D01*
X100693902Y-102773657D01*
X100663208Y-102786827D01*
X100631898Y-102795500D01*
X100598800Y-102800000D01*
X100558975Y-102800000D01*
X100534879Y-102797636D01*
X100491407Y-102789024D01*
X100469821Y-102787093D01*
X100431648Y-102779500D01*
X100431644Y-102779500D01*
X100431640Y-102779500D01*
X99528360Y-102779500D01*
X99528355Y-102779500D01*
X99490161Y-102787097D01*
X99485800Y-102787883D01*
X99437116Y-102795769D01*
X99437019Y-102795279D01*
X99423003Y-102798055D01*
X99420853Y-102798404D01*
X99419291Y-102798207D01*
X99401024Y-102800000D01*
X98379830Y-102800000D01*
X98344892Y-102794976D01*
X98323043Y-102788560D01*
X98273524Y-102760375D01*
X98270901Y-102757935D01*
X98256158Y-102741544D01*
X98035498Y-102447330D01*
X98018555Y-102416368D01*
X98007857Y-102387764D01*
X98000000Y-102344326D01*
X98000000Y-97680119D01*
X98001601Y-97660257D01*
X98004762Y-97640777D01*
X98009519Y-97621442D01*
X98016101Y-97601696D01*
X98031909Y-97570151D01*
X98040836Y-97557307D01*
X98095255Y-97513495D01*
X98105119Y-97509415D01*
X98152513Y-97500000D01*
X98650000Y-97500000D01*
X98801436Y-97310704D01*
X98827174Y-97286570D01*
X98846559Y-97273008D01*
X98897830Y-97252208D01*
X98899814Y-97251887D01*
X98920140Y-97250296D01*
X100410897Y-97256607D01*
G37*
%TD.AperFunction*%
%TD*%
%TA.AperFunction,Conductor*%
%TO.N,BAT+*%
G36*
X102993106Y-104555023D02*
G01*
X103008104Y-104559427D01*
X103066855Y-104597172D01*
X103068042Y-104598541D01*
X103087907Y-104642004D01*
X103091363Y-104640908D01*
X103094195Y-104649835D01*
X103095582Y-104658794D01*
X103097087Y-104662087D01*
X103096608Y-104665423D01*
X103100000Y-104687331D01*
X103100000Y-105400000D01*
X103169284Y-105503927D01*
X103184482Y-105535778D01*
X103194372Y-105567477D01*
X103200000Y-105604409D01*
X103200000Y-107430808D01*
X103194976Y-107465745D01*
X103187564Y-107490986D01*
X103156269Y-107543731D01*
X102998782Y-107701217D01*
X102970528Y-107722367D01*
X102947385Y-107735004D01*
X102888306Y-107750172D01*
X102697573Y-107750707D01*
X102662622Y-107745780D01*
X102647609Y-107741418D01*
X102588754Y-107703835D01*
X102587563Y-107702469D01*
X102559934Y-107647675D01*
X102558267Y-107640116D01*
X102555361Y-107613778D01*
X102550193Y-105769381D01*
X102555117Y-105734445D01*
X102562444Y-105709234D01*
X102593836Y-105656161D01*
X102650000Y-105600000D01*
X102650000Y-104691829D01*
X102655023Y-104656893D01*
X102659427Y-104641895D01*
X102697172Y-104583144D01*
X102698541Y-104581957D01*
X102753420Y-104554477D01*
X102760979Y-104552833D01*
X102787332Y-104550000D01*
X102958170Y-104550000D01*
X102993106Y-104555023D01*
G37*
%TD.AperFunction*%
%TD*%
%TA.AperFunction,Conductor*%
%TO.N,3.3V_AUX*%
G36*
X105493106Y-96205023D02*
G01*
X105508104Y-96209427D01*
X105566855Y-96247172D01*
X105568042Y-96248541D01*
X105587907Y-96292004D01*
X105591363Y-96290908D01*
X105594195Y-96299835D01*
X105595582Y-96308794D01*
X105597087Y-96312087D01*
X105596608Y-96315423D01*
X105600000Y-96337331D01*
X105600000Y-96773994D01*
X105598801Y-96791194D01*
X105596428Y-96808136D01*
X105592856Y-96825002D01*
X105500000Y-97149992D01*
X105500000Y-97750000D01*
X105501553Y-97753107D01*
X105516603Y-97767884D01*
X105532253Y-97788055D01*
X105532293Y-97788027D01*
X105562229Y-97826460D01*
X105563117Y-97828708D01*
X105567503Y-97833765D01*
X105591028Y-97868972D01*
X105663965Y-97917707D01*
X105663966Y-97917707D01*
X105663967Y-97917708D01*
X105702478Y-97925367D01*
X105702484Y-97925370D01*
X105702484Y-97925368D01*
X105728281Y-97930500D01*
X105971718Y-97930499D01*
X106036035Y-97917707D01*
X106036038Y-97917704D01*
X106044779Y-97914084D01*
X106047477Y-97913418D01*
X106048358Y-97915543D01*
X106083560Y-97904521D01*
X106087274Y-97903606D01*
X106092013Y-97903813D01*
X106116961Y-97900000D01*
X106308170Y-97900000D01*
X106343106Y-97905023D01*
X106358104Y-97909427D01*
X106416855Y-97947172D01*
X106418042Y-97948541D01*
X106445518Y-98003402D01*
X106447163Y-98010960D01*
X106450000Y-98037331D01*
X106450000Y-102780808D01*
X106444976Y-102815745D01*
X106437564Y-102840986D01*
X106406269Y-102893730D01*
X106148926Y-103151073D01*
X106120675Y-103172222D01*
X106097587Y-103184830D01*
X106038157Y-103200000D01*
X105192677Y-103200000D01*
X105180515Y-103199402D01*
X105168441Y-103198212D01*
X105156413Y-103196428D01*
X105146720Y-103194500D01*
X104941830Y-103194500D01*
X104906889Y-103189475D01*
X104891890Y-103185070D01*
X104833144Y-103147327D01*
X104831957Y-103145958D01*
X104804477Y-103091083D01*
X104802832Y-103083521D01*
X104800000Y-103057168D01*
X104800000Y-102535898D01*
X104805022Y-102500965D01*
X104810727Y-102481535D01*
X104842215Y-102428598D01*
X104847883Y-102422955D01*
X104868787Y-102406225D01*
X105350000Y-102100000D01*
X105350000Y-101591829D01*
X105355023Y-101556893D01*
X105359427Y-101541895D01*
X105397172Y-101483144D01*
X105398541Y-101481957D01*
X105453420Y-101454477D01*
X105460979Y-101452833D01*
X105487332Y-101450000D01*
X105650000Y-101450000D01*
X106100000Y-101350000D01*
X106100000Y-100400000D01*
X106100000Y-100399999D01*
X105985713Y-100314285D01*
X105900000Y-100250000D01*
X105899999Y-100250000D01*
X105480049Y-100250000D01*
X105445099Y-100244973D01*
X105439050Y-100243196D01*
X105380277Y-100205414D01*
X105351260Y-100141854D01*
X105350000Y-100124223D01*
X105350000Y-100074000D01*
X105369685Y-100006961D01*
X105422489Y-99961206D01*
X105474000Y-99950000D01*
X105650000Y-99950000D01*
X105800000Y-99800000D01*
X105800000Y-99050000D01*
X105800000Y-99049999D01*
X105800000Y-99049998D01*
X105113862Y-98535395D01*
X105088930Y-98510419D01*
X105075300Y-98492178D01*
X105052589Y-98439889D01*
X105051955Y-98436361D01*
X105050000Y-98414429D01*
X105050000Y-97916666D01*
X104792384Y-97744922D01*
X104786037Y-97742293D01*
X104786030Y-97742291D01*
X104786028Y-97742291D01*
X104748136Y-97734754D01*
X104748135Y-97734754D01*
X104721722Y-97729500D01*
X104721719Y-97729500D01*
X104721717Y-97729500D01*
X104478283Y-97729500D01*
X104464250Y-97732291D01*
X104453192Y-97734490D01*
X104451701Y-97734777D01*
X104401861Y-97744055D01*
X104401813Y-97743810D01*
X104381866Y-97747777D01*
X104381177Y-97747906D01*
X104380471Y-97747834D01*
X104358483Y-97750000D01*
X103917982Y-97750000D01*
X103883046Y-97744977D01*
X103822346Y-97727153D01*
X103816554Y-97728093D01*
X103807801Y-97726675D01*
X103771722Y-97719500D01*
X103771721Y-97719500D01*
X103541830Y-97719500D01*
X103506889Y-97714475D01*
X103491890Y-97710070D01*
X103433144Y-97672327D01*
X103431957Y-97670958D01*
X103404477Y-97616083D01*
X103402832Y-97608521D01*
X103400000Y-97582168D01*
X103400000Y-97075234D01*
X103405022Y-97040301D01*
X103411991Y-97016565D01*
X103437786Y-96969691D01*
X103437834Y-96969636D01*
X103450763Y-96956924D01*
X103805166Y-96656199D01*
X103801823Y-96393397D01*
X103806401Y-96358410D01*
X103810616Y-96343349D01*
X103847616Y-96284121D01*
X103848659Y-96283193D01*
X103903947Y-96254851D01*
X103912202Y-96253000D01*
X103939317Y-96250000D01*
X104208170Y-96250000D01*
X104243106Y-96255023D01*
X104258104Y-96259427D01*
X104316855Y-96297172D01*
X104318042Y-96298541D01*
X104345518Y-96353402D01*
X104347163Y-96360960D01*
X104350000Y-96387331D01*
X104350000Y-96750000D01*
X104385482Y-96750261D01*
X104409207Y-96752732D01*
X104427319Y-96756405D01*
X104436475Y-96759959D01*
X104436739Y-96759009D01*
X104439750Y-96759843D01*
X104444886Y-96761897D01*
X104448487Y-96762614D01*
X104448486Y-96762614D01*
X104452981Y-96763508D01*
X104452983Y-96763509D01*
X104452986Y-96763509D01*
X104452987Y-96763509D01*
X104452988Y-96763510D01*
X104485186Y-96769914D01*
X104487393Y-96770409D01*
X104488127Y-96770500D01*
X104861870Y-96770500D01*
X104861871Y-96770500D01*
X104862012Y-96770486D01*
X104909036Y-96761323D01*
X104909038Y-96761332D01*
X104932434Y-96756766D01*
X104932450Y-96756767D01*
X104957051Y-96754480D01*
X105045902Y-96755137D01*
X105048959Y-96340908D01*
X105054240Y-96306014D01*
X105056104Y-96299835D01*
X105058754Y-96291048D01*
X105096960Y-96232554D01*
X105098538Y-96231206D01*
X105153122Y-96204266D01*
X105160278Y-96202737D01*
X105186188Y-96200000D01*
X105458170Y-96200000D01*
X105493106Y-96205023D01*
G37*
%TD.AperFunction*%
%TD*%
%TA.AperFunction,Conductor*%
%TO.N,GND*%
G36*
X104542548Y-91720227D02*
G01*
X105050000Y-92200000D01*
X105675000Y-92200000D01*
X105675000Y-91944000D01*
X105696674Y-91891674D01*
X105749000Y-91870000D01*
X105851000Y-91870000D01*
X105903326Y-91891674D01*
X105925000Y-91944000D01*
X105925000Y-92200000D01*
X106549999Y-92200000D01*
X106552366Y-92200000D01*
X106600651Y-92180000D01*
X107118954Y-92180000D01*
X107171280Y-92201674D01*
X107192766Y-92248728D01*
X107199373Y-92341233D01*
X107198554Y-92358671D01*
X107142091Y-92697446D01*
X107112110Y-92745496D01*
X107106103Y-92749363D01*
X107103211Y-92751032D01*
X107043533Y-92810710D01*
X107001337Y-92883796D01*
X107001331Y-92883808D01*
X107001305Y-92883859D01*
X107001054Y-92884859D01*
X106979500Y-92965304D01*
X106979500Y-93049697D01*
X106991795Y-93095581D01*
X106991794Y-93095582D01*
X106991796Y-93095585D01*
X107001339Y-93131205D01*
X107001340Y-93131208D01*
X107001341Y-93131209D01*
X107001343Y-93131213D01*
X107035095Y-93189673D01*
X107043534Y-93204290D01*
X107103208Y-93263964D01*
X107103618Y-93264260D01*
X107105118Y-93265067D01*
X107118179Y-93272608D01*
X107133069Y-93281205D01*
X107133070Y-93281205D01*
X107167784Y-93301247D01*
X107175825Y-93306620D01*
X107198778Y-93324231D01*
X107227099Y-93373279D01*
X107227146Y-93373649D01*
X107228914Y-93387617D01*
X107229500Y-93396909D01*
X107229500Y-95186871D01*
X107230889Y-95193859D01*
X107236488Y-95222015D01*
X107236489Y-95222016D01*
X107261178Y-95258963D01*
X107261180Y-95258971D01*
X107261183Y-95258970D01*
X107261184Y-95258972D01*
X107263124Y-95261876D01*
X107263125Y-95261877D01*
X107278419Y-95272096D01*
X107302983Y-95288509D01*
X107338130Y-95295500D01*
X107961870Y-95295500D01*
X107997017Y-95288509D01*
X108036876Y-95261876D01*
X108063509Y-95222017D01*
X108070500Y-95186870D01*
X108070500Y-93400509D01*
X108074297Y-93377109D01*
X108078957Y-93363129D01*
X108379500Y-93363129D01*
X108379500Y-95186871D01*
X108380889Y-95193859D01*
X108386488Y-95222015D01*
X108386489Y-95222016D01*
X108411178Y-95258963D01*
X108411180Y-95258971D01*
X108411183Y-95258970D01*
X108411184Y-95258972D01*
X108413124Y-95261876D01*
X108413125Y-95261877D01*
X108428419Y-95272096D01*
X108452983Y-95288509D01*
X108488130Y-95295500D01*
X109261870Y-95295500D01*
X109297017Y-95288509D01*
X109336876Y-95261876D01*
X109363509Y-95222017D01*
X109369922Y-95189778D01*
X111600001Y-95189778D01*
X111606412Y-95222015D01*
X111608701Y-95233524D01*
X111641851Y-95283138D01*
X111641854Y-95283142D01*
X111641855Y-95283143D01*
X111641856Y-95283144D01*
X111691472Y-95316296D01*
X111735226Y-95324999D01*
X111975000Y-95324999D01*
X112275000Y-95324999D01*
X112514779Y-95324999D01*
X112558524Y-95316298D01*
X112608143Y-95283144D01*
X112608144Y-95283143D01*
X112641296Y-95233527D01*
X112650000Y-95189773D01*
X112650000Y-94425000D01*
X112275000Y-94425000D01*
X112275000Y-95324999D01*
X111975000Y-95324999D01*
X111975000Y-94425000D01*
X111600001Y-94425000D01*
X111600001Y-95189778D01*
X109369922Y-95189778D01*
X109370500Y-95186870D01*
X109370500Y-94474969D01*
X109372068Y-94459816D01*
X109374584Y-94447793D01*
X109382928Y-94425952D01*
X109398659Y-94398709D01*
X109420500Y-94317195D01*
X109420500Y-94232805D01*
X109398659Y-94151291D01*
X109385283Y-94128123D01*
X109377890Y-94110274D01*
X109373019Y-94092094D01*
X109370500Y-94072949D01*
X109370500Y-93891147D01*
X109376129Y-93862838D01*
X109380443Y-93852423D01*
X109420482Y-93812377D01*
X109421321Y-93812029D01*
X109468756Y-93808928D01*
X109472091Y-93809821D01*
X109489931Y-93817211D01*
X109572164Y-93864688D01*
X109701133Y-93899244D01*
X109704831Y-93900500D01*
X109844185Y-93900500D01*
X109854448Y-93900500D01*
X109863336Y-93895367D01*
X109977836Y-93864688D01*
X110097665Y-93795505D01*
X110195505Y-93697665D01*
X110264688Y-93577836D01*
X110295367Y-93463336D01*
X110300500Y-93454447D01*
X110300500Y-93308255D01*
X110300500Y-93305815D01*
X110300499Y-93305814D01*
X110699500Y-93305814D01*
X110699500Y-93444185D01*
X110735310Y-93577831D01*
X110735312Y-93577836D01*
X110804495Y-93697665D01*
X110902335Y-93795505D01*
X111022164Y-93864688D01*
X111155814Y-93900499D01*
X111155815Y-93900500D01*
X111155817Y-93900500D01*
X111194641Y-93900500D01*
X111196957Y-93900645D01*
X111201227Y-93902735D01*
X111227320Y-93909293D01*
X111560989Y-94088335D01*
X111575534Y-94106117D01*
X111578326Y-94103326D01*
X111600000Y-94125000D01*
X111975000Y-94125000D01*
X112275000Y-94125000D01*
X112649999Y-94125000D01*
X112649999Y-93360221D01*
X112641298Y-93316475D01*
X112608144Y-93266856D01*
X112608143Y-93266855D01*
X112604260Y-93264260D01*
X112558526Y-93233702D01*
X112514773Y-93225000D01*
X112275000Y-93225000D01*
X112275000Y-94125000D01*
X111975000Y-94125000D01*
X111975000Y-93233067D01*
X111980798Y-93204353D01*
X112100629Y-92919754D01*
X112140909Y-92879941D01*
X112156364Y-92876118D01*
X112156283Y-92875708D01*
X112159847Y-92874999D01*
X112159848Y-92874999D01*
X112189018Y-92869197D01*
X112189019Y-92869196D01*
X112189020Y-92869196D01*
X112222088Y-92847102D01*
X112222089Y-92847100D01*
X112222093Y-92847098D01*
X112222096Y-92847095D01*
X112244198Y-92814017D01*
X112250000Y-92784848D01*
X112250000Y-92475000D01*
X110750001Y-92475000D01*
X110750001Y-92784848D01*
X110755802Y-92814018D01*
X110755802Y-92814019D01*
X110757224Y-92821165D01*
X110756950Y-92821219D01*
X110760561Y-92838003D01*
X110768513Y-93092452D01*
X110758636Y-93131762D01*
X110735311Y-93172163D01*
X110725925Y-93207192D01*
X110699500Y-93305814D01*
X110300499Y-93305814D01*
X110289285Y-93263964D01*
X110264688Y-93172164D01*
X110195505Y-93052335D01*
X110149977Y-93006807D01*
X110133938Y-92982804D01*
X110129745Y-92972680D01*
X110129746Y-92916045D01*
X110163226Y-92879105D01*
X110167782Y-92876669D01*
X110188229Y-92869353D01*
X110189017Y-92869197D01*
X110222093Y-92847098D01*
X110222096Y-92847095D01*
X110244198Y-92814017D01*
X110250000Y-92784848D01*
X110250000Y-92475000D01*
X108750001Y-92475000D01*
X108750001Y-92784848D01*
X108753868Y-92804294D01*
X108755802Y-92814019D01*
X108777898Y-92847090D01*
X108777901Y-92847093D01*
X108777904Y-92847096D01*
X108810982Y-92869198D01*
X108840151Y-92874999D01*
X109338459Y-92874999D01*
X109366773Y-92880630D01*
X109374136Y-92883680D01*
X109414184Y-92923727D01*
X109414186Y-92980364D01*
X109414182Y-92980372D01*
X109411133Y-92987731D01*
X109395095Y-93011731D01*
X109354497Y-93052329D01*
X109285310Y-93172164D01*
X109285276Y-93172232D01*
X109285023Y-93173241D01*
X109281754Y-93185439D01*
X109268985Y-93211330D01*
X109258761Y-93224655D01*
X109219215Y-93251084D01*
X109215888Y-93251976D01*
X109196725Y-93254500D01*
X108488130Y-93254500D01*
X108470556Y-93257995D01*
X108452982Y-93261490D01*
X108413127Y-93288120D01*
X108413121Y-93288126D01*
X108386490Y-93327983D01*
X108384062Y-93340195D01*
X108380079Y-93360222D01*
X108380078Y-93360227D01*
X108379500Y-93363129D01*
X108078957Y-93363129D01*
X108079926Y-93360221D01*
X108250000Y-92850000D01*
X108287949Y-92242805D01*
X112679500Y-92242805D01*
X112679500Y-92327195D01*
X112680249Y-92329990D01*
X112680249Y-92329991D01*
X112685251Y-92348659D01*
X112685250Y-92348659D01*
X112701339Y-92408702D01*
X112701341Y-92408709D01*
X112740086Y-92475817D01*
X112750000Y-92512817D01*
X112750000Y-92821551D01*
X112747479Y-92840702D01*
X112730408Y-92904415D01*
X112729500Y-92907805D01*
X112729500Y-92992195D01*
X112737755Y-93023005D01*
X112744905Y-93049691D01*
X112751339Y-93073704D01*
X112751341Y-93073709D01*
X112751343Y-93073713D01*
X112774322Y-93113514D01*
X112793534Y-93146790D01*
X112853290Y-93206546D01*
X112854157Y-93207192D01*
X112854694Y-93207605D01*
X112855968Y-93209224D01*
X112857426Y-93210682D01*
X112857252Y-93210855D01*
X112877203Y-93236209D01*
X112921044Y-93334852D01*
X112927239Y-93370111D01*
X112927046Y-93372843D01*
X112927046Y-93372850D01*
X112928915Y-93387621D01*
X112929500Y-93396908D01*
X112929500Y-95186871D01*
X112930889Y-95193859D01*
X112936488Y-95222015D01*
X112936489Y-95222016D01*
X112961178Y-95258963D01*
X112961180Y-95258971D01*
X112961183Y-95258970D01*
X112961184Y-95258972D01*
X112963124Y-95261876D01*
X112963125Y-95261877D01*
X112978419Y-95272096D01*
X113002983Y-95288509D01*
X113038130Y-95295500D01*
X113661870Y-95295500D01*
X113697017Y-95288509D01*
X113736876Y-95261876D01*
X113763509Y-95222017D01*
X113769922Y-95189778D01*
X114050001Y-95189778D01*
X114056412Y-95222015D01*
X114058701Y-95233524D01*
X114091851Y-95283138D01*
X114091854Y-95283142D01*
X114091855Y-95283143D01*
X114091856Y-95283144D01*
X114141472Y-95316296D01*
X114185226Y-95324999D01*
X114425000Y-95324999D01*
X114725000Y-95324999D01*
X114964779Y-95324999D01*
X115008524Y-95316298D01*
X115058143Y-95283144D01*
X115058144Y-95283143D01*
X115091296Y-95233527D01*
X115100000Y-95189773D01*
X115100000Y-94425000D01*
X114725000Y-94425000D01*
X114725000Y-95324999D01*
X114425000Y-95324999D01*
X114425000Y-94425000D01*
X114050001Y-94425000D01*
X114050001Y-95189778D01*
X113769922Y-95189778D01*
X113770500Y-95186870D01*
X113770500Y-93430590D01*
X113931419Y-93430590D01*
X114045143Y-94120143D01*
X114050000Y-94125000D01*
X114425000Y-94125000D01*
X114425000Y-93225000D01*
X114185234Y-93225000D01*
X114185230Y-93225000D01*
X114163429Y-93229335D01*
X114141474Y-93233702D01*
X114091855Y-93266855D01*
X114091854Y-93266856D01*
X114058703Y-93316471D01*
X114051206Y-93354161D01*
X114044023Y-93374357D01*
X114043935Y-93374522D01*
X114037877Y-93385855D01*
X114037674Y-93386344D01*
X114036618Y-93388339D01*
X114016108Y-93405301D01*
X113996156Y-93423378D01*
X113988094Y-93426263D01*
X113963161Y-93430590D01*
X113931419Y-93430590D01*
X113770500Y-93430590D01*
X113770500Y-93363130D01*
X113768317Y-93352156D01*
X113768906Y-93320584D01*
X113896463Y-92784848D01*
X114450001Y-92784848D01*
X114453868Y-92804294D01*
X114455802Y-92814019D01*
X114477898Y-92847090D01*
X114477901Y-92847093D01*
X114477904Y-92847096D01*
X114510976Y-92869194D01*
X114517042Y-92873247D01*
X114516382Y-92874234D01*
X114547424Y-92902236D01*
X114716098Y-93214282D01*
X114725000Y-93249469D01*
X114725000Y-94125000D01*
X115099999Y-94125000D01*
X115099999Y-94086014D01*
X115121673Y-94033688D01*
X115134776Y-94023263D01*
X115326302Y-93903559D01*
X115382160Y-93894207D01*
X115384657Y-93894829D01*
X115401127Y-93899243D01*
X115404830Y-93900500D01*
X115544185Y-93900500D01*
X115554448Y-93900500D01*
X115563336Y-93895367D01*
X115677836Y-93864688D01*
X115797665Y-93795505D01*
X115895505Y-93697665D01*
X115964688Y-93577836D01*
X115995367Y-93463336D01*
X116000500Y-93454447D01*
X116000500Y-93304830D01*
X115999241Y-93301121D01*
X115995759Y-93288127D01*
X115989285Y-93263964D01*
X115964688Y-93172164D01*
X115949912Y-93146571D01*
X115940000Y-93109574D01*
X115940000Y-92838870D01*
X115943494Y-92821308D01*
X115942776Y-92821166D01*
X115950000Y-92784847D01*
X115950000Y-92475000D01*
X114450001Y-92475000D01*
X114450001Y-92784848D01*
X113896463Y-92784848D01*
X113971613Y-92469221D01*
X113979015Y-92450244D01*
X113979231Y-92449856D01*
X113998659Y-92416209D01*
X114020500Y-92334695D01*
X114020500Y-92250305D01*
X113998659Y-92168791D01*
X113994326Y-92161286D01*
X113982012Y-92139957D01*
X113982008Y-92139952D01*
X113957560Y-92097606D01*
X113956680Y-92095971D01*
X113956544Y-92095788D01*
X113896790Y-92036034D01*
X113872429Y-92021969D01*
X113823713Y-91993843D01*
X113823709Y-91993841D01*
X113823702Y-91993839D01*
X113795725Y-91986342D01*
X113795725Y-91986343D01*
X113742195Y-91972000D01*
X113742194Y-91972000D01*
X113657805Y-91972000D01*
X113617047Y-91982920D01*
X113617046Y-91982919D01*
X113576289Y-91993840D01*
X113572795Y-91995167D01*
X113572316Y-91993906D01*
X113546503Y-92000000D01*
X113167196Y-92000000D01*
X113130195Y-91990085D01*
X113123721Y-91986347D01*
X113123713Y-91986343D01*
X113123709Y-91986341D01*
X113123702Y-91986339D01*
X113070186Y-91971999D01*
X113070186Y-91972000D01*
X113042195Y-91964500D01*
X113042194Y-91964500D01*
X112957806Y-91964500D01*
X112957805Y-91964500D01*
X112951890Y-91966084D01*
X112929814Y-91971999D01*
X112929814Y-91972000D01*
X112876290Y-91986341D01*
X112876288Y-91986342D01*
X112803210Y-92028533D01*
X112743533Y-92088210D01*
X112701339Y-92161292D01*
X112701339Y-92161293D01*
X112699057Y-92169810D01*
X112699055Y-92169819D01*
X112697668Y-92175000D01*
X112679500Y-92242805D01*
X108287949Y-92242805D01*
X108289383Y-92219860D01*
X108304682Y-92179234D01*
X108397782Y-92058751D01*
X108446927Y-92030601D01*
X108456337Y-92030000D01*
X108676000Y-92030000D01*
X108728326Y-92051674D01*
X108750000Y-92104000D01*
X108750000Y-92175000D01*
X109350000Y-92175000D01*
X109350000Y-91934000D01*
X109371674Y-91881674D01*
X109424000Y-91860000D01*
X109576000Y-91860000D01*
X109628326Y-91881674D01*
X109650000Y-91934000D01*
X109650000Y-92175000D01*
X110249999Y-92175000D01*
X110259438Y-92175000D01*
X110295651Y-92160000D01*
X110704348Y-92160000D01*
X110740561Y-92175000D01*
X110750000Y-92175000D01*
X112249999Y-92175000D01*
X112249999Y-92019155D01*
X112271046Y-91967464D01*
X112509878Y-91722807D01*
X112561939Y-91700505D01*
X112562830Y-91700500D01*
X114393165Y-91700500D01*
X114421477Y-91706130D01*
X114431599Y-91710323D01*
X114471648Y-91750368D01*
X114474097Y-91800167D01*
X114472600Y-91805103D01*
X114463313Y-91824739D01*
X114455801Y-91835980D01*
X114455801Y-91835981D01*
X114455801Y-91835982D01*
X114450000Y-91865151D01*
X114450000Y-92175000D01*
X115949999Y-92175000D01*
X115949999Y-91865151D01*
X115944197Y-91835981D01*
X115938762Y-91827847D01*
X115927715Y-91801176D01*
X115925578Y-91790430D01*
X115936629Y-91734883D01*
X115976683Y-91705181D01*
X115978926Y-91704501D01*
X115981621Y-91703684D01*
X116003094Y-91700500D01*
X116360781Y-91700500D01*
X116389091Y-91706129D01*
X116399503Y-91710442D01*
X116439553Y-91750485D01*
X116439556Y-91750492D01*
X116443867Y-91760900D01*
X116449500Y-91789218D01*
X116449500Y-106626000D01*
X116427826Y-106678326D01*
X116375500Y-106700000D01*
X116044500Y-106700000D01*
X115992174Y-106678326D01*
X115970500Y-106626000D01*
X115970500Y-105438130D01*
X115963509Y-105402983D01*
X115958375Y-105395299D01*
X115936876Y-105363124D01*
X115930501Y-105358864D01*
X115897016Y-105336490D01*
X115897015Y-105336489D01*
X115897013Y-105336488D01*
X115861875Y-105329500D01*
X115861870Y-105329500D01*
X115038130Y-105329500D01*
X115029343Y-105331247D01*
X115002980Y-105336490D01*
X115001427Y-105337529D01*
X114997865Y-105338609D01*
X114996249Y-105339279D01*
X114996183Y-105339119D01*
X114960316Y-105350000D01*
X114339683Y-105350000D01*
X114303813Y-105339119D01*
X114303748Y-105339278D01*
X114302135Y-105338609D01*
X114298572Y-105337529D01*
X114297015Y-105336489D01*
X114297015Y-105336488D01*
X114261875Y-105329500D01*
X114261870Y-105329500D01*
X113438130Y-105329500D01*
X113420556Y-105332995D01*
X113402982Y-105336490D01*
X113363127Y-105363120D01*
X113363120Y-105363127D01*
X113336490Y-105402982D01*
X113332995Y-105420556D01*
X113330461Y-105433301D01*
X113329500Y-105438131D01*
X113329500Y-106631871D01*
X113329177Y-106638778D01*
X113323016Y-106704500D01*
X113319498Y-106742027D01*
X113308212Y-106862407D01*
X113281748Y-106912482D01*
X113234535Y-106929500D01*
X113168281Y-106929500D01*
X113103963Y-106942291D01*
X113103963Y-106942292D01*
X113053348Y-106976111D01*
X113026675Y-106987160D01*
X113007814Y-106990912D01*
X112952265Y-106979863D01*
X112896036Y-106942293D01*
X112860154Y-106935156D01*
X112860153Y-106935155D01*
X112831719Y-106929500D01*
X112831718Y-106929500D01*
X112353286Y-106929500D01*
X112288964Y-106942292D01*
X112216028Y-106991026D01*
X112216026Y-106991028D01*
X112167291Y-107063965D01*
X112161003Y-107095584D01*
X112154500Y-107128281D01*
X112154500Y-107371713D01*
X112167292Y-107436034D01*
X112216027Y-107508971D01*
X112216028Y-107508972D01*
X112247937Y-107530293D01*
X112268351Y-107550707D01*
X112274611Y-107560075D01*
X112285663Y-107615623D01*
X112285662Y-107615628D01*
X112285018Y-107618865D01*
X112253552Y-107665954D01*
X112216028Y-107691027D01*
X112216022Y-107691033D01*
X112198597Y-107717113D01*
X112151505Y-107748578D01*
X112137069Y-107750000D01*
X111027817Y-107750000D01*
X110990818Y-107740086D01*
X110923713Y-107701343D01*
X110923709Y-107701341D01*
X110923702Y-107701339D01*
X110885219Y-107691027D01*
X110885219Y-107691028D01*
X110842195Y-107679500D01*
X110842194Y-107679500D01*
X110757805Y-107679500D01*
X110729865Y-107686986D01*
X110729864Y-107686985D01*
X110676296Y-107701339D01*
X110676289Y-107701341D01*
X110603210Y-107743533D01*
X110543533Y-107803210D01*
X110525987Y-107833601D01*
X110501343Y-107876286D01*
X110501341Y-107876290D01*
X110496711Y-107893571D01*
X110479500Y-107957805D01*
X110479500Y-108042195D01*
X110498255Y-108112193D01*
X110501341Y-108123709D01*
X110501343Y-108123713D01*
X110532526Y-108177724D01*
X110533547Y-108179774D01*
X110533750Y-108182713D01*
X110540669Y-108203096D01*
X110542139Y-108214265D01*
X110537214Y-108232683D01*
X110537463Y-108236276D01*
X110535716Y-108238282D01*
X110527528Y-108268907D01*
X110527002Y-108269594D01*
X110487409Y-108296084D01*
X110484082Y-108296976D01*
X110464919Y-108299500D01*
X110275391Y-108299500D01*
X110270315Y-108300000D01*
X106904961Y-108300000D01*
X106852635Y-108278326D01*
X106830961Y-108226000D01*
X106830967Y-108225046D01*
X106831250Y-108203096D01*
X106831650Y-108172049D01*
X106841562Y-108136000D01*
X106848656Y-108123714D01*
X106848659Y-108123709D01*
X106870500Y-108042195D01*
X106870500Y-107957805D01*
X106848659Y-107876291D01*
X106845925Y-107871556D01*
X106836017Y-107833601D01*
X106836410Y-107803211D01*
X106838491Y-107641906D01*
X106860839Y-107589865D01*
X106913440Y-107568868D01*
X106926920Y-107570283D01*
X106978281Y-107580500D01*
X107221718Y-107580499D01*
X107286035Y-107567707D01*
X107358972Y-107518972D01*
X107407707Y-107446035D01*
X107420500Y-107381719D01*
X107420499Y-106903282D01*
X107419896Y-106900252D01*
X107417903Y-106890229D01*
X107417740Y-106889409D01*
X107414550Y-106873369D01*
X107414550Y-106844502D01*
X107416749Y-106833447D01*
X107448213Y-106786359D01*
X107453289Y-106782967D01*
X107494396Y-106770500D01*
X108161870Y-106770500D01*
X108197017Y-106763509D01*
X108236876Y-106736876D01*
X108263509Y-106697017D01*
X108270500Y-106661870D01*
X108270500Y-105974000D01*
X108292174Y-105921674D01*
X108344500Y-105900000D01*
X108629369Y-105900000D01*
X108681695Y-105921674D01*
X108697386Y-105944850D01*
X108709879Y-105974000D01*
X108823517Y-106239155D01*
X108829500Y-106268303D01*
X108829500Y-106661869D01*
X108836490Y-106697016D01*
X108863123Y-106736875D01*
X108863124Y-106736876D01*
X108902983Y-106763509D01*
X108938130Y-106770500D01*
X109607808Y-106770500D01*
X109655181Y-106787651D01*
X109802873Y-106910727D01*
X109829196Y-106960875D01*
X109829500Y-106967575D01*
X109829500Y-107381713D01*
X109842292Y-107446034D01*
X109884346Y-107508971D01*
X109891028Y-107518972D01*
X109963965Y-107567707D01*
X110028281Y-107580500D01*
X110271718Y-107580499D01*
X110336035Y-107567707D01*
X110408972Y-107518972D01*
X110447575Y-107461197D01*
X110467988Y-107440784D01*
X110472542Y-107437741D01*
X110477355Y-107434524D01*
X110532900Y-107423472D01*
X110538885Y-107424662D01*
X110576774Y-107444914D01*
X110589327Y-107457467D01*
X110589736Y-107457762D01*
X110591225Y-107458563D01*
X110619582Y-107474935D01*
X110662410Y-107499662D01*
X110743924Y-107521503D01*
X110743925Y-107521503D01*
X110828313Y-107521503D01*
X110828314Y-107521503D01*
X110909828Y-107499662D01*
X110982911Y-107457467D01*
X111020246Y-107420131D01*
X111035427Y-107408457D01*
X111049998Y-107400000D01*
X111050000Y-107400000D01*
X111415371Y-106760597D01*
X111432224Y-106742527D01*
X111431724Y-106742027D01*
X111436872Y-106736878D01*
X111436876Y-106736876D01*
X111463509Y-106697017D01*
X111470500Y-106661870D01*
X111470500Y-105438130D01*
X111463509Y-105402983D01*
X111436876Y-105363124D01*
X111430501Y-105358864D01*
X111397016Y-105336490D01*
X111397015Y-105336489D01*
X111397013Y-105336488D01*
X111361875Y-105329500D01*
X111361870Y-105329500D01*
X110538130Y-105329500D01*
X110529343Y-105331247D01*
X110502980Y-105336490D01*
X110501427Y-105337529D01*
X110497865Y-105338609D01*
X110496249Y-105339279D01*
X110496183Y-105339119D01*
X110460316Y-105350000D01*
X109839683Y-105350000D01*
X109803813Y-105339119D01*
X109803748Y-105339278D01*
X109802135Y-105338609D01*
X109798572Y-105337529D01*
X109797015Y-105336489D01*
X109797015Y-105336488D01*
X109761875Y-105329500D01*
X109761870Y-105329500D01*
X109358259Y-105329500D01*
X109335470Y-105325710D01*
X109335467Y-105325724D01*
X109335462Y-105325723D01*
X109335438Y-105325809D01*
X109334588Y-105325564D01*
X109334316Y-105325519D01*
X109333699Y-105325308D01*
X109333691Y-105325306D01*
X109333685Y-105325304D01*
X108798463Y-105199255D01*
X108763101Y-105179552D01*
X108338830Y-104755281D01*
X108291354Y-104707805D01*
X109079500Y-104707805D01*
X109079500Y-104792195D01*
X109084732Y-104811721D01*
X109095054Y-104850246D01*
X109095055Y-104850248D01*
X109097080Y-104857805D01*
X109101341Y-104873709D01*
X109101343Y-104873713D01*
X109143533Y-104946788D01*
X109143534Y-104946789D01*
X109143536Y-104946792D01*
X109145318Y-104948574D01*
X109203208Y-105006464D01*
X109203616Y-105006758D01*
X109205104Y-105007559D01*
X109226833Y-105020104D01*
X109276291Y-105048659D01*
X109357805Y-105070500D01*
X109357806Y-105070500D01*
X109442194Y-105070500D01*
X109442195Y-105070500D01*
X109523709Y-105048659D01*
X109596792Y-105006464D01*
X109656464Y-104946792D01*
X109656468Y-104946784D01*
X109658541Y-104944084D01*
X109672199Y-104930425D01*
X109681531Y-104923264D01*
X109736227Y-104908606D01*
X109737088Y-104908719D01*
X109779762Y-104929761D01*
X109782196Y-104932195D01*
X109790498Y-104943015D01*
X109790586Y-104942948D01*
X109792031Y-104944832D01*
X109792032Y-104944832D01*
X109793537Y-104946793D01*
X109853208Y-105006464D01*
X109853616Y-105006758D01*
X109855104Y-105007559D01*
X109876833Y-105020104D01*
X109926291Y-105048659D01*
X110007805Y-105070500D01*
X110007806Y-105070500D01*
X110092194Y-105070500D01*
X110092195Y-105070500D01*
X110173709Y-105048659D01*
X110246792Y-105006464D01*
X110306464Y-104946792D01*
X110328973Y-104907805D01*
X111529500Y-104907805D01*
X111529500Y-104992195D01*
X111530324Y-104995271D01*
X111530324Y-104995274D01*
X111544627Y-105048654D01*
X111549292Y-105066061D01*
X111551341Y-105073709D01*
X111551343Y-105073713D01*
X111582985Y-105128519D01*
X111593534Y-105146790D01*
X111593535Y-105146791D01*
X111593536Y-105146792D01*
X111653208Y-105206464D01*
X111726291Y-105248659D01*
X111807805Y-105270500D01*
X111807806Y-105270500D01*
X111892194Y-105270500D01*
X111892195Y-105270500D01*
X111973709Y-105248659D01*
X112046792Y-105206464D01*
X112106464Y-105146792D01*
X112148659Y-105073709D01*
X112170500Y-104992195D01*
X112170500Y-104907805D01*
X112170500Y-104907804D01*
X112429500Y-104907804D01*
X112429500Y-104992195D01*
X112444627Y-105048654D01*
X112449292Y-105066061D01*
X112451341Y-105073709D01*
X112451343Y-105073713D01*
X112482985Y-105128519D01*
X112493534Y-105146790D01*
X112493535Y-105146791D01*
X112493536Y-105146792D01*
X112553208Y-105206464D01*
X112626291Y-105248659D01*
X112707805Y-105270500D01*
X112707806Y-105270500D01*
X112792194Y-105270500D01*
X112792195Y-105270500D01*
X112873709Y-105248659D01*
X112946792Y-105206464D01*
X113006464Y-105146792D01*
X113048659Y-105073709D01*
X113070500Y-104992195D01*
X113070500Y-104907805D01*
X113048659Y-104826291D01*
X113042736Y-104816032D01*
X113019788Y-104776285D01*
X113019786Y-104776283D01*
X113017844Y-104772920D01*
X113007574Y-104755130D01*
X113006682Y-104753474D01*
X113006544Y-104753288D01*
X112946790Y-104693534D01*
X112877840Y-104653726D01*
X112873713Y-104651343D01*
X112873709Y-104651341D01*
X112792195Y-104629500D01*
X112792194Y-104629500D01*
X112707805Y-104629500D01*
X112667047Y-104640420D01*
X112667046Y-104640419D01*
X112626292Y-104651339D01*
X112553210Y-104693533D01*
X112493533Y-104753210D01*
X112451337Y-104826296D01*
X112451331Y-104826308D01*
X112451305Y-104826359D01*
X112451054Y-104827359D01*
X112429500Y-104907804D01*
X112170500Y-104907804D01*
X112148659Y-104826291D01*
X112142736Y-104816032D01*
X112119788Y-104776285D01*
X112119786Y-104776283D01*
X112117844Y-104772920D01*
X112107574Y-104755130D01*
X112106682Y-104753474D01*
X112106544Y-104753288D01*
X112046790Y-104693534D01*
X111977840Y-104653726D01*
X111973713Y-104651343D01*
X111973709Y-104651341D01*
X111892195Y-104629500D01*
X111892194Y-104629500D01*
X111807805Y-104629500D01*
X111767047Y-104640420D01*
X111767046Y-104640419D01*
X111726292Y-104651339D01*
X111653210Y-104693533D01*
X111593533Y-104753210D01*
X111564623Y-104803284D01*
X111551343Y-104826286D01*
X111551341Y-104826290D01*
X111551341Y-104826291D01*
X111529500Y-104907805D01*
X110328973Y-104907805D01*
X110348659Y-104873709D01*
X110370500Y-104792195D01*
X110370500Y-104707805D01*
X110348659Y-104626291D01*
X110326551Y-104587999D01*
X110306466Y-104553211D01*
X110306465Y-104553210D01*
X110306464Y-104553208D01*
X110246792Y-104493536D01*
X110246791Y-104493535D01*
X110246790Y-104493534D01*
X110190652Y-104461123D01*
X110173713Y-104451343D01*
X110173709Y-104451341D01*
X110173704Y-104451339D01*
X110147890Y-104444422D01*
X110147890Y-104444423D01*
X110092195Y-104429500D01*
X110092194Y-104429500D01*
X110007805Y-104429500D01*
X109967047Y-104440420D01*
X109967046Y-104440419D01*
X109926292Y-104451339D01*
X109853210Y-104493533D01*
X109793531Y-104553212D01*
X109791458Y-104555915D01*
X109777794Y-104569579D01*
X109768467Y-104576735D01*
X109713782Y-104591393D01*
X109712922Y-104591280D01*
X109670236Y-104570237D01*
X109668212Y-104568213D01*
X109660564Y-104557602D01*
X109659950Y-104558045D01*
X109658647Y-104556237D01*
X109657890Y-104555067D01*
X109657148Y-104554100D01*
X109656543Y-104553287D01*
X109596790Y-104493534D01*
X109540652Y-104461123D01*
X109523713Y-104451343D01*
X109523709Y-104451341D01*
X109523704Y-104451339D01*
X109497890Y-104444422D01*
X109497890Y-104444423D01*
X109442195Y-104429500D01*
X109442194Y-104429500D01*
X109357805Y-104429500D01*
X109317047Y-104440420D01*
X109317046Y-104440419D01*
X109276292Y-104451339D01*
X109203210Y-104493533D01*
X109143533Y-104553210D01*
X109101341Y-104626289D01*
X109101339Y-104626296D01*
X109093989Y-104653725D01*
X109093990Y-104653726D01*
X109079500Y-104707805D01*
X108291354Y-104707805D01*
X107766302Y-104182752D01*
X107766301Y-104182751D01*
X107766298Y-104182749D01*
X107766295Y-104182748D01*
X107766294Y-104182747D01*
X107744708Y-104173806D01*
X107692609Y-104152227D01*
X107692607Y-104152227D01*
X107685459Y-104150805D01*
X107685489Y-104150653D01*
X107665081Y-104146594D01*
X107639956Y-104136187D01*
X107615948Y-104120146D01*
X107592063Y-104096261D01*
X107579313Y-104088900D01*
X107518986Y-104054070D01*
X107518982Y-104054068D01*
X107442812Y-104033659D01*
X107437468Y-104032227D01*
X107353078Y-104032227D01*
X107347734Y-104033659D01*
X107338325Y-104036180D01*
X107271562Y-104054068D01*
X107198483Y-104096260D01*
X107138806Y-104155937D01*
X107096610Y-104229023D01*
X107096604Y-104229035D01*
X107096578Y-104229086D01*
X107096327Y-104230087D01*
X107074357Y-104312082D01*
X107050570Y-104348475D01*
X107049999Y-104349999D01*
X107134170Y-104812938D01*
X107135364Y-104825977D01*
X107135390Y-104835819D01*
X107129500Y-104857805D01*
X107129500Y-104942195D01*
X107133242Y-104956159D01*
X107151341Y-105023709D01*
X107151343Y-105023713D01*
X107170723Y-105057280D01*
X107175793Y-105066061D01*
X107184513Y-105089824D01*
X107236335Y-105374849D01*
X107236927Y-105397510D01*
X107236339Y-105402082D01*
X107236303Y-105402168D01*
X107236238Y-105402871D01*
X107236066Y-105404216D01*
X107235940Y-105404434D01*
X107235247Y-105409223D01*
X107229500Y-105438127D01*
X107229500Y-106276000D01*
X107207826Y-106328326D01*
X107155500Y-106350000D01*
X106762935Y-106350000D01*
X106725936Y-106340086D01*
X106673713Y-106309935D01*
X106673709Y-106309933D01*
X106673706Y-106309932D01*
X106660508Y-106306395D01*
X106660508Y-106306396D01*
X106592195Y-106288092D01*
X106592194Y-106288092D01*
X106507805Y-106288092D01*
X106491268Y-106292522D01*
X106491268Y-106292523D01*
X106426290Y-106309933D01*
X106426289Y-106309933D01*
X106426287Y-106309934D01*
X106426286Y-106309935D01*
X106378261Y-106337662D01*
X106378258Y-106337663D01*
X106356892Y-106350000D01*
X106350000Y-106350000D01*
X106344664Y-106360672D01*
X106332754Y-106372581D01*
X106332742Y-106372591D01*
X106293535Y-106411799D01*
X106293534Y-106411800D01*
X106251341Y-106484881D01*
X106251339Y-106484888D01*
X106242058Y-106519524D01*
X106242059Y-106519525D01*
X106232162Y-106556464D01*
X106229500Y-106566398D01*
X106229500Y-106573530D01*
X106221688Y-106606623D01*
X106200000Y-106649998D01*
X106200000Y-108226000D01*
X106178326Y-108278326D01*
X106126000Y-108300000D01*
X106050000Y-108300000D01*
X105650000Y-108300000D01*
X105186668Y-108300000D01*
X104650000Y-108300000D01*
X104306044Y-108300000D01*
X104262283Y-108285674D01*
X103650739Y-107837208D01*
X103621360Y-107788786D01*
X103620500Y-107777534D01*
X103620500Y-105585498D01*
X103626133Y-105557180D01*
X103630437Y-105546789D01*
X103634562Y-105536828D01*
X103661816Y-105503620D01*
X103686876Y-105486876D01*
X103713509Y-105447017D01*
X103720500Y-105411870D01*
X103720500Y-104538130D01*
X103713509Y-104502983D01*
X103686876Y-104463124D01*
X103683264Y-104460710D01*
X103683262Y-104460708D01*
X103662431Y-104446790D01*
X103647016Y-104436490D01*
X103647014Y-104436489D01*
X103647012Y-104436488D01*
X103647015Y-104436488D01*
X103611875Y-104429500D01*
X103611870Y-104429500D01*
X103288130Y-104429500D01*
X103252981Y-104436490D01*
X103246247Y-104439280D01*
X103246213Y-104439200D01*
X103226671Y-104447295D01*
X103207813Y-104451046D01*
X103152265Y-104439997D01*
X103152264Y-104439996D01*
X103147015Y-104436489D01*
X103111875Y-104429500D01*
X103111870Y-104429500D01*
X103007218Y-104429500D01*
X102996687Y-104428747D01*
X102976026Y-104425776D01*
X102958181Y-104424500D01*
X102958170Y-104424500D01*
X102787332Y-104424500D01*
X102787314Y-104424500D01*
X102773917Y-104425218D01*
X102747560Y-104428052D01*
X102742058Y-104428944D01*
X102686939Y-104415916D01*
X102657177Y-104367729D01*
X102656384Y-104360738D01*
X102656348Y-104360189D01*
X102658711Y-104336194D01*
X102670499Y-104292197D01*
X102670500Y-104292197D01*
X102670500Y-104207806D01*
X102670500Y-104207805D01*
X102648659Y-104126291D01*
X102616779Y-104071074D01*
X102607568Y-104055120D01*
X102606681Y-104053473D01*
X102606544Y-104053288D01*
X102546790Y-103993534D01*
X102522429Y-103979469D01*
X102473713Y-103951343D01*
X102473709Y-103951341D01*
X102392195Y-103929500D01*
X102392194Y-103929500D01*
X102307805Y-103929500D01*
X102267047Y-103940420D01*
X102267046Y-103940419D01*
X102226292Y-103951339D01*
X102153210Y-103993533D01*
X102093533Y-104053210D01*
X102051337Y-104126296D01*
X102051331Y-104126308D01*
X102051305Y-104126359D01*
X102051054Y-104127359D01*
X102029500Y-104207804D01*
X102029500Y-104292195D01*
X102047356Y-104358838D01*
X102047718Y-104360189D01*
X102051341Y-104373709D01*
X102051343Y-104373713D01*
X102067117Y-104401034D01*
X102093534Y-104446790D01*
X102093536Y-104446792D01*
X102153208Y-104506464D01*
X102153210Y-104506465D01*
X102153211Y-104506466D01*
X102153213Y-104506467D01*
X102153624Y-104506764D01*
X102155122Y-104507570D01*
X102200537Y-104533790D01*
X102200536Y-104533790D01*
X102222021Y-104546194D01*
X102226291Y-104548659D01*
X102307805Y-104570500D01*
X102307806Y-104570500D01*
X102392194Y-104570500D01*
X102392195Y-104570500D01*
X102438237Y-104558163D01*
X102494388Y-104565555D01*
X102528867Y-104610487D01*
X102530636Y-104640172D01*
X102525776Y-104673972D01*
X102524500Y-104691817D01*
X102524500Y-105517445D01*
X102506359Y-105565455D01*
X102506521Y-105565581D01*
X102506114Y-105566104D01*
X102506011Y-105566379D01*
X102505101Y-105567410D01*
X102485816Y-105592269D01*
X102454420Y-105645350D01*
X102454418Y-105645354D01*
X102441931Y-105674203D01*
X102434604Y-105699412D01*
X102434603Y-105699419D01*
X102430847Y-105716915D01*
X102428735Y-105731902D01*
X102425921Y-105751866D01*
X102424693Y-105769733D01*
X102429861Y-107614130D01*
X102429946Y-107615628D01*
X102430617Y-107627535D01*
X102433525Y-107653889D01*
X102435711Y-107667143D01*
X102437377Y-107674697D01*
X102446628Y-107700682D01*
X102443759Y-107757246D01*
X102401732Y-107795214D01*
X102376914Y-107799500D01*
X100068421Y-107799500D01*
X100040103Y-107793867D01*
X100014974Y-107783458D01*
X99990968Y-107767418D01*
X99788576Y-107565026D01*
X99788571Y-107565022D01*
X99788570Y-107565021D01*
X99714882Y-107534500D01*
X99644634Y-107534500D01*
X99616317Y-107528867D01*
X99602048Y-107522957D01*
X99565105Y-107489471D01*
X99562509Y-107484615D01*
X99555198Y-107464175D01*
X99554951Y-107462933D01*
X99492471Y-107369425D01*
X99480000Y-107328313D01*
X99480000Y-107131686D01*
X99492471Y-107090574D01*
X99495715Y-107085717D01*
X99495717Y-107085717D01*
X99554950Y-106997068D01*
X99570500Y-106918893D01*
X99570499Y-106904658D01*
X99592170Y-106852333D01*
X99597630Y-106847391D01*
X99854500Y-106637227D01*
X99901359Y-106620500D01*
X99942194Y-106620500D01*
X99942195Y-106620500D01*
X100023709Y-106598659D01*
X100096792Y-106556464D01*
X100156464Y-106496792D01*
X100198659Y-106423709D01*
X100220500Y-106342195D01*
X100220500Y-106257805D01*
X100219639Y-106254595D01*
X100217860Y-106224974D01*
X100313170Y-105557805D01*
X100729500Y-105557805D01*
X100729500Y-105642195D01*
X100745266Y-105701036D01*
X100746971Y-105707399D01*
X100751339Y-105723704D01*
X100751341Y-105723709D01*
X100751343Y-105723713D01*
X100756071Y-105731902D01*
X100793534Y-105796790D01*
X100793535Y-105796791D01*
X100793536Y-105796792D01*
X100853208Y-105856464D01*
X100853210Y-105856465D01*
X100853211Y-105856466D01*
X100870114Y-105866225D01*
X100926291Y-105898659D01*
X101007805Y-105920500D01*
X101007806Y-105920500D01*
X101092194Y-105920500D01*
X101092195Y-105920500D01*
X101173709Y-105898659D01*
X101246792Y-105856464D01*
X101259797Y-105843458D01*
X101283798Y-105827419D01*
X101294211Y-105823107D01*
X101350845Y-105823107D01*
X101350891Y-105823126D01*
X101351691Y-105823458D01*
X101387408Y-105854798D01*
X101389129Y-105857778D01*
X101396527Y-105875637D01*
X101397024Y-105877495D01*
X101397029Y-105877507D01*
X101397030Y-105877510D01*
X101397032Y-105877515D01*
X101439223Y-105950591D01*
X101498897Y-106010265D01*
X101499310Y-106010562D01*
X101500819Y-106011375D01*
X101550268Y-106039924D01*
X101571980Y-106052460D01*
X101653494Y-106074301D01*
X101653495Y-106074301D01*
X101737883Y-106074301D01*
X101737884Y-106074301D01*
X101819398Y-106052460D01*
X101892481Y-106010265D01*
X101952153Y-105950593D01*
X101994348Y-105877510D01*
X102016189Y-105795996D01*
X102016189Y-105711606D01*
X101994348Y-105630092D01*
X101960104Y-105570780D01*
X101960103Y-105570778D01*
X101953259Y-105558923D01*
X101952374Y-105557280D01*
X101952231Y-105557087D01*
X101892479Y-105497335D01*
X101856033Y-105476293D01*
X101819402Y-105455144D01*
X101819398Y-105455142D01*
X101819391Y-105455140D01*
X101789074Y-105447016D01*
X101789074Y-105447017D01*
X101737884Y-105433301D01*
X101737883Y-105433301D01*
X101653494Y-105433301D01*
X101612736Y-105444221D01*
X101612735Y-105444220D01*
X101571981Y-105455140D01*
X101498897Y-105497335D01*
X101498895Y-105497336D01*
X101485891Y-105510341D01*
X101461882Y-105526383D01*
X101451475Y-105530693D01*
X101394868Y-105530702D01*
X101394068Y-105530371D01*
X101358270Y-105498986D01*
X101356548Y-105496003D01*
X101349161Y-105478163D01*
X101348660Y-105476293D01*
X101348658Y-105476290D01*
X101347170Y-105473713D01*
X101336449Y-105455142D01*
X101331757Y-105447015D01*
X101331757Y-105447016D01*
X101307570Y-105405123D01*
X101306464Y-105403208D01*
X101246790Y-105343534D01*
X101215221Y-105325308D01*
X101173713Y-105301343D01*
X101173709Y-105301341D01*
X101173708Y-105301340D01*
X101173707Y-105301340D01*
X101170581Y-105300503D01*
X101092195Y-105279500D01*
X101092194Y-105279500D01*
X101007805Y-105279500D01*
X100967047Y-105290420D01*
X100967046Y-105290419D01*
X100926292Y-105301339D01*
X100853210Y-105343533D01*
X100793533Y-105403210D01*
X100751339Y-105476293D01*
X100748505Y-105486873D01*
X100748505Y-105486875D01*
X100729500Y-105557805D01*
X100313170Y-105557805D01*
X100336205Y-105396556D01*
X100357133Y-105354699D01*
X101036931Y-104674903D01*
X101070500Y-104593860D01*
X101070500Y-104589844D01*
X101082253Y-104549828D01*
X101083005Y-104548659D01*
X101480639Y-103930114D01*
X101519678Y-103901615D01*
X101519224Y-103900517D01*
X101523706Y-103898660D01*
X101523706Y-103898659D01*
X101523709Y-103898659D01*
X101596792Y-103856464D01*
X101656464Y-103796792D01*
X101698659Y-103723709D01*
X101720500Y-103642195D01*
X101720500Y-103557805D01*
X101720500Y-103552955D01*
X101721781Y-103552955D01*
X101734669Y-103503772D01*
X101817013Y-103393980D01*
X101865748Y-103365125D01*
X101886742Y-103365133D01*
X101911705Y-103368723D01*
X101929554Y-103369999D01*
X101929558Y-103370000D01*
X101929565Y-103370000D01*
X102052083Y-103370000D01*
X102066506Y-103371419D01*
X102079731Y-103374049D01*
X102079793Y-103374062D01*
X102080696Y-103374241D01*
X102080746Y-103374253D01*
X102097401Y-103377565D01*
X102105938Y-103379802D01*
X102114377Y-103382560D01*
X102115917Y-103382935D01*
X102117822Y-103383399D01*
X102120278Y-103383649D01*
X102133636Y-103386266D01*
X102150464Y-103391208D01*
X102156107Y-103392723D01*
X102158926Y-103393410D01*
X102173688Y-103396085D01*
X102203029Y-103399606D01*
X102217982Y-103400500D01*
X102243866Y-103400500D01*
X102282453Y-103411357D01*
X102640187Y-103629971D01*
X102655442Y-103637912D01*
X102686517Y-103651470D01*
X102702712Y-103657251D01*
X102734425Y-103666174D01*
X102751260Y-103669687D01*
X102751265Y-103669688D01*
X102776525Y-103673173D01*
X102784845Y-103674322D01*
X102791501Y-103674779D01*
X102802001Y-103675500D01*
X102802002Y-103675500D01*
X103012653Y-103675500D01*
X103012668Y-103675500D01*
X103026092Y-103674780D01*
X103026101Y-103674779D01*
X103026107Y-103674779D01*
X103037420Y-103673561D01*
X103052463Y-103671943D01*
X103052477Y-103671940D01*
X103052485Y-103671940D01*
X103063601Y-103670136D01*
X103065729Y-103669792D01*
X103073287Y-103668147D01*
X103102797Y-103657731D01*
X103157658Y-103630255D01*
X103183673Y-103612863D01*
X103185042Y-103611676D01*
X103208412Y-103584694D01*
X103246155Y-103525951D01*
X103260984Y-103493478D01*
X103265389Y-103478480D01*
X103269197Y-103460977D01*
X103274222Y-103426033D01*
X103275272Y-103411357D01*
X103275500Y-103408177D01*
X103275500Y-102719701D01*
X103275500Y-102719691D01*
X103275084Y-102709479D01*
X103273442Y-102689367D01*
X103272196Y-102679224D01*
X103271910Y-102677484D01*
X103265451Y-102654574D01*
X103265451Y-102654572D01*
X103264307Y-102650515D01*
X103259264Y-102638131D01*
X103679500Y-102638131D01*
X103679500Y-103511868D01*
X103686489Y-103547015D01*
X103693699Y-103557805D01*
X103695245Y-103560118D01*
X103713124Y-103586876D01*
X103752983Y-103613509D01*
X103788130Y-103620500D01*
X104111866Y-103620500D01*
X104111867Y-103620500D01*
X104111870Y-103620500D01*
X104121264Y-103618630D01*
X104150134Y-103618630D01*
X104171742Y-103622927D01*
X104209629Y-103643179D01*
X104217418Y-103650968D01*
X104233457Y-103674971D01*
X104243868Y-103700105D01*
X104249500Y-103728420D01*
X104249500Y-103997384D01*
X104264524Y-104033656D01*
X104280022Y-104071071D01*
X104280024Y-104071074D01*
X104280025Y-104071075D01*
X104438450Y-104229500D01*
X104572418Y-104363467D01*
X104588457Y-104387470D01*
X104598868Y-104412604D01*
X104604500Y-104440919D01*
X104604500Y-104671713D01*
X104617292Y-104736034D01*
X104654817Y-104792193D01*
X104666028Y-104808972D01*
X104738965Y-104857707D01*
X104803281Y-104870500D01*
X105281718Y-104870499D01*
X105346035Y-104857707D01*
X105418972Y-104808972D01*
X105467707Y-104736035D01*
X105480500Y-104671719D01*
X105480499Y-104428282D01*
X105467707Y-104363965D01*
X105418972Y-104291028D01*
X105346035Y-104242293D01*
X105346034Y-104242292D01*
X105294511Y-104232044D01*
X105281719Y-104229500D01*
X105050920Y-104229500D01*
X105022602Y-104223867D01*
X104997473Y-104213458D01*
X104973467Y-104197418D01*
X104682581Y-103906531D01*
X104666541Y-103882525D01*
X104656131Y-103857393D01*
X104650500Y-103829079D01*
X104650500Y-103692805D01*
X114729500Y-103692805D01*
X114729500Y-103777195D01*
X114734750Y-103796788D01*
X114751341Y-103858709D01*
X114751343Y-103858713D01*
X114778951Y-103906531D01*
X114793534Y-103931790D01*
X114853208Y-103991464D01*
X114853620Y-103991761D01*
X114855130Y-103992574D01*
X114863455Y-103997380D01*
X114863457Y-103997383D01*
X114863458Y-103997382D01*
X114926291Y-104033659D01*
X115007805Y-104055500D01*
X115007806Y-104055500D01*
X115092194Y-104055500D01*
X115092195Y-104055500D01*
X115173709Y-104033659D01*
X115246792Y-103991464D01*
X115306464Y-103931792D01*
X115348659Y-103858709D01*
X115370500Y-103777195D01*
X115370500Y-103692805D01*
X115348659Y-103611291D01*
X115317779Y-103557806D01*
X115306466Y-103538211D01*
X115306465Y-103538210D01*
X115306464Y-103538208D01*
X115246792Y-103478536D01*
X115246790Y-103478534D01*
X115191811Y-103446792D01*
X115173713Y-103436343D01*
X115173709Y-103436341D01*
X115173704Y-103436339D01*
X115150133Y-103430023D01*
X115150133Y-103430024D01*
X115092195Y-103414500D01*
X115092194Y-103414500D01*
X115007805Y-103414500D01*
X114967047Y-103425420D01*
X114967046Y-103425419D01*
X114926292Y-103436339D01*
X114853210Y-103478533D01*
X114793533Y-103538210D01*
X114751339Y-103611292D01*
X114740419Y-103652046D01*
X114740420Y-103652047D01*
X114729851Y-103691493D01*
X114729851Y-103691494D01*
X114729500Y-103692805D01*
X104650500Y-103692805D01*
X104650500Y-103560118D01*
X104650389Y-103559652D01*
X104649490Y-103557681D01*
X104648159Y-103554468D01*
X104645753Y-103548659D01*
X104619976Y-103486426D01*
X104563574Y-103430024D01*
X104252581Y-103119031D01*
X104236541Y-103095025D01*
X104226131Y-103069893D01*
X104220500Y-103041579D01*
X104220500Y-102638130D01*
X104218541Y-102628281D01*
X104213509Y-102602983D01*
X104186876Y-102563124D01*
X104186875Y-102563123D01*
X104147482Y-102536801D01*
X104147017Y-102536490D01*
X104147012Y-102536488D01*
X104111875Y-102529500D01*
X104111870Y-102529500D01*
X103788130Y-102529500D01*
X103770556Y-102532995D01*
X103752982Y-102536490D01*
X103713127Y-102563120D01*
X103713120Y-102563127D01*
X103686490Y-102602982D01*
X103679500Y-102638131D01*
X103259264Y-102638131D01*
X103259264Y-102638130D01*
X103243551Y-102599541D01*
X103230151Y-102574929D01*
X103230150Y-102574927D01*
X103230147Y-102574922D01*
X103216522Y-102555446D01*
X103216516Y-102555439D01*
X103205239Y-102541545D01*
X103205223Y-102541527D01*
X103181116Y-102515817D01*
X103181105Y-102515806D01*
X103181090Y-102515790D01*
X103172223Y-102507593D01*
X103167950Y-102503643D01*
X103167946Y-102503640D01*
X103167940Y-102503634D01*
X102772702Y-102187443D01*
X102772700Y-102187442D01*
X102772698Y-102187440D01*
X102772697Y-102187439D01*
X102752280Y-102174137D01*
X102752276Y-102174135D01*
X102752273Y-102174133D01*
X102709746Y-102151985D01*
X102709745Y-102151984D01*
X102709742Y-102151983D01*
X102687134Y-102142877D01*
X102687136Y-102142877D01*
X102658972Y-102134608D01*
X102658955Y-102134603D01*
X102641469Y-102130801D01*
X102641470Y-102130801D01*
X102606530Y-102125777D01*
X102606533Y-102125777D01*
X102588680Y-102124500D01*
X102588673Y-102124500D01*
X102506488Y-102124500D01*
X102454162Y-102102826D01*
X102432488Y-102050500D01*
X102435009Y-102031348D01*
X102435074Y-102031106D01*
X102445500Y-101992195D01*
X102445500Y-101907805D01*
X102423659Y-101826291D01*
X102381464Y-101753208D01*
X102321792Y-101693536D01*
X102321791Y-101693535D01*
X102321790Y-101693534D01*
X102274394Y-101666170D01*
X102248713Y-101651343D01*
X102248709Y-101651341D01*
X102167195Y-101629500D01*
X102167194Y-101629500D01*
X102082805Y-101629500D01*
X102042047Y-101640420D01*
X102042046Y-101640419D01*
X102001292Y-101651339D01*
X101928210Y-101693533D01*
X101926326Y-101695418D01*
X101925082Y-101695932D01*
X101924362Y-101696486D01*
X101924213Y-101696292D01*
X101874000Y-101717092D01*
X101821674Y-101695418D01*
X101800000Y-101643092D01*
X101800000Y-101174000D01*
X101821674Y-101121674D01*
X101874000Y-101100000D01*
X102172183Y-101100000D01*
X102209183Y-101109914D01*
X102215860Y-101113769D01*
X102276291Y-101148659D01*
X102357805Y-101170500D01*
X102357806Y-101170500D01*
X102442194Y-101170500D01*
X102442195Y-101170500D01*
X102523709Y-101148659D01*
X102584140Y-101113769D01*
X102590817Y-101109914D01*
X102627817Y-101100000D01*
X103355500Y-101100000D01*
X103407826Y-101121674D01*
X103429500Y-101174000D01*
X103429500Y-101261871D01*
X103430889Y-101268859D01*
X103436488Y-101297014D01*
X103442872Y-101306567D01*
X103455334Y-101325218D01*
X103462848Y-101336462D01*
X103462857Y-101336493D01*
X103462865Y-101336489D01*
X103463121Y-101336872D01*
X103463124Y-101336876D01*
X103502983Y-101363509D01*
X103538130Y-101370500D01*
X103561386Y-101370500D01*
X103581714Y-101373346D01*
X103850000Y-101450000D01*
X104449998Y-101450000D01*
X104450000Y-101450000D01*
X104566209Y-101319263D01*
X104593190Y-101300065D01*
X104624903Y-101286931D01*
X104936930Y-100974904D01*
X104936931Y-100974903D01*
X104942741Y-100960875D01*
X104952659Y-100936932D01*
X104954413Y-100932694D01*
X104956595Y-100927429D01*
X104956595Y-100927427D01*
X104959382Y-100920698D01*
X104959384Y-100920695D01*
X104959384Y-100920691D01*
X104970500Y-100893861D01*
X104970500Y-100882191D01*
X104987652Y-100834817D01*
X105028917Y-100785300D01*
X105350000Y-100400000D01*
X105350000Y-100399999D01*
X105352395Y-100397126D01*
X105402543Y-100370804D01*
X105409243Y-100370500D01*
X105431012Y-100370500D01*
X105441547Y-100371254D01*
X105462182Y-100374222D01*
X105462196Y-100374223D01*
X105480041Y-100375500D01*
X105480049Y-100375500D01*
X105833502Y-100375500D01*
X105877898Y-100390298D01*
X105944900Y-100440549D01*
X105973756Y-100489281D01*
X105974500Y-100499747D01*
X105974500Y-101189966D01*
X105952826Y-101242292D01*
X105916553Y-101262204D01*
X105644154Y-101322738D01*
X105628101Y-101324500D01*
X105487314Y-101324500D01*
X105473917Y-101325218D01*
X105447564Y-101328052D01*
X105446586Y-101328210D01*
X105444507Y-101328547D01*
X105432672Y-101329500D01*
X105338130Y-101329500D01*
X105320556Y-101332995D01*
X105302982Y-101336490D01*
X105263127Y-101363120D01*
X105263120Y-101363127D01*
X105236490Y-101402982D01*
X105235712Y-101406893D01*
X105229716Y-101437047D01*
X105229500Y-101438131D01*
X105229500Y-101542780D01*
X105228747Y-101553311D01*
X105225776Y-101573972D01*
X105224500Y-101591817D01*
X105224500Y-101990483D01*
X105202826Y-102042809D01*
X105190229Y-102052914D01*
X104801413Y-102300342D01*
X104801407Y-102300346D01*
X104790360Y-102308248D01*
X104790355Y-102308251D01*
X104769457Y-102324976D01*
X104759353Y-102334001D01*
X104759336Y-102334017D01*
X104753677Y-102339651D01*
X104753665Y-102339664D01*
X104734356Y-102364436D01*
X104734354Y-102364440D01*
X104702868Y-102417373D01*
X104702864Y-102417380D01*
X104690310Y-102446177D01*
X104690306Y-102446187D01*
X104684607Y-102465598D01*
X104684604Y-102465610D01*
X104680800Y-102483101D01*
X104680798Y-102483113D01*
X104675776Y-102518040D01*
X104674500Y-102535888D01*
X104674500Y-103057168D01*
X104675216Y-103070557D01*
X104675220Y-103070604D01*
X104678048Y-103096918D01*
X104678053Y-103096956D01*
X104680197Y-103110184D01*
X104680201Y-103110203D01*
X104681843Y-103117757D01*
X104692260Y-103147277D01*
X104698472Y-103159681D01*
X104719741Y-103202153D01*
X104737136Y-103228173D01*
X104738323Y-103229542D01*
X104738324Y-103229543D01*
X104765300Y-103252908D01*
X104765304Y-103252911D01*
X104765307Y-103252913D01*
X104824053Y-103290656D01*
X104824055Y-103290657D01*
X104845363Y-103300387D01*
X104856526Y-103305484D01*
X104871525Y-103309889D01*
X104889024Y-103313697D01*
X104909618Y-103316658D01*
X104923940Y-103318719D01*
X104923950Y-103318719D01*
X104923965Y-103318722D01*
X104933422Y-103319398D01*
X104941822Y-103320000D01*
X104941830Y-103320000D01*
X105128700Y-103320000D01*
X105139556Y-103320801D01*
X105143155Y-103321334D01*
X105150028Y-103322354D01*
X105156132Y-103323107D01*
X105168206Y-103324297D01*
X105174352Y-103324751D01*
X105186514Y-103325349D01*
X105192677Y-103325500D01*
X106038156Y-103325500D01*
X106038157Y-103325500D01*
X106069197Y-103321601D01*
X106128627Y-103306431D01*
X106157736Y-103294977D01*
X106180824Y-103282369D01*
X106195886Y-103272689D01*
X106224137Y-103251540D01*
X106237668Y-103239815D01*
X106495011Y-102982472D01*
X106514200Y-102957770D01*
X106545495Y-102905026D01*
X106557980Y-102876346D01*
X106565392Y-102851105D01*
X106569198Y-102833608D01*
X106574222Y-102798671D01*
X106575047Y-102787144D01*
X106575500Y-102780815D01*
X106575500Y-101113769D01*
X111224500Y-101113769D01*
X111224500Y-101286230D01*
X111224639Y-101286927D01*
X111224647Y-101286968D01*
X111258142Y-101455365D01*
X111258145Y-101455376D01*
X111258146Y-101455381D01*
X111324140Y-101614702D01*
X111399436Y-101727392D01*
X111399438Y-101727394D01*
X111419955Y-101758099D01*
X111541901Y-101880045D01*
X111685295Y-101975858D01*
X111685296Y-101975858D01*
X111685905Y-101976265D01*
X111688646Y-101977246D01*
X111724731Y-101992193D01*
X111843626Y-102041441D01*
X111844626Y-102041855D01*
X112013771Y-102075500D01*
X112013772Y-102075500D01*
X112186228Y-102075500D01*
X112186229Y-102075500D01*
X112355374Y-102041855D01*
X112514705Y-101975858D01*
X112658099Y-101880045D01*
X112780045Y-101758099D01*
X112875858Y-101614705D01*
X112928172Y-101488407D01*
X114582504Y-101488407D01*
X114582504Y-101572797D01*
X114583328Y-101575873D01*
X114583328Y-101575875D01*
X114593171Y-101612608D01*
X114593170Y-101612608D01*
X114603549Y-101651341D01*
X114604345Y-101654311D01*
X114604347Y-101654315D01*
X114611192Y-101666170D01*
X114646538Y-101727392D01*
X114646539Y-101727393D01*
X114646540Y-101727394D01*
X114706212Y-101787066D01*
X114706214Y-101787067D01*
X114706215Y-101787068D01*
X114756858Y-101816307D01*
X114779295Y-101829261D01*
X114860809Y-101851102D01*
X114860810Y-101851102D01*
X114945198Y-101851102D01*
X114945199Y-101851102D01*
X115026713Y-101829261D01*
X115099796Y-101787066D01*
X115159468Y-101727394D01*
X115201663Y-101654311D01*
X115223504Y-101572797D01*
X115223504Y-101488407D01*
X115201663Y-101406893D01*
X115161016Y-101336491D01*
X115160575Y-101335728D01*
X115159685Y-101334074D01*
X115159548Y-101333890D01*
X115099794Y-101274136D01*
X115044638Y-101242292D01*
X115026717Y-101231945D01*
X115026713Y-101231943D01*
X115026706Y-101231941D01*
X114987152Y-101221342D01*
X114987152Y-101221343D01*
X114945199Y-101210102D01*
X114945198Y-101210102D01*
X114860808Y-101210102D01*
X114846390Y-101213965D01*
X114846389Y-101213964D01*
X114779300Y-101231941D01*
X114779293Y-101231943D01*
X114706214Y-101274135D01*
X114646537Y-101333812D01*
X114623712Y-101373347D01*
X114604347Y-101406888D01*
X114604345Y-101406892D01*
X114604345Y-101406893D01*
X114582504Y-101488407D01*
X112928172Y-101488407D01*
X112941855Y-101455374D01*
X112975500Y-101286229D01*
X112975500Y-101113771D01*
X112941855Y-100944626D01*
X112923900Y-100901278D01*
X112875859Y-100785297D01*
X112855949Y-100755500D01*
X112780045Y-100641901D01*
X112658099Y-100519955D01*
X112658096Y-100519953D01*
X112637751Y-100506359D01*
X112552632Y-100449484D01*
X112552631Y-100449482D01*
X112514702Y-100424140D01*
X112514700Y-100424139D01*
X112439054Y-100392805D01*
X113929500Y-100392805D01*
X113929500Y-100477195D01*
X113949367Y-100551341D01*
X113951341Y-100558709D01*
X113951343Y-100558713D01*
X113993533Y-100631788D01*
X113993534Y-100631789D01*
X113993536Y-100631792D01*
X114053208Y-100691464D01*
X114126291Y-100733659D01*
X114207805Y-100755500D01*
X114207806Y-100755500D01*
X114292194Y-100755500D01*
X114292195Y-100755500D01*
X114373709Y-100733659D01*
X114446792Y-100691464D01*
X114503527Y-100634728D01*
X114510780Y-100628367D01*
X114527192Y-100615770D01*
X114581896Y-100601106D01*
X114581908Y-100601108D01*
X114582766Y-100601221D01*
X114625419Y-100622250D01*
X114627857Y-100624687D01*
X114639624Y-100640019D01*
X114643533Y-100646788D01*
X114643534Y-100646789D01*
X114643536Y-100646792D01*
X114703208Y-100706464D01*
X114776291Y-100748659D01*
X114857805Y-100770500D01*
X114857806Y-100770500D01*
X114942194Y-100770500D01*
X114942195Y-100770500D01*
X115023709Y-100748659D01*
X115096792Y-100706464D01*
X115156464Y-100646792D01*
X115198659Y-100573709D01*
X115220500Y-100492195D01*
X115220500Y-100407805D01*
X115198659Y-100326291D01*
X115161465Y-100261870D01*
X115156629Y-100253494D01*
X115156465Y-100253209D01*
X115096790Y-100193534D01*
X115072429Y-100179469D01*
X115023713Y-100151343D01*
X115023709Y-100151341D01*
X115023702Y-100151339D01*
X114995792Y-100143860D01*
X114995792Y-100143861D01*
X114942195Y-100129500D01*
X114942194Y-100129500D01*
X114857806Y-100129500D01*
X114857805Y-100129500D01*
X114852408Y-100130945D01*
X114832266Y-100136342D01*
X114832266Y-100136343D01*
X114776290Y-100151341D01*
X114776288Y-100151342D01*
X114703208Y-100193534D01*
X114646461Y-100250281D01*
X114639178Y-100256668D01*
X114622794Y-100269237D01*
X114568112Y-100283893D01*
X114567252Y-100283780D01*
X114524566Y-100262737D01*
X114522134Y-100260305D01*
X114510375Y-100244980D01*
X114507569Y-100240120D01*
X114506763Y-100238622D01*
X114506464Y-100238208D01*
X114446790Y-100178534D01*
X114422429Y-100164469D01*
X114373713Y-100136343D01*
X114373709Y-100136341D01*
X114367231Y-100134605D01*
X114348177Y-100129499D01*
X114348177Y-100129500D01*
X114292195Y-100114500D01*
X114292194Y-100114500D01*
X114207805Y-100114500D01*
X114167047Y-100125420D01*
X114167046Y-100125419D01*
X114126292Y-100136339D01*
X114053210Y-100178533D01*
X113993533Y-100238210D01*
X113951340Y-100311291D01*
X113947802Y-100324499D01*
X113947802Y-100324500D01*
X113929500Y-100392805D01*
X112439054Y-100392805D01*
X112355381Y-100358146D01*
X112355376Y-100358145D01*
X112355365Y-100358142D01*
X112227942Y-100332797D01*
X112186229Y-100324500D01*
X112013771Y-100324500D01*
X112013767Y-100324500D01*
X111980309Y-100331154D01*
X111980309Y-100331155D01*
X111935083Y-100340151D01*
X111844630Y-100358143D01*
X111844622Y-100358145D01*
X111844617Y-100358146D01*
X111685300Y-100424138D01*
X111541904Y-100519951D01*
X111541903Y-100519953D01*
X111419953Y-100641903D01*
X111419951Y-100641904D01*
X111324138Y-100785300D01*
X111258146Y-100944617D01*
X111258145Y-100944622D01*
X111258143Y-100944630D01*
X111225952Y-101106461D01*
X111225953Y-101106462D01*
X111224500Y-101113769D01*
X106575500Y-101113769D01*
X106575500Y-99292805D01*
X114729500Y-99292805D01*
X114729500Y-99377195D01*
X114730241Y-99379960D01*
X114730241Y-99379962D01*
X114740541Y-99418401D01*
X114740540Y-99418401D01*
X114751339Y-99458702D01*
X114751341Y-99458709D01*
X114793534Y-99531790D01*
X114793535Y-99531791D01*
X114793536Y-99531792D01*
X114853208Y-99591464D01*
X114926291Y-99633659D01*
X115007805Y-99655500D01*
X115007806Y-99655500D01*
X115092194Y-99655500D01*
X115092195Y-99655500D01*
X115173709Y-99633659D01*
X115246792Y-99591464D01*
X115306464Y-99531792D01*
X115348659Y-99458709D01*
X115370500Y-99377195D01*
X115370500Y-99292805D01*
X115348659Y-99211291D01*
X115342365Y-99200390D01*
X115321109Y-99163572D01*
X115321109Y-99163573D01*
X115321108Y-99163571D01*
X115306466Y-99138211D01*
X115306465Y-99138210D01*
X115306464Y-99138208D01*
X115246792Y-99078536D01*
X115246790Y-99078534D01*
X115220092Y-99063120D01*
X115173713Y-99036343D01*
X115173709Y-99036341D01*
X115103126Y-99017429D01*
X115092195Y-99014500D01*
X115007805Y-99014500D01*
X114996874Y-99017429D01*
X114987465Y-99019950D01*
X114926289Y-99036341D01*
X114853210Y-99078533D01*
X114793533Y-99138210D01*
X114792412Y-99140152D01*
X114751343Y-99211286D01*
X114751341Y-99211290D01*
X114747322Y-99226291D01*
X114729500Y-99292805D01*
X106575500Y-99292805D01*
X106575500Y-98192805D01*
X113929500Y-98192805D01*
X113929500Y-98277195D01*
X113937343Y-98306466D01*
X113937342Y-98306466D01*
X113951339Y-98358702D01*
X113951341Y-98358709D01*
X113993534Y-98431790D01*
X114053208Y-98491464D01*
X114053619Y-98491760D01*
X114055119Y-98492568D01*
X114083477Y-98508940D01*
X114126291Y-98533659D01*
X114207805Y-98555500D01*
X114207806Y-98555500D01*
X114292194Y-98555500D01*
X114292195Y-98555500D01*
X114373709Y-98533659D01*
X114446792Y-98491464D01*
X114506464Y-98431792D01*
X114548659Y-98358709D01*
X114570500Y-98277195D01*
X114570500Y-98192805D01*
X114548659Y-98111291D01*
X114523830Y-98068286D01*
X114519114Y-98060118D01*
X114507570Y-98040123D01*
X114506684Y-98038477D01*
X114506542Y-98038286D01*
X114446790Y-97978534D01*
X114392521Y-97947202D01*
X114373713Y-97936343D01*
X114373709Y-97936341D01*
X114373704Y-97936339D01*
X114353876Y-97931026D01*
X114353876Y-97931027D01*
X114292195Y-97914500D01*
X114292194Y-97914500D01*
X114207805Y-97914500D01*
X114167047Y-97925420D01*
X114167046Y-97925419D01*
X114126292Y-97936339D01*
X114053210Y-97978533D01*
X113993533Y-98038210D01*
X113951341Y-98111289D01*
X113951340Y-98111294D01*
X113943679Y-98139880D01*
X113943680Y-98139881D01*
X113934617Y-98173709D01*
X113929500Y-98192805D01*
X106575500Y-98192805D01*
X106575500Y-98037345D01*
X106575499Y-98037306D01*
X106575270Y-98033046D01*
X106574780Y-98023907D01*
X106574779Y-98023897D01*
X106574779Y-98023891D01*
X106573048Y-98007805D01*
X106571943Y-97997536D01*
X106571940Y-97997523D01*
X106571940Y-97997513D01*
X106569794Y-97984282D01*
X106569790Y-97984261D01*
X106569696Y-97983831D01*
X106568147Y-97976712D01*
X106557731Y-97947202D01*
X106530255Y-97892341D01*
X106518995Y-97875499D01*
X106512867Y-97866332D01*
X106512865Y-97866329D01*
X106512863Y-97866326D01*
X106511676Y-97864957D01*
X106511673Y-97864954D01*
X106511671Y-97864952D01*
X106484693Y-97841587D01*
X106474267Y-97834889D01*
X106425939Y-97803840D01*
X106420339Y-97801283D01*
X106393466Y-97789012D01*
X106378452Y-97784603D01*
X106364966Y-97781670D01*
X106360966Y-97780800D01*
X106360960Y-97780799D01*
X106360950Y-97780797D01*
X106326026Y-97775776D01*
X106308181Y-97774500D01*
X106308170Y-97774500D01*
X106116961Y-97774500D01*
X106116954Y-97774500D01*
X106098011Y-97775939D01*
X106085097Y-97777913D01*
X106073052Y-97779754D01*
X106067001Y-97780679D01*
X106066999Y-97780679D01*
X106065067Y-97780974D01*
X106057253Y-97781750D01*
X106053539Y-97782665D01*
X106052981Y-97782820D01*
X106051330Y-97783073D01*
X106050825Y-97783422D01*
X106046063Y-97784752D01*
X106034707Y-97788307D01*
X106019938Y-97791321D01*
X106017408Y-97791573D01*
X106014699Y-97792241D01*
X106014688Y-97792244D01*
X106005431Y-97795284D01*
X105996787Y-97797554D01*
X105978042Y-97801283D01*
X105966507Y-97803577D01*
X105952072Y-97804999D01*
X105747930Y-97804999D01*
X105733498Y-97803578D01*
X105727370Y-97802359D01*
X105700692Y-97791309D01*
X105693745Y-97786667D01*
X105673325Y-97766245D01*
X105671862Y-97764055D01*
X105671852Y-97764040D01*
X105666013Y-97756387D01*
X105662779Y-97751506D01*
X105662718Y-97751548D01*
X105661243Y-97749348D01*
X105661241Y-97749345D01*
X105661238Y-97749340D01*
X105641118Y-97723510D01*
X105625500Y-97678039D01*
X105625500Y-97177933D01*
X105628347Y-97157603D01*
X105631436Y-97146792D01*
X105713527Y-96859480D01*
X105715633Y-96851005D01*
X105719205Y-96834139D01*
X105720715Y-96825544D01*
X105723088Y-96808602D01*
X105723997Y-96799921D01*
X105725196Y-96782721D01*
X105725500Y-96773994D01*
X105725500Y-96337331D01*
X105724022Y-96318129D01*
X105720630Y-96296221D01*
X105720622Y-96296222D01*
X105719598Y-96289593D01*
X105719605Y-96289593D01*
X105718218Y-96280634D01*
X105718208Y-96280595D01*
X105717990Y-96279178D01*
X105717990Y-96279176D01*
X105716915Y-96272233D01*
X105715880Y-96270669D01*
X105713820Y-96261885D01*
X105710988Y-96252958D01*
X105698299Y-96230867D01*
X105695172Y-96224787D01*
X105682185Y-96196371D01*
X105682182Y-96196366D01*
X105682181Y-96196364D01*
X105662870Y-96166336D01*
X105662866Y-96166331D01*
X105662863Y-96166326D01*
X105661676Y-96164957D01*
X105661671Y-96164952D01*
X105634693Y-96141587D01*
X105630683Y-96139011D01*
X105575939Y-96103840D01*
X105567529Y-96100000D01*
X105543466Y-96089012D01*
X105528452Y-96084603D01*
X105514344Y-96081535D01*
X105510966Y-96080800D01*
X105510960Y-96080799D01*
X105510950Y-96080797D01*
X105476026Y-96075776D01*
X105458181Y-96074500D01*
X105458170Y-96074500D01*
X105186188Y-96074500D01*
X105173004Y-96075194D01*
X105172993Y-96075195D01*
X105172977Y-96075196D01*
X105147097Y-96077930D01*
X105147091Y-96077931D01*
X105137951Y-96079386D01*
X105134055Y-96080007D01*
X105134051Y-96080007D01*
X105134050Y-96080008D01*
X105134030Y-96080011D01*
X105126900Y-96081535D01*
X105106914Y-96088481D01*
X105097578Y-96091727D01*
X105097576Y-96091728D01*
X105042996Y-96118666D01*
X105017024Y-96135782D01*
X105017016Y-96135787D01*
X105015446Y-96137129D01*
X105015444Y-96137130D01*
X104991888Y-96163922D01*
X104991885Y-96163926D01*
X104982018Y-96179033D01*
X104935256Y-96210988D01*
X104891746Y-96206931D01*
X104889020Y-96205802D01*
X104889017Y-96205801D01*
X104859848Y-96200000D01*
X104859847Y-96200000D01*
X104775000Y-96200000D01*
X104775000Y-96571000D01*
X104753326Y-96623326D01*
X104701000Y-96645000D01*
X104649000Y-96645000D01*
X104596674Y-96623326D01*
X104575000Y-96571000D01*
X104575000Y-96200000D01*
X104490152Y-96200000D01*
X104460986Y-96205801D01*
X104453831Y-96207224D01*
X104453407Y-96205093D01*
X104406049Y-96205086D01*
X104385936Y-96192663D01*
X104384698Y-96191591D01*
X104384694Y-96191588D01*
X104384691Y-96191586D01*
X104384690Y-96191585D01*
X104325939Y-96153840D01*
X104313828Y-96148310D01*
X104293466Y-96139012D01*
X104278452Y-96134603D01*
X104264966Y-96131670D01*
X104260966Y-96130800D01*
X104260960Y-96130799D01*
X104260950Y-96130797D01*
X104226026Y-96125776D01*
X104208181Y-96124500D01*
X104208170Y-96124500D01*
X103939317Y-96124500D01*
X103925518Y-96125260D01*
X103898419Y-96128258D01*
X103898403Y-96128260D01*
X103884765Y-96130537D01*
X103884737Y-96130542D01*
X103876489Y-96132391D01*
X103844688Y-96143897D01*
X103819067Y-96148310D01*
X103079465Y-96143863D01*
X103028721Y-96123302D01*
X102922811Y-96021849D01*
X102900017Y-95970001D01*
X102900000Y-95968411D01*
X102900000Y-95777805D01*
X106389500Y-95777805D01*
X106389500Y-95862195D01*
X106397062Y-95890419D01*
X106406673Y-95926289D01*
X106411339Y-95943704D01*
X106411341Y-95943709D01*
X106411343Y-95943713D01*
X106439469Y-95992429D01*
X106453534Y-96016790D01*
X106453536Y-96016792D01*
X106513208Y-96076464D01*
X106513210Y-96076465D01*
X106513211Y-96076466D01*
X106513213Y-96076467D01*
X106513622Y-96076762D01*
X106515123Y-96077570D01*
X106529542Y-96085895D01*
X106540624Y-96092293D01*
X106586291Y-96118659D01*
X106667805Y-96140500D01*
X106667806Y-96140500D01*
X106752194Y-96140500D01*
X106752195Y-96140500D01*
X106833709Y-96118659D01*
X106906792Y-96076464D01*
X106966464Y-96016792D01*
X107008659Y-95943709D01*
X107030500Y-95862195D01*
X107030500Y-95777805D01*
X107023409Y-95751341D01*
X107019869Y-95738130D01*
X107229500Y-95738130D01*
X107229500Y-96961869D01*
X107232330Y-96976098D01*
X107236490Y-96997016D01*
X107260568Y-97033050D01*
X107260574Y-97033059D01*
X107263123Y-97036876D01*
X107282765Y-97050000D01*
X107302983Y-97063509D01*
X107338130Y-97070500D01*
X108161870Y-97070500D01*
X108197017Y-97063509D01*
X108236876Y-97036876D01*
X108256055Y-97008173D01*
X108868602Y-97008173D01*
X108868602Y-97008174D01*
X108877904Y-97022096D01*
X108910982Y-97044198D01*
X108940151Y-97049999D01*
X109759846Y-97049999D01*
X109759848Y-97049999D01*
X109789016Y-97044197D01*
X109822094Y-97022096D01*
X109831396Y-97008174D01*
X109350000Y-96526777D01*
X108868602Y-97008173D01*
X108256055Y-97008173D01*
X108263509Y-96997017D01*
X108270500Y-96961870D01*
X108270500Y-96673221D01*
X108850000Y-96673221D01*
X109173222Y-96349999D01*
X109173221Y-96349998D01*
X109526777Y-96349998D01*
X109526777Y-96349999D01*
X109526777Y-96350000D01*
X109849998Y-96673221D01*
X109849999Y-96673221D01*
X109849999Y-96026777D01*
X109849998Y-96026777D01*
X109526777Y-96349998D01*
X109173221Y-96349998D01*
X108850000Y-96026777D01*
X108850000Y-96673221D01*
X108270500Y-96673221D01*
X108270500Y-95738130D01*
X108263509Y-95702983D01*
X108263508Y-95702981D01*
X108263507Y-95702979D01*
X108256053Y-95691824D01*
X108256052Y-95691823D01*
X108868601Y-95691823D01*
X108868601Y-95691824D01*
X109349999Y-96173222D01*
X109785091Y-95738130D01*
X110429500Y-95738130D01*
X110429500Y-96961869D01*
X110432330Y-96976098D01*
X110436490Y-96997016D01*
X110460568Y-97033050D01*
X110460574Y-97033059D01*
X110463123Y-97036876D01*
X110482765Y-97050000D01*
X110502983Y-97063509D01*
X110538130Y-97070500D01*
X111361870Y-97070500D01*
X111397017Y-97063509D01*
X111436876Y-97036876D01*
X111463509Y-96997017D01*
X111470500Y-96961870D01*
X111470500Y-95738130D01*
X113329500Y-95738130D01*
X113329500Y-96961869D01*
X113332330Y-96976098D01*
X113336490Y-96997016D01*
X113360568Y-97033050D01*
X113360574Y-97033059D01*
X113363123Y-97036876D01*
X113382765Y-97050000D01*
X113402983Y-97063509D01*
X113438130Y-97070500D01*
X114261870Y-97070500D01*
X114297017Y-97063509D01*
X114298569Y-97062471D01*
X114302127Y-97061392D01*
X114303751Y-97060720D01*
X114303817Y-97060879D01*
X114339682Y-97050000D01*
X114794929Y-97050000D01*
X114847255Y-97071674D01*
X114858863Y-97086738D01*
X114893533Y-97146788D01*
X114893534Y-97146789D01*
X114893536Y-97146792D01*
X114894320Y-97147576D01*
X114953208Y-97206464D01*
X114953621Y-97206762D01*
X114955128Y-97207573D01*
X114968129Y-97215079D01*
X114968132Y-97215082D01*
X114968133Y-97215081D01*
X115026291Y-97248659D01*
X115107805Y-97270500D01*
X115107806Y-97270500D01*
X115192194Y-97270500D01*
X115192195Y-97270500D01*
X115273709Y-97248659D01*
X115346792Y-97206464D01*
X115406464Y-97146792D01*
X115406464Y-97146790D01*
X115416858Y-97136397D01*
X115416859Y-97136396D01*
X115420793Y-97132460D01*
X115422953Y-97130299D01*
X115422959Y-97130297D01*
X115422963Y-97130289D01*
X115450676Y-97102577D01*
X115474678Y-97086541D01*
X115499811Y-97076131D01*
X115528125Y-97070500D01*
X115861870Y-97070500D01*
X115897017Y-97063509D01*
X115936876Y-97036876D01*
X115963509Y-96997017D01*
X115970500Y-96961870D01*
X115970500Y-95738130D01*
X115963509Y-95702983D01*
X115936876Y-95663124D01*
X115936870Y-95663120D01*
X115925918Y-95655802D01*
X115901188Y-95639278D01*
X115897016Y-95636490D01*
X115897015Y-95636489D01*
X115897013Y-95636488D01*
X115861875Y-95629500D01*
X115861870Y-95629500D01*
X115038130Y-95629500D01*
X115029343Y-95631247D01*
X115002980Y-95636490D01*
X115001427Y-95637529D01*
X114997865Y-95638609D01*
X114996249Y-95639279D01*
X114996183Y-95639119D01*
X114960316Y-95650000D01*
X114700000Y-95650000D01*
X114339683Y-95650000D01*
X114303813Y-95639119D01*
X114303748Y-95639278D01*
X114302135Y-95638609D01*
X114298572Y-95637529D01*
X114297015Y-95636489D01*
X114297015Y-95636488D01*
X114261875Y-95629500D01*
X114261870Y-95629500D01*
X113438130Y-95629500D01*
X113420556Y-95632995D01*
X113402982Y-95636490D01*
X113363127Y-95663120D01*
X113363120Y-95663127D01*
X113336490Y-95702982D01*
X113336490Y-95702983D01*
X113329500Y-95738130D01*
X111470500Y-95738130D01*
X111463509Y-95702983D01*
X111436876Y-95663124D01*
X111436870Y-95663120D01*
X111425918Y-95655802D01*
X111401188Y-95639278D01*
X111397016Y-95636490D01*
X111397015Y-95636489D01*
X111397013Y-95636488D01*
X111361875Y-95629500D01*
X111361870Y-95629500D01*
X110538130Y-95629500D01*
X110520556Y-95632995D01*
X110502982Y-95636490D01*
X110463127Y-95663120D01*
X110463120Y-95663127D01*
X110436490Y-95702982D01*
X110436490Y-95702983D01*
X110429500Y-95738130D01*
X109785091Y-95738130D01*
X109831396Y-95691825D01*
X109831396Y-95691823D01*
X109822097Y-95677905D01*
X109822096Y-95677904D01*
X109822090Y-95677900D01*
X109789017Y-95655801D01*
X109759848Y-95650000D01*
X109759847Y-95650000D01*
X108940152Y-95650000D01*
X108940151Y-95650000D01*
X108932858Y-95651450D01*
X108910978Y-95655802D01*
X108877910Y-95677896D01*
X108877906Y-95677900D01*
X108877901Y-95677907D01*
X108868601Y-95691823D01*
X108256052Y-95691823D01*
X108246746Y-95677896D01*
X108236876Y-95663124D01*
X108236875Y-95663123D01*
X108225918Y-95655802D01*
X108197013Y-95636488D01*
X108161875Y-95629500D01*
X108161870Y-95629500D01*
X107338130Y-95629500D01*
X107320556Y-95632995D01*
X107302982Y-95636490D01*
X107263127Y-95663120D01*
X107263120Y-95663127D01*
X107236490Y-95702982D01*
X107236490Y-95702983D01*
X107229500Y-95738130D01*
X107019869Y-95738130D01*
X107008822Y-95696899D01*
X107008673Y-95696327D01*
X107008660Y-95696293D01*
X107006080Y-95691825D01*
X106974133Y-95636491D01*
X106967567Y-95625118D01*
X106966681Y-95623472D01*
X106966544Y-95623288D01*
X106906790Y-95563534D01*
X106882429Y-95549469D01*
X106833713Y-95521343D01*
X106833709Y-95521341D01*
X106752195Y-95499500D01*
X106752194Y-95499500D01*
X106667805Y-95499500D01*
X106627047Y-95510420D01*
X106627046Y-95510419D01*
X106586292Y-95521339D01*
X106513210Y-95563533D01*
X106453533Y-95623210D01*
X106411339Y-95696293D01*
X106402824Y-95728077D01*
X106402824Y-95728078D01*
X106389500Y-95777805D01*
X102900000Y-95777805D01*
X102900000Y-95487000D01*
X102921674Y-95434674D01*
X102929600Y-95427800D01*
X103073507Y-95319869D01*
X103128371Y-95305814D01*
X103145528Y-95312459D01*
X103146249Y-95310720D01*
X103152981Y-95313508D01*
X103152983Y-95313509D01*
X103188130Y-95320500D01*
X103561870Y-95320500D01*
X103597017Y-95313509D01*
X103598569Y-95312471D01*
X103602127Y-95311392D01*
X103603751Y-95310720D01*
X103603817Y-95310879D01*
X103639682Y-95300000D01*
X103760318Y-95300000D01*
X103796182Y-95310879D01*
X103796249Y-95310720D01*
X103797872Y-95311392D01*
X103801430Y-95312471D01*
X103802983Y-95313509D01*
X103838130Y-95320500D01*
X104211870Y-95320500D01*
X104247017Y-95313509D01*
X104248569Y-95312471D01*
X104252127Y-95311392D01*
X104253751Y-95310720D01*
X104253817Y-95310879D01*
X104289682Y-95300000D01*
X104410318Y-95300000D01*
X104446182Y-95310879D01*
X104446249Y-95310720D01*
X104447872Y-95311392D01*
X104451430Y-95312471D01*
X104452983Y-95313509D01*
X104488130Y-95320500D01*
X104861870Y-95320500D01*
X104897017Y-95313509D01*
X104898569Y-95312471D01*
X104902127Y-95311392D01*
X104903751Y-95310720D01*
X104903817Y-95310879D01*
X104939682Y-95300000D01*
X105180651Y-95300000D01*
X105180653Y-95299999D01*
X105225000Y-95299999D01*
X105425000Y-95299999D01*
X105509847Y-95299999D01*
X105509848Y-95299999D01*
X105539018Y-95294197D01*
X105539019Y-95294196D01*
X105539020Y-95294196D01*
X105572088Y-95272102D01*
X105572089Y-95272100D01*
X105572093Y-95272098D01*
X105572096Y-95272095D01*
X105594198Y-95239017D01*
X105600000Y-95209848D01*
X105600000Y-95125000D01*
X105425000Y-95125000D01*
X105425000Y-95299999D01*
X105225000Y-95299999D01*
X105225000Y-94925000D01*
X105425000Y-94925000D01*
X105599999Y-94925000D01*
X105599999Y-94840151D01*
X105594197Y-94810981D01*
X105594196Y-94810980D01*
X105594196Y-94810978D01*
X105572102Y-94777910D01*
X105572094Y-94777902D01*
X105539017Y-94755801D01*
X105509848Y-94750000D01*
X105509847Y-94750000D01*
X105425000Y-94750000D01*
X105425000Y-94925000D01*
X105225000Y-94925000D01*
X105225000Y-94750000D01*
X105150000Y-94750000D01*
X104939683Y-94750000D01*
X104903813Y-94739119D01*
X104903748Y-94739278D01*
X104902135Y-94738609D01*
X104898572Y-94737529D01*
X104897015Y-94736489D01*
X104897015Y-94736488D01*
X104861875Y-94729500D01*
X104861870Y-94729500D01*
X104488130Y-94729500D01*
X104479343Y-94731247D01*
X104452980Y-94736490D01*
X104451427Y-94737529D01*
X104447865Y-94738609D01*
X104446249Y-94739279D01*
X104446183Y-94739119D01*
X104410316Y-94750000D01*
X104289683Y-94750000D01*
X104248556Y-94737519D01*
X104246936Y-94736436D01*
X104226867Y-94714996D01*
X104226603Y-94715199D01*
X104224542Y-94712511D01*
X104223963Y-94711893D01*
X104223648Y-94711347D01*
X104220408Y-94708107D01*
X104204366Y-94684097D01*
X104194976Y-94661426D01*
X104138579Y-94605029D01*
X104138574Y-94605024D01*
X104134359Y-94600809D01*
X104134352Y-94600803D01*
X103902581Y-94369031D01*
X103886541Y-94345025D01*
X103876131Y-94319893D01*
X103870500Y-94291579D01*
X103870500Y-94257806D01*
X103869518Y-94254141D01*
X103848659Y-94176291D01*
X103834225Y-94151291D01*
X103806466Y-94103211D01*
X103806465Y-94103210D01*
X103806464Y-94103208D01*
X103746792Y-94043536D01*
X103746791Y-94043535D01*
X103746790Y-94043534D01*
X103684282Y-94007445D01*
X103673713Y-94001343D01*
X103673709Y-94001341D01*
X103662591Y-93998362D01*
X103662587Y-93998360D01*
X103607961Y-93983724D01*
X103592195Y-93979500D01*
X103592194Y-93979500D01*
X103507805Y-93979500D01*
X103467047Y-93990420D01*
X103467046Y-93990419D01*
X103440705Y-93997478D01*
X103421552Y-94000000D01*
X102978447Y-94000000D01*
X102959295Y-93997479D01*
X102892195Y-93979500D01*
X102892194Y-93979500D01*
X102807805Y-93979500D01*
X102767047Y-93990420D01*
X102767046Y-93990419D01*
X102726292Y-94001339D01*
X102653210Y-94043533D01*
X102593533Y-94103210D01*
X102551339Y-94176292D01*
X102548019Y-94188689D01*
X102548008Y-94188732D01*
X102547530Y-94190512D01*
X102530818Y-94221098D01*
X102106234Y-94688140D01*
X102092591Y-94699890D01*
X102031034Y-94741022D01*
X102031027Y-94741028D01*
X102031026Y-94741029D01*
X101982291Y-94813965D01*
X101977084Y-94840151D01*
X101969500Y-94878281D01*
X101969500Y-94878285D01*
X101969500Y-95121712D01*
X101982292Y-95186034D01*
X102017835Y-95239229D01*
X102030255Y-95283080D01*
X102024792Y-95430571D01*
X102012373Y-95468943D01*
X101982292Y-95513964D01*
X101979733Y-95526828D01*
X101969500Y-95578281D01*
X101969500Y-95578285D01*
X101969500Y-95821712D01*
X101982291Y-95886032D01*
X101982291Y-95886033D01*
X101982292Y-95886034D01*
X101993272Y-95902467D01*
X102005691Y-95946315D01*
X102002649Y-96028463D01*
X101979054Y-96079951D01*
X101925962Y-96099674D01*
X101900387Y-96094094D01*
X101896040Y-96092294D01*
X101896036Y-96092293D01*
X101863877Y-96085896D01*
X101863876Y-96085895D01*
X101831719Y-96079500D01*
X101831718Y-96079500D01*
X101353286Y-96079500D01*
X101288964Y-96092292D01*
X101216028Y-96141026D01*
X101216026Y-96141028D01*
X101207858Y-96153253D01*
X101187440Y-96173670D01*
X101179925Y-96178691D01*
X101124376Y-96189739D01*
X101078665Y-96160265D01*
X101074516Y-96154475D01*
X101063191Y-96130529D01*
X101048659Y-96076291D01*
X101021046Y-96028463D01*
X101014308Y-96016792D01*
X101007576Y-96005134D01*
X101007576Y-96005133D01*
X101007248Y-96004565D01*
X101006466Y-96003211D01*
X101006465Y-96003210D01*
X101006464Y-96003208D01*
X100946792Y-95943536D01*
X100946790Y-95943534D01*
X100875658Y-95902466D01*
X100873713Y-95901343D01*
X100873709Y-95901341D01*
X100792195Y-95879500D01*
X100792194Y-95879500D01*
X100707805Y-95879500D01*
X100667047Y-95890420D01*
X100667046Y-95890419D01*
X100626292Y-95901339D01*
X100553210Y-95943533D01*
X100493533Y-96003210D01*
X100451340Y-96076291D01*
X100447054Y-96092291D01*
X100447054Y-96092292D01*
X100429500Y-96157805D01*
X100429500Y-96242195D01*
X100444144Y-96296852D01*
X100445633Y-96302407D01*
X100451341Y-96323709D01*
X100451343Y-96323713D01*
X100475099Y-96364859D01*
X100493534Y-96396790D01*
X100553208Y-96456464D01*
X100553618Y-96456760D01*
X100555118Y-96457567D01*
X100565838Y-96463756D01*
X100626293Y-96498660D01*
X100626292Y-96498660D01*
X100656425Y-96506733D01*
X100682324Y-96519504D01*
X100691260Y-96526361D01*
X100719578Y-96575411D01*
X100719579Y-96575418D01*
X100719692Y-96576277D01*
X100710409Y-96622929D01*
X100708689Y-96625908D01*
X100696931Y-96641232D01*
X100663077Y-96675086D01*
X100663070Y-96675094D01*
X100663066Y-96675099D01*
X100663066Y-96675100D01*
X100629500Y-96756136D01*
X100629500Y-97091645D01*
X100607826Y-97143971D01*
X100555500Y-97165645D01*
X100524478Y-97158829D01*
X100500109Y-97147576D01*
X100496651Y-97145979D01*
X100496649Y-97145978D01*
X100496646Y-97145977D01*
X100489020Y-97143703D01*
X100481668Y-97141511D01*
X100464191Y-97137631D01*
X100439763Y-97134013D01*
X100429278Y-97132460D01*
X100417587Y-97131574D01*
X100411428Y-97131108D01*
X100411423Y-97131107D01*
X100411411Y-97131107D01*
X98920672Y-97124796D01*
X98910343Y-97125178D01*
X98890029Y-97126768D01*
X98879774Y-97127997D01*
X98877788Y-97128318D01*
X98877785Y-97128319D01*
X98870029Y-97130489D01*
X98813799Y-97123720D01*
X98782267Y-97088835D01*
X98780046Y-97083749D01*
X98770784Y-97049179D01*
X98748958Y-97011376D01*
X98729685Y-96977994D01*
X98728883Y-96976505D01*
X98728589Y-96976096D01*
X98668915Y-96916422D01*
X98659462Y-96910964D01*
X98595838Y-96874231D01*
X98595834Y-96874229D01*
X98595831Y-96874228D01*
X98591999Y-96873201D01*
X98588166Y-96872174D01*
X98588164Y-96872172D01*
X98588164Y-96872174D01*
X98514320Y-96852388D01*
X98514319Y-96852388D01*
X98429930Y-96852388D01*
X98389172Y-96863308D01*
X98389171Y-96863307D01*
X98348416Y-96874228D01*
X98348393Y-96874239D01*
X98347603Y-96874665D01*
X98347433Y-96874719D01*
X98347413Y-96874730D01*
X98347411Y-96874726D01*
X98345346Y-96875393D01*
X98344920Y-96875555D01*
X98344911Y-96875533D01*
X98322210Y-96882859D01*
X98311027Y-96884331D01*
X98256322Y-96869673D01*
X98248026Y-96863307D01*
X98247381Y-96862812D01*
X98228347Y-96841107D01*
X98221971Y-96830064D01*
X98219361Y-96825544D01*
X98206466Y-96803208D01*
X98146792Y-96743534D01*
X98122431Y-96729469D01*
X98073715Y-96701343D01*
X98073711Y-96701341D01*
X98073706Y-96701339D01*
X98052363Y-96695620D01*
X98052363Y-96695621D01*
X97992197Y-96679500D01*
X97992196Y-96679500D01*
X97907807Y-96679500D01*
X97889922Y-96684292D01*
X97889921Y-96684291D01*
X97826298Y-96701339D01*
X97826291Y-96701341D01*
X97753212Y-96743533D01*
X97693535Y-96803210D01*
X97651339Y-96876296D01*
X97651333Y-96876308D01*
X97651307Y-96876359D01*
X97651056Y-96877359D01*
X97634692Y-96938435D01*
X97629502Y-96957805D01*
X97629502Y-97042195D01*
X97645870Y-97103282D01*
X97651343Y-97123709D01*
X97651345Y-97123713D01*
X97693535Y-97196788D01*
X97693536Y-97196789D01*
X97693538Y-97196792D01*
X97753210Y-97256464D01*
X97826293Y-97298659D01*
X97907807Y-97320500D01*
X97907808Y-97320500D01*
X97924932Y-97320500D01*
X97977258Y-97342174D01*
X97998932Y-97394500D01*
X97977258Y-97446826D01*
X97971338Y-97452141D01*
X97962132Y-97459552D01*
X97937781Y-97485682D01*
X97928858Y-97498520D01*
X97928850Y-97498531D01*
X97919709Y-97513925D01*
X97919702Y-97513938D01*
X97903899Y-97545474D01*
X97897040Y-97562009D01*
X97897038Y-97562016D01*
X97890462Y-97581745D01*
X97887651Y-97591467D01*
X97882893Y-97610804D01*
X97880886Y-97620654D01*
X97880882Y-97620675D01*
X97877721Y-97640155D01*
X97877721Y-97640156D01*
X97876507Y-97650176D01*
X97874905Y-97670044D01*
X97874500Y-97680119D01*
X97874500Y-102344325D01*
X97876503Y-102366654D01*
X97876507Y-102366684D01*
X97884359Y-102410095D01*
X97890308Y-102431726D01*
X97901009Y-102460337D01*
X97908455Y-102476602D01*
X97908461Y-102476615D01*
X97925397Y-102507564D01*
X97925414Y-102507593D01*
X97935096Y-102522628D01*
X97974317Y-102574922D01*
X98034054Y-102654572D01*
X98035200Y-102656099D01*
X98050000Y-102700499D01*
X98050000Y-103121550D01*
X98047479Y-103140701D01*
X98045717Y-103147278D01*
X98042394Y-103159681D01*
X98029500Y-103207805D01*
X98029500Y-103292195D01*
X98051341Y-103373709D01*
X98051343Y-103373713D01*
X98079469Y-103422429D01*
X98093534Y-103446790D01*
X98153208Y-103506464D01*
X98153619Y-103506760D01*
X98155117Y-103507566D01*
X98162571Y-103511870D01*
X98226291Y-103548659D01*
X98307805Y-103570500D01*
X98307806Y-103570500D01*
X98392194Y-103570500D01*
X98392195Y-103570500D01*
X98468704Y-103550000D01*
X98500000Y-103550000D01*
X98526532Y-103518160D01*
X98546792Y-103506464D01*
X98606464Y-103446792D01*
X98648659Y-103373709D01*
X98648659Y-103373706D01*
X98649432Y-103372369D01*
X98656663Y-103362003D01*
X98972940Y-102982472D01*
X98998229Y-102952126D01*
X99048378Y-102925804D01*
X99055077Y-102925500D01*
X99401035Y-102925500D01*
X99401037Y-102925499D01*
X99413284Y-102924900D01*
X99431551Y-102923107D01*
X99431550Y-102923106D01*
X99436777Y-102922594D01*
X99439719Y-102922305D01*
X99440962Y-102922283D01*
X99442520Y-102922029D01*
X99444832Y-102921803D01*
X99444843Y-102921802D01*
X99456373Y-102920670D01*
X99458513Y-102919438D01*
X99505867Y-102911768D01*
X99508061Y-102911393D01*
X99512422Y-102910607D01*
X99514644Y-102910186D01*
X99533568Y-102906421D01*
X99548004Y-102905000D01*
X100411996Y-102905000D01*
X100423149Y-102905845D01*
X100424793Y-102906095D01*
X100445337Y-102910182D01*
X100458639Y-102912094D01*
X100471942Y-102913283D01*
X100474208Y-102913629D01*
X100474431Y-102913764D01*
X100477427Y-102914193D01*
X100510491Y-102920744D01*
X100513566Y-102921198D01*
X100555087Y-102942079D01*
X100597418Y-102984410D01*
X100613457Y-103008413D01*
X100623868Y-103033547D01*
X100629500Y-103061862D01*
X100629500Y-104413294D01*
X100623867Y-104441610D01*
X100615163Y-104462627D01*
X100613459Y-104466740D01*
X100597418Y-104490746D01*
X100078467Y-105009696D01*
X100054458Y-105025738D01*
X100034107Y-105034167D01*
X99991357Y-105038378D01*
X99978871Y-105035895D01*
X99972160Y-105034560D01*
X99946719Y-105029500D01*
X99946718Y-105029500D01*
X99946714Y-105029500D01*
X99468281Y-105029500D01*
X99403963Y-105042291D01*
X99403963Y-105042292D01*
X99353348Y-105076111D01*
X99326675Y-105087160D01*
X99307814Y-105090912D01*
X99252265Y-105079863D01*
X99196036Y-105042293D01*
X99163877Y-105035896D01*
X99163876Y-105035895D01*
X99131719Y-105029500D01*
X99131718Y-105029500D01*
X98653286Y-105029500D01*
X98588964Y-105042292D01*
X98516028Y-105091026D01*
X98516026Y-105091028D01*
X98467291Y-105163965D01*
X98461232Y-105194432D01*
X98454500Y-105228281D01*
X98454500Y-105471713D01*
X98467292Y-105536034D01*
X98514354Y-105606466D01*
X98516028Y-105608972D01*
X98588965Y-105657707D01*
X98635501Y-105666962D01*
X98662175Y-105678011D01*
X98675013Y-105686589D01*
X98704713Y-105726632D01*
X98706312Y-105731902D01*
X98709500Y-105753388D01*
X98709500Y-106176000D01*
X98687826Y-106228326D01*
X98635500Y-106250000D01*
X98406271Y-106250000D01*
X98353945Y-106228326D01*
X98344699Y-106217048D01*
X98278032Y-106117048D01*
X98167369Y-105951053D01*
X98161973Y-105941489D01*
X98159173Y-105935532D01*
X98148659Y-105896291D01*
X98125665Y-105856464D01*
X98106466Y-105823211D01*
X98106465Y-105823210D01*
X98106464Y-105823208D01*
X98046792Y-105763536D01*
X98046790Y-105763534D01*
X98010205Y-105742412D01*
X97973713Y-105721343D01*
X97973709Y-105721341D01*
X97973702Y-105721339D01*
X97921675Y-105707398D01*
X97921675Y-105707399D01*
X97892195Y-105699500D01*
X97892194Y-105699500D01*
X97802955Y-105699500D01*
X97802955Y-105699343D01*
X97000179Y-105877738D01*
X96984126Y-105879500D01*
X96957805Y-105879500D01*
X96917047Y-105890420D01*
X96917046Y-105890419D01*
X96876292Y-105901339D01*
X96803210Y-105943533D01*
X96743533Y-106003210D01*
X96701339Y-106076292D01*
X96690419Y-106117046D01*
X96690420Y-106117047D01*
X96679500Y-106157804D01*
X96679500Y-106242195D01*
X96697084Y-106307823D01*
X96697650Y-106309934D01*
X96701341Y-106323709D01*
X96701343Y-106323713D01*
X96729563Y-106372591D01*
X96743534Y-106396790D01*
X96789099Y-106442355D01*
X96805140Y-106466363D01*
X96813570Y-106486715D01*
X96817782Y-106529467D01*
X96814130Y-106547828D01*
X96809500Y-106571107D01*
X96809500Y-106918890D01*
X96825050Y-106997068D01*
X96878651Y-107077289D01*
X96878652Y-107077290D01*
X96878651Y-107077290D01*
X96884281Y-107085715D01*
X96884282Y-107085715D01*
X96884283Y-107085717D01*
X96972932Y-107144950D01*
X97051107Y-107160500D01*
X97275975Y-107160499D01*
X97305125Y-107166482D01*
X97500000Y-107250000D01*
X98486000Y-107250000D01*
X98538326Y-107271674D01*
X98560000Y-107324000D01*
X98560000Y-108225500D01*
X98538326Y-108277826D01*
X98486000Y-108299500D01*
X94289219Y-108299500D01*
X94260904Y-108293868D01*
X94250495Y-108289557D01*
X94210446Y-108249513D01*
X94206129Y-108239091D01*
X94200500Y-108210781D01*
X94200500Y-105339377D01*
X94364413Y-105339377D01*
X94375784Y-105373889D01*
X94378867Y-105387388D01*
X94379500Y-105392197D01*
X94384771Y-105411868D01*
X94384771Y-105411869D01*
X94384772Y-105411869D01*
X94384772Y-105411870D01*
X94401341Y-105473709D01*
X94401343Y-105473713D01*
X94426592Y-105517445D01*
X94443534Y-105546790D01*
X94443536Y-105546792D01*
X94503208Y-105606464D01*
X94503210Y-105606465D01*
X94503211Y-105606466D01*
X94503213Y-105606467D01*
X94503620Y-105606760D01*
X94505109Y-105607562D01*
X94519222Y-105615710D01*
X94576291Y-105648659D01*
X94657805Y-105670500D01*
X94657806Y-105670500D01*
X94742194Y-105670500D01*
X94742195Y-105670500D01*
X94774536Y-105661834D01*
X94830688Y-105669226D01*
X94857141Y-105695236D01*
X95046824Y-106011375D01*
X95051757Y-106019596D01*
X95060092Y-106075617D01*
X95036235Y-106114047D01*
X94887885Y-106240175D01*
X94886377Y-106241653D01*
X94882018Y-106245709D01*
X94881342Y-106246162D01*
X94881341Y-106246164D01*
X94878790Y-106248714D01*
X94878762Y-106248741D01*
X94747808Y-106379696D01*
X94746342Y-106381072D01*
X94639952Y-106540296D01*
X94566798Y-106716906D01*
X94566796Y-106716912D01*
X94566793Y-106716922D01*
X94545960Y-106821662D01*
X94529500Y-106904414D01*
X94529500Y-107095585D01*
X94538453Y-107140594D01*
X94538453Y-107140595D01*
X94566793Y-107283076D01*
X94566796Y-107283087D01*
X94566798Y-107283092D01*
X94639950Y-107459698D01*
X94639952Y-107459701D01*
X94639953Y-107459703D01*
X94720667Y-107580500D01*
X94738016Y-107606464D01*
X94738017Y-107606467D01*
X94746158Y-107618653D01*
X94881342Y-107753837D01*
X95040296Y-107860046D01*
X95121230Y-107893570D01*
X95216916Y-107933204D01*
X95404414Y-107970500D01*
X95404416Y-107970500D01*
X95595584Y-107970500D01*
X95595586Y-107970500D01*
X95783084Y-107933204D01*
X95959704Y-107860046D01*
X96118658Y-107753837D01*
X96253837Y-107618658D01*
X96360046Y-107459704D01*
X96433204Y-107283084D01*
X96470500Y-107095586D01*
X96470500Y-106904414D01*
X96469671Y-106900251D01*
X96468873Y-106889409D01*
X96468356Y-106889436D01*
X96468169Y-106885807D01*
X96466294Y-106873376D01*
X96295782Y-105742614D01*
X96309412Y-105687642D01*
X96354521Y-105659002D01*
X96361035Y-105657707D01*
X96433972Y-105608972D01*
X96482707Y-105536035D01*
X96495500Y-105471719D01*
X96495499Y-105228282D01*
X96482707Y-105163965D01*
X96433972Y-105091028D01*
X96433969Y-105091026D01*
X96423888Y-105084290D01*
X96423887Y-105084289D01*
X96361034Y-105042292D01*
X96309511Y-105032044D01*
X96296719Y-105029500D01*
X95818281Y-105029500D01*
X95753963Y-105042291D01*
X95753963Y-105042292D01*
X95703348Y-105076111D01*
X95676675Y-105087160D01*
X95657814Y-105090912D01*
X95602265Y-105079863D01*
X95546036Y-105042293D01*
X95513877Y-105035896D01*
X95513876Y-105035895D01*
X95481719Y-105029500D01*
X95481718Y-105029500D01*
X95003286Y-105029500D01*
X94971239Y-105035873D01*
X94938965Y-105042292D01*
X94938963Y-105042293D01*
X94928773Y-105049102D01*
X94902097Y-105060151D01*
X94882457Y-105064057D01*
X94831024Y-105055564D01*
X94823713Y-105051343D01*
X94823709Y-105051341D01*
X94789940Y-105042293D01*
X94742195Y-105029500D01*
X94742194Y-105029500D01*
X94657806Y-105029500D01*
X94657805Y-105029500D01*
X94617289Y-105040356D01*
X94617288Y-105040355D01*
X94576296Y-105051339D01*
X94576289Y-105051341D01*
X94503210Y-105093533D01*
X94443533Y-105153210D01*
X94401341Y-105226290D01*
X94401338Y-105226298D01*
X94400806Y-105228282D01*
X94400807Y-105228283D01*
X94379499Y-105307807D01*
X94378867Y-105312613D01*
X94366948Y-105333257D01*
X94364413Y-105339377D01*
X94200500Y-105339377D01*
X94200500Y-104615305D01*
X96879500Y-104615305D01*
X96879500Y-104699695D01*
X96899998Y-104776198D01*
X96901341Y-104781209D01*
X96901343Y-104781213D01*
X96929096Y-104829282D01*
X96943534Y-104854290D01*
X96943535Y-104854291D01*
X96943536Y-104854292D01*
X97003208Y-104913964D01*
X97003210Y-104913965D01*
X97003211Y-104913966D01*
X97046718Y-104939085D01*
X97076291Y-104956159D01*
X97157805Y-104978000D01*
X97157806Y-104978000D01*
X97242194Y-104978000D01*
X97242195Y-104978000D01*
X97323709Y-104956159D01*
X97396792Y-104913964D01*
X97456464Y-104854292D01*
X97478554Y-104816032D01*
X97497593Y-104794322D01*
X97506531Y-104787464D01*
X97561238Y-104772806D01*
X97561239Y-104772806D01*
X97561240Y-104772807D01*
X97562098Y-104772920D01*
X97604762Y-104793960D01*
X97607197Y-104796395D01*
X97618957Y-104811721D01*
X97643534Y-104854290D01*
X97643535Y-104854291D01*
X97643536Y-104854292D01*
X97703208Y-104913964D01*
X97703210Y-104913965D01*
X97703211Y-104913966D01*
X97746718Y-104939085D01*
X97776291Y-104956159D01*
X97857805Y-104978000D01*
X97857806Y-104978000D01*
X97942194Y-104978000D01*
X97942195Y-104978000D01*
X98023709Y-104956159D01*
X98096792Y-104913964D01*
X98156464Y-104854292D01*
X98198659Y-104781209D01*
X98220500Y-104699695D01*
X98220500Y-104615305D01*
X98198659Y-104533791D01*
X98179196Y-104500081D01*
X98179195Y-104500079D01*
X98157574Y-104462629D01*
X98156684Y-104460976D01*
X98156544Y-104460788D01*
X98096790Y-104401034D01*
X98049749Y-104373875D01*
X98023713Y-104358843D01*
X98023709Y-104358841D01*
X97942195Y-104337000D01*
X97942194Y-104337000D01*
X97857805Y-104337000D01*
X97817047Y-104347920D01*
X97817046Y-104347919D01*
X97776292Y-104358839D01*
X97703210Y-104401033D01*
X97643533Y-104460710D01*
X97621444Y-104498969D01*
X97602409Y-104520675D01*
X97593472Y-104527533D01*
X97538765Y-104542193D01*
X97538698Y-104542184D01*
X97537838Y-104542070D01*
X97495236Y-104521038D01*
X97492803Y-104518605D01*
X97481044Y-104503280D01*
X97457572Y-104462627D01*
X97456762Y-104461123D01*
X97456466Y-104460712D01*
X97456465Y-104460710D01*
X97456464Y-104460708D01*
X97396792Y-104401036D01*
X97396790Y-104401034D01*
X97349749Y-104373875D01*
X97323713Y-104358843D01*
X97323709Y-104358841D01*
X97242195Y-104337000D01*
X97242194Y-104337000D01*
X97157805Y-104337000D01*
X97117047Y-104347920D01*
X97117046Y-104347919D01*
X97076292Y-104358839D01*
X97003210Y-104401033D01*
X96943533Y-104460710D01*
X96901341Y-104533789D01*
X96901339Y-104533796D01*
X96894072Y-104560915D01*
X96894073Y-104560916D01*
X96879500Y-104615305D01*
X94200500Y-104615305D01*
X94200500Y-101477805D01*
X95679500Y-101477805D01*
X95679500Y-101562195D01*
X95687437Y-101591817D01*
X95695570Y-101622172D01*
X95701339Y-101643704D01*
X95701341Y-101643709D01*
X95701343Y-101643713D01*
X95714309Y-101666170D01*
X95743534Y-101716790D01*
X95743535Y-101716791D01*
X95743536Y-101716792D01*
X95803208Y-101776464D01*
X95876291Y-101818659D01*
X95957805Y-101840500D01*
X95957806Y-101840500D01*
X96042194Y-101840500D01*
X96042195Y-101840500D01*
X96123709Y-101818659D01*
X96196792Y-101776464D01*
X96256464Y-101716792D01*
X96298659Y-101643709D01*
X96320500Y-101562195D01*
X96320500Y-101477805D01*
X96298659Y-101396291D01*
X96267425Y-101342193D01*
X96257568Y-101325120D01*
X96256681Y-101323473D01*
X96256544Y-101323288D01*
X96196790Y-101263534D01*
X96172183Y-101249327D01*
X96123713Y-101221343D01*
X96123709Y-101221341D01*
X96042195Y-101199500D01*
X96042194Y-101199500D01*
X95957806Y-101199500D01*
X95957805Y-101199500D01*
X95918237Y-101210102D01*
X95918236Y-101210101D01*
X95876296Y-101221339D01*
X95876289Y-101221341D01*
X95803210Y-101263533D01*
X95743533Y-101323210D01*
X95701339Y-101396292D01*
X95690419Y-101437046D01*
X95690420Y-101437047D01*
X95690420Y-101437048D01*
X95679500Y-101477805D01*
X94200500Y-101477805D01*
X94200500Y-99557805D01*
X95149500Y-99557805D01*
X95149500Y-99642195D01*
X95150324Y-99645271D01*
X95150324Y-99645273D01*
X95164449Y-99697990D01*
X95164451Y-99697994D01*
X95166437Y-99705405D01*
X95171341Y-99723709D01*
X95171343Y-99723713D01*
X95213533Y-99796788D01*
X95213534Y-99796789D01*
X95213536Y-99796792D01*
X95215398Y-99798654D01*
X95273208Y-99856464D01*
X95273620Y-99856761D01*
X95275130Y-99857574D01*
X95301264Y-99872663D01*
X95301265Y-99872663D01*
X95346291Y-99898659D01*
X95427805Y-99920500D01*
X95427806Y-99920500D01*
X95512194Y-99920500D01*
X95512195Y-99920500D01*
X95525754Y-99916866D01*
X95554560Y-99914977D01*
X95565733Y-99916448D01*
X95614769Y-99944749D01*
X95615298Y-99945438D01*
X95630603Y-99990503D01*
X95630603Y-99994568D01*
X95629971Y-100004220D01*
X95629500Y-100007800D01*
X95629500Y-100092194D01*
X95643423Y-100144160D01*
X95643424Y-100144163D01*
X95645348Y-100151341D01*
X95651341Y-100173709D01*
X95651343Y-100173713D01*
X95693533Y-100246788D01*
X95693534Y-100246789D01*
X95693536Y-100246792D01*
X95695528Y-100248784D01*
X95753208Y-100306464D01*
X95753623Y-100306763D01*
X95755129Y-100307574D01*
X95777518Y-100320500D01*
X95777519Y-100320500D01*
X95826291Y-100348659D01*
X95907805Y-100370500D01*
X95907806Y-100370500D01*
X95992194Y-100370500D01*
X95992195Y-100370500D01*
X96073709Y-100348659D01*
X96146792Y-100306464D01*
X96206464Y-100246792D01*
X96248659Y-100173709D01*
X96270500Y-100092195D01*
X96270500Y-100007805D01*
X96248659Y-99926291D01*
X96220677Y-99877825D01*
X96207570Y-99855123D01*
X96206684Y-99853477D01*
X96206542Y-99853286D01*
X96146790Y-99793534D01*
X96122429Y-99779469D01*
X96073713Y-99751343D01*
X96073709Y-99751341D01*
X96068177Y-99749859D01*
X96051909Y-99745499D01*
X96051909Y-99745500D01*
X95992195Y-99729500D01*
X95992194Y-99729500D01*
X95907804Y-99729500D01*
X95894243Y-99733133D01*
X95865432Y-99735021D01*
X95854261Y-99733550D01*
X95805213Y-99705230D01*
X95804662Y-99704512D01*
X95789397Y-99659498D01*
X95789397Y-99655409D01*
X95790032Y-99645747D01*
X95790500Y-99642196D01*
X95790500Y-99557806D01*
X95789356Y-99553535D01*
X95768659Y-99476291D01*
X95726464Y-99403208D01*
X95666792Y-99343536D01*
X95666791Y-99343535D01*
X95666790Y-99343534D01*
X95642429Y-99329469D01*
X95593713Y-99301343D01*
X95593709Y-99301341D01*
X95593702Y-99301339D01*
X95555663Y-99291146D01*
X95555663Y-99291147D01*
X95512195Y-99279500D01*
X95512194Y-99279500D01*
X95427805Y-99279500D01*
X95387047Y-99290420D01*
X95387046Y-99290419D01*
X95346292Y-99301339D01*
X95273210Y-99343533D01*
X95213533Y-99403210D01*
X95204763Y-99418401D01*
X95171343Y-99476286D01*
X95171341Y-99476290D01*
X95171341Y-99476291D01*
X95149500Y-99557805D01*
X94200500Y-99557805D01*
X94200500Y-99054625D01*
X94206131Y-99026311D01*
X94209181Y-99018947D01*
X94249228Y-98978900D01*
X94305863Y-98978898D01*
X94313223Y-98981946D01*
X94337231Y-98997987D01*
X94345708Y-99006464D01*
X94346118Y-99006760D01*
X94347618Y-99007567D01*
X94375577Y-99023709D01*
X94418791Y-99048659D01*
X94500305Y-99070500D01*
X94500306Y-99070500D01*
X94584694Y-99070500D01*
X94584695Y-99070500D01*
X94666209Y-99048659D01*
X94739292Y-99006464D01*
X94798964Y-98946792D01*
X94841159Y-98873709D01*
X94863000Y-98792195D01*
X94863000Y-98707805D01*
X94841159Y-98626291D01*
X94805477Y-98564489D01*
X94800071Y-98555125D01*
X94799182Y-98553474D01*
X94799044Y-98553288D01*
X94739290Y-98493534D01*
X94701031Y-98471445D01*
X94679322Y-98452406D01*
X94672464Y-98443468D01*
X94657806Y-98388760D01*
X94657807Y-98388759D01*
X94657920Y-98387901D01*
X94678959Y-98345238D01*
X94681401Y-98342796D01*
X94696719Y-98331043D01*
X94705762Y-98325822D01*
X94739292Y-98306464D01*
X94798964Y-98246792D01*
X94841159Y-98173709D01*
X94863000Y-98092195D01*
X94863000Y-98007805D01*
X94841159Y-97926291D01*
X94838258Y-97921267D01*
X94823491Y-97895688D01*
X94823491Y-97895689D01*
X94800070Y-97855122D01*
X94800070Y-97855121D01*
X94798966Y-97853210D01*
X94739290Y-97793534D01*
X94692024Y-97766245D01*
X94666213Y-97751343D01*
X94666209Y-97751341D01*
X94666202Y-97751339D01*
X94606707Y-97735397D01*
X94606707Y-97735398D01*
X94584695Y-97729500D01*
X94584694Y-97729500D01*
X94500306Y-97729500D01*
X94500305Y-97729500D01*
X94495654Y-97730746D01*
X94478293Y-97735397D01*
X94478293Y-97735398D01*
X94418790Y-97751341D01*
X94418786Y-97751343D01*
X94403631Y-97760093D01*
X94345709Y-97793534D01*
X94341751Y-97796172D01*
X94337959Y-97801283D01*
X94337232Y-97802010D01*
X94313226Y-97818050D01*
X94305868Y-97821098D01*
X94249231Y-97821100D01*
X94209182Y-97781052D01*
X94206134Y-97773694D01*
X94200500Y-97745374D01*
X94200500Y-97507805D01*
X96679500Y-97507805D01*
X96679500Y-97592195D01*
X96692351Y-97640156D01*
X96701341Y-97673709D01*
X96743534Y-97746790D01*
X96743535Y-97746791D01*
X96743536Y-97746792D01*
X96803208Y-97806464D01*
X96803210Y-97806465D01*
X96803211Y-97806466D01*
X96828558Y-97821100D01*
X96876291Y-97848659D01*
X96957805Y-97870500D01*
X96957806Y-97870500D01*
X97042194Y-97870500D01*
X97042195Y-97870500D01*
X97123709Y-97848659D01*
X97196792Y-97806464D01*
X97256464Y-97746792D01*
X97298659Y-97673709D01*
X97320500Y-97592195D01*
X97320500Y-97507805D01*
X97298659Y-97426291D01*
X97259792Y-97358972D01*
X97259792Y-97358971D01*
X97259789Y-97358967D01*
X97257556Y-97355099D01*
X97256680Y-97353470D01*
X97256544Y-97353288D01*
X97196790Y-97293534D01*
X97132586Y-97256466D01*
X97123713Y-97251343D01*
X97123709Y-97251341D01*
X97123706Y-97251340D01*
X97112128Y-97248237D01*
X97112128Y-97248238D01*
X97042195Y-97229500D01*
X97042194Y-97229500D01*
X96957805Y-97229500D01*
X96917047Y-97240420D01*
X96917046Y-97240419D01*
X96876292Y-97251339D01*
X96803210Y-97293533D01*
X96743533Y-97353210D01*
X96701339Y-97426292D01*
X96690419Y-97467046D01*
X96690420Y-97467047D01*
X96681988Y-97498520D01*
X96679500Y-97507805D01*
X94200500Y-97507805D01*
X94200500Y-92904415D01*
X95219500Y-92904415D01*
X95219500Y-93095584D01*
X95219531Y-93095739D01*
X95219531Y-93095740D01*
X95256793Y-93283076D01*
X95256796Y-93283087D01*
X95256797Y-93283089D01*
X95329952Y-93459702D01*
X95329954Y-93459704D01*
X95436162Y-93618657D01*
X95571342Y-93753837D01*
X95730296Y-93860046D01*
X95888268Y-93925480D01*
X95906916Y-93933204D01*
X96094414Y-93970500D01*
X96094416Y-93970500D01*
X96285584Y-93970500D01*
X96285586Y-93970500D01*
X96473084Y-93933204D01*
X96478130Y-93931113D01*
X96506449Y-93925478D01*
X96514418Y-93925478D01*
X96566743Y-93947152D01*
X96588417Y-93999478D01*
X96588417Y-94007445D01*
X96582786Y-94035758D01*
X96579501Y-94043690D01*
X96579500Y-94043696D01*
X96579500Y-96122328D01*
X96573867Y-96150645D01*
X96567368Y-96166336D01*
X96565854Y-96169992D01*
X96534487Y-96205759D01*
X96490710Y-96231033D01*
X96431033Y-96290710D01*
X96388837Y-96363796D01*
X96388831Y-96363808D01*
X96388805Y-96363859D01*
X96388554Y-96364859D01*
X96371450Y-96428697D01*
X96367000Y-96445305D01*
X96367000Y-96529695D01*
X96386152Y-96601173D01*
X96388841Y-96611209D01*
X96388843Y-96611213D01*
X96397327Y-96625908D01*
X96431034Y-96684290D01*
X96490708Y-96743964D01*
X96491117Y-96744259D01*
X96492606Y-96745060D01*
X96524673Y-96763574D01*
X96563791Y-96786159D01*
X96645305Y-96808000D01*
X96645306Y-96808000D01*
X96729694Y-96808000D01*
X96729695Y-96808000D01*
X96811209Y-96786159D01*
X96884292Y-96743964D01*
X96943964Y-96684292D01*
X96986159Y-96611209D01*
X97008000Y-96529695D01*
X97008000Y-96471044D01*
X97009421Y-96456612D01*
X97009450Y-96456464D01*
X97012211Y-96442581D01*
X97016421Y-96428706D01*
X97020500Y-96418860D01*
X97020500Y-96331140D01*
X97020500Y-94337571D01*
X97026131Y-94309257D01*
X97034146Y-94289907D01*
X97065511Y-94254142D01*
X97115569Y-94225241D01*
X97175241Y-94165569D01*
X97217436Y-94092486D01*
X97239277Y-94010972D01*
X97239277Y-93926582D01*
X97217436Y-93845068D01*
X97192818Y-93802429D01*
X97175243Y-93771988D01*
X97175242Y-93771987D01*
X97175241Y-93771985D01*
X97115569Y-93712313D01*
X97115567Y-93712311D01*
X97090199Y-93697665D01*
X97042490Y-93670120D01*
X97042488Y-93670119D01*
X97042486Y-93670118D01*
X97042483Y-93670117D01*
X97042481Y-93670116D01*
X97039000Y-93668795D01*
X97039207Y-93668247D01*
X97017717Y-93657647D01*
X97008781Y-93650789D01*
X96980467Y-93601745D01*
X96979933Y-93597686D01*
X96991772Y-93546916D01*
X97050046Y-93459704D01*
X97109373Y-93316475D01*
X97123203Y-93283087D01*
X97123205Y-93283081D01*
X97160500Y-93095586D01*
X97160500Y-92904415D01*
X97759500Y-92904415D01*
X97759500Y-93095584D01*
X97759531Y-93095739D01*
X97759531Y-93095740D01*
X97796793Y-93283076D01*
X97796796Y-93283087D01*
X97796797Y-93283089D01*
X97869952Y-93459702D01*
X97869954Y-93459704D01*
X97976162Y-93618657D01*
X98111342Y-93753837D01*
X98270296Y-93860046D01*
X98428268Y-93925480D01*
X98446916Y-93933204D01*
X98634414Y-93970500D01*
X98634416Y-93970500D01*
X98825584Y-93970500D01*
X98825586Y-93970500D01*
X99013084Y-93933204D01*
X99189704Y-93860046D01*
X99348658Y-93753837D01*
X99483837Y-93618658D01*
X99590046Y-93459704D01*
X99641159Y-93336305D01*
X99663203Y-93283087D01*
X99663205Y-93283081D01*
X99700500Y-93095586D01*
X99700500Y-92904415D01*
X100299500Y-92904415D01*
X100299500Y-93095584D01*
X100299531Y-93095739D01*
X100299531Y-93095740D01*
X100336793Y-93283076D01*
X100336796Y-93283087D01*
X100336797Y-93283089D01*
X100409952Y-93459702D01*
X100409954Y-93459704D01*
X100516162Y-93618657D01*
X100651342Y-93753837D01*
X100810296Y-93860046D01*
X100968268Y-93925480D01*
X100986916Y-93933204D01*
X101174414Y-93970500D01*
X101174416Y-93970500D01*
X101365584Y-93970500D01*
X101365586Y-93970500D01*
X101553084Y-93933204D01*
X101729704Y-93860046D01*
X101888658Y-93753837D01*
X102023837Y-93618658D01*
X102130046Y-93459704D01*
X102181159Y-93336305D01*
X102193789Y-93305814D01*
X104999500Y-93305814D01*
X104999500Y-93444185D01*
X105035310Y-93577831D01*
X105035312Y-93577836D01*
X105104495Y-93697665D01*
X105202335Y-93795505D01*
X105322164Y-93864688D01*
X105455814Y-93900499D01*
X105455815Y-93900500D01*
X105455817Y-93900500D01*
X105486325Y-93900500D01*
X105489017Y-93900697D01*
X105501850Y-93907147D01*
X105531242Y-93917862D01*
X105903126Y-94230583D01*
X105929225Y-94280848D01*
X105929500Y-94287219D01*
X105929500Y-95186871D01*
X105930889Y-95193859D01*
X105936488Y-95222015D01*
X105936489Y-95222016D01*
X105961178Y-95258963D01*
X105961180Y-95258971D01*
X105961183Y-95258970D01*
X105961184Y-95258972D01*
X105963124Y-95261876D01*
X105963125Y-95261877D01*
X105978419Y-95272096D01*
X106002983Y-95288509D01*
X106038130Y-95295500D01*
X106811870Y-95295500D01*
X106847017Y-95288509D01*
X106886876Y-95261876D01*
X106913509Y-95222017D01*
X106920500Y-95186870D01*
X106920500Y-93363130D01*
X106913509Y-93327983D01*
X106886876Y-93288124D01*
X106886874Y-93288122D01*
X106886873Y-93288121D01*
X106879339Y-93283087D01*
X106879339Y-93283086D01*
X106847015Y-93261489D01*
X106847015Y-93261488D01*
X106811875Y-93254500D01*
X106811870Y-93254500D01*
X106810708Y-93254500D01*
X106810344Y-93254349D01*
X106808258Y-93254144D01*
X106808320Y-93253510D01*
X106802040Y-93250909D01*
X106792761Y-93252291D01*
X106776769Y-93240442D01*
X106758382Y-93232826D01*
X106751138Y-93224402D01*
X106529618Y-92923768D01*
X106516028Y-92868786D01*
X106527662Y-92838763D01*
X106544198Y-92814017D01*
X106550000Y-92784848D01*
X106550000Y-92450000D01*
X105050001Y-92450000D01*
X105050001Y-92784848D01*
X105055802Y-92814018D01*
X105055802Y-92814019D01*
X105057224Y-92821165D01*
X105055095Y-92821588D01*
X105058282Y-92844594D01*
X105008481Y-93267896D01*
X105008479Y-93267916D01*
X105007561Y-93275728D01*
X104999500Y-93305814D01*
X102193789Y-93305814D01*
X102203203Y-93283087D01*
X102203203Y-93283086D01*
X102203204Y-93283084D01*
X102240500Y-93095586D01*
X102240500Y-92904414D01*
X102203204Y-92716916D01*
X102190812Y-92687000D01*
X102175486Y-92650000D01*
X102130046Y-92540296D01*
X102023837Y-92381342D01*
X101888656Y-92246161D01*
X101729702Y-92139952D01*
X101553092Y-92066798D01*
X101553087Y-92066796D01*
X101553074Y-92066792D01*
X101553075Y-92066792D01*
X101427518Y-92041819D01*
X101427517Y-92041818D01*
X101371121Y-92030601D01*
X101365586Y-92029500D01*
X101365585Y-92029500D01*
X101174415Y-92029500D01*
X101174414Y-92029500D01*
X101157992Y-92032766D01*
X101141570Y-92036033D01*
X100986922Y-92066793D01*
X100986912Y-92066796D01*
X100986906Y-92066798D01*
X100810296Y-92139952D01*
X100651072Y-92246342D01*
X100649696Y-92247808D01*
X100517808Y-92379696D01*
X100516342Y-92381072D01*
X100409952Y-92540296D01*
X100336798Y-92716906D01*
X100336792Y-92716924D01*
X100310901Y-92847096D01*
X100303603Y-92883790D01*
X100299790Y-92902959D01*
X100299500Y-92904415D01*
X99700500Y-92904415D01*
X99700500Y-92904414D01*
X99663204Y-92716916D01*
X99650812Y-92687000D01*
X99635486Y-92650000D01*
X99590046Y-92540296D01*
X99483837Y-92381342D01*
X99348656Y-92246161D01*
X99189702Y-92139952D01*
X99013092Y-92066798D01*
X99013087Y-92066796D01*
X99013074Y-92066792D01*
X99013075Y-92066792D01*
X98887518Y-92041819D01*
X98887517Y-92041818D01*
X98831121Y-92030601D01*
X98825586Y-92029500D01*
X98825585Y-92029500D01*
X98634415Y-92029500D01*
X98634414Y-92029500D01*
X98617992Y-92032766D01*
X98601570Y-92036033D01*
X98446922Y-92066793D01*
X98446912Y-92066796D01*
X98446906Y-92066798D01*
X98270296Y-92139952D01*
X98111072Y-92246342D01*
X98109696Y-92247808D01*
X97977808Y-92379696D01*
X97976342Y-92381072D01*
X97869952Y-92540296D01*
X97796798Y-92716906D01*
X97796792Y-92716924D01*
X97770901Y-92847096D01*
X97763603Y-92883790D01*
X97759790Y-92902959D01*
X97759500Y-92904415D01*
X97160500Y-92904415D01*
X97160500Y-92904414D01*
X97123204Y-92716916D01*
X97110812Y-92687000D01*
X97095486Y-92650000D01*
X97050046Y-92540296D01*
X96943837Y-92381342D01*
X96808656Y-92246161D01*
X96649702Y-92139952D01*
X96473092Y-92066798D01*
X96473087Y-92066796D01*
X96473074Y-92066792D01*
X96473075Y-92066792D01*
X96347518Y-92041819D01*
X96347517Y-92041818D01*
X96291121Y-92030601D01*
X96285586Y-92029500D01*
X96285585Y-92029500D01*
X96094415Y-92029500D01*
X96094414Y-92029500D01*
X96077992Y-92032766D01*
X96061570Y-92036033D01*
X95906922Y-92066793D01*
X95906912Y-92066796D01*
X95906906Y-92066798D01*
X95730296Y-92139952D01*
X95571072Y-92246342D01*
X95569696Y-92247808D01*
X95437808Y-92379696D01*
X95436342Y-92381072D01*
X95329952Y-92540296D01*
X95256798Y-92716906D01*
X95256792Y-92716924D01*
X95230901Y-92847096D01*
X95223603Y-92883790D01*
X95219790Y-92902959D01*
X95219500Y-92904415D01*
X94200500Y-92904415D01*
X94200500Y-91789218D01*
X94206129Y-91760909D01*
X94210443Y-91750494D01*
X94250482Y-91710448D01*
X94260911Y-91706128D01*
X94289219Y-91700500D01*
X100271202Y-91700500D01*
X100271526Y-91700506D01*
X100280143Y-91700504D01*
X100280144Y-91700505D01*
X100320026Y-91700500D01*
X100359882Y-91700500D01*
X100359902Y-91700495D01*
X100363885Y-91700495D01*
X100364658Y-91700495D01*
X100369685Y-91700000D01*
X104491710Y-91700000D01*
X104542548Y-91720227D01*
G37*
%TD.AperFunction*%
%TA.AperFunction,Conductor*%
G36*
X103409948Y-97808181D02*
G01*
X103413274Y-97808748D01*
X103413905Y-97809136D01*
X103424053Y-97815656D01*
X103456526Y-97830484D01*
X103471525Y-97834889D01*
X103489024Y-97838697D01*
X103509618Y-97841658D01*
X103523940Y-97843719D01*
X103523950Y-97843719D01*
X103523965Y-97843722D01*
X103533422Y-97844398D01*
X103541822Y-97845000D01*
X103541830Y-97845000D01*
X103752074Y-97845000D01*
X103764841Y-97846110D01*
X103765702Y-97846260D01*
X103783323Y-97849765D01*
X103787731Y-97850560D01*
X103796484Y-97851978D01*
X103798340Y-97851977D01*
X103803321Y-97852850D01*
X103804193Y-97853404D01*
X103811397Y-97854736D01*
X103847687Y-97865393D01*
X103865186Y-97869200D01*
X103900122Y-97874223D01*
X103917971Y-97875499D01*
X103917975Y-97875500D01*
X103917982Y-97875500D01*
X104358472Y-97875500D01*
X104358483Y-97875500D01*
X104370786Y-97874895D01*
X104370804Y-97874893D01*
X104370808Y-97874893D01*
X104370811Y-97874893D01*
X104415290Y-97870511D01*
X104418807Y-97868433D01*
X104424409Y-97867392D01*
X104424829Y-97867435D01*
X104474669Y-97858157D01*
X104475423Y-97858015D01*
X104476914Y-97857728D01*
X104477672Y-97857579D01*
X104483908Y-97856338D01*
X104484413Y-97856245D01*
X104484688Y-97856303D01*
X104497929Y-97855000D01*
X104702069Y-97855000D01*
X104716502Y-97856421D01*
X104726162Y-97858342D01*
X104752778Y-97869349D01*
X104891549Y-97961863D01*
X104923063Y-98008921D01*
X104924500Y-98023434D01*
X104924500Y-98414426D01*
X104924995Y-98425570D01*
X104926950Y-98447498D01*
X104928436Y-98458571D01*
X104929066Y-98462078D01*
X104929067Y-98462082D01*
X104937479Y-98489890D01*
X104960182Y-98542161D01*
X104960195Y-98542187D01*
X104974763Y-98567296D01*
X104979931Y-98574212D01*
X104988396Y-98585540D01*
X105000110Y-98599083D01*
X105000116Y-98599089D01*
X105025038Y-98624055D01*
X105025061Y-98624077D01*
X105038533Y-98635771D01*
X105038554Y-98635788D01*
X105038562Y-98635795D01*
X105355781Y-98873709D01*
X105385903Y-98896300D01*
X105414759Y-98945035D01*
X105400703Y-98999900D01*
X105351968Y-99028756D01*
X105341503Y-99029500D01*
X105338130Y-99029500D01*
X105320556Y-99032995D01*
X105302982Y-99036490D01*
X105263127Y-99063120D01*
X105263120Y-99063127D01*
X105236490Y-99102982D01*
X105229500Y-99138131D01*
X105229500Y-99676000D01*
X105207826Y-99728326D01*
X105155500Y-99750000D01*
X104324000Y-99750000D01*
X104271674Y-99728326D01*
X104250000Y-99676000D01*
X104250000Y-99525000D01*
X103750001Y-99525000D01*
X103750001Y-99553535D01*
X103728327Y-99605861D01*
X103676001Y-99627535D01*
X103660756Y-99625948D01*
X103358755Y-99562369D01*
X103312017Y-99530380D01*
X103300000Y-99489956D01*
X103300000Y-99140151D01*
X103750000Y-99140151D01*
X103750000Y-99375000D01*
X103925000Y-99375000D01*
X104075000Y-99375000D01*
X104249999Y-99375000D01*
X104249999Y-99140151D01*
X104244197Y-99110981D01*
X104244196Y-99110980D01*
X104244196Y-99110978D01*
X104222102Y-99077910D01*
X104222094Y-99077902D01*
X104189017Y-99055801D01*
X104183104Y-99054625D01*
X104159848Y-99050000D01*
X104159847Y-99050000D01*
X104075000Y-99050000D01*
X104075000Y-99375000D01*
X103925000Y-99375000D01*
X103925000Y-99050000D01*
X103840156Y-99050000D01*
X103840152Y-99050000D01*
X103823482Y-99053315D01*
X103810978Y-99055802D01*
X103777910Y-99077896D01*
X103777906Y-99077900D01*
X103777904Y-99077903D01*
X103777902Y-99077904D01*
X103755801Y-99110981D01*
X103755801Y-99110982D01*
X103750000Y-99140151D01*
X103300000Y-99140151D01*
X103300000Y-99099684D01*
X103300500Y-99094610D01*
X103300500Y-97871776D01*
X103308522Y-97852408D01*
X103312242Y-97831776D01*
X103319017Y-97827070D01*
X103322174Y-97819450D01*
X103341543Y-97811427D01*
X103358762Y-97799469D01*
X103367019Y-97800874D01*
X103374500Y-97797776D01*
X103409948Y-97808181D01*
G37*
%TD.AperFunction*%
%TA.AperFunction,Conductor*%
G36*
X102612890Y-96850500D02*
G01*
X102617617Y-96850500D01*
X102617618Y-96850500D01*
X102671579Y-96850500D01*
X102699893Y-96856131D01*
X102725025Y-96866541D01*
X102749031Y-96882581D01*
X102867418Y-97000968D01*
X102883457Y-97024971D01*
X102893868Y-97050105D01*
X102899500Y-97078420D01*
X102899500Y-98135816D01*
X102877826Y-98188142D01*
X102825500Y-98209816D01*
X102824824Y-98209813D01*
X102058727Y-98202818D01*
X101750000Y-98200000D01*
X101749991Y-98200000D01*
X101074500Y-98200000D01*
X101022174Y-98178326D01*
X101000500Y-98126000D01*
X101000500Y-97962733D01*
X101006132Y-97934417D01*
X101007536Y-97931027D01*
X101016540Y-97909287D01*
X101032578Y-97885284D01*
X101465284Y-97452577D01*
X101489292Y-97436538D01*
X101514420Y-97426131D01*
X101542735Y-97420499D01*
X101831714Y-97420499D01*
X101831718Y-97420499D01*
X101896035Y-97407707D01*
X101968972Y-97358972D01*
X102017707Y-97286035D01*
X102030500Y-97221719D01*
X102030499Y-96978282D01*
X102022574Y-96938435D01*
X102033624Y-96882886D01*
X102080717Y-96851422D01*
X102095152Y-96850000D01*
X102607814Y-96850000D01*
X102612890Y-96850500D01*
G37*
%TD.AperFunction*%
%TD*%
%TA.AperFunction,Conductor*%
%TO.N,Net-(U4-SUP_2)*%
G36*
X96128205Y-105488317D02*
G01*
X96131501Y-105494845D01*
X96344072Y-106904518D01*
X96341917Y-106913210D01*
X96334248Y-106917832D01*
X96333663Y-106917905D01*
X95506237Y-107000378D01*
X95497665Y-106997789D01*
X95496027Y-106996152D01*
X95431849Y-106917832D01*
X94968047Y-106351827D01*
X94965455Y-106343257D01*
X94969517Y-106335500D01*
X95966723Y-105487675D01*
X95974302Y-105484890D01*
X96119932Y-105484890D01*
X96128205Y-105488317D01*
G37*
%TD.AperFunction*%
%TD*%
%TA.AperFunction,Conductor*%
%TO.N,/B_PW*%
G36*
X113395641Y-93035548D02*
G01*
X113396908Y-93037047D01*
X113633488Y-93370243D01*
X113635483Y-93378973D01*
X113635099Y-93380560D01*
X113361582Y-94241476D01*
X113355811Y-94248323D01*
X113346888Y-94249084D01*
X113340041Y-94243313D01*
X113339333Y-94241638D01*
X113052234Y-93381692D01*
X113052865Y-93372760D01*
X113054875Y-93369901D01*
X113275722Y-93138922D01*
X113275810Y-93138833D01*
X113379096Y-93035547D01*
X113387368Y-93032121D01*
X113395641Y-93035548D01*
G37*
%TD.AperFunction*%
%TD*%
%TA.AperFunction,Conductor*%
%TO.N,/B1*%
G36*
X107695641Y-93035548D02*
G01*
X107696908Y-93037047D01*
X107933488Y-93370243D01*
X107935483Y-93378973D01*
X107935099Y-93380560D01*
X107661582Y-94241476D01*
X107655811Y-94248323D01*
X107646888Y-94249084D01*
X107640041Y-94243313D01*
X107639333Y-94241638D01*
X107352234Y-93381692D01*
X107352865Y-93372760D01*
X107354875Y-93369901D01*
X107575722Y-93138922D01*
X107575810Y-93138833D01*
X107679096Y-93035547D01*
X107687368Y-93032121D01*
X107695641Y-93035548D01*
G37*
%TD.AperFunction*%
%TD*%
%TA.AperFunction,Conductor*%
%TO.N,Net-(PA1010D1-TX)*%
G36*
X109304930Y-105447466D02*
G01*
X109309081Y-105449358D01*
X109311311Y-105450963D01*
X109315634Y-105456940D01*
X109315756Y-105457327D01*
X109316277Y-105460164D01*
X109350085Y-106040057D01*
X109349457Y-106044579D01*
X109348510Y-106047304D01*
X109344228Y-106053005D01*
X109344080Y-106053110D01*
X109341764Y-106054387D01*
X108962815Y-106210409D01*
X108958335Y-106211290D01*
X108956505Y-106211286D01*
X108948300Y-106207900D01*
X108947078Y-106206690D01*
X108944557Y-106202987D01*
X108880871Y-106054387D01*
X108614624Y-105433142D01*
X108613680Y-105428681D01*
X108613643Y-105425657D01*
X108616968Y-105417346D01*
X108717473Y-105316840D01*
X108721264Y-105314307D01*
X108724397Y-105313009D01*
X108731554Y-105312432D01*
X109304930Y-105447466D01*
G37*
%TD.AperFunction*%
%TD*%
%TA.AperFunction,Conductor*%
%TO.N,Net-(PA1010D1-RX)*%
G36*
X107832650Y-105053427D02*
G01*
X107833513Y-105054391D01*
X108144659Y-105443324D01*
X108147151Y-105451925D01*
X108145263Y-105457116D01*
X107759740Y-106036365D01*
X107752303Y-106041353D01*
X107743517Y-106039622D01*
X107740260Y-106036365D01*
X107354736Y-105457116D01*
X107353005Y-105448330D01*
X107355338Y-105443326D01*
X107666487Y-105054390D01*
X107674331Y-105050072D01*
X107675623Y-105050000D01*
X107824377Y-105050000D01*
X107832650Y-105053427D01*
G37*
%TD.AperFunction*%
%TD*%
M02*
