%TF.GenerationSoftware,KiCad,Pcbnew,10.0.0*%
%TF.CreationDate,2026-06-27T13:30:49+02:00*%
%TF.ProjectId,hardware_V11,68617264-7761-4726-955f-5631312e6b69,rev?*%
%TF.SameCoordinates,Original*%
%TF.FileFunction,Copper,L3,Inr*%
%TF.FilePolarity,Positive*%
%FSLAX46Y46*%
G04 Gerber Fmt 4.6, Leading zero omitted, Abs format (unit mm)*
G04 Created by KiCad (PCBNEW 10.0.0) date 2026-06-27 13:30:49*
%MOMM*%
%LPD*%
G01*
G04 APERTURE LIST*
%TA.AperFunction,ComponentPad*%
%ADD10R,1.700000X1.700000*%
%TD*%
%TA.AperFunction,ComponentPad*%
%ADD11C,1.700000*%
%TD*%
%TA.AperFunction,ComponentPad*%
%ADD12O,1.800000X1.000000*%
%TD*%
%TA.AperFunction,ComponentPad*%
%ADD13O,2.100000X1.000000*%
%TD*%
%TA.AperFunction,ViaPad*%
%ADD14C,0.400000*%
%TD*%
%TA.AperFunction,Conductor*%
%ADD15C,0.160000*%
%TD*%
G04 APERTURE END LIST*
D10*
%TO.N,GND*%
%TO.C,U4*%
X103810000Y-93000000D03*
D11*
%TO.N,3.3V_AUX*%
X101270000Y-93000000D03*
%TO.N,/OLED_SCL*%
X98730000Y-93000000D03*
%TO.N,/OLED_SDA*%
X96190000Y-93000000D03*
%TO.N,GND*%
X104500000Y-107000000D03*
%TO.N,Net-(U4-SUP_2)*%
X95500000Y-107000000D03*
%TD*%
D12*
%TO.N,GND*%
%TO.C,J3*%
X95225000Y-104320000D03*
D13*
X99405000Y-104320000D03*
D12*
X95225000Y-95680000D03*
D13*
X99405000Y-95680000D03*
%TD*%
D14*
%TO.N,GND*%
X96350000Y-97550000D03*
%TO.N,/ECRAN_SUP*%
X97000000Y-97550000D03*
X94700000Y-105350000D03*
%TO.N,GND*%
X102700000Y-98750000D03*
X103150000Y-95850000D03*
X104400000Y-94500000D03*
%TO.N,/SENSOR_SCL*%
X102850000Y-94300000D03*
%TO.N,/SENSOR_SDA*%
X103550000Y-94300000D03*
%TO.N,GND*%
X113104134Y-106730000D03*
%TO.N,3.3V_AUX*%
X114150000Y-107750000D03*
X112592500Y-107950000D03*
%TO.N,/USB_DET*%
X102800000Y-99350000D03*
%TO.N,3.3V_AUX*%
X106100000Y-99600000D03*
X111850000Y-104950000D03*
X106100000Y-98900000D03*
X112750000Y-104950000D03*
X96687500Y-96487500D03*
X114250000Y-100435000D03*
X113700000Y-92292500D03*
X96918777Y-93968777D03*
X114900000Y-100450000D03*
X108000000Y-92050000D03*
%TO.N,GND*%
X97650000Y-101500000D03*
X109850000Y-94300000D03*
X112100000Y-100000000D03*
X110150000Y-95470000D03*
X96300000Y-107940000D03*
X94750000Y-105950000D03*
X99050000Y-99000000D03*
X97250000Y-107715000D03*
X108500000Y-106150000D03*
X102000000Y-107400000D03*
X111100000Y-94300000D03*
X99700000Y-94750000D03*
X104440000Y-102350000D03*
X108560000Y-95590000D03*
X115350000Y-101950000D03*
X116140000Y-104700000D03*
X96850000Y-102550000D03*
X96260000Y-95500000D03*
X97250000Y-96000000D03*
X109700000Y-107900000D03*
X112550000Y-103250000D03*
X105950000Y-106290148D03*
X114125000Y-94675000D03*
X110950000Y-104370000D03*
X99000000Y-100600000D03*
X115500000Y-104900000D03*
X111750000Y-106600000D03*
X98190000Y-107715000D03*
X104350000Y-104850000D03*
X100600000Y-107450000D03*
X113300000Y-101200000D03*
X108700000Y-102230000D03*
X108330000Y-99520000D03*
X110100000Y-96550000D03*
X94500000Y-100800000D03*
X109460000Y-98810000D03*
X116000000Y-94370000D03*
X103200000Y-101400000D03*
X105700000Y-104900000D03*
X107120000Y-98800000D03*
X108700000Y-92250000D03*
X97570000Y-100690000D03*
X115200000Y-92325000D03*
X112948528Y-102048528D03*
X106970000Y-102250000D03*
X94510000Y-99600000D03*
X111900000Y-96550000D03*
X106870000Y-101050000D03*
X94600000Y-92000000D03*
X97500000Y-93200000D03*
X103540000Y-99130000D03*
X95340000Y-97500000D03*
X106950000Y-92350000D03*
X109700000Y-103250000D03*
X98500000Y-106050000D03*
X112440000Y-95780000D03*
X99970000Y-92000000D03*
X105350000Y-94300000D03*
X101350000Y-97850000D03*
X108600000Y-96550000D03*
X94700000Y-93300000D03*
X111251472Y-102048528D03*
X116200000Y-106400000D03*
X110900000Y-101200000D03*
X105400000Y-103560000D03*
X107640000Y-101060000D03*
X99700000Y-107140000D03*
X105800000Y-92325000D03*
X98570000Y-94830000D03*
X94570000Y-107920000D03*
X112100000Y-102400000D03*
X111251472Y-100351472D03*
X113050000Y-98750000D03*
X102500000Y-93850000D03*
X112948528Y-100351472D03*
X116150000Y-92000000D03*
X94500000Y-103050000D03*
X97650000Y-99000000D03*
X103450000Y-104000000D03*
X97400000Y-91950000D03*
X99860000Y-93570000D03*
X104390000Y-98730000D03*
%TO.N,+3.3V*%
X109100000Y-94275000D03*
X101050000Y-105600000D03*
X95470000Y-99600000D03*
X113000000Y-92285000D03*
X101695689Y-105753801D03*
X95950000Y-100050000D03*
X106425000Y-94275000D03*
%TO.N,BAT+*%
X113850000Y-96350000D03*
X102800000Y-107350000D03*
X106550000Y-108000000D03*
X110800000Y-108000000D03*
X106550048Y-107300000D03*
X99337500Y-106050000D03*
X110786119Y-107201003D03*
X99900000Y-106300000D03*
X102950000Y-106850000D03*
%TO.N,/B_PW*%
X96000000Y-101520000D03*
X113050000Y-92950000D03*
%TO.N,3.3V_GPS*%
X115150000Y-96950000D03*
X114750000Y-96050000D03*
X109400000Y-104750000D03*
X110050000Y-104750000D03*
%TO.N,/GPS_EN*%
X106550000Y-106608592D03*
X101400000Y-103600000D03*
%TO.N,Net-(J1-CLK)*%
X102350000Y-104250000D03*
X114903004Y-101530602D03*
%TO.N,/SPI_MOSI*%
X115050000Y-99335000D03*
X99000000Y-101300000D03*
%TO.N,Net-(LEDGREEN1-A)*%
X94542500Y-98050000D03*
X97850000Y-106020000D03*
%TO.N,/B1*%
X107300000Y-93007500D03*
X100750000Y-96200000D03*
%TO.N,/SPI_CS*%
X98350000Y-103250000D03*
X114250000Y-98235000D03*
%TO.N,/SPI_MISO*%
X115050000Y-103735000D03*
X99002339Y-101925842D03*
%TO.N,/SD_DET*%
X106710000Y-95820000D03*
X102125000Y-101950000D03*
%TO.N,Net-(PA1010D1-TX)*%
X107395273Y-104352727D03*
X97900000Y-104657500D03*
%TO.N,Net-(LEDBLUE1-A)*%
X97000000Y-106200000D03*
X94542500Y-98750000D03*
%TO.N,/AUX_EN*%
X101400000Y-102962889D03*
X110151981Y-106405000D03*
%TO.N,/SENSOR_SCL*%
X114700000Y-106910000D03*
X102400000Y-100850000D03*
%TO.N,/OLED_SCL*%
X98472125Y-97172888D03*
%TO.N,/SENSOR_SDA*%
X114700000Y-108070000D03*
%TO.N,/OLED_SDA*%
X97950002Y-97000000D03*
%TO.N,/SENSOR_SDA*%
X102350000Y-100050000D03*
%TO.N,Net-(PA1010D1-RX)*%
X97200000Y-104657500D03*
X107450000Y-104900000D03*
%TO.N,/D-*%
X102130908Y-99508613D03*
%TO.N,/D+*%
X102151406Y-98932341D03*
%TD*%
%TO.N,/GPS_EN*%
D15*
X104100000Y-104400000D02*
X103600000Y-104900000D01*
X101300000Y-103700000D02*
X101400000Y-103600000D01*
X106550000Y-106600000D02*
X108200000Y-104950000D01*
X102750000Y-105300000D02*
X101800000Y-105300000D01*
X108200000Y-104100000D02*
X107950000Y-103850000D01*
X103600000Y-104900000D02*
X103150000Y-104900000D01*
X108200000Y-104950000D02*
X108200000Y-104100000D01*
X107000000Y-103850000D02*
X106450000Y-104400000D01*
X107950000Y-103850000D02*
X107000000Y-103850000D01*
X106450000Y-104400000D02*
X104100000Y-104400000D01*
X101300000Y-104800000D02*
X101300000Y-103700000D01*
X106550000Y-106608592D02*
X106550000Y-106600000D01*
X101800000Y-105300000D02*
X101300000Y-104800000D01*
X103150000Y-104900000D02*
X102750000Y-105300000D01*
%TO.N,Net-(J1-CLK)*%
X112950000Y-102800000D02*
X114219398Y-101530602D01*
X102450000Y-104200000D02*
X103850000Y-102800000D01*
X102350000Y-104250000D02*
X102400000Y-104200000D01*
X114219398Y-101530602D02*
X114903004Y-101530602D01*
X103850000Y-102800000D02*
X112950000Y-102800000D01*
X102400000Y-104200000D02*
X102450000Y-104200000D01*
%TO.N,/SPI_MOSI*%
X101165686Y-97450000D02*
X102300000Y-97450000D01*
X114335000Y-99335000D02*
X115050000Y-99335000D01*
X107650000Y-97450000D02*
X107900000Y-97700000D01*
X112700000Y-97700000D02*
X114335000Y-99335000D01*
X98600000Y-100900000D02*
X98600000Y-100015686D01*
X105150000Y-97700000D02*
X105400000Y-97450000D01*
X107900000Y-97700000D02*
X112700000Y-97700000D01*
X105400000Y-97450000D02*
X107650000Y-97450000D01*
X99000000Y-101300000D02*
X98600000Y-100900000D01*
X102300000Y-97450000D02*
X102550000Y-97700000D01*
X98600000Y-100015686D02*
X101165686Y-97450000D01*
X102550000Y-97700000D02*
X105150000Y-97700000D01*
%TO.N,Net-(LEDGREEN1-A)*%
X96075000Y-100900000D02*
X96550000Y-100425000D01*
X95450000Y-101150000D02*
X95700000Y-100900000D01*
X97520000Y-106020000D02*
X96750000Y-105250000D01*
X95450000Y-102350000D02*
X95450000Y-101150000D01*
X95700000Y-100900000D02*
X96075000Y-100900000D01*
X96750000Y-103650000D02*
X95450000Y-102350000D01*
X97850000Y-106020000D02*
X97520000Y-106020000D01*
X96550000Y-99350000D02*
X95250000Y-98050000D01*
X96750000Y-105250000D02*
X96750000Y-103650000D01*
X95250000Y-98050000D02*
X94542500Y-98050000D01*
X96550000Y-100425000D02*
X96550000Y-99350000D01*
%TO.N,/SPI_CS*%
X98350000Y-103250000D02*
X98341941Y-103250000D01*
X100750000Y-96650000D02*
X102450000Y-96650000D01*
X102450000Y-96650000D02*
X102910000Y-97110000D01*
X98341941Y-103250000D02*
X98100000Y-103008059D01*
X102910000Y-97110000D02*
X104890000Y-97110000D01*
X104890000Y-97110000D02*
X105150000Y-96850000D01*
X108210000Y-97110000D02*
X113125000Y-97110000D01*
X107950000Y-96850000D02*
X108210000Y-97110000D01*
X98100000Y-103008059D02*
X98100000Y-99300000D01*
X98100000Y-99300000D02*
X100750000Y-96650000D01*
X113125000Y-97110000D02*
X114250000Y-98235000D01*
X105150000Y-96850000D02*
X107950000Y-96850000D01*
%TO.N,/SPI_MISO*%
X114000000Y-100950000D02*
X113750000Y-100700000D01*
X99600000Y-100350000D02*
X99600000Y-101328181D01*
X115050000Y-103000000D02*
X115850000Y-102200000D01*
X99600000Y-101328181D02*
X99002339Y-101925842D01*
X115850000Y-101475000D02*
X115325000Y-100950000D01*
X107280000Y-98050000D02*
X105650000Y-98050000D01*
X115850000Y-102200000D02*
X115850000Y-101475000D01*
X105430000Y-98270000D02*
X102320000Y-98270000D01*
X107500000Y-98270000D02*
X107280000Y-98050000D01*
X113750000Y-100250000D02*
X111770000Y-98270000D01*
X101750000Y-98200000D02*
X99600000Y-100350000D01*
X102250000Y-98200000D02*
X101750000Y-98200000D01*
X113750000Y-100700000D02*
X113750000Y-100250000D01*
X105650000Y-98050000D02*
X105430000Y-98270000D01*
X111770000Y-98270000D02*
X107500000Y-98270000D01*
X115050000Y-103735000D02*
X115050000Y-103000000D01*
X102320000Y-98270000D02*
X102250000Y-98200000D01*
X115325000Y-100950000D02*
X114000000Y-100950000D01*
%TO.N,Net-(PA1010D1-TX)*%
X97992500Y-105150000D02*
X97900000Y-105057500D01*
X101750000Y-106500000D02*
X101300000Y-106500000D01*
X106120000Y-105480000D02*
X103320000Y-105480000D01*
X107247273Y-104352727D02*
X106120000Y-105480000D01*
X97900000Y-105057500D02*
X97900000Y-104657500D01*
X103320000Y-105480000D02*
X102900000Y-105900000D01*
X101300000Y-106500000D02*
X99950000Y-105150000D01*
X102900000Y-105900000D02*
X102350000Y-105900000D01*
X99950000Y-105150000D02*
X97992500Y-105150000D01*
X107395273Y-104352727D02*
X107247273Y-104352727D01*
X102350000Y-105900000D02*
X101750000Y-106500000D01*
%TO.N,Net-(LEDBLUE1-A)*%
X97000000Y-106200000D02*
X97000000Y-105950000D01*
X96370000Y-105320000D02*
X96370000Y-104032624D01*
X96370000Y-104032624D02*
X95000000Y-102662624D01*
X97000000Y-105950000D02*
X96370000Y-105320000D01*
X95000000Y-99207500D02*
X94542500Y-98750000D01*
X95000000Y-102662624D02*
X95000000Y-99207500D01*
%TO.N,/AUX_EN*%
X101800000Y-104550000D02*
X102050000Y-104800000D01*
X104050000Y-104050000D02*
X106200000Y-104050000D01*
X108650000Y-105350000D02*
X109705000Y-106405000D01*
X106200000Y-104050000D02*
X106750000Y-103500000D01*
X102050000Y-104800000D02*
X102600000Y-104800000D01*
X102050000Y-103750000D02*
X101800000Y-104000000D01*
X109705000Y-106405000D02*
X110151981Y-106405000D01*
X101800000Y-104000000D02*
X101800000Y-104550000D01*
X108650000Y-104000000D02*
X108650000Y-105350000D01*
X108150000Y-103500000D02*
X108650000Y-104000000D01*
X103700000Y-104400000D02*
X104050000Y-104050000D01*
X102600000Y-104800000D02*
X103000000Y-104400000D01*
X101400000Y-102962889D02*
X101712889Y-102962889D01*
X101712889Y-102962889D02*
X102050000Y-103300000D01*
X106750000Y-103500000D02*
X108150000Y-103500000D01*
X103000000Y-104400000D02*
X103700000Y-104400000D01*
X102050000Y-103300000D02*
X102050000Y-103750000D01*
%TO.N,Net-(PA1010D1-RX)*%
X100330000Y-106130000D02*
X100330000Y-106121888D01*
X100330000Y-106121888D02*
X100078112Y-105870000D01*
X102100000Y-106900000D02*
X101100000Y-106900000D01*
X101100000Y-106900000D02*
X100330000Y-106130000D01*
X103550000Y-105850000D02*
X103050000Y-106350000D01*
X97850000Y-105550000D02*
X97200000Y-104900000D01*
X99750000Y-105550000D02*
X97850000Y-105550000D01*
X103050000Y-106350000D02*
X102650000Y-106350000D01*
X106500000Y-105850000D02*
X103550000Y-105850000D01*
X102650000Y-106350000D02*
X102100000Y-106900000D01*
X97200000Y-104900000D02*
X97200000Y-104657500D01*
X100070000Y-105870000D02*
X99750000Y-105550000D01*
X107450000Y-104900000D02*
X106500000Y-105850000D01*
X100078112Y-105870000D02*
X100070000Y-105870000D01*
%TD*%
%TA.AperFunction,Conductor*%
%TO.N,GND*%
G36*
X94777826Y-99421674D02*
G01*
X94799500Y-99474000D01*
X94799500Y-102702508D01*
X94830020Y-102776191D01*
X94830022Y-102776195D01*
X94830026Y-102776200D01*
X96137418Y-104083592D01*
X96153457Y-104107595D01*
X96163868Y-104132729D01*
X96169500Y-104161044D01*
X96169500Y-105359884D01*
X96200020Y-105433567D01*
X96200022Y-105433571D01*
X96200026Y-105433576D01*
X96580063Y-105813613D01*
X96599975Y-105849886D01*
X96599999Y-105849996D01*
X96600000Y-105850000D01*
X96677526Y-106198867D01*
X96677738Y-106199820D01*
X96679500Y-106215873D01*
X96679500Y-106242195D01*
X96680732Y-106246792D01*
X96696072Y-106304047D01*
X96699988Y-106318659D01*
X96701341Y-106323709D01*
X96701343Y-106323713D01*
X96733665Y-106379696D01*
X96743534Y-106396790D01*
X96743535Y-106396791D01*
X96743536Y-106396792D01*
X96803208Y-106456464D01*
X96876291Y-106498659D01*
X96957805Y-106520500D01*
X96957806Y-106520500D01*
X97042194Y-106520500D01*
X97042195Y-106520500D01*
X97109295Y-106502520D01*
X97128447Y-106500000D01*
X97700000Y-106500000D01*
X97837826Y-106362174D01*
X97887450Y-106341618D01*
X97887387Y-106341133D01*
X97889199Y-106340894D01*
X97890152Y-106340500D01*
X97892194Y-106340500D01*
X97892195Y-106340500D01*
X97973709Y-106318659D01*
X98046792Y-106276464D01*
X98106464Y-106216792D01*
X98148659Y-106143709D01*
X98170500Y-106062195D01*
X98170500Y-106033396D01*
X98189496Y-105983893D01*
X98377503Y-105774997D01*
X98428618Y-105750602D01*
X98432507Y-105750500D01*
X98662682Y-105750500D01*
X98715008Y-105772174D01*
X98722525Y-105780971D01*
X99100000Y-106300000D01*
X99800000Y-106650000D01*
X99800010Y-106650004D01*
X100049999Y-106750000D01*
X100050000Y-106750000D01*
X100635799Y-106750000D01*
X100688125Y-106771674D01*
X100925803Y-107009352D01*
X100925806Y-107009356D01*
X100986425Y-107069975D01*
X100986428Y-107069977D01*
X101009987Y-107079735D01*
X101038533Y-107091559D01*
X101060117Y-107100500D01*
X102069848Y-107100500D01*
X102122174Y-107122174D01*
X102500000Y-107500000D01*
X102507330Y-107504530D01*
X102505553Y-107507404D01*
X102534035Y-107530349D01*
X102534278Y-107530759D01*
X102543533Y-107546788D01*
X102543534Y-107546789D01*
X102543536Y-107546792D01*
X102544190Y-107547446D01*
X102603208Y-107606464D01*
X102603621Y-107606761D01*
X102605130Y-107607574D01*
X102654579Y-107636123D01*
X102676291Y-107648659D01*
X102757805Y-107670500D01*
X102757806Y-107670500D01*
X102842194Y-107670500D01*
X102842195Y-107670500D01*
X102923709Y-107648659D01*
X102996792Y-107606464D01*
X103056464Y-107546792D01*
X103065499Y-107531141D01*
X103089083Y-107511895D01*
X103088224Y-107510973D01*
X103100000Y-107500000D01*
X103257131Y-107120266D01*
X103680880Y-106096205D01*
X103720914Y-106056143D01*
X103749257Y-106050500D01*
X106126000Y-106050500D01*
X106178326Y-106072174D01*
X106200000Y-106124500D01*
X106200000Y-108226000D01*
X106178326Y-108278326D01*
X106126000Y-108300000D01*
X106050000Y-108300000D01*
X105650000Y-108300000D01*
X105186668Y-108300000D01*
X104650000Y-108300000D01*
X100369685Y-108300000D01*
X100364609Y-108299500D01*
X100359882Y-108299500D01*
X94289219Y-108299500D01*
X94260904Y-108293868D01*
X94250495Y-108289557D01*
X94210446Y-108249513D01*
X94206129Y-108239091D01*
X94200500Y-108210781D01*
X94200500Y-106904414D01*
X94529500Y-106904414D01*
X94529500Y-107095586D01*
X94529657Y-107096375D01*
X94529657Y-107096376D01*
X94534409Y-107120266D01*
X94566793Y-107283074D01*
X94566792Y-107283074D01*
X94566796Y-107283087D01*
X94566798Y-107283092D01*
X94639950Y-107459698D01*
X94639952Y-107459701D01*
X94639953Y-107459703D01*
X94698142Y-107546789D01*
X94738016Y-107606464D01*
X94738017Y-107606467D01*
X94746158Y-107618653D01*
X94746162Y-107618657D01*
X94746163Y-107618658D01*
X94881342Y-107753837D01*
X95040296Y-107860046D01*
X95216916Y-107933204D01*
X95404414Y-107970500D01*
X95404416Y-107970500D01*
X95595584Y-107970500D01*
X95595586Y-107970500D01*
X95783084Y-107933204D01*
X95959704Y-107860046D01*
X96118658Y-107753837D01*
X96253837Y-107618658D01*
X96360046Y-107459704D01*
X96433204Y-107283084D01*
X96470500Y-107095586D01*
X96470500Y-106904414D01*
X96433204Y-106716916D01*
X96406950Y-106653534D01*
X96360046Y-106540296D01*
X96253837Y-106381342D01*
X96118658Y-106246163D01*
X96118652Y-106246158D01*
X96112722Y-106242196D01*
X96112721Y-106242196D01*
X96112720Y-106242195D01*
X96008291Y-106172418D01*
X95959702Y-106139952D01*
X95783092Y-106066798D01*
X95783087Y-106066796D01*
X95783074Y-106066792D01*
X95783075Y-106066792D01*
X95657518Y-106041819D01*
X95657517Y-106041818D01*
X95607904Y-106031950D01*
X95595586Y-106029500D01*
X95595585Y-106029500D01*
X95404414Y-106029500D01*
X95351260Y-106040071D01*
X95351260Y-106040072D01*
X95324539Y-106045387D01*
X95216922Y-106066793D01*
X95216912Y-106066796D01*
X95216906Y-106066798D01*
X95040296Y-106139952D01*
X94881072Y-106246342D01*
X94879696Y-106247808D01*
X94747808Y-106379696D01*
X94746342Y-106381072D01*
X94639952Y-106540296D01*
X94566798Y-106716906D01*
X94566796Y-106716912D01*
X94566793Y-106716922D01*
X94538480Y-106859264D01*
X94538479Y-106859270D01*
X94537329Y-106865056D01*
X94529500Y-106904414D01*
X94200500Y-106904414D01*
X94200500Y-105307805D01*
X94379500Y-105307805D01*
X94379500Y-105392195D01*
X94385113Y-105413143D01*
X94390726Y-105434092D01*
X94390725Y-105434092D01*
X94401339Y-105473702D01*
X94401341Y-105473709D01*
X94443534Y-105546790D01*
X94503208Y-105606464D01*
X94503617Y-105606758D01*
X94505105Y-105607560D01*
X94544124Y-105630087D01*
X94576291Y-105648659D01*
X94657805Y-105670500D01*
X94657806Y-105670500D01*
X94742194Y-105670500D01*
X94742195Y-105670500D01*
X94823709Y-105648659D01*
X94896792Y-105606464D01*
X94956464Y-105546792D01*
X94998659Y-105473709D01*
X95020500Y-105392195D01*
X95020500Y-105307805D01*
X94998659Y-105226291D01*
X94964398Y-105166950D01*
X94957567Y-105155118D01*
X94956681Y-105153472D01*
X94956544Y-105153288D01*
X94896790Y-105093534D01*
X94856894Y-105070500D01*
X94823713Y-105051343D01*
X94823709Y-105051341D01*
X94823702Y-105051339D01*
X94776538Y-105038701D01*
X94776538Y-105038702D01*
X94742195Y-105029500D01*
X94742194Y-105029500D01*
X94657806Y-105029500D01*
X94657805Y-105029500D01*
X94650548Y-105031444D01*
X94623462Y-105038701D01*
X94623462Y-105038702D01*
X94576290Y-105051341D01*
X94576288Y-105051342D01*
X94503210Y-105093533D01*
X94443533Y-105153210D01*
X94401337Y-105226296D01*
X94401331Y-105226308D01*
X94401305Y-105226359D01*
X94401054Y-105227359D01*
X94384639Y-105288624D01*
X94379500Y-105307805D01*
X94200500Y-105307805D01*
X94200500Y-99474000D01*
X94222174Y-99421674D01*
X94274500Y-99400000D01*
X94725500Y-99400000D01*
X94777826Y-99421674D01*
G37*
%TD.AperFunction*%
%TA.AperFunction,Conductor*%
G36*
X107232591Y-91721674D02*
G01*
X107254265Y-91774000D01*
X107246453Y-91807094D01*
X107024848Y-92250305D01*
X107000000Y-92300000D01*
X107029121Y-92489288D01*
X107068197Y-92743282D01*
X107058819Y-92792090D01*
X107054039Y-92800203D01*
X107043533Y-92810711D01*
X107001343Y-92883786D01*
X107001341Y-92883790D01*
X107001341Y-92883791D01*
X106998449Y-92894582D01*
X106998447Y-92894587D01*
X106979500Y-92965304D01*
X106979500Y-93049697D01*
X106990050Y-93089069D01*
X106991796Y-93095584D01*
X107001341Y-93131209D01*
X107001343Y-93131213D01*
X107043533Y-93204288D01*
X107043534Y-93204289D01*
X107043536Y-93204292D01*
X107045910Y-93206666D01*
X107103208Y-93263964D01*
X107103618Y-93264260D01*
X107105118Y-93265067D01*
X107136309Y-93283075D01*
X107176291Y-93306159D01*
X107257805Y-93328000D01*
X107257806Y-93328000D01*
X107342194Y-93328000D01*
X107342195Y-93328000D01*
X107423709Y-93306159D01*
X107424307Y-93305814D01*
X109249500Y-93305814D01*
X109249500Y-93444185D01*
X109285310Y-93577831D01*
X109285312Y-93577836D01*
X109354495Y-93697665D01*
X109452335Y-93795505D01*
X109572164Y-93864688D01*
X109701133Y-93899244D01*
X109704831Y-93900500D01*
X109844185Y-93900500D01*
X109854448Y-93900500D01*
X109863336Y-93895367D01*
X109977836Y-93864688D01*
X110097665Y-93795505D01*
X110195505Y-93697665D01*
X110264688Y-93577836D01*
X110295367Y-93463336D01*
X110300500Y-93454447D01*
X110300500Y-93308255D01*
X110300500Y-93305815D01*
X110300499Y-93305814D01*
X110699500Y-93305814D01*
X110699500Y-93444185D01*
X110735310Y-93577831D01*
X110735312Y-93577836D01*
X110804495Y-93697665D01*
X110902335Y-93795505D01*
X111022164Y-93864688D01*
X111151133Y-93899244D01*
X111154831Y-93900500D01*
X111294185Y-93900500D01*
X111304448Y-93900500D01*
X111313336Y-93895367D01*
X111427836Y-93864688D01*
X111547665Y-93795505D01*
X111645505Y-93697665D01*
X111714688Y-93577836D01*
X111745367Y-93463336D01*
X111750500Y-93454447D01*
X111750500Y-93305814D01*
X114949500Y-93305814D01*
X114949500Y-93444185D01*
X114985310Y-93577831D01*
X114985312Y-93577836D01*
X115054495Y-93697665D01*
X115152335Y-93795505D01*
X115272164Y-93864688D01*
X115401133Y-93899244D01*
X115404831Y-93900500D01*
X115544185Y-93900500D01*
X115554448Y-93900500D01*
X115563336Y-93895367D01*
X115677836Y-93864688D01*
X115797665Y-93795505D01*
X115895505Y-93697665D01*
X115964688Y-93577836D01*
X115995367Y-93463336D01*
X116000500Y-93454447D01*
X116000500Y-93304830D01*
X115999241Y-93301121D01*
X115994407Y-93283081D01*
X115989285Y-93263964D01*
X115964688Y-93172164D01*
X115895505Y-93052335D01*
X115797665Y-92954495D01*
X115677836Y-92885312D01*
X115677831Y-92885310D01*
X115544185Y-92849500D01*
X115544184Y-92849500D01*
X115405816Y-92849500D01*
X115405815Y-92849500D01*
X115272168Y-92885310D01*
X115272166Y-92885310D01*
X115272165Y-92885311D01*
X115152333Y-92954495D01*
X115054495Y-93052333D01*
X114985311Y-93172164D01*
X114985310Y-93172168D01*
X114949500Y-93305814D01*
X111750500Y-93305814D01*
X111750500Y-93304830D01*
X111749241Y-93301121D01*
X111744407Y-93283081D01*
X111739285Y-93263964D01*
X111714688Y-93172164D01*
X111645505Y-93052335D01*
X111547665Y-92954495D01*
X111427836Y-92885312D01*
X111427831Y-92885310D01*
X111294185Y-92849500D01*
X111294184Y-92849500D01*
X111155816Y-92849500D01*
X111155815Y-92849500D01*
X111022168Y-92885310D01*
X111022166Y-92885310D01*
X111022165Y-92885311D01*
X110902333Y-92954495D01*
X110804495Y-93052333D01*
X110735311Y-93172164D01*
X110735310Y-93172168D01*
X110699500Y-93305814D01*
X110300499Y-93305814D01*
X110289285Y-93263964D01*
X110264688Y-93172164D01*
X110195505Y-93052335D01*
X110097665Y-92954495D01*
X109977836Y-92885312D01*
X109977831Y-92885310D01*
X109844185Y-92849500D01*
X109844184Y-92849500D01*
X109705816Y-92849500D01*
X109705815Y-92849500D01*
X109572168Y-92885310D01*
X109572166Y-92885310D01*
X109572165Y-92885311D01*
X109452333Y-92954495D01*
X109354495Y-93052333D01*
X109285311Y-93172164D01*
X109285310Y-93172168D01*
X109249500Y-93305814D01*
X107424307Y-93305814D01*
X107496792Y-93263964D01*
X107556464Y-93204292D01*
X107569897Y-93181025D01*
X107574393Y-93175790D01*
X107593969Y-93165881D01*
X107611381Y-93152521D01*
X107623523Y-93150922D01*
X107624926Y-93150213D01*
X107629353Y-93150155D01*
X107630534Y-93150000D01*
X107999999Y-93150000D01*
X108000000Y-93150000D01*
X108250000Y-92850000D01*
X108287948Y-92242806D01*
X112679500Y-92242806D01*
X112679500Y-92327194D01*
X112685251Y-92348659D01*
X112685250Y-92348659D01*
X112701342Y-92408714D01*
X112701547Y-92409254D01*
X112701846Y-92410597D01*
X112702308Y-92412318D01*
X112702235Y-92412337D01*
X112706139Y-92429821D01*
X112738946Y-92856314D01*
X112736643Y-92881139D01*
X112729500Y-92907800D01*
X112729500Y-92907805D01*
X112729500Y-92992195D01*
X112731007Y-92997818D01*
X112744905Y-93049691D01*
X112751339Y-93073704D01*
X112751341Y-93073709D01*
X112751343Y-93073713D01*
X112779469Y-93122429D01*
X112793534Y-93146790D01*
X112793535Y-93146791D01*
X112793536Y-93146792D01*
X112853208Y-93206464D01*
X112853210Y-93206465D01*
X112853211Y-93206466D01*
X112904579Y-93236123D01*
X112926291Y-93248659D01*
X113007805Y-93270500D01*
X113007806Y-93270500D01*
X113092194Y-93270500D01*
X113092195Y-93270500D01*
X113173709Y-93248659D01*
X113246792Y-93206464D01*
X113306464Y-93146792D01*
X113348659Y-93073709D01*
X113363529Y-93018209D01*
X113384394Y-92983379D01*
X113780846Y-92611704D01*
X113812309Y-92594213D01*
X113823709Y-92591159D01*
X113896792Y-92548964D01*
X113956464Y-92489292D01*
X113998659Y-92416209D01*
X114020500Y-92334695D01*
X114020500Y-92250305D01*
X113998659Y-92168791D01*
X113994326Y-92161286D01*
X113982012Y-92139957D01*
X113982008Y-92139952D01*
X113957560Y-92097606D01*
X113956680Y-92095971D01*
X113956544Y-92095788D01*
X113896790Y-92036034D01*
X113823822Y-91993906D01*
X113823713Y-91993843D01*
X113823709Y-91993841D01*
X113823702Y-91993839D01*
X113795725Y-91986342D01*
X113795725Y-91986343D01*
X113742195Y-91972000D01*
X113742194Y-91972000D01*
X113657805Y-91972000D01*
X113617047Y-91982920D01*
X113617046Y-91982919D01*
X113576289Y-91993840D01*
X113572795Y-91995167D01*
X113572316Y-91993906D01*
X113546503Y-92000000D01*
X113167196Y-92000000D01*
X113130195Y-91990085D01*
X113123721Y-91986347D01*
X113123713Y-91986343D01*
X113123709Y-91986341D01*
X113123702Y-91986339D01*
X113070186Y-91971999D01*
X113070186Y-91972000D01*
X113042195Y-91964500D01*
X113042194Y-91964500D01*
X112957806Y-91964500D01*
X112957805Y-91964500D01*
X112951890Y-91966084D01*
X112929814Y-91971999D01*
X112929814Y-91972000D01*
X112876290Y-91986341D01*
X112876288Y-91986342D01*
X112803210Y-92028533D01*
X112743533Y-92088210D01*
X112701339Y-92161292D01*
X112701339Y-92161293D01*
X112698012Y-92173714D01*
X112698012Y-92173715D01*
X112698012Y-92173716D01*
X112682037Y-92233339D01*
X112679500Y-92242806D01*
X108287948Y-92242806D01*
X108290397Y-92203627D01*
X108296827Y-92177757D01*
X108297144Y-92177056D01*
X108298435Y-92174538D01*
X108298655Y-92173713D01*
X108298659Y-92173709D01*
X108320500Y-92092195D01*
X108320500Y-92033776D01*
X108330250Y-91997062D01*
X108332054Y-91993906D01*
X108404472Y-91867174D01*
X108478694Y-91737286D01*
X108523473Y-91702607D01*
X108542944Y-91700000D01*
X110270315Y-91700000D01*
X110275391Y-91700500D01*
X110280118Y-91700500D01*
X110359882Y-91700500D01*
X116360781Y-91700500D01*
X116389091Y-91706129D01*
X116399503Y-91710442D01*
X116439553Y-91750485D01*
X116439556Y-91750492D01*
X116443867Y-91760900D01*
X116449500Y-91789218D01*
X116449500Y-106626000D01*
X116427826Y-106678326D01*
X116375500Y-106700000D01*
X114973908Y-106700000D01*
X114921583Y-106678327D01*
X114921582Y-106678326D01*
X114896792Y-106653536D01*
X114896789Y-106653534D01*
X114896788Y-106653533D01*
X114823713Y-106611343D01*
X114823709Y-106611341D01*
X114818177Y-106609859D01*
X114801909Y-106605499D01*
X114801909Y-106605500D01*
X114742195Y-106589500D01*
X114742194Y-106589500D01*
X114657805Y-106589500D01*
X114628025Y-106597479D01*
X114608874Y-106600000D01*
X114500000Y-106600000D01*
X114318310Y-106927042D01*
X114037329Y-107432805D01*
X114009640Y-107460953D01*
X113959180Y-107490086D01*
X113922182Y-107500000D01*
X111800000Y-107500000D01*
X111454699Y-107572694D01*
X110905783Y-107688255D01*
X110871387Y-107687321D01*
X110842195Y-107679500D01*
X110757805Y-107679500D01*
X110729865Y-107686985D01*
X110729866Y-107686986D01*
X110690704Y-107697479D01*
X110634551Y-107690086D01*
X110624233Y-107681762D01*
X110616672Y-107691076D01*
X110616361Y-107691244D01*
X110600000Y-107699999D01*
X110221968Y-108267048D01*
X110174909Y-108298563D01*
X110160396Y-108300000D01*
X107124000Y-108300000D01*
X107071674Y-108278326D01*
X107050000Y-108226000D01*
X107050000Y-107158808D01*
X110465619Y-107158808D01*
X110465619Y-107243198D01*
X110466285Y-107245684D01*
X110466285Y-107245687D01*
X110476304Y-107283074D01*
X110476305Y-107283078D01*
X110487458Y-107324708D01*
X110487459Y-107324711D01*
X110487460Y-107324712D01*
X110487462Y-107324716D01*
X110521214Y-107383176D01*
X110529653Y-107397793D01*
X110589327Y-107457467D01*
X110589740Y-107457764D01*
X110591249Y-107458577D01*
X110640698Y-107487126D01*
X110662410Y-107499662D01*
X110743924Y-107521503D01*
X110743925Y-107521503D01*
X110828313Y-107521503D01*
X110828314Y-107521503D01*
X110909828Y-107499662D01*
X110982911Y-107457467D01*
X111042583Y-107397795D01*
X111084778Y-107324712D01*
X111106619Y-107243198D01*
X111106619Y-107158808D01*
X111084778Y-107077294D01*
X111045551Y-107009352D01*
X111042585Y-107004214D01*
X111042584Y-107004213D01*
X111042583Y-107004211D01*
X110982911Y-106944539D01*
X110982910Y-106944538D01*
X110982907Y-106944536D01*
X110952604Y-106927041D01*
X110952602Y-106927040D01*
X110952602Y-106927039D01*
X110911896Y-106903537D01*
X110910367Y-106902587D01*
X110909828Y-106902343D01*
X110871950Y-106892194D01*
X110871950Y-106892195D01*
X110828314Y-106880503D01*
X110828313Y-106880503D01*
X110743924Y-106880503D01*
X110703166Y-106891423D01*
X110703165Y-106891422D01*
X110662411Y-106902342D01*
X110589329Y-106944536D01*
X110529652Y-107004213D01*
X110487459Y-107077295D01*
X110482012Y-107097625D01*
X110482011Y-107097628D01*
X110480516Y-107103211D01*
X110465619Y-107158808D01*
X107050000Y-107158808D01*
X107050000Y-106414200D01*
X107071674Y-106361874D01*
X107884107Y-105549441D01*
X107886930Y-105546763D01*
X108028893Y-105418995D01*
X108078396Y-105400000D01*
X108404245Y-105400000D01*
X108456571Y-105421674D01*
X108472612Y-105445682D01*
X108480013Y-105463552D01*
X108480019Y-105463565D01*
X108480022Y-105463571D01*
X108480023Y-105463573D01*
X108480024Y-105463574D01*
X109535024Y-106518574D01*
X109591426Y-106574976D01*
X109665118Y-106605500D01*
X109853855Y-106605500D01*
X109882169Y-106611131D01*
X109907300Y-106621540D01*
X109931302Y-106637577D01*
X109955189Y-106661464D01*
X110028272Y-106703659D01*
X110109786Y-106725500D01*
X110109787Y-106725500D01*
X110194175Y-106725500D01*
X110194176Y-106725500D01*
X110275690Y-106703659D01*
X110348773Y-106661464D01*
X110408445Y-106601792D01*
X110450640Y-106528709D01*
X110472481Y-106447195D01*
X110472481Y-106362805D01*
X110450640Y-106281291D01*
X110431309Y-106247808D01*
X110430722Y-106246791D01*
X110409551Y-106210121D01*
X110408668Y-106208481D01*
X110408523Y-106208286D01*
X110348771Y-106148534D01*
X110307143Y-106124500D01*
X110275694Y-106106343D01*
X110275690Y-106106341D01*
X110275683Y-106106339D01*
X110237002Y-106095974D01*
X110237002Y-106095975D01*
X110194176Y-106084500D01*
X110194175Y-106084500D01*
X110109786Y-106084500D01*
X110093947Y-106088744D01*
X110028270Y-106106341D01*
X109955191Y-106148533D01*
X109931304Y-106172420D01*
X109907297Y-106188460D01*
X109882171Y-106198867D01*
X109853855Y-106204500D01*
X109833421Y-106204500D01*
X109805103Y-106198867D01*
X109779974Y-106188458D01*
X109755968Y-106172418D01*
X108882581Y-105299031D01*
X108866541Y-105275025D01*
X108856131Y-105249893D01*
X108850500Y-105221579D01*
X108850500Y-104747936D01*
X109060867Y-104747936D01*
X109061430Y-104751444D01*
X109065998Y-104758635D01*
X109074876Y-104778471D01*
X109078534Y-104789940D01*
X109078872Y-104789850D01*
X109079498Y-104792188D01*
X109079499Y-104792192D01*
X109101341Y-104873709D01*
X109101343Y-104873713D01*
X109116520Y-104900000D01*
X109143534Y-104946790D01*
X109203208Y-105006464D01*
X109203620Y-105006761D01*
X109205130Y-105007574D01*
X109222526Y-105017618D01*
X109222527Y-105017618D01*
X109276291Y-105048659D01*
X109357805Y-105070500D01*
X109357806Y-105070500D01*
X109442194Y-105070500D01*
X109442195Y-105070500D01*
X109523709Y-105048659D01*
X109596792Y-105006464D01*
X109656464Y-104946792D01*
X109656468Y-104946784D01*
X109658541Y-104944084D01*
X109672199Y-104930425D01*
X109681531Y-104923264D01*
X109736227Y-104908606D01*
X109737088Y-104908719D01*
X109779762Y-104929761D01*
X109782196Y-104932195D01*
X109790498Y-104943015D01*
X109790586Y-104942948D01*
X109792031Y-104944832D01*
X109792032Y-104944832D01*
X109793537Y-104946793D01*
X109853208Y-105006464D01*
X109853620Y-105006761D01*
X109855130Y-105007574D01*
X109872526Y-105017618D01*
X109872527Y-105017618D01*
X109926291Y-105048659D01*
X110007805Y-105070500D01*
X110007806Y-105070500D01*
X110092194Y-105070500D01*
X110092195Y-105070500D01*
X110173709Y-105048659D01*
X110246792Y-105006464D01*
X110306464Y-104946792D01*
X110328973Y-104907805D01*
X111529500Y-104907805D01*
X111529500Y-104992195D01*
X111530324Y-104995271D01*
X111530324Y-104995273D01*
X111536312Y-105017618D01*
X111536311Y-105017618D01*
X111545348Y-105051342D01*
X111551341Y-105073709D01*
X111551343Y-105073713D01*
X111572512Y-105110378D01*
X111593534Y-105146790D01*
X111593535Y-105146791D01*
X111593536Y-105146792D01*
X111653208Y-105206464D01*
X111653210Y-105206465D01*
X111653211Y-105206466D01*
X111687578Y-105226308D01*
X111726291Y-105248659D01*
X111807805Y-105270500D01*
X111807806Y-105270500D01*
X111892194Y-105270500D01*
X111892195Y-105270500D01*
X111973709Y-105248659D01*
X112046792Y-105206464D01*
X112106464Y-105146792D01*
X112148659Y-105073709D01*
X112170500Y-104992195D01*
X112170500Y-104907805D01*
X112170500Y-104907804D01*
X112429500Y-104907804D01*
X112429500Y-104992194D01*
X112436312Y-105017618D01*
X112436311Y-105017618D01*
X112445348Y-105051342D01*
X112451341Y-105073709D01*
X112451343Y-105073713D01*
X112472512Y-105110378D01*
X112493534Y-105146790D01*
X112493535Y-105146791D01*
X112493536Y-105146792D01*
X112553208Y-105206464D01*
X112553210Y-105206465D01*
X112553211Y-105206466D01*
X112587578Y-105226308D01*
X112626291Y-105248659D01*
X112707805Y-105270500D01*
X112707806Y-105270500D01*
X112792194Y-105270500D01*
X112792195Y-105270500D01*
X112873709Y-105248659D01*
X112946792Y-105206464D01*
X113006464Y-105146792D01*
X113048659Y-105073709D01*
X113070500Y-104992195D01*
X113070500Y-104907805D01*
X113048659Y-104826291D01*
X113028974Y-104792195D01*
X113028972Y-104792191D01*
X113028972Y-104792192D01*
X113007570Y-104755122D01*
X113007570Y-104755121D01*
X113006466Y-104753210D01*
X112946790Y-104693534D01*
X112928519Y-104682985D01*
X112873713Y-104651343D01*
X112873709Y-104651341D01*
X112873708Y-104651340D01*
X112873707Y-104651340D01*
X112873660Y-104651328D01*
X112873653Y-104651323D01*
X112873653Y-104651326D01*
X112792195Y-104629500D01*
X112792194Y-104629500D01*
X112707805Y-104629500D01*
X112667047Y-104640420D01*
X112667046Y-104640419D01*
X112626292Y-104651339D01*
X112553210Y-104693533D01*
X112493533Y-104753210D01*
X112451337Y-104826296D01*
X112451331Y-104826308D01*
X112451305Y-104826359D01*
X112451054Y-104827359D01*
X112429500Y-104907804D01*
X112170500Y-104907804D01*
X112148659Y-104826291D01*
X112128974Y-104792195D01*
X112128972Y-104792191D01*
X112128972Y-104792192D01*
X112107570Y-104755122D01*
X112107570Y-104755121D01*
X112106466Y-104753210D01*
X112046790Y-104693534D01*
X112028519Y-104682985D01*
X111973713Y-104651343D01*
X111973709Y-104651341D01*
X111973708Y-104651340D01*
X111973707Y-104651340D01*
X111973660Y-104651328D01*
X111973653Y-104651323D01*
X111973653Y-104651326D01*
X111892195Y-104629500D01*
X111892194Y-104629500D01*
X111807805Y-104629500D01*
X111767047Y-104640420D01*
X111767046Y-104640419D01*
X111726292Y-104651339D01*
X111653210Y-104693533D01*
X111593533Y-104753210D01*
X111556817Y-104816804D01*
X111551343Y-104826286D01*
X111551341Y-104826290D01*
X111551341Y-104826291D01*
X111529500Y-104907805D01*
X110328973Y-104907805D01*
X110348659Y-104873709D01*
X110370500Y-104792195D01*
X110370500Y-104707805D01*
X110348659Y-104626291D01*
X110326551Y-104587999D01*
X110306466Y-104553211D01*
X110306465Y-104553210D01*
X110306464Y-104553208D01*
X110246792Y-104493536D01*
X110246791Y-104493535D01*
X110246790Y-104493534D01*
X110222429Y-104479469D01*
X110173713Y-104451343D01*
X110173709Y-104451341D01*
X110173704Y-104451339D01*
X110156731Y-104446791D01*
X110156731Y-104446792D01*
X110092195Y-104429500D01*
X110092194Y-104429500D01*
X110007805Y-104429500D01*
X109967047Y-104440420D01*
X109967046Y-104440419D01*
X109926292Y-104451339D01*
X109853210Y-104493533D01*
X109793531Y-104553212D01*
X109791458Y-104555915D01*
X109777794Y-104569579D01*
X109768467Y-104576735D01*
X109713782Y-104591393D01*
X109712922Y-104591280D01*
X109670236Y-104570237D01*
X109668212Y-104568213D01*
X109660564Y-104557602D01*
X109659950Y-104558045D01*
X109658647Y-104556237D01*
X109657890Y-104555067D01*
X109657148Y-104554100D01*
X109656543Y-104553287D01*
X109596790Y-104493534D01*
X109572429Y-104479469D01*
X109523713Y-104451343D01*
X109523709Y-104451341D01*
X109523704Y-104451339D01*
X109506731Y-104446791D01*
X109506731Y-104446792D01*
X109442195Y-104429500D01*
X109442194Y-104429500D01*
X109357805Y-104429500D01*
X109317047Y-104440420D01*
X109317046Y-104440419D01*
X109276292Y-104451339D01*
X109203210Y-104493533D01*
X109143533Y-104553210D01*
X109101341Y-104626289D01*
X109101339Y-104626296D01*
X109080164Y-104705320D01*
X109072775Y-104723162D01*
X109066948Y-104733255D01*
X109066946Y-104733258D01*
X109060867Y-104747936D01*
X108850500Y-104747936D01*
X108850500Y-103960119D01*
X108850390Y-103959653D01*
X108849490Y-103957681D01*
X108819977Y-103886428D01*
X108819975Y-103886425D01*
X108263575Y-103330025D01*
X108263571Y-103330022D01*
X108263570Y-103330021D01*
X108189882Y-103299500D01*
X106789882Y-103299500D01*
X106710117Y-103299500D01*
X106710116Y-103299500D01*
X106710115Y-103299500D01*
X106704459Y-103301843D01*
X106704436Y-103301853D01*
X106636429Y-103330021D01*
X106636425Y-103330024D01*
X106149031Y-103817418D01*
X106125025Y-103833458D01*
X106099895Y-103843867D01*
X106071579Y-103849500D01*
X104010118Y-103849500D01*
X103936428Y-103880022D01*
X103936426Y-103880023D01*
X103649031Y-104167418D01*
X103625025Y-104183458D01*
X103599895Y-104193867D01*
X103571579Y-104199500D01*
X103342938Y-104199500D01*
X103290612Y-104177826D01*
X103273870Y-104152064D01*
X103271663Y-104146326D01*
X103154360Y-103841335D01*
X103155806Y-103784718D01*
X103171099Y-103762449D01*
X103900970Y-103032579D01*
X103924974Y-103016541D01*
X103950105Y-103006131D01*
X103978421Y-103000500D01*
X112989881Y-103000500D01*
X112989882Y-103000500D01*
X113063574Y-102969976D01*
X114261876Y-101771674D01*
X114314202Y-101750000D01*
X114638495Y-101750000D01*
X114690819Y-101771673D01*
X114706212Y-101787066D01*
X114779295Y-101829261D01*
X114860809Y-101851102D01*
X114860810Y-101851102D01*
X114945198Y-101851102D01*
X114945199Y-101851102D01*
X115026713Y-101829261D01*
X115099796Y-101787066D01*
X115115188Y-101771673D01*
X115167513Y-101750000D01*
X115575500Y-101750000D01*
X115627826Y-101771674D01*
X115649500Y-101824000D01*
X115649500Y-102071579D01*
X115643867Y-102099895D01*
X115633459Y-102125025D01*
X115617418Y-102149031D01*
X114880023Y-102886426D01*
X114880020Y-102886430D01*
X114849500Y-102960114D01*
X114849500Y-103436873D01*
X114843867Y-103465191D01*
X114833460Y-103490316D01*
X114817420Y-103514323D01*
X114793533Y-103538210D01*
X114751339Y-103611292D01*
X114740419Y-103652046D01*
X114740420Y-103652047D01*
X114729500Y-103692804D01*
X114729500Y-103777194D01*
X114734751Y-103796793D01*
X114734750Y-103796793D01*
X114751339Y-103858702D01*
X114751341Y-103858709D01*
X114751343Y-103858713D01*
X114779469Y-103907429D01*
X114793534Y-103931790D01*
X114853208Y-103991464D01*
X114853617Y-103991758D01*
X114855105Y-103992560D01*
X114895042Y-104015617D01*
X114926291Y-104033659D01*
X115007805Y-104055500D01*
X115007806Y-104055500D01*
X115092194Y-104055500D01*
X115092195Y-104055500D01*
X115173709Y-104033659D01*
X115246792Y-103991464D01*
X115306464Y-103931792D01*
X115348659Y-103858709D01*
X115370500Y-103777195D01*
X115370500Y-103692805D01*
X115348659Y-103611291D01*
X115317779Y-103557806D01*
X115306466Y-103538211D01*
X115306465Y-103538210D01*
X115306464Y-103538208D01*
X115282579Y-103514323D01*
X115266539Y-103490316D01*
X115256132Y-103465189D01*
X115250500Y-103436873D01*
X115250500Y-103128420D01*
X115256131Y-103100106D01*
X115266542Y-103074971D01*
X115282578Y-103050971D01*
X116019975Y-102313575D01*
X116019976Y-102313574D01*
X116050500Y-102239882D01*
X116050500Y-102160118D01*
X116050500Y-101435118D01*
X116019976Y-101361426D01*
X115963574Y-101305024D01*
X115518694Y-100860144D01*
X115513236Y-100854045D01*
X115354900Y-100656125D01*
X115346496Y-100642992D01*
X115214149Y-100378298D01*
X115213108Y-100376128D01*
X115210483Y-100370422D01*
X115198659Y-100326291D01*
X115158689Y-100257062D01*
X115156971Y-100254087D01*
X115156750Y-100253605D01*
X115156465Y-100253209D01*
X115096792Y-100193536D01*
X115096784Y-100193530D01*
X115055820Y-100169878D01*
X115035973Y-100153167D01*
X114950000Y-100050000D01*
X113864202Y-100050000D01*
X113811876Y-100028326D01*
X111883575Y-98100025D01*
X111883574Y-98100024D01*
X111883573Y-98100023D01*
X111883571Y-98100022D01*
X111809882Y-98069500D01*
X111809880Y-98069500D01*
X107628421Y-98069500D01*
X107600103Y-98063867D01*
X107574974Y-98053458D01*
X107550968Y-98037418D01*
X107393576Y-97880026D01*
X107393571Y-97880022D01*
X107393570Y-97880021D01*
X107319882Y-97849500D01*
X105689882Y-97849500D01*
X105610118Y-97849500D01*
X105536428Y-97880022D01*
X105536426Y-97880023D01*
X105379031Y-98037418D01*
X105355025Y-98053458D01*
X105329895Y-98063867D01*
X105301579Y-98069500D01*
X102448421Y-98069500D01*
X102420103Y-98063867D01*
X102394974Y-98053458D01*
X102370968Y-98037418D01*
X102363576Y-98030026D01*
X102363571Y-98030022D01*
X102363570Y-98030021D01*
X102289882Y-97999500D01*
X101789882Y-97999500D01*
X101710118Y-97999500D01*
X101636428Y-98030022D01*
X101636426Y-98030023D01*
X99430023Y-100236427D01*
X99430020Y-100236430D01*
X99399500Y-100310114D01*
X99399500Y-100776000D01*
X99377826Y-100828326D01*
X99325500Y-100850000D01*
X98876331Y-100850000D01*
X98824005Y-100828326D01*
X98807963Y-100804315D01*
X98806132Y-100799894D01*
X98800500Y-100771579D01*
X98800500Y-100144106D01*
X98806131Y-100115792D01*
X98816542Y-100090657D01*
X98832578Y-100066657D01*
X101216657Y-97682578D01*
X101240660Y-97666541D01*
X101265791Y-97656131D01*
X101294107Y-97650500D01*
X102171579Y-97650500D01*
X102199893Y-97656131D01*
X102225025Y-97666541D01*
X102249031Y-97682581D01*
X102373942Y-97807491D01*
X102373949Y-97807499D01*
X102375806Y-97809356D01*
X102436425Y-97869975D01*
X102436428Y-97869977D01*
X102460684Y-97880024D01*
X102488533Y-97891559D01*
X102510117Y-97900500D01*
X105189881Y-97900500D01*
X105189882Y-97900500D01*
X105263574Y-97869976D01*
X105450969Y-97682578D01*
X105474977Y-97666539D01*
X105500105Y-97656132D01*
X105528420Y-97650500D01*
X107521579Y-97650500D01*
X107549893Y-97656131D01*
X107575025Y-97666541D01*
X107599031Y-97682581D01*
X107723942Y-97807491D01*
X107723949Y-97807499D01*
X107725806Y-97809356D01*
X107786425Y-97869975D01*
X107786428Y-97869977D01*
X107810684Y-97880024D01*
X107838533Y-97891559D01*
X107860117Y-97900500D01*
X107860118Y-97900500D01*
X112571579Y-97900500D01*
X112599893Y-97906131D01*
X112625025Y-97916541D01*
X112649031Y-97932581D01*
X114221426Y-99504976D01*
X114295118Y-99535500D01*
X114374882Y-99535500D01*
X114751874Y-99535500D01*
X114780188Y-99541131D01*
X114805319Y-99551540D01*
X114829321Y-99567577D01*
X114853208Y-99591464D01*
X114853210Y-99591465D01*
X114853211Y-99591466D01*
X114869297Y-99600753D01*
X114926291Y-99633659D01*
X115007805Y-99655500D01*
X115007806Y-99655500D01*
X115092194Y-99655500D01*
X115092195Y-99655500D01*
X115173709Y-99633659D01*
X115246792Y-99591464D01*
X115306464Y-99531792D01*
X115348659Y-99458709D01*
X115370500Y-99377195D01*
X115370500Y-99292805D01*
X115348659Y-99211291D01*
X115317834Y-99157901D01*
X115317834Y-99157900D01*
X115307574Y-99140130D01*
X115306466Y-99138211D01*
X115306465Y-99138210D01*
X115306464Y-99138208D01*
X115246792Y-99078536D01*
X115246790Y-99078534D01*
X115207846Y-99056050D01*
X115173713Y-99036343D01*
X115173709Y-99036341D01*
X115173702Y-99036339D01*
X115126564Y-99023708D01*
X115126564Y-99023709D01*
X115092195Y-99014500D01*
X115092194Y-99014500D01*
X115007806Y-99014500D01*
X115007805Y-99014500D01*
X115000542Y-99016445D01*
X114973436Y-99023708D01*
X114973436Y-99023709D01*
X114926290Y-99036341D01*
X114926286Y-99036343D01*
X114918644Y-99040755D01*
X114853210Y-99078533D01*
X114829323Y-99102420D01*
X114805316Y-99118460D01*
X114780190Y-99128867D01*
X114751874Y-99134500D01*
X114463421Y-99134500D01*
X114435103Y-99128867D01*
X114409974Y-99118458D01*
X114385968Y-99102418D01*
X112813576Y-97530026D01*
X112813571Y-97530022D01*
X112813570Y-97530021D01*
X112739882Y-97499500D01*
X108028420Y-97499500D01*
X108000102Y-97493867D01*
X107974973Y-97483458D01*
X107950967Y-97467418D01*
X107763575Y-97280025D01*
X107763574Y-97280024D01*
X107763571Y-97280022D01*
X107763568Y-97280021D01*
X107763567Y-97280020D01*
X107740582Y-97270500D01*
X107689882Y-97249500D01*
X107689880Y-97249500D01*
X105360115Y-97249500D01*
X105354459Y-97251843D01*
X105354126Y-97251039D01*
X105309947Y-97252372D01*
X105292486Y-97275975D01*
X105286425Y-97280024D01*
X105099031Y-97467418D01*
X105075025Y-97483458D01*
X105049895Y-97493867D01*
X105021579Y-97499500D01*
X102678420Y-97499500D01*
X102650102Y-97493867D01*
X102624973Y-97483458D01*
X102600967Y-97467418D01*
X102413575Y-97280025D01*
X102413574Y-97280024D01*
X102413571Y-97280022D01*
X102413568Y-97280021D01*
X102413567Y-97280020D01*
X102390582Y-97270500D01*
X102339882Y-97249500D01*
X102339880Y-97249500D01*
X101125806Y-97249500D01*
X101125804Y-97249500D01*
X101052225Y-97279976D01*
X101052112Y-97280023D01*
X99033854Y-99298280D01*
X98981528Y-99319954D01*
X98929202Y-99298280D01*
X98923744Y-99292181D01*
X98920606Y-99288259D01*
X98728507Y-99048134D01*
X98712745Y-98993736D01*
X98733965Y-98949583D01*
X100800970Y-96882578D01*
X100824974Y-96866541D01*
X100850105Y-96856131D01*
X100878421Y-96850500D01*
X102321579Y-96850500D01*
X102349893Y-96856131D01*
X102375025Y-96866541D01*
X102399031Y-96882581D01*
X102796425Y-97279975D01*
X102796428Y-97279977D01*
X102825330Y-97291948D01*
X102825331Y-97291949D01*
X102841531Y-97298659D01*
X102870118Y-97310500D01*
X102870119Y-97310500D01*
X104929881Y-97310500D01*
X104929882Y-97310500D01*
X105003574Y-97279976D01*
X105200971Y-97082578D01*
X105224974Y-97066541D01*
X105250105Y-97056131D01*
X105278421Y-97050500D01*
X107821579Y-97050500D01*
X107849893Y-97056131D01*
X107875025Y-97066541D01*
X107899031Y-97082581D01*
X108096425Y-97279975D01*
X108096428Y-97279977D01*
X108125330Y-97291948D01*
X108125331Y-97291949D01*
X108141531Y-97298659D01*
X108170118Y-97310500D01*
X108249883Y-97310500D01*
X112996579Y-97310500D01*
X113024893Y-97316131D01*
X113050025Y-97326541D01*
X113074031Y-97342581D01*
X113897418Y-98165968D01*
X113913457Y-98189971D01*
X113923868Y-98215105D01*
X113929500Y-98243420D01*
X113929500Y-98277195D01*
X113938633Y-98311283D01*
X113946544Y-98340807D01*
X113951339Y-98358704D01*
X113951341Y-98358709D01*
X113993534Y-98431790D01*
X114053208Y-98491464D01*
X114053621Y-98491761D01*
X114055130Y-98492574D01*
X114104579Y-98521123D01*
X114126291Y-98533659D01*
X114207805Y-98555500D01*
X114207806Y-98555500D01*
X114292194Y-98555500D01*
X114292195Y-98555500D01*
X114373709Y-98533659D01*
X114446792Y-98491464D01*
X114506464Y-98431792D01*
X114548659Y-98358709D01*
X114570500Y-98277195D01*
X114570500Y-98192805D01*
X114548659Y-98111291D01*
X114524531Y-98069500D01*
X114506466Y-98038211D01*
X114506465Y-98038210D01*
X114506464Y-98038208D01*
X114446792Y-97978536D01*
X114446791Y-97978535D01*
X114446790Y-97978534D01*
X114422429Y-97964469D01*
X114373713Y-97936343D01*
X114373709Y-97936341D01*
X114292195Y-97914500D01*
X114292194Y-97914500D01*
X114258421Y-97914500D01*
X114230103Y-97908867D01*
X114204974Y-97898458D01*
X114180968Y-97882418D01*
X113238576Y-96940026D01*
X113238571Y-96940022D01*
X113238570Y-96940021D01*
X113164882Y-96909500D01*
X108338421Y-96909500D01*
X108329905Y-96907806D01*
X114829500Y-96907806D01*
X114829500Y-96992195D01*
X114845121Y-97050498D01*
X114851340Y-97073706D01*
X114851341Y-97073709D01*
X114851343Y-97073713D01*
X114880209Y-97123710D01*
X114893534Y-97146790D01*
X114893535Y-97146791D01*
X114893536Y-97146792D01*
X114953208Y-97206464D01*
X115026291Y-97248659D01*
X115107805Y-97270500D01*
X115107806Y-97270500D01*
X115192194Y-97270500D01*
X115192195Y-97270500D01*
X115273709Y-97248659D01*
X115346792Y-97206464D01*
X115406464Y-97146792D01*
X115448659Y-97073709D01*
X115470500Y-96992195D01*
X115470500Y-96907805D01*
X115448659Y-96826291D01*
X115435332Y-96803208D01*
X115425487Y-96786156D01*
X115407570Y-96755122D01*
X115406685Y-96753479D01*
X115406542Y-96753286D01*
X115346790Y-96693534D01*
X115306894Y-96670500D01*
X115273713Y-96651343D01*
X115273709Y-96651341D01*
X115273706Y-96651340D01*
X115263688Y-96648655D01*
X115263688Y-96648656D01*
X115192195Y-96629500D01*
X115192194Y-96629500D01*
X115107805Y-96629500D01*
X115067047Y-96640420D01*
X115067046Y-96640419D01*
X115026292Y-96651339D01*
X114953210Y-96693533D01*
X114893533Y-96753210D01*
X114851339Y-96826293D01*
X114843956Y-96853852D01*
X114843956Y-96853853D01*
X114838259Y-96875117D01*
X114829500Y-96907806D01*
X108329905Y-96907806D01*
X108310103Y-96903867D01*
X108284974Y-96893458D01*
X108260968Y-96877418D01*
X108063576Y-96680026D01*
X108063571Y-96680022D01*
X108063570Y-96680021D01*
X107989882Y-96649500D01*
X105189883Y-96649500D01*
X105110118Y-96649500D01*
X105036428Y-96680022D01*
X105036426Y-96680023D01*
X104839031Y-96877418D01*
X104815025Y-96893458D01*
X104789895Y-96903867D01*
X104761579Y-96909500D01*
X103038421Y-96909500D01*
X103010103Y-96903867D01*
X102984974Y-96893458D01*
X102960968Y-96877418D01*
X102563576Y-96480026D01*
X102563571Y-96480022D01*
X102563570Y-96480021D01*
X102489882Y-96449500D01*
X101416653Y-96449500D01*
X101364327Y-96427826D01*
X101358637Y-96421437D01*
X101335486Y-96392194D01*
X113529499Y-96392194D01*
X113543730Y-96445305D01*
X113546720Y-96456464D01*
X113551341Y-96473709D01*
X113551343Y-96473713D01*
X113583663Y-96529693D01*
X113593534Y-96546790D01*
X113593535Y-96546791D01*
X113593536Y-96546792D01*
X113653208Y-96606464D01*
X113726291Y-96648659D01*
X113807805Y-96670500D01*
X113807806Y-96670500D01*
X113892194Y-96670500D01*
X113892195Y-96670500D01*
X113973709Y-96648659D01*
X114046792Y-96606464D01*
X114106464Y-96546792D01*
X114148659Y-96473709D01*
X114170500Y-96392195D01*
X114170500Y-96307805D01*
X114148659Y-96226291D01*
X114118303Y-96173713D01*
X114111823Y-96162490D01*
X114107570Y-96155123D01*
X114106684Y-96153477D01*
X114106542Y-96153286D01*
X114046790Y-96093534D01*
X114000902Y-96067041D01*
X113975777Y-96052535D01*
X113974244Y-96051582D01*
X113973713Y-96051342D01*
X113932946Y-96040419D01*
X113892195Y-96029500D01*
X113892194Y-96029500D01*
X113807805Y-96029500D01*
X113767047Y-96040420D01*
X113767046Y-96040419D01*
X113726292Y-96051339D01*
X113653210Y-96093533D01*
X113593533Y-96153210D01*
X113551339Y-96226293D01*
X113545849Y-96246787D01*
X113545849Y-96246788D01*
X113529781Y-96306759D01*
X113529500Y-96307806D01*
X113529500Y-96392192D01*
X113529499Y-96392194D01*
X101335486Y-96392194D01*
X101301201Y-96348886D01*
X101301201Y-96348885D01*
X101025001Y-96000000D01*
X101009734Y-95992615D01*
X101010793Y-95990425D01*
X100981583Y-95978327D01*
X100946792Y-95943536D01*
X100946789Y-95943534D01*
X100946788Y-95943533D01*
X100873713Y-95901343D01*
X100873709Y-95901341D01*
X100792195Y-95879500D01*
X100792194Y-95879500D01*
X100707805Y-95879500D01*
X100667047Y-95890420D01*
X100667046Y-95890419D01*
X100626292Y-95901339D01*
X100553210Y-95943533D01*
X100493533Y-96003210D01*
X100451341Y-96076289D01*
X100451339Y-96076294D01*
X100446720Y-96093532D01*
X100446721Y-96093533D01*
X100428245Y-96162490D01*
X100428156Y-96162466D01*
X100424209Y-96176844D01*
X100350000Y-96349998D01*
X100350000Y-96735796D01*
X100328326Y-96788122D01*
X97986426Y-99130024D01*
X97930020Y-99186430D01*
X97899500Y-99260114D01*
X97899500Y-103047943D01*
X97930020Y-103121626D01*
X97930022Y-103121630D01*
X97930026Y-103121635D01*
X97997418Y-103189027D01*
X98013457Y-103213030D01*
X98023868Y-103238164D01*
X98029500Y-103266479D01*
X98029500Y-103292195D01*
X98039637Y-103330026D01*
X98051341Y-103373709D01*
X98093534Y-103446790D01*
X98093535Y-103446791D01*
X98093536Y-103446792D01*
X98153208Y-103506464D01*
X98153210Y-103506465D01*
X98153211Y-103506466D01*
X98204579Y-103536123D01*
X98226291Y-103548659D01*
X98307805Y-103570500D01*
X98307806Y-103570500D01*
X98392194Y-103570500D01*
X98392195Y-103570500D01*
X98473709Y-103548659D01*
X98546792Y-103506464D01*
X98581124Y-103472131D01*
X98633447Y-103450458D01*
X98666542Y-103458271D01*
X98749999Y-103500000D01*
X98749999Y-103499999D01*
X98750000Y-103500000D01*
X99546098Y-101907805D01*
X101804500Y-101907805D01*
X101804500Y-101992195D01*
X101805325Y-101995273D01*
X101817806Y-102041855D01*
X101817805Y-102041855D01*
X101826339Y-102073702D01*
X101826341Y-102073709D01*
X101868534Y-102146790D01*
X101928208Y-102206464D01*
X101928621Y-102206761D01*
X101930130Y-102207574D01*
X101979579Y-102236123D01*
X102001291Y-102248659D01*
X102082805Y-102270500D01*
X102082806Y-102270500D01*
X102167194Y-102270500D01*
X102167195Y-102270500D01*
X102248709Y-102248659D01*
X102321792Y-102206464D01*
X102381464Y-102146792D01*
X102423659Y-102073709D01*
X102445500Y-101992195D01*
X102445500Y-101907805D01*
X102423659Y-101826291D01*
X102401012Y-101787066D01*
X102381466Y-101753211D01*
X102381465Y-101753210D01*
X102381464Y-101753208D01*
X102321792Y-101693536D01*
X102321791Y-101693535D01*
X102321790Y-101693534D01*
X102297429Y-101679469D01*
X102248713Y-101651343D01*
X102248709Y-101651341D01*
X102241482Y-101649404D01*
X102220225Y-101643708D01*
X102220225Y-101643709D01*
X102167195Y-101629500D01*
X102167194Y-101629500D01*
X102082805Y-101629500D01*
X102042047Y-101640420D01*
X102042046Y-101640419D01*
X102001292Y-101651339D01*
X101928210Y-101693533D01*
X101868533Y-101753210D01*
X101831817Y-101816804D01*
X101826343Y-101826286D01*
X101826341Y-101826290D01*
X101826341Y-101826291D01*
X101804500Y-101907805D01*
X99546098Y-101907805D01*
X99800000Y-101400000D01*
X99800000Y-101377865D01*
X99800500Y-101372791D01*
X99800500Y-100807805D01*
X102079500Y-100807805D01*
X102079500Y-100892195D01*
X102087028Y-100920293D01*
X102093549Y-100944630D01*
X102101339Y-100973704D01*
X102101341Y-100973709D01*
X102143534Y-101046790D01*
X102203208Y-101106464D01*
X102203621Y-101106761D01*
X102205130Y-101107574D01*
X102254579Y-101136123D01*
X102276291Y-101148659D01*
X102357805Y-101170500D01*
X102357806Y-101170500D01*
X102442194Y-101170500D01*
X102442195Y-101170500D01*
X102523709Y-101148659D01*
X102584136Y-101113771D01*
X111224500Y-101113771D01*
X111224500Y-101286227D01*
X111258142Y-101455365D01*
X111258145Y-101455376D01*
X111258146Y-101455381D01*
X111324140Y-101614702D01*
X111416397Y-101752775D01*
X111419955Y-101758099D01*
X111541901Y-101880045D01*
X111685295Y-101975858D01*
X111844626Y-102041855D01*
X112013771Y-102075500D01*
X112013772Y-102075500D01*
X112186228Y-102075500D01*
X112186229Y-102075500D01*
X112355374Y-102041855D01*
X112514705Y-101975858D01*
X112658099Y-101880045D01*
X112780045Y-101758099D01*
X112875858Y-101614705D01*
X112941855Y-101455374D01*
X112975500Y-101286229D01*
X112975500Y-101113771D01*
X112941855Y-100944626D01*
X112887570Y-100813571D01*
X112875859Y-100785297D01*
X112872336Y-100780025D01*
X112780045Y-100641901D01*
X112658099Y-100519955D01*
X112658096Y-100519953D01*
X112616553Y-100492195D01*
X112514701Y-100424139D01*
X112355381Y-100358146D01*
X112355376Y-100358145D01*
X112355365Y-100358142D01*
X112227942Y-100332797D01*
X112186229Y-100324500D01*
X112013771Y-100324500D01*
X112013767Y-100324500D01*
X111980309Y-100331154D01*
X111980309Y-100331155D01*
X111935083Y-100340151D01*
X111844630Y-100358143D01*
X111844622Y-100358145D01*
X111844617Y-100358146D01*
X111685300Y-100424138D01*
X111541904Y-100519951D01*
X111541903Y-100519953D01*
X111419953Y-100641903D01*
X111419951Y-100641904D01*
X111324138Y-100785300D01*
X111258146Y-100944617D01*
X111258145Y-100944622D01*
X111258143Y-100944630D01*
X111224500Y-101113771D01*
X102584136Y-101113771D01*
X102596792Y-101106464D01*
X102656464Y-101046792D01*
X102698659Y-100973709D01*
X102720500Y-100892195D01*
X102720500Y-100807805D01*
X102698659Y-100726291D01*
X102678551Y-100691464D01*
X102657568Y-100655120D01*
X102656682Y-100653473D01*
X102656544Y-100653288D01*
X102596790Y-100593534D01*
X102572429Y-100579469D01*
X102523713Y-100551343D01*
X102523709Y-100551341D01*
X102523702Y-100551339D01*
X102476064Y-100538574D01*
X102476064Y-100538575D01*
X102442195Y-100529500D01*
X102442194Y-100529500D01*
X102357806Y-100529500D01*
X102357805Y-100529500D01*
X102350648Y-100531417D01*
X102323936Y-100538574D01*
X102323936Y-100538575D01*
X102276290Y-100551341D01*
X102276288Y-100551342D01*
X102203210Y-100593533D01*
X102143533Y-100653210D01*
X102140452Y-100658547D01*
X102101343Y-100726286D01*
X102101341Y-100726290D01*
X102099367Y-100733659D01*
X102079500Y-100807805D01*
X99800500Y-100807805D01*
X99800500Y-100478420D01*
X99806131Y-100450106D01*
X99816542Y-100424971D01*
X99832578Y-100400971D01*
X100767131Y-99466418D01*
X101810408Y-99466418D01*
X101810408Y-99550808D01*
X101821302Y-99591466D01*
X101821301Y-99591466D01*
X101831007Y-99627688D01*
X101832249Y-99632322D01*
X101832251Y-99632326D01*
X101841681Y-99648659D01*
X101874442Y-99705403D01*
X101874443Y-99705404D01*
X101874444Y-99705405D01*
X101934116Y-99765077D01*
X102007199Y-99807272D01*
X102007200Y-99807272D01*
X102011402Y-99809698D01*
X102011223Y-99810007D01*
X102021410Y-99815887D01*
X102032398Y-99824318D01*
X102060716Y-99873355D01*
X102061370Y-99878316D01*
X102052326Y-99923818D01*
X102052500Y-99923903D01*
X102052178Y-99924565D01*
X102052096Y-99924979D01*
X102051347Y-99926276D01*
X102051343Y-99926284D01*
X102051342Y-99926287D01*
X102051341Y-99926290D01*
X102040867Y-99965381D01*
X102040867Y-99965382D01*
X102040866Y-99965381D01*
X102029500Y-100007804D01*
X102029500Y-100092194D01*
X102043423Y-100144160D01*
X102043424Y-100144163D01*
X102045348Y-100151341D01*
X102051341Y-100173709D01*
X102051343Y-100173713D01*
X102093533Y-100246788D01*
X102093534Y-100246789D01*
X102093536Y-100246792D01*
X102095528Y-100248784D01*
X102153208Y-100306464D01*
X102153618Y-100306760D01*
X102155118Y-100307567D01*
X102184447Y-100324500D01*
X102226291Y-100348659D01*
X102307805Y-100370500D01*
X102307806Y-100370500D01*
X102392194Y-100370500D01*
X102392195Y-100370500D01*
X102473709Y-100348659D01*
X102546792Y-100306464D01*
X102606464Y-100246792D01*
X102648659Y-100173709D01*
X102670500Y-100092195D01*
X102670500Y-100007805D01*
X102648659Y-99926291D01*
X102627898Y-99890332D01*
X102607570Y-99855123D01*
X102606684Y-99853477D01*
X102606542Y-99853286D01*
X102546790Y-99793534D01*
X102473714Y-99751343D01*
X102471978Y-99750460D01*
X102472024Y-99750368D01*
X102472031Y-99750355D01*
X102472090Y-99750239D01*
X102459648Y-99742841D01*
X102448505Y-99734290D01*
X102420190Y-99685250D01*
X102419536Y-99680283D01*
X102428151Y-99636991D01*
X102427709Y-99636808D01*
X102428631Y-99634579D01*
X102428825Y-99633605D01*
X102429567Y-99632322D01*
X102435365Y-99610680D01*
X102452043Y-99580104D01*
X102458014Y-99573524D01*
X102503145Y-99549886D01*
X102503893Y-99549787D01*
X102503900Y-99549787D01*
X102504269Y-99549738D01*
X102550920Y-99559008D01*
X102553908Y-99560733D01*
X102569237Y-99572493D01*
X102603208Y-99606464D01*
X102603210Y-99606465D01*
X102603211Y-99606466D01*
X102647983Y-99632315D01*
X102676291Y-99648659D01*
X102757805Y-99670500D01*
X102757806Y-99670500D01*
X102842194Y-99670500D01*
X102842195Y-99670500D01*
X102923709Y-99648659D01*
X102996792Y-99606464D01*
X103056464Y-99546792D01*
X103098659Y-99473709D01*
X103120500Y-99392195D01*
X103120500Y-99307805D01*
X103098659Y-99226291D01*
X103075347Y-99185914D01*
X103075347Y-99185913D01*
X103065888Y-99169530D01*
X103056466Y-99153211D01*
X103056465Y-99153210D01*
X103056464Y-99153208D01*
X102996792Y-99093536D01*
X102996790Y-99093534D01*
X102972429Y-99079469D01*
X102923713Y-99051343D01*
X102923709Y-99051341D01*
X102923706Y-99051340D01*
X102913688Y-99048655D01*
X102913688Y-99048656D01*
X102842195Y-99029500D01*
X102842194Y-99029500D01*
X102757805Y-99029500D01*
X102717047Y-99040420D01*
X102717046Y-99040419D01*
X102676292Y-99051339D01*
X102603210Y-99093533D01*
X102585978Y-99110765D01*
X102561970Y-99126806D01*
X102554611Y-99129854D01*
X102497974Y-99129852D01*
X102457927Y-99089804D01*
X102457264Y-99088203D01*
X102454163Y-99040755D01*
X102471906Y-98974538D01*
X102471906Y-98890145D01*
X102471905Y-98890143D01*
X102467073Y-98872108D01*
X102467072Y-98872107D01*
X102463240Y-98857805D01*
X105779500Y-98857805D01*
X105779500Y-98942195D01*
X105788165Y-98974534D01*
X105788164Y-98974534D01*
X105799554Y-99017041D01*
X105801341Y-99023709D01*
X105801343Y-99023713D01*
X105832994Y-99078534D01*
X105843534Y-99096790D01*
X105843536Y-99096792D01*
X105903208Y-99156464D01*
X105905697Y-99157901D01*
X105926064Y-99169660D01*
X105941470Y-99178555D01*
X105963175Y-99197590D01*
X105970034Y-99206529D01*
X105973844Y-99220749D01*
X105975948Y-99223491D01*
X105975497Y-99226915D01*
X105984693Y-99261235D01*
X105984684Y-99261301D01*
X105984570Y-99262161D01*
X105963538Y-99304763D01*
X105961104Y-99307197D01*
X105945778Y-99318957D01*
X105903209Y-99343534D01*
X105843533Y-99403210D01*
X105801337Y-99476296D01*
X105801331Y-99476308D01*
X105801305Y-99476359D01*
X105801054Y-99477359D01*
X105780559Y-99553852D01*
X105779500Y-99557805D01*
X105779500Y-99642195D01*
X105781231Y-99648656D01*
X105794449Y-99697988D01*
X105794450Y-99697990D01*
X105796436Y-99705401D01*
X105801341Y-99723709D01*
X105801343Y-99723713D01*
X105843533Y-99796788D01*
X105843534Y-99796789D01*
X105843536Y-99796792D01*
X105903208Y-99856464D01*
X105903210Y-99856465D01*
X105903211Y-99856466D01*
X105903213Y-99856467D01*
X105903626Y-99856765D01*
X105905121Y-99857570D01*
X105939425Y-99877375D01*
X105961868Y-99890332D01*
X105976291Y-99898659D01*
X106057805Y-99920500D01*
X106057806Y-99920500D01*
X106142194Y-99920500D01*
X106142195Y-99920500D01*
X106223709Y-99898659D01*
X106296792Y-99856464D01*
X106356464Y-99796792D01*
X106398659Y-99723709D01*
X106420500Y-99642195D01*
X106420500Y-99557805D01*
X106398659Y-99476291D01*
X106386123Y-99454579D01*
X106369031Y-99424974D01*
X106357574Y-99405129D01*
X106356684Y-99403476D01*
X106356544Y-99403288D01*
X106296790Y-99343534D01*
X106258531Y-99321445D01*
X106236822Y-99302406D01*
X106229964Y-99293468D01*
X106215306Y-99238760D01*
X106215307Y-99238759D01*
X106215420Y-99237901D01*
X106236459Y-99195238D01*
X106238898Y-99192799D01*
X106254221Y-99181043D01*
X106294294Y-99157906D01*
X106294303Y-99157901D01*
X106296792Y-99156464D01*
X106356464Y-99096792D01*
X106398659Y-99023709D01*
X106420500Y-98942195D01*
X106420500Y-98857805D01*
X106398659Y-98776291D01*
X106375138Y-98735552D01*
X106356466Y-98703211D01*
X106356465Y-98703210D01*
X106356464Y-98703208D01*
X106296792Y-98643536D01*
X106296791Y-98643535D01*
X106296790Y-98643534D01*
X106241896Y-98611841D01*
X106223713Y-98601343D01*
X106223709Y-98601341D01*
X106142195Y-98579500D01*
X106142194Y-98579500D01*
X106057805Y-98579500D01*
X106017047Y-98590420D01*
X106017046Y-98590419D01*
X105976292Y-98601339D01*
X105903210Y-98643533D01*
X105843533Y-98703210D01*
X105824861Y-98735551D01*
X105803722Y-98772167D01*
X105801340Y-98776292D01*
X105792678Y-98808622D01*
X105792678Y-98808623D01*
X105792533Y-98809165D01*
X105779500Y-98857805D01*
X102463240Y-98857805D01*
X102450177Y-98809052D01*
X102450073Y-98808651D01*
X102450066Y-98808637D01*
X102450065Y-98808632D01*
X102450062Y-98808628D01*
X102450061Y-98808624D01*
X102450053Y-98808611D01*
X102449171Y-98806794D01*
X102447848Y-98804791D01*
X102407872Y-98735552D01*
X102407871Y-98735551D01*
X102407870Y-98735549D01*
X102348198Y-98675877D01*
X102348196Y-98675875D01*
X102292183Y-98643536D01*
X102275119Y-98633684D01*
X102275115Y-98633682D01*
X102193601Y-98611841D01*
X102193600Y-98611841D01*
X102109211Y-98611841D01*
X102068453Y-98622761D01*
X102068452Y-98622760D01*
X102027698Y-98633680D01*
X101954616Y-98675874D01*
X101894939Y-98735551D01*
X101877818Y-98765205D01*
X101852751Y-98808624D01*
X101852747Y-98808631D01*
X101852747Y-98808632D01*
X101830907Y-98890145D01*
X101830906Y-98890147D01*
X101830906Y-98974538D01*
X101841614Y-99014500D01*
X101844083Y-99023713D01*
X101852747Y-99056050D01*
X101852749Y-99056054D01*
X101894939Y-99129129D01*
X101894940Y-99129130D01*
X101894942Y-99129133D01*
X101897228Y-99131419D01*
X101913302Y-99147493D01*
X101929342Y-99171498D01*
X101933654Y-99181907D01*
X101933656Y-99238544D01*
X101933654Y-99238548D01*
X101929343Y-99248955D01*
X101913304Y-99272960D01*
X101874441Y-99311823D01*
X101851050Y-99352337D01*
X101832251Y-99384899D01*
X101832249Y-99384903D01*
X101827344Y-99403211D01*
X101810408Y-99466418D01*
X100767131Y-99466418D01*
X101800971Y-98432578D01*
X101824974Y-98416541D01*
X101850105Y-98406131D01*
X101878421Y-98400500D01*
X102121579Y-98400500D01*
X102149893Y-98406131D01*
X102175025Y-98416541D01*
X102199031Y-98432581D01*
X102206426Y-98439976D01*
X102280118Y-98470500D01*
X102280119Y-98470500D01*
X105469881Y-98470500D01*
X105469882Y-98470500D01*
X105543574Y-98439976D01*
X105700971Y-98282578D01*
X105724974Y-98266541D01*
X105750105Y-98256131D01*
X105778421Y-98250500D01*
X107151579Y-98250500D01*
X107179893Y-98256131D01*
X107205025Y-98266541D01*
X107229031Y-98282581D01*
X107330024Y-98383574D01*
X107386426Y-98439976D01*
X107460118Y-98470500D01*
X111641579Y-98470500D01*
X111669893Y-98476131D01*
X111695025Y-98486541D01*
X111719031Y-98502581D01*
X113517418Y-100300968D01*
X113533457Y-100324971D01*
X113543868Y-100350105D01*
X113549500Y-100378420D01*
X113549500Y-100739883D01*
X113580022Y-100813571D01*
X113580024Y-100813574D01*
X113580025Y-100813575D01*
X113580027Y-100813578D01*
X113582343Y-100816403D01*
X113580744Y-100817713D01*
X113600000Y-100864202D01*
X113600000Y-101835798D01*
X113578326Y-101888124D01*
X112899031Y-102567418D01*
X112875025Y-102583458D01*
X112849895Y-102593867D01*
X112821579Y-102599500D01*
X103810118Y-102599500D01*
X103773273Y-102614761D01*
X103736426Y-102630022D01*
X103736423Y-102630024D01*
X103734639Y-102631809D01*
X103683861Y-102653460D01*
X101601591Y-102696841D01*
X101563051Y-102686943D01*
X101523718Y-102664235D01*
X101523713Y-102664232D01*
X101523709Y-102664230D01*
X101523702Y-102664228D01*
X101442195Y-102642389D01*
X101442194Y-102642389D01*
X101357805Y-102642389D01*
X101317047Y-102653309D01*
X101317046Y-102653308D01*
X101276292Y-102664228D01*
X101203210Y-102706422D01*
X101143533Y-102766099D01*
X101101337Y-102839185D01*
X101101331Y-102839197D01*
X101101305Y-102839248D01*
X101101054Y-102840248D01*
X101079500Y-102920693D01*
X101079500Y-103005084D01*
X101092394Y-103053210D01*
X101101340Y-103086598D01*
X101102667Y-103090093D01*
X101102471Y-103090167D01*
X101107408Y-103112994D01*
X101121291Y-103418413D01*
X101113862Y-103454244D01*
X101112727Y-103456567D01*
X101101343Y-103476286D01*
X101101341Y-103476290D01*
X101101341Y-103476291D01*
X101099208Y-103484249D01*
X101099205Y-103484257D01*
X101080188Y-103555236D01*
X101079500Y-103557805D01*
X101079500Y-103642195D01*
X101082140Y-103652046D01*
X101086133Y-103666950D01*
X101086133Y-103666951D01*
X101095724Y-103702748D01*
X101097611Y-103712235D01*
X101098867Y-103721777D01*
X101099500Y-103731429D01*
X101099500Y-104084772D01*
X101082623Y-104131814D01*
X100467955Y-104878196D01*
X100422084Y-104904294D01*
X100047806Y-104961875D01*
X100008236Y-104957102D01*
X99989882Y-104949500D01*
X98636261Y-104949500D01*
X98583935Y-104927826D01*
X98581712Y-104925504D01*
X98162837Y-104468549D01*
X98158679Y-104463595D01*
X98157145Y-104461596D01*
X98156544Y-104460788D01*
X98147818Y-104452062D01*
X98145594Y-104449739D01*
X98100000Y-104400000D01*
X98099998Y-104399998D01*
X98095275Y-104398424D01*
X98081681Y-104392309D01*
X98023724Y-104358848D01*
X98023713Y-104358843D01*
X98023709Y-104358841D01*
X97981304Y-104347479D01*
X97942195Y-104337000D01*
X97942194Y-104337000D01*
X97857805Y-104337000D01*
X97818693Y-104347479D01*
X97799542Y-104350000D01*
X97300456Y-104350000D01*
X97290633Y-104349345D01*
X97285905Y-104348711D01*
X97242195Y-104337000D01*
X97198453Y-104337000D01*
X97193562Y-104336345D01*
X97173013Y-104324419D01*
X97151059Y-104315326D01*
X97147898Y-104309844D01*
X97144577Y-104307917D01*
X97142689Y-104300808D01*
X97131884Y-104282067D01*
X96944367Y-103578876D01*
X96942757Y-103578171D01*
X96927767Y-103555236D01*
X96925043Y-103548659D01*
X96919977Y-103536428D01*
X96919975Y-103536425D01*
X96621674Y-103238124D01*
X96600000Y-103185798D01*
X96600000Y-100689199D01*
X96621673Y-100636874D01*
X96647076Y-100611471D01*
X96653163Y-100605385D01*
X96653168Y-100605381D01*
X96663573Y-100594976D01*
X96663574Y-100594976D01*
X96719976Y-100538574D01*
X96750500Y-100464882D01*
X96750500Y-99310118D01*
X96730798Y-99262552D01*
X96719977Y-99236428D01*
X96719975Y-99236425D01*
X95363575Y-97880025D01*
X95363571Y-97880022D01*
X95363570Y-97880021D01*
X95289882Y-97849500D01*
X95134659Y-97849500D01*
X95082333Y-97827826D01*
X95077386Y-97822360D01*
X94854395Y-97549815D01*
X94820023Y-97507805D01*
X96679500Y-97507805D01*
X96679500Y-97592195D01*
X96680324Y-97595271D01*
X96680324Y-97595274D01*
X96695121Y-97650498D01*
X96701340Y-97673706D01*
X96701341Y-97673709D01*
X96701343Y-97673713D01*
X96738076Y-97737337D01*
X96743534Y-97746790D01*
X96743536Y-97746792D01*
X96803208Y-97806464D01*
X96803210Y-97806465D01*
X96803211Y-97806466D01*
X96803213Y-97806467D01*
X96803622Y-97806762D01*
X96805123Y-97807570D01*
X96830740Y-97822360D01*
X96840209Y-97827827D01*
X96876291Y-97848659D01*
X96957805Y-97870500D01*
X96957806Y-97870500D01*
X97042194Y-97870500D01*
X97042195Y-97870500D01*
X97123709Y-97848659D01*
X97196792Y-97806464D01*
X97256464Y-97746792D01*
X97298659Y-97673709D01*
X97320500Y-97592195D01*
X97320500Y-97507805D01*
X97298659Y-97426291D01*
X97265973Y-97369678D01*
X97256466Y-97353211D01*
X97256465Y-97353210D01*
X97256464Y-97353208D01*
X97196792Y-97293536D01*
X97196791Y-97293535D01*
X97196790Y-97293534D01*
X97132586Y-97256466D01*
X97123713Y-97251343D01*
X97123709Y-97251341D01*
X97123706Y-97251340D01*
X97113688Y-97248655D01*
X97113688Y-97248656D01*
X97042195Y-97229500D01*
X97042194Y-97229500D01*
X96957805Y-97229500D01*
X96917047Y-97240420D01*
X96917046Y-97240419D01*
X96876292Y-97251339D01*
X96803210Y-97293533D01*
X96743533Y-97353210D01*
X96706817Y-97416804D01*
X96701343Y-97426286D01*
X96701341Y-97426290D01*
X96701341Y-97426291D01*
X96679500Y-97507805D01*
X94820023Y-97507805D01*
X94463595Y-97072172D01*
X94370022Y-96957805D01*
X97629502Y-96957805D01*
X97629502Y-97042195D01*
X97630326Y-97045271D01*
X97630326Y-97045275D01*
X97637534Y-97072172D01*
X97637534Y-97072173D01*
X97637535Y-97072173D01*
X97637535Y-97072174D01*
X97651343Y-97123709D01*
X97651345Y-97123713D01*
X97664668Y-97146789D01*
X97693536Y-97196790D01*
X97693537Y-97196791D01*
X97693538Y-97196792D01*
X97753210Y-97256464D01*
X97753212Y-97256465D01*
X97753213Y-97256466D01*
X97793928Y-97279973D01*
X97826293Y-97298659D01*
X97907807Y-97320500D01*
X97907808Y-97320500D01*
X97992196Y-97320500D01*
X97992197Y-97320500D01*
X98073711Y-97298659D01*
X98073722Y-97298652D01*
X98078192Y-97296802D01*
X98078412Y-97297333D01*
X98099919Y-97290027D01*
X98111097Y-97288555D01*
X98165800Y-97303211D01*
X98174742Y-97310073D01*
X98193778Y-97331779D01*
X98215659Y-97369678D01*
X98215660Y-97369679D01*
X98215661Y-97369680D01*
X98275333Y-97429352D01*
X98348416Y-97471547D01*
X98429930Y-97493388D01*
X98429931Y-97493388D01*
X98514319Y-97493388D01*
X98514320Y-97493388D01*
X98595834Y-97471547D01*
X98668917Y-97429352D01*
X98728589Y-97369680D01*
X98770784Y-97296597D01*
X98792625Y-97215083D01*
X98792625Y-97130693D01*
X98770784Y-97049179D01*
X98728589Y-96976096D01*
X98668917Y-96916424D01*
X98668916Y-96916423D01*
X98668915Y-96916422D01*
X98659462Y-96910964D01*
X98595838Y-96874231D01*
X98595834Y-96874229D01*
X98595831Y-96874228D01*
X98591999Y-96873201D01*
X98588166Y-96872174D01*
X98588164Y-96872172D01*
X98588164Y-96872174D01*
X98514320Y-96852388D01*
X98514319Y-96852388D01*
X98429930Y-96852388D01*
X98389172Y-96863308D01*
X98389171Y-96863307D01*
X98348416Y-96874228D01*
X98348393Y-96874239D01*
X98347603Y-96874665D01*
X98347433Y-96874719D01*
X98347413Y-96874730D01*
X98347411Y-96874726D01*
X98345346Y-96875393D01*
X98344920Y-96875555D01*
X98344911Y-96875533D01*
X98322210Y-96882859D01*
X98311027Y-96884331D01*
X98256323Y-96869673D01*
X98247385Y-96862815D01*
X98228347Y-96841107D01*
X98207562Y-96805105D01*
X98206760Y-96803617D01*
X98206466Y-96803208D01*
X98146792Y-96743534D01*
X98113296Y-96724195D01*
X98073715Y-96701343D01*
X98073711Y-96701341D01*
X97992197Y-96679500D01*
X97992196Y-96679500D01*
X97907807Y-96679500D01*
X97889922Y-96684292D01*
X97889921Y-96684291D01*
X97826298Y-96701339D01*
X97826291Y-96701341D01*
X97753212Y-96743533D01*
X97693535Y-96803210D01*
X97658838Y-96863307D01*
X97651345Y-96876286D01*
X97651343Y-96876290D01*
X97651343Y-96876291D01*
X97629502Y-96957805D01*
X94370022Y-96957805D01*
X94247455Y-96808000D01*
X94217227Y-96771055D01*
X94200500Y-96724195D01*
X94200500Y-96445305D01*
X96367000Y-96445305D01*
X96367000Y-96529695D01*
X96367648Y-96532114D01*
X96367648Y-96532116D01*
X96371579Y-96546787D01*
X96388839Y-96611202D01*
X96388841Y-96611209D01*
X96431034Y-96684290D01*
X96431035Y-96684291D01*
X96431036Y-96684292D01*
X96490708Y-96743964D01*
X96490710Y-96743965D01*
X96490711Y-96743966D01*
X96506719Y-96753208D01*
X96563791Y-96786159D01*
X96645305Y-96808000D01*
X96645306Y-96808000D01*
X96729694Y-96808000D01*
X96729695Y-96808000D01*
X96811209Y-96786159D01*
X96884292Y-96743964D01*
X96943964Y-96684292D01*
X96986159Y-96611209D01*
X97008000Y-96529695D01*
X97008000Y-96445305D01*
X96986159Y-96363791D01*
X96973623Y-96342079D01*
X96943966Y-96290711D01*
X96943965Y-96290710D01*
X96943964Y-96290708D01*
X96884292Y-96231036D01*
X96884291Y-96231035D01*
X96884290Y-96231034D01*
X96859929Y-96216969D01*
X96811213Y-96188843D01*
X96811209Y-96188841D01*
X96729695Y-96167000D01*
X96729694Y-96167000D01*
X96645305Y-96167000D01*
X96620266Y-96173708D01*
X96620266Y-96173709D01*
X96563790Y-96188841D01*
X96563788Y-96188842D01*
X96490710Y-96231033D01*
X96431033Y-96290710D01*
X96388839Y-96363793D01*
X96382750Y-96386518D01*
X96382749Y-96386527D01*
X96381231Y-96392193D01*
X96367000Y-96445305D01*
X94200500Y-96445305D01*
X94200500Y-95777805D01*
X106389500Y-95777805D01*
X106389500Y-95782210D01*
X106389500Y-95862194D01*
X106404672Y-95918820D01*
X106404673Y-95918822D01*
X106406673Y-95926286D01*
X106411341Y-95943709D01*
X106411343Y-95943713D01*
X106453533Y-96016788D01*
X106453534Y-96016789D01*
X106453536Y-96016792D01*
X106455368Y-96018624D01*
X106513208Y-96076464D01*
X106513617Y-96076759D01*
X106515106Y-96077560D01*
X106542772Y-96093533D01*
X106586291Y-96118659D01*
X106667805Y-96140500D01*
X106667806Y-96140500D01*
X106752194Y-96140500D01*
X106752195Y-96140500D01*
X106833709Y-96118659D01*
X106906792Y-96076464D01*
X106966464Y-96016792D01*
X106971653Y-96007804D01*
X114429500Y-96007804D01*
X114429500Y-96092195D01*
X114436589Y-96118655D01*
X114449543Y-96167000D01*
X114451341Y-96173709D01*
X114451343Y-96173713D01*
X114479469Y-96222429D01*
X114493534Y-96246790D01*
X114493536Y-96246792D01*
X114553208Y-96306464D01*
X114553210Y-96306465D01*
X114553211Y-96306466D01*
X114553213Y-96306467D01*
X114553619Y-96306759D01*
X114555100Y-96307556D01*
X114555507Y-96307792D01*
X114555526Y-96307816D01*
X114555532Y-96307806D01*
X114626291Y-96348659D01*
X114707805Y-96370500D01*
X114707806Y-96370500D01*
X114792194Y-96370500D01*
X114792195Y-96370500D01*
X114873709Y-96348659D01*
X114946792Y-96306464D01*
X115006464Y-96246792D01*
X115048659Y-96173709D01*
X115070500Y-96092195D01*
X115070500Y-96007805D01*
X115048659Y-95926291D01*
X115006464Y-95853208D01*
X114946792Y-95793536D01*
X114946791Y-95793535D01*
X114946790Y-95793534D01*
X114919546Y-95777805D01*
X114873713Y-95751343D01*
X114873709Y-95751341D01*
X114792195Y-95729500D01*
X114792194Y-95729500D01*
X114707805Y-95729500D01*
X114667047Y-95740420D01*
X114667046Y-95740419D01*
X114626292Y-95751339D01*
X114553210Y-95793533D01*
X114493533Y-95853210D01*
X114451334Y-95926302D01*
X114451305Y-95926359D01*
X114451054Y-95927359D01*
X114429500Y-96007804D01*
X106971653Y-96007804D01*
X107008659Y-95943709D01*
X107030500Y-95862195D01*
X107030500Y-95777805D01*
X107008659Y-95696291D01*
X106966464Y-95623208D01*
X106906792Y-95563536D01*
X106906791Y-95563535D01*
X106906790Y-95563534D01*
X106882429Y-95549469D01*
X106833713Y-95521343D01*
X106833709Y-95521341D01*
X106752195Y-95499500D01*
X106752194Y-95499500D01*
X106667805Y-95499500D01*
X106627047Y-95510420D01*
X106627046Y-95510419D01*
X106586292Y-95521339D01*
X106513210Y-95563533D01*
X106453533Y-95623210D01*
X106411337Y-95696296D01*
X106411321Y-95696328D01*
X106411296Y-95696432D01*
X106411163Y-95696953D01*
X106389500Y-95777805D01*
X94200500Y-95777805D01*
X94200500Y-92904415D01*
X95219500Y-92904415D01*
X95219500Y-93095584D01*
X95234733Y-93172168D01*
X95256793Y-93283075D01*
X95256793Y-93283076D01*
X95256798Y-93283092D01*
X95329950Y-93459698D01*
X95329952Y-93459701D01*
X95329953Y-93459703D01*
X95388227Y-93546916D01*
X95408887Y-93577836D01*
X95436162Y-93618657D01*
X95571342Y-93753837D01*
X95730296Y-93860046D01*
X95897640Y-93929362D01*
X95906916Y-93933204D01*
X96094414Y-93970500D01*
X96094416Y-93970500D01*
X96285584Y-93970500D01*
X96285586Y-93970500D01*
X96473084Y-93933204D01*
X96482361Y-93929360D01*
X96510675Y-93923727D01*
X96521944Y-93923727D01*
X96574269Y-93945401D01*
X96576603Y-93947735D01*
X96598277Y-94000061D01*
X96598277Y-94010972D01*
X96616292Y-94078208D01*
X96620118Y-94092486D01*
X96620120Y-94092490D01*
X96655758Y-94154216D01*
X96662311Y-94165567D01*
X96662313Y-94165569D01*
X96721985Y-94225241D01*
X96721987Y-94225242D01*
X96721988Y-94225243D01*
X96721990Y-94225244D01*
X96722399Y-94225539D01*
X96723900Y-94226347D01*
X96759859Y-94247108D01*
X96795068Y-94267436D01*
X96876582Y-94289277D01*
X96876583Y-94289277D01*
X96960971Y-94289277D01*
X96960972Y-94289277D01*
X97042486Y-94267436D01*
X97059167Y-94257805D01*
X102529500Y-94257805D01*
X102529500Y-94342195D01*
X102549998Y-94418698D01*
X102551341Y-94423709D01*
X102551343Y-94423713D01*
X102579102Y-94471792D01*
X102593534Y-94496790D01*
X102593536Y-94496792D01*
X102653208Y-94556464D01*
X102653210Y-94556465D01*
X102653211Y-94556466D01*
X102653213Y-94556467D01*
X102653622Y-94556762D01*
X102655123Y-94557570D01*
X102682990Y-94573659D01*
X102726291Y-94598659D01*
X102807805Y-94620500D01*
X102807806Y-94620500D01*
X102892194Y-94620500D01*
X102892195Y-94620500D01*
X102973709Y-94598659D01*
X103046792Y-94556464D01*
X103106464Y-94496792D01*
X103128554Y-94458532D01*
X103147593Y-94436822D01*
X103156531Y-94429964D01*
X103211238Y-94415306D01*
X103211239Y-94415306D01*
X103211240Y-94415307D01*
X103212098Y-94415420D01*
X103254762Y-94436460D01*
X103257197Y-94438895D01*
X103268957Y-94454221D01*
X103293534Y-94496790D01*
X103293536Y-94496792D01*
X103353208Y-94556464D01*
X103353210Y-94556465D01*
X103353211Y-94556466D01*
X103353213Y-94556467D01*
X103353622Y-94556762D01*
X103355123Y-94557570D01*
X103382990Y-94573659D01*
X103426291Y-94598659D01*
X103507805Y-94620500D01*
X103507806Y-94620500D01*
X103592194Y-94620500D01*
X103592195Y-94620500D01*
X103673709Y-94598659D01*
X103746792Y-94556464D01*
X103806464Y-94496792D01*
X103848659Y-94423709D01*
X103870500Y-94342195D01*
X103870500Y-94257805D01*
X103863801Y-94232804D01*
X106104500Y-94232804D01*
X106104500Y-94317195D01*
X106111197Y-94342192D01*
X106111956Y-94345023D01*
X106126341Y-94398709D01*
X106126343Y-94398713D01*
X106140777Y-94423713D01*
X106168534Y-94471790D01*
X106168535Y-94471791D01*
X106168536Y-94471792D01*
X106228208Y-94531464D01*
X106301291Y-94573659D01*
X106382805Y-94595500D01*
X106382806Y-94595500D01*
X106467194Y-94595500D01*
X106467195Y-94595500D01*
X106548709Y-94573659D01*
X106621792Y-94531464D01*
X106681464Y-94471792D01*
X106723659Y-94398709D01*
X106745500Y-94317195D01*
X106745500Y-94232805D01*
X108779500Y-94232805D01*
X108779500Y-94317195D01*
X108780324Y-94320271D01*
X108780324Y-94320274D01*
X108786197Y-94342192D01*
X108786956Y-94345023D01*
X108801341Y-94398709D01*
X108801343Y-94398713D01*
X108815777Y-94423713D01*
X108843534Y-94471790D01*
X108843535Y-94471791D01*
X108843536Y-94471792D01*
X108903208Y-94531464D01*
X108976291Y-94573659D01*
X109057805Y-94595500D01*
X109057806Y-94595500D01*
X109142194Y-94595500D01*
X109142195Y-94595500D01*
X109223709Y-94573659D01*
X109296792Y-94531464D01*
X109356464Y-94471792D01*
X109398659Y-94398709D01*
X109420500Y-94317195D01*
X109420500Y-94232805D01*
X109398659Y-94151291D01*
X109356464Y-94078208D01*
X109296792Y-94018536D01*
X109296791Y-94018535D01*
X109296790Y-94018534D01*
X109229181Y-93979500D01*
X109223713Y-93976343D01*
X109223709Y-93976341D01*
X109218177Y-93974859D01*
X109201909Y-93970499D01*
X109201909Y-93970500D01*
X109142195Y-93954500D01*
X109142194Y-93954500D01*
X109057806Y-93954500D01*
X109057805Y-93954500D01*
X109023193Y-93963774D01*
X109023192Y-93963773D01*
X108976296Y-93976339D01*
X108976289Y-93976341D01*
X108903210Y-94018533D01*
X108843533Y-94078210D01*
X108828861Y-94103623D01*
X108801343Y-94151286D01*
X108801341Y-94151290D01*
X108801341Y-94151291D01*
X108779500Y-94232805D01*
X106745500Y-94232805D01*
X106723659Y-94151291D01*
X106681464Y-94078208D01*
X106621792Y-94018536D01*
X106621791Y-94018535D01*
X106621790Y-94018534D01*
X106554181Y-93979500D01*
X106548713Y-93976343D01*
X106548709Y-93976341D01*
X106543177Y-93974859D01*
X106526909Y-93970499D01*
X106526909Y-93970500D01*
X106467195Y-93954500D01*
X106467194Y-93954500D01*
X106382806Y-93954500D01*
X106382805Y-93954500D01*
X106348193Y-93963774D01*
X106348192Y-93963773D01*
X106301296Y-93976339D01*
X106301289Y-93976341D01*
X106228210Y-94018533D01*
X106168533Y-94078210D01*
X106160292Y-94092485D01*
X106126343Y-94151286D01*
X106126341Y-94151290D01*
X106126341Y-94151291D01*
X106126340Y-94151292D01*
X106126305Y-94151359D01*
X106126054Y-94152359D01*
X106104500Y-94232804D01*
X103863801Y-94232804D01*
X103848659Y-94176291D01*
X103834225Y-94151291D01*
X103828554Y-94141469D01*
X103807573Y-94105129D01*
X103806760Y-94103619D01*
X103806464Y-94103208D01*
X103746790Y-94043534D01*
X103703492Y-94018536D01*
X103673713Y-94001343D01*
X103673709Y-94001341D01*
X103673702Y-94001339D01*
X103639201Y-93992094D01*
X103639201Y-93992095D01*
X103592195Y-93979500D01*
X103592194Y-93979500D01*
X103507805Y-93979500D01*
X103467047Y-93990420D01*
X103467046Y-93990419D01*
X103426292Y-94001339D01*
X103353210Y-94043533D01*
X103293533Y-94103210D01*
X103271444Y-94141469D01*
X103252409Y-94163175D01*
X103243472Y-94170033D01*
X103188765Y-94184693D01*
X103188698Y-94184684D01*
X103187838Y-94184570D01*
X103145236Y-94163538D01*
X103142803Y-94161105D01*
X103131044Y-94145780D01*
X103107572Y-94105127D01*
X103106762Y-94103623D01*
X103106466Y-94103212D01*
X103106465Y-94103210D01*
X103106464Y-94103208D01*
X103046792Y-94043536D01*
X103046790Y-94043534D01*
X103003492Y-94018536D01*
X102973713Y-94001343D01*
X102973709Y-94001341D01*
X102973702Y-94001339D01*
X102939201Y-93992094D01*
X102939201Y-93992095D01*
X102892195Y-93979500D01*
X102892194Y-93979500D01*
X102807805Y-93979500D01*
X102767047Y-93990420D01*
X102767046Y-93990419D01*
X102726292Y-94001339D01*
X102653210Y-94043533D01*
X102593533Y-94103210D01*
X102551340Y-94176291D01*
X102549397Y-94183542D01*
X102549396Y-94183550D01*
X102548018Y-94188694D01*
X102529500Y-94257805D01*
X97059167Y-94257805D01*
X97115569Y-94225241D01*
X97175241Y-94165569D01*
X97217436Y-94092486D01*
X97239277Y-94010972D01*
X97239277Y-93926582D01*
X97217436Y-93845068D01*
X97204900Y-93823356D01*
X97204899Y-93823354D01*
X97176351Y-93773906D01*
X97175461Y-93772253D01*
X97175321Y-93772065D01*
X97115567Y-93712311D01*
X97090199Y-93697665D01*
X97042490Y-93670120D01*
X97042488Y-93670119D01*
X97042486Y-93670118D01*
X97042483Y-93670117D01*
X97042481Y-93670116D01*
X97039000Y-93668795D01*
X97039207Y-93668247D01*
X97017717Y-93657647D01*
X97008781Y-93650789D01*
X96980467Y-93601745D01*
X96979933Y-93597686D01*
X96991772Y-93546916D01*
X97050046Y-93459704D01*
X97123204Y-93283084D01*
X97126787Y-93265074D01*
X97145267Y-93172168D01*
X97160500Y-93095586D01*
X97160500Y-92904415D01*
X97759500Y-92904415D01*
X97759500Y-93095584D01*
X97774733Y-93172168D01*
X97796793Y-93283075D01*
X97796793Y-93283076D01*
X97796798Y-93283092D01*
X97869950Y-93459698D01*
X97869952Y-93459701D01*
X97869953Y-93459703D01*
X97928227Y-93546916D01*
X97948887Y-93577836D01*
X97976162Y-93618657D01*
X98111342Y-93753837D01*
X98270296Y-93860046D01*
X98437640Y-93929362D01*
X98446916Y-93933204D01*
X98634414Y-93970500D01*
X98634416Y-93970500D01*
X98825584Y-93970500D01*
X98825586Y-93970500D01*
X99013084Y-93933204D01*
X99189704Y-93860046D01*
X99348658Y-93753837D01*
X99483837Y-93618658D01*
X99590046Y-93459704D01*
X99663204Y-93283084D01*
X99666787Y-93265074D01*
X99685267Y-93172168D01*
X99700500Y-93095586D01*
X99700500Y-92904415D01*
X100299500Y-92904415D01*
X100299500Y-93095584D01*
X100314733Y-93172168D01*
X100336793Y-93283075D01*
X100336793Y-93283076D01*
X100336798Y-93283092D01*
X100409950Y-93459698D01*
X100409952Y-93459701D01*
X100409953Y-93459703D01*
X100468227Y-93546916D01*
X100488887Y-93577836D01*
X100516162Y-93618657D01*
X100651342Y-93753837D01*
X100810296Y-93860046D01*
X100977640Y-93929362D01*
X100986916Y-93933204D01*
X101174414Y-93970500D01*
X101174416Y-93970500D01*
X101365584Y-93970500D01*
X101365586Y-93970500D01*
X101553084Y-93933204D01*
X101729704Y-93860046D01*
X101888658Y-93753837D01*
X102023837Y-93618658D01*
X102130046Y-93459704D01*
X102193789Y-93305814D01*
X104999500Y-93305814D01*
X104999500Y-93444185D01*
X105035310Y-93577831D01*
X105035312Y-93577836D01*
X105104495Y-93697665D01*
X105202335Y-93795505D01*
X105322164Y-93864688D01*
X105451133Y-93899244D01*
X105454831Y-93900500D01*
X105594185Y-93900500D01*
X105604448Y-93900500D01*
X105613336Y-93895367D01*
X105727836Y-93864688D01*
X105847665Y-93795505D01*
X105945505Y-93697665D01*
X106014688Y-93577836D01*
X106045367Y-93463336D01*
X106050500Y-93454447D01*
X106050500Y-93304830D01*
X106049241Y-93301121D01*
X106044407Y-93283081D01*
X106039285Y-93263964D01*
X106014688Y-93172164D01*
X105945505Y-93052335D01*
X105847665Y-92954495D01*
X105727836Y-92885312D01*
X105727831Y-92885310D01*
X105594185Y-92849500D01*
X105594184Y-92849500D01*
X105455816Y-92849500D01*
X105455815Y-92849500D01*
X105322168Y-92885310D01*
X105322166Y-92885310D01*
X105322165Y-92885311D01*
X105202333Y-92954495D01*
X105104495Y-93052333D01*
X105035311Y-93172164D01*
X105035310Y-93172168D01*
X104999500Y-93305814D01*
X102193789Y-93305814D01*
X102203204Y-93283084D01*
X102240500Y-93095586D01*
X102240500Y-92904414D01*
X102203204Y-92716916D01*
X102190812Y-92687000D01*
X102152378Y-92594212D01*
X102130046Y-92540296D01*
X102023837Y-92381342D01*
X101888656Y-92246161D01*
X101729702Y-92139952D01*
X101564013Y-92071323D01*
X101564011Y-92071321D01*
X101564011Y-92071322D01*
X101553086Y-92066796D01*
X101553073Y-92066792D01*
X101553075Y-92066792D01*
X101427518Y-92041819D01*
X101427517Y-92041818D01*
X101377904Y-92031950D01*
X101365586Y-92029500D01*
X101365585Y-92029500D01*
X101174415Y-92029500D01*
X101174414Y-92029500D01*
X101157992Y-92032766D01*
X101141570Y-92036033D01*
X100986922Y-92066793D01*
X100986912Y-92066796D01*
X100986906Y-92066798D01*
X100810296Y-92139952D01*
X100651072Y-92246342D01*
X100649696Y-92247808D01*
X100517808Y-92379696D01*
X100516342Y-92381072D01*
X100409952Y-92540296D01*
X100336798Y-92716906D01*
X100336796Y-92716912D01*
X100336793Y-92716922D01*
X100306559Y-92868925D01*
X100299500Y-92904415D01*
X99700500Y-92904415D01*
X99700500Y-92904414D01*
X99663204Y-92716916D01*
X99650812Y-92687000D01*
X99612378Y-92594212D01*
X99590046Y-92540296D01*
X99483837Y-92381342D01*
X99348656Y-92246161D01*
X99189702Y-92139952D01*
X99013092Y-92066798D01*
X99013087Y-92066796D01*
X99013074Y-92066792D01*
X99013075Y-92066792D01*
X98887518Y-92041819D01*
X98887517Y-92041818D01*
X98837904Y-92031950D01*
X98825586Y-92029500D01*
X98825585Y-92029500D01*
X98634415Y-92029500D01*
X98634414Y-92029500D01*
X98617992Y-92032766D01*
X98601570Y-92036033D01*
X98446922Y-92066793D01*
X98446912Y-92066796D01*
X98446906Y-92066798D01*
X98270296Y-92139952D01*
X98111072Y-92246342D01*
X98109696Y-92247808D01*
X97977808Y-92379696D01*
X97976342Y-92381072D01*
X97869952Y-92540296D01*
X97796798Y-92716906D01*
X97796796Y-92716912D01*
X97796793Y-92716922D01*
X97766559Y-92868925D01*
X97759500Y-92904415D01*
X97160500Y-92904415D01*
X97160500Y-92904414D01*
X97123204Y-92716916D01*
X97110812Y-92687000D01*
X97072378Y-92594212D01*
X97050046Y-92540296D01*
X96943837Y-92381342D01*
X96808656Y-92246161D01*
X96649702Y-92139952D01*
X96473092Y-92066798D01*
X96473087Y-92066796D01*
X96473074Y-92066792D01*
X96473075Y-92066792D01*
X96347518Y-92041819D01*
X96347517Y-92041818D01*
X96297904Y-92031950D01*
X96285586Y-92029500D01*
X96285585Y-92029500D01*
X96094415Y-92029500D01*
X96094414Y-92029500D01*
X96077992Y-92032766D01*
X96061570Y-92036033D01*
X95906922Y-92066793D01*
X95906912Y-92066796D01*
X95906906Y-92066798D01*
X95730296Y-92139952D01*
X95571072Y-92246342D01*
X95569696Y-92247808D01*
X95437808Y-92379696D01*
X95436342Y-92381072D01*
X95329952Y-92540296D01*
X95256798Y-92716906D01*
X95256796Y-92716912D01*
X95256793Y-92716922D01*
X95226559Y-92868925D01*
X95219500Y-92904415D01*
X94200500Y-92904415D01*
X94200500Y-91789218D01*
X94206129Y-91760909D01*
X94210443Y-91750494D01*
X94250482Y-91710448D01*
X94260911Y-91706128D01*
X94289219Y-91700500D01*
X100272793Y-91700500D01*
X100272853Y-91700505D01*
X100280142Y-91700504D01*
X100280144Y-91700505D01*
X100320026Y-91700500D01*
X100359882Y-91700500D01*
X100373296Y-91700500D01*
X100375809Y-91700000D01*
X107180265Y-91700000D01*
X107232591Y-91721674D01*
G37*
%TD.AperFunction*%
%TD*%
M02*
