%TF.GenerationSoftware,KiCad,Pcbnew,10.0.0*%
%TF.CreationDate,2026-06-27T13:30:49+02:00*%
%TF.ProjectId,hardware_V11,68617264-7761-4726-955f-5631312e6b69,rev?*%
%TF.SameCoordinates,Original*%
%TF.FileFunction,Copper,L4,Inr*%
%TF.FilePolarity,Positive*%
%FSLAX46Y46*%
G04 Gerber Fmt 4.6, Leading zero omitted, Abs format (unit mm)*
G04 Created by KiCad (PCBNEW 10.0.0) date 2026-06-27 13:30:49*
%MOMM*%
%LPD*%
G01*
G04 APERTURE LIST*
%TA.AperFunction,ComponentPad*%
%ADD10R,1.700000X1.700000*%
%TD*%
%TA.AperFunction,ComponentPad*%
%ADD11C,1.700000*%
%TD*%
%TA.AperFunction,ComponentPad*%
%ADD12O,1.800000X1.000000*%
%TD*%
%TA.AperFunction,ComponentPad*%
%ADD13O,2.100000X1.000000*%
%TD*%
%TA.AperFunction,ViaPad*%
%ADD14C,0.400000*%
%TD*%
%TA.AperFunction,Conductor*%
%ADD15C,0.160000*%
%TD*%
%TA.AperFunction,Conductor*%
%ADD16C,0.400000*%
%TD*%
%TA.AperFunction,Conductor*%
%ADD17C,0.200000*%
%TD*%
G04 APERTURE END LIST*
D10*
%TO.N,GND*%
%TO.C,U4*%
X103810000Y-93000000D03*
D11*
%TO.N,3.3V_AUX*%
X101270000Y-93000000D03*
%TO.N,/OLED_SCL*%
X98730000Y-93000000D03*
%TO.N,/OLED_SDA*%
X96190000Y-93000000D03*
%TO.N,GND*%
X104500000Y-107000000D03*
%TO.N,Net-(U4-SUP_2)*%
X95500000Y-107000000D03*
%TD*%
D12*
%TO.N,GND*%
%TO.C,J3*%
X95225000Y-104320000D03*
D13*
X99405000Y-104320000D03*
D12*
X95225000Y-95680000D03*
D13*
X99405000Y-95680000D03*
%TD*%
D14*
%TO.N,GND*%
X96350000Y-97550000D03*
%TO.N,/ECRAN_SUP*%
X97000000Y-97550000D03*
X94700000Y-105350000D03*
%TO.N,GND*%
X102700000Y-98750000D03*
X103150000Y-95850000D03*
X104400000Y-94500000D03*
%TO.N,/SENSOR_SCL*%
X102850000Y-94300000D03*
%TO.N,/SENSOR_SDA*%
X103550000Y-94300000D03*
%TO.N,GND*%
X113104134Y-106730000D03*
%TO.N,3.3V_AUX*%
X114150000Y-107750000D03*
X112592500Y-107950000D03*
%TO.N,/USB_DET*%
X102800000Y-99350000D03*
%TO.N,3.3V_AUX*%
X106100000Y-99600000D03*
X111850000Y-104950000D03*
X106100000Y-98900000D03*
X112750000Y-104950000D03*
X96687500Y-96487500D03*
X114250000Y-100435000D03*
X113700000Y-92292500D03*
X96918777Y-93968777D03*
X114900000Y-100450000D03*
X108000000Y-92050000D03*
%TO.N,GND*%
X97650000Y-101500000D03*
X109850000Y-94300000D03*
X112100000Y-100000000D03*
X110150000Y-95470000D03*
X96300000Y-107940000D03*
X94750000Y-105950000D03*
X99050000Y-99000000D03*
X97250000Y-107715000D03*
X108500000Y-106150000D03*
X102000000Y-107400000D03*
X111100000Y-94300000D03*
X99700000Y-94750000D03*
X104440000Y-102350000D03*
X108560000Y-95590000D03*
X115350000Y-101950000D03*
X116140000Y-104700000D03*
X96850000Y-102550000D03*
X96260000Y-95500000D03*
X97250000Y-96000000D03*
X109700000Y-107900000D03*
X112550000Y-103250000D03*
X105950000Y-106290148D03*
X114125000Y-94675000D03*
X110950000Y-104370000D03*
X99000000Y-100600000D03*
X115500000Y-104900000D03*
X111750000Y-106600000D03*
X98190000Y-107715000D03*
X104350000Y-104850000D03*
X100600000Y-107450000D03*
X113300000Y-101200000D03*
X108700000Y-102230000D03*
X108330000Y-99520000D03*
X110100000Y-96550000D03*
X94500000Y-100800000D03*
X109460000Y-98810000D03*
X116000000Y-94370000D03*
X103200000Y-101400000D03*
X105700000Y-104900000D03*
X107120000Y-98800000D03*
X108700000Y-92250000D03*
X97570000Y-100690000D03*
X115200000Y-92325000D03*
X112948528Y-102048528D03*
X106970000Y-102250000D03*
X94510000Y-99600000D03*
X111900000Y-96550000D03*
X106870000Y-101050000D03*
X94600000Y-92000000D03*
X97500000Y-93200000D03*
X103540000Y-99130000D03*
X95340000Y-97500000D03*
X106950000Y-92350000D03*
X109700000Y-103250000D03*
X98500000Y-106050000D03*
X112440000Y-95780000D03*
X99970000Y-92000000D03*
X105350000Y-94300000D03*
X101350000Y-97850000D03*
X108600000Y-96550000D03*
X94700000Y-93300000D03*
X111251472Y-102048528D03*
X116200000Y-106400000D03*
X110900000Y-101200000D03*
X105400000Y-103560000D03*
X107640000Y-101060000D03*
X99700000Y-107140000D03*
X105800000Y-92325000D03*
X98570000Y-94830000D03*
X94570000Y-107920000D03*
X112100000Y-102400000D03*
X111251472Y-100351472D03*
X113050000Y-98750000D03*
X102500000Y-93850000D03*
X112948528Y-100351472D03*
X116150000Y-92000000D03*
X94500000Y-103050000D03*
X97650000Y-99000000D03*
X103450000Y-104000000D03*
X97400000Y-91950000D03*
X99860000Y-93570000D03*
X104390000Y-98730000D03*
%TO.N,+3.3V*%
X109100000Y-94275000D03*
X101050000Y-105600000D03*
X95470000Y-99600000D03*
X113000000Y-92285000D03*
X101695689Y-105753801D03*
X95950000Y-100050000D03*
X106425000Y-94275000D03*
%TO.N,BAT+*%
X113850000Y-96350000D03*
X102800000Y-107350000D03*
X106550000Y-108000000D03*
X110800000Y-108000000D03*
X106550048Y-107300000D03*
X99337500Y-106050000D03*
X110786119Y-107201003D03*
X99900000Y-106300000D03*
X102950000Y-106850000D03*
%TO.N,/B_PW*%
X96000000Y-101520000D03*
X113050000Y-92950000D03*
%TO.N,3.3V_GPS*%
X115150000Y-96950000D03*
X114750000Y-96050000D03*
X109400000Y-104750000D03*
X110050000Y-104750000D03*
%TO.N,/GPS_EN*%
X106550000Y-106608592D03*
X101400000Y-103600000D03*
%TO.N,Net-(J1-CLK)*%
X102350000Y-104250000D03*
X114903004Y-101530602D03*
%TO.N,/SPI_MOSI*%
X115050000Y-99335000D03*
X99000000Y-101300000D03*
%TO.N,Net-(LEDGREEN1-A)*%
X94542500Y-98050000D03*
X97850000Y-106020000D03*
%TO.N,/B1*%
X107300000Y-93007500D03*
X100750000Y-96200000D03*
%TO.N,/SPI_CS*%
X98350000Y-103250000D03*
X114250000Y-98235000D03*
%TO.N,/SPI_MISO*%
X115050000Y-103735000D03*
X99002339Y-101925842D03*
%TO.N,/SD_DET*%
X106710000Y-95820000D03*
X102125000Y-101950000D03*
%TO.N,Net-(PA1010D1-TX)*%
X107395273Y-104352727D03*
X97900000Y-104657500D03*
%TO.N,Net-(LEDBLUE1-A)*%
X97000000Y-106200000D03*
X94542500Y-98750000D03*
%TO.N,/AUX_EN*%
X101400000Y-102962889D03*
X110151981Y-106405000D03*
%TO.N,/SENSOR_SCL*%
X114700000Y-106910000D03*
X102400000Y-100850000D03*
%TO.N,/OLED_SCL*%
X98472125Y-97172888D03*
%TO.N,/SENSOR_SDA*%
X114700000Y-108070000D03*
%TO.N,/OLED_SDA*%
X97950002Y-97000000D03*
%TO.N,/SENSOR_SDA*%
X102350000Y-100050000D03*
%TO.N,Net-(PA1010D1-RX)*%
X97200000Y-104657500D03*
X107450000Y-104900000D03*
%TO.N,/D-*%
X102130908Y-99508613D03*
%TO.N,/D+*%
X102151406Y-98932341D03*
%TD*%
%TO.N,/B1*%
D15*
X105850000Y-94700000D02*
X103800000Y-96750000D01*
X105850000Y-94150000D02*
X105850000Y-94700000D01*
X107200000Y-93700000D02*
X106300000Y-93700000D01*
X106300000Y-93700000D02*
X105850000Y-94150000D01*
X107300000Y-93600000D02*
X107200000Y-93700000D01*
X107300000Y-93007500D02*
X107300000Y-93600000D01*
X103800000Y-96750000D02*
X101300000Y-96750000D01*
X101300000Y-96750000D02*
X100750000Y-96200000D01*
%TO.N,+3.3V*%
D16*
X99900000Y-97300000D02*
X104200000Y-97300000D01*
X98300000Y-98900000D02*
X99900000Y-97300000D01*
X98300000Y-99450000D02*
X98300000Y-98900000D01*
X97700000Y-100050000D02*
X98300000Y-99450000D01*
X104200000Y-97300000D02*
X106425000Y-95075000D01*
X95950000Y-100050000D02*
X97700000Y-100050000D01*
X106425000Y-95075000D02*
X106425000Y-94275000D01*
%TO.N,3.3V_AUX*%
D17*
X108250000Y-91800000D02*
X113207500Y-91800000D01*
X107800000Y-91850000D02*
X102420000Y-91850000D01*
X108000000Y-92050000D02*
X107800000Y-91850000D01*
X113207500Y-91800000D02*
X113700000Y-92292500D01*
X108000000Y-92050000D02*
X108250000Y-91800000D01*
X112755000Y-107955000D02*
X112700000Y-107900000D01*
X113975000Y-107955000D02*
X112755000Y-107955000D01*
X102420000Y-91850000D02*
X101270000Y-93000000D01*
%TO.N,+3.3V*%
X106450000Y-94250000D02*
X106425000Y-94275000D01*
X109615000Y-92285000D02*
X113000000Y-92285000D01*
X109100000Y-94275000D02*
X108950002Y-94275000D01*
X109000000Y-92900000D02*
X109615000Y-92285000D01*
X109000000Y-94225002D02*
X109000000Y-92900000D01*
X109100000Y-94275000D02*
X109049998Y-94275000D01*
X108925002Y-94250000D02*
X106450000Y-94250000D01*
X109049998Y-94275000D02*
X109000000Y-94225002D01*
X108950002Y-94275000D02*
X108925002Y-94250000D01*
%TO.N,BAT+*%
X106550000Y-108000000D02*
X107600000Y-108000000D01*
X108300000Y-100850000D02*
X112800000Y-96350000D01*
X108300000Y-101750000D02*
X108300000Y-100850000D01*
X112800000Y-96350000D02*
X113850000Y-96350000D01*
X108050000Y-102000000D02*
X108300000Y-101750000D01*
X110786119Y-107986119D02*
X110800000Y-108000000D01*
X107600000Y-108000000D02*
X108050000Y-107550000D01*
X108050000Y-107550000D02*
X108050000Y-102000000D01*
%TO.N,/B_PW*%
D15*
X105250000Y-98250000D02*
X108550000Y-94950000D01*
X98900000Y-100000000D02*
X99400000Y-100000000D01*
X99700000Y-101100000D02*
X101050000Y-102450000D01*
X103400000Y-102450000D02*
X105250000Y-100600000D01*
X96000000Y-101520000D02*
X96470000Y-101520000D01*
X96470000Y-101520000D02*
X96900000Y-101090000D01*
X111250000Y-94950000D02*
X112300000Y-93900000D01*
X97810000Y-101090000D02*
X98900000Y-100000000D01*
X112600000Y-92950000D02*
X113050000Y-92950000D01*
X96900000Y-101090000D02*
X97810000Y-101090000D01*
X105250000Y-100600000D02*
X105250000Y-98250000D01*
X108550000Y-94950000D02*
X111250000Y-94950000D01*
X101050000Y-102450000D02*
X103400000Y-102450000D01*
X112300000Y-93900000D02*
X112300000Y-93250000D01*
X99400000Y-100000000D02*
X99700000Y-100300000D01*
X112300000Y-93250000D02*
X112600000Y-92950000D01*
X99700000Y-100300000D02*
X99700000Y-101100000D01*
%TO.N,/SD_DET*%
X104790000Y-97760000D02*
X104790000Y-100520000D01*
X106710000Y-95840000D02*
X104790000Y-97760000D01*
X106710000Y-95820000D02*
X106710000Y-95840000D01*
X104790000Y-100520000D02*
X103360000Y-101950000D01*
X103360000Y-101950000D02*
X102125000Y-101950000D01*
%TO.N,/OLED_SCL*%
X98472125Y-96672125D02*
X98050000Y-96250000D01*
X98472125Y-97172888D02*
X98472125Y-96672125D01*
X98050000Y-96250000D02*
X98050000Y-93680000D01*
X98050000Y-93680000D02*
X98730000Y-93000000D01*
%TO.N,/OLED_SDA*%
X97950002Y-96700002D02*
X97650000Y-96400000D01*
X96600000Y-94600000D02*
X96190000Y-94190000D01*
X97150000Y-94600000D02*
X96600000Y-94600000D01*
X97950002Y-97000000D02*
X97950002Y-96700002D01*
X96190000Y-94190000D02*
X96190000Y-93000000D01*
X97650000Y-96400000D02*
X97650000Y-95100000D01*
X97650000Y-95100000D02*
X97150000Y-94600000D01*
%TD*%
%TA.AperFunction,Conductor*%
%TO.N,+3.3V*%
G36*
X96304188Y-99353756D02*
G01*
X96326309Y-99359328D01*
X96353557Y-99369729D01*
X96491223Y-99441839D01*
X96494962Y-99445451D01*
X97168840Y-99806342D01*
X97197425Y-99827420D01*
X97210101Y-99839937D01*
X97243026Y-99897128D01*
X97246052Y-99908831D01*
X97250000Y-99939872D01*
X97250000Y-100155534D01*
X97244976Y-100190471D01*
X97240238Y-100206606D01*
X97204099Y-100263940D01*
X97202896Y-100265020D01*
X97148551Y-100293431D01*
X97134781Y-100296682D01*
X97106289Y-100300000D01*
X96349998Y-100300000D01*
X95650000Y-100999998D01*
X95650000Y-101729875D01*
X95647088Y-101747817D01*
X95649999Y-101750000D01*
X95849999Y-101900000D01*
X95921854Y-101900781D01*
X98070884Y-101924159D01*
X98105763Y-101929562D01*
X98135970Y-101938790D01*
X98172832Y-101957211D01*
X98574098Y-102250000D01*
X100333477Y-102250000D01*
X100368408Y-102255021D01*
X100394489Y-102262679D01*
X100443928Y-102290790D01*
X101026811Y-102832040D01*
X101048990Y-102859486D01*
X101054823Y-102869287D01*
X101062055Y-102881439D01*
X101079500Y-102944857D01*
X101079500Y-103005083D01*
X101079501Y-103005091D01*
X101094117Y-103059643D01*
X101097518Y-103077463D01*
X101098483Y-103085799D01*
X101098440Y-103086070D01*
X101099065Y-103090819D01*
X101099176Y-103091774D01*
X101099095Y-103092243D01*
X101100000Y-103106045D01*
X101100000Y-103456845D01*
X101098939Y-103473031D01*
X101096836Y-103489004D01*
X101093672Y-103504910D01*
X101079500Y-103557801D01*
X101079500Y-103557803D01*
X101079500Y-103557805D01*
X101079500Y-103642195D01*
X101101341Y-103723709D01*
X101143536Y-103796792D01*
X101203208Y-103856464D01*
X101276291Y-103898659D01*
X101357805Y-103920500D01*
X101357808Y-103920500D01*
X101442193Y-103920500D01*
X101442195Y-103920500D01*
X101443849Y-103920056D01*
X101478886Y-103915867D01*
X101480056Y-103915894D01*
X101506662Y-103916527D01*
X101559164Y-103929582D01*
X101835509Y-104067754D01*
X101864505Y-104087868D01*
X101876819Y-104099322D01*
X101911939Y-104157279D01*
X101915573Y-104170512D01*
X101920000Y-104203349D01*
X101920000Y-105762643D01*
X101914976Y-105797582D01*
X101908775Y-105818698D01*
X101879605Y-105869263D01*
X101876206Y-105872833D01*
X101858473Y-105888232D01*
X101776842Y-105946539D01*
X101745500Y-105962756D01*
X101715699Y-105973120D01*
X101674968Y-105980000D01*
X100739831Y-105980000D01*
X100704893Y-105974976D01*
X100683044Y-105968560D01*
X100633524Y-105940374D01*
X100630900Y-105937933D01*
X100616158Y-105921543D01*
X100539023Y-105818698D01*
X100489207Y-105752277D01*
X100472265Y-105721316D01*
X100461499Y-105692530D01*
X100453643Y-105649671D01*
X100451401Y-105169868D01*
X100456170Y-105135231D01*
X100463528Y-105109479D01*
X100465632Y-105101007D01*
X100469203Y-105084147D01*
X100470714Y-105075548D01*
X100473088Y-105058596D01*
X100473997Y-105049920D01*
X100475196Y-105032723D01*
X100475500Y-105023994D01*
X100475500Y-104695501D01*
X100495185Y-104628462D01*
X100496401Y-104626606D01*
X100504878Y-104613920D01*
X100504878Y-104613919D01*
X100504880Y-104613917D01*
X100551654Y-104500993D01*
X100575500Y-104381114D01*
X100575500Y-104258886D01*
X100575500Y-104258883D01*
X100575500Y-104258880D01*
X100561128Y-104186636D01*
X100551655Y-104139013D01*
X100551654Y-104139007D01*
X100506753Y-104030606D01*
X100506307Y-104029466D01*
X100506274Y-104029091D01*
X100505563Y-104027104D01*
X100472600Y-103977773D01*
X100458770Y-103950146D01*
X100457731Y-103947202D01*
X100441825Y-103915443D01*
X100430257Y-103892344D01*
X100412864Y-103866327D01*
X100411676Y-103864957D01*
X100384687Y-103841582D01*
X100325947Y-103803845D01*
X100325944Y-103803843D01*
X100325939Y-103803840D01*
X100325935Y-103803838D01*
X100325928Y-103803834D01*
X100293461Y-103789010D01*
X100293462Y-103789010D01*
X100282624Y-103785828D01*
X100260892Y-103777146D01*
X100254581Y-103773903D01*
X100248920Y-103770121D01*
X100248917Y-103770120D01*
X100232962Y-103763511D01*
X100135998Y-103723347D01*
X100135984Y-103723343D01*
X100125636Y-103721285D01*
X100089570Y-103714111D01*
X100089489Y-103714095D01*
X100089486Y-103714094D01*
X100089364Y-103714052D01*
X100089361Y-103714069D01*
X100089006Y-103713998D01*
X100088372Y-103713712D01*
X100058226Y-103703387D01*
X100058224Y-103703386D01*
X100057177Y-103702412D01*
X100050000Y-103700000D01*
X100049999Y-103700000D01*
X100027282Y-103700000D01*
X100017104Y-103699500D01*
X100016114Y-103699500D01*
X98793886Y-103699500D01*
X98793884Y-103699500D01*
X98793881Y-103699500D01*
X98674019Y-103723341D01*
X98674009Y-103723344D01*
X98646079Y-103734913D01*
X98646062Y-103734920D01*
X98642190Y-103736523D01*
X98592921Y-103741810D01*
X98579194Y-103743284D01*
X98548429Y-103778574D01*
X98543716Y-103781724D01*
X98543676Y-103781748D01*
X98459452Y-103838026D01*
X98459437Y-103838040D01*
X98379817Y-103917661D01*
X98362337Y-103932195D01*
X98343838Y-103944900D01*
X98323998Y-103955997D01*
X97585936Y-104284027D01*
X97561317Y-104292014D01*
X97548865Y-104294656D01*
X97536412Y-104297299D01*
X97510672Y-104300000D01*
X96852570Y-104300000D01*
X96818638Y-104295267D01*
X96786638Y-104286163D01*
X96755303Y-104272329D01*
X96616874Y-104186636D01*
X96616873Y-104186636D01*
X96122582Y-103880645D01*
X96113023Y-103874090D01*
X95232572Y-103207803D01*
X98029500Y-103207803D01*
X98029500Y-103292200D01*
X98033322Y-103306463D01*
X98033323Y-103306463D01*
X98033323Y-103306464D01*
X98051341Y-103373709D01*
X98093536Y-103446792D01*
X98153208Y-103506464D01*
X98226291Y-103548659D01*
X98307805Y-103570500D01*
X98307808Y-103570500D01*
X98392191Y-103570500D01*
X98392192Y-103570500D01*
X98392195Y-103570500D01*
X98447453Y-103555694D01*
X98495130Y-103556829D01*
X98495919Y-103555694D01*
X98516967Y-103525389D01*
X98532755Y-103514568D01*
X98546792Y-103506464D01*
X98606464Y-103446792D01*
X98648659Y-103373709D01*
X98670500Y-103292195D01*
X98670500Y-103207805D01*
X98648659Y-103126291D01*
X98606464Y-103053208D01*
X98546792Y-102993536D01*
X98473709Y-102951341D01*
X98392196Y-102929500D01*
X98392195Y-102929500D01*
X98307803Y-102929500D01*
X98226292Y-102951340D01*
X98226290Y-102951340D01*
X98226290Y-102951341D01*
X98153208Y-102993536D01*
X98153203Y-102993539D01*
X98153199Y-102993542D01*
X98093542Y-103053199D01*
X98093539Y-103053203D01*
X98051340Y-103126292D01*
X98029500Y-103207803D01*
X95232572Y-103207803D01*
X94924673Y-102974798D01*
X94883094Y-102918647D01*
X94875500Y-102875920D01*
X94875500Y-102507803D01*
X96529500Y-102507803D01*
X96529500Y-102507805D01*
X96529500Y-102592195D01*
X96551341Y-102673709D01*
X96593536Y-102746792D01*
X96653208Y-102806464D01*
X96726291Y-102848659D01*
X96807805Y-102870500D01*
X96807808Y-102870500D01*
X96892192Y-102870500D01*
X96892195Y-102870500D01*
X96973709Y-102848659D01*
X97046792Y-102806464D01*
X97106464Y-102746792D01*
X97148659Y-102673709D01*
X97170500Y-102592195D01*
X97170500Y-102507805D01*
X97148659Y-102426291D01*
X97106464Y-102353208D01*
X97046792Y-102293536D01*
X96980085Y-102255022D01*
X96973710Y-102251341D01*
X96964380Y-102248841D01*
X96955052Y-102246342D01*
X96955051Y-102246341D01*
X96909037Y-102234012D01*
X96892196Y-102229500D01*
X96892195Y-102229500D01*
X96807803Y-102229500D01*
X96726292Y-102251340D01*
X96726290Y-102251340D01*
X96726290Y-102251341D01*
X96706654Y-102262678D01*
X96653203Y-102293539D01*
X96653199Y-102293542D01*
X96593542Y-102353199D01*
X96593539Y-102353203D01*
X96593538Y-102353205D01*
X96593536Y-102353208D01*
X96551341Y-102426290D01*
X96529500Y-102507803D01*
X94875500Y-102507803D01*
X94875500Y-99903164D01*
X94895185Y-99836125D01*
X94906172Y-99821518D01*
X95269966Y-99405754D01*
X95296742Y-99382779D01*
X95317846Y-99369360D01*
X95384379Y-99350000D01*
X96273900Y-99350000D01*
X96304188Y-99353756D01*
G37*
%TD.AperFunction*%
%TD*%
%TA.AperFunction,Conductor*%
%TO.N,3.3V_AUX*%
G36*
X115143099Y-100195185D02*
G01*
X115188854Y-100247989D01*
X115200060Y-100299470D01*
X115200184Y-100805237D01*
X115195169Y-100840175D01*
X115190457Y-100856236D01*
X115154232Y-100913669D01*
X115143919Y-100922912D01*
X115116380Y-100941596D01*
X114546745Y-101224915D01*
X114546742Y-101224919D01*
X114546741Y-101224922D01*
X114557290Y-101818150D01*
X114557292Y-101818159D01*
X114557294Y-101818164D01*
X114681445Y-102074229D01*
X114690721Y-102100567D01*
X114696854Y-102127276D01*
X114700000Y-102155026D01*
X114700000Y-104099047D01*
X114698309Y-104119453D01*
X114694975Y-104139436D01*
X114689953Y-104159276D01*
X114350000Y-105149994D01*
X114350000Y-108157670D01*
X114344975Y-108192614D01*
X114340570Y-108207612D01*
X114302827Y-108266355D01*
X114301458Y-108267542D01*
X114246597Y-108295018D01*
X114239039Y-108296663D01*
X114212668Y-108299500D01*
X112600526Y-108299500D01*
X112565591Y-108294477D01*
X112545491Y-108288575D01*
X112493480Y-108258008D01*
X112488647Y-108253255D01*
X112472419Y-108233628D01*
X112080715Y-107646072D01*
X112065516Y-107614221D01*
X112055625Y-107582514D01*
X112050000Y-107545590D01*
X112050000Y-106849213D01*
X112055100Y-106814017D01*
X112057680Y-106805298D01*
X112059581Y-106801377D01*
X112066219Y-106784749D01*
X112093115Y-106700325D01*
X112096287Y-106687803D01*
X112783634Y-106687803D01*
X112783634Y-106772196D01*
X112805475Y-106853709D01*
X112847670Y-106926792D01*
X112907342Y-106986464D01*
X112980425Y-107028659D01*
X113061939Y-107050500D01*
X113061942Y-107050500D01*
X113146326Y-107050500D01*
X113146329Y-107050500D01*
X113227843Y-107028659D01*
X113300926Y-106986464D01*
X113360598Y-106926792D01*
X113402793Y-106853709D01*
X113424634Y-106772195D01*
X113424634Y-106687805D01*
X113402793Y-106606291D01*
X113360598Y-106533208D01*
X113300926Y-106473536D01*
X113227843Y-106431341D01*
X113146330Y-106409500D01*
X113146329Y-106409500D01*
X113061937Y-106409500D01*
X112980426Y-106431340D01*
X112980424Y-106431340D01*
X112980424Y-106431341D01*
X112911731Y-106471002D01*
X112907337Y-106473539D01*
X112907333Y-106473542D01*
X112847676Y-106533199D01*
X112847673Y-106533203D01*
X112805474Y-106606292D01*
X112796085Y-106641335D01*
X112783634Y-106687803D01*
X112096287Y-106687803D01*
X112096832Y-106685652D01*
X112102404Y-106656322D01*
X112104327Y-106641310D01*
X112105050Y-106630546D01*
X112102920Y-106597648D01*
X112090319Y-106534308D01*
X112079695Y-106503099D01*
X112071443Y-106486436D01*
X112062374Y-106471000D01*
X112042370Y-106441923D01*
X112042360Y-106441911D01*
X112042357Y-106441906D01*
X112031205Y-106427945D01*
X112031198Y-106427938D01*
X112031193Y-106427931D01*
X111658384Y-106024054D01*
X111627377Y-105961441D01*
X111625500Y-105939947D01*
X111625500Y-104803344D01*
X111645185Y-104736305D01*
X111661819Y-104715663D01*
X111665663Y-104711819D01*
X111726986Y-104678334D01*
X111753344Y-104675500D01*
X112548799Y-104675500D01*
X112548800Y-104675500D01*
X112548815Y-104675499D01*
X112565694Y-104674357D01*
X112565699Y-104674356D01*
X112565707Y-104674356D01*
X112598805Y-104669856D01*
X112598807Y-104669855D01*
X112598811Y-104669855D01*
X112615381Y-104666450D01*
X112615383Y-104666449D01*
X112615400Y-104666446D01*
X112646710Y-104657773D01*
X112662694Y-104652159D01*
X112693388Y-104638989D01*
X112708471Y-104631272D01*
X112842103Y-104551093D01*
X112854006Y-104542988D01*
X112876532Y-104525677D01*
X112876532Y-104525676D01*
X112876541Y-104525670D01*
X112887424Y-104516266D01*
X112887427Y-104516263D01*
X112887653Y-104516043D01*
X112894232Y-104509664D01*
X112914299Y-104484438D01*
X112946952Y-104430359D01*
X112959932Y-104400852D01*
X112965391Y-104382263D01*
X112969198Y-104364763D01*
X112974222Y-104329824D01*
X112975500Y-104311962D01*
X112975500Y-102781243D01*
X112995185Y-102714204D01*
X113029247Y-102679064D01*
X113607166Y-102281745D01*
X113617070Y-102274186D01*
X113635854Y-102258313D01*
X113644962Y-102249807D01*
X113649110Y-102245528D01*
X113667425Y-102221374D01*
X113697367Y-102170004D01*
X113709356Y-102142167D01*
X113715391Y-102121616D01*
X113719198Y-102104118D01*
X113724222Y-102069180D01*
X113725500Y-102051317D01*
X113725500Y-100299500D01*
X113745185Y-100232461D01*
X113797989Y-100186706D01*
X113849500Y-100175500D01*
X115076060Y-100175500D01*
X115143099Y-100195185D01*
G37*
%TD.AperFunction*%
%TD*%
%TA.AperFunction,Conductor*%
%TO.N,GND*%
G36*
X100193106Y-91705523D02*
G01*
X100208104Y-91709927D01*
X100266855Y-91747672D01*
X100268042Y-91749041D01*
X100287907Y-91792504D01*
X100291363Y-91791408D01*
X100294195Y-91800335D01*
X100295582Y-91809294D01*
X100297087Y-91812587D01*
X100296608Y-91815923D01*
X100300000Y-91837831D01*
X100300000Y-92893246D01*
X100299500Y-92903424D01*
X100299500Y-93096585D01*
X100300000Y-93106753D01*
X100300000Y-93550000D01*
X100799998Y-94000000D01*
X100799999Y-94000000D01*
X100800000Y-94000000D01*
X102049999Y-94000000D01*
X102050000Y-94000000D01*
X102611516Y-92175069D01*
X102626589Y-92143162D01*
X102628710Y-92139953D01*
X102635209Y-92130122D01*
X102688591Y-92085054D01*
X102697681Y-92081044D01*
X102747720Y-92070500D01*
X107551308Y-92070500D01*
X107586243Y-92075522D01*
X107603875Y-92080700D01*
X107608374Y-92082021D01*
X107667151Y-92119797D01*
X107680821Y-92138993D01*
X107717682Y-92202832D01*
X107720776Y-92207372D01*
X107734474Y-92231096D01*
X107743536Y-92246792D01*
X107803208Y-92306464D01*
X107876291Y-92348659D01*
X107957805Y-92370500D01*
X107957808Y-92370500D01*
X108042192Y-92370500D01*
X108042195Y-92370500D01*
X108123709Y-92348659D01*
X108196792Y-92306464D01*
X108256464Y-92246792D01*
X108298659Y-92173709D01*
X108298659Y-92173708D01*
X108301864Y-92168157D01*
X108305098Y-92159669D01*
X108307752Y-92154399D01*
X108312152Y-92146410D01*
X108342407Y-92095985D01*
X108364682Y-92068620D01*
X108378934Y-92055482D01*
X108434765Y-92025908D01*
X108443997Y-92023750D01*
X108472203Y-92020500D01*
X108951308Y-92020500D01*
X108986240Y-92025521D01*
X109011484Y-92032934D01*
X109064230Y-92064230D01*
X109101073Y-92101073D01*
X109122223Y-92129325D01*
X109134831Y-92152414D01*
X109150000Y-92211843D01*
X109150000Y-92368973D01*
X109144976Y-92403910D01*
X109137564Y-92429151D01*
X109106269Y-92481895D01*
X108887092Y-92701073D01*
X108858841Y-92722222D01*
X108835753Y-92734830D01*
X108776323Y-92750000D01*
X107544549Y-92750000D01*
X107512454Y-92745774D01*
X107481991Y-92737611D01*
X107452086Y-92725224D01*
X107423712Y-92708842D01*
X107423710Y-92708841D01*
X107342196Y-92687000D01*
X107342195Y-92687000D01*
X107257805Y-92687000D01*
X107257803Y-92687000D01*
X107199912Y-92702511D01*
X107199905Y-92702513D01*
X107176291Y-92708841D01*
X107176289Y-92708841D01*
X107176289Y-92708842D01*
X107155117Y-92721065D01*
X107155112Y-92721068D01*
X107147917Y-92725223D01*
X107118013Y-92737610D01*
X107087548Y-92745774D01*
X107055451Y-92750000D01*
X105300000Y-92750000D01*
X105000000Y-93000000D01*
X105000000Y-93303950D01*
X104999500Y-93305817D01*
X104999500Y-93444183D01*
X105000000Y-93446049D01*
X105000000Y-93700000D01*
X105368315Y-93934382D01*
X105477532Y-94003884D01*
X105504306Y-94026875D01*
X105517631Y-94042114D01*
X105545390Y-94097104D01*
X105547106Y-94104907D01*
X105550000Y-94131540D01*
X105550000Y-94528593D01*
X105544977Y-94563529D01*
X105537742Y-94588168D01*
X105503750Y-94643529D01*
X103951915Y-96104078D01*
X103923037Y-96124361D01*
X103898955Y-96136580D01*
X103842848Y-96150000D01*
X101179874Y-96150000D01*
X101144933Y-96144975D01*
X101129934Y-96140570D01*
X101071166Y-96102802D01*
X101057344Y-96086852D01*
X101043671Y-96067653D01*
X101006464Y-96003208D01*
X100946792Y-95943536D01*
X100873709Y-95901341D01*
X100792196Y-95879500D01*
X100792195Y-95879500D01*
X100707803Y-95879500D01*
X100626292Y-95901340D01*
X100553203Y-95943539D01*
X100553199Y-95943542D01*
X100493542Y-96003199D01*
X100493539Y-96003203D01*
X100451340Y-96076292D01*
X100429500Y-96157803D01*
X100429500Y-96242195D01*
X100442498Y-96290708D01*
X100449530Y-96316950D01*
X100451341Y-96323709D01*
X100475101Y-96364863D01*
X100477091Y-96368982D01*
X100477507Y-96371495D01*
X100506308Y-96424239D01*
X100521449Y-96486268D01*
X100521237Y-96496367D01*
X100517220Y-96525176D01*
X100489183Y-96632245D01*
X100435475Y-96837350D01*
X100427013Y-96869664D01*
X100413305Y-96902186D01*
X100405246Y-96915579D01*
X100353815Y-96962872D01*
X100353814Y-96962872D01*
X100345994Y-96966726D01*
X100291178Y-96979500D01*
X99951758Y-96979500D01*
X99951695Y-96979499D01*
X99949791Y-96979499D01*
X99942195Y-96979499D01*
X99857806Y-96979499D01*
X99857804Y-96979499D01*
X99857803Y-96979499D01*
X99769520Y-97003152D01*
X99755797Y-97013172D01*
X99703211Y-97043534D01*
X99703206Y-97043536D01*
X99703203Y-97043539D01*
X99703199Y-97043542D01*
X98043542Y-98703199D01*
X98043539Y-98703203D01*
X98001340Y-98776292D01*
X97979500Y-98857803D01*
X97979500Y-99248053D01*
X97974476Y-99282990D01*
X97967064Y-99308231D01*
X97935769Y-99360975D01*
X97616171Y-99680573D01*
X97587920Y-99701722D01*
X97564832Y-99714330D01*
X97505402Y-99729500D01*
X97356406Y-99729500D01*
X97326777Y-99725908D01*
X97298428Y-99718932D01*
X97270520Y-99708367D01*
X96300002Y-99200000D01*
X96300001Y-99200000D01*
X96300000Y-99200000D01*
X95200000Y-99200000D01*
X94750000Y-99699998D01*
X94750000Y-99699999D01*
X94750000Y-103000000D01*
X96003429Y-103948541D01*
X96547253Y-104360083D01*
X96572075Y-104385164D01*
X96588331Y-104407117D01*
X96610676Y-104458724D01*
X96699999Y-104949999D01*
X96700000Y-104950000D01*
X97028853Y-104950000D01*
X97045027Y-104951059D01*
X97061027Y-104953165D01*
X97076914Y-104956326D01*
X97116752Y-104967000D01*
X97157805Y-104978000D01*
X97157808Y-104978000D01*
X97242192Y-104978000D01*
X97242194Y-104978000D01*
X97242195Y-104978000D01*
X97293297Y-104964307D01*
X97323094Y-104956323D01*
X97338988Y-104953164D01*
X97354964Y-104951061D01*
X97371147Y-104950000D01*
X97728853Y-104950000D01*
X97745027Y-104951059D01*
X97761027Y-104953165D01*
X97776914Y-104956326D01*
X97816752Y-104967000D01*
X97857805Y-104978000D01*
X97857808Y-104978000D01*
X97942192Y-104978000D01*
X97942194Y-104978000D01*
X97942195Y-104978000D01*
X97993297Y-104964307D01*
X98023094Y-104956323D01*
X98038988Y-104953164D01*
X98054964Y-104951061D01*
X98071147Y-104950000D01*
X98199999Y-104950000D01*
X98200000Y-104950000D01*
X98516101Y-104001694D01*
X98531905Y-103970155D01*
X98540833Y-103957309D01*
X98595249Y-103913497D01*
X98605130Y-103909410D01*
X98652514Y-103900000D01*
X100208170Y-103900000D01*
X100243106Y-103905023D01*
X100258104Y-103909427D01*
X100316855Y-103947172D01*
X100318042Y-103948541D01*
X100345518Y-104003402D01*
X100347163Y-104010960D01*
X100350000Y-104037331D01*
X100350000Y-105023994D01*
X100348801Y-105041191D01*
X100347755Y-105048660D01*
X100346427Y-105058143D01*
X100342856Y-105075003D01*
X100337561Y-105093539D01*
X100332463Y-105111382D01*
X100332462Y-105111384D01*
X100299632Y-105226289D01*
X100299631Y-105226291D01*
X100280592Y-105292924D01*
X100266169Y-105325129D01*
X100257814Y-105338342D01*
X100205346Y-105384483D01*
X100196904Y-105388413D01*
X100144568Y-105400000D01*
X98900000Y-105400000D01*
X98900000Y-106650000D01*
X99598799Y-106650000D01*
X99631896Y-106654499D01*
X99655921Y-106661153D01*
X99663205Y-106663170D01*
X99693899Y-106676339D01*
X100400000Y-107100000D01*
X102155521Y-107100000D01*
X102190449Y-107105020D01*
X102206586Y-107109759D01*
X102263924Y-107145899D01*
X102273099Y-107156120D01*
X102291741Y-107183512D01*
X102549999Y-107700214D01*
X102550000Y-107700215D01*
X103350000Y-107702123D01*
X103700000Y-106850000D01*
X103784865Y-106552969D01*
X103799289Y-106520765D01*
X103817168Y-106492492D01*
X103841267Y-106464627D01*
X104060796Y-106276461D01*
X104101638Y-106241453D01*
X104131434Y-106222531D01*
X104157207Y-106210929D01*
X104208107Y-106200000D01*
X104820170Y-106200000D01*
X104855104Y-106205023D01*
X104876952Y-106211438D01*
X104926475Y-106239624D01*
X104929098Y-106242064D01*
X104943841Y-106258455D01*
X105489944Y-106986592D01*
X105496227Y-106995805D01*
X105502067Y-107005255D01*
X105507493Y-107014987D01*
X105584281Y-107168561D01*
X105591758Y-107183514D01*
X105641539Y-107283076D01*
X105641540Y-107283078D01*
X105641545Y-107283088D01*
X105641556Y-107283110D01*
X105729853Y-107459704D01*
X105809330Y-107618658D01*
X105809331Y-107618660D01*
X105966603Y-107933205D01*
X106060273Y-108120546D01*
X106072647Y-108189311D01*
X106045880Y-108253850D01*
X105988470Y-108293672D01*
X105949364Y-108300000D01*
X105650000Y-108300000D01*
X105186668Y-108300000D01*
X104650000Y-108300000D01*
X100374610Y-108300000D01*
X100369535Y-108299500D01*
X100359883Y-108299500D01*
X100359882Y-108299500D01*
X94342330Y-108299500D01*
X94307389Y-108294475D01*
X94292390Y-108290070D01*
X94233644Y-108252327D01*
X94232457Y-108250958D01*
X94204977Y-108196083D01*
X94203332Y-108188521D01*
X94200500Y-108162168D01*
X94200500Y-107069139D01*
X94524237Y-107069139D01*
X94566792Y-107283071D01*
X94566793Y-107283075D01*
X94566794Y-107283078D01*
X94566797Y-107283088D01*
X94566800Y-107283096D01*
X94566805Y-107283110D01*
X94639947Y-107459692D01*
X94639953Y-107459703D01*
X94746165Y-107618662D01*
X94881336Y-107753833D01*
X94881339Y-107753835D01*
X95040299Y-107860048D01*
X95216911Y-107933202D01*
X95216916Y-107933204D01*
X95216920Y-107933204D01*
X95216921Y-107933205D01*
X95217186Y-107933257D01*
X95217187Y-107933258D01*
X95217221Y-107933265D01*
X95404408Y-107970500D01*
X95595588Y-107970500D01*
X95595589Y-107970500D01*
X95658658Y-107957954D01*
X95721729Y-107945408D01*
X95783084Y-107933204D01*
X95920485Y-107876291D01*
X95959700Y-107860048D01*
X95959701Y-107860047D01*
X95959704Y-107860046D01*
X96118658Y-107753837D01*
X96253837Y-107618658D01*
X96360046Y-107459704D01*
X96433204Y-107283084D01*
X96459943Y-107148659D01*
X96470500Y-107095588D01*
X96470500Y-106904411D01*
X96470500Y-106904408D01*
X96432965Y-106715714D01*
X96430879Y-106711303D01*
X96410235Y-106661463D01*
X96360051Y-106540306D01*
X96360050Y-106540305D01*
X96360048Y-106540299D01*
X96253835Y-106381339D01*
X96118667Y-106246171D01*
X96118653Y-106246159D01*
X95986418Y-106157803D01*
X96679500Y-106157803D01*
X96679500Y-106242200D01*
X96684606Y-106261255D01*
X96684607Y-106261255D01*
X96684607Y-106261256D01*
X96701341Y-106323709D01*
X96743536Y-106396792D01*
X96803208Y-106456464D01*
X96876291Y-106498659D01*
X96957805Y-106520500D01*
X96957808Y-106520500D01*
X97042192Y-106520500D01*
X97042195Y-106520500D01*
X97123709Y-106498659D01*
X97196792Y-106456464D01*
X97256464Y-106396792D01*
X97298659Y-106323709D01*
X97320500Y-106242195D01*
X97320500Y-106157805D01*
X97298659Y-106076291D01*
X97287963Y-106057766D01*
X97287963Y-106057763D01*
X97256468Y-106003214D01*
X97256466Y-106003210D01*
X97231059Y-105977803D01*
X97529500Y-105977803D01*
X97529500Y-105977805D01*
X97529500Y-106062195D01*
X97551341Y-106143709D01*
X97593536Y-106216792D01*
X97653208Y-106276464D01*
X97726291Y-106318659D01*
X97807805Y-106340500D01*
X97807808Y-106340500D01*
X97892192Y-106340500D01*
X97892195Y-106340500D01*
X97973709Y-106318659D01*
X98046792Y-106276464D01*
X98106464Y-106216792D01*
X98148659Y-106143709D01*
X98170500Y-106062195D01*
X98170500Y-105977805D01*
X98148659Y-105896291D01*
X98106464Y-105823208D01*
X98046792Y-105763536D01*
X97973709Y-105721341D01*
X97892196Y-105699500D01*
X97892195Y-105699500D01*
X97807803Y-105699500D01*
X97726292Y-105721340D01*
X97653203Y-105763539D01*
X97653199Y-105763542D01*
X97593542Y-105823199D01*
X97593539Y-105823203D01*
X97551340Y-105896292D01*
X97538681Y-105943538D01*
X97529500Y-105977803D01*
X97231059Y-105977803D01*
X97196794Y-105943538D01*
X97196792Y-105943536D01*
X97160250Y-105922438D01*
X97123710Y-105901341D01*
X97114283Y-105898815D01*
X97104858Y-105896290D01*
X97104857Y-105896289D01*
X97058985Y-105883998D01*
X97042196Y-105879500D01*
X97042195Y-105879500D01*
X96957803Y-105879500D01*
X96876292Y-105901340D01*
X96803203Y-105943539D01*
X96803199Y-105943542D01*
X96743542Y-106003199D01*
X96743539Y-106003203D01*
X96743538Y-106003205D01*
X96743536Y-106003208D01*
X96709479Y-106062196D01*
X96701340Y-106076292D01*
X96679500Y-106157803D01*
X95986418Y-106157803D01*
X95959705Y-106139954D01*
X95959702Y-106139952D01*
X95959700Y-106139951D01*
X95959697Y-106139949D01*
X95959692Y-106139947D01*
X95783110Y-106066805D01*
X95783096Y-106066800D01*
X95783088Y-106066797D01*
X95783078Y-106066794D01*
X95783075Y-106066793D01*
X95783071Y-106066792D01*
X95595591Y-106029500D01*
X95595588Y-106029500D01*
X95595586Y-106029500D01*
X95404414Y-106029500D01*
X95404412Y-106029500D01*
X95404408Y-106029500D01*
X95216927Y-106066792D01*
X95216921Y-106066794D01*
X95216911Y-106066797D01*
X95216906Y-106066798D01*
X95216888Y-106066805D01*
X95040306Y-106139947D01*
X95040295Y-106139953D01*
X94881336Y-106246165D01*
X94746165Y-106381336D01*
X94639953Y-106540295D01*
X94639947Y-106540306D01*
X94566805Y-106716888D01*
X94566792Y-106716927D01*
X94529500Y-106904407D01*
X94529500Y-107051219D01*
X94524237Y-107069139D01*
X94200500Y-107069139D01*
X94200500Y-105606444D01*
X94210186Y-105570616D01*
X94211493Y-105552287D01*
X94217207Y-105544649D01*
X94217394Y-105543959D01*
X94222567Y-105535092D01*
X94223814Y-105535819D01*
X94253351Y-105496343D01*
X94318809Y-105471909D01*
X94379132Y-105482767D01*
X94379695Y-105483024D01*
X94423863Y-105516897D01*
X94425293Y-105518629D01*
X94437056Y-105535571D01*
X94443534Y-105546790D01*
X94443535Y-105546791D01*
X94443536Y-105546792D01*
X94503208Y-105606464D01*
X94576291Y-105648659D01*
X94657805Y-105670500D01*
X94657808Y-105670500D01*
X94742192Y-105670500D01*
X94742195Y-105670500D01*
X94823709Y-105648659D01*
X94896792Y-105606464D01*
X94956464Y-105546792D01*
X94998659Y-105473709D01*
X95020500Y-105392195D01*
X95020500Y-105307805D01*
X94998659Y-105226291D01*
X94956464Y-105153208D01*
X94896792Y-105093536D01*
X94823709Y-105051341D01*
X94823707Y-105051340D01*
X94823705Y-105051339D01*
X94813703Y-105048660D01*
X94813699Y-105048657D01*
X94813699Y-105048659D01*
X94742196Y-105029500D01*
X94742195Y-105029500D01*
X94657803Y-105029500D01*
X94576292Y-105051340D01*
X94503203Y-105093539D01*
X94503199Y-105093542D01*
X94443542Y-105153199D01*
X94443537Y-105153206D01*
X94443535Y-105153208D01*
X94440787Y-105157967D01*
X94414519Y-105184104D01*
X94404228Y-105199327D01*
X94395429Y-105203100D01*
X94394901Y-105203626D01*
X94385989Y-105208715D01*
X94385270Y-105207456D01*
X94340014Y-105226864D01*
X94271106Y-105215314D01*
X94224177Y-105175613D01*
X94223820Y-105175111D01*
X94202588Y-105123803D01*
X94202216Y-105121590D01*
X94200500Y-105101034D01*
X94200500Y-99267636D01*
X94205523Y-99232700D01*
X94209927Y-99217702D01*
X94247694Y-99158932D01*
X94251001Y-99156066D01*
X94301138Y-99129729D01*
X94304295Y-99128912D01*
X94325689Y-99125336D01*
X94650000Y-99100000D01*
X94690594Y-99049256D01*
X94706595Y-99032683D01*
X94723872Y-99017838D01*
X94732877Y-99011456D01*
X94732843Y-99011411D01*
X94739281Y-99006469D01*
X94739292Y-99006464D01*
X94798964Y-98946792D01*
X94841159Y-98873709D01*
X94846259Y-98854674D01*
X94850000Y-98850000D01*
X94850000Y-98840713D01*
X94863000Y-98792195D01*
X94863000Y-98707805D01*
X94861768Y-98703208D01*
X94856326Y-98682895D01*
X94856326Y-98682894D01*
X94853164Y-98667001D01*
X94851059Y-98651012D01*
X94850000Y-98634835D01*
X94850000Y-98157037D01*
X94854225Y-98124945D01*
X94855221Y-98121226D01*
X94863000Y-98092195D01*
X94863000Y-98007805D01*
X94850000Y-97959286D01*
X94850000Y-97900001D01*
X94850000Y-97900000D01*
X94840780Y-97894468D01*
X94811493Y-97864681D01*
X94811493Y-97864680D01*
X94782827Y-97835525D01*
X94771372Y-97825616D01*
X94739294Y-97793538D01*
X94739292Y-97793536D01*
X94666209Y-97751341D01*
X94592778Y-97731665D01*
X94584028Y-97728971D01*
X94550478Y-97717266D01*
X94527527Y-97706516D01*
X94366534Y-97609920D01*
X94366517Y-97609908D01*
X94360014Y-97606006D01*
X94360011Y-97606006D01*
X94360010Y-97606005D01*
X94275985Y-97555590D01*
X94248618Y-97533312D01*
X94235485Y-97519066D01*
X94229518Y-97507803D01*
X96679500Y-97507803D01*
X96679500Y-97592196D01*
X96683201Y-97606007D01*
X96701341Y-97673709D01*
X96743536Y-97746792D01*
X96803208Y-97806464D01*
X96876291Y-97848659D01*
X96957805Y-97870500D01*
X96957808Y-97870500D01*
X97042192Y-97870500D01*
X97042195Y-97870500D01*
X97123709Y-97848659D01*
X97196792Y-97806464D01*
X97256464Y-97746792D01*
X97298659Y-97673709D01*
X97320500Y-97592195D01*
X97320500Y-97507805D01*
X97298659Y-97426291D01*
X97256464Y-97353208D01*
X97196792Y-97293536D01*
X97160250Y-97272438D01*
X97123710Y-97251341D01*
X97109840Y-97247625D01*
X97095972Y-97243909D01*
X97095971Y-97243908D01*
X97042197Y-97229500D01*
X97042196Y-97229500D01*
X97042195Y-97229500D01*
X96957805Y-97229500D01*
X96957803Y-97229500D01*
X96876292Y-97251340D01*
X96803203Y-97293539D01*
X96803199Y-97293542D01*
X96743542Y-97353199D01*
X96743539Y-97353203D01*
X96743538Y-97353205D01*
X96743536Y-97353208D01*
X96734025Y-97369682D01*
X96701340Y-97426292D01*
X96679500Y-97507803D01*
X94229518Y-97507803D01*
X94205908Y-97463235D01*
X94203751Y-97454004D01*
X94200500Y-97425796D01*
X94200500Y-96445303D01*
X96367000Y-96445303D01*
X96367000Y-96529698D01*
X96372154Y-96548932D01*
X96374731Y-96558550D01*
X96374733Y-96558556D01*
X96388841Y-96611210D01*
X96400986Y-96632245D01*
X96431036Y-96684292D01*
X96490708Y-96743964D01*
X96563791Y-96786159D01*
X96645305Y-96808000D01*
X96645308Y-96808000D01*
X96729692Y-96808000D01*
X96729695Y-96808000D01*
X96811209Y-96786159D01*
X96884292Y-96743964D01*
X96943964Y-96684292D01*
X96986159Y-96611209D01*
X97008000Y-96529695D01*
X97008000Y-96445305D01*
X96986159Y-96363791D01*
X96943964Y-96290708D01*
X96884292Y-96231036D01*
X96811209Y-96188841D01*
X96729696Y-96167000D01*
X96729695Y-96167000D01*
X96645303Y-96167000D01*
X96563792Y-96188840D01*
X96490703Y-96231039D01*
X96490699Y-96231042D01*
X96431042Y-96290699D01*
X96431039Y-96290703D01*
X96431038Y-96290705D01*
X96431036Y-96290708D01*
X96411983Y-96323709D01*
X96388840Y-96363792D01*
X96367000Y-96445303D01*
X94200500Y-96445303D01*
X94200500Y-93095588D01*
X95219499Y-93095588D01*
X95256794Y-93283078D01*
X95256797Y-93283088D01*
X95257173Y-93283997D01*
X95257174Y-93284000D01*
X95329947Y-93459692D01*
X95329953Y-93459703D01*
X95436165Y-93618662D01*
X95496063Y-93678560D01*
X95503997Y-93687888D01*
X95504018Y-93687871D01*
X95982983Y-94231580D01*
X96004497Y-94266091D01*
X96020023Y-94303573D01*
X96020024Y-94303575D01*
X96230432Y-94513982D01*
X96430024Y-94713574D01*
X96486426Y-94769976D01*
X96560118Y-94800500D01*
X96997758Y-94800500D01*
X97032690Y-94805521D01*
X97057934Y-94812934D01*
X97110680Y-94844230D01*
X97400573Y-95134123D01*
X97421723Y-95162375D01*
X97434331Y-95185464D01*
X97449500Y-95244893D01*
X97449500Y-96439883D01*
X97480024Y-96513574D01*
X97480025Y-96513575D01*
X97641511Y-96675061D01*
X97662663Y-96703317D01*
X97670155Y-96717038D01*
X97685006Y-96785305D01*
X97684374Y-96794146D01*
X97668077Y-96847305D01*
X97651346Y-96876283D01*
X97651342Y-96876289D01*
X97629502Y-96957801D01*
X97629502Y-96957803D01*
X97629502Y-96957805D01*
X97629502Y-97042195D01*
X97651343Y-97123709D01*
X97693538Y-97196792D01*
X97753210Y-97256464D01*
X97826293Y-97298659D01*
X97907807Y-97320500D01*
X97907810Y-97320500D01*
X97992194Y-97320500D01*
X97992195Y-97320500D01*
X97992197Y-97320500D01*
X98052009Y-97304473D01*
X98087047Y-97300284D01*
X98102676Y-97300656D01*
X98169222Y-97321927D01*
X98176567Y-97326898D01*
X98210525Y-97363371D01*
X98210711Y-97363229D01*
X98212202Y-97365172D01*
X98214456Y-97367593D01*
X98215658Y-97369676D01*
X98215660Y-97369678D01*
X98215661Y-97369680D01*
X98275333Y-97429352D01*
X98348416Y-97471547D01*
X98429930Y-97493388D01*
X98429933Y-97493388D01*
X98514317Y-97493388D01*
X98514320Y-97493388D01*
X98595834Y-97471547D01*
X98668917Y-97429352D01*
X98728589Y-97369680D01*
X98770784Y-97296597D01*
X98792625Y-97215083D01*
X98792625Y-97130693D01*
X98770784Y-97049179D01*
X98728589Y-96976096D01*
X98721551Y-96969058D01*
X98700399Y-96940802D01*
X98687792Y-96917713D01*
X98672625Y-96858288D01*
X98672625Y-96632245D01*
X98672625Y-96632244D01*
X98672624Y-96632241D01*
X98663912Y-96611209D01*
X98642101Y-96558551D01*
X98585699Y-96502149D01*
X98299426Y-96215876D01*
X98278274Y-96187620D01*
X98265667Y-96164531D01*
X98250500Y-96105106D01*
X98250500Y-94257803D01*
X102529500Y-94257803D01*
X102529500Y-94257805D01*
X102529500Y-94342195D01*
X102551341Y-94423709D01*
X102593536Y-94496792D01*
X102653208Y-94556464D01*
X102726291Y-94598659D01*
X102807805Y-94620500D01*
X102807808Y-94620500D01*
X102892192Y-94620500D01*
X102892195Y-94620500D01*
X102973709Y-94598659D01*
X103046792Y-94556464D01*
X103089279Y-94513976D01*
X103103746Y-94501580D01*
X103114719Y-94493553D01*
X103114720Y-94493554D01*
X103127153Y-94484459D01*
X103192879Y-94460769D01*
X103260981Y-94476373D01*
X103273654Y-94483476D01*
X103300705Y-94503961D01*
X103353208Y-94556464D01*
X103426291Y-94598659D01*
X103507805Y-94620500D01*
X103507808Y-94620500D01*
X103592192Y-94620500D01*
X103592195Y-94620500D01*
X103673709Y-94598659D01*
X103746792Y-94556464D01*
X103806464Y-94496792D01*
X103848659Y-94423709D01*
X103870500Y-94342195D01*
X103870500Y-94257805D01*
X103848659Y-94176291D01*
X103806464Y-94103208D01*
X103746792Y-94043536D01*
X103673709Y-94001341D01*
X103668707Y-94000000D01*
X103668704Y-93999999D01*
X103668704Y-94000000D01*
X103592196Y-93979500D01*
X103592195Y-93979500D01*
X103507803Y-93979500D01*
X103426292Y-94001340D01*
X103426290Y-94001340D01*
X103426290Y-94001341D01*
X103382065Y-94026875D01*
X103353203Y-94043539D01*
X103310239Y-94086503D01*
X103295427Y-94099152D01*
X103272528Y-94115783D01*
X103206717Y-94139251D01*
X103138666Y-94123414D01*
X103138664Y-94123413D01*
X103125814Y-94116153D01*
X103099129Y-94095873D01*
X103046794Y-94043538D01*
X103046792Y-94043536D01*
X102973709Y-94001341D01*
X102968707Y-94000000D01*
X102968704Y-93999999D01*
X102968704Y-94000000D01*
X102892196Y-93979500D01*
X102892195Y-93979500D01*
X102807803Y-93979500D01*
X102726292Y-94001340D01*
X102726290Y-94001340D01*
X102726290Y-94001341D01*
X102682065Y-94026875D01*
X102653203Y-94043539D01*
X102653199Y-94043542D01*
X102593542Y-94103199D01*
X102593539Y-94103203D01*
X102593538Y-94103205D01*
X102593536Y-94103208D01*
X102551341Y-94176290D01*
X102529500Y-94257803D01*
X98250500Y-94257803D01*
X98250500Y-94055253D01*
X98255521Y-94020324D01*
X98258126Y-94011451D01*
X98295897Y-93952674D01*
X98359451Y-93923646D01*
X98401885Y-93924884D01*
X98447742Y-93934238D01*
X98453069Y-93934852D01*
X98453002Y-93935426D01*
X98463083Y-93936419D01*
X98544799Y-93952674D01*
X98634412Y-93970500D01*
X98825586Y-93970500D01*
X98825588Y-93970500D01*
X99001913Y-93935426D01*
X99013084Y-93933204D01*
X99165731Y-93869976D01*
X99185649Y-93861725D01*
X99189136Y-93860424D01*
X99189696Y-93860049D01*
X99189700Y-93860048D01*
X99189701Y-93860047D01*
X99189704Y-93860046D01*
X99348658Y-93753837D01*
X99483837Y-93618658D01*
X99590046Y-93459704D01*
X99604877Y-93423900D01*
X99626625Y-93371394D01*
X99663204Y-93283084D01*
X99698279Y-93106753D01*
X99700500Y-93095588D01*
X99700500Y-92904408D01*
X99662965Y-92715713D01*
X99660878Y-92711300D01*
X99659859Y-92708840D01*
X99659858Y-92708838D01*
X99590051Y-92540306D01*
X99590050Y-92540305D01*
X99590048Y-92540299D01*
X99483835Y-92381339D01*
X99483833Y-92381336D01*
X99348662Y-92246165D01*
X99189703Y-92139953D01*
X99189702Y-92139952D01*
X99189700Y-92139951D01*
X99189697Y-92139949D01*
X99189692Y-92139947D01*
X99013110Y-92066805D01*
X99013096Y-92066800D01*
X99013088Y-92066797D01*
X99013078Y-92066794D01*
X99013075Y-92066793D01*
X99013071Y-92066792D01*
X98825591Y-92029500D01*
X98825588Y-92029500D01*
X98825586Y-92029500D01*
X98634414Y-92029500D01*
X98634412Y-92029500D01*
X98634408Y-92029500D01*
X98446927Y-92066792D01*
X98446921Y-92066794D01*
X98446911Y-92066797D01*
X98446906Y-92066798D01*
X98446888Y-92066805D01*
X98270306Y-92139947D01*
X98270295Y-92139953D01*
X98111336Y-92246165D01*
X97976165Y-92381336D01*
X97869953Y-92540295D01*
X97869947Y-92540306D01*
X97796805Y-92716888D01*
X97796792Y-92716927D01*
X97759500Y-92904407D01*
X97759500Y-92904411D01*
X97759500Y-92904414D01*
X97759500Y-93095586D01*
X97759500Y-93095588D01*
X97759499Y-93095588D01*
X97794235Y-93270216D01*
X97794661Y-93273014D01*
X97794596Y-93273489D01*
X97795412Y-93278893D01*
X97795759Y-93282248D01*
X97824650Y-93423900D01*
X97818760Y-93493521D01*
X97780614Y-93545507D01*
X97683966Y-93622827D01*
X97619321Y-93649336D01*
X97606503Y-93650000D01*
X97154883Y-93650000D01*
X97087844Y-93630315D01*
X97042089Y-93577511D01*
X97032145Y-93508353D01*
X97048460Y-93465767D01*
X97047173Y-93465079D01*
X97050042Y-93459709D01*
X97050046Y-93459704D01*
X97123204Y-93283084D01*
X97158279Y-93106753D01*
X97160500Y-93095588D01*
X97160500Y-92904408D01*
X97122965Y-92715713D01*
X97120878Y-92711300D01*
X97119859Y-92708840D01*
X97119858Y-92708838D01*
X97050051Y-92540306D01*
X97050050Y-92540305D01*
X97050048Y-92540299D01*
X96943835Y-92381339D01*
X96943833Y-92381336D01*
X96808662Y-92246165D01*
X96649703Y-92139953D01*
X96649702Y-92139952D01*
X96649700Y-92139951D01*
X96649697Y-92139949D01*
X96649692Y-92139947D01*
X96473110Y-92066805D01*
X96473096Y-92066800D01*
X96473088Y-92066797D01*
X96473078Y-92066794D01*
X96473075Y-92066793D01*
X96473071Y-92066792D01*
X96285591Y-92029500D01*
X96285588Y-92029500D01*
X96285586Y-92029500D01*
X96094414Y-92029500D01*
X96094412Y-92029500D01*
X96094408Y-92029500D01*
X95906927Y-92066792D01*
X95906921Y-92066794D01*
X95906911Y-92066797D01*
X95906906Y-92066798D01*
X95906888Y-92066805D01*
X95730306Y-92139947D01*
X95730295Y-92139953D01*
X95571336Y-92246165D01*
X95436165Y-92381336D01*
X95329953Y-92540295D01*
X95329947Y-92540306D01*
X95256805Y-92716888D01*
X95256792Y-92716927D01*
X95219500Y-92904407D01*
X95219500Y-92904411D01*
X95219500Y-92904414D01*
X95219500Y-93095586D01*
X95219500Y-93095588D01*
X95219499Y-93095588D01*
X94200500Y-93095588D01*
X94200500Y-91842329D01*
X94205523Y-91807393D01*
X94209927Y-91792395D01*
X94247672Y-91733644D01*
X94249041Y-91732457D01*
X94303920Y-91704977D01*
X94311479Y-91703333D01*
X94337832Y-91700500D01*
X100158170Y-91700500D01*
X100193106Y-91705523D01*
G37*
%TD.AperFunction*%
%TD*%
%TA.AperFunction,Conductor*%
%TO.N,GND*%
G36*
X104069706Y-97640185D02*
G01*
X104077062Y-97645296D01*
X104539900Y-97992425D01*
X104581721Y-98048396D01*
X104589500Y-98091625D01*
X104589500Y-100385588D01*
X104569815Y-100452627D01*
X104553181Y-100473269D01*
X103313269Y-101713181D01*
X103251946Y-101746666D01*
X103225588Y-101749500D01*
X102950862Y-101749500D01*
X102883823Y-101729815D01*
X102863181Y-101713181D01*
X102637291Y-101487291D01*
X102603806Y-101425968D01*
X102600994Y-101397278D01*
X102605725Y-101146571D01*
X102626670Y-101079919D01*
X102642011Y-101061244D01*
X102656464Y-101046792D01*
X102698659Y-100973709D01*
X102720500Y-100892195D01*
X102720500Y-100807805D01*
X102698659Y-100726291D01*
X102656464Y-100653208D01*
X102653092Y-100649836D01*
X102619607Y-100588513D01*
X102616795Y-100559823D01*
X102622647Y-100249681D01*
X102639238Y-100190024D01*
X102648659Y-100173709D01*
X102670500Y-100092195D01*
X102670500Y-100007805D01*
X102648659Y-99926291D01*
X102646621Y-99922762D01*
X102645672Y-99919080D01*
X102645550Y-99918785D01*
X102645591Y-99918767D01*
X102630029Y-99858421D01*
X102631280Y-99792158D01*
X102652227Y-99725503D01*
X102705885Y-99680753D01*
X102755258Y-99670500D01*
X102842192Y-99670500D01*
X102842195Y-99670500D01*
X102923709Y-99648659D01*
X102996792Y-99606464D01*
X103056464Y-99546792D01*
X103098659Y-99473709D01*
X103120500Y-99392195D01*
X103120500Y-99307805D01*
X103098659Y-99226291D01*
X103056464Y-99153208D01*
X102996792Y-99093536D01*
X102923709Y-99051341D01*
X102842196Y-99029500D01*
X102842195Y-99029500D01*
X102772031Y-99029500D01*
X102704992Y-99009815D01*
X102659237Y-98957011D01*
X102648053Y-98903163D01*
X102650000Y-98800000D01*
X102649998Y-98799999D01*
X102649999Y-98799999D01*
X102649999Y-98799998D01*
X102300000Y-98600000D01*
X101850000Y-98600000D01*
X101849999Y-98600000D01*
X101650000Y-98799999D01*
X101362249Y-99663252D01*
X101322375Y-99720627D01*
X101319013Y-99723240D01*
X101183065Y-99825200D01*
X101117625Y-99849676D01*
X101108667Y-99850000D01*
X99581085Y-99850000D01*
X99525303Y-99833620D01*
X99524857Y-99834698D01*
X99514834Y-99830546D01*
X99514046Y-99830315D01*
X99513650Y-99830056D01*
X99513574Y-99830024D01*
X99472589Y-99813047D01*
X99439883Y-99799500D01*
X99439882Y-99799500D01*
X99036954Y-99799500D01*
X98969915Y-99779815D01*
X98956256Y-99769648D01*
X98743302Y-99587116D01*
X98705212Y-99528541D01*
X98700000Y-99492968D01*
X98700000Y-99004617D01*
X98719685Y-98937578D01*
X98736319Y-98916936D01*
X99996436Y-97656819D01*
X100057759Y-97623334D01*
X100084117Y-97620500D01*
X104002667Y-97620500D01*
X104069706Y-97640185D01*
G37*
%TD.AperFunction*%
%TD*%
%TA.AperFunction,Conductor*%
%TO.N,3.3V_GPS*%
G36*
X115184021Y-95795185D02*
G01*
X115209661Y-95817119D01*
X115493179Y-96136076D01*
X115523005Y-96199259D01*
X115524500Y-96218457D01*
X115524500Y-97174138D01*
X115504815Y-97241177D01*
X115488181Y-97261819D01*
X115298926Y-97451073D01*
X115270675Y-97472222D01*
X115247587Y-97484830D01*
X115188157Y-97500000D01*
X114300000Y-97500000D01*
X114084251Y-97754975D01*
X113798392Y-98092807D01*
X113771993Y-98116230D01*
X113751277Y-98129890D01*
X113684473Y-98150361D01*
X113683705Y-98150368D01*
X112850361Y-98154997D01*
X112850000Y-98154998D01*
X112823534Y-98181464D01*
X112816213Y-98190828D01*
X110906160Y-100216278D01*
X110903629Y-100218885D01*
X110604984Y-100517531D01*
X110604977Y-100517539D01*
X110585803Y-100542221D01*
X110585797Y-100542230D01*
X110572928Y-100563917D01*
X110572921Y-100563930D01*
X110563767Y-100579358D01*
X110550000Y-100593958D01*
X110550000Y-100593959D01*
X110550000Y-100605318D01*
X110542017Y-100623658D01*
X110540945Y-100627308D01*
X110540943Y-100627313D01*
X110534606Y-100648896D01*
X110530798Y-100666406D01*
X110525777Y-100701329D01*
X110524500Y-100719189D01*
X110524500Y-104876000D01*
X110504815Y-104943039D01*
X110452011Y-104988794D01*
X110400500Y-105000000D01*
X109211363Y-105000000D01*
X109176422Y-104994975D01*
X109161423Y-104990570D01*
X109102657Y-104952805D01*
X109098788Y-104948340D01*
X109096554Y-104945762D01*
X109071034Y-104898621D01*
X109007144Y-104675003D01*
X109003573Y-104658147D01*
X109001197Y-104641181D01*
X109000000Y-104623994D01*
X109000000Y-103207803D01*
X109379500Y-103207803D01*
X109379500Y-103207805D01*
X109379500Y-103292195D01*
X109401341Y-103373709D01*
X109443536Y-103446792D01*
X109503208Y-103506464D01*
X109576291Y-103548659D01*
X109657805Y-103570500D01*
X109657808Y-103570500D01*
X109742192Y-103570500D01*
X109742195Y-103570500D01*
X109823709Y-103548659D01*
X109896792Y-103506464D01*
X109956464Y-103446792D01*
X109998659Y-103373709D01*
X110020500Y-103292195D01*
X110020500Y-103207805D01*
X109998659Y-103126291D01*
X109956464Y-103053208D01*
X109896792Y-102993536D01*
X109823709Y-102951341D01*
X109742196Y-102929500D01*
X109742195Y-102929500D01*
X109657803Y-102929500D01*
X109576292Y-102951340D01*
X109503203Y-102993539D01*
X109503199Y-102993542D01*
X109443542Y-103053199D01*
X109443539Y-103053203D01*
X109443538Y-103053205D01*
X109443536Y-103053208D01*
X109401341Y-103126290D01*
X109379500Y-103207803D01*
X109000000Y-103207803D01*
X109000000Y-102373153D01*
X109001061Y-102356970D01*
X109003164Y-102340994D01*
X109006324Y-102325098D01*
X109011712Y-102304992D01*
X109020500Y-102272195D01*
X109020500Y-102187805D01*
X109009511Y-102146792D01*
X109006328Y-102134912D01*
X109003165Y-102119019D01*
X109001059Y-102103019D01*
X109000000Y-102086845D01*
X109000000Y-100794020D01*
X109005023Y-100759086D01*
X109012395Y-100733979D01*
X109044257Y-100680669D01*
X112875774Y-96898275D01*
X112904158Y-96877312D01*
X112921370Y-96868057D01*
X112927457Y-96864785D01*
X112986177Y-96850000D01*
X113900000Y-96850000D01*
X114350000Y-96450000D01*
X114350000Y-96105373D01*
X114355023Y-96070439D01*
X114364379Y-96038575D01*
X114380180Y-96004729D01*
X114496189Y-95830717D01*
X114549755Y-95785856D01*
X114599363Y-95775500D01*
X115116982Y-95775500D01*
X115184021Y-95795185D01*
G37*
%TD.AperFunction*%
%TD*%
%TA.AperFunction,Conductor*%
%TO.N,BAT+*%
G36*
X110788193Y-105319685D02*
G01*
X110808835Y-105336319D01*
X110888181Y-105415665D01*
X110921666Y-105476988D01*
X110924500Y-105503346D01*
X110924500Y-106183557D01*
X110927295Y-106209896D01*
X110935416Y-106247717D01*
X110938225Y-106260800D01*
X110943811Y-106277812D01*
X110950000Y-106316496D01*
X110950000Y-106350000D01*
X111560995Y-107101995D01*
X111579126Y-107132273D01*
X111590369Y-107159109D01*
X111600000Y-107207024D01*
X111600000Y-108076945D01*
X111594977Y-108111881D01*
X111587861Y-108136115D01*
X111551836Y-108193347D01*
X111482510Y-108255741D01*
X111453183Y-108275378D01*
X111428316Y-108287305D01*
X111374691Y-108299500D01*
X110267855Y-108299500D01*
X110263560Y-108300000D01*
X110051984Y-108300000D01*
X109984945Y-108280315D01*
X109939190Y-108227511D01*
X109929246Y-108158353D01*
X109953612Y-108100509D01*
X109956462Y-108096794D01*
X109956462Y-108096793D01*
X109956464Y-108096792D01*
X109998659Y-108023709D01*
X110020500Y-107942195D01*
X110020500Y-107857805D01*
X109998659Y-107776291D01*
X109956464Y-107703208D01*
X109896792Y-107643536D01*
X109823709Y-107601341D01*
X109742196Y-107579500D01*
X109742195Y-107579500D01*
X109657803Y-107579500D01*
X109576292Y-107601340D01*
X109503203Y-107643539D01*
X109503199Y-107643542D01*
X109443542Y-107703199D01*
X109443539Y-107703203D01*
X109443538Y-107703205D01*
X109443536Y-107703208D01*
X109401341Y-107776290D01*
X109379500Y-107857803D01*
X109379500Y-107857805D01*
X109379500Y-107942195D01*
X109401341Y-108023709D01*
X109443536Y-108096792D01*
X109443537Y-108096793D01*
X109446392Y-108100513D01*
X109471586Y-108165682D01*
X109457548Y-108234127D01*
X109408734Y-108284117D01*
X109348016Y-108300000D01*
X106319921Y-108300000D01*
X106252882Y-108280315D01*
X106207127Y-108227511D01*
X106198767Y-108175860D01*
X106196475Y-108175941D01*
X106196163Y-108167085D01*
X106195911Y-108165682D01*
X106183789Y-108098320D01*
X106172524Y-108064421D01*
X106028460Y-107776292D01*
X105749342Y-107218054D01*
X105749335Y-107218042D01*
X105691311Y-107101995D01*
X105619743Y-106958861D01*
X105617107Y-106953872D01*
X105611681Y-106944140D01*
X105608826Y-106939279D01*
X105602986Y-106929829D01*
X105602982Y-106929822D01*
X105599910Y-106925092D01*
X105593634Y-106915890D01*
X105590345Y-106911293D01*
X105428572Y-106695596D01*
X105413211Y-106668648D01*
X105410235Y-106661464D01*
X105362663Y-106546612D01*
X105360051Y-106540306D01*
X105360050Y-106540305D01*
X105360048Y-106540299D01*
X105253835Y-106381339D01*
X105253834Y-106381338D01*
X105253833Y-106381336D01*
X105202650Y-106330153D01*
X105202641Y-106330145D01*
X105120447Y-106247951D01*
X105629500Y-106247951D01*
X105629500Y-106332345D01*
X105637661Y-106362805D01*
X105637662Y-106362805D01*
X105651341Y-106413857D01*
X105693536Y-106486940D01*
X105753208Y-106546612D01*
X105826291Y-106588807D01*
X105907805Y-106610648D01*
X105907808Y-106610648D01*
X105992192Y-106610648D01*
X105992195Y-106610648D01*
X106054138Y-106594050D01*
X106072925Y-106590542D01*
X106082317Y-106589528D01*
X106082318Y-106589529D01*
X106100077Y-106587613D01*
X106168840Y-106599994D01*
X106219627Y-106646971D01*
X106226578Y-106658524D01*
X106240101Y-106690356D01*
X106251340Y-106732299D01*
X106251340Y-106732300D01*
X106251341Y-106732301D01*
X106293536Y-106805384D01*
X106353208Y-106865056D01*
X106426291Y-106907251D01*
X106507805Y-106929092D01*
X106507808Y-106929092D01*
X106592192Y-106929092D01*
X106592195Y-106929092D01*
X106673709Y-106907251D01*
X106746792Y-106865056D01*
X106806464Y-106805384D01*
X106848659Y-106732301D01*
X106870500Y-106650787D01*
X106870500Y-106566397D01*
X106848659Y-106484883D01*
X106806464Y-106411800D01*
X106746792Y-106352128D01*
X106704596Y-106327765D01*
X106673708Y-106309932D01*
X106663500Y-106307197D01*
X106660764Y-106306464D01*
X106660762Y-106306463D01*
X106660762Y-106306464D01*
X106592196Y-106288092D01*
X106592195Y-106288092D01*
X106507801Y-106288092D01*
X106445773Y-106304712D01*
X106426916Y-106308229D01*
X106417684Y-106309220D01*
X106398708Y-106311256D01*
X106329952Y-106298840D01*
X106281082Y-106254885D01*
X106276487Y-106247717D01*
X106261104Y-106212888D01*
X106260302Y-106209896D01*
X106248659Y-106166439D01*
X106244624Y-106159450D01*
X106244620Y-106159441D01*
X106238325Y-106148539D01*
X106214806Y-106107803D01*
X108179500Y-106107803D01*
X108179500Y-106192197D01*
X108194129Y-106246794D01*
X108201339Y-106273706D01*
X108205719Y-106281292D01*
X108243536Y-106346792D01*
X108303208Y-106406464D01*
X108376291Y-106448659D01*
X108457805Y-106470500D01*
X108457808Y-106470500D01*
X108542192Y-106470500D01*
X108542195Y-106470500D01*
X108623709Y-106448659D01*
X108696792Y-106406464D01*
X108740453Y-106362803D01*
X109831481Y-106362803D01*
X109831481Y-106362805D01*
X109831481Y-106447195D01*
X109853322Y-106528709D01*
X109895517Y-106601792D01*
X109955189Y-106661464D01*
X110028272Y-106703659D01*
X110109786Y-106725500D01*
X110109789Y-106725500D01*
X110194173Y-106725500D01*
X110194176Y-106725500D01*
X110275690Y-106703659D01*
X110348773Y-106661464D01*
X110408445Y-106601792D01*
X110450640Y-106528709D01*
X110472481Y-106447195D01*
X110472481Y-106362805D01*
X110450640Y-106281291D01*
X110408445Y-106208208D01*
X110348773Y-106148536D01*
X110275690Y-106106341D01*
X110194177Y-106084500D01*
X110194176Y-106084500D01*
X110109784Y-106084500D01*
X110028273Y-106106340D01*
X110028271Y-106106340D01*
X110028271Y-106106341D01*
X109955189Y-106148536D01*
X109955184Y-106148539D01*
X109955180Y-106148542D01*
X109895523Y-106208199D01*
X109895520Y-106208203D01*
X109895519Y-106208205D01*
X109895517Y-106208208D01*
X109881744Y-106232064D01*
X109853321Y-106281292D01*
X109834911Y-106350000D01*
X109831481Y-106362803D01*
X108740453Y-106362803D01*
X108756464Y-106346792D01*
X108777745Y-106309933D01*
X108787709Y-106292676D01*
X108787709Y-106292675D01*
X108790355Y-106288092D01*
X108795875Y-106278534D01*
X108795877Y-106278527D01*
X108798659Y-106273709D01*
X108820500Y-106192195D01*
X108820500Y-106107805D01*
X108798659Y-106026291D01*
X108756464Y-105953208D01*
X108696792Y-105893536D01*
X108623709Y-105851341D01*
X108542196Y-105829500D01*
X108542195Y-105829500D01*
X108457803Y-105829500D01*
X108376292Y-105851340D01*
X108303203Y-105893539D01*
X108303199Y-105893542D01*
X108243542Y-105953199D01*
X108243539Y-105953203D01*
X108243538Y-105953205D01*
X108243536Y-105953208D01*
X108218341Y-105996847D01*
X108201340Y-106026292D01*
X108179500Y-106107803D01*
X106214806Y-106107803D01*
X106212740Y-106104225D01*
X106211563Y-106101608D01*
X106207458Y-106094965D01*
X106207458Y-106094964D01*
X106206477Y-106093378D01*
X106206468Y-106093362D01*
X106206465Y-106093359D01*
X106206464Y-106093356D01*
X106146792Y-106033684D01*
X106073709Y-105991489D01*
X105992196Y-105969648D01*
X105992195Y-105969648D01*
X105907803Y-105969648D01*
X105826292Y-105991488D01*
X105826290Y-105991488D01*
X105826290Y-105991489D01*
X105754223Y-106033098D01*
X105753203Y-106033687D01*
X105753199Y-106033690D01*
X105693542Y-106093347D01*
X105693539Y-106093351D01*
X105693538Y-106093353D01*
X105693536Y-106093356D01*
X105662140Y-106147735D01*
X105651340Y-106166440D01*
X105629500Y-106247951D01*
X105120447Y-106247951D01*
X105118660Y-106246164D01*
X105074793Y-106216853D01*
X105068469Y-106211249D01*
X105064851Y-106205479D01*
X105051508Y-106192844D01*
X105044248Y-106183164D01*
X105044241Y-106183155D01*
X105037150Y-106174528D01*
X105022407Y-106158137D01*
X105022403Y-106158133D01*
X105022395Y-106158124D01*
X105014587Y-106150185D01*
X105014585Y-106150183D01*
X105014577Y-106150175D01*
X105011954Y-106147735D01*
X104988553Y-106130553D01*
X104988551Y-106130552D01*
X104988550Y-106130551D01*
X104988546Y-106130548D01*
X104939038Y-106102371D01*
X104939032Y-106102368D01*
X104939030Y-106102367D01*
X104937242Y-106101608D01*
X104922603Y-106095392D01*
X104912309Y-106091021D01*
X104912308Y-106091020D01*
X104912304Y-106091019D01*
X104890453Y-106084603D01*
X104872995Y-106080806D01*
X104872966Y-106080801D01*
X104838031Y-106075778D01*
X104820170Y-106074500D01*
X104820169Y-106074500D01*
X104817961Y-106074342D01*
X104817996Y-106073843D01*
X104786085Y-106067685D01*
X104786082Y-106067696D01*
X104785975Y-106067664D01*
X104784996Y-106067475D01*
X104783109Y-106066804D01*
X104783091Y-106066798D01*
X104783088Y-106066797D01*
X104783078Y-106066794D01*
X104783076Y-106066793D01*
X104783071Y-106066792D01*
X104595591Y-106029500D01*
X104595588Y-106029500D01*
X104595586Y-106029500D01*
X104404414Y-106029500D01*
X104404412Y-106029500D01*
X104404408Y-106029500D01*
X104216924Y-106066792D01*
X104216911Y-106066797D01*
X104216907Y-106066798D01*
X104211185Y-106069168D01*
X104184958Y-106076585D01*
X104184964Y-106076609D01*
X104184598Y-106076687D01*
X104183338Y-106077044D01*
X104181767Y-106077295D01*
X104130874Y-106088222D01*
X104130854Y-106088228D01*
X104105702Y-106096486D01*
X104105698Y-106096487D01*
X104105691Y-106096490D01*
X104092636Y-106102367D01*
X104079921Y-106108090D01*
X104079912Y-106108095D01*
X104064162Y-106116585D01*
X104064123Y-106116608D01*
X104034370Y-106135503D01*
X104034365Y-106135506D01*
X104019975Y-106146157D01*
X104019959Y-106146169D01*
X103986579Y-106174779D01*
X103974778Y-106183729D01*
X103881338Y-106246164D01*
X103746165Y-106381338D01*
X103746153Y-106381352D01*
X103742042Y-106387503D01*
X103722244Y-106410397D01*
X103711097Y-106425416D01*
X103693218Y-106453689D01*
X103684753Y-106469465D01*
X103679617Y-106480928D01*
X103673823Y-106489600D01*
X103673820Y-106489606D01*
X103639953Y-106540294D01*
X103639949Y-106540303D01*
X103566805Y-106716888D01*
X103566792Y-106716927D01*
X103529500Y-106904407D01*
X103529500Y-106910314D01*
X103520201Y-106957426D01*
X103297618Y-107499334D01*
X103253939Y-107553868D01*
X103187711Y-107576129D01*
X103182621Y-107576222D01*
X102704111Y-107575081D01*
X102637119Y-107555236D01*
X102593490Y-107506519D01*
X102404007Y-107127416D01*
X102403992Y-107127388D01*
X102395508Y-107112927D01*
X102395502Y-107112917D01*
X102395493Y-107112902D01*
X102376851Y-107085510D01*
X102366491Y-107072286D01*
X102357316Y-107062065D01*
X102330843Y-107039729D01*
X102273505Y-107003589D01*
X102241949Y-106989344D01*
X102235731Y-106987518D01*
X102225817Y-106984606D01*
X102208295Y-106980794D01*
X102173377Y-106975776D01*
X102168911Y-106975457D01*
X102155521Y-106974500D01*
X102155515Y-106974500D01*
X100469106Y-106974500D01*
X100405310Y-106956829D01*
X99758468Y-106568724D01*
X99743382Y-106561006D01*
X99743380Y-106561005D01*
X99712697Y-106547840D01*
X99712685Y-106547836D01*
X99696707Y-106542225D01*
X99696705Y-106542224D01*
X99696701Y-106542223D01*
X99677585Y-106536929D01*
X99665400Y-106533554D01*
X99665396Y-106533553D01*
X99665392Y-106533552D01*
X99648800Y-106530143D01*
X99648799Y-106530142D01*
X99648790Y-106530141D01*
X99615705Y-106525644D01*
X99615683Y-106525642D01*
X99598811Y-106524500D01*
X99598799Y-106524500D01*
X99174000Y-106524500D01*
X99106961Y-106504815D01*
X99061206Y-106452011D01*
X99050000Y-106400500D01*
X99050000Y-105649500D01*
X99069685Y-105582461D01*
X99122489Y-105536706D01*
X99174000Y-105525500D01*
X100144565Y-105525500D01*
X100144568Y-105525500D01*
X100171696Y-105522533D01*
X100173890Y-105522047D01*
X100175292Y-105521737D01*
X100245002Y-105526461D01*
X100301091Y-105568124D01*
X100301280Y-105568374D01*
X100303298Y-105571065D01*
X100327793Y-105636499D01*
X100328119Y-105644910D01*
X100328144Y-105650258D01*
X100330197Y-105672276D01*
X100330200Y-105672301D01*
X100338057Y-105715163D01*
X100338058Y-105715167D01*
X100343948Y-105736485D01*
X100343950Y-105736493D01*
X100353678Y-105762502D01*
X100354717Y-105765279D01*
X100354721Y-105765289D01*
X100354724Y-105765295D01*
X100362164Y-105781549D01*
X100362166Y-105781552D01*
X100379107Y-105812513D01*
X100388810Y-105827582D01*
X100515760Y-105996847D01*
X100522855Y-106005477D01*
X100537592Y-106021862D01*
X100545419Y-106029821D01*
X100548042Y-106032260D01*
X100548046Y-106032264D01*
X100571438Y-106049441D01*
X100571444Y-106049445D01*
X100620953Y-106077625D01*
X100620955Y-106077626D01*
X100620958Y-106077627D01*
X100620963Y-106077630D01*
X100647684Y-106088976D01*
X100669533Y-106095392D01*
X100687030Y-106099198D01*
X100721968Y-106104222D01*
X100739831Y-106105500D01*
X101674956Y-106105500D01*
X101674968Y-106105500D01*
X101695871Y-106103747D01*
X101736602Y-106096867D01*
X101756923Y-106091656D01*
X101786724Y-106081292D01*
X101803173Y-106074219D01*
X101834515Y-106058002D01*
X101849787Y-106048663D01*
X101871578Y-106033097D01*
X101937570Y-106010149D01*
X101943652Y-106010000D01*
X101973374Y-106010000D01*
X102753349Y-105341450D01*
X102783142Y-105322531D01*
X102808915Y-105310929D01*
X102859815Y-105300000D01*
X110721154Y-105300000D01*
X110788193Y-105319685D01*
G37*
%TD.AperFunction*%
%TD*%
%TA.AperFunction,Conductor*%
%TO.N,GND*%
G36*
X116342606Y-91705523D02*
G01*
X116357604Y-91709927D01*
X116416355Y-91747672D01*
X116417542Y-91749041D01*
X116437407Y-91792504D01*
X116440863Y-91791408D01*
X116443695Y-91800335D01*
X116445082Y-91809294D01*
X116446587Y-91812587D01*
X116446108Y-91815923D01*
X116449500Y-91837831D01*
X116449500Y-106558170D01*
X116444475Y-106593114D01*
X116440070Y-106608112D01*
X116402327Y-106666855D01*
X116400958Y-106668042D01*
X116346097Y-106695518D01*
X116338539Y-106697163D01*
X116312168Y-106700000D01*
X115012448Y-106700000D01*
X114977512Y-106694977D01*
X114952270Y-106687565D01*
X114903243Y-106658475D01*
X114903238Y-106658483D01*
X114903175Y-106658434D01*
X114899525Y-106656269D01*
X114896794Y-106653538D01*
X114896792Y-106653536D01*
X114823709Y-106611341D01*
X114788071Y-106601792D01*
X114788070Y-106601791D01*
X114742197Y-106589500D01*
X114742196Y-106589500D01*
X114742195Y-106589500D01*
X114741830Y-106589500D01*
X114737883Y-106588932D01*
X114734136Y-106588439D01*
X114734141Y-106588394D01*
X114706889Y-106584475D01*
X114691890Y-106580070D01*
X114633144Y-106542327D01*
X114631957Y-106540958D01*
X114604477Y-106486083D01*
X114602832Y-106478521D01*
X114600000Y-106452168D01*
X114600000Y-105187438D01*
X114602453Y-105162897D01*
X114607263Y-105139074D01*
X114614528Y-105115495D01*
X114617007Y-105109609D01*
X114642105Y-105050000D01*
X114978611Y-104250794D01*
X114996798Y-104220548D01*
X115017921Y-104194648D01*
X115045233Y-104169844D01*
X115222139Y-104051907D01*
X115300000Y-104000000D01*
X115300000Y-103992537D01*
X115304225Y-103960445D01*
X115312387Y-103929982D01*
X115324775Y-103900074D01*
X115348659Y-103858709D01*
X115370500Y-103777195D01*
X115370500Y-103692805D01*
X115348659Y-103611291D01*
X115324773Y-103569921D01*
X115312611Y-103540843D01*
X115312511Y-103540480D01*
X115306405Y-103517692D01*
X115300000Y-103500002D01*
X115300000Y-103500000D01*
X115090149Y-103248178D01*
X115071644Y-103218124D01*
X115060233Y-103191805D01*
X115050000Y-103142479D01*
X115050000Y-101969191D01*
X115055022Y-101934258D01*
X115062434Y-101909013D01*
X115093727Y-101856272D01*
X115227855Y-101722145D01*
X115400000Y-101550000D01*
X115400000Y-100050000D01*
X113600000Y-100050000D01*
X113600000Y-102051317D01*
X113594976Y-102086255D01*
X113588941Y-102106806D01*
X113558999Y-102158176D01*
X113554851Y-102162455D01*
X113536067Y-102178328D01*
X112850000Y-102650000D01*
X112850000Y-104311962D01*
X112844976Y-104346901D01*
X112839517Y-104365490D01*
X112806864Y-104419569D01*
X112800060Y-104426167D01*
X112777534Y-104443478D01*
X112643902Y-104523657D01*
X112613208Y-104536827D01*
X112581898Y-104545500D01*
X112548800Y-104550000D01*
X111649998Y-104550000D01*
X111500000Y-104699998D01*
X111500000Y-104699999D01*
X111500000Y-106037499D01*
X111882771Y-106452168D01*
X111938975Y-106513055D01*
X111958979Y-106542132D01*
X111967231Y-106558795D01*
X111979832Y-106622135D01*
X111979109Y-106632899D01*
X111973537Y-106662229D01*
X111946641Y-106746653D01*
X111931252Y-106778413D01*
X111922504Y-106791366D01*
X111868676Y-106835903D01*
X111863842Y-106837979D01*
X111859281Y-106839937D01*
X111810351Y-106850000D01*
X111646296Y-106850000D01*
X111611358Y-106844976D01*
X111587531Y-106837979D01*
X111528754Y-106800203D01*
X111528321Y-106799701D01*
X111241863Y-106465500D01*
X111091453Y-106290021D01*
X111072533Y-106260230D01*
X111060929Y-106234455D01*
X111050000Y-106183553D01*
X111050000Y-105400000D01*
X110698926Y-105048926D01*
X110677774Y-105020670D01*
X110665167Y-104997581D01*
X110650000Y-104938156D01*
X110650000Y-101286235D01*
X111224499Y-101286235D01*
X111258139Y-101455348D01*
X111258146Y-101455379D01*
X111324134Y-101614691D01*
X111324139Y-101614700D01*
X111324149Y-101614717D01*
X111419955Y-101758100D01*
X111419956Y-101758101D01*
X111419961Y-101758107D01*
X111541891Y-101880037D01*
X111541897Y-101880042D01*
X111541901Y-101880045D01*
X111685288Y-101975854D01*
X111685301Y-101975861D01*
X111685305Y-101975863D01*
X111703475Y-101983389D01*
X111743579Y-102000000D01*
X111743580Y-102000001D01*
X111844621Y-102041853D01*
X111844626Y-102041855D01*
X112004767Y-102073709D01*
X112013766Y-102075499D01*
X112013769Y-102075500D01*
X112013771Y-102075500D01*
X112186231Y-102075500D01*
X112186232Y-102075499D01*
X112355374Y-102041855D01*
X112514705Y-101975858D01*
X112658099Y-101880045D01*
X112780045Y-101758099D01*
X112875858Y-101614705D01*
X112941855Y-101455374D01*
X112975500Y-101286229D01*
X112975500Y-101113771D01*
X112975500Y-101113768D01*
X112975500Y-101113584D01*
X112975064Y-101111579D01*
X112942516Y-100947951D01*
X112942102Y-100945528D01*
X112941855Y-100944631D01*
X112941855Y-100944626D01*
X112940491Y-100941334D01*
X112940486Y-100941321D01*
X112875864Y-100785307D01*
X112875859Y-100785298D01*
X112875854Y-100785288D01*
X112780045Y-100641901D01*
X112780042Y-100641897D01*
X112780037Y-100641891D01*
X112658107Y-100519961D01*
X112658101Y-100519956D01*
X112658100Y-100519955D01*
X112514717Y-100424149D01*
X112514716Y-100424148D01*
X112514711Y-100424145D01*
X112514698Y-100424138D01*
X112514691Y-100424134D01*
X112355379Y-100358146D01*
X112355348Y-100358139D01*
X112186234Y-100324500D01*
X112186232Y-100324500D01*
X112186229Y-100324500D01*
X112013771Y-100324500D01*
X112013768Y-100324500D01*
X112013764Y-100324500D01*
X111844658Y-100358137D01*
X111844619Y-100358146D01*
X111685307Y-100424134D01*
X111685298Y-100424139D01*
X111685281Y-100424149D01*
X111541898Y-100519955D01*
X111541897Y-100519956D01*
X111541891Y-100519961D01*
X111419961Y-100641891D01*
X111419956Y-100641897D01*
X111419955Y-100641898D01*
X111324149Y-100785281D01*
X111324139Y-100785298D01*
X111324134Y-100785307D01*
X111258146Y-100944619D01*
X111258139Y-100944650D01*
X111224500Y-101113763D01*
X111224500Y-101113766D01*
X111224500Y-101286233D01*
X111224500Y-101286235D01*
X111224499Y-101286235D01*
X110650000Y-101286235D01*
X110650000Y-100719191D01*
X110655022Y-100684258D01*
X110662434Y-100659013D01*
X110693728Y-100606271D01*
X112007196Y-99292803D01*
X114729500Y-99292803D01*
X114729500Y-99377196D01*
X114733519Y-99392195D01*
X114751341Y-99458709D01*
X114793536Y-99531792D01*
X114853208Y-99591464D01*
X114926291Y-99633659D01*
X115007805Y-99655500D01*
X115007808Y-99655500D01*
X115092192Y-99655500D01*
X115092195Y-99655500D01*
X115173709Y-99633659D01*
X115246792Y-99591464D01*
X115306464Y-99531792D01*
X115348659Y-99458709D01*
X115370500Y-99377195D01*
X115370500Y-99292805D01*
X115348659Y-99211291D01*
X115306464Y-99138208D01*
X115246792Y-99078536D01*
X115173709Y-99036341D01*
X115092196Y-99014500D01*
X115092195Y-99014500D01*
X115007803Y-99014500D01*
X114926292Y-99036340D01*
X114853203Y-99078539D01*
X114853199Y-99078542D01*
X114793542Y-99138199D01*
X114793539Y-99138203D01*
X114793538Y-99138205D01*
X114793536Y-99138208D01*
X114751341Y-99211290D01*
X114729500Y-99292803D01*
X112007196Y-99292803D01*
X112801076Y-98498923D01*
X112829326Y-98477775D01*
X112852418Y-98465167D01*
X112911843Y-98450000D01*
X113942552Y-98450000D01*
X113977484Y-98455021D01*
X114002728Y-98462434D01*
X114045684Y-98487921D01*
X114046762Y-98486517D01*
X114053203Y-98491459D01*
X114053208Y-98491464D01*
X114126291Y-98533659D01*
X114207805Y-98555500D01*
X114207808Y-98555500D01*
X114292192Y-98555500D01*
X114292195Y-98555500D01*
X114373709Y-98533659D01*
X114446792Y-98491464D01*
X114446799Y-98491456D01*
X114449710Y-98489223D01*
X114465775Y-98478762D01*
X114490676Y-98465166D01*
X114550099Y-98450000D01*
X115099999Y-98450000D01*
X115100000Y-98450000D01*
X115650000Y-97250000D01*
X115650000Y-96100000D01*
X115250000Y-95650000D01*
X113149998Y-95650000D01*
X108000000Y-100799998D01*
X108000000Y-101637276D01*
X107994976Y-101672215D01*
X107986892Y-101699743D01*
X107963176Y-101744186D01*
X107750000Y-102000000D01*
X107750000Y-103433133D01*
X107744976Y-103468073D01*
X107737352Y-103494034D01*
X107708839Y-103543903D01*
X107000000Y-104300000D01*
X107000000Y-104908170D01*
X106994975Y-104943114D01*
X106990570Y-104958112D01*
X106952827Y-105016855D01*
X106951458Y-105018042D01*
X106896597Y-105045518D01*
X106889039Y-105047163D01*
X106862668Y-105050000D01*
X106249998Y-105050000D01*
X106198923Y-105101075D01*
X106170671Y-105122225D01*
X106147586Y-105134831D01*
X106088157Y-105150000D01*
X104081219Y-105150000D01*
X104046284Y-105144977D01*
X104021923Y-105137824D01*
X103965287Y-105102457D01*
X103917391Y-105050000D01*
X103172685Y-104234369D01*
X103094448Y-104148681D01*
X103074602Y-104119495D01*
X103062581Y-104094884D01*
X103050000Y-104040462D01*
X103050000Y-102792329D01*
X103055023Y-102757393D01*
X103059427Y-102742395D01*
X103097172Y-102683644D01*
X103098541Y-102682457D01*
X103153420Y-102654977D01*
X103160979Y-102653333D01*
X103187332Y-102650500D01*
X103432103Y-102650500D01*
X103432104Y-102650500D01*
X103439882Y-102650500D01*
X103441089Y-102650000D01*
X103450000Y-102650000D01*
X103456299Y-102643699D01*
X103513574Y-102619976D01*
X105419976Y-100713574D01*
X105429592Y-100690356D01*
X105441039Y-100668939D01*
X105454360Y-100649002D01*
X105469766Y-100630232D01*
X106158118Y-99941880D01*
X106183799Y-99922176D01*
X106216769Y-99903144D01*
X106216768Y-99903143D01*
X106219619Y-99901498D01*
X106234157Y-99894329D01*
X106278560Y-99875935D01*
X106290126Y-99861045D01*
X106294553Y-99858181D01*
X106296784Y-99856468D01*
X106296792Y-99856464D01*
X106356464Y-99796792D01*
X106379416Y-99757037D01*
X106379521Y-99756858D01*
X106402968Y-99716696D01*
X106403144Y-99716769D01*
X106422478Y-99683278D01*
X106422832Y-99682943D01*
X106441882Y-99658116D01*
X106450000Y-99650000D01*
X106450000Y-97402741D01*
X106455022Y-97367808D01*
X106462434Y-97342563D01*
X106493728Y-97289821D01*
X108584126Y-95199423D01*
X108612376Y-95178275D01*
X108635468Y-95165667D01*
X108694893Y-95150500D01*
X111289880Y-95150500D01*
X111289882Y-95150500D01*
X111363574Y-95119976D01*
X112469976Y-94013574D01*
X112469976Y-94013573D01*
X112477044Y-94006506D01*
X112477143Y-94006605D01*
X112488708Y-93994180D01*
X112505418Y-93980216D01*
X112559668Y-93953969D01*
X112566246Y-93952599D01*
X112591505Y-93950000D01*
X113049999Y-93950000D01*
X113050000Y-93950000D01*
X113608291Y-93305817D01*
X114949500Y-93305817D01*
X114949500Y-93444182D01*
X114968069Y-93513485D01*
X114985308Y-93577821D01*
X114985313Y-93577838D01*
X114985317Y-93577846D01*
X115054488Y-93697655D01*
X115054492Y-93697661D01*
X115054494Y-93697664D01*
X115054495Y-93697665D01*
X115152335Y-93795505D01*
X115272164Y-93864688D01*
X115405817Y-93900500D01*
X115405819Y-93900500D01*
X115544181Y-93900500D01*
X115544183Y-93900500D01*
X115677836Y-93864688D01*
X115797665Y-93795505D01*
X115895505Y-93697665D01*
X115964688Y-93577836D01*
X116000500Y-93444183D01*
X116000500Y-93305817D01*
X115964688Y-93172164D01*
X115895505Y-93052335D01*
X115797665Y-92954495D01*
X115797664Y-92954494D01*
X115797661Y-92954492D01*
X115690500Y-92892623D01*
X115689056Y-92891736D01*
X115687586Y-92890107D01*
X115685442Y-92888462D01*
X115670230Y-92882161D01*
X115662068Y-92881087D01*
X115661059Y-92880816D01*
X115544183Y-92849500D01*
X115544182Y-92849500D01*
X115405817Y-92849500D01*
X115272177Y-92885308D01*
X115272160Y-92885313D01*
X115272148Y-92885319D01*
X115152347Y-92954485D01*
X115152337Y-92954492D01*
X115152334Y-92954495D01*
X115152324Y-92954503D01*
X115054503Y-93052324D01*
X115054497Y-93052331D01*
X115054492Y-93052337D01*
X115054485Y-93052347D01*
X114985319Y-93172148D01*
X114985313Y-93172160D01*
X114985308Y-93172177D01*
X114972982Y-93218180D01*
X114949500Y-93305817D01*
X113608291Y-93305817D01*
X113685121Y-93217167D01*
X113685628Y-93216584D01*
X113685714Y-93216485D01*
X113685719Y-93216479D01*
X113724139Y-93172148D01*
X114347125Y-92453317D01*
X114349828Y-92450415D01*
X114350000Y-92450000D01*
X114350000Y-91842329D01*
X114355023Y-91807393D01*
X114359427Y-91792395D01*
X114397172Y-91733644D01*
X114398541Y-91732457D01*
X114453420Y-91704977D01*
X114460979Y-91703333D01*
X114487332Y-91700500D01*
X116307670Y-91700500D01*
X116342606Y-91705523D01*
G37*
%TD.AperFunction*%
%TD*%
%TA.AperFunction,Conductor*%
%TO.N,3.3V_AUX*%
G36*
X102483430Y-91755400D02*
G01*
X102489075Y-91762351D01*
X102489562Y-91765690D01*
X102489562Y-91948211D01*
X102489027Y-91951708D01*
X102086863Y-93235680D01*
X102081120Y-93242551D01*
X102072305Y-93243380D01*
X101274995Y-93001816D01*
X101268071Y-92996138D01*
X101267188Y-92994003D01*
X101026655Y-92197845D01*
X101027543Y-92188934D01*
X101034468Y-92183262D01*
X102474525Y-91754477D01*
X102483430Y-91755400D01*
G37*
%TD.AperFunction*%
%TD*%
%TA.AperFunction,Conductor*%
%TO.N,/OLED_SCL*%
G36*
X98718648Y-93006539D02*
G01*
X98724332Y-93013458D01*
X98724332Y-93020264D01*
X98486355Y-93803209D01*
X98480671Y-93810128D01*
X98472823Y-93811270D01*
X98110016Y-93737271D01*
X98104081Y-93734080D01*
X97995919Y-93625918D01*
X97992729Y-93619985D01*
X97918729Y-93257175D01*
X97920433Y-93248385D01*
X97926787Y-93243645D01*
X98709736Y-93005667D01*
X98718648Y-93006539D01*
G37*
%TD.AperFunction*%
%TD*%
%TA.AperFunction,Conductor*%
%TO.N,/OLED_SDA*%
G36*
X96198223Y-93007325D02*
G01*
X96198323Y-93007425D01*
X96777328Y-93593527D01*
X96780705Y-93601821D01*
X96777784Y-93609484D01*
X96273494Y-94181941D01*
X96265454Y-94185884D01*
X96264715Y-94185907D01*
X96115285Y-94185907D01*
X96107012Y-94182480D01*
X96106506Y-94181941D01*
X95602214Y-93609482D01*
X95599317Y-93601011D01*
X95602670Y-93593528D01*
X96181677Y-93007424D01*
X96189929Y-93003948D01*
X96198223Y-93007325D01*
G37*
%TD.AperFunction*%
%TD*%
M02*
