%TF.GenerationSoftware,KiCad,Pcbnew,8.0.0*%
%TF.CreationDate,2024-03-12T22:02:48+01:00*%
%TF.ProjectId,projet s6,70726f6a-6574-4207-9336-2e6b69636164,rev?*%
%TF.SameCoordinates,Original*%
%TF.FileFunction,Paste,Top*%
%TF.FilePolarity,Positive*%
%FSLAX46Y46*%
G04 Gerber Fmt 4.6, Leading zero omitted, Abs format (unit mm)*
G04 Created by KiCad (PCBNEW 8.0.0) date 2024-03-12 22:02:48*
%MOMM*%
%LPD*%
G01*
G04 APERTURE LIST*
G04 Aperture macros list*
%AMRoundRect*
0 Rectangle with rounded corners*
0 $1 Rounding radius*
0 $2 $3 $4 $5 $6 $7 $8 $9 X,Y pos of 4 corners*
0 Add a 4 corners polygon primitive as box body*
4,1,4,$2,$3,$4,$5,$6,$7,$8,$9,$2,$3,0*
0 Add four circle primitives for the rounded corners*
1,1,$1+$1,$2,$3*
1,1,$1+$1,$4,$5*
1,1,$1+$1,$6,$7*
1,1,$1+$1,$8,$9*
0 Add four rect primitives between the rounded corners*
20,1,$1+$1,$2,$3,$4,$5,0*
20,1,$1+$1,$4,$5,$6,$7,0*
20,1,$1+$1,$6,$7,$8,$9,0*
20,1,$1+$1,$8,$9,$2,$3,0*%
%AMRotRect*
0 Rectangle, with rotation*
0 The origin of the aperture is its center*
0 $1 length*
0 $2 width*
0 $3 Rotation angle, in degrees counterclockwise*
0 Add horizontal line*
21,1,$1,$2,0,0,$3*%
%AMOutline4P*
0 Free polygon, 4 corners , with rotation*
0 The origin of the aperture is its center*
0 number of corners: always 4*
0 $1 to $8 corner X, Y*
0 $9 Rotation angle, in degrees counterclockwise*
0 create outline with 4 corners*
4,1,4,$1,$2,$3,$4,$5,$6,$7,$8,$1,$2,$9*%
%AMOutline5P*
0 Free polygon, 5 corners , with rotation*
0 The origin of the aperture is its center*
0 number of corners: always 5*
0 $1 to $10 corner X, Y*
0 $11 Rotation angle, in degrees counterclockwise*
0 create outline with 5 corners*
4,1,5,$1,$2,$3,$4,$5,$6,$7,$8,$9,$10,$1,$2,$11*%
%AMOutline6P*
0 Free polygon, 6 corners , with rotation*
0 The origin of the aperture is its center*
0 number of corners: always 6*
0 $1 to $12 corner X, Y*
0 $13 Rotation angle, in degrees counterclockwise*
0 create outline with 6 corners*
4,1,6,$1,$2,$3,$4,$5,$6,$7,$8,$9,$10,$11,$12,$1,$2,$13*%
%AMOutline7P*
0 Free polygon, 7 corners , with rotation*
0 The origin of the aperture is its center*
0 number of corners: always 7*
0 $1 to $14 corner X, Y*
0 $15 Rotation angle, in degrees counterclockwise*
0 create outline with 7 corners*
4,1,7,$1,$2,$3,$4,$5,$6,$7,$8,$9,$10,$11,$12,$13,$14,$1,$2,$15*%
%AMOutline8P*
0 Free polygon, 8 corners , with rotation*
0 The origin of the aperture is its center*
0 number of corners: always 8*
0 $1 to $16 corner X, Y*
0 $17 Rotation angle, in degrees counterclockwise*
0 create outline with 8 corners*
4,1,8,$1,$2,$3,$4,$5,$6,$7,$8,$9,$10,$11,$12,$13,$14,$15,$16,$1,$2,$17*%
G04 Aperture macros list end*
%ADD10R,0.325000X0.250000*%
%ADD11R,0.250000X0.325000*%
%ADD12Outline5P,-0.207500X0.150000X0.057500X0.150000X0.207500X0.000000X0.207500X-0.150000X-0.207500X-0.150000X180.000000*%
%ADD13Outline5P,-0.207500X0.150000X0.207500X0.150000X0.207500X0.000000X0.057500X-0.150000X-0.207500X-0.150000X180.000000*%
%ADD14RotRect,0.500000X0.500000X225.000000*%
%ADD15Outline5P,-0.207500X0.150000X0.207500X0.150000X0.207500X-0.150000X-0.057500X-0.150000X-0.207500X0.000000X180.000000*%
%ADD16Outline5P,-0.207500X0.000000X-0.057500X0.150000X0.207500X0.150000X0.207500X-0.150000X-0.207500X-0.150000X180.000000*%
%ADD17RoundRect,0.067500X-0.137500X-0.067500X0.137500X-0.067500X0.137500X0.067500X-0.137500X0.067500X0*%
%ADD18RoundRect,0.067500X0.137500X0.067500X-0.137500X0.067500X-0.137500X-0.067500X0.137500X-0.067500X0*%
%ADD19RoundRect,0.067500X0.067500X-0.137500X0.067500X0.137500X-0.067500X0.137500X-0.067500X-0.137500X0*%
%ADD20RoundRect,0.232500X-0.232500X-0.232500X0.232500X-0.232500X0.232500X0.232500X-0.232500X0.232500X0*%
%ADD21RoundRect,0.062500X-0.375000X-0.062500X0.375000X-0.062500X0.375000X0.062500X-0.375000X0.062500X0*%
%ADD22RoundRect,0.062500X-0.062500X-0.375000X0.062500X-0.375000X0.062500X0.375000X-0.062500X0.375000X0*%
%ADD23RoundRect,0.067500X-0.067500X0.137500X-0.067500X-0.137500X0.067500X-0.137500X0.067500X0.137500X0*%
%ADD24RoundRect,0.090000X0.090000X-0.139000X0.090000X0.139000X-0.090000X0.139000X-0.090000X-0.139000X0*%
%ADD25R,0.250000X0.799999*%
%ADD26R,1.420000X0.610000*%
%ADD27Outline5P,-0.650000X0.750000X0.650000X0.750000X0.650000X-0.750000X0.000000X-0.750000X-0.650000X-0.100000X90.000000*%
%ADD28R,1.100000X3.600000*%
%ADD29RoundRect,0.250000X-0.475000X0.337500X-0.475000X-0.337500X0.475000X-0.337500X0.475000X0.337500X0*%
%ADD30R,0.500000X0.350000*%
%ADD31R,0.340000X0.330000*%
%ADD32Outline4P,-0.450000X-0.220000X0.450000X-0.220000X0.450000X0.220000X-0.450000X0.220000X90.000000*%
%ADD33R,1.500000X0.550000*%
G04 APERTURE END LIST*
D10*
%TO.C,IC1*%
X199257000Y-80630000D03*
X199257000Y-81130000D03*
X199257000Y-81630000D03*
X199257000Y-82130000D03*
D11*
X199770000Y-82643000D03*
X200270000Y-82643000D03*
X200770000Y-82643000D03*
X201270000Y-82643000D03*
D10*
X201783000Y-82130000D03*
X201783000Y-81630000D03*
X201783000Y-81130000D03*
X201783000Y-80630000D03*
D11*
X201270000Y-80117000D03*
X200770000Y-80117000D03*
X200270000Y-80117000D03*
X199770000Y-80117000D03*
%TD*%
D12*
%TO.C,U3*%
X194752500Y-79875000D03*
D13*
X194752500Y-80585000D03*
D14*
X194360000Y-80230000D03*
D15*
X193967500Y-80585000D03*
D16*
X193967500Y-79875000D03*
%TD*%
D17*
%TO.C,C14*%
X193907500Y-81260000D03*
X194632500Y-81260000D03*
%TD*%
D18*
%TO.C,R9*%
X197512500Y-80030000D03*
X196787500Y-80030000D03*
%TD*%
D19*
%TO.C,R1*%
X176440000Y-78062500D03*
X176440000Y-77337500D03*
%TD*%
D20*
%TO.C,U1*%
X196800000Y-72780000D03*
X196800000Y-73930000D03*
X196800000Y-75080000D03*
X197950000Y-72780000D03*
X197950000Y-73930000D03*
X197950000Y-75080000D03*
X199100000Y-72780000D03*
X199100000Y-73930000D03*
X199100000Y-75080000D03*
D21*
X195512500Y-72180000D03*
X195512500Y-72680000D03*
X195512500Y-73180000D03*
X195512500Y-73680000D03*
X195512500Y-74180000D03*
X195512500Y-74680000D03*
X195512500Y-75180000D03*
X195512500Y-75680000D03*
D22*
X196200000Y-76367500D03*
X196700000Y-76367500D03*
X197200000Y-76367500D03*
X197700000Y-76367500D03*
X198200000Y-76367500D03*
X198700000Y-76367500D03*
X199200000Y-76367500D03*
X199700000Y-76367500D03*
D21*
X200387500Y-75680000D03*
X200387500Y-75180000D03*
X200387500Y-74680000D03*
X200387500Y-74180000D03*
X200387500Y-73680000D03*
X200387500Y-73180000D03*
X200387500Y-72680000D03*
X200387500Y-72180000D03*
D22*
X199700000Y-71492500D03*
X199200000Y-71492500D03*
X198700000Y-71492500D03*
X198200000Y-71492500D03*
X197700000Y-71492500D03*
X197200000Y-71492500D03*
X196700000Y-71492500D03*
X196200000Y-71492500D03*
%TD*%
D18*
%TO.C,C3*%
X202292500Y-75680000D03*
X201567500Y-75680000D03*
%TD*%
%TO.C,R4*%
X177902500Y-73420000D03*
X177177500Y-73420000D03*
%TD*%
%TO.C,R7*%
X193722500Y-76730000D03*
X192997500Y-76730000D03*
%TD*%
D23*
%TO.C,C15*%
X195420000Y-79977500D03*
X195420000Y-80702500D03*
%TD*%
D18*
%TO.C,R8*%
X201472500Y-78530000D03*
X200747500Y-78530000D03*
%TD*%
D24*
%TO.C,D1*%
X175110000Y-72762500D03*
X175110000Y-71897500D03*
%TD*%
D17*
%TO.C,C1*%
X174837500Y-77410000D03*
X175562500Y-77410000D03*
%TD*%
%TO.C,R6*%
X193017500Y-75880000D03*
X193742500Y-75880000D03*
%TD*%
%TO.C,C9*%
X182937500Y-71290000D03*
X183662500Y-71290000D03*
%TD*%
D19*
%TO.C,C10*%
X180670000Y-71552500D03*
X180670000Y-70827500D03*
%TD*%
D18*
%TO.C,C12*%
X197522500Y-81940000D03*
X196797500Y-81940000D03*
%TD*%
%TO.C,R5*%
X177902500Y-76440000D03*
X177177500Y-76440000D03*
%TD*%
D25*
%TO.C,U2*%
X175620000Y-74179998D03*
X175120001Y-74179998D03*
X174620002Y-74179998D03*
X174620002Y-76080000D03*
X175120001Y-76080000D03*
X175620000Y-76080000D03*
D26*
X175120001Y-75129999D03*
%TD*%
D23*
%TO.C,R10*%
X185750000Y-67420000D03*
X185750000Y-68145000D03*
%TD*%
D18*
%TO.C,R2*%
X175550000Y-78130000D03*
X174825000Y-78130000D03*
%TD*%
D19*
%TO.C,R3*%
X175910000Y-72732500D03*
X175910000Y-72007500D03*
%TD*%
D27*
%TO.C,BT1*%
X174705000Y-66039012D03*
D28*
X178495000Y-67189012D03*
%TD*%
D17*
%TO.C,R11*%
X192550000Y-67450000D03*
X193275000Y-67450000D03*
%TD*%
D29*
%TO.C,C13*%
X204970000Y-80512500D03*
X204970000Y-82587500D03*
%TD*%
D18*
%TO.C,C4*%
X202282500Y-76350000D03*
X201557500Y-76350000D03*
%TD*%
D23*
%TO.C,R14*%
X185610000Y-76230000D03*
X185610000Y-76955000D03*
%TD*%
D17*
%TO.C,C2*%
X193317500Y-74470000D03*
X194042500Y-74470000D03*
%TD*%
D18*
%TO.C,C6*%
X195932500Y-70410000D03*
X195207500Y-70410000D03*
%TD*%
D30*
%TO.C,Q1*%
X184810000Y-76255000D03*
X184810000Y-76905000D03*
D31*
X183730000Y-76580000D03*
D32*
X184120000Y-76580000D03*
%TD*%
D17*
%TO.C,C5*%
X193307500Y-75180000D03*
X194032500Y-75180000D03*
%TD*%
%TO.C,C7*%
X193047500Y-73760000D03*
X193772500Y-73760000D03*
%TD*%
D33*
%TO.C,SW5*%
X193420000Y-69835000D03*
X193420000Y-73085000D03*
%TD*%
D17*
%TO.C,C8*%
X182977500Y-70470000D03*
X183702500Y-70470000D03*
%TD*%
D23*
%TO.C,C11*%
X203520000Y-81967500D03*
X203520000Y-82692500D03*
%TD*%
M02*
