%TF.GenerationSoftware,KiCad,Pcbnew,8.0.0*%
%TF.CreationDate,2024-03-12T22:02:49+01:00*%
%TF.ProjectId,projet s6,70726f6a-6574-4207-9336-2e6b69636164,rev?*%
%TF.SameCoordinates,Original*%
%TF.FileFunction,Soldermask,Bot*%
%TF.FilePolarity,Negative*%
%FSLAX46Y46*%
G04 Gerber Fmt 4.6, Leading zero omitted, Abs format (unit mm)*
G04 Created by KiCad (PCBNEW 8.0.0) date 2024-03-12 22:02:49*
%MOMM*%
%LPD*%
G01*
G04 APERTURE LIST*
%ADD10R,1.700000X1.700000*%
%ADD11O,1.700000X1.700000*%
%ADD12C,1.000000*%
%ADD13R,1.650000X1.050000*%
%ADD14R,1.100000X0.500000*%
%ADD15C,1.600000*%
%ADD16R,1.200000X0.800000*%
%ADD17R,0.700000X1.600000*%
%ADD18R,0.700000X1.500000*%
%ADD19R,1.000000X0.800000*%
%ADD20C,0.650000*%
%ADD21R,1.150000X0.600000*%
%ADD22R,1.150000X0.300000*%
%ADD23R,2.000000X2.180000*%
G04 APERTURE END LIST*
D10*
%TO.C,J2*%
X196150000Y-67250000D03*
D11*
X198690000Y-67250000D03*
X201230000Y-67250000D03*
X203770000Y-67250000D03*
%TD*%
D12*
%TO.C,TP5*%
X174910000Y-82900000D03*
%TD*%
%TO.C,TP9*%
X206550000Y-74140000D03*
%TD*%
%TO.C,TP11*%
X206570000Y-72030000D03*
%TD*%
%TO.C,TP7*%
X206570000Y-76240000D03*
%TD*%
%TO.C,TP8*%
X206590000Y-67840000D03*
%TD*%
%TO.C,TP1*%
X177040000Y-82950000D03*
%TD*%
%TO.C,TP10*%
X206610000Y-69910000D03*
%TD*%
D13*
%TO.C,SW1*%
X187300000Y-65990000D03*
D14*
X189225000Y-68415000D03*
D13*
X191150000Y-65990000D03*
X187300000Y-67440000D03*
X191150000Y-67440000D03*
%TD*%
D15*
%TO.C,PA1010D1*%
X186490000Y-73850000D03*
D16*
X191340000Y-70500000D03*
X191340000Y-72100000D03*
X191340000Y-75000000D03*
X191340000Y-76600000D03*
X191340000Y-78200000D03*
X181640000Y-78200000D03*
X181640000Y-76600000D03*
X181640000Y-75000000D03*
X181640000Y-72100000D03*
X181640000Y-70500000D03*
%TD*%
D12*
%TO.C,SW6*%
X188615000Y-82417500D03*
X185615000Y-82417500D03*
D17*
X184865000Y-80667500D03*
D18*
X186365000Y-80667500D03*
X189365000Y-80667500D03*
D19*
X190765000Y-83382500D03*
X190765000Y-81452500D03*
X183465000Y-83382500D03*
X183465000Y-81452500D03*
%TD*%
D13*
%TO.C,SW2*%
X180450000Y-65940000D03*
D14*
X182375000Y-68365000D03*
D13*
X184300000Y-65940000D03*
X180450000Y-67390000D03*
X184300000Y-67390000D03*
%TD*%
D20*
%TO.C,J1*%
X178345000Y-78045000D03*
X178345000Y-72265000D03*
D21*
X179420000Y-78355000D03*
X179420000Y-71955000D03*
X179420000Y-77555000D03*
X179420000Y-72755000D03*
D22*
X179420000Y-76405000D03*
X179420000Y-75405000D03*
X179420000Y-74905000D03*
X179420000Y-73905000D03*
X179420000Y-73405000D03*
X179420000Y-74405000D03*
X179420000Y-75905000D03*
X179420000Y-76905000D03*
D23*
X174915000Y-80265000D03*
X178845000Y-80265000D03*
X174915000Y-70045000D03*
X178845000Y-70045000D03*
%TD*%
M02*
