%TF.GenerationSoftware,KiCad,Pcbnew,8.0.5*%
%TF.CreationDate,2024-10-05T23:36:15+02:00*%
%TF.ProjectId,projet s6,70726f6a-6574-4207-9336-2e6b69636164,rev?*%
%TF.SameCoordinates,Original*%
%TF.FileFunction,Copper,L1,Top*%
%TF.FilePolarity,Positive*%
%FSLAX46Y46*%
G04 Gerber Fmt 4.6, Leading zero omitted, Abs format (unit mm)*
G04 Created by KiCad (PCBNEW 8.0.5) date 2024-10-05 23:36:15*
%MOMM*%
%LPD*%
G01*
G04 APERTURE LIST*
G04 Aperture macros list*
%AMRoundRect*
0 Rectangle with rounded corners*
0 $1 Rounding radius*
0 $2 $3 $4 $5 $6 $7 $8 $9 X,Y pos of 4 corners*
0 Add a 4 corners polygon primitive as box body*
4,1,4,$2,$3,$4,$5,$6,$7,$8,$9,$2,$3,0*
0 Add four circle primitives for the rounded corners*
1,1,$1+$1,$2,$3*
1,1,$1+$1,$4,$5*
1,1,$1+$1,$6,$7*
1,1,$1+$1,$8,$9*
0 Add four rect primitives between the rounded corners*
20,1,$1+$1,$2,$3,$4,$5,0*
20,1,$1+$1,$4,$5,$6,$7,0*
20,1,$1+$1,$6,$7,$8,$9,0*
20,1,$1+$1,$8,$9,$2,$3,0*%
%AMRotRect*
0 Rectangle, with rotation*
0 The origin of the aperture is its center*
0 $1 length*
0 $2 width*
0 $3 Rotation angle, in degrees counterclockwise*
0 Add horizontal line*
21,1,$1,$2,0,0,$3*%
%AMOutline4P*
0 Free polygon, 4 corners , with rotation*
0 The origin of the aperture is its center*
0 number of corners: always 4*
0 $1 to $8 corner X, Y*
0 $9 Rotation angle, in degrees counterclockwise*
0 create outline with 4 corners*
4,1,4,$1,$2,$3,$4,$5,$6,$7,$8,$1,$2,$9*%
%AMOutline5P*
0 Free polygon, 5 corners , with rotation*
0 The origin of the aperture is its center*
0 number of corners: always 5*
0 $1 to $10 corner X, Y*
0 $11 Rotation angle, in degrees counterclockwise*
0 create outline with 5 corners*
4,1,5,$1,$2,$3,$4,$5,$6,$7,$8,$9,$10,$1,$2,$11*%
%AMOutline6P*
0 Free polygon, 6 corners , with rotation*
0 The origin of the aperture is its center*
0 number of corners: always 6*
0 $1 to $12 corner X, Y*
0 $13 Rotation angle, in degrees counterclockwise*
0 create outline with 6 corners*
4,1,6,$1,$2,$3,$4,$5,$6,$7,$8,$9,$10,$11,$12,$1,$2,$13*%
%AMOutline7P*
0 Free polygon, 7 corners , with rotation*
0 The origin of the aperture is its center*
0 number of corners: always 7*
0 $1 to $14 corner X, Y*
0 $15 Rotation angle, in degrees counterclockwise*
0 create outline with 7 corners*
4,1,7,$1,$2,$3,$4,$5,$6,$7,$8,$9,$10,$11,$12,$13,$14,$1,$2,$15*%
%AMOutline8P*
0 Free polygon, 8 corners , with rotation*
0 The origin of the aperture is its center*
0 number of corners: always 8*
0 $1 to $16 corner X, Y*
0 $17 Rotation angle, in degrees counterclockwise*
0 create outline with 8 corners*
4,1,8,$1,$2,$3,$4,$5,$6,$7,$8,$9,$10,$11,$12,$13,$14,$15,$16,$1,$2,$17*%
G04 Aperture macros list end*
%ADD10C,0.300000*%
%TA.AperFunction,NonConductor*%
%ADD11C,0.300000*%
%TD*%
%TA.AperFunction,ComponentPad*%
%ADD12C,1.500000*%
%TD*%
%TA.AperFunction,ComponentPad*%
%ADD13O,1.800000X1.000000*%
%TD*%
%TA.AperFunction,ComponentPad*%
%ADD14O,2.100000X1.000000*%
%TD*%
%TA.AperFunction,SMDPad,CuDef*%
%ADD15Outline5P,-0.207500X0.150000X0.207500X0.150000X0.207500X0.000000X0.057500X-0.150000X-0.207500X-0.150000X270.000000*%
%TD*%
%TA.AperFunction,SMDPad,CuDef*%
%ADD16Outline5P,-0.207500X0.150000X0.057500X0.150000X0.207500X0.000000X0.207500X-0.150000X-0.207500X-0.150000X270.000000*%
%TD*%
%TA.AperFunction,SMDPad,CuDef*%
%ADD17RotRect,0.500000X0.500000X315.000000*%
%TD*%
%TA.AperFunction,SMDPad,CuDef*%
%ADD18Outline5P,-0.207500X0.000000X-0.057500X0.150000X0.207500X0.150000X0.207500X-0.150000X-0.207500X-0.150000X270.000000*%
%TD*%
%TA.AperFunction,SMDPad,CuDef*%
%ADD19Outline5P,-0.207500X0.150000X0.207500X0.150000X0.207500X-0.150000X-0.057500X-0.150000X-0.207500X0.000000X270.000000*%
%TD*%
%TA.AperFunction,SMDPad,CuDef*%
%ADD20RoundRect,0.155000X-0.155000X0.212500X-0.155000X-0.212500X0.155000X-0.212500X0.155000X0.212500X0*%
%TD*%
%TA.AperFunction,SMDPad,CuDef*%
%ADD21RoundRect,0.160000X0.197500X0.160000X-0.197500X0.160000X-0.197500X-0.160000X0.197500X-0.160000X0*%
%TD*%
%TA.AperFunction,SMDPad,CuDef*%
%ADD22RoundRect,0.062500X-0.375000X-0.062500X0.375000X-0.062500X0.375000X0.062500X-0.375000X0.062500X0*%
%TD*%
%TA.AperFunction,SMDPad,CuDef*%
%ADD23RoundRect,0.062500X-0.062500X-0.375000X0.062500X-0.375000X0.062500X0.375000X-0.062500X0.375000X0*%
%TD*%
%TA.AperFunction,HeatsinkPad*%
%ADD24R,3.450000X3.450000*%
%TD*%
%TA.AperFunction,SMDPad,CuDef*%
%ADD25RoundRect,0.155000X0.212500X0.155000X-0.212500X0.155000X-0.212500X-0.155000X0.212500X-0.155000X0*%
%TD*%
%TA.AperFunction,SMDPad,CuDef*%
%ADD26RoundRect,0.160000X-0.197500X-0.160000X0.197500X-0.160000X0.197500X0.160000X-0.197500X0.160000X0*%
%TD*%
%TA.AperFunction,SMDPad,CuDef*%
%ADD27RoundRect,0.160000X0.160000X-0.197500X0.160000X0.197500X-0.160000X0.197500X-0.160000X-0.197500X0*%
%TD*%
%TA.AperFunction,SMDPad,CuDef*%
%ADD28RoundRect,0.150000X0.512500X0.150000X-0.512500X0.150000X-0.512500X-0.150000X0.512500X-0.150000X0*%
%TD*%
%TA.AperFunction,SMDPad,CuDef*%
%ADD29RoundRect,0.100000X-0.100000X0.217500X-0.100000X-0.217500X0.100000X-0.217500X0.100000X0.217500X0*%
%TD*%
%TA.AperFunction,SMDPad,CuDef*%
%ADD30RoundRect,0.155000X0.155000X-0.212500X0.155000X0.212500X-0.155000X0.212500X-0.155000X-0.212500X0*%
%TD*%
%TA.AperFunction,SMDPad,CuDef*%
%ADD31R,0.550000X1.500000*%
%TD*%
%TA.AperFunction,SMDPad,CuDef*%
%ADD32RoundRect,0.155000X-0.212500X-0.155000X0.212500X-0.155000X0.212500X0.155000X-0.212500X0.155000X0*%
%TD*%
%TA.AperFunction,SMDPad,CuDef*%
%ADD33R,0.799999X0.250000*%
%TD*%
%TA.AperFunction,SMDPad,CuDef*%
%ADD34R,0.610000X1.420000*%
%TD*%
%TA.AperFunction,SMDPad,CuDef*%
%ADD35RoundRect,0.160000X-0.160000X0.197500X-0.160000X-0.197500X0.160000X-0.197500X0.160000X0.197500X0*%
%TD*%
%TA.AperFunction,SMDPad,CuDef*%
%ADD36R,1.050000X0.450000*%
%TD*%
%TA.AperFunction,SMDPad,CuDef*%
%ADD37R,3.450000X4.350000*%
%TD*%
%TA.AperFunction,SMDPad,CuDef*%
%ADD38Outline5P,-0.650000X0.750000X0.650000X0.750000X0.650000X-0.750000X0.000000X-0.750000X-0.650000X-0.100000X270.000000*%
%TD*%
%TA.AperFunction,SMDPad,CuDef*%
%ADD39R,1.100000X3.600000*%
%TD*%
%TA.AperFunction,SMDPad,CuDef*%
%ADD40R,0.500000X0.350000*%
%TD*%
%TA.AperFunction,SMDPad,CuDef*%
%ADD41R,0.340000X0.330000*%
%TD*%
%TA.AperFunction,SMDPad,CuDef*%
%ADD42Outline4P,-0.450000X-0.220000X0.450000X-0.220000X0.450000X0.220000X-0.450000X0.220000X90.000000*%
%TD*%
%TA.AperFunction,ComponentPad*%
%ADD43R,1.700000X1.700000*%
%TD*%
%TA.AperFunction,ComponentPad*%
%ADD44O,1.700000X1.700000*%
%TD*%
%TA.AperFunction,ComponentPad*%
%ADD45R,1.650000X1.050000*%
%TD*%
%TA.AperFunction,ViaPad*%
%ADD46C,0.400000*%
%TD*%
%TA.AperFunction,Conductor*%
%ADD47C,0.150000*%
%TD*%
%TA.AperFunction,Conductor*%
%ADD48C,0.200000*%
%TD*%
G04 APERTURE END LIST*
D10*
D11*
X184284510Y-80809400D02*
X185427368Y-80809400D01*
X184855939Y-81380828D02*
X184855939Y-80237971D01*
D10*
D11*
X184244510Y-83009400D02*
X185387368Y-83009400D01*
D12*
%TO.P,TP1,1,1*%
%TO.N,GND*%
X182580000Y-82870000D03*
%TD*%
%TO.P,TP5,1,1*%
%TO.N,BAT+*%
X182610000Y-80680000D03*
%TD*%
D13*
%TO.P,J1,S1,SHIELD*%
%TO.N,GND*%
X206645000Y-69710000D03*
D14*
X202465000Y-69710000D03*
D13*
X206645000Y-78350000D03*
D14*
X202465000Y-78350000D03*
%TD*%
D15*
%TO.P,U3,1,VOUT*%
%TO.N,+3.3V*%
X192935000Y-80742500D03*
D16*
%TO.P,U3,2,GND*%
%TO.N,GND*%
X192225000Y-80742500D03*
D17*
X192580000Y-81135000D03*
D18*
%TO.P,U3,3,EN*%
%TO.N,vbat*%
X192225000Y-81527500D03*
D19*
%TO.P,U3,4,VIN*%
X192935000Y-81527500D03*
%TD*%
D20*
%TO.P,C14,1*%
%TO.N,vbat*%
X190980000Y-82302500D03*
%TO.P,C14,2*%
%TO.N,GND*%
X190980000Y-83437500D03*
%TD*%
D21*
%TO.P,R1,1*%
%TO.N,GND*%
X190017500Y-76000000D03*
%TO.P,R1,2*%
%TO.N,Net-(U2-PROG)*%
X188822500Y-76000000D03*
%TD*%
D22*
%TO.P,U1,1,VDD*%
%TO.N,+3.3V*%
X193692500Y-72410000D03*
%TO.P,U1,2,PC14*%
%TO.N,OSC32_IN*%
X193692500Y-72910000D03*
%TO.P,U1,3,PC15*%
%TO.N,OSC32_OUT*%
X193692500Y-73410000D03*
%TO.P,U1,4,NRST*%
%TO.N,Net-(U1-NRST)*%
X193692500Y-73910000D03*
%TO.P,U1,5,VDDA*%
%TO.N,+3.3V*%
X193692500Y-74410000D03*
%TO.P,U1,6,PA0*%
%TO.N,unconnected-(U1-PA0-Pad6)*%
X193692500Y-74910000D03*
%TO.P,U1,7,PA1*%
%TO.N,ALIMGPS*%
X193692500Y-75410000D03*
%TO.P,U1,8,PA2*%
%TO.N,GPSRX*%
X193692500Y-75910000D03*
D23*
%TO.P,U1,9,PA3*%
%TO.N,GPSTX*%
X194380000Y-76597500D03*
%TO.P,U1,10,PA4*%
%TO.N,Net-(U1-PA4)*%
X194880000Y-76597500D03*
%TO.P,U1,11,PA5*%
%TO.N,SPI_SCK*%
X195380000Y-76597500D03*
%TO.P,U1,12,PA6*%
%TO.N,SPI_MISO*%
X195880000Y-76597500D03*
%TO.P,U1,13,PA7*%
%TO.N,OLED_SCL*%
X196380000Y-76597500D03*
%TO.P,U1,14,PB0*%
%TO.N,SPI_CS*%
X196880000Y-76597500D03*
%TO.P,U1,15,PB1*%
%TO.N,B2*%
X197380000Y-76597500D03*
%TO.P,U1,16,VSS*%
%TO.N,GND*%
X197880000Y-76597500D03*
D22*
%TO.P,U1,17,VDD*%
%TO.N,+3.3V*%
X198567500Y-75910000D03*
%TO.P,U1,18,PA8*%
%TO.N,B1*%
X198567500Y-75410000D03*
%TO.P,U1,19,PA9*%
%TO.N,COMPASSCL*%
X198567500Y-74910000D03*
%TO.P,U1,20,PA10*%
%TO.N,COMPASSDA*%
X198567500Y-74410000D03*
%TO.P,U1,21,PA11*%
%TO.N,D-*%
X198567500Y-73910000D03*
%TO.P,U1,22,PA12*%
%TO.N,D+*%
X198567500Y-73410000D03*
%TO.P,U1,23,PA13*%
%TO.N,SWDIO*%
X198567500Y-72910000D03*
%TO.P,U1,24,PA14*%
%TO.N,SWCLK*%
X198567500Y-72410000D03*
D23*
%TO.P,U1,25,PA15*%
%TO.N,unconnected-(U1-PA15-Pad25)*%
X197880000Y-71722500D03*
%TO.P,U1,26,PB3*%
%TO.N,SWO*%
X197380000Y-71722500D03*
%TO.P,U1,27,PB4*%
%TO.N,OLED_SDA*%
X196880000Y-71722500D03*
%TO.P,U1,28,PB5*%
%TO.N,SPI_MOSi*%
X196380000Y-71722500D03*
%TO.P,U1,29,PB6*%
%TO.N,USART_TX*%
X195880000Y-71722500D03*
%TO.P,U1,30,PB7*%
%TO.N,USART_RX*%
X195380000Y-71722500D03*
%TO.P,U1,31,PH3*%
%TO.N,Net-(U1-PH3)*%
X194880000Y-71722500D03*
%TO.P,U1,32,VSS*%
%TO.N,GND*%
X194380000Y-71722500D03*
D24*
%TO.P,U1,33,VSS*%
X196130000Y-74160000D03*
%TD*%
D25*
%TO.P,C3,1*%
%TO.N,GND*%
X200917500Y-75890000D03*
%TO.P,C3,2*%
%TO.N,+3.3V*%
X199782500Y-75890000D03*
%TD*%
%TO.P,C13,1*%
%TO.N,+3.3V*%
X193367500Y-83370000D03*
%TO.P,C13,2*%
%TO.N,GND*%
X192232500Y-83370000D03*
%TD*%
D26*
%TO.P,R4,1*%
%TO.N,Net-(J1-CC2)*%
X204712500Y-76250000D03*
%TO.P,R4,2*%
%TO.N,GND*%
X205907500Y-76250000D03*
%TD*%
D27*
%TO.P,R15,1*%
%TO.N,Net-(U1-PH3)*%
X194180000Y-67317500D03*
%TO.P,R15,2*%
%TO.N,GND*%
X194180000Y-66122500D03*
%TD*%
D21*
%TO.P,R7,1*%
%TO.N,GPSTX*%
X192430000Y-77450000D03*
%TO.P,R7,2*%
%TO.N,Net-(PA1010D1-TX)*%
X191235000Y-77450000D03*
%TD*%
D25*
%TO.P,C15,1*%
%TO.N,+3.3V*%
X193167500Y-79960000D03*
%TO.P,C15,2*%
%TO.N,GND*%
X192032500Y-79960000D03*
%TD*%
D28*
%TO.P,U4,1,I/O1*%
%TO.N,Net-(J1-D--PadA7)*%
X204867500Y-74750000D03*
%TO.P,U4,2,GND*%
%TO.N,GND*%
X204867500Y-73800000D03*
%TO.P,U4,3,I/O2*%
%TO.N,Net-(J1-D+-PadA6)*%
X204867500Y-72850000D03*
%TO.P,U4,4,I/O2*%
%TO.N,D+*%
X202592500Y-72850000D03*
%TO.P,U4,5,VBUS*%
%TO.N,vusb*%
X202592500Y-73800000D03*
%TO.P,U4,6,I/O1*%
%TO.N,D-*%
X202592500Y-74750000D03*
%TD*%
D27*
%TO.P,R8,1*%
%TO.N,SPI_CS*%
X202260000Y-82917500D03*
%TO.P,R8,2*%
%TO.N,+3.3V*%
X202260000Y-81722500D03*
%TD*%
D26*
%TO.P,R9,1*%
%TO.N,Net-(U1-PA4)*%
X190972500Y-79000000D03*
%TO.P,R9,2*%
%TO.N,GND*%
X192167500Y-79000000D03*
%TD*%
D29*
%TO.P,D1,1,K*%
%TO.N,Net-(D1-K)*%
X184430000Y-77872500D03*
%TO.P,D1,2,A*%
%TO.N,Net-(D1-A)*%
X184430000Y-78687500D03*
%TD*%
D30*
%TO.P,C1,1*%
%TO.N,vusb*%
X188830000Y-78217500D03*
%TO.P,C1,2*%
%TO.N,Net-(C1-Pad2)*%
X188830000Y-77082500D03*
%TD*%
D26*
%TO.P,R6,1*%
%TO.N,Net-(PA1010D1-RX)*%
X191205000Y-76440000D03*
%TO.P,R6,2*%
%TO.N,GPSRX*%
X192400000Y-76440000D03*
%TD*%
D30*
%TO.P,C16,1*%
%TO.N,B1*%
X192840000Y-69817500D03*
%TO.P,C16,2*%
%TO.N,GND*%
X192840000Y-68682500D03*
%TD*%
D27*
%TO.P,R16,1*%
%TO.N,vbat*%
X190990000Y-81227500D03*
%TO.P,R16,2*%
%TO.N,Net-(U1-PA4)*%
X190990000Y-80032500D03*
%TD*%
D31*
%TO.P,SW7,1,1*%
%TO.N,Net-(U1-PH3)*%
X196290000Y-69855000D03*
%TO.P,SW7,2,2*%
%TO.N,+3.3V*%
X199540000Y-69855000D03*
%TD*%
D32*
%TO.P,C9,1*%
%TO.N,+3.3V*%
X182472500Y-70560000D03*
%TO.P,C9,2*%
%TO.N,GNDGPS*%
X183607500Y-70560000D03*
%TD*%
%TO.P,C10,1*%
%TO.N,Net-(BT1-+)*%
X182462500Y-72040000D03*
%TO.P,C10,2*%
%TO.N,GNDGPS*%
X183597500Y-72040000D03*
%TD*%
D27*
%TO.P,R5,1*%
%TO.N,Net-(J1-CC1)*%
X200490000Y-71937500D03*
%TO.P,R5,2*%
%TO.N,GND*%
X200490000Y-70742500D03*
%TD*%
D33*
%TO.P,U2,1,GND*%
%TO.N,GND*%
X185579999Y-76300001D03*
%TO.P,U2,2,\u002ACHRG*%
%TO.N,Net-(D1-K)*%
X185579999Y-76800000D03*
%TO.P,U2,3,BAT*%
%TO.N,BAT+*%
X185579999Y-77299999D03*
%TO.P,U2,4,VCC*%
%TO.N,vusb*%
X187480001Y-77299999D03*
%TO.P,U2,5,\u002AEN/\u002AACPR*%
%TO.N,GND*%
X187480001Y-76800000D03*
%TO.P,U2,6,PROG*%
%TO.N,Net-(U2-PROG)*%
X187480001Y-76300001D03*
D34*
%TO.P,U2,7,S*%
%TO.N,GND*%
X186530000Y-76800000D03*
%TD*%
D26*
%TO.P,R13,1*%
%TO.N,+3.3V*%
X182412500Y-68460000D03*
%TO.P,R13,2*%
%TO.N,Net-(R10-Pad1)*%
X183607500Y-68460000D03*
%TD*%
D35*
%TO.P,R10,1*%
%TO.N,Net-(R10-Pad1)*%
X183860000Y-65942500D03*
%TO.P,R10,2*%
%TO.N,B2*%
X183860000Y-67137500D03*
%TD*%
%TO.P,R2,1*%
%TO.N,Net-(C1-Pad2)*%
X189940000Y-77072500D03*
%TO.P,R2,2*%
%TO.N,GND*%
X189940000Y-78267500D03*
%TD*%
D21*
%TO.P,R3,1*%
%TO.N,vusb*%
X187537500Y-78730000D03*
%TO.P,R3,2*%
%TO.N,Net-(D1-A)*%
X186342500Y-78730000D03*
%TD*%
D36*
%TO.P,IC1,1,~{CS}*%
%TO.N,SPI_CS*%
X200420000Y-83082500D03*
%TO.P,IC1,2,DO_(IO1)*%
%TO.N,SPI_MISO*%
X200420000Y-81812500D03*
%TO.P,IC1,3,~{WP_(IO2)}*%
%TO.N,+3.3V*%
X200420000Y-80542500D03*
%TO.P,IC1,4,GND*%
%TO.N,GND*%
X200420000Y-79272500D03*
%TO.P,IC1,5,DI_(IO0)*%
%TO.N,SPI_MOSi*%
X194720000Y-79272500D03*
%TO.P,IC1,6,CLK*%
%TO.N,SPI_SCK*%
X194720000Y-80542500D03*
%TO.P,IC1,7,~{HOLD_OR_RESET_(IO3)}*%
%TO.N,+3.3V*%
X194720000Y-81812500D03*
%TO.P,IC1,8,VCC*%
X194720000Y-83082500D03*
D37*
%TO.P,IC1,9,EP*%
%TO.N,GND*%
X197570000Y-81177500D03*
%TD*%
D38*
%TO.P,BT1,1,+*%
%TO.N,Net-(BT1-+)*%
X188700000Y-71370000D03*
D39*
%TO.P,BT1,2,-*%
%TO.N,GNDGPS*%
X184910000Y-70220000D03*
%TD*%
D35*
%TO.P,R11,1*%
%TO.N,Net-(R11-Pad1)*%
X191820000Y-68642500D03*
%TO.P,R11,2*%
%TO.N,B1*%
X191820000Y-69837500D03*
%TD*%
D25*
%TO.P,C4,1*%
%TO.N,GND*%
X200917500Y-76840000D03*
%TO.P,C4,2*%
%TO.N,+3.3V*%
X199782500Y-76840000D03*
%TD*%
D35*
%TO.P,R14,1*%
%TO.N,ALIMGPS*%
X185360000Y-73662500D03*
%TO.P,R14,2*%
%TO.N,GND*%
X185360000Y-74857500D03*
%TD*%
D27*
%TO.P,R12,1*%
%TO.N,+3.3V*%
X189890000Y-69847500D03*
%TO.P,R12,2*%
%TO.N,Net-(R11-Pad1)*%
X189890000Y-68652500D03*
%TD*%
D32*
%TO.P,C2,1*%
%TO.N,GND*%
X191225000Y-74350000D03*
%TO.P,C2,2*%
%TO.N,+3.3V*%
X192360000Y-74350000D03*
%TD*%
D30*
%TO.P,C17,1*%
%TO.N,B2*%
X184840000Y-67117500D03*
%TO.P,C17,2*%
%TO.N,GND*%
X184840000Y-65982500D03*
%TD*%
D20*
%TO.P,C6,1*%
%TO.N,GND*%
X193930000Y-68622500D03*
%TO.P,C6,2*%
%TO.N,+3.3V*%
X193930000Y-69757500D03*
%TD*%
D40*
%TO.P,Q1,1,G*%
%TO.N,ALIMGPS*%
X184547500Y-73712500D03*
%TO.P,Q1,2,S*%
%TO.N,GND*%
X184547500Y-73062500D03*
D41*
%TO.P,Q1,3,D*%
%TO.N,GNDGPS*%
X183467500Y-73387500D03*
D42*
X183857500Y-73387500D03*
%TD*%
D32*
%TO.P,C5,1*%
%TO.N,GND*%
X191232500Y-75310000D03*
%TO.P,C5,2*%
%TO.N,+3.3V*%
X192367500Y-75310000D03*
%TD*%
%TO.P,C7,1*%
%TO.N,GND*%
X191272500Y-71640000D03*
%TO.P,C7,2*%
%TO.N,Net-(U1-NRST)*%
X192407500Y-71640000D03*
%TD*%
D31*
%TO.P,SW5,1,1*%
%TO.N,GND*%
X189130000Y-72985000D03*
%TO.P,SW5,2,2*%
%TO.N,Net-(U1-NRST)*%
X192380000Y-72985000D03*
%TD*%
D32*
%TO.P,C8,1*%
%TO.N,+3.3V*%
X182452500Y-69460000D03*
%TO.P,C8,2*%
%TO.N,GNDGPS*%
X183587500Y-69460000D03*
%TD*%
D20*
%TO.P,C18,1*%
%TO.N,GND*%
X195430000Y-69002500D03*
%TO.P,C18,2*%
%TO.N,Net-(U1-PH3)*%
X195430000Y-70137500D03*
%TD*%
D43*
%TO.P,J2,1,Pin_1*%
%TO.N,GND*%
X204070000Y-66970000D03*
D44*
%TO.P,J2,2,Pin_2*%
%TO.N,+3.3V*%
X201530000Y-66970000D03*
%TO.P,J2,3,Pin_3*%
%TO.N,OLED_SCL*%
X198990000Y-66970000D03*
%TO.P,J2,4,Pin_4*%
%TO.N,OLED_SDA*%
X196450000Y-66970000D03*
%TD*%
D45*
%TO.P,SW1,1,1*%
%TO.N,GND*%
X189070000Y-65930000D03*
X192920000Y-65930000D03*
%TD*%
%TO.P,SW2,1,1*%
%TO.N,GND*%
X182415000Y-65935000D03*
X186265000Y-65935000D03*
%TD*%
D46*
%TO.N,+3.3V*%
X193850000Y-71540000D03*
X193870000Y-71980000D03*
X202340000Y-80420000D03*
X199560000Y-69930000D03*
X193200000Y-74420000D03*
X199210000Y-77140000D03*
X181690000Y-68400000D03*
X202330000Y-79700000D03*
X192790000Y-78230000D03*
X198880000Y-69920000D03*
X189890000Y-69460000D03*
X192700000Y-74420000D03*
X199210000Y-69490000D03*
X182220000Y-70510000D03*
X181720000Y-70510000D03*
X192810000Y-74900000D03*
X192850000Y-78680000D03*
X193265953Y-78660289D03*
X181710000Y-69920000D03*
X181710000Y-68900000D03*
X193520000Y-80710000D03*
X193450000Y-71980000D03*
X194190000Y-70450000D03*
X192760000Y-75340000D03*
X193260000Y-78240000D03*
X193710000Y-70460000D03*
%TO.N,Net-(U1-NRST)*%
X200670000Y-68920001D03*
X200670000Y-68419998D03*
X192540000Y-73610000D03*
%TO.N,GNDGPS*%
X182510000Y-76570000D03*
X181810000Y-76570000D03*
%TO.N,Net-(BT1-+)*%
X182100000Y-72020000D03*
X188706280Y-71250688D03*
X188680000Y-71750000D03*
%TO.N,COMPASSCL*%
X199779999Y-75200000D03*
X203340000Y-80380000D03*
%TO.N,COMPASSDA*%
X199492500Y-74737500D03*
X204330000Y-80350000D03*
%TO.N,Net-(J1-CC2)*%
X202300000Y-75780000D03*
%TO.N,Net-(J1-CC1)*%
X200980000Y-72560000D03*
%TO.N,OLED_SCL*%
X196380000Y-77150000D03*
X198030000Y-70580000D03*
%TO.N,Net-(PA1010D1-TX)*%
X191820000Y-76920000D03*
%TO.N,Net-(PA1010D1-RX)*%
X190830000Y-76460000D03*
%TO.N,B2*%
X197380000Y-77140000D03*
X186270000Y-72710000D03*
%TO.N,B1*%
X199161278Y-75529673D03*
X192750000Y-70670000D03*
%TO.N,vusb*%
X190040000Y-80650000D03*
X190020000Y-80180000D03*
X203740000Y-73570000D03*
X203750000Y-74020000D03*
%TO.N,SWDIO*%
X199280000Y-72910000D03*
X204600000Y-70970000D03*
X204590000Y-70550000D03*
%TO.N,SWO*%
X204610000Y-68710000D03*
X197510000Y-70970000D03*
X204600000Y-68260000D03*
%TO.N,SWCLK*%
X204580000Y-69830000D03*
X204590000Y-69400000D03*
X199270000Y-72410000D03*
%TO.N,SPI_CS*%
X199950000Y-82500000D03*
X196135697Y-77586255D03*
%TO.N,SPI_MISO*%
X199770000Y-81200000D03*
X195635746Y-77579078D03*
%TO.N,USART_RX*%
X195460000Y-70930000D03*
X195099999Y-79797502D03*
%TO.N,vbat*%
X187040000Y-80180000D03*
X187900000Y-80180000D03*
X187040000Y-80650000D03*
X187040000Y-81160000D03*
X187930000Y-81110000D03*
X187910000Y-80650000D03*
%TO.N,Net-(U1-PA4)*%
X190980000Y-79500000D03*
X194630000Y-77320000D03*
%TO.N,GND*%
X197690000Y-66930000D03*
X189670000Y-74020000D03*
X186720000Y-78050000D03*
X189670000Y-75020000D03*
X181810000Y-79710000D03*
X188590000Y-73100000D03*
X200270000Y-66260000D03*
X201390000Y-65470000D03*
X192130000Y-79020000D03*
X201030000Y-82480000D03*
X196340000Y-81910000D03*
X186310000Y-80110000D03*
X189790000Y-83640000D03*
X184610000Y-76250000D03*
X206990000Y-83240000D03*
X195640000Y-73670000D03*
X182800000Y-78920000D03*
X200030000Y-78610000D03*
X194070000Y-68020000D03*
X181770000Y-75770000D03*
X182780000Y-72890000D03*
X197390000Y-65470000D03*
X181780000Y-74290000D03*
X204620000Y-71920000D03*
X204040000Y-76820000D03*
X181790000Y-81640000D03*
X200580000Y-81180000D03*
X207390000Y-83640000D03*
X201330000Y-79720000D03*
X198360000Y-83700000D03*
X207390000Y-80940000D03*
X205590000Y-83640000D03*
X191620000Y-73570000D03*
X206090000Y-74640000D03*
X204790000Y-78550000D03*
X194650000Y-75650000D03*
X189390000Y-77540000D03*
X186310000Y-80970000D03*
X197620000Y-73670000D03*
X207390000Y-81840000D03*
X206200000Y-67480000D03*
X181720000Y-66350000D03*
X207390000Y-67500000D03*
X185600000Y-72760000D03*
X184790000Y-83640000D03*
X198450000Y-71920000D03*
X183790000Y-83640000D03*
X206310000Y-82020000D03*
X203680000Y-71060000D03*
X185100000Y-82200000D03*
X190390000Y-65470000D03*
X195640000Y-74660000D03*
X184620000Y-74300000D03*
X188490000Y-68760000D03*
X204790000Y-77640000D03*
X207390000Y-66440000D03*
X203030000Y-75370000D03*
X198450000Y-71430000D03*
X186790000Y-83640000D03*
X190430000Y-79510000D03*
X207390000Y-82740000D03*
X182780000Y-74290000D03*
X206230000Y-66420000D03*
X207390000Y-76640000D03*
X197860000Y-68680000D03*
X196630000Y-75650000D03*
X195390000Y-65470000D03*
X206070000Y-73640000D03*
X185390000Y-65470000D03*
X198450000Y-82020000D03*
X197460000Y-81900000D03*
X202820000Y-79160000D03*
X187790000Y-82040000D03*
X198380000Y-76540000D03*
X186720000Y-72330000D03*
X194650000Y-73670000D03*
X206490000Y-83640000D03*
X183780000Y-77410000D03*
X197620000Y-74660000D03*
X201200000Y-83700000D03*
X195990000Y-79160000D03*
X182780000Y-73590000D03*
X201350000Y-81980000D03*
X185750000Y-79510000D03*
X195640000Y-75650000D03*
X184610000Y-75250000D03*
X187640000Y-67370000D03*
X206070000Y-77640000D03*
X186100000Y-71510000D03*
X184960000Y-79480000D03*
X197280000Y-70470000D03*
X183780000Y-78070000D03*
X194650000Y-74660000D03*
X196970000Y-77820000D03*
X199530000Y-68130000D03*
X189820000Y-73110000D03*
X181800000Y-78920000D03*
X187530000Y-71500000D03*
X187960000Y-73110000D03*
X191720000Y-83660000D03*
X204590000Y-75500000D03*
X192390000Y-65470000D03*
X196630000Y-74660000D03*
X187540000Y-71030000D03*
X194730000Y-67970000D03*
X189830000Y-72180000D03*
X197630000Y-77720000D03*
X197450000Y-82770000D03*
X206990000Y-82030000D03*
X190420000Y-75020000D03*
X206070000Y-75640000D03*
X189390000Y-76600000D03*
X207400000Y-68450000D03*
X206390000Y-65470000D03*
X181830000Y-71310000D03*
X197220000Y-68690000D03*
X188170000Y-74020000D03*
X191470711Y-67074977D03*
X190600000Y-78340000D03*
X203790000Y-83640000D03*
X188440000Y-72330000D03*
X198470000Y-83260000D03*
X184460000Y-65460000D03*
X182770000Y-75770000D03*
X207390000Y-65470000D03*
X186250000Y-78050000D03*
X190900000Y-72200000D03*
X198800000Y-82630000D03*
X198390000Y-65470000D03*
X204690000Y-83640000D03*
X185040000Y-72750000D03*
X192610000Y-83640000D03*
X188170000Y-76830000D03*
X197620000Y-72680000D03*
X191390000Y-65470000D03*
X206090000Y-72650000D03*
X202790000Y-67500000D03*
X205320000Y-80105000D03*
X192440000Y-68750000D03*
X190890000Y-70690000D03*
X185790000Y-83640000D03*
X199690000Y-71430000D03*
X195320000Y-83690000D03*
X186080000Y-68780000D03*
X182780000Y-77410000D03*
X182830000Y-71310000D03*
X187800000Y-82780000D03*
X200390000Y-65470000D03*
X187350000Y-79510000D03*
X207390000Y-74640000D03*
X188150000Y-79510000D03*
X187880000Y-68200000D03*
X187880000Y-68780000D03*
X200270000Y-66810000D03*
X188920000Y-74020000D03*
X194390000Y-65470000D03*
X196340000Y-82780000D03*
X198190000Y-77220000D03*
X195140000Y-66200000D03*
X203390000Y-65470000D03*
X194450425Y-68786961D03*
X195640000Y-72680000D03*
X207390000Y-72640000D03*
X187280000Y-68200000D03*
X194390000Y-83690000D03*
X199070000Y-71430000D03*
X190590000Y-76990000D03*
X191620000Y-73110000D03*
X196390000Y-65470000D03*
X199170000Y-83240000D03*
X191000000Y-67380000D03*
X188790000Y-83640000D03*
X207390000Y-71640000D03*
X199040000Y-71920000D03*
X188920000Y-75020000D03*
X206150000Y-68460000D03*
X189830000Y-70680000D03*
X190100000Y-78930000D03*
X207390000Y-77640000D03*
X195150000Y-66930000D03*
X202840000Y-72250000D03*
X186100000Y-71070000D03*
X181780000Y-73590000D03*
X188170000Y-75020000D03*
X190570000Y-77710000D03*
X202890000Y-83640000D03*
X181780000Y-77410000D03*
X198460000Y-68130000D03*
X201020000Y-77680000D03*
X196670000Y-68190000D03*
X206620000Y-82630000D03*
X199360000Y-83690000D03*
X196630000Y-73670000D03*
X186680000Y-68230000D03*
X200430000Y-79820000D03*
X196330000Y-83690000D03*
X204390000Y-65470000D03*
X190790000Y-83640000D03*
X199390000Y-65470000D03*
X197700000Y-66230000D03*
X207390000Y-79140000D03*
X207390000Y-80040000D03*
X195020000Y-68360000D03*
X191800000Y-71200000D03*
X186860000Y-75830000D03*
X186080000Y-68230000D03*
X193410000Y-68570000D03*
X206040000Y-71710000D03*
X190546733Y-67077157D03*
X187660000Y-66420000D03*
X199140000Y-82000000D03*
X199340000Y-79230000D03*
X181790000Y-83640000D03*
X207390000Y-73640000D03*
X187790000Y-83640000D03*
X181780000Y-72890000D03*
X196630000Y-72680000D03*
X200260000Y-83700000D03*
X202030000Y-83680000D03*
X187390000Y-65470000D03*
X201470000Y-81040000D03*
X190420000Y-74020000D03*
X183040000Y-65490000D03*
X200420000Y-73980000D03*
X202800000Y-66250000D03*
X199800000Y-73810000D03*
X185560000Y-75810000D03*
X205390000Y-65470000D03*
X197420000Y-83690000D03*
X181730000Y-65490000D03*
X202390000Y-65470000D03*
X183820000Y-82220000D03*
X199160000Y-68730000D03*
X207390000Y-75640000D03*
%TO.N,BAT+*%
X185590000Y-77670000D03*
X185090000Y-77670000D03*
X185560000Y-78190000D03*
X185080000Y-78184280D03*
%TO.N,SPI_SCK*%
X194610000Y-81210000D03*
X194575000Y-77840000D03*
%TO.N,Net-(R10-Pad1)*%
X181820000Y-67070000D03*
X182980000Y-67670000D03*
X182980000Y-67070000D03*
X181830000Y-67650000D03*
%TO.N,Net-(R11-Pad1)*%
X189670000Y-67650000D03*
X192300000Y-67630000D03*
X193500000Y-67630000D03*
X188470000Y-67050000D03*
X192300000Y-67030000D03*
X193500000Y-67030000D03*
X188470000Y-67650000D03*
X189670000Y-67050000D03*
%TO.N,Net-(J1-D--PadA7)*%
X201010000Y-73480000D03*
X205460000Y-74750000D03*
%TO.N,Net-(J1-D+-PadA6)*%
X201010000Y-74200000D03*
X205440000Y-72830000D03*
%TO.N,SPI_MOSi*%
X196505000Y-70930000D03*
X193900001Y-80130934D03*
%TO.N,USART_TX*%
X195960000Y-70940000D03*
X194726438Y-78747498D03*
%TD*%
D47*
%TO.N,Net-(C1-Pad2)*%
X189940000Y-77072500D02*
X188840000Y-77072500D01*
X188840000Y-77072500D02*
X188830000Y-77082500D01*
D48*
%TO.N,+3.3V*%
X202340000Y-81642500D02*
X202260000Y-81722500D01*
X202340000Y-80420000D02*
X200542500Y-80420000D01*
X202340000Y-80420000D02*
X202340000Y-81642500D01*
X200542500Y-80420000D02*
X200420000Y-80542500D01*
X189890000Y-69460000D02*
X189890000Y-69847500D01*
D47*
%TO.N,Net-(U1-NRST)*%
X192530000Y-73610000D02*
X192380000Y-73460000D01*
X192380000Y-72985000D02*
X192380000Y-73510000D01*
X192540000Y-73610000D02*
X192530000Y-73610000D01*
X192380000Y-73460000D02*
X192380000Y-72985000D01*
X192830000Y-73910000D02*
X193692500Y-73910000D01*
X192540000Y-73620000D02*
X192830000Y-73910000D01*
X192540000Y-73610000D02*
X192540000Y-73620000D01*
%TO.N,Net-(BT1-+)*%
X182120000Y-72040000D02*
X182100000Y-72020000D01*
X182462500Y-72040000D02*
X182120000Y-72040000D01*
%TO.N,Net-(D1-A)*%
X184472500Y-78730000D02*
X184430000Y-78687500D01*
X186342500Y-78730000D02*
X184472500Y-78730000D01*
%TO.N,COMPASSCL*%
X199340000Y-75200000D02*
X199050000Y-74910000D01*
X199779999Y-75200000D02*
X199340000Y-75200000D01*
X199050000Y-74910000D02*
X198567500Y-74910000D01*
%TO.N,COMPASSDA*%
X199492500Y-74737500D02*
X199165000Y-74410000D01*
X199165000Y-74410000D02*
X198567500Y-74410000D01*
%TO.N,Net-(J1-CC2)*%
X203137500Y-75780000D02*
X202300000Y-75780000D01*
X204712500Y-76250000D02*
X203607500Y-76250000D01*
X203607500Y-76250000D02*
X203137500Y-75780000D01*
%TO.N,Net-(J1-CC1)*%
X200490000Y-71937500D02*
X200490000Y-72070000D01*
X200490000Y-72070000D02*
X200980000Y-72560000D01*
%TO.N,OLED_SCL*%
X198990000Y-68260000D02*
X198990000Y-66970000D01*
X198030000Y-70580000D02*
X198350000Y-70260000D01*
X198350000Y-70260000D02*
X198350000Y-68900000D01*
X196380000Y-77150000D02*
X196380000Y-76597500D01*
X198350000Y-68900000D02*
X198990000Y-68260000D01*
%TO.N,OLED_SDA*%
X196880000Y-69040000D02*
X196730000Y-68890000D01*
X196040000Y-68236446D02*
X196040000Y-67380000D01*
X196040000Y-67380000D02*
X196450000Y-66970000D01*
X196693554Y-68890000D02*
X196040000Y-68236446D01*
X196730000Y-68890000D02*
X196693554Y-68890000D01*
X196880000Y-71722500D02*
X196880000Y-69040000D01*
%TO.N,Net-(PA1010D1-TX)*%
X191820000Y-77180000D02*
X191550000Y-77450000D01*
X191550000Y-77450000D02*
X191235000Y-77450000D01*
X191820000Y-76920000D02*
X191820000Y-77180000D01*
%TO.N,ALIMGPS*%
X190574014Y-75490000D02*
X187187500Y-75490000D01*
X193692500Y-75410000D02*
X193417392Y-75410000D01*
X185310000Y-73712500D02*
X185360000Y-73662500D01*
X193417392Y-75410000D02*
X193032392Y-75795000D01*
X184547500Y-73712500D02*
X185310000Y-73712500D01*
X190879014Y-75795000D02*
X190574014Y-75490000D01*
X193032392Y-75795000D02*
X190879014Y-75795000D01*
X187187500Y-75490000D02*
X185360000Y-73662500D01*
%TO.N,B2*%
X185635000Y-72075000D02*
X185635000Y-67912500D01*
X185635000Y-67912500D02*
X184840000Y-67117500D01*
X186270000Y-72710000D02*
X185635000Y-72075000D01*
%TO.N,SWDIO*%
X198567500Y-72910000D02*
X199280000Y-72910000D01*
%TO.N,SWO*%
X197510000Y-71010000D02*
X197380000Y-71140000D01*
X197380000Y-71140000D02*
X197380000Y-71722500D01*
X197510000Y-70970000D02*
X197510000Y-71010000D01*
%TO.N,SWCLK*%
X198567500Y-72410000D02*
X199270000Y-72410000D01*
D48*
%TO.N,D+*%
X201185686Y-73090000D02*
X202352500Y-73090000D01*
X198567500Y-73410000D02*
X200520000Y-73410000D01*
X200520000Y-73410000D02*
X200610000Y-73320000D01*
X200844314Y-73080000D02*
X201175686Y-73080000D01*
X200610000Y-73314314D02*
X200844314Y-73080000D01*
X200610000Y-73320000D02*
X200610000Y-73314314D01*
X201175686Y-73080000D02*
X201185686Y-73090000D01*
X202352500Y-73090000D02*
X202592500Y-72850000D01*
%TO.N,D-*%
X199230686Y-73910000D02*
X198567500Y-73910000D01*
X200070686Y-74750000D02*
X199230686Y-73910000D01*
X202592500Y-74750000D02*
X200070686Y-74750000D01*
D47*
%TO.N,SPI_CS*%
X196196952Y-77525000D02*
X196535331Y-77525000D01*
X199950000Y-82612500D02*
X200420000Y-83082500D01*
X196135697Y-77586255D02*
X196196952Y-77525000D01*
X196535331Y-77525000D02*
X196880000Y-77180331D01*
X196880000Y-77180331D02*
X196880000Y-76597500D01*
X202095000Y-83082500D02*
X202260000Y-82917500D01*
X199950000Y-82500000D02*
X199950000Y-82612500D01*
X200420000Y-83082500D02*
X202095000Y-83082500D01*
%TO.N,SPI_MISO*%
X195824997Y-77145000D02*
X195880000Y-77089997D01*
X195635746Y-77579078D02*
X195575000Y-77518332D01*
X195575000Y-77518332D02*
X195575000Y-77364669D01*
X200420000Y-81812500D02*
X200382500Y-81812500D01*
X200382500Y-81812500D02*
X199770000Y-81200000D01*
X195794669Y-77145000D02*
X195824997Y-77145000D01*
X195880000Y-77089997D02*
X195880000Y-76597500D01*
X195575000Y-77364669D02*
X195794669Y-77145000D01*
%TO.N,USART_RX*%
X195460000Y-70930000D02*
X195380000Y-71010000D01*
X195380000Y-71010000D02*
X195380000Y-71722500D01*
%TO.N,Net-(U1-PA4)*%
X194880000Y-76597500D02*
X194880000Y-77070000D01*
X194880000Y-77070000D02*
X194630000Y-77320000D01*
X190990000Y-79510000D02*
X190980000Y-79500000D01*
X190972500Y-79000000D02*
X190972500Y-79492500D01*
X190972500Y-79492500D02*
X190980000Y-79500000D01*
X190990000Y-80032500D02*
X190990000Y-79510000D01*
%TO.N,GND*%
X184647500Y-72962500D02*
X184547500Y-73062500D01*
%TO.N,SPI_SCK*%
X195260746Y-77549254D02*
X195260746Y-76716754D01*
X194720000Y-80542500D02*
X194720000Y-81100000D01*
X194970000Y-77840000D02*
X195260746Y-77549254D01*
X195260746Y-76716754D02*
X195380000Y-76597500D01*
X194720000Y-81100000D02*
X194610000Y-81210000D01*
X194575000Y-77840000D02*
X194970000Y-77840000D01*
%TO.N,Net-(U1-PH3)*%
X194880000Y-71722500D02*
X194880000Y-71447392D01*
X194180000Y-67317500D02*
X194767500Y-67317500D01*
X196285000Y-68835000D02*
X196285000Y-70160000D01*
X194767500Y-67317500D02*
X196285000Y-68835000D01*
%TO.N,SPI_MOSi*%
X196380000Y-71055000D02*
X196380000Y-71722500D01*
X193900001Y-80092499D02*
X194720000Y-79272500D01*
X193900001Y-80130934D02*
X193900001Y-80092499D01*
X196505000Y-70930000D02*
X196380000Y-71055000D01*
%TO.N,USART_TX*%
X195880000Y-71020000D02*
X195880000Y-71722500D01*
X195960000Y-70940000D02*
X195880000Y-71020000D01*
%TD*%
%TA.AperFunction,Conductor*%
%TO.N,Net-(R11-Pad1)*%
G36*
X189962521Y-66859730D02*
G01*
X190014723Y-66881701D01*
X190029542Y-66903272D01*
X190429998Y-67789998D01*
X190429999Y-67789998D01*
X190430000Y-67790000D01*
X191560085Y-67799913D01*
X191569999Y-67800000D01*
X191569999Y-67799999D01*
X191570000Y-67800000D01*
X192009836Y-66901203D01*
X192052303Y-66863732D01*
X192075871Y-66859733D01*
X193674138Y-66850441D01*
X193726589Y-66871811D01*
X193748567Y-66924010D01*
X193748555Y-66925849D01*
X193731148Y-67839681D01*
X193708481Y-67891585D01*
X193670686Y-67911026D01*
X192170000Y-68189999D01*
X192169999Y-68190000D01*
X192137838Y-68730310D01*
X192136845Y-68738760D01*
X192134864Y-68749997D01*
X192134864Y-68751886D01*
X192135694Y-68766322D01*
X192124110Y-68960943D01*
X192099365Y-69011888D01*
X192050824Y-69030544D01*
X189607912Y-69049780D01*
X189558896Y-69031731D01*
X189557525Y-69030544D01*
X188265892Y-67912414D01*
X188240517Y-67861780D01*
X188240329Y-67855754D01*
X188240865Y-67800000D01*
X188249291Y-66923704D01*
X188271468Y-66871590D01*
X188323706Y-66850418D01*
X189962521Y-66859730D01*
G37*
%TD.AperFunction*%
%TD*%
%TA.AperFunction,Conductor*%
%TO.N,vbat*%
G36*
X189186523Y-79929161D02*
G01*
X189238502Y-79951653D01*
X189255981Y-79981039D01*
X189474672Y-80679439D01*
X189550000Y-80920000D01*
X190876245Y-81059604D01*
X190883691Y-81060775D01*
X192070000Y-81310000D01*
X192188286Y-81310000D01*
X192240612Y-81331674D01*
X192241872Y-81332966D01*
X192419998Y-81519999D01*
X192419999Y-81519999D01*
X192420000Y-81520000D01*
X192441715Y-81520700D01*
X192491653Y-81542334D01*
X192515935Y-81566616D01*
X192540787Y-81583222D01*
X192580000Y-81591023D01*
X192619213Y-81583222D01*
X192644065Y-81566617D01*
X192659553Y-81551129D01*
X192711878Y-81529453D01*
X192714235Y-81529491D01*
X192730000Y-81530000D01*
X192730001Y-81529999D01*
X192918326Y-81341674D01*
X192970652Y-81320000D01*
X193004337Y-81320000D01*
X193056663Y-81341674D01*
X193078337Y-81394000D01*
X193078319Y-81395644D01*
X193051566Y-82599500D01*
X193028734Y-82651332D01*
X192979505Y-82671831D01*
X192280024Y-82689999D01*
X192280000Y-82690000D01*
X191501301Y-82709966D01*
X191498664Y-82709986D01*
X190568069Y-82700680D01*
X190515962Y-82678484D01*
X190495008Y-82632111D01*
X190492610Y-82599500D01*
X190450000Y-82020000D01*
X190449999Y-82019999D01*
X189350000Y-81490000D01*
X189349998Y-81489999D01*
X186732961Y-81402441D01*
X186681389Y-81379029D01*
X186661450Y-81327012D01*
X186661788Y-81310000D01*
X186688536Y-79963675D01*
X186711245Y-79911791D01*
X186763680Y-79891155D01*
X189186523Y-79929161D01*
G37*
%TD.AperFunction*%
%TD*%
%TA.AperFunction,Conductor*%
%TO.N,Net-(U1-NRST)*%
G36*
X201188326Y-68231672D02*
G01*
X201210000Y-68283998D01*
X201210000Y-69136692D01*
X201188326Y-69189018D01*
X201136698Y-69210689D01*
X200224698Y-69219293D01*
X200172170Y-69198113D01*
X200150003Y-69145994D01*
X200150000Y-69145296D01*
X200150000Y-68283998D01*
X200171674Y-68231672D01*
X200224000Y-68209998D01*
X201136000Y-68209998D01*
X201188326Y-68231672D01*
G37*
%TD.AperFunction*%
%TD*%
%TA.AperFunction,Conductor*%
%TO.N,SWO*%
G36*
X205108326Y-68021674D02*
G01*
X205130000Y-68074000D01*
X205130000Y-68926694D01*
X205108326Y-68979020D01*
X205056698Y-69000691D01*
X204144698Y-69009295D01*
X204092170Y-68988115D01*
X204070003Y-68935996D01*
X204070000Y-68935298D01*
X204070000Y-68074000D01*
X204091674Y-68021674D01*
X204144000Y-68000000D01*
X205056000Y-68000000D01*
X205108326Y-68021674D01*
G37*
%TD.AperFunction*%
%TD*%
%TA.AperFunction,Conductor*%
%TO.N,+3.3V*%
G36*
X194317244Y-69321925D02*
G01*
X194339492Y-69374010D01*
X194339494Y-69375320D01*
X194330143Y-70768588D01*
X194318444Y-70808026D01*
X194080000Y-71180000D01*
X194080000Y-72160000D01*
X194084861Y-72161945D01*
X194125395Y-72201502D01*
X194131349Y-72228597D01*
X194137909Y-72464741D01*
X194117697Y-72517649D01*
X194065993Y-72540767D01*
X194064717Y-72540792D01*
X193266079Y-72549199D01*
X193213528Y-72528077D01*
X193191304Y-72475982D01*
X193191310Y-72473970D01*
X193199871Y-71977476D01*
X193201622Y-71962700D01*
X193420000Y-70980000D01*
X193429564Y-69382752D01*
X193451551Y-69330558D01*
X193502748Y-69309200D01*
X194264684Y-69300827D01*
X194317244Y-69321925D01*
G37*
%TD.AperFunction*%
%TD*%
%TA.AperFunction,Conductor*%
%TO.N,+3.3V*%
G36*
X200137429Y-75601674D02*
G01*
X200159103Y-75654000D01*
X200159098Y-75654843D01*
X200157462Y-75790691D01*
X200140391Y-77207511D01*
X200118088Y-77259572D01*
X200115814Y-77261699D01*
X199070001Y-78199998D01*
X199069999Y-78200000D01*
X199058096Y-78446998D01*
X199039563Y-78831563D01*
X199015397Y-78882784D01*
X198965650Y-78902000D01*
X196172803Y-78902000D01*
X196147494Y-78897537D01*
X196042987Y-78859500D01*
X196042986Y-78859500D01*
X195937014Y-78859500D01*
X195906395Y-78870643D01*
X195837427Y-78895745D01*
X195832701Y-78898474D01*
X195810142Y-78906964D01*
X195805786Y-78907830D01*
X195772545Y-78930040D01*
X195772539Y-78930046D01*
X195770330Y-78933353D01*
X195723237Y-78964818D01*
X195707383Y-78966225D01*
X195311540Y-78958627D01*
X195284650Y-78953011D01*
X195284219Y-78952832D01*
X195274624Y-78950923D01*
X195254899Y-78947000D01*
X195254897Y-78947000D01*
X195084228Y-78947000D01*
X195031902Y-78925326D01*
X195010228Y-78873000D01*
X195012806Y-78858370D01*
X195012048Y-78858237D01*
X195016751Y-78831563D01*
X195031574Y-78747498D01*
X195013172Y-78643135D01*
X194960186Y-78551360D01*
X194960185Y-78551358D01*
X194879008Y-78483243D01*
X194879005Y-78483241D01*
X194779426Y-78446998D01*
X194779424Y-78446998D01*
X194673452Y-78446998D01*
X194673449Y-78446998D01*
X194573870Y-78483241D01*
X194573867Y-78483243D01*
X194492690Y-78551358D01*
X194439703Y-78643135D01*
X194421302Y-78747498D01*
X194440017Y-78853638D01*
X194427758Y-78908933D01*
X194379991Y-78939364D01*
X194365721Y-78940474D01*
X193820000Y-78930000D01*
X193833893Y-79782183D01*
X193813075Y-79834855D01*
X193785214Y-79852926D01*
X193747431Y-79866678D01*
X193747430Y-79866679D01*
X193666253Y-79934794D01*
X193613266Y-80026571D01*
X193594865Y-80130934D01*
X193613266Y-80235296D01*
X193666253Y-80327073D01*
X193747430Y-80395188D01*
X193747433Y-80395190D01*
X193796613Y-80413090D01*
X193838371Y-80451353D01*
X193845294Y-80481420D01*
X193850000Y-80770000D01*
X194291546Y-81211546D01*
X194312095Y-81251020D01*
X194323265Y-81314362D01*
X194376252Y-81406139D01*
X194457429Y-81474254D01*
X194457432Y-81474256D01*
X194557011Y-81510499D01*
X194557012Y-81510500D01*
X194557014Y-81510500D01*
X194662988Y-81510500D01*
X194662988Y-81510499D01*
X194762568Y-81474256D01*
X194772523Y-81465902D01*
X194826537Y-81448870D01*
X194842252Y-81451986D01*
X195028630Y-81510500D01*
X195198480Y-81563825D01*
X195241911Y-81600177D01*
X195250313Y-81633997D01*
X195259578Y-83227470D01*
X195238208Y-83279921D01*
X195187492Y-83301875D01*
X194100000Y-83330000D01*
X194099999Y-83330000D01*
X193842536Y-83642634D01*
X193792541Y-83669248D01*
X193784553Y-83669587D01*
X193034533Y-83660866D01*
X192982462Y-83638585D01*
X192961398Y-83586011D01*
X192961406Y-83585475D01*
X192969492Y-83156909D01*
X192987676Y-83109705D01*
X193240000Y-82820000D01*
X193290000Y-81270000D01*
X193053058Y-81072548D01*
X193047231Y-81067136D01*
X192780795Y-80791512D01*
X192760000Y-80740080D01*
X192760000Y-79660000D01*
X192572097Y-79472097D01*
X192550423Y-79419771D01*
X192550428Y-79418899D01*
X192551078Y-79371835D01*
X192563539Y-79331751D01*
X192610385Y-79261642D01*
X192625500Y-79185654D01*
X192625500Y-78814346D01*
X192610385Y-78738358D01*
X192573619Y-78683333D01*
X192561155Y-78641202D01*
X192568993Y-78072978D01*
X192591387Y-78020957D01*
X192642986Y-78000000D01*
X194277664Y-78000000D01*
X194329990Y-78021674D01*
X194339343Y-78033864D01*
X194341251Y-78036138D01*
X194422429Y-78104254D01*
X194422432Y-78104256D01*
X194522011Y-78140499D01*
X194522012Y-78140500D01*
X194522014Y-78140500D01*
X194627988Y-78140500D01*
X194627988Y-78140499D01*
X194727568Y-78104256D01*
X194777666Y-78062219D01*
X194812712Y-78032813D01*
X194860278Y-78015500D01*
X195004907Y-78015500D01*
X195004909Y-78015500D01*
X195042307Y-78000009D01*
X195069910Y-77994381D01*
X195457743Y-77990688D01*
X195510273Y-78011863D01*
X195532407Y-78062219D01*
X195537000Y-78199998D01*
X195540000Y-78290000D01*
X197790000Y-78270000D01*
X198117219Y-77903117D01*
X198123111Y-77897218D01*
X198780000Y-77310000D01*
X198790000Y-76460000D01*
X198780000Y-76030000D01*
X198779999Y-76030000D01*
X198195121Y-76038861D01*
X198142473Y-76017981D01*
X198120008Y-75965990D01*
X198120000Y-75964869D01*
X198120000Y-75854000D01*
X198141674Y-75801674D01*
X198194000Y-75780000D01*
X198965176Y-75780000D01*
X199001615Y-75793264D01*
X199003101Y-75790691D01*
X199008710Y-75793929D01*
X199108289Y-75830172D01*
X199108290Y-75830173D01*
X199108292Y-75830173D01*
X199214266Y-75830173D01*
X199214266Y-75830172D01*
X199313846Y-75793929D01*
X199395026Y-75725811D01*
X199448012Y-75634036D01*
X199448012Y-75634032D01*
X199449958Y-75628690D01*
X199488222Y-75586933D01*
X199519495Y-75580000D01*
X200085103Y-75580000D01*
X200137429Y-75601674D01*
G37*
%TD.AperFunction*%
%TD*%
%TA.AperFunction,Conductor*%
%TO.N,+3.3V*%
G36*
X182908073Y-68031674D02*
G01*
X182929747Y-68084000D01*
X182929747Y-68084253D01*
X182920255Y-70865242D01*
X182898402Y-70917493D01*
X182846002Y-70938989D01*
X182845248Y-70938982D01*
X181523493Y-70920999D01*
X181471467Y-70898615D01*
X181450500Y-70847006D01*
X181450500Y-68084000D01*
X181472174Y-68031674D01*
X181524500Y-68010000D01*
X182855747Y-68010000D01*
X182908073Y-68031674D01*
G37*
%TD.AperFunction*%
%TD*%
%TA.AperFunction,Conductor*%
%TO.N,B1*%
G36*
X193119293Y-69491674D02*
G01*
X193140960Y-69543025D01*
X193150000Y-70230000D01*
X193150001Y-70230013D01*
X193205032Y-71101336D01*
X193186699Y-71154924D01*
X193135843Y-71179853D01*
X193131179Y-71180000D01*
X193002913Y-71180000D01*
X192961096Y-71167052D01*
X191551092Y-70201296D01*
X191520170Y-70153846D01*
X191518939Y-70142338D01*
X191502143Y-69546083D01*
X191522336Y-69493168D01*
X191574030Y-69470029D01*
X191576114Y-69470000D01*
X193066967Y-69470000D01*
X193119293Y-69491674D01*
G37*
%TD.AperFunction*%
%TD*%
%TA.AperFunction,Conductor*%
%TO.N,GNDGPS*%
G36*
X185402539Y-68439685D02*
G01*
X185448294Y-68492489D01*
X185459500Y-68544000D01*
X185459500Y-72040228D01*
X185439815Y-72107267D01*
X185387011Y-72153022D01*
X185365175Y-72160625D01*
X184110000Y-72469999D01*
X183990000Y-76080014D01*
X183990000Y-76875490D01*
X183970315Y-76942529D01*
X183917511Y-76988284D01*
X183865492Y-76999489D01*
X181675123Y-76990512D01*
X181608165Y-76970553D01*
X181562626Y-76917562D01*
X181551642Y-76864885D01*
X181559227Y-76287063D01*
X181579789Y-76220288D01*
X181633189Y-76175230D01*
X181680131Y-76164730D01*
X183170794Y-76127695D01*
X183199499Y-69190827D01*
X183219461Y-69123873D01*
X183272454Y-69078337D01*
X183320798Y-69067373D01*
X184120000Y-69050000D01*
X184329579Y-68499853D01*
X184371838Y-68444217D01*
X184437471Y-68420257D01*
X184445454Y-68420000D01*
X185335500Y-68420000D01*
X185402539Y-68439685D01*
G37*
%TD.AperFunction*%
%TD*%
%TA.AperFunction,Conductor*%
%TO.N,vusb*%
G36*
X203986256Y-73270422D02*
G01*
X204032730Y-73322594D01*
X204044564Y-73370970D01*
X204075070Y-74179357D01*
X204057927Y-74247091D01*
X204006886Y-74294805D01*
X203949279Y-74308019D01*
X203468507Y-74300734D01*
X203401774Y-74280036D01*
X203384869Y-74266541D01*
X203210000Y-74099999D01*
X202061267Y-74108974D01*
X201994076Y-74089814D01*
X201947909Y-74037369D01*
X201936448Y-73978887D01*
X201954201Y-73617909D01*
X201977155Y-73551917D01*
X202032142Y-73508812D01*
X202078051Y-73500000D01*
X203189999Y-73500000D01*
X203190000Y-73500000D01*
X203276251Y-73327497D01*
X203323836Y-73276341D01*
X203385458Y-73258966D01*
X203918954Y-73251658D01*
X203986256Y-73270422D01*
G37*
%TD.AperFunction*%
%TD*%
%TA.AperFunction,Conductor*%
%TO.N,GPSTX*%
G36*
X194486102Y-76172688D02*
G01*
X194509936Y-76224066D01*
X194510000Y-76227147D01*
X194510000Y-76966835D01*
X194488326Y-77019161D01*
X194485245Y-77022070D01*
X193700065Y-77722110D01*
X193653131Y-77740839D01*
X192155180Y-77787650D01*
X192102203Y-77767621D01*
X192078905Y-77715997D01*
X192078877Y-77714790D01*
X192071045Y-77190047D01*
X192091936Y-77137406D01*
X192139886Y-77115124D01*
X192930000Y-77060000D01*
X194252674Y-76171636D01*
X194290850Y-76159131D01*
X194432920Y-76153211D01*
X194486102Y-76172688D01*
G37*
%TD.AperFunction*%
%TD*%
%TA.AperFunction,Conductor*%
%TO.N,Net-(U2-PROG)*%
G36*
X189114681Y-75699685D02*
G01*
X189160436Y-75752489D01*
X189171631Y-75802347D01*
X189178339Y-76305532D01*
X189159550Y-76372828D01*
X189107360Y-76419283D01*
X189055525Y-76431179D01*
X187195175Y-76448813D01*
X187127952Y-76429765D01*
X187081699Y-76377397D01*
X187070000Y-76324819D01*
X187070000Y-76245694D01*
X187089685Y-76178655D01*
X187142489Y-76132900D01*
X187150137Y-76129711D01*
X188318812Y-75688007D01*
X188362651Y-75680000D01*
X189047642Y-75680000D01*
X189114681Y-75699685D01*
G37*
%TD.AperFunction*%
%TD*%
%TA.AperFunction,Conductor*%
%TO.N,Net-(R10-Pad1)*%
G36*
X184158326Y-65631674D02*
G01*
X184180000Y-65684000D01*
X184180000Y-66466000D01*
X184158326Y-66518326D01*
X184106000Y-66540000D01*
X183859998Y-66540000D01*
X183697085Y-66659469D01*
X183653783Y-66673794D01*
X183613713Y-66674042D01*
X183613027Y-66674049D01*
X183613026Y-66674048D01*
X183612728Y-66674052D01*
X183612717Y-66674053D01*
X183572276Y-66682646D01*
X183572274Y-66682646D01*
X183520268Y-66705039D01*
X183505611Y-66712764D01*
X183463960Y-66762926D01*
X183443014Y-66815549D01*
X183441889Y-66821647D01*
X183412882Y-66867886D01*
X183410000Y-66869999D01*
X183400000Y-67400000D01*
X183437408Y-67442950D01*
X183449771Y-67465057D01*
X183450410Y-67464788D01*
X183451798Y-67468076D01*
X183451799Y-67468077D01*
X183473466Y-67519375D01*
X183480700Y-67533450D01*
X183530280Y-67575795D01*
X183549930Y-67583934D01*
X183577416Y-67603700D01*
X183922143Y-67999498D01*
X183940335Y-68047186D01*
X183949084Y-68755854D01*
X183928058Y-68808444D01*
X183876004Y-68830762D01*
X183875853Y-68830764D01*
X183107688Y-68838683D01*
X183055141Y-68817550D01*
X183032929Y-68765450D01*
X183032925Y-68764522D01*
X183035246Y-68084613D01*
X183035247Y-68084253D01*
X183035247Y-68084000D01*
X183027216Y-68043627D01*
X183005542Y-67991301D01*
X182998026Y-67976550D01*
X182997721Y-67975951D01*
X182989660Y-67941562D01*
X182990000Y-67910000D01*
X182989998Y-67909999D01*
X182989999Y-67909999D01*
X182886475Y-67909264D01*
X182872566Y-67907845D01*
X182855747Y-67904500D01*
X182214743Y-67904500D01*
X182214218Y-67904498D01*
X181654185Y-67900526D01*
X181602014Y-67878481D01*
X181580712Y-67826003D01*
X181580713Y-67825817D01*
X181583117Y-67575794D01*
X181589300Y-66932738D01*
X181611477Y-66880624D01*
X181662740Y-66859453D01*
X182920000Y-66850000D01*
X183470000Y-66470000D01*
X183515947Y-65679704D01*
X183540621Y-65628725D01*
X183589822Y-65610000D01*
X184106000Y-65610000D01*
X184158326Y-65631674D01*
G37*
%TD.AperFunction*%
%TD*%
%TA.AperFunction,Conductor*%
%TO.N,GPSRX*%
G36*
X193336795Y-75770330D02*
G01*
X193495819Y-75772294D01*
X194063655Y-75779305D01*
X194115709Y-75801623D01*
X194136735Y-75854213D01*
X194136686Y-75856143D01*
X194131651Y-75987072D01*
X194107982Y-76038526D01*
X194091904Y-76049852D01*
X192726073Y-76761624D01*
X192691875Y-76770000D01*
X192126386Y-76770000D01*
X192074060Y-76748326D01*
X192052386Y-76696000D01*
X192052422Y-76693698D01*
X192068307Y-76193309D01*
X192091631Y-76141699D01*
X192121106Y-76124750D01*
X192627702Y-75973589D01*
X192648861Y-75970500D01*
X193067300Y-75970500D01*
X193067301Y-75970500D01*
X193131805Y-75943782D01*
X193283589Y-75791997D01*
X193335911Y-75770325D01*
X193336795Y-75770330D01*
G37*
%TD.AperFunction*%
%TD*%
%TA.AperFunction,Conductor*%
%TO.N,Net-(U1-PH3)*%
G36*
X196537333Y-69121674D02*
G01*
X196559007Y-69174000D01*
X196559000Y-69174987D01*
X196541201Y-70509997D01*
X196540974Y-70526987D01*
X196518605Y-70579019D01*
X196466981Y-70600000D01*
X195719988Y-70600000D01*
X195349999Y-70630000D01*
X195345892Y-70632774D01*
X195312867Y-70662215D01*
X195313037Y-70662508D01*
X195311624Y-70663323D01*
X195309929Y-70664835D01*
X195307431Y-70665744D01*
X195307429Y-70665745D01*
X195226252Y-70733860D01*
X195173265Y-70825637D01*
X195154864Y-70930001D01*
X195162385Y-70972660D01*
X195155697Y-71018601D01*
X195029999Y-71269999D01*
X195029999Y-71270000D01*
X195020802Y-72079407D01*
X194998535Y-72131483D01*
X194949448Y-72152519D01*
X194818404Y-72157199D01*
X194765338Y-72137406D01*
X194741810Y-72085887D01*
X194741782Y-72081586D01*
X194759646Y-71295557D01*
X194766591Y-71265901D01*
X195120000Y-70510000D01*
X195093212Y-69867081D01*
X195112689Y-69813898D01*
X195164067Y-69790064D01*
X195167148Y-69790000D01*
X196000000Y-69790000D01*
X196000000Y-69174000D01*
X196021674Y-69121674D01*
X196074000Y-69100000D01*
X196485007Y-69100000D01*
X196537333Y-69121674D01*
G37*
%TD.AperFunction*%
%TD*%
%TA.AperFunction,Conductor*%
%TO.N,BAT+*%
G36*
X185998803Y-77139685D02*
G01*
X186044558Y-77192489D01*
X186055624Y-77238102D01*
X186068729Y-77513310D01*
X186060165Y-77564846D01*
X185721412Y-78420642D01*
X185678435Y-78475731D01*
X185612498Y-78498840D01*
X185604657Y-78498995D01*
X184963909Y-78491457D01*
X184897106Y-78470986D01*
X184851975Y-78417647D01*
X184841376Y-78366091D01*
X184849583Y-77627445D01*
X184870011Y-77560633D01*
X184870989Y-77559171D01*
X185133088Y-77174213D01*
X185187088Y-77129877D01*
X185235586Y-77120000D01*
X185931764Y-77120000D01*
X185998803Y-77139685D01*
G37*
%TD.AperFunction*%
%TD*%
%TA.AperFunction,Conductor*%
%TO.N,B2*%
G36*
X185156282Y-66791697D02*
G01*
X185175433Y-66824016D01*
X185366762Y-67493669D01*
X185360297Y-67549936D01*
X185342983Y-67570846D01*
X185290922Y-67614231D01*
X185236849Y-67631079D01*
X185221565Y-67628042D01*
X184810002Y-67500000D01*
X184810000Y-67500000D01*
X183622979Y-67500000D01*
X183570653Y-67478326D01*
X183548986Y-67427028D01*
X183541035Y-66854564D01*
X183561980Y-66801944D01*
X183614000Y-66779545D01*
X183614412Y-66779540D01*
X185103824Y-66770346D01*
X185156282Y-66791697D01*
G37*
%TD.AperFunction*%
%TD*%
%TA.AperFunction,Conductor*%
%TO.N,+3.3V*%
G36*
X199780674Y-69121674D02*
G01*
X199802310Y-69171614D01*
X199810000Y-69410000D01*
X199810001Y-69410014D01*
X199857103Y-70615857D01*
X199837487Y-70668989D01*
X199786047Y-70692689D01*
X199785848Y-70692696D01*
X199312929Y-70709893D01*
X199307071Y-70709874D01*
X198680831Y-70683035D01*
X198629482Y-70659140D01*
X198610000Y-70609103D01*
X198610000Y-69780000D01*
X198601104Y-69175088D01*
X198622006Y-69122449D01*
X198674008Y-69100008D01*
X198675096Y-69100000D01*
X199728348Y-69100000D01*
X199780674Y-69121674D01*
G37*
%TD.AperFunction*%
%TD*%
%TA.AperFunction,Conductor*%
%TO.N,SWCLK*%
G36*
X205098326Y-69171674D02*
G01*
X205120000Y-69224000D01*
X205120000Y-70076694D01*
X205098326Y-70129020D01*
X205046698Y-70150691D01*
X204134698Y-70159295D01*
X204082170Y-70138115D01*
X204060003Y-70085996D01*
X204060000Y-70085298D01*
X204060000Y-69224000D01*
X204081674Y-69171674D01*
X204134000Y-69150000D01*
X205046000Y-69150000D01*
X205098326Y-69171674D01*
G37*
%TD.AperFunction*%
%TD*%
%TA.AperFunction,Conductor*%
%TO.N,Net-(D1-K)*%
G36*
X185921896Y-76690321D02*
G01*
X185968225Y-76742622D01*
X185980000Y-76795363D01*
X185980000Y-76876000D01*
X185960315Y-76943039D01*
X185907511Y-76988794D01*
X185856000Y-77000000D01*
X184910000Y-77000000D01*
X184700000Y-77279998D01*
X184691348Y-78067363D01*
X184670927Y-78134182D01*
X184617624Y-78179354D01*
X184567355Y-78190000D01*
X184274000Y-78190000D01*
X184206961Y-78170315D01*
X184161206Y-78117511D01*
X184150000Y-78066000D01*
X184150000Y-76812652D01*
X184169685Y-76745613D01*
X184222489Y-76699858D01*
X184272642Y-76688659D01*
X185854645Y-76671370D01*
X185921896Y-76690321D01*
G37*
%TD.AperFunction*%
%TD*%
%TA.AperFunction,Conductor*%
%TO.N,+3.3V*%
G36*
X192074417Y-74020933D02*
G01*
X192128144Y-74021712D01*
X192140269Y-74022891D01*
X192147488Y-74024201D01*
X192216644Y-74023028D01*
X192218801Y-74023026D01*
X192671810Y-74029591D01*
X192723062Y-74051257D01*
X192730587Y-74058782D01*
X192795091Y-74085500D01*
X192861451Y-74085500D01*
X192884052Y-74089036D01*
X192991879Y-74123621D01*
X193230000Y-74200000D01*
X194085204Y-74190804D01*
X194137760Y-74211914D01*
X194159996Y-74264004D01*
X194160000Y-74264800D01*
X194160000Y-74556000D01*
X194138326Y-74608326D01*
X194086000Y-74630000D01*
X193210000Y-74630000D01*
X192819265Y-75563949D01*
X192779075Y-75603856D01*
X192750086Y-75609383D01*
X192063553Y-75600908D01*
X192011498Y-75578590D01*
X191990468Y-75526444D01*
X191999589Y-74094455D01*
X192021595Y-74042270D01*
X192074058Y-74020930D01*
X192074417Y-74020933D01*
G37*
%TD.AperFunction*%
%TD*%
%TA.AperFunction,Conductor*%
%TO.N,vusb*%
G36*
X187947741Y-77149685D02*
G01*
X187977225Y-77176159D01*
X188439998Y-77749999D01*
X188440000Y-77750000D01*
X189139163Y-77758423D01*
X189205958Y-77778914D01*
X189217371Y-77787423D01*
X189225704Y-77794415D01*
X189264407Y-77852586D01*
X189270000Y-77889406D01*
X189270000Y-78700000D01*
X189710331Y-79180000D01*
X190347872Y-79874978D01*
X190378685Y-79937686D01*
X190380489Y-79957524D01*
X190388726Y-80756473D01*
X190369734Y-80823711D01*
X190317405Y-80870008D01*
X190266480Y-80881739D01*
X190210215Y-80882532D01*
X190195487Y-80881863D01*
X189754515Y-80835444D01*
X189689904Y-80808849D01*
X189649929Y-80751545D01*
X189646452Y-80739037D01*
X189480000Y-79990000D01*
X188290000Y-79180000D01*
X188267220Y-79179632D01*
X187173862Y-79161997D01*
X187107149Y-79141234D01*
X187062252Y-79087699D01*
X187051876Y-79036137D01*
X187078907Y-77252120D01*
X187099605Y-77185388D01*
X187153096Y-77140438D01*
X187202893Y-77130000D01*
X187880702Y-77130000D01*
X187947741Y-77149685D01*
G37*
%TD.AperFunction*%
%TD*%
%TA.AperFunction,Conductor*%
%TO.N,GND*%
G36*
X181609924Y-77133338D02*
G01*
X181630699Y-77139531D01*
X181630703Y-77139532D01*
X181674484Y-77146010D01*
X181674485Y-77146011D01*
X183868208Y-77155002D01*
X183868204Y-77155961D01*
X183932208Y-77171305D01*
X183980561Y-77221741D01*
X183994500Y-77278860D01*
X183994500Y-78066008D01*
X183998054Y-78099055D01*
X184009260Y-78150566D01*
X184043686Y-78219342D01*
X184070443Y-78250220D01*
X184099469Y-78313776D01*
X184093700Y-78359742D01*
X184096416Y-78360283D01*
X184079500Y-78445323D01*
X184079500Y-78929678D01*
X184094032Y-79002735D01*
X184094033Y-79002739D01*
X184099260Y-79010562D01*
X184149399Y-79085601D01*
X184232260Y-79140966D01*
X184232264Y-79140967D01*
X184305321Y-79155499D01*
X184305324Y-79155500D01*
X184305326Y-79155500D01*
X184554676Y-79155500D01*
X184554677Y-79155499D01*
X184627740Y-79140966D01*
X184710601Y-79085601D01*
X184738350Y-79044071D01*
X184760709Y-79010609D01*
X184814321Y-78965804D01*
X184863811Y-78955500D01*
X185753703Y-78955500D01*
X185820742Y-78975185D01*
X185866497Y-79027989D01*
X185867092Y-79029313D01*
X185884401Y-79068514D01*
X185966486Y-79150599D01*
X186072680Y-79197488D01*
X186098643Y-79200500D01*
X186586356Y-79200499D01*
X186594726Y-79199528D01*
X186612314Y-79197489D01*
X186612315Y-79197488D01*
X186612320Y-79197488D01*
X186718514Y-79150599D01*
X186734504Y-79134608D01*
X186795824Y-79101123D01*
X186865516Y-79106106D01*
X186921451Y-79147977D01*
X186933936Y-79168552D01*
X186943104Y-79187617D01*
X186943106Y-79187621D01*
X186988005Y-79241159D01*
X186991702Y-79245359D01*
X186992893Y-79246712D01*
X187060939Y-79289709D01*
X187127652Y-79310472D01*
X187171354Y-79317477D01*
X188203868Y-79334130D01*
X188270579Y-79354893D01*
X188271612Y-79355588D01*
X188536405Y-79535826D01*
X188580749Y-79589820D01*
X188588861Y-79659217D01*
X188558166Y-79721983D01*
X188498410Y-79758191D01*
X188464687Y-79762317D01*
X186826958Y-79736628D01*
X186766119Y-79735674D01*
X186766118Y-79735674D01*
X186766117Y-79735674D01*
X186706732Y-79746457D01*
X186706724Y-79746460D01*
X186654313Y-79767086D01*
X186654284Y-79767100D01*
X186619053Y-79786567D01*
X186619052Y-79786567D01*
X186619052Y-79786568D01*
X186603198Y-79806401D01*
X186568792Y-79849441D01*
X186568789Y-79849446D01*
X186546085Y-79901319D01*
X186546082Y-79901329D01*
X186533066Y-79960586D01*
X186506319Y-81306911D01*
X186505981Y-81323921D01*
X186505982Y-81323930D01*
X186516252Y-81382669D01*
X186516252Y-81382670D01*
X186536190Y-81434683D01*
X186536194Y-81434693D01*
X186554926Y-81469513D01*
X186554927Y-81469514D01*
X186617107Y-81520620D01*
X186617108Y-81520620D01*
X186617110Y-81520622D01*
X186668682Y-81544034D01*
X186727761Y-81557854D01*
X188959788Y-81632530D01*
X189026132Y-81654446D01*
X189070096Y-81708750D01*
X189077721Y-81778202D01*
X189046587Y-81840752D01*
X189017641Y-81863848D01*
X188921290Y-81919475D01*
X188921282Y-81919481D01*
X188809481Y-82031282D01*
X188809475Y-82031290D01*
X188730426Y-82168209D01*
X188730423Y-82168216D01*
X188689500Y-82320943D01*
X188689500Y-82479057D01*
X188726638Y-82617656D01*
X188730423Y-82631783D01*
X188730426Y-82631790D01*
X188809475Y-82768709D01*
X188809479Y-82768714D01*
X188809480Y-82768716D01*
X188921284Y-82880520D01*
X188921286Y-82880521D01*
X188921290Y-82880524D01*
X188959888Y-82902808D01*
X189058216Y-82959577D01*
X189210943Y-83000500D01*
X189210945Y-83000500D01*
X189369055Y-83000500D01*
X189369057Y-83000500D01*
X189521784Y-82959577D01*
X189658716Y-82880520D01*
X189770520Y-82768716D01*
X189849577Y-82631784D01*
X189890500Y-82479057D01*
X189890500Y-82320943D01*
X189849577Y-82168216D01*
X189849575Y-82168212D01*
X189849574Y-82168209D01*
X189838764Y-82149486D01*
X189822291Y-82081586D01*
X189845144Y-82015559D01*
X189900065Y-81972369D01*
X189969619Y-81965728D01*
X189999971Y-81975775D01*
X190236927Y-82089945D01*
X190288776Y-82136777D01*
X190306768Y-82192561D01*
X190337360Y-82608620D01*
X190337362Y-82608635D01*
X190339926Y-82643513D01*
X190353301Y-82696137D01*
X190353302Y-82696140D01*
X190353303Y-82696142D01*
X190362155Y-82715733D01*
X190374261Y-82742523D01*
X190391654Y-82771906D01*
X190391656Y-82771909D01*
X190455022Y-82821545D01*
X190507129Y-82843741D01*
X190566514Y-82856172D01*
X191497109Y-82865478D01*
X191499843Y-82865482D01*
X191499852Y-82865481D01*
X191499894Y-82865482D01*
X191502486Y-82865462D01*
X191502923Y-82865454D01*
X191505287Y-82865415D01*
X192258592Y-82846100D01*
X192258630Y-82846107D01*
X192282596Y-82845484D01*
X192283986Y-82845449D01*
X192284018Y-82845447D01*
X192284061Y-82845446D01*
X192284062Y-82845447D01*
X192752763Y-82833273D01*
X192820291Y-82851210D01*
X192867402Y-82902808D01*
X192879138Y-82971685D01*
X192862204Y-83021208D01*
X192842574Y-83053799D01*
X192842570Y-83053806D01*
X192824387Y-83101007D01*
X192824383Y-83101023D01*
X192814021Y-83153968D01*
X192814019Y-83153984D01*
X192805933Y-83582597D01*
X192805921Y-83583285D01*
X192805915Y-83583690D01*
X192805915Y-83583692D01*
X192817051Y-83643842D01*
X192817052Y-83643844D01*
X192838116Y-83696418D01*
X192858004Y-83731807D01*
X192858005Y-83731808D01*
X192858007Y-83731811D01*
X192865950Y-83741084D01*
X192863799Y-83742926D01*
X192893714Y-83784907D01*
X192897060Y-83854697D01*
X192862144Y-83915217D01*
X192800051Y-83947252D01*
X192776546Y-83949500D01*
X181574500Y-83949500D01*
X181507461Y-83929815D01*
X181461706Y-83877011D01*
X181450500Y-83825500D01*
X181450500Y-82703900D01*
X183939010Y-82703900D01*
X183939010Y-83314900D01*
X185692868Y-83314900D01*
X185692868Y-82951466D01*
X185712553Y-82884427D01*
X185765357Y-82838672D01*
X185834515Y-82828728D01*
X185898071Y-82857753D01*
X185904549Y-82863785D01*
X185921284Y-82880520D01*
X185921286Y-82880521D01*
X185921290Y-82880524D01*
X185959888Y-82902808D01*
X186058216Y-82959577D01*
X186210943Y-83000500D01*
X186210945Y-83000500D01*
X186369055Y-83000500D01*
X186369057Y-83000500D01*
X186521784Y-82959577D01*
X186658716Y-82880520D01*
X186770520Y-82768716D01*
X186849577Y-82631784D01*
X186890500Y-82479057D01*
X186890500Y-82320943D01*
X186849577Y-82168216D01*
X186836753Y-82146004D01*
X186770524Y-82031290D01*
X186770518Y-82031282D01*
X186658717Y-81919481D01*
X186658709Y-81919475D01*
X186521790Y-81840426D01*
X186521786Y-81840424D01*
X186521784Y-81840423D01*
X186369057Y-81799500D01*
X186210943Y-81799500D01*
X186058216Y-81840423D01*
X186058209Y-81840426D01*
X185921290Y-81919475D01*
X185921282Y-81919481D01*
X185809481Y-82031282D01*
X185809475Y-82031290D01*
X185730426Y-82168209D01*
X185730423Y-82168216D01*
X185689500Y-82320943D01*
X185689500Y-82479057D01*
X185707921Y-82547808D01*
X185706259Y-82617656D01*
X185667097Y-82675519D01*
X185602868Y-82703023D01*
X185588147Y-82703900D01*
X183939010Y-82703900D01*
X181450500Y-82703900D01*
X181450500Y-81686328D01*
X183979010Y-81686328D01*
X185732868Y-81686328D01*
X185732868Y-79932471D01*
X183979010Y-79932471D01*
X183979010Y-81686328D01*
X181450500Y-81686328D01*
X181450500Y-80680000D01*
X181704540Y-80680000D01*
X181724326Y-80868256D01*
X181724327Y-80868259D01*
X181782818Y-81048277D01*
X181782821Y-81048284D01*
X181877467Y-81212216D01*
X181965207Y-81309661D01*
X182004129Y-81352888D01*
X182157265Y-81464148D01*
X182157270Y-81464151D01*
X182330192Y-81541142D01*
X182330197Y-81541144D01*
X182515354Y-81580500D01*
X182515355Y-81580500D01*
X182704644Y-81580500D01*
X182704646Y-81580500D01*
X182889803Y-81541144D01*
X183062730Y-81464151D01*
X183215871Y-81352888D01*
X183342533Y-81212216D01*
X183437179Y-81048284D01*
X183495674Y-80868256D01*
X183515460Y-80680000D01*
X183495674Y-80491744D01*
X183437179Y-80311716D01*
X183342533Y-80147784D01*
X183215871Y-80007112D01*
X183188320Y-79987095D01*
X183062734Y-79895851D01*
X183062729Y-79895848D01*
X182889807Y-79818857D01*
X182889802Y-79818855D01*
X182744001Y-79787865D01*
X182704646Y-79779500D01*
X182515354Y-79779500D01*
X182482897Y-79786398D01*
X182330197Y-79818855D01*
X182330192Y-79818857D01*
X182157270Y-79895848D01*
X182157265Y-79895851D01*
X182004129Y-80007111D01*
X181877466Y-80147785D01*
X181782821Y-80311715D01*
X181782818Y-80311722D01*
X181724698Y-80490599D01*
X181724326Y-80491744D01*
X181704540Y-80680000D01*
X181450500Y-80680000D01*
X181450500Y-77252170D01*
X181470185Y-77185131D01*
X181522989Y-77139376D01*
X181592147Y-77129432D01*
X181609924Y-77133338D01*
G37*
%TD.AperFunction*%
%TA.AperFunction,Conductor*%
G36*
X202032539Y-80690185D02*
G01*
X202078294Y-80742989D01*
X202089500Y-80794500D01*
X202089500Y-81109417D01*
X202069815Y-81176456D01*
X202017011Y-81222211D01*
X202015587Y-81222851D01*
X201921485Y-81264401D01*
X201839401Y-81346485D01*
X201792512Y-81452678D01*
X201789500Y-81478639D01*
X201789500Y-81966348D01*
X201789502Y-81966372D01*
X201792510Y-81992314D01*
X201792513Y-81992324D01*
X201839400Y-82098513D01*
X201839401Y-82098514D01*
X201921486Y-82180599D01*
X201953259Y-82194628D01*
X201980296Y-82206566D01*
X202033672Y-82251652D01*
X202054199Y-82318438D01*
X202035361Y-82385720D01*
X201983137Y-82432137D01*
X201980296Y-82433434D01*
X201921485Y-82459401D01*
X201839401Y-82541485D01*
X201792512Y-82647678D01*
X201789500Y-82673639D01*
X201789500Y-82733000D01*
X201769815Y-82800039D01*
X201717011Y-82845794D01*
X201665500Y-82857000D01*
X201191949Y-82857000D01*
X201124910Y-82837315D01*
X201088847Y-82801891D01*
X201066680Y-82768716D01*
X201053504Y-82748996D01*
X201053503Y-82748995D01*
X201003724Y-82715734D01*
X201003717Y-82715731D01*
X200959822Y-82707000D01*
X200959820Y-82707000D01*
X200417268Y-82707000D01*
X200350229Y-82687315D01*
X200304474Y-82634511D01*
X200294530Y-82565353D01*
X200294795Y-82563601D01*
X200304869Y-82500000D01*
X200304869Y-82499997D01*
X200287501Y-82390343D01*
X200287500Y-82390341D01*
X200287500Y-82390339D01*
X200276266Y-82368291D01*
X200263371Y-82299626D01*
X200289647Y-82234886D01*
X200346753Y-82194628D01*
X200386752Y-82188000D01*
X200959822Y-82188000D01*
X201003717Y-82179268D01*
X201003717Y-82179267D01*
X201003722Y-82179267D01*
X201053504Y-82146004D01*
X201086767Y-82096222D01*
X201088016Y-82089944D01*
X201095500Y-82052322D01*
X201095500Y-81572677D01*
X201086768Y-81528782D01*
X201086767Y-81528781D01*
X201086767Y-81528778D01*
X201053504Y-81478996D01*
X201052988Y-81478651D01*
X201003724Y-81445734D01*
X201003717Y-81445731D01*
X200959822Y-81437000D01*
X200959820Y-81437000D01*
X200377267Y-81437000D01*
X200310228Y-81417315D01*
X200289586Y-81400681D01*
X200160126Y-81271221D01*
X200126641Y-81209898D01*
X200125334Y-81202937D01*
X200124868Y-81199997D01*
X200119537Y-81166336D01*
X200107501Y-81090341D01*
X200104486Y-81081063D01*
X200108095Y-81079889D01*
X200098658Y-81029619D01*
X200124937Y-80964880D01*
X200182046Y-80924626D01*
X200222038Y-80918000D01*
X200959822Y-80918000D01*
X201003717Y-80909268D01*
X201003717Y-80909267D01*
X201003722Y-80909267D01*
X201053504Y-80876004D01*
X201086767Y-80826222D01*
X201089576Y-80812102D01*
X201096689Y-80776345D01*
X201097831Y-80776572D01*
X201121650Y-80717568D01*
X201178681Y-80677204D01*
X201218900Y-80670500D01*
X201965500Y-80670500D01*
X202032539Y-80690185D01*
G37*
%TD.AperFunction*%
%TA.AperFunction,Conductor*%
G36*
X207592539Y-65170185D02*
G01*
X207638294Y-65222989D01*
X207649500Y-65274500D01*
X207649500Y-83825500D01*
X207629815Y-83892539D01*
X207577011Y-83938294D01*
X207525500Y-83949500D01*
X194053931Y-83949500D01*
X193986892Y-83929815D01*
X193941137Y-83877011D01*
X193931193Y-83807853D01*
X193959175Y-83746580D01*
X193958698Y-83746188D01*
X193960171Y-83744398D01*
X193960218Y-83744297D01*
X193960535Y-83743956D01*
X193962565Y-83741490D01*
X193962571Y-83741486D01*
X194138973Y-83527281D01*
X194196785Y-83488045D01*
X194231482Y-83482150D01*
X195163749Y-83458041D01*
X195166955Y-83458000D01*
X195259822Y-83458000D01*
X195303717Y-83449268D01*
X195303717Y-83449267D01*
X195303722Y-83449267D01*
X195353504Y-83416004D01*
X195386767Y-83366222D01*
X195395500Y-83322320D01*
X195395855Y-83318718D01*
X195402427Y-83292155D01*
X195401849Y-83291984D01*
X195403582Y-83286146D01*
X195403584Y-83286142D01*
X195415075Y-83226566D01*
X195405810Y-81633093D01*
X195401226Y-81596505D01*
X195396970Y-81579377D01*
X195395704Y-81573710D01*
X195395500Y-81572684D01*
X195395500Y-81572680D01*
X195386767Y-81528778D01*
X195353504Y-81478996D01*
X195331282Y-81464148D01*
X195303718Y-81445730D01*
X195296165Y-81442601D01*
X195284123Y-81436833D01*
X195245060Y-81415466D01*
X195245061Y-81415466D01*
X195223150Y-81408587D01*
X195075208Y-81362140D01*
X195049203Y-81353975D01*
X194991140Y-81315114D01*
X194963303Y-81251029D01*
X194963875Y-81216269D01*
X194964869Y-81210000D01*
X194963285Y-81199997D01*
X199415131Y-81199997D01*
X199415131Y-81200002D01*
X199432498Y-81309658D01*
X199482904Y-81408585D01*
X199482909Y-81408592D01*
X199561407Y-81487090D01*
X199561410Y-81487092D01*
X199561413Y-81487095D01*
X199660339Y-81537500D01*
X199669034Y-81541930D01*
X199668255Y-81543458D01*
X199716490Y-81576438D01*
X199743691Y-81640796D01*
X199744500Y-81654936D01*
X199744500Y-82052320D01*
X199744500Y-82052322D01*
X199744499Y-82052322D01*
X199755615Y-82108200D01*
X199753822Y-82108556D01*
X199759708Y-82163291D01*
X199728434Y-82225771D01*
X199725360Y-82228957D01*
X199662906Y-82291410D01*
X199662904Y-82291414D01*
X199612498Y-82390341D01*
X199595131Y-82499997D01*
X199595131Y-82500002D01*
X199612498Y-82609658D01*
X199662904Y-82708585D01*
X199662909Y-82708592D01*
X199708181Y-82753864D01*
X199741666Y-82815187D01*
X199744500Y-82841545D01*
X199744500Y-82842680D01*
X199744500Y-83322320D01*
X199744500Y-83322322D01*
X199744499Y-83322322D01*
X199753231Y-83366217D01*
X199753234Y-83366224D01*
X199759498Y-83375599D01*
X199786496Y-83416004D01*
X199836278Y-83449267D01*
X199836281Y-83449267D01*
X199836282Y-83449268D01*
X199880177Y-83458000D01*
X199880180Y-83458000D01*
X200959822Y-83458000D01*
X201003717Y-83449268D01*
X201003717Y-83449267D01*
X201003722Y-83449267D01*
X201053504Y-83416004D01*
X201086767Y-83366222D01*
X201086767Y-83366221D01*
X201088847Y-83363109D01*
X201142459Y-83318304D01*
X201191949Y-83308000D01*
X201802525Y-83308000D01*
X201869564Y-83327685D01*
X201890206Y-83344319D01*
X201921486Y-83375599D01*
X202027680Y-83422488D01*
X202053643Y-83425500D01*
X202466356Y-83425499D01*
X202474726Y-83424528D01*
X202492314Y-83422489D01*
X202492315Y-83422488D01*
X202492320Y-83422488D01*
X202598514Y-83375599D01*
X202680599Y-83293514D01*
X202727488Y-83187320D01*
X202730500Y-83161357D01*
X202730499Y-82673644D01*
X202727488Y-82647680D01*
X202721673Y-82634511D01*
X202680599Y-82541486D01*
X202598514Y-82459401D01*
X202539703Y-82433433D01*
X202486327Y-82388346D01*
X202465800Y-82321560D01*
X202484639Y-82254278D01*
X202536863Y-82207862D01*
X202539600Y-82206611D01*
X202598514Y-82180599D01*
X202680599Y-82098514D01*
X202727488Y-81992320D01*
X202730500Y-81966357D01*
X202730499Y-81478644D01*
X202727488Y-81452680D01*
X202723912Y-81444582D01*
X202680599Y-81346486D01*
X202626819Y-81292706D01*
X202593334Y-81231383D01*
X202590500Y-81205025D01*
X202590500Y-80716544D01*
X202610185Y-80649505D01*
X202626825Y-80628857D01*
X202627095Y-80628587D01*
X202677500Y-80529661D01*
X202677500Y-80529659D01*
X202677501Y-80529658D01*
X202694869Y-80420002D01*
X202694869Y-80419997D01*
X202688534Y-80379997D01*
X202985131Y-80379997D01*
X202985131Y-80380002D01*
X203002498Y-80489658D01*
X203052904Y-80588585D01*
X203052909Y-80588592D01*
X203131407Y-80667090D01*
X203131410Y-80667092D01*
X203131413Y-80667095D01*
X203205549Y-80704869D01*
X203230341Y-80717501D01*
X203339998Y-80734869D01*
X203340000Y-80734869D01*
X203340002Y-80734869D01*
X203449658Y-80717501D01*
X203449659Y-80717500D01*
X203449661Y-80717500D01*
X203548587Y-80667095D01*
X203627095Y-80588587D01*
X203677500Y-80489661D01*
X203677500Y-80489659D01*
X203677501Y-80489658D01*
X203694869Y-80380002D01*
X203694869Y-80379997D01*
X203690117Y-80349997D01*
X203975131Y-80349997D01*
X203975131Y-80350002D01*
X203992498Y-80459658D01*
X204042904Y-80558585D01*
X204042909Y-80558592D01*
X204121407Y-80637090D01*
X204121410Y-80637092D01*
X204121413Y-80637095D01*
X204220339Y-80687500D01*
X204220341Y-80687501D01*
X204329998Y-80704869D01*
X204330000Y-80704869D01*
X204330002Y-80704869D01*
X204439658Y-80687501D01*
X204439659Y-80687500D01*
X204439661Y-80687500D01*
X204538587Y-80637095D01*
X204617095Y-80558587D01*
X204667500Y-80459661D01*
X204667500Y-80459659D01*
X204667501Y-80459658D01*
X204684869Y-80350002D01*
X204684869Y-80349997D01*
X204667501Y-80240341D01*
X204652762Y-80211414D01*
X204617095Y-80141413D01*
X204617092Y-80141410D01*
X204617090Y-80141407D01*
X204538592Y-80062909D01*
X204538588Y-80062906D01*
X204538587Y-80062905D01*
X204488727Y-80037500D01*
X204439658Y-80012498D01*
X204330002Y-79995131D01*
X204329998Y-79995131D01*
X204220341Y-80012498D01*
X204121414Y-80062904D01*
X204121407Y-80062909D01*
X204042909Y-80141407D01*
X204042904Y-80141414D01*
X203992498Y-80240341D01*
X203975131Y-80349997D01*
X203690117Y-80349997D01*
X203677501Y-80270341D01*
X203646244Y-80208995D01*
X203627095Y-80171413D01*
X203627092Y-80171410D01*
X203627090Y-80171407D01*
X203548592Y-80092909D01*
X203548588Y-80092906D01*
X203548587Y-80092905D01*
X203525925Y-80081358D01*
X203449658Y-80042498D01*
X203340002Y-80025131D01*
X203339998Y-80025131D01*
X203230341Y-80042498D01*
X203131414Y-80092904D01*
X203131407Y-80092909D01*
X203052909Y-80171407D01*
X203052904Y-80171414D01*
X203002498Y-80270341D01*
X202985131Y-80379997D01*
X202688534Y-80379997D01*
X202677501Y-80310341D01*
X202657119Y-80270339D01*
X202627095Y-80211413D01*
X202627092Y-80211410D01*
X202627090Y-80211407D01*
X202558364Y-80142681D01*
X202524879Y-80081358D01*
X202529863Y-80011666D01*
X202558364Y-79967319D01*
X202617090Y-79908592D01*
X202617095Y-79908587D01*
X202667500Y-79809661D01*
X202667500Y-79809659D01*
X202667501Y-79809658D01*
X202684869Y-79700002D01*
X202684869Y-79699997D01*
X202667501Y-79590341D01*
X202658237Y-79572160D01*
X202617095Y-79491413D01*
X202617092Y-79491410D01*
X202617090Y-79491407D01*
X202538592Y-79412909D01*
X202538588Y-79412906D01*
X202538587Y-79412905D01*
X202534743Y-79410946D01*
X202439658Y-79362498D01*
X202330002Y-79345131D01*
X202329998Y-79345131D01*
X202220341Y-79362498D01*
X202121414Y-79412904D01*
X202121407Y-79412909D01*
X202042909Y-79491407D01*
X202042904Y-79491414D01*
X201992498Y-79590341D01*
X201975131Y-79699997D01*
X201975131Y-79700002D01*
X201992498Y-79809658D01*
X202042904Y-79908585D01*
X202042909Y-79908592D01*
X202092136Y-79957819D01*
X202125621Y-80019142D01*
X202120637Y-80088834D01*
X202078765Y-80144767D01*
X202013301Y-80169184D01*
X202004455Y-80169500D01*
X200984602Y-80169500D01*
X200960408Y-80167117D01*
X200959820Y-80167000D01*
X199880180Y-80167000D01*
X199880178Y-80167000D01*
X199836282Y-80175731D01*
X199836275Y-80175734D01*
X199786496Y-80208995D01*
X199786495Y-80208996D01*
X199753234Y-80258775D01*
X199753231Y-80258782D01*
X199744500Y-80302677D01*
X199744500Y-80745063D01*
X199724815Y-80812102D01*
X199672011Y-80857857D01*
X199661155Y-80862084D01*
X199660339Y-80862500D01*
X199561413Y-80912905D01*
X199561412Y-80912906D01*
X199561407Y-80912909D01*
X199482909Y-80991407D01*
X199482904Y-80991414D01*
X199432498Y-81090341D01*
X199415131Y-81199997D01*
X194963285Y-81199997D01*
X194954979Y-81147562D01*
X194947027Y-81097350D01*
X194945500Y-81077952D01*
X194945500Y-81042000D01*
X194965185Y-80974961D01*
X195017989Y-80929206D01*
X195069500Y-80918000D01*
X195259822Y-80918000D01*
X195303717Y-80909268D01*
X195303717Y-80909267D01*
X195303722Y-80909267D01*
X195353504Y-80876004D01*
X195386767Y-80826222D01*
X195389576Y-80812102D01*
X195395500Y-80782322D01*
X195395500Y-80309420D01*
X195415185Y-80242381D01*
X195467989Y-80196626D01*
X195537147Y-80186682D01*
X195565090Y-80194105D01*
X195580000Y-80199999D01*
X195580000Y-80200000D01*
X196010000Y-80370000D01*
X196310000Y-79620000D01*
X195875940Y-79808721D01*
X195821732Y-79818912D01*
X195557805Y-79808761D01*
X195491572Y-79786515D01*
X195447880Y-79731991D01*
X195440098Y-79704251D01*
X195437499Y-79687841D01*
X195401702Y-79617586D01*
X195388807Y-79548918D01*
X195390571Y-79537101D01*
X195395500Y-79512322D01*
X195395500Y-79242169D01*
X195415185Y-79175130D01*
X195467989Y-79129375D01*
X195521879Y-79118192D01*
X195704399Y-79121696D01*
X195721129Y-79121116D01*
X195736983Y-79119709D01*
X195809625Y-79094113D01*
X195856718Y-79062648D01*
X195856729Y-79062636D01*
X195857010Y-79062407D01*
X195857737Y-79061967D01*
X195861786Y-79059262D01*
X195861907Y-79059444D01*
X195885257Y-79045321D01*
X195885155Y-79045105D01*
X195887268Y-79044104D01*
X195887324Y-79044071D01*
X195887438Y-79044021D01*
X195887472Y-79044009D01*
X195891428Y-79042136D01*
X195902042Y-79037705D01*
X195917026Y-79032251D01*
X195943886Y-79022477D01*
X195986292Y-79015000D01*
X195993705Y-79015000D01*
X196036114Y-79022477D01*
X196094310Y-79043659D01*
X196111490Y-79048262D01*
X196120478Y-79050671D01*
X196120480Y-79050671D01*
X196120490Y-79050674D01*
X196145799Y-79055137D01*
X196172803Y-79057500D01*
X198965650Y-79057500D01*
X199021681Y-79047054D01*
X199071428Y-79027838D01*
X199104014Y-79010562D01*
X199156031Y-78949135D01*
X199180197Y-78897914D01*
X199194883Y-78839048D01*
X199198224Y-78769732D01*
X199213416Y-78454483D01*
X199213857Y-78445323D01*
X199219699Y-78324098D01*
X199242586Y-78258087D01*
X199260738Y-78237779D01*
X200025765Y-77551403D01*
X200219623Y-77377475D01*
X200220536Y-77376638D01*
X200222037Y-77375263D01*
X200224311Y-77373136D01*
X200261024Y-77320806D01*
X200283327Y-77268745D01*
X200295880Y-77209384D01*
X200297535Y-77071899D01*
X200298351Y-77059129D01*
X200300500Y-77040616D01*
X200300500Y-76826690D01*
X200300509Y-76825196D01*
X200301771Y-76720497D01*
X200312951Y-75792564D01*
X200313744Y-75726706D01*
X200314588Y-75656654D01*
X200314596Y-75655628D01*
X200314596Y-75655516D01*
X200314600Y-75654922D01*
X200302766Y-75594493D01*
X200302765Y-75594492D01*
X200302765Y-75594489D01*
X200281097Y-75542178D01*
X200281094Y-75542172D01*
X200281092Y-75542167D01*
X200281086Y-75542156D01*
X200260797Y-75507013D01*
X200260795Y-75507011D01*
X200196936Y-75458010D01*
X200190334Y-75455276D01*
X200135932Y-75411434D01*
X200113868Y-75345140D01*
X200117464Y-75319536D01*
X200115973Y-75319300D01*
X200134868Y-75200002D01*
X200134868Y-75199996D01*
X200125983Y-75143897D01*
X200134938Y-75074604D01*
X200179934Y-75021152D01*
X200246686Y-75000513D01*
X200248456Y-75000500D01*
X201715088Y-75000500D01*
X201782127Y-75020185D01*
X201820154Y-75064071D01*
X201821301Y-75063286D01*
X201827794Y-75072765D01*
X201907235Y-75152206D01*
X202010009Y-75197585D01*
X202035135Y-75200500D01*
X202152235Y-75200499D01*
X202219272Y-75220183D01*
X202265027Y-75272987D01*
X202274971Y-75342145D01*
X202245947Y-75405701D01*
X202198554Y-75437128D01*
X202199034Y-75438070D01*
X202190830Y-75442249D01*
X202190568Y-75442424D01*
X202190349Y-75442495D01*
X202091414Y-75492904D01*
X202091407Y-75492909D01*
X202012909Y-75571407D01*
X202012904Y-75571414D01*
X201962498Y-75670341D01*
X201945131Y-75779997D01*
X201945131Y-75780002D01*
X201962498Y-75889658D01*
X202012904Y-75988585D01*
X202012909Y-75988592D01*
X202091407Y-76067090D01*
X202091410Y-76067092D01*
X202091413Y-76067095D01*
X202189589Y-76117118D01*
X202190341Y-76117501D01*
X202299998Y-76134869D01*
X202300000Y-76134869D01*
X202300002Y-76134869D01*
X202409658Y-76117501D01*
X202409659Y-76117500D01*
X202409661Y-76117500D01*
X202508587Y-76067095D01*
X202520844Y-76054838D01*
X202533864Y-76041819D01*
X202595187Y-76008334D01*
X202621545Y-76005500D01*
X202992733Y-76005500D01*
X203059772Y-76025185D01*
X203080413Y-76041818D01*
X203350775Y-76312181D01*
X203384260Y-76373503D01*
X203379276Y-76443195D01*
X203337404Y-76499128D01*
X203271940Y-76523545D01*
X203203667Y-76508693D01*
X203201096Y-76507249D01*
X203148540Y-76476907D01*
X203148537Y-76476905D01*
X203092601Y-76461917D01*
X203027601Y-76444500D01*
X202902399Y-76444500D01*
X202837399Y-76461917D01*
X202781463Y-76476905D01*
X202673037Y-76539504D01*
X202673034Y-76539506D01*
X202584506Y-76628034D01*
X202584504Y-76628037D01*
X202521905Y-76736463D01*
X202521905Y-76736464D01*
X202489500Y-76857399D01*
X202489500Y-76982601D01*
X202521905Y-77103536D01*
X202584505Y-77211964D01*
X202673036Y-77300495D01*
X202781464Y-77363095D01*
X202902399Y-77395500D01*
X202902401Y-77395500D01*
X203027599Y-77395500D01*
X203027601Y-77395500D01*
X203148536Y-77363095D01*
X203256964Y-77300495D01*
X203345495Y-77211964D01*
X203408095Y-77103536D01*
X203440500Y-76982601D01*
X203440500Y-76857399D01*
X203408095Y-76736464D01*
X203385014Y-76696486D01*
X203344141Y-76625690D01*
X203327668Y-76557790D01*
X203350521Y-76491763D01*
X203405442Y-76448573D01*
X203474996Y-76441932D01*
X203498980Y-76449130D01*
X203538792Y-76465619D01*
X203562645Y-76475500D01*
X203652354Y-76475500D01*
X204123703Y-76475500D01*
X204190742Y-76495185D01*
X204236497Y-76547989D01*
X204237092Y-76549313D01*
X204254401Y-76588514D01*
X204336486Y-76670599D01*
X204442680Y-76717488D01*
X204468643Y-76720500D01*
X204956356Y-76720499D01*
X204964726Y-76719528D01*
X204982314Y-76717489D01*
X204982315Y-76717488D01*
X204982320Y-76717488D01*
X205088514Y-76670599D01*
X205170599Y-76588514D01*
X205217488Y-76482320D01*
X205220500Y-76456357D01*
X205220499Y-76043644D01*
X205218647Y-76027675D01*
X205217489Y-76017685D01*
X205217488Y-76017682D01*
X205217488Y-76017680D01*
X205213361Y-76008334D01*
X205170599Y-75911486D01*
X205088514Y-75829401D01*
X204982321Y-75782512D01*
X204956357Y-75779500D01*
X204468651Y-75779500D01*
X204468627Y-75779502D01*
X204442685Y-75782510D01*
X204442675Y-75782513D01*
X204336486Y-75829400D01*
X204254402Y-75911484D01*
X204254401Y-75911485D01*
X204254401Y-75911486D01*
X204237136Y-75950587D01*
X204192052Y-76003962D01*
X204125266Y-76024490D01*
X204123703Y-76024500D01*
X203752268Y-76024500D01*
X203685229Y-76004815D01*
X203664587Y-75988181D01*
X203346111Y-75669706D01*
X203346110Y-75669705D01*
X203328670Y-75652264D01*
X203265236Y-75588830D01*
X203265235Y-75588829D01*
X203240957Y-75578772D01*
X203240957Y-75578771D01*
X203182358Y-75554500D01*
X203182356Y-75554499D01*
X203182355Y-75554499D01*
X203092645Y-75554499D01*
X203078211Y-75554499D01*
X203078203Y-75554500D01*
X202621545Y-75554500D01*
X202554506Y-75534815D01*
X202533864Y-75518181D01*
X202508592Y-75492909D01*
X202508588Y-75492906D01*
X202508587Y-75492905D01*
X202504743Y-75490946D01*
X202409658Y-75442498D01*
X202409437Y-75442427D01*
X202409202Y-75442266D01*
X202400966Y-75438070D01*
X202401508Y-75437004D01*
X202351765Y-75402984D01*
X202324572Y-75338624D01*
X202336492Y-75269778D01*
X202383741Y-75218306D01*
X202447762Y-75200499D01*
X203149864Y-75200499D01*
X203149879Y-75200497D01*
X203149882Y-75200497D01*
X203174987Y-75197586D01*
X203174988Y-75197585D01*
X203174991Y-75197585D01*
X203277765Y-75152206D01*
X203357206Y-75072765D01*
X203402585Y-74969991D01*
X203405500Y-74944865D01*
X203405499Y-74581189D01*
X203425183Y-74514151D01*
X203477987Y-74468396D01*
X203531376Y-74457204D01*
X203932381Y-74463280D01*
X203999112Y-74483978D01*
X204044062Y-74537469D01*
X204054500Y-74587266D01*
X204054500Y-74944856D01*
X204054502Y-74944882D01*
X204057413Y-74969987D01*
X204057415Y-74969991D01*
X204102793Y-75072764D01*
X204102794Y-75072765D01*
X204182235Y-75152206D01*
X204285009Y-75197585D01*
X204310135Y-75200500D01*
X205424864Y-75200499D01*
X205424879Y-75200497D01*
X205424882Y-75200497D01*
X205449987Y-75197586D01*
X205449988Y-75197585D01*
X205449991Y-75197585D01*
X205552765Y-75152206D01*
X205632206Y-75072765D01*
X205632210Y-75072755D01*
X205632699Y-75072043D01*
X205662127Y-75041788D01*
X205668584Y-75037096D01*
X205668587Y-75037095D01*
X205747095Y-74958587D01*
X205797500Y-74859661D01*
X205797500Y-74859659D01*
X205797501Y-74859658D01*
X205814869Y-74750002D01*
X205814869Y-74749997D01*
X205797501Y-74640341D01*
X205790227Y-74626065D01*
X205747095Y-74541413D01*
X205747092Y-74541410D01*
X205747090Y-74541407D01*
X205668589Y-74462906D01*
X205662126Y-74458211D01*
X205632704Y-74427962D01*
X205632206Y-74427235D01*
X205592844Y-74387873D01*
X205552765Y-74347794D01*
X205552763Y-74347793D01*
X205449992Y-74302415D01*
X205424868Y-74299500D01*
X204354461Y-74299500D01*
X204287422Y-74279815D01*
X204241667Y-74227011D01*
X204231850Y-74177871D01*
X204230626Y-74177918D01*
X204225999Y-74055312D01*
X204202370Y-73429172D01*
X204219513Y-73361441D01*
X204270554Y-73313727D01*
X204326277Y-73300499D01*
X205424864Y-73300499D01*
X205424879Y-73300497D01*
X205424882Y-73300497D01*
X205449987Y-73297586D01*
X205449988Y-73297585D01*
X205449991Y-73297585D01*
X205552765Y-73252206D01*
X205632206Y-73172765D01*
X205653906Y-73123615D01*
X205679660Y-73086021D01*
X205685224Y-73080457D01*
X205727095Y-73038587D01*
X205777500Y-72939661D01*
X205777500Y-72939659D01*
X205777501Y-72939658D01*
X205794869Y-72830002D01*
X205794869Y-72829997D01*
X205777501Y-72720341D01*
X205772232Y-72710000D01*
X205727095Y-72621413D01*
X205727092Y-72621410D01*
X205727090Y-72621407D01*
X205643964Y-72538281D01*
X205639083Y-72534112D01*
X205552765Y-72447794D01*
X205449992Y-72402415D01*
X205424865Y-72399500D01*
X204310143Y-72399500D01*
X204310117Y-72399502D01*
X204285012Y-72402413D01*
X204285008Y-72402415D01*
X204182235Y-72447793D01*
X204102794Y-72527234D01*
X204057415Y-72630006D01*
X204057415Y-72630008D01*
X204054500Y-72655131D01*
X204054500Y-72972908D01*
X204034815Y-73039947D01*
X203982011Y-73085702D01*
X203921333Y-73094853D01*
X203921242Y-73096428D01*
X203916823Y-73096172D01*
X203531197Y-73101455D01*
X203463895Y-73082691D01*
X203417421Y-73030519D01*
X203405499Y-72977470D01*
X203405499Y-72655136D01*
X203403490Y-72637812D01*
X203402586Y-72630012D01*
X203402585Y-72630010D01*
X203402585Y-72630009D01*
X203357206Y-72527235D01*
X203277765Y-72447794D01*
X203221397Y-72422905D01*
X203174992Y-72402415D01*
X203149865Y-72399500D01*
X202035143Y-72399500D01*
X202035117Y-72399502D01*
X202010012Y-72402413D01*
X202010008Y-72402415D01*
X201907235Y-72447793D01*
X201827794Y-72527234D01*
X201782415Y-72630006D01*
X201782415Y-72630008D01*
X201779500Y-72655131D01*
X201779500Y-72715500D01*
X201759815Y-72782539D01*
X201707011Y-72828294D01*
X201655500Y-72839500D01*
X201432987Y-72839500D01*
X201365948Y-72819815D01*
X201320193Y-72767011D01*
X201310249Y-72697853D01*
X201315057Y-72677177D01*
X201317495Y-72669669D01*
X201317500Y-72669661D01*
X201325590Y-72618587D01*
X201334869Y-72560002D01*
X201334869Y-72559997D01*
X201317501Y-72450341D01*
X201296945Y-72409997D01*
X201267095Y-72351413D01*
X201267092Y-72351410D01*
X201267090Y-72351407D01*
X201188592Y-72272909D01*
X201188588Y-72272906D01*
X201188587Y-72272905D01*
X201147003Y-72251717D01*
X201089658Y-72222498D01*
X201065100Y-72218609D01*
X201001965Y-72188679D01*
X200965035Y-72129367D01*
X200960499Y-72096142D01*
X200960499Y-71693644D01*
X200957488Y-71667680D01*
X200948950Y-71648344D01*
X200910599Y-71561486D01*
X200828514Y-71479401D01*
X200722321Y-71432512D01*
X200696357Y-71429500D01*
X200283651Y-71429500D01*
X200283627Y-71429502D01*
X200257685Y-71432510D01*
X200257675Y-71432513D01*
X200151486Y-71479400D01*
X200069401Y-71561485D01*
X200022512Y-71667678D01*
X200019500Y-71693639D01*
X200019500Y-72181348D01*
X200019502Y-72181372D01*
X200022510Y-72207314D01*
X200022513Y-72207324D01*
X200069400Y-72313513D01*
X200069401Y-72313514D01*
X200151486Y-72395599D01*
X200257680Y-72442488D01*
X200283643Y-72445500D01*
X200495231Y-72445499D01*
X200562271Y-72465183D01*
X200582913Y-72481818D01*
X200589873Y-72488778D01*
X200623358Y-72550101D01*
X200624665Y-72557061D01*
X200642498Y-72669658D01*
X200688648Y-72760233D01*
X200701544Y-72828902D01*
X200675267Y-72893643D01*
X200665844Y-72904208D01*
X200468103Y-73101950D01*
X200446872Y-73123181D01*
X200385549Y-73156666D01*
X200359191Y-73159500D01*
X199740537Y-73159500D01*
X199673498Y-73139815D01*
X199627743Y-73087011D01*
X199617799Y-73017853D01*
X199618064Y-73016102D01*
X199634869Y-72910001D01*
X199634869Y-72909997D01*
X199617501Y-72800343D01*
X199617500Y-72800341D01*
X199617500Y-72800339D01*
X199569675Y-72706477D01*
X199556780Y-72637812D01*
X199569674Y-72593897D01*
X199607500Y-72519661D01*
X199610391Y-72501413D01*
X199624869Y-72410002D01*
X199624869Y-72409997D01*
X199607501Y-72300341D01*
X199592317Y-72270541D01*
X199557095Y-72201413D01*
X199557092Y-72201410D01*
X199557090Y-72201407D01*
X199478592Y-72122909D01*
X199478588Y-72122906D01*
X199478587Y-72122905D01*
X199407921Y-72086899D01*
X199379658Y-72072498D01*
X199270002Y-72055131D01*
X199269998Y-72055131D01*
X199160342Y-72072498D01*
X199055859Y-72125734D01*
X198987190Y-72138629D01*
X198975378Y-72136866D01*
X198963481Y-72134500D01*
X198963480Y-72134500D01*
X198279500Y-72134500D01*
X198212461Y-72114815D01*
X198166706Y-72062011D01*
X198155500Y-72010500D01*
X198155500Y-71326519D01*
X198155499Y-71326515D01*
X198143142Y-71264390D01*
X198117196Y-71225560D01*
X198096065Y-71193935D01*
X198057973Y-71168483D01*
X198033404Y-71152066D01*
X197988599Y-71098453D01*
X197985955Y-71077399D01*
X202489500Y-71077399D01*
X202489500Y-71202601D01*
X202521905Y-71323536D01*
X202584505Y-71431964D01*
X202673036Y-71520495D01*
X202781464Y-71583095D01*
X202902399Y-71615500D01*
X202902401Y-71615500D01*
X203027599Y-71615500D01*
X203027601Y-71615500D01*
X203148536Y-71583095D01*
X203256964Y-71520495D01*
X203345495Y-71431964D01*
X203408095Y-71323536D01*
X203440500Y-71202601D01*
X203440500Y-71077399D01*
X203408095Y-70956464D01*
X203345495Y-70848036D01*
X203256964Y-70759505D01*
X203148536Y-70696905D01*
X203148537Y-70696905D01*
X203096288Y-70682905D01*
X203027601Y-70664500D01*
X202902399Y-70664500D01*
X202833712Y-70682905D01*
X202781463Y-70696905D01*
X202673037Y-70759504D01*
X202673034Y-70759506D01*
X202584506Y-70848034D01*
X202584504Y-70848037D01*
X202521905Y-70956463D01*
X202521905Y-70956464D01*
X202489500Y-71077399D01*
X197985955Y-71077399D01*
X197979892Y-71029128D01*
X198010047Y-70966101D01*
X198069490Y-70929382D01*
X198082897Y-70926491D01*
X198139658Y-70917501D01*
X198139659Y-70917500D01*
X198139661Y-70917500D01*
X198238587Y-70867095D01*
X198317095Y-70788587D01*
X198317098Y-70788580D01*
X198322828Y-70780695D01*
X198324360Y-70781807D01*
X198364048Y-70739776D01*
X198431867Y-70722972D01*
X198498005Y-70745502D01*
X198506201Y-70751806D01*
X198515393Y-70759506D01*
X198563876Y-70800123D01*
X198615225Y-70824018D01*
X198646451Y-70831632D01*
X198674164Y-70838390D01*
X198674165Y-70838390D01*
X198674173Y-70838392D01*
X199186267Y-70860339D01*
X199300407Y-70865231D01*
X199301127Y-70865247D01*
X199306567Y-70865373D01*
X199312425Y-70865392D01*
X199318489Y-70865291D01*
X199318581Y-70865290D01*
X199338210Y-70864576D01*
X199791313Y-70848099D01*
X199791314Y-70848100D01*
X199791513Y-70848093D01*
X199851117Y-70833920D01*
X199902557Y-70810220D01*
X199936891Y-70788568D01*
X199983363Y-70722845D01*
X200002979Y-70669713D01*
X200012485Y-70609788D01*
X200004837Y-70413997D01*
X203894500Y-70413997D01*
X203894500Y-71275946D01*
X203894503Y-71276657D01*
X203894505Y-71276672D01*
X203906906Y-71336850D01*
X203906907Y-71336855D01*
X203929076Y-71388978D01*
X203949701Y-71423936D01*
X204014019Y-71472333D01*
X204066547Y-71493513D01*
X204126165Y-71504788D01*
X204126171Y-71504787D01*
X204126172Y-71504788D01*
X204525165Y-71501023D01*
X205038165Y-71496184D01*
X205096883Y-71484072D01*
X205148511Y-71462401D01*
X205182989Y-71442386D01*
X205231989Y-71378527D01*
X205253663Y-71326201D01*
X205257537Y-71306724D01*
X205265500Y-71266696D01*
X205265500Y-70413997D01*
X205253664Y-70354498D01*
X205253663Y-70354497D01*
X205253663Y-70354493D01*
X205232158Y-70302576D01*
X205224690Y-70233110D01*
X205239336Y-70193120D01*
X205241982Y-70188535D01*
X205241989Y-70188527D01*
X205263663Y-70136201D01*
X205270017Y-70104257D01*
X205275500Y-70076696D01*
X205275500Y-69223997D01*
X205263664Y-69164498D01*
X205263663Y-69164497D01*
X205263663Y-69164493D01*
X205251392Y-69134870D01*
X205243924Y-69065401D01*
X205251393Y-69039965D01*
X205255984Y-69028882D01*
X205273663Y-68986201D01*
X205279015Y-68959297D01*
X205285500Y-68926696D01*
X205285500Y-68073997D01*
X205273664Y-68014498D01*
X205273663Y-68014497D01*
X205273663Y-68014493D01*
X205264245Y-67991756D01*
X205251994Y-67962178D01*
X205251991Y-67962172D01*
X205251989Y-67962167D01*
X205249211Y-67957355D01*
X205231694Y-67927013D01*
X205231692Y-67927011D01*
X205167832Y-67878010D01*
X205167833Y-67878010D01*
X205115511Y-67856338D01*
X205115501Y-67856335D01*
X205056002Y-67844500D01*
X205056000Y-67844500D01*
X204144000Y-67844500D01*
X204143998Y-67844500D01*
X204084498Y-67856335D01*
X204084488Y-67856338D01*
X204032178Y-67878005D01*
X204032156Y-67878016D01*
X203997013Y-67898305D01*
X203997011Y-67898307D01*
X203948010Y-67962167D01*
X203926338Y-68014488D01*
X203926335Y-68014498D01*
X203914500Y-68073997D01*
X203914500Y-68935946D01*
X203914503Y-68936657D01*
X203914505Y-68936672D01*
X203926906Y-68996850D01*
X203926908Y-68996859D01*
X203936359Y-69019080D01*
X203944482Y-69088476D01*
X203936812Y-69115060D01*
X203916337Y-69164492D01*
X203916335Y-69164498D01*
X203904500Y-69223997D01*
X203904500Y-70085946D01*
X203904503Y-70086657D01*
X203904505Y-70086672D01*
X203916906Y-70146850D01*
X203916906Y-70146851D01*
X203916907Y-70146854D01*
X203916908Y-70146857D01*
X203934631Y-70188527D01*
X203935435Y-70190417D01*
X203943558Y-70259813D01*
X203931003Y-70294609D01*
X203931121Y-70294658D01*
X203930076Y-70297180D01*
X203928723Y-70300931D01*
X203928013Y-70302160D01*
X203906338Y-70354488D01*
X203906335Y-70354498D01*
X203894500Y-70413997D01*
X200004837Y-70413997D01*
X199968039Y-69471969D01*
X199985092Y-69404214D01*
X200036070Y-69356433D01*
X200104788Y-69343798D01*
X200138311Y-69352126D01*
X200166547Y-69363511D01*
X200226165Y-69374786D01*
X200226171Y-69374785D01*
X200226172Y-69374786D01*
X200625165Y-69371021D01*
X201138165Y-69366182D01*
X201196883Y-69354070D01*
X201248511Y-69332399D01*
X201282989Y-69312384D01*
X201331989Y-69248525D01*
X201353663Y-69196199D01*
X201362995Y-69149286D01*
X201365500Y-69136694D01*
X201365500Y-68283995D01*
X201353664Y-68224496D01*
X201353663Y-68224495D01*
X201353663Y-68224491D01*
X201345654Y-68205156D01*
X201331994Y-68172176D01*
X201331987Y-68172161D01*
X201320266Y-68151860D01*
X201303793Y-68083960D01*
X201326646Y-68017933D01*
X201381567Y-67974742D01*
X201439803Y-67966457D01*
X201530000Y-67975341D01*
X201726132Y-67956024D01*
X201914727Y-67898814D01*
X201915680Y-67898305D01*
X202051858Y-67825516D01*
X202088538Y-67805910D01*
X202240883Y-67680883D01*
X202365910Y-67528538D01*
X202458814Y-67354727D01*
X202516024Y-67166132D01*
X202535341Y-66970000D01*
X202516024Y-66773868D01*
X202458814Y-66585273D01*
X202458811Y-66585269D01*
X202458811Y-66585266D01*
X202365913Y-66411467D01*
X202365909Y-66411460D01*
X202240883Y-66259116D01*
X202088539Y-66134090D01*
X202088532Y-66134086D01*
X201914733Y-66041188D01*
X201914727Y-66041186D01*
X201726132Y-65983976D01*
X201726129Y-65983975D01*
X201530000Y-65964659D01*
X201333870Y-65983975D01*
X201145266Y-66041188D01*
X200971467Y-66134086D01*
X200971460Y-66134090D01*
X200819116Y-66259116D01*
X200694090Y-66411460D01*
X200694086Y-66411467D01*
X200601188Y-66585266D01*
X200543975Y-66773870D01*
X200524659Y-66970000D01*
X200543975Y-67166129D01*
X200601188Y-67354733D01*
X200694086Y-67528532D01*
X200694090Y-67528539D01*
X200819116Y-67680883D01*
X200876864Y-67728275D01*
X200971462Y-67805910D01*
X200999954Y-67821139D01*
X201049798Y-67870102D01*
X201065259Y-67938239D01*
X201041428Y-68003919D01*
X200985870Y-68046288D01*
X200941501Y-68054498D01*
X200223998Y-68054498D01*
X200164498Y-68066333D01*
X200164488Y-68066336D01*
X200112178Y-68088003D01*
X200112156Y-68088014D01*
X200077013Y-68108303D01*
X200077011Y-68108305D01*
X200028010Y-68172165D01*
X200006338Y-68224486D01*
X200006335Y-68224496D01*
X199994500Y-68283995D01*
X199994500Y-68836162D01*
X199974815Y-68903201D01*
X199922011Y-68948956D01*
X199852853Y-68958900D01*
X199846310Y-68957780D01*
X199829820Y-68954500D01*
X199790833Y-68954500D01*
X199766640Y-68952117D01*
X199728349Y-68944500D01*
X199728348Y-68944500D01*
X198923766Y-68944500D01*
X198856727Y-68924815D01*
X198810972Y-68872011D01*
X198801028Y-68802853D01*
X198830053Y-68739297D01*
X198836085Y-68732819D01*
X198943898Y-68625006D01*
X199100294Y-68468610D01*
X199100297Y-68468608D01*
X199117735Y-68451170D01*
X199117736Y-68451170D01*
X199181170Y-68387736D01*
X199201832Y-68337854D01*
X199215501Y-68304854D01*
X199215501Y-68215145D01*
X199215501Y-68205156D01*
X199215500Y-68205142D01*
X199215500Y-68039079D01*
X199235185Y-67972040D01*
X199287989Y-67926285D01*
X199303492Y-67920422D01*
X199374727Y-67898814D01*
X199548538Y-67805910D01*
X199700883Y-67680883D01*
X199825910Y-67528538D01*
X199918814Y-67354727D01*
X199976024Y-67166132D01*
X199995341Y-66970000D01*
X199976024Y-66773868D01*
X199918814Y-66585273D01*
X199918811Y-66585269D01*
X199918811Y-66585266D01*
X199825913Y-66411467D01*
X199825909Y-66411460D01*
X199700883Y-66259116D01*
X199548539Y-66134090D01*
X199548532Y-66134086D01*
X199374733Y-66041188D01*
X199374727Y-66041186D01*
X199186132Y-65983976D01*
X199186129Y-65983975D01*
X198990000Y-65964659D01*
X198793870Y-65983975D01*
X198605266Y-66041188D01*
X198431467Y-66134086D01*
X198431460Y-66134090D01*
X198279116Y-66259116D01*
X198154090Y-66411460D01*
X198154086Y-66411467D01*
X198061188Y-66585266D01*
X198003975Y-66773870D01*
X197984659Y-66970000D01*
X198003975Y-67166129D01*
X198061188Y-67354733D01*
X198154086Y-67528532D01*
X198154090Y-67528539D01*
X198279116Y-67680883D01*
X198431460Y-67805909D01*
X198431467Y-67805913D01*
X198468110Y-67825499D01*
X198605273Y-67898814D01*
X198676497Y-67920419D01*
X198734933Y-67958715D01*
X198763390Y-68022527D01*
X198764500Y-68039079D01*
X198764500Y-68115232D01*
X198744815Y-68182271D01*
X198728181Y-68202913D01*
X198486598Y-68444496D01*
X198222265Y-68708829D01*
X198222264Y-68708830D01*
X198158830Y-68772264D01*
X198151424Y-68790145D01*
X198151424Y-68790146D01*
X198124499Y-68855145D01*
X198124499Y-68959288D01*
X198124500Y-68959297D01*
X198124500Y-70104257D01*
X198104815Y-70171296D01*
X198052011Y-70217051D01*
X198019899Y-70226730D01*
X197920341Y-70242499D01*
X197821414Y-70292904D01*
X197821407Y-70292909D01*
X197742909Y-70371407D01*
X197742904Y-70371414D01*
X197692498Y-70470341D01*
X197685059Y-70517313D01*
X197655129Y-70580447D01*
X197595817Y-70617378D01*
X197543188Y-70620387D01*
X197510002Y-70615131D01*
X197509998Y-70615131D01*
X197400341Y-70632498D01*
X197292717Y-70687336D01*
X197291989Y-70685909D01*
X197236569Y-70705678D01*
X197168516Y-70689848D01*
X197119826Y-70639738D01*
X197105500Y-70581880D01*
X197105500Y-69099297D01*
X197105501Y-69099288D01*
X197105501Y-68995146D01*
X197105501Y-68995145D01*
X197078778Y-68930631D01*
X197071170Y-68912264D01*
X197007736Y-68848830D01*
X197007734Y-68848829D01*
X197000668Y-68841763D01*
X197000668Y-68841762D01*
X197000664Y-68841759D01*
X196938611Y-68779706D01*
X196938609Y-68779703D01*
X196857735Y-68698829D01*
X196835547Y-68689639D01*
X196822549Y-68684255D01*
X196822544Y-68684251D01*
X196822544Y-68684253D01*
X196818298Y-68682494D01*
X196778075Y-68655616D01*
X196304373Y-68181914D01*
X196270888Y-68120591D01*
X196275872Y-68050899D01*
X196317744Y-67994966D01*
X196383208Y-67970549D01*
X196404198Y-67970829D01*
X196450000Y-67975341D01*
X196646132Y-67956024D01*
X196834727Y-67898814D01*
X196835680Y-67898305D01*
X196971858Y-67825516D01*
X197008538Y-67805910D01*
X197160883Y-67680883D01*
X197285910Y-67528538D01*
X197378814Y-67354727D01*
X197436024Y-67166132D01*
X197455341Y-66970000D01*
X197436024Y-66773868D01*
X197378814Y-66585273D01*
X197378811Y-66585269D01*
X197378811Y-66585266D01*
X197285913Y-66411467D01*
X197285909Y-66411460D01*
X197160883Y-66259116D01*
X197008539Y-66134090D01*
X197008532Y-66134086D01*
X196834733Y-66041188D01*
X196834727Y-66041186D01*
X196646132Y-65983976D01*
X196646129Y-65983975D01*
X196450000Y-65964659D01*
X196253870Y-65983975D01*
X196065266Y-66041188D01*
X195891467Y-66134086D01*
X195891460Y-66134090D01*
X195739116Y-66259116D01*
X195614090Y-66411460D01*
X195614086Y-66411467D01*
X195521188Y-66585266D01*
X195463975Y-66773870D01*
X195444659Y-66970000D01*
X195463975Y-67166129D01*
X195521188Y-67354733D01*
X195583628Y-67471550D01*
X195597870Y-67539953D01*
X195572870Y-67605197D01*
X195516564Y-67646567D01*
X195446831Y-67650929D01*
X195386589Y-67617684D01*
X194976110Y-67207205D01*
X194958670Y-67189764D01*
X194895236Y-67126330D01*
X194895235Y-67126329D01*
X194870957Y-67116272D01*
X194870957Y-67116271D01*
X194812358Y-67092000D01*
X194812356Y-67091999D01*
X194812355Y-67091999D01*
X194747855Y-67091999D01*
X194680816Y-67072314D01*
X194635061Y-67019510D01*
X194634421Y-67018085D01*
X194600599Y-66941486D01*
X194518514Y-66859401D01*
X194412321Y-66812512D01*
X194386357Y-66809500D01*
X193973651Y-66809500D01*
X193973632Y-66809502D01*
X193951759Y-66812038D01*
X193882899Y-66800205D01*
X193859947Y-66782743D01*
X193859137Y-66783812D01*
X193785264Y-66727806D01*
X193757285Y-66716407D01*
X193732810Y-66706435D01*
X193682722Y-66696774D01*
X193673235Y-66694944D01*
X193673234Y-66694944D01*
X193672909Y-66694945D01*
X193636910Y-66695154D01*
X193616796Y-66693629D01*
X193500002Y-66675131D01*
X193499999Y-66675131D01*
X193423566Y-66687237D01*
X193390346Y-66692499D01*
X193380705Y-66694026D01*
X193380570Y-66693176D01*
X193358260Y-66696774D01*
X192458807Y-66702003D01*
X192419832Y-66692773D01*
X192418942Y-66695515D01*
X192409660Y-66692499D01*
X192300002Y-66675131D01*
X192299998Y-66675131D01*
X192190340Y-66692499D01*
X192181058Y-66695515D01*
X192180492Y-66693773D01*
X192138986Y-66703863D01*
X192074967Y-66704236D01*
X192049858Y-66706424D01*
X192049851Y-66706425D01*
X192049841Y-66706426D01*
X192026274Y-66710425D01*
X192021507Y-66711311D01*
X192021504Y-66711312D01*
X191949425Y-66747129D01*
X191949419Y-66747133D01*
X191906957Y-66784599D01*
X191906950Y-66784607D01*
X191870165Y-66832848D01*
X191507733Y-67573470D01*
X191460584Y-67625033D01*
X191395266Y-67642960D01*
X190610078Y-67636073D01*
X190543214Y-67615801D01*
X190498156Y-67563115D01*
X190482538Y-67528532D01*
X190171260Y-66839270D01*
X190157711Y-66815221D01*
X190142892Y-66793650D01*
X190138625Y-66787741D01*
X190075045Y-66738378D01*
X190045244Y-66725835D01*
X190022839Y-66716405D01*
X189971298Y-66705849D01*
X189963405Y-66704233D01*
X189957425Y-66704199D01*
X189728088Y-66702895D01*
X189709396Y-66701370D01*
X189670003Y-66695131D01*
X189670001Y-66695131D01*
X189670000Y-66695131D01*
X189634672Y-66700726D01*
X189614573Y-66702250D01*
X188483438Y-66695823D01*
X188474952Y-66695131D01*
X188463242Y-66695130D01*
X188456146Y-66695667D01*
X188326730Y-66694933D01*
X188324590Y-66694921D01*
X188324589Y-66694921D01*
X188324588Y-66694921D01*
X188265295Y-66706305D01*
X188213059Y-66727476D01*
X188213053Y-66727479D01*
X188178000Y-66747316D01*
X188128383Y-66810703D01*
X188106210Y-66862808D01*
X188106208Y-66862815D01*
X188093797Y-66922212D01*
X188085372Y-67798505D01*
X188084836Y-67854236D01*
X188084905Y-67860603D01*
X188085093Y-67866632D01*
X188101495Y-67931446D01*
X188101496Y-67931447D01*
X188126872Y-67982083D01*
X188126873Y-67982085D01*
X188164112Y-68029977D01*
X188164115Y-68029980D01*
X188164117Y-68029982D01*
X189455747Y-69148109D01*
X189455749Y-69148112D01*
X189457105Y-69149286D01*
X189457120Y-69149297D01*
X189508832Y-69179818D01*
X189556561Y-69230845D01*
X189569125Y-69299575D01*
X189556292Y-69342896D01*
X189552499Y-69350339D01*
X189551641Y-69355759D01*
X189521708Y-69418892D01*
X189516852Y-69424033D01*
X189469401Y-69471484D01*
X189422512Y-69577678D01*
X189419500Y-69603639D01*
X189419500Y-70091348D01*
X189419502Y-70091372D01*
X189422510Y-70117314D01*
X189422513Y-70117324D01*
X189469400Y-70223513D01*
X189469401Y-70223514D01*
X189551486Y-70305599D01*
X189657680Y-70352488D01*
X189683643Y-70355500D01*
X190096356Y-70355499D01*
X190105074Y-70354488D01*
X190122314Y-70352489D01*
X190122315Y-70352488D01*
X190122320Y-70352488D01*
X190228514Y-70305599D01*
X190310599Y-70223514D01*
X190357488Y-70117320D01*
X190360500Y-70091357D01*
X190360499Y-69603644D01*
X190357488Y-69577680D01*
X190310599Y-69471486D01*
X190263149Y-69424036D01*
X190229664Y-69362713D01*
X190228358Y-69355759D01*
X190227500Y-69350339D01*
X190227498Y-69350336D01*
X190226313Y-69342849D01*
X190235270Y-69273556D01*
X190280267Y-69220105D01*
X190347019Y-69199467D01*
X190347706Y-69199459D01*
X191311195Y-69191872D01*
X191378386Y-69211028D01*
X191424555Y-69263470D01*
X191435043Y-69332548D01*
X191412632Y-69388555D01*
X191377056Y-69437723D01*
X191356862Y-69490641D01*
X191356862Y-69490643D01*
X191346705Y-69550459D01*
X191349451Y-69647948D01*
X191349500Y-69651439D01*
X191349500Y-70081348D01*
X191349502Y-70081372D01*
X191352510Y-70107314D01*
X191352511Y-70107318D01*
X191352512Y-70107320D01*
X191353530Y-70109627D01*
X191363815Y-70151369D01*
X191364320Y-70158869D01*
X191365552Y-70170386D01*
X191365553Y-70170392D01*
X191389890Y-70238741D01*
X191389892Y-70238745D01*
X191420814Y-70286195D01*
X191463221Y-70329588D01*
X192284267Y-70891948D01*
X192366389Y-70948196D01*
X192410575Y-71002320D01*
X192418485Y-71071740D01*
X192387608Y-71134417D01*
X192327747Y-71170451D01*
X192296318Y-71174500D01*
X192114649Y-71174500D01*
X192094397Y-71175825D01*
X192094382Y-71175827D01*
X192075259Y-71178341D01*
X192000914Y-71209114D01*
X192000910Y-71209116D01*
X191955963Y-71243579D01*
X191915947Y-71289176D01*
X191915942Y-71289182D01*
X191915291Y-71290310D01*
X191915290Y-71290312D01*
X191899736Y-71327831D01*
X191899735Y-71327835D01*
X191889806Y-71364857D01*
X191884500Y-71405140D01*
X191884500Y-71915229D01*
X191884819Y-71925213D01*
X191885427Y-71934683D01*
X191886387Y-71944612D01*
X191923373Y-72231259D01*
X191924391Y-72247861D01*
X191917575Y-73399762D01*
X191915127Y-73813642D01*
X191914950Y-73843481D01*
X191914950Y-73845283D01*
X191914960Y-73846946D01*
X191917649Y-73859692D01*
X191912226Y-73929351D01*
X191894212Y-73961399D01*
X191878314Y-73981846D01*
X191878313Y-73981848D01*
X191856305Y-74034036D01*
X191844091Y-74093466D01*
X191844091Y-74093471D01*
X191843879Y-74126775D01*
X191843057Y-74140265D01*
X191842001Y-74149372D01*
X191842000Y-74149391D01*
X191842000Y-74421587D01*
X191841997Y-74422377D01*
X191835475Y-75446290D01*
X191815364Y-75513203D01*
X191762270Y-75558620D01*
X191711478Y-75569500D01*
X191023781Y-75569500D01*
X190956742Y-75549815D01*
X190936100Y-75533181D01*
X190782624Y-75379705D01*
X190765184Y-75362264D01*
X190701750Y-75298830D01*
X190701749Y-75298829D01*
X190677471Y-75288772D01*
X190677471Y-75288771D01*
X190618872Y-75264500D01*
X190618870Y-75264499D01*
X190618869Y-75264499D01*
X190529159Y-75264499D01*
X190514725Y-75264499D01*
X190514717Y-75264500D01*
X187332268Y-75264500D01*
X187265229Y-75244815D01*
X187244587Y-75228181D01*
X187026855Y-75010449D01*
X186993370Y-74949126D01*
X186998354Y-74879434D01*
X187040226Y-74823501D01*
X187090345Y-74801151D01*
X187161378Y-74787021D01*
X187277251Y-74763973D01*
X187450231Y-74692322D01*
X187605908Y-74588302D01*
X187738302Y-74455908D01*
X187842322Y-74300231D01*
X187913973Y-74127251D01*
X187950500Y-73943616D01*
X187950500Y-73756384D01*
X187913973Y-73572749D01*
X187842322Y-73399769D01*
X187842321Y-73399768D01*
X187842318Y-73399762D01*
X187738302Y-73244092D01*
X187738299Y-73244088D01*
X187605911Y-73111700D01*
X187605907Y-73111697D01*
X187450237Y-73007681D01*
X187450228Y-73007676D01*
X187277251Y-72936027D01*
X187277243Y-72936025D01*
X187093620Y-72899500D01*
X187093616Y-72899500D01*
X186906384Y-72899500D01*
X186792865Y-72922080D01*
X186759217Y-72928773D01*
X186689625Y-72922545D01*
X186634448Y-72879681D01*
X186611204Y-72813791D01*
X186612553Y-72787756D01*
X186613380Y-72782539D01*
X186624869Y-72710000D01*
X186624869Y-72709997D01*
X186607501Y-72600341D01*
X186601766Y-72589086D01*
X186557095Y-72501413D01*
X186557092Y-72501410D01*
X186557090Y-72501407D01*
X186478592Y-72422909D01*
X186478588Y-72422906D01*
X186478587Y-72422905D01*
X186453263Y-72410002D01*
X186379658Y-72372498D01*
X186267061Y-72354665D01*
X186203926Y-72324736D01*
X186198778Y-72319873D01*
X185913727Y-72034822D01*
X187799499Y-72034822D01*
X187808231Y-72078717D01*
X187808234Y-72078724D01*
X187837840Y-72123033D01*
X187841496Y-72128504D01*
X187891278Y-72161767D01*
X187891281Y-72161767D01*
X187891282Y-72161768D01*
X187935177Y-72170500D01*
X187935180Y-72170500D01*
X189464822Y-72170500D01*
X189508717Y-72161768D01*
X189508717Y-72161767D01*
X189508722Y-72161767D01*
X189558504Y-72128504D01*
X189591767Y-72078722D01*
X189600500Y-72034820D01*
X189600500Y-70705180D01*
X189600500Y-70705177D01*
X189591768Y-70661282D01*
X189591767Y-70661281D01*
X189591767Y-70661278D01*
X189558504Y-70611496D01*
X189558503Y-70611495D01*
X189508724Y-70578234D01*
X189508717Y-70578231D01*
X189464822Y-70569499D01*
X188585172Y-70569499D01*
X188541276Y-70578231D01*
X188504058Y-70603100D01*
X188504056Y-70603102D01*
X187833101Y-71274058D01*
X187833100Y-71274060D01*
X187808233Y-71311277D01*
X187808231Y-71311282D01*
X187799500Y-71355177D01*
X187799500Y-71355180D01*
X187799500Y-72034820D01*
X187799500Y-72034822D01*
X187799499Y-72034822D01*
X185913727Y-72034822D01*
X185896819Y-72017914D01*
X185863334Y-71956591D01*
X185860500Y-71930233D01*
X185860500Y-67971797D01*
X185860501Y-67971788D01*
X185860501Y-67867647D01*
X185860500Y-67867643D01*
X185834929Y-67805910D01*
X185834929Y-67805909D01*
X185826171Y-67784766D01*
X185826170Y-67784765D01*
X185826170Y-67784764D01*
X185762736Y-67721330D01*
X185755671Y-67714265D01*
X185755664Y-67714259D01*
X185548568Y-67507163D01*
X185517020Y-67453547D01*
X185516279Y-67450954D01*
X185516279Y-67450950D01*
X185365211Y-66922212D01*
X185324951Y-66781299D01*
X185309212Y-66744749D01*
X185305437Y-66738378D01*
X185290059Y-66712426D01*
X185290049Y-66712412D01*
X185290046Y-66712406D01*
X185279066Y-66696280D01*
X185279065Y-66696279D01*
X185279063Y-66696276D01*
X185214903Y-66647670D01*
X185214901Y-66647669D01*
X185214900Y-66647668D01*
X185181432Y-66634047D01*
X185162445Y-66626319D01*
X185162442Y-66626318D01*
X185162439Y-66626317D01*
X185101313Y-66614550D01*
X185074673Y-66606223D01*
X185066156Y-66602463D01*
X185066157Y-66602463D01*
X185040619Y-66599500D01*
X185040616Y-66599500D01*
X184639384Y-66599500D01*
X184639380Y-66599500D01*
X184613844Y-66602463D01*
X184613838Y-66602464D01*
X184602016Y-66607684D01*
X184552703Y-66618244D01*
X184456958Y-66618835D01*
X184389799Y-66599564D01*
X184343719Y-66547044D01*
X184333349Y-66477948D01*
X184334577Y-66470640D01*
X184335500Y-66466000D01*
X184335500Y-65683997D01*
X184323664Y-65624498D01*
X184323663Y-65624497D01*
X184323663Y-65624493D01*
X184301989Y-65572167D01*
X184301983Y-65572156D01*
X184281694Y-65537013D01*
X184281692Y-65537011D01*
X184217833Y-65488011D01*
X184165506Y-65466336D01*
X184164509Y-65466138D01*
X184138629Y-65457958D01*
X184092324Y-65437513D01*
X184092320Y-65437512D01*
X184066357Y-65434500D01*
X183653651Y-65434500D01*
X183653627Y-65434502D01*
X183627680Y-65437511D01*
X183627675Y-65437512D01*
X183602092Y-65448808D01*
X183574436Y-65457327D01*
X183534517Y-65464667D01*
X183534515Y-65464668D01*
X183534512Y-65464668D01*
X183534512Y-65464669D01*
X183516190Y-65471642D01*
X183485313Y-65483393D01*
X183453277Y-65500073D01*
X183400654Y-65560977D01*
X183400654Y-65560978D01*
X183375979Y-65611958D01*
X183375977Y-65611963D01*
X183360710Y-65670670D01*
X183360709Y-65670676D01*
X183322679Y-66324785D01*
X183299136Y-66390569D01*
X183269374Y-66419607D01*
X182902372Y-66673172D01*
X182836027Y-66695084D01*
X182832818Y-66695149D01*
X181661577Y-66703956D01*
X181661563Y-66703957D01*
X181599085Y-66716596D01*
X181529474Y-66710594D01*
X181474158Y-66667910D01*
X181450700Y-66602096D01*
X181450500Y-66595058D01*
X181450500Y-65274500D01*
X181470185Y-65207461D01*
X181522989Y-65161706D01*
X181574500Y-65150500D01*
X207525500Y-65150500D01*
X207592539Y-65170185D01*
G37*
%TD.AperFunction*%
%TA.AperFunction,Conductor*%
G36*
X190615702Y-76741831D02*
G01*
X190621147Y-76746901D01*
X190621408Y-76747090D01*
X190621413Y-76747095D01*
X190720339Y-76797500D01*
X190734663Y-76799768D01*
X190797798Y-76829696D01*
X190802948Y-76834561D01*
X190837111Y-76868724D01*
X190835022Y-76870812D01*
X190867949Y-76911136D01*
X190875866Y-76980556D01*
X190844995Y-77043235D01*
X190841379Y-77047008D01*
X190776900Y-77111486D01*
X190730012Y-77217678D01*
X190727000Y-77243639D01*
X190727000Y-77656348D01*
X190727002Y-77656372D01*
X190730010Y-77682314D01*
X190730013Y-77682324D01*
X190776900Y-77788513D01*
X190776901Y-77788514D01*
X190858986Y-77870599D01*
X190965180Y-77917488D01*
X190991143Y-77920500D01*
X191478856Y-77920499D01*
X191487226Y-77919528D01*
X191504814Y-77917489D01*
X191504815Y-77917488D01*
X191504820Y-77917488D01*
X191611014Y-77870599D01*
X191693099Y-77788514D01*
X191704191Y-77763390D01*
X191749275Y-77710016D01*
X191816061Y-77689488D01*
X191883344Y-77708325D01*
X191929761Y-77760548D01*
X191934611Y-77774267D01*
X191935194Y-77774072D01*
X191937170Y-77779963D01*
X191960468Y-77831585D01*
X191960470Y-77831590D01*
X191965683Y-77840000D01*
X191981854Y-77866091D01*
X192047212Y-77913073D01*
X192066857Y-77920500D01*
X192100183Y-77933100D01*
X192100184Y-77933100D01*
X192100189Y-77933102D01*
X192160037Y-77943074D01*
X192259563Y-77939963D01*
X192285729Y-77939146D01*
X192353351Y-77956726D01*
X192400733Y-78008075D01*
X192413591Y-78064795D01*
X192405669Y-78639053D01*
X192412042Y-78685313D01*
X192424506Y-78727444D01*
X192444326Y-78769725D01*
X192444330Y-78769732D01*
X192449099Y-78776868D01*
X192469980Y-78843545D01*
X192470000Y-78845763D01*
X192470000Y-79154233D01*
X192450315Y-79221272D01*
X192449103Y-79223123D01*
X192434248Y-79245354D01*
X192415050Y-79285587D01*
X192415046Y-79285597D01*
X192402590Y-79325665D01*
X192402587Y-79325677D01*
X192395592Y-79369692D01*
X192394942Y-79416762D01*
X192394930Y-79417970D01*
X192394925Y-79418872D01*
X192394927Y-79418888D01*
X192406758Y-79479271D01*
X192406759Y-79479275D01*
X192406760Y-79479278D01*
X192411787Y-79491414D01*
X192428430Y-79531596D01*
X192428432Y-79531601D01*
X192428434Y-79531604D01*
X192462142Y-79582052D01*
X192568182Y-79688092D01*
X192601666Y-79749413D01*
X192604500Y-79775772D01*
X192604500Y-80740081D01*
X192615837Y-80798365D01*
X192615839Y-80798371D01*
X192636631Y-80849797D01*
X192636633Y-80849800D01*
X192668992Y-80899588D01*
X192668994Y-80899590D01*
X192816196Y-81051870D01*
X192848637Y-81113752D01*
X192842471Y-81183349D01*
X192811378Y-81226116D01*
X192812676Y-81227414D01*
X192673764Y-81366324D01*
X192612440Y-81399808D01*
X192542749Y-81394823D01*
X192536792Y-81392424D01*
X192519814Y-81385069D01*
X192479315Y-81356807D01*
X192354476Y-81225725D01*
X192353197Y-81224398D01*
X192351937Y-81223106D01*
X192300119Y-81188011D01*
X192300117Y-81188010D01*
X192296226Y-81185915D01*
X192286132Y-81179843D01*
X192283721Y-81178232D01*
X192281815Y-81177853D01*
X192258574Y-81170802D01*
X192247793Y-81166337D01*
X192247789Y-81166336D01*
X192188288Y-81154500D01*
X192188286Y-81154500D01*
X192099042Y-81154500D01*
X192073548Y-81151851D01*
X191550412Y-81041948D01*
X191488852Y-81008901D01*
X191463352Y-80965287D01*
X191461256Y-80966213D01*
X191410599Y-80851486D01*
X191328514Y-80769401D01*
X191269703Y-80743433D01*
X191216327Y-80698346D01*
X191195800Y-80631560D01*
X191214639Y-80564278D01*
X191266863Y-80517862D01*
X191269600Y-80516611D01*
X191328514Y-80490599D01*
X191410599Y-80408514D01*
X191457488Y-80302320D01*
X191460500Y-80276357D01*
X191460499Y-79788644D01*
X191457488Y-79762680D01*
X191431687Y-79704247D01*
X191410599Y-79656486D01*
X191368503Y-79614390D01*
X191335018Y-79553067D01*
X191333711Y-79507310D01*
X191334869Y-79500000D01*
X191334869Y-79499997D01*
X191334869Y-79490240D01*
X191337753Y-79490240D01*
X191344713Y-79436352D01*
X191370549Y-79398563D01*
X191430599Y-79338514D01*
X191477488Y-79232320D01*
X191480500Y-79206357D01*
X191480499Y-78793644D01*
X191477726Y-78769732D01*
X191477489Y-78767685D01*
X191477488Y-78767682D01*
X191477488Y-78767680D01*
X191441120Y-78685315D01*
X191430599Y-78661486D01*
X191348514Y-78579401D01*
X191242321Y-78532512D01*
X191216357Y-78529500D01*
X190728651Y-78529500D01*
X190728627Y-78529502D01*
X190702685Y-78532510D01*
X190702675Y-78532513D01*
X190596486Y-78579400D01*
X190514401Y-78661485D01*
X190467512Y-78767678D01*
X190464500Y-78793639D01*
X190464500Y-79206348D01*
X190464502Y-79206372D01*
X190467510Y-79232314D01*
X190467513Y-79232324D01*
X190514400Y-79338513D01*
X190588812Y-79412925D01*
X190622297Y-79474248D01*
X190624928Y-79498725D01*
X190629023Y-79524575D01*
X190620068Y-79593868D01*
X190594233Y-79631653D01*
X190569397Y-79656489D01*
X190567407Y-79659395D01*
X190562426Y-79663460D01*
X190561277Y-79664610D01*
X190561160Y-79664493D01*
X190513280Y-79703577D01*
X190443859Y-79711482D01*
X190381185Y-79680600D01*
X190373733Y-79673140D01*
X190364853Y-79663460D01*
X189824919Y-79074882D01*
X189758735Y-79002735D01*
X189458124Y-78675042D01*
X189427311Y-78612334D01*
X189425500Y-78591218D01*
X189425500Y-77889406D01*
X189423739Y-77866091D01*
X189423736Y-77866053D01*
X189418143Y-77829233D01*
X189393871Y-77766450D01*
X189393868Y-77766446D01*
X189393867Y-77766443D01*
X189355169Y-77708280D01*
X189325660Y-77675298D01*
X189325658Y-77675296D01*
X189325656Y-77675294D01*
X189317323Y-77668302D01*
X189310316Y-77662757D01*
X189308183Y-77661167D01*
X189298900Y-77654246D01*
X189289050Y-77649253D01*
X189238155Y-77601384D01*
X189221219Y-77533598D01*
X189238399Y-77481875D01*
X189236761Y-77481152D01*
X189241401Y-77470641D01*
X189241403Y-77470640D01*
X189271853Y-77401676D01*
X189316937Y-77348302D01*
X189383723Y-77327774D01*
X189451005Y-77346612D01*
X189497422Y-77398835D01*
X189498720Y-77401676D01*
X189519401Y-77448514D01*
X189601486Y-77530599D01*
X189707680Y-77577488D01*
X189733643Y-77580500D01*
X190146356Y-77580499D01*
X190154726Y-77579528D01*
X190172314Y-77577489D01*
X190172315Y-77577488D01*
X190172320Y-77577488D01*
X190278514Y-77530599D01*
X190360599Y-77448514D01*
X190407488Y-77342320D01*
X190410500Y-77316357D01*
X190410499Y-76835543D01*
X190430183Y-76768505D01*
X190482987Y-76722750D01*
X190552146Y-76712806D01*
X190615702Y-76741831D01*
G37*
%TD.AperFunction*%
%TA.AperFunction,Conductor*%
G36*
X184922474Y-74036159D02*
G01*
X184964755Y-74063868D01*
X185021486Y-74120599D01*
X185127680Y-74167488D01*
X185153643Y-74170500D01*
X185497731Y-74170499D01*
X185564770Y-74190183D01*
X185585412Y-74206818D01*
X187059766Y-75681172D01*
X187142641Y-75715499D01*
X187142644Y-75715499D01*
X187142645Y-75715500D01*
X187142646Y-75715500D01*
X187152647Y-75717489D01*
X187214559Y-75749872D01*
X187249135Y-75810587D01*
X187245397Y-75880356D01*
X187204532Y-75937030D01*
X187172300Y-75955098D01*
X187095167Y-75984251D01*
X187090306Y-75986181D01*
X187082642Y-75989377D01*
X187040661Y-76015377D01*
X187021790Y-76031729D01*
X187009483Y-76041114D01*
X186971501Y-76066493D01*
X186971495Y-76066499D01*
X186938235Y-76116276D01*
X186938232Y-76116283D01*
X186929500Y-76160178D01*
X186928904Y-76166241D01*
X186927816Y-76166133D01*
X186924478Y-76189351D01*
X186920801Y-76201873D01*
X186920797Y-76201891D01*
X186914500Y-76245690D01*
X186914500Y-76324821D01*
X186918211Y-76358588D01*
X186918212Y-76358594D01*
X186926541Y-76396023D01*
X186929501Y-76422956D01*
X186929501Y-76439821D01*
X186929501Y-76439823D01*
X186929500Y-76439823D01*
X186938232Y-76483718D01*
X186938235Y-76483725D01*
X186971272Y-76533169D01*
X186971497Y-76533505D01*
X187021279Y-76566768D01*
X187021282Y-76566768D01*
X187021283Y-76566769D01*
X187071156Y-76576690D01*
X187071154Y-76576698D01*
X187086101Y-76579528D01*
X187152782Y-76598423D01*
X187196649Y-76604306D01*
X188271386Y-76594118D01*
X188338607Y-76613166D01*
X188384860Y-76665534D01*
X188395459Y-76734595D01*
X188385994Y-76768196D01*
X188372464Y-76798838D01*
X188372463Y-76798843D01*
X188369500Y-76824380D01*
X188369500Y-77063581D01*
X188349815Y-77130620D01*
X188297011Y-77176375D01*
X188227853Y-77186319D01*
X188164297Y-77157294D01*
X188148977Y-77141422D01*
X188098283Y-77078561D01*
X188098275Y-77078553D01*
X188098268Y-77078544D01*
X188081115Y-77060457D01*
X188051631Y-77033983D01*
X188051630Y-77033982D01*
X188051631Y-77033982D01*
X187991553Y-77000484D01*
X187924514Y-76980799D01*
X187924504Y-76980797D01*
X187880705Y-76974500D01*
X187880702Y-76974500D01*
X187202893Y-76974500D01*
X187171004Y-76977805D01*
X187170981Y-76977808D01*
X187121196Y-76988244D01*
X187048227Y-77023739D01*
X187026741Y-77030969D01*
X187021278Y-77033232D01*
X186971496Y-77066495D01*
X186938235Y-77116274D01*
X186938232Y-77116281D01*
X186929501Y-77160176D01*
X186929501Y-77201805D01*
X186927957Y-77221310D01*
X186923424Y-77249762D01*
X186908929Y-78206482D01*
X186888231Y-78273215D01*
X186834740Y-78318165D01*
X186765439Y-78327059D01*
X186729585Y-78312769D01*
X186729024Y-78314042D01*
X186718514Y-78309401D01*
X186646539Y-78277621D01*
X186612321Y-78262512D01*
X186586360Y-78259500D01*
X186134880Y-78259500D01*
X186067841Y-78239815D01*
X186022086Y-78187011D01*
X186012142Y-78117853D01*
X186019582Y-78089868D01*
X186204750Y-77622078D01*
X186213561Y-77590337D01*
X186222125Y-77538801D01*
X186224053Y-77505914D01*
X186210948Y-77230706D01*
X186206740Y-77201440D01*
X186195674Y-77155827D01*
X186162077Y-77090658D01*
X186151736Y-77078723D01*
X186122711Y-77015170D01*
X186123832Y-76973331D01*
X186130499Y-76939820D01*
X186130499Y-76919652D01*
X186131761Y-76902006D01*
X186132118Y-76899523D01*
X186135500Y-76876000D01*
X186135500Y-76795363D01*
X186131764Y-76761480D01*
X186131391Y-76758095D01*
X186131689Y-76758062D01*
X186130499Y-76743633D01*
X186130499Y-76660177D01*
X186121767Y-76616282D01*
X186121766Y-76616281D01*
X186121766Y-76616278D01*
X186088503Y-76566496D01*
X186088502Y-76566495D01*
X186038723Y-76533234D01*
X186038716Y-76533231D01*
X185994821Y-76524500D01*
X185994819Y-76524500D01*
X185923058Y-76524500D01*
X185901212Y-76522271D01*
X185901211Y-76522281D01*
X185900906Y-76522240D01*
X185898028Y-76521947D01*
X185896826Y-76521699D01*
X185852952Y-76515879D01*
X185852946Y-76515879D01*
X184270943Y-76533168D01*
X184270942Y-76533168D01*
X184270855Y-76533169D01*
X184203604Y-76514218D01*
X184157275Y-76461917D01*
X184145500Y-76409176D01*
X184145500Y-76084666D01*
X184145568Y-76080546D01*
X184146651Y-76047972D01*
X184209478Y-74157879D01*
X184231379Y-74091532D01*
X184285674Y-74047557D01*
X184333410Y-74038000D01*
X184812322Y-74038000D01*
X184852882Y-74029932D01*
X184922474Y-74036159D01*
G37*
%TD.AperFunction*%
%TA.AperFunction,Conductor*%
G36*
X194775069Y-67648532D02*
G01*
X194797211Y-67666116D01*
X195932193Y-68801098D01*
X195965678Y-68862421D01*
X195960694Y-68932113D01*
X195918822Y-68988046D01*
X195913422Y-68991867D01*
X195909970Y-68994175D01*
X195906494Y-68996497D01*
X195873234Y-69046275D01*
X195873231Y-69046281D01*
X195865119Y-69087063D01*
X195858067Y-69110314D01*
X195856337Y-69114489D01*
X195856336Y-69114494D01*
X195844500Y-69173997D01*
X195844500Y-69510500D01*
X195824815Y-69577539D01*
X195772011Y-69623294D01*
X195720500Y-69634500D01*
X195709575Y-69634500D01*
X195659488Y-69623934D01*
X195656157Y-69622463D01*
X195630619Y-69619500D01*
X195630616Y-69619500D01*
X195229384Y-69619500D01*
X195229380Y-69619500D01*
X195203844Y-69622463D01*
X195199136Y-69624542D01*
X195164407Y-69634152D01*
X195160838Y-69634597D01*
X195098631Y-69649002D01*
X195047254Y-69672835D01*
X195012973Y-69694578D01*
X195012971Y-69694580D01*
X194966674Y-69760420D01*
X194966673Y-69760422D01*
X194947197Y-69813603D01*
X194947196Y-69813606D01*
X194937847Y-69873550D01*
X194961793Y-70448284D01*
X194950229Y-70505964D01*
X194625727Y-71200037D01*
X194625724Y-71200044D01*
X194615186Y-71230445D01*
X194608241Y-71260102D01*
X194608240Y-71260109D01*
X194604185Y-71292024D01*
X194586321Y-72078045D01*
X194586284Y-72082620D01*
X194586312Y-72086897D01*
X194600361Y-72150484D01*
X194623888Y-72202000D01*
X194645427Y-72236410D01*
X194650377Y-72239935D01*
X194662028Y-72249790D01*
X194663934Y-72251063D01*
X194663935Y-72251065D01*
X194696012Y-72272497D01*
X194699017Y-72274571D01*
X194710995Y-72283101D01*
X194711727Y-72283622D01*
X194720517Y-72288872D01*
X194734389Y-72298141D01*
X194734393Y-72298143D01*
X194796515Y-72310499D01*
X194796519Y-72310500D01*
X194796520Y-72310500D01*
X194801013Y-72310500D01*
X194820848Y-72312096D01*
X194823954Y-72312600D01*
X194878521Y-72310651D01*
X194880545Y-72310579D01*
X194884970Y-72310500D01*
X194963479Y-72310500D01*
X194963480Y-72310500D01*
X195025609Y-72298142D01*
X195061107Y-72274421D01*
X195127780Y-72253543D01*
X195195161Y-72272025D01*
X195198889Y-72274421D01*
X195234390Y-72298142D01*
X195296515Y-72310499D01*
X195296519Y-72310500D01*
X195296520Y-72310500D01*
X195463481Y-72310500D01*
X195463482Y-72310499D01*
X195525609Y-72298142D01*
X195561110Y-72274421D01*
X195627784Y-72253543D01*
X195695165Y-72272026D01*
X195698850Y-72274394D01*
X195734391Y-72298142D01*
X195776521Y-72306522D01*
X195796515Y-72310499D01*
X195796519Y-72310500D01*
X195796520Y-72310500D01*
X195963481Y-72310500D01*
X195963482Y-72310499D01*
X196025609Y-72298142D01*
X196061110Y-72274421D01*
X196127784Y-72253543D01*
X196195165Y-72272026D01*
X196198850Y-72274394D01*
X196234391Y-72298142D01*
X196276521Y-72306522D01*
X196296515Y-72310499D01*
X196296519Y-72310500D01*
X196296520Y-72310500D01*
X196463481Y-72310500D01*
X196463482Y-72310499D01*
X196525609Y-72298142D01*
X196561110Y-72274421D01*
X196627784Y-72253543D01*
X196695165Y-72272026D01*
X196698850Y-72274394D01*
X196734391Y-72298142D01*
X196776521Y-72306522D01*
X196796515Y-72310499D01*
X196796519Y-72310500D01*
X196796520Y-72310500D01*
X196963481Y-72310500D01*
X196963482Y-72310499D01*
X197025609Y-72298142D01*
X197061110Y-72274421D01*
X197127784Y-72253543D01*
X197195165Y-72272026D01*
X197198850Y-72274394D01*
X197234391Y-72298142D01*
X197276521Y-72306522D01*
X197296515Y-72310499D01*
X197296519Y-72310500D01*
X197296520Y-72310500D01*
X197463481Y-72310500D01*
X197463482Y-72310499D01*
X197525609Y-72298142D01*
X197561110Y-72274421D01*
X197627784Y-72253543D01*
X197695165Y-72272026D01*
X197698850Y-72274394D01*
X197734391Y-72298142D01*
X197776521Y-72306522D01*
X197796515Y-72310499D01*
X197796519Y-72310500D01*
X197855500Y-72310500D01*
X197922539Y-72330185D01*
X197968294Y-72382989D01*
X197979500Y-72434500D01*
X197979500Y-72493484D01*
X197991857Y-72555609D01*
X198015578Y-72591109D01*
X198036456Y-72657786D01*
X198017972Y-72725166D01*
X198015578Y-72728891D01*
X197991857Y-72764390D01*
X197979500Y-72826515D01*
X197979500Y-72993484D01*
X197991857Y-73055609D01*
X198015578Y-73091109D01*
X198036456Y-73157786D01*
X198017972Y-73225166D01*
X198015578Y-73228891D01*
X197991857Y-73264390D01*
X197979500Y-73326515D01*
X197979500Y-73493484D01*
X197991857Y-73555609D01*
X198015578Y-73591109D01*
X198036456Y-73657786D01*
X198017972Y-73725166D01*
X198015578Y-73728891D01*
X197991857Y-73764390D01*
X197979500Y-73826515D01*
X197979500Y-73993484D01*
X197991857Y-74055609D01*
X198015578Y-74091109D01*
X198036456Y-74157786D01*
X198017972Y-74225166D01*
X198015578Y-74228891D01*
X197991857Y-74264390D01*
X197979500Y-74326515D01*
X197979500Y-74493484D01*
X197991857Y-74555609D01*
X198015578Y-74591109D01*
X198036456Y-74657786D01*
X198017972Y-74725166D01*
X198015578Y-74728891D01*
X197991857Y-74764390D01*
X197979500Y-74826515D01*
X197979500Y-74993484D01*
X197991857Y-75055609D01*
X198015578Y-75091109D01*
X198036456Y-75157786D01*
X198017972Y-75225166D01*
X198015578Y-75228891D01*
X197991857Y-75264390D01*
X197979500Y-75326515D01*
X197979500Y-75493484D01*
X197991857Y-75555609D01*
X198011986Y-75585733D01*
X198032865Y-75652410D01*
X198014381Y-75719790D01*
X198007262Y-75730109D01*
X197998012Y-75742163D01*
X197998010Y-75742166D01*
X197976338Y-75794488D01*
X197976335Y-75794498D01*
X197964500Y-75853997D01*
X197964500Y-75964871D01*
X197964503Y-75965759D01*
X197964512Y-75967103D01*
X197977263Y-76027666D01*
X197977266Y-76027675D01*
X197999730Y-76079662D01*
X197999731Y-76079664D01*
X198020552Y-76114499D01*
X198059861Y-76143727D01*
X198085146Y-76162528D01*
X198093480Y-76165833D01*
X198099985Y-76169247D01*
X198114245Y-76175153D01*
X198124920Y-76178302D01*
X198137794Y-76183408D01*
X198197477Y-76194343D01*
X198505143Y-76189681D01*
X198572472Y-76208348D01*
X198619022Y-76260453D01*
X198630987Y-76310785D01*
X198634427Y-76458728D01*
X198634452Y-76463069D01*
X198625958Y-77185104D01*
X198605487Y-77251907D01*
X198584609Y-77276091D01*
X198019473Y-77781288D01*
X198013107Y-77787311D01*
X198007180Y-77793245D01*
X198001180Y-77799602D01*
X197756315Y-78074146D01*
X197697002Y-78111074D01*
X197664877Y-78115604D01*
X196363719Y-78127171D01*
X196296507Y-78108083D01*
X196250285Y-78055688D01*
X196239727Y-77986621D01*
X196268186Y-77922810D01*
X196306318Y-77892694D01*
X196344284Y-77873350D01*
X196422792Y-77794842D01*
X196422793Y-77794839D01*
X196429692Y-77787941D01*
X196432262Y-77790511D01*
X196473238Y-77758936D01*
X196518189Y-77750501D01*
X196580184Y-77750501D01*
X196580186Y-77750501D01*
X196638791Y-77726225D01*
X196663067Y-77716170D01*
X196726501Y-77652736D01*
X196726501Y-77652735D01*
X196743939Y-77635297D01*
X196743941Y-77635294D01*
X196974097Y-77405137D01*
X197035418Y-77371654D01*
X197105110Y-77376638D01*
X197149456Y-77405138D01*
X197171413Y-77427095D01*
X197270339Y-77477500D01*
X197270341Y-77477501D01*
X197379998Y-77494869D01*
X197380000Y-77494869D01*
X197380002Y-77494869D01*
X197489658Y-77477501D01*
X197489659Y-77477500D01*
X197489661Y-77477500D01*
X197588587Y-77427095D01*
X197667095Y-77348587D01*
X197717500Y-77249661D01*
X197717500Y-77249659D01*
X197717501Y-77249658D01*
X197734869Y-77140002D01*
X197734869Y-77139997D01*
X197717501Y-77030341D01*
X197669015Y-76935181D01*
X197655500Y-76878887D01*
X197655500Y-76201519D01*
X197655499Y-76201515D01*
X197643142Y-76139390D01*
X197617786Y-76101443D01*
X197596065Y-76068935D01*
X197564692Y-76047972D01*
X197525609Y-76021857D01*
X197463484Y-76009500D01*
X197463480Y-76009500D01*
X197296520Y-76009500D01*
X197296515Y-76009500D01*
X197234390Y-76021857D01*
X197198891Y-76045578D01*
X197132214Y-76066456D01*
X197064834Y-76047972D01*
X197061109Y-76045578D01*
X197025609Y-76021857D01*
X196963484Y-76009500D01*
X196963480Y-76009500D01*
X196796520Y-76009500D01*
X196796515Y-76009500D01*
X196734390Y-76021857D01*
X196698891Y-76045578D01*
X196632214Y-76066456D01*
X196564834Y-76047972D01*
X196561109Y-76045578D01*
X196525609Y-76021857D01*
X196463484Y-76009500D01*
X196463480Y-76009500D01*
X196296520Y-76009500D01*
X196296515Y-76009500D01*
X196234390Y-76021857D01*
X196198891Y-76045578D01*
X196132214Y-76066456D01*
X196064834Y-76047972D01*
X196061109Y-76045578D01*
X196025609Y-76021857D01*
X195963484Y-76009500D01*
X195963480Y-76009500D01*
X195796520Y-76009500D01*
X195796515Y-76009500D01*
X195734390Y-76021857D01*
X195698891Y-76045578D01*
X195632214Y-76066456D01*
X195564834Y-76047972D01*
X195561109Y-76045578D01*
X195525609Y-76021857D01*
X195463484Y-76009500D01*
X195463480Y-76009500D01*
X195296520Y-76009500D01*
X195296515Y-76009500D01*
X195234390Y-76021857D01*
X195198891Y-76045578D01*
X195132214Y-76066456D01*
X195064834Y-76047972D01*
X195061109Y-76045578D01*
X195025609Y-76021857D01*
X194963484Y-76009500D01*
X194963480Y-76009500D01*
X194796520Y-76009500D01*
X194796515Y-76009500D01*
X194734390Y-76021857D01*
X194734387Y-76021858D01*
X194701667Y-76043722D01*
X194634990Y-76064600D01*
X194567610Y-76046115D01*
X194561451Y-76042052D01*
X194539580Y-76026672D01*
X194486398Y-76007195D01*
X194426448Y-75997846D01*
X194426446Y-75997846D01*
X194420856Y-75998078D01*
X194353056Y-75981200D01*
X194305144Y-75930345D01*
X194291790Y-75869408D01*
X194292071Y-75862118D01*
X194292074Y-75862042D01*
X194292136Y-75860110D01*
X194292185Y-75858164D01*
X194292185Y-75858160D01*
X194287027Y-75829401D01*
X194281123Y-75796485D01*
X194260097Y-75743895D01*
X194243558Y-75714415D01*
X194227925Y-75646321D01*
X194248600Y-75584855D01*
X194268142Y-75555609D01*
X194280500Y-75493480D01*
X194280500Y-75326520D01*
X194268142Y-75264391D01*
X194244421Y-75228889D01*
X194223543Y-75162216D01*
X194242026Y-75094835D01*
X194244394Y-75091149D01*
X194268142Y-75055609D01*
X194280500Y-74993480D01*
X194280500Y-74826520D01*
X194268142Y-74764391D01*
X194268141Y-74764390D01*
X194266510Y-74756187D01*
X194272737Y-74686595D01*
X194280744Y-74669988D01*
X194281983Y-74667840D01*
X194281989Y-74667833D01*
X194303663Y-74615507D01*
X194315500Y-74556000D01*
X194315500Y-74264800D01*
X194315498Y-74264019D01*
X194315494Y-74263223D01*
X194303011Y-74202954D01*
X194298574Y-74192561D01*
X194280774Y-74150862D01*
X194278939Y-74147239D01*
X194280015Y-74146693D01*
X194264094Y-74084035D01*
X194266393Y-74064401D01*
X194269585Y-74048352D01*
X194280500Y-73993480D01*
X194280500Y-73826520D01*
X194268142Y-73764391D01*
X194244421Y-73728889D01*
X194223543Y-73662216D01*
X194242026Y-73594835D01*
X194244394Y-73591149D01*
X194268142Y-73555609D01*
X194280500Y-73493480D01*
X194280500Y-73326520D01*
X194268142Y-73264391D01*
X194244421Y-73228889D01*
X194223543Y-73162216D01*
X194242026Y-73094835D01*
X194244394Y-73091149D01*
X194268142Y-73055609D01*
X194280500Y-72993480D01*
X194280500Y-72826520D01*
X194268142Y-72764391D01*
X194268142Y-72764390D01*
X194247126Y-72732938D01*
X194226248Y-72666261D01*
X194244732Y-72598881D01*
X194249785Y-72591333D01*
X194262958Y-72573142D01*
X194283170Y-72520234D01*
X194293349Y-72460423D01*
X194286789Y-72224279D01*
X194283225Y-72195223D01*
X194277271Y-72168128D01*
X194275094Y-72159427D01*
X194255090Y-72125734D01*
X194252876Y-72122004D01*
X194235500Y-72058701D01*
X194235500Y-71261892D01*
X194255107Y-71194974D01*
X194399320Y-70970000D01*
X194449356Y-70891944D01*
X194467523Y-70852249D01*
X194479222Y-70812811D01*
X194485639Y-70769632D01*
X194486311Y-70669442D01*
X194499823Y-70613979D01*
X194527500Y-70559661D01*
X194527500Y-70559659D01*
X194527501Y-70559658D01*
X194544869Y-70450002D01*
X194544869Y-70449997D01*
X194527501Y-70340343D01*
X194527500Y-70340341D01*
X194527500Y-70340339D01*
X194502740Y-70291745D01*
X194489229Y-70234624D01*
X194494223Y-69490641D01*
X194494989Y-69376561D01*
X194494990Y-69376364D01*
X194494994Y-69375083D01*
X194494992Y-69373773D01*
X194482493Y-69312928D01*
X194460245Y-69260843D01*
X194459138Y-69258974D01*
X194439564Y-69225914D01*
X194375171Y-69177617D01*
X194323900Y-69157037D01*
X194322610Y-69156519D01*
X194322609Y-69156518D01*
X194322607Y-69156518D01*
X194290500Y-69150497D01*
X194262975Y-69145336D01*
X194262973Y-69145336D01*
X193501037Y-69153709D01*
X193501035Y-69153709D01*
X193442878Y-69165686D01*
X193391679Y-69187045D01*
X193391673Y-69187048D01*
X193357632Y-69206623D01*
X193308243Y-69270194D01*
X193304143Y-69277200D01*
X193302604Y-69276299D01*
X193264771Y-69322661D01*
X193198342Y-69344318D01*
X193147230Y-69334934D01*
X193126474Y-69326337D01*
X193126470Y-69326336D01*
X193120639Y-69324567D01*
X193120725Y-69324283D01*
X193102605Y-69318556D01*
X193066161Y-69302464D01*
X193066156Y-69302463D01*
X193040619Y-69299500D01*
X193040616Y-69299500D01*
X192639384Y-69299500D01*
X192639380Y-69299500D01*
X192613843Y-69302463D01*
X192613841Y-69302463D01*
X192610512Y-69303934D01*
X192560425Y-69314500D01*
X192307417Y-69314500D01*
X192240378Y-69294815D01*
X192194623Y-69242011D01*
X192184679Y-69172853D01*
X192213701Y-69109301D01*
X192231744Y-69088476D01*
X192239238Y-69079827D01*
X192263983Y-69028882D01*
X192279335Y-68970182D01*
X192280718Y-68946938D01*
X192286820Y-68921805D01*
X192285039Y-68921321D01*
X192287485Y-68912325D01*
X192287488Y-68912320D01*
X192290500Y-68886357D01*
X192290499Y-68786294D01*
X192290719Y-68778912D01*
X192290919Y-68775561D01*
X192290927Y-68767051D01*
X192291774Y-68752714D01*
X192292275Y-68748459D01*
X192293063Y-68739550D01*
X192312234Y-68417465D01*
X192335867Y-68351715D01*
X192391296Y-68309178D01*
X192413343Y-68302925D01*
X193644812Y-68074000D01*
X193699101Y-68063908D01*
X193699101Y-68063907D01*
X193699106Y-68063907D01*
X193741814Y-68049305D01*
X193779609Y-68029864D01*
X193800776Y-68016732D01*
X193820704Y-67991762D01*
X193850985Y-67953818D01*
X193855241Y-67944072D01*
X193873652Y-67901914D01*
X193873653Y-67901907D01*
X193874540Y-67899877D01*
X193919408Y-67846317D01*
X193986109Y-67825516D01*
X193988060Y-67825499D01*
X194386356Y-67825499D01*
X194394726Y-67824528D01*
X194412314Y-67822489D01*
X194412315Y-67822488D01*
X194412320Y-67822488D01*
X194518514Y-67775599D01*
X194600599Y-67693514D01*
X194600600Y-67693509D01*
X194607092Y-67684035D01*
X194610671Y-67686487D01*
X194641004Y-67650452D01*
X194707754Y-67629810D01*
X194775069Y-67648532D01*
G37*
%TD.AperFunction*%
%TA.AperFunction,Conductor*%
G36*
X190496286Y-75735185D02*
G01*
X190516928Y-75751819D01*
X190680773Y-75915664D01*
X190680776Y-75915668D01*
X190710465Y-75945357D01*
X190743950Y-76006680D01*
X190738966Y-76076372D01*
X190697094Y-76132305D01*
X190679079Y-76143522D01*
X190621413Y-76172905D01*
X190621412Y-76172906D01*
X190621407Y-76172909D01*
X190542909Y-76251407D01*
X190542904Y-76251414D01*
X190492498Y-76350341D01*
X190475332Y-76458728D01*
X190475131Y-76460000D01*
X190478889Y-76483725D01*
X190481489Y-76500143D01*
X190472533Y-76569437D01*
X190427536Y-76622888D01*
X190360784Y-76643527D01*
X190293471Y-76624801D01*
X190288190Y-76620607D01*
X190287994Y-76620895D01*
X190278514Y-76614401D01*
X190172321Y-76567512D01*
X190146357Y-76564500D01*
X189733651Y-76564500D01*
X189733627Y-76564502D01*
X189707685Y-76567510D01*
X189707675Y-76567513D01*
X189601486Y-76614400D01*
X189519401Y-76696485D01*
X189494305Y-76753322D01*
X189449218Y-76806698D01*
X189382432Y-76827225D01*
X189315150Y-76808386D01*
X189268734Y-76756162D01*
X189267437Y-76753321D01*
X189241403Y-76694360D01*
X189235811Y-76688768D01*
X189202326Y-76627445D01*
X189207310Y-76557753D01*
X189241048Y-76508464D01*
X189262938Y-76488980D01*
X189268348Y-76483928D01*
X189309322Y-76414644D01*
X189328111Y-76347348D01*
X189333825Y-76303459D01*
X189330510Y-76054838D01*
X189330499Y-76053185D01*
X189330499Y-75839500D01*
X189350184Y-75772461D01*
X189402988Y-75726706D01*
X189454499Y-75715500D01*
X190429247Y-75715500D01*
X190496286Y-75735185D01*
G37*
%TD.AperFunction*%
%TA.AperFunction,Conductor*%
G36*
X182843133Y-71094468D02*
G01*
X182843804Y-71094475D01*
X182844558Y-71094482D01*
X182888229Y-71086083D01*
X182957779Y-71092751D01*
X183012684Y-71135963D01*
X183035510Y-71201999D01*
X183035647Y-71208364D01*
X183034358Y-71519929D01*
X183014396Y-71586886D01*
X182961403Y-71632423D01*
X182892204Y-71642080D01*
X182860273Y-71632850D01*
X182746160Y-71582464D01*
X182746156Y-71582463D01*
X182720619Y-71579500D01*
X182720616Y-71579500D01*
X182204384Y-71579500D01*
X182204380Y-71579500D01*
X182178843Y-71582463D01*
X182178841Y-71582463D01*
X182074358Y-71628597D01*
X182054612Y-71648344D01*
X181999311Y-71678538D01*
X181999619Y-71679485D01*
X181994581Y-71681121D01*
X181993288Y-71681828D01*
X181991202Y-71682219D01*
X181990338Y-71682500D01*
X181939933Y-71708182D01*
X181891413Y-71732905D01*
X181891412Y-71732906D01*
X181891407Y-71732909D01*
X181812909Y-71811407D01*
X181812904Y-71811414D01*
X181762498Y-71910341D01*
X181745131Y-72019997D01*
X181745131Y-72020002D01*
X181762498Y-72129658D01*
X181788840Y-72181356D01*
X181812905Y-72228587D01*
X181891413Y-72307095D01*
X181891415Y-72307096D01*
X181891416Y-72307097D01*
X181953365Y-72338661D01*
X181983158Y-72364828D01*
X181985472Y-72362515D01*
X181993596Y-72370639D01*
X181993597Y-72370640D01*
X182074360Y-72451403D01*
X182178844Y-72497537D01*
X182204384Y-72500500D01*
X182204386Y-72500500D01*
X182720614Y-72500500D01*
X182720616Y-72500500D01*
X182746156Y-72497537D01*
X182850640Y-72451403D01*
X182850641Y-72451401D01*
X182855956Y-72449055D01*
X182925234Y-72439983D01*
X182988419Y-72469806D01*
X183025451Y-72529055D01*
X183030042Y-72563002D01*
X183016418Y-75855536D01*
X182996456Y-75922494D01*
X182943463Y-75968030D01*
X182895499Y-75978985D01*
X181676276Y-76009277D01*
X181646186Y-76012980D01*
X181646181Y-76012981D01*
X181601565Y-76022960D01*
X181531845Y-76018383D01*
X181475668Y-75976838D01*
X181450870Y-75911518D01*
X181450500Y-75901950D01*
X181450500Y-71201219D01*
X181470185Y-71134180D01*
X181522989Y-71088425D01*
X181576183Y-71077230D01*
X182843133Y-71094468D01*
G37*
%TD.AperFunction*%
%TA.AperFunction,Conductor*%
G36*
X200713608Y-73679402D02*
G01*
X200716795Y-73682478D01*
X200786636Y-73752319D01*
X200820121Y-73813642D01*
X200815137Y-73883334D01*
X200786636Y-73927681D01*
X200722909Y-73991407D01*
X200722904Y-73991414D01*
X200672498Y-74090341D01*
X200655131Y-74199997D01*
X200655131Y-74200002D01*
X200672498Y-74309657D01*
X200672499Y-74309660D01*
X200672500Y-74309661D01*
X200677363Y-74319205D01*
X200690260Y-74387873D01*
X200663984Y-74452614D01*
X200606879Y-74492871D01*
X200566879Y-74499500D01*
X200225809Y-74499500D01*
X200158770Y-74479815D01*
X200138128Y-74463181D01*
X199547128Y-73872181D01*
X199513643Y-73810858D01*
X199518627Y-73741166D01*
X199560499Y-73685233D01*
X199625963Y-73660816D01*
X199634809Y-73660500D01*
X200569826Y-73660500D01*
X200569828Y-73660500D01*
X200581660Y-73655598D01*
X200651128Y-73648129D01*
X200713608Y-73679402D01*
G37*
%TD.AperFunction*%
%TA.AperFunction,Conductor*%
G36*
X185569413Y-72328318D02*
G01*
X185879873Y-72638778D01*
X185913358Y-72700101D01*
X185914665Y-72707061D01*
X185932498Y-72819658D01*
X185982904Y-72918585D01*
X185982909Y-72918592D01*
X186061407Y-72997090D01*
X186061410Y-72997092D01*
X186061413Y-72997095D01*
X186160339Y-73047500D01*
X186179461Y-73050528D01*
X186242595Y-73080457D01*
X186279527Y-73139768D01*
X186278531Y-73209630D01*
X186263166Y-73241892D01*
X186157684Y-73399757D01*
X186157676Y-73399771D01*
X186086027Y-73572748D01*
X186086025Y-73572756D01*
X186076116Y-73622572D01*
X186043731Y-73684483D01*
X185983015Y-73719057D01*
X185913246Y-73715318D01*
X185856574Y-73674451D01*
X185830993Y-73609433D01*
X185830499Y-73598381D01*
X185830499Y-73418651D01*
X185830499Y-73418644D01*
X185828501Y-73401413D01*
X185827489Y-73392685D01*
X185827488Y-73392682D01*
X185827488Y-73392680D01*
X185798273Y-73326515D01*
X185780599Y-73286486D01*
X185698514Y-73204401D01*
X185592321Y-73157512D01*
X185566357Y-73154500D01*
X185153651Y-73154500D01*
X185153627Y-73154502D01*
X185127685Y-73157510D01*
X185127675Y-73157513D01*
X185021486Y-73204400D01*
X184939402Y-73286484D01*
X184939401Y-73286485D01*
X184939401Y-73286486D01*
X184927654Y-73313088D01*
X184882571Y-73366462D01*
X184815785Y-73386990D01*
X184814222Y-73387000D01*
X184363294Y-73387000D01*
X184296255Y-73367315D01*
X184250500Y-73314511D01*
X184239362Y-73258880D01*
X184240682Y-73219163D01*
X184258384Y-72686621D01*
X184280285Y-72620275D01*
X184334580Y-72576300D01*
X184352635Y-72570347D01*
X185402389Y-72311606D01*
X185416307Y-72307478D01*
X185438143Y-72299875D01*
X185438145Y-72299873D01*
X185440956Y-72298895D01*
X185510740Y-72295440D01*
X185569413Y-72328318D01*
G37*
%TD.AperFunction*%
%TD*%
%TA.AperFunction,Conductor*%
%TO.N,Net-(U1-NRST)*%
G36*
X192818326Y-71351674D02*
G01*
X192840000Y-71404000D01*
X192840000Y-71985333D01*
X192825200Y-72029733D01*
X192660000Y-72249998D01*
X192660000Y-72249999D01*
X192660000Y-72250000D01*
X192670000Y-73510000D01*
X192734073Y-73548444D01*
X192767790Y-73593949D01*
X192770000Y-73611897D01*
X192770000Y-73799377D01*
X192748326Y-73851703D01*
X192735729Y-73861808D01*
X192677606Y-73898795D01*
X192639131Y-73910353D01*
X192145700Y-73918716D01*
X192093014Y-73897932D01*
X192070457Y-73845981D01*
X192070447Y-73844373D01*
X192080000Y-72230000D01*
X192040608Y-71924712D01*
X192040000Y-71915242D01*
X192040000Y-71405137D01*
X192049928Y-71368114D01*
X192050585Y-71366977D01*
X192095530Y-71332515D01*
X192114657Y-71330000D01*
X192766000Y-71330000D01*
X192818326Y-71351674D01*
G37*
%TD.AperFunction*%
%TD*%
%TA.AperFunction,Conductor*%
%TO.N,SWDIO*%
G36*
X205088326Y-70361674D02*
G01*
X205110000Y-70414000D01*
X205110000Y-71266694D01*
X205088326Y-71319020D01*
X205036698Y-71340691D01*
X204124698Y-71349295D01*
X204072170Y-71328115D01*
X204050003Y-71275996D01*
X204050000Y-71275298D01*
X204050000Y-70414000D01*
X204071674Y-70361674D01*
X204124000Y-70340000D01*
X205036000Y-70340000D01*
X205088326Y-70361674D01*
G37*
%TD.AperFunction*%
%TD*%
M02*
