M48
; DRILL file {KiCad 8.0.0} date 2024-06-09T10:51:41+0200
; FORMAT={-:-/ absolute / inch / decimal}
; #@! TF.CreationDate,2024-06-09T10:51:41+02:00
; #@! TF.GenerationSoftware,Kicad,Pcbnew,8.0.0
; #@! TF.FileFunction,Plated,1,4,PTH
FMAT,2
INCH
; #@! TA.AperFunction,Plated,PTH,ViaDrill
T1C0.0118
; #@! TA.AperFunction,Plated,PTH,ComponentDrill
T2C0.0197
; #@! TA.AperFunction,Plated,PTH,ComponentDrill
T3C0.0256
; #@! TA.AperFunction,Plated,PTH,ComponentDrill
T4C0.0394
%
G90
G05
T1
X7.1531Y-2.6929
X7.1539Y-2.7126
X7.1539Y-2.7528
X7.1543Y-2.6122
X7.1543Y-2.776
X7.1547Y-2.5783
X7.1563Y-2.9831
X7.1563Y-3.1748
X7.1567Y-2.8697
X7.1567Y-2.8972
X7.1567Y-2.9248
X7.1567Y-3.0476
X7.1571Y-3.2142
X7.1571Y-3.2535
X7.1571Y-3.2929
X7.1575Y-3.1071
X7.1579Y-3.0146
X7.1579Y-3.1382
X7.1583Y-2.6406
X7.1587Y-2.6634
X7.1587Y-2.8075
X7.1693Y-2.8354
X7.174Y-2.776
X7.1854Y-3.0146
X7.1957Y-2.9831
X7.1961Y-2.8697
X7.1961Y-2.8972
X7.1961Y-2.9248
X7.1961Y-3.0476
X7.1965Y-3.2142
X7.1965Y-3.2929
X7.1969Y-3.1071
X7.198Y-2.8075
X7.2039Y-2.6406
X7.2039Y-2.6642
X7.2063Y-2.5783
X7.2354Y-3.0476
X7.2354Y-3.0736
X7.2358Y-3.2929
X7.237Y-3.237
X7.2622Y-2.5772
X7.2681Y-2.9626
X7.2681Y-3.002
X7.2685Y-2.9252
X7.2752Y-3.2929
X7.2819Y-3.1291
X7.285Y-2.8642
X7.2866Y-3.0781
X7.287Y-3.0579
X7.2988Y-2.5776
X7.3055Y-2.9846
X7.3055Y-3.0783
X7.3067Y-3.0579
X7.3071Y-2.8646
X7.313Y-3.1303
X7.3146Y-3.2929
X7.3157Y-3.237
X7.3161Y-3.263
X7.326Y-2.6862
X7.326Y-2.7079
X7.3268Y-2.798
X7.3268Y-2.8154
X7.3327Y-3.0728
X7.3335Y-2.8626
X7.3496Y-2.6862
X7.3512Y-2.8476
X7.3512Y-3.0728
X7.3539Y-3.1992
X7.3539Y-3.2929
X7.3547Y-3.1606
X7.3567Y-2.9854
X7.3732Y-2.685
X7.376Y-3.1303
X7.3776Y-2.5776
X7.3831Y-2.815
X7.3835Y-2.7965
X7.3843Y-3.1551
X7.3846Y-3.1736
X7.3846Y-3.1933
X7.3874Y-2.6524
X7.3882Y-2.615
X7.3933Y-3.2299
X7.3933Y-3.2929
X7.3969Y-2.685
X7.3969Y-2.7079
X7.4Y-2.8783
X7.4075Y-3.1303
X7.4083Y-2.9142
X7.4083Y-2.9535
X7.4083Y-3.0248
X7.4189Y-2.8476
X7.4201Y-2.6398
X7.4201Y-2.6634
X7.4209Y-2.7071
X7.4217Y-3.1543
X7.4217Y-3.1736
X7.4217Y-3.1937
X7.4248Y-2.878
X7.4283Y-2.8248
X7.4294Y-2.8051
X7.4327Y-3.2299
X7.4327Y-3.2929
X7.4378Y-2.9142
X7.4378Y-2.9535
X7.4563Y-3.0157
X7.4563Y-3.0528
X7.4673Y-2.6398
X7.4673Y-2.6634
X7.4673Y-2.9142
X7.4673Y-2.9535
X7.472Y-3.2929
X7.4732Y-2.8783
X7.4736Y-2.7827
X7.4736Y-2.8417
X7.476Y-2.7346
X7.4957Y-2.5776
X7.4969Y-2.9142
X7.4969Y-2.9535
X7.5018Y-2.6408
X7.502Y-3.1555
X7.5024Y-3.1744
X7.5028Y-3.0594
X7.5035Y-3.0311
X7.5039Y-3.0843
X7.5047Y-3.1118
X7.5114Y-3.2929
X7.513Y-3.0102
X7.5154Y-2.7831
X7.5157Y-2.8425
X7.5197Y-2.6528
X7.5335Y-3.1114
X7.535Y-2.5776
X7.5382Y-2.6407
X7.5441Y-2.8783
X7.5441Y-2.8965
X7.5441Y-3.1969
X7.5508Y-3.2929
X7.5512Y-2.8031
X7.552Y-3.0283
X7.5642Y-3.111
X7.5709Y-2.639
X7.5709Y-2.6626
X7.5717Y-3.2126
X7.5744Y-2.5776
X7.5764Y-2.7067
X7.5803Y-2.898
X7.5866Y-2.9299
X7.589Y-2.9661
X7.5898Y-3.2272
X7.5902Y-3.0799
X7.5902Y-3.2929
X7.5906Y-3.1039
X7.5909Y-2.9488
X7.5972Y-2.8815
X7.6063Y-2.9299
X7.6087Y-3.0803
X7.6102Y-3.1047
X7.6146Y-2.6996
X7.615Y-3.1677
X7.6161Y-2.8339
X7.6181Y-2.639
X7.6181Y-2.6626
X7.6264Y-2.774
X7.6295Y-3.2929
X7.6303Y-3.0803
X7.6319Y-2.8165
X7.6327Y-2.8339
X7.6406Y-2.678
X7.6453Y-2.7736
X7.6531Y-2.5776
X7.6555Y-2.7081
X7.6634Y-2.8614
X7.6634Y-2.9004
X7.6634Y-2.9394
X7.6634Y-2.9783
X7.6665Y-2.676
X7.6689Y-3.2929
X7.6799Y-3.0413
X7.6827Y-2.6063
X7.6831Y-2.635
X7.6925Y-2.5776
X7.6925Y-3.1799
X7.6933Y-2.7024
X7.7022Y-3.0581
X7.7024Y-2.8614
X7.7024Y-2.9004
X7.7024Y-2.9394
X7.7024Y-2.9783
X7.7083Y-3.2929
X7.7209Y-3.0606
X7.7315Y-3.0374
X7.7319Y-2.5776
X7.7366Y-3.1594
X7.7413Y-2.8614
X7.7413Y-2.9004
X7.7413Y-2.9394
X7.7413Y-2.9783
X7.7429Y-2.6846
X7.7476Y-3.2929
X7.7622Y-3.1264
X7.7646Y-2.7043
X7.765Y-3.061
X7.7681Y-2.7724
X7.7713Y-2.5776
X7.772Y-2.7933
X7.7724Y-3.0933
X7.7803Y-2.8614
X7.7803Y-2.9004
X7.7803Y-2.9394
X7.7827Y-3.0606
X7.7831Y-2.635
X7.7835Y-2.6075
X7.7858Y-3.1264
X7.787Y-3.2929
X7.7898Y-2.7039
X7.7913Y-3.0929
X7.7965Y-2.7787
X7.8102Y-3.0134
X7.8106Y-2.5776
X7.813Y-2.8122
X7.813Y-2.8315
X7.8134Y-2.6823
X7.8136Y-3.0398
X7.8264Y-3.2929
X7.8291Y-2.7295
X7.8299Y-2.7528
X7.8362Y-2.8315
X7.8374Y-2.8122
X7.8409Y-2.7059
X7.8421Y-2.9504
X7.8453Y-2.8508
X7.8457Y-2.8705
X7.85Y-2.5776
X7.8547Y-3.2933
X7.8555Y-2.6823
X7.8571Y-2.7287
X7.8618Y-2.8122
X7.8846Y-2.6087
X7.8846Y-2.6303
X7.8854Y-3.1961
X7.8874Y-3.2665
X7.8894Y-2.5776
X7.8921Y-2.8669
X7.8961Y-2.9366
X7.8969Y-3.2846
X7.8988Y-3.0831
X7.9055Y-2.902
X7.911Y-3.0063
X7.9114Y-3.1213
X7.9118Y-3.1539
X7.9169Y-2.9421
X7.9224Y-3.0823
X7.9287Y-2.5776
X7.9425Y-2.828
X7.9433Y-3.0799
X7.9469Y-3.122
X7.9469Y-3.1535
X7.9469Y-3.185
X7.9512Y-2.7504
X7.9657Y-3.2224
X7.9661Y-3.0803
X7.9677Y-2.8283
X7.9681Y-2.5776
X7.974Y-3.0232
X7.9819Y-2.7508
X7.9823Y-3.122
X7.9823Y-3.1535
X7.9823Y-3.185
X7.9827Y-2.728
X7.9839Y-2.6575
X7.9843Y-2.6083
X7.9846Y-2.8126
X7.9854Y-3.2118
X8.0067Y-2.7512
X8.0075Y-2.5776
X8.0075Y-2.7272
X8.0114Y-3.0949
X8.0197Y-2.8122
X8.0228Y-3.0594
X8.0228Y-3.2307
X8.0232Y-3.2929
X8.0236Y-2.9256
X8.0236Y-2.9425
X8.024Y-2.8465
X8.024Y-2.9598
X8.0283Y-3.139
X8.0283Y-3.1583
X8.0337Y-3.1843
X8.0343Y-3.2039
X8.0469Y-2.5776
X8.0496Y-2.8465
X8.0543Y-2.7492
X8.0547Y-2.7323
X8.0547Y-2.7776
X8.0551Y-2.6874
X8.0551Y-2.7941
X8.0555Y-2.7051
X8.0587Y-3.2929
X8.0594Y-3.1409
X8.0602Y-3.1839
X8.0681Y-2.9043
X8.0685Y-2.9791
X8.0862Y-2.5776
X8.0862Y-3.0567
X8.0941Y-3.2929
X8.1012Y-2.8594
X8.1016Y-3.122
X8.1016Y-3.1535
X8.1016Y-3.185
X8.1024Y-2.7197
X8.1024Y-2.7512
X8.1024Y-2.7827
X8.1079Y-2.8138
X8.1083Y-2.8307
X8.115Y-2.9492
X8.1256Y-2.5776
X8.1256Y-3.0567
X8.1295Y-3.2929
X8.1311Y-3.122
X8.1311Y-3.185
X8.1315Y-2.8591
X8.1319Y-2.7197
X8.1319Y-2.7827
X8.1606Y-3.122
X8.1606Y-3.1535
X8.1606Y-3.185
X8.1614Y-2.7197
X8.1614Y-2.7512
X8.1614Y-2.7827
X8.165Y-2.5776
X8.165Y-2.6157
X8.165Y-2.6575
X8.165Y-2.8205
X8.165Y-2.8598
X8.165Y-2.8992
X8.165Y-2.9386
X8.165Y-2.978
X8.165Y-3.0173
X8.165Y-3.0567
X8.165Y-3.0961
X8.165Y-3.222
X8.165Y-3.2575
X8.165Y-3.2929
X8.1654Y-2.6949
T2
X7.1882Y-3.2626
X7.1894Y-3.1764
T3
X7.1778Y-2.5929
X7.3372Y-2.5929
X7.4398Y-2.5927
X7.5992Y-2.5927
T4
X7.7343Y-2.6366
X7.8343Y-2.6366
X7.9343Y-2.6366
X8.0343Y-2.6366
M30
