%TF.GenerationSoftware,KiCad,Pcbnew,8.0.0*%
%TF.CreationDate,2024-06-09T10:51:48+02:00*%
%TF.ProjectId,projet s6,70726f6a-6574-4207-9336-2e6b69636164,rev?*%
%TF.SameCoordinates,Original*%
%TF.FileFunction,Copper,L4,Bot*%
%TF.FilePolarity,Positive*%
%FSLAX46Y46*%
G04 Gerber Fmt 4.6, Leading zero omitted, Abs format (unit mm)*
G04 Created by KiCad (PCBNEW 8.0.0) date 2024-06-09 10:51:48*
%MOMM*%
%LPD*%
G01*
G04 APERTURE LIST*
%TA.AperFunction,ComponentPad*%
%ADD10C,1.000000*%
%TD*%
%TA.AperFunction,ComponentPad*%
%ADD11R,1.700000X1.700000*%
%TD*%
%TA.AperFunction,ComponentPad*%
%ADD12O,1.700000X1.700000*%
%TD*%
%TA.AperFunction,ComponentPad*%
%ADD13R,1.650000X1.050000*%
%TD*%
%TA.AperFunction,SMDPad,CuDef*%
%ADD14R,1.100000X0.500000*%
%TD*%
%TA.AperFunction,SMDPad,CuDef*%
%ADD15R,1.650000X1.050000*%
%TD*%
%TA.AperFunction,SMDPad,CuDef*%
%ADD16R,1.200000X0.800000*%
%TD*%
%TA.AperFunction,SMDPad,CuDef*%
%ADD17R,0.700000X1.600000*%
%TD*%
%TA.AperFunction,SMDPad,CuDef*%
%ADD18R,0.700000X1.500000*%
%TD*%
%TA.AperFunction,HeatsinkPad*%
%ADD19R,1.000000X0.800000*%
%TD*%
%TA.AperFunction,SMDPad,CuDef*%
%ADD20R,1.150000X0.600000*%
%TD*%
%TA.AperFunction,SMDPad,CuDef*%
%ADD21R,1.150000X0.300000*%
%TD*%
%TA.AperFunction,SMDPad,CuDef*%
%ADD22R,2.000000X2.180000*%
%TD*%
%TA.AperFunction,ViaPad*%
%ADD23C,0.400000*%
%TD*%
%TA.AperFunction,Conductor*%
%ADD24C,0.200000*%
%TD*%
%TA.AperFunction,Conductor*%
%ADD25C,0.150000*%
%TD*%
%TA.AperFunction,Conductor*%
%ADD26C,0.500000*%
%TD*%
G04 APERTURE END LIST*
D10*
%TO.P,TP5,1,1*%
%TO.N,BAT+*%
X182610000Y-80680000D03*
%TD*%
%TO.P,TP1,1,1*%
%TO.N,GND*%
X182580000Y-82870000D03*
%TD*%
D11*
%TO.P,J2,1,Pin_1*%
%TO.N,GND*%
X204070000Y-66970000D03*
D12*
%TO.P,J2,2,Pin_2*%
%TO.N,+3.3V*%
X201530000Y-66970000D03*
%TO.P,J2,3,Pin_3*%
%TO.N,OLED_SCL*%
X198990000Y-66970000D03*
%TO.P,J2,4,Pin_4*%
%TO.N,OLED_SDA*%
X196450000Y-66970000D03*
%TD*%
D13*
%TO.P,SW1,1,1*%
%TO.N,GND*%
X189070000Y-65930000D03*
D14*
X190995000Y-68355000D03*
D13*
X192920000Y-65930000D03*
D15*
%TO.P,SW1,2,2*%
%TO.N,Net-(R11-Pad1)*%
X189070000Y-67380000D03*
X192920000Y-67380000D03*
%TD*%
D16*
%TO.P,PA1010D1,1,I2C_SDA*%
%TO.N,unconnected-(PA1010D1-I2C_SDA-Pad1)*%
X191850000Y-70500000D03*
%TO.P,PA1010D1,2,I2C_SCL*%
%TO.N,unconnected-(PA1010D1-I2C_SCL-Pad2)*%
X191850000Y-72100000D03*
%TO.P,PA1010D1,3,1PPS*%
%TO.N,unconnected-(PA1010D1-1PPS-Pad3)*%
X191850000Y-75000000D03*
%TO.P,PA1010D1,4,TX*%
%TO.N,Net-(PA1010D1-TX)*%
X191850000Y-76600000D03*
%TO.P,PA1010D1,5,RX*%
%TO.N,Net-(PA1010D1-RX)*%
X191850000Y-78200000D03*
%TO.P,PA1010D1,6,NRESET*%
%TO.N,unconnected-(PA1010D1-NRESET-Pad6)*%
X182150000Y-78200000D03*
%TO.P,PA1010D1,7,GND*%
%TO.N,GNDGPS*%
X182150000Y-76600000D03*
%TO.P,PA1010D1,8,WAKE_UP*%
%TO.N,unconnected-(PA1010D1-WAKE_UP-Pad8)*%
X182150000Y-75000000D03*
%TO.P,PA1010D1,9,VBACKUP*%
%TO.N,Net-(BT1-+)*%
X182150000Y-72100000D03*
%TO.P,PA1010D1,10,VCC*%
%TO.N,+3.3V*%
X182150000Y-70500000D03*
%TD*%
D17*
%TO.P,SW6,1,C*%
%TO.N,BAT+*%
X186060000Y-80640000D03*
D18*
%TO.P,SW6,2,B*%
%TO.N,Net-(SW6-B)*%
X187560000Y-80640000D03*
%TO.P,SW6,3,A*%
%TO.N,vusb*%
X190560000Y-80640000D03*
D19*
%TO.P,SW6,4,S*%
%TO.N,GND*%
X191960000Y-83355000D03*
X191960000Y-81425000D03*
X184660000Y-83355000D03*
X184660000Y-81425000D03*
%TD*%
D13*
%TO.P,SW2,1,1*%
%TO.N,GND*%
X182415000Y-65935000D03*
D14*
X184340000Y-68360000D03*
D13*
X186265000Y-65935000D03*
D15*
%TO.P,SW2,2,2*%
%TO.N,Net-(R10-Pad1)*%
X182415000Y-67385000D03*
X186265000Y-67385000D03*
%TD*%
D20*
%TO.P,J1,A1,GND*%
%TO.N,GND*%
X202045000Y-71850000D03*
X202045000Y-78250000D03*
%TO.P,J1,A4,VBUS*%
%TO.N,vusb*%
X202045000Y-72650000D03*
X202045000Y-77450000D03*
D21*
%TO.P,J1,A5,CC1*%
%TO.N,Net-(J1-CC1)*%
X202045000Y-73800000D03*
%TO.P,J1,A6,D+*%
%TO.N,Net-(J1-D+-PadA6)*%
X202045000Y-74800000D03*
%TO.P,J1,A7,D-*%
%TO.N,Net-(J1-D--PadA7)*%
X202045000Y-75300000D03*
%TO.P,J1,A8,SBU1*%
%TO.N,unconnected-(J1-SBU1-PadA8)*%
X202045000Y-76300000D03*
%TO.P,J1,B5,CC2*%
%TO.N,Net-(J1-CC2)*%
X202045000Y-76800000D03*
%TO.P,J1,B6,D+*%
%TO.N,Net-(J1-D+-PadA6)*%
X202045000Y-75800000D03*
%TO.P,J1,B7,D-*%
%TO.N,Net-(J1-D--PadA7)*%
X202045000Y-74300000D03*
%TO.P,J1,B8,SBU2*%
%TO.N,unconnected-(J1-SBU2-PadB8)*%
X202045000Y-73300000D03*
D22*
%TO.P,J1,S1,SHIELD*%
%TO.N,GND*%
X206550000Y-69940000D03*
X202620000Y-69940000D03*
X206550000Y-80160000D03*
X202620000Y-80160000D03*
%TD*%
D23*
%TO.N,+3.3V*%
X193850000Y-71540000D03*
X193870000Y-71980000D03*
X199570000Y-69310000D03*
X193200000Y-74420000D03*
X181690000Y-68400000D03*
X192790000Y-78230000D03*
X198880000Y-69920000D03*
X193810000Y-78240000D03*
X189890000Y-69460000D03*
X192700000Y-74420000D03*
X198860000Y-69330000D03*
X182220000Y-70510000D03*
X181720000Y-70510000D03*
X192810000Y-74900000D03*
X192800000Y-78840000D03*
X197900000Y-78560000D03*
X193300000Y-78860000D03*
X181710000Y-69920000D03*
X181710000Y-68900000D03*
X200630000Y-78310000D03*
X193450000Y-71980000D03*
X194190000Y-70450000D03*
X192760000Y-75340000D03*
X197420000Y-78570000D03*
X193260000Y-78240000D03*
X193710000Y-70460000D03*
%TO.N,Net-(U1-NRST)*%
X205950000Y-71900000D03*
X205940000Y-71470000D03*
X192540000Y-73610000D03*
%TO.N,GNDGPS*%
X182510000Y-76570000D03*
X181810000Y-76570000D03*
%TO.N,Net-(BT1-+)*%
X182100000Y-72020000D03*
X188706280Y-71250688D03*
X188680000Y-71750000D03*
%TO.N,COMPASSCL*%
X199190000Y-74940000D03*
X195390000Y-80770000D03*
%TO.N,Net-(J1-CC2)*%
X202540000Y-76790000D03*
%TO.N,Net-(J1-CC1)*%
X200800000Y-73710000D03*
%TO.N,OLED_SCL*%
X196380000Y-77150000D03*
X198030000Y-70580000D03*
%TO.N,Net-(PA1010D1-TX)*%
X191820000Y-76920000D03*
%TO.N,Net-(PA1010D1-RX)*%
X190830000Y-76460000D03*
%TO.N,B2*%
X192970000Y-73190000D03*
X186270000Y-72710000D03*
%TO.N,vusb*%
X197230000Y-77748506D03*
X203800000Y-74310000D03*
X197680000Y-77740000D03*
X203800000Y-74740000D03*
X190550000Y-80150000D03*
X203810000Y-75180000D03*
X190560000Y-80630000D03*
X196110000Y-77740000D03*
X195635356Y-77674644D03*
%TO.N,SWDIO*%
X199280000Y-72910000D03*
X204600000Y-70970000D03*
X204590000Y-70550000D03*
%TO.N,SWO*%
X204610000Y-68710000D03*
X197410000Y-70950000D03*
X204600000Y-68260000D03*
%TO.N,SWCLK*%
X204580000Y-69830000D03*
X204590000Y-69400000D03*
X199270000Y-72410000D03*
%TO.N,unconnected-(U1-PA4-Pad10)*%
X204070000Y-81380000D03*
X195070000Y-77250000D03*
X204056847Y-80880170D03*
%TO.N,unconnected-(U1-PB0-Pad14)*%
X203920000Y-79730000D03*
X198465000Y-77210000D03*
X203920000Y-80220000D03*
%TO.N,Net-(SW6-B)*%
X188510000Y-80120000D03*
X187570000Y-80610000D03*
X187560000Y-80140000D03*
X188510000Y-81120000D03*
X187570000Y-81110000D03*
X188510000Y-80610000D03*
%TO.N,GND*%
X207280000Y-80900000D03*
X181790000Y-82640000D03*
X197690000Y-66930000D03*
X189670000Y-74020000D03*
X203390000Y-69270000D03*
X186720000Y-78050000D03*
X189670000Y-75020000D03*
X181810000Y-79710000D03*
X188590000Y-73100000D03*
X203780000Y-77710000D03*
X200270000Y-66260000D03*
X202330000Y-81850000D03*
X201390000Y-65470000D03*
X203490000Y-78610000D03*
X192130000Y-79020000D03*
X189790000Y-83640000D03*
X184610000Y-76250000D03*
X186810000Y-80280000D03*
X195640000Y-73670000D03*
X182800000Y-78920000D03*
X194070000Y-68020000D03*
X207390000Y-78640000D03*
X181770000Y-75770000D03*
X182780000Y-72890000D03*
X197390000Y-65470000D03*
X204730000Y-80870000D03*
X181780000Y-74290000D03*
X181790000Y-81640000D03*
X207390000Y-83640000D03*
X203700000Y-71430000D03*
X200460000Y-72820000D03*
X201740000Y-71830000D03*
X195790000Y-83640000D03*
X207280000Y-79300000D03*
X191620000Y-73570000D03*
X194650000Y-75650000D03*
X189390000Y-77540000D03*
X197620000Y-73670000D03*
X192780000Y-81970000D03*
X181720000Y-66350000D03*
X207390000Y-67500000D03*
X185600000Y-72760000D03*
X184790000Y-83640000D03*
X198450000Y-71920000D03*
X183790000Y-83640000D03*
X190390000Y-65470000D03*
X195640000Y-74660000D03*
X184620000Y-74300000D03*
X191620000Y-81200000D03*
X188490000Y-68760000D03*
X205390000Y-77640000D03*
X193790000Y-83640000D03*
X207390000Y-66440000D03*
X198450000Y-71430000D03*
X186790000Y-83640000D03*
X201850000Y-80100000D03*
X182780000Y-74290000D03*
X207390000Y-76640000D03*
X197310000Y-70420000D03*
X197860000Y-68680000D03*
X207390000Y-82740000D03*
X196630000Y-75650000D03*
X195390000Y-65470000D03*
X185390000Y-65470000D03*
X187790000Y-82040000D03*
X198380000Y-76540000D03*
X186720000Y-72330000D03*
X194650000Y-73670000D03*
X183780000Y-77410000D03*
X197620000Y-74660000D03*
X205590000Y-83640000D03*
X182780000Y-73590000D03*
X185750000Y-79510000D03*
X205780000Y-80900000D03*
X205800000Y-69880000D03*
X205780000Y-80100000D03*
X195640000Y-75650000D03*
X202380000Y-71840000D03*
X184610000Y-75250000D03*
X194790000Y-83640000D03*
X207300000Y-69880000D03*
X203370000Y-69880000D03*
X187640000Y-67370000D03*
X206390000Y-77640000D03*
X186100000Y-71510000D03*
X205800000Y-69080000D03*
X184960000Y-79480000D03*
X183780000Y-78070000D03*
X194650000Y-74660000D03*
X199530000Y-68130000D03*
X206530000Y-80900000D03*
X189820000Y-73110000D03*
X181800000Y-78920000D03*
X187530000Y-71500000D03*
X187960000Y-73110000D03*
X206550000Y-69080000D03*
X206540000Y-72620000D03*
X192390000Y-65470000D03*
X185830000Y-82880000D03*
X206550000Y-70680000D03*
X196630000Y-74660000D03*
X187540000Y-71030000D03*
X194730000Y-67970000D03*
X189830000Y-72180000D03*
X207390000Y-81840000D03*
X185820000Y-82220000D03*
X190420000Y-75020000D03*
X189390000Y-76600000D03*
X207400000Y-68450000D03*
X206390000Y-65470000D03*
X181830000Y-71310000D03*
X197220000Y-68690000D03*
X188170000Y-74020000D03*
X191470711Y-67074977D03*
X190600000Y-78340000D03*
X188440000Y-72330000D03*
X203810000Y-72300000D03*
X184460000Y-65460000D03*
X200950000Y-79280000D03*
X182770000Y-75770000D03*
X201850000Y-80900000D03*
X205800000Y-70680000D03*
X202810000Y-71440000D03*
X190620000Y-79040000D03*
X207390000Y-65470000D03*
X186250000Y-78050000D03*
X207300000Y-69080000D03*
X181770000Y-80640000D03*
X190900000Y-72200000D03*
X198390000Y-65470000D03*
X185040000Y-72750000D03*
X206490000Y-83640000D03*
X182790000Y-81640000D03*
X188170000Y-76830000D03*
X182790000Y-83640000D03*
X197620000Y-72680000D03*
X191390000Y-65470000D03*
X202790000Y-67500000D03*
X192440000Y-68750000D03*
X190890000Y-70690000D03*
X185790000Y-83640000D03*
X199690000Y-71430000D03*
X186080000Y-68780000D03*
X202830000Y-81580000D03*
X188790000Y-82040000D03*
X182780000Y-77410000D03*
X198790000Y-83640000D03*
X182830000Y-71310000D03*
X200390000Y-65470000D03*
X187350000Y-79510000D03*
X207390000Y-74640000D03*
X188150000Y-79510000D03*
X187880000Y-68200000D03*
X202740000Y-69870000D03*
X187880000Y-68780000D03*
X201850000Y-79300000D03*
X200290000Y-81180000D03*
X192320000Y-81600000D03*
X200270000Y-66810000D03*
X188920000Y-74020000D03*
X194390000Y-65470000D03*
X195140000Y-66200000D03*
X203390000Y-65470000D03*
X194450425Y-68786961D03*
X195640000Y-72680000D03*
X207390000Y-72640000D03*
X187280000Y-68200000D03*
X202340000Y-78240000D03*
X205780000Y-79300000D03*
X199070000Y-71430000D03*
X200940000Y-76360000D03*
X200580000Y-83430000D03*
X190590000Y-76990000D03*
X191620000Y-73110000D03*
X197760000Y-79410000D03*
X196390000Y-65470000D03*
X191000000Y-67380000D03*
X202750000Y-79300000D03*
X188790000Y-83640000D03*
X207390000Y-71640000D03*
X199040000Y-71920000D03*
X206120000Y-74910000D03*
X204690000Y-83640000D03*
X188920000Y-75020000D03*
X186790000Y-81260000D03*
X201960000Y-69860000D03*
X202760000Y-69290000D03*
X189830000Y-70680000D03*
X207390000Y-77640000D03*
X195150000Y-66930000D03*
X186100000Y-71070000D03*
X203790000Y-83640000D03*
X181780000Y-73590000D03*
X188170000Y-75020000D03*
X190570000Y-77710000D03*
X181780000Y-77410000D03*
X198460000Y-68130000D03*
X196670000Y-68190000D03*
X192790000Y-83640000D03*
X197790000Y-83640000D03*
X196630000Y-73670000D03*
X186680000Y-68230000D03*
X202750000Y-80900000D03*
X191790000Y-83640000D03*
X204390000Y-65470000D03*
X190790000Y-83640000D03*
X199390000Y-65470000D03*
X197700000Y-66230000D03*
X204460000Y-72300000D03*
X204710000Y-79780000D03*
X201230000Y-78290000D03*
X195410000Y-68640000D03*
X206530000Y-79300000D03*
X205770000Y-72630000D03*
X191800000Y-71200000D03*
X186860000Y-75830000D03*
X186080000Y-68230000D03*
X193410000Y-68570000D03*
X190546733Y-67077157D03*
X196790000Y-83640000D03*
X187660000Y-66420000D03*
X181790000Y-83640000D03*
X207390000Y-73640000D03*
X194650000Y-72680000D03*
X187790000Y-83640000D03*
X181780000Y-72890000D03*
X196630000Y-72680000D03*
X197160000Y-79410000D03*
X207300000Y-70680000D03*
X202750000Y-80100000D03*
X187390000Y-65470000D03*
X203780000Y-82060000D03*
X190420000Y-74020000D03*
X183040000Y-65490000D03*
X199510000Y-83650000D03*
X202800000Y-66250000D03*
X185560000Y-75810000D03*
X205390000Y-65470000D03*
X201760000Y-78230000D03*
X207280000Y-80100000D03*
X181730000Y-65490000D03*
X202390000Y-65470000D03*
X191350000Y-79030000D03*
X183820000Y-82220000D03*
X199160000Y-68730000D03*
X196510000Y-80250000D03*
X200960000Y-80110000D03*
X193420000Y-80460000D03*
X200340000Y-82970000D03*
X207390000Y-75640000D03*
%TO.N,BAT+*%
X185590000Y-77670000D03*
X185090000Y-77670000D03*
X185560000Y-78190000D03*
X185080000Y-78184280D03*
%TO.N,Net-(R10-Pad1)*%
X181820000Y-67070000D03*
X182980000Y-67670000D03*
X182980000Y-67070000D03*
X181830000Y-67650000D03*
%TO.N,Net-(R11-Pad1)*%
X189670000Y-67650000D03*
X192300000Y-67630000D03*
X193500000Y-67630000D03*
X188470000Y-67050000D03*
X192300000Y-67030000D03*
X193500000Y-67030000D03*
X188470000Y-67650000D03*
X189670000Y-67050000D03*
%TO.N,Net-(J1-D--PadA7)*%
X204940000Y-75670000D03*
X200560000Y-74590000D03*
%TO.N,Net-(J1-D+-PadA6)*%
X201090000Y-74730000D03*
X204930000Y-73770000D03*
%TD*%
D24*
%TO.N,+3.3V*%
X200530000Y-78210000D02*
X200630000Y-78310000D01*
X197900000Y-78560000D02*
X198250000Y-78210000D01*
X197890000Y-78570000D02*
X197420000Y-78570000D01*
X198250000Y-78210000D02*
X200530000Y-78210000D01*
X197900000Y-78560000D02*
X197890000Y-78570000D01*
D25*
%TO.N,Net-(BT1-+)*%
X182520000Y-72100000D02*
X182210000Y-72030000D01*
X182210000Y-72030000D02*
X182100000Y-72020000D01*
X182670000Y-71950000D02*
X182590000Y-72030000D01*
X188680000Y-71750000D02*
X188680000Y-71390000D01*
X188700000Y-71370000D02*
X188120000Y-71950000D01*
X182590000Y-72030000D02*
X182520000Y-72100000D01*
X188680000Y-71276968D02*
X188680000Y-71750000D01*
X188680000Y-71390000D02*
X188700000Y-71370000D01*
X188706280Y-71250688D02*
X188706280Y-71363720D01*
X188706280Y-71250688D02*
X188680000Y-71276968D01*
X188706280Y-71363720D02*
X188700000Y-71370000D01*
X188120000Y-71950000D02*
X182670000Y-71950000D01*
X182100000Y-72020000D02*
X182150000Y-72100000D01*
%TO.N,COMPASSCL*%
X196520000Y-79640000D02*
X195390000Y-80770000D01*
X196520000Y-77610000D02*
X196520000Y-79640000D01*
X199190000Y-74940000D02*
X196520000Y-77610000D01*
%TO.N,Net-(J1-CC1)*%
X200800000Y-73710000D02*
X200890000Y-73800000D01*
X200890000Y-73800000D02*
X202045000Y-73800000D01*
%TO.N,OLED_SCL*%
X198055000Y-70605000D02*
X198055000Y-75475000D01*
X198055000Y-75475000D02*
X196380000Y-77150000D01*
X198030000Y-70580000D02*
X198055000Y-70605000D01*
%TO.N,Net-(PA1010D1-RX)*%
X191070000Y-77420000D02*
X191850000Y-78200000D01*
X191540000Y-78200000D02*
X191340000Y-78200000D01*
X191070000Y-76700000D02*
X191070000Y-77420000D01*
X190830000Y-76460000D02*
X191070000Y-76700000D01*
%TO.N,B2*%
X192970000Y-73190000D02*
X192490000Y-72710000D01*
X192490000Y-72710000D02*
X186270000Y-72710000D01*
D26*
%TO.N,vusb*%
X197700000Y-77760000D02*
X200960000Y-77760000D01*
X195340000Y-77760000D02*
X193400000Y-79700000D01*
X193400000Y-79700000D02*
X192520000Y-79700000D01*
X201270000Y-77450000D02*
X202045000Y-77450000D01*
X200960000Y-77760000D02*
X201270000Y-77450000D01*
X197680000Y-77740000D02*
X197700000Y-77760000D01*
D25*
%TO.N,Net-(R10-Pad1)*%
X185805000Y-67385000D02*
X182985000Y-67385000D01*
X182930000Y-67330000D02*
X182875000Y-67385000D01*
X182985000Y-67385000D02*
X182930000Y-67330000D01*
X185860000Y-67330000D02*
X185805000Y-67385000D01*
X182875000Y-67385000D02*
X182415000Y-67385000D01*
X186265000Y-67385000D02*
X185915000Y-67385000D01*
X185915000Y-67385000D02*
X185860000Y-67330000D01*
%TO.N,Net-(J1-D--PadA7)*%
X200560000Y-74990000D02*
X200560000Y-74590000D01*
X200800000Y-74300000D02*
X202045000Y-74300000D01*
X200560000Y-74590000D02*
X200560000Y-74560000D01*
X200550000Y-74550000D02*
X200800000Y-74300000D01*
X202045000Y-75300000D02*
X200870000Y-75300000D01*
X200870000Y-75300000D02*
X200560000Y-74990000D01*
X200560000Y-74560000D02*
X200550000Y-74550000D01*
%TO.N,Net-(J1-D+-PadA6)*%
X202790000Y-74800000D02*
X202045000Y-74800000D01*
X201140000Y-74800000D02*
X201090000Y-74750000D01*
X202920000Y-75710000D02*
X202920000Y-74930000D01*
X201090000Y-74730000D02*
X201070000Y-74730000D01*
X202920000Y-74930000D02*
X202790000Y-74800000D01*
X202045000Y-74800000D02*
X201140000Y-74800000D01*
X202045000Y-75800000D02*
X202830000Y-75800000D01*
X201070000Y-74730000D02*
X201080000Y-74740000D01*
X201090000Y-74750000D02*
X201090000Y-74730000D01*
X202830000Y-75800000D02*
X202920000Y-75710000D01*
%TD*%
%TA.AperFunction,Conductor*%
%TO.N,vusb*%
G36*
X193330900Y-79448220D02*
G01*
X193559522Y-79647532D01*
X193635729Y-79713969D01*
X193660928Y-79764691D01*
X193642880Y-79818376D01*
X193635481Y-79825743D01*
X192470582Y-80832216D01*
X192422799Y-80850219D01*
X191210000Y-80860000D01*
X191209999Y-80860000D01*
X191201809Y-80873650D01*
X191156302Y-80907366D01*
X191137609Y-80909571D01*
X190264256Y-80900750D01*
X190212151Y-80878549D01*
X190191007Y-80826007D01*
X190191010Y-80825747D01*
X190209007Y-79502993D01*
X190231391Y-79450967D01*
X190283000Y-79430000D01*
X193282273Y-79430000D01*
X193330900Y-79448220D01*
G37*
%TD.AperFunction*%
%TD*%
%TA.AperFunction,Conductor*%
%TO.N,+3.3V*%
G36*
X195310000Y-69170000D02*
G01*
X195323050Y-70337999D01*
X195323049Y-70338000D01*
X195329130Y-70882180D01*
X195308042Y-70934745D01*
X195255962Y-70957002D01*
X195252235Y-70956950D01*
X194310000Y-70919999D01*
X194310000Y-70920000D01*
X194329915Y-78209025D01*
X194308384Y-78261410D01*
X194307995Y-78261798D01*
X193280805Y-79279389D01*
X193230724Y-79300791D01*
X192597433Y-79317907D01*
X192544541Y-79297655D01*
X192521461Y-79245933D01*
X192521447Y-79242579D01*
X192531975Y-78679291D01*
X192542369Y-78646153D01*
X192541879Y-78645950D01*
X192544163Y-78640433D01*
X192544438Y-78639558D01*
X192544669Y-78639213D01*
X192550500Y-78609899D01*
X192550499Y-77790102D01*
X192550317Y-77789191D01*
X192548908Y-77773377D01*
X192580000Y-76110000D01*
X192579999Y-76109999D01*
X192580000Y-76109999D01*
X192517595Y-76105199D01*
X192467086Y-76079575D01*
X192449276Y-76032210D01*
X192444272Y-75563517D01*
X192465385Y-75510967D01*
X192483263Y-75498884D01*
X192483153Y-75498719D01*
X192522454Y-75472459D01*
X192522453Y-75472459D01*
X192522457Y-75472457D01*
X192544669Y-75439213D01*
X192550500Y-75409899D01*
X192550499Y-74590102D01*
X192544669Y-74560787D01*
X192544668Y-74560786D01*
X192544668Y-74560784D01*
X192522459Y-74527545D01*
X192522456Y-74527542D01*
X192489213Y-74505331D01*
X192482479Y-74502542D01*
X192483423Y-74500262D01*
X192444679Y-74474372D01*
X192432214Y-74434055D01*
X192427422Y-73985287D01*
X192448536Y-73932736D01*
X192500628Y-73910504D01*
X192501418Y-73910500D01*
X192592988Y-73910500D01*
X192592988Y-73910499D01*
X192692568Y-73874256D01*
X192773748Y-73806138D01*
X192826734Y-73714363D01*
X192845136Y-73610000D01*
X192839379Y-73577349D01*
X192851638Y-73522055D01*
X192899406Y-73491624D01*
X192912255Y-73490500D01*
X193022988Y-73490500D01*
X193022988Y-73490499D01*
X193122568Y-73454256D01*
X193203748Y-73386138D01*
X193256734Y-73294363D01*
X193275136Y-73190000D01*
X193256734Y-73085637D01*
X193245886Y-73066847D01*
X193203747Y-72993860D01*
X193122570Y-72925745D01*
X193122567Y-72925743D01*
X193022988Y-72889500D01*
X193022986Y-72889500D01*
X192948347Y-72889500D01*
X192896021Y-72867826D01*
X192589412Y-72561217D01*
X192583389Y-72557193D01*
X192551921Y-72510102D01*
X192550499Y-72495672D01*
X192550499Y-71690102D01*
X192550499Y-71690101D01*
X192550499Y-71690098D01*
X192544094Y-71657894D01*
X192542674Y-71644031D01*
X192537523Y-70971751D01*
X192543155Y-70942866D01*
X192544664Y-70939219D01*
X192544669Y-70939213D01*
X192550500Y-70909899D01*
X192550499Y-70090102D01*
X192544669Y-70060787D01*
X192542675Y-70057803D01*
X192530208Y-70017262D01*
X192530000Y-69990000D01*
X192540000Y-69150000D01*
X195310000Y-69170000D01*
G37*
%TD.AperFunction*%
%TD*%
%TA.AperFunction,Conductor*%
%TO.N,vusb*%
G36*
X197436372Y-77421011D02*
G01*
X197997601Y-77510095D01*
X198045882Y-77539704D01*
X198060000Y-77583180D01*
X198060000Y-77814032D01*
X198038326Y-77866358D01*
X198031719Y-77872220D01*
X197799782Y-78054456D01*
X197754842Y-78070264D01*
X196904779Y-78079212D01*
X196852228Y-78058090D01*
X196830004Y-78005995D01*
X196830000Y-78005216D01*
X196830000Y-77578846D01*
X196851673Y-77526521D01*
X196929035Y-77449159D01*
X196980122Y-77427497D01*
X197423551Y-77420107D01*
X197436372Y-77421011D01*
G37*
%TD.AperFunction*%
%TD*%
%TA.AperFunction,Conductor*%
%TO.N,vusb*%
G36*
X196307784Y-77451903D02*
G01*
X196329996Y-77504003D01*
X196330000Y-77504766D01*
X196330000Y-78026000D01*
X196308326Y-78078326D01*
X196256000Y-78100000D01*
X195364351Y-78100000D01*
X195320406Y-78085538D01*
X194997687Y-77847340D01*
X194968458Y-77798828D01*
X194982094Y-77743857D01*
X194995558Y-77729896D01*
X195340112Y-77455819D01*
X195385410Y-77439738D01*
X196255238Y-77430770D01*
X196307784Y-77451903D01*
G37*
%TD.AperFunction*%
%TD*%
%TA.AperFunction,Conductor*%
%TO.N,vusb*%
G36*
X202585373Y-72379685D02*
G01*
X202593212Y-72385161D01*
X202723680Y-72484000D01*
X202890000Y-72610000D01*
X203120000Y-72660000D01*
X204208119Y-72660000D01*
X204275158Y-72679685D01*
X204320913Y-72732489D01*
X204332101Y-72781863D01*
X204339985Y-73239180D01*
X204340002Y-73240940D01*
X204349999Y-76529623D01*
X204350000Y-76530000D01*
X204350000Y-77226145D01*
X204330315Y-77293184D01*
X204277511Y-77338939D01*
X204236560Y-77349695D01*
X203179994Y-77440000D01*
X203109468Y-77458560D01*
X203102414Y-77460417D01*
X203070858Y-77464500D01*
X203057399Y-77464500D01*
X202936464Y-77496905D01*
X202936461Y-77496906D01*
X202936460Y-77496907D01*
X202927978Y-77501804D01*
X202897541Y-77514331D01*
X202800000Y-77540000D01*
X202635895Y-77695900D01*
X202573734Y-77727802D01*
X202550490Y-77730000D01*
X201594000Y-77730000D01*
X201526961Y-77710315D01*
X201481206Y-77657511D01*
X201470000Y-77606000D01*
X201470000Y-77271105D01*
X201489685Y-77204066D01*
X201542489Y-77158311D01*
X201591071Y-77147140D01*
X202740000Y-77120000D01*
X203074717Y-76622447D01*
X203128467Y-76577814D01*
X203173169Y-76567743D01*
X203390000Y-76560000D01*
X203370000Y-73510000D01*
X203174800Y-73510000D01*
X203107761Y-73490315D01*
X203065113Y-73443835D01*
X202810000Y-72960000D01*
X201584000Y-72960000D01*
X201516961Y-72940315D01*
X201471206Y-72887511D01*
X201460000Y-72836000D01*
X201460000Y-72484000D01*
X201479685Y-72416961D01*
X201532489Y-72371206D01*
X201584000Y-72360000D01*
X202518334Y-72360000D01*
X202585373Y-72379685D01*
G37*
%TD.AperFunction*%
%TD*%
%TA.AperFunction,Conductor*%
%TO.N,GND*%
G36*
X207592539Y-65170185D02*
G01*
X207638294Y-65222989D01*
X207649500Y-65274500D01*
X207649500Y-83825500D01*
X207629815Y-83892539D01*
X207577011Y-83938294D01*
X207525500Y-83949500D01*
X181574500Y-83949500D01*
X181507461Y-83929815D01*
X181461706Y-83877011D01*
X181450500Y-83825500D01*
X181450500Y-82469056D01*
X186209500Y-82469056D01*
X186250423Y-82621783D01*
X186250426Y-82621790D01*
X186329475Y-82758709D01*
X186329479Y-82758714D01*
X186329480Y-82758716D01*
X186441284Y-82870520D01*
X186441286Y-82870521D01*
X186441290Y-82870524D01*
X186578209Y-82949573D01*
X186578216Y-82949577D01*
X186730943Y-82990500D01*
X186730945Y-82990500D01*
X186889055Y-82990500D01*
X186889057Y-82990500D01*
X187041784Y-82949577D01*
X187178716Y-82870520D01*
X187290520Y-82758716D01*
X187369577Y-82621784D01*
X187410500Y-82469057D01*
X187410500Y-82469056D01*
X189209500Y-82469056D01*
X189250423Y-82621783D01*
X189250426Y-82621790D01*
X189329475Y-82758709D01*
X189329479Y-82758714D01*
X189329480Y-82758716D01*
X189441284Y-82870520D01*
X189441286Y-82870521D01*
X189441290Y-82870524D01*
X189578209Y-82949573D01*
X189578216Y-82949577D01*
X189730943Y-82990500D01*
X189730945Y-82990500D01*
X189889055Y-82990500D01*
X189889057Y-82990500D01*
X190041784Y-82949577D01*
X190178716Y-82870520D01*
X190290520Y-82758716D01*
X190369577Y-82621784D01*
X190410500Y-82469057D01*
X190410500Y-82310943D01*
X190369577Y-82158216D01*
X190338670Y-82104683D01*
X190290524Y-82021290D01*
X190290518Y-82021282D01*
X190178717Y-81909481D01*
X190178709Y-81909475D01*
X190041790Y-81830426D01*
X190041786Y-81830424D01*
X190041784Y-81830423D01*
X189889057Y-81789500D01*
X189730943Y-81789500D01*
X189578216Y-81830423D01*
X189578209Y-81830426D01*
X189441290Y-81909475D01*
X189441282Y-81909481D01*
X189329481Y-82021282D01*
X189329475Y-82021290D01*
X189250426Y-82158209D01*
X189250423Y-82158216D01*
X189209500Y-82310943D01*
X189209500Y-82469056D01*
X187410500Y-82469056D01*
X187410500Y-82310943D01*
X187369577Y-82158216D01*
X187338670Y-82104683D01*
X187290524Y-82021290D01*
X187290518Y-82021282D01*
X187178717Y-81909481D01*
X187178709Y-81909475D01*
X187041790Y-81830426D01*
X187041786Y-81830424D01*
X187041784Y-81830423D01*
X186889057Y-81789500D01*
X186730943Y-81789500D01*
X186578216Y-81830423D01*
X186578209Y-81830426D01*
X186441290Y-81909475D01*
X186441282Y-81909481D01*
X186329481Y-82021282D01*
X186329475Y-82021290D01*
X186250426Y-82158209D01*
X186250423Y-82158216D01*
X186209500Y-82310943D01*
X186209500Y-82469056D01*
X181450500Y-82469056D01*
X181450500Y-80680001D01*
X182004318Y-80680001D01*
X182024955Y-80836760D01*
X182024956Y-80836762D01*
X182071422Y-80948942D01*
X182085464Y-80982841D01*
X182181718Y-81108282D01*
X182307159Y-81204536D01*
X182453238Y-81265044D01*
X182531619Y-81275363D01*
X182609999Y-81285682D01*
X182610000Y-81285682D01*
X182610001Y-81285682D01*
X182662254Y-81278802D01*
X182766762Y-81265044D01*
X182912841Y-81204536D01*
X183038282Y-81108282D01*
X183134536Y-80982841D01*
X183188421Y-80852750D01*
X183232260Y-80798348D01*
X183298554Y-80776283D01*
X183303455Y-80776205D01*
X185485980Y-80784598D01*
X185552940Y-80804539D01*
X185598492Y-80857519D01*
X185609500Y-80908596D01*
X185609500Y-81449894D01*
X185609501Y-81449902D01*
X185615330Y-81479212D01*
X185637542Y-81512457D01*
X185654219Y-81523599D01*
X185670787Y-81534669D01*
X185670790Y-81534669D01*
X185670791Y-81534670D01*
X185680647Y-81536630D01*
X185700101Y-81540500D01*
X186068380Y-81540499D01*
X186070150Y-81540511D01*
X186292722Y-81543692D01*
X186303766Y-81542624D01*
X186319334Y-81541119D01*
X186319363Y-81541424D01*
X186331558Y-81540499D01*
X186419895Y-81540499D01*
X186419898Y-81540499D01*
X186449213Y-81534669D01*
X186482457Y-81512457D01*
X186504669Y-81479213D01*
X186510500Y-81449899D01*
X186510499Y-81399894D01*
X187109500Y-81399894D01*
X187109501Y-81399902D01*
X187115330Y-81429212D01*
X187137542Y-81462457D01*
X187154219Y-81473599D01*
X187170787Y-81484669D01*
X187200101Y-81490500D01*
X187257141Y-81490499D01*
X187281334Y-81492882D01*
X187294495Y-81495500D01*
X188704630Y-81495500D01*
X188705188Y-81495496D01*
X188705553Y-81495495D01*
X188707004Y-81495481D01*
X188748263Y-81486645D01*
X188800154Y-81463949D01*
X188814754Y-81456145D01*
X188856119Y-81405744D01*
X188876763Y-81353003D01*
X188884001Y-81312481D01*
X188883278Y-81275633D01*
X188856902Y-79930479D01*
X188856902Y-79930478D01*
X188848491Y-79891220D01*
X188848488Y-79891212D01*
X188826839Y-79840363D01*
X188826838Y-79840360D01*
X188826835Y-79840354D01*
X188826832Y-79840347D01*
X188819716Y-79826550D01*
X188795913Y-79806220D01*
X188770135Y-79784204D01*
X188729910Y-79767543D01*
X188717810Y-79762531D01*
X188717808Y-79762530D01*
X188717804Y-79762529D01*
X188677439Y-79754500D01*
X188677437Y-79754500D01*
X187303708Y-79754500D01*
X187263661Y-79762396D01*
X187263656Y-79762397D01*
X187211678Y-79783724D01*
X187211292Y-79783901D01*
X187211090Y-79783966D01*
X187209482Y-79784626D01*
X187209430Y-79784501D01*
X187184030Y-79792697D01*
X187170787Y-79795330D01*
X187137542Y-79817542D01*
X187115332Y-79850785D01*
X187115329Y-79850791D01*
X187109500Y-79880098D01*
X187109500Y-81399894D01*
X186510499Y-81399894D01*
X186510499Y-81398298D01*
X186515522Y-81363362D01*
X186521226Y-81343940D01*
X186525500Y-81314216D01*
X186525500Y-79961880D01*
X186523279Y-79940344D01*
X186513109Y-79891574D01*
X186510499Y-79866265D01*
X186510499Y-79830105D01*
X186510498Y-79830097D01*
X186504669Y-79800787D01*
X186482457Y-79767542D01*
X186449214Y-79745332D01*
X186449215Y-79745332D01*
X186449213Y-79745331D01*
X186449211Y-79745330D01*
X186449208Y-79745329D01*
X186419901Y-79739500D01*
X186419899Y-79739500D01*
X186353780Y-79739500D01*
X186334093Y-79737200D01*
X186333980Y-79737906D01*
X186299964Y-79732414D01*
X184804102Y-79706624D01*
X184737412Y-79685786D01*
X184702133Y-79650005D01*
X184661989Y-79587965D01*
X184642098Y-79520988D01*
X184661574Y-79453888D01*
X184689205Y-79423322D01*
X185735337Y-78596542D01*
X185736505Y-78595605D01*
X185739247Y-78593374D01*
X185760452Y-78570049D01*
X185799201Y-78511909D01*
X185812129Y-78484806D01*
X185818107Y-78465637D01*
X185843846Y-78383094D01*
X186084597Y-77611031D01*
X186088377Y-77594136D01*
X186093956Y-77553960D01*
X186094922Y-77536673D01*
X186088532Y-77293866D01*
X186086249Y-77274638D01*
X186083973Y-77263967D01*
X186076796Y-77230310D01*
X186076795Y-77230309D01*
X186076795Y-77230306D01*
X186055679Y-77186010D01*
X186011770Y-77131661D01*
X185962900Y-77097819D01*
X185962898Y-77097818D01*
X185962899Y-77097818D01*
X185896593Y-77075839D01*
X185896573Y-77075834D01*
X185867028Y-77070541D01*
X185867010Y-77070539D01*
X185169189Y-77046478D01*
X185169173Y-77046477D01*
X185154879Y-77046954D01*
X185154870Y-77046955D01*
X185121490Y-77050347D01*
X185079500Y-77063887D01*
X185018955Y-77098759D01*
X185018953Y-77098760D01*
X184995329Y-77117297D01*
X183104694Y-79096098D01*
X183103720Y-79097119D01*
X183103717Y-79097122D01*
X182468014Y-79762531D01*
X182068070Y-80181163D01*
X182068043Y-80181192D01*
X182061453Y-80188786D01*
X182061436Y-80188808D01*
X182046787Y-80207418D01*
X182028457Y-80242952D01*
X182008775Y-80309980D01*
X182004500Y-80339715D01*
X182004500Y-80554773D01*
X182007020Y-80577683D01*
X182007024Y-80577709D01*
X182009021Y-80586673D01*
X182010925Y-80629812D01*
X182004318Y-80679998D01*
X182004318Y-80680001D01*
X181450500Y-80680001D01*
X181450500Y-78824499D01*
X181470185Y-78757460D01*
X181522989Y-78711705D01*
X181574495Y-78700499D01*
X182759898Y-78700499D01*
X182789213Y-78694669D01*
X182822457Y-78672457D01*
X182844669Y-78639213D01*
X182850500Y-78609899D01*
X182850499Y-77790102D01*
X182844669Y-77760787D01*
X182833863Y-77744614D01*
X182822457Y-77727542D01*
X182789214Y-77705332D01*
X182789215Y-77705332D01*
X182789213Y-77705331D01*
X182789211Y-77705330D01*
X182789208Y-77705329D01*
X182759901Y-77699500D01*
X181574500Y-77699500D01*
X181507461Y-77679815D01*
X181461706Y-77627011D01*
X181450500Y-77575500D01*
X181450500Y-77224499D01*
X181470185Y-77157460D01*
X181522989Y-77111705D01*
X181574495Y-77100499D01*
X182759898Y-77100499D01*
X182789213Y-77094669D01*
X182822457Y-77072457D01*
X182844669Y-77039213D01*
X182850500Y-77009899D01*
X182850499Y-76190102D01*
X182844669Y-76160787D01*
X182843809Y-76159500D01*
X182822457Y-76127542D01*
X182789214Y-76105332D01*
X182789215Y-76105332D01*
X182789213Y-76105331D01*
X182789211Y-76105330D01*
X182789208Y-76105329D01*
X182759901Y-76099500D01*
X181574500Y-76099500D01*
X181507461Y-76079815D01*
X181461706Y-76027011D01*
X181450500Y-75975500D01*
X181450500Y-75624499D01*
X181470185Y-75557460D01*
X181522989Y-75511705D01*
X181574495Y-75500499D01*
X182759898Y-75500499D01*
X182789213Y-75494669D01*
X182822457Y-75472457D01*
X182844669Y-75439213D01*
X182850500Y-75409899D01*
X182850499Y-74590102D01*
X182844669Y-74560787D01*
X182833900Y-74544669D01*
X182822457Y-74527542D01*
X182789214Y-74505332D01*
X182789215Y-74505332D01*
X182789213Y-74505331D01*
X182789211Y-74505330D01*
X182789208Y-74505329D01*
X182759901Y-74499500D01*
X181574500Y-74499500D01*
X181507461Y-74479815D01*
X181461706Y-74427011D01*
X181450500Y-74375500D01*
X181450500Y-72724499D01*
X181470185Y-72657460D01*
X181522989Y-72611705D01*
X181574495Y-72600499D01*
X182759898Y-72600499D01*
X182789213Y-72594669D01*
X182822457Y-72572457D01*
X182844669Y-72539213D01*
X182845544Y-72534815D01*
X182850500Y-72509901D01*
X182850500Y-72249500D01*
X182870185Y-72182461D01*
X182922989Y-72136706D01*
X182974500Y-72125500D01*
X188154907Y-72125500D01*
X188154909Y-72125500D01*
X188219413Y-72098782D01*
X188325565Y-71992629D01*
X188386885Y-71959145D01*
X188456577Y-71964129D01*
X188492950Y-71985322D01*
X188527432Y-72014256D01*
X188527433Y-72014257D01*
X188568449Y-72029184D01*
X188627014Y-72050500D01*
X188627017Y-72050500D01*
X188732983Y-72050500D01*
X188732986Y-72050500D01*
X188815020Y-72020642D01*
X188832566Y-72014257D01*
X188832568Y-72014256D01*
X188844359Y-72004362D01*
X188913748Y-71946138D01*
X188966734Y-71854363D01*
X188985136Y-71750000D01*
X188966734Y-71645637D01*
X188956287Y-71627543D01*
X188931264Y-71584200D01*
X188914791Y-71516300D01*
X188935421Y-71456692D01*
X188934604Y-71456221D01*
X188937051Y-71451981D01*
X188937643Y-71450273D01*
X188939198Y-71448262D01*
X188940026Y-71446827D01*
X188940028Y-71446826D01*
X188993014Y-71355051D01*
X189011416Y-71250688D01*
X189011382Y-71250498D01*
X189003491Y-71205743D01*
X188993014Y-71146325D01*
X188988541Y-71138578D01*
X188940030Y-71054553D01*
X188940029Y-71054552D01*
X188940028Y-71054550D01*
X188903712Y-71024077D01*
X188858848Y-70986431D01*
X188858846Y-70986430D01*
X188776813Y-70956574D01*
X188759266Y-70950188D01*
X188653294Y-70950188D01*
X188653291Y-70950188D01*
X188653291Y-70950189D01*
X188553713Y-70986430D01*
X188553711Y-70986431D01*
X188472534Y-71054548D01*
X188472529Y-71054553D01*
X188419548Y-71146319D01*
X188419546Y-71146325D01*
X188401144Y-71250687D01*
X188401144Y-71250688D01*
X188415413Y-71331611D01*
X188407669Y-71401051D01*
X188380978Y-71440825D01*
X188083622Y-71738182D01*
X188022302Y-71771666D01*
X187995943Y-71774500D01*
X182969051Y-71774500D01*
X182902012Y-71754815D01*
X182856257Y-71702011D01*
X182847433Y-71674690D01*
X182844669Y-71660787D01*
X182834543Y-71645631D01*
X182822457Y-71627542D01*
X182789214Y-71605332D01*
X182789215Y-71605332D01*
X182789213Y-71605331D01*
X182789211Y-71605330D01*
X182789208Y-71605329D01*
X182759901Y-71599500D01*
X181574500Y-71599500D01*
X181507461Y-71579815D01*
X181461706Y-71527011D01*
X181450500Y-71475500D01*
X181450500Y-71190761D01*
X181470185Y-71123722D01*
X181522989Y-71077967D01*
X181575846Y-71066769D01*
X184184319Y-71095225D01*
X184203598Y-71095436D01*
X184203598Y-71095435D01*
X184203599Y-71095436D01*
X184211066Y-71095253D01*
X184211080Y-71095252D01*
X184211086Y-71095252D01*
X184213506Y-71095106D01*
X184221520Y-71094626D01*
X184228957Y-71093915D01*
X189607330Y-70386758D01*
X189625154Y-70385712D01*
X191023591Y-70404483D01*
X191024263Y-70404490D01*
X191025256Y-70404497D01*
X191025260Y-70404496D01*
X191026355Y-70404504D01*
X191093257Y-70424650D01*
X191138647Y-70477769D01*
X191149500Y-70528501D01*
X191149500Y-70909894D01*
X191149501Y-70909902D01*
X191155330Y-70939212D01*
X191177542Y-70972457D01*
X191194219Y-70983599D01*
X191210787Y-70994669D01*
X191210790Y-70994669D01*
X191210791Y-70994670D01*
X191220647Y-70996630D01*
X191240101Y-71000500D01*
X192309186Y-71000499D01*
X192376225Y-71020183D01*
X192421980Y-71072987D01*
X192433182Y-71123549D01*
X192435871Y-71474550D01*
X192416701Y-71541738D01*
X192364249Y-71587896D01*
X192311875Y-71599500D01*
X191240105Y-71599500D01*
X191240097Y-71599501D01*
X191210787Y-71605330D01*
X191177542Y-71627542D01*
X191155332Y-71660785D01*
X191155329Y-71660791D01*
X191149500Y-71690098D01*
X191149500Y-71690100D01*
X191149500Y-71690101D01*
X191149500Y-72098782D01*
X191149501Y-72410500D01*
X191129817Y-72477539D01*
X191077013Y-72523294D01*
X191025501Y-72534500D01*
X186573475Y-72534500D01*
X186506436Y-72514815D01*
X186493769Y-72505489D01*
X186422567Y-72445743D01*
X186422566Y-72445742D01*
X186340533Y-72415886D01*
X186322986Y-72409500D01*
X186217014Y-72409500D01*
X186217011Y-72409500D01*
X186217011Y-72409501D01*
X186117433Y-72445742D01*
X186117431Y-72445743D01*
X186036254Y-72513860D01*
X186036249Y-72513865D01*
X185983268Y-72605631D01*
X185983266Y-72605637D01*
X185965010Y-72709174D01*
X185964864Y-72710000D01*
X185981727Y-72805637D01*
X185983266Y-72814362D01*
X185983268Y-72814368D01*
X186036249Y-72906134D01*
X186036250Y-72906135D01*
X186036252Y-72906138D01*
X186040855Y-72910000D01*
X186117431Y-72974256D01*
X186117433Y-72974257D01*
X186158449Y-72989184D01*
X186217014Y-73010500D01*
X186217022Y-73010500D01*
X186218997Y-73010849D01*
X186221825Y-73012251D01*
X186227208Y-73014210D01*
X186226989Y-73014810D01*
X186281599Y-73041878D01*
X186317487Y-73101826D01*
X186315269Y-73171660D01*
X186285144Y-73220645D01*
X186261697Y-73244092D01*
X186157681Y-73399762D01*
X186157676Y-73399771D01*
X186086027Y-73572748D01*
X186086025Y-73572756D01*
X186049500Y-73756379D01*
X186049500Y-73943620D01*
X186086025Y-74127243D01*
X186086027Y-74127251D01*
X186157676Y-74300228D01*
X186157681Y-74300237D01*
X186261697Y-74455907D01*
X186261700Y-74455911D01*
X186394088Y-74588299D01*
X186394092Y-74588302D01*
X186549762Y-74692318D01*
X186549768Y-74692321D01*
X186549769Y-74692322D01*
X186722749Y-74763973D01*
X186893036Y-74797845D01*
X186906379Y-74800499D01*
X186906383Y-74800500D01*
X186906384Y-74800500D01*
X187093617Y-74800500D01*
X187093618Y-74800499D01*
X187277251Y-74763973D01*
X187450231Y-74692322D01*
X187605908Y-74588302D01*
X187738302Y-74455908D01*
X187842322Y-74300231D01*
X187913973Y-74127251D01*
X187950500Y-73943616D01*
X187950500Y-73756384D01*
X187913973Y-73572749D01*
X187854424Y-73428986D01*
X187842323Y-73399771D01*
X187842318Y-73399762D01*
X187738302Y-73244092D01*
X187738299Y-73244088D01*
X187605911Y-73111700D01*
X187601200Y-73107834D01*
X187602229Y-73106579D01*
X187562459Y-73058996D01*
X187553748Y-72989671D01*
X187583899Y-72926642D01*
X187643340Y-72889920D01*
X187676152Y-72885500D01*
X192199478Y-72885500D01*
X192266517Y-72905185D01*
X192312272Y-72957989D01*
X192322216Y-73027147D01*
X192321095Y-73033693D01*
X192314500Y-73066845D01*
X192314500Y-73235502D01*
X192322529Y-73275867D01*
X192322532Y-73275877D01*
X192326623Y-73285753D01*
X192334090Y-73355222D01*
X192311152Y-73404164D01*
X192311676Y-73404467D01*
X192308139Y-73410592D01*
X192307058Y-73412900D01*
X192306253Y-73413858D01*
X192253268Y-73505631D01*
X192253266Y-73505637D01*
X192234864Y-73609999D01*
X192234864Y-73610000D01*
X192253266Y-73714362D01*
X192253268Y-73714368D01*
X192306249Y-73806134D01*
X192312189Y-73813212D01*
X192340204Y-73877219D01*
X192332264Y-73939144D01*
X192329528Y-73945955D01*
X192329527Y-73945958D01*
X192326908Y-73959901D01*
X192323568Y-73977686D01*
X192321928Y-73986415D01*
X192326068Y-74374176D01*
X192307100Y-74441422D01*
X192254788Y-74487738D01*
X192202075Y-74499500D01*
X191240105Y-74499500D01*
X191240097Y-74499501D01*
X191210787Y-74505330D01*
X191177542Y-74527542D01*
X191155332Y-74560785D01*
X191155329Y-74560791D01*
X191149500Y-74590098D01*
X191149500Y-75409894D01*
X191149501Y-75409902D01*
X191155330Y-75439212D01*
X191177542Y-75472457D01*
X191182097Y-75475500D01*
X191210787Y-75494669D01*
X191210790Y-75494669D01*
X191210791Y-75494670D01*
X191220647Y-75496630D01*
X191240101Y-75500500D01*
X192215409Y-75500499D01*
X192282448Y-75520183D01*
X192328203Y-75572987D01*
X192339402Y-75623175D01*
X192343150Y-75974176D01*
X192324182Y-76041422D01*
X192271870Y-76087738D01*
X192219157Y-76099500D01*
X191240105Y-76099500D01*
X191240097Y-76099501D01*
X191210787Y-76105330D01*
X191177543Y-76127542D01*
X191154907Y-76161422D01*
X191101295Y-76206228D01*
X191031970Y-76214937D01*
X190989807Y-76199923D01*
X190982565Y-76195742D01*
X190905944Y-76167855D01*
X190882986Y-76159500D01*
X190777014Y-76159500D01*
X190777011Y-76159500D01*
X190777011Y-76159501D01*
X190677433Y-76195742D01*
X190677431Y-76195743D01*
X190596254Y-76263860D01*
X190596249Y-76263865D01*
X190543268Y-76355631D01*
X190543266Y-76355637D01*
X190524864Y-76460000D01*
X190541673Y-76555331D01*
X190543266Y-76564362D01*
X190543268Y-76564368D01*
X190596249Y-76656134D01*
X190596250Y-76656135D01*
X190596252Y-76656138D01*
X190631408Y-76685637D01*
X190677431Y-76724256D01*
X190677433Y-76724257D01*
X190718449Y-76739184D01*
X190777014Y-76760500D01*
X190777022Y-76760500D01*
X190787701Y-76762384D01*
X190787170Y-76765394D01*
X190837539Y-76780185D01*
X190883294Y-76832989D01*
X190894500Y-76884500D01*
X190894500Y-77385091D01*
X190894500Y-77454909D01*
X190910505Y-77493548D01*
X190921218Y-77519413D01*
X191113181Y-77711376D01*
X191146666Y-77772699D01*
X191149500Y-77799057D01*
X191149500Y-78609894D01*
X191149501Y-78609902D01*
X191155330Y-78639212D01*
X191177542Y-78672457D01*
X191194219Y-78683599D01*
X191210787Y-78694669D01*
X191210790Y-78694669D01*
X191210791Y-78694670D01*
X191220647Y-78696630D01*
X191240101Y-78700500D01*
X192299720Y-78700499D01*
X192366759Y-78720183D01*
X192412514Y-78772987D01*
X192423698Y-78826816D01*
X192416671Y-79202817D01*
X192395738Y-79269477D01*
X192342088Y-79314237D01*
X192292693Y-79324500D01*
X190282994Y-79324500D01*
X190243293Y-79332257D01*
X190243288Y-79332259D01*
X190191690Y-79353221D01*
X190177495Y-79360272D01*
X190134479Y-79409271D01*
X190134478Y-79409272D01*
X190112095Y-79461298D01*
X190112094Y-79461299D01*
X190103517Y-79501553D01*
X190085517Y-80824572D01*
X190093136Y-80865397D01*
X190093136Y-80865398D01*
X190100534Y-80883780D01*
X190109500Y-80930074D01*
X190109500Y-81399894D01*
X190109501Y-81399902D01*
X190115330Y-81429212D01*
X190137542Y-81462457D01*
X190154219Y-81473599D01*
X190170787Y-81484669D01*
X190170790Y-81484669D01*
X190170791Y-81484670D01*
X190180647Y-81486630D01*
X190200101Y-81490500D01*
X190919898Y-81490499D01*
X190949213Y-81484669D01*
X190982457Y-81462457D01*
X191004669Y-81429213D01*
X191010500Y-81399899D01*
X191010499Y-81139050D01*
X191030183Y-81072013D01*
X191082987Y-81026258D01*
X191134573Y-81015308D01*
X191134571Y-81015214D01*
X191134569Y-81015172D01*
X191134570Y-81015171D01*
X191134569Y-81015109D01*
X191135621Y-81015086D01*
X191135753Y-81015058D01*
X191136543Y-81015066D01*
X191149968Y-81014345D01*
X191168661Y-81012140D01*
X191219107Y-80992135D01*
X191223101Y-80989175D01*
X191288684Y-80965080D01*
X191295909Y-80964810D01*
X192423650Y-80955716D01*
X192459995Y-80948944D01*
X192507778Y-80930941D01*
X192539556Y-80912046D01*
X193704455Y-79905573D01*
X193709919Y-79900504D01*
X193717318Y-79893137D01*
X193734014Y-79866261D01*
X193751657Y-79844023D01*
X195353862Y-78241819D01*
X195415185Y-78208334D01*
X195441543Y-78205500D01*
X196220500Y-78205500D01*
X196287539Y-78225185D01*
X196333294Y-78277989D01*
X196344500Y-78329500D01*
X196344500Y-79515943D01*
X196324815Y-79582982D01*
X196308181Y-79603624D01*
X195478624Y-80433181D01*
X195417301Y-80466666D01*
X195390943Y-80469500D01*
X195337014Y-80469500D01*
X195337011Y-80469500D01*
X195337011Y-80469501D01*
X195237433Y-80505742D01*
X195237431Y-80505743D01*
X195156254Y-80573860D01*
X195156249Y-80573865D01*
X195103268Y-80665631D01*
X195103266Y-80665637D01*
X195084864Y-80770000D01*
X195101684Y-80865393D01*
X195103266Y-80874362D01*
X195103268Y-80874368D01*
X195156249Y-80966134D01*
X195156250Y-80966135D01*
X195156252Y-80966138D01*
X195187234Y-80992135D01*
X195237431Y-81034256D01*
X195237433Y-81034257D01*
X195278449Y-81049184D01*
X195337014Y-81070500D01*
X195337017Y-81070500D01*
X195442983Y-81070500D01*
X195442986Y-81070500D01*
X195525020Y-81040642D01*
X195542566Y-81034257D01*
X195542568Y-81034256D01*
X195623748Y-80966138D01*
X195676734Y-80874363D01*
X195695136Y-80770000D01*
X195695136Y-80769999D01*
X195695136Y-80764419D01*
X195714821Y-80697380D01*
X195731451Y-80676742D01*
X195922622Y-80485571D01*
X196889535Y-80485571D01*
X196892192Y-80490665D01*
X196894541Y-80515827D01*
X196889778Y-81044563D01*
X196893739Y-81052050D01*
X196896234Y-81077206D01*
X196895407Y-81333629D01*
X196890000Y-81351826D01*
X196890000Y-82077765D01*
X196890087Y-82077925D01*
X196892920Y-82104683D01*
X196891928Y-82412302D01*
X196890000Y-82418790D01*
X196890000Y-82460000D01*
X196890000Y-83010000D01*
X199990000Y-83010000D01*
X199990000Y-82405501D01*
X199987983Y-82387026D01*
X199983581Y-81026882D01*
X199990320Y-81003651D01*
X199989953Y-80965136D01*
X199985395Y-80486532D01*
X199990738Y-80467671D01*
X199989999Y-80430000D01*
X199990000Y-80430000D01*
X199985882Y-80220000D01*
X203614864Y-80220000D01*
X203633266Y-80324362D01*
X203633268Y-80324368D01*
X203686249Y-80416134D01*
X203686250Y-80416135D01*
X203686252Y-80416138D01*
X203767432Y-80484256D01*
X203772076Y-80485946D01*
X203828341Y-80527372D01*
X203853278Y-80592640D01*
X203838969Y-80661029D01*
X203824657Y-80682175D01*
X203823098Y-80684032D01*
X203770115Y-80775801D01*
X203770113Y-80775807D01*
X203754317Y-80865393D01*
X203751711Y-80880170D01*
X203767590Y-80970227D01*
X203770113Y-80984532D01*
X203770115Y-80984538D01*
X203824927Y-81079475D01*
X203841400Y-81147375D01*
X203824928Y-81203474D01*
X203783267Y-81275633D01*
X203783266Y-81275637D01*
X203769624Y-81353007D01*
X203764864Y-81380000D01*
X203779666Y-81463949D01*
X203783266Y-81484362D01*
X203783268Y-81484368D01*
X203836249Y-81576134D01*
X203836250Y-81576135D01*
X203836252Y-81576138D01*
X203872538Y-81606585D01*
X203917431Y-81644256D01*
X203917433Y-81644257D01*
X203958449Y-81659184D01*
X204017014Y-81680500D01*
X204017017Y-81680500D01*
X204122983Y-81680500D01*
X204122986Y-81680500D01*
X204205020Y-81650642D01*
X204222566Y-81644257D01*
X204222568Y-81644256D01*
X204303748Y-81576138D01*
X204356734Y-81484363D01*
X204375136Y-81380000D01*
X204356734Y-81275637D01*
X204350618Y-81265044D01*
X204301919Y-81180694D01*
X204285446Y-81112794D01*
X204301918Y-81056695D01*
X204343581Y-80984533D01*
X204361983Y-80880170D01*
X204343581Y-80775807D01*
X204340228Y-80770000D01*
X204290597Y-80684035D01*
X204290596Y-80684034D01*
X204290595Y-80684032D01*
X204209415Y-80615914D01*
X204209414Y-80615913D01*
X204204765Y-80614221D01*
X204148502Y-80572794D01*
X204123568Y-80507525D01*
X204137879Y-80439136D01*
X204152197Y-80417984D01*
X204153738Y-80416145D01*
X204153748Y-80416138D01*
X204206734Y-80324363D01*
X204225136Y-80220000D01*
X204206734Y-80115637D01*
X204161332Y-80036998D01*
X204144860Y-79969101D01*
X204161333Y-79913000D01*
X204206734Y-79834363D01*
X204225136Y-79730000D01*
X204206734Y-79625637D01*
X204182107Y-79582982D01*
X204153750Y-79533865D01*
X204153749Y-79533864D01*
X204153748Y-79533862D01*
X204105363Y-79493262D01*
X204072568Y-79465743D01*
X204072566Y-79465742D01*
X203990533Y-79435886D01*
X203972986Y-79429500D01*
X203867014Y-79429500D01*
X203867011Y-79429500D01*
X203867011Y-79429501D01*
X203767433Y-79465742D01*
X203767431Y-79465743D01*
X203686254Y-79533860D01*
X203686249Y-79533865D01*
X203633268Y-79625631D01*
X203633266Y-79625637D01*
X203614864Y-79730000D01*
X203631888Y-79826550D01*
X203633266Y-79834362D01*
X203633268Y-79834368D01*
X203678666Y-79913000D01*
X203695139Y-79980900D01*
X203678666Y-80037000D01*
X203633268Y-80115631D01*
X203633266Y-80115637D01*
X203614864Y-80219999D01*
X203614864Y-80220000D01*
X199985882Y-80220000D01*
X199980000Y-79920000D01*
X199407300Y-79909587D01*
X199396377Y-79915424D01*
X199370724Y-79918021D01*
X197502916Y-79911956D01*
X197496334Y-79910000D01*
X197450000Y-79910000D01*
X196900000Y-79910000D01*
X196889535Y-80485571D01*
X195922622Y-80485571D01*
X196601971Y-79806221D01*
X196601974Y-79806220D01*
X196619412Y-79788782D01*
X196619413Y-79788782D01*
X196668782Y-79739413D01*
X196695500Y-79674909D01*
X196695500Y-78292279D01*
X196715185Y-78225240D01*
X196767989Y-78179485D01*
X196837147Y-78169541D01*
X196859538Y-78175559D01*
X196859587Y-78175394D01*
X196865424Y-78177097D01*
X196865434Y-78177101D01*
X196905889Y-78184706D01*
X197080447Y-78182868D01*
X197147688Y-78201846D01*
X197193997Y-78254165D01*
X197204668Y-78323215D01*
X197189139Y-78368860D01*
X197133267Y-78465633D01*
X197133266Y-78465637D01*
X197114864Y-78570000D01*
X197131502Y-78664361D01*
X197133266Y-78674362D01*
X197133268Y-78674368D01*
X197186249Y-78766134D01*
X197186250Y-78766135D01*
X197186252Y-78766138D01*
X197220362Y-78794760D01*
X197267431Y-78834256D01*
X197267433Y-78834257D01*
X197308449Y-78849184D01*
X197367014Y-78870500D01*
X197367017Y-78870500D01*
X197472983Y-78870500D01*
X197472986Y-78870500D01*
X197555020Y-78840642D01*
X197572566Y-78834257D01*
X197572566Y-78834256D01*
X197572568Y-78834256D01*
X197586251Y-78822774D01*
X197650257Y-78794760D01*
X197719250Y-78805798D01*
X197745662Y-78822771D01*
X197747432Y-78824256D01*
X197747433Y-78824257D01*
X197774907Y-78834256D01*
X197847014Y-78860500D01*
X197847017Y-78860500D01*
X197952983Y-78860500D01*
X197952986Y-78860500D01*
X198035020Y-78830642D01*
X198052566Y-78824257D01*
X198052568Y-78824256D01*
X198074565Y-78805798D01*
X198133748Y-78756138D01*
X198186734Y-78664363D01*
X198202968Y-78572294D01*
X198233993Y-78509693D01*
X198237371Y-78506177D01*
X198296733Y-78446817D01*
X198358057Y-78413333D01*
X198384413Y-78410500D01*
X200269444Y-78410500D01*
X200336483Y-78430185D01*
X200376831Y-78472500D01*
X200396249Y-78506134D01*
X200396250Y-78506135D01*
X200396252Y-78506138D01*
X200432538Y-78536585D01*
X200477431Y-78574256D01*
X200477433Y-78574257D01*
X200518449Y-78589184D01*
X200577014Y-78610500D01*
X200577017Y-78610500D01*
X200682983Y-78610500D01*
X200682986Y-78610500D01*
X200765020Y-78580642D01*
X200782566Y-78574257D01*
X200782568Y-78574256D01*
X200787641Y-78569999D01*
X200863748Y-78506138D01*
X200916734Y-78414363D01*
X200935136Y-78310000D01*
X200924480Y-78249566D01*
X200932224Y-78180127D01*
X200976280Y-78125898D01*
X201014499Y-78108261D01*
X201095288Y-78086614D01*
X201096980Y-78085637D01*
X201175212Y-78040470D01*
X201334066Y-77881615D01*
X201395384Y-77848133D01*
X201445934Y-77847682D01*
X201460101Y-77850500D01*
X202520500Y-77850499D01*
X202587539Y-77870183D01*
X202633294Y-77922987D01*
X202644500Y-77974499D01*
X202644500Y-78002601D01*
X202676905Y-78123536D01*
X202739505Y-78231964D01*
X202828036Y-78320495D01*
X202936464Y-78383095D01*
X203057399Y-78415500D01*
X203057401Y-78415500D01*
X203182599Y-78415500D01*
X203182601Y-78415500D01*
X203303536Y-78383095D01*
X203411964Y-78320495D01*
X203500495Y-78231964D01*
X203563095Y-78123536D01*
X203595500Y-78002601D01*
X203595500Y-77877399D01*
X203563095Y-77756464D01*
X203526753Y-77693518D01*
X203510282Y-77625619D01*
X203533135Y-77559592D01*
X203588057Y-77516402D01*
X203623575Y-77507971D01*
X204245544Y-77454812D01*
X204263361Y-77451734D01*
X204304312Y-77440978D01*
X204346599Y-77418671D01*
X204399403Y-77372916D01*
X204431541Y-77322908D01*
X204451226Y-77255869D01*
X204455500Y-77226145D01*
X204455500Y-76529679D01*
X204455500Y-76529491D01*
X204454192Y-76099500D01*
X204453560Y-75891612D01*
X204473040Y-75824515D01*
X204525705Y-75778600D01*
X204594833Y-75768446D01*
X204658476Y-75797278D01*
X204684945Y-75829235D01*
X204706249Y-75866134D01*
X204706250Y-75866135D01*
X204706252Y-75866138D01*
X204736613Y-75891614D01*
X204787431Y-75934256D01*
X204787433Y-75934257D01*
X204827340Y-75948781D01*
X204887014Y-75970500D01*
X204887017Y-75970500D01*
X204992983Y-75970500D01*
X204992986Y-75970500D01*
X205075020Y-75940642D01*
X205092566Y-75934257D01*
X205092568Y-75934256D01*
X205173748Y-75866138D01*
X205226734Y-75774363D01*
X205245136Y-75670000D01*
X205226734Y-75565637D01*
X205226160Y-75564643D01*
X205173750Y-75473865D01*
X205173749Y-75473864D01*
X205173748Y-75473862D01*
X205143858Y-75448781D01*
X205092568Y-75405743D01*
X205092566Y-75405742D01*
X205010533Y-75375886D01*
X204992986Y-75369500D01*
X204887014Y-75369500D01*
X204887011Y-75369500D01*
X204887011Y-75369501D01*
X204787433Y-75405742D01*
X204787431Y-75405743D01*
X204706254Y-75473860D01*
X204706249Y-75473866D01*
X204683607Y-75513082D01*
X204633039Y-75561297D01*
X204564432Y-75574518D01*
X204499567Y-75548549D01*
X204459040Y-75491634D01*
X204452222Y-75451457D01*
X204452187Y-75440091D01*
X204447807Y-73998969D01*
X204467287Y-73931871D01*
X204519952Y-73885956D01*
X204589080Y-73875802D01*
X204652724Y-73904634D01*
X204679192Y-73936591D01*
X204696249Y-73966134D01*
X204696250Y-73966135D01*
X204696252Y-73966138D01*
X204720415Y-73986413D01*
X204777431Y-74034256D01*
X204777433Y-74034257D01*
X204806042Y-74044669D01*
X204877014Y-74070500D01*
X204877017Y-74070500D01*
X204982983Y-74070500D01*
X204982986Y-74070500D01*
X205065020Y-74040642D01*
X205082566Y-74034257D01*
X205082568Y-74034256D01*
X205089720Y-74028255D01*
X205163748Y-73966138D01*
X205216734Y-73874363D01*
X205235136Y-73770000D01*
X205216734Y-73665637D01*
X205210025Y-73654017D01*
X205163750Y-73573865D01*
X205163749Y-73573864D01*
X205163748Y-73573862D01*
X205128372Y-73544178D01*
X205082568Y-73505743D01*
X205082566Y-73505742D01*
X205000533Y-73475886D01*
X204982986Y-73469500D01*
X204877014Y-73469500D01*
X204877011Y-73469500D01*
X204877011Y-73469501D01*
X204777433Y-73505742D01*
X204777431Y-73505743D01*
X204696254Y-73573860D01*
X204696249Y-73573865D01*
X204677810Y-73605803D01*
X204627242Y-73654017D01*
X204558635Y-73667239D01*
X204493771Y-73641270D01*
X204453243Y-73584356D01*
X204446425Y-73544178D01*
X204445504Y-73240881D01*
X204445496Y-73239773D01*
X204445496Y-73239772D01*
X204445482Y-73238330D01*
X204445480Y-73238161D01*
X204445469Y-73237361D01*
X204437585Y-72780044D01*
X204437142Y-72776374D01*
X204434994Y-72758550D01*
X204423806Y-72709176D01*
X204423804Y-72709172D01*
X204400646Y-72663402D01*
X204400640Y-72663395D01*
X204354892Y-72610599D01*
X204354891Y-72610598D01*
X204354890Y-72610597D01*
X204304882Y-72578459D01*
X204284442Y-72572457D01*
X204237848Y-72558775D01*
X204237844Y-72558774D01*
X204237843Y-72558774D01*
X204208119Y-72554500D01*
X204208115Y-72554500D01*
X203656069Y-72554500D01*
X203589030Y-72534815D01*
X203543275Y-72482011D01*
X203533331Y-72412853D01*
X203548682Y-72368500D01*
X203563095Y-72343536D01*
X203595500Y-72222601D01*
X203595500Y-72097399D01*
X203563095Y-71976464D01*
X203500495Y-71868036D01*
X203411964Y-71779505D01*
X203303536Y-71716905D01*
X203303537Y-71716905D01*
X203254860Y-71703862D01*
X203182601Y-71684500D01*
X203057399Y-71684500D01*
X202985140Y-71703862D01*
X202936463Y-71716905D01*
X202828037Y-71779504D01*
X202828034Y-71779506D01*
X202739506Y-71868034D01*
X202739504Y-71868037D01*
X202676905Y-71976463D01*
X202644500Y-72097400D01*
X202644500Y-72125500D01*
X202624815Y-72192539D01*
X202572011Y-72238294D01*
X202520500Y-72249500D01*
X201460105Y-72249500D01*
X201460097Y-72249501D01*
X201430787Y-72255330D01*
X201397542Y-72277542D01*
X201375332Y-72310785D01*
X201375329Y-72310791D01*
X201369500Y-72340098D01*
X201369500Y-72399918D01*
X201364477Y-72434854D01*
X201358775Y-72454270D01*
X201354500Y-72484003D01*
X201354500Y-72836002D01*
X201356910Y-72858426D01*
X201366666Y-72903269D01*
X201369500Y-72929625D01*
X201369500Y-72959893D01*
X201369501Y-72959903D01*
X201375330Y-72989212D01*
X201380004Y-73000496D01*
X201376449Y-73001968D01*
X201390795Y-73047805D01*
X201376950Y-73098241D01*
X201380004Y-73099507D01*
X201375329Y-73110791D01*
X201369500Y-73140098D01*
X201369500Y-73459894D01*
X201369501Y-73459897D01*
X201372766Y-73476316D01*
X201366534Y-73545908D01*
X201323668Y-73601082D01*
X201257776Y-73624323D01*
X201251147Y-73624500D01*
X201169217Y-73624500D01*
X201102178Y-73604815D01*
X201061830Y-73562501D01*
X201038710Y-73522457D01*
X201033748Y-73513862D01*
X200994431Y-73480871D01*
X200952568Y-73445743D01*
X200952566Y-73445742D01*
X200864960Y-73413858D01*
X200852986Y-73409500D01*
X200747014Y-73409500D01*
X200747011Y-73409500D01*
X200747011Y-73409501D01*
X200647433Y-73445742D01*
X200647431Y-73445743D01*
X200566254Y-73513860D01*
X200566249Y-73513865D01*
X200513268Y-73605631D01*
X200513266Y-73605637D01*
X200512281Y-73611226D01*
X200494864Y-73710000D01*
X200505443Y-73769999D01*
X200513266Y-73814362D01*
X200513268Y-73814368D01*
X200566249Y-73906134D01*
X200566250Y-73906135D01*
X200566252Y-73906138D01*
X200647432Y-73974256D01*
X200647435Y-73974257D01*
X200653373Y-73977686D01*
X200701587Y-74028255D01*
X200714808Y-74096862D01*
X200688839Y-74161726D01*
X200679053Y-74172752D01*
X200651218Y-74200587D01*
X200598624Y-74253181D01*
X200537301Y-74286666D01*
X200510943Y-74289500D01*
X200507014Y-74289500D01*
X200507011Y-74289500D01*
X200507011Y-74289501D01*
X200407433Y-74325742D01*
X200407431Y-74325743D01*
X200326254Y-74393860D01*
X200326249Y-74393865D01*
X200273268Y-74485631D01*
X200273266Y-74485637D01*
X200257061Y-74577543D01*
X200254864Y-74590000D01*
X200272905Y-74692318D01*
X200273266Y-74694362D01*
X200273268Y-74694368D01*
X200326251Y-74786137D01*
X200326252Y-74786138D01*
X200340204Y-74797845D01*
X200378907Y-74856016D01*
X200384500Y-74892836D01*
X200384500Y-74955091D01*
X200384500Y-75024909D01*
X200411218Y-75089413D01*
X200565139Y-75243334D01*
X200714147Y-75392341D01*
X200714150Y-75392345D01*
X200721218Y-75399413D01*
X200770587Y-75448782D01*
X200835091Y-75475500D01*
X200904909Y-75475500D01*
X201251147Y-75475500D01*
X201318186Y-75495185D01*
X201363941Y-75547989D01*
X201373885Y-75617147D01*
X201372766Y-75623679D01*
X201369500Y-75640101D01*
X201369500Y-75959894D01*
X201369501Y-75959902D01*
X201375330Y-75989212D01*
X201380004Y-76000496D01*
X201376449Y-76001968D01*
X201390795Y-76047805D01*
X201376950Y-76098241D01*
X201380004Y-76099507D01*
X201375329Y-76110791D01*
X201369500Y-76140098D01*
X201369500Y-76459894D01*
X201369501Y-76459902D01*
X201375330Y-76489212D01*
X201380004Y-76500496D01*
X201376449Y-76501968D01*
X201390795Y-76547805D01*
X201376950Y-76598241D01*
X201380004Y-76599507D01*
X201375329Y-76610791D01*
X201369500Y-76640098D01*
X201369500Y-76959891D01*
X201369841Y-76963343D01*
X201369500Y-76965136D01*
X201369501Y-76965989D01*
X201369339Y-76965989D01*
X201356824Y-77031989D01*
X201308760Y-77082701D01*
X201246438Y-77099500D01*
X201223856Y-77099500D01*
X201134712Y-77123386D01*
X201134709Y-77123387D01*
X201054791Y-77169527D01*
X201054786Y-77169531D01*
X200851137Y-77373181D01*
X200789814Y-77406666D01*
X200763456Y-77409500D01*
X198882736Y-77409500D01*
X198815697Y-77389815D01*
X198769942Y-77337011D01*
X198759998Y-77267853D01*
X198760620Y-77263967D01*
X198762314Y-77254363D01*
X198770136Y-77210000D01*
X198751734Y-77105637D01*
X198748768Y-77100500D01*
X198698750Y-77013865D01*
X198698749Y-77013864D01*
X198698748Y-77013862D01*
X198665236Y-76985742D01*
X198617568Y-76945743D01*
X198617566Y-76945742D01*
X198535533Y-76915886D01*
X198517986Y-76909500D01*
X198412014Y-76909500D01*
X198412011Y-76909500D01*
X198412011Y-76909501D01*
X198312433Y-76945742D01*
X198312431Y-76945743D01*
X198231254Y-77013860D01*
X198231249Y-77013865D01*
X198178268Y-77105631D01*
X198178266Y-77105637D01*
X198164663Y-77182786D01*
X198159864Y-77210000D01*
X198167686Y-77254363D01*
X198169380Y-77263967D01*
X198161636Y-77333406D01*
X198117580Y-77387636D01*
X198051199Y-77409438D01*
X198047264Y-77409500D01*
X198043855Y-77409500D01*
X198020218Y-77406463D01*
X198020156Y-77406854D01*
X197452908Y-77316814D01*
X197443797Y-77315772D01*
X197434378Y-77315108D01*
X197430971Y-77314868D01*
X197430968Y-77314867D01*
X197430955Y-77314867D01*
X197421804Y-77314621D01*
X197364019Y-77315584D01*
X197296661Y-77297018D01*
X197250033Y-77244984D01*
X197238939Y-77176000D01*
X197266902Y-77111970D01*
X197274262Y-77103931D01*
X199101375Y-75276819D01*
X199162698Y-75243334D01*
X199189056Y-75240500D01*
X199242983Y-75240500D01*
X199242986Y-75240500D01*
X199325020Y-75210642D01*
X199342566Y-75204257D01*
X199342568Y-75204256D01*
X199423748Y-75136138D01*
X199476734Y-75044363D01*
X199495136Y-74940000D01*
X199476734Y-74835637D01*
X199475998Y-74834363D01*
X199423750Y-74743865D01*
X199423749Y-74743864D01*
X199423748Y-74743862D01*
X199396069Y-74720636D01*
X199342568Y-74675743D01*
X199342566Y-74675742D01*
X199260533Y-74645886D01*
X199242986Y-74639500D01*
X199137014Y-74639500D01*
X199137011Y-74639500D01*
X199137011Y-74639501D01*
X199037433Y-74675742D01*
X199037431Y-74675743D01*
X198956254Y-74743860D01*
X198956249Y-74743865D01*
X198903268Y-74835631D01*
X198903266Y-74835637D01*
X198884864Y-74939999D01*
X198884864Y-74945578D01*
X198865179Y-75012617D01*
X198848545Y-75033259D01*
X198442181Y-75439623D01*
X198380858Y-75473108D01*
X198311166Y-75468124D01*
X198255233Y-75426252D01*
X198230816Y-75360788D01*
X198230500Y-75351942D01*
X198230500Y-72410000D01*
X198964864Y-72410000D01*
X198977561Y-72482011D01*
X198983266Y-72514362D01*
X198983268Y-72514368D01*
X199036553Y-72606660D01*
X199053026Y-72674560D01*
X199036553Y-72730660D01*
X198993268Y-72805631D01*
X198993266Y-72805637D01*
X198976077Y-72903123D01*
X198974864Y-72910000D01*
X198992646Y-73010849D01*
X198993266Y-73014362D01*
X198993268Y-73014368D01*
X199046249Y-73106134D01*
X199046250Y-73106135D01*
X199046252Y-73106138D01*
X199052881Y-73111700D01*
X199127431Y-73174256D01*
X199127433Y-73174257D01*
X199168449Y-73189184D01*
X199227014Y-73210500D01*
X199227017Y-73210500D01*
X199332983Y-73210500D01*
X199332986Y-73210500D01*
X199415020Y-73180642D01*
X199432566Y-73174257D01*
X199432568Y-73174256D01*
X199435662Y-73171660D01*
X199513748Y-73106138D01*
X199566734Y-73014363D01*
X199585136Y-72910000D01*
X199566734Y-72805637D01*
X199539548Y-72758550D01*
X199513446Y-72713339D01*
X199496973Y-72645439D01*
X199513447Y-72589338D01*
X199523194Y-72572457D01*
X199541647Y-72540495D01*
X199556731Y-72514369D01*
X199556731Y-72514367D01*
X199556734Y-72514363D01*
X199575136Y-72410000D01*
X199556734Y-72305637D01*
X199540513Y-72277542D01*
X199503750Y-72213865D01*
X199503749Y-72213864D01*
X199503748Y-72213862D01*
X199466326Y-72182461D01*
X199422568Y-72145743D01*
X199422566Y-72145742D01*
X199340533Y-72115886D01*
X199322986Y-72109500D01*
X199217014Y-72109500D01*
X199217011Y-72109500D01*
X199217011Y-72109501D01*
X199117433Y-72145742D01*
X199117431Y-72145743D01*
X199036254Y-72213860D01*
X199036249Y-72213865D01*
X198983268Y-72305631D01*
X198983266Y-72305637D01*
X198972182Y-72368500D01*
X198964864Y-72410000D01*
X198230500Y-72410000D01*
X198230500Y-71470000D01*
X205634864Y-71470000D01*
X205642158Y-71511369D01*
X205653266Y-71574362D01*
X205653267Y-71574366D01*
X205686346Y-71631661D01*
X205702818Y-71699561D01*
X205686346Y-71755658D01*
X205663268Y-71795630D01*
X205663266Y-71795637D01*
X205644864Y-71900000D01*
X205658346Y-71976463D01*
X205663266Y-72004362D01*
X205663268Y-72004368D01*
X205716249Y-72096134D01*
X205716250Y-72096135D01*
X205716252Y-72096138D01*
X205751243Y-72125499D01*
X205797431Y-72164256D01*
X205797433Y-72164257D01*
X205838449Y-72179184D01*
X205897014Y-72200500D01*
X205897017Y-72200500D01*
X206002983Y-72200500D01*
X206002986Y-72200500D01*
X206085020Y-72170642D01*
X206102566Y-72164257D01*
X206102568Y-72164256D01*
X206183748Y-72096138D01*
X206236734Y-72004363D01*
X206255136Y-71900000D01*
X206236734Y-71795637D01*
X206227420Y-71779505D01*
X206203654Y-71738340D01*
X206187181Y-71670440D01*
X206203654Y-71614340D01*
X206226731Y-71574368D01*
X206226732Y-71574366D01*
X206226734Y-71574363D01*
X206245136Y-71470000D01*
X206226734Y-71365637D01*
X206220625Y-71355056D01*
X206173750Y-71273865D01*
X206173749Y-71273864D01*
X206173748Y-71273862D01*
X206126549Y-71234257D01*
X206092568Y-71205743D01*
X206092566Y-71205742D01*
X206010533Y-71175886D01*
X205992986Y-71169500D01*
X205887014Y-71169500D01*
X205887011Y-71169500D01*
X205887011Y-71169501D01*
X205787433Y-71205742D01*
X205787431Y-71205743D01*
X205706254Y-71273860D01*
X205706249Y-71273865D01*
X205653268Y-71365631D01*
X205653266Y-71365637D01*
X205637211Y-71456692D01*
X205634864Y-71470000D01*
X198230500Y-71470000D01*
X198230500Y-70860894D01*
X198250185Y-70793855D01*
X198259510Y-70781189D01*
X198263745Y-70776140D01*
X198263748Y-70776138D01*
X198316734Y-70684363D01*
X198335136Y-70580000D01*
X198316734Y-70475637D01*
X198316731Y-70475631D01*
X198316731Y-70475630D01*
X198305466Y-70456119D01*
X198288992Y-70388219D01*
X198311844Y-70322192D01*
X198366764Y-70279001D01*
X198412554Y-70270119D01*
X200350441Y-70265592D01*
X200361061Y-70265031D01*
X200371622Y-70263937D01*
X200375867Y-70263498D01*
X200375868Y-70263497D01*
X200375876Y-70263497D01*
X200424287Y-70245830D01*
X200471139Y-70214007D01*
X200500025Y-70184679D01*
X200733131Y-69830000D01*
X204274864Y-69830000D01*
X204293266Y-69934362D01*
X204293268Y-69934368D01*
X204346249Y-70026134D01*
X204346250Y-70026135D01*
X204346252Y-70026138D01*
X204416782Y-70085320D01*
X204433331Y-70099206D01*
X204472033Y-70157377D01*
X204473141Y-70227238D01*
X204436304Y-70286608D01*
X204433331Y-70289184D01*
X204356254Y-70353859D01*
X204356249Y-70353865D01*
X204303268Y-70445631D01*
X204303266Y-70445637D01*
X204284864Y-70549999D01*
X204284864Y-70550000D01*
X204303266Y-70654362D01*
X204303268Y-70654368D01*
X204333459Y-70706660D01*
X204349932Y-70774560D01*
X204333459Y-70830660D01*
X204313268Y-70865631D01*
X204313266Y-70865637D01*
X204298391Y-70950000D01*
X204294864Y-70970000D01*
X204313023Y-71072987D01*
X204313266Y-71074362D01*
X204313268Y-71074368D01*
X204366249Y-71166134D01*
X204366250Y-71166135D01*
X204366252Y-71166138D01*
X204395597Y-71190761D01*
X204447431Y-71234256D01*
X204447433Y-71234257D01*
X204488449Y-71249184D01*
X204547014Y-71270500D01*
X204547017Y-71270500D01*
X204652983Y-71270500D01*
X204652986Y-71270500D01*
X204735020Y-71240642D01*
X204752566Y-71234257D01*
X204752568Y-71234256D01*
X204833748Y-71166138D01*
X204886734Y-71074363D01*
X204905136Y-70970000D01*
X204886734Y-70865637D01*
X204856539Y-70813338D01*
X204840067Y-70745440D01*
X204856539Y-70689341D01*
X204876734Y-70654363D01*
X204895136Y-70550000D01*
X204876734Y-70445637D01*
X204864617Y-70424650D01*
X204823750Y-70353865D01*
X204823749Y-70353864D01*
X204823748Y-70353862D01*
X204742568Y-70285744D01*
X204736668Y-70280793D01*
X204697966Y-70222622D01*
X204696858Y-70152761D01*
X204733695Y-70093391D01*
X204736637Y-70090841D01*
X204813748Y-70026138D01*
X204866734Y-69934363D01*
X204885136Y-69830000D01*
X204866734Y-69725637D01*
X204866731Y-69725631D01*
X204843654Y-69685660D01*
X204827181Y-69617760D01*
X204843654Y-69561660D01*
X204876731Y-69504368D01*
X204876730Y-69504368D01*
X204876734Y-69504363D01*
X204895136Y-69400000D01*
X204876734Y-69295637D01*
X204823748Y-69203862D01*
X204769544Y-69158379D01*
X204730842Y-69100210D01*
X204729733Y-69030349D01*
X204766570Y-68970979D01*
X204769522Y-68968420D01*
X204843748Y-68906138D01*
X204896734Y-68814363D01*
X204915136Y-68710000D01*
X204896734Y-68605637D01*
X204857879Y-68538338D01*
X204841407Y-68470441D01*
X204857879Y-68414340D01*
X204886734Y-68364363D01*
X204905136Y-68260000D01*
X204886734Y-68155637D01*
X204846185Y-68085404D01*
X204833750Y-68063865D01*
X204833749Y-68063864D01*
X204833748Y-68063862D01*
X204770154Y-68010500D01*
X204752568Y-67995743D01*
X204752566Y-67995742D01*
X204670533Y-67965886D01*
X204652986Y-67959500D01*
X204547014Y-67959500D01*
X204547011Y-67959500D01*
X204547011Y-67959501D01*
X204447433Y-67995742D01*
X204447431Y-67995743D01*
X204366254Y-68063860D01*
X204366249Y-68063865D01*
X204313268Y-68155631D01*
X204313266Y-68155637D01*
X204294864Y-68259999D01*
X204294864Y-68260000D01*
X204313266Y-68364362D01*
X204313268Y-68364368D01*
X204352119Y-68431660D01*
X204368592Y-68499560D01*
X204352119Y-68555659D01*
X204323269Y-68605628D01*
X204323266Y-68605637D01*
X204304864Y-68709999D01*
X204304864Y-68710000D01*
X204323266Y-68814362D01*
X204323268Y-68814368D01*
X204376249Y-68906134D01*
X204376251Y-68906137D01*
X204376252Y-68906138D01*
X204430455Y-68951619D01*
X204469157Y-69009789D01*
X204470266Y-69079650D01*
X204433429Y-69139020D01*
X204430456Y-69141597D01*
X204356252Y-69203862D01*
X204356249Y-69203865D01*
X204303268Y-69295631D01*
X204303266Y-69295637D01*
X204284864Y-69399999D01*
X204284864Y-69400000D01*
X204303266Y-69504362D01*
X204303268Y-69504368D01*
X204326346Y-69544340D01*
X204342819Y-69612240D01*
X204326346Y-69668340D01*
X204293268Y-69725631D01*
X204293266Y-69725637D01*
X204274864Y-69829999D01*
X204274864Y-69830000D01*
X200733131Y-69830000D01*
X202115957Y-67725986D01*
X202140905Y-67698250D01*
X202205357Y-67645357D01*
X202324136Y-67500625D01*
X202412396Y-67335501D01*
X202441310Y-67240180D01*
X202456349Y-67208072D01*
X202492815Y-67152588D01*
X202492816Y-67152587D01*
X202505726Y-67124883D01*
X202517886Y-67084240D01*
X202519398Y-67078629D01*
X202514282Y-67013627D01*
X202492608Y-66961301D01*
X202492606Y-66961297D01*
X202491588Y-66959089D01*
X202492007Y-66958895D01*
X202479943Y-66917656D01*
X202473290Y-66850105D01*
X202466747Y-66783669D01*
X202412396Y-66604499D01*
X202324136Y-66439375D01*
X202324135Y-66439373D01*
X202205357Y-66294642D01*
X202060626Y-66175864D01*
X202060623Y-66175862D01*
X201895502Y-66087604D01*
X201716333Y-66033253D01*
X201716331Y-66033252D01*
X201530000Y-66014901D01*
X201343668Y-66033252D01*
X201343666Y-66033253D01*
X201164497Y-66087604D01*
X200999376Y-66175862D01*
X200999373Y-66175864D01*
X200854642Y-66294642D01*
X200735864Y-66439373D01*
X200735862Y-66439376D01*
X200647604Y-66604497D01*
X200593253Y-66783666D01*
X200593253Y-66783667D01*
X200589826Y-66818461D01*
X200563665Y-66883248D01*
X200543092Y-66903763D01*
X200503566Y-66934857D01*
X200476793Y-66966140D01*
X199373672Y-68931367D01*
X199323692Y-68980192D01*
X199265701Y-68994672D01*
X183850864Y-69014498D01*
X183849315Y-69014511D01*
X183847307Y-69014543D01*
X183846115Y-69014570D01*
X183845838Y-69014577D01*
X183627231Y-69021102D01*
X183417347Y-69027367D01*
X183349751Y-69009691D01*
X183302441Y-68958276D01*
X183289667Y-68901268D01*
X183303818Y-68087620D01*
X183303830Y-68086688D01*
X183303830Y-68086588D01*
X183303833Y-68086424D01*
X183303841Y-68085404D01*
X183303840Y-68085403D01*
X183303841Y-68085401D01*
X183300022Y-68065765D01*
X183306544Y-67996206D01*
X183318632Y-67973213D01*
X183334669Y-67949213D01*
X183339466Y-67925098D01*
X183340500Y-67919901D01*
X183340500Y-67684500D01*
X183360185Y-67617461D01*
X183412989Y-67571706D01*
X183464500Y-67560500D01*
X185215501Y-67560500D01*
X185282540Y-67580185D01*
X185328295Y-67632989D01*
X185339501Y-67684500D01*
X185339501Y-67919902D01*
X185345330Y-67949212D01*
X185367542Y-67982457D01*
X185384219Y-67993599D01*
X185400787Y-68004669D01*
X185400790Y-68004669D01*
X185400791Y-68004670D01*
X185410647Y-68006630D01*
X185430101Y-68010500D01*
X187099898Y-68010499D01*
X187129213Y-68004669D01*
X187162457Y-67982457D01*
X187184669Y-67949213D01*
X187190500Y-67919899D01*
X187190500Y-67914894D01*
X188144500Y-67914894D01*
X188144501Y-67914902D01*
X188150330Y-67944212D01*
X188172542Y-67977457D01*
X188180026Y-67982457D01*
X188205787Y-67999669D01*
X188205790Y-67999669D01*
X188205791Y-67999670D01*
X188215647Y-68001630D01*
X188235101Y-68005500D01*
X189904898Y-68005499D01*
X189934213Y-67999669D01*
X189967457Y-67977457D01*
X189989669Y-67944213D01*
X189995500Y-67914899D01*
X189995500Y-67914894D01*
X191994500Y-67914894D01*
X191994501Y-67914902D01*
X192000330Y-67944212D01*
X192022542Y-67977457D01*
X192030026Y-67982457D01*
X192055787Y-67999669D01*
X192055790Y-67999669D01*
X192055791Y-67999670D01*
X192065647Y-68001630D01*
X192085101Y-68005500D01*
X193754898Y-68005499D01*
X193784213Y-67999669D01*
X193817457Y-67977457D01*
X193839669Y-67944213D01*
X193845500Y-67914899D01*
X193845499Y-66970000D01*
X195494901Y-66970000D01*
X195513252Y-67156331D01*
X195513253Y-67156333D01*
X195567604Y-67335502D01*
X195655862Y-67500623D01*
X195655864Y-67500626D01*
X195774642Y-67645357D01*
X195919373Y-67764135D01*
X195919376Y-67764137D01*
X196084497Y-67852395D01*
X196084499Y-67852396D01*
X196263666Y-67906746D01*
X196263668Y-67906747D01*
X196280374Y-67908392D01*
X196450000Y-67925099D01*
X196636331Y-67906747D01*
X196815501Y-67852396D01*
X196980625Y-67764136D01*
X197125357Y-67645357D01*
X197244136Y-67500625D01*
X197332396Y-67335501D01*
X197386747Y-67156331D01*
X197405099Y-66970000D01*
X198034901Y-66970000D01*
X198053252Y-67156331D01*
X198053253Y-67156333D01*
X198107604Y-67335502D01*
X198195862Y-67500623D01*
X198195864Y-67500626D01*
X198314642Y-67645357D01*
X198459373Y-67764135D01*
X198459376Y-67764137D01*
X198624497Y-67852395D01*
X198624499Y-67852396D01*
X198803666Y-67906746D01*
X198803668Y-67906747D01*
X198820374Y-67908392D01*
X198990000Y-67925099D01*
X199176331Y-67906747D01*
X199355501Y-67852396D01*
X199520625Y-67764136D01*
X199665357Y-67645357D01*
X199784136Y-67500625D01*
X199872396Y-67335501D01*
X199926747Y-67156331D01*
X199945099Y-66970000D01*
X199927129Y-66787543D01*
X199926747Y-66783668D01*
X199926746Y-66783666D01*
X199921184Y-66765330D01*
X199872396Y-66604499D01*
X199784136Y-66439375D01*
X199784135Y-66439373D01*
X199665357Y-66294642D01*
X199520626Y-66175864D01*
X199520623Y-66175862D01*
X199355502Y-66087604D01*
X199176333Y-66033253D01*
X199176331Y-66033252D01*
X198990000Y-66014901D01*
X198803668Y-66033252D01*
X198803666Y-66033253D01*
X198624497Y-66087604D01*
X198459376Y-66175862D01*
X198459373Y-66175864D01*
X198314642Y-66294642D01*
X198195864Y-66439373D01*
X198195862Y-66439376D01*
X198107604Y-66604497D01*
X198053253Y-66783666D01*
X198053252Y-66783668D01*
X198034901Y-66970000D01*
X197405099Y-66970000D01*
X197387129Y-66787543D01*
X197386747Y-66783668D01*
X197386746Y-66783666D01*
X197381184Y-66765330D01*
X197332396Y-66604499D01*
X197244136Y-66439375D01*
X197244135Y-66439373D01*
X197125357Y-66294642D01*
X196980626Y-66175864D01*
X196980623Y-66175862D01*
X196815502Y-66087604D01*
X196636333Y-66033253D01*
X196636331Y-66033252D01*
X196450000Y-66014901D01*
X196263668Y-66033252D01*
X196263666Y-66033253D01*
X196084497Y-66087604D01*
X195919376Y-66175862D01*
X195919373Y-66175864D01*
X195774642Y-66294642D01*
X195655864Y-66439373D01*
X195655862Y-66439376D01*
X195567604Y-66604497D01*
X195513253Y-66783666D01*
X195513252Y-66783668D01*
X195494901Y-66970000D01*
X193845499Y-66970000D01*
X193845499Y-66845102D01*
X193839669Y-66815787D01*
X193820798Y-66787543D01*
X193817457Y-66782542D01*
X193784214Y-66760332D01*
X193784215Y-66760332D01*
X193784213Y-66760331D01*
X193784211Y-66760330D01*
X193784208Y-66760329D01*
X193754901Y-66754500D01*
X193754899Y-66754500D01*
X193643538Y-66754500D01*
X193601129Y-66747022D01*
X193552988Y-66729500D01*
X193552986Y-66729500D01*
X193447014Y-66729500D01*
X193447011Y-66729500D01*
X193398871Y-66747022D01*
X193356461Y-66754500D01*
X192443539Y-66754500D01*
X192401129Y-66747022D01*
X192352988Y-66729500D01*
X192352986Y-66729500D01*
X192247014Y-66729500D01*
X192247012Y-66729500D01*
X192247010Y-66729501D01*
X192198864Y-66747023D01*
X192156459Y-66754500D01*
X192085106Y-66754500D01*
X192085096Y-66754501D01*
X192055787Y-66760330D01*
X192022542Y-66782542D01*
X192000332Y-66815785D01*
X192000329Y-66815791D01*
X191994500Y-66845098D01*
X191994500Y-67914894D01*
X189995500Y-67914894D01*
X189995499Y-66845102D01*
X189989669Y-66815787D01*
X189970798Y-66787543D01*
X189967457Y-66782542D01*
X189934214Y-66760332D01*
X189934215Y-66760332D01*
X189934213Y-66760331D01*
X189934211Y-66760330D01*
X189934208Y-66760329D01*
X189904901Y-66754500D01*
X189904899Y-66754500D01*
X189758588Y-66754500D01*
X189733887Y-66750144D01*
X189733669Y-66751384D01*
X189722986Y-66749500D01*
X189617014Y-66749500D01*
X189617011Y-66749501D01*
X189606331Y-66751384D01*
X189606112Y-66750145D01*
X189581413Y-66754500D01*
X188558587Y-66754500D01*
X188533887Y-66750145D01*
X188533669Y-66751384D01*
X188522988Y-66749501D01*
X188522986Y-66749500D01*
X188417014Y-66749500D01*
X188417012Y-66749500D01*
X188406335Y-66751383D01*
X188406116Y-66750146D01*
X188381415Y-66754500D01*
X188235105Y-66754500D01*
X188235097Y-66754501D01*
X188205787Y-66760330D01*
X188172542Y-66782542D01*
X188150332Y-66815785D01*
X188150329Y-66815791D01*
X188144500Y-66845098D01*
X188144500Y-67914894D01*
X187190500Y-67914894D01*
X187190499Y-66850102D01*
X187184669Y-66820787D01*
X187181327Y-66815785D01*
X187162457Y-66787542D01*
X187129214Y-66765332D01*
X187129215Y-66765332D01*
X187129213Y-66765331D01*
X187129211Y-66765330D01*
X187129208Y-66765329D01*
X187099901Y-66759500D01*
X185430105Y-66759500D01*
X185430097Y-66759501D01*
X185400787Y-66765330D01*
X185367542Y-66787542D01*
X185345332Y-66820785D01*
X185345329Y-66820791D01*
X185339500Y-66850098D01*
X185339500Y-67085500D01*
X185319815Y-67152539D01*
X185267011Y-67198294D01*
X185215500Y-67209500D01*
X183464499Y-67209500D01*
X183397460Y-67189815D01*
X183351705Y-67137011D01*
X183340499Y-67085500D01*
X183340499Y-66850105D01*
X183340498Y-66850097D01*
X183334669Y-66820787D01*
X183312457Y-66787542D01*
X183279214Y-66765332D01*
X183279215Y-66765332D01*
X183279213Y-66765331D01*
X183279211Y-66765330D01*
X183279208Y-66765329D01*
X183249901Y-66759500D01*
X181574500Y-66759500D01*
X181507461Y-66739815D01*
X181461706Y-66687011D01*
X181450500Y-66635500D01*
X181450500Y-65274500D01*
X181470185Y-65207461D01*
X181522989Y-65161706D01*
X181574500Y-65150500D01*
X207525500Y-65150500D01*
X207592539Y-65170185D01*
G37*
%TD.AperFunction*%
%TA.AperFunction,Conductor*%
G36*
X197364925Y-70232475D02*
G01*
X197399458Y-70245044D01*
X197407210Y-70250751D01*
X197431599Y-70257256D01*
X197442051Y-70260545D01*
X197452210Y-70264242D01*
X197453331Y-70264072D01*
X197468650Y-70267139D01*
X197474438Y-70268683D01*
X197474442Y-70268683D01*
X197474988Y-70268829D01*
X197476761Y-70268984D01*
X197501873Y-70272247D01*
X197645824Y-70271910D01*
X197712907Y-70291438D01*
X197758786Y-70344135D01*
X197768891Y-70413270D01*
X197753501Y-70457907D01*
X197743268Y-70475631D01*
X197743266Y-70475637D01*
X197723216Y-70589343D01*
X197692189Y-70651946D01*
X197632242Y-70687836D01*
X197562407Y-70685619D01*
X197558692Y-70684333D01*
X197516597Y-70669012D01*
X197462986Y-70649500D01*
X197357014Y-70649500D01*
X197357011Y-70649500D01*
X197357011Y-70649501D01*
X197257433Y-70685742D01*
X197257431Y-70685743D01*
X197176254Y-70753860D01*
X197176249Y-70753865D01*
X197123268Y-70845631D01*
X197123266Y-70845637D01*
X197119741Y-70865631D01*
X197104864Y-70950000D01*
X197123204Y-71054014D01*
X197123266Y-71054362D01*
X197123268Y-71054368D01*
X197176249Y-71146134D01*
X197176250Y-71146135D01*
X197176252Y-71146138D01*
X197204094Y-71169500D01*
X197257431Y-71214256D01*
X197257433Y-71214257D01*
X197298449Y-71229184D01*
X197357014Y-71250500D01*
X197357017Y-71250500D01*
X197462983Y-71250500D01*
X197462986Y-71250500D01*
X197545020Y-71220642D01*
X197562566Y-71214257D01*
X197562568Y-71214256D01*
X197572713Y-71205743D01*
X197643748Y-71146138D01*
X197648113Y-71138578D01*
X197698680Y-71090362D01*
X197767287Y-71077139D01*
X197832152Y-71103108D01*
X197872680Y-71160022D01*
X197879500Y-71200578D01*
X197879500Y-75350943D01*
X197859815Y-75417982D01*
X197843181Y-75438624D01*
X196468624Y-76813181D01*
X196407301Y-76846666D01*
X196380943Y-76849500D01*
X196327014Y-76849500D01*
X196327011Y-76849500D01*
X196327011Y-76849501D01*
X196227433Y-76885742D01*
X196227431Y-76885743D01*
X196146254Y-76953860D01*
X196146249Y-76953865D01*
X196093268Y-77045631D01*
X196093266Y-77045637D01*
X196074864Y-77149999D01*
X196074864Y-77150003D01*
X196080644Y-77182786D01*
X196072899Y-77252225D01*
X196028842Y-77306454D01*
X195962461Y-77328255D01*
X195959806Y-77328310D01*
X195495116Y-77333100D01*
X195427877Y-77314108D01*
X195381581Y-77261778D01*
X195371722Y-77230639D01*
X195363544Y-77184257D01*
X195356734Y-77145637D01*
X195347423Y-77129510D01*
X195303750Y-77053865D01*
X195303749Y-77053864D01*
X195303748Y-77053862D01*
X195257340Y-77014921D01*
X195222568Y-76985743D01*
X195222566Y-76985742D01*
X195134965Y-76953860D01*
X195122986Y-76949500D01*
X195017014Y-76949500D01*
X195017011Y-76949500D01*
X195017011Y-76949501D01*
X194917433Y-76985742D01*
X194917431Y-76985743D01*
X194836254Y-77053860D01*
X194836249Y-77053865D01*
X194783268Y-77145631D01*
X194783266Y-77145637D01*
X194768337Y-77230306D01*
X194764864Y-77250000D01*
X194782021Y-77347305D01*
X194783266Y-77354362D01*
X194783268Y-77354368D01*
X194836249Y-77446134D01*
X194836250Y-77446135D01*
X194836252Y-77446138D01*
X194885057Y-77487090D01*
X194892753Y-77493548D01*
X194931455Y-77551719D01*
X194932563Y-77621580D01*
X194909110Y-77662692D01*
X194910988Y-77664079D01*
X194906154Y-77670621D01*
X194880530Y-77716950D01*
X194859703Y-77744614D01*
X194646172Y-77958145D01*
X194584849Y-77991630D01*
X194515157Y-77986646D01*
X194459224Y-77944774D01*
X194434807Y-77879310D01*
X194434491Y-77870803D01*
X194416153Y-71159039D01*
X194435655Y-71091948D01*
X194488334Y-71046049D01*
X194545011Y-71034797D01*
X195248101Y-71062369D01*
X195250763Y-71062440D01*
X195254490Y-71062492D01*
X195254495Y-71062491D01*
X195254497Y-71062491D01*
X195297411Y-71054016D01*
X195297411Y-71054015D01*
X195297421Y-71054014D01*
X195349501Y-71031757D01*
X195364167Y-71024077D01*
X195405956Y-70974026D01*
X195427044Y-70921461D01*
X195434623Y-70881001D01*
X195430640Y-70524613D01*
X195449574Y-70457360D01*
X195501863Y-70411018D01*
X195528738Y-70401964D01*
X196108598Y-70278175D01*
X196134180Y-70275443D01*
X197117409Y-70273146D01*
X197144584Y-70269520D01*
X197151817Y-70267573D01*
X197158241Y-70267718D01*
X197173001Y-70262346D01*
X197178020Y-70260760D01*
X197181390Y-70259612D01*
X197181408Y-70259608D01*
X197183415Y-70258775D01*
X197185153Y-70258054D01*
X197190285Y-70256055D01*
X197193516Y-70254878D01*
X197193517Y-70254880D01*
X197255072Y-70232476D01*
X197297477Y-70225000D01*
X197322521Y-70225000D01*
X197364925Y-70232475D01*
G37*
%TD.AperFunction*%
%TD*%
%TA.AperFunction,Conductor*%
%TO.N,Net-(SW6-B)*%
G36*
X188729763Y-79881674D02*
G01*
X188751422Y-79932547D01*
X188778521Y-81314549D01*
X188757877Y-81367290D01*
X188705986Y-81389986D01*
X188704535Y-81390000D01*
X187294495Y-81390000D01*
X187242169Y-81368326D01*
X187220495Y-81316000D01*
X187220497Y-81315507D01*
X187229710Y-79933507D01*
X187251732Y-79881326D01*
X187303708Y-79860000D01*
X188677437Y-79860000D01*
X188729763Y-79881674D01*
G37*
%TD.AperFunction*%
%TD*%
%TA.AperFunction,Conductor*%
%TO.N,+3.3V*%
G36*
X202395139Y-67001674D02*
G01*
X202416813Y-67054000D01*
X202404653Y-67094643D01*
X200411862Y-70126735D01*
X200365010Y-70158558D01*
X200350195Y-70160092D01*
X197501627Y-70166747D01*
X197468653Y-70157952D01*
X197468652Y-70157958D01*
X197468594Y-70157936D01*
X197464455Y-70156833D01*
X197462568Y-70155743D01*
X197362988Y-70119500D01*
X197362986Y-70119500D01*
X197257014Y-70119500D01*
X197257012Y-70119500D01*
X197157435Y-70155742D01*
X197153986Y-70157734D01*
X197117162Y-70167646D01*
X196110005Y-70169999D01*
X196109996Y-70170000D01*
X195323051Y-70337999D01*
X195323050Y-70337999D01*
X195310000Y-69170000D01*
X192540000Y-69150000D01*
X192530000Y-69990000D01*
X192529999Y-69989999D01*
X191100000Y-69969999D01*
X191100000Y-70225000D01*
X191078326Y-70277326D01*
X191026000Y-70299000D01*
X191025007Y-70298993D01*
X189610011Y-70279999D01*
X189610003Y-70280000D01*
X189610002Y-70280000D01*
X189610000Y-70280000D01*
X187783147Y-70520197D01*
X184215204Y-70989315D01*
X184204750Y-70989942D01*
X181533694Y-70960803D01*
X181481607Y-70938559D01*
X181460503Y-70886302D01*
X181479512Y-68101584D01*
X181501542Y-68049407D01*
X181551799Y-68028109D01*
X181813608Y-68022055D01*
X182312579Y-68010518D01*
X182314190Y-68010499D01*
X183124345Y-68010499D01*
X183176671Y-68032173D01*
X183198345Y-68084499D01*
X183198334Y-68085786D01*
X183179999Y-69139999D01*
X183180000Y-69139998D01*
X183180000Y-69140000D01*
X183848986Y-69120030D01*
X183851006Y-69119998D01*
X199400000Y-69100000D01*
X200568794Y-67017777D01*
X200613307Y-66982759D01*
X200633323Y-66980000D01*
X202342813Y-66980000D01*
X202395139Y-67001674D01*
G37*
%TD.AperFunction*%
%TD*%
%TA.AperFunction,Conductor*%
%TO.N,BAT+*%
G36*
X185863387Y-77175978D02*
G01*
X185929706Y-77197961D01*
X185973615Y-77252310D01*
X185983069Y-77296642D01*
X185989459Y-77539449D01*
X185983880Y-77579625D01*
X185711412Y-78453400D01*
X185672663Y-78511540D01*
X185669921Y-78513771D01*
X184459999Y-79470000D01*
X184679999Y-79809999D01*
X184680000Y-79810000D01*
X186298141Y-79837898D01*
X186364828Y-79858736D01*
X186409666Y-79912321D01*
X186420000Y-79961880D01*
X186420000Y-81314216D01*
X186400315Y-81381255D01*
X186347511Y-81427010D01*
X186294229Y-81438203D01*
X185842229Y-81431746D01*
X185775477Y-81411106D01*
X185730481Y-81357654D01*
X185720000Y-81307759D01*
X185720000Y-80679999D01*
X183120012Y-80670000D01*
X183120008Y-80670000D01*
X183120000Y-80670000D01*
X182677620Y-80674380D01*
X182235228Y-80678760D01*
X182167997Y-80659740D01*
X182121721Y-80607392D01*
X182110000Y-80554766D01*
X182110000Y-80339712D01*
X182129685Y-80272673D01*
X182144340Y-80254055D01*
X183180000Y-79170000D01*
X185071610Y-77190179D01*
X185132155Y-77155307D01*
X185165537Y-77151915D01*
X185863387Y-77175978D01*
G37*
%TD.AperFunction*%
%TD*%
M02*
