%TF.GenerationSoftware,KiCad,Pcbnew,8.0.5*%
%TF.CreationDate,2024-10-05T23:36:15+02:00*%
%TF.ProjectId,projet s6,70726f6a-6574-4207-9336-2e6b69636164,rev?*%
%TF.SameCoordinates,Original*%
%TF.FileFunction,Soldermask,Bot*%
%TF.FilePolarity,Negative*%
%FSLAX46Y46*%
G04 Gerber Fmt 4.6, Leading zero omitted, Abs format (unit mm)*
G04 Created by KiCad (PCBNEW 8.0.5) date 2024-10-05 23:36:15*
%MOMM*%
%LPD*%
G01*
G04 APERTURE LIST*
G04 Aperture macros list*
%AMRoundRect*
0 Rectangle with rounded corners*
0 $1 Rounding radius*
0 $2 $3 $4 $5 $6 $7 $8 $9 X,Y pos of 4 corners*
0 Add a 4 corners polygon primitive as box body*
4,1,4,$2,$3,$4,$5,$6,$7,$8,$9,$2,$3,0*
0 Add four circle primitives for the rounded corners*
1,1,$1+$1,$2,$3*
1,1,$1+$1,$4,$5*
1,1,$1+$1,$6,$7*
1,1,$1+$1,$8,$9*
0 Add four rect primitives between the rounded corners*
20,1,$1+$1,$2,$3,$4,$5,0*
20,1,$1+$1,$4,$5,$6,$7,0*
20,1,$1+$1,$6,$7,$8,$9,0*
20,1,$1+$1,$8,$9,$2,$3,0*%
G04 Aperture macros list end*
%ADD10C,1.500000*%
%ADD11C,0.650000*%
%ADD12RoundRect,0.150000X-0.425000X0.150000X-0.425000X-0.150000X0.425000X-0.150000X0.425000X0.150000X0*%
%ADD13RoundRect,0.075000X-0.500000X0.075000X-0.500000X-0.075000X0.500000X-0.075000X0.500000X0.075000X0*%
%ADD14O,1.800000X1.000000*%
%ADD15O,2.100000X1.000000*%
%ADD16R,1.700000X1.700000*%
%ADD17O,1.700000X1.700000*%
%ADD18R,1.650000X1.050000*%
%ADD19R,1.100000X0.500000*%
%ADD20C,1.600000*%
%ADD21R,1.200000X0.800000*%
%ADD22C,0.900000*%
%ADD23R,0.700000X1.600000*%
%ADD24R,0.700000X1.500000*%
%ADD25R,1.000000X0.800000*%
%ADD26RoundRect,0.150000X-0.150000X-0.625000X0.150000X-0.625000X0.150000X0.625000X-0.150000X0.625000X0*%
%ADD27RoundRect,0.250000X-0.350000X-0.650000X0.350000X-0.650000X0.350000X0.650000X-0.350000X0.650000X0*%
G04 APERTURE END LIST*
D10*
%TO.C,TP1*%
X182580000Y-82870000D03*
%TD*%
%TO.C,TP5*%
X182610000Y-80680000D03*
%TD*%
D11*
%TO.C,J1*%
X202965000Y-71140000D03*
X202965000Y-76920000D03*
D12*
X201890000Y-70830000D03*
X201890000Y-71630000D03*
D13*
X201890000Y-72780000D03*
X201890000Y-73780000D03*
X201890000Y-74280000D03*
X201890000Y-75280000D03*
D12*
X201890000Y-76430000D03*
X201890000Y-77230000D03*
X201890000Y-77230000D03*
X201890000Y-76430000D03*
D13*
X201890000Y-75780000D03*
X201890000Y-74780000D03*
X201890000Y-73280000D03*
X201890000Y-72280000D03*
D12*
X201890000Y-71630000D03*
X201890000Y-70830000D03*
D14*
X206645000Y-69710000D03*
D15*
X202465000Y-69710000D03*
D14*
X206645000Y-78350000D03*
D15*
X202465000Y-78350000D03*
%TD*%
D16*
%TO.C,J2*%
X204070000Y-66970000D03*
D17*
X201530000Y-66970000D03*
X198990000Y-66970000D03*
X196450000Y-66970000D03*
%TD*%
D18*
%TO.C,SW1*%
X189070000Y-65930000D03*
D19*
X190995000Y-68355000D03*
D18*
X192920000Y-65930000D03*
X189070000Y-67380000D03*
X192920000Y-67380000D03*
%TD*%
D20*
%TO.C,PA1010D1*%
X187000000Y-73850000D03*
D21*
X191850000Y-70500000D03*
X191850000Y-72100000D03*
X191850000Y-75000000D03*
X191850000Y-76600000D03*
X191850000Y-78200000D03*
X182150000Y-78200000D03*
X182150000Y-76600000D03*
X182150000Y-75000000D03*
X182150000Y-72100000D03*
X182150000Y-70500000D03*
%TD*%
D22*
%TO.C,SW6*%
X189290000Y-82400000D03*
X186290000Y-82400000D03*
D23*
X185540000Y-80650000D03*
D24*
X187040000Y-80650000D03*
X190040000Y-80650000D03*
D25*
X191440000Y-83365000D03*
X191440000Y-81435000D03*
X184140000Y-83365000D03*
X184140000Y-81435000D03*
%TD*%
D18*
%TO.C,SW2*%
X182415000Y-65935000D03*
D19*
X184340000Y-68360000D03*
D18*
X186265000Y-65935000D03*
X182415000Y-67385000D03*
X186265000Y-67385000D03*
%TD*%
D26*
%TO.C,J4*%
X194500000Y-80105000D03*
X195500000Y-80105000D03*
X196500000Y-80105000D03*
X197500000Y-80105000D03*
D27*
X193200000Y-82630000D03*
X198800000Y-82630000D03*
%TD*%
D26*
%TO.C,J3*%
X202320000Y-80105000D03*
X203320000Y-80105000D03*
X204320000Y-80105000D03*
X205320000Y-80105000D03*
D27*
X201020000Y-82630000D03*
X206620000Y-82630000D03*
%TD*%
M02*
