M48
; DRILL file {KiCad 8.0.5} date 2024-10-05T23:36:12+0200
; FORMAT={-:-/ absolute / inch / decimal}
; #@! TF.CreationDate,2024-10-05T23:36:12+02:00
; #@! TF.GenerationSoftware,Kicad,Pcbnew,8.0.5
; #@! TF.FileFunction,Plated,1,4,PTH
FMAT,2
INCH
; #@! TA.AperFunction,Plated,PTH,ViaDrill
T1C0.0118
; #@! TA.AperFunction,Plated,PTH,ComponentDrill
T2C0.0236
; #@! TA.AperFunction,Plated,PTH,ComponentDrill
T3C0.0256
; #@! TA.AperFunction,Plated,PTH,ComponentDrill
T4C0.0295
; #@! TA.AperFunction,Plated,PTH,ComponentDrill
T5C0.0394
%
G90
G05
T1
X7.1531Y-2.6929
X7.1539Y-2.7126
X7.1539Y-2.7528
X7.1543Y-2.6122
X7.1543Y-2.776
X7.1547Y-2.5783
X7.1563Y-2.9831
X7.1567Y-2.8697
X7.1567Y-2.8972
X7.1567Y-2.9248
X7.1567Y-3.0476
X7.1571Y-3.2142
X7.1571Y-3.2929
X7.1575Y-3.1071
X7.1579Y-3.0146
X7.1579Y-3.1382
X7.1583Y-2.6406
X7.1587Y-2.6634
X7.1587Y-2.8075
X7.1693Y-2.8354
X7.174Y-2.776
X7.1854Y-3.0146
X7.1957Y-2.9831
X7.1961Y-2.8697
X7.1961Y-2.8972
X7.1961Y-2.9248
X7.1961Y-3.0476
X7.1969Y-3.1071
X7.198Y-2.8075
X7.2039Y-2.6406
X7.2039Y-2.6642
X7.2063Y-2.5783
X7.2354Y-3.0476
X7.2354Y-3.0736
X7.2358Y-3.2929
X7.237Y-3.237
X7.2622Y-2.5772
X7.2681Y-2.9626
X7.2681Y-3.002
X7.2685Y-2.9252
X7.2752Y-3.2929
X7.2819Y-3.1291
X7.285Y-2.8642
X7.2866Y-3.0781
X7.287Y-3.0579
X7.2874Y-3.2362
X7.2988Y-2.5776
X7.3055Y-2.9846
X7.3055Y-3.0783
X7.3067Y-3.0579
X7.3071Y-2.8646
X7.313Y-3.1303
X7.3146Y-3.2929
X7.326Y-2.6862
X7.326Y-2.7079
X7.3268Y-2.798
X7.3268Y-2.8154
X7.3327Y-3.0728
X7.3335Y-2.8626
X7.335Y-3.1539
X7.335Y-3.1878
X7.3496Y-2.6862
X7.3512Y-2.8476
X7.3512Y-3.0728
X7.3539Y-3.2929
X7.3567Y-2.9854
X7.3638Y-3.1567
X7.3638Y-3.1752
X7.3638Y-3.1953
X7.3732Y-2.685
X7.376Y-3.1303
X7.3776Y-2.5776
X7.3831Y-2.815
X7.3835Y-2.7965
X7.3874Y-2.6524
X7.3882Y-2.615
X7.3933Y-3.2299
X7.3933Y-3.2929
X7.3937Y-3.2591
X7.3969Y-2.685
X7.3969Y-2.7079
X7.3976Y-3.1567
X7.398Y-3.1752
X7.3988Y-3.1933
X7.4Y-2.8783
X7.4075Y-3.1303
X7.4083Y-2.9142
X7.4083Y-2.9535
X7.4083Y-3.0248
X7.4189Y-2.8476
X7.4201Y-2.6398
X7.4201Y-2.6634
X7.4209Y-2.7071
X7.4248Y-2.878
X7.4283Y-2.8248
X7.4294Y-2.8051
X7.4327Y-3.2929
X7.4378Y-2.9142
X7.4378Y-2.9535
X7.4563Y-3.0157
X7.4563Y-3.0528
X7.4673Y-2.6398
X7.4673Y-2.6634
X7.4673Y-2.9142
X7.4673Y-2.9535
X7.472Y-3.2929
X7.4732Y-2.8783
X7.4736Y-2.7827
X7.4736Y-2.8417
X7.476Y-2.7346
X7.4811Y-3.1567
X7.4819Y-3.1752
X7.4843Y-3.1075
X7.4957Y-2.5776
X7.4969Y-2.9142
X7.4969Y-2.9535
X7.4972Y-3.1303
X7.5018Y-2.6408
X7.5028Y-3.0594
X7.5035Y-3.0311
X7.5039Y-3.0843
X7.5114Y-3.2929
X7.513Y-3.0102
X7.5154Y-2.7831
X7.5157Y-2.8425
X7.5189Y-3.1299
X7.5197Y-2.6528
X7.535Y-2.5776
X7.5382Y-2.6407
X7.5441Y-2.8783
X7.5441Y-2.8965
X7.548Y-3.2937
X7.5512Y-2.8031
X7.552Y-3.0283
X7.5642Y-3.111
X7.5709Y-2.639
X7.5709Y-2.6626
X7.5744Y-2.5776
X7.5764Y-2.7067
X7.5803Y-2.898
X7.5831Y-3.2929
X7.5866Y-2.9299
X7.5886Y-2.7823
X7.589Y-2.9661
X7.5902Y-3.0799
X7.5909Y-2.9488
X7.5925Y-3.0976
X7.6063Y-2.9299
X7.6087Y-3.0803
X7.6089Y-3.0969
X7.6146Y-2.6996
X7.6161Y-2.8339
X7.6181Y-2.639
X7.6181Y-2.6626
X7.6189Y-3.1776
X7.6264Y-2.774
X7.6319Y-2.8165
X7.6327Y-2.8339
X7.6339Y-3.1548
X7.6406Y-2.678
X7.6453Y-2.7736
X7.6531Y-2.5776
X7.6531Y-3.2949
X7.6555Y-2.7081
X7.6604Y-3.0646
X7.6618Y-3.1972
X7.6626Y-3.0441
X7.6634Y-2.9004
X7.6634Y-2.9394
X7.6634Y-2.9783
X7.6664Y-3.1003
X7.6665Y-2.676
X7.678Y-2.6913
X7.6811Y-3.1416
X7.6827Y-2.6063
X7.6831Y-2.635
X7.6898Y-3.2949
X7.6925Y-2.5776
X7.6953Y-2.7925
X7.7022Y-3.0543
X7.7024Y-2.8614
X7.7024Y-2.9004
X7.7024Y-2.9394
X7.7024Y-2.9783
X7.715Y-2.7929
X7.7161Y-3.1165
X7.7219Y-3.0546
X7.7295Y-3.2949
X7.7299Y-3.2248
X7.7299Y-3.2591
X7.7315Y-3.0374
X7.7319Y-2.5776
X7.7364Y-2.7925
X7.7413Y-2.8614
X7.7413Y-2.9004
X7.7413Y-2.9394
X7.7413Y-2.9783
X7.7429Y-2.6846
X7.7547Y-3.0638
X7.7646Y-2.7043
X7.7669Y-2.7744
X7.7709Y-3.037
X7.7713Y-2.5776
X7.7724Y-3.2949
X7.7736Y-3.2587
X7.774Y-3.2244
X7.776Y-2.7941
X7.7803Y-2.8614
X7.7803Y-2.9004
X7.7803Y-2.9394
X7.7807Y-3.0598
X7.7831Y-2.635
X7.7835Y-2.6075
X7.7898Y-2.7039
X7.7965Y-2.7787
X7.8028Y-3.0402
X7.8094Y-3.2953
X7.8102Y-3.0134
X7.8106Y-2.5776
X7.813Y-2.8122
X7.813Y-2.8315
X7.813Y-3.2291
X7.8134Y-2.6823
X7.8138Y-3.278
X7.8268Y-3.2531
X7.8299Y-2.7528
X7.8362Y-2.8315
X7.8374Y-2.8122
X7.8402Y-3.2283
X7.8409Y-2.7059
X7.841Y-2.9736
X7.8413Y-3.2772
X7.8429Y-2.7358
X7.8429Y-3.037
X7.8453Y-2.8508
X7.8457Y-2.8705
X7.848Y-3.1193
X7.8488Y-3.2949
X7.85Y-2.5776
X7.854Y-2.9424
X7.8555Y-2.6823
X7.8567Y-2.7531
X7.8618Y-2.8122
X7.865Y-3.1969
X7.8654Y-2.9606
X7.8661Y-2.9059
X7.872Y-3.248
X7.8752Y-3.0949
X7.8843Y-3.2953
X7.8846Y-2.6087
X7.8846Y-2.6303
X7.8894Y-2.5776
X7.8906Y-2.9126
X7.8909Y-3.1425
X7.8969Y-3.1961
X7.9004Y-2.6937
X7.9004Y-2.7134
X7.9126Y-2.8567
X7.9138Y-2.8929
X7.9138Y-2.9213
X7.9142Y-3.0583
X7.9146Y-3.2472
X7.9213Y-3.2953
X7.9264Y-3.1386
X7.9272Y-3.2276
X7.9287Y-2.5776
X7.9319Y-3.1906
X7.9539Y-3.2945
X7.9646Y-2.9835
X7.9657Y-3.1378
X7.9661Y-3.1661
X7.9681Y-2.5776
X7.9839Y-2.6575
X7.9843Y-2.6083
X7.985Y-3.1165
X7.9858Y-2.8445
X7.9878Y-3.2929
X7.9933Y-2.9673
X8.0055Y-3.1646
X8.0075Y-2.5776
X8.0189Y-2.7976
X8.0213Y-2.8965
X8.0217Y-2.9142
X8.0232Y-3.2929
X8.0331Y-3.0244
X8.0445Y-3.1634
X8.0469Y-2.5776
X8.0543Y-2.7492
X8.0547Y-2.7323
X8.0547Y-2.7776
X8.0547Y-2.9724
X8.0551Y-2.6874
X8.0551Y-2.7941
X8.0555Y-2.7051
X8.0559Y-2.8315
X8.0587Y-3.2929
X8.0626Y-3.0567
X8.0626Y-3.0925
X8.0835Y-3.1537
X8.0862Y-2.5776
X8.0882Y-2.8673
X8.089Y-2.9429
X8.0941Y-3.2929
X8.1118Y-2.8232
X8.113Y-2.8992
X8.113Y-2.978
X8.113Y-3.0567
X8.1138Y-2.8602
X8.1138Y-2.9386
X8.1161Y-2.6953
X8.1181Y-2.6567
X8.1193Y-2.615
X8.1224Y-3.2291
X8.1256Y-2.5776
X8.1295Y-3.2929
X8.1346Y-3.2531
X8.1492Y-3.2295
X8.1492Y-3.2772
X8.165Y-2.5776
X8.165Y-2.6157
X8.165Y-2.6575
X8.165Y-2.8205
X8.165Y-2.8598
X8.165Y-2.8992
X8.165Y-2.9386
X8.165Y-2.978
X8.165Y-3.0173
X8.165Y-3.0567
X8.165Y-3.1157
X8.165Y-3.1512
X8.165Y-3.1866
X8.165Y-3.222
X8.165Y-3.2575
X8.165Y-3.2929
X8.1654Y-2.6949
T3
X7.1778Y-2.5929
X7.3372Y-2.5929
X7.4398Y-2.5927
X7.5992Y-2.5927
T4
X7.1882Y-3.2626
X7.1894Y-3.1764
T5
X7.7343Y-2.6366
X7.8343Y-2.6366
X7.9343Y-2.6366
X8.0343Y-2.6366
T2
G00X7.9927Y-2.7445
M15
G01X7.9494Y-2.7445
M16
G05
G00X7.9927Y-3.0846
M15
G01X7.9494Y-3.0846
M16
G05
G00X8.1514Y-2.7445
M15
G01X8.1199Y-2.7445
M16
G05
G00X8.1514Y-3.0846
M15
G01X8.1199Y-3.0846
M16
G05
M30
