%TF.GenerationSoftware,KiCad,Pcbnew,8.0.5*%
%TF.CreationDate,2024-10-05T23:36:15+02:00*%
%TF.ProjectId,projet s6,70726f6a-6574-4207-9336-2e6b69636164,rev?*%
%TF.SameCoordinates,Original*%
%TF.FileFunction,Soldermask,Top*%
%TF.FilePolarity,Negative*%
%FSLAX46Y46*%
G04 Gerber Fmt 4.6, Leading zero omitted, Abs format (unit mm)*
G04 Created by KiCad (PCBNEW 8.0.5) date 2024-10-05 23:36:15*
%MOMM*%
%LPD*%
G01*
G04 APERTURE LIST*
G04 Aperture macros list*
%AMRoundRect*
0 Rectangle with rounded corners*
0 $1 Rounding radius*
0 $2 $3 $4 $5 $6 $7 $8 $9 X,Y pos of 4 corners*
0 Add a 4 corners polygon primitive as box body*
4,1,4,$2,$3,$4,$5,$6,$7,$8,$9,$2,$3,0*
0 Add four circle primitives for the rounded corners*
1,1,$1+$1,$2,$3*
1,1,$1+$1,$4,$5*
1,1,$1+$1,$6,$7*
1,1,$1+$1,$8,$9*
0 Add four rect primitives between the rounded corners*
20,1,$1+$1,$2,$3,$4,$5,0*
20,1,$1+$1,$4,$5,$6,$7,0*
20,1,$1+$1,$6,$7,$8,$9,0*
20,1,$1+$1,$8,$9,$2,$3,0*%
%AMRotRect*
0 Rectangle, with rotation*
0 The origin of the aperture is its center*
0 $1 length*
0 $2 width*
0 $3 Rotation angle, in degrees counterclockwise*
0 Add horizontal line*
21,1,$1,$2,0,0,$3*%
%AMOutline4P*
0 Free polygon, 4 corners , with rotation*
0 The origin of the aperture is its center*
0 number of corners: always 4*
0 $1 to $8 corner X, Y*
0 $9 Rotation angle, in degrees counterclockwise*
0 create outline with 4 corners*
4,1,4,$1,$2,$3,$4,$5,$6,$7,$8,$1,$2,$9*%
%AMOutline5P*
0 Free polygon, 5 corners , with rotation*
0 The origin of the aperture is its center*
0 number of corners: always 5*
0 $1 to $10 corner X, Y*
0 $11 Rotation angle, in degrees counterclockwise*
0 create outline with 5 corners*
4,1,5,$1,$2,$3,$4,$5,$6,$7,$8,$9,$10,$1,$2,$11*%
%AMOutline6P*
0 Free polygon, 6 corners , with rotation*
0 The origin of the aperture is its center*
0 number of corners: always 6*
0 $1 to $12 corner X, Y*
0 $13 Rotation angle, in degrees counterclockwise*
0 create outline with 6 corners*
4,1,6,$1,$2,$3,$4,$5,$6,$7,$8,$9,$10,$11,$12,$1,$2,$13*%
%AMOutline7P*
0 Free polygon, 7 corners , with rotation*
0 The origin of the aperture is its center*
0 number of corners: always 7*
0 $1 to $14 corner X, Y*
0 $15 Rotation angle, in degrees counterclockwise*
0 create outline with 7 corners*
4,1,7,$1,$2,$3,$4,$5,$6,$7,$8,$9,$10,$11,$12,$13,$14,$1,$2,$15*%
%AMOutline8P*
0 Free polygon, 8 corners , with rotation*
0 The origin of the aperture is its center*
0 number of corners: always 8*
0 $1 to $16 corner X, Y*
0 $17 Rotation angle, in degrees counterclockwise*
0 create outline with 8 corners*
4,1,8,$1,$2,$3,$4,$5,$6,$7,$8,$9,$10,$11,$12,$13,$14,$15,$16,$1,$2,$17*%
G04 Aperture macros list end*
%ADD10C,1.500000*%
%ADD11C,0.650000*%
%ADD12O,1.800000X1.000000*%
%ADD13O,2.100000X1.000000*%
%ADD14Outline5P,-0.207500X0.150000X0.207500X0.150000X0.207500X0.000000X0.057500X-0.150000X-0.207500X-0.150000X270.000000*%
%ADD15Outline5P,-0.207500X0.150000X0.057500X0.150000X0.207500X0.000000X0.207500X-0.150000X-0.207500X-0.150000X270.000000*%
%ADD16RotRect,0.500000X0.500000X315.000000*%
%ADD17Outline5P,-0.207500X0.000000X-0.057500X0.150000X0.207500X0.150000X0.207500X-0.150000X-0.207500X-0.150000X270.000000*%
%ADD18Outline5P,-0.207500X0.150000X0.207500X0.150000X0.207500X-0.150000X-0.057500X-0.150000X-0.207500X0.000000X270.000000*%
%ADD19RoundRect,0.155000X-0.155000X0.212500X-0.155000X-0.212500X0.155000X-0.212500X0.155000X0.212500X0*%
%ADD20RoundRect,0.160000X0.197500X0.160000X-0.197500X0.160000X-0.197500X-0.160000X0.197500X-0.160000X0*%
%ADD21RoundRect,0.062500X-0.375000X-0.062500X0.375000X-0.062500X0.375000X0.062500X-0.375000X0.062500X0*%
%ADD22RoundRect,0.062500X-0.062500X-0.375000X0.062500X-0.375000X0.062500X0.375000X-0.062500X0.375000X0*%
%ADD23R,3.450000X3.450000*%
%ADD24RoundRect,0.155000X0.212500X0.155000X-0.212500X0.155000X-0.212500X-0.155000X0.212500X-0.155000X0*%
%ADD25RoundRect,0.160000X-0.197500X-0.160000X0.197500X-0.160000X0.197500X0.160000X-0.197500X0.160000X0*%
%ADD26RoundRect,0.160000X0.160000X-0.197500X0.160000X0.197500X-0.160000X0.197500X-0.160000X-0.197500X0*%
%ADD27RoundRect,0.150000X0.512500X0.150000X-0.512500X0.150000X-0.512500X-0.150000X0.512500X-0.150000X0*%
%ADD28RoundRect,0.100000X-0.100000X0.217500X-0.100000X-0.217500X0.100000X-0.217500X0.100000X0.217500X0*%
%ADD29RoundRect,0.155000X0.155000X-0.212500X0.155000X0.212500X-0.155000X0.212500X-0.155000X-0.212500X0*%
%ADD30R,0.550000X1.500000*%
%ADD31RoundRect,0.155000X-0.212500X-0.155000X0.212500X-0.155000X0.212500X0.155000X-0.212500X0.155000X0*%
%ADD32R,0.799999X0.250000*%
%ADD33R,0.610000X1.420000*%
%ADD34RoundRect,0.160000X-0.160000X0.197500X-0.160000X-0.197500X0.160000X-0.197500X0.160000X0.197500X0*%
%ADD35R,1.050000X0.450000*%
%ADD36R,3.450000X4.350000*%
%ADD37Outline5P,-0.650000X0.750000X0.650000X0.750000X0.650000X-0.750000X0.000000X-0.750000X-0.650000X-0.100000X270.000000*%
%ADD38R,1.100000X3.600000*%
%ADD39R,0.500000X0.350000*%
%ADD40R,0.340000X0.330000*%
%ADD41Outline4P,-0.450000X-0.220000X0.450000X-0.220000X0.450000X0.220000X-0.450000X0.220000X90.000000*%
%ADD42R,1.700000X1.700000*%
%ADD43O,1.700000X1.700000*%
%ADD44R,1.650000X1.050000*%
%ADD45C,1.600000*%
%ADD46C,0.900000*%
G04 APERTURE END LIST*
D10*
%TO.C,TP1*%
X182580000Y-82870000D03*
%TD*%
%TO.C,TP5*%
X182610000Y-80680000D03*
%TD*%
D11*
%TO.C,J1*%
X202965000Y-71140000D03*
X202965000Y-76920000D03*
D12*
X206645000Y-69710000D03*
D13*
X202465000Y-69710000D03*
D12*
X206645000Y-78350000D03*
D13*
X202465000Y-78350000D03*
%TD*%
D14*
%TO.C,U3*%
X192935000Y-80742500D03*
D15*
X192225000Y-80742500D03*
D16*
X192580000Y-81135000D03*
D17*
X192225000Y-81527500D03*
D18*
X192935000Y-81527500D03*
%TD*%
D19*
%TO.C,C14*%
X190980000Y-82302500D03*
X190980000Y-83437500D03*
%TD*%
D20*
%TO.C,R1*%
X190017500Y-76000000D03*
X188822500Y-76000000D03*
%TD*%
D21*
%TO.C,U1*%
X193692500Y-72410000D03*
X193692500Y-72910000D03*
X193692500Y-73410000D03*
X193692500Y-73910000D03*
X193692500Y-74410000D03*
X193692500Y-74910000D03*
X193692500Y-75410000D03*
X193692500Y-75910000D03*
D22*
X194380000Y-76597500D03*
X194880000Y-76597500D03*
X195380000Y-76597500D03*
X195880000Y-76597500D03*
X196380000Y-76597500D03*
X196880000Y-76597500D03*
X197380000Y-76597500D03*
X197880000Y-76597500D03*
D21*
X198567500Y-75910000D03*
X198567500Y-75410000D03*
X198567500Y-74910000D03*
X198567500Y-74410000D03*
X198567500Y-73910000D03*
X198567500Y-73410000D03*
X198567500Y-72910000D03*
X198567500Y-72410000D03*
D22*
X197880000Y-71722500D03*
X197380000Y-71722500D03*
X196880000Y-71722500D03*
X196380000Y-71722500D03*
X195880000Y-71722500D03*
X195380000Y-71722500D03*
X194880000Y-71722500D03*
X194380000Y-71722500D03*
D23*
X196130000Y-74160000D03*
%TD*%
D24*
%TO.C,C3*%
X200917500Y-75890000D03*
X199782500Y-75890000D03*
%TD*%
%TO.C,C13*%
X193367500Y-83370000D03*
X192232500Y-83370000D03*
%TD*%
D25*
%TO.C,R4*%
X204712500Y-76250000D03*
X205907500Y-76250000D03*
%TD*%
D26*
%TO.C,R15*%
X194180000Y-67317500D03*
X194180000Y-66122500D03*
%TD*%
D20*
%TO.C,R7*%
X192430000Y-77450000D03*
X191235000Y-77450000D03*
%TD*%
D24*
%TO.C,C15*%
X193167500Y-79960000D03*
X192032500Y-79960000D03*
%TD*%
D27*
%TO.C,U4*%
X204867500Y-74750000D03*
X204867500Y-73800000D03*
X204867500Y-72850000D03*
X202592500Y-72850000D03*
X202592500Y-73800000D03*
X202592500Y-74750000D03*
%TD*%
D26*
%TO.C,R8*%
X202260000Y-82917500D03*
X202260000Y-81722500D03*
%TD*%
D25*
%TO.C,R9*%
X190972500Y-79000000D03*
X192167500Y-79000000D03*
%TD*%
D28*
%TO.C,D1*%
X184430000Y-77872500D03*
X184430000Y-78687500D03*
%TD*%
D29*
%TO.C,C1*%
X188830000Y-78217500D03*
X188830000Y-77082500D03*
%TD*%
D25*
%TO.C,R6*%
X191205000Y-76440000D03*
X192400000Y-76440000D03*
%TD*%
D29*
%TO.C,C16*%
X192840000Y-69817500D03*
X192840000Y-68682500D03*
%TD*%
D26*
%TO.C,R16*%
X190990000Y-81227500D03*
X190990000Y-80032500D03*
%TD*%
D30*
%TO.C,SW7*%
X196290000Y-69855000D03*
X199540000Y-69855000D03*
%TD*%
D31*
%TO.C,C9*%
X182472500Y-70560000D03*
X183607500Y-70560000D03*
%TD*%
%TO.C,C10*%
X182462500Y-72040000D03*
X183597500Y-72040000D03*
%TD*%
D26*
%TO.C,R5*%
X200490000Y-71937500D03*
X200490000Y-70742500D03*
%TD*%
D32*
%TO.C,U2*%
X185579999Y-76300001D03*
X185579999Y-76800000D03*
X185579999Y-77299999D03*
X187480001Y-77299999D03*
X187480001Y-76800000D03*
X187480001Y-76300001D03*
D33*
X186530000Y-76800000D03*
%TD*%
D25*
%TO.C,R13*%
X182412500Y-68460000D03*
X183607500Y-68460000D03*
%TD*%
D34*
%TO.C,R10*%
X183860000Y-65942500D03*
X183860000Y-67137500D03*
%TD*%
%TO.C,R2*%
X189940000Y-77072500D03*
X189940000Y-78267500D03*
%TD*%
D20*
%TO.C,R3*%
X187537500Y-78730000D03*
X186342500Y-78730000D03*
%TD*%
D35*
%TO.C,IC1*%
X200420000Y-83082500D03*
X200420000Y-81812500D03*
X200420000Y-80542500D03*
X200420000Y-79272500D03*
X194720000Y-79272500D03*
X194720000Y-80542500D03*
X194720000Y-81812500D03*
X194720000Y-83082500D03*
D36*
X197570000Y-81177500D03*
%TD*%
D37*
%TO.C,BT1*%
X188700000Y-71370000D03*
D38*
X184910000Y-70220000D03*
%TD*%
D34*
%TO.C,R11*%
X191820000Y-68642500D03*
X191820000Y-69837500D03*
%TD*%
D24*
%TO.C,C4*%
X200917500Y-76840000D03*
X199782500Y-76840000D03*
%TD*%
D34*
%TO.C,R14*%
X185360000Y-73662500D03*
X185360000Y-74857500D03*
%TD*%
D26*
%TO.C,R12*%
X189890000Y-69847500D03*
X189890000Y-68652500D03*
%TD*%
D31*
%TO.C,C2*%
X191225000Y-74350000D03*
X192360000Y-74350000D03*
%TD*%
D29*
%TO.C,C17*%
X184840000Y-67117500D03*
X184840000Y-65982500D03*
%TD*%
D19*
%TO.C,C6*%
X193930000Y-68622500D03*
X193930000Y-69757500D03*
%TD*%
D39*
%TO.C,Q1*%
X184547500Y-73712500D03*
X184547500Y-73062500D03*
D40*
X183467500Y-73387500D03*
D41*
X183857500Y-73387500D03*
%TD*%
D31*
%TO.C,C5*%
X191232500Y-75310000D03*
X192367500Y-75310000D03*
%TD*%
%TO.C,C7*%
X191272500Y-71640000D03*
X192407500Y-71640000D03*
%TD*%
D30*
%TO.C,SW5*%
X189130000Y-72985000D03*
X192380000Y-72985000D03*
%TD*%
D31*
%TO.C,C8*%
X182452500Y-69460000D03*
X183587500Y-69460000D03*
%TD*%
D19*
%TO.C,C18*%
X195430000Y-69002500D03*
X195430000Y-70137500D03*
%TD*%
D42*
%TO.C,J2*%
X204070000Y-66970000D03*
D43*
X201530000Y-66970000D03*
X198990000Y-66970000D03*
X196450000Y-66970000D03*
%TD*%
D44*
%TO.C,SW1*%
X189070000Y-65930000D03*
X192920000Y-65930000D03*
%TD*%
D45*
%TO.C,PA1010D1*%
X187000000Y-73850000D03*
%TD*%
D46*
%TO.C,SW6*%
X189290000Y-82400000D03*
X186290000Y-82400000D03*
%TD*%
D44*
%TO.C,SW2*%
X182415000Y-65935000D03*
X186265000Y-65935000D03*
%TD*%
G36*
X204124698Y-70330704D02*
G01*
X205036698Y-70339308D01*
X205088817Y-70361475D01*
X205110000Y-70413305D01*
X205110000Y-71266694D01*
X205088326Y-71319020D01*
X205036698Y-71340691D01*
X204124698Y-71349295D01*
X204072170Y-71328115D01*
X204050003Y-71275996D01*
X204050000Y-71275298D01*
X204050000Y-70404701D01*
X204071674Y-70352375D01*
X204124000Y-70330701D01*
X204124698Y-70330704D01*
G37*
G36*
X204144698Y-68000704D02*
G01*
X205056698Y-68009308D01*
X205108817Y-68031475D01*
X205130000Y-68083305D01*
X205130000Y-68936694D01*
X205108326Y-68989020D01*
X205056698Y-69010691D01*
X204144698Y-69019295D01*
X204092170Y-68998115D01*
X204070003Y-68945996D01*
X204070000Y-68945298D01*
X204070000Y-68074701D01*
X204091674Y-68022375D01*
X204144000Y-68000701D01*
X204144698Y-68000704D01*
G37*
G36*
X204134363Y-69146173D02*
G01*
X205046363Y-69154777D01*
X205098482Y-69176944D01*
X205119665Y-69228774D01*
X205119665Y-70082163D01*
X205097991Y-70134489D01*
X205046363Y-70156160D01*
X204134363Y-70164764D01*
X204081835Y-70143584D01*
X204059668Y-70091465D01*
X204059665Y-70090767D01*
X204059665Y-69220170D01*
X204081339Y-69167844D01*
X204133665Y-69146170D01*
X204134363Y-69146173D01*
G37*
G36*
X200224698Y-68210702D02*
G01*
X201136698Y-68219306D01*
X201188817Y-68241473D01*
X201210000Y-68293303D01*
X201210000Y-69146692D01*
X201188326Y-69199018D01*
X201136698Y-69220689D01*
X200224698Y-69229293D01*
X200172170Y-69208113D01*
X200150003Y-69155994D01*
X200150000Y-69155296D01*
X200150000Y-68284699D01*
X200171674Y-68232373D01*
X200224000Y-68210699D01*
X200224698Y-68210702D01*
G37*
M02*
