%TF.GenerationSoftware,KiCad,Pcbnew,9.0.6-rc1*%
%TF.CreationDate,2025-11-21T10:50:25+01:00*%
%TF.ProjectId,hardware_V8,68617264-7761-4726-955f-56382e6b6963,rev?*%
%TF.SameCoordinates,Original*%
%TF.FileFunction,Copper,L5,Inr*%
%TF.FilePolarity,Positive*%
%FSLAX46Y46*%
G04 Gerber Fmt 4.6, Leading zero omitted, Abs format (unit mm)*
G04 Created by KiCad (PCBNEW 9.0.6-rc1) date 2025-11-21 10:50:25*
%MOMM*%
%LPD*%
G01*
G04 APERTURE LIST*
%TA.AperFunction,ComponentPad*%
%ADD10C,0.800000*%
%TD*%
%TA.AperFunction,ComponentPad*%
%ADD11O,2.150000X1.000000*%
%TD*%
%TA.AperFunction,ComponentPad*%
%ADD12R,1.700000X1.700000*%
%TD*%
%TA.AperFunction,ComponentPad*%
%ADD13C,1.700000*%
%TD*%
%TA.AperFunction,ViaPad*%
%ADD14C,0.400000*%
%TD*%
G04 APERTURE END LIST*
D10*
%TO.N,GND*%
%TO.C,J1*%
X117250000Y-101770000D03*
X117250000Y-93570000D03*
D11*
X116950000Y-103320000D03*
X116950000Y-92020000D03*
X112950000Y-103320000D03*
X112950000Y-92020000D03*
%TD*%
D12*
%TO.N,GND*%
%TO.C,J3*%
X126230000Y-89630000D03*
D13*
%TO.N,3.3V_AUX*%
X123690000Y-89630000D03*
%TO.N,/OLED_SCL*%
X121150000Y-89630000D03*
%TO.N,/OLED_SDA*%
X118610000Y-89630000D03*
%TD*%
D14*
%TO.N,GND*%
X132050000Y-100290000D03*
X131240000Y-100300000D03*
X130550000Y-100300000D03*
X129870000Y-100300000D03*
X129180000Y-100300000D03*
X128530000Y-100300000D03*
%TO.N,/SPI_CS*%
X127857500Y-100550000D03*
%TO.N,3.3V_AUX*%
X129580000Y-89450000D03*
%TO.N,/OLED_SCL*%
X130270000Y-89880000D03*
%TO.N,/OLED_SDA*%
X130260000Y-89050000D03*
%TO.N,GND*%
X132830000Y-100290000D03*
X132830000Y-99590000D03*
X132830000Y-98890000D03*
X132830000Y-98190000D03*
X132830000Y-97490000D03*
X132830000Y-96790000D03*
X132830000Y-96090000D03*
X132830000Y-95390000D03*
X132830000Y-94690000D03*
X132830000Y-93990000D03*
X132830000Y-93290000D03*
X132830000Y-92590000D03*
X132830000Y-91890000D03*
X132830000Y-91190000D03*
X132830000Y-90490000D03*
X132830000Y-89790000D03*
X132830000Y-89090000D03*
X132830000Y-88390000D03*
X132830000Y-87690000D03*
X125160000Y-107610000D03*
X127880000Y-104230000D03*
X127940000Y-107610000D03*
X125100000Y-104220000D03*
X128340000Y-102920000D03*
X128330000Y-102310000D03*
X128340000Y-101660000D03*
X128350000Y-101040000D03*
%TO.N,+3.3V*%
X124400000Y-97180000D03*
X113770000Y-106720000D03*
X124550000Y-91300000D03*
X118600000Y-100750000D03*
X122450000Y-90100000D03*
X118750000Y-94500000D03*
X123950000Y-99800000D03*
X120300000Y-106600000D03*
X113800000Y-88720000D03*
%TO.N,vusb*%
X118300000Y-102100000D03*
X118300000Y-102670000D03*
X117200000Y-100100000D03*
X117200000Y-95240000D03*
%TO.N,/B2*%
X119750000Y-105450000D03*
X120060000Y-100830000D03*
%TO.N,/B1*%
X119560000Y-100500000D03*
X114350000Y-105450000D03*
%TO.N,/AUX_EN*%
X122630000Y-94390000D03*
X126127500Y-91240000D03*
%TO.N,3.3V_AUX*%
X125350000Y-97980000D03*
X125350000Y-99250000D03*
%TO.N,Net-(J1-CC1)*%
X114890000Y-102862500D03*
%TO.N,Net-(J1-CC2)*%
X114900000Y-92547500D03*
%TO.N,Net-(U1-PB5)*%
X121050000Y-99650000D03*
X115670000Y-91200000D03*
%TO.N,/B_PW*%
X124450000Y-96500000D03*
X114390000Y-89880000D03*
%TO.N,Net-(U1-PB6)*%
X121550000Y-100200000D03*
X114420000Y-91220000D03*
%TO.N,BAT+*%
X117800000Y-106000000D03*
X131400000Y-91450000D03*
X130500000Y-93550000D03*
%TO.N,Net-(IC4-V_BCKP)*%
X123150000Y-91500000D03*
%TO.N,3.3V_GPS*%
X124350000Y-94150000D03*
X125000000Y-94150000D03*
%TO.N,/NRST*%
X131350000Y-98650000D03*
X124350000Y-97700000D03*
%TO.N,/D+*%
X117450000Y-96920000D03*
X117550000Y-97920000D03*
%TO.N,/D-*%
X117070000Y-97410000D03*
X117070000Y-98430000D03*
%TO.N,Net-(IC4-RXD)*%
X121250000Y-91250000D03*
%TO.N,Net-(IC4-TXD)*%
X120600000Y-91250000D03*
%TO.N,/OLED_SCL*%
X118300000Y-93350000D03*
X118350000Y-96750000D03*
%TO.N,/OLED_SDA*%
X117900000Y-96350000D03*
X118300000Y-92500000D03*
%TO.N,/SPI_CS*%
X120050000Y-94460000D03*
X130770000Y-99490000D03*
%TO.N,/SWCLK*%
X131350000Y-97400000D03*
X118865000Y-99180000D03*
%TO.N,/SWDIO*%
X117970000Y-98500000D03*
X131350000Y-96100000D03*
%TO.N,/SPI_MISO*%
X121550000Y-95190000D03*
X131640000Y-94000000D03*
%TO.N,/SPI_CLK*%
X122060000Y-94390000D03*
X125350000Y-96710000D03*
%TO.N,/SPI_MOSI*%
X121050000Y-94450000D03*
X125350000Y-95440000D03*
%TO.N,GND*%
X128200000Y-97345000D03*
X124150000Y-94750000D03*
X125500000Y-94550000D03*
X112190000Y-89760000D03*
X117200000Y-100950000D03*
X117050000Y-107200000D03*
X129665000Y-87630000D03*
X121910000Y-87630000D03*
X126700000Y-99245000D03*
X119802500Y-95930000D03*
X131050000Y-95440000D03*
X121302500Y-95930000D03*
X126050000Y-94550000D03*
X121180000Y-107450000D03*
X131780000Y-87630000D03*
X119802500Y-97430000D03*
X130370000Y-87630000D03*
X122650000Y-104250000D03*
X117900000Y-107400000D03*
X119850000Y-89790000D03*
X117050000Y-106300000D03*
X124025000Y-87630000D03*
X122802500Y-97430000D03*
X124730000Y-87630000D03*
X115410000Y-91790000D03*
X120400000Y-90650000D03*
X119700000Y-90950000D03*
X124870000Y-100100000D03*
X125435000Y-87630000D03*
X113125000Y-105450000D03*
X119080000Y-104700000D03*
X131400000Y-92410000D03*
X112040000Y-87630000D03*
X122440000Y-89500000D03*
X119795000Y-87630000D03*
X127550000Y-87630000D03*
X119780000Y-107460000D03*
X118230000Y-105430000D03*
X122650000Y-103560000D03*
X115350000Y-106200000D03*
X114860000Y-87630000D03*
X120500000Y-87630000D03*
X124870000Y-103560000D03*
X118930000Y-99810000D03*
X123320000Y-87630000D03*
X126140000Y-87630000D03*
X126700000Y-97345000D03*
X114092500Y-107400000D03*
X122650000Y-107010000D03*
X121970000Y-107430000D03*
X115400000Y-103650000D03*
X128200000Y-99245000D03*
X126700000Y-95445000D03*
X121515000Y-103800000D03*
X114440000Y-91790000D03*
X112500000Y-107400000D03*
X119090000Y-87630000D03*
X112200000Y-91120000D03*
X120975000Y-105450000D03*
X128290000Y-94120000D03*
X114155000Y-87630000D03*
X124950000Y-90190000D03*
X125630000Y-102270000D03*
X124130000Y-103560000D03*
X120460000Y-107450000D03*
X122802500Y-95930000D03*
X112190000Y-90420000D03*
X129700000Y-99245000D03*
X116380000Y-89810000D03*
X128960000Y-87630000D03*
X126845000Y-87630000D03*
X117680000Y-87630000D03*
X129100000Y-90550000D03*
X122615000Y-87630000D03*
X115030000Y-88630000D03*
X131075000Y-87630000D03*
X127550000Y-90550000D03*
X121302500Y-97430000D03*
X125600000Y-102850000D03*
X116975000Y-87630000D03*
X122650000Y-107700000D03*
X114400000Y-103650000D03*
X117350000Y-89800000D03*
X125312500Y-91240000D03*
X121205000Y-87630000D03*
X118385000Y-87630000D03*
X122802500Y-98930000D03*
X128200000Y-95445000D03*
X122650000Y-106320000D03*
X125610000Y-103560000D03*
X119802500Y-98930000D03*
X122650000Y-104940000D03*
X122650000Y-105630000D03*
X131350000Y-94800000D03*
X121302500Y-98930000D03*
X117200000Y-94390000D03*
X128255000Y-87630000D03*
X120970000Y-106340000D03*
X123390000Y-103560000D03*
X121507500Y-104500000D03*
%TO.N,Net-(IC5-~{CHRG})*%
X112150000Y-104850000D03*
X119150000Y-107500000D03*
%TO.N,/GPS_EXTINT*%
X118800000Y-96180000D03*
%TO.N,/ADC_BAT*%
X120540000Y-94890000D03*
%TD*%
%TA.AperFunction,Conductor*%
%TO.N,GND*%
G36*
X133025615Y-87400291D02*
G01*
X133092636Y-87420038D01*
X133138342Y-87472884D01*
X133149500Y-87524291D01*
X133149500Y-100456000D01*
X133129815Y-100523039D01*
X133077011Y-100568794D01*
X133025500Y-100580000D01*
X128760000Y-100580000D01*
X128760000Y-107835500D01*
X128740315Y-107902539D01*
X128687511Y-107948294D01*
X128636000Y-107959500D01*
X119414344Y-107959500D01*
X119347305Y-107939815D01*
X119301550Y-107887011D01*
X119291606Y-107817853D01*
X119320631Y-107754297D01*
X119328984Y-107746427D01*
X119328764Y-107746207D01*
X119334511Y-107740460D01*
X119390460Y-107684511D01*
X119430021Y-107615989D01*
X119450500Y-107539562D01*
X119450500Y-107460438D01*
X119430021Y-107384011D01*
X119430017Y-107384004D01*
X119390464Y-107315495D01*
X119390458Y-107315487D01*
X119334512Y-107259541D01*
X119334504Y-107259535D01*
X119265995Y-107219982D01*
X119265990Y-107219979D01*
X119240513Y-107213152D01*
X119189562Y-107199500D01*
X119110438Y-107199500D01*
X119072224Y-107209739D01*
X119034009Y-107219979D01*
X119034004Y-107219982D01*
X118965495Y-107259535D01*
X118965487Y-107259541D01*
X118909541Y-107315487D01*
X118909535Y-107315495D01*
X118869982Y-107384004D01*
X118869979Y-107384009D01*
X118856326Y-107434962D01*
X118849500Y-107460438D01*
X118849500Y-107539562D01*
X118863152Y-107590513D01*
X118869979Y-107615990D01*
X118869982Y-107615995D01*
X118909535Y-107684504D01*
X118909541Y-107684512D01*
X118971236Y-107746207D01*
X118969234Y-107748208D01*
X119002343Y-107793547D01*
X119006501Y-107863292D01*
X118972292Y-107924214D01*
X118910576Y-107956970D01*
X118885656Y-107959500D01*
X111894500Y-107959500D01*
X111827461Y-107939815D01*
X111781706Y-107887011D01*
X111770500Y-107835500D01*
X111770500Y-106759164D01*
X111790185Y-106692125D01*
X111842989Y-106646370D01*
X111912147Y-106636426D01*
X111956499Y-106651776D01*
X112022164Y-106689688D01*
X112155817Y-106725500D01*
X112155819Y-106725500D01*
X112294181Y-106725500D01*
X112294183Y-106725500D01*
X112427836Y-106689688D01*
X112443858Y-106680438D01*
X113469500Y-106680438D01*
X113469500Y-106759562D01*
X113483152Y-106810513D01*
X113489979Y-106835990D01*
X113489982Y-106835995D01*
X113529535Y-106904504D01*
X113529539Y-106904509D01*
X113529540Y-106904511D01*
X113585489Y-106960460D01*
X113585491Y-106960461D01*
X113585495Y-106960464D01*
X113654004Y-107000017D01*
X113654011Y-107000021D01*
X113730438Y-107020500D01*
X113730440Y-107020500D01*
X113809560Y-107020500D01*
X113809562Y-107020500D01*
X113885989Y-107000021D01*
X113954511Y-106960460D01*
X114010460Y-106904511D01*
X114050021Y-106835989D01*
X114070500Y-106759562D01*
X114070500Y-106680438D01*
X114050021Y-106604011D01*
X114024865Y-106560439D01*
X114024864Y-106560438D01*
X119999500Y-106560438D01*
X119999500Y-106639562D01*
X120010453Y-106680438D01*
X120019979Y-106715990D01*
X120019982Y-106715995D01*
X120059535Y-106784504D01*
X120059539Y-106784509D01*
X120059540Y-106784511D01*
X120115489Y-106840460D01*
X120115491Y-106840461D01*
X120115495Y-106840464D01*
X120176180Y-106875500D01*
X120184011Y-106880021D01*
X120260438Y-106900500D01*
X120260440Y-106900500D01*
X120339560Y-106900500D01*
X120339562Y-106900500D01*
X120415989Y-106880021D01*
X120484511Y-106840460D01*
X120540460Y-106784511D01*
X120580021Y-106715989D01*
X120600500Y-106639562D01*
X120600500Y-106560438D01*
X120580021Y-106484011D01*
X120577437Y-106479535D01*
X120540464Y-106415495D01*
X120540458Y-106415487D01*
X120484512Y-106359541D01*
X120484504Y-106359535D01*
X120415995Y-106319982D01*
X120415990Y-106319979D01*
X120390513Y-106313152D01*
X120339562Y-106299500D01*
X120260438Y-106299500D01*
X120222224Y-106309739D01*
X120184009Y-106319979D01*
X120184004Y-106319982D01*
X120115495Y-106359535D01*
X120115487Y-106359541D01*
X120059541Y-106415487D01*
X120059535Y-106415495D01*
X120019982Y-106484004D01*
X120019979Y-106484009D01*
X120009621Y-106522665D01*
X119999500Y-106560438D01*
X114024864Y-106560438D01*
X114010464Y-106535495D01*
X114010458Y-106535487D01*
X113954512Y-106479541D01*
X113954504Y-106479535D01*
X113885995Y-106439982D01*
X113885990Y-106439979D01*
X113860513Y-106433152D01*
X113809562Y-106419500D01*
X113730438Y-106419500D01*
X113692224Y-106429739D01*
X113654009Y-106439979D01*
X113654004Y-106439982D01*
X113585495Y-106479535D01*
X113585487Y-106479541D01*
X113529541Y-106535487D01*
X113529535Y-106535495D01*
X113489982Y-106604004D01*
X113489979Y-106604009D01*
X113481293Y-106636426D01*
X113469500Y-106680438D01*
X112443858Y-106680438D01*
X112547665Y-106620505D01*
X112645505Y-106522665D01*
X112714688Y-106402836D01*
X112750500Y-106269183D01*
X112750500Y-106130817D01*
X112714688Y-105997164D01*
X112693484Y-105960438D01*
X117499500Y-105960438D01*
X117499500Y-106039562D01*
X117513152Y-106090513D01*
X117519979Y-106115990D01*
X117519982Y-106115995D01*
X117559535Y-106184504D01*
X117559539Y-106184509D01*
X117559540Y-106184511D01*
X117615489Y-106240460D01*
X117615491Y-106240461D01*
X117615495Y-106240464D01*
X117665235Y-106269181D01*
X117684011Y-106280021D01*
X117760438Y-106300500D01*
X117760440Y-106300500D01*
X117839560Y-106300500D01*
X117839562Y-106300500D01*
X117913018Y-106280817D01*
X121349500Y-106280817D01*
X121349500Y-106419183D01*
X121380664Y-106535487D01*
X121385312Y-106552835D01*
X121385313Y-106552838D01*
X121454492Y-106672661D01*
X121454494Y-106672664D01*
X121454495Y-106672665D01*
X121552335Y-106770505D01*
X121672164Y-106839688D01*
X121805817Y-106875500D01*
X121805819Y-106875500D01*
X121944181Y-106875500D01*
X121944183Y-106875500D01*
X122077836Y-106839688D01*
X122197665Y-106770505D01*
X122295505Y-106672665D01*
X122364688Y-106552836D01*
X122400500Y-106419183D01*
X122400500Y-106280817D01*
X122364688Y-106147164D01*
X122295505Y-106027335D01*
X122197665Y-105929495D01*
X122197664Y-105929494D01*
X122197661Y-105929492D01*
X122077838Y-105860313D01*
X122077837Y-105860312D01*
X122077836Y-105860312D01*
X121944183Y-105824500D01*
X121805817Y-105824500D01*
X121672164Y-105860312D01*
X121672161Y-105860313D01*
X121552338Y-105929492D01*
X121552333Y-105929496D01*
X121454496Y-106027333D01*
X121454492Y-106027338D01*
X121385313Y-106147161D01*
X121385312Y-106147164D01*
X121349500Y-106280817D01*
X117913018Y-106280817D01*
X117915989Y-106280021D01*
X117984511Y-106240460D01*
X118040460Y-106184511D01*
X118080021Y-106115989D01*
X118100500Y-106039562D01*
X118100500Y-105960438D01*
X118080021Y-105884011D01*
X118076167Y-105877335D01*
X118040464Y-105815495D01*
X118040458Y-105815487D01*
X117984512Y-105759541D01*
X117984504Y-105759535D01*
X117915995Y-105719982D01*
X117915990Y-105719979D01*
X117890513Y-105713152D01*
X117839562Y-105699500D01*
X117760438Y-105699500D01*
X117722224Y-105709739D01*
X117684009Y-105719979D01*
X117684004Y-105719982D01*
X117615495Y-105759535D01*
X117615487Y-105759541D01*
X117559541Y-105815487D01*
X117559535Y-105815495D01*
X117519982Y-105884004D01*
X117519979Y-105884009D01*
X117507792Y-105929492D01*
X117499500Y-105960438D01*
X112693484Y-105960438D01*
X112675618Y-105929492D01*
X112645507Y-105877338D01*
X112645503Y-105877333D01*
X112547666Y-105779496D01*
X112547661Y-105779492D01*
X112427838Y-105710313D01*
X112427837Y-105710312D01*
X112427836Y-105710312D01*
X112294183Y-105674500D01*
X112155817Y-105674500D01*
X112022164Y-105710312D01*
X112022163Y-105710312D01*
X111956499Y-105748223D01*
X111888598Y-105764694D01*
X111822572Y-105741842D01*
X111779382Y-105686920D01*
X111770500Y-105640835D01*
X111770500Y-105410438D01*
X114049500Y-105410438D01*
X114049500Y-105489562D01*
X114063152Y-105540513D01*
X114069979Y-105565990D01*
X114069982Y-105565995D01*
X114109535Y-105634504D01*
X114109539Y-105634509D01*
X114109540Y-105634511D01*
X114165489Y-105690460D01*
X114165491Y-105690461D01*
X114165495Y-105690464D01*
X114216623Y-105719982D01*
X114234011Y-105730021D01*
X114310438Y-105750500D01*
X114310440Y-105750500D01*
X114389560Y-105750500D01*
X114389562Y-105750500D01*
X114465989Y-105730021D01*
X114534511Y-105690460D01*
X114590460Y-105634511D01*
X114630021Y-105565989D01*
X114650500Y-105489562D01*
X114650500Y-105410438D01*
X119449500Y-105410438D01*
X119449500Y-105489562D01*
X119463152Y-105540513D01*
X119469979Y-105565990D01*
X119469982Y-105565995D01*
X119509535Y-105634504D01*
X119509539Y-105634509D01*
X119509540Y-105634511D01*
X119565489Y-105690460D01*
X119565491Y-105690461D01*
X119565495Y-105690464D01*
X119616623Y-105719982D01*
X119634011Y-105730021D01*
X119710438Y-105750500D01*
X119710440Y-105750500D01*
X119789560Y-105750500D01*
X119789562Y-105750500D01*
X119865989Y-105730021D01*
X119934511Y-105690460D01*
X119990460Y-105634511D01*
X120030021Y-105565989D01*
X120050500Y-105489562D01*
X120050500Y-105410438D01*
X120030021Y-105334011D01*
X120030017Y-105334004D01*
X119990464Y-105265495D01*
X119990458Y-105265487D01*
X119934512Y-105209541D01*
X119934504Y-105209535D01*
X119865995Y-105169982D01*
X119865990Y-105169979D01*
X119840513Y-105163152D01*
X119789562Y-105149500D01*
X119710438Y-105149500D01*
X119672224Y-105159739D01*
X119634009Y-105169979D01*
X119634004Y-105169982D01*
X119565495Y-105209535D01*
X119565487Y-105209541D01*
X119509541Y-105265487D01*
X119509535Y-105265495D01*
X119469982Y-105334004D01*
X119469979Y-105334009D01*
X119456326Y-105384962D01*
X119449500Y-105410438D01*
X114650500Y-105410438D01*
X114630021Y-105334011D01*
X114630017Y-105334004D01*
X114590464Y-105265495D01*
X114590458Y-105265487D01*
X114534512Y-105209541D01*
X114534504Y-105209535D01*
X114465995Y-105169982D01*
X114465990Y-105169979D01*
X114440513Y-105163152D01*
X114389562Y-105149500D01*
X114310438Y-105149500D01*
X114272224Y-105159739D01*
X114234009Y-105169979D01*
X114234004Y-105169982D01*
X114165495Y-105209535D01*
X114165487Y-105209541D01*
X114109541Y-105265487D01*
X114109535Y-105265495D01*
X114069982Y-105334004D01*
X114069979Y-105334009D01*
X114056326Y-105384962D01*
X114049500Y-105410438D01*
X111770500Y-105410438D01*
X111770500Y-105192286D01*
X111790185Y-105125247D01*
X111842989Y-105079492D01*
X111912147Y-105069548D01*
X111957213Y-105088538D01*
X111958450Y-105086397D01*
X112025742Y-105125247D01*
X112034011Y-105130021D01*
X112110438Y-105150500D01*
X112110440Y-105150500D01*
X112189560Y-105150500D01*
X112189562Y-105150500D01*
X112265989Y-105130021D01*
X112334511Y-105090460D01*
X112390460Y-105034511D01*
X112430021Y-104965989D01*
X112450500Y-104889562D01*
X112450500Y-104810438D01*
X112430021Y-104734011D01*
X112430017Y-104734004D01*
X112390464Y-104665495D01*
X112390458Y-104665487D01*
X112334512Y-104609541D01*
X112334504Y-104609535D01*
X112265995Y-104569982D01*
X112265990Y-104569979D01*
X112240513Y-104563152D01*
X112189562Y-104549500D01*
X112110438Y-104549500D01*
X112072224Y-104559739D01*
X112034009Y-104569979D01*
X112034004Y-104569982D01*
X111958450Y-104613603D01*
X111957008Y-104611106D01*
X111904815Y-104631283D01*
X111836370Y-104617244D01*
X111786382Y-104568429D01*
X111770500Y-104507713D01*
X111770500Y-102822938D01*
X114589500Y-102822938D01*
X114589500Y-102902062D01*
X114602350Y-102950017D01*
X114609979Y-102978490D01*
X114609982Y-102978495D01*
X114649535Y-103047004D01*
X114649539Y-103047009D01*
X114649540Y-103047011D01*
X114705489Y-103102960D01*
X114705491Y-103102961D01*
X114705495Y-103102964D01*
X114774004Y-103142517D01*
X114774011Y-103142521D01*
X114850438Y-103163000D01*
X114850440Y-103163000D01*
X114929560Y-103163000D01*
X114929562Y-103163000D01*
X115005989Y-103142521D01*
X115074511Y-103102960D01*
X115130460Y-103047011D01*
X115170021Y-102978489D01*
X115190500Y-102902062D01*
X115190500Y-102822938D01*
X115170021Y-102746511D01*
X115148689Y-102709562D01*
X115130464Y-102677995D01*
X115130458Y-102677987D01*
X115074512Y-102622041D01*
X115074504Y-102622035D01*
X115005995Y-102582482D01*
X115005990Y-102582479D01*
X114980513Y-102575652D01*
X114929562Y-102562000D01*
X114850438Y-102562000D01*
X114812224Y-102572239D01*
X114774009Y-102582479D01*
X114774004Y-102582482D01*
X114705495Y-102622035D01*
X114705487Y-102622041D01*
X114649541Y-102677987D01*
X114649535Y-102677995D01*
X114609982Y-102746504D01*
X114609979Y-102746509D01*
X114599401Y-102785989D01*
X114589500Y-102822938D01*
X111770500Y-102822938D01*
X111770500Y-102424500D01*
X111790185Y-102357461D01*
X111842989Y-102311706D01*
X111894500Y-102300500D01*
X116719989Y-102300500D01*
X116719991Y-102300500D01*
X116756929Y-102285200D01*
X116785200Y-102256929D01*
X116800500Y-102219991D01*
X116800500Y-102060438D01*
X117999500Y-102060438D01*
X117999500Y-102139562D01*
X118010338Y-102180009D01*
X118019979Y-102215990D01*
X118019982Y-102215995D01*
X118059535Y-102284504D01*
X118059541Y-102284512D01*
X118072348Y-102297319D01*
X118105833Y-102358642D01*
X118100849Y-102428334D01*
X118072348Y-102472681D01*
X118059541Y-102485487D01*
X118059535Y-102485495D01*
X118019982Y-102554004D01*
X118019979Y-102554009D01*
X118017838Y-102562000D01*
X117999500Y-102630438D01*
X117999500Y-102709562D01*
X118009399Y-102746504D01*
X118019979Y-102785990D01*
X118019982Y-102785995D01*
X118059535Y-102854504D01*
X118059539Y-102854509D01*
X118059540Y-102854511D01*
X118115489Y-102910460D01*
X118115491Y-102910461D01*
X118115495Y-102910464D01*
X118184004Y-102950017D01*
X118184011Y-102950021D01*
X118260438Y-102970500D01*
X118260440Y-102970500D01*
X118339560Y-102970500D01*
X118339562Y-102970500D01*
X118415989Y-102950021D01*
X118484511Y-102910460D01*
X118540460Y-102854511D01*
X118580021Y-102785989D01*
X118600500Y-102709562D01*
X118600500Y-102630438D01*
X118580021Y-102554011D01*
X118580017Y-102554004D01*
X118540464Y-102485495D01*
X118540458Y-102485487D01*
X118527652Y-102472681D01*
X118494167Y-102411358D01*
X118499151Y-102341666D01*
X118527652Y-102297319D01*
X118540460Y-102284511D01*
X118580021Y-102215989D01*
X118600500Y-102139562D01*
X118600500Y-102060438D01*
X118580021Y-101984011D01*
X118580017Y-101984004D01*
X118540464Y-101915495D01*
X118540458Y-101915487D01*
X118484512Y-101859541D01*
X118484504Y-101859535D01*
X118415995Y-101819982D01*
X118415990Y-101819979D01*
X118390513Y-101813152D01*
X118339562Y-101799500D01*
X118260438Y-101799500D01*
X118222224Y-101809739D01*
X118184009Y-101819979D01*
X118184004Y-101819982D01*
X118115495Y-101859535D01*
X118115487Y-101859541D01*
X118059541Y-101915487D01*
X118059535Y-101915495D01*
X118019982Y-101984004D01*
X118019979Y-101984009D01*
X118006326Y-102034962D01*
X117999500Y-102060438D01*
X116800500Y-102060438D01*
X116800500Y-100710438D01*
X118299500Y-100710438D01*
X118299500Y-100789562D01*
X118302001Y-100798895D01*
X118319979Y-100865990D01*
X118319982Y-100865995D01*
X118359535Y-100934504D01*
X118359539Y-100934509D01*
X118359540Y-100934511D01*
X118415489Y-100990460D01*
X118415491Y-100990461D01*
X118415495Y-100990464D01*
X118457148Y-101014512D01*
X118484011Y-101030021D01*
X118560438Y-101050500D01*
X118560440Y-101050500D01*
X118639560Y-101050500D01*
X118639562Y-101050500D01*
X118715989Y-101030021D01*
X118784511Y-100990460D01*
X118840460Y-100934511D01*
X118880021Y-100865989D01*
X118900500Y-100789562D01*
X118900500Y-100710438D01*
X118880021Y-100634011D01*
X118869616Y-100615989D01*
X118840464Y-100565495D01*
X118840458Y-100565487D01*
X118784512Y-100509541D01*
X118784504Y-100509535D01*
X118715995Y-100469982D01*
X118715990Y-100469979D01*
X118680382Y-100460438D01*
X119259500Y-100460438D01*
X119259500Y-100539562D01*
X119266449Y-100565495D01*
X119279979Y-100615990D01*
X119279982Y-100615995D01*
X119319535Y-100684504D01*
X119319539Y-100684509D01*
X119319540Y-100684511D01*
X119375489Y-100740460D01*
X119375491Y-100740461D01*
X119375495Y-100740464D01*
X119444004Y-100780017D01*
X119444011Y-100780021D01*
X119520438Y-100800500D01*
X119520440Y-100800500D01*
X119599560Y-100800500D01*
X119599562Y-100800500D01*
X119611742Y-100797236D01*
X119681589Y-100798895D01*
X119739454Y-100838054D01*
X119763613Y-100884914D01*
X119779977Y-100945984D01*
X119779982Y-100945995D01*
X119819535Y-101014504D01*
X119819539Y-101014509D01*
X119819540Y-101014511D01*
X119875489Y-101070460D01*
X119875491Y-101070461D01*
X119875495Y-101070464D01*
X119944004Y-101110017D01*
X119944011Y-101110021D01*
X120020438Y-101130500D01*
X120020440Y-101130500D01*
X120099560Y-101130500D01*
X120099562Y-101130500D01*
X120175989Y-101110021D01*
X120244511Y-101070460D01*
X120300460Y-101014511D01*
X120340021Y-100945989D01*
X120360500Y-100869562D01*
X120360500Y-100790438D01*
X120340021Y-100714011D01*
X120332966Y-100701791D01*
X120300464Y-100645495D01*
X120300458Y-100645487D01*
X120244512Y-100589541D01*
X120244504Y-100589535D01*
X120175995Y-100549982D01*
X120175990Y-100549979D01*
X120137113Y-100539562D01*
X120099562Y-100529500D01*
X120020438Y-100529500D01*
X120020437Y-100529500D01*
X120008253Y-100532765D01*
X119938403Y-100531102D01*
X119907873Y-100510438D01*
X127557000Y-100510438D01*
X127557000Y-100589562D01*
X127568910Y-100634009D01*
X127577479Y-100665990D01*
X127577482Y-100665995D01*
X127617035Y-100734504D01*
X127617039Y-100734509D01*
X127617040Y-100734511D01*
X127672989Y-100790460D01*
X127672991Y-100790461D01*
X127672995Y-100790464D01*
X127741504Y-100830017D01*
X127741511Y-100830021D01*
X127817938Y-100850500D01*
X127817940Y-100850500D01*
X127897060Y-100850500D01*
X127897062Y-100850500D01*
X127973489Y-100830021D01*
X128042011Y-100790460D01*
X128097960Y-100734511D01*
X128137521Y-100665989D01*
X128158000Y-100589562D01*
X128158000Y-100510438D01*
X128137521Y-100434011D01*
X128108943Y-100384512D01*
X128097964Y-100365495D01*
X128097958Y-100365487D01*
X128042012Y-100309541D01*
X128042004Y-100309535D01*
X127973495Y-100269982D01*
X127973490Y-100269979D01*
X127948013Y-100263152D01*
X127897062Y-100249500D01*
X127817938Y-100249500D01*
X127780488Y-100259535D01*
X127741509Y-100269979D01*
X127741504Y-100269982D01*
X127672995Y-100309535D01*
X127672987Y-100309541D01*
X127617041Y-100365487D01*
X127617035Y-100365495D01*
X127577482Y-100434004D01*
X127577479Y-100434009D01*
X127570397Y-100460439D01*
X127557000Y-100510438D01*
X119907873Y-100510438D01*
X119880541Y-100491939D01*
X119856386Y-100445087D01*
X119840021Y-100384011D01*
X119829331Y-100365495D01*
X119800464Y-100315495D01*
X119800458Y-100315487D01*
X119744512Y-100259541D01*
X119744504Y-100259535D01*
X119675995Y-100219982D01*
X119675990Y-100219979D01*
X119650513Y-100213152D01*
X119599562Y-100199500D01*
X119520438Y-100199500D01*
X119482224Y-100209739D01*
X119444009Y-100219979D01*
X119444004Y-100219982D01*
X119375495Y-100259535D01*
X119375487Y-100259541D01*
X119319541Y-100315487D01*
X119319535Y-100315495D01*
X119279982Y-100384004D01*
X119279979Y-100384009D01*
X119271775Y-100414629D01*
X119259500Y-100460438D01*
X118680382Y-100460438D01*
X118639562Y-100449500D01*
X118560438Y-100449500D01*
X118522224Y-100459739D01*
X118484009Y-100469979D01*
X118484004Y-100469982D01*
X118415495Y-100509535D01*
X118415487Y-100509541D01*
X118359541Y-100565487D01*
X118359535Y-100565495D01*
X118319982Y-100634004D01*
X118319979Y-100634009D01*
X118311410Y-100665989D01*
X118299500Y-100710438D01*
X116800500Y-100710438D01*
X116800500Y-100701791D01*
X116820185Y-100634752D01*
X116871982Y-100589462D01*
X117320000Y-100380000D01*
X117320000Y-100379999D01*
X117323988Y-100378135D01*
X117339206Y-100366615D01*
X117384511Y-100340460D01*
X117440460Y-100284511D01*
X117480021Y-100215989D01*
X117500500Y-100139562D01*
X117500500Y-100060438D01*
X117499111Y-100055258D01*
X117496773Y-100001613D01*
X117499791Y-99984511D01*
X117565804Y-99610438D01*
X120749500Y-99610438D01*
X120749500Y-99689562D01*
X120757714Y-99720215D01*
X120769979Y-99765990D01*
X120769982Y-99765995D01*
X120809535Y-99834504D01*
X120809539Y-99834509D01*
X120809540Y-99834511D01*
X120865489Y-99890460D01*
X120865491Y-99890461D01*
X120865495Y-99890464D01*
X120916623Y-99919982D01*
X120934011Y-99930021D01*
X121010438Y-99950500D01*
X121010440Y-99950500D01*
X121089561Y-99950500D01*
X121089562Y-99950500D01*
X121115018Y-99943679D01*
X121184868Y-99945340D01*
X121242731Y-99984502D01*
X121270236Y-100048730D01*
X121266888Y-100095546D01*
X121249500Y-100160438D01*
X121249500Y-100239562D01*
X121257651Y-100269982D01*
X121269979Y-100315990D01*
X121269982Y-100315995D01*
X121309535Y-100384504D01*
X121309539Y-100384509D01*
X121309540Y-100384511D01*
X121365489Y-100440460D01*
X121365491Y-100440461D01*
X121365495Y-100440464D01*
X121416623Y-100469982D01*
X121434011Y-100480021D01*
X121510438Y-100500500D01*
X121510440Y-100500500D01*
X121589560Y-100500500D01*
X121589562Y-100500500D01*
X121665989Y-100480021D01*
X121734511Y-100440460D01*
X121790460Y-100384511D01*
X121830021Y-100315989D01*
X121850500Y-100239562D01*
X121850500Y-100160438D01*
X121830021Y-100084011D01*
X121809652Y-100048730D01*
X121790464Y-100015495D01*
X121790458Y-100015487D01*
X121734512Y-99959541D01*
X121734504Y-99959535D01*
X121665995Y-99919982D01*
X121665990Y-99919979D01*
X121640513Y-99913152D01*
X121589562Y-99899500D01*
X121510438Y-99899500D01*
X121503892Y-99901254D01*
X121484977Y-99906322D01*
X121478906Y-99906177D01*
X121473447Y-99908829D01*
X121444388Y-99905354D01*
X121415127Y-99904657D01*
X121410100Y-99901254D01*
X121404072Y-99900534D01*
X121381500Y-99881896D01*
X121357265Y-99865493D01*
X121354875Y-99859912D01*
X121350195Y-99856048D01*
X121341283Y-99828168D01*
X121329763Y-99801264D01*
X121330296Y-99793799D01*
X121328921Y-99789495D01*
X121332396Y-99760438D01*
X123649500Y-99760438D01*
X123649500Y-99839562D01*
X123660844Y-99881896D01*
X123669979Y-99915990D01*
X123669982Y-99915995D01*
X123709535Y-99984504D01*
X123709539Y-99984509D01*
X123709540Y-99984511D01*
X123765489Y-100040460D01*
X123765491Y-100040461D01*
X123765495Y-100040464D01*
X123800092Y-100060438D01*
X123834011Y-100080021D01*
X123910438Y-100100500D01*
X123910440Y-100100500D01*
X123989560Y-100100500D01*
X123989562Y-100100500D01*
X124065989Y-100080021D01*
X124134511Y-100040460D01*
X124190460Y-99984511D01*
X124230021Y-99915989D01*
X124250500Y-99839562D01*
X124250500Y-99760438D01*
X124230021Y-99684011D01*
X124224532Y-99674504D01*
X124190464Y-99615495D01*
X124190458Y-99615487D01*
X124134512Y-99559541D01*
X124134504Y-99559535D01*
X124065995Y-99519982D01*
X124065990Y-99519979D01*
X124040513Y-99513152D01*
X123989562Y-99499500D01*
X123910438Y-99499500D01*
X123872224Y-99509739D01*
X123834009Y-99519979D01*
X123834004Y-99519982D01*
X123765495Y-99559535D01*
X123765487Y-99559541D01*
X123709541Y-99615487D01*
X123709535Y-99615495D01*
X123669982Y-99684004D01*
X123669979Y-99684009D01*
X123660278Y-99720214D01*
X123649500Y-99760438D01*
X121332396Y-99760438D01*
X121333111Y-99754455D01*
X121350500Y-99689562D01*
X121350500Y-99610438D01*
X121330021Y-99534011D01*
X121327451Y-99529560D01*
X121290464Y-99465495D01*
X121290458Y-99465487D01*
X121234512Y-99409541D01*
X121234504Y-99409535D01*
X121165995Y-99369982D01*
X121165990Y-99369979D01*
X121140513Y-99363152D01*
X121089562Y-99349500D01*
X121010438Y-99349500D01*
X120972224Y-99359739D01*
X120934009Y-99369979D01*
X120934004Y-99369982D01*
X120865495Y-99409535D01*
X120865487Y-99409541D01*
X120809541Y-99465487D01*
X120809535Y-99465495D01*
X120769982Y-99534004D01*
X120769979Y-99534009D01*
X120763138Y-99559540D01*
X120749500Y-99610438D01*
X117565804Y-99610438D01*
X117632051Y-99235039D01*
X117643595Y-99211754D01*
X117651529Y-99187005D01*
X117661050Y-99176548D01*
X117663086Y-99172442D01*
X117675284Y-99160914D01*
X117700124Y-99140438D01*
X118564500Y-99140438D01*
X118564500Y-99219562D01*
X118572533Y-99249540D01*
X118584979Y-99295990D01*
X118584982Y-99295995D01*
X118624535Y-99364504D01*
X118624539Y-99364509D01*
X118624540Y-99364511D01*
X118680489Y-99420460D01*
X118680491Y-99420461D01*
X118680495Y-99420464D01*
X118732414Y-99450439D01*
X118749011Y-99460021D01*
X118825438Y-99480500D01*
X118825440Y-99480500D01*
X118904560Y-99480500D01*
X118904562Y-99480500D01*
X118980989Y-99460021D01*
X119049511Y-99420460D01*
X119105460Y-99364511D01*
X119145021Y-99295989D01*
X119165500Y-99219562D01*
X119165500Y-99210438D01*
X125049500Y-99210438D01*
X125049500Y-99289562D01*
X125063152Y-99340513D01*
X125069979Y-99365990D01*
X125069982Y-99365995D01*
X125109535Y-99434504D01*
X125109539Y-99434509D01*
X125109540Y-99434511D01*
X125165489Y-99490460D01*
X125165491Y-99490461D01*
X125165495Y-99490464D01*
X125233216Y-99529562D01*
X125234011Y-99530021D01*
X125310438Y-99550500D01*
X125310440Y-99550500D01*
X125389560Y-99550500D01*
X125389562Y-99550500D01*
X125465989Y-99530021D01*
X125534511Y-99490460D01*
X125574533Y-99450438D01*
X130469500Y-99450438D01*
X130469500Y-99529562D01*
X130477533Y-99559540D01*
X130489979Y-99605990D01*
X130489982Y-99605995D01*
X130529535Y-99674504D01*
X130529539Y-99674509D01*
X130529540Y-99674511D01*
X130585489Y-99730460D01*
X130585491Y-99730461D01*
X130585495Y-99730464D01*
X130637414Y-99760439D01*
X130654011Y-99770021D01*
X130730438Y-99790500D01*
X130730440Y-99790500D01*
X130809560Y-99790500D01*
X130809562Y-99790500D01*
X130885989Y-99770021D01*
X130954511Y-99730460D01*
X131010460Y-99674511D01*
X131050021Y-99605989D01*
X131070500Y-99529562D01*
X131070500Y-99450438D01*
X131050021Y-99374011D01*
X131035870Y-99349500D01*
X131010464Y-99305495D01*
X131010458Y-99305487D01*
X130954512Y-99249541D01*
X130954504Y-99249535D01*
X130885995Y-99209982D01*
X130885990Y-99209979D01*
X130860513Y-99203152D01*
X130809562Y-99189500D01*
X130730438Y-99189500D01*
X130692224Y-99199739D01*
X130654009Y-99209979D01*
X130654004Y-99209982D01*
X130585495Y-99249535D01*
X130585487Y-99249541D01*
X130529541Y-99305487D01*
X130529535Y-99305495D01*
X130489982Y-99374004D01*
X130489979Y-99374009D01*
X130477533Y-99420458D01*
X130469500Y-99450438D01*
X125574533Y-99450438D01*
X125590460Y-99434511D01*
X125630021Y-99365989D01*
X125650500Y-99289562D01*
X125650500Y-99210438D01*
X125630021Y-99134011D01*
X125630017Y-99134004D01*
X125590464Y-99065495D01*
X125590458Y-99065487D01*
X125534512Y-99009541D01*
X125534504Y-99009535D01*
X125465995Y-98969982D01*
X125465990Y-98969979D01*
X125440513Y-98963152D01*
X125389562Y-98949500D01*
X125310438Y-98949500D01*
X125272224Y-98959739D01*
X125234009Y-98969979D01*
X125234004Y-98969982D01*
X125165495Y-99009535D01*
X125165487Y-99009541D01*
X125109541Y-99065487D01*
X125109535Y-99065495D01*
X125069982Y-99134004D01*
X125069979Y-99134009D01*
X125062772Y-99160908D01*
X125049500Y-99210438D01*
X119165500Y-99210438D01*
X119165500Y-99140438D01*
X119145021Y-99064011D01*
X119145017Y-99064004D01*
X119105464Y-98995495D01*
X119105458Y-98995487D01*
X119049512Y-98939541D01*
X119049504Y-98939535D01*
X118980995Y-98899982D01*
X118980990Y-98899979D01*
X118945457Y-98890458D01*
X118904562Y-98879500D01*
X118825438Y-98879500D01*
X118787224Y-98889739D01*
X118749009Y-98899979D01*
X118749004Y-98899982D01*
X118680495Y-98939535D01*
X118680487Y-98939541D01*
X118624541Y-98995487D01*
X118624535Y-98995495D01*
X118584982Y-99064004D01*
X118584979Y-99064009D01*
X118584581Y-99065495D01*
X118564500Y-99140438D01*
X117700124Y-99140438D01*
X118343075Y-98610438D01*
X131049500Y-98610438D01*
X131049500Y-98689562D01*
X131063152Y-98740513D01*
X131069979Y-98765990D01*
X131069982Y-98765995D01*
X131109535Y-98834504D01*
X131109539Y-98834509D01*
X131109540Y-98834511D01*
X131165489Y-98890460D01*
X131165491Y-98890461D01*
X131165495Y-98890464D01*
X131234004Y-98930017D01*
X131234011Y-98930021D01*
X131310438Y-98950500D01*
X131310440Y-98950500D01*
X131389560Y-98950500D01*
X131389562Y-98950500D01*
X131465989Y-98930021D01*
X131534511Y-98890460D01*
X131590460Y-98834511D01*
X131630021Y-98765989D01*
X131650500Y-98689562D01*
X131650500Y-98610438D01*
X131630021Y-98534011D01*
X131630017Y-98534004D01*
X131590464Y-98465495D01*
X131590458Y-98465487D01*
X131534512Y-98409541D01*
X131534504Y-98409535D01*
X131465995Y-98369982D01*
X131465990Y-98369979D01*
X131440513Y-98363152D01*
X131389562Y-98349500D01*
X131310438Y-98349500D01*
X131272224Y-98359739D01*
X131234009Y-98369979D01*
X131234004Y-98369982D01*
X131165495Y-98409535D01*
X131165487Y-98409541D01*
X131109541Y-98465487D01*
X131109535Y-98465495D01*
X131069982Y-98534004D01*
X131069979Y-98534009D01*
X131057656Y-98580000D01*
X131049500Y-98610438D01*
X118343075Y-98610438D01*
X118380000Y-98580000D01*
X118493526Y-97660438D01*
X124049500Y-97660438D01*
X124049500Y-97739562D01*
X124063152Y-97790513D01*
X124069979Y-97815990D01*
X124069982Y-97815995D01*
X124109535Y-97884504D01*
X124109539Y-97884509D01*
X124109540Y-97884511D01*
X124165489Y-97940460D01*
X124165491Y-97940461D01*
X124165495Y-97940464D01*
X124234004Y-97980017D01*
X124234011Y-97980021D01*
X124310438Y-98000500D01*
X124310440Y-98000500D01*
X124389560Y-98000500D01*
X124389562Y-98000500D01*
X124465989Y-97980021D01*
X124534511Y-97940460D01*
X124534533Y-97940438D01*
X125049500Y-97940438D01*
X125049500Y-98019562D01*
X125063152Y-98070513D01*
X125069979Y-98095990D01*
X125069982Y-98095995D01*
X125109535Y-98164504D01*
X125109539Y-98164509D01*
X125109540Y-98164511D01*
X125165489Y-98220460D01*
X125165491Y-98220461D01*
X125165495Y-98220464D01*
X125234004Y-98260017D01*
X125234011Y-98260021D01*
X125310438Y-98280500D01*
X125310440Y-98280500D01*
X125389560Y-98280500D01*
X125389562Y-98280500D01*
X125465989Y-98260021D01*
X125534511Y-98220460D01*
X125590460Y-98164511D01*
X125630021Y-98095989D01*
X125650500Y-98019562D01*
X125650500Y-97940438D01*
X125630021Y-97864011D01*
X125602297Y-97815991D01*
X125590464Y-97795495D01*
X125590458Y-97795487D01*
X125534512Y-97739541D01*
X125534504Y-97739535D01*
X125465995Y-97699982D01*
X125465990Y-97699979D01*
X125440513Y-97693152D01*
X125389562Y-97679500D01*
X125310438Y-97679500D01*
X125272224Y-97689739D01*
X125234009Y-97699979D01*
X125234004Y-97699982D01*
X125165495Y-97739535D01*
X125165487Y-97739541D01*
X125109541Y-97795487D01*
X125109535Y-97795495D01*
X125069982Y-97864004D01*
X125069979Y-97864009D01*
X125056326Y-97914962D01*
X125049500Y-97940438D01*
X124534533Y-97940438D01*
X124590460Y-97884511D01*
X124630021Y-97815989D01*
X124650500Y-97739562D01*
X124650500Y-97660438D01*
X124630021Y-97584011D01*
X124601072Y-97533870D01*
X124584600Y-97465972D01*
X124606290Y-97401606D01*
X124612731Y-97392239D01*
X124640460Y-97364511D01*
X124642812Y-97360438D01*
X131049500Y-97360438D01*
X131049500Y-97439562D01*
X131056577Y-97465972D01*
X131069979Y-97515990D01*
X131069982Y-97515995D01*
X131109535Y-97584504D01*
X131109539Y-97584509D01*
X131109540Y-97584511D01*
X131165489Y-97640460D01*
X131165491Y-97640461D01*
X131165495Y-97640464D01*
X131233109Y-97679500D01*
X131234011Y-97680021D01*
X131310438Y-97700500D01*
X131310440Y-97700500D01*
X131389560Y-97700500D01*
X131389562Y-97700500D01*
X131465989Y-97680021D01*
X131534511Y-97640460D01*
X131590460Y-97584511D01*
X131630021Y-97515989D01*
X131650500Y-97439562D01*
X131650500Y-97360438D01*
X131630021Y-97284011D01*
X131592812Y-97219562D01*
X131590464Y-97215495D01*
X131590458Y-97215487D01*
X131534512Y-97159541D01*
X131534504Y-97159535D01*
X131465995Y-97119982D01*
X131465990Y-97119979D01*
X131440513Y-97113152D01*
X131389562Y-97099500D01*
X131310438Y-97099500D01*
X131272224Y-97109739D01*
X131234009Y-97119979D01*
X131234004Y-97119982D01*
X131165495Y-97159535D01*
X131165487Y-97159541D01*
X131109541Y-97215487D01*
X131109535Y-97215495D01*
X131069982Y-97284004D01*
X131069979Y-97284009D01*
X131056326Y-97334962D01*
X131049500Y-97360438D01*
X124642812Y-97360438D01*
X124680021Y-97295989D01*
X124700500Y-97219562D01*
X124700500Y-97140438D01*
X124680021Y-97064011D01*
X124649127Y-97010500D01*
X124640464Y-96995495D01*
X124640458Y-96995487D01*
X124590869Y-96945898D01*
X124557384Y-96884575D01*
X124562368Y-96814883D01*
X124604240Y-96758950D01*
X124616551Y-96750830D01*
X124634504Y-96740464D01*
X124634503Y-96740464D01*
X124634511Y-96740460D01*
X124690460Y-96684511D01*
X124698585Y-96670438D01*
X125049500Y-96670438D01*
X125049500Y-96749562D01*
X125049840Y-96750830D01*
X125069979Y-96825990D01*
X125069982Y-96825995D01*
X125109535Y-96894504D01*
X125109539Y-96894509D01*
X125109540Y-96894511D01*
X125165489Y-96950460D01*
X125165491Y-96950461D01*
X125165495Y-96950464D01*
X125228196Y-96986664D01*
X125234011Y-96990021D01*
X125310438Y-97010500D01*
X125310440Y-97010500D01*
X125389560Y-97010500D01*
X125389562Y-97010500D01*
X125465989Y-96990021D01*
X125534511Y-96950460D01*
X125590460Y-96894511D01*
X125630021Y-96825989D01*
X125650500Y-96749562D01*
X125650500Y-96670438D01*
X125630021Y-96594011D01*
X125598584Y-96539560D01*
X125590464Y-96525495D01*
X125590458Y-96525487D01*
X125534512Y-96469541D01*
X125534504Y-96469535D01*
X125465995Y-96429982D01*
X125465990Y-96429979D01*
X125430457Y-96420458D01*
X125389562Y-96409500D01*
X125310438Y-96409500D01*
X125272224Y-96419739D01*
X125234009Y-96429979D01*
X125234004Y-96429982D01*
X125165495Y-96469535D01*
X125165487Y-96469541D01*
X125109541Y-96525487D01*
X125109535Y-96525495D01*
X125069982Y-96594004D01*
X125069979Y-96594009D01*
X125064089Y-96615992D01*
X125049500Y-96670438D01*
X124698585Y-96670438D01*
X124730021Y-96615989D01*
X124750500Y-96539562D01*
X124750500Y-96460438D01*
X124730021Y-96384011D01*
X124718759Y-96364504D01*
X124690464Y-96315495D01*
X124690458Y-96315487D01*
X124634512Y-96259541D01*
X124634504Y-96259535D01*
X124565995Y-96219982D01*
X124565990Y-96219979D01*
X124540513Y-96213152D01*
X124489562Y-96199500D01*
X124410438Y-96199500D01*
X124372224Y-96209739D01*
X124334009Y-96219979D01*
X124334004Y-96219982D01*
X124265495Y-96259535D01*
X124265487Y-96259541D01*
X124209541Y-96315487D01*
X124209535Y-96315495D01*
X124169982Y-96384004D01*
X124169979Y-96384009D01*
X124163149Y-96409500D01*
X124149500Y-96460438D01*
X124149500Y-96539562D01*
X124163152Y-96590513D01*
X124169979Y-96615990D01*
X124169982Y-96615995D01*
X124209535Y-96684504D01*
X124209541Y-96684512D01*
X124259130Y-96734101D01*
X124292615Y-96795424D01*
X124287631Y-96865116D01*
X124245759Y-96921049D01*
X124233454Y-96929167D01*
X124215490Y-96939539D01*
X124215487Y-96939541D01*
X124159541Y-96995487D01*
X124159535Y-96995495D01*
X124119982Y-97064004D01*
X124119979Y-97064009D01*
X124106326Y-97114962D01*
X124099500Y-97140438D01*
X124099500Y-97219562D01*
X124113152Y-97270513D01*
X124119979Y-97295990D01*
X124119980Y-97295991D01*
X124148926Y-97346127D01*
X124165399Y-97414027D01*
X124142546Y-97480054D01*
X124129222Y-97495807D01*
X124109538Y-97515491D01*
X124109535Y-97515495D01*
X124069982Y-97584004D01*
X124069979Y-97584009D01*
X124056326Y-97634962D01*
X124049500Y-97660438D01*
X118493526Y-97660438D01*
X118576708Y-96986663D01*
X118594032Y-96937090D01*
X118603857Y-96921049D01*
X118855071Y-96510902D01*
X118906872Y-96464018D01*
X118913362Y-96461109D01*
X118915986Y-96460021D01*
X118915989Y-96460021D01*
X118915991Y-96460019D01*
X118915993Y-96460019D01*
X118984504Y-96420464D01*
X118984503Y-96420464D01*
X118984511Y-96420460D01*
X119040460Y-96364511D01*
X119080021Y-96295989D01*
X119100500Y-96219562D01*
X119100500Y-96140438D01*
X119080021Y-96064011D01*
X119077958Y-96060438D01*
X131049500Y-96060438D01*
X131049500Y-96139562D01*
X131063152Y-96190513D01*
X131069979Y-96215990D01*
X131069982Y-96215995D01*
X131109535Y-96284504D01*
X131109539Y-96284509D01*
X131109540Y-96284511D01*
X131165489Y-96340460D01*
X131165491Y-96340461D01*
X131165495Y-96340464D01*
X131207148Y-96364512D01*
X131234011Y-96380021D01*
X131310438Y-96400500D01*
X131310440Y-96400500D01*
X131389560Y-96400500D01*
X131389562Y-96400500D01*
X131465989Y-96380021D01*
X131534511Y-96340460D01*
X131590460Y-96284511D01*
X131630021Y-96215989D01*
X131650500Y-96139562D01*
X131650500Y-96060438D01*
X131630021Y-95984011D01*
X131630017Y-95984004D01*
X131590464Y-95915495D01*
X131590458Y-95915487D01*
X131534512Y-95859541D01*
X131534504Y-95859535D01*
X131465995Y-95819982D01*
X131465990Y-95819979D01*
X131440513Y-95813152D01*
X131389562Y-95799500D01*
X131310438Y-95799500D01*
X131272224Y-95809739D01*
X131234009Y-95819979D01*
X131234004Y-95819982D01*
X131165495Y-95859535D01*
X131165487Y-95859541D01*
X131109541Y-95915487D01*
X131109535Y-95915495D01*
X131069982Y-95984004D01*
X131069979Y-95984009D01*
X131056326Y-96034962D01*
X131049500Y-96060438D01*
X119077958Y-96060438D01*
X119040464Y-95995495D01*
X119040458Y-95995487D01*
X118984512Y-95939541D01*
X118984504Y-95939535D01*
X118915995Y-95899982D01*
X118915990Y-95899979D01*
X118839559Y-95879499D01*
X118831503Y-95878439D01*
X118831919Y-95875278D01*
X118780999Y-95860691D01*
X117370790Y-94980493D01*
X117369303Y-94979551D01*
X116857357Y-94649822D01*
X116851475Y-94643021D01*
X116843297Y-94639286D01*
X116828978Y-94617005D01*
X116811654Y-94596972D01*
X116809385Y-94586518D01*
X116805523Y-94580508D01*
X116800500Y-94545573D01*
X116800500Y-94460438D01*
X118449500Y-94460438D01*
X118449500Y-94539562D01*
X118460472Y-94580508D01*
X118469979Y-94615990D01*
X118469982Y-94615995D01*
X118509535Y-94684504D01*
X118509539Y-94684509D01*
X118509540Y-94684511D01*
X118565489Y-94740460D01*
X118565491Y-94740461D01*
X118565495Y-94740464D01*
X118634004Y-94780017D01*
X118634011Y-94780021D01*
X118710438Y-94800500D01*
X118710440Y-94800500D01*
X118789560Y-94800500D01*
X118789562Y-94800500D01*
X118865989Y-94780021D01*
X118934511Y-94740460D01*
X118990460Y-94684511D01*
X119030021Y-94615989D01*
X119050500Y-94539562D01*
X119050500Y-94460438D01*
X119039782Y-94420438D01*
X119749500Y-94420438D01*
X119749500Y-94499562D01*
X119751224Y-94505995D01*
X119769979Y-94575990D01*
X119769982Y-94575995D01*
X119809535Y-94644504D01*
X119809539Y-94644509D01*
X119809540Y-94644511D01*
X119865489Y-94700460D01*
X119934011Y-94740021D01*
X119934013Y-94740021D01*
X119938935Y-94742863D01*
X119963643Y-94761607D01*
X120330000Y-95120000D01*
X120330001Y-95119999D01*
X120338565Y-95123047D01*
X120358998Y-95132485D01*
X120424011Y-95170021D01*
X120500438Y-95190500D01*
X120500440Y-95190500D01*
X120579560Y-95190500D01*
X120579562Y-95190500D01*
X120655989Y-95170021D01*
X120689908Y-95150438D01*
X121249500Y-95150438D01*
X121249500Y-95229562D01*
X121256449Y-95255495D01*
X121269979Y-95305990D01*
X121269982Y-95305995D01*
X121309535Y-95374504D01*
X121309539Y-95374509D01*
X121309540Y-95374511D01*
X121365489Y-95430460D01*
X121365491Y-95430461D01*
X121365495Y-95430464D01*
X121434004Y-95470017D01*
X121434011Y-95470021D01*
X121510438Y-95490500D01*
X121510440Y-95490500D01*
X121589560Y-95490500D01*
X121589562Y-95490500D01*
X121665989Y-95470021D01*
X121734511Y-95430460D01*
X121764533Y-95400438D01*
X125049500Y-95400438D01*
X125049500Y-95479562D01*
X125052431Y-95490500D01*
X125069979Y-95555990D01*
X125069982Y-95555995D01*
X125109535Y-95624504D01*
X125109539Y-95624509D01*
X125109540Y-95624511D01*
X125165489Y-95680460D01*
X125165491Y-95680461D01*
X125165495Y-95680464D01*
X125234004Y-95720017D01*
X125234011Y-95720021D01*
X125310438Y-95740500D01*
X125310440Y-95740500D01*
X125389560Y-95740500D01*
X125389562Y-95740500D01*
X125465989Y-95720021D01*
X125534511Y-95680460D01*
X125590460Y-95624511D01*
X125630021Y-95555989D01*
X125650500Y-95479562D01*
X125650500Y-95400438D01*
X125630021Y-95324011D01*
X125619620Y-95305995D01*
X125590464Y-95255495D01*
X125590458Y-95255487D01*
X125534512Y-95199541D01*
X125534504Y-95199535D01*
X125465995Y-95159982D01*
X125465990Y-95159979D01*
X125430382Y-95150438D01*
X125389562Y-95139500D01*
X125310438Y-95139500D01*
X125272224Y-95149739D01*
X125234009Y-95159979D01*
X125234004Y-95159982D01*
X125165495Y-95199535D01*
X125165487Y-95199541D01*
X125109541Y-95255487D01*
X125109535Y-95255495D01*
X125069982Y-95324004D01*
X125069979Y-95324009D01*
X125068291Y-95330309D01*
X125049500Y-95400438D01*
X121764533Y-95400438D01*
X121790460Y-95374511D01*
X121798550Y-95360496D01*
X121815980Y-95330310D01*
X121815980Y-95330309D01*
X121819620Y-95324004D01*
X121830021Y-95305989D01*
X121850500Y-95229562D01*
X121850500Y-95150438D01*
X121830021Y-95074011D01*
X121818523Y-95054096D01*
X121790464Y-95005495D01*
X121790458Y-95005487D01*
X121734512Y-94949541D01*
X121734504Y-94949535D01*
X121665995Y-94909982D01*
X121665990Y-94909979D01*
X121640513Y-94903152D01*
X121589562Y-94889500D01*
X121510438Y-94889500D01*
X121472224Y-94899739D01*
X121434009Y-94909979D01*
X121434004Y-94909982D01*
X121365495Y-94949535D01*
X121365487Y-94949541D01*
X121309541Y-95005487D01*
X121309535Y-95005495D01*
X121269982Y-95074004D01*
X121269979Y-95074009D01*
X121257992Y-95118747D01*
X121249500Y-95150438D01*
X120689908Y-95150438D01*
X120724511Y-95130460D01*
X120780460Y-95074511D01*
X120780462Y-95074506D01*
X120783383Y-95070701D01*
X120798719Y-95054096D01*
X120803009Y-95050227D01*
X120881367Y-94979551D01*
X121135390Y-94750431D01*
X121159572Y-94735165D01*
X121158949Y-94734086D01*
X121217190Y-94700460D01*
X121234511Y-94690460D01*
X121290460Y-94634511D01*
X121330021Y-94565989D01*
X121350500Y-94489562D01*
X121350500Y-94410438D01*
X121334423Y-94350438D01*
X121759500Y-94350438D01*
X121759500Y-94429562D01*
X121767774Y-94460439D01*
X121779979Y-94505990D01*
X121779982Y-94505995D01*
X121819535Y-94574504D01*
X121819539Y-94574509D01*
X121819540Y-94574511D01*
X121875489Y-94630460D01*
X121875491Y-94630461D01*
X121875495Y-94630464D01*
X121909025Y-94649822D01*
X121944011Y-94670021D01*
X122020438Y-94690500D01*
X122020440Y-94690500D01*
X122099560Y-94690500D01*
X122099562Y-94690500D01*
X122175989Y-94670021D01*
X122244511Y-94630460D01*
X122257319Y-94617652D01*
X122318642Y-94584167D01*
X122388334Y-94589151D01*
X122432681Y-94617652D01*
X122445489Y-94630460D01*
X122445491Y-94630461D01*
X122445495Y-94630464D01*
X122479025Y-94649822D01*
X122514011Y-94670021D01*
X122590438Y-94690500D01*
X122590440Y-94690500D01*
X122669560Y-94690500D01*
X122669562Y-94690500D01*
X122745989Y-94670021D01*
X122814511Y-94630460D01*
X122870460Y-94574511D01*
X122910021Y-94505989D01*
X122930500Y-94429562D01*
X122930500Y-94350438D01*
X122910021Y-94274011D01*
X122890653Y-94240464D01*
X122870464Y-94205495D01*
X122870458Y-94205487D01*
X122814512Y-94149541D01*
X122814504Y-94149535D01*
X122746785Y-94110438D01*
X124049500Y-94110438D01*
X124049500Y-94189562D01*
X124057651Y-94219982D01*
X124069979Y-94265990D01*
X124069982Y-94265995D01*
X124109535Y-94334504D01*
X124109539Y-94334509D01*
X124109540Y-94334511D01*
X124165489Y-94390460D01*
X124165491Y-94390461D01*
X124165495Y-94390464D01*
X124233216Y-94429562D01*
X124234011Y-94430021D01*
X124310438Y-94450500D01*
X124310440Y-94450500D01*
X124389560Y-94450500D01*
X124389562Y-94450500D01*
X124465989Y-94430021D01*
X124534511Y-94390460D01*
X124587319Y-94337652D01*
X124648642Y-94304167D01*
X124718334Y-94309151D01*
X124762681Y-94337652D01*
X124815489Y-94390460D01*
X124815491Y-94390461D01*
X124815495Y-94390464D01*
X124883216Y-94429562D01*
X124884011Y-94430021D01*
X124960438Y-94450500D01*
X124960440Y-94450500D01*
X125039560Y-94450500D01*
X125039562Y-94450500D01*
X125115989Y-94430021D01*
X125184511Y-94390460D01*
X125240460Y-94334511D01*
X125280021Y-94265989D01*
X125300500Y-94189562D01*
X125300500Y-94110438D01*
X125280021Y-94034011D01*
X125255102Y-93990849D01*
X125240464Y-93965495D01*
X125240458Y-93965487D01*
X125235409Y-93960438D01*
X131339500Y-93960438D01*
X131339500Y-94039562D01*
X131352881Y-94089500D01*
X131359979Y-94115990D01*
X131359982Y-94115995D01*
X131399535Y-94184504D01*
X131399539Y-94184509D01*
X131399540Y-94184511D01*
X131455489Y-94240460D01*
X131455491Y-94240461D01*
X131455495Y-94240464D01*
X131499708Y-94265990D01*
X131524011Y-94280021D01*
X131600438Y-94300500D01*
X131600440Y-94300500D01*
X131679560Y-94300500D01*
X131679562Y-94300500D01*
X131755989Y-94280021D01*
X131824511Y-94240460D01*
X131880460Y-94184511D01*
X131920021Y-94115989D01*
X131940500Y-94039562D01*
X131940500Y-93960438D01*
X131920021Y-93884011D01*
X131920017Y-93884004D01*
X131880464Y-93815495D01*
X131880458Y-93815487D01*
X131824512Y-93759541D01*
X131824504Y-93759535D01*
X131755995Y-93719982D01*
X131755990Y-93719979D01*
X131730513Y-93713152D01*
X131679562Y-93699500D01*
X131600438Y-93699500D01*
X131562224Y-93709739D01*
X131524009Y-93719979D01*
X131524004Y-93719982D01*
X131455495Y-93759535D01*
X131455487Y-93759541D01*
X131399541Y-93815487D01*
X131399535Y-93815495D01*
X131359982Y-93884004D01*
X131359979Y-93884009D01*
X131353138Y-93909540D01*
X131339500Y-93960438D01*
X125235409Y-93960438D01*
X125184512Y-93909541D01*
X125184504Y-93909535D01*
X125115995Y-93869982D01*
X125115990Y-93869979D01*
X125090513Y-93863152D01*
X125039562Y-93849500D01*
X124960438Y-93849500D01*
X124922224Y-93859739D01*
X124884009Y-93869979D01*
X124884004Y-93869982D01*
X124815495Y-93909535D01*
X124815487Y-93909541D01*
X124762681Y-93962348D01*
X124701358Y-93995833D01*
X124631666Y-93990849D01*
X124587319Y-93962348D01*
X124534512Y-93909541D01*
X124534504Y-93909535D01*
X124465995Y-93869982D01*
X124465990Y-93869979D01*
X124440513Y-93863152D01*
X124389562Y-93849500D01*
X124310438Y-93849500D01*
X124272224Y-93859739D01*
X124234009Y-93869979D01*
X124234004Y-93869982D01*
X124165495Y-93909535D01*
X124165487Y-93909541D01*
X124109541Y-93965487D01*
X124109535Y-93965495D01*
X124069982Y-94034004D01*
X124069979Y-94034009D01*
X124056326Y-94084962D01*
X124049500Y-94110438D01*
X122746785Y-94110438D01*
X122745995Y-94109982D01*
X122745990Y-94109979D01*
X122720513Y-94103152D01*
X122669562Y-94089500D01*
X122590438Y-94089500D01*
X122552224Y-94099739D01*
X122514009Y-94109979D01*
X122514004Y-94109982D01*
X122445495Y-94149535D01*
X122445487Y-94149541D01*
X122432681Y-94162348D01*
X122371358Y-94195833D01*
X122301666Y-94190849D01*
X122257319Y-94162348D01*
X122244512Y-94149541D01*
X122244504Y-94149535D01*
X122175995Y-94109982D01*
X122175990Y-94109979D01*
X122150513Y-94103152D01*
X122099562Y-94089500D01*
X122020438Y-94089500D01*
X121982224Y-94099739D01*
X121944009Y-94109979D01*
X121944004Y-94109982D01*
X121875495Y-94149535D01*
X121875487Y-94149541D01*
X121819541Y-94205487D01*
X121819535Y-94205495D01*
X121779982Y-94274004D01*
X121779979Y-94274009D01*
X121770563Y-94309151D01*
X121759500Y-94350438D01*
X121334423Y-94350438D01*
X121330021Y-94334011D01*
X121319331Y-94315495D01*
X121290464Y-94265495D01*
X121290458Y-94265487D01*
X121234512Y-94209541D01*
X121234504Y-94209535D01*
X121165995Y-94169982D01*
X121165990Y-94169979D01*
X121137510Y-94162348D01*
X121089562Y-94149500D01*
X121010438Y-94149500D01*
X120962490Y-94162348D01*
X120934007Y-94169980D01*
X120929051Y-94172842D01*
X120865504Y-94189443D01*
X120184343Y-94180928D01*
X120153801Y-94176713D01*
X120089562Y-94159500D01*
X120010438Y-94159500D01*
X119972224Y-94169739D01*
X119934009Y-94179979D01*
X119934004Y-94179982D01*
X119865495Y-94219535D01*
X119865487Y-94219541D01*
X119809541Y-94275487D01*
X119809535Y-94275495D01*
X119769982Y-94344004D01*
X119769979Y-94344009D01*
X119761835Y-94374404D01*
X119749500Y-94420438D01*
X119039782Y-94420438D01*
X119030021Y-94384011D01*
X119030017Y-94384004D01*
X118990464Y-94315495D01*
X118990458Y-94315487D01*
X118934512Y-94259541D01*
X118934504Y-94259535D01*
X118865995Y-94219982D01*
X118865990Y-94219979D01*
X118840513Y-94213152D01*
X118789562Y-94199500D01*
X118710438Y-94199500D01*
X118672988Y-94209535D01*
X118634009Y-94219979D01*
X118634004Y-94219982D01*
X118565495Y-94259535D01*
X118565487Y-94259541D01*
X118509541Y-94315487D01*
X118509535Y-94315495D01*
X118469982Y-94384004D01*
X118469979Y-94384009D01*
X118462897Y-94410439D01*
X118449500Y-94460438D01*
X116800500Y-94460438D01*
X116800500Y-93310438D01*
X117999500Y-93310438D01*
X117999500Y-93389562D01*
X118011410Y-93434009D01*
X118019979Y-93465990D01*
X118019982Y-93465995D01*
X118059535Y-93534504D01*
X118059539Y-93534509D01*
X118059540Y-93534511D01*
X118115489Y-93590460D01*
X118115491Y-93590461D01*
X118115495Y-93590464D01*
X118184004Y-93630017D01*
X118184011Y-93630021D01*
X118260438Y-93650500D01*
X118260440Y-93650500D01*
X118339560Y-93650500D01*
X118339562Y-93650500D01*
X118415989Y-93630021D01*
X118484511Y-93590460D01*
X118540460Y-93534511D01*
X118554358Y-93510438D01*
X130199500Y-93510438D01*
X130199500Y-93589562D01*
X130199741Y-93590460D01*
X130219979Y-93665990D01*
X130219982Y-93665995D01*
X130259535Y-93734504D01*
X130259539Y-93734509D01*
X130259540Y-93734511D01*
X130315489Y-93790460D01*
X130315491Y-93790461D01*
X130315495Y-93790464D01*
X130384004Y-93830017D01*
X130384007Y-93830019D01*
X130384011Y-93830021D01*
X130460438Y-93850500D01*
X130460440Y-93850500D01*
X130539560Y-93850500D01*
X130539562Y-93850500D01*
X130615989Y-93830021D01*
X130684511Y-93790460D01*
X130740460Y-93734511D01*
X130780021Y-93665989D01*
X130800500Y-93589562D01*
X130800500Y-93510438D01*
X130780021Y-93434011D01*
X130780017Y-93434004D01*
X130740464Y-93365495D01*
X130740458Y-93365487D01*
X130684512Y-93309541D01*
X130684504Y-93309535D01*
X130615995Y-93269982D01*
X130615990Y-93269979D01*
X130590513Y-93263152D01*
X130539562Y-93249500D01*
X130460438Y-93249500D01*
X130422224Y-93259739D01*
X130384009Y-93269979D01*
X130384004Y-93269982D01*
X130315495Y-93309535D01*
X130315487Y-93309541D01*
X130259541Y-93365487D01*
X130259535Y-93365495D01*
X130219982Y-93434004D01*
X130219979Y-93434009D01*
X130211410Y-93465989D01*
X130199500Y-93510438D01*
X118554358Y-93510438D01*
X118580021Y-93465989D01*
X118600500Y-93389562D01*
X118600500Y-93310438D01*
X118580021Y-93234011D01*
X118558612Y-93196929D01*
X118540464Y-93165495D01*
X118540458Y-93165487D01*
X118484512Y-93109541D01*
X118484504Y-93109535D01*
X118415995Y-93069982D01*
X118415990Y-93069979D01*
X118390513Y-93063152D01*
X118339562Y-93049500D01*
X118260438Y-93049500D01*
X118222224Y-93059739D01*
X118184009Y-93069979D01*
X118184004Y-93069982D01*
X118115495Y-93109535D01*
X118115487Y-93109541D01*
X118059541Y-93165487D01*
X118059535Y-93165495D01*
X118019982Y-93234004D01*
X118019979Y-93234009D01*
X118010341Y-93269979D01*
X117999500Y-93310438D01*
X116800500Y-93310438D01*
X116800500Y-93120010D01*
X116800499Y-93120007D01*
X116796161Y-93109535D01*
X116785200Y-93083071D01*
X116756929Y-93054800D01*
X116756928Y-93054799D01*
X116719992Y-93039500D01*
X116719991Y-93039500D01*
X115111605Y-93039500D01*
X115044566Y-93019815D01*
X114998811Y-92967011D01*
X114988867Y-92897853D01*
X115017892Y-92834297D01*
X115049604Y-92808113D01*
X115084511Y-92787960D01*
X115140460Y-92732011D01*
X115180021Y-92663489D01*
X115200500Y-92587062D01*
X115200500Y-92507938D01*
X115187772Y-92460438D01*
X117999500Y-92460438D01*
X117999500Y-92539562D01*
X118012227Y-92587060D01*
X118019979Y-92615990D01*
X118019982Y-92615995D01*
X118059535Y-92684504D01*
X118059539Y-92684509D01*
X118059540Y-92684511D01*
X118115489Y-92740460D01*
X118115491Y-92740461D01*
X118115495Y-92740464D01*
X118184004Y-92780017D01*
X118184011Y-92780021D01*
X118260438Y-92800500D01*
X118260440Y-92800500D01*
X118339560Y-92800500D01*
X118339562Y-92800500D01*
X118415989Y-92780021D01*
X118484511Y-92740460D01*
X118540460Y-92684511D01*
X118580021Y-92615989D01*
X118600500Y-92539562D01*
X118600500Y-92460438D01*
X118580021Y-92384011D01*
X118580017Y-92384004D01*
X118540464Y-92315495D01*
X118540458Y-92315487D01*
X118484512Y-92259541D01*
X118484504Y-92259535D01*
X118415995Y-92219982D01*
X118415990Y-92219979D01*
X118390513Y-92213152D01*
X118339562Y-92199500D01*
X118260438Y-92199500D01*
X118222224Y-92209739D01*
X118184009Y-92219979D01*
X118184004Y-92219982D01*
X118115495Y-92259535D01*
X118115487Y-92259541D01*
X118059541Y-92315487D01*
X118059535Y-92315495D01*
X118019982Y-92384004D01*
X118019979Y-92384009D01*
X118007253Y-92431504D01*
X117999500Y-92460438D01*
X115187772Y-92460438D01*
X115180021Y-92431511D01*
X115152593Y-92384004D01*
X115140464Y-92362995D01*
X115140458Y-92362987D01*
X115084512Y-92307041D01*
X115084504Y-92307035D01*
X115015995Y-92267482D01*
X115015990Y-92267479D01*
X114990513Y-92260652D01*
X114939562Y-92247000D01*
X114860438Y-92247000D01*
X114822224Y-92257239D01*
X114784009Y-92267479D01*
X114784004Y-92267482D01*
X114715495Y-92307035D01*
X114715487Y-92307041D01*
X114659541Y-92362987D01*
X114659535Y-92362995D01*
X114619982Y-92431504D01*
X114619979Y-92431509D01*
X114606326Y-92482462D01*
X114599500Y-92507938D01*
X114599500Y-92587062D01*
X114607253Y-92615995D01*
X114619979Y-92663490D01*
X114619982Y-92663495D01*
X114659535Y-92732004D01*
X114659539Y-92732009D01*
X114659540Y-92732011D01*
X114715489Y-92787960D01*
X114750394Y-92808112D01*
X114798610Y-92858679D01*
X114811834Y-92927286D01*
X114785866Y-92992151D01*
X114728952Y-93032680D01*
X114688395Y-93039500D01*
X111894500Y-93039500D01*
X111827461Y-93019815D01*
X111781706Y-92967011D01*
X111770500Y-92915500D01*
X111770500Y-91180438D01*
X114119500Y-91180438D01*
X114119500Y-91259562D01*
X114121090Y-91265495D01*
X114139979Y-91335990D01*
X114139982Y-91335995D01*
X114179535Y-91404504D01*
X114179539Y-91404509D01*
X114179540Y-91404511D01*
X114235489Y-91460460D01*
X114235491Y-91460461D01*
X114235495Y-91460464D01*
X114304004Y-91500017D01*
X114304011Y-91500021D01*
X114380438Y-91520500D01*
X114380440Y-91520500D01*
X114459560Y-91520500D01*
X114459562Y-91520500D01*
X114535989Y-91500021D01*
X114604511Y-91460460D01*
X114660460Y-91404511D01*
X114700021Y-91335989D01*
X114720500Y-91259562D01*
X114720500Y-91180438D01*
X114715141Y-91160438D01*
X115369500Y-91160438D01*
X115369500Y-91239562D01*
X115376449Y-91265495D01*
X115389979Y-91315990D01*
X115389982Y-91315995D01*
X115429535Y-91384504D01*
X115429539Y-91384509D01*
X115429540Y-91384511D01*
X115485489Y-91440460D01*
X115485491Y-91440461D01*
X115485495Y-91440464D01*
X115520130Y-91460460D01*
X115554011Y-91480021D01*
X115630438Y-91500500D01*
X115630440Y-91500500D01*
X115709560Y-91500500D01*
X115709562Y-91500500D01*
X115785989Y-91480021D01*
X115854511Y-91440460D01*
X115910460Y-91384511D01*
X115950021Y-91315989D01*
X115970500Y-91239562D01*
X115970500Y-91210438D01*
X120299500Y-91210438D01*
X120299500Y-91289562D01*
X120311410Y-91334009D01*
X120319979Y-91365990D01*
X120319982Y-91365995D01*
X120359535Y-91434504D01*
X120359539Y-91434509D01*
X120359540Y-91434511D01*
X120415489Y-91490460D01*
X120415491Y-91490461D01*
X120415495Y-91490464D01*
X120466690Y-91520021D01*
X120484011Y-91530021D01*
X120560438Y-91550500D01*
X120560440Y-91550500D01*
X120639560Y-91550500D01*
X120639562Y-91550500D01*
X120715989Y-91530021D01*
X120784511Y-91490460D01*
X120837319Y-91437652D01*
X120898642Y-91404167D01*
X120968334Y-91409151D01*
X121012681Y-91437652D01*
X121065489Y-91490460D01*
X121065491Y-91490461D01*
X121065495Y-91490464D01*
X121116690Y-91520021D01*
X121134011Y-91530021D01*
X121210438Y-91550500D01*
X121210440Y-91550500D01*
X121289560Y-91550500D01*
X121289562Y-91550500D01*
X121365989Y-91530021D01*
X121434511Y-91490460D01*
X121464533Y-91460438D01*
X122849500Y-91460438D01*
X122849500Y-91539562D01*
X122856582Y-91565990D01*
X122869979Y-91615990D01*
X122869982Y-91615995D01*
X122909535Y-91684504D01*
X122909539Y-91684509D01*
X122909540Y-91684511D01*
X122965489Y-91740460D01*
X122965491Y-91740461D01*
X122965495Y-91740464D01*
X123034004Y-91780017D01*
X123034011Y-91780021D01*
X123110438Y-91800500D01*
X123110440Y-91800500D01*
X123189560Y-91800500D01*
X123189562Y-91800500D01*
X123265989Y-91780021D01*
X123334511Y-91740460D01*
X123390460Y-91684511D01*
X123430021Y-91615989D01*
X123450500Y-91539562D01*
X123450500Y-91460438D01*
X123430021Y-91384011D01*
X123390460Y-91315489D01*
X123335409Y-91260438D01*
X124249500Y-91260438D01*
X124249500Y-91339562D01*
X124261410Y-91384009D01*
X124269979Y-91415990D01*
X124269982Y-91415995D01*
X124309535Y-91484504D01*
X124309539Y-91484509D01*
X124309540Y-91484511D01*
X124365489Y-91540460D01*
X124365491Y-91540461D01*
X124365495Y-91540464D01*
X124409708Y-91565990D01*
X124434011Y-91580021D01*
X124510438Y-91600500D01*
X124510440Y-91600500D01*
X124589560Y-91600500D01*
X124589562Y-91600500D01*
X124665989Y-91580021D01*
X124734511Y-91540460D01*
X124790460Y-91484511D01*
X124830021Y-91415989D01*
X124850500Y-91339562D01*
X124850500Y-91260438D01*
X124834423Y-91200438D01*
X125827000Y-91200438D01*
X125827000Y-91279562D01*
X125837838Y-91320009D01*
X125847479Y-91355990D01*
X125847482Y-91355995D01*
X125887035Y-91424504D01*
X125887039Y-91424509D01*
X125887040Y-91424511D01*
X125942989Y-91480460D01*
X125942991Y-91480461D01*
X125942995Y-91480464D01*
X125977699Y-91500500D01*
X126011511Y-91520021D01*
X126087938Y-91540500D01*
X126087940Y-91540500D01*
X126167060Y-91540500D01*
X126167062Y-91540500D01*
X126243489Y-91520021D01*
X126312011Y-91480460D01*
X126367960Y-91424511D01*
X126376085Y-91410438D01*
X131099500Y-91410438D01*
X131099500Y-91489562D01*
X131107662Y-91520021D01*
X131119979Y-91565990D01*
X131119982Y-91565995D01*
X131159535Y-91634504D01*
X131159539Y-91634509D01*
X131159540Y-91634511D01*
X131215489Y-91690460D01*
X131215491Y-91690461D01*
X131215495Y-91690464D01*
X131284004Y-91730017D01*
X131284011Y-91730021D01*
X131360438Y-91750500D01*
X131360440Y-91750500D01*
X131439560Y-91750500D01*
X131439562Y-91750500D01*
X131515989Y-91730021D01*
X131584511Y-91690460D01*
X131640460Y-91634511D01*
X131680021Y-91565989D01*
X131700500Y-91489562D01*
X131700500Y-91410438D01*
X131680021Y-91334011D01*
X131669329Y-91315491D01*
X131640464Y-91265495D01*
X131640458Y-91265487D01*
X131584512Y-91209541D01*
X131584504Y-91209535D01*
X131515995Y-91169982D01*
X131515990Y-91169979D01*
X131480382Y-91160438D01*
X131439562Y-91149500D01*
X131360438Y-91149500D01*
X131322224Y-91159739D01*
X131284009Y-91169979D01*
X131284004Y-91169982D01*
X131215495Y-91209535D01*
X131215487Y-91209541D01*
X131159541Y-91265487D01*
X131159535Y-91265495D01*
X131119982Y-91334004D01*
X131119979Y-91334009D01*
X131114089Y-91355992D01*
X131099500Y-91410438D01*
X126376085Y-91410438D01*
X126407521Y-91355989D01*
X126428000Y-91279562D01*
X126428000Y-91200438D01*
X126407521Y-91124011D01*
X126373737Y-91065495D01*
X126367964Y-91055495D01*
X126367958Y-91055487D01*
X126312012Y-90999541D01*
X126312004Y-90999535D01*
X126243495Y-90959982D01*
X126243490Y-90959979D01*
X126218013Y-90953152D01*
X126167062Y-90939500D01*
X126087938Y-90939500D01*
X126050618Y-90949500D01*
X126011509Y-90959979D01*
X126011504Y-90959982D01*
X125942995Y-90999535D01*
X125942987Y-90999541D01*
X125887041Y-91055487D01*
X125887035Y-91055495D01*
X125847482Y-91124004D01*
X125847479Y-91124009D01*
X125844801Y-91134004D01*
X125827000Y-91200438D01*
X124834423Y-91200438D01*
X124830021Y-91184011D01*
X124827958Y-91180438D01*
X124790464Y-91115495D01*
X124790458Y-91115487D01*
X124734512Y-91059541D01*
X124734504Y-91059535D01*
X124665995Y-91019982D01*
X124665990Y-91019979D01*
X124640513Y-91013152D01*
X124589562Y-90999500D01*
X124510438Y-90999500D01*
X124472988Y-91009535D01*
X124434009Y-91019979D01*
X124434004Y-91019982D01*
X124365495Y-91059535D01*
X124365487Y-91059541D01*
X124309541Y-91115487D01*
X124309535Y-91115495D01*
X124269982Y-91184004D01*
X124269979Y-91184009D01*
X124262897Y-91210439D01*
X124249500Y-91260438D01*
X123335409Y-91260438D01*
X123334511Y-91259540D01*
X123334509Y-91259539D01*
X123334504Y-91259535D01*
X123265995Y-91219982D01*
X123265990Y-91219979D01*
X123230382Y-91210438D01*
X123189562Y-91199500D01*
X123110438Y-91199500D01*
X123072988Y-91209535D01*
X123034009Y-91219979D01*
X123034004Y-91219982D01*
X122965495Y-91259535D01*
X122965487Y-91259541D01*
X122909541Y-91315487D01*
X122909535Y-91315495D01*
X122869982Y-91384004D01*
X122869979Y-91384009D01*
X122856449Y-91434504D01*
X122849500Y-91460438D01*
X121464533Y-91460438D01*
X121490460Y-91434511D01*
X121504358Y-91410439D01*
X121515980Y-91390310D01*
X121515980Y-91390309D01*
X121519620Y-91384004D01*
X121530021Y-91365989D01*
X121550500Y-91289562D01*
X121550500Y-91210438D01*
X121530021Y-91134011D01*
X121524246Y-91124009D01*
X121490464Y-91065495D01*
X121490458Y-91065487D01*
X121434512Y-91009541D01*
X121434504Y-91009535D01*
X121365995Y-90969982D01*
X121365990Y-90969979D01*
X121340513Y-90963152D01*
X121289562Y-90949500D01*
X121210438Y-90949500D01*
X121172988Y-90959535D01*
X121134009Y-90969979D01*
X121134004Y-90969982D01*
X121065495Y-91009535D01*
X121065487Y-91009541D01*
X121012681Y-91062348D01*
X120951358Y-91095833D01*
X120881666Y-91090849D01*
X120837319Y-91062348D01*
X120784512Y-91009541D01*
X120784504Y-91009535D01*
X120715995Y-90969982D01*
X120715990Y-90969979D01*
X120690513Y-90963152D01*
X120639562Y-90949500D01*
X120560438Y-90949500D01*
X120522988Y-90959535D01*
X120484009Y-90969979D01*
X120484004Y-90969982D01*
X120415495Y-91009535D01*
X120415487Y-91009541D01*
X120359541Y-91065487D01*
X120359535Y-91065495D01*
X120319982Y-91134004D01*
X120319979Y-91134009D01*
X120312897Y-91160439D01*
X120299500Y-91210438D01*
X115970500Y-91210438D01*
X115970500Y-91160438D01*
X115950021Y-91084011D01*
X115939331Y-91065495D01*
X115910464Y-91015495D01*
X115910458Y-91015487D01*
X115854512Y-90959541D01*
X115854504Y-90959535D01*
X115785995Y-90919982D01*
X115785990Y-90919979D01*
X115760513Y-90913152D01*
X115709562Y-90899500D01*
X115630438Y-90899500D01*
X115592224Y-90909739D01*
X115554009Y-90919979D01*
X115554004Y-90919982D01*
X115485495Y-90959535D01*
X115485487Y-90959541D01*
X115429541Y-91015487D01*
X115429535Y-91015495D01*
X115389982Y-91084004D01*
X115389979Y-91084009D01*
X115379263Y-91124004D01*
X115369500Y-91160438D01*
X114715141Y-91160438D01*
X114700021Y-91104011D01*
X114700017Y-91104004D01*
X114660464Y-91035495D01*
X114660458Y-91035487D01*
X114604512Y-90979541D01*
X114604504Y-90979535D01*
X114535995Y-90939982D01*
X114535990Y-90939979D01*
X114510513Y-90933152D01*
X114459562Y-90919500D01*
X114380438Y-90919500D01*
X114342224Y-90929739D01*
X114304009Y-90939979D01*
X114304004Y-90939982D01*
X114235495Y-90979535D01*
X114235487Y-90979541D01*
X114179541Y-91035487D01*
X114179535Y-91035495D01*
X114139982Y-91104004D01*
X114139979Y-91104009D01*
X114134620Y-91124009D01*
X114119500Y-91180438D01*
X111770500Y-91180438D01*
X111770500Y-89840438D01*
X114089500Y-89840438D01*
X114089500Y-89919562D01*
X114103152Y-89970513D01*
X114109979Y-89995990D01*
X114109982Y-89995995D01*
X114149535Y-90064504D01*
X114149539Y-90064509D01*
X114149540Y-90064511D01*
X114205489Y-90120460D01*
X114205491Y-90120461D01*
X114205495Y-90120464D01*
X114268539Y-90156862D01*
X114274011Y-90160021D01*
X114350438Y-90180500D01*
X114350440Y-90180500D01*
X114429560Y-90180500D01*
X114429562Y-90180500D01*
X114505989Y-90160021D01*
X114574511Y-90120460D01*
X114630460Y-90064511D01*
X114670021Y-89995989D01*
X114690500Y-89919562D01*
X114690500Y-89840438D01*
X114670021Y-89764011D01*
X114670017Y-89764004D01*
X114630464Y-89695495D01*
X114630458Y-89695487D01*
X114574512Y-89639541D01*
X114574504Y-89639535D01*
X114505995Y-89599982D01*
X114505990Y-89599979D01*
X114480513Y-89593152D01*
X114429562Y-89579500D01*
X114350438Y-89579500D01*
X114312224Y-89589739D01*
X114274009Y-89599979D01*
X114274004Y-89599982D01*
X114205495Y-89639535D01*
X114205487Y-89639541D01*
X114149541Y-89695487D01*
X114149535Y-89695495D01*
X114109982Y-89764004D01*
X114109979Y-89764009D01*
X114096326Y-89814962D01*
X114089500Y-89840438D01*
X111770500Y-89840438D01*
X111770500Y-89536379D01*
X117659500Y-89536379D01*
X117659500Y-89723620D01*
X117696025Y-89907243D01*
X117696027Y-89907251D01*
X117767676Y-90080228D01*
X117767681Y-90080237D01*
X117871697Y-90235907D01*
X117871700Y-90235911D01*
X118004088Y-90368299D01*
X118004092Y-90368302D01*
X118159762Y-90472318D01*
X118159768Y-90472321D01*
X118159769Y-90472322D01*
X118332749Y-90543973D01*
X118516379Y-90580499D01*
X118516383Y-90580500D01*
X118516384Y-90580500D01*
X118703617Y-90580500D01*
X118703618Y-90580499D01*
X118887251Y-90543973D01*
X119060231Y-90472322D01*
X119215908Y-90368302D01*
X119348302Y-90235908D01*
X119452322Y-90080231D01*
X119523973Y-89907251D01*
X119560500Y-89723616D01*
X119560500Y-89536384D01*
X119560499Y-89536379D01*
X120199500Y-89536379D01*
X120199500Y-89723620D01*
X120236025Y-89907243D01*
X120236027Y-89907251D01*
X120307676Y-90080228D01*
X120307681Y-90080237D01*
X120411697Y-90235907D01*
X120411700Y-90235911D01*
X120544088Y-90368299D01*
X120544092Y-90368302D01*
X120699762Y-90472318D01*
X120699768Y-90472321D01*
X120699769Y-90472322D01*
X120872749Y-90543973D01*
X121056379Y-90580499D01*
X121056383Y-90580500D01*
X121056384Y-90580500D01*
X121243617Y-90580500D01*
X121243618Y-90580499D01*
X121427251Y-90543973D01*
X121600231Y-90472322D01*
X121755908Y-90368302D01*
X121888302Y-90235908D01*
X121921704Y-90185918D01*
X121941119Y-90156862D01*
X121994731Y-90112057D01*
X122064056Y-90103350D01*
X122127083Y-90133504D01*
X122163803Y-90192947D01*
X122163941Y-90193456D01*
X122169979Y-90215989D01*
X122169980Y-90215991D01*
X122169982Y-90215995D01*
X122209535Y-90284504D01*
X122209539Y-90284509D01*
X122209540Y-90284511D01*
X122265489Y-90340460D01*
X122265491Y-90340461D01*
X122265495Y-90340464D01*
X122313713Y-90368302D01*
X122334011Y-90380021D01*
X122410438Y-90400500D01*
X122410440Y-90400500D01*
X122489560Y-90400500D01*
X122489562Y-90400500D01*
X122565989Y-90380021D01*
X122634511Y-90340460D01*
X122690460Y-90284511D01*
X122726903Y-90221388D01*
X122777469Y-90173174D01*
X122846076Y-90159950D01*
X122910941Y-90185918D01*
X122937392Y-90214498D01*
X122951697Y-90235908D01*
X123084088Y-90368299D01*
X123084092Y-90368302D01*
X123239762Y-90472318D01*
X123239768Y-90472321D01*
X123239769Y-90472322D01*
X123412749Y-90543973D01*
X123596379Y-90580499D01*
X123596383Y-90580500D01*
X123596384Y-90580500D01*
X123783617Y-90580500D01*
X123783618Y-90580499D01*
X123967251Y-90543973D01*
X124140231Y-90472322D01*
X124295908Y-90368302D01*
X124428302Y-90235908D01*
X124532322Y-90080231D01*
X124603973Y-89907251D01*
X124640500Y-89723616D01*
X124640500Y-89536384D01*
X124631187Y-89489562D01*
X124618644Y-89426501D01*
X124615449Y-89410438D01*
X129279500Y-89410438D01*
X129279500Y-89489562D01*
X129283771Y-89505500D01*
X129299979Y-89565990D01*
X129299982Y-89565995D01*
X129339535Y-89634504D01*
X129339539Y-89634509D01*
X129339540Y-89634511D01*
X129395489Y-89690460D01*
X129395491Y-89690461D01*
X129395495Y-89690464D01*
X129452915Y-89723615D01*
X129464011Y-89730021D01*
X129512890Y-89743118D01*
X129549576Y-89759717D01*
X130030347Y-90080231D01*
X130064871Y-90103247D01*
X130083769Y-90118740D01*
X130085489Y-90120460D01*
X130085491Y-90120461D01*
X130085495Y-90120464D01*
X130148539Y-90156862D01*
X130154011Y-90160021D01*
X130230438Y-90180500D01*
X130230440Y-90180500D01*
X130309560Y-90180500D01*
X130309562Y-90180500D01*
X130385989Y-90160021D01*
X130454511Y-90120460D01*
X130510460Y-90064511D01*
X130550021Y-89995989D01*
X130570500Y-89919562D01*
X130570500Y-89840438D01*
X130570500Y-89840310D01*
X130569468Y-89825900D01*
X130568834Y-89773309D01*
X130560509Y-89082247D01*
X130560500Y-89080753D01*
X130560500Y-89010439D01*
X130560500Y-89010438D01*
X130540021Y-88934011D01*
X130522990Y-88904512D01*
X130500464Y-88865495D01*
X130500458Y-88865487D01*
X130444512Y-88809541D01*
X130444504Y-88809535D01*
X130375995Y-88769982D01*
X130375990Y-88769979D01*
X130337113Y-88759562D01*
X130299562Y-88749500D01*
X130220438Y-88749500D01*
X130182894Y-88759560D01*
X130144009Y-88769979D01*
X130144004Y-88769982D01*
X130075488Y-88809539D01*
X130034587Y-88850440D01*
X130009930Y-88869548D01*
X129546096Y-89143286D01*
X129515169Y-89156270D01*
X129464012Y-89169978D01*
X129464007Y-89169980D01*
X129395492Y-89209537D01*
X129395487Y-89209541D01*
X129339541Y-89265487D01*
X129339535Y-89265495D01*
X129299982Y-89334004D01*
X129299979Y-89334009D01*
X129294956Y-89352756D01*
X129279500Y-89410438D01*
X124615449Y-89410438D01*
X124603974Y-89352754D01*
X124603973Y-89352753D01*
X124603973Y-89352749D01*
X124533593Y-89182838D01*
X124532323Y-89179771D01*
X124532318Y-89179762D01*
X124428302Y-89024092D01*
X124428299Y-89024088D01*
X124295911Y-88891700D01*
X124295907Y-88891697D01*
X124140237Y-88787681D01*
X124140228Y-88787676D01*
X123967251Y-88716027D01*
X123967243Y-88716025D01*
X123783620Y-88679500D01*
X123783616Y-88679500D01*
X123596384Y-88679500D01*
X123596379Y-88679500D01*
X123412756Y-88716025D01*
X123412748Y-88716027D01*
X123239771Y-88787676D01*
X123239762Y-88787681D01*
X123084092Y-88891697D01*
X123084088Y-88891700D01*
X122951700Y-89024088D01*
X122951697Y-89024092D01*
X122847681Y-89179762D01*
X122847676Y-89179771D01*
X122776027Y-89352748D01*
X122776025Y-89352756D01*
X122739500Y-89536379D01*
X122739500Y-89706270D01*
X122719815Y-89773309D01*
X122667011Y-89819064D01*
X122597853Y-89829008D01*
X122568055Y-89820834D01*
X122565996Y-89819981D01*
X122562574Y-89819064D01*
X122489562Y-89799500D01*
X122410438Y-89799500D01*
X122372224Y-89809739D01*
X122334009Y-89819979D01*
X122334006Y-89819981D01*
X122285421Y-89848031D01*
X122217521Y-89864502D01*
X122151494Y-89841649D01*
X122108305Y-89786727D01*
X122100020Y-89728489D01*
X122100500Y-89723615D01*
X122100500Y-89536383D01*
X122100499Y-89536379D01*
X122094357Y-89505499D01*
X122063973Y-89352749D01*
X121993593Y-89182838D01*
X121992323Y-89179771D01*
X121992318Y-89179762D01*
X121888302Y-89024092D01*
X121888299Y-89024088D01*
X121755911Y-88891700D01*
X121755907Y-88891697D01*
X121600237Y-88787681D01*
X121600228Y-88787676D01*
X121427251Y-88716027D01*
X121427243Y-88716025D01*
X121243620Y-88679500D01*
X121243616Y-88679500D01*
X121056384Y-88679500D01*
X121056379Y-88679500D01*
X120872756Y-88716025D01*
X120872748Y-88716027D01*
X120699771Y-88787676D01*
X120699762Y-88787681D01*
X120544092Y-88891697D01*
X120544088Y-88891700D01*
X120411700Y-89024088D01*
X120411697Y-89024092D01*
X120307681Y-89179762D01*
X120307676Y-89179771D01*
X120236027Y-89352748D01*
X120236025Y-89352756D01*
X120199500Y-89536379D01*
X119560499Y-89536379D01*
X119523973Y-89352749D01*
X119453593Y-89182838D01*
X119452323Y-89179771D01*
X119452318Y-89179762D01*
X119348302Y-89024092D01*
X119348299Y-89024088D01*
X119215911Y-88891700D01*
X119215907Y-88891697D01*
X119060237Y-88787681D01*
X119060228Y-88787676D01*
X118887251Y-88716027D01*
X118887243Y-88716025D01*
X118703620Y-88679500D01*
X118703616Y-88679500D01*
X118516384Y-88679500D01*
X118516379Y-88679500D01*
X118332756Y-88716025D01*
X118332748Y-88716027D01*
X118159771Y-88787676D01*
X118159762Y-88787681D01*
X118004092Y-88891697D01*
X118004088Y-88891700D01*
X117871700Y-89024088D01*
X117871697Y-89024092D01*
X117767681Y-89179762D01*
X117767676Y-89179771D01*
X117696027Y-89352748D01*
X117696025Y-89352756D01*
X117659500Y-89536379D01*
X111770500Y-89536379D01*
X111770500Y-89516070D01*
X111790185Y-89449031D01*
X111842989Y-89403276D01*
X111912147Y-89393332D01*
X111956499Y-89408682D01*
X112062164Y-89469688D01*
X112195817Y-89505500D01*
X112195819Y-89505500D01*
X112334181Y-89505500D01*
X112334183Y-89505500D01*
X112467836Y-89469688D01*
X112587665Y-89400505D01*
X112685505Y-89302665D01*
X112754688Y-89182836D01*
X112790500Y-89049183D01*
X112790500Y-88910817D01*
X112754688Y-88777164D01*
X112698843Y-88680438D01*
X113499500Y-88680438D01*
X113499500Y-88759562D01*
X113512891Y-88809535D01*
X113519979Y-88835990D01*
X113519982Y-88835995D01*
X113559535Y-88904504D01*
X113559539Y-88904509D01*
X113559540Y-88904511D01*
X113615489Y-88960460D01*
X113615491Y-88960461D01*
X113615495Y-88960464D01*
X113684004Y-89000017D01*
X113684011Y-89000021D01*
X113760438Y-89020500D01*
X113760440Y-89020500D01*
X113839560Y-89020500D01*
X113839562Y-89020500D01*
X113915989Y-89000021D01*
X113984511Y-88960460D01*
X114034154Y-88910817D01*
X115989500Y-88910817D01*
X115989500Y-89049183D01*
X116024489Y-89179762D01*
X116025312Y-89182835D01*
X116025313Y-89182838D01*
X116094492Y-89302661D01*
X116094494Y-89302664D01*
X116094495Y-89302665D01*
X116192335Y-89400505D01*
X116192336Y-89400506D01*
X116192338Y-89400507D01*
X116252249Y-89435096D01*
X116312164Y-89469688D01*
X116445817Y-89505500D01*
X116445819Y-89505500D01*
X116584181Y-89505500D01*
X116584183Y-89505500D01*
X116717836Y-89469688D01*
X116837665Y-89400505D01*
X116935505Y-89302665D01*
X117004688Y-89182836D01*
X117040500Y-89049183D01*
X117040500Y-88910817D01*
X117004688Y-88777164D01*
X116948844Y-88680439D01*
X116935507Y-88657338D01*
X116935503Y-88657333D01*
X116837666Y-88559496D01*
X116837661Y-88559492D01*
X116717838Y-88490313D01*
X116717837Y-88490312D01*
X116717836Y-88490312D01*
X116584183Y-88454500D01*
X116445817Y-88454500D01*
X116312164Y-88490312D01*
X116312161Y-88490313D01*
X116192338Y-88559492D01*
X116192333Y-88559496D01*
X116094496Y-88657333D01*
X116094492Y-88657338D01*
X116025313Y-88777161D01*
X116025312Y-88777164D01*
X115989500Y-88910817D01*
X114034154Y-88910817D01*
X114040460Y-88904511D01*
X114080021Y-88835989D01*
X114100500Y-88759562D01*
X114100500Y-88680438D01*
X114080021Y-88604011D01*
X114080017Y-88604004D01*
X114040464Y-88535495D01*
X114040458Y-88535487D01*
X113984512Y-88479541D01*
X113984504Y-88479535D01*
X113915995Y-88439982D01*
X113915990Y-88439979D01*
X113890513Y-88433152D01*
X113839562Y-88419500D01*
X113760438Y-88419500D01*
X113722224Y-88429739D01*
X113684009Y-88439979D01*
X113684004Y-88439982D01*
X113615495Y-88479535D01*
X113615487Y-88479541D01*
X113559541Y-88535487D01*
X113559535Y-88535495D01*
X113519982Y-88604004D01*
X113519979Y-88604009D01*
X113506326Y-88654962D01*
X113499500Y-88680438D01*
X112698843Y-88680438D01*
X112685507Y-88657338D01*
X112685503Y-88657333D01*
X112587666Y-88559496D01*
X112587661Y-88559492D01*
X112467838Y-88490313D01*
X112467837Y-88490312D01*
X112467836Y-88490312D01*
X112334183Y-88454500D01*
X112195817Y-88454500D01*
X112062164Y-88490312D01*
X112062163Y-88490312D01*
X111956499Y-88551317D01*
X111888599Y-88567789D01*
X111822572Y-88544936D01*
X111779382Y-88490014D01*
X111770500Y-88443929D01*
X111770500Y-87504707D01*
X111790185Y-87437668D01*
X111842989Y-87391913D01*
X111894614Y-87380707D01*
X133025615Y-87400291D01*
G37*
%TD.AperFunction*%
%TD*%
M02*
