M48
; DRILL file {KiCad 9.0.6-rc1} date 2025-11-21T10:50:22+0100
; FORMAT={-:-/ absolute / metric / decimal}
; #@! TF.CreationDate,2025-11-21T10:50:22+01:00
; #@! TF.GenerationSoftware,Kicad,Pcbnew,9.0.6-rc1
; #@! TF.FileFunction,Plated,1,6,PTH
FMAT,2
METRIC
; #@! TA.AperFunction,Plated,PTH,ViaDrill
T1C0.300
; #@! TA.AperFunction,Plated,PTH,ComponentDrill
T2C0.500
; #@! TA.AperFunction,Plated,PTH,ComponentDrill
T3C1.000
%
G90
G05
T1
X112.04Y-87.63
X112.15Y-104.85
X112.19Y-89.76
X112.19Y-90.42
X112.2Y-91.12
X112.5Y-107.4
X113.125Y-105.45
X113.77Y-106.72
X113.8Y-88.72
X114.093Y-107.4
X114.155Y-87.63
X114.35Y-105.45
X114.39Y-89.88
X114.4Y-103.65
X114.42Y-91.22
X114.44Y-91.79
X114.86Y-87.63
X114.89Y-102.862
X114.9Y-92.547
X115.03Y-88.63
X115.35Y-106.2
X115.4Y-103.65
X115.41Y-91.79
X115.67Y-91.2
X116.38Y-89.81
X116.975Y-87.63
X117.05Y-106.3
X117.05Y-107.2
X117.07Y-97.41
X117.07Y-98.43
X117.2Y-94.39
X117.2Y-95.24
X117.2Y-100.1
X117.2Y-100.95
X117.35Y-89.8
X117.45Y-96.92
X117.55Y-97.92
X117.68Y-87.63
X117.8Y-106.0
X117.9Y-96.35
X117.9Y-107.4
X117.97Y-98.5
X118.23Y-105.43
X118.3Y-92.5
X118.3Y-93.35
X118.3Y-102.1
X118.3Y-102.67
X118.35Y-96.75
X118.385Y-87.63
X118.6Y-100.75
X118.75Y-94.5
X118.8Y-96.18
X118.865Y-99.18
X118.93Y-99.81
X119.08Y-104.7
X119.09Y-87.63
X119.15Y-107.5
X119.56Y-100.5
X119.7Y-90.95
X119.75Y-105.45
X119.78Y-107.46
X119.795Y-87.63
X119.802Y-95.93
X119.802Y-97.43
X119.802Y-98.93
X119.85Y-89.79
X120.05Y-94.46
X120.06Y-100.83
X120.3Y-106.6
X120.4Y-90.65
X120.46Y-107.45
X120.5Y-87.63
X120.54Y-94.89
X120.6Y-91.25
X120.97Y-106.34
X120.975Y-105.45
X121.05Y-94.45
X121.05Y-99.65
X121.18Y-107.45
X121.205Y-87.63
X121.25Y-91.25
X121.302Y-95.93
X121.302Y-97.43
X121.302Y-98.93
X121.507Y-104.5
X121.515Y-103.8
X121.55Y-95.19
X121.55Y-100.2
X121.91Y-87.63
X121.97Y-107.43
X122.06Y-94.39
X122.44Y-89.5
X122.45Y-90.1
X122.615Y-87.63
X122.63Y-94.39
X122.65Y-103.56
X122.65Y-104.25
X122.65Y-104.94
X122.65Y-105.63
X122.65Y-106.32
X122.65Y-107.01
X122.65Y-107.7
X122.802Y-95.93
X122.802Y-97.43
X122.802Y-98.93
X123.15Y-91.5
X123.32Y-87.63
X123.39Y-103.56
X123.95Y-99.8
X124.025Y-87.63
X124.13Y-103.56
X124.15Y-94.75
X124.35Y-94.15
X124.35Y-97.7
X124.4Y-97.18
X124.45Y-96.5
X124.55Y-91.3
X124.73Y-87.63
X124.87Y-100.1
X124.87Y-103.56
X124.95Y-90.19
X125.0Y-94.15
X125.1Y-104.22
X125.16Y-107.61
X125.312Y-91.24
X125.35Y-95.44
X125.35Y-96.71
X125.35Y-97.98
X125.35Y-99.25
X125.435Y-87.63
X125.5Y-94.55
X125.6Y-102.85
X125.61Y-103.56
X125.63Y-102.27
X126.05Y-94.55
X126.127Y-91.24
X126.14Y-87.63
X126.7Y-95.445
X126.7Y-97.345
X126.7Y-99.245
X126.845Y-87.63
X127.55Y-87.63
X127.55Y-90.55
X127.857Y-100.55
X127.88Y-104.23
X127.94Y-107.61
X128.2Y-95.445
X128.2Y-97.345
X128.2Y-99.245
X128.255Y-87.63
X128.29Y-94.12
X128.33Y-102.31
X128.34Y-101.66
X128.34Y-102.92
X128.35Y-101.04
X128.53Y-100.3
X128.96Y-87.63
X129.1Y-90.55
X129.18Y-100.3
X129.58Y-89.45
X129.665Y-87.63
X129.7Y-99.245
X129.87Y-100.3
X130.26Y-89.05
X130.27Y-89.88
X130.37Y-87.63
X130.5Y-93.55
X130.55Y-100.3
X130.77Y-99.49
X131.05Y-95.44
X131.075Y-87.63
X131.24Y-100.3
X131.35Y-94.8
X131.35Y-96.1
X131.35Y-97.4
X131.35Y-98.65
X131.4Y-91.45
X131.4Y-92.41
X131.64Y-94.0
X131.78Y-87.63
X132.05Y-100.29
X132.83Y-87.69
X132.83Y-88.39
X132.83Y-89.09
X132.83Y-89.79
X132.83Y-90.49
X132.83Y-91.19
X132.83Y-91.89
X132.83Y-92.59
X132.83Y-93.29
X132.83Y-93.99
X132.83Y-94.69
X132.83Y-95.39
X132.83Y-96.09
X132.83Y-96.79
X132.83Y-97.49
X132.83Y-98.19
X132.83Y-98.89
X132.83Y-99.59
X132.83Y-100.29
T2
X117.25Y-93.57
X117.25Y-101.77
T3
X118.61Y-89.63
X121.15Y-89.63
X123.69Y-89.63
X126.23Y-89.63
T2
G00X112.375Y-92.02
M15
G01X113.525Y-92.02
M16
G05
G00X112.375Y-103.32
M15
G01X113.525Y-103.32
M16
G05
G00X116.375Y-92.02
M15
G01X117.525Y-92.02
M16
G05
G00X116.375Y-103.32
M15
G01X117.525Y-103.32
M16
G05
M30
