%TF.GenerationSoftware,KiCad,Pcbnew,9.0.6-rc1*%
%TF.CreationDate,2025-11-21T10:50:25+01:00*%
%TF.ProjectId,hardware_V8,68617264-7761-4726-955f-56382e6b6963,rev?*%
%TF.SameCoordinates,Original*%
%TF.FileFunction,Copper,L1,Top*%
%TF.FilePolarity,Positive*%
%FSLAX46Y46*%
G04 Gerber Fmt 4.6, Leading zero omitted, Abs format (unit mm)*
G04 Created by KiCad (PCBNEW 9.0.6-rc1) date 2025-11-21 10:50:25*
%MOMM*%
%LPD*%
G01*
G04 APERTURE LIST*
G04 Aperture macros list*
%AMRoundRect*
0 Rectangle with rounded corners*
0 $1 Rounding radius*
0 $2 $3 $4 $5 $6 $7 $8 $9 X,Y pos of 4 corners*
0 Add a 4 corners polygon primitive as box body*
4,1,4,$2,$3,$4,$5,$6,$7,$8,$9,$2,$3,0*
0 Add four circle primitives for the rounded corners*
1,1,$1+$1,$2,$3*
1,1,$1+$1,$4,$5*
1,1,$1+$1,$6,$7*
1,1,$1+$1,$8,$9*
0 Add four rect primitives between the rounded corners*
20,1,$1+$1,$2,$3,$4,$5,0*
20,1,$1+$1,$4,$5,$6,$7,0*
20,1,$1+$1,$6,$7,$8,$9,0*
20,1,$1+$1,$8,$9,$2,$3,0*%
%AMRotRect*
0 Rectangle, with rotation*
0 The origin of the aperture is its center*
0 $1 length*
0 $2 width*
0 $3 Rotation angle, in degrees counterclockwise*
0 Add horizontal line*
21,1,$1,$2,0,0,$3*%
%AMOutline5P*
0 Free polygon, 5 corners , with rotation*
0 The origin of the aperture is its center*
0 number of corners: always 5*
0 $1 to $10 corner X, Y*
0 $11 Rotation angle, in degrees counterclockwise*
0 create outline with 5 corners*
4,1,5,$1,$2,$3,$4,$5,$6,$7,$8,$9,$10,$1,$2,$11*%
%AMOutline6P*
0 Free polygon, 6 corners , with rotation*
0 The origin of the aperture is its center*
0 number of corners: always 6*
0 $1 to $12 corner X, Y*
0 $13 Rotation angle, in degrees counterclockwise*
0 create outline with 6 corners*
4,1,6,$1,$2,$3,$4,$5,$6,$7,$8,$9,$10,$11,$12,$1,$2,$13*%
%AMOutline7P*
0 Free polygon, 7 corners , with rotation*
0 The origin of the aperture is its center*
0 number of corners: always 7*
0 $1 to $14 corner X, Y*
0 $15 Rotation angle, in degrees counterclockwise*
0 create outline with 7 corners*
4,1,7,$1,$2,$3,$4,$5,$6,$7,$8,$9,$10,$11,$12,$13,$14,$1,$2,$15*%
%AMOutline8P*
0 Free polygon, 8 corners , with rotation*
0 The origin of the aperture is its center*
0 number of corners: always 8*
0 $1 to $16 corner X, Y*
0 $17 Rotation angle, in degrees counterclockwise*
0 create outline with 8 corners*
4,1,8,$1,$2,$3,$4,$5,$6,$7,$8,$9,$10,$11,$12,$13,$14,$15,$16,$1,$2,$17*%
G04 Aperture macros list end*
%TA.AperFunction,SMDPad,CuDef*%
%ADD10R,0.700000X0.400000*%
%TD*%
%TA.AperFunction,SMDPad,CuDef*%
%ADD11RoundRect,0.100000X-0.217500X-0.100000X0.217500X-0.100000X0.217500X0.100000X-0.217500X0.100000X0*%
%TD*%
%TA.AperFunction,SMDPad,CuDef*%
%ADD12R,1.050000X0.450000*%
%TD*%
%TA.AperFunction,SMDPad,CuDef*%
%ADD13R,3.450000X4.350000*%
%TD*%
%TA.AperFunction,SMDPad,CuDef*%
%ADD14RoundRect,0.147500X-0.147500X-0.172500X0.147500X-0.172500X0.147500X0.172500X-0.147500X0.172500X0*%
%TD*%
%TA.AperFunction,SMDPad,CuDef*%
%ADD15RoundRect,0.100000X0.100000X-0.217500X0.100000X0.217500X-0.100000X0.217500X-0.100000X-0.217500X0*%
%TD*%
%TA.AperFunction,SMDPad,CuDef*%
%ADD16RoundRect,0.140000X-0.140000X-0.170000X0.140000X-0.170000X0.140000X0.170000X-0.140000X0.170000X0*%
%TD*%
%TA.AperFunction,SMDPad,CuDef*%
%ADD17RoundRect,0.100000X0.217500X0.100000X-0.217500X0.100000X-0.217500X-0.100000X0.217500X-0.100000X0*%
%TD*%
%TA.AperFunction,SMDPad,CuDef*%
%ADD18RoundRect,0.100000X-0.100000X0.217500X-0.100000X-0.217500X0.100000X-0.217500X0.100000X0.217500X0*%
%TD*%
%TA.AperFunction,SMDPad,CuDef*%
%ADD19R,0.850000X0.300000*%
%TD*%
%TA.AperFunction,SMDPad,CuDef*%
%ADD20R,0.610000X1.420000*%
%TD*%
%TA.AperFunction,SMDPad,CuDef*%
%ADD21R,0.550000X1.500000*%
%TD*%
%TA.AperFunction,SMDPad,CuDef*%
%ADD22RoundRect,0.140000X-0.170000X0.140000X-0.170000X-0.140000X0.170000X-0.140000X0.170000X0.140000X0*%
%TD*%
%TA.AperFunction,SMDPad,CuDef*%
%ADD23R,0.250000X0.550000*%
%TD*%
%TA.AperFunction,SMDPad,CuDef*%
%ADD24R,0.200000X0.550000*%
%TD*%
%TA.AperFunction,SMDPad,CuDef*%
%ADD25R,0.600000X0.300000*%
%TD*%
%TA.AperFunction,SMDPad,CuDef*%
%ADD26RoundRect,0.147500X0.147500X0.172500X-0.147500X0.172500X-0.147500X-0.172500X0.147500X-0.172500X0*%
%TD*%
%TA.AperFunction,SMDPad,CuDef*%
%ADD27RoundRect,0.140000X0.170000X-0.140000X0.170000X0.140000X-0.170000X0.140000X-0.170000X-0.140000X0*%
%TD*%
%TA.AperFunction,SMDPad,CuDef*%
%ADD28RoundRect,0.062500X0.375000X0.062500X-0.375000X0.062500X-0.375000X-0.062500X0.375000X-0.062500X0*%
%TD*%
%TA.AperFunction,SMDPad,CuDef*%
%ADD29RoundRect,0.062500X0.062500X0.375000X-0.062500X0.375000X-0.062500X-0.375000X0.062500X-0.375000X0*%
%TD*%
%TA.AperFunction,HeatsinkPad*%
%ADD30R,3.450000X3.450000*%
%TD*%
%TA.AperFunction,SMDPad,CuDef*%
%ADD31RoundRect,0.140000X0.140000X0.170000X-0.140000X0.170000X-0.140000X-0.170000X0.140000X-0.170000X0*%
%TD*%
%TA.AperFunction,SMDPad,CuDef*%
%ADD32Outline5P,-0.207500X0.150000X0.207500X0.150000X0.207500X0.000000X0.057500X-0.150000X-0.207500X-0.150000X0.000000*%
%TD*%
%TA.AperFunction,SMDPad,CuDef*%
%ADD33Outline5P,-0.207500X0.150000X0.057500X0.150000X0.207500X0.000000X0.207500X-0.150000X-0.207500X-0.150000X0.000000*%
%TD*%
%TA.AperFunction,SMDPad,CuDef*%
%ADD34RotRect,0.500000X0.500000X45.000000*%
%TD*%
%TA.AperFunction,SMDPad,CuDef*%
%ADD35Outline5P,-0.207500X0.000000X-0.057500X0.150000X0.207500X0.150000X0.207500X-0.150000X-0.207500X-0.150000X0.000000*%
%TD*%
%TA.AperFunction,SMDPad,CuDef*%
%ADD36Outline5P,-0.207500X0.150000X0.207500X0.150000X0.207500X-0.150000X-0.057500X-0.150000X-0.207500X0.000000X0.000000*%
%TD*%
%TA.AperFunction,SMDPad,CuDef*%
%ADD37RoundRect,0.150000X-0.150000X-0.625000X0.150000X-0.625000X0.150000X0.625000X-0.150000X0.625000X0*%
%TD*%
%TA.AperFunction,SMDPad,CuDef*%
%ADD38RoundRect,0.250000X-0.350000X-0.650000X0.350000X-0.650000X0.350000X0.650000X-0.350000X0.650000X0*%
%TD*%
%TA.AperFunction,ComponentPad*%
%ADD39C,0.800000*%
%TD*%
%TA.AperFunction,ComponentPad*%
%ADD40O,2.150000X1.000000*%
%TD*%
%TA.AperFunction,ComponentPad*%
%ADD41R,1.700000X1.700000*%
%TD*%
%TA.AperFunction,ComponentPad*%
%ADD42C,1.700000*%
%TD*%
%TA.AperFunction,ViaPad*%
%ADD43C,0.400000*%
%TD*%
%TA.AperFunction,Conductor*%
%ADD44C,0.200000*%
%TD*%
%TA.AperFunction,Conductor*%
%ADD45C,0.400000*%
%TD*%
%TA.AperFunction,Conductor*%
%ADD46C,0.120000*%
%TD*%
%TA.AperFunction,Conductor*%
%ADD47C,0.300000*%
%TD*%
%TA.AperFunction,Conductor*%
%ADD48C,0.160000*%
%TD*%
G04 APERTURE END LIST*
D10*
%TO.P,D1,1,K*%
%TO.N,/D+*%
X117860000Y-95370000D03*
%TO.P,D1,2,A*%
%TO.N,GND*%
X117860000Y-94670000D03*
%TD*%
D11*
%TO.P,C14,1*%
%TO.N,/USB_DETECT*%
X120700000Y-103800000D03*
%TO.P,C14,2*%
%TO.N,GND*%
X121515000Y-103800000D03*
%TD*%
D12*
%TO.P,IC6,1,~{CS}*%
%TO.N,/SPI_CS*%
X131050000Y-99250000D03*
%TO.P,IC6,2,DO_(IO1)*%
%TO.N,/SPI_MISO*%
X131050000Y-97980000D03*
%TO.P,IC6,3,~{WP_(IO2)}*%
%TO.N,3.3V_AUX*%
X131050000Y-96710000D03*
%TO.P,IC6,4,GND_1*%
%TO.N,GND*%
X131050000Y-95440000D03*
%TO.P,IC6,5,DI_(IO0)*%
%TO.N,/SPI_MOSI*%
X125350000Y-95440000D03*
%TO.P,IC6,6,CLK*%
%TO.N,/SPI_CLK*%
X125350000Y-96710000D03*
%TO.P,IC6,7,~{HOLD_OR_}/RESET_(IO3)*%
%TO.N,3.3V_AUX*%
X125350000Y-97980000D03*
%TO.P,IC6,8,VCC*%
X125350000Y-99250000D03*
D13*
%TO.P,IC6,9,GND_2*%
%TO.N,GND*%
X128200000Y-97345000D03*
%TD*%
D14*
%TO.P,LEDGREEN1,1,K*%
%TO.N,GND*%
X115155000Y-87980000D03*
%TO.P,LEDGREEN1,2,A*%
%TO.N,Net-(LEDGREEN1-A)*%
X116125000Y-87980000D03*
%TD*%
D15*
%TO.P,R23,1*%
%TO.N,Net-(J1-CC2)*%
X114900000Y-92547500D03*
%TO.P,R23,2*%
%TO.N,GND*%
X114900000Y-91732500D03*
%TD*%
%TO.P,R9,1*%
%TO.N,/B_PW*%
X113800000Y-90307500D03*
%TO.P,R9,2*%
%TO.N,+3.3V*%
X113800000Y-89492500D03*
%TD*%
D11*
%TO.P,R6,1*%
%TO.N,Net-(U1-PH3)*%
X123362500Y-101750000D03*
%TO.P,R6,2*%
%TO.N,GND*%
X124177500Y-101750000D03*
%TD*%
D16*
%TO.P,C29,1*%
%TO.N,vusb*%
X118120000Y-104700000D03*
%TO.P,C29,2*%
%TO.N,GND*%
X119080000Y-104700000D03*
%TD*%
D11*
%TO.P,R11,1*%
%TO.N,Net-(IC4-TXD)*%
X121685000Y-92600000D03*
%TO.P,R11,2*%
%TO.N,/GPS_TX*%
X122500000Y-92600000D03*
%TD*%
D17*
%TO.P,C25,1*%
%TO.N,Net-(IC4-V_BCKP)*%
X122975000Y-90750000D03*
%TO.P,C25,2*%
%TO.N,GND*%
X122160000Y-90750000D03*
%TD*%
D11*
%TO.P,R4,1*%
%TO.N,Net-(LEDRED1-A)*%
X114442500Y-104550000D03*
%TO.P,R4,2*%
%TO.N,vusb*%
X115257500Y-104550000D03*
%TD*%
D17*
%TO.P,R3,1*%
%TO.N,/USB_DETECT*%
X119707500Y-103800000D03*
%TO.P,R3,2*%
%TO.N,vusb*%
X118892500Y-103800000D03*
%TD*%
D18*
%TO.P,R7,1*%
%TO.N,/B1*%
X113770000Y-105722500D03*
%TO.P,R7,2*%
%TO.N,+3.3V*%
X113770000Y-106537500D03*
%TD*%
D19*
%TO.P,IC5,1,GND*%
%TO.N,GND*%
X118000000Y-107000000D03*
%TO.P,IC5,2,~{CHRG}*%
%TO.N,Net-(IC5-~{CHRG})*%
X118000000Y-106500000D03*
%TO.P,IC5,3,BAT*%
%TO.N,BAT+*%
X118000000Y-106000000D03*
%TO.P,IC5,4,VCC*%
%TO.N,vusb*%
X116100000Y-106000000D03*
%TO.P,IC5,5,~{EN}*%
%TO.N,GND*%
X116100000Y-106500000D03*
%TO.P,IC5,6,PROG*%
%TO.N,Net-(IC5-PROG)*%
X116100000Y-107000000D03*
D20*
%TO.P,IC5,7,EP*%
%TO.N,GND*%
X117050000Y-106500000D03*
%TD*%
D21*
%TO.P,SW4,1,1*%
%TO.N,Net-(U1-PH3)*%
X122275000Y-102050000D03*
%TO.P,SW4,2,2*%
%TO.N,+3.3V*%
X119025000Y-102050000D03*
%TD*%
D11*
%TO.P,R12,1*%
%TO.N,Net-(IC4-RXD)*%
X121685000Y-91900000D03*
%TO.P,R12,2*%
%TO.N,/GPS_RX*%
X122500000Y-91900000D03*
%TD*%
D22*
%TO.P,C4,1*%
%TO.N,BAT+*%
X131400000Y-91450000D03*
%TO.P,C4,2*%
%TO.N,GND*%
X131400000Y-92410000D03*
%TD*%
D17*
%TO.P,R13,1*%
%TO.N,/SPI_CS*%
X127857500Y-100550000D03*
%TO.P,R13,2*%
%TO.N,3.3V_AUX*%
X127042500Y-100550000D03*
%TD*%
%TO.P,C10,1*%
%TO.N,GND*%
X120307500Y-93600000D03*
%TO.P,C10,2*%
%TO.N,+3.3V*%
X119492500Y-93600000D03*
%TD*%
D18*
%TO.P,C6,1*%
%TO.N,/B2*%
X119200000Y-105792500D03*
%TO.P,C6,2*%
%TO.N,GND*%
X119200000Y-106607500D03*
%TD*%
D17*
%TO.P,R19,1*%
%TO.N,GND*%
X121507500Y-104500000D03*
%TO.P,R19,2*%
%TO.N,/USB_DETECT*%
X120692500Y-104500000D03*
%TD*%
D23*
%TO.P,IC1,1,VIN1*%
%TO.N,+3.3V*%
X126590000Y-92000000D03*
D24*
%TO.P,IC1,2,ON1*%
%TO.N,/AUX_EN*%
X126090000Y-92000000D03*
D23*
%TO.P,IC1,3,SR*%
%TO.N,+3.3V*%
X125590000Y-92000000D03*
D25*
%TO.P,IC1,4,VOUT1*%
%TO.N,3.3V_AUX*%
X125440000Y-92675000D03*
D23*
%TO.P,IC1,5,VOUT2*%
%TO.N,3.3V_GPS*%
X125590000Y-93350000D03*
D24*
%TO.P,IC1,6,GND*%
%TO.N,GND*%
X126090000Y-93350000D03*
D23*
%TO.P,IC1,7,ON2*%
%TO.N,/GPS_EN*%
X126590000Y-93350000D03*
D25*
%TO.P,IC1,8,VIN2*%
%TO.N,+3.3V*%
X126740000Y-92675000D03*
%TD*%
D17*
%TO.P,R18,1*%
%TO.N,Net-(U2-EN)*%
X131307500Y-93250000D03*
%TO.P,R18,2*%
%TO.N,BAT+*%
X130492500Y-93250000D03*
%TD*%
D15*
%TO.P,C20,1*%
%TO.N,/B_PW*%
X115000000Y-90307500D03*
%TO.P,C20,2*%
%TO.N,GND*%
X115000000Y-89492500D03*
%TD*%
D26*
%TO.P,LEDBLUE1,1,K*%
%TO.N,GND*%
X113645000Y-87990000D03*
%TO.P,LEDBLUE1,2,A*%
%TO.N,Net-(LEDBLUE1-A)*%
X112675000Y-87990000D03*
%TD*%
D14*
%TO.P,LEDRED1,1,K*%
%TO.N,Net-(IC5-~{CHRG})*%
X112465000Y-104550000D03*
%TO.P,LEDRED1,2,A*%
%TO.N,Net-(LEDRED1-A)*%
X113435000Y-104550000D03*
%TD*%
D11*
%TO.P,R20,1*%
%TO.N,GND*%
X125762500Y-94140000D03*
%TO.P,R20,2*%
%TO.N,/GPS_EN*%
X126577500Y-94140000D03*
%TD*%
D18*
%TO.P,C7,1*%
%TO.N,/B1*%
X114930000Y-105672500D03*
%TO.P,C7,2*%
%TO.N,GND*%
X114930000Y-106487500D03*
%TD*%
D15*
%TO.P,R1,1*%
%TO.N,Net-(U1-PB5)*%
X115750000Y-90307500D03*
%TO.P,R1,2*%
%TO.N,Net-(LEDGREEN1-A)*%
X115750000Y-89492500D03*
%TD*%
D27*
%TO.P,C1,1*%
%TO.N,+3.3V*%
X127740000Y-92250000D03*
%TO.P,C1,2*%
%TO.N,GND*%
X127740000Y-91290000D03*
%TD*%
D28*
%TO.P,U1,1,VDD*%
%TO.N,+3.3V*%
X123740000Y-99180000D03*
%TO.P,U1,2,PC14*%
%TO.N,unconnected-(U1-PC14-Pad2)*%
X123740000Y-98680000D03*
%TO.P,U1,3,PC15*%
%TO.N,unconnected-(U1-PC15-Pad3)*%
X123740000Y-98180000D03*
%TO.P,U1,4,NRST*%
%TO.N,/NRST*%
X123740000Y-97680000D03*
%TO.P,U1,5,VDDA*%
%TO.N,+3.3V*%
X123740000Y-97180000D03*
%TO.P,U1,6,PA0*%
%TO.N,/B_PW*%
X123740000Y-96680000D03*
%TO.P,U1,7,PA1*%
%TO.N,/GPS_EN*%
X123740000Y-96180000D03*
%TO.P,U1,8,PA2*%
%TO.N,/GPS_RX*%
X123740000Y-95680000D03*
D29*
%TO.P,U1,9,PA3*%
%TO.N,/GPS_TX*%
X123052500Y-94992500D03*
%TO.P,U1,10,PA4*%
%TO.N,/AUX_EN*%
X122552500Y-94992500D03*
%TO.P,U1,11,PA5*%
%TO.N,/SPI_CLK*%
X122052500Y-94992500D03*
%TO.P,U1,12,PA6*%
%TO.N,/SPI_MISO*%
X121552500Y-94992500D03*
%TO.P,U1,13,PA7*%
%TO.N,/SPI_MOSI*%
X121052500Y-94992500D03*
%TO.P,U1,14,PB0*%
%TO.N,/ADC_BAT*%
X120552500Y-94992500D03*
%TO.P,U1,15,PB1*%
%TO.N,/SPI_CS*%
X120052500Y-94992500D03*
%TO.P,U1,16,VSS*%
%TO.N,GND*%
X119552500Y-94992500D03*
D28*
%TO.P,U1,17,VDD*%
%TO.N,+3.3V*%
X118865000Y-95680000D03*
%TO.P,U1,18,PA8*%
%TO.N,/GPS_EXTINT*%
X118865000Y-96180000D03*
%TO.P,U1,19,PA9*%
%TO.N,/OLED_SCL*%
X118865000Y-96680000D03*
%TO.P,U1,20,PA10*%
%TO.N,/OLED_SDA*%
X118865000Y-97180000D03*
%TO.P,U1,21,PA11*%
%TO.N,/D-*%
X118865000Y-97680000D03*
%TO.P,U1,22,PA12*%
%TO.N,/D+*%
X118865000Y-98180000D03*
%TO.P,U1,23,PA13*%
%TO.N,/SWDIO*%
X118865000Y-98680000D03*
%TO.P,U1,24,PA14*%
%TO.N,/SWCLK*%
X118865000Y-99180000D03*
D29*
%TO.P,U1,25,PA15*%
%TO.N,/B1*%
X119552500Y-99867500D03*
%TO.P,U1,26,PB3*%
%TO.N,/B2*%
X120052500Y-99867500D03*
%TO.P,U1,27,PB4*%
%TO.N,/USB_DETECT*%
X120552500Y-99867500D03*
%TO.P,U1,28,PB5*%
%TO.N,Net-(U1-PB5)*%
X121052500Y-99867500D03*
%TO.P,U1,29,PB6*%
%TO.N,Net-(U1-PB6)*%
X121552500Y-99867500D03*
%TO.P,U1,30,PB7*%
%TO.N,unconnected-(U1-PB7-Pad30)*%
X122052500Y-99867500D03*
%TO.P,U1,31,PH3*%
%TO.N,Net-(U1-PH3)*%
X122552500Y-99867500D03*
%TO.P,U1,32,VSS*%
%TO.N,GND*%
X123052500Y-99867500D03*
D30*
%TO.P,U1,33,VSS*%
X121302500Y-97430000D03*
%TD*%
D18*
%TO.P,R22,1*%
%TO.N,Net-(J1-CC1)*%
X114890000Y-102862500D03*
%TO.P,R22,2*%
%TO.N,GND*%
X114890000Y-103677500D03*
%TD*%
D31*
%TO.P,C19,1*%
%TO.N,GND*%
X120430000Y-92750000D03*
%TO.P,C19,2*%
%TO.N,+3.3V*%
X119470000Y-92750000D03*
%TD*%
D10*
%TO.P,D2,1,K*%
%TO.N,GND*%
X117900000Y-100430000D03*
%TO.P,D2,2,A*%
%TO.N,/D-*%
X117900000Y-99730000D03*
%TD*%
D32*
%TO.P,U2,1,VOUT*%
%TO.N,+3.3V*%
X128557500Y-92725000D03*
D33*
%TO.P,U2,2,GND*%
%TO.N,GND*%
X128557500Y-93435000D03*
D34*
X128950000Y-93080000D03*
D35*
%TO.P,U2,3,EN*%
%TO.N,Net-(U2-EN)*%
X129342500Y-93435000D03*
D36*
%TO.P,U2,4,VIN*%
%TO.N,BAT+*%
X129342500Y-92725000D03*
%TD*%
D18*
%TO.P,R8,1*%
%TO.N,/B2*%
X120300000Y-105785000D03*
%TO.P,R8,2*%
%TO.N,+3.3V*%
X120300000Y-106600000D03*
%TD*%
D17*
%TO.P,R17,1*%
%TO.N,Net-(IC5-PROG)*%
X114907500Y-107400000D03*
%TO.P,R17,2*%
%TO.N,GND*%
X114092500Y-107400000D03*
%TD*%
D22*
%TO.P,C5,1*%
%TO.N,+3.3V*%
X127740000Y-93110000D03*
%TO.P,C5,2*%
%TO.N,GND*%
X127740000Y-94070000D03*
%TD*%
D17*
%TO.P,C11,1*%
%TO.N,3.3V_AUX*%
X126087500Y-100570000D03*
%TO.P,C11,2*%
%TO.N,GND*%
X125272500Y-100570000D03*
%TD*%
D15*
%TO.P,R2,1*%
%TO.N,Net-(U1-PB6)*%
X113050000Y-90307500D03*
%TO.P,R2,2*%
%TO.N,Net-(LEDBLUE1-A)*%
X113050000Y-89492500D03*
%TD*%
D11*
%TO.P,R21,1*%
%TO.N,GND*%
X125312500Y-91240000D03*
%TO.P,R21,2*%
%TO.N,/AUX_EN*%
X126127500Y-91240000D03*
%TD*%
D37*
%TO.P,U5,1,1*%
%TO.N,GND*%
X129130000Y-91125000D03*
%TO.P,U5,2,2*%
%TO.N,BAT+*%
X130130000Y-91125000D03*
D38*
%TO.P,U5,MP,MP*%
%TO.N,GND*%
X127830000Y-88600000D03*
X131430000Y-88600000D03*
%TD*%
D11*
%TO.P,C13,1*%
%TO.N,GND*%
X123370000Y-100960000D03*
%TO.P,C13,2*%
%TO.N,+3.3V*%
X124185000Y-100960000D03*
%TD*%
%TO.P,C18,1*%
%TO.N,Net-(U1-PH3)*%
X123352500Y-102460000D03*
%TO.P,C18,2*%
%TO.N,GND*%
X124167500Y-102460000D03*
%TD*%
%TO.P,R5,1*%
%TO.N,GND*%
X128810000Y-94150000D03*
%TO.P,R5,2*%
%TO.N,Net-(U2-EN)*%
X129625000Y-94150000D03*
%TD*%
D39*
%TO.P,J1,MH1,MH1*%
%TO.N,GND*%
X117250000Y-101770000D03*
%TO.P,J1,MH2,MH2*%
X117250000Y-93570000D03*
D40*
%TO.P,J1,MH3,MH3*%
X116950000Y-103320000D03*
%TO.P,J1,MH4,MH4*%
X116950000Y-92020000D03*
%TO.P,J1,MH5,MH5*%
X112950000Y-103320000D03*
%TO.P,J1,MH6,MH6*%
X112950000Y-92020000D03*
%TD*%
D41*
%TO.P,J3,1,Pin_1*%
%TO.N,GND*%
X126230000Y-89630000D03*
D42*
%TO.P,J3,2,Pin_2*%
%TO.N,3.3V_AUX*%
X123690000Y-89630000D03*
%TO.P,J3,3,Pin_3*%
%TO.N,/OLED_SCL*%
X121150000Y-89630000D03*
%TO.P,J3,4,Pin_4*%
%TO.N,/OLED_SDA*%
X118610000Y-89630000D03*
%TD*%
D43*
%TO.N,GND*%
X132050000Y-100290000D03*
X131240000Y-100300000D03*
X130550000Y-100300000D03*
X129870000Y-100300000D03*
X129180000Y-100300000D03*
X128530000Y-100300000D03*
%TO.N,/SPI_CS*%
X127857500Y-100550000D03*
%TO.N,3.3V_AUX*%
X129580000Y-89450000D03*
%TO.N,/OLED_SCL*%
X130270000Y-89880000D03*
%TO.N,/OLED_SDA*%
X130260000Y-89050000D03*
%TO.N,GND*%
X132830000Y-100290000D03*
X132830000Y-99590000D03*
X132830000Y-98890000D03*
X132830000Y-98190000D03*
X132830000Y-97490000D03*
X132830000Y-96790000D03*
X132830000Y-96090000D03*
X132830000Y-95390000D03*
X132830000Y-94690000D03*
X132830000Y-93990000D03*
X132830000Y-93290000D03*
X132830000Y-92590000D03*
X132830000Y-91890000D03*
X132830000Y-91190000D03*
X132830000Y-90490000D03*
X132830000Y-89790000D03*
X132830000Y-89090000D03*
X132830000Y-88390000D03*
X132830000Y-87690000D03*
X125160000Y-107610000D03*
X127880000Y-104230000D03*
X127940000Y-107610000D03*
X125100000Y-104220000D03*
X128340000Y-102920000D03*
X128330000Y-102310000D03*
X128340000Y-101660000D03*
X128350000Y-101040000D03*
%TO.N,+3.3V*%
X124400000Y-97180000D03*
X113770000Y-106720000D03*
X124550000Y-91300000D03*
X118600000Y-100750000D03*
X122450000Y-90100000D03*
X118750000Y-94500000D03*
X123950000Y-99800000D03*
X120300000Y-106600000D03*
X113800000Y-88720000D03*
%TO.N,vusb*%
X118300000Y-102100000D03*
X118300000Y-102670000D03*
X117200000Y-100100000D03*
X117200000Y-95240000D03*
%TO.N,/B2*%
X119750000Y-105450000D03*
X120060000Y-100830000D03*
%TO.N,/B1*%
X119560000Y-100500000D03*
X114350000Y-105450000D03*
%TO.N,/AUX_EN*%
X122630000Y-94390000D03*
X126127500Y-91240000D03*
%TO.N,3.3V_AUX*%
X125350000Y-97980000D03*
X125350000Y-99250000D03*
%TO.N,Net-(J1-CC1)*%
X114890000Y-102862500D03*
%TO.N,Net-(J1-CC2)*%
X114900000Y-92547500D03*
%TO.N,Net-(U1-PB5)*%
X121050000Y-99650000D03*
X115670000Y-91200000D03*
%TO.N,/B_PW*%
X124450000Y-96500000D03*
X114390000Y-89880000D03*
%TO.N,Net-(U1-PB6)*%
X121550000Y-100200000D03*
X114420000Y-91220000D03*
%TO.N,BAT+*%
X117800000Y-106000000D03*
X131400000Y-91450000D03*
X130500000Y-93550000D03*
%TO.N,Net-(IC4-V_BCKP)*%
X123150000Y-91500000D03*
%TO.N,3.3V_GPS*%
X124350000Y-94150000D03*
X125000000Y-94150000D03*
%TO.N,/NRST*%
X131350000Y-98650000D03*
X124350000Y-97700000D03*
%TO.N,/D+*%
X117450000Y-96920000D03*
X117550000Y-97920000D03*
%TO.N,/D-*%
X117070000Y-97410000D03*
X117070000Y-98430000D03*
%TO.N,Net-(IC4-RXD)*%
X121250000Y-91250000D03*
%TO.N,Net-(IC4-TXD)*%
X120600000Y-91250000D03*
%TO.N,/OLED_SCL*%
X118300000Y-93350000D03*
X118350000Y-96750000D03*
%TO.N,/OLED_SDA*%
X117900000Y-96350000D03*
X118300000Y-92500000D03*
%TO.N,/SPI_CS*%
X120050000Y-94460000D03*
X130770000Y-99490000D03*
%TO.N,/SWCLK*%
X131350000Y-97400000D03*
X118865000Y-99180000D03*
%TO.N,/SWDIO*%
X117970000Y-98500000D03*
X131350000Y-96100000D03*
%TO.N,/SPI_MISO*%
X121550000Y-95190000D03*
X131640000Y-94000000D03*
%TO.N,/SPI_CLK*%
X122060000Y-94390000D03*
X125350000Y-96710000D03*
%TO.N,/SPI_MOSI*%
X121050000Y-94450000D03*
X125350000Y-95440000D03*
%TO.N,GND*%
X128200000Y-97345000D03*
X124150000Y-94750000D03*
X125500000Y-94550000D03*
X112190000Y-89760000D03*
X117200000Y-100950000D03*
X117050000Y-107200000D03*
X129665000Y-87630000D03*
X121910000Y-87630000D03*
X126700000Y-99245000D03*
X119802500Y-95930000D03*
X131050000Y-95440000D03*
X121302500Y-95930000D03*
X126050000Y-94550000D03*
X121180000Y-107450000D03*
X131780000Y-87630000D03*
X119802500Y-97430000D03*
X130370000Y-87630000D03*
X122650000Y-104250000D03*
X117900000Y-107400000D03*
X119850000Y-89790000D03*
X117050000Y-106300000D03*
X124025000Y-87630000D03*
X122802500Y-97430000D03*
X124730000Y-87630000D03*
X115410000Y-91790000D03*
X120400000Y-90650000D03*
X119700000Y-90950000D03*
X124870000Y-100100000D03*
X125435000Y-87630000D03*
X113125000Y-105450000D03*
X119080000Y-104700000D03*
X131400000Y-92410000D03*
X112040000Y-87630000D03*
X122440000Y-89500000D03*
X119795000Y-87630000D03*
X127550000Y-87630000D03*
X119780000Y-107460000D03*
X118230000Y-105430000D03*
X122650000Y-103560000D03*
X115350000Y-106200000D03*
X114860000Y-87630000D03*
X120500000Y-87630000D03*
X124870000Y-103560000D03*
X118930000Y-99810000D03*
X123320000Y-87630000D03*
X126140000Y-87630000D03*
X126700000Y-97345000D03*
X114092500Y-107400000D03*
X122650000Y-107010000D03*
X121970000Y-107430000D03*
X115400000Y-103650000D03*
X128200000Y-99245000D03*
X126700000Y-95445000D03*
X121515000Y-103800000D03*
X114440000Y-91790000D03*
X112500000Y-107400000D03*
X119090000Y-87630000D03*
X112200000Y-91120000D03*
X120975000Y-105450000D03*
X128290000Y-94120000D03*
X114155000Y-87630000D03*
X124950000Y-90190000D03*
X125630000Y-102270000D03*
X124130000Y-103560000D03*
X120460000Y-107450000D03*
X122802500Y-95930000D03*
X112190000Y-90420000D03*
X129700000Y-99245000D03*
X116380000Y-89810000D03*
X128960000Y-87630000D03*
X126845000Y-87630000D03*
X117680000Y-87630000D03*
X129100000Y-90550000D03*
X122615000Y-87630000D03*
X115030000Y-88630000D03*
X131075000Y-87630000D03*
X127550000Y-90550000D03*
X121302500Y-97430000D03*
X125600000Y-102850000D03*
X116975000Y-87630000D03*
X122650000Y-107700000D03*
X114400000Y-103650000D03*
X117350000Y-89800000D03*
X125312500Y-91240000D03*
X121205000Y-87630000D03*
X118385000Y-87630000D03*
X122802500Y-98930000D03*
X128200000Y-95445000D03*
X122650000Y-106320000D03*
X125610000Y-103560000D03*
X119802500Y-98930000D03*
X122650000Y-104940000D03*
X122650000Y-105630000D03*
X131350000Y-94800000D03*
X121302500Y-98930000D03*
X117200000Y-94390000D03*
X128255000Y-87630000D03*
X120970000Y-106340000D03*
X123390000Y-103560000D03*
X121507500Y-104500000D03*
%TO.N,Net-(IC5-~{CHRG})*%
X112150000Y-104850000D03*
X119150000Y-107500000D03*
%TO.N,/GPS_EXTINT*%
X118800000Y-96180000D03*
%TO.N,/ADC_BAT*%
X120540000Y-94890000D03*
%TD*%
D44*
%TO.N,3.3V_AUX*%
X127042500Y-100207500D02*
X127042500Y-100550000D01*
X127430000Y-99820000D02*
X127042500Y-100207500D01*
X130080000Y-99820000D02*
X127430000Y-99820000D01*
X130250000Y-99650000D02*
X130080000Y-99820000D01*
X130250000Y-97000000D02*
X130250000Y-99650000D01*
X130540000Y-96710000D02*
X130250000Y-97000000D01*
X131050000Y-96710000D02*
X130540000Y-96710000D01*
D45*
%TO.N,BAT+*%
X131065000Y-91115000D02*
X130140000Y-91115000D01*
X130140000Y-91115000D02*
X130130000Y-91125000D01*
X131400000Y-91450000D02*
X131065000Y-91115000D01*
D46*
%TO.N,/SPI_MISO*%
X131570000Y-97980000D02*
X131050000Y-97980000D01*
X131880000Y-97670000D02*
X131570000Y-97980000D01*
X131880000Y-94230000D02*
X131880000Y-97670000D01*
X131650000Y-94000000D02*
X131880000Y-94230000D01*
X131640000Y-94000000D02*
X131650000Y-94000000D01*
%TO.N,/SPI_CS*%
X130770000Y-99490000D02*
X130770000Y-99650000D01*
X130770000Y-99490000D02*
X130810000Y-99490000D01*
X130810000Y-99490000D02*
X131050000Y-99250000D01*
D44*
%TO.N,+3.3V*%
X119050000Y-101100000D02*
X119050000Y-102025000D01*
D47*
X125250000Y-92000000D02*
X125590000Y-92000000D01*
X124550000Y-91300000D02*
X125250000Y-92000000D01*
D44*
X124400000Y-97180000D02*
X123740000Y-97180000D01*
X118700000Y-100750000D02*
X119050000Y-101100000D01*
X119050000Y-102025000D02*
X119025000Y-102050000D01*
X118600000Y-100750000D02*
X118700000Y-100750000D01*
X113800000Y-89492500D02*
X113800000Y-88720000D01*
D46*
%TO.N,/B2*%
X119750000Y-105460000D02*
X120075000Y-105785000D01*
X119407500Y-105792500D02*
X119200000Y-105792500D01*
X119750000Y-105450000D02*
X119750000Y-105460000D01*
X120060000Y-100830000D02*
X120050000Y-100840000D01*
X120075000Y-105785000D02*
X120300000Y-105785000D01*
X119750000Y-105450000D02*
X119407500Y-105792500D01*
X120050000Y-100840000D02*
X120050000Y-99870000D01*
X120050000Y-99870000D02*
X120052500Y-99867500D01*
%TO.N,/B1*%
X119560000Y-100415000D02*
X119552500Y-100407500D01*
X113835000Y-105450000D02*
X114350000Y-105450000D01*
X113730000Y-105555000D02*
X113835000Y-105450000D01*
X119552500Y-100407500D02*
X119552500Y-99867500D01*
X114930000Y-105672500D02*
X114930000Y-105490000D01*
X113730000Y-105682500D02*
X113730000Y-105555000D01*
X114890000Y-105450000D02*
X114350000Y-105450000D01*
X113770000Y-105722500D02*
X113730000Y-105682500D01*
X119560000Y-100500000D02*
X119560000Y-100415000D01*
X114930000Y-105490000D02*
X114890000Y-105450000D01*
%TO.N,/AUX_EN*%
X126090000Y-92000000D02*
X126090000Y-91277500D01*
X122552500Y-94467500D02*
X122630000Y-94390000D01*
X122552500Y-94992500D02*
X122552500Y-94467500D01*
X126090000Y-91277500D02*
X126127500Y-91240000D01*
%TO.N,/USB_DETECT*%
X120552500Y-103652500D02*
X120700000Y-103800000D01*
X120700000Y-104492500D02*
X120692500Y-104500000D01*
X120552500Y-99867500D02*
X120552500Y-103652500D01*
X120700000Y-103800000D02*
X119707500Y-103800000D01*
X120700000Y-103800000D02*
X120700000Y-104492500D01*
%TO.N,Net-(U1-PB5)*%
X115670000Y-91200000D02*
X115670000Y-90387500D01*
X115670000Y-90387500D02*
X115750000Y-90307500D01*
%TO.N,/B_PW*%
X113800000Y-90307500D02*
X113962500Y-90307500D01*
X114817500Y-90307500D02*
X114390000Y-89880000D01*
X124270000Y-96680000D02*
X123740000Y-96680000D01*
X124450000Y-96500000D02*
X124270000Y-96680000D01*
X113962500Y-90307500D02*
X114390000Y-89880000D01*
X115000000Y-90307500D02*
X114817500Y-90307500D01*
%TO.N,Net-(U1-PB6)*%
X113480000Y-90880000D02*
X113000000Y-90400000D01*
X113000000Y-90400000D02*
X113000000Y-90357500D01*
X114420000Y-91210000D02*
X114090000Y-90880000D01*
X114420000Y-91220000D02*
X114420000Y-91210000D01*
X114090000Y-90880000D02*
X113480000Y-90880000D01*
X113000000Y-90357500D02*
X113050000Y-90307500D01*
D44*
%TO.N,BAT+*%
X130500000Y-93257500D02*
X130492500Y-93250000D01*
X130500000Y-93550000D02*
X130500000Y-93257500D01*
D47*
%TO.N,Net-(IC4-V_BCKP)*%
X123150000Y-91500000D02*
X122975000Y-91325000D01*
X122975000Y-91325000D02*
X122975000Y-90750000D01*
D46*
%TO.N,/NRST*%
X124350000Y-97700000D02*
X124250000Y-97700000D01*
X124230000Y-97680000D02*
X123740000Y-97680000D01*
X124250000Y-97700000D02*
X124230000Y-97680000D01*
D47*
%TO.N,/D+*%
X117860000Y-95370000D02*
X117890000Y-95400000D01*
X117890000Y-95400000D02*
X117890000Y-95500000D01*
X117210000Y-96680000D02*
X117450000Y-96920000D01*
X117890000Y-95500000D02*
X117210000Y-96180000D01*
D48*
X117690000Y-98060000D02*
X118260000Y-98060000D01*
X118370000Y-98170000D02*
X118855000Y-98170000D01*
D47*
X117210000Y-96180000D02*
X117210000Y-96680000D01*
D48*
X118260000Y-98060000D02*
X118370000Y-98170000D01*
X118855000Y-98170000D02*
X118865000Y-98180000D01*
X117550000Y-97920000D02*
X117690000Y-98060000D01*
D47*
%TO.N,/D-*%
X117900000Y-99650000D02*
X117070000Y-98820000D01*
X117900000Y-99730000D02*
X117900000Y-99650000D01*
D48*
X118230000Y-97780000D02*
X118010000Y-97780000D01*
X118010000Y-97780000D02*
X117640000Y-97410000D01*
D47*
X117070000Y-98820000D02*
X117070000Y-98430000D01*
D48*
X118865000Y-97680000D02*
X118330000Y-97680000D01*
X117640000Y-97410000D02*
X117070000Y-97410000D01*
X118330000Y-97680000D02*
X118230000Y-97780000D01*
D46*
%TO.N,Net-(IC4-RXD)*%
X121250000Y-91750000D02*
X121400000Y-91900000D01*
X121400000Y-91900000D02*
X121685000Y-91900000D01*
X121250000Y-91250000D02*
X121250000Y-91750000D01*
%TO.N,Net-(IC4-TXD)*%
X120600000Y-92050000D02*
X121150000Y-92600000D01*
X121150000Y-92600000D02*
X121685000Y-92600000D01*
X120600000Y-91250000D02*
X120600000Y-92050000D01*
%TO.N,Net-(IC5-PROG)*%
X116100000Y-107000000D02*
X115710000Y-107390000D01*
X114917500Y-107390000D02*
X114907500Y-107400000D01*
X115710000Y-107390000D02*
X114917500Y-107390000D01*
%TO.N,/OLED_SCL*%
X118800000Y-92850000D02*
X118800000Y-91150000D01*
X118800000Y-91150000D02*
X119660000Y-90290000D01*
X118865000Y-96680000D02*
X118420000Y-96680000D01*
X118420000Y-96680000D02*
X118350000Y-96750000D01*
X118300000Y-93350000D02*
X118800000Y-92850000D01*
X119660000Y-90290000D02*
X120490000Y-90290000D01*
X120490000Y-90290000D02*
X121150000Y-89630000D01*
%TO.N,/OLED_SDA*%
X118300000Y-89940000D02*
X118610000Y-89630000D01*
X118300000Y-92500000D02*
X118300000Y-89940000D01*
X117900000Y-97000000D02*
X118080000Y-97180000D01*
X118080000Y-97180000D02*
X118865000Y-97180000D01*
X117900000Y-96350000D02*
X117900000Y-97000000D01*
%TO.N,Net-(LEDBLUE1-A)*%
X113160000Y-89332500D02*
X113050000Y-89442500D01*
X112720000Y-87990000D02*
X113160000Y-88430000D01*
X112675000Y-87990000D02*
X112720000Y-87990000D01*
X113160000Y-88430000D02*
X113160000Y-89332500D01*
X113050000Y-89442500D02*
X113050000Y-89492500D01*
%TO.N,Net-(LEDGREEN1-A)*%
X116105000Y-88000000D02*
X116010000Y-88000000D01*
X115540000Y-88470000D02*
X115540000Y-89232500D01*
X115540000Y-89232500D02*
X115750000Y-89442500D01*
X116010000Y-88000000D02*
X115540000Y-88470000D01*
X115750000Y-89442500D02*
X115750000Y-89492500D01*
X116125000Y-87980000D02*
X116105000Y-88000000D01*
%TO.N,/GPS_TX*%
X123052500Y-94687500D02*
X123052500Y-94992500D01*
X122900000Y-92600000D02*
X123280000Y-92980000D01*
X123280000Y-94460000D02*
X123052500Y-94687500D01*
X123280000Y-92980000D02*
X123280000Y-94460000D01*
X122500000Y-92600000D02*
X122900000Y-92600000D01*
%TO.N,/GPS_RX*%
X123740000Y-95680000D02*
X123680000Y-95680000D01*
X123570000Y-92470000D02*
X123000000Y-91900000D01*
X123000000Y-91900000D02*
X122500000Y-91900000D01*
X123680000Y-95680000D02*
X123570000Y-95570000D01*
X123570000Y-95570000D02*
X123570000Y-92470000D01*
%TO.N,/SPI_CS*%
X120050000Y-94990000D02*
X120052500Y-94992500D01*
X120050000Y-94460000D02*
X120050000Y-94990000D01*
%TO.N,/SWDIO*%
X118360000Y-98680000D02*
X118865000Y-98680000D01*
X118180000Y-98500000D02*
X118360000Y-98680000D01*
X117970000Y-98500000D02*
X118180000Y-98500000D01*
%TO.N,/SPI_CLK*%
X122060000Y-94445000D02*
X122052500Y-94452500D01*
X122060000Y-94390000D02*
X122060000Y-94445000D01*
X122052500Y-94452500D02*
X122052500Y-94992500D01*
%TO.N,/SPI_MOSI*%
X121052500Y-94452500D02*
X121052500Y-94992500D01*
X121050000Y-94450000D02*
X121052500Y-94452500D01*
%TO.N,/GPS_EN*%
X126590000Y-93350000D02*
X126590000Y-94127500D01*
X124730000Y-94940000D02*
X126360000Y-94940000D01*
X124240000Y-96180000D02*
X124470000Y-95950000D01*
X126577500Y-94722500D02*
X126577500Y-94140000D01*
X124470000Y-95950000D02*
X124470000Y-95200000D01*
X126590000Y-94127500D02*
X126577500Y-94140000D01*
X124470000Y-95200000D02*
X124730000Y-94940000D01*
X126360000Y-94940000D02*
X126577500Y-94722500D01*
X123740000Y-96180000D02*
X124240000Y-96180000D01*
%TO.N,Net-(U2-EN)*%
X129342500Y-93435000D02*
X129415000Y-93435000D01*
X130800000Y-94150000D02*
X129625000Y-94150000D01*
X129415000Y-93435000D02*
X129625000Y-93645000D01*
X131417500Y-93360000D02*
X131417500Y-93532500D01*
X131307500Y-93250000D02*
X131417500Y-93360000D01*
X129625000Y-93645000D02*
X129625000Y-94150000D01*
X131417500Y-93532500D02*
X130800000Y-94150000D01*
%TO.N,Net-(U1-PH3)*%
X122552500Y-99867500D02*
X122552500Y-100947500D01*
X122552500Y-100947500D02*
X122250000Y-101250000D01*
X122250000Y-102025000D02*
X122275000Y-102050000D01*
X122250000Y-101250000D02*
X122250000Y-102025000D01*
%TO.N,Net-(IC5-~{CHRG})*%
X118740000Y-107180000D02*
X119060000Y-107500000D01*
X119060000Y-107500000D02*
X119150000Y-107500000D01*
X118690000Y-106730000D02*
X118740000Y-106780000D01*
X118000000Y-106500000D02*
X118460000Y-106500000D01*
X112200000Y-104750000D02*
X112150000Y-104800000D01*
X112150000Y-104800000D02*
X112150000Y-104850000D01*
X112465000Y-104550000D02*
X112400000Y-104550000D01*
X112400000Y-104550000D02*
X112200000Y-104750000D01*
X118460000Y-106500000D02*
X118690000Y-106730000D01*
X118740000Y-106780000D02*
X118740000Y-107180000D01*
%TO.N,Net-(LEDRED1-A)*%
X114442500Y-104550000D02*
X113435000Y-104550000D01*
%TD*%
%TA.AperFunction,Conductor*%
%TO.N,3.3V_GPS*%
G36*
X125693039Y-93069685D02*
G01*
X125738794Y-93122489D01*
X125750000Y-93174000D01*
X125750000Y-93557740D01*
X125730315Y-93624779D01*
X125677511Y-93670534D01*
X125661631Y-93676510D01*
X125250000Y-93799999D01*
X125250000Y-94326000D01*
X125230315Y-94393039D01*
X125177511Y-94438794D01*
X125126000Y-94450000D01*
X124224000Y-94450000D01*
X124156961Y-94430315D01*
X124111206Y-94377511D01*
X124100000Y-94326000D01*
X124100000Y-93917567D01*
X124119685Y-93850528D01*
X124156776Y-93813370D01*
X124177502Y-93799999D01*
X125309305Y-93069802D01*
X125326506Y-93064719D01*
X125341594Y-93055023D01*
X125376102Y-93050061D01*
X125376310Y-93050000D01*
X125626000Y-93050000D01*
X125693039Y-93069685D01*
G37*
%TD.AperFunction*%
%TD*%
%TA.AperFunction,Conductor*%
%TO.N,3.3V_AUX*%
G36*
X125896633Y-97769685D02*
G01*
X125942388Y-97822489D01*
X125953540Y-97870355D01*
X125999999Y-99449998D01*
X125999999Y-99449999D01*
X126000000Y-99450000D01*
X126450000Y-99800000D01*
X127123364Y-99800000D01*
X127190403Y-99819685D01*
X127234273Y-99868546D01*
X127386909Y-100173818D01*
X127400000Y-100229272D01*
X127400000Y-100676000D01*
X127380315Y-100743039D01*
X127327511Y-100788794D01*
X127276000Y-100800000D01*
X125874000Y-100800000D01*
X125806961Y-100780315D01*
X125761206Y-100727511D01*
X125750000Y-100676000D01*
X125750000Y-100350000D01*
X125749999Y-100349999D01*
X124815134Y-99537073D01*
X124777462Y-99478229D01*
X124772500Y-99443502D01*
X124772500Y-97874000D01*
X124792185Y-97806961D01*
X124844989Y-97761206D01*
X124896500Y-97750000D01*
X125829594Y-97750000D01*
X125896633Y-97769685D01*
G37*
%TD.AperFunction*%
%TD*%
%TA.AperFunction,Conductor*%
%TO.N,+3.3V*%
G36*
X126953703Y-90619685D02*
G01*
X126976682Y-90638720D01*
X127085695Y-90753789D01*
X127117511Y-90815994D01*
X127119674Y-90839877D01*
X127114999Y-91556850D01*
X127699994Y-91769998D01*
X127699995Y-91769998D01*
X127700000Y-91770000D01*
X128088752Y-91770000D01*
X128155791Y-91789685D01*
X128187223Y-91818638D01*
X128741767Y-92543234D01*
X128749415Y-92563093D01*
X128761365Y-92580705D01*
X128765417Y-92604641D01*
X128766879Y-92608435D01*
X128767257Y-92615503D01*
X128768579Y-92668491D01*
X128750573Y-92736001D01*
X128732126Y-92759438D01*
X128651700Y-92839548D01*
X128590312Y-92872912D01*
X128564192Y-92875694D01*
X128349075Y-92875694D01*
X128091952Y-93339998D01*
X128042254Y-93389108D01*
X127982562Y-93403922D01*
X127504002Y-93400397D01*
X127437109Y-93380219D01*
X127413508Y-93360190D01*
X126900000Y-92800000D01*
X126574000Y-92800000D01*
X126506961Y-92780315D01*
X126461206Y-92727511D01*
X126450000Y-92676000D01*
X126450000Y-91728219D01*
X126462211Y-91674560D01*
X126570000Y-91450000D01*
X126580000Y-90980000D01*
X126497330Y-90938665D01*
X126439999Y-90909999D01*
X126440000Y-90909999D01*
X124999930Y-90900068D01*
X124990000Y-90900000D01*
X124989999Y-90900000D01*
X124809999Y-91070000D01*
X124801644Y-91279358D01*
X124794576Y-91300299D01*
X124792137Y-91322267D01*
X124780720Y-91341354D01*
X124779302Y-91345559D01*
X124774021Y-91352557D01*
X124667219Y-91484144D01*
X124609688Y-91523791D01*
X124570941Y-91530000D01*
X124509598Y-91530000D01*
X124442559Y-91510315D01*
X124412774Y-91483466D01*
X124399080Y-91466350D01*
X124372569Y-91401706D01*
X124372021Y-91383509D01*
X124388270Y-91009770D01*
X124410848Y-90943652D01*
X124414523Y-90938711D01*
X124642766Y-90647505D01*
X124699614Y-90606886D01*
X124740360Y-90600000D01*
X126886664Y-90600000D01*
X126953703Y-90619685D01*
G37*
%TD.AperFunction*%
%TD*%
%TA.AperFunction,Conductor*%
%TO.N,vusb*%
G36*
X118463039Y-101819685D02*
G01*
X118508794Y-101872489D01*
X118520000Y-101924000D01*
X118520000Y-102550001D01*
X118633073Y-102747223D01*
X118633074Y-102747223D01*
X118649500Y-102775874D01*
X118649501Y-102809898D01*
X118655331Y-102839213D01*
X118677543Y-102872457D01*
X118710787Y-102894669D01*
X118718488Y-102896200D01*
X118736326Y-102927313D01*
X118949999Y-103299999D01*
X118950003Y-103300004D01*
X119213681Y-103563681D01*
X119247166Y-103625004D01*
X119250000Y-103651362D01*
X119250000Y-103963951D01*
X119230315Y-104030990D01*
X119177511Y-104076745D01*
X119169393Y-104080111D01*
X118600000Y-104292814D01*
X118600000Y-104916881D01*
X118580315Y-104983920D01*
X118527511Y-105029675D01*
X118500629Y-105038410D01*
X117962193Y-105147529D01*
X117937564Y-105150000D01*
X116900000Y-105150000D01*
X116550000Y-105750000D01*
X116550000Y-105750001D01*
X116550000Y-106026000D01*
X116530315Y-106093039D01*
X116477511Y-106138794D01*
X116426000Y-106150000D01*
X115769544Y-106150000D01*
X115702505Y-106130315D01*
X115663737Y-106090660D01*
X115152744Y-105254491D01*
X115147642Y-105245285D01*
X115039837Y-105029675D01*
X114913091Y-104776182D01*
X114900000Y-104720728D01*
X114900000Y-104436005D01*
X114919685Y-104368966D01*
X114972489Y-104323211D01*
X115024196Y-104312005D01*
X115773574Y-104313211D01*
X115786401Y-104313899D01*
X116600000Y-104400000D01*
X117450000Y-104400000D01*
X118150000Y-103700000D01*
X118150000Y-103000000D01*
X118120925Y-102927313D01*
X117998869Y-102622172D01*
X117990000Y-102576120D01*
X117990000Y-101924000D01*
X118009685Y-101856961D01*
X118062489Y-101811206D01*
X118114000Y-101800000D01*
X118396000Y-101800000D01*
X118463039Y-101819685D01*
G37*
%TD.AperFunction*%
%TD*%
%TA.AperFunction,Conductor*%
%TO.N,BAT+*%
G36*
X130376841Y-90363917D02*
G01*
X130459853Y-90406961D01*
X131633079Y-91015300D01*
X131683533Y-91063635D01*
X131700000Y-91125382D01*
X131700000Y-91806000D01*
X131680315Y-91873039D01*
X131627511Y-91918794D01*
X131576000Y-91930000D01*
X131400000Y-91930000D01*
X130940000Y-92067432D01*
X130946494Y-92965364D01*
X130927295Y-93032544D01*
X130925600Y-93035151D01*
X130901132Y-93071770D01*
X130901131Y-93071770D01*
X130889500Y-93130247D01*
X130889500Y-93326000D01*
X130869815Y-93393039D01*
X130817011Y-93438794D01*
X130765500Y-93450000D01*
X130388904Y-93450000D01*
X130321865Y-93430315D01*
X130316559Y-93426708D01*
X129550280Y-92875949D01*
X129337838Y-92876201D01*
X129308313Y-92867569D01*
X129278264Y-92861033D01*
X129273337Y-92857345D01*
X129270775Y-92856596D01*
X129250010Y-92839882D01*
X129171649Y-92761521D01*
X129138164Y-92700198D01*
X129135335Y-92672720D01*
X129135876Y-92613192D01*
X129156169Y-92546337D01*
X129159141Y-92542008D01*
X129800000Y-91650000D01*
X129800000Y-90474000D01*
X129819685Y-90406961D01*
X129872489Y-90361206D01*
X129924000Y-90350000D01*
X130319763Y-90350000D01*
X130376841Y-90363917D01*
G37*
%TD.AperFunction*%
%TD*%
%TA.AperFunction,Conductor*%
%TO.N,+3.3V*%
G36*
X119793039Y-92469685D02*
G01*
X119838794Y-92522489D01*
X119850000Y-92574000D01*
X119850000Y-93748344D01*
X119830315Y-93815383D01*
X119777511Y-93861138D01*
X119750319Y-93869936D01*
X119600000Y-93899999D01*
X119300001Y-94249998D01*
X119300000Y-94250001D01*
X119300000Y-95676000D01*
X119280315Y-95743039D01*
X119227511Y-95788794D01*
X119176000Y-95800000D01*
X118427593Y-95800000D01*
X118417204Y-95796949D01*
X118406448Y-95798184D01*
X118384265Y-95787277D01*
X118360554Y-95780315D01*
X118353465Y-95772134D01*
X118343747Y-95767356D01*
X118330981Y-95746186D01*
X118314799Y-95727511D01*
X118312308Y-95715220D01*
X118307667Y-95707523D01*
X118303644Y-95672459D01*
X118305284Y-95615049D01*
X118307615Y-95594401D01*
X118310500Y-95579899D01*
X118310499Y-95434222D01*
X118310549Y-95430774D01*
X118348312Y-94109063D01*
X118369903Y-94042615D01*
X118396933Y-94014109D01*
X119200000Y-93400000D01*
X119200000Y-92574000D01*
X119219685Y-92506961D01*
X119272489Y-92461206D01*
X119324000Y-92450000D01*
X119726000Y-92450000D01*
X119793039Y-92469685D01*
G37*
%TD.AperFunction*%
%TD*%
%TA.AperFunction,Conductor*%
%TO.N,3.3V_AUX*%
G36*
X124351139Y-89666667D02*
G01*
X124417821Y-89687532D01*
X124462637Y-89741135D01*
X124471358Y-89810458D01*
X124461836Y-89841960D01*
X124240000Y-90329997D01*
X124239999Y-90330001D01*
X124249999Y-91499998D01*
X124250000Y-91500000D01*
X125140000Y-92500000D01*
X125626000Y-92500000D01*
X125634685Y-92502550D01*
X125643647Y-92501262D01*
X125667687Y-92512240D01*
X125693039Y-92519685D01*
X125698966Y-92526525D01*
X125707203Y-92530287D01*
X125721492Y-92552521D01*
X125738794Y-92572489D01*
X125741081Y-92583003D01*
X125744977Y-92589065D01*
X125750000Y-92624000D01*
X125750000Y-92726000D01*
X125730315Y-92793039D01*
X125677511Y-92838794D01*
X125626000Y-92850000D01*
X124606312Y-92850000D01*
X124539273Y-92830315D01*
X124512944Y-92807599D01*
X123540632Y-91695050D01*
X123511338Y-91631618D01*
X123510000Y-91613451D01*
X123510000Y-90820001D01*
X123509998Y-90819995D01*
X123370000Y-90450000D01*
X122898132Y-90096099D01*
X122896337Y-90093697D01*
X122893583Y-90092518D01*
X122875561Y-90065891D01*
X122856311Y-90040128D01*
X122855591Y-90036387D01*
X122854420Y-90034656D01*
X122848567Y-89999855D01*
X122843076Y-89769210D01*
X122861159Y-89701723D01*
X122912859Y-89654725D01*
X122969226Y-89642280D01*
X124351139Y-89666667D01*
G37*
%TD.AperFunction*%
%TD*%
%TA.AperFunction,Conductor*%
%TO.N,Net-(U1-PH3)*%
G36*
X122572776Y-101119685D02*
G01*
X122584247Y-101128020D01*
X123100000Y-101550000D01*
X123576000Y-101550000D01*
X123643039Y-101569685D01*
X123688794Y-101622489D01*
X123700000Y-101674000D01*
X123700000Y-102590535D01*
X123680315Y-102657574D01*
X123627511Y-102703329D01*
X123591380Y-102713577D01*
X122507664Y-102849042D01*
X122492284Y-102850000D01*
X122124000Y-102850000D01*
X122056961Y-102830315D01*
X122011206Y-102777511D01*
X122000000Y-102726000D01*
X122000000Y-101366362D01*
X122019685Y-101299323D01*
X122055215Y-101263189D01*
X122268761Y-101120826D01*
X122286752Y-101115213D01*
X122302609Y-101105023D01*
X122333787Y-101100540D01*
X122335461Y-101100018D01*
X122337544Y-101100000D01*
X122505737Y-101100000D01*
X122572776Y-101119685D01*
G37*
%TD.AperFunction*%
%TD*%
%TA.AperFunction,Conductor*%
%TO.N,+3.3V*%
G36*
X124098401Y-98999944D02*
G01*
X124165430Y-99019665D01*
X124211156Y-99072494D01*
X124219925Y-99099626D01*
X124547592Y-100737960D01*
X124550000Y-100762278D01*
X124550000Y-101076000D01*
X124530315Y-101143039D01*
X124477511Y-101188794D01*
X124426000Y-101200000D01*
X123974000Y-101200000D01*
X123906961Y-101180315D01*
X123861206Y-101127511D01*
X123850000Y-101076000D01*
X123850000Y-100750002D01*
X123849999Y-100749998D01*
X123845231Y-100737960D01*
X123302914Y-99368609D01*
X123301561Y-99361520D01*
X123299225Y-99357885D01*
X123294202Y-99322950D01*
X123294202Y-99123571D01*
X123313887Y-99056532D01*
X123366691Y-99010777D01*
X123418269Y-98999571D01*
X124098401Y-98999944D01*
G37*
%TD.AperFunction*%
%TD*%
%TA.AperFunction,Conductor*%
%TO.N,GND*%
G36*
X133025615Y-87400291D02*
G01*
X133092636Y-87420038D01*
X133138342Y-87472884D01*
X133149500Y-87524291D01*
X133149500Y-100456000D01*
X133129815Y-100523039D01*
X133077011Y-100568794D01*
X133025500Y-100580000D01*
X128760000Y-100580000D01*
X128760000Y-107835500D01*
X128740315Y-107902539D01*
X128687511Y-107948294D01*
X128636000Y-107959500D01*
X119414344Y-107959500D01*
X119347305Y-107939815D01*
X119301550Y-107887011D01*
X119291606Y-107817853D01*
X119320631Y-107754297D01*
X119328984Y-107746427D01*
X119328764Y-107746207D01*
X119334511Y-107740460D01*
X119390460Y-107684511D01*
X119430021Y-107615989D01*
X119450500Y-107539562D01*
X119450500Y-107460438D01*
X119430021Y-107384011D01*
X119430017Y-107384004D01*
X119390464Y-107315495D01*
X119390458Y-107315487D01*
X119334512Y-107259541D01*
X119334504Y-107259535D01*
X119265995Y-107219982D01*
X119265990Y-107219979D01*
X119235932Y-107211925D01*
X119189562Y-107199500D01*
X119110438Y-107199500D01*
X119110435Y-107199500D01*
X119081826Y-107207166D01*
X119069826Y-107206880D01*
X119058580Y-107211075D01*
X119035545Y-107206064D01*
X119011976Y-107205503D01*
X119000328Y-107198403D01*
X118990307Y-107196223D01*
X118962053Y-107175072D01*
X118936819Y-107149838D01*
X118903334Y-107088515D01*
X118900500Y-107062157D01*
X118900500Y-106748076D01*
X118900500Y-106748075D01*
X118876065Y-106689084D01*
X118830916Y-106643935D01*
X118780916Y-106593935D01*
X118551705Y-106364724D01*
X118524823Y-106324492D01*
X118520151Y-106313212D01*
X118519669Y-106310787D01*
X118518294Y-106308730D01*
X118513622Y-106297448D01*
X118511140Y-106274362D01*
X118504205Y-106252208D01*
X118507477Y-106240279D01*
X118506156Y-106227979D01*
X118516548Y-106207218D01*
X118518047Y-106201756D01*
X118514996Y-106200493D01*
X118519668Y-106189214D01*
X118519669Y-106189213D01*
X118525500Y-106159899D01*
X118525499Y-105840102D01*
X118519669Y-105810787D01*
X118519668Y-105810785D01*
X118497457Y-105777542D01*
X118464214Y-105755332D01*
X118464215Y-105755332D01*
X118464213Y-105755331D01*
X118464211Y-105755330D01*
X118464208Y-105755329D01*
X118434901Y-105749500D01*
X118434899Y-105749500D01*
X118000347Y-105749500D01*
X117938349Y-105732888D01*
X117915989Y-105719979D01*
X117915990Y-105719979D01*
X117890513Y-105713152D01*
X117839562Y-105699500D01*
X117760438Y-105699500D01*
X117684011Y-105719979D01*
X117661648Y-105732890D01*
X117599655Y-105749500D01*
X117565105Y-105749500D01*
X117565096Y-105749501D01*
X117535787Y-105755330D01*
X117502542Y-105777542D01*
X117480332Y-105810785D01*
X117480329Y-105810791D01*
X117474500Y-105840098D01*
X117474500Y-106159894D01*
X117474501Y-106159902D01*
X117480330Y-106189212D01*
X117485004Y-106200496D01*
X117481449Y-106201968D01*
X117495795Y-106247805D01*
X117481950Y-106298241D01*
X117485004Y-106299507D01*
X117480329Y-106310791D01*
X117474500Y-106340098D01*
X117474500Y-106659894D01*
X117474501Y-106659902D01*
X117480330Y-106689212D01*
X117502542Y-106722457D01*
X117507097Y-106725500D01*
X117535787Y-106744669D01*
X117535790Y-106744669D01*
X117535791Y-106744670D01*
X117545647Y-106746630D01*
X117565101Y-106750500D01*
X118432156Y-106750499D01*
X118461602Y-106759145D01*
X118491583Y-106765667D01*
X118496596Y-106769419D01*
X118499195Y-106770183D01*
X118519837Y-106786818D01*
X118543181Y-106810162D01*
X118576666Y-106871485D01*
X118579500Y-106897843D01*
X118579500Y-107148075D01*
X118579500Y-107211925D01*
X118603935Y-107270916D01*
X118603936Y-107270917D01*
X118817557Y-107484538D01*
X118849650Y-107540124D01*
X118869977Y-107615984D01*
X118869982Y-107615995D01*
X118909535Y-107684504D01*
X118909541Y-107684512D01*
X118971236Y-107746207D01*
X118969234Y-107748208D01*
X119002343Y-107793547D01*
X119006501Y-107863292D01*
X118972292Y-107924214D01*
X118910576Y-107956970D01*
X118885656Y-107959500D01*
X111894500Y-107959500D01*
X111827461Y-107939815D01*
X111781706Y-107887011D01*
X111770500Y-107835500D01*
X111770500Y-107280247D01*
X114489500Y-107280247D01*
X114489500Y-107519752D01*
X114501131Y-107578229D01*
X114501132Y-107578230D01*
X114545447Y-107644552D01*
X114611769Y-107688867D01*
X114611770Y-107688868D01*
X114670247Y-107700499D01*
X114670250Y-107700500D01*
X114670252Y-107700500D01*
X115144750Y-107700500D01*
X115144751Y-107700499D01*
X115159568Y-107697552D01*
X115203229Y-107688868D01*
X115203229Y-107688867D01*
X115203231Y-107688867D01*
X115269552Y-107644552D01*
X115269553Y-107644551D01*
X115295575Y-107605608D01*
X115349187Y-107560804D01*
X115398676Y-107550500D01*
X115741924Y-107550500D01*
X115741925Y-107550500D01*
X115800916Y-107526065D01*
X116040163Y-107286816D01*
X116101484Y-107253333D01*
X116127843Y-107250499D01*
X116534895Y-107250499D01*
X116534898Y-107250499D01*
X116564213Y-107244669D01*
X116597457Y-107222457D01*
X116619669Y-107189213D01*
X116625500Y-107159899D01*
X116625499Y-106840102D01*
X116619669Y-106810787D01*
X116612616Y-106800231D01*
X116597457Y-106777542D01*
X116564214Y-106755332D01*
X116564215Y-106755332D01*
X116564213Y-106755331D01*
X116564211Y-106755330D01*
X116564208Y-106755329D01*
X116534901Y-106749500D01*
X115665105Y-106749500D01*
X115665097Y-106749501D01*
X115635787Y-106755330D01*
X115602542Y-106777542D01*
X115580332Y-106810785D01*
X115580329Y-106810791D01*
X115574500Y-106840098D01*
X115574501Y-107105500D01*
X115571950Y-107114186D01*
X115573239Y-107123147D01*
X115562261Y-107147183D01*
X115554817Y-107172539D01*
X115547974Y-107178467D01*
X115544214Y-107186703D01*
X115521982Y-107200989D01*
X115502013Y-107218294D01*
X115491497Y-107220581D01*
X115485436Y-107224477D01*
X115450501Y-107229500D01*
X115385312Y-107229500D01*
X115318273Y-107209815D01*
X115282210Y-107174392D01*
X115269551Y-107155446D01*
X115203230Y-107111132D01*
X115203229Y-107111131D01*
X115144752Y-107099500D01*
X115144748Y-107099500D01*
X114670252Y-107099500D01*
X114670247Y-107099500D01*
X114611770Y-107111131D01*
X114611769Y-107111132D01*
X114545447Y-107155447D01*
X114501132Y-107221769D01*
X114501131Y-107221770D01*
X114489500Y-107280247D01*
X111770500Y-107280247D01*
X111770500Y-107179990D01*
X111790185Y-107112951D01*
X111815439Y-107084463D01*
X112214786Y-106753970D01*
X112278982Y-106726394D01*
X112293843Y-106725500D01*
X112294181Y-106725500D01*
X112294183Y-106725500D01*
X112427836Y-106689688D01*
X112547665Y-106620505D01*
X112645505Y-106522665D01*
X112714688Y-106402836D01*
X112750500Y-106269183D01*
X112750500Y-106130817D01*
X112714688Y-105997164D01*
X112675620Y-105929496D01*
X112641442Y-105870297D01*
X112642915Y-105869446D01*
X112621236Y-105813385D01*
X112627766Y-105762094D01*
X112720653Y-105496705D01*
X112727059Y-105486510D01*
X112728858Y-105478243D01*
X112750003Y-105449996D01*
X112825883Y-105374116D01*
X112834483Y-105366289D01*
X113111442Y-105137081D01*
X113129682Y-105124553D01*
X113182690Y-105094736D01*
X113250769Y-105079027D01*
X113316536Y-105102619D01*
X113325135Y-105109494D01*
X113475427Y-105241000D01*
X113512917Y-105299960D01*
X113512579Y-105369829D01*
X113496875Y-105403209D01*
X113481132Y-105426770D01*
X113481131Y-105426770D01*
X113469500Y-105485247D01*
X113469500Y-105959752D01*
X113481131Y-106018229D01*
X113481132Y-106018230D01*
X113509783Y-106061109D01*
X113530661Y-106127786D01*
X113512177Y-106195167D01*
X113509783Y-106198891D01*
X113481132Y-106241769D01*
X113481131Y-106241770D01*
X113469500Y-106300247D01*
X113469500Y-106774752D01*
X113481131Y-106833229D01*
X113481132Y-106833231D01*
X113527194Y-106902165D01*
X113529540Y-106904511D01*
X113585489Y-106960460D01*
X113585491Y-106960461D01*
X113585495Y-106960464D01*
X113588246Y-106962052D01*
X113654011Y-107000021D01*
X113730438Y-107020500D01*
X113730440Y-107020500D01*
X113809560Y-107020500D01*
X113809562Y-107020500D01*
X113885989Y-107000021D01*
X113954511Y-106960460D01*
X114010460Y-106904511D01*
X114012551Y-106900888D01*
X114014552Y-106899552D01*
X114058867Y-106833231D01*
X114061668Y-106819146D01*
X114073282Y-106800231D01*
X114074693Y-106798955D01*
X114075781Y-106796327D01*
X114200000Y-106610000D01*
X114321955Y-106384852D01*
X114341721Y-106357844D01*
X114579897Y-106110847D01*
X114590524Y-106103973D01*
X114596076Y-106096745D01*
X114627255Y-106080216D01*
X114650744Y-106071783D01*
X114720489Y-106067659D01*
X114739744Y-106075985D01*
X114740487Y-106074194D01*
X114751770Y-106078868D01*
X114810247Y-106090499D01*
X114810250Y-106090500D01*
X114810252Y-106090500D01*
X115049750Y-106090500D01*
X115049751Y-106090499D01*
X115064568Y-106087552D01*
X115108229Y-106078868D01*
X115108229Y-106078867D01*
X115108231Y-106078867D01*
X115174552Y-106034552D01*
X115218867Y-105968231D01*
X115218867Y-105968229D01*
X115223542Y-105956946D01*
X115226441Y-105958147D01*
X115228846Y-105953547D01*
X115236304Y-105930127D01*
X115244751Y-105923135D01*
X115249834Y-105913418D01*
X115271193Y-105901252D01*
X115290130Y-105885580D01*
X115301016Y-105884265D01*
X115310546Y-105878838D01*
X115335092Y-105880151D01*
X115359496Y-105877205D01*
X115369365Y-105881985D01*
X115380316Y-105882571D01*
X115400257Y-105896947D01*
X115422378Y-105907662D01*
X115433118Y-105920639D01*
X115436992Y-105923432D01*
X115444881Y-105934852D01*
X115559178Y-106121884D01*
X115574989Y-106162355D01*
X115580330Y-106189212D01*
X115602542Y-106222457D01*
X115613398Y-106229710D01*
X115635787Y-106244669D01*
X115665101Y-106250500D01*
X115725896Y-106250499D01*
X115743536Y-106251760D01*
X115769544Y-106255500D01*
X115769548Y-106255500D01*
X116426000Y-106255500D01*
X116448427Y-106253089D01*
X116448432Y-106253087D01*
X116448440Y-106253087D01*
X116451702Y-106252559D01*
X116451749Y-106252854D01*
X116473666Y-106250499D01*
X116534895Y-106250499D01*
X116534898Y-106250499D01*
X116564213Y-106244669D01*
X116597457Y-106222457D01*
X116619669Y-106189213D01*
X116622914Y-106172901D01*
X116625500Y-106159901D01*
X116626097Y-106153838D01*
X116626549Y-106153882D01*
X116630523Y-106126228D01*
X116631539Y-106122764D01*
X116631541Y-106122763D01*
X116651226Y-106055724D01*
X116655500Y-106026000D01*
X116655500Y-105812045D01*
X116672390Y-105749566D01*
X116785743Y-105555247D01*
X118899500Y-105555247D01*
X118899500Y-106029752D01*
X118911131Y-106088229D01*
X118911132Y-106088230D01*
X118955447Y-106154552D01*
X119021769Y-106198867D01*
X119021770Y-106198868D01*
X119080247Y-106210499D01*
X119080250Y-106210500D01*
X119080252Y-106210500D01*
X119319750Y-106210500D01*
X119319751Y-106210499D01*
X119336248Y-106207218D01*
X119378229Y-106198868D01*
X119378231Y-106198867D01*
X119386064Y-106193633D01*
X119396390Y-106186732D01*
X119400760Y-106185364D01*
X119403941Y-106182069D01*
X119433793Y-106175019D01*
X119463066Y-106165852D01*
X119468727Y-106166769D01*
X119471940Y-106166011D01*
X119506550Y-106172900D01*
X119624036Y-106214365D01*
X119653869Y-106229708D01*
X119740000Y-106290000D01*
X119740009Y-106290005D01*
X119740012Y-106290007D01*
X119860865Y-106359066D01*
X119864951Y-106362473D01*
X119867847Y-106363368D01*
X119894192Y-106386855D01*
X119970348Y-106477289D01*
X119998474Y-106541247D01*
X119999500Y-106557162D01*
X119999500Y-106837252D01*
X120011131Y-106895729D01*
X120011132Y-106895730D01*
X120055447Y-106962052D01*
X120121769Y-107006367D01*
X120121770Y-107006368D01*
X120180247Y-107017999D01*
X120180250Y-107018000D01*
X120180252Y-107018000D01*
X120419750Y-107018000D01*
X120419751Y-107017999D01*
X120434568Y-107015052D01*
X120478229Y-107006368D01*
X120478229Y-107006367D01*
X120478231Y-107006367D01*
X120544552Y-106962052D01*
X120588867Y-106895731D01*
X120588867Y-106895729D01*
X120588868Y-106895729D01*
X120599932Y-106840102D01*
X120600500Y-106837248D01*
X120600500Y-106362752D01*
X120600500Y-106362749D01*
X120600499Y-106362747D01*
X120600444Y-106362473D01*
X120595995Y-106340102D01*
X120591322Y-106316610D01*
X120591321Y-106316609D01*
X120588867Y-106304269D01*
X120573197Y-106280817D01*
X121349500Y-106280817D01*
X121349500Y-106419183D01*
X121365070Y-106477289D01*
X121385312Y-106552835D01*
X121385313Y-106552838D01*
X121454492Y-106672661D01*
X121454494Y-106672664D01*
X121454495Y-106672665D01*
X121552335Y-106770505D01*
X121672164Y-106839688D01*
X121805817Y-106875500D01*
X121805819Y-106875500D01*
X121944181Y-106875500D01*
X121944183Y-106875500D01*
X122077836Y-106839688D01*
X122197665Y-106770505D01*
X122295505Y-106672665D01*
X122364688Y-106552836D01*
X122400500Y-106419183D01*
X122400500Y-106280817D01*
X122364688Y-106147164D01*
X122299672Y-106034552D01*
X122295507Y-106027338D01*
X122295503Y-106027333D01*
X122197666Y-105929496D01*
X122197661Y-105929492D01*
X122077838Y-105860313D01*
X122077837Y-105860312D01*
X122077836Y-105860312D01*
X121944183Y-105824500D01*
X121805817Y-105824500D01*
X121672164Y-105860312D01*
X121672161Y-105860313D01*
X121552338Y-105929492D01*
X121552333Y-105929496D01*
X121454496Y-106027333D01*
X121454492Y-106027338D01*
X121385313Y-106147161D01*
X121385312Y-106147164D01*
X121349500Y-106280817D01*
X120573197Y-106280817D01*
X120557762Y-106257718D01*
X120555583Y-106253894D01*
X120548512Y-106224012D01*
X120539338Y-106194715D01*
X120540541Y-106190328D01*
X120539494Y-106185902D01*
X120549699Y-106156945D01*
X120557822Y-106127335D01*
X120560217Y-106123608D01*
X120588867Y-106080731D01*
X120588868Y-106080729D01*
X120599008Y-106029748D01*
X120600500Y-106022248D01*
X120600500Y-105547752D01*
X120600500Y-105547749D01*
X120600499Y-105547747D01*
X120588868Y-105489270D01*
X120588867Y-105489269D01*
X120544552Y-105422947D01*
X120478230Y-105378632D01*
X120478229Y-105378631D01*
X120419752Y-105367000D01*
X120419748Y-105367000D01*
X120180252Y-105367000D01*
X120149729Y-105373071D01*
X120080137Y-105366842D01*
X120024960Y-105323978D01*
X120018151Y-105313452D01*
X119990460Y-105265489D01*
X119934511Y-105209540D01*
X119934509Y-105209539D01*
X119934504Y-105209535D01*
X119865995Y-105169982D01*
X119865990Y-105169979D01*
X119840513Y-105163152D01*
X119789562Y-105149500D01*
X119710438Y-105149500D01*
X119672224Y-105159739D01*
X119634009Y-105169979D01*
X119634004Y-105169982D01*
X119565495Y-105209535D01*
X119565487Y-105209541D01*
X119509541Y-105265487D01*
X119509539Y-105265490D01*
X119477963Y-105320181D01*
X119427395Y-105368396D01*
X119358788Y-105381618D01*
X119346387Y-105379798D01*
X119319749Y-105374500D01*
X119319748Y-105374500D01*
X119080252Y-105374500D01*
X119080247Y-105374500D01*
X119021770Y-105386131D01*
X119021769Y-105386132D01*
X118955447Y-105430447D01*
X118911132Y-105496769D01*
X118911131Y-105496770D01*
X118899500Y-105555247D01*
X116785743Y-105555247D01*
X116924709Y-105317019D01*
X116975492Y-105269031D01*
X117031818Y-105255500D01*
X117937563Y-105255500D01*
X117937564Y-105255500D01*
X117948096Y-105254973D01*
X117972725Y-105252502D01*
X117972736Y-105252500D01*
X117972739Y-105252500D01*
X117974852Y-105252180D01*
X117983148Y-105250927D01*
X118271252Y-105192539D01*
X118521557Y-105141814D01*
X118521574Y-105141809D01*
X118521584Y-105141808D01*
X118521593Y-105141805D01*
X118521600Y-105141804D01*
X118525755Y-105140711D01*
X118533232Y-105138746D01*
X118533237Y-105138744D01*
X118533242Y-105138743D01*
X118533248Y-105138740D01*
X118560114Y-105130011D01*
X118596599Y-105109407D01*
X118649403Y-105063652D01*
X118681541Y-105013644D01*
X118701226Y-104946605D01*
X118705500Y-104916881D01*
X118705500Y-104452071D01*
X118725185Y-104385032D01*
X118777989Y-104339277D01*
X118786108Y-104335911D01*
X118823963Y-104321770D01*
X119206312Y-104178940D01*
X119209801Y-104177566D01*
X119217919Y-104174200D01*
X119246599Y-104156477D01*
X119295026Y-104114514D01*
X119296560Y-104113813D01*
X119297511Y-104112417D01*
X119328198Y-104099364D01*
X119358578Y-104085489D01*
X119360751Y-104085517D01*
X119361806Y-104085069D01*
X119379060Y-104085757D01*
X119397088Y-104085994D01*
X119411030Y-104088373D01*
X119411769Y-104088867D01*
X119470252Y-104100500D01*
X119482089Y-104100500D01*
X119492443Y-104102267D01*
X119507082Y-104109422D01*
X119530212Y-104115236D01*
X119577331Y-104140519D01*
X119800000Y-104260000D01*
X119800005Y-104260002D01*
X119800010Y-104260005D01*
X120115770Y-104408599D01*
X120124163Y-104415012D01*
X120130887Y-104417049D01*
X120157365Y-104440386D01*
X120244894Y-104543136D01*
X120273382Y-104606933D01*
X120273837Y-104613694D01*
X120273903Y-104613688D01*
X120274500Y-104619752D01*
X120286131Y-104678229D01*
X120286132Y-104678230D01*
X120330447Y-104744552D01*
X120396769Y-104788867D01*
X120396770Y-104788868D01*
X120455247Y-104800499D01*
X120455250Y-104800500D01*
X120455252Y-104800500D01*
X120929750Y-104800500D01*
X120929751Y-104800499D01*
X120944568Y-104797552D01*
X120988229Y-104788868D01*
X120988229Y-104788867D01*
X120988231Y-104788867D01*
X121054552Y-104744552D01*
X121098867Y-104678231D01*
X121098867Y-104678229D01*
X121098868Y-104678229D01*
X121110499Y-104619752D01*
X121110500Y-104619750D01*
X121110500Y-104380249D01*
X121110499Y-104380247D01*
X121098868Y-104321770D01*
X121098867Y-104321769D01*
X121054551Y-104255446D01*
X121045917Y-104246812D01*
X121046746Y-104245982D01*
X121009985Y-104201992D01*
X121001279Y-104132667D01*
X121031435Y-104069640D01*
X121054789Y-104049404D01*
X121062052Y-104044552D01*
X121106367Y-103978231D01*
X121106367Y-103978229D01*
X121106368Y-103978229D01*
X121117999Y-103919752D01*
X121118000Y-103919750D01*
X121118000Y-103680249D01*
X121117999Y-103680247D01*
X121104989Y-103614838D01*
X121111216Y-103545247D01*
X121145991Y-103496427D01*
X121827907Y-102913010D01*
X121840664Y-102907281D01*
X121850700Y-102897538D01*
X121871906Y-102893251D01*
X121891642Y-102884388D01*
X121906857Y-102886185D01*
X121919184Y-102883694D01*
X121950529Y-102891345D01*
X121953557Y-102891703D01*
X121960257Y-102894315D01*
X121960787Y-102894669D01*
X121961558Y-102894822D01*
X121971715Y-102898782D01*
X121978057Y-102903677D01*
X121993713Y-102909996D01*
X122027237Y-102931541D01*
X122094276Y-102951226D01*
X122124000Y-102955500D01*
X122124004Y-102955500D01*
X122492285Y-102955500D01*
X122492495Y-102955493D01*
X122498843Y-102955296D01*
X122514223Y-102954338D01*
X122515891Y-102954181D01*
X122520752Y-102953727D01*
X123243190Y-102863421D01*
X123604466Y-102818262D01*
X123620168Y-102815073D01*
X123656299Y-102804825D01*
X123696599Y-102783061D01*
X123749403Y-102737306D01*
X123781541Y-102687298D01*
X123801226Y-102620259D01*
X123805500Y-102590535D01*
X123805500Y-101674000D01*
X123803089Y-101651573D01*
X123791883Y-101600062D01*
X123768526Y-101553401D01*
X123768525Y-101553399D01*
X123750555Y-101532662D01*
X123722771Y-101500597D01*
X123722768Y-101500595D01*
X123722768Y-101500594D01*
X123675036Y-101469920D01*
X123672763Y-101468459D01*
X123666397Y-101466589D01*
X123658231Y-101461133D01*
X123625937Y-101454709D01*
X123619824Y-101452914D01*
X123605732Y-101448776D01*
X123605730Y-101448775D01*
X123605724Y-101448774D01*
X123576000Y-101444500D01*
X123575996Y-101444500D01*
X123181923Y-101444500D01*
X123114884Y-101424815D01*
X123103401Y-101416471D01*
X122964823Y-101303089D01*
X122747897Y-101125603D01*
X122708478Y-101067917D01*
X122706503Y-100998075D01*
X122711860Y-100982178D01*
X122712999Y-100979427D01*
X122713000Y-100979425D01*
X122713000Y-100915575D01*
X122713000Y-100426838D01*
X122732685Y-100359799D01*
X122733898Y-100357947D01*
X122768542Y-100306099D01*
X122768543Y-100306095D01*
X122778000Y-100258554D01*
X122778000Y-99476445D01*
X122768543Y-99428904D01*
X122768542Y-99428902D01*
X122768542Y-99428901D01*
X122732516Y-99374984D01*
X122729399Y-99372901D01*
X122678601Y-99338959D01*
X122678595Y-99338956D01*
X122631054Y-99329500D01*
X122631052Y-99329500D01*
X122473948Y-99329500D01*
X122473946Y-99329500D01*
X122426404Y-99338956D01*
X122426402Y-99338957D01*
X122408528Y-99350900D01*
X122372486Y-99374983D01*
X122371390Y-99375715D01*
X122304712Y-99396592D01*
X122237332Y-99378107D01*
X122233610Y-99375715D01*
X122232516Y-99374984D01*
X122178599Y-99338958D01*
X122178598Y-99338957D01*
X122178597Y-99338957D01*
X122178595Y-99338956D01*
X122131054Y-99329500D01*
X122131052Y-99329500D01*
X121973948Y-99329500D01*
X121973946Y-99329500D01*
X121926404Y-99338956D01*
X121926402Y-99338957D01*
X121908528Y-99350900D01*
X121872486Y-99374983D01*
X121871390Y-99375715D01*
X121804712Y-99396592D01*
X121737332Y-99378107D01*
X121733610Y-99375715D01*
X121732516Y-99374984D01*
X121678599Y-99338958D01*
X121678598Y-99338957D01*
X121678597Y-99338957D01*
X121678595Y-99338956D01*
X121631054Y-99329500D01*
X121631052Y-99329500D01*
X121473948Y-99329500D01*
X121473946Y-99329500D01*
X121426404Y-99338956D01*
X121426402Y-99338957D01*
X121408528Y-99350900D01*
X121372486Y-99374983D01*
X121371390Y-99375715D01*
X121304712Y-99396592D01*
X121237332Y-99378107D01*
X121233610Y-99375715D01*
X121232516Y-99374984D01*
X121178599Y-99338958D01*
X121178598Y-99338957D01*
X121178597Y-99338957D01*
X121178595Y-99338956D01*
X121131054Y-99329500D01*
X121131052Y-99329500D01*
X120973948Y-99329500D01*
X120973946Y-99329500D01*
X120926404Y-99338956D01*
X120926402Y-99338957D01*
X120908528Y-99350900D01*
X120872486Y-99374983D01*
X120871390Y-99375715D01*
X120804712Y-99396592D01*
X120737332Y-99378107D01*
X120733610Y-99375715D01*
X120732516Y-99374984D01*
X120678599Y-99338958D01*
X120678598Y-99338957D01*
X120678597Y-99338957D01*
X120678595Y-99338956D01*
X120631054Y-99329500D01*
X120631052Y-99329500D01*
X120473948Y-99329500D01*
X120473946Y-99329500D01*
X120426404Y-99338956D01*
X120426402Y-99338957D01*
X120408528Y-99350900D01*
X120372486Y-99374983D01*
X120371390Y-99375715D01*
X120304712Y-99396592D01*
X120237332Y-99378107D01*
X120233610Y-99375715D01*
X120232516Y-99374984D01*
X120178599Y-99338958D01*
X120178598Y-99338957D01*
X120178597Y-99338957D01*
X120178595Y-99338956D01*
X120131054Y-99329500D01*
X120131052Y-99329500D01*
X119973948Y-99329500D01*
X119973946Y-99329500D01*
X119926404Y-99338956D01*
X119926402Y-99338957D01*
X119908528Y-99350900D01*
X119872486Y-99374983D01*
X119871390Y-99375715D01*
X119804712Y-99396592D01*
X119737332Y-99378107D01*
X119733610Y-99375715D01*
X119732516Y-99374984D01*
X119678599Y-99338958D01*
X119678598Y-99338957D01*
X119678597Y-99338957D01*
X119678595Y-99338956D01*
X119631054Y-99329500D01*
X119631052Y-99329500D01*
X119527000Y-99329500D01*
X119459961Y-99309815D01*
X119414206Y-99257011D01*
X119403000Y-99205500D01*
X119403000Y-99101445D01*
X119393543Y-99053904D01*
X119393542Y-99053902D01*
X119393542Y-99053901D01*
X119357516Y-98999984D01*
X119357514Y-98999983D01*
X119356785Y-98998891D01*
X119335907Y-98932213D01*
X119354391Y-98864833D01*
X119356785Y-98861109D01*
X119357514Y-98860016D01*
X119357516Y-98860016D01*
X119393542Y-98806099D01*
X119398704Y-98780150D01*
X119403000Y-98758554D01*
X119403000Y-98601445D01*
X119393543Y-98553904D01*
X119393542Y-98553902D01*
X119393542Y-98553901D01*
X119357516Y-98499984D01*
X119357514Y-98499983D01*
X119356785Y-98498891D01*
X119335907Y-98432213D01*
X119354391Y-98364833D01*
X119356785Y-98361109D01*
X119357514Y-98360016D01*
X119357516Y-98360016D01*
X119393542Y-98306099D01*
X119393661Y-98305500D01*
X119403000Y-98258554D01*
X119403000Y-98101445D01*
X119393543Y-98053904D01*
X119393542Y-98053902D01*
X119393542Y-98053901D01*
X119357516Y-97999984D01*
X119357514Y-97999983D01*
X119356785Y-97998891D01*
X119335907Y-97932213D01*
X119354391Y-97864833D01*
X119356785Y-97861109D01*
X119357514Y-97860016D01*
X119357516Y-97860016D01*
X119393542Y-97806099D01*
X119393543Y-97806095D01*
X119403000Y-97758554D01*
X119403000Y-97601445D01*
X119393543Y-97553904D01*
X119393542Y-97553902D01*
X119393542Y-97553901D01*
X119357516Y-97499984D01*
X119357514Y-97499983D01*
X119356785Y-97498891D01*
X119335907Y-97432213D01*
X119354391Y-97364833D01*
X119356785Y-97361109D01*
X119357514Y-97360016D01*
X119357516Y-97360016D01*
X119393542Y-97306099D01*
X119403000Y-97258552D01*
X119403000Y-97101448D01*
X119403000Y-97101445D01*
X119393543Y-97053904D01*
X119393542Y-97053902D01*
X119393542Y-97053901D01*
X119357516Y-96999984D01*
X119357514Y-96999983D01*
X119356785Y-96998891D01*
X119335907Y-96932213D01*
X119354391Y-96864833D01*
X119356785Y-96861109D01*
X119357514Y-96860016D01*
X119357516Y-96860016D01*
X119393542Y-96806099D01*
X119394656Y-96800500D01*
X119403000Y-96758554D01*
X119403000Y-96601445D01*
X119393543Y-96553904D01*
X119393542Y-96553902D01*
X119393542Y-96553901D01*
X119357516Y-96499984D01*
X119357514Y-96499983D01*
X119356785Y-96498891D01*
X119335907Y-96432213D01*
X119354391Y-96364833D01*
X119356785Y-96361109D01*
X119357514Y-96360016D01*
X119357516Y-96360016D01*
X119393542Y-96306099D01*
X119393543Y-96306095D01*
X119403000Y-96258554D01*
X119403000Y-96101445D01*
X119393543Y-96053904D01*
X119393542Y-96053902D01*
X119393542Y-96053901D01*
X119357516Y-95999984D01*
X119357514Y-95999983D01*
X119356785Y-95998891D01*
X119335907Y-95932213D01*
X119340944Y-95894949D01*
X119349699Y-95865239D01*
X119357516Y-95860016D01*
X119393542Y-95806099D01*
X119403000Y-95758552D01*
X119403000Y-95693386D01*
X119405500Y-95676000D01*
X119405500Y-94334896D01*
X119425185Y-94267857D01*
X119435352Y-94254198D01*
X119447124Y-94240464D01*
X119628545Y-94028804D01*
X119687118Y-93990716D01*
X119698343Y-93987919D01*
X119771009Y-93973387D01*
X119782796Y-93970313D01*
X119809988Y-93961515D01*
X119846599Y-93940870D01*
X119899403Y-93895115D01*
X119931541Y-93845107D01*
X119951226Y-93778068D01*
X119955500Y-93748344D01*
X119955500Y-92574000D01*
X119953089Y-92551573D01*
X119941883Y-92500062D01*
X119918526Y-92453401D01*
X119918525Y-92453399D01*
X119872770Y-92400596D01*
X119833719Y-92375500D01*
X119822763Y-92368459D01*
X119755729Y-92348775D01*
X119755725Y-92348774D01*
X119755724Y-92348774D01*
X119726000Y-92344500D01*
X119725996Y-92344500D01*
X119671037Y-92344500D01*
X119646845Y-92342117D01*
X119633689Y-92339500D01*
X119633688Y-92339500D01*
X119316933Y-92339500D01*
X119249894Y-92319815D01*
X119213260Y-92283528D01*
X118980827Y-91929304D01*
X118960506Y-91862455D01*
X118960500Y-91861276D01*
X118960500Y-91267843D01*
X118980185Y-91200804D01*
X118996819Y-91180162D01*
X119690162Y-90486819D01*
X119751485Y-90453334D01*
X119777843Y-90450500D01*
X120521924Y-90450500D01*
X120521925Y-90450500D01*
X120550316Y-90438739D01*
X120619784Y-90431271D01*
X120666658Y-90450198D01*
X120699769Y-90472322D01*
X120872749Y-90543973D01*
X121000500Y-90569384D01*
X121056379Y-90580499D01*
X121056383Y-90580500D01*
X121056384Y-90580500D01*
X121243617Y-90580500D01*
X121243618Y-90580499D01*
X121427251Y-90543973D01*
X121600231Y-90472322D01*
X121755908Y-90368302D01*
X121888302Y-90235908D01*
X121918475Y-90190751D01*
X121941119Y-90156862D01*
X121994731Y-90112057D01*
X122064056Y-90103350D01*
X122127083Y-90133504D01*
X122163803Y-90192947D01*
X122163941Y-90193456D01*
X122169979Y-90215989D01*
X122169980Y-90215991D01*
X122169982Y-90215995D01*
X122209535Y-90284504D01*
X122209539Y-90284509D01*
X122209540Y-90284511D01*
X122265489Y-90340460D01*
X122265491Y-90340461D01*
X122265495Y-90340464D01*
X122329185Y-90377235D01*
X122334011Y-90380021D01*
X122410438Y-90400500D01*
X122410440Y-90400500D01*
X122453996Y-90400500D01*
X122521035Y-90420185D01*
X122566790Y-90472989D01*
X122576734Y-90542147D01*
X122568699Y-90571432D01*
X122557000Y-90630247D01*
X122557000Y-90869752D01*
X122568631Y-90928229D01*
X122568632Y-90928230D01*
X122612948Y-90994553D01*
X122669390Y-91032266D01*
X122674480Y-91038356D01*
X122681703Y-91041655D01*
X122696567Y-91064785D01*
X122714196Y-91085878D01*
X122716147Y-91095252D01*
X122719477Y-91100433D01*
X122724500Y-91135368D01*
X122724500Y-91375250D01*
X122704815Y-91442289D01*
X122652011Y-91488044D01*
X122600357Y-91499250D01*
X121903023Y-91498445D01*
X121670000Y-91498177D01*
X121656062Y-91498161D01*
X121589045Y-91478399D01*
X121543351Y-91425542D01*
X121533488Y-91356372D01*
X121536431Y-91342066D01*
X121536509Y-91341775D01*
X121550500Y-91289562D01*
X121550500Y-91210438D01*
X121530021Y-91134011D01*
X121530017Y-91134004D01*
X121490464Y-91065495D01*
X121490458Y-91065487D01*
X121434512Y-91009541D01*
X121434504Y-91009535D01*
X121365995Y-90969982D01*
X121365990Y-90969979D01*
X121340513Y-90963152D01*
X121289562Y-90949500D01*
X121210438Y-90949500D01*
X121172969Y-90959540D01*
X121134009Y-90969979D01*
X121134004Y-90969982D01*
X121065495Y-91009535D01*
X121065487Y-91009541D01*
X121012681Y-91062348D01*
X120951358Y-91095833D01*
X120881666Y-91090849D01*
X120837319Y-91062348D01*
X120784512Y-91009541D01*
X120784504Y-91009535D01*
X120715995Y-90969982D01*
X120715990Y-90969979D01*
X120690513Y-90963152D01*
X120639562Y-90949500D01*
X120560438Y-90949500D01*
X120522969Y-90959540D01*
X120484009Y-90969979D01*
X120484004Y-90969982D01*
X120415495Y-91009535D01*
X120415487Y-91009541D01*
X120359541Y-91065487D01*
X120359535Y-91065495D01*
X120319982Y-91134004D01*
X120319979Y-91134009D01*
X120312897Y-91160439D01*
X120299500Y-91210438D01*
X120299500Y-91289562D01*
X120308882Y-91324576D01*
X120319979Y-91365990D01*
X120319982Y-91365995D01*
X120359535Y-91434504D01*
X120359541Y-91434512D01*
X120403181Y-91478152D01*
X120436666Y-91539475D01*
X120439500Y-91565833D01*
X120439500Y-92018075D01*
X120439500Y-92081925D01*
X120463935Y-92140916D01*
X120463936Y-92140917D01*
X120893681Y-92570662D01*
X120927166Y-92631985D01*
X120930000Y-92658343D01*
X120930000Y-93759686D01*
X120926714Y-93773125D01*
X120927676Y-93783582D01*
X120916015Y-93816894D01*
X120822805Y-93996144D01*
X120774412Y-94046541D01*
X120753279Y-94056139D01*
X120305127Y-94210956D01*
X120235336Y-94214240D01*
X120202641Y-94201140D01*
X120165989Y-94179979D01*
X120165990Y-94179979D01*
X120140513Y-94173152D01*
X120089562Y-94159500D01*
X120010438Y-94159500D01*
X119972224Y-94169739D01*
X119934009Y-94179979D01*
X119934004Y-94179982D01*
X119865495Y-94219535D01*
X119865487Y-94219541D01*
X119809541Y-94275487D01*
X119809535Y-94275495D01*
X119769982Y-94344004D01*
X119769979Y-94344009D01*
X119768354Y-94350075D01*
X119749500Y-94420438D01*
X119749500Y-94499562D01*
X119762854Y-94549398D01*
X119769979Y-94575990D01*
X119769980Y-94575991D01*
X119810387Y-94645978D01*
X119827000Y-94707978D01*
X119827000Y-95383552D01*
X119827000Y-95383554D01*
X119826999Y-95383554D01*
X119836456Y-95431095D01*
X119836459Y-95431101D01*
X119872483Y-95485015D01*
X119872484Y-95485016D01*
X119926401Y-95521042D01*
X119926402Y-95521042D01*
X119926404Y-95521043D01*
X119973945Y-95530500D01*
X119973948Y-95530500D01*
X120131054Y-95530500D01*
X120178595Y-95521043D01*
X120178595Y-95521042D01*
X120178599Y-95521042D01*
X120232516Y-95485016D01*
X120232516Y-95485014D01*
X120233609Y-95484285D01*
X120300287Y-95463407D01*
X120367667Y-95481891D01*
X120371391Y-95484285D01*
X120372483Y-95485014D01*
X120372484Y-95485016D01*
X120426401Y-95521042D01*
X120426403Y-95521042D01*
X120426404Y-95521043D01*
X120473945Y-95530500D01*
X120473948Y-95530500D01*
X120631054Y-95530500D01*
X120678595Y-95521043D01*
X120678595Y-95521042D01*
X120678599Y-95521042D01*
X120732516Y-95485016D01*
X120732516Y-95485014D01*
X120733609Y-95484285D01*
X120800287Y-95463407D01*
X120867667Y-95481891D01*
X120871391Y-95484285D01*
X120872483Y-95485014D01*
X120872484Y-95485016D01*
X120926401Y-95521042D01*
X120926403Y-95521042D01*
X120926404Y-95521043D01*
X120973945Y-95530500D01*
X120973948Y-95530500D01*
X121131054Y-95530500D01*
X121178595Y-95521043D01*
X121178595Y-95521042D01*
X121178599Y-95521042D01*
X121232516Y-95485016D01*
X121232516Y-95485014D01*
X121233609Y-95484285D01*
X121300287Y-95463407D01*
X121367667Y-95481891D01*
X121371391Y-95484285D01*
X121372483Y-95485014D01*
X121372484Y-95485016D01*
X121426401Y-95521042D01*
X121426403Y-95521042D01*
X121426404Y-95521043D01*
X121473945Y-95530500D01*
X121473948Y-95530500D01*
X121631054Y-95530500D01*
X121678595Y-95521043D01*
X121678595Y-95521042D01*
X121678599Y-95521042D01*
X121732516Y-95485016D01*
X121732516Y-95485014D01*
X121733609Y-95484285D01*
X121800287Y-95463407D01*
X121867667Y-95481891D01*
X121871391Y-95484285D01*
X121872483Y-95485014D01*
X121872484Y-95485016D01*
X121926401Y-95521042D01*
X121926403Y-95521042D01*
X121926404Y-95521043D01*
X121973945Y-95530500D01*
X121973948Y-95530500D01*
X122131054Y-95530500D01*
X122178595Y-95521043D01*
X122178595Y-95521042D01*
X122178599Y-95521042D01*
X122232516Y-95485016D01*
X122232516Y-95485014D01*
X122233609Y-95484285D01*
X122300287Y-95463407D01*
X122367667Y-95481891D01*
X122371391Y-95484285D01*
X122372483Y-95485014D01*
X122372484Y-95485016D01*
X122426401Y-95521042D01*
X122426403Y-95521042D01*
X122426404Y-95521043D01*
X122473945Y-95530500D01*
X122473948Y-95530500D01*
X122631054Y-95530500D01*
X122678595Y-95521043D01*
X122678595Y-95521042D01*
X122678599Y-95521042D01*
X122732516Y-95485016D01*
X122732516Y-95485014D01*
X122733609Y-95484285D01*
X122800287Y-95463407D01*
X122867667Y-95481891D01*
X122871391Y-95484285D01*
X122872483Y-95485014D01*
X122872484Y-95485016D01*
X122926401Y-95521042D01*
X122926403Y-95521042D01*
X122926404Y-95521043D01*
X122973945Y-95530500D01*
X123078000Y-95530500D01*
X123145039Y-95550185D01*
X123190794Y-95602989D01*
X123202000Y-95654500D01*
X123202000Y-95758552D01*
X123202000Y-95758554D01*
X123201999Y-95758554D01*
X123211456Y-95806095D01*
X123211457Y-95806097D01*
X123211457Y-95806098D01*
X123211458Y-95806099D01*
X123238051Y-95845899D01*
X123248215Y-95861110D01*
X123269092Y-95927788D01*
X123250607Y-95995168D01*
X123248215Y-95998890D01*
X123211457Y-96053902D01*
X123211456Y-96053904D01*
X123202000Y-96101445D01*
X123202000Y-96101448D01*
X123202000Y-96258552D01*
X123202000Y-96258554D01*
X123201999Y-96258554D01*
X123211456Y-96306095D01*
X123211457Y-96306097D01*
X123211457Y-96306098D01*
X123211458Y-96306099D01*
X123217732Y-96315489D01*
X123248215Y-96361110D01*
X123269092Y-96427788D01*
X123250607Y-96495168D01*
X123248215Y-96498890D01*
X123211457Y-96553902D01*
X123211456Y-96553904D01*
X123202000Y-96601445D01*
X123202000Y-96601448D01*
X123202000Y-96758552D01*
X123202000Y-96758554D01*
X123201999Y-96758554D01*
X123211456Y-96806095D01*
X123211457Y-96806097D01*
X123248215Y-96861110D01*
X123269092Y-96927788D01*
X123250607Y-96995168D01*
X123248215Y-96998890D01*
X123211457Y-97053902D01*
X123211456Y-97053904D01*
X123202000Y-97101445D01*
X123202000Y-97101448D01*
X123202000Y-97258552D01*
X123202000Y-97258554D01*
X123201999Y-97258554D01*
X123211456Y-97306095D01*
X123211457Y-97306097D01*
X123211457Y-97306098D01*
X123211458Y-97306099D01*
X123234444Y-97340500D01*
X123248215Y-97361110D01*
X123269092Y-97427788D01*
X123250607Y-97495168D01*
X123248215Y-97498890D01*
X123211457Y-97553902D01*
X123211456Y-97553904D01*
X123202000Y-97601445D01*
X123202000Y-97601448D01*
X123202000Y-97758552D01*
X123202000Y-97758554D01*
X123201999Y-97758554D01*
X123211456Y-97806095D01*
X123211457Y-97806097D01*
X123211457Y-97806098D01*
X123211458Y-97806099D01*
X123236967Y-97844276D01*
X123248215Y-97861110D01*
X123269092Y-97927788D01*
X123250607Y-97995168D01*
X123248215Y-97998890D01*
X123211457Y-98053902D01*
X123211456Y-98053904D01*
X123202000Y-98101445D01*
X123202000Y-98101448D01*
X123202000Y-98258552D01*
X123202000Y-98258554D01*
X123201999Y-98258554D01*
X123211456Y-98306095D01*
X123211457Y-98306097D01*
X123211457Y-98306098D01*
X123211458Y-98306099D01*
X123241126Y-98350500D01*
X123248215Y-98361110D01*
X123269092Y-98427788D01*
X123250607Y-98495168D01*
X123248215Y-98498890D01*
X123211457Y-98553902D01*
X123211456Y-98553904D01*
X123202000Y-98601445D01*
X123202000Y-98601448D01*
X123202000Y-98758552D01*
X123202000Y-98758554D01*
X123201999Y-98758554D01*
X123211456Y-98806095D01*
X123211457Y-98806097D01*
X123211457Y-98806098D01*
X123211458Y-98806099D01*
X123232945Y-98838256D01*
X123239225Y-98847655D01*
X123260102Y-98914333D01*
X123241617Y-98981713D01*
X123240439Y-98983582D01*
X123212663Y-99026803D01*
X123212661Y-99026807D01*
X123192977Y-99093841D01*
X123192976Y-99093846D01*
X123192976Y-99093847D01*
X123191884Y-99101445D01*
X123188702Y-99123574D01*
X123188702Y-99322949D01*
X123189776Y-99337966D01*
X123194799Y-99372901D01*
X123195243Y-99374641D01*
X123198707Y-99385981D01*
X123199287Y-99388396D01*
X123204821Y-99407444D01*
X123735788Y-100748135D01*
X123744500Y-100793794D01*
X123744500Y-101076002D01*
X123746910Y-101098426D01*
X123758117Y-101149938D01*
X123781474Y-101196600D01*
X123804151Y-101222770D01*
X123827229Y-101249403D01*
X123877237Y-101281541D01*
X123944276Y-101301226D01*
X123974000Y-101305500D01*
X123974004Y-101305500D01*
X124426000Y-101305500D01*
X124448427Y-101303089D01*
X124499938Y-101291883D01*
X124546599Y-101268526D01*
X124599403Y-101222771D01*
X124631541Y-101172763D01*
X124651226Y-101105724D01*
X124655500Y-101076000D01*
X124655500Y-100762278D01*
X124654987Y-100751882D01*
X124652579Y-100727564D01*
X124651043Y-100717270D01*
X124647274Y-100698427D01*
X124575681Y-100340460D01*
X124521137Y-100067740D01*
X124527292Y-99998143D01*
X124570097Y-99942921D01*
X124576156Y-99938809D01*
X124612802Y-99915489D01*
X124809990Y-99790005D01*
X124877115Y-99770621D01*
X124944066Y-99790605D01*
X124957927Y-99801049D01*
X125025192Y-99859540D01*
X125601867Y-100360997D01*
X125639538Y-100419839D01*
X125644500Y-100454566D01*
X125644500Y-100676002D01*
X125646910Y-100698426D01*
X125658117Y-100749938D01*
X125681474Y-100796600D01*
X125704152Y-100822771D01*
X125727229Y-100849403D01*
X125777237Y-100881541D01*
X125844276Y-100901226D01*
X125874000Y-100905500D01*
X125874004Y-100905500D01*
X127276000Y-100905500D01*
X127298427Y-100903089D01*
X127349938Y-100891883D01*
X127396599Y-100868526D01*
X127416370Y-100851394D01*
X127479921Y-100822369D01*
X127549080Y-100832309D01*
X127558155Y-100837370D01*
X127561770Y-100838868D01*
X127620247Y-100850499D01*
X127620250Y-100850500D01*
X127620252Y-100850500D01*
X128094750Y-100850500D01*
X128094751Y-100850499D01*
X128109568Y-100847552D01*
X128153229Y-100838868D01*
X128153229Y-100838867D01*
X128153231Y-100838867D01*
X128219552Y-100794552D01*
X128263867Y-100728231D01*
X128263867Y-100728229D01*
X128263868Y-100728229D01*
X128275499Y-100669752D01*
X128275500Y-100669750D01*
X128275500Y-100430249D01*
X128275499Y-100430247D01*
X128263868Y-100371770D01*
X128263867Y-100371769D01*
X128219552Y-100305447D01*
X128153231Y-100261133D01*
X128148229Y-100259061D01*
X128093825Y-100215219D01*
X128071761Y-100148925D01*
X128089041Y-100081226D01*
X128140178Y-100033616D01*
X128195682Y-100020500D01*
X130119880Y-100020500D01*
X130119882Y-100020500D01*
X130193574Y-99989976D01*
X130419976Y-99763574D01*
X130419976Y-99763572D01*
X130422512Y-99761037D01*
X130423109Y-99759546D01*
X130426220Y-99757329D01*
X130428612Y-99754938D01*
X130429013Y-99755339D01*
X130447814Y-99741945D01*
X130471089Y-99722489D01*
X130475991Y-99721872D01*
X130480015Y-99719006D01*
X130510316Y-99717555D01*
X130540412Y-99713771D01*
X130546218Y-99715837D01*
X130549804Y-99715666D01*
X130582487Y-99728746D01*
X130582573Y-99728777D01*
X130585488Y-99730459D01*
X130585489Y-99730460D01*
X130654011Y-99770021D01*
X130654074Y-99770037D01*
X130661162Y-99774128D01*
X130667754Y-99781039D01*
X130668930Y-99779280D01*
X130679082Y-99786063D01*
X130679084Y-99786065D01*
X130738075Y-99810500D01*
X130738076Y-99810500D01*
X130801924Y-99810500D01*
X130801925Y-99810500D01*
X130860916Y-99786065D01*
X130860920Y-99786060D01*
X130871071Y-99779279D01*
X130872295Y-99781112D01*
X130880033Y-99775963D01*
X130878949Y-99774085D01*
X130885987Y-99770021D01*
X130885989Y-99770021D01*
X130954511Y-99730460D01*
X131010460Y-99674511D01*
X131024599Y-99650022D01*
X131031829Y-99637500D01*
X131082395Y-99589284D01*
X131139216Y-99575499D01*
X131584895Y-99575499D01*
X131584898Y-99575499D01*
X131599555Y-99572584D01*
X131614209Y-99569670D01*
X131614209Y-99569669D01*
X131614213Y-99569669D01*
X131614215Y-99569667D01*
X131625494Y-99564996D01*
X131626481Y-99567379D01*
X131676506Y-99551710D01*
X131680780Y-99551708D01*
X132170000Y-99560000D01*
X132120000Y-97800000D01*
X132119999Y-97800000D01*
X132119999Y-97799999D01*
X132082222Y-97764666D01*
X132084217Y-97762532D01*
X132053763Y-97729995D01*
X132040500Y-97674197D01*
X132040500Y-94198076D01*
X132040500Y-94198075D01*
X132016065Y-94139084D01*
X131976819Y-94099838D01*
X131943334Y-94038515D01*
X131940500Y-94012157D01*
X131940500Y-93960439D01*
X131938771Y-93953985D01*
X131920021Y-93884011D01*
X131916836Y-93878494D01*
X131880464Y-93815495D01*
X131880458Y-93815487D01*
X131824512Y-93759541D01*
X131824504Y-93759535D01*
X131755995Y-93719982D01*
X131755991Y-93719980D01*
X131755989Y-93719979D01*
X131755987Y-93719978D01*
X131755984Y-93719977D01*
X131717484Y-93709661D01*
X131657824Y-93673296D01*
X131627296Y-93610449D01*
X131635591Y-93541073D01*
X131661900Y-93502203D01*
X131669548Y-93494554D01*
X131669552Y-93494552D01*
X131713867Y-93428231D01*
X131713867Y-93428229D01*
X131713868Y-93428229D01*
X131725499Y-93369752D01*
X131725500Y-93369750D01*
X131725500Y-93130249D01*
X131725499Y-93130247D01*
X131713868Y-93071770D01*
X131713867Y-93071769D01*
X131669552Y-93005447D01*
X131603230Y-92961132D01*
X131603229Y-92961131D01*
X131544752Y-92949500D01*
X131544748Y-92949500D01*
X131174988Y-92949500D01*
X131107949Y-92929815D01*
X131062194Y-92877011D01*
X131050991Y-92826397D01*
X131050887Y-92812082D01*
X131046742Y-92238914D01*
X131065941Y-92171735D01*
X131118413Y-92125599D01*
X131135230Y-92119211D01*
X131398056Y-92040689D01*
X131433552Y-92035500D01*
X131576000Y-92035500D01*
X131598427Y-92033089D01*
X131649938Y-92021883D01*
X131696599Y-91998526D01*
X131749403Y-91952771D01*
X131781541Y-91902763D01*
X131801226Y-91835724D01*
X131805500Y-91806000D01*
X131805500Y-91651037D01*
X131807883Y-91626843D01*
X131810500Y-91613687D01*
X131810500Y-91286311D01*
X131810499Y-91286310D01*
X131807883Y-91273155D01*
X131805500Y-91248963D01*
X131805500Y-91125378D01*
X131801937Y-91098197D01*
X131785470Y-91036450D01*
X131785468Y-91036447D01*
X131782997Y-91032266D01*
X131767554Y-91006132D01*
X131756517Y-90987454D01*
X131706063Y-90939119D01*
X131706053Y-90939110D01*
X131681651Y-90921648D01*
X131681639Y-90921640D01*
X130496310Y-90307025D01*
X130445856Y-90258690D01*
X130429544Y-90190751D01*
X130452551Y-90124778D01*
X130465703Y-90109267D01*
X130510460Y-90064511D01*
X130550021Y-89995989D01*
X130570500Y-89919562D01*
X130570500Y-89840438D01*
X130550021Y-89764011D01*
X130547380Y-89759437D01*
X130510464Y-89695495D01*
X130510458Y-89695487D01*
X130454512Y-89639541D01*
X130454504Y-89639535D01*
X130385995Y-89599982D01*
X130385991Y-89599980D01*
X130385990Y-89599979D01*
X130385989Y-89599979D01*
X130324243Y-89583433D01*
X130264585Y-89547069D01*
X130234057Y-89484222D01*
X130242352Y-89414846D01*
X130286838Y-89360969D01*
X130324241Y-89343886D01*
X130375989Y-89330021D01*
X130444511Y-89290460D01*
X130500460Y-89234511D01*
X130540021Y-89165989D01*
X130560500Y-89089562D01*
X130560500Y-89010438D01*
X130540021Y-88934011D01*
X130513536Y-88888137D01*
X130500464Y-88865495D01*
X130500458Y-88865487D01*
X130444512Y-88809541D01*
X130444504Y-88809535D01*
X130375995Y-88769982D01*
X130375990Y-88769979D01*
X130350513Y-88763152D01*
X130299562Y-88749500D01*
X130220438Y-88749500D01*
X130182224Y-88759739D01*
X130144009Y-88769979D01*
X130144004Y-88769982D01*
X130075495Y-88809535D01*
X130075487Y-88809541D01*
X130019541Y-88865487D01*
X130019535Y-88865495D01*
X129979982Y-88934004D01*
X129979979Y-88934009D01*
X129959500Y-89010439D01*
X129959500Y-89089560D01*
X129959907Y-89092652D01*
X129959500Y-89095262D01*
X129959500Y-89097690D01*
X129959121Y-89097690D01*
X129949142Y-89161687D01*
X129902763Y-89213944D01*
X129835495Y-89232830D01*
X129771734Y-89213283D01*
X129771550Y-89213603D01*
X129770159Y-89212800D01*
X129768694Y-89212351D01*
X129765745Y-89210251D01*
X129695995Y-89169982D01*
X129695990Y-89169979D01*
X129670513Y-89163152D01*
X129619562Y-89149500D01*
X129540438Y-89149500D01*
X129502224Y-89159739D01*
X129464009Y-89169979D01*
X129464004Y-89169982D01*
X129395495Y-89209535D01*
X129395487Y-89209541D01*
X129339541Y-89265487D01*
X129339535Y-89265495D01*
X129299982Y-89334004D01*
X129299979Y-89334009D01*
X129294958Y-89352748D01*
X129279500Y-89410438D01*
X129279500Y-89489562D01*
X129283771Y-89505500D01*
X129299979Y-89565990D01*
X129299982Y-89565995D01*
X129339535Y-89634504D01*
X129339539Y-89634509D01*
X129339540Y-89634511D01*
X129395489Y-89690460D01*
X129395491Y-89690461D01*
X129395495Y-89690464D01*
X129430258Y-89710534D01*
X129464011Y-89730021D01*
X129540438Y-89750500D01*
X129540440Y-89750500D01*
X129619560Y-89750500D01*
X129619562Y-89750500D01*
X129695989Y-89730021D01*
X129764511Y-89690460D01*
X129772197Y-89682773D01*
X129833515Y-89649289D01*
X129903207Y-89654271D01*
X129959142Y-89696140D01*
X129983562Y-89761603D01*
X129979653Y-89802546D01*
X129969500Y-89840438D01*
X129969500Y-89919562D01*
X129979812Y-89958047D01*
X129989979Y-89995990D01*
X129989980Y-89995991D01*
X130026129Y-90058603D01*
X130042602Y-90126503D01*
X130019749Y-90192530D01*
X129964828Y-90235721D01*
X129927286Y-90244006D01*
X129927301Y-90244145D01*
X129926044Y-90244280D01*
X129925388Y-90244425D01*
X129924007Y-90244499D01*
X129901573Y-90246910D01*
X129850061Y-90258117D01*
X129803399Y-90281474D01*
X129750596Y-90327229D01*
X129718460Y-90377235D01*
X129718459Y-90377236D01*
X129698775Y-90444270D01*
X129698774Y-90444275D01*
X129698774Y-90444276D01*
X129694646Y-90472989D01*
X129694500Y-90474003D01*
X129694500Y-91576105D01*
X129674815Y-91643144D01*
X129671204Y-91648456D01*
X129452816Y-91952428D01*
X129397714Y-91995387D01*
X129351551Y-92004075D01*
X129238453Y-92003564D01*
X128519801Y-92000315D01*
X128452852Y-91980327D01*
X128421890Y-91951677D01*
X128271005Y-91754522D01*
X128258700Y-91741041D01*
X128258696Y-91741037D01*
X128227268Y-91712088D01*
X128185517Y-91688460D01*
X128185516Y-91688459D01*
X128185515Y-91688459D01*
X128138403Y-91674625D01*
X128118480Y-91668775D01*
X128118478Y-91668774D01*
X128118476Y-91668774D01*
X128088752Y-91664500D01*
X128088748Y-91664500D01*
X127740505Y-91664500D01*
X127698055Y-91657007D01*
X127303098Y-91513101D01*
X127246848Y-91471656D01*
X127221935Y-91406379D01*
X127221551Y-91395785D01*
X127225172Y-90840589D01*
X127225171Y-90840584D01*
X127225172Y-90840565D01*
X127224744Y-90830361D01*
X127222581Y-90806478D01*
X127211438Y-90767953D01*
X127179622Y-90705748D01*
X127179618Y-90705742D01*
X127162288Y-90681238D01*
X127162276Y-90681224D01*
X127053288Y-90566182D01*
X127053276Y-90566169D01*
X127053270Y-90566163D01*
X127043983Y-90557474D01*
X127021004Y-90538439D01*
X126983427Y-90518459D01*
X126983426Y-90518458D01*
X126983425Y-90518458D01*
X126916395Y-90498775D01*
X126916061Y-90498727D01*
X126886664Y-90494500D01*
X126886660Y-90494500D01*
X124880190Y-90494500D01*
X124866496Y-90491116D01*
X124855691Y-90492056D01*
X124822437Y-90480230D01*
X124708440Y-90420231D01*
X124658284Y-90371588D01*
X124652590Y-90360203D01*
X124607107Y-90256242D01*
X124597730Y-90222409D01*
X124572436Y-90026381D01*
X124580854Y-89963062D01*
X124603973Y-89907251D01*
X124640500Y-89723616D01*
X124640500Y-89536384D01*
X124603973Y-89352749D01*
X124533593Y-89182838D01*
X124532323Y-89179771D01*
X124532318Y-89179762D01*
X124428302Y-89024092D01*
X124428299Y-89024088D01*
X124295911Y-88891700D01*
X124295907Y-88891697D01*
X124140237Y-88787681D01*
X124140228Y-88787676D01*
X123967251Y-88716027D01*
X123967243Y-88716025D01*
X123783620Y-88679500D01*
X123783616Y-88679500D01*
X123596384Y-88679500D01*
X123596379Y-88679500D01*
X123412756Y-88716025D01*
X123412748Y-88716027D01*
X123239771Y-88787676D01*
X123239762Y-88787681D01*
X123084092Y-88891697D01*
X123084088Y-88891700D01*
X122951700Y-89024088D01*
X122951697Y-89024092D01*
X122847681Y-89179762D01*
X122847676Y-89179771D01*
X122776027Y-89352748D01*
X122776025Y-89352756D01*
X122739500Y-89536379D01*
X122739500Y-89706270D01*
X122719815Y-89773309D01*
X122667011Y-89819064D01*
X122597853Y-89829008D01*
X122568055Y-89820834D01*
X122565996Y-89819981D01*
X122562574Y-89819064D01*
X122489562Y-89799500D01*
X122410438Y-89799500D01*
X122372224Y-89809739D01*
X122334009Y-89819979D01*
X122334006Y-89819981D01*
X122285421Y-89848031D01*
X122217521Y-89864502D01*
X122151494Y-89841649D01*
X122108305Y-89786727D01*
X122100020Y-89728489D01*
X122100500Y-89723615D01*
X122100500Y-89536383D01*
X122100499Y-89536379D01*
X122093419Y-89500784D01*
X122063973Y-89352749D01*
X121993593Y-89182838D01*
X121992323Y-89179771D01*
X121992318Y-89179762D01*
X121888302Y-89024092D01*
X121888299Y-89024088D01*
X121755911Y-88891700D01*
X121755907Y-88891697D01*
X121600237Y-88787681D01*
X121600228Y-88787676D01*
X121427251Y-88716027D01*
X121427243Y-88716025D01*
X121243620Y-88679500D01*
X121243616Y-88679500D01*
X121056384Y-88679500D01*
X121056379Y-88679500D01*
X120872756Y-88716025D01*
X120872748Y-88716027D01*
X120699771Y-88787676D01*
X120699762Y-88787681D01*
X120544092Y-88891697D01*
X120544088Y-88891700D01*
X120411700Y-89024088D01*
X120411697Y-89024092D01*
X120307681Y-89179762D01*
X120307676Y-89179771D01*
X120236027Y-89352748D01*
X120236025Y-89352756D01*
X120199500Y-89536379D01*
X120199500Y-89723620D01*
X120234810Y-89901133D01*
X120236027Y-89907251D01*
X120257068Y-89958048D01*
X120264537Y-90027516D01*
X120233262Y-90089995D01*
X120173174Y-90125648D01*
X120142507Y-90129500D01*
X119617493Y-90129500D01*
X119550454Y-90109815D01*
X119504699Y-90057011D01*
X119494755Y-89987853D01*
X119502931Y-89958050D01*
X119523973Y-89907251D01*
X119560500Y-89723616D01*
X119560500Y-89536384D01*
X119523973Y-89352749D01*
X119453593Y-89182838D01*
X119452323Y-89179771D01*
X119452318Y-89179762D01*
X119348302Y-89024092D01*
X119348299Y-89024088D01*
X119215911Y-88891700D01*
X119215907Y-88891697D01*
X119060237Y-88787681D01*
X119060228Y-88787676D01*
X118887251Y-88716027D01*
X118887243Y-88716025D01*
X118703620Y-88679500D01*
X118703616Y-88679500D01*
X118516384Y-88679500D01*
X118516379Y-88679500D01*
X118332756Y-88716025D01*
X118332748Y-88716027D01*
X118159771Y-88787676D01*
X118159762Y-88787681D01*
X118004092Y-88891697D01*
X118004088Y-88891700D01*
X117871700Y-89024088D01*
X117871697Y-89024092D01*
X117767681Y-89179762D01*
X117767676Y-89179771D01*
X117696027Y-89352748D01*
X117696025Y-89352756D01*
X117659500Y-89536379D01*
X117659500Y-89723620D01*
X117696025Y-89907243D01*
X117696027Y-89907251D01*
X117767676Y-90080228D01*
X117767681Y-90080237D01*
X117871697Y-90235907D01*
X117871700Y-90235911D01*
X118004089Y-90368300D01*
X118004092Y-90368302D01*
X118084391Y-90421956D01*
X118129195Y-90475566D01*
X118139500Y-90525057D01*
X118139500Y-92184167D01*
X118119815Y-92251206D01*
X118103181Y-92271848D01*
X118059541Y-92315487D01*
X118059535Y-92315495D01*
X118019982Y-92384004D01*
X118019979Y-92384009D01*
X118009130Y-92424500D01*
X118002063Y-92450875D01*
X117999500Y-92460439D01*
X117999500Y-92543229D01*
X118000003Y-92550404D01*
X118006632Y-93266328D01*
X118006632Y-93266329D01*
X118006788Y-93283236D01*
X117999500Y-93310438D01*
X117999500Y-93389562D01*
X118008067Y-93421538D01*
X118008213Y-93437281D01*
X118008214Y-93437282D01*
X118010000Y-93630001D01*
X118229890Y-94308295D01*
X118235882Y-94350075D01*
X118218769Y-94949041D01*
X118197178Y-95015491D01*
X118143089Y-95059719D01*
X118094820Y-95069500D01*
X117618584Y-95069500D01*
X117551545Y-95049815D01*
X117536425Y-95038376D01*
X117499248Y-95005489D01*
X117105272Y-94656971D01*
X116881343Y-94458880D01*
X116874230Y-94448932D01*
X116867113Y-94444012D01*
X116849040Y-94413696D01*
X116810038Y-94320091D01*
X116800500Y-94272399D01*
X116800500Y-93120010D01*
X116800499Y-93120007D01*
X116785200Y-93083071D01*
X116756928Y-93054799D01*
X116719992Y-93039500D01*
X116719991Y-93039500D01*
X116095016Y-93039500D01*
X116027977Y-93019815D01*
X116010676Y-93006400D01*
X115357755Y-92400597D01*
X115185697Y-92240956D01*
X115166937Y-92218950D01*
X115144552Y-92185448D01*
X115142043Y-92183771D01*
X115078230Y-92141132D01*
X115078229Y-92141131D01*
X115019752Y-92129500D01*
X115019748Y-92129500D01*
X114780252Y-92129500D01*
X114780247Y-92129500D01*
X114721770Y-92141131D01*
X114721769Y-92141132D01*
X114655447Y-92185447D01*
X114611132Y-92251769D01*
X114606460Y-92263050D01*
X114604635Y-92262294D01*
X114579347Y-92310624D01*
X114577806Y-92312192D01*
X113886819Y-93003181D01*
X113825496Y-93036666D01*
X113799138Y-93039500D01*
X111894500Y-93039500D01*
X111827461Y-93019815D01*
X111781706Y-92967011D01*
X111770500Y-92915500D01*
X111770500Y-89516070D01*
X111790185Y-89449031D01*
X111842989Y-89403276D01*
X111912147Y-89393332D01*
X111956499Y-89408682D01*
X112062164Y-89469688D01*
X112195817Y-89505500D01*
X112195819Y-89505500D01*
X112334181Y-89505500D01*
X112334183Y-89505500D01*
X112467836Y-89469688D01*
X112563501Y-89414455D01*
X112631400Y-89397983D01*
X112697427Y-89420835D01*
X112740617Y-89475757D01*
X112749500Y-89521843D01*
X112749500Y-89729752D01*
X112761131Y-89788229D01*
X112761132Y-89788230D01*
X112789783Y-89831109D01*
X112810661Y-89897786D01*
X112792177Y-89965167D01*
X112789783Y-89968891D01*
X112761132Y-90011769D01*
X112761131Y-90011770D01*
X112749500Y-90070247D01*
X112749500Y-90544752D01*
X112761131Y-90603229D01*
X112761132Y-90603230D01*
X112805447Y-90669552D01*
X112871769Y-90713867D01*
X112871770Y-90713868D01*
X112930247Y-90725499D01*
X112930250Y-90725500D01*
X112930252Y-90725500D01*
X113047157Y-90725500D01*
X113114196Y-90745185D01*
X113134838Y-90761819D01*
X113343935Y-90970916D01*
X113389084Y-91016065D01*
X113448075Y-91040500D01*
X113972157Y-91040500D01*
X114001597Y-91049144D01*
X114031584Y-91055668D01*
X114036599Y-91059422D01*
X114039196Y-91060185D01*
X114059838Y-91076819D01*
X114083181Y-91100162D01*
X114116666Y-91161485D01*
X114119500Y-91187843D01*
X114119500Y-91259562D01*
X114127539Y-91289562D01*
X114139979Y-91335990D01*
X114139982Y-91335995D01*
X114179535Y-91404504D01*
X114179539Y-91404509D01*
X114179540Y-91404511D01*
X114235489Y-91460460D01*
X114235491Y-91460461D01*
X114235495Y-91460464D01*
X114303065Y-91499475D01*
X114304011Y-91500021D01*
X114380438Y-91520500D01*
X114380440Y-91520500D01*
X114459560Y-91520500D01*
X114459562Y-91520500D01*
X114535989Y-91500021D01*
X114604511Y-91460460D01*
X114660460Y-91404511D01*
X114671366Y-91385621D01*
X114674424Y-91382704D01*
X114675692Y-91378666D01*
X114699498Y-91358794D01*
X114721928Y-91337406D01*
X114727005Y-91335834D01*
X114729331Y-91333893D01*
X114763358Y-91324579D01*
X114956097Y-91300487D01*
X114963939Y-91299761D01*
X115289979Y-91280001D01*
X115358085Y-91295594D01*
X115404865Y-91341773D01*
X115415243Y-91359748D01*
X115428496Y-91382704D01*
X115429540Y-91384511D01*
X115485489Y-91440460D01*
X115485491Y-91440461D01*
X115485495Y-91440464D01*
X115554004Y-91480017D01*
X115554011Y-91480021D01*
X115630438Y-91500500D01*
X115630440Y-91500500D01*
X115709560Y-91500500D01*
X115709562Y-91500500D01*
X115785989Y-91480021D01*
X115854511Y-91440460D01*
X115910460Y-91384511D01*
X115950021Y-91315989D01*
X115970500Y-91239562D01*
X115970500Y-91160438D01*
X115950021Y-91084011D01*
X115939331Y-91065495D01*
X115910464Y-91015495D01*
X115910458Y-91015487D01*
X115866819Y-90971848D01*
X115852115Y-90944920D01*
X115835523Y-90919102D01*
X115834631Y-90912901D01*
X115833334Y-90910525D01*
X115830500Y-90884167D01*
X115830500Y-90835071D01*
X115850185Y-90768032D01*
X115902989Y-90722277D01*
X115925402Y-90715039D01*
X115928229Y-90713867D01*
X115928231Y-90713867D01*
X115994552Y-90669552D01*
X116038867Y-90603231D01*
X116038867Y-90603229D01*
X116038868Y-90603229D01*
X116050499Y-90544752D01*
X116050500Y-90544750D01*
X116050500Y-90070249D01*
X116050499Y-90070247D01*
X116038868Y-90011770D01*
X116034194Y-90000487D01*
X116035234Y-90000056D01*
X116018052Y-89945193D01*
X116036533Y-89877812D01*
X116045002Y-89865765D01*
X116301185Y-89543894D01*
X116358335Y-89503701D01*
X116428144Y-89500784D01*
X116430277Y-89501336D01*
X116445817Y-89505500D01*
X116445819Y-89505500D01*
X116584181Y-89505500D01*
X116584183Y-89505500D01*
X116717836Y-89469688D01*
X116837665Y-89400505D01*
X116935505Y-89302665D01*
X117004688Y-89182836D01*
X117040500Y-89049183D01*
X117040500Y-88910817D01*
X117004688Y-88777164D01*
X116948844Y-88680439D01*
X116935507Y-88657338D01*
X116935503Y-88657333D01*
X116837666Y-88559496D01*
X116837661Y-88559492D01*
X116717838Y-88490313D01*
X116717834Y-88490311D01*
X116690553Y-88483001D01*
X116630894Y-88446635D01*
X116600366Y-88383787D01*
X116598658Y-88364669D01*
X116596849Y-88209073D01*
X116590471Y-87660529D01*
X116596287Y-87639832D01*
X116597342Y-87618362D01*
X116608244Y-87597289D01*
X116609375Y-87593266D01*
X116613552Y-87587026D01*
X116720570Y-87437199D01*
X116775554Y-87394089D01*
X116821586Y-87385273D01*
X133025615Y-87400291D01*
G37*
%TD.AperFunction*%
%TA.AperFunction,Conductor*%
G36*
X118683352Y-99422113D02*
G01*
X118749011Y-99460021D01*
X118825438Y-99480500D01*
X118825440Y-99480500D01*
X118904560Y-99480500D01*
X118904562Y-99480500D01*
X118980989Y-99460021D01*
X119046648Y-99422113D01*
X119062136Y-99417962D01*
X119073713Y-99410523D01*
X119108648Y-99405500D01*
X119203000Y-99405500D01*
X119270039Y-99425185D01*
X119315794Y-99477989D01*
X119327000Y-99529500D01*
X119327000Y-99956505D01*
X119307315Y-100023544D01*
X119304903Y-100027158D01*
X119073937Y-100360281D01*
X119019562Y-100404158D01*
X118993116Y-100411823D01*
X118719361Y-100459054D01*
X118666186Y-100456634D01*
X118639562Y-100449500D01*
X118560438Y-100449500D01*
X118524783Y-100459054D01*
X118484009Y-100469979D01*
X118484004Y-100469982D01*
X118415495Y-100509535D01*
X118415487Y-100509541D01*
X118359541Y-100565487D01*
X118359535Y-100565495D01*
X118319982Y-100634004D01*
X118319979Y-100634009D01*
X118310402Y-100669752D01*
X118302719Y-100698427D01*
X118299500Y-100710439D01*
X118299500Y-100792044D01*
X118293512Y-100830112D01*
X118017009Y-101687268D01*
X117980200Y-101742912D01*
X117940599Y-101777226D01*
X117940597Y-101777229D01*
X117908460Y-101827235D01*
X117908459Y-101827236D01*
X117888775Y-101894270D01*
X117884500Y-101924003D01*
X117884500Y-102576120D01*
X117886402Y-102596062D01*
X117886404Y-102596071D01*
X117895273Y-102642123D01*
X117898768Y-102654038D01*
X117900916Y-102661359D01*
X117963678Y-102818262D01*
X118035631Y-102998144D01*
X118044500Y-103044195D01*
X118044500Y-103604938D01*
X118024815Y-103671977D01*
X118008181Y-103692619D01*
X117442619Y-104258181D01*
X117381296Y-104291666D01*
X117354938Y-104294500D01*
X116612105Y-104294500D01*
X116599055Y-104293811D01*
X116578786Y-104291666D01*
X116547093Y-104288312D01*
X115797521Y-104208986D01*
X115792045Y-104208549D01*
X115779219Y-104207861D01*
X115773766Y-104207711D01*
X115086814Y-104206605D01*
X115024366Y-104206505D01*
X115024365Y-104206505D01*
X115024364Y-104206505D01*
X115024362Y-104206505D01*
X115001855Y-104208897D01*
X115001846Y-104208899D01*
X114950148Y-104220103D01*
X114950143Y-104220105D01*
X114903399Y-104243479D01*
X114899201Y-104246284D01*
X114874912Y-104253884D01*
X114852132Y-104265237D01*
X114836987Y-104265750D01*
X114832519Y-104267149D01*
X114816862Y-104266434D01*
X114716345Y-104255448D01*
X114706885Y-104254414D01*
X114696172Y-104252766D01*
X114679752Y-104249500D01*
X114679748Y-104249500D01*
X114668671Y-104249500D01*
X114655199Y-104248766D01*
X113664756Y-104140519D01*
X113654037Y-104138870D01*
X113606931Y-104129500D01*
X113606928Y-104129500D01*
X113263072Y-104129500D01*
X113263070Y-104129500D01*
X113222265Y-104137617D01*
X113198073Y-104140000D01*
X112701927Y-104140000D01*
X112677735Y-104137617D01*
X112636930Y-104129500D01*
X112636928Y-104129500D01*
X112293072Y-104129500D01*
X112293070Y-104129500D01*
X112252265Y-104137617D01*
X112228073Y-104140000D01*
X112101479Y-104140000D01*
X112059773Y-104132776D01*
X111856843Y-104060301D01*
X111800330Y-104019215D01*
X111780911Y-103982734D01*
X111779409Y-103978229D01*
X111776862Y-103970586D01*
X111770500Y-103931377D01*
X111770500Y-102424500D01*
X111790185Y-102357461D01*
X111842989Y-102311706D01*
X111894500Y-102300500D01*
X113890817Y-102300500D01*
X113957856Y-102320185D01*
X113985618Y-102344570D01*
X114192997Y-102590531D01*
X114448231Y-102893251D01*
X114560330Y-103026205D01*
X114588494Y-103090147D01*
X114588932Y-103093982D01*
X114589500Y-103099753D01*
X114601131Y-103158229D01*
X114601132Y-103158230D01*
X114645447Y-103224552D01*
X114711769Y-103268867D01*
X114711770Y-103268868D01*
X114770247Y-103280499D01*
X114770250Y-103280500D01*
X114770252Y-103280500D01*
X115009750Y-103280500D01*
X115009751Y-103280499D01*
X115024568Y-103277552D01*
X115068229Y-103268868D01*
X115068229Y-103268867D01*
X115068231Y-103268867D01*
X115112545Y-103239256D01*
X115134551Y-103224553D01*
X115134552Y-103224552D01*
X115178867Y-103158231D01*
X115178868Y-103158225D01*
X115179362Y-103157034D01*
X115201845Y-103121430D01*
X115830451Y-102424500D01*
X115905360Y-102341449D01*
X115964879Y-102304851D01*
X115997439Y-102300500D01*
X116719989Y-102300500D01*
X116719991Y-102300500D01*
X116756929Y-102285200D01*
X116785200Y-102256929D01*
X116800500Y-102219991D01*
X116800500Y-100815749D01*
X116820185Y-100748710D01*
X116847221Y-100718775D01*
X117229990Y-100413756D01*
X117275175Y-100390957D01*
X117315985Y-100380022D01*
X117315983Y-100380022D01*
X117315989Y-100380021D01*
X117354223Y-100357947D01*
X117384504Y-100340464D01*
X117384503Y-100340464D01*
X117384511Y-100340460D01*
X117440460Y-100284511D01*
X117480021Y-100215989D01*
X117500500Y-100139562D01*
X117500500Y-100139548D01*
X117500663Y-100138318D01*
X117501093Y-100137343D01*
X117502603Y-100131712D01*
X117503481Y-100131947D01*
X117528928Y-100074420D01*
X117587251Y-100035947D01*
X117623597Y-100030499D01*
X118259898Y-100030499D01*
X118289213Y-100024669D01*
X118322457Y-100002457D01*
X118344669Y-99969213D01*
X118350500Y-99939899D01*
X118350499Y-99529499D01*
X118353049Y-99520813D01*
X118351761Y-99511853D01*
X118362738Y-99487816D01*
X118370183Y-99462461D01*
X118377025Y-99456532D01*
X118380786Y-99448297D01*
X118403017Y-99434010D01*
X118422987Y-99416706D01*
X118433502Y-99414418D01*
X118439564Y-99410523D01*
X118474499Y-99405500D01*
X118621352Y-99405500D01*
X118683352Y-99422113D01*
G37*
%TD.AperFunction*%
%TA.AperFunction,Conductor*%
G36*
X128959978Y-92731049D02*
G01*
X128969835Y-92729812D01*
X128992909Y-92740851D01*
X129017424Y-92748148D01*
X129028657Y-92757954D01*
X129032862Y-92759966D01*
X129038761Y-92766774D01*
X129044012Y-92771358D01*
X129048915Y-92777059D01*
X129056938Y-92789066D01*
X129073403Y-92805531D01*
X129076434Y-92809055D01*
X129081683Y-92815594D01*
X129087913Y-92823917D01*
X129097043Y-92836114D01*
X129097047Y-92836119D01*
X129097049Y-92836121D01*
X129175410Y-92914482D01*
X129183859Y-92922066D01*
X129204624Y-92938780D01*
X129204625Y-92938780D01*
X129206656Y-92940415D01*
X129212535Y-92944662D01*
X129220937Y-92953064D01*
X129245787Y-92969669D01*
X129247667Y-92970043D01*
X129260739Y-92979486D01*
X129273608Y-92996082D01*
X129289964Y-93009257D01*
X129294587Y-93023137D01*
X129303553Y-93034700D01*
X129305406Y-93055620D01*
X129312044Y-93075547D01*
X129308428Y-93089724D01*
X129309720Y-93104297D01*
X129299969Y-93122896D01*
X129294780Y-93143250D01*
X129284073Y-93153222D01*
X129277281Y-93166180D01*
X129259022Y-93176555D01*
X129254243Y-93181007D01*
X129255941Y-93183548D01*
X129245788Y-93190331D01*
X129245787Y-93190332D01*
X129220934Y-93206938D01*
X129220932Y-93206939D01*
X129220932Y-93206940D01*
X129056933Y-93370940D01*
X129056932Y-93370942D01*
X129040330Y-93395787D01*
X129040329Y-93395789D01*
X129034500Y-93425097D01*
X129034500Y-93594894D01*
X129034501Y-93594902D01*
X129040330Y-93624212D01*
X129062542Y-93657457D01*
X129079219Y-93668599D01*
X129095787Y-93679669D01*
X129095790Y-93679669D01*
X129095791Y-93679670D01*
X129105647Y-93681630D01*
X129125101Y-93685500D01*
X129183533Y-93685499D01*
X129250571Y-93705183D01*
X129296327Y-93757986D01*
X129306271Y-93827144D01*
X129277247Y-93890700D01*
X129271217Y-93897178D01*
X129262947Y-93905447D01*
X129218632Y-93971769D01*
X129218631Y-93971770D01*
X129207000Y-94030247D01*
X129207000Y-94269752D01*
X129218631Y-94328229D01*
X129218632Y-94328230D01*
X129262947Y-94394552D01*
X129329269Y-94438867D01*
X129329270Y-94438868D01*
X129387747Y-94450499D01*
X129387750Y-94450500D01*
X129387752Y-94450500D01*
X129862250Y-94450500D01*
X129862251Y-94450499D01*
X129877068Y-94447552D01*
X129920729Y-94438868D01*
X129920729Y-94438867D01*
X129920731Y-94438867D01*
X129987052Y-94394552D01*
X130006392Y-94365607D01*
X130060005Y-94320804D01*
X130109494Y-94310500D01*
X130831924Y-94310500D01*
X130831925Y-94310500D01*
X130890916Y-94286065D01*
X131144929Y-94032051D01*
X131206250Y-93998568D01*
X131275941Y-94003552D01*
X131331875Y-94045423D01*
X131352382Y-94087639D01*
X131359977Y-94115984D01*
X131359982Y-94115995D01*
X131399535Y-94184504D01*
X131399539Y-94184509D01*
X131399540Y-94184511D01*
X131455489Y-94240460D01*
X131455491Y-94240461D01*
X131455495Y-94240464D01*
X131506224Y-94269752D01*
X131524011Y-94280021D01*
X131600438Y-94300500D01*
X131600440Y-94300500D01*
X131608497Y-94301561D01*
X131608147Y-94304213D01*
X131662539Y-94320185D01*
X131708294Y-94372989D01*
X131719500Y-94424500D01*
X131719500Y-95751568D01*
X131699815Y-95818607D01*
X131647011Y-95864362D01*
X131577853Y-95874306D01*
X131533502Y-95858956D01*
X131465993Y-95819981D01*
X131465990Y-95819979D01*
X131422877Y-95808427D01*
X131389562Y-95799500D01*
X131310438Y-95799500D01*
X131285811Y-95806099D01*
X131234009Y-95819979D01*
X131234004Y-95819982D01*
X131165495Y-95859535D01*
X131165487Y-95859541D01*
X131109541Y-95915487D01*
X131109535Y-95915495D01*
X131069982Y-95984004D01*
X131069979Y-95984009D01*
X131065699Y-95999984D01*
X131049500Y-96060438D01*
X131049500Y-96139562D01*
X131069979Y-96215989D01*
X131069980Y-96215990D01*
X131072083Y-96223839D01*
X131069983Y-96224401D01*
X131076226Y-96282533D01*
X131044943Y-96345008D01*
X130984849Y-96380652D01*
X130954199Y-96384500D01*
X130515105Y-96384500D01*
X130515097Y-96384501D01*
X130485787Y-96390330D01*
X130452542Y-96412542D01*
X130430332Y-96445785D01*
X130430329Y-96445791D01*
X130424500Y-96475098D01*
X130424500Y-96490587D01*
X130404815Y-96557626D01*
X130388181Y-96578268D01*
X130136426Y-96830024D01*
X130080025Y-96886424D01*
X130080024Y-96886425D01*
X130049500Y-96960116D01*
X130049500Y-99495500D01*
X130029815Y-99562539D01*
X129977011Y-99608294D01*
X129925500Y-99619500D01*
X127469882Y-99619500D01*
X127390118Y-99619500D01*
X127390116Y-99619500D01*
X127390114Y-99619501D01*
X127316426Y-99650022D01*
X127316423Y-99650025D01*
X127293686Y-99672761D01*
X127232362Y-99706244D01*
X127171074Y-99704054D01*
X127153099Y-99698776D01*
X127153090Y-99698774D01*
X127153088Y-99698774D01*
X127123364Y-99694500D01*
X127123360Y-99694500D01*
X126528745Y-99694500D01*
X126506433Y-99687948D01*
X126483275Y-99685862D01*
X126466234Y-99676144D01*
X126461706Y-99674815D01*
X126452616Y-99668379D01*
X126397871Y-99625799D01*
X126357039Y-99569103D01*
X126350000Y-99527920D01*
X126350000Y-95200719D01*
X126369685Y-95133680D01*
X126422489Y-95087925D01*
X126426492Y-95086181D01*
X126450916Y-95076065D01*
X126713565Y-94813417D01*
X126720721Y-94796138D01*
X126738000Y-94754425D01*
X126738000Y-94557530D01*
X126757685Y-94490491D01*
X126810489Y-94444736D01*
X126837804Y-94435913D01*
X126873231Y-94428867D01*
X126939552Y-94384552D01*
X126983867Y-94318231D01*
X126995500Y-94259748D01*
X126995500Y-94259744D01*
X126996224Y-94256105D01*
X127006684Y-94225342D01*
X127009552Y-94219541D01*
X127332269Y-93566770D01*
X127379625Y-93515400D01*
X127447238Y-93497786D01*
X127470670Y-93500757D01*
X127473525Y-93501400D01*
X127473529Y-93501400D01*
X127473534Y-93501402D01*
X127503225Y-93505894D01*
X127981785Y-93509419D01*
X127981793Y-93509418D01*
X127981795Y-93509418D01*
X127990751Y-93508356D01*
X128007973Y-93506316D01*
X128067665Y-93491502D01*
X128116409Y-93464150D01*
X128166107Y-93415040D01*
X128184245Y-93391108D01*
X128187580Y-93385086D01*
X128375846Y-93045122D01*
X128383394Y-93037662D01*
X128387411Y-93027837D01*
X128407818Y-93013527D01*
X128425544Y-92996011D01*
X128437441Y-92992755D01*
X128444618Y-92987723D01*
X128472716Y-92983102D01*
X128479322Y-92981295D01*
X128481824Y-92981194D01*
X128564192Y-92981194D01*
X128575365Y-92980601D01*
X128601485Y-92977819D01*
X128606851Y-92976147D01*
X128620386Y-92975601D01*
X128621371Y-92975847D01*
X128624893Y-92975500D01*
X128624898Y-92975500D01*
X128654213Y-92969668D01*
X128679066Y-92953062D01*
X128687104Y-92945023D01*
X128700671Y-92933291D01*
X128702075Y-92932243D01*
X128702079Y-92932242D01*
X128726153Y-92914294D01*
X128806579Y-92834184D01*
X128815027Y-92824689D01*
X128833474Y-92801252D01*
X128833474Y-92801250D01*
X128837372Y-92796299D01*
X128837408Y-92796327D01*
X128839690Y-92793173D01*
X128843057Y-92789069D01*
X128843064Y-92789063D01*
X128846899Y-92783322D01*
X128866525Y-92766921D01*
X128883346Y-92747653D01*
X128892887Y-92744889D01*
X128900510Y-92738519D01*
X128925889Y-92735331D01*
X128950457Y-92728216D01*
X128959978Y-92731049D01*
G37*
%TD.AperFunction*%
%TA.AperFunction,Conductor*%
G36*
X126307539Y-92969685D02*
G01*
X126353294Y-93022489D01*
X126364500Y-93074000D01*
X126364500Y-93634894D01*
X126364501Y-93634902D01*
X126370330Y-93664212D01*
X126375004Y-93675496D01*
X126372466Y-93676546D01*
X126387960Y-93726028D01*
X126369475Y-93793408D01*
X126317496Y-93840098D01*
X126288176Y-93849857D01*
X126281773Y-93851130D01*
X126281769Y-93851132D01*
X126215447Y-93895447D01*
X126171132Y-93961769D01*
X126171131Y-93961770D01*
X126159500Y-94020247D01*
X126159500Y-94259752D01*
X126171131Y-94318229D01*
X126171132Y-94318230D01*
X126215447Y-94384552D01*
X126259064Y-94413696D01*
X126281769Y-94428867D01*
X126317192Y-94435913D01*
X126345321Y-94450627D01*
X126374203Y-94463817D01*
X126376059Y-94466706D01*
X126379101Y-94468297D01*
X126394809Y-94495880D01*
X126411977Y-94522595D01*
X126412637Y-94527188D01*
X126413676Y-94529012D01*
X126417000Y-94557530D01*
X126417000Y-94604655D01*
X126397315Y-94671694D01*
X126380682Y-94692335D01*
X126329838Y-94743180D01*
X126268515Y-94776666D01*
X126242156Y-94779500D01*
X125249983Y-94779500D01*
X125182944Y-94759815D01*
X125137189Y-94707011D01*
X125127245Y-94637853D01*
X125156270Y-94574297D01*
X125194478Y-94544616D01*
X125199938Y-94541883D01*
X125246599Y-94518526D01*
X125299403Y-94472771D01*
X125331541Y-94422763D01*
X125351226Y-94355724D01*
X125355500Y-94326000D01*
X125355500Y-93970754D01*
X125375185Y-93903715D01*
X125427989Y-93857960D01*
X125443862Y-93851985D01*
X125691946Y-93777561D01*
X125698789Y-93775250D01*
X125714669Y-93769274D01*
X125746599Y-93750266D01*
X125799403Y-93704511D01*
X125831541Y-93654503D01*
X125851226Y-93587464D01*
X125855500Y-93557740D01*
X125855500Y-93174000D01*
X125853089Y-93151573D01*
X125847715Y-93126872D01*
X125841948Y-93100358D01*
X125846932Y-93030667D01*
X125888803Y-92974733D01*
X125954268Y-92950316D01*
X125963114Y-92950000D01*
X126240500Y-92950000D01*
X126307539Y-92969685D01*
G37*
%TD.AperFunction*%
%TA.AperFunction,Conductor*%
G36*
X125586357Y-91009613D02*
G01*
X125653257Y-91029759D01*
X125698647Y-91082877D01*
X125709500Y-91133610D01*
X125709500Y-91276000D01*
X125689815Y-91343039D01*
X125637011Y-91388794D01*
X125585500Y-91400000D01*
X125055623Y-91400000D01*
X125026182Y-91391355D01*
X124996196Y-91384832D01*
X124991180Y-91381077D01*
X124988584Y-91380315D01*
X124967942Y-91363681D01*
X124944706Y-91340445D01*
X124911221Y-91279122D01*
X124908486Y-91247820D01*
X124910030Y-91209129D01*
X124911684Y-91167673D01*
X124934025Y-91101475D01*
X124950437Y-91082477D01*
X124995436Y-91039978D01*
X125057690Y-91008259D01*
X125081427Y-91006132D01*
X125586357Y-91009613D01*
G37*
%TD.AperFunction*%
%TA.AperFunction,Conductor*%
G36*
X115570897Y-87384114D02*
G01*
X115637918Y-87403861D01*
X115683624Y-87456707D01*
X115694741Y-87504936D01*
X115707960Y-88020474D01*
X115690001Y-88087996D01*
X115671683Y-88111333D01*
X115449084Y-88333935D01*
X115449083Y-88333934D01*
X115403936Y-88379082D01*
X115379500Y-88438074D01*
X115379500Y-89276638D01*
X115379273Y-89276638D01*
X115379839Y-89283921D01*
X115362427Y-89710534D01*
X115361639Y-89712859D01*
X115362143Y-89715260D01*
X115350503Y-89745759D01*
X115340025Y-89776715D01*
X115337833Y-89778956D01*
X115337231Y-89780537D01*
X115312086Y-89805304D01*
X115225289Y-89869259D01*
X115159642Y-89893180D01*
X115127547Y-89891050D01*
X115119755Y-89889500D01*
X115119748Y-89889500D01*
X114888738Y-89889500D01*
X114866611Y-89883002D01*
X114843633Y-89881006D01*
X114826197Y-89871135D01*
X114821699Y-89869815D01*
X114812919Y-89863619D01*
X114678095Y-89759437D01*
X114646526Y-89723317D01*
X114641874Y-89715260D01*
X114630460Y-89695489D01*
X114622253Y-89687282D01*
X114601195Y-89659198D01*
X114590421Y-89639541D01*
X114514372Y-89500784D01*
X114115761Y-88773493D01*
X114100500Y-88713896D01*
X114100500Y-88680439D01*
X114100500Y-88680438D01*
X114080021Y-88604011D01*
X114070752Y-88587956D01*
X114040464Y-88535495D01*
X114040458Y-88535487D01*
X113984512Y-88479541D01*
X113984504Y-88479535D01*
X113915995Y-88439982D01*
X113915990Y-88439979D01*
X113877419Y-88429644D01*
X113839562Y-88419500D01*
X113760438Y-88419500D01*
X113760435Y-88419500D01*
X113709884Y-88433045D01*
X113640034Y-88431382D01*
X113635002Y-88429653D01*
X113361098Y-88328878D01*
X113304983Y-88287259D01*
X113280275Y-88221904D01*
X113279966Y-88209092D01*
X113299536Y-87502686D01*
X113321069Y-87436220D01*
X113375120Y-87391945D01*
X113423598Y-87382123D01*
X115570897Y-87384114D01*
G37*
%TD.AperFunction*%
%TD*%
M02*
