%TF.GenerationSoftware,KiCad,Pcbnew,9.0.0*%
%TF.CreationDate,2025-06-12T14:50:32+02:00*%
%TF.ProjectId,hardware v4 pro max,68617264-7761-4726-9520-76342070726f,rev?*%
%TF.SameCoordinates,Original*%
%TF.FileFunction,Paste,Bot*%
%TF.FilePolarity,Positive*%
%FSLAX46Y46*%
G04 Gerber Fmt 4.6, Leading zero omitted, Abs format (unit mm)*
G04 Created by KiCad (PCBNEW 9.0.0) date 2025-06-12 14:50:32*
%MOMM*%
%LPD*%
G01*
G04 APERTURE LIST*
G04 Aperture macros list*
%AMRoundRect*
0 Rectangle with rounded corners*
0 $1 Rounding radius*
0 $2 $3 $4 $5 $6 $7 $8 $9 X,Y pos of 4 corners*
0 Add a 4 corners polygon primitive as box body*
4,1,4,$2,$3,$4,$5,$6,$7,$8,$9,$2,$3,0*
0 Add four circle primitives for the rounded corners*
1,1,$1+$1,$2,$3*
1,1,$1+$1,$4,$5*
1,1,$1+$1,$6,$7*
1,1,$1+$1,$8,$9*
0 Add four rect primitives between the rounded corners*
20,1,$1+$1,$2,$3,$4,$5,0*
20,1,$1+$1,$4,$5,$6,$7,0*
20,1,$1+$1,$6,$7,$8,$9,0*
20,1,$1+$1,$8,$9,$2,$3,0*%
G04 Aperture macros list end*
%ADD10RoundRect,0.079500X0.079500X0.100500X-0.079500X0.100500X-0.079500X-0.100500X0.079500X-0.100500X0*%
%ADD11R,0.325000X0.300000*%
%ADD12R,0.300000X0.325000*%
%ADD13RoundRect,0.079500X-0.079500X-0.100500X0.079500X-0.100500X0.079500X0.100500X-0.079500X0.100500X0*%
%ADD14RoundRect,0.079500X-0.100500X0.079500X-0.100500X-0.079500X0.100500X-0.079500X0.100500X0.079500X0*%
%ADD15RoundRect,0.079500X0.100500X-0.079500X0.100500X0.079500X-0.100500X0.079500X-0.100500X-0.079500X0*%
%ADD16RoundRect,0.140000X0.170000X-0.140000X0.170000X0.140000X-0.170000X0.140000X-0.170000X-0.140000X0*%
%ADD17R,0.750000X1.800000*%
%ADD18R,0.600000X1.800000*%
%ADD19R,1.300000X0.900000*%
%ADD20R,1.150000X0.300000*%
%ADD21R,2.000000X2.180000*%
%ADD22RoundRect,0.150000X0.150000X0.700000X-0.150000X0.700000X-0.150000X-0.700000X0.150000X-0.700000X0*%
%ADD23RoundRect,0.250000X0.250000X1.100000X-0.250000X1.100000X-0.250000X-1.100000X0.250000X-1.100000X0*%
%ADD24R,1.200000X0.800000*%
%ADD25R,0.900000X0.900000*%
G04 APERTURE END LIST*
D10*
%TO.C,C14*%
X137885000Y-100020000D03*
X137195000Y-100020000D03*
%TD*%
D11*
%TO.C,U5*%
X139540000Y-99000000D03*
X139540000Y-98500000D03*
D12*
X139790000Y-97975000D03*
X140290000Y-97975000D03*
X140790000Y-97975000D03*
D11*
X141040000Y-98500000D03*
X141040000Y-99000000D03*
D12*
X140790000Y-99525000D03*
X140290000Y-99525000D03*
X139790000Y-99525000D03*
%TD*%
D10*
%TO.C,C29*%
X128105000Y-106350000D03*
X127415000Y-106350000D03*
%TD*%
D13*
%TO.C,R8*%
X135510000Y-95100000D03*
X136200000Y-95100000D03*
%TD*%
D14*
%TO.C,R20*%
X141250000Y-95455000D03*
X141250000Y-96145000D03*
%TD*%
D15*
%TO.C,R19*%
X137900000Y-101495000D03*
X137900000Y-100805000D03*
%TD*%
%TO.C,C30*%
X139100000Y-96345000D03*
X139100000Y-95655000D03*
%TD*%
D16*
%TO.C,C10*%
X126550000Y-94930000D03*
X126550000Y-93970000D03*
%TD*%
D13*
%TO.C,R9*%
X136950000Y-95100000D03*
X137640000Y-95100000D03*
%TD*%
D17*
%TO.C,S1*%
X128810000Y-93570000D03*
D18*
X130035000Y-93570000D03*
D17*
X131260000Y-93570000D03*
D19*
X128185000Y-91620000D03*
X131885000Y-91620000D03*
%TD*%
D13*
%TO.C,R10*%
X130355000Y-95050000D03*
X131045000Y-95050000D03*
%TD*%
D15*
%TO.C,C6*%
X138800000Y-94745000D03*
X138800000Y-94055000D03*
%TD*%
D13*
%TO.C,R7*%
X128905000Y-95050000D03*
X129595000Y-95050000D03*
%TD*%
D15*
%TO.C,R23*%
X141950000Y-96145000D03*
X141950000Y-95455000D03*
%TD*%
D20*
%TO.C,J4*%
X146492000Y-97320000D03*
X146492000Y-98120000D03*
X146492000Y-99420000D03*
X146492000Y-100420000D03*
X146492000Y-100920000D03*
X146492000Y-101920000D03*
X146492000Y-103220000D03*
X146492000Y-104020000D03*
X146492000Y-103720000D03*
X146492000Y-102920000D03*
X146492000Y-102420000D03*
X146492000Y-101420000D03*
X146492000Y-99920000D03*
X146492000Y-98920000D03*
X146492000Y-98420000D03*
X146492000Y-97620000D03*
D21*
X150997000Y-95560000D03*
X150997000Y-105780000D03*
X147067000Y-95560000D03*
X147067000Y-105780000D03*
%TD*%
D14*
%TO.C,R15*%
X145320000Y-102835000D03*
X145320000Y-103525000D03*
%TD*%
D10*
%TO.C,C19*%
X137895000Y-99310000D03*
X137205000Y-99310000D03*
%TD*%
D13*
%TO.C,R22*%
X144105000Y-96200000D03*
X144795000Y-96200000D03*
%TD*%
D15*
%TO.C,R14*%
X145300000Y-98795000D03*
X145300000Y-98105000D03*
%TD*%
D22*
%TO.C,U1*%
X143240000Y-105290000D03*
X141990000Y-105290000D03*
X140740000Y-105290000D03*
X139490000Y-105290000D03*
D23*
X145090000Y-108490000D03*
X137640000Y-108490000D03*
%TD*%
D10*
%TO.C,R24*%
X144795000Y-96900000D03*
X144105000Y-96900000D03*
%TD*%
D17*
%TO.C,S2*%
X135365000Y-93585000D03*
D18*
X136590000Y-93585000D03*
D17*
X137815000Y-93585000D03*
D19*
X134740000Y-91635000D03*
X138440000Y-91635000D03*
%TD*%
D15*
%TO.C,C7*%
X132500000Y-94845000D03*
X132500000Y-94155000D03*
%TD*%
D24*
%TO.C,PA1010D1*%
X136380000Y-96780000D03*
X136380000Y-98380000D03*
X136380000Y-101280000D03*
X136380000Y-102880000D03*
X136380000Y-104480000D03*
X126680000Y-104480000D03*
X126680000Y-102880000D03*
X126680000Y-101280000D03*
X126680000Y-98380000D03*
X126680000Y-96780000D03*
%TD*%
D25*
%TO.C,LED1*%
X128340000Y-109270000D03*
X128340000Y-107570000D03*
X126640000Y-107570000D03*
X126640000Y-109270000D03*
%TD*%
D17*
%TO.C,S3*%
X133965000Y-107435000D03*
D18*
X132740000Y-107435000D03*
D17*
X131515000Y-107435000D03*
D19*
X134590000Y-109385000D03*
X130890000Y-109385000D03*
%TD*%
M02*
