%TF.GenerationSoftware,KiCad,Pcbnew,9.0.0*%
%TF.CreationDate,2025-06-12T14:50:32+02:00*%
%TF.ProjectId,hardware v4 pro max,68617264-7761-4726-9520-76342070726f,rev?*%
%TF.SameCoordinates,Original*%
%TF.FileFunction,Copper,L4,Inr*%
%TF.FilePolarity,Positive*%
%FSLAX46Y46*%
G04 Gerber Fmt 4.6, Leading zero omitted, Abs format (unit mm)*
G04 Created by KiCad (PCBNEW 9.0.0) date 2025-06-12 14:50:32*
%MOMM*%
%LPD*%
G01*
G04 APERTURE LIST*
%TA.AperFunction,ComponentPad*%
%ADD10R,1.700000X1.700000*%
%TD*%
%TA.AperFunction,ComponentPad*%
%ADD11O,1.700000X1.700000*%
%TD*%
%TA.AperFunction,ViaPad*%
%ADD12C,0.400000*%
%TD*%
%TA.AperFunction,Conductor*%
%ADD13C,0.200000*%
%TD*%
%TA.AperFunction,Conductor*%
%ADD14C,0.500000*%
%TD*%
%TA.AperFunction,Conductor*%
%ADD15C,0.150000*%
%TD*%
%TA.AperFunction,Conductor*%
%ADD16C,0.332000*%
%TD*%
G04 APERTURE END LIST*
D10*
%TO.N,GND*%
%TO.C,J3*%
X148570000Y-92965000D03*
D11*
%TO.N,+3.3V*%
X146030000Y-92965000D03*
%TO.N,OLED_SCL*%
X143490000Y-92965000D03*
%TO.N,OLED_SDA*%
X140950000Y-92965000D03*
%TD*%
D12*
%TO.N,Net-(BT1-+)*%
X126950000Y-103730000D03*
%TO.N,GND*%
X135400000Y-98100000D03*
X131310840Y-101330404D03*
X138430000Y-107710000D03*
X137800000Y-93200000D03*
X146150000Y-96180000D03*
X130060000Y-91880000D03*
X130550000Y-95950000D03*
X128800000Y-93300000D03*
X141830000Y-107780000D03*
X129950000Y-98550000D03*
X143900000Y-104190000D03*
X129950000Y-95700000D03*
X129150000Y-95700000D03*
X136200000Y-109700000D03*
X134400000Y-105600000D03*
X137300000Y-97020000D03*
X147060000Y-94160000D03*
X128350000Y-97950000D03*
X131100000Y-109700000D03*
X135300000Y-105700000D03*
X126420000Y-105370000D03*
X138200000Y-95450000D03*
X126900000Y-102200000D03*
X139350000Y-95300000D03*
X145070000Y-107210000D03*
X127670000Y-93820000D03*
X136680000Y-107530000D03*
X151580000Y-97700000D03*
X131300000Y-93300000D03*
X133950000Y-96050000D03*
X131850000Y-96050000D03*
X130600000Y-106100000D03*
X145380000Y-97520000D03*
X138100000Y-104400000D03*
X134000000Y-98100000D03*
X142900000Y-94250000D03*
X146290000Y-96930000D03*
X133300000Y-98100000D03*
X141680000Y-99810000D03*
X131200000Y-98100000D03*
X130550000Y-98300000D03*
X135810000Y-107500000D03*
X131940404Y-101279160D03*
X148720000Y-106660000D03*
X130600000Y-99340000D03*
X136150000Y-97630000D03*
X127520000Y-108410000D03*
X135200000Y-109700000D03*
X144490000Y-106720000D03*
X132320000Y-99200000D03*
X126360000Y-93240000D03*
X128350000Y-96300000D03*
X132460000Y-100920000D03*
X141290000Y-94240000D03*
X142740000Y-108990000D03*
X148640000Y-91490000D03*
X142720000Y-97690000D03*
X129580000Y-109500000D03*
X127450000Y-108990000D03*
X133150000Y-96050000D03*
X131900000Y-107000000D03*
X144680000Y-91590000D03*
X131119596Y-98980840D03*
X128350000Y-97150000D03*
X148330000Y-97680000D03*
X140630000Y-100860000D03*
X128680000Y-103360000D03*
X129150000Y-98550000D03*
X129500000Y-106400000D03*
X136990000Y-102010000D03*
X126300000Y-102200000D03*
X143710000Y-95520000D03*
X142750000Y-95350000D03*
X139510000Y-97630000D03*
X141680000Y-100860000D03*
X151050000Y-103950000D03*
X126360000Y-91560000D03*
X133820000Y-95330000D03*
X143300000Y-105300000D03*
X145080000Y-107770000D03*
X139580000Y-100860000D03*
X129200000Y-107000000D03*
X136590000Y-91750000D03*
X151050000Y-103150000D03*
X136000000Y-100210000D03*
X140420000Y-108740000D03*
X131300000Y-94000000D03*
X130329596Y-99910840D03*
X130000000Y-107000000D03*
X131900000Y-98100000D03*
X128350000Y-95700000D03*
X133230000Y-91600000D03*
X151930000Y-107340000D03*
X140420000Y-91540000D03*
X144730000Y-94040000D03*
X147260000Y-91500000D03*
X150400000Y-104550000D03*
X132300000Y-101950000D03*
X130610000Y-104330000D03*
X146100000Y-104100000D03*
X137490000Y-98030000D03*
X137980000Y-97020000D03*
X135370000Y-100720000D03*
X139690000Y-93490000D03*
X126490000Y-106010000D03*
X135950000Y-96050000D03*
X130380840Y-100540404D03*
X142600000Y-106230000D03*
X139520000Y-91550000D03*
X135400000Y-93200000D03*
X137600000Y-107520000D03*
X132500000Y-95500000D03*
X128350000Y-98550000D03*
X145870000Y-107290000D03*
X134700000Y-98100000D03*
X151760000Y-91550000D03*
X144460000Y-107790000D03*
X131150000Y-96050000D03*
X135840000Y-103590000D03*
X133700000Y-107000000D03*
X151960000Y-109660000D03*
X127670000Y-105340000D03*
X138100000Y-105200000D03*
X128800000Y-94000000D03*
X134950000Y-102000000D03*
X132600000Y-98100000D03*
X133970000Y-103730000D03*
X127430000Y-109590000D03*
X142730000Y-98760000D03*
X149460000Y-109500000D03*
X141680000Y-98760000D03*
X147440000Y-97030000D03*
X149780000Y-107600000D03*
X132679160Y-99719596D03*
X142730000Y-99810000D03*
X131749160Y-98929596D03*
X149150000Y-104550000D03*
X134700000Y-96050000D03*
X145340000Y-100170000D03*
X148780000Y-102170000D03*
X142730000Y-100860000D03*
X141800000Y-97680000D03*
X130740000Y-101060000D03*
X132730404Y-100349160D03*
X134070000Y-102820000D03*
X127120000Y-105730000D03*
X137020000Y-100090000D03*
%TO.N,+3.3V*%
X137090000Y-105890000D03*
X136580000Y-105940000D03*
X135790000Y-99550000D03*
X144950000Y-99650000D03*
X144650000Y-95630000D03*
X137900000Y-102050000D03*
X128580000Y-105330000D03*
X134350000Y-101400000D03*
X140800000Y-95700000D03*
X138600000Y-96550000D03*
X132250000Y-102600000D03*
X126550000Y-95800000D03*
X136310000Y-99560000D03*
X133300000Y-102450000D03*
X134380000Y-94710000D03*
X141600000Y-95650000D03*
X144600000Y-103200000D03*
X137015000Y-106400000D03*
X127150000Y-95800000D03*
X137595000Y-105825000D03*
%TO.N,vusb*%
X132300000Y-108900000D03*
X133300000Y-109100000D03*
X151600000Y-100300000D03*
X130700000Y-107500000D03*
X149300000Y-106100000D03*
X149300000Y-106800000D03*
%TO.N,B2*%
X143210000Y-95940000D03*
%TO.N,B1*%
X133080000Y-94810000D03*
X142660000Y-95960000D03*
%TO.N,FSPIWP*%
X140400000Y-102600000D03*
X145400000Y-104700000D03*
%TO.N,OLED_SCL*%
X141450000Y-96350000D03*
%TO.N,OLED_SDA*%
X141950000Y-96350000D03*
%TO.N,FSPICS2*%
X144570000Y-98100000D03*
X146100000Y-107900000D03*
%TO.N,Net-(PA1010D1-RX)*%
X136350000Y-104100000D03*
%TO.N,Net-(PA1010D1-TX)*%
X136350000Y-103300000D03*
%TO.N,GPSRX*%
X138150000Y-103800000D03*
X144500000Y-99150000D03*
%TO.N,GPSTX*%
X138250000Y-103150000D03*
X144560000Y-98640000D03*
%TO.N,BAT+*%
X148800000Y-103200000D03*
X138570413Y-109190391D03*
X129900000Y-108000000D03*
X138550000Y-109690000D03*
X129200000Y-108000000D03*
X138570000Y-108710000D03*
X148800000Y-103800000D03*
%TO.N,D+*%
X146500000Y-100400000D03*
X150650000Y-101000000D03*
%TO.N,D-*%
X150650000Y-99650000D03*
X146500000Y-100900000D03*
%TO.N,FSPIQ*%
X145400000Y-106100000D03*
X138800000Y-101800000D03*
%TO.N,LED_PWM*%
X144630000Y-97510000D03*
X126610000Y-107540000D03*
%TO.N,EN*%
X136800000Y-109100000D03*
X132800000Y-105300000D03*
%TO.N,Net-(IC1-VDDA3P3_1)*%
X134580000Y-99590000D03*
X134260000Y-99980000D03*
X138010000Y-98520000D03*
X137510000Y-98560000D03*
%TO.N,KILL*%
X135250000Y-103750000D03*
X133300000Y-108600000D03*
%TO.N,Net-(IC4-~{PB})*%
X131440000Y-105570000D03*
%TO.N,GPIO_SUP_1*%
X144890000Y-100540000D03*
%TO.N,GPIO_SUP_2*%
X144500000Y-100150000D03*
%TD*%
D13*
%TO.N,vusb*%
X136150000Y-106700000D02*
X136500000Y-107050000D01*
D14*
X150000000Y-105700000D02*
X149700000Y-105700000D01*
X151600000Y-101300000D02*
X151700000Y-101400000D01*
D13*
X133200000Y-109000000D02*
X132400000Y-109000000D01*
X147720000Y-101040000D02*
X148470000Y-100290000D01*
D14*
X149300000Y-106100000D02*
X149300000Y-106800000D01*
D13*
X132400000Y-109000000D02*
X132300000Y-108900000D01*
D14*
X151700000Y-101400000D02*
X151700000Y-104800000D01*
D13*
X130700000Y-107500000D02*
X130700000Y-107300000D01*
D14*
X149700000Y-105700000D02*
X149300000Y-106100000D01*
D13*
X148470000Y-100290000D02*
X151610000Y-100290000D01*
X133300000Y-109100000D02*
X133200000Y-109000000D01*
X134470000Y-106500000D02*
X134670000Y-106700000D01*
X134670000Y-106700000D02*
X136150000Y-106700000D01*
X136500000Y-107050000D02*
X140860000Y-107050000D01*
D14*
X151700000Y-104800000D02*
X150800000Y-105700000D01*
X151600000Y-101300000D02*
X151600000Y-100300000D01*
D13*
X140860000Y-107050000D02*
X143120000Y-104790000D01*
X143120000Y-104790000D02*
X144270000Y-104790000D01*
X130700000Y-107300000D02*
X131500000Y-106500000D01*
X144270000Y-104790000D02*
X147720000Y-101340000D01*
X131500000Y-106500000D02*
X134470000Y-106500000D01*
D14*
X150800000Y-105700000D02*
X150000000Y-105700000D01*
D13*
X147720000Y-101340000D02*
X147720000Y-101040000D01*
D15*
%TO.N,B1*%
X137090000Y-93950000D02*
X139950000Y-93950000D01*
X140700000Y-94700000D02*
X142080000Y-94700000D01*
X133510000Y-93740000D02*
X136880000Y-93740000D01*
X142330000Y-95620000D02*
X142640000Y-95930000D01*
X139950000Y-93950000D02*
X140700000Y-94700000D01*
X136880000Y-93740000D02*
X137090000Y-93950000D01*
X142080000Y-94700000D02*
X142330000Y-94950000D01*
X142330000Y-94950000D02*
X142330000Y-95620000D01*
X133080000Y-94810000D02*
X133080000Y-94170000D01*
X133080000Y-94170000D02*
X133510000Y-93740000D01*
D16*
%TO.N,Net-(IC1-VDDA3P3_1)*%
X134260000Y-99980000D02*
X134590000Y-99650000D01*
X137110000Y-98910000D02*
X137470000Y-98550000D01*
X135240000Y-98910000D02*
X137110000Y-98910000D01*
X134590000Y-99560000D02*
X135240000Y-98910000D01*
X134590000Y-99650000D02*
X134590000Y-99560000D01*
X137470000Y-98550000D02*
X138020000Y-98550000D01*
X138020000Y-98550000D02*
X138030000Y-98540000D01*
%TD*%
%TA.AperFunction,Conductor*%
%TO.N,+3.3V*%
G36*
X146873975Y-91809347D02*
G01*
X146940911Y-91829378D01*
X146986392Y-91882419D01*
X146997304Y-91935997D01*
X146960721Y-93646273D01*
X146956086Y-93661972D01*
X146956353Y-93676344D01*
X146942289Y-93708715D01*
X146831908Y-93887681D01*
X146814050Y-93910267D01*
X146779532Y-93944785D01*
X146733386Y-94024712D01*
X146733384Y-94024716D01*
X146727325Y-94047329D01*
X146713091Y-94080327D01*
X145930000Y-95349997D01*
X145930000Y-95349999D01*
X145958083Y-95817210D01*
X145942456Y-95885310D01*
X145921988Y-95912330D01*
X145869534Y-95964784D01*
X145869526Y-95964794D01*
X145823388Y-96044706D01*
X145823387Y-96044709D01*
X145823386Y-96044711D01*
X145823386Y-96044712D01*
X145799500Y-96133856D01*
X145799500Y-96226144D01*
X145822103Y-96310500D01*
X145823387Y-96315290D01*
X145823388Y-96315293D01*
X145869526Y-96395205D01*
X145869529Y-96395209D01*
X145869531Y-96395212D01*
X145934788Y-96460469D01*
X145938300Y-96462496D01*
X145941201Y-96464172D01*
X145946912Y-96470161D01*
X145954636Y-96473143D01*
X145970670Y-96495077D01*
X145989417Y-96514738D01*
X145992049Y-96524324D01*
X145995869Y-96529549D01*
X146002979Y-96564119D01*
X146009564Y-96673677D01*
X145993937Y-96741777D01*
X145993174Y-96743117D01*
X145963387Y-96794708D01*
X145963387Y-96794709D01*
X145939500Y-96883856D01*
X145939500Y-96976143D01*
X145963387Y-97065290D01*
X145963388Y-97065293D01*
X146009526Y-97145205D01*
X146014478Y-97151658D01*
X146012584Y-97153111D01*
X146040241Y-97203760D01*
X146042798Y-97221839D01*
X146055705Y-97414785D01*
X146236244Y-100113861D01*
X146221077Y-100182065D01*
X146219906Y-100184138D01*
X146173388Y-100264706D01*
X146173387Y-100264709D01*
X146173386Y-100264711D01*
X146173386Y-100264712D01*
X146155758Y-100330500D01*
X146149500Y-100353856D01*
X146149500Y-100405343D01*
X146142439Y-100446590D01*
X145279243Y-102893795D01*
X145250458Y-102939754D01*
X144387082Y-103812513D01*
X144325941Y-103846329D01*
X144297275Y-103849296D01*
X143981716Y-103845089D01*
X143966231Y-103844882D01*
X143946144Y-103839500D01*
X143853856Y-103839500D01*
X143840047Y-103843199D01*
X143822883Y-103842971D01*
X143603776Y-103840050D01*
X143600000Y-103840000D01*
X143599999Y-103840000D01*
X141685235Y-105640000D01*
X140503817Y-106750608D01*
X140487606Y-106765847D01*
X140425278Y-106797422D01*
X140402674Y-106799500D01*
X137986808Y-106799500D01*
X137983670Y-106799460D01*
X136898345Y-106771983D01*
X136831825Y-106750608D01*
X136788171Y-106698385D01*
X136620000Y-106320000D01*
X136118007Y-106295710D01*
X136051997Y-106272808D01*
X136008848Y-106217855D01*
X136000000Y-106171855D01*
X136000000Y-105560000D01*
X135999999Y-105559998D01*
X133880004Y-104670000D01*
X133880000Y-104669999D01*
X131735749Y-104620819D01*
X131670177Y-104600270D01*
X130429041Y-103779210D01*
X130428945Y-103779148D01*
X130399999Y-103759999D01*
X129800001Y-103909999D01*
X129800000Y-103909999D01*
X129800000Y-103910000D01*
X129542928Y-104283727D01*
X128672504Y-105549132D01*
X128671211Y-105550183D01*
X128670651Y-105551753D01*
X128644197Y-105572146D01*
X128618292Y-105593210D01*
X128616636Y-105593395D01*
X128615316Y-105594413D01*
X128582041Y-105597267D01*
X128548856Y-105600982D01*
X128546829Y-105600288D01*
X128545702Y-105600385D01*
X128512462Y-105588521D01*
X128372151Y-105514468D01*
X128322050Y-105465768D01*
X128306232Y-105397712D01*
X128327216Y-105335483D01*
X129430000Y-103700000D01*
X129429226Y-103683856D01*
X133619500Y-103683856D01*
X133619500Y-103776144D01*
X133642876Y-103863386D01*
X133643387Y-103865290D01*
X133643388Y-103865293D01*
X133689526Y-103945205D01*
X133689529Y-103945209D01*
X133689531Y-103945212D01*
X133754788Y-104010469D01*
X133754791Y-104010470D01*
X133754794Y-104010473D01*
X133834706Y-104056611D01*
X133834707Y-104056611D01*
X133834712Y-104056614D01*
X133923856Y-104080500D01*
X133923858Y-104080500D01*
X134016142Y-104080500D01*
X134016144Y-104080500D01*
X134105288Y-104056614D01*
X134185212Y-104010469D01*
X134250469Y-103945212D01*
X134296614Y-103865288D01*
X134320500Y-103776144D01*
X134320500Y-103703856D01*
X134899500Y-103703856D01*
X134899500Y-103796144D01*
X134923251Y-103884785D01*
X134923387Y-103885290D01*
X134923388Y-103885293D01*
X134969526Y-103965205D01*
X134969529Y-103965209D01*
X134969531Y-103965212D01*
X135034788Y-104030469D01*
X135034791Y-104030470D01*
X135034794Y-104030473D01*
X135114706Y-104076611D01*
X135114707Y-104076611D01*
X135114712Y-104076614D01*
X135203856Y-104100500D01*
X135203858Y-104100500D01*
X135296142Y-104100500D01*
X135296144Y-104100500D01*
X135385288Y-104076614D01*
X135465212Y-104030469D01*
X135530469Y-103965212D01*
X135533072Y-103960702D01*
X135583637Y-103912487D01*
X135652244Y-103899262D01*
X135662171Y-103900617D01*
X135683607Y-103904429D01*
X135704712Y-103916614D01*
X135793856Y-103940500D01*
X135886144Y-103940500D01*
X135886260Y-103940468D01*
X135897211Y-103942416D01*
X135919091Y-103953300D01*
X135942539Y-103960185D01*
X135949816Y-103968583D01*
X135959769Y-103973534D01*
X135972293Y-103994523D01*
X135988294Y-104012989D01*
X135991152Y-104026129D01*
X135995571Y-104033534D01*
X135995199Y-104044730D01*
X135999500Y-104064500D01*
X135999500Y-104146144D01*
X136011621Y-104191381D01*
X136023387Y-104235290D01*
X136023388Y-104235293D01*
X136069526Y-104315205D01*
X136069529Y-104315209D01*
X136069531Y-104315212D01*
X136134788Y-104380469D01*
X136134791Y-104380470D01*
X136134794Y-104380473D01*
X136214706Y-104426611D01*
X136214707Y-104426611D01*
X136214712Y-104426614D01*
X136303856Y-104450500D01*
X136303858Y-104450500D01*
X136396142Y-104450500D01*
X136396144Y-104450500D01*
X136485288Y-104426614D01*
X136565212Y-104380469D01*
X136591825Y-104353856D01*
X137749500Y-104353856D01*
X137749500Y-104446144D01*
X137768382Y-104516614D01*
X137773387Y-104535290D01*
X137773388Y-104535293D01*
X137819526Y-104615205D01*
X137819529Y-104615209D01*
X137819531Y-104615212D01*
X137884788Y-104680469D01*
X137901108Y-104689891D01*
X137905823Y-104692614D01*
X137954038Y-104743182D01*
X137967259Y-104811789D01*
X137941290Y-104876653D01*
X137905823Y-104907386D01*
X137884791Y-104919529D01*
X137884785Y-104919533D01*
X137819533Y-104984785D01*
X137819526Y-104984794D01*
X137773388Y-105064706D01*
X137773387Y-105064709D01*
X137773386Y-105064711D01*
X137773386Y-105064712D01*
X137749500Y-105153856D01*
X137749500Y-105246144D01*
X137762284Y-105293856D01*
X137773387Y-105335290D01*
X137773388Y-105335293D01*
X137819526Y-105415205D01*
X137819529Y-105415209D01*
X137819531Y-105415212D01*
X137884788Y-105480469D01*
X137884791Y-105480470D01*
X137884794Y-105480473D01*
X137964706Y-105526611D01*
X137964707Y-105526611D01*
X137964712Y-105526614D01*
X138053856Y-105550500D01*
X138053858Y-105550500D01*
X138146142Y-105550500D01*
X138146144Y-105550500D01*
X138235288Y-105526614D01*
X138315212Y-105480469D01*
X138380469Y-105415212D01*
X138426614Y-105335288D01*
X138450500Y-105246144D01*
X138450500Y-105153856D01*
X138426614Y-105064712D01*
X138418409Y-105050500D01*
X138380473Y-104984794D01*
X138380470Y-104984791D01*
X138380469Y-104984788D01*
X138315212Y-104919531D01*
X138294177Y-104907386D01*
X138245962Y-104856820D01*
X138232739Y-104788213D01*
X138258708Y-104723348D01*
X138294178Y-104692613D01*
X138315212Y-104680469D01*
X138380469Y-104615212D01*
X138426614Y-104535288D01*
X138450500Y-104446144D01*
X138450500Y-104353856D01*
X138426614Y-104264712D01*
X138384276Y-104191381D01*
X138367802Y-104123481D01*
X138390654Y-104057454D01*
X138403971Y-104041709D01*
X138430469Y-104015212D01*
X138476614Y-103935288D01*
X138500500Y-103846144D01*
X138500500Y-103753856D01*
X138476614Y-103664712D01*
X138476613Y-103664711D01*
X138476613Y-103664709D01*
X138446546Y-103612634D01*
X138433764Y-103590495D01*
X138417291Y-103522598D01*
X138440142Y-103456571D01*
X138459627Y-103436378D01*
X138459465Y-103436216D01*
X138492295Y-103403386D01*
X138530469Y-103365212D01*
X138576614Y-103285288D01*
X138600500Y-103196144D01*
X138600500Y-103103856D01*
X138576614Y-103014712D01*
X138573605Y-103009500D01*
X138530473Y-102934794D01*
X138530470Y-102934791D01*
X138530469Y-102934788D01*
X138465212Y-102869531D01*
X138465209Y-102869529D01*
X138465205Y-102869526D01*
X138385293Y-102823388D01*
X138385290Y-102823387D01*
X138385289Y-102823386D01*
X138385288Y-102823386D01*
X138296144Y-102799500D01*
X138203856Y-102799500D01*
X138114712Y-102823386D01*
X138114711Y-102823386D01*
X138114709Y-102823387D01*
X138114706Y-102823388D01*
X138034794Y-102869526D01*
X138034785Y-102869533D01*
X137969533Y-102934785D01*
X137969526Y-102934794D01*
X137923388Y-103014706D01*
X137923387Y-103014709D01*
X137899500Y-103103856D01*
X137899500Y-103196143D01*
X137923386Y-103285290D01*
X137966234Y-103359501D01*
X137982708Y-103427401D01*
X137959856Y-103493429D01*
X137940373Y-103513622D01*
X137940535Y-103513784D01*
X137869533Y-103584785D01*
X137869526Y-103584794D01*
X137823388Y-103664706D01*
X137823387Y-103664709D01*
X137823386Y-103664711D01*
X137823386Y-103664712D01*
X137799500Y-103753856D01*
X137799500Y-103846144D01*
X137816610Y-103909999D01*
X137823386Y-103935288D01*
X137865724Y-104008618D01*
X137882197Y-104076518D01*
X137859345Y-104142545D01*
X137846020Y-104158299D01*
X137819531Y-104184788D01*
X137819526Y-104184794D01*
X137773388Y-104264706D01*
X137773387Y-104264709D01*
X137773386Y-104264711D01*
X137773386Y-104264712D01*
X137749500Y-104353856D01*
X136591825Y-104353856D01*
X136630469Y-104315212D01*
X136676614Y-104235288D01*
X136700500Y-104146144D01*
X136700500Y-104053856D01*
X136676614Y-103964712D01*
X136674300Y-103960704D01*
X136630473Y-103884794D01*
X136630470Y-103884791D01*
X136630469Y-103884788D01*
X136565212Y-103819531D01*
X136544177Y-103807386D01*
X136495962Y-103756820D01*
X136482739Y-103688213D01*
X136508708Y-103623348D01*
X136544178Y-103592613D01*
X136565212Y-103580469D01*
X136630469Y-103515212D01*
X136676614Y-103435288D01*
X136700500Y-103346144D01*
X136700500Y-103253856D01*
X136676614Y-103164712D01*
X136676611Y-103164706D01*
X136630473Y-103084794D01*
X136630470Y-103084791D01*
X136630469Y-103084788D01*
X136565212Y-103019531D01*
X136565209Y-103019529D01*
X136565205Y-103019526D01*
X136485293Y-102973388D01*
X136485290Y-102973387D01*
X136485289Y-102973386D01*
X136485288Y-102973386D01*
X136396144Y-102949500D01*
X136303856Y-102949500D01*
X136214712Y-102973386D01*
X136214711Y-102973386D01*
X136214709Y-102973387D01*
X136214706Y-102973388D01*
X136134794Y-103019526D01*
X136134785Y-103019533D01*
X136069533Y-103084785D01*
X136069526Y-103084794D01*
X136023385Y-103164710D01*
X136023324Y-103164860D01*
X136023238Y-103164966D01*
X136019321Y-103171751D01*
X136018263Y-103171140D01*
X135979484Y-103219264D01*
X135913190Y-103241329D01*
X135892577Y-103240347D01*
X135886144Y-103239500D01*
X135793856Y-103239500D01*
X135704712Y-103263386D01*
X135704711Y-103263386D01*
X135704709Y-103263387D01*
X135704706Y-103263388D01*
X135624794Y-103309526D01*
X135624785Y-103309533D01*
X135559533Y-103374785D01*
X135559524Y-103374797D01*
X135556921Y-103379306D01*
X135506351Y-103427518D01*
X135437743Y-103440736D01*
X135392849Y-103426382D01*
X135392802Y-103426498D01*
X135391422Y-103425926D01*
X135387539Y-103424685D01*
X135385291Y-103423387D01*
X135385288Y-103423386D01*
X135296144Y-103399500D01*
X135203856Y-103399500D01*
X135114712Y-103423386D01*
X135114711Y-103423386D01*
X135114709Y-103423387D01*
X135114706Y-103423388D01*
X135034794Y-103469526D01*
X135034785Y-103469533D01*
X134969533Y-103534785D01*
X134969526Y-103534794D01*
X134923388Y-103614706D01*
X134923387Y-103614709D01*
X134923386Y-103614711D01*
X134923386Y-103614712D01*
X134899500Y-103703856D01*
X134320500Y-103703856D01*
X134320500Y-103683856D01*
X134296614Y-103594712D01*
X134296611Y-103594706D01*
X134250473Y-103514794D01*
X134250470Y-103514791D01*
X134250469Y-103514788D01*
X134185212Y-103449531D01*
X134185209Y-103449529D01*
X134185205Y-103449526D01*
X134098249Y-103399321D01*
X134098937Y-103398128D01*
X134051242Y-103359695D01*
X134029175Y-103293402D01*
X134046452Y-103225702D01*
X134097588Y-103178090D01*
X134120993Y-103169200D01*
X134205288Y-103146614D01*
X134285212Y-103100469D01*
X134350469Y-103035212D01*
X134396614Y-102955288D01*
X134420500Y-102866144D01*
X134420500Y-102773856D01*
X134396614Y-102684712D01*
X134374346Y-102646144D01*
X134352168Y-102607730D01*
X134352167Y-102607729D01*
X134350472Y-102604794D01*
X134350469Y-102604788D01*
X134299537Y-102553856D01*
X140049500Y-102553856D01*
X140049500Y-102646144D01*
X140059834Y-102684712D01*
X140073387Y-102735290D01*
X140073388Y-102735293D01*
X140119526Y-102815205D01*
X140119529Y-102815209D01*
X140119531Y-102815212D01*
X140184788Y-102880469D01*
X140184791Y-102880470D01*
X140184794Y-102880473D01*
X140264706Y-102926611D01*
X140264707Y-102926611D01*
X140264712Y-102926614D01*
X140353856Y-102950500D01*
X140353858Y-102950500D01*
X140446142Y-102950500D01*
X140446144Y-102950500D01*
X140535288Y-102926614D01*
X140615212Y-102880469D01*
X140680469Y-102815212D01*
X140726614Y-102735288D01*
X140750500Y-102646144D01*
X140750500Y-102553856D01*
X140726614Y-102464712D01*
X140698035Y-102415212D01*
X140680473Y-102384794D01*
X140680470Y-102384791D01*
X140680469Y-102384788D01*
X140615212Y-102319531D01*
X140615209Y-102319529D01*
X140615205Y-102319526D01*
X140535293Y-102273388D01*
X140535290Y-102273387D01*
X140535289Y-102273386D01*
X140535288Y-102273386D01*
X140446144Y-102249500D01*
X140353856Y-102249500D01*
X140264712Y-102273386D01*
X140264711Y-102273386D01*
X140264709Y-102273387D01*
X140264706Y-102273388D01*
X140184794Y-102319526D01*
X140184785Y-102319533D01*
X140119533Y-102384785D01*
X140119526Y-102384794D01*
X140073388Y-102464706D01*
X140073387Y-102464709D01*
X140073386Y-102464711D01*
X140073386Y-102464712D01*
X140049500Y-102553856D01*
X134299537Y-102553856D01*
X134285212Y-102539531D01*
X134285209Y-102539529D01*
X134285205Y-102539526D01*
X134205293Y-102493388D01*
X134205290Y-102493387D01*
X134205289Y-102493386D01*
X134205288Y-102493386D01*
X134116144Y-102469500D01*
X134023856Y-102469500D01*
X133934712Y-102493386D01*
X133934711Y-102493386D01*
X133934709Y-102493387D01*
X133934706Y-102493388D01*
X133854794Y-102539526D01*
X133854785Y-102539533D01*
X133789533Y-102604785D01*
X133789526Y-102604794D01*
X133743388Y-102684706D01*
X133743387Y-102684709D01*
X133743386Y-102684711D01*
X133743386Y-102684712D01*
X133719500Y-102773856D01*
X133719500Y-102866144D01*
X133742103Y-102950500D01*
X133743387Y-102955290D01*
X133743388Y-102955293D01*
X133789526Y-103035205D01*
X133789529Y-103035209D01*
X133789531Y-103035212D01*
X133854788Y-103100469D01*
X133854791Y-103100470D01*
X133854794Y-103100473D01*
X133941751Y-103150679D01*
X133941061Y-103151873D01*
X133988752Y-103190296D01*
X134010824Y-103256588D01*
X133993551Y-103324289D01*
X133942419Y-103371905D01*
X133918997Y-103380802D01*
X133834707Y-103403387D01*
X133834706Y-103403388D01*
X133754794Y-103449526D01*
X133754785Y-103449533D01*
X133689533Y-103514785D01*
X133689526Y-103514794D01*
X133643388Y-103594706D01*
X133643387Y-103594709D01*
X133643386Y-103594711D01*
X133643386Y-103594712D01*
X133619500Y-103683856D01*
X129429226Y-103683856D01*
X129399344Y-103060968D01*
X129338188Y-103019526D01*
X127450000Y-101740000D01*
X126172836Y-101722856D01*
X126106066Y-101702273D01*
X126061024Y-101648860D01*
X126050500Y-101598867D01*
X126050500Y-95504000D01*
X126070185Y-95436961D01*
X126122989Y-95391206D01*
X126174500Y-95380000D01*
X127915255Y-95380000D01*
X127982294Y-95399685D01*
X128028049Y-95452489D01*
X128037993Y-95521647D01*
X128025789Y-95556904D01*
X128026498Y-95557198D01*
X128023387Y-95564709D01*
X128023386Y-95564711D01*
X128023386Y-95564712D01*
X127999500Y-95653856D01*
X127999500Y-95746144D01*
X128021835Y-95829500D01*
X128023387Y-95835290D01*
X128023388Y-95835293D01*
X128046620Y-95875531D01*
X128050825Y-95892863D01*
X128059742Y-95908312D01*
X128063089Y-95943413D01*
X128063094Y-95943431D01*
X128063093Y-95943447D01*
X128056589Y-96079647D01*
X128040118Y-96135731D01*
X128023386Y-96164711D01*
X128023386Y-96164712D01*
X127999500Y-96253856D01*
X127999500Y-96346144D01*
X128012898Y-96396144D01*
X128023386Y-96435287D01*
X128026497Y-96442798D01*
X128023624Y-96443987D01*
X128036631Y-96497597D01*
X128036630Y-96497612D01*
X128010090Y-97053396D01*
X128009482Y-97066144D01*
X128009455Y-97066702D01*
X127999500Y-97103856D01*
X127999500Y-97196144D01*
X128002702Y-97208096D01*
X128001780Y-97227419D01*
X127919999Y-98940000D01*
X127920000Y-98939999D01*
X127920000Y-98940000D01*
X129348778Y-98930346D01*
X129415949Y-98949577D01*
X129436531Y-98965903D01*
X129943288Y-99463922D01*
X129977305Y-99524951D01*
X129980370Y-99551470D01*
X129982410Y-99835099D01*
X129982531Y-99851874D01*
X129979096Y-99864696D01*
X129979096Y-99956984D01*
X129983402Y-99973058D01*
X129983517Y-99988929D01*
X129987804Y-100584709D01*
X129990000Y-100890000D01*
X130354494Y-101127636D01*
X130364632Y-101134245D01*
X130410039Y-101187348D01*
X130411467Y-101190657D01*
X130413383Y-101195283D01*
X130459528Y-101275208D01*
X130459530Y-101275210D01*
X130459531Y-101275212D01*
X130524788Y-101340469D01*
X130524791Y-101340470D01*
X130524794Y-101340473D01*
X130604706Y-101386611D01*
X130604707Y-101386611D01*
X130604712Y-101386614D01*
X130693856Y-101410500D01*
X130693858Y-101410500D01*
X130751509Y-101410500D01*
X130818548Y-101430185D01*
X130819202Y-101430607D01*
X131095493Y-101610738D01*
X131095628Y-101610873D01*
X131096256Y-101611235D01*
X131721111Y-102018616D01*
X132030000Y-102220000D01*
X132029999Y-102220000D01*
X132038606Y-102220331D01*
X132095844Y-102236853D01*
X132164706Y-102276611D01*
X132164707Y-102276611D01*
X132164712Y-102276614D01*
X132253856Y-102300500D01*
X132253858Y-102300500D01*
X132346142Y-102300500D01*
X132346144Y-102300500D01*
X132435288Y-102276614D01*
X132501907Y-102238150D01*
X132550000Y-102240000D01*
X132571948Y-102173732D01*
X132580469Y-102165212D01*
X132626614Y-102085288D01*
X132650500Y-101996144D01*
X132650500Y-101956566D01*
X132650937Y-101953856D01*
X134599500Y-101953856D01*
X134599500Y-102046144D01*
X134621061Y-102126612D01*
X134623387Y-102135290D01*
X134623388Y-102135293D01*
X134669526Y-102215205D01*
X134669529Y-102215209D01*
X134669531Y-102215212D01*
X134734788Y-102280469D01*
X134734791Y-102280470D01*
X134734794Y-102280473D01*
X134814706Y-102326611D01*
X134814707Y-102326611D01*
X134814712Y-102326614D01*
X134903856Y-102350500D01*
X134903858Y-102350500D01*
X134996142Y-102350500D01*
X134996144Y-102350500D01*
X135085288Y-102326614D01*
X135165212Y-102280469D01*
X135230469Y-102215212D01*
X135276614Y-102135288D01*
X135300500Y-102046144D01*
X135300500Y-101963856D01*
X136639500Y-101963856D01*
X136639500Y-102056144D01*
X136658382Y-102126614D01*
X136663387Y-102145290D01*
X136663388Y-102145293D01*
X136709526Y-102225205D01*
X136709529Y-102225209D01*
X136709531Y-102225212D01*
X136774788Y-102290469D01*
X136774791Y-102290470D01*
X136774794Y-102290473D01*
X136854706Y-102336611D01*
X136854707Y-102336611D01*
X136854712Y-102336614D01*
X136943856Y-102360500D01*
X136943858Y-102360500D01*
X137036142Y-102360500D01*
X137036144Y-102360500D01*
X137125288Y-102336614D01*
X137205212Y-102290469D01*
X137270469Y-102225212D01*
X137316614Y-102145288D01*
X137340500Y-102056144D01*
X137340500Y-101963856D01*
X137316614Y-101874712D01*
X137270469Y-101794788D01*
X137229537Y-101753856D01*
X138449500Y-101753856D01*
X138449500Y-101846144D01*
X138465737Y-101906742D01*
X138473387Y-101935290D01*
X138473388Y-101935293D01*
X138519526Y-102015205D01*
X138519529Y-102015209D01*
X138519531Y-102015212D01*
X138584788Y-102080469D01*
X138584791Y-102080470D01*
X138584794Y-102080473D01*
X138664706Y-102126611D01*
X138664707Y-102126611D01*
X138664712Y-102126614D01*
X138753856Y-102150500D01*
X138753858Y-102150500D01*
X138846142Y-102150500D01*
X138846144Y-102150500D01*
X138935288Y-102126614D01*
X139015212Y-102080469D01*
X139080469Y-102015212D01*
X139126614Y-101935288D01*
X139150500Y-101846144D01*
X139150500Y-101753856D01*
X139126614Y-101664712D01*
X139123605Y-101659500D01*
X139080473Y-101584794D01*
X139080470Y-101584791D01*
X139080469Y-101584788D01*
X139015212Y-101519531D01*
X139015209Y-101519529D01*
X139015205Y-101519526D01*
X138935293Y-101473388D01*
X138935290Y-101473387D01*
X138935289Y-101473386D01*
X138935288Y-101473386D01*
X138846144Y-101449500D01*
X138753856Y-101449500D01*
X138664712Y-101473386D01*
X138664711Y-101473386D01*
X138664709Y-101473387D01*
X138664706Y-101473388D01*
X138584794Y-101519526D01*
X138584785Y-101519533D01*
X138519533Y-101584785D01*
X138519526Y-101584794D01*
X138473388Y-101664706D01*
X138473387Y-101664709D01*
X138473386Y-101664711D01*
X138473386Y-101664712D01*
X138449500Y-101753856D01*
X137229537Y-101753856D01*
X137205212Y-101729531D01*
X137205209Y-101729529D01*
X137205205Y-101729526D01*
X137125293Y-101683388D01*
X137125290Y-101683387D01*
X137125289Y-101683386D01*
X137125288Y-101683386D01*
X137036144Y-101659500D01*
X136943856Y-101659500D01*
X136854712Y-101683386D01*
X136854711Y-101683386D01*
X136854709Y-101683387D01*
X136854706Y-101683388D01*
X136774794Y-101729526D01*
X136774785Y-101729533D01*
X136709533Y-101794785D01*
X136709526Y-101794794D01*
X136663388Y-101874706D01*
X136663387Y-101874709D01*
X136663386Y-101874711D01*
X136663386Y-101874712D01*
X136639500Y-101963856D01*
X135300500Y-101963856D01*
X135300500Y-101953856D01*
X135276614Y-101864712D01*
X135276611Y-101864706D01*
X135230473Y-101784794D01*
X135230470Y-101784791D01*
X135230469Y-101784788D01*
X135165212Y-101719531D01*
X135165209Y-101719529D01*
X135165205Y-101719526D01*
X135085293Y-101673388D01*
X135085290Y-101673387D01*
X135085289Y-101673386D01*
X135085288Y-101673386D01*
X134996144Y-101649500D01*
X134903856Y-101649500D01*
X134814712Y-101673386D01*
X134814711Y-101673386D01*
X134814709Y-101673387D01*
X134814706Y-101673388D01*
X134734794Y-101719526D01*
X134734785Y-101719533D01*
X134669533Y-101784785D01*
X134669526Y-101784794D01*
X134623388Y-101864706D01*
X134623387Y-101864709D01*
X134623386Y-101864711D01*
X134623386Y-101864712D01*
X134599500Y-101953856D01*
X132650937Y-101953856D01*
X132650948Y-101953786D01*
X132650573Y-101952325D01*
X132656785Y-101917588D01*
X133051915Y-100724602D01*
X133087039Y-100673856D01*
X135019500Y-100673856D01*
X135019500Y-100766144D01*
X135043002Y-100853856D01*
X135043387Y-100855290D01*
X135043388Y-100855293D01*
X135089526Y-100935205D01*
X135089529Y-100935209D01*
X135089531Y-100935212D01*
X135154788Y-101000469D01*
X135154791Y-101000470D01*
X135154794Y-101000473D01*
X135234706Y-101046611D01*
X135234707Y-101046611D01*
X135234712Y-101046614D01*
X135323856Y-101070500D01*
X135323858Y-101070500D01*
X135416142Y-101070500D01*
X135416144Y-101070500D01*
X135505288Y-101046614D01*
X135585212Y-101000469D01*
X135650469Y-100935212D01*
X135696614Y-100855288D01*
X135707716Y-100813856D01*
X139229500Y-100813856D01*
X139229500Y-100906144D01*
X139237289Y-100935214D01*
X139253387Y-100995290D01*
X139253388Y-100995293D01*
X139299526Y-101075205D01*
X139299529Y-101075209D01*
X139299531Y-101075212D01*
X139364788Y-101140469D01*
X139364791Y-101140470D01*
X139364794Y-101140473D01*
X139444706Y-101186611D01*
X139444707Y-101186611D01*
X139444712Y-101186614D01*
X139533856Y-101210500D01*
X139533858Y-101210500D01*
X139626142Y-101210500D01*
X139626144Y-101210500D01*
X139715288Y-101186614D01*
X139795212Y-101140469D01*
X139860469Y-101075212D01*
X139906614Y-100995288D01*
X139930500Y-100906144D01*
X139930500Y-100813856D01*
X140279500Y-100813856D01*
X140279500Y-100906144D01*
X140287289Y-100935214D01*
X140303387Y-100995290D01*
X140303388Y-100995293D01*
X140349526Y-101075205D01*
X140349529Y-101075209D01*
X140349531Y-101075212D01*
X140414788Y-101140469D01*
X140414791Y-101140470D01*
X140414794Y-101140473D01*
X140494706Y-101186611D01*
X140494707Y-101186611D01*
X140494712Y-101186614D01*
X140583856Y-101210500D01*
X140583858Y-101210500D01*
X140676142Y-101210500D01*
X140676144Y-101210500D01*
X140765288Y-101186614D01*
X140845212Y-101140469D01*
X140910469Y-101075212D01*
X140956614Y-100995288D01*
X140980500Y-100906144D01*
X140980500Y-100813856D01*
X141329500Y-100813856D01*
X141329500Y-100906144D01*
X141337289Y-100935214D01*
X141353387Y-100995290D01*
X141353388Y-100995293D01*
X141399526Y-101075205D01*
X141399529Y-101075209D01*
X141399531Y-101075212D01*
X141464788Y-101140469D01*
X141464791Y-101140470D01*
X141464794Y-101140473D01*
X141544706Y-101186611D01*
X141544707Y-101186611D01*
X141544712Y-101186614D01*
X141633856Y-101210500D01*
X141633858Y-101210500D01*
X141726142Y-101210500D01*
X141726144Y-101210500D01*
X141815288Y-101186614D01*
X141895212Y-101140469D01*
X141960469Y-101075212D01*
X142006614Y-100995288D01*
X142030500Y-100906144D01*
X142030500Y-100813856D01*
X142379500Y-100813856D01*
X142379500Y-100906144D01*
X142387289Y-100935214D01*
X142403387Y-100995290D01*
X142403388Y-100995293D01*
X142449526Y-101075205D01*
X142449529Y-101075209D01*
X142449531Y-101075212D01*
X142514788Y-101140469D01*
X142514791Y-101140470D01*
X142514794Y-101140473D01*
X142594706Y-101186611D01*
X142594707Y-101186611D01*
X142594712Y-101186614D01*
X142683856Y-101210500D01*
X142683858Y-101210500D01*
X142776142Y-101210500D01*
X142776144Y-101210500D01*
X142865288Y-101186614D01*
X142945212Y-101140469D01*
X143010469Y-101075212D01*
X143056614Y-100995288D01*
X143080500Y-100906144D01*
X143080500Y-100813856D01*
X143056614Y-100724712D01*
X143056552Y-100724604D01*
X143010473Y-100644794D01*
X143010470Y-100644791D01*
X143010469Y-100644788D01*
X142945212Y-100579531D01*
X142945209Y-100579529D01*
X142945205Y-100579526D01*
X142865293Y-100533388D01*
X142865290Y-100533387D01*
X142865289Y-100533386D01*
X142865288Y-100533386D01*
X142776144Y-100509500D01*
X142683856Y-100509500D01*
X142594712Y-100533386D01*
X142594711Y-100533386D01*
X142594709Y-100533387D01*
X142594706Y-100533388D01*
X142514794Y-100579526D01*
X142514785Y-100579533D01*
X142449533Y-100644785D01*
X142449526Y-100644794D01*
X142403388Y-100724706D01*
X142403387Y-100724709D01*
X142403386Y-100724711D01*
X142403386Y-100724712D01*
X142379500Y-100813856D01*
X142030500Y-100813856D01*
X142006614Y-100724712D01*
X142006552Y-100724604D01*
X141960473Y-100644794D01*
X141960470Y-100644791D01*
X141960469Y-100644788D01*
X141895212Y-100579531D01*
X141895209Y-100579529D01*
X141895205Y-100579526D01*
X141815293Y-100533388D01*
X141815290Y-100533387D01*
X141815289Y-100533386D01*
X141815288Y-100533386D01*
X141726144Y-100509500D01*
X141633856Y-100509500D01*
X141544712Y-100533386D01*
X141544711Y-100533386D01*
X141544709Y-100533387D01*
X141544706Y-100533388D01*
X141464794Y-100579526D01*
X141464785Y-100579533D01*
X141399533Y-100644785D01*
X141399526Y-100644794D01*
X141353388Y-100724706D01*
X141353387Y-100724709D01*
X141353386Y-100724711D01*
X141353386Y-100724712D01*
X141329500Y-100813856D01*
X140980500Y-100813856D01*
X140956614Y-100724712D01*
X140956552Y-100724604D01*
X140910473Y-100644794D01*
X140910470Y-100644791D01*
X140910469Y-100644788D01*
X140845212Y-100579531D01*
X140845209Y-100579529D01*
X140845205Y-100579526D01*
X140765293Y-100533388D01*
X140765290Y-100533387D01*
X140765289Y-100533386D01*
X140765288Y-100533386D01*
X140676144Y-100509500D01*
X140583856Y-100509500D01*
X140494712Y-100533386D01*
X140494711Y-100533386D01*
X140494709Y-100533387D01*
X140494706Y-100533388D01*
X140414794Y-100579526D01*
X140414785Y-100579533D01*
X140349533Y-100644785D01*
X140349526Y-100644794D01*
X140303388Y-100724706D01*
X140303387Y-100724709D01*
X140303386Y-100724711D01*
X140303386Y-100724712D01*
X140279500Y-100813856D01*
X139930500Y-100813856D01*
X139906614Y-100724712D01*
X139906552Y-100724604D01*
X139860473Y-100644794D01*
X139860470Y-100644791D01*
X139860469Y-100644788D01*
X139795212Y-100579531D01*
X139795209Y-100579529D01*
X139795205Y-100579526D01*
X139715293Y-100533388D01*
X139715290Y-100533387D01*
X139715289Y-100533386D01*
X139715288Y-100533386D01*
X139626144Y-100509500D01*
X139533856Y-100509500D01*
X139444712Y-100533386D01*
X139444711Y-100533386D01*
X139444709Y-100533387D01*
X139444706Y-100533388D01*
X139364794Y-100579526D01*
X139364785Y-100579533D01*
X139299533Y-100644785D01*
X139299526Y-100644794D01*
X139253388Y-100724706D01*
X139253387Y-100724709D01*
X139253386Y-100724711D01*
X139253386Y-100724712D01*
X139229500Y-100813856D01*
X135707716Y-100813856D01*
X135720500Y-100766144D01*
X135720500Y-100673856D01*
X135719216Y-100669066D01*
X135719743Y-100654782D01*
X135727641Y-100631140D01*
X135731480Y-100606507D01*
X135738521Y-100598572D01*
X135741882Y-100588512D01*
X135761309Y-100572891D01*
X135777855Y-100554247D01*
X135788066Y-100551379D01*
X135796334Y-100544732D01*
X135821123Y-100542094D01*
X135845122Y-100535355D01*
X135862280Y-100537716D01*
X135865812Y-100537341D01*
X135868177Y-100538528D01*
X135875742Y-100539569D01*
X135953856Y-100560500D01*
X135953859Y-100560500D01*
X136046142Y-100560500D01*
X136046144Y-100560500D01*
X136135288Y-100536614D01*
X136215212Y-100490469D01*
X136280469Y-100425212D01*
X136326614Y-100345288D01*
X136350500Y-100256144D01*
X136350500Y-100163856D01*
X136326614Y-100074712D01*
X136326611Y-100074706D01*
X136326611Y-100074705D01*
X136308800Y-100043856D01*
X136669500Y-100043856D01*
X136669500Y-100136144D01*
X136690935Y-100216142D01*
X136693387Y-100225290D01*
X136693388Y-100225293D01*
X136739526Y-100305205D01*
X136739529Y-100305209D01*
X136739531Y-100305212D01*
X136804788Y-100370469D01*
X136804791Y-100370470D01*
X136804794Y-100370473D01*
X136884706Y-100416611D01*
X136884707Y-100416611D01*
X136884712Y-100416614D01*
X136973856Y-100440500D01*
X136973858Y-100440500D01*
X137066142Y-100440500D01*
X137066144Y-100440500D01*
X137155288Y-100416614D01*
X137235212Y-100370469D01*
X137300469Y-100305212D01*
X137346614Y-100225288D01*
X137370500Y-100136144D01*
X137370500Y-100043856D01*
X137346614Y-99954712D01*
X137341176Y-99945293D01*
X137300473Y-99874794D01*
X137300470Y-99874791D01*
X137300469Y-99874788D01*
X137235212Y-99809531D01*
X137235209Y-99809529D01*
X137235205Y-99809526D01*
X137156104Y-99763856D01*
X141329500Y-99763856D01*
X141329500Y-99856144D01*
X141350574Y-99934794D01*
X141353387Y-99945290D01*
X141353388Y-99945293D01*
X141399526Y-100025205D01*
X141399528Y-100025207D01*
X141399531Y-100025212D01*
X141464788Y-100090469D01*
X141464791Y-100090470D01*
X141464794Y-100090473D01*
X141544706Y-100136611D01*
X141544707Y-100136611D01*
X141544712Y-100136614D01*
X141633856Y-100160500D01*
X141633858Y-100160500D01*
X141726142Y-100160500D01*
X141726144Y-100160500D01*
X141815288Y-100136614D01*
X141895212Y-100090469D01*
X141960469Y-100025212D01*
X142006614Y-99945288D01*
X142030500Y-99856144D01*
X142030500Y-99763856D01*
X142379500Y-99763856D01*
X142379500Y-99856144D01*
X142400574Y-99934794D01*
X142403387Y-99945290D01*
X142403388Y-99945293D01*
X142449526Y-100025205D01*
X142449528Y-100025207D01*
X142449531Y-100025212D01*
X142514788Y-100090469D01*
X142514791Y-100090470D01*
X142514794Y-100090473D01*
X142594706Y-100136611D01*
X142594707Y-100136611D01*
X142594712Y-100136614D01*
X142683856Y-100160500D01*
X142683858Y-100160500D01*
X142776142Y-100160500D01*
X142776144Y-100160500D01*
X142865288Y-100136614D01*
X142922025Y-100103856D01*
X144149500Y-100103856D01*
X144149500Y-100196144D01*
X144171969Y-100280000D01*
X144173387Y-100285290D01*
X144173388Y-100285293D01*
X144219526Y-100365205D01*
X144219529Y-100365209D01*
X144219531Y-100365212D01*
X144284788Y-100430469D01*
X144284791Y-100430470D01*
X144284794Y-100430473D01*
X144364706Y-100476611D01*
X144364707Y-100476612D01*
X144364709Y-100476612D01*
X144364712Y-100476614D01*
X144452250Y-100500069D01*
X144511909Y-100536434D01*
X144539930Y-100587749D01*
X144541803Y-100594742D01*
X144563386Y-100675288D01*
X144563387Y-100675290D01*
X144563388Y-100675293D01*
X144609526Y-100755205D01*
X144609529Y-100755209D01*
X144609531Y-100755212D01*
X144674788Y-100820469D01*
X144674791Y-100820470D01*
X144674794Y-100820473D01*
X144754706Y-100866611D01*
X144754707Y-100866611D01*
X144754712Y-100866614D01*
X144843856Y-100890500D01*
X144843858Y-100890500D01*
X144936142Y-100890500D01*
X144936144Y-100890500D01*
X145025288Y-100866614D01*
X145105212Y-100820469D01*
X145170469Y-100755212D01*
X145216614Y-100675288D01*
X145233463Y-100612404D01*
X145269826Y-100552747D01*
X145332673Y-100522217D01*
X145353237Y-100520500D01*
X145386142Y-100520500D01*
X145386144Y-100520500D01*
X145475288Y-100496614D01*
X145555212Y-100450469D01*
X145620469Y-100385212D01*
X145666614Y-100305288D01*
X145690500Y-100216144D01*
X145690500Y-100123856D01*
X145666614Y-100034712D01*
X145666611Y-100034706D01*
X145620473Y-99954794D01*
X145620470Y-99954791D01*
X145620469Y-99954788D01*
X145555212Y-99889531D01*
X145555209Y-99889529D01*
X145555205Y-99889526D01*
X145475293Y-99843388D01*
X145475290Y-99843387D01*
X145475289Y-99843386D01*
X145475288Y-99843386D01*
X145386144Y-99819500D01*
X145293856Y-99819500D01*
X145204712Y-99843386D01*
X145204711Y-99843386D01*
X145204709Y-99843387D01*
X145204706Y-99843388D01*
X145124794Y-99889526D01*
X145124785Y-99889533D01*
X145059533Y-99954785D01*
X145059531Y-99954788D01*
X145033159Y-100000464D01*
X144982590Y-100048678D01*
X144913983Y-100061899D01*
X144849119Y-100035930D01*
X144818387Y-100000464D01*
X144780469Y-99934788D01*
X144715212Y-99869531D01*
X144715209Y-99869529D01*
X144715205Y-99869526D01*
X144635293Y-99823388D01*
X144635290Y-99823387D01*
X144635289Y-99823386D01*
X144635288Y-99823386D01*
X144546144Y-99799500D01*
X144453856Y-99799500D01*
X144364712Y-99823386D01*
X144364711Y-99823386D01*
X144364709Y-99823387D01*
X144364706Y-99823388D01*
X144284794Y-99869526D01*
X144284785Y-99869533D01*
X144219533Y-99934785D01*
X144219526Y-99934794D01*
X144173388Y-100014706D01*
X144173387Y-100014709D01*
X144173386Y-100014711D01*
X144173386Y-100014712D01*
X144149500Y-100103856D01*
X142922025Y-100103856D01*
X142945212Y-100090469D01*
X143010469Y-100025212D01*
X143056614Y-99945288D01*
X143080500Y-99856144D01*
X143080500Y-99763856D01*
X143056614Y-99674712D01*
X143056611Y-99674706D01*
X143010473Y-99594794D01*
X143010470Y-99594791D01*
X143010469Y-99594788D01*
X142945212Y-99529531D01*
X142945209Y-99529529D01*
X142945205Y-99529526D01*
X142865293Y-99483388D01*
X142865290Y-99483387D01*
X142865289Y-99483386D01*
X142865288Y-99483386D01*
X142776144Y-99459500D01*
X142683856Y-99459500D01*
X142594712Y-99483386D01*
X142594711Y-99483386D01*
X142594709Y-99483387D01*
X142594706Y-99483388D01*
X142514794Y-99529526D01*
X142514785Y-99529533D01*
X142449533Y-99594785D01*
X142449526Y-99594794D01*
X142403388Y-99674706D01*
X142403387Y-99674709D01*
X142403386Y-99674711D01*
X142403386Y-99674712D01*
X142379500Y-99763856D01*
X142030500Y-99763856D01*
X142006614Y-99674712D01*
X142006611Y-99674706D01*
X141960473Y-99594794D01*
X141960470Y-99594791D01*
X141960469Y-99594788D01*
X141895212Y-99529531D01*
X141895209Y-99529529D01*
X141895205Y-99529526D01*
X141815293Y-99483388D01*
X141815290Y-99483387D01*
X141815289Y-99483386D01*
X141815288Y-99483386D01*
X141726144Y-99459500D01*
X141633856Y-99459500D01*
X141544712Y-99483386D01*
X141544711Y-99483386D01*
X141544709Y-99483387D01*
X141544706Y-99483388D01*
X141464794Y-99529526D01*
X141464785Y-99529533D01*
X141399533Y-99594785D01*
X141399526Y-99594794D01*
X141353388Y-99674706D01*
X141353387Y-99674709D01*
X141353386Y-99674711D01*
X141353386Y-99674712D01*
X141329500Y-99763856D01*
X137156104Y-99763856D01*
X137155293Y-99763388D01*
X137155290Y-99763387D01*
X137155289Y-99763386D01*
X137155288Y-99763386D01*
X137066144Y-99739500D01*
X136973856Y-99739500D01*
X136884712Y-99763386D01*
X136884711Y-99763386D01*
X136884709Y-99763387D01*
X136884706Y-99763388D01*
X136804794Y-99809526D01*
X136804785Y-99809533D01*
X136739533Y-99874785D01*
X136739526Y-99874794D01*
X136693388Y-99954706D01*
X136693387Y-99954709D01*
X136693386Y-99954711D01*
X136693386Y-99954712D01*
X136669500Y-100043856D01*
X136308800Y-100043856D01*
X136280473Y-99994794D01*
X136280470Y-99994791D01*
X136280469Y-99994788D01*
X136215212Y-99929531D01*
X136215209Y-99929529D01*
X136215205Y-99929526D01*
X136135293Y-99883388D01*
X136135290Y-99883387D01*
X136135289Y-99883386D01*
X136135288Y-99883386D01*
X136046144Y-99859500D01*
X135953856Y-99859500D01*
X135864712Y-99883386D01*
X135864711Y-99883386D01*
X135864709Y-99883387D01*
X135864706Y-99883388D01*
X135784794Y-99929526D01*
X135784785Y-99929533D01*
X135719533Y-99994785D01*
X135719526Y-99994794D01*
X135673388Y-100074706D01*
X135673387Y-100074709D01*
X135673386Y-100074711D01*
X135673386Y-100074712D01*
X135652943Y-100151008D01*
X135649500Y-100163856D01*
X135649500Y-100264271D01*
X135647752Y-100264271D01*
X135638512Y-100323507D01*
X135592130Y-100375761D01*
X135524860Y-100394644D01*
X135494251Y-100390428D01*
X135416144Y-100369500D01*
X135323856Y-100369500D01*
X135234712Y-100393386D01*
X135234711Y-100393386D01*
X135234709Y-100393387D01*
X135234706Y-100393388D01*
X135154794Y-100439526D01*
X135154785Y-100439533D01*
X135089533Y-100504785D01*
X135089526Y-100504794D01*
X135043388Y-100584706D01*
X135043387Y-100584709D01*
X135043386Y-100584711D01*
X135043386Y-100584712D01*
X135019500Y-100673856D01*
X133087039Y-100673856D01*
X133091678Y-100667153D01*
X133123363Y-100648544D01*
X134006771Y-100293359D01*
X134076314Y-100286615D01*
X134115025Y-100301021D01*
X134124712Y-100306614D01*
X134213856Y-100330500D01*
X134213858Y-100330500D01*
X134306142Y-100330500D01*
X134306144Y-100330500D01*
X134395288Y-100306614D01*
X134475212Y-100260469D01*
X134540469Y-100195212D01*
X134554293Y-100171268D01*
X134568893Y-100151008D01*
X134813763Y-99874794D01*
X134821257Y-99866341D01*
X134843263Y-99844336D01*
X134847925Y-99836259D01*
X135351489Y-99268240D01*
X135410690Y-99231135D01*
X135444275Y-99226500D01*
X137151666Y-99226500D01*
X137151668Y-99226500D01*
X137232165Y-99204931D01*
X137304336Y-99163263D01*
X137533955Y-98933642D01*
X137544826Y-98926904D01*
X137550617Y-98919676D01*
X137574244Y-98908673D01*
X137582131Y-98903786D01*
X137585796Y-98902553D01*
X137645288Y-98886614D01*
X137662089Y-98876913D01*
X137673850Y-98872961D01*
X137691834Y-98872266D01*
X137713353Y-98866500D01*
X137932604Y-98866500D01*
X137955785Y-98869551D01*
X137955800Y-98869439D01*
X137963854Y-98870499D01*
X137963856Y-98870500D01*
X137963858Y-98870500D01*
X138056142Y-98870500D01*
X138056144Y-98870500D01*
X138145288Y-98846614D01*
X138162028Y-98836948D01*
X138223544Y-98820335D01*
X138310000Y-98820000D01*
X138306997Y-98744937D01*
X138310936Y-98728387D01*
X138310007Y-98713856D01*
X141329500Y-98713856D01*
X141329500Y-98806144D01*
X141347217Y-98872266D01*
X141353387Y-98895290D01*
X141353388Y-98895293D01*
X141399526Y-98975205D01*
X141399529Y-98975209D01*
X141399531Y-98975212D01*
X141464788Y-99040469D01*
X141464791Y-99040470D01*
X141464794Y-99040473D01*
X141544706Y-99086611D01*
X141544707Y-99086611D01*
X141544712Y-99086614D01*
X141633856Y-99110500D01*
X141633858Y-99110500D01*
X141726142Y-99110500D01*
X141726144Y-99110500D01*
X141815288Y-99086614D01*
X141895212Y-99040469D01*
X141960469Y-98975212D01*
X142006614Y-98895288D01*
X142030500Y-98806144D01*
X142030500Y-98713856D01*
X142379500Y-98713856D01*
X142379500Y-98806144D01*
X142397217Y-98872266D01*
X142403387Y-98895290D01*
X142403388Y-98895293D01*
X142449526Y-98975205D01*
X142449529Y-98975209D01*
X142449531Y-98975212D01*
X142514788Y-99040469D01*
X142514791Y-99040470D01*
X142514794Y-99040473D01*
X142594706Y-99086611D01*
X142594707Y-99086611D01*
X142594712Y-99086614D01*
X142683856Y-99110500D01*
X142683858Y-99110500D01*
X142776142Y-99110500D01*
X142776144Y-99110500D01*
X142800940Y-99103856D01*
X144149500Y-99103856D01*
X144149500Y-99196144D01*
X144168818Y-99268241D01*
X144173387Y-99285290D01*
X144173388Y-99285293D01*
X144219526Y-99365205D01*
X144219529Y-99365209D01*
X144219531Y-99365212D01*
X144284788Y-99430469D01*
X144284791Y-99430470D01*
X144284794Y-99430473D01*
X144364706Y-99476611D01*
X144364707Y-99476611D01*
X144364712Y-99476614D01*
X144453856Y-99500500D01*
X144453858Y-99500500D01*
X144546142Y-99500500D01*
X144546144Y-99500500D01*
X144635288Y-99476614D01*
X144715212Y-99430469D01*
X144780469Y-99365212D01*
X144826614Y-99285288D01*
X144850500Y-99196144D01*
X144850500Y-99103856D01*
X144826614Y-99014712D01*
X144826611Y-99014706D01*
X144820880Y-99004780D01*
X144804405Y-98936880D01*
X144827256Y-98870853D01*
X144840285Y-98855450D01*
X144840463Y-98855217D01*
X144840469Y-98855212D01*
X144886614Y-98775288D01*
X144910500Y-98686144D01*
X144910500Y-98593856D01*
X144886614Y-98504712D01*
X144872077Y-98479533D01*
X144849634Y-98440661D01*
X144833160Y-98372761D01*
X144849634Y-98316659D01*
X144896611Y-98235293D01*
X144896610Y-98235293D01*
X144896614Y-98235288D01*
X144920500Y-98146144D01*
X144920500Y-98053856D01*
X144896614Y-97964712D01*
X144891937Y-97956612D01*
X144861596Y-97904060D01*
X144855029Y-97876992D01*
X144845299Y-97850905D01*
X144846906Y-97843513D01*
X144845123Y-97836160D01*
X144854231Y-97809841D01*
X144860151Y-97782632D01*
X144866657Y-97773941D01*
X144867975Y-97770133D01*
X144881296Y-97754384D01*
X144910469Y-97725212D01*
X144910470Y-97725209D01*
X144913122Y-97722558D01*
X144974445Y-97689073D01*
X145044137Y-97694057D01*
X145093037Y-97730211D01*
X145093784Y-97729465D01*
X145098767Y-97734448D01*
X145099178Y-97734752D01*
X145099530Y-97735211D01*
X145099531Y-97735212D01*
X145164788Y-97800469D01*
X145164791Y-97800470D01*
X145164794Y-97800473D01*
X145244706Y-97846611D01*
X145244707Y-97846611D01*
X145244712Y-97846614D01*
X145333856Y-97870500D01*
X145333858Y-97870500D01*
X145426142Y-97870500D01*
X145426144Y-97870500D01*
X145515288Y-97846614D01*
X145595212Y-97800469D01*
X145660469Y-97735212D01*
X145706614Y-97655288D01*
X145730500Y-97566144D01*
X145730500Y-97473856D01*
X145706614Y-97384712D01*
X145706611Y-97384706D01*
X145660473Y-97304794D01*
X145660470Y-97304791D01*
X145660469Y-97304788D01*
X145595212Y-97239531D01*
X145595209Y-97239529D01*
X145595205Y-97239526D01*
X145515293Y-97193388D01*
X145515290Y-97193387D01*
X145515289Y-97193386D01*
X145515288Y-97193386D01*
X145426144Y-97169500D01*
X145333856Y-97169500D01*
X145244712Y-97193386D01*
X145244711Y-97193386D01*
X145244709Y-97193387D01*
X145244706Y-97193388D01*
X145164794Y-97239526D01*
X145164789Y-97239530D01*
X145096877Y-97307442D01*
X145035553Y-97340926D01*
X144965862Y-97335941D01*
X144916963Y-97299787D01*
X144916216Y-97300535D01*
X144911229Y-97295548D01*
X144910819Y-97295245D01*
X144910471Y-97294791D01*
X144910469Y-97294788D01*
X144845212Y-97229531D01*
X144845209Y-97229529D01*
X144845205Y-97229526D01*
X144765293Y-97183388D01*
X144765290Y-97183387D01*
X144765289Y-97183386D01*
X144765288Y-97183386D01*
X144676144Y-97159500D01*
X144583856Y-97159500D01*
X144494712Y-97183386D01*
X144494711Y-97183386D01*
X144494709Y-97183387D01*
X144494706Y-97183388D01*
X144414794Y-97229526D01*
X144414785Y-97229533D01*
X144349533Y-97294785D01*
X144349526Y-97294794D01*
X144303388Y-97374706D01*
X144303387Y-97374709D01*
X144303386Y-97374711D01*
X144303386Y-97374712D01*
X144279500Y-97463856D01*
X144279500Y-97556144D01*
X144303386Y-97645288D01*
X144321200Y-97676143D01*
X144338403Y-97705938D01*
X144354876Y-97773838D01*
X144332024Y-97839865D01*
X144318700Y-97855618D01*
X144289531Y-97884788D01*
X144289526Y-97884794D01*
X144243388Y-97964706D01*
X144243387Y-97964709D01*
X144243387Y-97964710D01*
X144243386Y-97964712D01*
X144225758Y-98030500D01*
X144219500Y-98053856D01*
X144219500Y-98146143D01*
X144243386Y-98235288D01*
X144280366Y-98299338D01*
X144296839Y-98367238D01*
X144280366Y-98423339D01*
X144233387Y-98504708D01*
X144233387Y-98504709D01*
X144233386Y-98504711D01*
X144233386Y-98504712D01*
X144209500Y-98593856D01*
X144209500Y-98686144D01*
X144216926Y-98713858D01*
X144233386Y-98775288D01*
X144239121Y-98785221D01*
X144255594Y-98853121D01*
X144232742Y-98919148D01*
X144219709Y-98934556D01*
X144219526Y-98934794D01*
X144173388Y-99014706D01*
X144173387Y-99014709D01*
X144173386Y-99014711D01*
X144173386Y-99014712D01*
X144149500Y-99103856D01*
X142800940Y-99103856D01*
X142865288Y-99086614D01*
X142945212Y-99040469D01*
X143010469Y-98975212D01*
X143056614Y-98895288D01*
X143080500Y-98806144D01*
X143080500Y-98713856D01*
X143056614Y-98624712D01*
X143056611Y-98624706D01*
X143010473Y-98544794D01*
X143010470Y-98544791D01*
X143010469Y-98544788D01*
X142945212Y-98479531D01*
X142945209Y-98479529D01*
X142945205Y-98479526D01*
X142865293Y-98433388D01*
X142865290Y-98433387D01*
X142865289Y-98433386D01*
X142865288Y-98433386D01*
X142776144Y-98409500D01*
X142683856Y-98409500D01*
X142594712Y-98433386D01*
X142594711Y-98433386D01*
X142594709Y-98433387D01*
X142594706Y-98433388D01*
X142514794Y-98479526D01*
X142514785Y-98479533D01*
X142449533Y-98544785D01*
X142449526Y-98544794D01*
X142403388Y-98624706D01*
X142403387Y-98624709D01*
X142403386Y-98624711D01*
X142403386Y-98624712D01*
X142379500Y-98713856D01*
X142030500Y-98713856D01*
X142006614Y-98624712D01*
X142006611Y-98624706D01*
X141960473Y-98544794D01*
X141960470Y-98544791D01*
X141960469Y-98544788D01*
X141895212Y-98479531D01*
X141895209Y-98479529D01*
X141895205Y-98479526D01*
X141815293Y-98433388D01*
X141815290Y-98433387D01*
X141815289Y-98433386D01*
X141815288Y-98433386D01*
X141726144Y-98409500D01*
X141633856Y-98409500D01*
X141544712Y-98433386D01*
X141544711Y-98433386D01*
X141544709Y-98433387D01*
X141544706Y-98433388D01*
X141464794Y-98479526D01*
X141464785Y-98479533D01*
X141399533Y-98544785D01*
X141399526Y-98544794D01*
X141353388Y-98624706D01*
X141353387Y-98624709D01*
X141353386Y-98624711D01*
X141353386Y-98624712D01*
X141329500Y-98713856D01*
X138310007Y-98713856D01*
X138309934Y-98712712D01*
X138322035Y-98681757D01*
X138322516Y-98679737D01*
X138322988Y-98678887D01*
X138336614Y-98655288D01*
X138360500Y-98566144D01*
X138360500Y-98473856D01*
X138336614Y-98384712D01*
X138304601Y-98329266D01*
X138288088Y-98272222D01*
X138283045Y-98146142D01*
X138260553Y-97583856D01*
X139159500Y-97583856D01*
X139159500Y-97676144D01*
X139175576Y-97736142D01*
X139183387Y-97765290D01*
X139183388Y-97765293D01*
X139229526Y-97845205D01*
X139229529Y-97845209D01*
X139229531Y-97845212D01*
X139294788Y-97910469D01*
X139294791Y-97910470D01*
X139294794Y-97910473D01*
X139374706Y-97956611D01*
X139374707Y-97956611D01*
X139374712Y-97956614D01*
X139463856Y-97980500D01*
X139463858Y-97980500D01*
X139556142Y-97980500D01*
X139556144Y-97980500D01*
X139645288Y-97956614D01*
X139725212Y-97910469D01*
X139790469Y-97845212D01*
X139836614Y-97765288D01*
X139860500Y-97676144D01*
X139860500Y-97633856D01*
X141449500Y-97633856D01*
X141449500Y-97726144D01*
X141471926Y-97809841D01*
X141473387Y-97815290D01*
X141473388Y-97815293D01*
X141519526Y-97895205D01*
X141519529Y-97895209D01*
X141519531Y-97895212D01*
X141584788Y-97960469D01*
X141584791Y-97960470D01*
X141584794Y-97960473D01*
X141664706Y-98006611D01*
X141664707Y-98006611D01*
X141664712Y-98006614D01*
X141753856Y-98030500D01*
X141753858Y-98030500D01*
X141846142Y-98030500D01*
X141846144Y-98030500D01*
X141935288Y-98006614D01*
X142015212Y-97960469D01*
X142080469Y-97895212D01*
X142126614Y-97815288D01*
X142150500Y-97726144D01*
X142150500Y-97643856D01*
X142369500Y-97643856D01*
X142369500Y-97736144D01*
X142382847Y-97785955D01*
X142382847Y-97785957D01*
X142393387Y-97825292D01*
X142393388Y-97825293D01*
X142439526Y-97905205D01*
X142439529Y-97905209D01*
X142439531Y-97905212D01*
X142504788Y-97970469D01*
X142504791Y-97970470D01*
X142504794Y-97970473D01*
X142584706Y-98016611D01*
X142584707Y-98016611D01*
X142584712Y-98016614D01*
X142673856Y-98040500D01*
X142673858Y-98040500D01*
X142766142Y-98040500D01*
X142766144Y-98040500D01*
X142855288Y-98016614D01*
X142935212Y-97970469D01*
X143000469Y-97905212D01*
X143046614Y-97825288D01*
X143070500Y-97736144D01*
X143070500Y-97643856D01*
X143046614Y-97554712D01*
X143046611Y-97554706D01*
X143000473Y-97474794D01*
X143000470Y-97474791D01*
X143000469Y-97474788D01*
X142935212Y-97409531D01*
X142935209Y-97409529D01*
X142935205Y-97409526D01*
X142855293Y-97363388D01*
X142855290Y-97363387D01*
X142855289Y-97363386D01*
X142855288Y-97363386D01*
X142766144Y-97339500D01*
X142673856Y-97339500D01*
X142584712Y-97363386D01*
X142584711Y-97363386D01*
X142584709Y-97363387D01*
X142584706Y-97363388D01*
X142504794Y-97409526D01*
X142504785Y-97409533D01*
X142439533Y-97474785D01*
X142439526Y-97474794D01*
X142393388Y-97554706D01*
X142393385Y-97554713D01*
X142385151Y-97585439D01*
X142385150Y-97585445D01*
X142369500Y-97643856D01*
X142150500Y-97643856D01*
X142150500Y-97633856D01*
X142126614Y-97544712D01*
X142126613Y-97544710D01*
X142126611Y-97544706D01*
X142080473Y-97464794D01*
X142080470Y-97464791D01*
X142080469Y-97464788D01*
X142015212Y-97399531D01*
X142015209Y-97399529D01*
X142015205Y-97399526D01*
X141935293Y-97353388D01*
X141935290Y-97353387D01*
X141935289Y-97353386D01*
X141935288Y-97353386D01*
X141846144Y-97329500D01*
X141753856Y-97329500D01*
X141664712Y-97353386D01*
X141664711Y-97353386D01*
X141664709Y-97353387D01*
X141664706Y-97353388D01*
X141584794Y-97399526D01*
X141584785Y-97399533D01*
X141519533Y-97464785D01*
X141519526Y-97464794D01*
X141473388Y-97544706D01*
X141473387Y-97544709D01*
X141473387Y-97544710D01*
X141473386Y-97544712D01*
X141449500Y-97633856D01*
X139860500Y-97633856D01*
X139860500Y-97583856D01*
X139836614Y-97494712D01*
X139836611Y-97494706D01*
X139790473Y-97414794D01*
X139790470Y-97414791D01*
X139790469Y-97414788D01*
X139725212Y-97349531D01*
X139725209Y-97349529D01*
X139725205Y-97349526D01*
X139645293Y-97303388D01*
X139645290Y-97303387D01*
X139645289Y-97303386D01*
X139645288Y-97303386D01*
X139556144Y-97279500D01*
X139463856Y-97279500D01*
X139374712Y-97303386D01*
X139374711Y-97303386D01*
X139374709Y-97303387D01*
X139374706Y-97303388D01*
X139294794Y-97349526D01*
X139294785Y-97349533D01*
X139229533Y-97414785D01*
X139229526Y-97414794D01*
X139183388Y-97494706D01*
X139183387Y-97494709D01*
X139183386Y-97494711D01*
X139183386Y-97494712D01*
X139159500Y-97583856D01*
X138260553Y-97583856D01*
X138248940Y-97293529D01*
X138265453Y-97226578D01*
X138306614Y-97155288D01*
X138330500Y-97066144D01*
X138330500Y-96973856D01*
X138306614Y-96884712D01*
X138269252Y-96820000D01*
X138260473Y-96804794D01*
X138260470Y-96804791D01*
X138260469Y-96804788D01*
X138195212Y-96739531D01*
X138195209Y-96739529D01*
X138195205Y-96739526D01*
X138115293Y-96693388D01*
X138115290Y-96693387D01*
X138115289Y-96693386D01*
X138115288Y-96693386D01*
X138026144Y-96669500D01*
X137933856Y-96669500D01*
X137844712Y-96693386D01*
X137844711Y-96693386D01*
X137844709Y-96693387D01*
X137844706Y-96693388D01*
X137764794Y-96739526D01*
X137764784Y-96739534D01*
X137727680Y-96776638D01*
X137666357Y-96810123D01*
X137596665Y-96805137D01*
X137552320Y-96776638D01*
X137515215Y-96739534D01*
X137515214Y-96739533D01*
X137515212Y-96739531D01*
X137515209Y-96739529D01*
X137515205Y-96739526D01*
X137435293Y-96693388D01*
X137435290Y-96693387D01*
X137435289Y-96693386D01*
X137435288Y-96693386D01*
X137346144Y-96669500D01*
X137253856Y-96669500D01*
X137164712Y-96693386D01*
X137164711Y-96693386D01*
X137164709Y-96693387D01*
X137164708Y-96693387D01*
X137110588Y-96724634D01*
X137042688Y-96741107D01*
X136976661Y-96718255D01*
X136954799Y-96698362D01*
X136394054Y-96050000D01*
X136283446Y-95922108D01*
X136275740Y-95913199D01*
X136230469Y-95834788D01*
X136165212Y-95769531D01*
X136137796Y-95753702D01*
X136100000Y-95710000D01*
X136099999Y-95710000D01*
X136051655Y-95710000D01*
X136019563Y-95705775D01*
X135996144Y-95699500D01*
X135903856Y-95699500D01*
X135880436Y-95705775D01*
X135848345Y-95710000D01*
X134785331Y-95710000D01*
X134746144Y-95699500D01*
X134653856Y-95699500D01*
X134614669Y-95710000D01*
X134220103Y-95710000D01*
X134153064Y-95690315D01*
X134107309Y-95637511D01*
X134097365Y-95568353D01*
X134112717Y-95523999D01*
X134146611Y-95465293D01*
X134146610Y-95465293D01*
X134146614Y-95465288D01*
X134163075Y-95403856D01*
X137849500Y-95403856D01*
X137849500Y-95496144D01*
X137870668Y-95575145D01*
X137873387Y-95585290D01*
X137873388Y-95585293D01*
X137919526Y-95665205D01*
X137919529Y-95665209D01*
X137919531Y-95665212D01*
X137984788Y-95730469D01*
X137984791Y-95730470D01*
X137984794Y-95730473D01*
X138064706Y-95776611D01*
X138064707Y-95776611D01*
X138064712Y-95776614D01*
X138153856Y-95800500D01*
X138153858Y-95800500D01*
X138246142Y-95800500D01*
X138246144Y-95800500D01*
X138335288Y-95776614D01*
X138415212Y-95730469D01*
X138480469Y-95665212D01*
X138526614Y-95585288D01*
X138550500Y-95496144D01*
X138550500Y-95403856D01*
X138526614Y-95314712D01*
X138526611Y-95314706D01*
X138491479Y-95253856D01*
X138999500Y-95253856D01*
X138999500Y-95346144D01*
X139014964Y-95403858D01*
X139023387Y-95435290D01*
X139023388Y-95435293D01*
X139069526Y-95515205D01*
X139069529Y-95515209D01*
X139069531Y-95515212D01*
X139134788Y-95580469D01*
X139134791Y-95580470D01*
X139134794Y-95580473D01*
X139214706Y-95626611D01*
X139214707Y-95626611D01*
X139214712Y-95626614D01*
X139303856Y-95650500D01*
X139303858Y-95650500D01*
X139396142Y-95650500D01*
X139396144Y-95650500D01*
X139485288Y-95626614D01*
X139565212Y-95580469D01*
X139630469Y-95515212D01*
X139676614Y-95435288D01*
X139700500Y-95346144D01*
X139700500Y-95253856D01*
X139676614Y-95164712D01*
X139676611Y-95164706D01*
X139630473Y-95084794D01*
X139630470Y-95084791D01*
X139630469Y-95084788D01*
X139565212Y-95019531D01*
X139565209Y-95019529D01*
X139565205Y-95019526D01*
X139490163Y-94976199D01*
X139490158Y-94976198D01*
X139485288Y-94973386D01*
X139396144Y-94949500D01*
X139303856Y-94949500D01*
X139214712Y-94973386D01*
X139214711Y-94973386D01*
X139214709Y-94973387D01*
X139214706Y-94973388D01*
X139134794Y-95019526D01*
X139134785Y-95019533D01*
X139069533Y-95084785D01*
X139069526Y-95084794D01*
X139023388Y-95164706D01*
X139023387Y-95164709D01*
X139023386Y-95164711D01*
X139023386Y-95164712D01*
X138999500Y-95253856D01*
X138491479Y-95253856D01*
X138480473Y-95234794D01*
X138480470Y-95234791D01*
X138480469Y-95234788D01*
X138415212Y-95169531D01*
X138415209Y-95169529D01*
X138415205Y-95169526D01*
X138335293Y-95123388D01*
X138335290Y-95123387D01*
X138335289Y-95123386D01*
X138335288Y-95123386D01*
X138246144Y-95099500D01*
X138153856Y-95099500D01*
X138064712Y-95123386D01*
X138064711Y-95123386D01*
X138064709Y-95123387D01*
X138064706Y-95123388D01*
X137984794Y-95169526D01*
X137984785Y-95169533D01*
X137919533Y-95234785D01*
X137919526Y-95234794D01*
X137873388Y-95314706D01*
X137873387Y-95314709D01*
X137873386Y-95314711D01*
X137873386Y-95314712D01*
X137849500Y-95403856D01*
X134163075Y-95403856D01*
X134170500Y-95376144D01*
X134170500Y-95283856D01*
X134146614Y-95194712D01*
X134146611Y-95194706D01*
X134100473Y-95114794D01*
X134100470Y-95114791D01*
X134100469Y-95114788D01*
X134035212Y-95049531D01*
X134035209Y-95049529D01*
X134035205Y-95049526D01*
X133955293Y-95003388D01*
X133955290Y-95003387D01*
X133955289Y-95003386D01*
X133955288Y-95003386D01*
X133866144Y-94979500D01*
X133773856Y-94979500D01*
X133773851Y-94979500D01*
X133767916Y-94981091D01*
X133698066Y-94979425D01*
X133640206Y-94940260D01*
X133612704Y-94876031D01*
X133611829Y-94861066D01*
X133613061Y-94289617D01*
X133632889Y-94222624D01*
X133685792Y-94176983D01*
X133738425Y-94165896D01*
X134110000Y-94170000D01*
X136876518Y-94160048D01*
X136903173Y-94162849D01*
X142006720Y-95266842D01*
X142068079Y-95300255D01*
X142101635Y-95361539D01*
X142104500Y-95388038D01*
X142104500Y-95565142D01*
X142104499Y-95565156D01*
X142104499Y-95664855D01*
X142119264Y-95700500D01*
X142119263Y-95700500D01*
X142138829Y-95747734D01*
X142138831Y-95747737D01*
X142139631Y-95748537D01*
X142140817Y-95750710D01*
X142145615Y-95757890D01*
X142144972Y-95758319D01*
X142153483Y-95773906D01*
X142169831Y-95797748D01*
X142171393Y-95806704D01*
X142173116Y-95809860D01*
X142175895Y-95832517D01*
X142176504Y-95852912D01*
X142158829Y-95920509D01*
X142107414Y-95967820D01*
X142063301Y-95980147D01*
X141602324Y-96020231D01*
X141559491Y-96016473D01*
X141533764Y-96009580D01*
X141496144Y-95999500D01*
X141403856Y-95999500D01*
X141326487Y-96020231D01*
X141314712Y-96023386D01*
X141293972Y-96035360D01*
X141293971Y-96035359D01*
X141270140Y-96049118D01*
X141260000Y-96050000D01*
X141259607Y-96055199D01*
X141234788Y-96069530D01*
X141169530Y-96134789D01*
X141169526Y-96134794D01*
X141123388Y-96214706D01*
X141123387Y-96214709D01*
X141123386Y-96214711D01*
X141123386Y-96214712D01*
X141099500Y-96303856D01*
X141099500Y-96396144D01*
X141116941Y-96461236D01*
X141123387Y-96485290D01*
X141123388Y-96485293D01*
X141169526Y-96565205D01*
X141169529Y-96565209D01*
X141169531Y-96565212D01*
X141234788Y-96630469D01*
X141234791Y-96630470D01*
X141234794Y-96630473D01*
X141314706Y-96676611D01*
X141314707Y-96676611D01*
X141314712Y-96676614D01*
X141403856Y-96700500D01*
X141403858Y-96700500D01*
X141496142Y-96700500D01*
X141496144Y-96700500D01*
X141585288Y-96676614D01*
X141585292Y-96676612D01*
X141632196Y-96649531D01*
X141637998Y-96646180D01*
X141705898Y-96629707D01*
X141762000Y-96646180D01*
X141767804Y-96649531D01*
X141814709Y-96676613D01*
X141814711Y-96676613D01*
X141814712Y-96676614D01*
X141903856Y-96700500D01*
X141903858Y-96700500D01*
X141996142Y-96700500D01*
X141996144Y-96700500D01*
X142085288Y-96676614D01*
X142165212Y-96630469D01*
X142184961Y-96610719D01*
X142246277Y-96577236D01*
X142271968Y-96574404D01*
X143100000Y-96570000D01*
X143100000Y-96569999D01*
X143100002Y-96569999D01*
X143757447Y-95970000D01*
X144130000Y-95630000D01*
X144807686Y-94419301D01*
X144857603Y-94370422D01*
X144863561Y-94367610D01*
X144865284Y-94366614D01*
X144865288Y-94366614D01*
X144945212Y-94320469D01*
X145010469Y-94255212D01*
X145056614Y-94175288D01*
X145080500Y-94086144D01*
X145080500Y-93993856D01*
X145056614Y-93904712D01*
X145041626Y-93878752D01*
X145025044Y-93813990D01*
X145067279Y-91921859D01*
X145088455Y-91855278D01*
X145142266Y-91810713D01*
X145191888Y-91800631D01*
X146873975Y-91809347D01*
G37*
%TD.AperFunction*%
%TD*%
%TA.AperFunction,Conductor*%
%TO.N,BAT+*%
G36*
X149026182Y-102913091D02*
G01*
X149331454Y-103065727D01*
X149382613Y-103113314D01*
X149400000Y-103176636D01*
X149400000Y-103748638D01*
X149380315Y-103815677D01*
X149363681Y-103836319D01*
X149136319Y-104063681D01*
X149074996Y-104097166D01*
X149048638Y-104100000D01*
X148900000Y-104100000D01*
X148854968Y-104345623D01*
X148840389Y-104385260D01*
X148823388Y-104414707D01*
X148823386Y-104414712D01*
X148799500Y-104503856D01*
X148799500Y-104596142D01*
X148800561Y-104604203D01*
X148798504Y-104604473D01*
X148800127Y-104644757D01*
X148483955Y-106369328D01*
X148452504Y-106431718D01*
X148449672Y-106434645D01*
X148439532Y-106444785D01*
X148439531Y-106444787D01*
X148393388Y-106524706D01*
X148393387Y-106524709D01*
X148369500Y-106613856D01*
X148369500Y-106706143D01*
X148393565Y-106795956D01*
X148395757Y-106850410D01*
X147842559Y-109867861D01*
X147811108Y-109930251D01*
X147750919Y-109965734D01*
X147720592Y-109969500D01*
X138064125Y-109969500D01*
X137997086Y-109949815D01*
X137964925Y-109919900D01*
X137477850Y-109270466D01*
X137428911Y-109205214D01*
X137368968Y-109125290D01*
X137302107Y-109036142D01*
X137290350Y-109020466D01*
X137241411Y-108955214D01*
X137232894Y-108943858D01*
X137200000Y-108900000D01*
X137147044Y-108900000D01*
X137124618Y-108893414D01*
X137101343Y-108891271D01*
X137088442Y-108882792D01*
X137080005Y-108880315D01*
X137070719Y-108873727D01*
X137064732Y-108869051D01*
X137015212Y-108819531D01*
X136961958Y-108788784D01*
X136935290Y-108773386D01*
X136875858Y-108757462D01*
X136846144Y-108749500D01*
X136753856Y-108749500D01*
X136664712Y-108773386D01*
X136664711Y-108773386D01*
X136664709Y-108773387D01*
X136664706Y-108773388D01*
X136584794Y-108819526D01*
X136584784Y-108819534D01*
X136540636Y-108863682D01*
X136479313Y-108897166D01*
X136452956Y-108900000D01*
X133930656Y-108900000D01*
X133863617Y-108880315D01*
X133823980Y-108839216D01*
X133747131Y-108709533D01*
X133737841Y-108693856D01*
X140069500Y-108693856D01*
X140069500Y-108786144D01*
X140090276Y-108863682D01*
X140093387Y-108875290D01*
X140093388Y-108875293D01*
X140139526Y-108955205D01*
X140139529Y-108955209D01*
X140139531Y-108955212D01*
X140204788Y-109020469D01*
X140204791Y-109020470D01*
X140204794Y-109020473D01*
X140284706Y-109066611D01*
X140284707Y-109066611D01*
X140284712Y-109066614D01*
X140373856Y-109090500D01*
X140373858Y-109090500D01*
X140466142Y-109090500D01*
X140466144Y-109090500D01*
X140555288Y-109066614D01*
X140635212Y-109020469D01*
X140700469Y-108955212D01*
X140707026Y-108943856D01*
X142389500Y-108943856D01*
X142389500Y-109036144D01*
X142410686Y-109115212D01*
X142413387Y-109125290D01*
X142413388Y-109125293D01*
X142459526Y-109205205D01*
X142459529Y-109205209D01*
X142459531Y-109205212D01*
X142524788Y-109270469D01*
X142524791Y-109270470D01*
X142524794Y-109270473D01*
X142604706Y-109316611D01*
X142604707Y-109316611D01*
X142604712Y-109316614D01*
X142693856Y-109340500D01*
X142693858Y-109340500D01*
X142786142Y-109340500D01*
X142786144Y-109340500D01*
X142875288Y-109316614D01*
X142955212Y-109270469D01*
X143020469Y-109205212D01*
X143066614Y-109125288D01*
X143090500Y-109036144D01*
X143090500Y-108943856D01*
X143066614Y-108854712D01*
X143066120Y-108853856D01*
X143020473Y-108774794D01*
X143020470Y-108774791D01*
X143020469Y-108774788D01*
X142955212Y-108709531D01*
X142955209Y-108709529D01*
X142955205Y-108709526D01*
X142875293Y-108663388D01*
X142875290Y-108663387D01*
X142875289Y-108663386D01*
X142875288Y-108663386D01*
X142786144Y-108639500D01*
X142693856Y-108639500D01*
X142604712Y-108663386D01*
X142604711Y-108663386D01*
X142604709Y-108663387D01*
X142604706Y-108663388D01*
X142524794Y-108709526D01*
X142524785Y-108709533D01*
X142459533Y-108774785D01*
X142459526Y-108774794D01*
X142413388Y-108854706D01*
X142413387Y-108854709D01*
X142413386Y-108854711D01*
X142413386Y-108854712D01*
X142389500Y-108943856D01*
X140707026Y-108943856D01*
X140741129Y-108884788D01*
X140746612Y-108875292D01*
X140746612Y-108875291D01*
X140746614Y-108875288D01*
X140770500Y-108786144D01*
X140770500Y-108693856D01*
X140746614Y-108604712D01*
X140728529Y-108573388D01*
X140700473Y-108524794D01*
X140700470Y-108524791D01*
X140700469Y-108524788D01*
X140635212Y-108459531D01*
X140635209Y-108459529D01*
X140635205Y-108459526D01*
X140555293Y-108413388D01*
X140555290Y-108413387D01*
X140555289Y-108413386D01*
X140555288Y-108413386D01*
X140466144Y-108389500D01*
X140373856Y-108389500D01*
X140284712Y-108413386D01*
X140284711Y-108413386D01*
X140284709Y-108413387D01*
X140284706Y-108413388D01*
X140204794Y-108459526D01*
X140204785Y-108459533D01*
X140139533Y-108524785D01*
X140139526Y-108524794D01*
X140093388Y-108604706D01*
X140093387Y-108604709D01*
X140093386Y-108604711D01*
X140093386Y-108604712D01*
X140069500Y-108693856D01*
X133737841Y-108693856D01*
X133655572Y-108555028D01*
X133642475Y-108523908D01*
X133626614Y-108464710D01*
X133580473Y-108384794D01*
X133580470Y-108384791D01*
X133580469Y-108384788D01*
X133515212Y-108319531D01*
X133515209Y-108319529D01*
X133515205Y-108319526D01*
X133435293Y-108273388D01*
X133435290Y-108273387D01*
X133435289Y-108273386D01*
X133435288Y-108273386D01*
X133346144Y-108249500D01*
X133253856Y-108249500D01*
X133164712Y-108273386D01*
X133164711Y-108273386D01*
X133164709Y-108273387D01*
X133164706Y-108273388D01*
X133084787Y-108319531D01*
X133084785Y-108319532D01*
X133067175Y-108337142D01*
X133018708Y-108367096D01*
X132450967Y-108556343D01*
X132381143Y-108558868D01*
X132379664Y-108558481D01*
X132346147Y-108549500D01*
X132346144Y-108549500D01*
X132253856Y-108549500D01*
X132164712Y-108573386D01*
X132164711Y-108573386D01*
X132164709Y-108573387D01*
X132164706Y-108573388D01*
X132084794Y-108619526D01*
X132084789Y-108619530D01*
X132019530Y-108684788D01*
X132019529Y-108684790D01*
X131987645Y-108740013D01*
X131950745Y-108780029D01*
X131591094Y-109028516D01*
X131524749Y-109050429D01*
X131522211Y-109050488D01*
X129317741Y-109078994D01*
X129250453Y-109060178D01*
X129205229Y-109010458D01*
X129145636Y-108891271D01*
X129137647Y-108875293D01*
X129136864Y-108873727D01*
X129127355Y-108854709D01*
X129093072Y-108786143D01*
X129090015Y-108780029D01*
X129086694Y-108773387D01*
X129070007Y-108740013D01*
X129031694Y-108663387D01*
X129002355Y-108604709D01*
X128986694Y-108573387D01*
X128979241Y-108558481D01*
X128978172Y-108556343D01*
X128962393Y-108524785D01*
X128950000Y-108499999D01*
X128929767Y-108459533D01*
X128906694Y-108413387D01*
X128892393Y-108384785D01*
X128859766Y-108319531D01*
X128813091Y-108226182D01*
X128800000Y-108170728D01*
X128800000Y-107724000D01*
X128819685Y-107656961D01*
X128872489Y-107611206D01*
X128924000Y-107600000D01*
X130281421Y-107600000D01*
X130348460Y-107619685D01*
X130388807Y-107661999D01*
X130419526Y-107715205D01*
X130419529Y-107715209D01*
X130419531Y-107715212D01*
X130484788Y-107780469D01*
X130484791Y-107780470D01*
X130484794Y-107780473D01*
X130564706Y-107826611D01*
X130564707Y-107826611D01*
X130564712Y-107826614D01*
X130653856Y-107850500D01*
X130653858Y-107850500D01*
X130746142Y-107850500D01*
X130746144Y-107850500D01*
X130835288Y-107826614D01*
X130835290Y-107826613D01*
X130835294Y-107826611D01*
X130842802Y-107823502D01*
X130843211Y-107824490D01*
X130897291Y-107810000D01*
X130900000Y-107810000D01*
X131373394Y-107355170D01*
X131435370Y-107322921D01*
X131460758Y-107320599D01*
X131739673Y-107323893D01*
X131770284Y-107328107D01*
X131853856Y-107350500D01*
X131853859Y-107350500D01*
X131946143Y-107350500D01*
X131946144Y-107350500D01*
X132016047Y-107331769D01*
X132049592Y-107327554D01*
X133638245Y-107346317D01*
X133653856Y-107350500D01*
X133746144Y-107350500D01*
X133756540Y-107347714D01*
X133949643Y-107349995D01*
X133949998Y-107350104D01*
X133950000Y-107350000D01*
X135251679Y-107369142D01*
X135253066Y-107369572D01*
X135254475Y-107369215D01*
X135286348Y-107379878D01*
X135318421Y-107389811D01*
X135319800Y-107391070D01*
X135320734Y-107391383D01*
X135346528Y-107415474D01*
X135447160Y-107540751D01*
X135470261Y-107586310D01*
X135483384Y-107635283D01*
X135483385Y-107635285D01*
X135483386Y-107635288D01*
X135488827Y-107644712D01*
X135529528Y-107715208D01*
X135529530Y-107715210D01*
X135529531Y-107715212D01*
X135594788Y-107780469D01*
X135658464Y-107817233D01*
X135693135Y-107846964D01*
X135800000Y-107980000D01*
X137000000Y-108000000D01*
X138198069Y-108000000D01*
X138260069Y-108016612D01*
X138294712Y-108036614D01*
X138383856Y-108060500D01*
X138383858Y-108060500D01*
X138476142Y-108060500D01*
X138476144Y-108060500D01*
X138565288Y-108036614D01*
X138599930Y-108016612D01*
X138661931Y-108000000D01*
X141502957Y-108000000D01*
X141569996Y-108019685D01*
X141590638Y-108036319D01*
X141614788Y-108060469D01*
X141614791Y-108060470D01*
X141614794Y-108060473D01*
X141694706Y-108106611D01*
X141694707Y-108106611D01*
X141694712Y-108106614D01*
X141783856Y-108130500D01*
X141783858Y-108130500D01*
X141876142Y-108130500D01*
X141876144Y-108130500D01*
X141965288Y-108106614D01*
X142045212Y-108060469D01*
X142069362Y-108036319D01*
X142130685Y-108002834D01*
X142157043Y-108000000D01*
X143976976Y-108000000D01*
X144021489Y-108008265D01*
X145300000Y-108500000D01*
X146999999Y-108500000D01*
X147000000Y-108500000D01*
X148000000Y-104000000D01*
X148000000Y-103024000D01*
X148019685Y-102956961D01*
X148072489Y-102911206D01*
X148124000Y-102900000D01*
X148970728Y-102900000D01*
X149026182Y-102913091D01*
G37*
%TD.AperFunction*%
%TD*%
M02*
