M48
; DRILL file {KiCad 8.0.5} date 2024-11-08T04:09:29+0100
; FORMAT={-:-/ absolute / inch / decimal}
; #@! TF.CreationDate,2024-11-08T04:09:29+01:00
; #@! TF.GenerationSoftware,Kicad,Pcbnew,8.0.5
; #@! TF.FileFunction,Plated,1,6,PTH
FMAT,2
INCH
; #@! TA.AperFunction,Plated,PTH,ViaDrill
T1C0.0118
; #@! TA.AperFunction,Plated,PTH,ComponentDrill
T2C0.0197
; #@! TA.AperFunction,Plated,PTH,ComponentDrill
T3C0.0236
; #@! TA.AperFunction,Plated,PTH,ComponentDrill
T4C0.0394
%
G90
G05
T1
X4.9732Y-4.2528
X4.9744Y-4.3173
X4.9787Y-3.6622
X4.9787Y-4.0252
X4.9819Y-3.7724
X4.9874Y-3.8102
X4.9945Y-3.676
X4.9953Y-3.6209
X4.998Y-4.0839
X4.9996Y-4.0252
X5.0024Y-3.7724
X5.0216Y-3.6713
X5.0307Y-4.315
X5.0374Y-3.6965
X5.039Y-4.1744
X5.0433Y-3.9346
X5.0512Y-4.2461
X5.0551Y-4.2791
X5.0618Y-3.9346
X5.0673Y-3.6925
X5.0799Y-4.102
X5.0839Y-4.011
X5.0839Y-4.0555
X5.0843Y-3.976
X5.0874Y-4.2788
X5.0996Y-3.8264
X5.1083Y-3.8941
X5.1102Y-3.6925
X5.111Y-3.7258
X5.1193Y-3.9744
X5.1213Y-4.102
X5.122Y-4.0098
X5.1224Y-4.0539
X5.1232Y-4.215
X5.1236Y-4.2366
X5.1252Y-3.7642
X5.1299Y-3.8669
X5.1311Y-4.1441
X5.1614Y-4.0717
X5.1634Y-4.0087
X5.1638Y-3.8917
X5.165Y-3.7598
X5.1661Y-3.7972
X5.1685Y-3.598
X5.1693Y-3.6244
X5.1811Y-3.824
X5.1961Y-3.6732
X5.1992Y-4.0709
X5.2008Y-3.7835
X5.2071Y-4.2972
X5.2079Y-4.3138
X5.2126Y-3.6177
X5.215Y-3.9732
X5.2264Y-3.9992
X5.2299Y-3.95
X5.2315Y-3.8252
X5.239Y-4.2307
X5.2476Y-3.7012
X5.248Y-4.0307
X5.2496Y-4.1602
X5.25Y-4.1972
X5.2504Y-3.7669
X5.2504Y-3.9087
X5.2512Y-3.7244
X5.2516Y-4.1047
X5.2587Y-4.2307
X5.2622Y-3.6307
X5.265Y-3.6779
X5.2669Y-3.6024
X5.2713Y-4.0858
X5.274Y-3.9476
X5.2795Y-4.1976
X5.2811Y-4.1598
X5.2866Y-3.7677
X5.2933Y-3.9472
X5.2957Y-3.8358
X5.2961Y-3.8134
X5.2969Y-3.9239
X5.2977Y-3.9041
X5.2979Y-3.971
X5.2984Y-3.884
X5.2997Y-3.9906
X5.3071Y-3.6929
X5.3224Y-3.785
X5.3295Y-4.0642
X5.335Y-3.7657
X5.3433Y-3.6862
X5.3484Y-4.0835
X5.3516Y-4.1429
X5.3551Y-4.1691
X5.3575Y-4.261
X5.3594Y-3.8409
X5.3594Y-4.0157
X5.3602Y-3.9567
X5.3681Y-3.7071
X5.374Y-3.7348
X5.3748Y-4.1686
X5.3839Y-3.6685
X5.3933Y-4.0819
X5.3945Y-4.1693
X5.3945Y-4.189
X5.3976Y-3.7272
X5.398Y-4.2406
X5.4071Y-3.6862
X5.4079Y-3.9039
X5.4106Y-3.815
X5.4114Y-4.1268
X5.4134Y-4.3173
X5.4146Y-4.0827
X5.4156Y-3.7488
X5.4165Y-4.011
X5.4291Y-3.6831
X5.435Y-4.1079
X5.437Y-4.0827
X5.4437Y-4.2122
X5.4437Y-4.2323
X5.4437Y-4.2524
X5.4437Y-4.2724
X5.4437Y-4.2925
X5.4437Y-4.3126
X5.4441Y-3.861
X5.4449Y-3.9047
X5.4452Y-3.7476
X5.4469Y-3.8146
X5.4579Y-3.672
X5.461Y-4.1949
X5.4669Y-3.6394
X5.4685Y-3.6055
X5.4697Y-3.7248
X5.4697Y-4.0823
X5.4815Y-3.7512
X5.4831Y-4.1953
X5.487Y-3.8138
X5.4874Y-3.7028
X5.5032Y-3.7536
X5.5154Y-3.7083
X5.5173Y-3.8614
X5.5343Y-4.0126
X5.5382Y-4.1937
X5.5429Y-3.7513
X5.5489Y-4.0902
X5.5521Y-4.0691
X5.5567Y-4.0122
X5.5571Y-3.8622
X5.5571Y-3.9744
X5.5583Y-4.1937
X5.57Y-3.7361
X5.5724Y-3.7556
X5.5783Y-4.1937
X5.5882Y-4.1246
X5.5972Y-3.6882
X5.5976Y-3.7512
X5.598Y-3.6051
X5.5984Y-4.1937
X5.6016Y-4.0516
X5.6185Y-3.8252
X5.6185Y-4.1937
X5.6189Y-3.8433
X5.626Y-3.7469
X5.626Y-4.1264
X5.6299Y-4.052
X5.6319Y-3.9295
X5.6346Y-3.9531
X5.6362Y-3.9862
X5.6386Y-4.1937
X5.6472Y-3.6047
X5.6587Y-4.1937
X5.6661Y-4.1047
X5.6661Y-4.1248
X5.6677Y-3.735
X5.6709Y-3.976
X5.6787Y-4.1937
X5.6894Y-3.8512
X5.6961Y-3.6059
X5.698Y-3.7024
X5.6988Y-4.1937
X5.7053Y-4.1494
X5.7114Y-3.7776
X5.7189Y-4.1937
X5.7205Y-4.1343
X5.7343Y-3.8024
X5.739Y-4.1937
X5.7591Y-4.1937
X5.7791Y-4.1937
X5.7898Y-3.7071
X5.7969Y-3.9921
X5.7976Y-3.6024
X5.798Y-3.9303
X5.7992Y-4.1937
X5.8142Y-4.05
X5.8154Y-3.8776
X5.8193Y-4.1937
X5.839Y-4.0154
X5.8394Y-4.1937
X5.8496Y-3.7228
X5.852Y-3.602
X5.8563Y-3.8677
X5.8567Y-4.0591
X5.8579Y-3.7693
X5.8594Y-4.1937
X5.8697Y-4.1551
X5.8713Y-4.0268
X5.8795Y-4.1937
X5.898Y-4.1114
X5.8996Y-4.1937
X5.9024Y-3.6524
X5.9028Y-3.7555
X5.9028Y-4.0654
X5.9185Y-4.028
X5.9197Y-4.1937
X5.9217Y-3.8339
X5.9224Y-3.8693
X5.9289Y-3.9138
X5.9289Y-3.9886
X5.9398Y-4.1937
X5.9445Y-3.715
X5.9457Y-3.7472
X5.9512Y-4.063
X5.9598Y-4.1937
X5.9614Y-3.8713
X5.9622Y-3.8331
X5.9701Y-4.028
X5.9705Y-3.95
X5.9744Y-4.0878
X5.9799Y-4.1937
T2
X5.002Y-4.2894
X5.0035Y-4.2098
T4
X5.5492Y-3.66
X5.6492Y-3.66
X5.7492Y-3.66
X5.8492Y-3.66
T3
G00X5.8116Y-3.7933
M15
G01X5.7683Y-3.7933
M16
G05
G00X5.8116Y-4.1335
M15
G01X5.7683Y-4.1335
M16
G05
G00X5.9703Y-3.7933
M15
G01X5.9388Y-3.7933
M16
G05
G00X5.9703Y-4.1335
M15
G01X5.9388Y-4.1335
M16
G05
M30
