%TF.GenerationSoftware,KiCad,Pcbnew,8.0.0*%
%TF.CreationDate,2024-03-12T22:02:49+01:00*%
%TF.ProjectId,projet s6,70726f6a-6574-4207-9336-2e6b69636164,rev?*%
%TF.SameCoordinates,Original*%
%TF.FileFunction,Soldermask,Top*%
%TF.FilePolarity,Negative*%
%FSLAX46Y46*%
G04 Gerber Fmt 4.6, Leading zero omitted, Abs format (unit mm)*
G04 Created by KiCad (PCBNEW 8.0.0) date 2024-03-12 22:02:49*
%MOMM*%
%LPD*%
G01*
G04 APERTURE LIST*
G04 Aperture macros list*
%AMRoundRect*
0 Rectangle with rounded corners*
0 $1 Rounding radius*
0 $2 $3 $4 $5 $6 $7 $8 $9 X,Y pos of 4 corners*
0 Add a 4 corners polygon primitive as box body*
4,1,4,$2,$3,$4,$5,$6,$7,$8,$9,$2,$3,0*
0 Add four circle primitives for the rounded corners*
1,1,$1+$1,$2,$3*
1,1,$1+$1,$4,$5*
1,1,$1+$1,$6,$7*
1,1,$1+$1,$8,$9*
0 Add four rect primitives between the rounded corners*
20,1,$1+$1,$2,$3,$4,$5,0*
20,1,$1+$1,$4,$5,$6,$7,0*
20,1,$1+$1,$6,$7,$8,$9,0*
20,1,$1+$1,$8,$9,$2,$3,0*%
%AMRotRect*
0 Rectangle, with rotation*
0 The origin of the aperture is its center*
0 $1 length*
0 $2 width*
0 $3 Rotation angle, in degrees counterclockwise*
0 Add horizontal line*
21,1,$1,$2,0,0,$3*%
%AMOutline4P*
0 Free polygon, 4 corners , with rotation*
0 The origin of the aperture is its center*
0 number of corners: always 4*
0 $1 to $8 corner X, Y*
0 $9 Rotation angle, in degrees counterclockwise*
0 create outline with 4 corners*
4,1,4,$1,$2,$3,$4,$5,$6,$7,$8,$1,$2,$9*%
%AMOutline5P*
0 Free polygon, 5 corners , with rotation*
0 The origin of the aperture is its center*
0 number of corners: always 5*
0 $1 to $10 corner X, Y*
0 $11 Rotation angle, in degrees counterclockwise*
0 create outline with 5 corners*
4,1,5,$1,$2,$3,$4,$5,$6,$7,$8,$9,$10,$1,$2,$11*%
%AMOutline6P*
0 Free polygon, 6 corners , with rotation*
0 The origin of the aperture is its center*
0 number of corners: always 6*
0 $1 to $12 corner X, Y*
0 $13 Rotation angle, in degrees counterclockwise*
0 create outline with 6 corners*
4,1,6,$1,$2,$3,$4,$5,$6,$7,$8,$9,$10,$11,$12,$1,$2,$13*%
%AMOutline7P*
0 Free polygon, 7 corners , with rotation*
0 The origin of the aperture is its center*
0 number of corners: always 7*
0 $1 to $14 corner X, Y*
0 $15 Rotation angle, in degrees counterclockwise*
0 create outline with 7 corners*
4,1,7,$1,$2,$3,$4,$5,$6,$7,$8,$9,$10,$11,$12,$13,$14,$1,$2,$15*%
%AMOutline8P*
0 Free polygon, 8 corners , with rotation*
0 The origin of the aperture is its center*
0 number of corners: always 8*
0 $1 to $16 corner X, Y*
0 $17 Rotation angle, in degrees counterclockwise*
0 create outline with 8 corners*
4,1,8,$1,$2,$3,$4,$5,$6,$7,$8,$9,$10,$11,$12,$13,$14,$15,$16,$1,$2,$17*%
G04 Aperture macros list end*
%ADD10R,0.325000X0.250000*%
%ADD11R,0.250000X0.325000*%
%ADD12Outline5P,-0.207500X0.150000X0.057500X0.150000X0.207500X0.000000X0.207500X-0.150000X-0.207500X-0.150000X180.000000*%
%ADD13Outline5P,-0.207500X0.150000X0.207500X0.150000X0.207500X0.000000X0.057500X-0.150000X-0.207500X-0.150000X180.000000*%
%ADD14RotRect,0.500000X0.500000X225.000000*%
%ADD15Outline5P,-0.207500X0.150000X0.207500X0.150000X0.207500X-0.150000X-0.057500X-0.150000X-0.207500X0.000000X180.000000*%
%ADD16Outline5P,-0.207500X0.000000X-0.057500X0.150000X0.207500X0.150000X0.207500X-0.150000X-0.207500X-0.150000X180.000000*%
%ADD17RoundRect,0.075000X-0.212500X-0.075000X0.212500X-0.075000X0.212500X0.075000X-0.212500X0.075000X0*%
%ADD18R,1.700000X1.700000*%
%ADD19O,1.700000X1.700000*%
%ADD20RoundRect,0.075000X0.212500X0.075000X-0.212500X0.075000X-0.212500X-0.075000X0.212500X-0.075000X0*%
%ADD21RoundRect,0.075000X0.075000X-0.212500X0.075000X0.212500X-0.075000X0.212500X-0.075000X-0.212500X0*%
%ADD22RoundRect,0.062500X-0.375000X-0.062500X0.375000X-0.062500X0.375000X0.062500X-0.375000X0.062500X0*%
%ADD23RoundRect,0.062500X-0.062500X-0.375000X0.062500X-0.375000X0.062500X0.375000X-0.062500X0.375000X0*%
%ADD24R,3.450000X3.450000*%
%ADD25C,1.000000*%
%ADD26RoundRect,0.075000X-0.075000X0.212500X-0.075000X-0.212500X0.075000X-0.212500X0.075000X0.212500X0*%
%ADD27RoundRect,0.100000X0.100000X-0.217500X0.100000X0.217500X-0.100000X0.217500X-0.100000X-0.217500X0*%
%ADD28R,0.250000X0.799999*%
%ADD29R,1.420000X0.610000*%
%ADD30Outline5P,-0.650000X0.750000X0.650000X0.750000X0.650000X-0.750000X0.000000X-0.750000X-0.650000X-0.100000X90.000000*%
%ADD31R,1.100000X3.600000*%
%ADD32RoundRect,0.250000X-0.475000X0.337500X-0.475000X-0.337500X0.475000X-0.337500X0.475000X0.337500X0*%
%ADD33R,0.500000X0.350000*%
%ADD34R,0.340000X0.330000*%
%ADD35Outline4P,-0.450000X-0.220000X0.450000X-0.220000X0.450000X0.220000X-0.450000X0.220000X90.000000*%
%ADD36R,1.500000X0.550000*%
%ADD37R,1.650000X1.050000*%
%ADD38C,1.600000*%
%ADD39C,0.650000*%
G04 APERTURE END LIST*
D10*
%TO.C,IC1*%
X199257000Y-80630000D03*
X199257000Y-81130000D03*
X199257000Y-81630000D03*
X199257000Y-82130000D03*
D11*
X199770000Y-82643000D03*
X200270000Y-82643000D03*
X200770000Y-82643000D03*
X201270000Y-82643000D03*
D10*
X201783000Y-82130000D03*
X201783000Y-81630000D03*
X201783000Y-81130000D03*
X201783000Y-80630000D03*
D11*
X201270000Y-80117000D03*
X200770000Y-80117000D03*
X200270000Y-80117000D03*
X199770000Y-80117000D03*
%TD*%
D12*
%TO.C,U3*%
X194752500Y-79875000D03*
D13*
X194752500Y-80585000D03*
D14*
X194360000Y-80230000D03*
D15*
X193967500Y-80585000D03*
D16*
X193967500Y-79875000D03*
%TD*%
D17*
%TO.C,C14*%
X193932500Y-81260000D03*
X194607500Y-81260000D03*
%TD*%
D18*
%TO.C,J2*%
X196150000Y-67250000D03*
D19*
X198690000Y-67250000D03*
X201230000Y-67250000D03*
X203770000Y-67250000D03*
%TD*%
D20*
%TO.C,R9*%
X197487500Y-80030000D03*
X196812500Y-80030000D03*
%TD*%
D21*
%TO.C,R1*%
X176440000Y-78037500D03*
X176440000Y-77362500D03*
%TD*%
D22*
%TO.C,U1*%
X195512500Y-72180000D03*
X195512500Y-72680000D03*
X195512500Y-73180000D03*
X195512500Y-73680000D03*
X195512500Y-74180000D03*
X195512500Y-74680000D03*
X195512500Y-75180000D03*
X195512500Y-75680000D03*
D23*
X196200000Y-76367500D03*
X196700000Y-76367500D03*
X197200000Y-76367500D03*
X197700000Y-76367500D03*
X198200000Y-76367500D03*
X198700000Y-76367500D03*
X199200000Y-76367500D03*
X199700000Y-76367500D03*
D22*
X200387500Y-75680000D03*
X200387500Y-75180000D03*
X200387500Y-74680000D03*
X200387500Y-74180000D03*
X200387500Y-73680000D03*
X200387500Y-73180000D03*
X200387500Y-72680000D03*
X200387500Y-72180000D03*
D23*
X199700000Y-71492500D03*
X199200000Y-71492500D03*
X198700000Y-71492500D03*
X198200000Y-71492500D03*
X197700000Y-71492500D03*
X197200000Y-71492500D03*
X196700000Y-71492500D03*
X196200000Y-71492500D03*
D24*
X197950000Y-73930000D03*
%TD*%
D25*
%TO.C,TP5*%
X174910000Y-82900000D03*
%TD*%
%TO.C,TP9*%
X206550000Y-74140000D03*
%TD*%
D20*
%TO.C,C3*%
X202267500Y-75680000D03*
X201592500Y-75680000D03*
%TD*%
%TO.C,R4*%
X177877500Y-73420000D03*
X177202500Y-73420000D03*
%TD*%
%TO.C,R7*%
X193697500Y-76730000D03*
X193022500Y-76730000D03*
%TD*%
D26*
%TO.C,C15*%
X195420000Y-80002500D03*
X195420000Y-80677500D03*
%TD*%
D25*
%TO.C,TP11*%
X206570000Y-72030000D03*
%TD*%
%TO.C,TP7*%
X206570000Y-76240000D03*
%TD*%
D20*
%TO.C,R8*%
X201447500Y-78530000D03*
X200772500Y-78530000D03*
%TD*%
D27*
%TO.C,D1*%
X175110000Y-72737500D03*
X175110000Y-71922500D03*
%TD*%
D17*
%TO.C,C1*%
X174862500Y-77410000D03*
X175537500Y-77410000D03*
%TD*%
%TO.C,R6*%
X193042500Y-75880000D03*
X193717500Y-75880000D03*
%TD*%
D25*
%TO.C,TP8*%
X206590000Y-67840000D03*
%TD*%
D17*
%TO.C,C9*%
X182962500Y-71290000D03*
X183637500Y-71290000D03*
%TD*%
D21*
%TO.C,C10*%
X180670000Y-71527500D03*
X180670000Y-70852500D03*
%TD*%
D20*
%TO.C,C12*%
X197497500Y-81940000D03*
X196822500Y-81940000D03*
%TD*%
%TO.C,R5*%
X177877500Y-76440000D03*
X177202500Y-76440000D03*
%TD*%
D28*
%TO.C,U2*%
X175620000Y-74179998D03*
X175120001Y-74179998D03*
X174620002Y-74179998D03*
X174620002Y-76080000D03*
X175120001Y-76080000D03*
X175620000Y-76080000D03*
D29*
X175120001Y-75129999D03*
%TD*%
D26*
%TO.C,R10*%
X185750000Y-67445000D03*
X185750000Y-68120000D03*
%TD*%
D20*
%TO.C,R2*%
X175525000Y-78130000D03*
X174850000Y-78130000D03*
%TD*%
D25*
%TO.C,TP1*%
X177040000Y-82950000D03*
%TD*%
D21*
%TO.C,R3*%
X175910000Y-72707500D03*
X175910000Y-72032500D03*
%TD*%
D30*
%TO.C,BT1*%
X174705000Y-66039012D03*
D31*
X178495000Y-67189012D03*
%TD*%
D17*
%TO.C,R11*%
X192575000Y-67450000D03*
X193250000Y-67450000D03*
%TD*%
D25*
%TO.C,TP10*%
X206610000Y-69910000D03*
%TD*%
D32*
%TO.C,C13*%
X204970000Y-80512500D03*
X204970000Y-82587500D03*
%TD*%
D20*
%TO.C,C4*%
X202257500Y-76350000D03*
X201582500Y-76350000D03*
%TD*%
D26*
%TO.C,R14*%
X185610000Y-76255000D03*
X185610000Y-76930000D03*
%TD*%
D17*
%TO.C,C2*%
X193342500Y-74470000D03*
X194017500Y-74470000D03*
%TD*%
D20*
%TO.C,C6*%
X195907500Y-70410000D03*
X195232500Y-70410000D03*
%TD*%
D33*
%TO.C,Q1*%
X184810000Y-76255000D03*
X184810000Y-76905000D03*
D34*
X183730000Y-76580000D03*
D35*
X184120000Y-76580000D03*
%TD*%
D17*
%TO.C,C5*%
X193332500Y-75180000D03*
X194007500Y-75180000D03*
%TD*%
%TO.C,C7*%
X193072500Y-73760000D03*
X193747500Y-73760000D03*
%TD*%
D36*
%TO.C,SW5*%
X193420000Y-69835000D03*
X193420000Y-73085000D03*
%TD*%
D17*
%TO.C,C8*%
X183002500Y-70470000D03*
X183677500Y-70470000D03*
%TD*%
D26*
%TO.C,C11*%
X203520000Y-81992500D03*
X203520000Y-82667500D03*
%TD*%
D37*
%TO.C,SW1*%
X187300000Y-65990000D03*
X191150000Y-65990000D03*
%TD*%
D38*
%TO.C,PA1010D1*%
X186490000Y-73850000D03*
%TD*%
D25*
%TO.C,SW6*%
X188615000Y-82417500D03*
X185615000Y-82417500D03*
%TD*%
D37*
%TO.C,SW2*%
X180450000Y-65940000D03*
X184300000Y-65940000D03*
%TD*%
D39*
%TO.C,J1*%
X178345000Y-78045000D03*
X178345000Y-72265000D03*
%TD*%
M02*
