%TF.GenerationSoftware,KiCad,Pcbnew,8.0.0*%
%TF.CreationDate,2024-03-12T22:02:49+01:00*%
%TF.ProjectId,projet s6,70726f6a-6574-4207-9336-2e6b69636164,rev?*%
%TF.SameCoordinates,Original*%
%TF.FileFunction,Legend,Top*%
%TF.FilePolarity,Positive*%
%FSLAX46Y46*%
G04 Gerber Fmt 4.6, Leading zero omitted, Abs format (unit mm)*
G04 Created by KiCad (PCBNEW 8.0.0) date 2024-03-12 22:02:49*
%MOMM*%
%LPD*%
G01*
G04 APERTURE LIST*
%ADD10C,0.100000*%
%ADD11C,0.120000*%
%ADD12C,0.152400*%
%ADD13C,0.050000*%
G04 APERTURE END LIST*
D10*
%TO.C,IC1*%
X198620000Y-80630000D02*
X198620000Y-80630000D01*
X198720000Y-80630000D02*
X198720000Y-80630000D01*
X198620000Y-80630000D02*
G75*
G02*
X198720000Y-80630000I50000J0D01*
G01*
X198720000Y-80630000D02*
G75*
G02*
X198620000Y-80630000I-50000J0D01*
G01*
D11*
%TO.C,J2*%
X194820000Y-65920000D02*
X196150000Y-65920000D01*
X194820000Y-67250000D02*
X194820000Y-65920000D01*
X197420000Y-65920000D02*
X205100000Y-65920000D01*
X197420000Y-68580000D02*
X197420000Y-65920000D01*
X197420000Y-68580000D02*
X205100000Y-68580000D01*
X205100000Y-68580000D02*
X205100000Y-65920000D01*
%TO.C,U1*%
X195340000Y-71795000D02*
X195340000Y-71560000D01*
X195340000Y-76540000D02*
X195340000Y-76065000D01*
X195815000Y-71320000D02*
X195640000Y-71320000D01*
X195815000Y-76540000D02*
X195340000Y-76540000D01*
X200085000Y-71320000D02*
X200560000Y-71320000D01*
X200085000Y-76540000D02*
X200560000Y-76540000D01*
X200560000Y-71320000D02*
X200560000Y-71795000D01*
X200560000Y-76540000D02*
X200560000Y-76065000D01*
X195340000Y-71320000D02*
X195100000Y-70990000D01*
X195580000Y-70990000D01*
X195340000Y-71320000D01*
G36*
X195340000Y-71320000D02*
G01*
X195100000Y-70990000D01*
X195580000Y-70990000D01*
X195340000Y-71320000D01*
G37*
%TO.C,TP5*%
X175610000Y-82900000D02*
G75*
G02*
X174210000Y-82900000I-700000J0D01*
G01*
X174210000Y-82900000D02*
G75*
G02*
X175610000Y-82900000I700000J0D01*
G01*
%TO.C,TP9*%
X207250000Y-74140000D02*
G75*
G02*
X205850000Y-74140000I-700000J0D01*
G01*
X205850000Y-74140000D02*
G75*
G02*
X207250000Y-74140000I700000J0D01*
G01*
%TO.C,TP11*%
X207270000Y-72030000D02*
G75*
G02*
X205870000Y-72030000I-700000J0D01*
G01*
X205870000Y-72030000D02*
G75*
G02*
X207270000Y-72030000I700000J0D01*
G01*
%TO.C,TP7*%
X207270000Y-76240000D02*
G75*
G02*
X205870000Y-76240000I-700000J0D01*
G01*
X205870000Y-76240000D02*
G75*
G02*
X207270000Y-76240000I700000J0D01*
G01*
D10*
%TO.C,D1*%
X175160000Y-73365000D02*
G75*
G02*
X175060000Y-73365000I-50000J0D01*
G01*
X175060000Y-73365000D02*
G75*
G02*
X175160000Y-73365000I50000J0D01*
G01*
D11*
%TO.C,TP8*%
X207290000Y-67840000D02*
G75*
G02*
X205890000Y-67840000I-700000J0D01*
G01*
X205890000Y-67840000D02*
G75*
G02*
X207290000Y-67840000I700000J0D01*
G01*
D12*
%TO.C,U2*%
X173943001Y-73952999D02*
X173943001Y-76306999D01*
X176297001Y-76306999D02*
X176297001Y-73952999D01*
D11*
%TO.C,TP1*%
X177740000Y-82950000D02*
G75*
G02*
X176340000Y-82950000I-700000J0D01*
G01*
X176340000Y-82950000D02*
G75*
G02*
X177740000Y-82950000I700000J0D01*
G01*
D10*
%TO.C,BT1*%
X175541338Y-65681516D02*
G75*
G02*
X177844999Y-65789013I1053662J-2157496D01*
G01*
X178634999Y-69109012D02*
G75*
G02*
X174439698Y-66776388I-2039999J1270000D01*
G01*
D11*
%TO.C,TP10*%
X207310000Y-69910000D02*
G75*
G02*
X205910000Y-69910000I-700000J0D01*
G01*
X205910000Y-69910000D02*
G75*
G02*
X207310000Y-69910000I700000J0D01*
G01*
%TO.C,C13*%
X204235000Y-81288748D02*
X204235000Y-81811252D01*
X205705000Y-81288748D02*
X205705000Y-81811252D01*
%TO.C,Q1*%
D13*
X183500000Y-77140000D02*
X185120000Y-77140000D01*
X185120000Y-76020000D01*
X183500000Y-76020000D01*
X183500000Y-77140000D01*
%TO.C,SW5*%
D10*
X194080000Y-70200000D02*
X192720000Y-70200000D01*
X192720000Y-72720000D01*
X194080000Y-72720000D01*
X194080000Y-70200000D01*
%TD*%
M02*
