M48
; DRILL file {KiCad 9.0.0} date 2025-06-12T14:50:29+0200
; FORMAT={-:-/ absolute / metric / decimal}
; #@! TF.CreationDate,2025-06-12T14:50:29+02:00
; #@! TF.GenerationSoftware,Kicad,Pcbnew,9.0.0
; #@! TF.FileFunction,Plated,1,6,PTH
FMAT,2
METRIC
; #@! TA.AperFunction,Plated,PTH,ViaDrill
T1C0.300
; #@! TA.AperFunction,Plated,PTH,ComponentDrill
T2C1.000
%
G90
G05
T1
X126.3Y-102.2
X126.36Y-91.56
X126.36Y-93.24
X126.42Y-105.37
X126.49Y-106.01
X126.55Y-95.8
X126.61Y-107.54
X126.9Y-102.2
X126.95Y-103.73
X127.12Y-105.73
X127.15Y-95.8
X127.43Y-109.59
X127.45Y-108.99
X127.52Y-108.41
X127.67Y-93.82
X127.67Y-105.34
X128.35Y-95.7
X128.35Y-96.3
X128.35Y-97.15
X128.35Y-97.95
X128.35Y-98.55
X128.58Y-105.33
X128.68Y-103.36
X128.8Y-93.3
X128.8Y-94.0
X129.15Y-95.7
X129.15Y-98.55
X129.2Y-107.0
X129.2Y-108.0
X129.5Y-106.4
X129.58Y-109.5
X129.9Y-108.0
X129.95Y-95.7
X129.95Y-98.55
X130.0Y-107.0
X130.06Y-91.88
X130.33Y-99.911
X130.381Y-100.54
X130.55Y-95.95
X130.55Y-98.3
X130.6Y-99.34
X130.6Y-106.1
X130.61Y-104.33
X130.7Y-107.5
X130.74Y-101.06
X131.1Y-109.7
X131.12Y-98.981
X131.15Y-96.05
X131.2Y-98.1
X131.3Y-93.3
X131.3Y-94.0
X131.311Y-101.33
X131.44Y-105.57
X131.749Y-98.93
X131.85Y-96.05
X131.9Y-98.1
X131.9Y-107.0
X131.94Y-101.279
X132.25Y-102.6
X132.3Y-101.95
X132.3Y-108.9
X132.32Y-99.2
X132.46Y-100.92
X132.5Y-95.5
X132.6Y-98.1
X132.679Y-99.72
X132.73Y-100.349
X132.8Y-105.3
X133.08Y-94.81
X133.15Y-96.05
X133.23Y-91.6
X133.3Y-98.1
X133.3Y-102.45
X133.3Y-108.6
X133.3Y-109.1
X133.7Y-107.0
X133.82Y-95.33
X133.95Y-96.05
X133.97Y-103.73
X134.0Y-98.1
X134.07Y-102.82
X134.26Y-99.98
X134.35Y-101.4
X134.38Y-94.71
X134.4Y-105.6
X134.58Y-99.59
X134.7Y-96.05
X134.7Y-98.1
X134.95Y-102.0
X135.2Y-109.7
X135.25Y-103.75
X135.3Y-105.7
X135.37Y-100.72
X135.4Y-93.2
X135.4Y-98.1
X135.79Y-99.55
X135.81Y-107.5
X135.84Y-103.59
X135.95Y-96.05
X136.0Y-100.21
X136.15Y-97.63
X136.2Y-109.7
X136.31Y-99.56
X136.35Y-103.3
X136.35Y-104.1
X136.58Y-105.94
X136.59Y-91.75
X136.68Y-107.53
X136.8Y-109.1
X136.99Y-102.01
X137.015Y-106.4
X137.02Y-100.09
X137.09Y-105.89
X137.3Y-97.02
X137.49Y-98.03
X137.51Y-98.56
X137.595Y-105.825
X137.6Y-107.52
X137.8Y-93.2
X137.9Y-102.05
X137.98Y-97.02
X138.01Y-98.52
X138.1Y-104.4
X138.1Y-105.2
X138.15Y-103.8
X138.2Y-95.45
X138.25Y-103.15
X138.43Y-107.71
X138.55Y-109.69
X138.57Y-108.71
X138.57Y-109.19
X138.6Y-96.55
X138.8Y-101.8
X139.35Y-95.3
X139.51Y-97.63
X139.52Y-91.55
X139.58Y-100.86
X139.69Y-93.49
X140.4Y-102.6
X140.42Y-91.54
X140.42Y-108.74
X140.63Y-100.86
X140.8Y-95.7
X141.29Y-94.24
X141.45Y-96.35
X141.6Y-95.65
X141.68Y-98.76
X141.68Y-99.81
X141.68Y-100.86
X141.8Y-97.68
X141.83Y-107.78
X141.95Y-96.35
X142.6Y-106.23
X142.66Y-95.96
X142.72Y-97.69
X142.73Y-98.76
X142.73Y-99.81
X142.73Y-100.86
X142.74Y-108.99
X142.75Y-95.35
X142.9Y-94.25
X143.21Y-95.94
X143.3Y-105.3
X143.71Y-95.52
X143.9Y-104.19
X144.46Y-107.79
X144.49Y-106.72
X144.5Y-99.15
X144.5Y-100.15
X144.56Y-98.64
X144.57Y-98.1
X144.6Y-103.2
X144.63Y-97.51
X144.65Y-95.63
X144.68Y-91.59
X144.73Y-94.04
X144.89Y-100.54
X144.95Y-99.65
X145.07Y-107.21
X145.08Y-107.77
X145.34Y-100.17
X145.38Y-97.52
X145.4Y-104.7
X145.4Y-106.1
X145.87Y-107.29
X146.1Y-104.1
X146.1Y-107.9
X146.15Y-96.18
X146.29Y-96.93
X146.5Y-100.4
X146.5Y-100.9
X147.06Y-94.16
X147.26Y-91.5
X147.44Y-97.03
X148.33Y-97.68
X148.64Y-91.49
X148.72Y-106.66
X148.78Y-102.17
X148.8Y-103.2
X148.8Y-103.8
X149.15Y-104.55
X149.3Y-106.1
X149.3Y-106.8
X149.46Y-109.5
X149.78Y-107.6
X150.4Y-104.55
X150.65Y-99.65
X150.65Y-101.0
X151.05Y-103.15
X151.05Y-103.95
X151.58Y-97.7
X151.6Y-100.3
X151.76Y-91.55
X151.93Y-107.34
X151.96Y-109.66
T2
X140.95Y-92.965
X143.49Y-92.965
X146.03Y-92.965
X148.57Y-92.965
M30
