%TF.GenerationSoftware,KiCad,Pcbnew,9.0.0*%
%TF.CreationDate,2025-06-12T14:50:32+02:00*%
%TF.ProjectId,hardware v4 pro max,68617264-7761-4726-9520-76342070726f,rev?*%
%TF.SameCoordinates,Original*%
%TF.FileFunction,Copper,L5,Inr*%
%TF.FilePolarity,Positive*%
%FSLAX46Y46*%
G04 Gerber Fmt 4.6, Leading zero omitted, Abs format (unit mm)*
G04 Created by KiCad (PCBNEW 9.0.0) date 2025-06-12 14:50:32*
%MOMM*%
%LPD*%
G01*
G04 APERTURE LIST*
%TA.AperFunction,ComponentPad*%
%ADD10R,1.700000X1.700000*%
%TD*%
%TA.AperFunction,ComponentPad*%
%ADD11O,1.700000X1.700000*%
%TD*%
%TA.AperFunction,ViaPad*%
%ADD12C,0.400000*%
%TD*%
%TA.AperFunction,Conductor*%
%ADD13C,0.300000*%
%TD*%
G04 APERTURE END LIST*
D10*
%TO.N,GND*%
%TO.C,J3*%
X148570000Y-92965000D03*
D11*
%TO.N,+3.3V*%
X146030000Y-92965000D03*
%TO.N,OLED_SCL*%
X143490000Y-92965000D03*
%TO.N,OLED_SDA*%
X140950000Y-92965000D03*
%TD*%
D12*
%TO.N,Net-(BT1-+)*%
X126950000Y-103730000D03*
%TO.N,GND*%
X135400000Y-98100000D03*
X131310840Y-101330404D03*
X138430000Y-107710000D03*
X137800000Y-93200000D03*
X146150000Y-96180000D03*
X130060000Y-91880000D03*
X130550000Y-95950000D03*
X128800000Y-93300000D03*
X141830000Y-107780000D03*
X129950000Y-98550000D03*
X143900000Y-104190000D03*
X129950000Y-95700000D03*
X129150000Y-95700000D03*
X136200000Y-109700000D03*
X134400000Y-105600000D03*
X137300000Y-97020000D03*
X147060000Y-94160000D03*
X128350000Y-97950000D03*
X131100000Y-109700000D03*
X135300000Y-105700000D03*
X126420000Y-105370000D03*
X138200000Y-95450000D03*
X126900000Y-102200000D03*
X139350000Y-95300000D03*
X145070000Y-107210000D03*
X127670000Y-93820000D03*
X136680000Y-107530000D03*
X151580000Y-97700000D03*
X131300000Y-93300000D03*
X133950000Y-96050000D03*
X131850000Y-96050000D03*
X130600000Y-106100000D03*
X145380000Y-97520000D03*
X138100000Y-104400000D03*
X134000000Y-98100000D03*
X142900000Y-94250000D03*
X146290000Y-96930000D03*
X133300000Y-98100000D03*
X141680000Y-99810000D03*
X131200000Y-98100000D03*
X130550000Y-98300000D03*
X135810000Y-107500000D03*
X131940404Y-101279160D03*
X148720000Y-106660000D03*
X130600000Y-99340000D03*
X136150000Y-97630000D03*
X127520000Y-108410000D03*
X135200000Y-109700000D03*
X144490000Y-106720000D03*
X132320000Y-99200000D03*
X126360000Y-93240000D03*
X128350000Y-96300000D03*
X132460000Y-100920000D03*
X141290000Y-94240000D03*
X142740000Y-108990000D03*
X148640000Y-91490000D03*
X142720000Y-97690000D03*
X129580000Y-109500000D03*
X127450000Y-108990000D03*
X133150000Y-96050000D03*
X131900000Y-107000000D03*
X144680000Y-91590000D03*
X131119596Y-98980840D03*
X128350000Y-97150000D03*
X148330000Y-97680000D03*
X140630000Y-100860000D03*
X128680000Y-103360000D03*
X129150000Y-98550000D03*
X129500000Y-106400000D03*
X136990000Y-102010000D03*
X126300000Y-102200000D03*
X143710000Y-95520000D03*
X142750000Y-95350000D03*
X139510000Y-97630000D03*
X141680000Y-100860000D03*
X151050000Y-103950000D03*
X126360000Y-91560000D03*
X133820000Y-95330000D03*
X143300000Y-105300000D03*
X145080000Y-107770000D03*
X139580000Y-100860000D03*
X129200000Y-107000000D03*
X136590000Y-91750000D03*
X151050000Y-103150000D03*
X136000000Y-100210000D03*
X140420000Y-108740000D03*
X131300000Y-94000000D03*
X130329596Y-99910840D03*
X130000000Y-107000000D03*
X131900000Y-98100000D03*
X128350000Y-95700000D03*
X133230000Y-91600000D03*
X151930000Y-107340000D03*
X140420000Y-91540000D03*
X144730000Y-94040000D03*
X147260000Y-91500000D03*
X150400000Y-104550000D03*
X132300000Y-101950000D03*
X130610000Y-104330000D03*
X146100000Y-104100000D03*
X137490000Y-98030000D03*
X137980000Y-97020000D03*
X135370000Y-100720000D03*
X139690000Y-93490000D03*
X126490000Y-106010000D03*
X135950000Y-96050000D03*
X130380840Y-100540404D03*
X142600000Y-106230000D03*
X139520000Y-91550000D03*
X135400000Y-93200000D03*
X137600000Y-107520000D03*
X132500000Y-95500000D03*
X128350000Y-98550000D03*
X145870000Y-107290000D03*
X134700000Y-98100000D03*
X151760000Y-91550000D03*
X144460000Y-107790000D03*
X131150000Y-96050000D03*
X135840000Y-103590000D03*
X133700000Y-107000000D03*
X151960000Y-109660000D03*
X127670000Y-105340000D03*
X138100000Y-105200000D03*
X128800000Y-94000000D03*
X134950000Y-102000000D03*
X132600000Y-98100000D03*
X133970000Y-103730000D03*
X127430000Y-109590000D03*
X142730000Y-98760000D03*
X149460000Y-109500000D03*
X141680000Y-98760000D03*
X147440000Y-97030000D03*
X149780000Y-107600000D03*
X132679160Y-99719596D03*
X142730000Y-99810000D03*
X131749160Y-98929596D03*
X149150000Y-104550000D03*
X134700000Y-96050000D03*
X145340000Y-100170000D03*
X148780000Y-102170000D03*
X142730000Y-100860000D03*
X141800000Y-97680000D03*
X130740000Y-101060000D03*
X132730404Y-100349160D03*
X134070000Y-102820000D03*
X127120000Y-105730000D03*
X137020000Y-100090000D03*
%TO.N,+3.3V*%
X137090000Y-105890000D03*
X136580000Y-105940000D03*
X135790000Y-99550000D03*
X144950000Y-99650000D03*
X144650000Y-95630000D03*
X137900000Y-102050000D03*
X128580000Y-105330000D03*
X134350000Y-101400000D03*
X140800000Y-95700000D03*
X138600000Y-96550000D03*
X132250000Y-102600000D03*
X126550000Y-95800000D03*
X136310000Y-99560000D03*
X133300000Y-102450000D03*
X134380000Y-94710000D03*
X141600000Y-95650000D03*
X144600000Y-103200000D03*
X137015000Y-106400000D03*
X127150000Y-95800000D03*
X137595000Y-105825000D03*
%TO.N,vusb*%
X132300000Y-108900000D03*
X133300000Y-109100000D03*
X151600000Y-100300000D03*
X130700000Y-107500000D03*
X149300000Y-106100000D03*
X149300000Y-106800000D03*
%TO.N,B2*%
X143210000Y-95940000D03*
%TO.N,B1*%
X133080000Y-94810000D03*
X142660000Y-95960000D03*
%TO.N,FSPIWP*%
X140400000Y-102600000D03*
X145400000Y-104700000D03*
%TO.N,OLED_SCL*%
X141450000Y-96350000D03*
%TO.N,OLED_SDA*%
X141950000Y-96350000D03*
%TO.N,FSPICS2*%
X144570000Y-98100000D03*
X146100000Y-107900000D03*
%TO.N,Net-(PA1010D1-RX)*%
X136350000Y-104100000D03*
%TO.N,Net-(PA1010D1-TX)*%
X136350000Y-103300000D03*
%TO.N,GPSRX*%
X138150000Y-103800000D03*
X144500000Y-99150000D03*
%TO.N,GPSTX*%
X138250000Y-103150000D03*
X144560000Y-98640000D03*
%TO.N,BAT+*%
X148800000Y-103200000D03*
X138570413Y-109190391D03*
X129900000Y-108000000D03*
X138550000Y-109690000D03*
X129200000Y-108000000D03*
X138570000Y-108710000D03*
X148800000Y-103800000D03*
%TO.N,D+*%
X146500000Y-100400000D03*
X150650000Y-101000000D03*
%TO.N,D-*%
X150650000Y-99650000D03*
X146500000Y-100900000D03*
%TO.N,FSPIQ*%
X145400000Y-106100000D03*
X138800000Y-101800000D03*
%TO.N,LED_PWM*%
X144630000Y-97510000D03*
X126610000Y-107540000D03*
%TO.N,EN*%
X136800000Y-109100000D03*
X132800000Y-105300000D03*
%TO.N,Net-(IC1-VDDA3P3_1)*%
X134580000Y-99590000D03*
X134260000Y-99980000D03*
X138010000Y-98520000D03*
X137510000Y-98560000D03*
%TO.N,KILL*%
X135250000Y-103750000D03*
X133300000Y-108600000D03*
%TO.N,Net-(IC4-~{PB})*%
X131440000Y-105570000D03*
%TO.N,GPIO_SUP_1*%
X144890000Y-100540000D03*
%TO.N,GPIO_SUP_2*%
X144500000Y-100150000D03*
%TD*%
D13*
%TO.N,BAT+*%
X138570000Y-108710000D02*
X138570000Y-109670000D01*
X138570000Y-109670000D02*
X138550000Y-109690000D01*
%TD*%
%TA.AperFunction,Conductor*%
%TO.N,GND*%
G36*
X152192539Y-91190185D02*
G01*
X152238294Y-91242989D01*
X152249500Y-91294500D01*
X152249500Y-92361725D01*
X152229815Y-92428764D01*
X152177011Y-92474519D01*
X152107853Y-92484463D01*
X152044297Y-92455438D01*
X152015015Y-92418020D01*
X151941231Y-92273211D01*
X151934899Y-92264496D01*
X151839414Y-92133072D01*
X151716928Y-92010586D01*
X151576788Y-91908768D01*
X151422445Y-91830127D01*
X151257701Y-91776598D01*
X151257699Y-91776597D01*
X151257698Y-91776597D01*
X151126271Y-91755781D01*
X151086611Y-91749500D01*
X150913389Y-91749500D01*
X150873728Y-91755781D01*
X150742302Y-91776597D01*
X150577552Y-91830128D01*
X150423211Y-91908768D01*
X150359812Y-91954831D01*
X150283072Y-92010586D01*
X150283070Y-92010588D01*
X150283069Y-92010588D01*
X150160588Y-92133069D01*
X150160588Y-92133070D01*
X150160586Y-92133072D01*
X150152283Y-92144500D01*
X150058768Y-92273211D01*
X149980128Y-92427552D01*
X149926597Y-92592302D01*
X149899744Y-92761845D01*
X149899500Y-92763386D01*
X149899500Y-92936610D01*
X149926250Y-93105507D01*
X149926598Y-93107701D01*
X149980127Y-93272445D01*
X150058768Y-93426788D01*
X150160586Y-93566928D01*
X150283072Y-93689414D01*
X150423212Y-93791232D01*
X150577555Y-93869873D01*
X150742299Y-93923402D01*
X150913389Y-93950500D01*
X150913390Y-93950500D01*
X151086610Y-93950500D01*
X151086611Y-93950500D01*
X151257701Y-93923402D01*
X151422445Y-93869873D01*
X151576788Y-93791232D01*
X151716928Y-93689414D01*
X151839414Y-93566928D01*
X151941232Y-93426788D01*
X152015015Y-93281980D01*
X152062989Y-93231183D01*
X152130810Y-93214388D01*
X152196945Y-93236925D01*
X152240397Y-93291640D01*
X152249500Y-93338274D01*
X152249500Y-108091725D01*
X152229815Y-108158764D01*
X152177011Y-108204519D01*
X152107853Y-108214463D01*
X152044297Y-108185438D01*
X152015015Y-108148020D01*
X151986331Y-108091725D01*
X151941232Y-108003212D01*
X151839414Y-107863072D01*
X151716928Y-107740586D01*
X151576788Y-107638768D01*
X151448469Y-107573387D01*
X151422447Y-107560128D01*
X151422446Y-107560127D01*
X151422445Y-107560127D01*
X151257701Y-107506598D01*
X151257699Y-107506597D01*
X151257698Y-107506597D01*
X151126271Y-107485781D01*
X151086611Y-107479500D01*
X150913389Y-107479500D01*
X150873728Y-107485781D01*
X150742302Y-107506597D01*
X150577552Y-107560128D01*
X150423211Y-107638768D01*
X150359875Y-107684785D01*
X150283072Y-107740586D01*
X150283070Y-107740588D01*
X150283069Y-107740588D01*
X150160588Y-107863069D01*
X150160588Y-107863070D01*
X150160586Y-107863072D01*
X150116859Y-107923256D01*
X150058768Y-108003211D01*
X149980128Y-108157552D01*
X149926597Y-108322302D01*
X149899746Y-108491834D01*
X149899500Y-108493389D01*
X149899500Y-108666611D01*
X149902379Y-108684788D01*
X149924192Y-108822514D01*
X149926598Y-108837701D01*
X149980127Y-109002445D01*
X150058768Y-109156788D01*
X150160586Y-109296928D01*
X150283072Y-109419414D01*
X150423212Y-109521232D01*
X150577555Y-109599873D01*
X150742299Y-109653402D01*
X150913389Y-109680500D01*
X150913390Y-109680500D01*
X151086610Y-109680500D01*
X151086611Y-109680500D01*
X151257701Y-109653402D01*
X151422445Y-109599873D01*
X151576788Y-109521232D01*
X151716928Y-109419414D01*
X151839414Y-109296928D01*
X151941232Y-109156788D01*
X152015015Y-109011980D01*
X152062989Y-108961183D01*
X152130810Y-108944388D01*
X152196945Y-108966925D01*
X152240397Y-109021640D01*
X152249500Y-109068274D01*
X152249500Y-109845500D01*
X152229815Y-109912539D01*
X152177011Y-109958294D01*
X152125500Y-109969500D01*
X138999572Y-109969500D01*
X138932533Y-109949815D01*
X138886778Y-109897011D01*
X138876834Y-109827853D01*
X138879794Y-109813418D01*
X138900500Y-109736144D01*
X138900500Y-109643856D01*
X138876614Y-109554712D01*
X138876613Y-109554711D01*
X138874725Y-109547663D01*
X138870500Y-109515570D01*
X138870500Y-109404850D01*
X138887113Y-109342850D01*
X138887940Y-109341417D01*
X138897027Y-109325679D01*
X138920913Y-109236535D01*
X138920913Y-109144247D01*
X138897027Y-109055103D01*
X138896307Y-109053856D01*
X138887112Y-109037929D01*
X138882961Y-109022440D01*
X138875523Y-109010865D01*
X138870500Y-108975930D01*
X138870500Y-108923743D01*
X138887115Y-108861740D01*
X138896613Y-108845289D01*
X138896614Y-108845288D01*
X138920500Y-108756144D01*
X138920500Y-108663856D01*
X138896614Y-108574712D01*
X138895849Y-108573387D01*
X138850473Y-108494794D01*
X138850470Y-108494791D01*
X138850469Y-108494788D01*
X138785212Y-108429531D01*
X138785209Y-108429529D01*
X138785205Y-108429526D01*
X138705293Y-108383388D01*
X138705290Y-108383387D01*
X138705289Y-108383386D01*
X138705288Y-108383386D01*
X138616144Y-108359500D01*
X138523856Y-108359500D01*
X138434712Y-108383386D01*
X138434711Y-108383386D01*
X138434709Y-108383387D01*
X138434706Y-108383388D01*
X138354794Y-108429526D01*
X138354785Y-108429533D01*
X138289533Y-108494785D01*
X138289526Y-108494794D01*
X138243388Y-108574706D01*
X138243387Y-108574709D01*
X138219500Y-108663856D01*
X138219500Y-108756143D01*
X138243386Y-108845289D01*
X138252885Y-108861740D01*
X138257035Y-108877228D01*
X138264477Y-108888808D01*
X138269500Y-108923743D01*
X138269500Y-108977361D01*
X138252887Y-109039361D01*
X138243800Y-109055099D01*
X138243800Y-109055100D01*
X138243800Y-109055101D01*
X138243799Y-109055103D01*
X138219913Y-109144247D01*
X138219913Y-109236535D01*
X138236096Y-109296930D01*
X138243799Y-109325679D01*
X138252886Y-109341417D01*
X138257036Y-109356906D01*
X138264477Y-109368484D01*
X138269500Y-109403419D01*
X138269500Y-109441614D01*
X138252887Y-109503614D01*
X138223387Y-109554708D01*
X138223387Y-109554709D01*
X138223386Y-109554711D01*
X138223386Y-109554712D01*
X138199500Y-109643856D01*
X138199500Y-109736144D01*
X138220202Y-109813408D01*
X138218540Y-109883256D01*
X138179378Y-109941119D01*
X138115149Y-109968623D01*
X138100428Y-109969500D01*
X126174500Y-109969500D01*
X126107461Y-109949815D01*
X126061706Y-109897011D01*
X126050500Y-109845500D01*
X126050500Y-108853856D01*
X131949500Y-108853856D01*
X131949500Y-108946144D01*
X131969943Y-109022440D01*
X131973387Y-109035290D01*
X131973388Y-109035293D01*
X132019526Y-109115205D01*
X132019529Y-109115209D01*
X132019531Y-109115212D01*
X132084788Y-109180469D01*
X132084791Y-109180470D01*
X132084794Y-109180473D01*
X132164706Y-109226611D01*
X132164707Y-109226611D01*
X132164712Y-109226614D01*
X132253856Y-109250500D01*
X132253858Y-109250500D01*
X132346142Y-109250500D01*
X132346144Y-109250500D01*
X132435288Y-109226614D01*
X132515212Y-109180469D01*
X132580469Y-109115212D01*
X132626614Y-109035288D01*
X132650500Y-108946144D01*
X132650500Y-108853856D01*
X132626614Y-108764712D01*
X132626611Y-108764706D01*
X132580473Y-108684794D01*
X132580470Y-108684791D01*
X132580469Y-108684788D01*
X132515212Y-108619531D01*
X132515209Y-108619529D01*
X132515205Y-108619526D01*
X132435293Y-108573388D01*
X132435290Y-108573387D01*
X132435289Y-108573386D01*
X132435288Y-108573386D01*
X132362401Y-108553856D01*
X132949500Y-108553856D01*
X132949500Y-108646144D01*
X132959856Y-108684794D01*
X132973387Y-108735290D01*
X132973387Y-108735291D01*
X133003819Y-108788000D01*
X133020292Y-108855900D01*
X133003819Y-108912000D01*
X132973387Y-108964708D01*
X132973387Y-108964709D01*
X132973386Y-108964711D01*
X132973386Y-108964712D01*
X132949500Y-109053856D01*
X132949500Y-109146144D01*
X132971061Y-109226612D01*
X132973387Y-109235290D01*
X132973388Y-109235293D01*
X133019526Y-109315205D01*
X133019529Y-109315209D01*
X133019531Y-109315212D01*
X133084788Y-109380469D01*
X133084791Y-109380470D01*
X133084794Y-109380473D01*
X133164706Y-109426611D01*
X133164707Y-109426611D01*
X133164712Y-109426614D01*
X133253856Y-109450500D01*
X133253858Y-109450500D01*
X133346142Y-109450500D01*
X133346144Y-109450500D01*
X133435288Y-109426614D01*
X133515212Y-109380469D01*
X133580469Y-109315212D01*
X133626614Y-109235288D01*
X133650500Y-109146144D01*
X133650500Y-109053856D01*
X136449500Y-109053856D01*
X136449500Y-109146144D01*
X136471061Y-109226612D01*
X136473387Y-109235290D01*
X136473388Y-109235293D01*
X136519526Y-109315205D01*
X136519529Y-109315209D01*
X136519531Y-109315212D01*
X136584788Y-109380469D01*
X136584791Y-109380470D01*
X136584794Y-109380473D01*
X136664706Y-109426611D01*
X136664707Y-109426611D01*
X136664712Y-109426614D01*
X136753856Y-109450500D01*
X136753858Y-109450500D01*
X136846142Y-109450500D01*
X136846144Y-109450500D01*
X136935288Y-109426614D01*
X137015212Y-109380469D01*
X137080469Y-109315212D01*
X137126614Y-109235288D01*
X137150500Y-109146144D01*
X137150500Y-109053856D01*
X137126614Y-108964712D01*
X137126611Y-108964706D01*
X137080473Y-108884794D01*
X137080470Y-108884791D01*
X137080469Y-108884788D01*
X137015212Y-108819531D01*
X137015209Y-108819529D01*
X137015205Y-108819526D01*
X136935293Y-108773388D01*
X136935290Y-108773387D01*
X136935289Y-108773386D01*
X136935288Y-108773386D01*
X136846144Y-108749500D01*
X136753856Y-108749500D01*
X136664712Y-108773386D01*
X136664711Y-108773386D01*
X136664709Y-108773387D01*
X136664706Y-108773388D01*
X136584794Y-108819526D01*
X136584785Y-108819533D01*
X136519533Y-108884785D01*
X136519526Y-108884794D01*
X136473388Y-108964706D01*
X136473387Y-108964709D01*
X136473386Y-108964711D01*
X136473386Y-108964712D01*
X136449500Y-109053856D01*
X133650500Y-109053856D01*
X133626614Y-108964712D01*
X133590713Y-108902531D01*
X133586987Y-108892249D01*
X133585470Y-108867858D01*
X133579707Y-108844102D01*
X133583244Y-108832053D01*
X133582652Y-108822514D01*
X133589812Y-108809685D01*
X133596181Y-108787998D01*
X133604617Y-108773388D01*
X133626614Y-108735288D01*
X133650500Y-108646144D01*
X133650500Y-108553856D01*
X133626614Y-108464712D01*
X133626611Y-108464706D01*
X133580473Y-108384794D01*
X133580470Y-108384791D01*
X133580469Y-108384788D01*
X133515212Y-108319531D01*
X133515209Y-108319529D01*
X133515205Y-108319526D01*
X133435293Y-108273388D01*
X133435290Y-108273387D01*
X133435289Y-108273386D01*
X133435288Y-108273386D01*
X133346144Y-108249500D01*
X133253856Y-108249500D01*
X133164712Y-108273386D01*
X133164711Y-108273386D01*
X133164709Y-108273387D01*
X133164706Y-108273388D01*
X133084794Y-108319526D01*
X133084785Y-108319533D01*
X133019533Y-108384785D01*
X133019526Y-108384794D01*
X132973388Y-108464706D01*
X132973387Y-108464709D01*
X132973386Y-108464711D01*
X132973386Y-108464712D01*
X132949500Y-108553856D01*
X132362401Y-108553856D01*
X132346144Y-108549500D01*
X132253856Y-108549500D01*
X132164712Y-108573386D01*
X132164711Y-108573386D01*
X132164709Y-108573387D01*
X132164706Y-108573388D01*
X132084794Y-108619526D01*
X132084785Y-108619533D01*
X132019533Y-108684785D01*
X132019526Y-108684794D01*
X131973388Y-108764706D01*
X131973387Y-108764709D01*
X131973386Y-108764711D01*
X131973386Y-108764712D01*
X131949500Y-108853856D01*
X126050500Y-108853856D01*
X126050500Y-107953856D01*
X128849500Y-107953856D01*
X128849500Y-108046144D01*
X128868007Y-108115214D01*
X128873387Y-108135290D01*
X128873388Y-108135293D01*
X128919526Y-108215205D01*
X128919529Y-108215209D01*
X128919531Y-108215212D01*
X128984788Y-108280469D01*
X128984791Y-108280470D01*
X128984794Y-108280473D01*
X129064706Y-108326611D01*
X129064707Y-108326611D01*
X129064712Y-108326614D01*
X129153856Y-108350500D01*
X129153858Y-108350500D01*
X129246142Y-108350500D01*
X129246144Y-108350500D01*
X129335288Y-108326614D01*
X129415212Y-108280469D01*
X129462319Y-108233362D01*
X129523642Y-108199877D01*
X129593334Y-108204861D01*
X129637681Y-108233362D01*
X129684788Y-108280469D01*
X129684791Y-108280470D01*
X129684794Y-108280473D01*
X129764706Y-108326611D01*
X129764707Y-108326611D01*
X129764712Y-108326614D01*
X129853856Y-108350500D01*
X129853858Y-108350500D01*
X129946142Y-108350500D01*
X129946144Y-108350500D01*
X130035288Y-108326614D01*
X130115212Y-108280469D01*
X130180469Y-108215212D01*
X130226614Y-108135288D01*
X130250500Y-108046144D01*
X130250500Y-107953856D01*
X130226614Y-107864712D01*
X130220346Y-107853856D01*
X145749500Y-107853856D01*
X145749500Y-107946144D01*
X145766439Y-108009363D01*
X145773387Y-108035290D01*
X145773388Y-108035293D01*
X145819526Y-108115205D01*
X145819529Y-108115209D01*
X145819531Y-108115212D01*
X145884788Y-108180469D01*
X145884791Y-108180470D01*
X145884794Y-108180473D01*
X145964706Y-108226611D01*
X145964707Y-108226611D01*
X145964712Y-108226614D01*
X146053856Y-108250500D01*
X146053858Y-108250500D01*
X146146142Y-108250500D01*
X146146144Y-108250500D01*
X146235288Y-108226614D01*
X146315212Y-108180469D01*
X146380469Y-108115212D01*
X146426614Y-108035288D01*
X146450500Y-107946144D01*
X146450500Y-107853856D01*
X146426614Y-107764712D01*
X146426611Y-107764706D01*
X146380473Y-107684794D01*
X146380470Y-107684791D01*
X146380469Y-107684788D01*
X146315212Y-107619531D01*
X146315209Y-107619529D01*
X146315205Y-107619526D01*
X146235293Y-107573388D01*
X146235290Y-107573387D01*
X146235289Y-107573386D01*
X146235288Y-107573386D01*
X146146144Y-107549500D01*
X146053856Y-107549500D01*
X145964712Y-107573386D01*
X145964711Y-107573386D01*
X145964709Y-107573387D01*
X145964706Y-107573388D01*
X145884794Y-107619526D01*
X145884785Y-107619533D01*
X145819533Y-107684785D01*
X145819526Y-107684794D01*
X145773388Y-107764706D01*
X145773387Y-107764709D01*
X145773386Y-107764711D01*
X145773386Y-107764712D01*
X145749500Y-107853856D01*
X130220346Y-107853856D01*
X130180469Y-107784788D01*
X130115212Y-107719531D01*
X130115209Y-107719529D01*
X130115205Y-107719526D01*
X130035293Y-107673388D01*
X130035290Y-107673387D01*
X130035289Y-107673386D01*
X130035288Y-107673386D01*
X129946144Y-107649500D01*
X129853856Y-107649500D01*
X129764712Y-107673386D01*
X129764711Y-107673386D01*
X129764709Y-107673387D01*
X129764706Y-107673388D01*
X129684794Y-107719526D01*
X129684785Y-107719533D01*
X129637681Y-107766638D01*
X129576358Y-107800123D01*
X129506666Y-107795139D01*
X129462319Y-107766638D01*
X129415214Y-107719533D01*
X129415212Y-107719531D01*
X129415209Y-107719529D01*
X129415205Y-107719526D01*
X129335293Y-107673388D01*
X129335290Y-107673387D01*
X129335289Y-107673386D01*
X129335288Y-107673386D01*
X129246144Y-107649500D01*
X129153856Y-107649500D01*
X129064712Y-107673386D01*
X129064711Y-107673386D01*
X129064709Y-107673387D01*
X129064706Y-107673388D01*
X128984794Y-107719526D01*
X128984785Y-107719533D01*
X128919533Y-107784785D01*
X128919526Y-107784794D01*
X128873388Y-107864706D01*
X128873387Y-107864709D01*
X128873386Y-107864711D01*
X128873386Y-107864712D01*
X128849500Y-107953856D01*
X126050500Y-107953856D01*
X126050500Y-107734692D01*
X126070185Y-107667653D01*
X126122989Y-107621898D01*
X126192147Y-107611954D01*
X126255703Y-107640979D01*
X126281887Y-107672691D01*
X126283385Y-107675286D01*
X126283386Y-107675288D01*
X126329531Y-107755212D01*
X126394788Y-107820469D01*
X126394791Y-107820470D01*
X126394794Y-107820473D01*
X126474706Y-107866611D01*
X126474707Y-107866611D01*
X126474712Y-107866614D01*
X126563856Y-107890500D01*
X126563858Y-107890500D01*
X126656142Y-107890500D01*
X126656144Y-107890500D01*
X126745288Y-107866614D01*
X126773198Y-107850500D01*
X126794255Y-107838343D01*
X126805986Y-107831569D01*
X126825212Y-107820469D01*
X126890469Y-107755212D01*
X126936614Y-107675288D01*
X126960500Y-107586144D01*
X126960500Y-107493856D01*
X126949782Y-107453856D01*
X130349500Y-107453856D01*
X130349500Y-107546144D01*
X130356800Y-107573387D01*
X130369162Y-107619526D01*
X130373386Y-107635288D01*
X130419531Y-107715212D01*
X130484788Y-107780469D01*
X130484791Y-107780470D01*
X130484794Y-107780473D01*
X130564706Y-107826611D01*
X130564707Y-107826611D01*
X130564712Y-107826614D01*
X130653856Y-107850500D01*
X130653858Y-107850500D01*
X130746142Y-107850500D01*
X130746144Y-107850500D01*
X130835288Y-107826614D01*
X130915212Y-107780469D01*
X130980469Y-107715212D01*
X131026614Y-107635288D01*
X131050500Y-107546144D01*
X131050500Y-107453856D01*
X131026614Y-107364712D01*
X131026611Y-107364706D01*
X130980473Y-107284794D01*
X130980470Y-107284791D01*
X130980469Y-107284788D01*
X130915212Y-107219531D01*
X130915209Y-107219529D01*
X130915205Y-107219526D01*
X130835293Y-107173388D01*
X130835290Y-107173387D01*
X130835289Y-107173386D01*
X130835288Y-107173386D01*
X130746144Y-107149500D01*
X130653856Y-107149500D01*
X130564712Y-107173386D01*
X130564711Y-107173386D01*
X130564709Y-107173387D01*
X130564706Y-107173388D01*
X130484794Y-107219526D01*
X130484785Y-107219533D01*
X130419533Y-107284785D01*
X130419526Y-107284794D01*
X130373388Y-107364706D01*
X130373387Y-107364709D01*
X130373386Y-107364711D01*
X130373386Y-107364712D01*
X130349500Y-107453856D01*
X126949782Y-107453856D01*
X126936614Y-107404712D01*
X126913518Y-107364709D01*
X126890473Y-107324794D01*
X126890470Y-107324791D01*
X126890469Y-107324788D01*
X126825212Y-107259531D01*
X126825209Y-107259529D01*
X126825205Y-107259526D01*
X126745293Y-107213388D01*
X126745290Y-107213387D01*
X126745289Y-107213386D01*
X126745288Y-107213386D01*
X126656144Y-107189500D01*
X126563856Y-107189500D01*
X126474712Y-107213386D01*
X126474711Y-107213386D01*
X126474709Y-107213387D01*
X126474706Y-107213388D01*
X126394794Y-107259526D01*
X126394785Y-107259533D01*
X126329533Y-107324785D01*
X126329526Y-107324794D01*
X126281886Y-107407308D01*
X126231319Y-107455523D01*
X126162711Y-107468745D01*
X126097847Y-107442777D01*
X126057319Y-107385862D01*
X126050500Y-107345307D01*
X126050500Y-105283856D01*
X128229500Y-105283856D01*
X128229500Y-105376144D01*
X128245193Y-105434712D01*
X128253387Y-105465290D01*
X128253388Y-105465293D01*
X128299526Y-105545205D01*
X128299529Y-105545209D01*
X128299531Y-105545212D01*
X128364788Y-105610469D01*
X128364791Y-105610470D01*
X128364794Y-105610473D01*
X128444706Y-105656611D01*
X128444707Y-105656611D01*
X128444712Y-105656614D01*
X128533856Y-105680500D01*
X128533858Y-105680500D01*
X128626142Y-105680500D01*
X128626144Y-105680500D01*
X128715288Y-105656614D01*
X128795212Y-105610469D01*
X128860469Y-105545212D01*
X128872799Y-105523856D01*
X131089500Y-105523856D01*
X131089500Y-105616144D01*
X131109212Y-105689712D01*
X131113387Y-105705290D01*
X131113388Y-105705293D01*
X131159526Y-105785205D01*
X131159529Y-105785209D01*
X131159531Y-105785212D01*
X131224788Y-105850469D01*
X131224791Y-105850470D01*
X131224794Y-105850473D01*
X131304706Y-105896611D01*
X131304707Y-105896611D01*
X131304712Y-105896614D01*
X131393856Y-105920500D01*
X131393858Y-105920500D01*
X131486142Y-105920500D01*
X131486144Y-105920500D01*
X131575288Y-105896614D01*
X131580065Y-105893856D01*
X136229500Y-105893856D01*
X136229500Y-105986144D01*
X136247643Y-106053856D01*
X136253387Y-106075290D01*
X136253388Y-106075293D01*
X136299526Y-106155205D01*
X136299529Y-106155209D01*
X136299531Y-106155212D01*
X136364788Y-106220469D01*
X136364791Y-106220470D01*
X136364794Y-106220473D01*
X136444706Y-106266611D01*
X136444707Y-106266611D01*
X136444712Y-106266614D01*
X136533856Y-106290500D01*
X136533858Y-106290500D01*
X136540500Y-106290500D01*
X136607539Y-106310185D01*
X136653294Y-106362989D01*
X136664500Y-106414500D01*
X136664500Y-106446144D01*
X136677144Y-106493334D01*
X136688387Y-106535290D01*
X136688388Y-106535293D01*
X136734526Y-106615205D01*
X136734529Y-106615209D01*
X136734531Y-106615212D01*
X136799788Y-106680469D01*
X136799791Y-106680470D01*
X136799794Y-106680473D01*
X136879706Y-106726611D01*
X136879707Y-106726611D01*
X136879712Y-106726614D01*
X136968856Y-106750500D01*
X136968858Y-106750500D01*
X137061142Y-106750500D01*
X137061144Y-106750500D01*
X137150288Y-106726614D01*
X137230212Y-106680469D01*
X137295469Y-106615212D01*
X137341614Y-106535288D01*
X137365500Y-106446144D01*
X137365500Y-106353856D01*
X137355417Y-106316225D01*
X137357080Y-106246379D01*
X137396242Y-106188516D01*
X137460470Y-106161012D01*
X137507283Y-106164360D01*
X137548856Y-106175500D01*
X137548858Y-106175500D01*
X137641142Y-106175500D01*
X137641144Y-106175500D01*
X137730288Y-106151614D01*
X137810212Y-106105469D01*
X137861825Y-106053856D01*
X145049500Y-106053856D01*
X145049500Y-106146144D01*
X145069416Y-106220473D01*
X145073387Y-106235290D01*
X145073388Y-106235293D01*
X145119526Y-106315205D01*
X145119529Y-106315209D01*
X145119531Y-106315212D01*
X145184788Y-106380469D01*
X145184791Y-106380470D01*
X145184794Y-106380473D01*
X145264706Y-106426611D01*
X145264707Y-106426611D01*
X145264712Y-106426614D01*
X145353856Y-106450500D01*
X145353858Y-106450500D01*
X145446142Y-106450500D01*
X145446144Y-106450500D01*
X145535288Y-106426614D01*
X145615212Y-106380469D01*
X145680469Y-106315212D01*
X145726614Y-106235288D01*
X145750500Y-106146144D01*
X145750500Y-106053856D01*
X148949500Y-106053856D01*
X148949500Y-106146144D01*
X148969416Y-106220473D01*
X148973387Y-106235290D01*
X148973388Y-106235293D01*
X149019526Y-106315205D01*
X149019533Y-106315214D01*
X149066638Y-106362319D01*
X149100123Y-106423642D01*
X149095139Y-106493334D01*
X149066638Y-106537681D01*
X149019533Y-106584785D01*
X149019526Y-106584794D01*
X148973388Y-106664706D01*
X148973387Y-106664709D01*
X148973386Y-106664711D01*
X148973386Y-106664712D01*
X148950400Y-106750499D01*
X148949500Y-106753856D01*
X148949500Y-106846143D01*
X148973387Y-106935290D01*
X148973388Y-106935293D01*
X149019526Y-107015205D01*
X149019529Y-107015209D01*
X149019531Y-107015212D01*
X149084788Y-107080469D01*
X149084791Y-107080470D01*
X149084794Y-107080473D01*
X149164706Y-107126611D01*
X149164707Y-107126611D01*
X149164712Y-107126614D01*
X149253856Y-107150500D01*
X149253858Y-107150500D01*
X149346142Y-107150500D01*
X149346144Y-107150500D01*
X149435288Y-107126614D01*
X149515212Y-107080469D01*
X149580469Y-107015212D01*
X149626614Y-106935288D01*
X149650500Y-106846144D01*
X149650500Y-106753856D01*
X149626614Y-106664712D01*
X149598031Y-106615205D01*
X149580473Y-106584794D01*
X149580470Y-106584791D01*
X149580469Y-106584788D01*
X149533362Y-106537681D01*
X149499877Y-106476358D01*
X149504861Y-106406666D01*
X149533362Y-106362319D01*
X149541825Y-106353856D01*
X149580469Y-106315212D01*
X149626614Y-106235288D01*
X149650500Y-106146144D01*
X149650500Y-106053856D01*
X149626614Y-105964712D01*
X149626611Y-105964706D01*
X149580473Y-105884794D01*
X149580470Y-105884791D01*
X149580469Y-105884788D01*
X149515212Y-105819531D01*
X149515209Y-105819529D01*
X149515205Y-105819526D01*
X149435293Y-105773388D01*
X149435290Y-105773387D01*
X149435289Y-105773386D01*
X149435288Y-105773386D01*
X149346144Y-105749500D01*
X149253856Y-105749500D01*
X149164712Y-105773386D01*
X149164711Y-105773386D01*
X149164709Y-105773387D01*
X149164706Y-105773388D01*
X149084794Y-105819526D01*
X149084785Y-105819533D01*
X149019533Y-105884785D01*
X149019526Y-105884794D01*
X148973388Y-105964706D01*
X148973387Y-105964709D01*
X148973386Y-105964711D01*
X148973386Y-105964712D01*
X148949500Y-106053856D01*
X145750500Y-106053856D01*
X145726614Y-105964712D01*
X145726611Y-105964706D01*
X145680473Y-105884794D01*
X145680470Y-105884791D01*
X145680469Y-105884788D01*
X145615212Y-105819531D01*
X145615209Y-105819529D01*
X145615205Y-105819526D01*
X145535293Y-105773388D01*
X145535290Y-105773387D01*
X145535289Y-105773386D01*
X145535288Y-105773386D01*
X145446144Y-105749500D01*
X145353856Y-105749500D01*
X145264712Y-105773386D01*
X145264711Y-105773386D01*
X145264709Y-105773387D01*
X145264706Y-105773388D01*
X145184794Y-105819526D01*
X145184785Y-105819533D01*
X145119533Y-105884785D01*
X145119526Y-105884794D01*
X145073388Y-105964706D01*
X145073387Y-105964709D01*
X145073386Y-105964711D01*
X145073386Y-105964712D01*
X145049500Y-106053856D01*
X137861825Y-106053856D01*
X137875469Y-106040212D01*
X137921614Y-105960288D01*
X137945500Y-105871144D01*
X137945500Y-105778856D01*
X137921614Y-105689712D01*
X137921611Y-105689706D01*
X137875473Y-105609794D01*
X137875470Y-105609791D01*
X137875469Y-105609788D01*
X137810212Y-105544531D01*
X137810209Y-105544529D01*
X137810205Y-105544526D01*
X137730293Y-105498388D01*
X137730290Y-105498387D01*
X137730289Y-105498386D01*
X137730288Y-105498386D01*
X137641144Y-105474500D01*
X137548856Y-105474500D01*
X137459712Y-105498386D01*
X137459711Y-105498386D01*
X137459709Y-105498387D01*
X137459706Y-105498388D01*
X137379794Y-105544526D01*
X137379785Y-105544533D01*
X137378557Y-105545762D01*
X137377266Y-105546466D01*
X137373342Y-105549478D01*
X137372872Y-105548865D01*
X137317231Y-105579242D01*
X137247540Y-105574253D01*
X137228877Y-105565458D01*
X137225290Y-105563386D01*
X137165858Y-105547462D01*
X137136144Y-105539500D01*
X137043856Y-105539500D01*
X136954712Y-105563386D01*
X136954711Y-105563386D01*
X136954709Y-105563387D01*
X136954706Y-105563388D01*
X136874787Y-105609530D01*
X136869166Y-105613844D01*
X136803996Y-105639035D01*
X136735552Y-105624994D01*
X136731683Y-105622851D01*
X136715293Y-105613388D01*
X136715290Y-105613387D01*
X136715289Y-105613386D01*
X136715288Y-105613386D01*
X136626144Y-105589500D01*
X136533856Y-105589500D01*
X136444712Y-105613386D01*
X136444711Y-105613386D01*
X136444709Y-105613387D01*
X136444706Y-105613388D01*
X136364794Y-105659526D01*
X136364785Y-105659533D01*
X136299533Y-105724785D01*
X136299526Y-105724794D01*
X136253388Y-105804706D01*
X136253387Y-105804709D01*
X136253386Y-105804711D01*
X136253386Y-105804712D01*
X136229500Y-105893856D01*
X131580065Y-105893856D01*
X131655212Y-105850469D01*
X131720469Y-105785212D01*
X131766614Y-105705288D01*
X131790500Y-105616144D01*
X131790500Y-105523856D01*
X131766614Y-105434712D01*
X131766611Y-105434706D01*
X131720473Y-105354794D01*
X131720470Y-105354791D01*
X131720469Y-105354788D01*
X131655212Y-105289531D01*
X131655209Y-105289529D01*
X131655205Y-105289526D01*
X131593424Y-105253856D01*
X132449500Y-105253856D01*
X132449500Y-105346144D01*
X132473230Y-105434706D01*
X132473387Y-105435290D01*
X132473388Y-105435293D01*
X132519526Y-105515205D01*
X132519529Y-105515209D01*
X132519531Y-105515212D01*
X132584788Y-105580469D01*
X132584791Y-105580470D01*
X132584794Y-105580473D01*
X132664706Y-105626611D01*
X132664707Y-105626611D01*
X132664712Y-105626614D01*
X132753856Y-105650500D01*
X132753858Y-105650500D01*
X132846142Y-105650500D01*
X132846144Y-105650500D01*
X132935288Y-105626614D01*
X133015212Y-105580469D01*
X133080469Y-105515212D01*
X133126614Y-105435288D01*
X133150500Y-105346144D01*
X133150500Y-105253856D01*
X133126614Y-105164712D01*
X133126611Y-105164706D01*
X133080473Y-105084794D01*
X133080470Y-105084791D01*
X133080469Y-105084788D01*
X133015212Y-105019531D01*
X133015209Y-105019529D01*
X133015205Y-105019526D01*
X132935293Y-104973388D01*
X132935290Y-104973387D01*
X132935289Y-104973386D01*
X132935288Y-104973386D01*
X132846144Y-104949500D01*
X132753856Y-104949500D01*
X132664712Y-104973386D01*
X132664711Y-104973386D01*
X132664709Y-104973387D01*
X132664706Y-104973388D01*
X132584794Y-105019526D01*
X132584785Y-105019533D01*
X132519533Y-105084785D01*
X132519526Y-105084794D01*
X132473388Y-105164706D01*
X132473387Y-105164709D01*
X132473386Y-105164711D01*
X132473386Y-105164712D01*
X132449500Y-105253856D01*
X131593424Y-105253856D01*
X131575293Y-105243388D01*
X131575290Y-105243387D01*
X131575289Y-105243386D01*
X131575288Y-105243386D01*
X131486144Y-105219500D01*
X131393856Y-105219500D01*
X131304712Y-105243386D01*
X131304711Y-105243386D01*
X131304709Y-105243387D01*
X131304706Y-105243388D01*
X131224794Y-105289526D01*
X131224785Y-105289533D01*
X131159533Y-105354785D01*
X131159526Y-105354794D01*
X131113388Y-105434706D01*
X131113387Y-105434709D01*
X131113386Y-105434711D01*
X131113386Y-105434712D01*
X131089500Y-105523856D01*
X128872799Y-105523856D01*
X128906614Y-105465288D01*
X128930500Y-105376144D01*
X128930500Y-105283856D01*
X128906614Y-105194712D01*
X128906611Y-105194706D01*
X128860473Y-105114794D01*
X128860470Y-105114791D01*
X128860469Y-105114788D01*
X128795212Y-105049531D01*
X128795209Y-105049529D01*
X128795205Y-105049526D01*
X128715293Y-105003388D01*
X128715290Y-105003387D01*
X128715289Y-105003386D01*
X128715288Y-105003386D01*
X128626144Y-104979500D01*
X128533856Y-104979500D01*
X128444712Y-105003386D01*
X128444711Y-105003386D01*
X128444709Y-105003387D01*
X128444706Y-105003388D01*
X128364794Y-105049526D01*
X128364785Y-105049533D01*
X128299533Y-105114785D01*
X128299526Y-105114794D01*
X128253388Y-105194706D01*
X128253387Y-105194709D01*
X128253386Y-105194711D01*
X128253386Y-105194712D01*
X128229500Y-105283856D01*
X126050500Y-105283856D01*
X126050500Y-104653856D01*
X145049500Y-104653856D01*
X145049500Y-104746143D01*
X145073387Y-104835290D01*
X145073388Y-104835293D01*
X145119526Y-104915205D01*
X145119529Y-104915209D01*
X145119531Y-104915212D01*
X145184788Y-104980469D01*
X145184791Y-104980470D01*
X145184794Y-104980473D01*
X145264706Y-105026611D01*
X145264707Y-105026611D01*
X145264712Y-105026614D01*
X145353856Y-105050500D01*
X145353858Y-105050500D01*
X145446142Y-105050500D01*
X145446144Y-105050500D01*
X145535288Y-105026614D01*
X145615212Y-104980469D01*
X145680469Y-104915212D01*
X145726614Y-104835288D01*
X145750500Y-104746144D01*
X145750500Y-104653856D01*
X145726614Y-104564712D01*
X145726611Y-104564706D01*
X145680473Y-104484794D01*
X145680470Y-104484791D01*
X145680469Y-104484788D01*
X145615212Y-104419531D01*
X145615209Y-104419529D01*
X145615205Y-104419526D01*
X145535293Y-104373388D01*
X145535290Y-104373387D01*
X145535289Y-104373386D01*
X145535288Y-104373386D01*
X145446144Y-104349500D01*
X145353856Y-104349500D01*
X145264712Y-104373386D01*
X145264711Y-104373386D01*
X145264709Y-104373387D01*
X145264706Y-104373388D01*
X145184794Y-104419526D01*
X145184785Y-104419533D01*
X145119533Y-104484785D01*
X145119526Y-104484794D01*
X145073388Y-104564706D01*
X145073387Y-104564709D01*
X145049500Y-104653856D01*
X126050500Y-104653856D01*
X126050500Y-103683856D01*
X126599500Y-103683856D01*
X126599500Y-103776144D01*
X126618256Y-103846144D01*
X126623387Y-103865290D01*
X126623388Y-103865293D01*
X126669526Y-103945205D01*
X126669529Y-103945209D01*
X126669531Y-103945212D01*
X126734788Y-104010469D01*
X126734791Y-104010470D01*
X126734794Y-104010473D01*
X126814706Y-104056611D01*
X126814707Y-104056611D01*
X126814712Y-104056614D01*
X126903856Y-104080500D01*
X126903858Y-104080500D01*
X126996142Y-104080500D01*
X126996144Y-104080500D01*
X127085288Y-104056614D01*
X127165212Y-104010469D01*
X127230469Y-103945212D01*
X127276614Y-103865288D01*
X127300500Y-103776144D01*
X127300500Y-103703856D01*
X134899500Y-103703856D01*
X134899500Y-103796144D01*
X134923251Y-103884785D01*
X134923387Y-103885290D01*
X134923388Y-103885293D01*
X134969526Y-103965205D01*
X134969529Y-103965209D01*
X134969531Y-103965212D01*
X135034788Y-104030469D01*
X135034791Y-104030470D01*
X135034794Y-104030473D01*
X135114706Y-104076611D01*
X135114707Y-104076611D01*
X135114712Y-104076614D01*
X135203856Y-104100500D01*
X135203858Y-104100500D01*
X135296142Y-104100500D01*
X135296144Y-104100500D01*
X135385288Y-104076614D01*
X135465212Y-104030469D01*
X135530469Y-103965212D01*
X135576614Y-103885288D01*
X135600500Y-103796144D01*
X135600500Y-103703856D01*
X135576614Y-103614712D01*
X135575468Y-103612727D01*
X135530473Y-103534794D01*
X135530470Y-103534791D01*
X135530469Y-103534788D01*
X135465212Y-103469531D01*
X135465209Y-103469529D01*
X135465205Y-103469526D01*
X135385293Y-103423388D01*
X135385290Y-103423387D01*
X135385289Y-103423386D01*
X135385288Y-103423386D01*
X135296144Y-103399500D01*
X135203856Y-103399500D01*
X135114712Y-103423386D01*
X135114711Y-103423386D01*
X135114709Y-103423387D01*
X135114706Y-103423388D01*
X135034794Y-103469526D01*
X135034785Y-103469533D01*
X134969533Y-103534785D01*
X134969526Y-103534794D01*
X134923388Y-103614706D01*
X134923387Y-103614709D01*
X134923386Y-103614711D01*
X134923386Y-103614712D01*
X134899500Y-103703856D01*
X127300500Y-103703856D01*
X127300500Y-103683856D01*
X127276614Y-103594712D01*
X127275403Y-103592614D01*
X127230473Y-103514794D01*
X127230470Y-103514791D01*
X127230469Y-103514788D01*
X127165212Y-103449531D01*
X127165209Y-103449529D01*
X127165205Y-103449526D01*
X127085293Y-103403388D01*
X127085290Y-103403387D01*
X127085289Y-103403386D01*
X127085288Y-103403386D01*
X126996144Y-103379500D01*
X126903856Y-103379500D01*
X126814712Y-103403386D01*
X126814711Y-103403386D01*
X126814709Y-103403387D01*
X126814706Y-103403388D01*
X126734794Y-103449526D01*
X126734785Y-103449533D01*
X126669533Y-103514785D01*
X126669526Y-103514794D01*
X126623388Y-103594706D01*
X126623387Y-103594709D01*
X126623386Y-103594711D01*
X126623386Y-103594712D01*
X126599500Y-103683856D01*
X126050500Y-103683856D01*
X126050500Y-103253856D01*
X135999500Y-103253856D01*
X135999500Y-103346144D01*
X136020197Y-103423388D01*
X136023387Y-103435290D01*
X136023388Y-103435293D01*
X136069526Y-103515205D01*
X136069529Y-103515209D01*
X136069531Y-103515212D01*
X136134788Y-103580469D01*
X136151108Y-103589891D01*
X136155823Y-103592614D01*
X136204038Y-103643182D01*
X136217259Y-103711789D01*
X136191290Y-103776653D01*
X136155823Y-103807386D01*
X136134791Y-103819529D01*
X136134785Y-103819533D01*
X136069533Y-103884785D01*
X136069526Y-103884794D01*
X136023388Y-103964706D01*
X136023387Y-103964709D01*
X136023386Y-103964711D01*
X136023386Y-103964712D01*
X136009855Y-104015212D01*
X135999500Y-104053856D01*
X135999500Y-104146143D01*
X136023387Y-104235290D01*
X136023388Y-104235293D01*
X136069526Y-104315205D01*
X136069529Y-104315209D01*
X136069531Y-104315212D01*
X136134788Y-104380469D01*
X136134791Y-104380470D01*
X136134794Y-104380473D01*
X136214706Y-104426611D01*
X136214707Y-104426611D01*
X136214712Y-104426614D01*
X136303856Y-104450500D01*
X136303858Y-104450500D01*
X136396142Y-104450500D01*
X136396144Y-104450500D01*
X136485288Y-104426614D01*
X136565212Y-104380469D01*
X136630469Y-104315212D01*
X136676614Y-104235288D01*
X136700500Y-104146144D01*
X136700500Y-104053856D01*
X136676614Y-103964712D01*
X136676611Y-103964706D01*
X136630473Y-103884794D01*
X136630470Y-103884791D01*
X136630469Y-103884788D01*
X136565212Y-103819531D01*
X136537570Y-103803571D01*
X136531482Y-103798977D01*
X136515021Y-103776808D01*
X136495962Y-103756820D01*
X136495391Y-103753856D01*
X137799500Y-103753856D01*
X137799500Y-103846144D01*
X137822828Y-103933207D01*
X137823387Y-103935290D01*
X137823388Y-103935293D01*
X137869526Y-104015205D01*
X137869529Y-104015209D01*
X137869531Y-104015212D01*
X137934788Y-104080469D01*
X137934791Y-104080470D01*
X137934794Y-104080473D01*
X138014706Y-104126611D01*
X138014707Y-104126611D01*
X138014712Y-104126614D01*
X138103856Y-104150500D01*
X138103858Y-104150500D01*
X138196142Y-104150500D01*
X138196144Y-104150500D01*
X138285288Y-104126614D01*
X138365212Y-104080469D01*
X138430469Y-104015212D01*
X138476614Y-103935288D01*
X138500500Y-103846144D01*
X138500500Y-103753856D01*
X138476614Y-103664712D01*
X138476613Y-103664711D01*
X138476613Y-103664709D01*
X138446599Y-103612726D01*
X138433764Y-103590495D01*
X138417291Y-103522598D01*
X138440142Y-103456571D01*
X138459627Y-103436378D01*
X138459465Y-103436216D01*
X138492295Y-103403386D01*
X138530469Y-103365212D01*
X138576614Y-103285288D01*
X138600500Y-103196144D01*
X138600500Y-103153856D01*
X144249500Y-103153856D01*
X144249500Y-103246144D01*
X144267705Y-103314087D01*
X144273387Y-103335290D01*
X144273388Y-103335293D01*
X144319526Y-103415205D01*
X144319529Y-103415209D01*
X144319531Y-103415212D01*
X144384788Y-103480469D01*
X144384791Y-103480470D01*
X144384794Y-103480473D01*
X144464706Y-103526611D01*
X144464707Y-103526611D01*
X144464712Y-103526614D01*
X144553856Y-103550500D01*
X144553858Y-103550500D01*
X144646142Y-103550500D01*
X144646144Y-103550500D01*
X144735288Y-103526614D01*
X144768787Y-103507273D01*
X147166500Y-103507273D01*
X147166500Y-103612727D01*
X147193793Y-103714587D01*
X147246520Y-103805913D01*
X147321087Y-103880480D01*
X147412413Y-103933207D01*
X147514273Y-103960500D01*
X147514275Y-103960500D01*
X147619725Y-103960500D01*
X147619727Y-103960500D01*
X147721587Y-103933207D01*
X147812913Y-103880480D01*
X147887480Y-103805913D01*
X147940207Y-103714587D01*
X147967500Y-103612727D01*
X147967500Y-103507273D01*
X147940207Y-103405413D01*
X147887480Y-103314087D01*
X147812913Y-103239520D01*
X147767250Y-103213156D01*
X147721589Y-103186794D01*
X147721588Y-103186793D01*
X147721587Y-103186793D01*
X147619727Y-103159500D01*
X147514273Y-103159500D01*
X147412413Y-103186793D01*
X147412410Y-103186794D01*
X147321085Y-103239521D01*
X147246521Y-103314085D01*
X147193794Y-103405410D01*
X147193793Y-103405413D01*
X147166500Y-103507273D01*
X144768787Y-103507273D01*
X144815212Y-103480469D01*
X144880469Y-103415212D01*
X144926614Y-103335288D01*
X144950500Y-103246144D01*
X144950500Y-103153856D01*
X148449500Y-103153856D01*
X148449500Y-103246144D01*
X148467705Y-103314087D01*
X148473387Y-103335290D01*
X148473388Y-103335293D01*
X148519526Y-103415205D01*
X148524478Y-103421658D01*
X148522549Y-103423137D01*
X148550127Y-103473663D01*
X148545130Y-103543354D01*
X148523250Y-103577400D01*
X148524478Y-103578342D01*
X148519526Y-103584794D01*
X148473388Y-103664706D01*
X148473387Y-103664709D01*
X148473386Y-103664711D01*
X148473386Y-103664712D01*
X148449500Y-103753856D01*
X148449500Y-103846144D01*
X148472828Y-103933207D01*
X148473387Y-103935290D01*
X148473388Y-103935293D01*
X148519526Y-104015205D01*
X148519529Y-104015209D01*
X148519531Y-104015212D01*
X148584788Y-104080469D01*
X148584791Y-104080470D01*
X148584794Y-104080473D01*
X148664706Y-104126611D01*
X148664707Y-104126611D01*
X148664712Y-104126614D01*
X148753856Y-104150500D01*
X148753858Y-104150500D01*
X148846142Y-104150500D01*
X148846144Y-104150500D01*
X148935288Y-104126614D01*
X149015212Y-104080469D01*
X149080469Y-104015212D01*
X149126614Y-103935288D01*
X149150500Y-103846144D01*
X149150500Y-103753856D01*
X149126614Y-103664712D01*
X149117534Y-103648985D01*
X149080473Y-103584794D01*
X149080470Y-103584791D01*
X149080469Y-103584788D01*
X149080466Y-103584785D01*
X149075522Y-103578342D01*
X149077453Y-103576860D01*
X149049877Y-103526358D01*
X149054861Y-103456666D01*
X149076752Y-103422602D01*
X149075522Y-103421658D01*
X149080463Y-103415217D01*
X149080469Y-103415212D01*
X149126614Y-103335288D01*
X149150500Y-103246144D01*
X149150500Y-103153856D01*
X149126614Y-103064712D01*
X149126611Y-103064706D01*
X149080473Y-102984794D01*
X149080470Y-102984791D01*
X149080469Y-102984788D01*
X149015212Y-102919531D01*
X149015209Y-102919529D01*
X149015205Y-102919526D01*
X148935293Y-102873388D01*
X148935290Y-102873387D01*
X148935289Y-102873386D01*
X148935288Y-102873386D01*
X148846144Y-102849500D01*
X148753856Y-102849500D01*
X148664712Y-102873386D01*
X148664711Y-102873386D01*
X148664709Y-102873387D01*
X148664706Y-102873388D01*
X148584794Y-102919526D01*
X148584785Y-102919533D01*
X148519533Y-102984785D01*
X148519526Y-102984794D01*
X148473388Y-103064706D01*
X148473387Y-103064709D01*
X148473386Y-103064711D01*
X148473386Y-103064712D01*
X148449500Y-103153856D01*
X144950500Y-103153856D01*
X144926614Y-103064712D01*
X144926611Y-103064706D01*
X144880473Y-102984794D01*
X144880470Y-102984791D01*
X144880469Y-102984788D01*
X144815212Y-102919531D01*
X144815209Y-102919529D01*
X144815205Y-102919526D01*
X144735293Y-102873388D01*
X144735290Y-102873387D01*
X144735289Y-102873386D01*
X144735288Y-102873386D01*
X144646144Y-102849500D01*
X144553856Y-102849500D01*
X144464712Y-102873386D01*
X144464711Y-102873386D01*
X144464709Y-102873387D01*
X144464706Y-102873388D01*
X144384794Y-102919526D01*
X144384785Y-102919533D01*
X144319533Y-102984785D01*
X144319526Y-102984794D01*
X144273388Y-103064706D01*
X144273387Y-103064709D01*
X144273386Y-103064711D01*
X144273386Y-103064712D01*
X144249500Y-103153856D01*
X138600500Y-103153856D01*
X138600500Y-103103856D01*
X138576614Y-103014712D01*
X138559341Y-102984794D01*
X138530473Y-102934794D01*
X138530470Y-102934791D01*
X138530469Y-102934788D01*
X138465212Y-102869531D01*
X138465209Y-102869529D01*
X138465205Y-102869526D01*
X138385293Y-102823388D01*
X138385290Y-102823387D01*
X138385289Y-102823386D01*
X138385288Y-102823386D01*
X138296144Y-102799500D01*
X138203856Y-102799500D01*
X138114712Y-102823386D01*
X138114711Y-102823386D01*
X138114709Y-102823387D01*
X138114706Y-102823388D01*
X138034794Y-102869526D01*
X138034785Y-102869533D01*
X137969533Y-102934785D01*
X137969526Y-102934794D01*
X137923388Y-103014706D01*
X137923387Y-103014709D01*
X137899500Y-103103856D01*
X137899500Y-103196143D01*
X137923386Y-103285290D01*
X137966234Y-103359501D01*
X137982708Y-103427401D01*
X137959856Y-103493429D01*
X137940373Y-103513622D01*
X137940535Y-103513784D01*
X137869533Y-103584785D01*
X137869526Y-103584794D01*
X137823388Y-103664706D01*
X137823387Y-103664709D01*
X137823386Y-103664711D01*
X137823386Y-103664712D01*
X137799500Y-103753856D01*
X136495391Y-103753856D01*
X136494483Y-103749149D01*
X136489829Y-103742881D01*
X136487966Y-103715334D01*
X136482739Y-103688213D01*
X136485641Y-103680962D01*
X136485115Y-103673171D01*
X136498444Y-103648985D01*
X136508708Y-103623348D01*
X136516105Y-103616938D01*
X136518839Y-103611978D01*
X136526800Y-103607670D01*
X136544178Y-103592613D01*
X136565212Y-103580469D01*
X136630469Y-103515212D01*
X136676614Y-103435288D01*
X136700500Y-103346144D01*
X136700500Y-103253856D01*
X136676614Y-103164712D01*
X136673605Y-103159500D01*
X136630473Y-103084794D01*
X136630470Y-103084791D01*
X136630469Y-103084788D01*
X136565212Y-103019531D01*
X136565209Y-103019529D01*
X136565205Y-103019526D01*
X136485293Y-102973388D01*
X136485290Y-102973387D01*
X136485289Y-102973386D01*
X136485288Y-102973386D01*
X136396144Y-102949500D01*
X136303856Y-102949500D01*
X136214712Y-102973386D01*
X136214711Y-102973386D01*
X136214709Y-102973387D01*
X136214706Y-102973388D01*
X136134794Y-103019526D01*
X136134785Y-103019533D01*
X136069533Y-103084785D01*
X136069526Y-103084794D01*
X136023388Y-103164706D01*
X136023387Y-103164709D01*
X136023386Y-103164711D01*
X136023386Y-103164712D01*
X135999500Y-103253856D01*
X126050500Y-103253856D01*
X126050500Y-102553856D01*
X131899500Y-102553856D01*
X131899500Y-102646144D01*
X131904609Y-102665212D01*
X131923387Y-102735290D01*
X131923388Y-102735293D01*
X131969526Y-102815205D01*
X131969529Y-102815209D01*
X131969531Y-102815212D01*
X132034788Y-102880469D01*
X132034791Y-102880470D01*
X132034794Y-102880473D01*
X132114706Y-102926611D01*
X132114707Y-102926611D01*
X132114712Y-102926614D01*
X132203856Y-102950500D01*
X132203858Y-102950500D01*
X132296142Y-102950500D01*
X132296144Y-102950500D01*
X132385288Y-102926614D01*
X132465212Y-102880469D01*
X132530469Y-102815212D01*
X132576614Y-102735288D01*
X132600500Y-102646144D01*
X132600500Y-102553856D01*
X132576614Y-102464712D01*
X132576611Y-102464706D01*
X132572583Y-102457729D01*
X132541478Y-102403856D01*
X132949500Y-102403856D01*
X132949500Y-102496144D01*
X132964964Y-102553858D01*
X132973387Y-102585290D01*
X132973388Y-102585293D01*
X133019526Y-102665205D01*
X133019529Y-102665209D01*
X133019531Y-102665212D01*
X133084788Y-102730469D01*
X133084791Y-102730470D01*
X133084794Y-102730473D01*
X133164706Y-102776611D01*
X133164707Y-102776611D01*
X133164712Y-102776614D01*
X133253856Y-102800500D01*
X133253858Y-102800500D01*
X133346142Y-102800500D01*
X133346144Y-102800500D01*
X133435288Y-102776614D01*
X133515212Y-102730469D01*
X133580469Y-102665212D01*
X133626614Y-102585288D01*
X133635036Y-102553856D01*
X140049500Y-102553856D01*
X140049500Y-102646144D01*
X140054609Y-102665212D01*
X140073387Y-102735290D01*
X140073388Y-102735293D01*
X140119526Y-102815205D01*
X140119529Y-102815209D01*
X140119531Y-102815212D01*
X140184788Y-102880469D01*
X140184791Y-102880470D01*
X140184794Y-102880473D01*
X140264706Y-102926611D01*
X140264707Y-102926611D01*
X140264712Y-102926614D01*
X140353856Y-102950500D01*
X140353858Y-102950500D01*
X140446142Y-102950500D01*
X140446144Y-102950500D01*
X140535288Y-102926614D01*
X140615212Y-102880469D01*
X140680469Y-102815212D01*
X140726614Y-102735288D01*
X140750500Y-102646144D01*
X140750500Y-102553856D01*
X140726614Y-102464712D01*
X140726611Y-102464706D01*
X140680473Y-102384794D01*
X140680470Y-102384791D01*
X140680469Y-102384788D01*
X140615212Y-102319531D01*
X140615209Y-102319529D01*
X140615205Y-102319526D01*
X140535293Y-102273388D01*
X140535290Y-102273387D01*
X140535289Y-102273386D01*
X140535288Y-102273386D01*
X140446144Y-102249500D01*
X140353856Y-102249500D01*
X140264712Y-102273386D01*
X140264711Y-102273386D01*
X140264709Y-102273387D01*
X140264706Y-102273388D01*
X140184794Y-102319526D01*
X140184785Y-102319533D01*
X140119533Y-102384785D01*
X140119526Y-102384794D01*
X140073388Y-102464706D01*
X140073387Y-102464709D01*
X140073386Y-102464711D01*
X140073386Y-102464712D01*
X140049500Y-102553856D01*
X133635036Y-102553856D01*
X133650500Y-102496144D01*
X133650500Y-102403856D01*
X133626614Y-102314712D01*
X133626611Y-102314706D01*
X133580473Y-102234794D01*
X133580470Y-102234791D01*
X133580469Y-102234788D01*
X133515212Y-102169531D01*
X133515209Y-102169529D01*
X133515205Y-102169526D01*
X133435293Y-102123388D01*
X133435292Y-102123387D01*
X133431652Y-102122411D01*
X133405869Y-102115503D01*
X133378711Y-102108226D01*
X133346144Y-102099500D01*
X133253856Y-102099500D01*
X133164712Y-102123386D01*
X133164711Y-102123386D01*
X133164709Y-102123387D01*
X133164706Y-102123388D01*
X133084794Y-102169526D01*
X133084785Y-102169533D01*
X133019533Y-102234785D01*
X133019526Y-102234794D01*
X132973388Y-102314706D01*
X132973387Y-102314709D01*
X132973386Y-102314711D01*
X132973386Y-102314712D01*
X132949500Y-102403856D01*
X132541478Y-102403856D01*
X132539540Y-102400500D01*
X132530469Y-102384788D01*
X132465212Y-102319531D01*
X132465209Y-102319529D01*
X132465205Y-102319526D01*
X132385293Y-102273388D01*
X132385290Y-102273387D01*
X132385289Y-102273386D01*
X132385288Y-102273386D01*
X132296144Y-102249500D01*
X132203856Y-102249500D01*
X132114712Y-102273386D01*
X132114711Y-102273386D01*
X132114709Y-102273387D01*
X132114706Y-102273388D01*
X132034794Y-102319526D01*
X132034785Y-102319533D01*
X131969533Y-102384785D01*
X131969526Y-102384794D01*
X131923388Y-102464706D01*
X131923387Y-102464709D01*
X131923386Y-102464711D01*
X131923386Y-102464712D01*
X131899500Y-102553856D01*
X126050500Y-102553856D01*
X126050500Y-102003856D01*
X137549500Y-102003856D01*
X137549500Y-102096144D01*
X137569164Y-102169533D01*
X137573387Y-102185290D01*
X137573388Y-102185293D01*
X137619526Y-102265205D01*
X137619529Y-102265209D01*
X137619531Y-102265212D01*
X137684788Y-102330469D01*
X137684791Y-102330470D01*
X137684794Y-102330473D01*
X137764706Y-102376611D01*
X137764707Y-102376611D01*
X137764712Y-102376614D01*
X137853856Y-102400500D01*
X137853858Y-102400500D01*
X137946142Y-102400500D01*
X137946144Y-102400500D01*
X138035288Y-102376614D01*
X138115212Y-102330469D01*
X138180469Y-102265212D01*
X138226614Y-102185288D01*
X138250500Y-102096144D01*
X138250500Y-102003856D01*
X138226614Y-101914712D01*
X138180469Y-101834788D01*
X138115212Y-101769531D01*
X138115209Y-101769529D01*
X138115205Y-101769526D01*
X138088064Y-101753856D01*
X138449500Y-101753856D01*
X138449500Y-101846144D01*
X138473386Y-101935288D01*
X138519531Y-102015212D01*
X138584788Y-102080469D01*
X138584791Y-102080470D01*
X138584794Y-102080473D01*
X138664706Y-102126611D01*
X138664707Y-102126611D01*
X138664712Y-102126614D01*
X138753856Y-102150500D01*
X138753858Y-102150500D01*
X138846142Y-102150500D01*
X138846144Y-102150500D01*
X138935288Y-102126614D01*
X139015212Y-102080469D01*
X139080469Y-102015212D01*
X139126614Y-101935288D01*
X139150500Y-101846144D01*
X139150500Y-101753856D01*
X139126614Y-101664712D01*
X139098031Y-101615205D01*
X139080473Y-101584794D01*
X139080470Y-101584791D01*
X139080469Y-101584788D01*
X139015212Y-101519531D01*
X139015209Y-101519529D01*
X139015205Y-101519526D01*
X138935293Y-101473388D01*
X138935290Y-101473387D01*
X138935289Y-101473386D01*
X138935288Y-101473386D01*
X138846144Y-101449500D01*
X138753856Y-101449500D01*
X138664712Y-101473386D01*
X138664711Y-101473386D01*
X138664709Y-101473387D01*
X138664706Y-101473388D01*
X138584794Y-101519526D01*
X138584785Y-101519533D01*
X138519533Y-101584785D01*
X138519526Y-101584794D01*
X138473388Y-101664706D01*
X138473387Y-101664709D01*
X138473386Y-101664711D01*
X138473386Y-101664712D01*
X138449500Y-101753856D01*
X138088064Y-101753856D01*
X138035293Y-101723388D01*
X138035290Y-101723387D01*
X138035289Y-101723386D01*
X138035288Y-101723386D01*
X137946144Y-101699500D01*
X137853856Y-101699500D01*
X137764712Y-101723386D01*
X137764711Y-101723386D01*
X137764709Y-101723387D01*
X137764706Y-101723388D01*
X137684794Y-101769526D01*
X137684785Y-101769533D01*
X137619533Y-101834785D01*
X137619526Y-101834794D01*
X137573388Y-101914706D01*
X137573387Y-101914709D01*
X137573386Y-101914711D01*
X137573386Y-101914712D01*
X137549500Y-102003856D01*
X126050500Y-102003856D01*
X126050500Y-101353856D01*
X133999500Y-101353856D01*
X133999500Y-101446144D01*
X134019164Y-101519533D01*
X134023387Y-101535290D01*
X134023388Y-101535293D01*
X134069526Y-101615205D01*
X134069529Y-101615209D01*
X134069531Y-101615212D01*
X134134788Y-101680469D01*
X134134791Y-101680470D01*
X134134794Y-101680473D01*
X134214706Y-101726611D01*
X134214707Y-101726611D01*
X134214712Y-101726614D01*
X134303856Y-101750500D01*
X134303858Y-101750500D01*
X134396142Y-101750500D01*
X134396144Y-101750500D01*
X134485288Y-101726614D01*
X134565212Y-101680469D01*
X134630469Y-101615212D01*
X134676614Y-101535288D01*
X134700500Y-101446144D01*
X134700500Y-101353856D01*
X134676614Y-101264712D01*
X134648031Y-101215205D01*
X134630473Y-101184794D01*
X134630470Y-101184791D01*
X134630469Y-101184788D01*
X134565212Y-101119531D01*
X134565209Y-101119529D01*
X134565205Y-101119526D01*
X134485293Y-101073388D01*
X134485290Y-101073387D01*
X134485289Y-101073386D01*
X134485288Y-101073386D01*
X134396144Y-101049500D01*
X134303856Y-101049500D01*
X134214712Y-101073386D01*
X134214711Y-101073386D01*
X134214709Y-101073387D01*
X134214706Y-101073388D01*
X134134794Y-101119526D01*
X134134785Y-101119533D01*
X134069533Y-101184785D01*
X134069526Y-101184794D01*
X134023388Y-101264706D01*
X134023387Y-101264709D01*
X134023386Y-101264711D01*
X134023386Y-101264712D01*
X133999500Y-101353856D01*
X126050500Y-101353856D01*
X126050500Y-100043766D01*
X130654500Y-100043766D01*
X130654500Y-100216233D01*
X130688143Y-100385366D01*
X130688146Y-100385378D01*
X130754138Y-100544698D01*
X130754145Y-100544711D01*
X130849954Y-100688098D01*
X130849957Y-100688102D01*
X130971897Y-100810042D01*
X130971901Y-100810045D01*
X131115288Y-100905854D01*
X131115301Y-100905861D01*
X131231177Y-100953858D01*
X131274626Y-100971855D01*
X131443766Y-101005499D01*
X131443769Y-101005500D01*
X131443771Y-101005500D01*
X131616231Y-101005500D01*
X131616232Y-101005499D01*
X131785374Y-100971855D01*
X131944705Y-100905858D01*
X132088099Y-100810045D01*
X132210045Y-100688099D01*
X132305858Y-100544705D01*
X132371855Y-100385374D01*
X132405500Y-100216229D01*
X132405500Y-100043771D01*
X132405500Y-100043768D01*
X132386832Y-99949921D01*
X132386832Y-99949920D01*
X132383636Y-99933856D01*
X133909500Y-99933856D01*
X133909500Y-100026144D01*
X133927455Y-100093154D01*
X133933387Y-100115290D01*
X133933388Y-100115293D01*
X133979526Y-100195205D01*
X133979529Y-100195209D01*
X133979531Y-100195212D01*
X134044788Y-100260469D01*
X134044791Y-100260470D01*
X134044794Y-100260473D01*
X134124706Y-100306611D01*
X134124707Y-100306611D01*
X134124712Y-100306614D01*
X134213856Y-100330500D01*
X134213858Y-100330500D01*
X134306142Y-100330500D01*
X134306144Y-100330500D01*
X134395288Y-100306614D01*
X134475212Y-100260469D01*
X134540469Y-100195212D01*
X134586614Y-100115288D01*
X134610500Y-100026144D01*
X134610500Y-100026137D01*
X134610799Y-100023867D01*
X134611587Y-100022084D01*
X134612603Y-100018294D01*
X134613193Y-100018452D01*
X134639060Y-99959968D01*
X134697382Y-99921493D01*
X134701598Y-99920282D01*
X134715288Y-99916614D01*
X134795212Y-99870469D01*
X134860469Y-99805212D01*
X134906614Y-99725288D01*
X134930500Y-99636144D01*
X134930500Y-99543856D01*
X134919782Y-99503856D01*
X135439500Y-99503856D01*
X135439500Y-99596144D01*
X135460763Y-99675500D01*
X135463387Y-99685290D01*
X135463388Y-99685293D01*
X135509526Y-99765205D01*
X135509529Y-99765209D01*
X135509531Y-99765212D01*
X135574788Y-99830469D01*
X135574791Y-99830470D01*
X135574794Y-99830473D01*
X135654706Y-99876611D01*
X135654707Y-99876611D01*
X135654712Y-99876614D01*
X135743856Y-99900500D01*
X135743858Y-99900500D01*
X135836142Y-99900500D01*
X135836144Y-99900500D01*
X135925288Y-99876614D01*
X135979338Y-99845407D01*
X136047236Y-99828933D01*
X136103340Y-99845407D01*
X136174706Y-99886611D01*
X136174707Y-99886611D01*
X136174712Y-99886614D01*
X136263856Y-99910500D01*
X136263858Y-99910500D01*
X136356142Y-99910500D01*
X136356144Y-99910500D01*
X136445288Y-99886614D01*
X136525212Y-99840469D01*
X136590469Y-99775212D01*
X136636614Y-99695288D01*
X136660500Y-99606144D01*
X136660500Y-99513856D01*
X136636614Y-99424712D01*
X136636611Y-99424706D01*
X136590473Y-99344794D01*
X136590470Y-99344791D01*
X136590469Y-99344788D01*
X136525212Y-99279531D01*
X136525209Y-99279529D01*
X136525205Y-99279526D01*
X136445293Y-99233388D01*
X136445290Y-99233387D01*
X136445289Y-99233386D01*
X136445288Y-99233386D01*
X136356144Y-99209500D01*
X136263856Y-99209500D01*
X136174711Y-99233386D01*
X136164122Y-99239500D01*
X136122752Y-99263386D01*
X136120661Y-99264593D01*
X136052761Y-99281066D01*
X135996659Y-99264593D01*
X135994568Y-99263386D01*
X135925288Y-99223386D01*
X135836144Y-99199500D01*
X135743856Y-99199500D01*
X135654712Y-99223386D01*
X135654711Y-99223386D01*
X135654709Y-99223387D01*
X135654706Y-99223388D01*
X135574794Y-99269526D01*
X135574785Y-99269533D01*
X135509533Y-99334785D01*
X135509526Y-99334794D01*
X135463388Y-99414706D01*
X135463387Y-99414709D01*
X135463386Y-99414711D01*
X135463386Y-99414712D01*
X135439500Y-99503856D01*
X134919782Y-99503856D01*
X134906614Y-99454712D01*
X134903869Y-99449957D01*
X134860473Y-99374794D01*
X134860470Y-99374791D01*
X134860469Y-99374788D01*
X134795212Y-99309531D01*
X134795209Y-99309529D01*
X134795205Y-99309526D01*
X134715293Y-99263388D01*
X134715290Y-99263387D01*
X134715289Y-99263386D01*
X134715288Y-99263386D01*
X134626144Y-99239500D01*
X134533856Y-99239500D01*
X134444712Y-99263386D01*
X134444711Y-99263386D01*
X134444709Y-99263387D01*
X134444706Y-99263388D01*
X134364794Y-99309526D01*
X134364785Y-99309533D01*
X134299533Y-99374785D01*
X134299526Y-99374794D01*
X134253388Y-99454706D01*
X134253387Y-99454709D01*
X134229500Y-99543855D01*
X134229199Y-99546145D01*
X134228407Y-99547932D01*
X134227397Y-99551706D01*
X134226808Y-99551548D01*
X134200930Y-99610041D01*
X134142605Y-99648510D01*
X134138355Y-99649730D01*
X134124713Y-99653385D01*
X134124706Y-99653388D01*
X134044794Y-99699526D01*
X134044785Y-99699533D01*
X133979533Y-99764785D01*
X133979526Y-99764794D01*
X133933388Y-99844706D01*
X133933387Y-99844709D01*
X133933386Y-99844711D01*
X133933386Y-99844712D01*
X133909500Y-99933856D01*
X132383636Y-99933856D01*
X132377001Y-99900499D01*
X132371855Y-99874626D01*
X132369743Y-99869526D01*
X132305861Y-99715301D01*
X132305854Y-99715288D01*
X132210045Y-99571901D01*
X132210042Y-99571897D01*
X132088102Y-99449957D01*
X132088098Y-99449954D01*
X131944711Y-99354145D01*
X131944698Y-99354138D01*
X131785378Y-99288146D01*
X131785366Y-99288143D01*
X131616232Y-99254500D01*
X131616229Y-99254500D01*
X131443771Y-99254500D01*
X131443768Y-99254500D01*
X131274633Y-99288143D01*
X131274621Y-99288146D01*
X131115301Y-99354138D01*
X131115288Y-99354145D01*
X130971901Y-99449954D01*
X130971897Y-99449957D01*
X130849957Y-99571897D01*
X130849954Y-99571901D01*
X130754145Y-99715288D01*
X130754138Y-99715301D01*
X130688146Y-99874621D01*
X130688143Y-99874633D01*
X130654500Y-100043766D01*
X126050500Y-100043766D01*
X126050500Y-99103856D01*
X144149500Y-99103856D01*
X144149500Y-99196144D01*
X144171843Y-99279531D01*
X144173387Y-99285290D01*
X144173388Y-99285293D01*
X144219526Y-99365205D01*
X144219529Y-99365209D01*
X144219531Y-99365212D01*
X144284788Y-99430469D01*
X144284791Y-99430470D01*
X144284794Y-99430473D01*
X144364706Y-99476611D01*
X144364707Y-99476611D01*
X144364712Y-99476614D01*
X144453856Y-99500500D01*
X144453858Y-99500500D01*
X144475500Y-99500500D01*
X144484185Y-99503050D01*
X144493147Y-99501762D01*
X144517187Y-99512740D01*
X144542539Y-99520185D01*
X144548466Y-99527025D01*
X144556703Y-99530787D01*
X144570992Y-99553021D01*
X144588294Y-99572989D01*
X144590581Y-99583503D01*
X144594477Y-99589565D01*
X144599500Y-99624500D01*
X144599500Y-99675500D01*
X144579815Y-99742539D01*
X144527011Y-99788294D01*
X144475500Y-99799500D01*
X144453856Y-99799500D01*
X144364712Y-99823386D01*
X144364711Y-99823386D01*
X144364709Y-99823387D01*
X144364706Y-99823388D01*
X144284794Y-99869526D01*
X144284785Y-99869533D01*
X144219533Y-99934785D01*
X144219526Y-99934794D01*
X144173388Y-100014706D01*
X144173387Y-100014709D01*
X144173386Y-100014711D01*
X144173386Y-100014712D01*
X144149500Y-100103856D01*
X144149500Y-100196144D01*
X144167872Y-100264711D01*
X144173387Y-100285290D01*
X144173388Y-100285293D01*
X144219526Y-100365205D01*
X144219529Y-100365209D01*
X144219531Y-100365212D01*
X144284788Y-100430469D01*
X144284791Y-100430470D01*
X144284794Y-100430473D01*
X144364706Y-100476611D01*
X144364707Y-100476612D01*
X144364709Y-100476612D01*
X144364712Y-100476614D01*
X144452250Y-100500069D01*
X144511909Y-100536434D01*
X144539930Y-100587749D01*
X144563386Y-100675288D01*
X144563387Y-100675290D01*
X144563388Y-100675293D01*
X144609526Y-100755205D01*
X144609529Y-100755209D01*
X144609531Y-100755212D01*
X144674788Y-100820469D01*
X144674791Y-100820470D01*
X144674794Y-100820473D01*
X144754706Y-100866611D01*
X144754707Y-100866611D01*
X144754712Y-100866614D01*
X144843856Y-100890500D01*
X144843858Y-100890500D01*
X144936142Y-100890500D01*
X144936144Y-100890500D01*
X145025288Y-100866614D01*
X145105212Y-100820469D01*
X145170469Y-100755212D01*
X145216614Y-100675288D01*
X145240500Y-100586144D01*
X145240500Y-100493856D01*
X145216614Y-100404712D01*
X145187252Y-100353856D01*
X146149500Y-100353856D01*
X146149500Y-100446144D01*
X146168007Y-100515214D01*
X146173387Y-100535290D01*
X146173387Y-100535291D01*
X146203819Y-100588000D01*
X146220292Y-100655900D01*
X146203819Y-100712000D01*
X146173387Y-100764708D01*
X146173387Y-100764709D01*
X146173386Y-100764711D01*
X146173386Y-100764712D01*
X146149500Y-100853856D01*
X146149500Y-100946144D01*
X146165404Y-101005500D01*
X146173387Y-101035290D01*
X146173388Y-101035293D01*
X146219526Y-101115205D01*
X146219529Y-101115209D01*
X146219531Y-101115212D01*
X146284788Y-101180469D01*
X146284791Y-101180470D01*
X146284794Y-101180473D01*
X146364706Y-101226611D01*
X146364707Y-101226611D01*
X146364712Y-101226614D01*
X146453856Y-101250500D01*
X146453858Y-101250500D01*
X146546142Y-101250500D01*
X146546144Y-101250500D01*
X146635288Y-101226614D01*
X146715212Y-101180469D01*
X146780469Y-101115212D01*
X146826614Y-101035288D01*
X146848434Y-100953856D01*
X150299500Y-100953856D01*
X150299500Y-101046144D01*
X150319164Y-101119533D01*
X150323387Y-101135290D01*
X150323388Y-101135293D01*
X150369526Y-101215205D01*
X150369529Y-101215209D01*
X150369531Y-101215212D01*
X150434788Y-101280469D01*
X150434791Y-101280470D01*
X150434794Y-101280473D01*
X150514706Y-101326611D01*
X150514707Y-101326611D01*
X150514712Y-101326614D01*
X150603856Y-101350500D01*
X150603858Y-101350500D01*
X150696142Y-101350500D01*
X150696144Y-101350500D01*
X150785288Y-101326614D01*
X150865212Y-101280469D01*
X150930469Y-101215212D01*
X150976614Y-101135288D01*
X151000500Y-101046144D01*
X151000500Y-100953856D01*
X150976614Y-100864712D01*
X150976611Y-100864706D01*
X150930473Y-100784794D01*
X150930470Y-100784791D01*
X150930469Y-100784788D01*
X150865212Y-100719531D01*
X150865209Y-100719529D01*
X150865205Y-100719526D01*
X150785293Y-100673388D01*
X150785290Y-100673387D01*
X150785289Y-100673386D01*
X150785288Y-100673386D01*
X150696144Y-100649500D01*
X150603856Y-100649500D01*
X150514712Y-100673386D01*
X150514711Y-100673386D01*
X150514709Y-100673387D01*
X150514706Y-100673388D01*
X150434794Y-100719526D01*
X150434785Y-100719533D01*
X150369533Y-100784785D01*
X150369526Y-100784794D01*
X150323388Y-100864706D01*
X150323387Y-100864709D01*
X150323386Y-100864711D01*
X150323386Y-100864712D01*
X150299500Y-100953856D01*
X146848434Y-100953856D01*
X146850500Y-100946144D01*
X146850500Y-100853856D01*
X146826614Y-100764712D01*
X146826613Y-100764711D01*
X146826613Y-100764709D01*
X146796181Y-100712002D01*
X146779707Y-100644102D01*
X146796181Y-100587998D01*
X146797252Y-100586144D01*
X146826614Y-100535288D01*
X146850500Y-100446144D01*
X146850500Y-100353856D01*
X146826614Y-100264712D01*
X146824167Y-100260473D01*
X146820347Y-100253856D01*
X151249500Y-100253856D01*
X151249500Y-100346144D01*
X151265193Y-100404712D01*
X151273387Y-100435290D01*
X151273388Y-100435293D01*
X151319526Y-100515205D01*
X151319529Y-100515209D01*
X151319531Y-100515212D01*
X151384788Y-100580469D01*
X151384791Y-100580470D01*
X151384794Y-100580473D01*
X151464706Y-100626611D01*
X151464707Y-100626611D01*
X151464712Y-100626614D01*
X151553856Y-100650500D01*
X151553858Y-100650500D01*
X151646142Y-100650500D01*
X151646144Y-100650500D01*
X151735288Y-100626614D01*
X151815212Y-100580469D01*
X151880469Y-100515212D01*
X151926614Y-100435288D01*
X151950500Y-100346144D01*
X151950500Y-100253856D01*
X151926614Y-100164712D01*
X151926611Y-100164706D01*
X151880473Y-100084794D01*
X151880470Y-100084791D01*
X151880469Y-100084788D01*
X151815212Y-100019531D01*
X151815209Y-100019529D01*
X151815205Y-100019526D01*
X151735293Y-99973388D01*
X151735290Y-99973387D01*
X151735289Y-99973386D01*
X151735288Y-99973386D01*
X151646144Y-99949500D01*
X151553856Y-99949500D01*
X151464712Y-99973386D01*
X151464711Y-99973386D01*
X151464709Y-99973387D01*
X151464706Y-99973388D01*
X151384794Y-100019526D01*
X151384785Y-100019533D01*
X151319533Y-100084785D01*
X151319526Y-100084794D01*
X151273388Y-100164706D01*
X151273387Y-100164709D01*
X151273386Y-100164711D01*
X151273386Y-100164712D01*
X151249500Y-100253856D01*
X146820347Y-100253856D01*
X146780473Y-100184794D01*
X146780470Y-100184791D01*
X146780469Y-100184788D01*
X146715212Y-100119531D01*
X146715209Y-100119529D01*
X146715205Y-100119526D01*
X146635293Y-100073388D01*
X146635290Y-100073387D01*
X146635289Y-100073386D01*
X146635288Y-100073386D01*
X146546144Y-100049500D01*
X146453856Y-100049500D01*
X146364712Y-100073386D01*
X146364711Y-100073386D01*
X146364709Y-100073387D01*
X146364706Y-100073388D01*
X146284794Y-100119526D01*
X146284785Y-100119533D01*
X146219533Y-100184785D01*
X146219526Y-100184794D01*
X146173388Y-100264706D01*
X146173387Y-100264709D01*
X146173386Y-100264711D01*
X146173386Y-100264712D01*
X146149500Y-100353856D01*
X145187252Y-100353856D01*
X145170469Y-100324788D01*
X145105212Y-100259531D01*
X145095383Y-100253856D01*
X145023457Y-100212328D01*
X144975242Y-100161761D01*
X144962020Y-100093154D01*
X144987988Y-100028289D01*
X145044903Y-99987761D01*
X145053354Y-99985170D01*
X145085288Y-99976614D01*
X145165212Y-99930469D01*
X145230469Y-99865212D01*
X145276614Y-99785288D01*
X145300500Y-99696144D01*
X145300500Y-99603856D01*
X150299500Y-99603856D01*
X150299500Y-99696144D01*
X150320686Y-99775212D01*
X150323387Y-99785290D01*
X150323388Y-99785293D01*
X150369526Y-99865205D01*
X150369529Y-99865209D01*
X150369531Y-99865212D01*
X150434788Y-99930469D01*
X150434791Y-99930470D01*
X150434794Y-99930473D01*
X150514706Y-99976611D01*
X150514707Y-99976611D01*
X150514712Y-99976614D01*
X150603856Y-100000500D01*
X150603858Y-100000500D01*
X150696142Y-100000500D01*
X150696144Y-100000500D01*
X150785288Y-99976614D01*
X150865212Y-99930469D01*
X150930469Y-99865212D01*
X150976614Y-99785288D01*
X151000500Y-99696144D01*
X151000500Y-99603856D01*
X150976614Y-99514712D01*
X150976120Y-99513856D01*
X150930473Y-99434794D01*
X150930470Y-99434791D01*
X150930469Y-99434788D01*
X150865212Y-99369531D01*
X150865209Y-99369529D01*
X150865205Y-99369526D01*
X150785293Y-99323388D01*
X150785290Y-99323387D01*
X150785289Y-99323386D01*
X150785288Y-99323386D01*
X150696144Y-99299500D01*
X150603856Y-99299500D01*
X150514712Y-99323386D01*
X150514711Y-99323386D01*
X150514709Y-99323387D01*
X150514706Y-99323388D01*
X150434794Y-99369526D01*
X150434785Y-99369533D01*
X150369533Y-99434785D01*
X150369526Y-99434794D01*
X150323388Y-99514706D01*
X150323387Y-99514709D01*
X150323386Y-99514711D01*
X150323386Y-99514712D01*
X150299500Y-99603856D01*
X145300500Y-99603856D01*
X145276614Y-99514712D01*
X145276120Y-99513856D01*
X145230473Y-99434794D01*
X145230470Y-99434791D01*
X145230469Y-99434788D01*
X145165212Y-99369531D01*
X145165209Y-99369529D01*
X145165205Y-99369526D01*
X145085293Y-99323388D01*
X145085290Y-99323387D01*
X145085289Y-99323386D01*
X145085288Y-99323386D01*
X144996144Y-99299500D01*
X144974500Y-99299500D01*
X144907461Y-99279815D01*
X144861706Y-99227011D01*
X144852877Y-99199663D01*
X144850500Y-99187698D01*
X144850500Y-99103856D01*
X144826614Y-99014712D01*
X144810634Y-98987034D01*
X144806642Y-98966940D01*
X144808007Y-98951725D01*
X144804405Y-98936880D01*
X144811066Y-98917633D01*
X144812886Y-98897350D01*
X144822260Y-98885288D01*
X144827256Y-98870853D01*
X144840285Y-98855450D01*
X144840463Y-98855217D01*
X144840469Y-98855212D01*
X144886614Y-98775288D01*
X144910500Y-98686144D01*
X144910500Y-98593856D01*
X144886614Y-98504712D01*
X144886611Y-98504706D01*
X144849634Y-98440661D01*
X144833160Y-98372761D01*
X144849634Y-98316659D01*
X144896611Y-98235293D01*
X144896610Y-98235293D01*
X144896614Y-98235288D01*
X144920500Y-98146144D01*
X144920500Y-98053856D01*
X144896614Y-97964712D01*
X144879220Y-97934586D01*
X144861596Y-97904060D01*
X144845123Y-97836160D01*
X144867975Y-97770133D01*
X144868226Y-97769781D01*
X144874129Y-97761551D01*
X144908408Y-97727273D01*
X147166500Y-97727273D01*
X147166500Y-97832727D01*
X147193793Y-97934587D01*
X147246520Y-98025913D01*
X147321087Y-98100480D01*
X147412413Y-98153207D01*
X147514273Y-98180500D01*
X147514275Y-98180500D01*
X147619725Y-98180500D01*
X147619727Y-98180500D01*
X147721587Y-98153207D01*
X147812913Y-98100480D01*
X147887480Y-98025913D01*
X147940207Y-97934587D01*
X147967500Y-97832727D01*
X147967500Y-97727273D01*
X147940207Y-97625413D01*
X147887480Y-97534087D01*
X147812913Y-97459520D01*
X147721587Y-97406793D01*
X147619727Y-97379500D01*
X147514273Y-97379500D01*
X147412413Y-97406793D01*
X147412410Y-97406794D01*
X147321085Y-97459521D01*
X147246521Y-97534085D01*
X147193794Y-97625410D01*
X147193793Y-97625413D01*
X147166500Y-97727273D01*
X144908408Y-97727273D01*
X144910469Y-97725212D01*
X144956614Y-97645288D01*
X144980500Y-97556144D01*
X144980500Y-97463856D01*
X144956614Y-97374712D01*
X144956611Y-97374706D01*
X144910473Y-97294794D01*
X144910470Y-97294791D01*
X144910469Y-97294788D01*
X144845212Y-97229531D01*
X144845209Y-97229529D01*
X144845205Y-97229526D01*
X144765293Y-97183388D01*
X144765290Y-97183387D01*
X144765289Y-97183386D01*
X144765288Y-97183386D01*
X144676144Y-97159500D01*
X144583856Y-97159500D01*
X144494712Y-97183386D01*
X144494711Y-97183386D01*
X144494709Y-97183387D01*
X144494706Y-97183388D01*
X144414794Y-97229526D01*
X144414785Y-97229533D01*
X144349533Y-97294785D01*
X144349526Y-97294794D01*
X144303388Y-97374706D01*
X144303387Y-97374709D01*
X144279500Y-97463856D01*
X144279500Y-97556143D01*
X144303386Y-97645288D01*
X144338403Y-97705938D01*
X144354876Y-97773838D01*
X144332024Y-97839865D01*
X144318700Y-97855618D01*
X144289531Y-97884788D01*
X144289526Y-97884794D01*
X144243388Y-97964706D01*
X144243387Y-97964709D01*
X144243387Y-97964710D01*
X144243386Y-97964712D01*
X144219500Y-98053856D01*
X144219500Y-98146144D01*
X144232159Y-98193387D01*
X144243386Y-98235288D01*
X144280366Y-98299338D01*
X144296839Y-98367238D01*
X144280366Y-98423339D01*
X144233387Y-98504708D01*
X144233387Y-98504709D01*
X144233386Y-98504711D01*
X144233386Y-98504712D01*
X144209500Y-98593856D01*
X144209500Y-98686144D01*
X144222646Y-98735205D01*
X144233386Y-98775288D01*
X144239121Y-98785221D01*
X144255594Y-98853121D01*
X144232742Y-98919148D01*
X144219709Y-98934556D01*
X144219526Y-98934794D01*
X144173388Y-99014706D01*
X144173387Y-99014709D01*
X144173386Y-99014711D01*
X144173386Y-99014712D01*
X144149500Y-99103856D01*
X126050500Y-99103856D01*
X126050500Y-98513856D01*
X137159500Y-98513856D01*
X137159500Y-98606144D01*
X137180935Y-98686142D01*
X137183387Y-98695290D01*
X137183388Y-98695293D01*
X137229526Y-98775205D01*
X137229529Y-98775209D01*
X137229531Y-98775212D01*
X137294788Y-98840469D01*
X137294791Y-98840470D01*
X137294794Y-98840473D01*
X137374706Y-98886611D01*
X137374707Y-98886611D01*
X137374712Y-98886614D01*
X137463856Y-98910500D01*
X137463858Y-98910500D01*
X137556142Y-98910500D01*
X137556144Y-98910500D01*
X137645288Y-98886614D01*
X137673198Y-98870500D01*
X137732250Y-98836406D01*
X137733994Y-98839427D01*
X137784102Y-98819979D01*
X137852566Y-98833925D01*
X137856588Y-98836150D01*
X137874708Y-98846612D01*
X137874709Y-98846612D01*
X137874712Y-98846614D01*
X137963856Y-98870500D01*
X137963858Y-98870500D01*
X138056142Y-98870500D01*
X138056144Y-98870500D01*
X138145288Y-98846614D01*
X138225212Y-98800469D01*
X138290469Y-98735212D01*
X138336614Y-98655288D01*
X138360500Y-98566144D01*
X138360500Y-98473856D01*
X138336614Y-98384712D01*
X138329714Y-98372761D01*
X138290473Y-98304794D01*
X138290470Y-98304791D01*
X138290469Y-98304788D01*
X138225212Y-98239531D01*
X138225209Y-98239529D01*
X138225205Y-98239526D01*
X138145293Y-98193388D01*
X138145290Y-98193387D01*
X138145289Y-98193386D01*
X138145288Y-98193386D01*
X138056144Y-98169500D01*
X137963856Y-98169500D01*
X137874712Y-98193386D01*
X137874711Y-98193386D01*
X137874709Y-98193387D01*
X137874706Y-98193388D01*
X137787750Y-98243594D01*
X137786036Y-98240626D01*
X137735486Y-98260054D01*
X137667069Y-98245880D01*
X137663412Y-98243850D01*
X137645290Y-98233386D01*
X137585858Y-98217462D01*
X137556144Y-98209500D01*
X137463856Y-98209500D01*
X137374712Y-98233386D01*
X137374711Y-98233386D01*
X137374709Y-98233387D01*
X137374706Y-98233388D01*
X137294794Y-98279526D01*
X137294785Y-98279533D01*
X137229533Y-98344785D01*
X137229526Y-98344794D01*
X137183388Y-98424706D01*
X137183387Y-98424709D01*
X137183386Y-98424711D01*
X137183386Y-98424712D01*
X137159500Y-98513856D01*
X126050500Y-98513856D01*
X126050500Y-96503856D01*
X138249500Y-96503856D01*
X138249500Y-96596144D01*
X138271061Y-96676612D01*
X138273387Y-96685290D01*
X138273388Y-96685293D01*
X138319526Y-96765205D01*
X138319529Y-96765209D01*
X138319531Y-96765212D01*
X138384788Y-96830469D01*
X138384791Y-96830470D01*
X138384794Y-96830473D01*
X138464706Y-96876611D01*
X138464707Y-96876611D01*
X138464712Y-96876614D01*
X138553856Y-96900500D01*
X138553858Y-96900500D01*
X138646142Y-96900500D01*
X138646144Y-96900500D01*
X138735288Y-96876614D01*
X138815212Y-96830469D01*
X138880469Y-96765212D01*
X138926614Y-96685288D01*
X138950500Y-96596144D01*
X138950500Y-96503856D01*
X138926614Y-96414712D01*
X138915893Y-96396143D01*
X138880473Y-96334794D01*
X138880470Y-96334791D01*
X138880469Y-96334788D01*
X138815212Y-96269531D01*
X138815209Y-96269529D01*
X138815205Y-96269526D01*
X138735293Y-96223388D01*
X138735290Y-96223387D01*
X138735289Y-96223386D01*
X138735288Y-96223386D01*
X138646144Y-96199500D01*
X138553856Y-96199500D01*
X138464712Y-96223386D01*
X138464711Y-96223386D01*
X138464709Y-96223387D01*
X138464706Y-96223388D01*
X138384794Y-96269526D01*
X138384785Y-96269533D01*
X138319533Y-96334785D01*
X138319526Y-96334794D01*
X138273388Y-96414706D01*
X138273387Y-96414709D01*
X138273386Y-96414711D01*
X138273386Y-96414712D01*
X138249500Y-96503856D01*
X126050500Y-96503856D01*
X126050500Y-96095056D01*
X126070185Y-96028017D01*
X126122989Y-95982262D01*
X126192147Y-95972318D01*
X126255703Y-96001343D01*
X126263562Y-96009686D01*
X126263784Y-96009465D01*
X126269531Y-96015212D01*
X126334788Y-96080469D01*
X126334791Y-96080470D01*
X126334794Y-96080473D01*
X126414706Y-96126611D01*
X126414707Y-96126611D01*
X126414712Y-96126614D01*
X126503856Y-96150500D01*
X126503858Y-96150500D01*
X126596142Y-96150500D01*
X126596144Y-96150500D01*
X126685288Y-96126614D01*
X126765212Y-96080469D01*
X126765217Y-96080463D01*
X126771658Y-96075522D01*
X126773139Y-96077453D01*
X126823642Y-96049877D01*
X126893334Y-96054861D01*
X126927397Y-96076752D01*
X126928342Y-96075522D01*
X126934785Y-96080466D01*
X126934788Y-96080469D01*
X126934791Y-96080470D01*
X126934794Y-96080473D01*
X127014706Y-96126611D01*
X127014707Y-96126611D01*
X127014712Y-96126614D01*
X127103856Y-96150500D01*
X127103858Y-96150500D01*
X127196142Y-96150500D01*
X127196144Y-96150500D01*
X127285288Y-96126614D01*
X127365212Y-96080469D01*
X127430469Y-96015212D01*
X127476614Y-95935288D01*
X127500500Y-95846144D01*
X127500500Y-95753856D01*
X127476614Y-95664712D01*
X127475423Y-95662649D01*
X127470346Y-95653856D01*
X140449500Y-95653856D01*
X140449500Y-95746144D01*
X140470552Y-95824712D01*
X140473387Y-95835290D01*
X140473388Y-95835293D01*
X140519526Y-95915205D01*
X140519529Y-95915209D01*
X140519531Y-95915212D01*
X140584788Y-95980469D01*
X140584791Y-95980470D01*
X140584794Y-95980473D01*
X140664706Y-96026611D01*
X140664707Y-96026611D01*
X140664712Y-96026614D01*
X140753856Y-96050500D01*
X140753858Y-96050500D01*
X140846142Y-96050500D01*
X140846144Y-96050500D01*
X140935288Y-96026614D01*
X140979560Y-96001052D01*
X141047456Y-95984580D01*
X141113483Y-96007431D01*
X141156675Y-96062351D01*
X141163319Y-96131904D01*
X141148946Y-96170440D01*
X141123387Y-96214708D01*
X141123387Y-96214709D01*
X141123386Y-96214711D01*
X141123386Y-96214712D01*
X141099500Y-96303856D01*
X141099500Y-96396144D01*
X141104475Y-96414712D01*
X141123387Y-96485290D01*
X141123388Y-96485293D01*
X141169526Y-96565205D01*
X141169529Y-96565209D01*
X141169531Y-96565212D01*
X141234788Y-96630469D01*
X141234791Y-96630470D01*
X141234794Y-96630473D01*
X141314706Y-96676611D01*
X141314707Y-96676611D01*
X141314712Y-96676614D01*
X141403856Y-96700500D01*
X141403858Y-96700500D01*
X141496142Y-96700500D01*
X141496144Y-96700500D01*
X141585288Y-96676614D01*
X141585292Y-96676612D01*
X141603143Y-96666305D01*
X141637998Y-96646180D01*
X141705898Y-96629707D01*
X141762000Y-96646180D01*
X141777397Y-96655069D01*
X141814709Y-96676613D01*
X141814711Y-96676613D01*
X141814712Y-96676614D01*
X141903856Y-96700500D01*
X141903858Y-96700500D01*
X141996142Y-96700500D01*
X141996144Y-96700500D01*
X142085288Y-96676614D01*
X142165212Y-96630469D01*
X142230469Y-96565212D01*
X142276614Y-96485288D01*
X142300500Y-96396144D01*
X142300500Y-96371939D01*
X142320185Y-96304900D01*
X142372989Y-96259145D01*
X142442147Y-96249201D01*
X142486502Y-96264553D01*
X142524709Y-96286613D01*
X142524711Y-96286613D01*
X142524712Y-96286614D01*
X142613856Y-96310500D01*
X142613858Y-96310500D01*
X142706142Y-96310500D01*
X142706144Y-96310500D01*
X142795288Y-96286614D01*
X142875212Y-96240469D01*
X142875217Y-96240463D01*
X142875692Y-96240100D01*
X142876176Y-96239912D01*
X142882250Y-96236406D01*
X142882796Y-96237353D01*
X142940861Y-96214905D01*
X143009306Y-96228942D01*
X143013181Y-96231089D01*
X143074706Y-96266611D01*
X143074707Y-96266611D01*
X143074712Y-96266614D01*
X143163856Y-96290500D01*
X143163858Y-96290500D01*
X143256142Y-96290500D01*
X143256144Y-96290500D01*
X143345288Y-96266614D01*
X143425212Y-96220469D01*
X143490469Y-96155212D01*
X143536614Y-96075288D01*
X143560500Y-95986144D01*
X143560500Y-95893856D01*
X143536614Y-95804712D01*
X143536611Y-95804706D01*
X143490473Y-95724794D01*
X143490470Y-95724791D01*
X143490469Y-95724788D01*
X143425212Y-95659531D01*
X143425209Y-95659529D01*
X143425205Y-95659526D01*
X143345293Y-95613388D01*
X143345290Y-95613387D01*
X143345289Y-95613386D01*
X143345288Y-95613386D01*
X143256144Y-95589500D01*
X143163856Y-95589500D01*
X143074712Y-95613386D01*
X143074711Y-95613386D01*
X143074709Y-95613387D01*
X143074706Y-95613388D01*
X142994784Y-95659532D01*
X142994291Y-95659911D01*
X142993801Y-95660100D01*
X142987750Y-95663594D01*
X142987204Y-95662649D01*
X142929119Y-95685096D01*
X142860676Y-95671047D01*
X142856818Y-95668911D01*
X142795288Y-95633386D01*
X142740165Y-95618616D01*
X142706144Y-95609500D01*
X142613856Y-95609500D01*
X142524712Y-95633386D01*
X142524711Y-95633386D01*
X142524709Y-95633387D01*
X142524706Y-95633388D01*
X142444794Y-95679526D01*
X142444785Y-95679533D01*
X142379533Y-95744785D01*
X142379526Y-95744794D01*
X142333388Y-95824706D01*
X142333387Y-95824709D01*
X142309500Y-95913856D01*
X142309500Y-95938060D01*
X142289815Y-96005099D01*
X142237011Y-96050854D01*
X142167853Y-96060798D01*
X142143394Y-96054692D01*
X142133030Y-96050950D01*
X142085288Y-96023386D01*
X141996144Y-95999500D01*
X141990512Y-95999500D01*
X141974657Y-95993776D01*
X141956845Y-95980733D01*
X141936658Y-95971797D01*
X141929206Y-95960494D01*
X141918285Y-95952497D01*
X141910352Y-95931894D01*
X141898201Y-95913463D01*
X141898043Y-95899927D01*
X141893179Y-95887294D01*
X141897644Y-95865672D01*
X141897387Y-95843599D01*
X141906832Y-95821180D01*
X141907310Y-95818868D01*
X141908181Y-95817977D01*
X141909374Y-95815147D01*
X141926614Y-95785288D01*
X141950500Y-95696144D01*
X141950500Y-95603856D01*
X141945141Y-95583856D01*
X144299500Y-95583856D01*
X144299500Y-95676144D01*
X144320323Y-95753858D01*
X144323387Y-95765290D01*
X144323388Y-95765293D01*
X144369526Y-95845205D01*
X144369529Y-95845209D01*
X144369531Y-95845212D01*
X144434788Y-95910469D01*
X144434791Y-95910470D01*
X144434794Y-95910473D01*
X144514706Y-95956611D01*
X144514707Y-95956611D01*
X144514712Y-95956614D01*
X144603856Y-95980500D01*
X144603858Y-95980500D01*
X144696142Y-95980500D01*
X144696144Y-95980500D01*
X144785288Y-95956614D01*
X144865212Y-95910469D01*
X144930469Y-95845212D01*
X144976614Y-95765288D01*
X145000500Y-95676144D01*
X145000500Y-95583856D01*
X144976614Y-95494712D01*
X144974608Y-95491237D01*
X144930473Y-95414794D01*
X144930470Y-95414791D01*
X144930469Y-95414788D01*
X144865212Y-95349531D01*
X144865209Y-95349529D01*
X144865205Y-95349526D01*
X144785293Y-95303388D01*
X144785290Y-95303387D01*
X144785289Y-95303386D01*
X144785288Y-95303386D01*
X144696144Y-95279500D01*
X144603856Y-95279500D01*
X144514712Y-95303386D01*
X144514711Y-95303386D01*
X144514709Y-95303387D01*
X144514706Y-95303388D01*
X144434794Y-95349526D01*
X144434785Y-95349533D01*
X144369533Y-95414785D01*
X144369526Y-95414794D01*
X144323388Y-95494706D01*
X144323387Y-95494709D01*
X144323386Y-95494711D01*
X144323386Y-95494712D01*
X144299500Y-95583856D01*
X141945141Y-95583856D01*
X141926614Y-95514712D01*
X141915067Y-95494712D01*
X141880473Y-95434794D01*
X141880470Y-95434791D01*
X141880469Y-95434788D01*
X141815212Y-95369531D01*
X141815209Y-95369529D01*
X141815205Y-95369526D01*
X141735293Y-95323388D01*
X141735290Y-95323387D01*
X141735289Y-95323386D01*
X141735288Y-95323386D01*
X141646144Y-95299500D01*
X141553856Y-95299500D01*
X141464712Y-95323386D01*
X141464711Y-95323386D01*
X141464709Y-95323387D01*
X141464706Y-95323388D01*
X141384794Y-95369526D01*
X141384785Y-95369533D01*
X141319533Y-95434785D01*
X141319531Y-95434788D01*
X141292951Y-95480824D01*
X141242382Y-95529038D01*
X141173775Y-95542259D01*
X141108911Y-95516290D01*
X141086491Y-95490412D01*
X141085417Y-95491237D01*
X141080471Y-95484791D01*
X141080469Y-95484788D01*
X141015212Y-95419531D01*
X141015209Y-95419529D01*
X141015205Y-95419526D01*
X140935293Y-95373388D01*
X140935290Y-95373387D01*
X140935289Y-95373386D01*
X140935288Y-95373386D01*
X140846144Y-95349500D01*
X140753856Y-95349500D01*
X140664712Y-95373386D01*
X140664711Y-95373386D01*
X140664709Y-95373387D01*
X140664706Y-95373388D01*
X140584794Y-95419526D01*
X140584785Y-95419533D01*
X140519533Y-95484785D01*
X140519526Y-95484794D01*
X140473388Y-95564706D01*
X140473387Y-95564709D01*
X140473386Y-95564711D01*
X140473386Y-95564712D01*
X140449500Y-95653856D01*
X127470346Y-95653856D01*
X127430473Y-95584794D01*
X127430470Y-95584791D01*
X127430469Y-95584788D01*
X127365212Y-95519531D01*
X127365209Y-95519529D01*
X127365205Y-95519526D01*
X127285293Y-95473388D01*
X127285290Y-95473387D01*
X127285289Y-95473386D01*
X127285288Y-95473386D01*
X127196144Y-95449500D01*
X127103856Y-95449500D01*
X127014712Y-95473386D01*
X127014711Y-95473386D01*
X127014709Y-95473387D01*
X127014706Y-95473388D01*
X126934794Y-95519526D01*
X126928342Y-95524478D01*
X126926862Y-95522549D01*
X126876337Y-95550127D01*
X126806646Y-95545130D01*
X126772599Y-95523250D01*
X126771658Y-95524478D01*
X126765205Y-95519526D01*
X126685293Y-95473388D01*
X126685290Y-95473387D01*
X126685289Y-95473386D01*
X126685288Y-95473386D01*
X126596144Y-95449500D01*
X126503856Y-95449500D01*
X126414712Y-95473386D01*
X126414711Y-95473386D01*
X126414709Y-95473387D01*
X126414706Y-95473388D01*
X126334794Y-95519526D01*
X126334785Y-95519533D01*
X126263784Y-95590535D01*
X126261780Y-95588531D01*
X126216446Y-95621633D01*
X126146700Y-95625787D01*
X126085780Y-95591573D01*
X126053028Y-95529855D01*
X126050500Y-95504943D01*
X126050500Y-94763856D01*
X132729500Y-94763856D01*
X132729500Y-94856144D01*
X132748007Y-94925214D01*
X132753387Y-94945290D01*
X132753388Y-94945293D01*
X132799526Y-95025205D01*
X132799529Y-95025209D01*
X132799531Y-95025212D01*
X132864788Y-95090469D01*
X132864791Y-95090470D01*
X132864794Y-95090473D01*
X132944706Y-95136611D01*
X132944707Y-95136611D01*
X132944712Y-95136614D01*
X133033856Y-95160500D01*
X133033858Y-95160500D01*
X133126142Y-95160500D01*
X133126144Y-95160500D01*
X133215288Y-95136614D01*
X133295212Y-95090469D01*
X133360469Y-95025212D01*
X133406614Y-94945288D01*
X133430500Y-94856144D01*
X133430500Y-94763856D01*
X133406614Y-94674712D01*
X133406611Y-94674706D01*
X133400347Y-94663856D01*
X134029500Y-94663856D01*
X134029500Y-94756144D01*
X134031566Y-94763856D01*
X134053387Y-94845290D01*
X134053388Y-94845293D01*
X134099526Y-94925205D01*
X134099529Y-94925209D01*
X134099531Y-94925212D01*
X134164788Y-94990469D01*
X134164791Y-94990470D01*
X134164794Y-94990473D01*
X134244706Y-95036611D01*
X134244707Y-95036611D01*
X134244712Y-95036614D01*
X134333856Y-95060500D01*
X134333858Y-95060500D01*
X134426142Y-95060500D01*
X134426144Y-95060500D01*
X134515288Y-95036614D01*
X134595212Y-94990469D01*
X134660469Y-94925212D01*
X134706614Y-94845288D01*
X134730500Y-94756144D01*
X134730500Y-94663856D01*
X134706614Y-94574712D01*
X134706611Y-94574706D01*
X134660473Y-94494794D01*
X134660470Y-94494791D01*
X134660469Y-94494788D01*
X134595212Y-94429531D01*
X134595209Y-94429529D01*
X134595205Y-94429526D01*
X134515293Y-94383388D01*
X134515290Y-94383387D01*
X134515289Y-94383386D01*
X134515288Y-94383386D01*
X134426144Y-94359500D01*
X134333856Y-94359500D01*
X134244712Y-94383386D01*
X134244711Y-94383386D01*
X134244709Y-94383387D01*
X134244706Y-94383388D01*
X134164794Y-94429526D01*
X134164785Y-94429533D01*
X134099533Y-94494785D01*
X134099526Y-94494794D01*
X134053388Y-94574706D01*
X134053387Y-94574709D01*
X134053386Y-94574711D01*
X134053386Y-94574712D01*
X134029500Y-94663856D01*
X133400347Y-94663856D01*
X133360473Y-94594794D01*
X133360470Y-94594791D01*
X133360469Y-94594788D01*
X133295212Y-94529531D01*
X133295209Y-94529529D01*
X133295205Y-94529526D01*
X133215293Y-94483388D01*
X133215290Y-94483387D01*
X133215289Y-94483386D01*
X133215288Y-94483386D01*
X133126144Y-94459500D01*
X133033856Y-94459500D01*
X132944712Y-94483386D01*
X132944711Y-94483386D01*
X132944709Y-94483387D01*
X132944706Y-94483388D01*
X132864794Y-94529526D01*
X132864785Y-94529533D01*
X132799533Y-94594785D01*
X132799526Y-94594794D01*
X132753388Y-94674706D01*
X132753387Y-94674709D01*
X132753386Y-94674711D01*
X132753386Y-94674712D01*
X132729500Y-94763856D01*
X126050500Y-94763856D01*
X126050500Y-92600817D01*
X127384500Y-92600817D01*
X127384500Y-92739183D01*
X127418604Y-92866459D01*
X127420312Y-92872835D01*
X127420313Y-92872838D01*
X127489492Y-92992661D01*
X127489494Y-92992664D01*
X127489495Y-92992665D01*
X127587335Y-93090505D01*
X127587336Y-93090506D01*
X127587338Y-93090507D01*
X127617119Y-93107701D01*
X127707164Y-93159688D01*
X127840817Y-93195500D01*
X127840819Y-93195500D01*
X127979181Y-93195500D01*
X127979183Y-93195500D01*
X128112836Y-93159688D01*
X128232665Y-93090505D01*
X128330505Y-92992665D01*
X128399688Y-92872836D01*
X128435500Y-92739183D01*
X128435500Y-92600817D01*
X131634500Y-92600817D01*
X131634500Y-92739183D01*
X131668604Y-92866459D01*
X131670312Y-92872835D01*
X131670313Y-92872838D01*
X131739492Y-92992661D01*
X131739494Y-92992664D01*
X131739495Y-92992665D01*
X131837335Y-93090505D01*
X131837336Y-93090506D01*
X131837338Y-93090507D01*
X131867119Y-93107701D01*
X131957164Y-93159688D01*
X132090817Y-93195500D01*
X132090819Y-93195500D01*
X132229181Y-93195500D01*
X132229183Y-93195500D01*
X132362836Y-93159688D01*
X132482665Y-93090505D01*
X132580505Y-92992665D01*
X132649688Y-92872836D01*
X132685500Y-92739183D01*
X132685500Y-92615817D01*
X133939500Y-92615817D01*
X133939500Y-92754183D01*
X133971294Y-92872838D01*
X133975312Y-92887835D01*
X133975313Y-92887838D01*
X134044492Y-93007661D01*
X134044494Y-93007664D01*
X134044495Y-93007665D01*
X134142335Y-93105505D01*
X134142336Y-93105506D01*
X134142338Y-93105507D01*
X134152045Y-93111111D01*
X134262164Y-93174688D01*
X134395817Y-93210500D01*
X134395819Y-93210500D01*
X134534181Y-93210500D01*
X134534183Y-93210500D01*
X134667836Y-93174688D01*
X134787665Y-93105505D01*
X134885505Y-93007665D01*
X134954688Y-92887836D01*
X134990500Y-92754183D01*
X134990500Y-92615817D01*
X138189500Y-92615817D01*
X138189500Y-92754183D01*
X138221294Y-92872838D01*
X138225312Y-92887835D01*
X138225313Y-92887838D01*
X138294492Y-93007661D01*
X138294494Y-93007664D01*
X138294495Y-93007665D01*
X138392335Y-93105505D01*
X138392336Y-93105506D01*
X138392338Y-93105507D01*
X138402045Y-93111111D01*
X138512164Y-93174688D01*
X138645817Y-93210500D01*
X138645819Y-93210500D01*
X138784181Y-93210500D01*
X138784183Y-93210500D01*
X138917836Y-93174688D01*
X139037665Y-93105505D01*
X139079627Y-93063543D01*
X139949499Y-93063543D01*
X139987947Y-93256829D01*
X139987950Y-93256839D01*
X140063364Y-93438907D01*
X140063371Y-93438920D01*
X140172860Y-93602781D01*
X140172863Y-93602785D01*
X140312214Y-93742136D01*
X140312218Y-93742139D01*
X140476079Y-93851628D01*
X140476092Y-93851635D01*
X140649355Y-93923402D01*
X140658165Y-93927051D01*
X140658169Y-93927051D01*
X140658170Y-93927052D01*
X140851456Y-93965500D01*
X140851459Y-93965500D01*
X141048543Y-93965500D01*
X141178582Y-93939632D01*
X141241835Y-93927051D01*
X141423914Y-93851632D01*
X141587782Y-93742139D01*
X141727139Y-93602782D01*
X141836632Y-93438914D01*
X141912051Y-93256835D01*
X141941717Y-93107697D01*
X141950500Y-93063543D01*
X142489499Y-93063543D01*
X142527947Y-93256829D01*
X142527950Y-93256839D01*
X142603364Y-93438907D01*
X142603371Y-93438920D01*
X142712860Y-93602781D01*
X142712863Y-93602785D01*
X142852214Y-93742136D01*
X142852218Y-93742139D01*
X143016079Y-93851628D01*
X143016092Y-93851635D01*
X143189355Y-93923402D01*
X143198165Y-93927051D01*
X143198169Y-93927051D01*
X143198170Y-93927052D01*
X143391456Y-93965500D01*
X143391459Y-93965500D01*
X143588543Y-93965500D01*
X143718582Y-93939632D01*
X143781835Y-93927051D01*
X143963914Y-93851632D01*
X144127782Y-93742139D01*
X144267139Y-93602782D01*
X144376632Y-93438914D01*
X144452051Y-93256835D01*
X144481717Y-93107697D01*
X144490500Y-93063543D01*
X145029499Y-93063543D01*
X145067947Y-93256829D01*
X145067950Y-93256839D01*
X145143364Y-93438907D01*
X145143371Y-93438920D01*
X145252860Y-93602781D01*
X145252863Y-93602785D01*
X145392214Y-93742136D01*
X145392218Y-93742139D01*
X145556079Y-93851628D01*
X145556092Y-93851635D01*
X145729355Y-93923402D01*
X145738165Y-93927051D01*
X145738169Y-93927051D01*
X145738170Y-93927052D01*
X145931456Y-93965500D01*
X145931459Y-93965500D01*
X146128543Y-93965500D01*
X146258582Y-93939632D01*
X146321835Y-93927051D01*
X146503914Y-93851632D01*
X146667782Y-93742139D01*
X146807139Y-93602782D01*
X146916632Y-93438914D01*
X146992051Y-93256835D01*
X147021717Y-93107697D01*
X147030500Y-93063543D01*
X147030500Y-92866456D01*
X146992052Y-92673170D01*
X146992051Y-92673169D01*
X146992051Y-92673165D01*
X146958557Y-92592302D01*
X146916635Y-92491092D01*
X146916628Y-92491079D01*
X146807139Y-92327218D01*
X146807136Y-92327214D01*
X146667785Y-92187863D01*
X146667781Y-92187860D01*
X146503920Y-92078371D01*
X146503907Y-92078364D01*
X146321839Y-92002950D01*
X146321829Y-92002947D01*
X146128543Y-91964500D01*
X146128541Y-91964500D01*
X145931459Y-91964500D01*
X145931457Y-91964500D01*
X145738170Y-92002947D01*
X145738160Y-92002950D01*
X145556092Y-92078364D01*
X145556079Y-92078371D01*
X145392218Y-92187860D01*
X145392214Y-92187863D01*
X145252863Y-92327214D01*
X145252860Y-92327218D01*
X145143371Y-92491079D01*
X145143364Y-92491092D01*
X145067950Y-92673160D01*
X145067947Y-92673170D01*
X145029500Y-92866456D01*
X145029500Y-92866459D01*
X145029500Y-93063541D01*
X145029500Y-93063543D01*
X145029499Y-93063543D01*
X144490500Y-93063543D01*
X144490500Y-92866456D01*
X144452052Y-92673170D01*
X144452051Y-92673169D01*
X144452051Y-92673165D01*
X144418557Y-92592302D01*
X144376635Y-92491092D01*
X144376628Y-92491079D01*
X144267139Y-92327218D01*
X144267136Y-92327214D01*
X144127785Y-92187863D01*
X144127781Y-92187860D01*
X143963920Y-92078371D01*
X143963907Y-92078364D01*
X143781839Y-92002950D01*
X143781829Y-92002947D01*
X143588543Y-91964500D01*
X143588541Y-91964500D01*
X143391459Y-91964500D01*
X143391457Y-91964500D01*
X143198170Y-92002947D01*
X143198160Y-92002950D01*
X143016092Y-92078364D01*
X143016079Y-92078371D01*
X142852218Y-92187860D01*
X142852214Y-92187863D01*
X142712863Y-92327214D01*
X142712860Y-92327218D01*
X142603371Y-92491079D01*
X142603364Y-92491092D01*
X142527950Y-92673160D01*
X142527947Y-92673170D01*
X142489500Y-92866456D01*
X142489500Y-92866459D01*
X142489500Y-93063541D01*
X142489500Y-93063543D01*
X142489499Y-93063543D01*
X141950500Y-93063543D01*
X141950500Y-92866456D01*
X141912052Y-92673170D01*
X141912051Y-92673169D01*
X141912051Y-92673165D01*
X141878557Y-92592302D01*
X141836635Y-92491092D01*
X141836628Y-92491079D01*
X141727139Y-92327218D01*
X141727136Y-92327214D01*
X141587785Y-92187863D01*
X141587781Y-92187860D01*
X141423920Y-92078371D01*
X141423907Y-92078364D01*
X141241839Y-92002950D01*
X141241829Y-92002947D01*
X141048543Y-91964500D01*
X141048541Y-91964500D01*
X140851459Y-91964500D01*
X140851457Y-91964500D01*
X140658170Y-92002947D01*
X140658160Y-92002950D01*
X140476092Y-92078364D01*
X140476079Y-92078371D01*
X140312218Y-92187860D01*
X140312214Y-92187863D01*
X140172863Y-92327214D01*
X140172860Y-92327218D01*
X140063371Y-92491079D01*
X140063364Y-92491092D01*
X139987950Y-92673160D01*
X139987947Y-92673170D01*
X139949500Y-92866456D01*
X139949500Y-92866459D01*
X139949500Y-93063541D01*
X139949500Y-93063543D01*
X139949499Y-93063543D01*
X139079627Y-93063543D01*
X139135505Y-93007665D01*
X139204688Y-92887836D01*
X139240500Y-92754183D01*
X139240500Y-92615817D01*
X139204688Y-92482164D01*
X139135505Y-92362335D01*
X139037665Y-92264495D01*
X139037664Y-92264494D01*
X139037661Y-92264492D01*
X138917838Y-92195313D01*
X138917837Y-92195312D01*
X138917836Y-92195312D01*
X138784183Y-92159500D01*
X138645817Y-92159500D01*
X138512164Y-92195312D01*
X138512161Y-92195313D01*
X138392338Y-92264492D01*
X138392333Y-92264496D01*
X138294496Y-92362333D01*
X138294492Y-92362338D01*
X138225313Y-92482161D01*
X138225312Y-92482164D01*
X138189500Y-92615817D01*
X134990500Y-92615817D01*
X134954688Y-92482164D01*
X134885505Y-92362335D01*
X134787665Y-92264495D01*
X134787664Y-92264494D01*
X134787661Y-92264492D01*
X134667838Y-92195313D01*
X134667837Y-92195312D01*
X134667836Y-92195312D01*
X134534183Y-92159500D01*
X134395817Y-92159500D01*
X134262164Y-92195312D01*
X134262161Y-92195313D01*
X134142338Y-92264492D01*
X134142333Y-92264496D01*
X134044496Y-92362333D01*
X134044492Y-92362338D01*
X133975313Y-92482161D01*
X133975312Y-92482164D01*
X133939500Y-92615817D01*
X132685500Y-92615817D01*
X132685500Y-92600817D01*
X132649688Y-92467164D01*
X132580505Y-92347335D01*
X132482665Y-92249495D01*
X132482664Y-92249494D01*
X132482661Y-92249492D01*
X132362838Y-92180313D01*
X132362837Y-92180312D01*
X132362836Y-92180312D01*
X132229183Y-92144500D01*
X132090817Y-92144500D01*
X131957164Y-92180312D01*
X131957161Y-92180313D01*
X131837338Y-92249492D01*
X131837333Y-92249496D01*
X131739496Y-92347333D01*
X131739492Y-92347338D01*
X131670313Y-92467161D01*
X131670312Y-92467164D01*
X131634500Y-92600817D01*
X128435500Y-92600817D01*
X128399688Y-92467164D01*
X128330505Y-92347335D01*
X128232665Y-92249495D01*
X128232664Y-92249494D01*
X128232661Y-92249492D01*
X128112838Y-92180313D01*
X128112837Y-92180312D01*
X128112836Y-92180312D01*
X127979183Y-92144500D01*
X127840817Y-92144500D01*
X127707164Y-92180312D01*
X127707161Y-92180313D01*
X127587338Y-92249492D01*
X127587333Y-92249496D01*
X127489496Y-92347333D01*
X127489492Y-92347338D01*
X127420313Y-92467161D01*
X127420312Y-92467164D01*
X127384500Y-92600817D01*
X126050500Y-92600817D01*
X126050500Y-91294500D01*
X126070185Y-91227461D01*
X126122989Y-91181706D01*
X126174500Y-91170500D01*
X152125500Y-91170500D01*
X152192539Y-91190185D01*
G37*
%TD.AperFunction*%
%TD*%
M02*
