%TF.GenerationSoftware,KiCad,Pcbnew,9.0.0*%
%TF.CreationDate,2025-06-12T14:50:32+02:00*%
%TF.ProjectId,hardware v4 pro max,68617264-7761-4726-9520-76342070726f,rev?*%
%TF.SameCoordinates,Original*%
%TF.FileFunction,Copper,L1,Top*%
%TF.FilePolarity,Positive*%
%FSLAX46Y46*%
G04 Gerber Fmt 4.6, Leading zero omitted, Abs format (unit mm)*
G04 Created by KiCad (PCBNEW 9.0.0) date 2025-06-12 14:50:32*
%MOMM*%
%LPD*%
G01*
G04 APERTURE LIST*
G04 Aperture macros list*
%AMRoundRect*
0 Rectangle with rounded corners*
0 $1 Rounding radius*
0 $2 $3 $4 $5 $6 $7 $8 $9 X,Y pos of 4 corners*
0 Add a 4 corners polygon primitive as box body*
4,1,4,$2,$3,$4,$5,$6,$7,$8,$9,$2,$3,0*
0 Add four circle primitives for the rounded corners*
1,1,$1+$1,$2,$3*
1,1,$1+$1,$4,$5*
1,1,$1+$1,$6,$7*
1,1,$1+$1,$8,$9*
0 Add four rect primitives between the rounded corners*
20,1,$1+$1,$2,$3,$4,$5,0*
20,1,$1+$1,$4,$5,$6,$7,0*
20,1,$1+$1,$6,$7,$8,$9,0*
20,1,$1+$1,$8,$9,$2,$3,0*%
%AMOutline5P*
0 Free polygon, 5 corners , with rotation*
0 The origin of the aperture is its center*
0 number of corners: always 5*
0 $1 to $10 corner X, Y*
0 $11 Rotation angle, in degrees counterclockwise*
0 create outline with 5 corners*
4,1,5,$1,$2,$3,$4,$5,$6,$7,$8,$9,$10,$1,$2,$11*%
%AMOutline6P*
0 Free polygon, 6 corners , with rotation*
0 The origin of the aperture is its center*
0 number of corners: always 6*
0 $1 to $12 corner X, Y*
0 $13 Rotation angle, in degrees counterclockwise*
0 create outline with 6 corners*
4,1,6,$1,$2,$3,$4,$5,$6,$7,$8,$9,$10,$11,$12,$1,$2,$13*%
%AMOutline7P*
0 Free polygon, 7 corners , with rotation*
0 The origin of the aperture is its center*
0 number of corners: always 7*
0 $1 to $14 corner X, Y*
0 $15 Rotation angle, in degrees counterclockwise*
0 create outline with 7 corners*
4,1,7,$1,$2,$3,$4,$5,$6,$7,$8,$9,$10,$11,$12,$13,$14,$1,$2,$15*%
%AMOutline8P*
0 Free polygon, 8 corners , with rotation*
0 The origin of the aperture is its center*
0 number of corners: always 8*
0 $1 to $16 corner X, Y*
0 $17 Rotation angle, in degrees counterclockwise*
0 create outline with 8 corners*
4,1,8,$1,$2,$3,$4,$5,$6,$7,$8,$9,$10,$11,$12,$13,$14,$15,$16,$1,$2,$17*%
G04 Aperture macros list end*
%TA.AperFunction,SMDPad,CuDef*%
%ADD10RoundRect,0.100000X-0.130000X-0.100000X0.130000X-0.100000X0.130000X0.100000X-0.130000X0.100000X0*%
%TD*%
%TA.AperFunction,SMDPad,CuDef*%
%ADD11RoundRect,0.100000X0.130000X0.100000X-0.130000X0.100000X-0.130000X-0.100000X0.130000X-0.100000X0*%
%TD*%
%TA.AperFunction,SMDPad,CuDef*%
%ADD12RoundRect,0.140000X0.140000X0.170000X-0.140000X0.170000X-0.140000X-0.170000X0.140000X-0.170000X0*%
%TD*%
%TA.AperFunction,SMDPad,CuDef*%
%ADD13R,0.300000X0.850000*%
%TD*%
%TA.AperFunction,SMDPad,CuDef*%
%ADD14R,2.440000X0.690000*%
%TD*%
%TA.AperFunction,SMDPad,CuDef*%
%ADD15RoundRect,0.100000X0.100000X-0.130000X0.100000X0.130000X-0.100000X0.130000X-0.100000X-0.130000X0*%
%TD*%
%TA.AperFunction,SMDPad,CuDef*%
%ADD16RoundRect,0.100000X-0.100000X0.130000X-0.100000X-0.130000X0.100000X-0.130000X0.100000X0.130000X0*%
%TD*%
%TA.AperFunction,ComponentPad*%
%ADD17R,1.700000X1.700000*%
%TD*%
%TA.AperFunction,ComponentPad*%
%ADD18O,1.700000X1.700000*%
%TD*%
%TA.AperFunction,SMDPad,CuDef*%
%ADD19RoundRect,0.140000X0.170000X-0.140000X0.170000X0.140000X-0.170000X0.140000X-0.170000X-0.140000X0*%
%TD*%
%TA.AperFunction,SMDPad,CuDef*%
%ADD20R,0.250000X0.799999*%
%TD*%
%TA.AperFunction,SMDPad,CuDef*%
%ADD21R,1.420000X0.610000*%
%TD*%
%TA.AperFunction,SMDPad,CuDef*%
%ADD22Outline5P,-0.650000X0.750000X0.650000X0.750000X0.650000X-0.750000X0.000000X-0.750000X-0.650000X-0.100000X180.000000*%
%TD*%
%TA.AperFunction,SMDPad,CuDef*%
%ADD23R,3.600000X1.100000*%
%TD*%
%TA.AperFunction,SMDPad,CuDef*%
%ADD24R,2.200000X1.050000*%
%TD*%
%TA.AperFunction,SMDPad,CuDef*%
%ADD25R,1.050000X1.000000*%
%TD*%
%TA.AperFunction,SMDPad,CuDef*%
%ADD26R,0.550000X1.500000*%
%TD*%
%TA.AperFunction,SMDPad,CuDef*%
%ADD27R,1.100000X0.400000*%
%TD*%
%TA.AperFunction,SMDPad,CuDef*%
%ADD28RoundRect,0.140000X-0.140000X-0.170000X0.140000X-0.170000X0.140000X0.170000X-0.140000X0.170000X0*%
%TD*%
%TA.AperFunction,SMDPad,CuDef*%
%ADD29R,1.050000X0.450000*%
%TD*%
%TA.AperFunction,SMDPad,CuDef*%
%ADD30R,3.450000X4.350000*%
%TD*%
%TA.AperFunction,SMDPad,CuDef*%
%ADD31RoundRect,0.147500X0.172500X-0.147500X0.172500X0.147500X-0.172500X0.147500X-0.172500X-0.147500X0*%
%TD*%
%TA.AperFunction,SMDPad,CuDef*%
%ADD32RoundRect,0.147500X-0.147500X-0.172500X0.147500X-0.172500X0.147500X0.172500X-0.147500X0.172500X0*%
%TD*%
%TA.AperFunction,SMDPad,CuDef*%
%ADD33R,2.500000X1.700000*%
%TD*%
%TA.AperFunction,SMDPad,CuDef*%
%ADD34R,0.750000X0.550000*%
%TD*%
%TA.AperFunction,SMDPad,CuDef*%
%ADD35RoundRect,0.150000X0.625000X-0.150000X0.625000X0.150000X-0.625000X0.150000X-0.625000X-0.150000X0*%
%TD*%
%TA.AperFunction,SMDPad,CuDef*%
%ADD36RoundRect,0.250000X0.650000X-0.350000X0.650000X0.350000X-0.650000X0.350000X-0.650000X-0.350000X0*%
%TD*%
%TA.AperFunction,SMDPad,CuDef*%
%ADD37R,0.800000X0.300000*%
%TD*%
%TA.AperFunction,SMDPad,CuDef*%
%ADD38R,0.300000X0.800000*%
%TD*%
%TA.AperFunction,SMDPad,CuDef*%
%ADD39R,3.750000X3.750000*%
%TD*%
%TA.AperFunction,ViaPad*%
%ADD40C,0.400000*%
%TD*%
%TA.AperFunction,Conductor*%
%ADD41C,0.150000*%
%TD*%
%TA.AperFunction,Conductor*%
%ADD42C,0.200000*%
%TD*%
%TA.AperFunction,Conductor*%
%ADD43C,0.300000*%
%TD*%
%TA.AperFunction,Conductor*%
%ADD44C,0.500000*%
%TD*%
%TA.AperFunction,Conductor*%
%ADD45C,0.332000*%
%TD*%
%TA.AperFunction,Conductor*%
%ADD46C,0.160800*%
%TD*%
G04 APERTURE END LIST*
D10*
%TO.P,R4,1*%
%TO.N,Net-(C3-Pad2)*%
X148070000Y-108820000D03*
%TO.P,R4,2*%
%TO.N,GND*%
X148710000Y-108820000D03*
%TD*%
%TO.P,C11,1*%
%TO.N,+3.3V*%
X141280000Y-109350000D03*
%TO.P,C11,2*%
%TO.N,GND*%
X141920000Y-109350000D03*
%TD*%
D11*
%TO.P,R21,1*%
%TO.N,HSE_OUT*%
X137190000Y-96300000D03*
%TO.P,R21,2*%
%TO.N,Net-(Y1-CRYSTAL__1)*%
X136550000Y-96300000D03*
%TD*%
D10*
%TO.P,C21,1*%
%TO.N,+3.3V*%
X133830000Y-102200000D03*
%TO.P,C21,2*%
%TO.N,GND*%
X134470000Y-102200000D03*
%TD*%
D12*
%TO.P,C20,1*%
%TO.N,CHIP_PU*%
X134710000Y-98720000D03*
%TO.P,C20,2*%
%TO.N,GND*%
X133750000Y-98720000D03*
%TD*%
D13*
%TO.P,IC4,1,~{INT}*%
%TO.N,INT*%
X133800000Y-106100000D03*
%TO.P,IC4,2,PGD*%
%TO.N,unconnected-(IC4-PGD-Pad2)*%
X133300000Y-106100000D03*
%TO.P,IC4,3,EN*%
%TO.N,EN*%
X132800000Y-106100000D03*
%TO.P,IC4,4,VIN*%
%TO.N,BAT+*%
X132300000Y-106100000D03*
%TO.P,IC4,5,~{PB}*%
%TO.N,Net-(IC4-~{PB})*%
X131800000Y-106100000D03*
%TO.P,IC4,6,GND_1*%
%TO.N,GND*%
X131800000Y-108000000D03*
%TO.P,IC4,7,SEL*%
%TO.N,vusb*%
X132300000Y-108000000D03*
%TO.P,IC4,8,TMR*%
%TO.N,Net-(IC4-TMR)*%
X132800000Y-108000000D03*
%TO.P,IC4,9,~{KILL}*%
%TO.N,KILL*%
X133300000Y-108000000D03*
%TO.P,IC4,10,ON*%
%TO.N,Net-(IC4-ON)*%
X133800000Y-108000000D03*
D14*
%TO.P,IC4,11,GND_2*%
%TO.N,GND*%
X132800000Y-107050000D03*
%TD*%
D15*
%TO.P,R17,1*%
%TO.N,BAT+*%
X132900000Y-104320000D03*
%TO.P,R17,2*%
%TO.N,VBAT_ADC*%
X132900000Y-103680000D03*
%TD*%
D16*
%TO.P,C25,1*%
%TO.N,+3.3V*%
X136610000Y-99570000D03*
%TO.P,C25,2*%
%TO.N,GND*%
X136610000Y-100210000D03*
%TD*%
D10*
%TO.P,C22,1*%
%TO.N,+3.3V*%
X145230000Y-99650000D03*
%TO.P,C22,2*%
%TO.N,GND*%
X145870000Y-99650000D03*
%TD*%
D17*
%TO.P,J3,1,Pin_1*%
%TO.N,GND*%
X148570000Y-92965000D03*
D18*
%TO.P,J3,2,Pin_2*%
%TO.N,+3.3V*%
X146030000Y-92965000D03*
%TO.P,J3,3,Pin_3*%
%TO.N,OLED_SCL*%
X143490000Y-92965000D03*
%TO.P,J3,4,Pin_4*%
%TO.N,OLED_SDA*%
X140950000Y-92965000D03*
%TD*%
D19*
%TO.P,C27,1*%
%TO.N,Net-(C27-Pad1)*%
X132500000Y-97110000D03*
%TO.P,C27,2*%
%TO.N,GND*%
X132500000Y-96150000D03*
%TD*%
D20*
%TO.P,U2,1,GND*%
%TO.N,GND*%
X150250000Y-103599998D03*
%TO.P,U2,2,\u002ACHRG*%
%TO.N,Net-(D1-K)*%
X149750001Y-103599998D03*
%TO.P,U2,3,BAT*%
%TO.N,BAT+*%
X149250002Y-103599998D03*
%TO.P,U2,4,VCC*%
%TO.N,vusb*%
X149250002Y-105500000D03*
%TO.P,U2,5,\u002AEN/\u002AACPR*%
%TO.N,GND*%
X149750001Y-105500000D03*
%TO.P,U2,6,PROG*%
%TO.N,Net-(U2-PROG)*%
X150250000Y-105500000D03*
D21*
%TO.P,U2,7,S*%
%TO.N,GND*%
X149750001Y-104549999D03*
%TD*%
D11*
%TO.P,R28,1*%
%TO.N,+3.3V*%
X144020000Y-102800000D03*
%TO.P,R28,2*%
%TO.N,BOOT0*%
X143380000Y-102800000D03*
%TD*%
D12*
%TO.P,C3,1*%
%TO.N,vusb*%
X148850000Y-107900000D03*
%TO.P,C3,2*%
%TO.N,Net-(C3-Pad2)*%
X147890000Y-107900000D03*
%TD*%
D19*
%TO.P,C17,1*%
%TO.N,+3.3V*%
X131800000Y-102630000D03*
%TO.P,C17,2*%
%TO.N,GND*%
X131800000Y-101670000D03*
%TD*%
D15*
%TO.P,R6,1*%
%TO.N,GND*%
X130500000Y-109640000D03*
%TO.P,R6,2*%
%TO.N,vusb*%
X130500000Y-109000000D03*
%TD*%
D16*
%TO.P,R16,1*%
%TO.N,+3.3V*%
X146800000Y-95580000D03*
%TO.P,R16,2*%
%TO.N,BOOT1*%
X146800000Y-96220000D03*
%TD*%
D22*
%TO.P,BT1,1,+*%
%TO.N,Net-(BT1-+)*%
X126950000Y-103730000D03*
D23*
%TO.P,BT1,2,-*%
%TO.N,GND*%
X128100000Y-99940000D03*
%TD*%
D10*
%TO.P,R32,1*%
%TO.N,INT*%
X134980000Y-104900000D03*
%TO.P,R32,2*%
%TO.N,+3.3V*%
X135620000Y-104900000D03*
%TD*%
D24*
%TO.P,J2,1,1*%
%TO.N,GND*%
X129137500Y-98575000D03*
%TO.P,J2,2,2*%
X129137500Y-95625000D03*
D25*
%TO.P,J2,3,3*%
%TO.N,Net-(C27-Pad1)*%
X130662500Y-97100000D03*
%TD*%
D19*
%TO.P,C28,1*%
%TO.N,Net-(IC1-ANT)*%
X135350000Y-97120000D03*
%TO.P,C28,2*%
%TO.N,GND*%
X135350000Y-96160000D03*
%TD*%
D10*
%TO.P,C26,1*%
%TO.N,Net-(IC1-VDDA3P3_1)*%
X134680000Y-100300000D03*
%TO.P,C26,2*%
%TO.N,GND*%
X135320000Y-100300000D03*
%TD*%
D11*
%TO.P,R12,1*%
%TO.N,GPSTX*%
X137570000Y-103300000D03*
%TO.P,R12,2*%
%TO.N,Net-(PA1010D1-TX)*%
X136930000Y-103300000D03*
%TD*%
D15*
%TO.P,R26,1*%
%TO.N,FSPICLK*%
X139200000Y-104920000D03*
%TO.P,R26,2*%
%TO.N,Net-(IC1-MTCK)*%
X139200000Y-104280000D03*
%TD*%
D16*
%TO.P,C8,1*%
%TO.N,HSE_IN*%
X138800000Y-94580000D03*
%TO.P,C8,2*%
%TO.N,GND*%
X138800000Y-95220000D03*
%TD*%
%TO.P,C24,1*%
%TO.N,GND*%
X133650000Y-103680000D03*
%TO.P,C24,2*%
%TO.N,BAT+*%
X133650000Y-104320000D03*
%TD*%
D10*
%TO.P,R31,1*%
%TO.N,KILL*%
X134980000Y-104200000D03*
%TO.P,R31,2*%
%TO.N,+3.3V*%
X135620000Y-104200000D03*
%TD*%
D26*
%TO.P,SW4,1,1*%
%TO.N,GND*%
X151500000Y-95925000D03*
%TO.P,SW4,2,2*%
%TO.N,BOOT1*%
X148250000Y-95925000D03*
%TD*%
D16*
%TO.P,R30,1*%
%TO.N,Net-(IC4-ON)*%
X133900000Y-109080000D03*
%TO.P,R30,2*%
%TO.N,vusb*%
X133900000Y-109720000D03*
%TD*%
D27*
%TO.P,D6,1,I/O_1*%
%TO.N,unconnected-(D6-I{slash}O_1-Pad1)*%
X148600000Y-99650000D03*
%TO.P,D6,2,GND*%
%TO.N,GND*%
X148600000Y-100300000D03*
%TO.P,D6,3,I/O_2*%
%TO.N,unconnected-(D6-I{slash}O_2-Pad3)*%
X148600000Y-100950000D03*
%TO.P,D6,4,I/O_3*%
%TO.N,D+*%
X150600000Y-100950000D03*
%TO.P,D6,5,VDD*%
%TO.N,vusb*%
X150600000Y-100300000D03*
%TO.P,D6,6,I/O_4*%
%TO.N,D-*%
X150600000Y-99650000D03*
%TD*%
D15*
%TO.P,R13,1*%
%TO.N,FSPICS2*%
X147200000Y-105200000D03*
%TO.P,R13,2*%
%TO.N,+3.3V*%
X147200000Y-104560000D03*
%TD*%
D10*
%TO.P,R11,1*%
%TO.N,Net-(PA1010D1-RX)*%
X136910000Y-104050000D03*
%TO.P,R11,2*%
%TO.N,GPSRX*%
X137550000Y-104050000D03*
%TD*%
D16*
%TO.P,R3,1*%
%TO.N,GND*%
X151500000Y-104930000D03*
%TO.P,R3,2*%
%TO.N,Net-(U2-PROG)*%
X151500000Y-105570000D03*
%TD*%
D28*
%TO.P,C5,1*%
%TO.N,+3.3V*%
X136850000Y-104900000D03*
%TO.P,C5,2*%
%TO.N,GND*%
X137810000Y-104900000D03*
%TD*%
D29*
%TO.P,IC2,1,~{CS}*%
%TO.N,FSPICS2*%
X146050000Y-107905000D03*
%TO.P,IC2,2,DO_(IO1)*%
%TO.N,FSPIQ*%
X146050000Y-106635000D03*
%TO.P,IC2,3,~{WP_(IO2)}*%
%TO.N,FSPIWP*%
X146050000Y-105365000D03*
%TO.P,IC2,4,GND*%
%TO.N,GND*%
X146050000Y-104095000D03*
%TO.P,IC2,5,DI_(IO0)*%
%TO.N,FSPID*%
X140350000Y-104095000D03*
%TO.P,IC2,6,CLK*%
%TO.N,FSPICLK*%
X140350000Y-105365000D03*
%TO.P,IC2,7,~{HOLD_OR_RESET_(IO3)}*%
%TO.N,FSPIHD*%
X140350000Y-106635000D03*
%TO.P,IC2,8,VCC*%
%TO.N,+3.3V*%
X140350000Y-107905000D03*
D30*
%TO.P,IC2,9,EP*%
%TO.N,GND*%
X143200000Y-106000000D03*
%TD*%
D15*
%TO.P,R25,1*%
%TO.N,+3.3V*%
X135510000Y-99565000D03*
%TO.P,R25,2*%
%TO.N,CHIP_PU*%
X135510000Y-98925000D03*
%TD*%
D31*
%TO.P,L1,1*%
%TO.N,+3.3V*%
X133800000Y-101385000D03*
%TO.P,L1,2*%
%TO.N,Net-(IC1-VDDA3P3_1)*%
X133800000Y-100415000D03*
%TD*%
D32*
%TO.P,D1,1,K*%
%TO.N,Net-(D1-K)*%
X150680000Y-102250000D03*
%TO.P,D1,2,A*%
%TO.N,Net-(D1-A)*%
X151650000Y-102250000D03*
%TD*%
D15*
%TO.P,R29,1*%
%TO.N,GND*%
X134600000Y-109720000D03*
%TO.P,R29,2*%
%TO.N,Net-(IC4-ON)*%
X134600000Y-109080000D03*
%TD*%
%TO.P,C15,1*%
%TO.N,+3.3V*%
X141000000Y-95770000D03*
%TO.P,C15,2*%
%TO.N,GND*%
X141000000Y-95130000D03*
%TD*%
D13*
%TO.P,IC3,1,GND*%
%TO.N,GND*%
X135800000Y-109100000D03*
%TO.P,IC3,2,EN*%
%TO.N,EN*%
X136750000Y-109100000D03*
%TO.P,IC3,3,VIN*%
%TO.N,BAT+*%
X137700000Y-109100000D03*
%TO.P,IC3,4,VOUT*%
%TO.N,+3.3V*%
X137700000Y-106200000D03*
%TO.P,IC3,5,VSENSE*%
X136750000Y-106200000D03*
%TO.P,IC3,6,ADJ/NC*%
%TO.N,unconnected-(IC3-ADJ{slash}NC-Pad6)*%
X135800000Y-106200000D03*
D33*
%TO.P,IC3,7,EP*%
%TO.N,GND*%
X136750000Y-107650000D03*
%TD*%
D34*
%TO.P,Y1,1,CRYSTAL__1*%
%TO.N,Net-(Y1-CRYSTAL__1)*%
X136650000Y-95275000D03*
%TO.P,Y1,2,GND_1*%
%TO.N,GND*%
X137750000Y-95275000D03*
%TO.P,Y1,3,CRYSTAL__2*%
%TO.N,HSE_IN*%
X137750000Y-94525000D03*
%TO.P,Y1,4,GND_2*%
%TO.N,GND*%
X136650000Y-94525000D03*
%TD*%
D16*
%TO.P,C2,1*%
%TO.N,GND*%
X135600000Y-94580000D03*
%TO.P,C2,2*%
%TO.N,Net-(Y1-CRYSTAL__1)*%
X135600000Y-95220000D03*
%TD*%
%TO.P,C13,1*%
%TO.N,VBAT_ADC*%
X132200000Y-103680000D03*
%TO.P,C13,2*%
%TO.N,GND*%
X132200000Y-104320000D03*
%TD*%
D12*
%TO.P,C23,1*%
%TO.N,Net-(IC4-TMR)*%
X132780000Y-109500000D03*
%TO.P,C23,2*%
%TO.N,GND*%
X131820000Y-109500000D03*
%TD*%
D32*
%TO.P,L2,1*%
%TO.N,Net-(C27-Pad1)*%
X133430000Y-97110000D03*
%TO.P,L2,2*%
%TO.N,Net-(IC1-ANT)*%
X134400000Y-97110000D03*
%TD*%
D15*
%TO.P,R5,1*%
%TO.N,vusb*%
X151900000Y-104170000D03*
%TO.P,R5,2*%
%TO.N,Net-(D1-A)*%
X151900000Y-103530000D03*
%TD*%
D28*
%TO.P,C4,1*%
%TO.N,BAT+*%
X139420000Y-109400000D03*
%TO.P,C4,2*%
%TO.N,GND*%
X140380000Y-109400000D03*
%TD*%
D35*
%TO.P,U3,1,1*%
%TO.N,BAT+*%
X129575000Y-108000000D03*
%TO.P,U3,2,2*%
%TO.N,GND*%
X129575000Y-107000000D03*
D36*
%TO.P,U3,MP,MP*%
X127050000Y-109300000D03*
X127050000Y-105700000D03*
%TD*%
D37*
%TO.P,IC1,1,ANT*%
%TO.N,Net-(IC1-ANT)*%
X138700000Y-97550000D03*
%TO.P,IC1,2,VDDA3P3_1*%
%TO.N,Net-(IC1-VDDA3P3_1)*%
X138700000Y-98050000D03*
%TO.P,IC1,3,VDDA3P3_2*%
X138700000Y-98550000D03*
%TO.P,IC1,4,CHIP_PU*%
%TO.N,CHIP_PU*%
X138700000Y-99050000D03*
%TO.P,IC1,5,VDDPST1*%
%TO.N,+3.3V*%
X138700000Y-99550000D03*
%TO.P,IC1,6,XTAL_32K_P*%
%TO.N,VBAT_ADC*%
X138700000Y-100050000D03*
%TO.P,IC1,7,XTAL_32K_N*%
%TO.N,INT*%
X138700000Y-100550000D03*
%TO.P,IC1,8,GPIO2*%
%TO.N,FSPIQ*%
X138700000Y-101050000D03*
D38*
%TO.P,IC1,9,GPIO3*%
%TO.N,KILL*%
X139450000Y-101800000D03*
%TO.P,IC1,10,MTMS*%
%TO.N,FSPIHD*%
X139950000Y-101800000D03*
%TO.P,IC1,11,MTDI*%
%TO.N,FSPIWP*%
X140450000Y-101800000D03*
%TO.P,IC1,12,MTCK*%
%TO.N,Net-(IC1-MTCK)*%
X140950000Y-101800000D03*
%TO.P,IC1,13,MTDO*%
%TO.N,FSPID*%
X141450000Y-101800000D03*
%TO.P,IC1,14,GPIO8*%
%TO.N,BOOT0*%
X141950000Y-101800000D03*
%TO.P,IC1,15,GPIO9*%
%TO.N,BOOT1*%
X142450000Y-101800000D03*
%TO.P,IC1,16,GPIO12*%
%TO.N,D-*%
X142950000Y-101800000D03*
D37*
%TO.P,IC1,17,GPIO13*%
%TO.N,D+*%
X143700000Y-101050000D03*
%TO.P,IC1,18,GPIO14*%
%TO.N,GPIO_SUP_1*%
X143700000Y-100550000D03*
%TO.P,IC1,19,GPIO15*%
%TO.N,GPIO_SUP_2*%
X143700000Y-100050000D03*
%TO.P,IC1,20,VDDPST2*%
%TO.N,+3.3V*%
X143700000Y-99550000D03*
%TO.P,IC1,21,U0TXD*%
%TO.N,GPSRX*%
X143700000Y-99050000D03*
%TO.P,IC1,22,U0RXD*%
%TO.N,GPSTX*%
X143700000Y-98550000D03*
%TO.P,IC1,23,SDIO_CMD*%
%TO.N,FSPICS2*%
X143700000Y-98050000D03*
%TO.P,IC1,24,SDIO_CLK*%
%TO.N,LED_PWM*%
X143700000Y-97550000D03*
D38*
%TO.P,IC1,25,SDIO_DATA0*%
%TO.N,B2*%
X142950000Y-96800000D03*
%TO.P,IC1,26,SDIO_DATA1*%
%TO.N,B1*%
X142450000Y-96800000D03*
%TO.P,IC1,27,SDIO_DATA2*%
%TO.N,OLED_SDA*%
X141950000Y-96800000D03*
%TO.P,IC1,28,SDIO_DATA3*%
%TO.N,OLED_SCL*%
X141450000Y-96800000D03*
%TO.P,IC1,29,VDDA1*%
%TO.N,+3.3V*%
X140950000Y-96800000D03*
%TO.P,IC1,30,XTAL_N*%
%TO.N,HSE_IN*%
X140450000Y-96800000D03*
%TO.P,IC1,31,XTAL_P*%
%TO.N,HSE_OUT*%
X139950000Y-96800000D03*
%TO.P,IC1,32,VDDA2*%
%TO.N,+3.3V*%
X139450000Y-96800000D03*
D39*
%TO.P,IC1,33,GND*%
%TO.N,GND*%
X141200000Y-99300000D03*
%TD*%
D16*
%TO.P,R18,1*%
%TO.N,VBAT_ADC*%
X131500000Y-103680000D03*
%TO.P,R18,2*%
%TO.N,GND*%
X131500000Y-104320000D03*
%TD*%
%TO.P,C18,1*%
%TO.N,GND*%
X147500000Y-95580000D03*
%TO.P,C18,2*%
%TO.N,BOOT1*%
X147500000Y-96220000D03*
%TD*%
D19*
%TO.P,C16,1*%
%TO.N,+3.3V*%
X141850000Y-95680000D03*
%TO.P,C16,2*%
%TO.N,GND*%
X141850000Y-94720000D03*
%TD*%
%TO.P,C12,1*%
%TO.N,+3.3V*%
X132750000Y-102630000D03*
%TO.P,C12,2*%
%TO.N,GND*%
X132750000Y-101670000D03*
%TD*%
D40*
%TO.N,Net-(BT1-+)*%
X126950000Y-103730000D03*
%TO.N,GND*%
X135400000Y-98100000D03*
X131310840Y-101330404D03*
X138430000Y-107710000D03*
X137800000Y-93200000D03*
X146150000Y-96180000D03*
X130060000Y-91880000D03*
X130550000Y-95950000D03*
X128800000Y-93300000D03*
X141830000Y-107780000D03*
X129950000Y-98550000D03*
X143900000Y-104190000D03*
X129950000Y-95700000D03*
X129150000Y-95700000D03*
X136200000Y-109700000D03*
X134400000Y-105600000D03*
X137300000Y-97020000D03*
X147060000Y-94160000D03*
X128350000Y-97950000D03*
X131100000Y-109700000D03*
X135300000Y-105700000D03*
X126420000Y-105370000D03*
X138200000Y-95450000D03*
X126900000Y-102200000D03*
X139350000Y-95300000D03*
X145070000Y-107210000D03*
X127670000Y-93820000D03*
X136680000Y-107530000D03*
X151580000Y-97700000D03*
X131300000Y-93300000D03*
X133950000Y-96050000D03*
X131850000Y-96050000D03*
X130600000Y-106100000D03*
X145380000Y-97520000D03*
X138100000Y-104400000D03*
X134000000Y-98100000D03*
X142900000Y-94250000D03*
X146290000Y-96930000D03*
X133300000Y-98100000D03*
X141680000Y-99810000D03*
X131200000Y-98100000D03*
X130550000Y-98300000D03*
X135810000Y-107500000D03*
X131940404Y-101279160D03*
X148720000Y-106660000D03*
X130600000Y-99340000D03*
X136150000Y-97630000D03*
X127520000Y-108410000D03*
X135200000Y-109700000D03*
X144490000Y-106720000D03*
X132320000Y-99200000D03*
X126360000Y-93240000D03*
X128350000Y-96300000D03*
X132460000Y-100920000D03*
X141290000Y-94240000D03*
X142740000Y-108990000D03*
X148640000Y-91490000D03*
X142720000Y-97690000D03*
X129580000Y-109500000D03*
X127450000Y-108990000D03*
X133150000Y-96050000D03*
X131900000Y-107000000D03*
X144680000Y-91590000D03*
X131119596Y-98980840D03*
X128350000Y-97150000D03*
X148330000Y-97680000D03*
X140630000Y-100860000D03*
X128680000Y-103360000D03*
X129150000Y-98550000D03*
X129500000Y-106400000D03*
X136990000Y-102010000D03*
X126300000Y-102200000D03*
X143710000Y-95520000D03*
X142750000Y-95350000D03*
X139510000Y-97630000D03*
X141680000Y-100860000D03*
X151050000Y-103950000D03*
X126360000Y-91560000D03*
X133820000Y-95330000D03*
X143300000Y-105300000D03*
X145080000Y-107770000D03*
X139580000Y-100860000D03*
X129200000Y-107000000D03*
X136590000Y-91750000D03*
X151050000Y-103150000D03*
X136000000Y-100210000D03*
X140420000Y-108740000D03*
X131300000Y-94000000D03*
X130329596Y-99910840D03*
X130000000Y-107000000D03*
X131900000Y-98100000D03*
X128350000Y-95700000D03*
X133230000Y-91600000D03*
X151930000Y-107340000D03*
X140420000Y-91540000D03*
X144730000Y-94040000D03*
X147260000Y-91500000D03*
X150400000Y-104550000D03*
X132300000Y-101950000D03*
X130610000Y-104330000D03*
X146100000Y-104100000D03*
X137490000Y-98030000D03*
X137980000Y-97020000D03*
X135370000Y-100720000D03*
X139690000Y-93490000D03*
X126490000Y-106010000D03*
X135950000Y-96050000D03*
X130380840Y-100540404D03*
X142600000Y-106230000D03*
X139520000Y-91550000D03*
X135400000Y-93200000D03*
X137600000Y-107520000D03*
X132500000Y-95500000D03*
X128350000Y-98550000D03*
X145870000Y-107290000D03*
X134700000Y-98100000D03*
X151760000Y-91550000D03*
X144460000Y-107790000D03*
X131150000Y-96050000D03*
X135840000Y-103590000D03*
X133700000Y-107000000D03*
X151960000Y-109660000D03*
X127670000Y-105340000D03*
X138100000Y-105200000D03*
X128800000Y-94000000D03*
X134950000Y-102000000D03*
X132600000Y-98100000D03*
X133970000Y-103730000D03*
X127430000Y-109590000D03*
X142730000Y-98760000D03*
X149460000Y-109500000D03*
X141680000Y-98760000D03*
X147440000Y-97030000D03*
X149780000Y-107600000D03*
X132679160Y-99719596D03*
X142730000Y-99810000D03*
X131749160Y-98929596D03*
X149150000Y-104550000D03*
X134700000Y-96050000D03*
X145340000Y-100170000D03*
X148780000Y-102170000D03*
X142730000Y-100860000D03*
X141800000Y-97680000D03*
X130740000Y-101060000D03*
X132730404Y-100349160D03*
X134070000Y-102820000D03*
X127120000Y-105730000D03*
X137020000Y-100090000D03*
%TO.N,+3.3V*%
X137090000Y-105890000D03*
X136580000Y-105940000D03*
X135790000Y-99550000D03*
X144950000Y-99650000D03*
X144650000Y-95630000D03*
X137900000Y-102050000D03*
X128580000Y-105330000D03*
X134350000Y-101400000D03*
X140800000Y-95700000D03*
X138600000Y-96550000D03*
X132250000Y-102600000D03*
X126550000Y-95800000D03*
X136310000Y-99560000D03*
X133300000Y-102450000D03*
X134380000Y-94710000D03*
X141600000Y-95650000D03*
X144600000Y-103200000D03*
X137015000Y-106400000D03*
X127150000Y-95800000D03*
X137595000Y-105825000D03*
%TO.N,vusb*%
X132300000Y-108900000D03*
X133300000Y-109100000D03*
X151600000Y-100300000D03*
X130700000Y-107500000D03*
X149300000Y-106100000D03*
X149300000Y-106800000D03*
%TO.N,B2*%
X143210000Y-95940000D03*
%TO.N,B1*%
X133080000Y-94810000D03*
X142660000Y-95960000D03*
%TO.N,FSPIWP*%
X140400000Y-102600000D03*
X145400000Y-104700000D03*
%TO.N,OLED_SCL*%
X141450000Y-96350000D03*
%TO.N,OLED_SDA*%
X141950000Y-96350000D03*
%TO.N,FSPICS2*%
X144570000Y-98100000D03*
X146100000Y-107900000D03*
%TO.N,Net-(PA1010D1-RX)*%
X136350000Y-104100000D03*
%TO.N,Net-(PA1010D1-TX)*%
X136350000Y-103300000D03*
%TO.N,GPSRX*%
X138150000Y-103800000D03*
X144500000Y-99150000D03*
%TO.N,GPSTX*%
X138250000Y-103150000D03*
X144560000Y-98640000D03*
%TO.N,BAT+*%
X148800000Y-103200000D03*
X138570413Y-109190391D03*
X129900000Y-108000000D03*
X138550000Y-109690000D03*
X129200000Y-108000000D03*
X138570000Y-108710000D03*
X148800000Y-103800000D03*
%TO.N,D+*%
X146500000Y-100400000D03*
X150650000Y-101000000D03*
%TO.N,D-*%
X150650000Y-99650000D03*
X146500000Y-100900000D03*
%TO.N,FSPIQ*%
X145400000Y-106100000D03*
X138800000Y-101800000D03*
%TO.N,LED_PWM*%
X144630000Y-97510000D03*
X126610000Y-107540000D03*
%TO.N,EN*%
X136800000Y-109100000D03*
X132800000Y-105300000D03*
%TO.N,Net-(IC1-VDDA3P3_1)*%
X134580000Y-99590000D03*
X134260000Y-99980000D03*
X138010000Y-98520000D03*
X137510000Y-98560000D03*
%TO.N,KILL*%
X135250000Y-103750000D03*
X133300000Y-108600000D03*
%TO.N,Net-(IC4-~{PB})*%
X131440000Y-105570000D03*
%TO.N,GPIO_SUP_1*%
X144890000Y-100540000D03*
%TO.N,GPIO_SUP_2*%
X144500000Y-100150000D03*
%TD*%
D41*
%TO.N,BOOT1*%
X145970000Y-102050000D02*
X146970000Y-101050000D01*
X143320000Y-102400000D02*
X143670000Y-102050000D01*
X146970000Y-100240000D02*
X146830000Y-100100000D01*
X142450000Y-101800000D02*
X142450000Y-102180000D01*
X143670000Y-102050000D02*
X145970000Y-102050000D01*
X142670000Y-102400000D02*
X143320000Y-102400000D01*
X146830000Y-100100000D02*
X146830000Y-96220000D01*
X142450000Y-102180000D02*
X142670000Y-102400000D01*
X146830000Y-96220000D02*
X147540000Y-96220000D01*
X147550000Y-96230000D02*
X147880000Y-95900000D01*
X147880000Y-95900000D02*
X148300000Y-95900000D01*
X147540000Y-96220000D02*
X147550000Y-96230000D01*
X146970000Y-101050000D02*
X146970000Y-100240000D01*
D42*
%TO.N,+3.3V*%
X144450000Y-99650000D02*
X144950000Y-99650000D01*
X145900000Y-102800000D02*
X144600000Y-102800000D01*
X144950000Y-99650000D02*
X145250000Y-99650000D01*
D43*
X135540000Y-99540000D02*
X135520000Y-99560000D01*
X144680000Y-95580000D02*
X144640000Y-95620000D01*
X141280000Y-108670000D02*
X140500000Y-107890000D01*
X136300000Y-99540000D02*
X135540000Y-99540000D01*
X138700000Y-99550000D02*
X136310000Y-99550000D01*
D42*
X144350000Y-99550000D02*
X144450000Y-99650000D01*
X136800000Y-105000000D02*
X136900000Y-104900000D01*
D43*
X140500000Y-107890000D02*
X140360000Y-107890000D01*
X146800000Y-95580000D02*
X144680000Y-95580000D01*
D42*
X143700000Y-99550000D02*
X144350000Y-99550000D01*
D43*
X136310000Y-99550000D02*
X136300000Y-99540000D01*
D42*
X147200000Y-104100000D02*
X145900000Y-102800000D01*
X147200000Y-104560000D02*
X147200000Y-104100000D01*
X144600000Y-102800000D02*
X144000000Y-102800000D01*
D43*
X141280000Y-109350000D02*
X141280000Y-108670000D01*
D42*
X144600000Y-102800000D02*
X144600000Y-103200000D01*
%TO.N,vusb*%
X133300000Y-109400000D02*
X133620000Y-109720000D01*
D44*
X151600000Y-100300000D02*
X151570000Y-100330000D01*
D42*
X130700000Y-107500000D02*
X130700000Y-108100000D01*
D44*
X150625000Y-100330000D02*
X150595000Y-100360000D01*
D42*
X132300000Y-108000000D02*
X132300000Y-108800000D01*
X130700000Y-108100000D02*
X131500000Y-108900000D01*
X130500000Y-109000000D02*
X130600000Y-108900000D01*
X149300000Y-106200000D02*
X149250002Y-106150002D01*
X130600000Y-108900000D02*
X131500000Y-108900000D01*
X133300000Y-109100000D02*
X133300000Y-109400000D01*
X151950000Y-104200000D02*
X151900000Y-104150000D01*
X131500000Y-108900000D02*
X132300000Y-108900000D01*
X149250002Y-106150002D02*
X149250002Y-105500000D01*
X133620000Y-109720000D02*
X133900000Y-109720000D01*
D44*
X151570000Y-100330000D02*
X150625000Y-100330000D01*
D41*
%TO.N,Net-(C3-Pad2)*%
X147890000Y-107900000D02*
X147890000Y-108610000D01*
X147890000Y-108610000D02*
X148050000Y-108770000D01*
%TO.N,B2*%
X142950000Y-96230000D02*
X143240000Y-95940000D01*
X142950000Y-96800000D02*
X142950000Y-96230000D01*
%TO.N,B1*%
X142450000Y-96800000D02*
X142450000Y-96170000D01*
X142450000Y-96170000D02*
X142650000Y-95970000D01*
%TO.N,FSPIHD*%
X140350000Y-106635000D02*
X139735000Y-106635000D01*
X138600000Y-103700000D02*
X139100000Y-103200000D01*
X139600000Y-103200000D02*
X139900000Y-102900000D01*
X139900000Y-101900000D02*
X140000000Y-101800000D01*
X139900000Y-102900000D02*
X139900000Y-101900000D01*
X139100000Y-103200000D02*
X139600000Y-103200000D01*
X139735000Y-106635000D02*
X138600000Y-105500000D01*
X138600000Y-105500000D02*
X138600000Y-103700000D01*
%TO.N,FSPIWP*%
X140450000Y-102550000D02*
X140400000Y-102600000D01*
X140450000Y-101800000D02*
X140450000Y-102550000D01*
X146050000Y-105365000D02*
X146050000Y-105350000D01*
X146050000Y-105350000D02*
X145400000Y-104700000D01*
%TO.N,Net-(D1-A)*%
X151950000Y-102550000D02*
X151950000Y-103550000D01*
X151650000Y-102250000D02*
X151950000Y-102550000D01*
%TO.N,Net-(D1-K)*%
X150680000Y-102250000D02*
X149950000Y-102250000D01*
X149950000Y-102250000D02*
X149750000Y-102450000D01*
X149750001Y-103599998D02*
X149750001Y-102899999D01*
X149750000Y-102450000D02*
X149750000Y-103000000D01*
%TO.N,FSPICS2*%
X146050000Y-107905000D02*
X146195000Y-107905000D01*
X144570000Y-98100000D02*
X144570000Y-98070000D01*
X144550000Y-98050000D02*
X143700000Y-98050000D01*
X146195000Y-107905000D02*
X147200000Y-106900000D01*
X144570000Y-98070000D02*
X144550000Y-98050000D01*
X147200000Y-106900000D02*
X147200000Y-105200000D01*
%TO.N,Net-(PA1010D1-RX)*%
X136400000Y-104050000D02*
X136350000Y-104100000D01*
X136910000Y-104050000D02*
X136400000Y-104050000D01*
%TO.N,Net-(PA1010D1-TX)*%
X136930000Y-103300000D02*
X136350000Y-103300000D01*
%TO.N,Net-(U2-PROG)*%
X151450000Y-105600000D02*
X151500000Y-105550000D01*
X150250000Y-105500000D02*
X150850000Y-105500000D01*
X150850000Y-105500000D02*
X150950000Y-105600000D01*
X150950000Y-105600000D02*
X151450000Y-105600000D01*
%TO.N,GPSRX*%
X137550000Y-104050000D02*
X137900000Y-104050000D01*
X137900000Y-104050000D02*
X138100000Y-103850000D01*
X144500000Y-99150000D02*
X144400000Y-99050000D01*
X144400000Y-99050000D02*
X143700000Y-99050000D01*
%TO.N,GPSTX*%
X144450000Y-98550000D02*
X143700000Y-98550000D01*
X144560000Y-98640000D02*
X144520000Y-98600000D01*
X144500000Y-98600000D02*
X144450000Y-98550000D01*
X138100000Y-103300000D02*
X138250000Y-103150000D01*
X144520000Y-98600000D02*
X144500000Y-98600000D01*
X137570000Y-103300000D02*
X138100000Y-103300000D01*
D42*
%TO.N,BAT+*%
X130700000Y-104900000D02*
X129900000Y-105700000D01*
X131500000Y-104900000D02*
X130700000Y-104900000D01*
D43*
X132900000Y-104320000D02*
X132890000Y-104310000D01*
D42*
X132300000Y-106100000D02*
X132300000Y-105700000D01*
X132300000Y-105700000D02*
X131500000Y-104900000D01*
X132900000Y-104700000D02*
X132900000Y-104300000D01*
X128200000Y-107400000D02*
X128200000Y-106700000D01*
X128800000Y-108000000D02*
X128200000Y-107400000D01*
D43*
X133650000Y-104320000D02*
X132900000Y-104320000D01*
D42*
X129200000Y-105700000D02*
X129900000Y-105700000D01*
X128200000Y-106700000D02*
X129200000Y-105700000D01*
X131500000Y-104900000D02*
X132700000Y-104900000D01*
X129200000Y-108000000D02*
X128800000Y-108000000D01*
X132700000Y-104900000D02*
X132900000Y-104700000D01*
D41*
%TO.N,FSPID*%
X141450000Y-101800000D02*
X141450000Y-103050000D01*
X141450000Y-103050000D02*
X140400000Y-104100000D01*
D42*
%TO.N,D+*%
X143700000Y-101050000D02*
X145250000Y-101050000D01*
X145900000Y-100400000D02*
X146500000Y-100400000D01*
X145250000Y-101050000D02*
X145900000Y-100400000D01*
%TO.N,D-*%
X142950000Y-101800000D02*
X142950000Y-101770000D01*
X145880000Y-101520000D02*
X146500000Y-100900000D01*
X143200000Y-101520000D02*
X145880000Y-101520000D01*
X142950000Y-101770000D02*
X143200000Y-101520000D01*
D41*
%TO.N,FSPIQ*%
X146050000Y-106635000D02*
X145935000Y-106635000D01*
X138700000Y-101050000D02*
X138700000Y-101700000D01*
X138700000Y-101700000D02*
X138800000Y-101800000D01*
X145935000Y-106635000D02*
X145400000Y-106100000D01*
%TO.N,Net-(IC4-TMR)*%
X132800000Y-108000000D02*
X132800000Y-109500000D01*
%TO.N,FSPICLK*%
X139365000Y-105365000D02*
X139200000Y-105200000D01*
X139200000Y-105200000D02*
X139200000Y-104900000D01*
X140350000Y-105365000D02*
X139365000Y-105365000D01*
%TO.N,LED_PWM*%
X144630000Y-97510000D02*
X144570000Y-97510000D01*
X144530000Y-97550000D02*
X143700000Y-97550000D01*
X144570000Y-97510000D02*
X144530000Y-97550000D01*
%TO.N,BOOT0*%
X142200000Y-102900000D02*
X141950000Y-102650000D01*
X143100000Y-102900000D02*
X142200000Y-102900000D01*
X143380000Y-102800000D02*
X143200000Y-102800000D01*
X143200000Y-102800000D02*
X143100000Y-102900000D01*
X141950000Y-102650000D02*
X141950000Y-101800000D01*
%TO.N,EN*%
X132800000Y-106100000D02*
X132800000Y-105300000D01*
%TO.N,Net-(Y1-CRYSTAL__1)*%
X135650000Y-95250000D02*
X135600000Y-95200000D01*
X136550000Y-96300000D02*
X136550000Y-95250000D01*
X136550000Y-95250000D02*
X135650000Y-95250000D01*
%TO.N,HSE_IN*%
X140450000Y-96000000D02*
X140450000Y-96750000D01*
X138800000Y-94600000D02*
X139500000Y-94600000D01*
X139900000Y-95000000D02*
X139900000Y-95450000D01*
X140450000Y-96750000D02*
X140400000Y-96800000D01*
X137750000Y-94525000D02*
X138725000Y-94525000D01*
X139500000Y-94600000D02*
X139900000Y-95000000D01*
X139900000Y-95450000D02*
X140450000Y-96000000D01*
X138725000Y-94525000D02*
X138800000Y-94600000D01*
%TO.N,VBAT_ADC*%
X134440000Y-103260000D02*
X133290000Y-103260000D01*
X132870000Y-103680000D02*
X131500000Y-103680000D01*
X137650000Y-100050000D02*
X134440000Y-103260000D01*
X133290000Y-103260000D02*
X132870000Y-103680000D01*
X138700000Y-100050000D02*
X137650000Y-100050000D01*
%TO.N,CHIP_PU*%
X136720000Y-98920000D02*
X135255000Y-98920000D01*
X135255000Y-98920000D02*
X135085000Y-98750000D01*
X135085000Y-98750000D02*
X134740000Y-98750000D01*
X136850000Y-99050000D02*
X136720000Y-98920000D01*
X138700000Y-99050000D02*
X136850000Y-99050000D01*
D45*
%TO.N,Net-(IC1-VDDA3P3_1)*%
X138250000Y-98050000D02*
X138700000Y-98050000D01*
X138250000Y-98050000D02*
X137750000Y-98550000D01*
X137750000Y-98550000D02*
X138650000Y-98550000D01*
D46*
%TO.N,Net-(C27-Pad1)*%
X133430000Y-97110000D02*
X133420000Y-97100000D01*
X133420000Y-97100000D02*
X130650000Y-97100000D01*
%TO.N,Net-(IC1-ANT)*%
X138700000Y-97550000D02*
X137057107Y-97550000D01*
X134410000Y-97100000D02*
X134400000Y-97110000D01*
X136192893Y-97100000D02*
X134410000Y-97100000D01*
X136703553Y-97403553D02*
X136546446Y-97246446D01*
X136192893Y-97100000D02*
G75*
G02*
X136546449Y-97246443I7J-500000D01*
G01*
X137057107Y-97550000D02*
G75*
G02*
X136703550Y-97403556I-7J500000D01*
G01*
D41*
%TO.N,HSE_OUT*%
X137550000Y-95950000D02*
X137200000Y-96300000D01*
X139950000Y-96250000D02*
X139650000Y-95950000D01*
X139650000Y-95950000D02*
X137550000Y-95950000D01*
X139950000Y-96800000D02*
X139950000Y-96250000D01*
%TO.N,Net-(IC1-MTCK)*%
X140000000Y-103600000D02*
X139600000Y-103600000D01*
X139200000Y-104000000D02*
X139200000Y-104200000D01*
X139600000Y-103600000D02*
X139200000Y-104000000D01*
X140950000Y-101800000D02*
X140950000Y-102650000D01*
X140950000Y-102650000D02*
X140000000Y-103600000D01*
%TO.N,KILL*%
X134980000Y-104020000D02*
X134980000Y-104200000D01*
X135250000Y-103750000D02*
X135250000Y-103500000D01*
X135250000Y-103500000D02*
X136200000Y-102550000D01*
X136200000Y-102550000D02*
X139200000Y-102550000D01*
X139450000Y-102300000D02*
X139450000Y-101800000D01*
X135250000Y-103750000D02*
X134980000Y-104020000D01*
X139200000Y-102550000D02*
X139450000Y-102300000D01*
X133300000Y-108000000D02*
X133300000Y-108600000D01*
%TO.N,INT*%
X134350000Y-103850000D02*
X137650000Y-100550000D01*
X134300000Y-104900000D02*
X134350000Y-104850000D01*
X134980000Y-104900000D02*
X134300000Y-104900000D01*
X134300000Y-104900000D02*
X133800000Y-105400000D01*
X137650000Y-100550000D02*
X138700000Y-100550000D01*
X133800000Y-105400000D02*
X133800000Y-106100000D01*
X134350000Y-104850000D02*
X134350000Y-103850000D01*
%TO.N,Net-(IC4-ON)*%
X133900000Y-109100000D02*
X133900000Y-108700000D01*
X133900000Y-108700000D02*
X133800000Y-108600000D01*
X133800000Y-108600000D02*
X133800000Y-108000000D01*
X133920000Y-109080000D02*
X133900000Y-109100000D01*
X134600000Y-109080000D02*
X133920000Y-109080000D01*
%TO.N,Net-(IC4-~{PB})*%
X131490000Y-105570000D02*
X131500000Y-105580000D01*
X131500000Y-105800000D02*
X131800000Y-106100000D01*
X131500000Y-105580000D02*
X131500000Y-105800000D01*
X131440000Y-105570000D02*
X131490000Y-105570000D01*
%TO.N,GPIO_SUP_1*%
X144890000Y-100540000D02*
X144880000Y-100550000D01*
X144880000Y-100550000D02*
X143700000Y-100550000D01*
%TO.N,GPIO_SUP_2*%
X143700000Y-100050000D02*
X144450000Y-100050000D01*
X144450000Y-100050000D02*
X144550000Y-100150000D01*
%TD*%
%TA.AperFunction,Conductor*%
%TO.N,+3.3V*%
G36*
X142143039Y-95319685D02*
G01*
X142188794Y-95372489D01*
X142200000Y-95424000D01*
X142200000Y-95826000D01*
X142180315Y-95893039D01*
X142127511Y-95938794D01*
X142076000Y-95950000D01*
X141450000Y-95950000D01*
X141445786Y-95956320D01*
X141392219Y-96001180D01*
X141374708Y-96007309D01*
X141314713Y-96023385D01*
X141314706Y-96023388D01*
X141234794Y-96069526D01*
X141234785Y-96069533D01*
X141169533Y-96134785D01*
X141169526Y-96134794D01*
X141123388Y-96214706D01*
X141123387Y-96214709D01*
X141099500Y-96303856D01*
X141099500Y-96396143D01*
X141123386Y-96485289D01*
X141132885Y-96501740D01*
X141139011Y-96526987D01*
X141148848Y-96551040D01*
X141149500Y-96563743D01*
X141149500Y-97076000D01*
X141129815Y-97143039D01*
X141077011Y-97188794D01*
X141025500Y-97200000D01*
X140874500Y-97200000D01*
X140807461Y-97180315D01*
X140761706Y-97127511D01*
X140750500Y-97076000D01*
X140750500Y-96384190D01*
X140750000Y-96374012D01*
X140750000Y-95634500D01*
X140769685Y-95567461D01*
X140822489Y-95521706D01*
X140874000Y-95510500D01*
X141124676Y-95510500D01*
X141124677Y-95510499D01*
X141197740Y-95495966D01*
X141235258Y-95470898D01*
X141286325Y-95454907D01*
X141285950Y-95453317D01*
X141299998Y-95450000D01*
X141300000Y-95450000D01*
X141573818Y-95313090D01*
X141629272Y-95300000D01*
X142076000Y-95300000D01*
X142143039Y-95319685D01*
G37*
%TD.AperFunction*%
%TD*%
%TA.AperFunction,Conductor*%
%TO.N,BAT+*%
G36*
X149077301Y-102919685D02*
G01*
X149082332Y-102923094D01*
X149223600Y-103024000D01*
X149348074Y-103112910D01*
X149391184Y-103167894D01*
X149400000Y-103213813D01*
X149400000Y-103976000D01*
X149380315Y-104043039D01*
X149327511Y-104088794D01*
X149276000Y-104100000D01*
X148574000Y-104100000D01*
X148506961Y-104080315D01*
X148461206Y-104027511D01*
X148450000Y-103976000D01*
X148450000Y-103024000D01*
X148469685Y-102956961D01*
X148522489Y-102911206D01*
X148574000Y-102900000D01*
X149010262Y-102900000D01*
X149077301Y-102919685D01*
G37*
%TD.AperFunction*%
%TD*%
%TA.AperFunction,Conductor*%
%TO.N,BAT+*%
G36*
X139741305Y-108519685D02*
G01*
X139787060Y-108572489D01*
X139798254Y-108625722D01*
X139781698Y-109817722D01*
X139761084Y-109884482D01*
X139707650Y-109929499D01*
X139657710Y-109940000D01*
X137596119Y-109940000D01*
X137529080Y-109920315D01*
X137483325Y-109867511D01*
X137472137Y-109813899D01*
X137489526Y-108787975D01*
X137510344Y-108721278D01*
X137563915Y-108676425D01*
X137614033Y-108666077D01*
X138361442Y-108669268D01*
X138366320Y-108669289D01*
X138366319Y-108669288D01*
X138366321Y-108669289D01*
X138364354Y-108630237D01*
X138380641Y-108562293D01*
X138431077Y-108513940D01*
X138488197Y-108500000D01*
X139674266Y-108500000D01*
X139741305Y-108519685D01*
G37*
%TD.AperFunction*%
%TD*%
%TA.AperFunction,Conductor*%
%TO.N,+3.3V*%
G36*
X139223987Y-96191104D02*
G01*
X139536221Y-96364567D01*
X139585263Y-96414331D01*
X139600000Y-96472962D01*
X139600000Y-97076000D01*
X139597449Y-97084685D01*
X139598738Y-97093647D01*
X139587759Y-97117687D01*
X139580315Y-97143039D01*
X139573474Y-97148966D01*
X139569713Y-97157203D01*
X139547478Y-97171492D01*
X139527511Y-97188794D01*
X139516996Y-97191081D01*
X139510935Y-97194977D01*
X139476000Y-97200000D01*
X139275041Y-97200000D01*
X139226922Y-97190283D01*
X139182293Y-97171492D01*
X138976127Y-97084685D01*
X138375881Y-96831949D01*
X138321734Y-96787792D01*
X138300055Y-96721370D01*
X138300000Y-96717666D01*
X138300000Y-96299500D01*
X138319685Y-96232461D01*
X138372489Y-96186706D01*
X138424000Y-96175500D01*
X139163767Y-96175500D01*
X139223987Y-96191104D01*
G37*
%TD.AperFunction*%
%TD*%
%TA.AperFunction,Conductor*%
%TO.N,Net-(IC1-VDDA3P3_1)*%
G36*
X134938531Y-99319685D02*
G01*
X134984286Y-99372489D01*
X134995413Y-99428426D01*
X134973581Y-100039698D01*
X134957221Y-100090364D01*
X134958707Y-100090980D01*
X134954032Y-100102264D01*
X134939500Y-100175323D01*
X134939500Y-100424678D01*
X134953917Y-100497156D01*
X134956221Y-100525771D01*
X134954270Y-100580424D01*
X134932206Y-100646718D01*
X134877804Y-100690560D01*
X134830349Y-100700000D01*
X133585784Y-100700000D01*
X133518745Y-100680315D01*
X133472990Y-100627511D01*
X133462293Y-100564774D01*
X133475029Y-100424678D01*
X133495935Y-100194707D01*
X133521608Y-100129727D01*
X133531737Y-100118262D01*
X134313681Y-99336319D01*
X134375004Y-99302834D01*
X134401362Y-99300000D01*
X134871492Y-99300000D01*
X134938531Y-99319685D01*
G37*
%TD.AperFunction*%
%TD*%
%TA.AperFunction,Conductor*%
%TO.N,vusb*%
G36*
X152192539Y-103919685D02*
G01*
X152238294Y-103972489D01*
X152249500Y-104024000D01*
X152249500Y-106288202D01*
X152229815Y-106355241D01*
X152207315Y-106381381D01*
X151515389Y-106988926D01*
X151452025Y-107018367D01*
X151432904Y-107019745D01*
X149630000Y-107009999D01*
X149629999Y-107010000D01*
X149170000Y-107599998D01*
X149170000Y-107599999D01*
X149161936Y-108099952D01*
X149141173Y-108166665D01*
X149087638Y-108211562D01*
X149039952Y-108221936D01*
X148663917Y-108228001D01*
X148596569Y-108209400D01*
X148549968Y-108157341D01*
X148537934Y-108106086D01*
X148530660Y-107669606D01*
X148549225Y-107602249D01*
X148552426Y-107597344D01*
X149100000Y-106800000D01*
X149100000Y-105224000D01*
X149102550Y-105215314D01*
X149101262Y-105206353D01*
X149112240Y-105182312D01*
X149119685Y-105156961D01*
X149126525Y-105151033D01*
X149130287Y-105142797D01*
X149152521Y-105128507D01*
X149172489Y-105111206D01*
X149183003Y-105108918D01*
X149189065Y-105105023D01*
X149224000Y-105100000D01*
X149350501Y-105100000D01*
X149417540Y-105119685D01*
X149463295Y-105172489D01*
X149474501Y-105224000D01*
X149474501Y-105914820D01*
X149474501Y-105914822D01*
X149474500Y-105914822D01*
X149483232Y-105958717D01*
X149483233Y-105958721D01*
X149483234Y-105958722D01*
X149516497Y-106008504D01*
X149518456Y-106009813D01*
X149519478Y-106010496D01*
X149549312Y-106038569D01*
X149899999Y-106499999D01*
X149900000Y-106500000D01*
X151100000Y-106500000D01*
X151629069Y-105970930D01*
X151690388Y-105937448D01*
X151692518Y-105937004D01*
X151697740Y-105935966D01*
X151780601Y-105880601D01*
X151835966Y-105797740D01*
X151850500Y-105724674D01*
X151850500Y-105415326D01*
X151850500Y-105415323D01*
X151850499Y-105415321D01*
X151835967Y-105342264D01*
X151835966Y-105342262D01*
X151835966Y-105342260D01*
X151820350Y-105318889D01*
X151799473Y-105252214D01*
X151817957Y-105184834D01*
X151820335Y-105181132D01*
X151835966Y-105157740D01*
X151850500Y-105084674D01*
X151850500Y-104775326D01*
X151850500Y-104775323D01*
X151850499Y-104775321D01*
X151835967Y-104702264D01*
X151835966Y-104702260D01*
X151780600Y-104619398D01*
X151755109Y-104602366D01*
X151710304Y-104548754D01*
X151700000Y-104499264D01*
X151700000Y-104034500D01*
X151719685Y-103967461D01*
X151772489Y-103921706D01*
X151824000Y-103910500D01*
X152024675Y-103910500D01*
X152065481Y-103902383D01*
X152089673Y-103900000D01*
X152125500Y-103900000D01*
X152192539Y-103919685D01*
G37*
%TD.AperFunction*%
%TD*%
%TA.AperFunction,Conductor*%
%TO.N,+3.3V*%
G36*
X135942539Y-104019685D02*
G01*
X135988294Y-104072489D01*
X135999500Y-104124000D01*
X135999500Y-104146144D01*
X136008255Y-104178819D01*
X136023387Y-104235290D01*
X136023388Y-104235293D01*
X136069526Y-104315205D01*
X136069529Y-104315209D01*
X136069531Y-104315212D01*
X136134788Y-104380469D01*
X136134791Y-104380470D01*
X136134794Y-104380473D01*
X136214706Y-104426611D01*
X136214707Y-104426611D01*
X136214712Y-104426614D01*
X136303856Y-104450500D01*
X136303858Y-104450500D01*
X136396142Y-104450500D01*
X136396144Y-104450500D01*
X136485288Y-104426614D01*
X136502610Y-104416613D01*
X136518099Y-104412462D01*
X136529676Y-104405023D01*
X136564611Y-104400000D01*
X136744158Y-104400000D01*
X136754336Y-104400500D01*
X136755326Y-104400500D01*
X137065664Y-104400500D01*
X137075842Y-104400000D01*
X137278630Y-104400000D01*
X137345669Y-104419685D01*
X137391424Y-104472489D01*
X137402626Y-104523064D01*
X137403117Y-104588129D01*
X137392557Y-104639148D01*
X137382318Y-104662338D01*
X137382318Y-104662339D01*
X137379500Y-104686625D01*
X137379500Y-105113365D01*
X137379502Y-105113388D01*
X137382317Y-105137659D01*
X137382317Y-105137660D01*
X137397331Y-105171664D01*
X137407892Y-105220813D01*
X137409999Y-105499999D01*
X137409999Y-105500000D01*
X137410000Y-105500000D01*
X137848670Y-105500000D01*
X137915709Y-105519685D01*
X137936312Y-105536280D01*
X139801697Y-107400000D01*
X139801698Y-107400000D01*
X140777698Y-107400000D01*
X140844737Y-107419685D01*
X140890492Y-107472489D01*
X140901698Y-107524000D01*
X140901698Y-108076000D01*
X140882013Y-108143039D01*
X140829209Y-108188794D01*
X140777698Y-108200000D01*
X139558319Y-108200000D01*
X139491280Y-108180315D01*
X139464614Y-108157211D01*
X138201698Y-106700000D01*
X138158846Y-106700000D01*
X138091807Y-106680315D01*
X138089956Y-106679103D01*
X138058722Y-106658233D01*
X138058721Y-106658232D01*
X138058720Y-106658232D01*
X138058717Y-106658231D01*
X138014822Y-106649500D01*
X138014820Y-106649500D01*
X136425698Y-106649500D01*
X136358659Y-106629815D01*
X136312904Y-106577011D01*
X136301698Y-106525500D01*
X136301698Y-105300001D01*
X136301698Y-105300000D01*
X135498799Y-105121578D01*
X135437626Y-105087819D01*
X135404415Y-105026347D01*
X135401698Y-105000531D01*
X135401698Y-104138730D01*
X135403658Y-104132054D01*
X135402438Y-104125207D01*
X135413373Y-104098966D01*
X135421383Y-104071691D01*
X135427284Y-104065587D01*
X135429316Y-104060714D01*
X135444734Y-104047542D01*
X135455200Y-104036720D01*
X135459336Y-104033861D01*
X135465212Y-104030469D01*
X135467375Y-104028305D01*
X135476514Y-104021990D01*
X135506872Y-104011959D01*
X135536694Y-104000430D01*
X135542498Y-104000188D01*
X135542856Y-104000070D01*
X135543200Y-104000158D01*
X135547012Y-104000000D01*
X135875500Y-104000000D01*
X135942539Y-104019685D01*
G37*
%TD.AperFunction*%
%TD*%
%TA.AperFunction,Conductor*%
%TO.N,+3.3V*%
G36*
X134061000Y-101052000D02*
G01*
X134600000Y-101150000D01*
X134976000Y-101150000D01*
X135043039Y-101169685D01*
X135088794Y-101222489D01*
X135100000Y-101274000D01*
X135100000Y-101525500D01*
X135097554Y-101533829D01*
X135098841Y-101542417D01*
X135087859Y-101566846D01*
X135080315Y-101592539D01*
X135073754Y-101598223D01*
X135070194Y-101606144D01*
X135047748Y-101620758D01*
X135027511Y-101638294D01*
X135017383Y-101640528D01*
X135011642Y-101644267D01*
X134978175Y-101649180D01*
X134976737Y-101649498D01*
X134976401Y-101649500D01*
X134903856Y-101649500D01*
X134902209Y-101649941D01*
X134892669Y-101649998D01*
X134892537Y-101649960D01*
X134891932Y-101650000D01*
X134800000Y-101650000D01*
X134357838Y-101839497D01*
X134334498Y-101849500D01*
X134315326Y-101849500D01*
X134242260Y-101864034D01*
X134159399Y-101919399D01*
X134154583Y-101926606D01*
X134128448Y-101937807D01*
X134128449Y-101937807D01*
X134100000Y-101950000D01*
X134100000Y-102010327D01*
X134097617Y-102034519D01*
X134089500Y-102075323D01*
X134089500Y-102324678D01*
X134090870Y-102331565D01*
X134090436Y-102336410D01*
X134092357Y-102340880D01*
X134087352Y-102370871D01*
X134084643Y-102401156D01*
X134081658Y-102404997D01*
X134080858Y-102409797D01*
X134060433Y-102432321D01*
X134041780Y-102456334D01*
X134036293Y-102458943D01*
X134033924Y-102461556D01*
X134002010Y-102475245D01*
X134001497Y-102475490D01*
X134000711Y-102475701D01*
X133934712Y-102493386D01*
X133934422Y-102493553D01*
X133926324Y-102495734D01*
X133916625Y-102495515D01*
X133894080Y-102500000D01*
X133849999Y-102500000D01*
X133439552Y-102741440D01*
X133029103Y-102982880D01*
X132966234Y-103000000D01*
X131624000Y-103000000D01*
X131556961Y-102980315D01*
X131511206Y-102927511D01*
X131500000Y-102876000D01*
X131500000Y-102424000D01*
X131519685Y-102356961D01*
X131572489Y-102311206D01*
X131624000Y-102300000D01*
X132251990Y-102300000D01*
X132253856Y-102300500D01*
X132346144Y-102300500D01*
X132348010Y-102300000D01*
X133049999Y-102300000D01*
X133050000Y-102300000D01*
X133250000Y-102250000D01*
X133298576Y-101375620D01*
X133300991Y-101366527D01*
X133300345Y-101360539D01*
X133311474Y-101327051D01*
X133415728Y-101118543D01*
X133463315Y-101067387D01*
X133526636Y-101050000D01*
X134038818Y-101050000D01*
X134061000Y-101052000D01*
G37*
%TD.AperFunction*%
%TD*%
%TA.AperFunction,Conductor*%
%TO.N,GND*%
G36*
X152192539Y-91190185D02*
G01*
X152238294Y-91242989D01*
X152249500Y-91294500D01*
X152249500Y-92361725D01*
X152229815Y-92428764D01*
X152177011Y-92474519D01*
X152107853Y-92484463D01*
X152044297Y-92455438D01*
X152015015Y-92418020D01*
X151941231Y-92273211D01*
X151934899Y-92264496D01*
X151839414Y-92133072D01*
X151716928Y-92010586D01*
X151576788Y-91908768D01*
X151422445Y-91830127D01*
X151257701Y-91776598D01*
X151257699Y-91776597D01*
X151257698Y-91776597D01*
X151126271Y-91755781D01*
X151086611Y-91749500D01*
X150913389Y-91749500D01*
X150873728Y-91755781D01*
X150742302Y-91776597D01*
X150577552Y-91830128D01*
X150423211Y-91908768D01*
X150359812Y-91954831D01*
X150283072Y-92010586D01*
X150283070Y-92010588D01*
X150283069Y-92010588D01*
X150160588Y-92133069D01*
X150160588Y-92133070D01*
X150160586Y-92133072D01*
X150152283Y-92144500D01*
X150058768Y-92273211D01*
X149980128Y-92427552D01*
X149926597Y-92592302D01*
X149899744Y-92761845D01*
X149899500Y-92763386D01*
X149899500Y-92936610D01*
X149926250Y-93105507D01*
X149926598Y-93107701D01*
X149980127Y-93272445D01*
X150058768Y-93426788D01*
X150160586Y-93566928D01*
X150283072Y-93689414D01*
X150423212Y-93791232D01*
X150577555Y-93869873D01*
X150742299Y-93923402D01*
X150913389Y-93950500D01*
X150913390Y-93950500D01*
X151086610Y-93950500D01*
X151086611Y-93950500D01*
X151257701Y-93923402D01*
X151422445Y-93869873D01*
X151576788Y-93791232D01*
X151716928Y-93689414D01*
X151839414Y-93566928D01*
X151941232Y-93426788D01*
X152015015Y-93281980D01*
X152062989Y-93231183D01*
X152130810Y-93214388D01*
X152196945Y-93236925D01*
X152240397Y-93291640D01*
X152249500Y-93338274D01*
X152249500Y-101808702D01*
X152229815Y-101875741D01*
X152177011Y-101921496D01*
X152107853Y-101931440D01*
X152044297Y-101902415D01*
X152037819Y-101896383D01*
X151968829Y-101827393D01*
X151968828Y-101827392D01*
X151968825Y-101827390D01*
X151968824Y-101827390D01*
X151866910Y-101782391D01*
X151841991Y-101779500D01*
X151458016Y-101779500D01*
X151457993Y-101779502D01*
X151433096Y-101782389D01*
X151433092Y-101782390D01*
X151331175Y-101827390D01*
X151331170Y-101827393D01*
X151252681Y-101905883D01*
X151191358Y-101939368D01*
X151121666Y-101934384D01*
X151077319Y-101905883D01*
X150998829Y-101827393D01*
X150998828Y-101827392D01*
X150998825Y-101827390D01*
X150998824Y-101827390D01*
X150896910Y-101782391D01*
X150871991Y-101779500D01*
X150488016Y-101779500D01*
X150487993Y-101779502D01*
X150463096Y-101782389D01*
X150463092Y-101782390D01*
X150361175Y-101827390D01*
X150361170Y-101827393D01*
X150282393Y-101906170D01*
X150282390Y-101906175D01*
X150262782Y-101950585D01*
X150250784Y-101964789D01*
X150243060Y-101981703D01*
X150228707Y-101990927D01*
X150217697Y-102003962D01*
X150199923Y-102009425D01*
X150184282Y-102019477D01*
X150152224Y-102024086D01*
X150150911Y-102024490D01*
X150149347Y-102024500D01*
X150009297Y-102024500D01*
X150009289Y-102024499D01*
X149994855Y-102024499D01*
X149905146Y-102024499D01*
X149905145Y-102024499D01*
X149858280Y-102043912D01*
X149858279Y-102043912D01*
X149822267Y-102058828D01*
X149822261Y-102058832D01*
X149558832Y-102322261D01*
X149558830Y-102322263D01*
X149558830Y-102322264D01*
X149550752Y-102341767D01*
X149524499Y-102405145D01*
X149524499Y-102494855D01*
X149524500Y-102494857D01*
X149524500Y-102519521D01*
X149524500Y-102806878D01*
X149504815Y-102873917D01*
X149452011Y-102919672D01*
X149382853Y-102929616D01*
X149328427Y-102907781D01*
X149172732Y-102796570D01*
X149169596Y-102794388D01*
X149169592Y-102794385D01*
X149169560Y-102794363D01*
X149164529Y-102790954D01*
X149164528Y-102790953D01*
X149164523Y-102790950D01*
X149121112Y-102770484D01*
X149054074Y-102750799D01*
X149054064Y-102750797D01*
X149010265Y-102744500D01*
X149010262Y-102744500D01*
X148574000Y-102744500D01*
X148573991Y-102744500D01*
X148540944Y-102748054D01*
X148489433Y-102759260D01*
X148420657Y-102793686D01*
X148367860Y-102839436D01*
X148362376Y-102844422D01*
X148320486Y-102913145D01*
X148320483Y-102913151D01*
X148300799Y-102980187D01*
X148300797Y-102980197D01*
X148294500Y-103023996D01*
X148294500Y-103976008D01*
X148298054Y-104009055D01*
X148309260Y-104060566D01*
X148343686Y-104129342D01*
X148380138Y-104171409D01*
X148389442Y-104182146D01*
X148393691Y-104186819D01*
X148394422Y-104187623D01*
X148455635Y-104224935D01*
X148463150Y-104229516D01*
X148530189Y-104249201D01*
X148574000Y-104255500D01*
X148574003Y-104255500D01*
X149275991Y-104255500D01*
X149276000Y-104255500D01*
X149309055Y-104251946D01*
X149360566Y-104240740D01*
X149429342Y-104206313D01*
X149469623Y-104171408D01*
X149533178Y-104142383D01*
X149575019Y-104143504D01*
X149610178Y-104150498D01*
X149610181Y-104150498D01*
X149889823Y-104150498D01*
X149933718Y-104141766D01*
X149933718Y-104141765D01*
X149933723Y-104141765D01*
X149983505Y-104108502D01*
X150016768Y-104058720D01*
X150019305Y-104045966D01*
X150025501Y-104014820D01*
X150025501Y-103185175D01*
X150016769Y-103141280D01*
X150016767Y-103141274D01*
X149996398Y-103110789D01*
X149990747Y-103092743D01*
X149980524Y-103076835D01*
X149976072Y-103045872D01*
X149975521Y-103044112D01*
X149975501Y-103041901D01*
X149975501Y-102944855D01*
X149975501Y-102855144D01*
X149975500Y-102855141D01*
X149975500Y-102599500D01*
X149995185Y-102532461D01*
X150047989Y-102486706D01*
X150099500Y-102475500D01*
X150149347Y-102475500D01*
X150216386Y-102495185D01*
X150262141Y-102547989D01*
X150262782Y-102549415D01*
X150282392Y-102593828D01*
X150361172Y-102672608D01*
X150463091Y-102717609D01*
X150488009Y-102720500D01*
X150871990Y-102720499D01*
X150880020Y-102719567D01*
X150896903Y-102717610D01*
X150896905Y-102717609D01*
X150896909Y-102717609D01*
X150998828Y-102672608D01*
X151077319Y-102594117D01*
X151138642Y-102560632D01*
X151208334Y-102565616D01*
X151252681Y-102594117D01*
X151331172Y-102672608D01*
X151433091Y-102717609D01*
X151458009Y-102720500D01*
X151600500Y-102720499D01*
X151609185Y-102723049D01*
X151618147Y-102721761D01*
X151642184Y-102732738D01*
X151667539Y-102740183D01*
X151673467Y-102747025D01*
X151681703Y-102750786D01*
X151695989Y-102773017D01*
X151713294Y-102792987D01*
X151715581Y-102803502D01*
X151719477Y-102809564D01*
X151724500Y-102844499D01*
X151724500Y-103082893D01*
X151704815Y-103149932D01*
X151669392Y-103185995D01*
X151619399Y-103219399D01*
X151564033Y-103302260D01*
X151564032Y-103302264D01*
X151549500Y-103375321D01*
X151549500Y-103684678D01*
X151564032Y-103757735D01*
X151564035Y-103757743D01*
X151576307Y-103776109D01*
X151579684Y-103786894D01*
X151586930Y-103795575D01*
X151589938Y-103819644D01*
X151597185Y-103842786D01*
X151594419Y-103855482D01*
X151595597Y-103864905D01*
X151587740Y-103886141D01*
X151585031Y-103898580D01*
X151582331Y-103904213D01*
X151570484Y-103923650D01*
X151566471Y-103937313D01*
X151564272Y-103941902D01*
X151564034Y-103942260D01*
X151563986Y-103942500D01*
X151563985Y-103942503D01*
X151563043Y-103947237D01*
X151560407Y-103957963D01*
X151550799Y-103990688D01*
X151550797Y-103990696D01*
X151545189Y-104029708D01*
X151544500Y-104034500D01*
X151544500Y-104499264D01*
X151547765Y-104530960D01*
X151556081Y-104570902D01*
X151558070Y-104580453D01*
X151590984Y-104648469D01*
X151627582Y-104692260D01*
X151635791Y-104702083D01*
X151653861Y-104718314D01*
X151671664Y-104747132D01*
X151689977Y-104775628D01*
X151690192Y-104777124D01*
X151690581Y-104777754D01*
X151695000Y-104810563D01*
X151695000Y-105056737D01*
X151684253Y-105107231D01*
X151680346Y-105115994D01*
X151676153Y-105120921D01*
X151675315Y-105123776D01*
X151669262Y-105129020D01*
X151635069Y-105169208D01*
X151568209Y-105189495D01*
X151567093Y-105189500D01*
X151375323Y-105189500D01*
X151302264Y-105204032D01*
X151302260Y-105204033D01*
X151219399Y-105259399D01*
X151186746Y-105308268D01*
X151133133Y-105353072D01*
X151063808Y-105361779D01*
X151014904Y-105342579D01*
X151004665Y-105335759D01*
X150977736Y-105308830D01*
X150953229Y-105298679D01*
X150942031Y-105294040D01*
X150942029Y-105294039D01*
X150894855Y-105274499D01*
X150805145Y-105274499D01*
X150790711Y-105274499D01*
X150790703Y-105274500D01*
X150649500Y-105274500D01*
X150582461Y-105254815D01*
X150536706Y-105202011D01*
X150525500Y-105150500D01*
X150525500Y-105085177D01*
X150516768Y-105041282D01*
X150516767Y-105041281D01*
X150516767Y-105041278D01*
X150483504Y-104991496D01*
X150481373Y-104990072D01*
X150433724Y-104958234D01*
X150433717Y-104958231D01*
X150389822Y-104949500D01*
X150389820Y-104949500D01*
X150110180Y-104949500D01*
X150110178Y-104949500D01*
X150066282Y-104958231D01*
X150066275Y-104958234D01*
X150016496Y-104991495D01*
X150016495Y-104991496D01*
X149983234Y-105041275D01*
X149983231Y-105041282D01*
X149974500Y-105085177D01*
X149974500Y-105085180D01*
X149974500Y-105914820D01*
X149974500Y-105914822D01*
X149974499Y-105914822D01*
X149978706Y-105935966D01*
X149983233Y-105958722D01*
X150016496Y-106008504D01*
X150066278Y-106041767D01*
X150066280Y-106041767D01*
X150066282Y-106041768D01*
X150110177Y-106050500D01*
X150110180Y-106050500D01*
X150389822Y-106050500D01*
X150433717Y-106041768D01*
X150433717Y-106041767D01*
X150433722Y-106041767D01*
X150483504Y-106008504D01*
X150516767Y-105958722D01*
X150519599Y-105944486D01*
X150525500Y-105914822D01*
X150525500Y-105849500D01*
X150545185Y-105782461D01*
X150597989Y-105736706D01*
X150649500Y-105725500D01*
X150705232Y-105725500D01*
X150734672Y-105734144D01*
X150764659Y-105740668D01*
X150769674Y-105744422D01*
X150772271Y-105745185D01*
X150792913Y-105761819D01*
X150822266Y-105791172D01*
X150886365Y-105817721D01*
X150905145Y-105825500D01*
X151116303Y-105825500D01*
X151183342Y-105845185D01*
X151194731Y-105853453D01*
X151209098Y-105865184D01*
X151219399Y-105880601D01*
X151266606Y-105912143D01*
X151271207Y-105915900D01*
X151287726Y-105940023D01*
X151306474Y-105962455D01*
X151307234Y-105968511D01*
X151310684Y-105973548D01*
X151311538Y-106002772D01*
X151315183Y-106031780D01*
X151312548Y-106037286D01*
X151312727Y-106043388D01*
X151297646Y-106068434D01*
X151285029Y-106094808D01*
X151280461Y-106099628D01*
X151071907Y-106308182D01*
X151010587Y-106341666D01*
X150984228Y-106344500D01*
X150038639Y-106344500D01*
X149971600Y-106324815D01*
X149939916Y-106295532D01*
X149756242Y-106053856D01*
X149673121Y-105944486D01*
X149673113Y-105944476D01*
X149661832Y-105931941D01*
X149631617Y-105868942D01*
X149630001Y-105848990D01*
X149630001Y-105224008D01*
X149630000Y-105223991D01*
X149629774Y-105221885D01*
X149626447Y-105190945D01*
X149615241Y-105139434D01*
X149591078Y-105091163D01*
X149580814Y-105070657D01*
X149535064Y-105017860D01*
X149530079Y-105012377D01*
X149461756Y-104970730D01*
X149461753Y-104970729D01*
X149461351Y-104970484D01*
X149444774Y-104965616D01*
X149433724Y-104958233D01*
X149389822Y-104949500D01*
X149385277Y-104949500D01*
X149369931Y-104947293D01*
X149369925Y-104947292D01*
X149350502Y-104944500D01*
X149350501Y-104944500D01*
X149224000Y-104944500D01*
X149201866Y-104946083D01*
X149186881Y-104948238D01*
X149169234Y-104949500D01*
X149110180Y-104949500D01*
X149066284Y-104958231D01*
X149066277Y-104958234D01*
X149016498Y-104991495D01*
X149016497Y-104991496D01*
X148983236Y-105041275D01*
X148983233Y-105041282D01*
X148974501Y-105085177D01*
X148973905Y-105091240D01*
X148973132Y-105091163D01*
X148969478Y-105116577D01*
X148968671Y-105119325D01*
X148962495Y-105135885D01*
X148959817Y-105141750D01*
X148956904Y-105148551D01*
X148956903Y-105148553D01*
X148955942Y-105156588D01*
X148951802Y-105176774D01*
X148950796Y-105180200D01*
X148944500Y-105223995D01*
X148944500Y-106713267D01*
X148924815Y-106780306D01*
X148922717Y-106783464D01*
X148425578Y-107507367D01*
X148371400Y-107551487D01*
X148301970Y-107559311D01*
X148239331Y-107528357D01*
X148235680Y-107524851D01*
X148197016Y-107486187D01*
X148097663Y-107442318D01*
X148073373Y-107439500D01*
X147706634Y-107439500D01*
X147706611Y-107439502D01*
X147682340Y-107442317D01*
X147682337Y-107442318D01*
X147582984Y-107486186D01*
X147506187Y-107562983D01*
X147462318Y-107662335D01*
X147462318Y-107662337D01*
X147459500Y-107686625D01*
X147459500Y-108113365D01*
X147459502Y-108113388D01*
X147462317Y-108137659D01*
X147462318Y-108137662D01*
X147506186Y-108237015D01*
X147506187Y-108237016D01*
X147582984Y-108313813D01*
X147590583Y-108317168D01*
X147604788Y-108329166D01*
X147621703Y-108336891D01*
X147630926Y-108351243D01*
X147643960Y-108362252D01*
X147649423Y-108380025D01*
X147659477Y-108395669D01*
X147664085Y-108427722D01*
X147664490Y-108429038D01*
X147664500Y-108430604D01*
X147664500Y-108555142D01*
X147664499Y-108555156D01*
X147664499Y-108654855D01*
X147672822Y-108674948D01*
X147680060Y-108692421D01*
X147689500Y-108739876D01*
X147689500Y-108944678D01*
X147704032Y-109017735D01*
X147704033Y-109017739D01*
X147704034Y-109017740D01*
X147759399Y-109100601D01*
X147840326Y-109154674D01*
X147842260Y-109155966D01*
X147842264Y-109155967D01*
X147915321Y-109170499D01*
X147915324Y-109170500D01*
X147915326Y-109170500D01*
X148224676Y-109170500D01*
X148224677Y-109170499D01*
X148297740Y-109155966D01*
X148380601Y-109100601D01*
X148435966Y-109017740D01*
X148450500Y-108944674D01*
X148450500Y-108695326D01*
X148450500Y-108695323D01*
X148450499Y-108695321D01*
X148435967Y-108622262D01*
X148435966Y-108622260D01*
X148422462Y-108602050D01*
X148380601Y-108539399D01*
X148380599Y-108539398D01*
X148373815Y-108529244D01*
X148374995Y-108528455D01*
X148347931Y-108478891D01*
X148352915Y-108409199D01*
X148394787Y-108353266D01*
X148460251Y-108328849D01*
X148528524Y-108343701D01*
X148531919Y-108345625D01*
X148555165Y-108359285D01*
X148555168Y-108359286D01*
X148555171Y-108359288D01*
X148595708Y-108370484D01*
X148622522Y-108377890D01*
X148659863Y-108382645D01*
X148666425Y-108383481D01*
X149042460Y-108377416D01*
X149073008Y-108373882D01*
X149120694Y-108363508D01*
X149187560Y-108330708D01*
X149241095Y-108285811D01*
X149246651Y-108280921D01*
X149289648Y-108212875D01*
X149310411Y-108146162D01*
X149317416Y-108102460D01*
X149323970Y-107696057D01*
X149344733Y-107629347D01*
X149350147Y-107621839D01*
X149668129Y-107213992D01*
X149724872Y-107173228D01*
X149766584Y-107166239D01*
X151432063Y-107175243D01*
X151444081Y-107174843D01*
X151463202Y-107173465D01*
X151517548Y-107159388D01*
X151580912Y-107129947D01*
X151617988Y-107105775D01*
X151878083Y-106877399D01*
X152043685Y-106731992D01*
X152107049Y-106702550D01*
X152176271Y-106712040D01*
X152229374Y-106757448D01*
X152249497Y-106824357D01*
X152249500Y-106825170D01*
X152249500Y-108091725D01*
X152229815Y-108158764D01*
X152177011Y-108204519D01*
X152107853Y-108214463D01*
X152044297Y-108185438D01*
X152015015Y-108148020D01*
X151956184Y-108032558D01*
X151941232Y-108003212D01*
X151839414Y-107863072D01*
X151716928Y-107740586D01*
X151576788Y-107638768D01*
X151543678Y-107621898D01*
X151422447Y-107560128D01*
X151422446Y-107560127D01*
X151422445Y-107560127D01*
X151257701Y-107506598D01*
X151257699Y-107506597D01*
X151257698Y-107506597D01*
X151126271Y-107485781D01*
X151086611Y-107479500D01*
X150913389Y-107479500D01*
X150873728Y-107485781D01*
X150742302Y-107506597D01*
X150577552Y-107560128D01*
X150423211Y-107638768D01*
X150348011Y-107693405D01*
X150283072Y-107740586D01*
X150283070Y-107740588D01*
X150283069Y-107740588D01*
X150160588Y-107863069D01*
X150160588Y-107863070D01*
X150160586Y-107863072D01*
X150116859Y-107923256D01*
X150058768Y-108003211D01*
X149980128Y-108157552D01*
X149980127Y-108157554D01*
X149980127Y-108157555D01*
X149968648Y-108192884D01*
X149926597Y-108322302D01*
X149904748Y-108460254D01*
X149899746Y-108491834D01*
X149899500Y-108493389D01*
X149899500Y-108666611D01*
X149901241Y-108677601D01*
X149918305Y-108785345D01*
X149926598Y-108837701D01*
X149980127Y-109002445D01*
X150058768Y-109156788D01*
X150160586Y-109296928D01*
X150283072Y-109419414D01*
X150423212Y-109521232D01*
X150577555Y-109599873D01*
X150742299Y-109653402D01*
X150913389Y-109680500D01*
X150913390Y-109680500D01*
X151086610Y-109680500D01*
X151086611Y-109680500D01*
X151257701Y-109653402D01*
X151422445Y-109599873D01*
X151576788Y-109521232D01*
X151716928Y-109419414D01*
X151839414Y-109296928D01*
X151941232Y-109156788D01*
X151946655Y-109146144D01*
X152015015Y-109011980D01*
X152062989Y-108961183D01*
X152130810Y-108944388D01*
X152196945Y-108966925D01*
X152240397Y-109021640D01*
X152249500Y-109068274D01*
X152249500Y-109845500D01*
X152229815Y-109912539D01*
X152177011Y-109958294D01*
X152125500Y-109969500D01*
X140058674Y-109969500D01*
X139991635Y-109949815D01*
X139945880Y-109897011D01*
X139935936Y-109827853D01*
X139936193Y-109826153D01*
X139937182Y-109819890D01*
X139937182Y-109819887D01*
X139937183Y-109819882D01*
X139950587Y-108854819D01*
X139953739Y-108627891D01*
X139953738Y-108627889D01*
X139953739Y-108627882D01*
X139950426Y-108593723D01*
X139944701Y-108566496D01*
X139939233Y-108540494D01*
X139939231Y-108540488D01*
X139936318Y-108534617D01*
X139924153Y-108465815D01*
X139951116Y-108401357D01*
X140008647Y-108361710D01*
X140047395Y-108355500D01*
X140489167Y-108355500D01*
X140556206Y-108375185D01*
X140576848Y-108391819D01*
X140943181Y-108758152D01*
X140957884Y-108785079D01*
X140974477Y-108810898D01*
X140975368Y-108817098D01*
X140976666Y-108819475D01*
X140979500Y-108845833D01*
X140979500Y-109016667D01*
X140959815Y-109083706D01*
X140958603Y-109085557D01*
X140914033Y-109152260D01*
X140914032Y-109152264D01*
X140899500Y-109225321D01*
X140899500Y-109474678D01*
X140914032Y-109547735D01*
X140914033Y-109547739D01*
X140914034Y-109547740D01*
X140969399Y-109630601D01*
X141052260Y-109685966D01*
X141052264Y-109685967D01*
X141125321Y-109700499D01*
X141125324Y-109700500D01*
X141125326Y-109700500D01*
X141434676Y-109700500D01*
X141434677Y-109700499D01*
X141507740Y-109685966D01*
X141590601Y-109630601D01*
X141645966Y-109547740D01*
X141660500Y-109474674D01*
X141660500Y-109225326D01*
X141660500Y-109225323D01*
X141660499Y-109225321D01*
X141645967Y-109152264D01*
X141645966Y-109152260D01*
X141601397Y-109085557D01*
X141580520Y-109018879D01*
X141580500Y-109016667D01*
X141580500Y-108630440D01*
X141580499Y-108630434D01*
X141579814Y-108627878D01*
X141578309Y-108622260D01*
X141560022Y-108554012D01*
X141520460Y-108485489D01*
X141093517Y-108058546D01*
X141060032Y-107997223D01*
X141057198Y-107970865D01*
X141057198Y-107524008D01*
X141057197Y-107523991D01*
X141056474Y-107517265D01*
X141053644Y-107490945D01*
X141042438Y-107439434D01*
X141008011Y-107370658D01*
X141008009Y-107370656D01*
X141003702Y-107364210D01*
X141006353Y-107362438D01*
X140983407Y-107312245D01*
X140982175Y-107291510D01*
X140989487Y-106994169D01*
X141010350Y-106928324D01*
X141016767Y-106918722D01*
X141025500Y-106874820D01*
X141025500Y-106395180D01*
X141025499Y-106395177D01*
X141022573Y-106380466D01*
X141016767Y-106351278D01*
X141016766Y-106351277D01*
X141016766Y-106351275D01*
X141015985Y-106349389D01*
X141006584Y-106298891D01*
X141011484Y-106099628D01*
X141023370Y-105616278D01*
X141023391Y-105615417D01*
X141025500Y-105604820D01*
X141025500Y-105529702D01*
X141025536Y-105528239D01*
X141025537Y-105528161D01*
X141027585Y-105444857D01*
X141068052Y-103799201D01*
X141089379Y-103732666D01*
X141104329Y-103714574D01*
X141560294Y-103258610D01*
X141560297Y-103258608D01*
X141577735Y-103241170D01*
X141577736Y-103241170D01*
X141641170Y-103177736D01*
X141643127Y-103173010D01*
X141686963Y-103118605D01*
X141753256Y-103096536D01*
X141756089Y-103096467D01*
X142050075Y-103092838D01*
X142099056Y-103102267D01*
X142155145Y-103125500D01*
X143040705Y-103125500D01*
X143055143Y-103125500D01*
X143055145Y-103125501D01*
X143102332Y-103125501D01*
X143102336Y-103125502D01*
X143149786Y-103134941D01*
X143152257Y-103135964D01*
X143152260Y-103135966D01*
X143152263Y-103135966D01*
X143152264Y-103135967D01*
X143225321Y-103150499D01*
X143225324Y-103150500D01*
X143225326Y-103150500D01*
X143534676Y-103150500D01*
X143534677Y-103150499D01*
X143607740Y-103135966D01*
X143631110Y-103120350D01*
X143697786Y-103099473D01*
X143765166Y-103117957D01*
X143768867Y-103120335D01*
X143792260Y-103135966D01*
X143792262Y-103135966D01*
X143792264Y-103135967D01*
X143865321Y-103150499D01*
X143865324Y-103150500D01*
X144128724Y-103150500D01*
X144195763Y-103170185D01*
X144241518Y-103222989D01*
X144248499Y-103242407D01*
X144249500Y-103246142D01*
X144249500Y-103246144D01*
X144267705Y-103314087D01*
X144273387Y-103335290D01*
X144273388Y-103335293D01*
X144319526Y-103415205D01*
X144319529Y-103415209D01*
X144319531Y-103415212D01*
X144384788Y-103480469D01*
X144384791Y-103480470D01*
X144384794Y-103480473D01*
X144464706Y-103526611D01*
X144464707Y-103526611D01*
X144464712Y-103526614D01*
X144553856Y-103550500D01*
X144553858Y-103550500D01*
X144646142Y-103550500D01*
X144646144Y-103550500D01*
X144735288Y-103526614D01*
X144815212Y-103480469D01*
X144880469Y-103415212D01*
X144926614Y-103335288D01*
X144950500Y-103246144D01*
X144950500Y-103174500D01*
X144970185Y-103107461D01*
X145022989Y-103061706D01*
X145074500Y-103050500D01*
X145744877Y-103050500D01*
X145811916Y-103070185D01*
X145832558Y-103086819D01*
X146372353Y-103626614D01*
X146877778Y-104132038D01*
X146911263Y-104193361D01*
X146906279Y-104263053D01*
X146893200Y-104288608D01*
X146864035Y-104332257D01*
X146864032Y-104332264D01*
X146849500Y-104405321D01*
X146849500Y-104714678D01*
X146864032Y-104787735D01*
X146864035Y-104787742D01*
X146879649Y-104811111D01*
X146884727Y-104827329D01*
X146894362Y-104841330D01*
X146894950Y-104859981D01*
X146900526Y-104877788D01*
X146896042Y-104894580D01*
X146896566Y-104911165D01*
X146884329Y-104938451D01*
X146882924Y-104943716D01*
X146881347Y-104946347D01*
X146864034Y-104972260D01*
X146863142Y-104976743D01*
X146855320Y-104989803D01*
X146836086Y-105007561D01*
X146819658Y-105027946D01*
X146810825Y-105030885D01*
X146803986Y-105037200D01*
X146778203Y-105041741D01*
X146753362Y-105050008D01*
X146744342Y-105047705D01*
X146735175Y-105049320D01*
X146711030Y-105039201D01*
X146685664Y-105032726D01*
X146680066Y-105029198D01*
X146633722Y-104998233D01*
X146633721Y-104998232D01*
X146633720Y-104998232D01*
X146633717Y-104998231D01*
X146589822Y-104989500D01*
X146589820Y-104989500D01*
X146059767Y-104989500D01*
X145992728Y-104969815D01*
X145972086Y-104953181D01*
X145786819Y-104767914D01*
X145753334Y-104706591D01*
X145750500Y-104680233D01*
X145750500Y-104653858D01*
X145750500Y-104653856D01*
X145726614Y-104564712D01*
X145718120Y-104550000D01*
X145680473Y-104484794D01*
X145680470Y-104484791D01*
X145680469Y-104484788D01*
X145615212Y-104419531D01*
X145615209Y-104419529D01*
X145615205Y-104419526D01*
X145535293Y-104373388D01*
X145535290Y-104373387D01*
X145535289Y-104373386D01*
X145535288Y-104373386D01*
X145446144Y-104349500D01*
X145353856Y-104349500D01*
X145264712Y-104373386D01*
X145264711Y-104373386D01*
X145264709Y-104373387D01*
X145264706Y-104373388D01*
X145184794Y-104419526D01*
X145184785Y-104419533D01*
X145119533Y-104484785D01*
X145119526Y-104484794D01*
X145073388Y-104564706D01*
X145073387Y-104564709D01*
X145073386Y-104564711D01*
X145073386Y-104564712D01*
X145049500Y-104653856D01*
X145049500Y-104746144D01*
X145071253Y-104827329D01*
X145073387Y-104835290D01*
X145073388Y-104835293D01*
X145119526Y-104915205D01*
X145119529Y-104915209D01*
X145119531Y-104915212D01*
X145184788Y-104980469D01*
X145184791Y-104980470D01*
X145184794Y-104980473D01*
X145264706Y-105026611D01*
X145264707Y-105026611D01*
X145264712Y-105026614D01*
X145282594Y-105031405D01*
X145342251Y-105067766D01*
X145372782Y-105130612D01*
X145374500Y-105151179D01*
X145374500Y-105604821D01*
X145378120Y-105623022D01*
X145371891Y-105692614D01*
X145329027Y-105747790D01*
X145288599Y-105766985D01*
X145264710Y-105773386D01*
X145264706Y-105773388D01*
X145184794Y-105819526D01*
X145184785Y-105819533D01*
X145119533Y-105884785D01*
X145119526Y-105884794D01*
X145073388Y-105964706D01*
X145073387Y-105964709D01*
X145073386Y-105964711D01*
X145073386Y-105964712D01*
X145049500Y-106053856D01*
X145049500Y-106146144D01*
X145063359Y-106197868D01*
X145073387Y-106235290D01*
X145073388Y-106235293D01*
X145119526Y-106315205D01*
X145119529Y-106315209D01*
X145119531Y-106315212D01*
X145184788Y-106380469D01*
X145184791Y-106380470D01*
X145184794Y-106380473D01*
X145264706Y-106426611D01*
X145264707Y-106426611D01*
X145264712Y-106426614D01*
X145282594Y-106431405D01*
X145342251Y-106467766D01*
X145372782Y-106530612D01*
X145374500Y-106551179D01*
X145374500Y-106874820D01*
X145374500Y-106874822D01*
X145374499Y-106874822D01*
X145383231Y-106918717D01*
X145383234Y-106918724D01*
X145409628Y-106958225D01*
X145416496Y-106968504D01*
X145466278Y-107001767D01*
X145466281Y-107001767D01*
X145466282Y-107001768D01*
X145510177Y-107010500D01*
X146471233Y-107010500D01*
X146538272Y-107030185D01*
X146584027Y-107082989D01*
X146593971Y-107152147D01*
X146564946Y-107215703D01*
X146558914Y-107222181D01*
X146287914Y-107493181D01*
X146226591Y-107526666D01*
X146200233Y-107529500D01*
X145510178Y-107529500D01*
X145466282Y-107538231D01*
X145466275Y-107538234D01*
X145416496Y-107571495D01*
X145416495Y-107571496D01*
X145383234Y-107621275D01*
X145383231Y-107621282D01*
X145374500Y-107665177D01*
X145374500Y-107665180D01*
X145374500Y-108144820D01*
X145374500Y-108144822D01*
X145374499Y-108144822D01*
X145383231Y-108188717D01*
X145383234Y-108188724D01*
X145416495Y-108238503D01*
X145416496Y-108238504D01*
X145466278Y-108271767D01*
X145466281Y-108271767D01*
X145466282Y-108271768D01*
X145510177Y-108280500D01*
X145510180Y-108280500D01*
X146589822Y-108280500D01*
X146633717Y-108271768D01*
X146633717Y-108271767D01*
X146633722Y-108271767D01*
X146683504Y-108238504D01*
X146716767Y-108188722D01*
X146718550Y-108179757D01*
X146725500Y-108144822D01*
X146725500Y-107744766D01*
X146745185Y-107677727D01*
X146761815Y-107657089D01*
X147327734Y-107091170D01*
X147327736Y-107091170D01*
X147391170Y-107027736D01*
X147409074Y-106984511D01*
X147425501Y-106944854D01*
X147425501Y-106855145D01*
X147425501Y-106845156D01*
X147425500Y-106845142D01*
X147425500Y-105613697D01*
X147445185Y-105546658D01*
X147472043Y-105519317D01*
X147471964Y-105519238D01*
X147480598Y-105510603D01*
X147480597Y-105510603D01*
X147480601Y-105510601D01*
X147535966Y-105427740D01*
X147550500Y-105354674D01*
X147550500Y-105045326D01*
X147550500Y-105045323D01*
X147550499Y-105045321D01*
X147535967Y-104972264D01*
X147535966Y-104972262D01*
X147535966Y-104972260D01*
X147520350Y-104948889D01*
X147499473Y-104882214D01*
X147517957Y-104814834D01*
X147520350Y-104811111D01*
X147535966Y-104787740D01*
X147550500Y-104714674D01*
X147550500Y-104405326D01*
X147550500Y-104405323D01*
X147550499Y-104405321D01*
X147535967Y-104332264D01*
X147535966Y-104332263D01*
X147535966Y-104332260D01*
X147485748Y-104257103D01*
X147473816Y-104239244D01*
X147476793Y-104237254D01*
X147472115Y-104228688D01*
X147455523Y-104202870D01*
X147454631Y-104196669D01*
X147453334Y-104194293D01*
X147450500Y-104167935D01*
X147450500Y-104164270D01*
X147450501Y-104164261D01*
X147450501Y-104084500D01*
X147470186Y-104017461D01*
X147522990Y-103971706D01*
X147574501Y-103960500D01*
X147619725Y-103960500D01*
X147619727Y-103960500D01*
X147721587Y-103933207D01*
X147812913Y-103880480D01*
X147887480Y-103805913D01*
X147940207Y-103714587D01*
X147967500Y-103612727D01*
X147967500Y-103507273D01*
X147940207Y-103405413D01*
X147887480Y-103314087D01*
X147812913Y-103239520D01*
X147742903Y-103199100D01*
X147721589Y-103186794D01*
X147721588Y-103186793D01*
X147721587Y-103186793D01*
X147619727Y-103159500D01*
X147514273Y-103159500D01*
X147412413Y-103186793D01*
X147412410Y-103186794D01*
X147321085Y-103239521D01*
X147246520Y-103314086D01*
X147192285Y-103408022D01*
X147141718Y-103456237D01*
X147073110Y-103469459D01*
X147008246Y-103443491D01*
X146967718Y-103386576D01*
X146960900Y-103345479D01*
X146969381Y-101420338D01*
X146978081Y-101391184D01*
X146984548Y-101361458D01*
X146988546Y-101356116D01*
X146989361Y-101353387D01*
X147005694Y-101333209D01*
X147080293Y-101258611D01*
X147080297Y-101258608D01*
X147097735Y-101241170D01*
X147097736Y-101241170D01*
X147161170Y-101177736D01*
X147166519Y-101164822D01*
X147899499Y-101164822D01*
X147908231Y-101208717D01*
X147908234Y-101208724D01*
X147940952Y-101257690D01*
X147941496Y-101258504D01*
X147991278Y-101291767D01*
X147991281Y-101291767D01*
X147991282Y-101291768D01*
X148035177Y-101300500D01*
X148035180Y-101300500D01*
X149164822Y-101300500D01*
X149208717Y-101291768D01*
X149208717Y-101291767D01*
X149208722Y-101291767D01*
X149258504Y-101258504D01*
X149291767Y-101208722D01*
X149295604Y-101189433D01*
X149300500Y-101164822D01*
X149300500Y-100735177D01*
X149291768Y-100691282D01*
X149291767Y-100691281D01*
X149291767Y-100691278D01*
X149258504Y-100641496D01*
X149240594Y-100629529D01*
X149208724Y-100608234D01*
X149208717Y-100608231D01*
X149164822Y-100599500D01*
X149164820Y-100599500D01*
X148035180Y-100599500D01*
X148035178Y-100599500D01*
X147991282Y-100608231D01*
X147991275Y-100608234D01*
X147941496Y-100641495D01*
X147941495Y-100641496D01*
X147908234Y-100691275D01*
X147908231Y-100691282D01*
X147899500Y-100735177D01*
X147899500Y-100735180D01*
X147899500Y-101164820D01*
X147899500Y-101164822D01*
X147899499Y-101164822D01*
X147166519Y-101164822D01*
X147184812Y-101120658D01*
X147195501Y-101094854D01*
X147195501Y-101005145D01*
X147195500Y-101005142D01*
X147195500Y-100284857D01*
X147195501Y-100284855D01*
X147195501Y-100195145D01*
X147171079Y-100136187D01*
X147161170Y-100112264D01*
X147097736Y-100048830D01*
X147091819Y-100042913D01*
X147058334Y-99981590D01*
X147055500Y-99955232D01*
X147055500Y-99864822D01*
X147899499Y-99864822D01*
X147908231Y-99908717D01*
X147908234Y-99908724D01*
X147941495Y-99958503D01*
X147941496Y-99958504D01*
X147991278Y-99991767D01*
X147991281Y-99991767D01*
X147991282Y-99991768D01*
X148035177Y-100000500D01*
X148035180Y-100000500D01*
X149164822Y-100000500D01*
X149208717Y-99991768D01*
X149208717Y-99991767D01*
X149208722Y-99991767D01*
X149258504Y-99958504D01*
X149291767Y-99908722D01*
X149293403Y-99900499D01*
X149300500Y-99864822D01*
X149899499Y-99864822D01*
X149908231Y-99908717D01*
X149912906Y-99920002D01*
X149911075Y-99920760D01*
X149927365Y-99972791D01*
X149911795Y-100029537D01*
X149912906Y-100029998D01*
X149909243Y-100038840D01*
X149908878Y-100040171D01*
X149908354Y-100040986D01*
X149908231Y-100041282D01*
X149899500Y-100085177D01*
X149899500Y-100085180D01*
X149899500Y-100514820D01*
X149899500Y-100514822D01*
X149899499Y-100514822D01*
X149908231Y-100558717D01*
X149912906Y-100570002D01*
X149911075Y-100570760D01*
X149927365Y-100622791D01*
X149911795Y-100679537D01*
X149912906Y-100679998D01*
X149909243Y-100688840D01*
X149908878Y-100690171D01*
X149908354Y-100690986D01*
X149908231Y-100691282D01*
X149899500Y-100735177D01*
X149899500Y-100735180D01*
X149899500Y-101164820D01*
X149899500Y-101164822D01*
X149899499Y-101164822D01*
X149908231Y-101208717D01*
X149908234Y-101208724D01*
X149940952Y-101257690D01*
X149941496Y-101258504D01*
X149991278Y-101291767D01*
X149991281Y-101291767D01*
X149991282Y-101291768D01*
X150035177Y-101300500D01*
X150035180Y-101300500D01*
X150436255Y-101300500D01*
X150498256Y-101317113D01*
X150514708Y-101326612D01*
X150514712Y-101326614D01*
X150603856Y-101350500D01*
X150603858Y-101350500D01*
X150696142Y-101350500D01*
X150696144Y-101350500D01*
X150785288Y-101326614D01*
X150801744Y-101317113D01*
X150863745Y-101300500D01*
X151164822Y-101300500D01*
X151208717Y-101291768D01*
X151208717Y-101291767D01*
X151208722Y-101291767D01*
X151258504Y-101258504D01*
X151291767Y-101208722D01*
X151295604Y-101189433D01*
X151300500Y-101164822D01*
X151300500Y-100854500D01*
X151320185Y-100787461D01*
X151372989Y-100741706D01*
X151424500Y-100730500D01*
X151622725Y-100730500D01*
X151622727Y-100730500D01*
X151724588Y-100703207D01*
X151815913Y-100650480D01*
X151920480Y-100545913D01*
X151973206Y-100454588D01*
X152000500Y-100352727D01*
X152000500Y-100247273D01*
X151973206Y-100145413D01*
X151920480Y-100054088D01*
X151845912Y-99979520D01*
X151754587Y-99926794D01*
X151754588Y-99926794D01*
X151720633Y-99917696D01*
X151652727Y-99899500D01*
X151547273Y-99899500D01*
X151456593Y-99923797D01*
X151386744Y-99922135D01*
X151328881Y-99882973D01*
X151301377Y-99818744D01*
X151300500Y-99804023D01*
X151300500Y-99435177D01*
X151291768Y-99391282D01*
X151291767Y-99391281D01*
X151291767Y-99391278D01*
X151258504Y-99341496D01*
X151258178Y-99341278D01*
X151208724Y-99308234D01*
X151208717Y-99308231D01*
X151164822Y-99299500D01*
X151164820Y-99299500D01*
X150035180Y-99299500D01*
X150035178Y-99299500D01*
X149991282Y-99308231D01*
X149991275Y-99308234D01*
X149941496Y-99341495D01*
X149941495Y-99341496D01*
X149908234Y-99391275D01*
X149908231Y-99391282D01*
X149899500Y-99435177D01*
X149899500Y-99435180D01*
X149899500Y-99864820D01*
X149899500Y-99864822D01*
X149899499Y-99864822D01*
X149300500Y-99864822D01*
X149300500Y-99435177D01*
X149291768Y-99391282D01*
X149291767Y-99391281D01*
X149291767Y-99391278D01*
X149258504Y-99341496D01*
X149258178Y-99341278D01*
X149208724Y-99308234D01*
X149208717Y-99308231D01*
X149164822Y-99299500D01*
X149164820Y-99299500D01*
X148035180Y-99299500D01*
X148035178Y-99299500D01*
X147991282Y-99308231D01*
X147991275Y-99308234D01*
X147941496Y-99341495D01*
X147941495Y-99341496D01*
X147908234Y-99391275D01*
X147908231Y-99391282D01*
X147899500Y-99435177D01*
X147899500Y-99435180D01*
X147899500Y-99864820D01*
X147899500Y-99864822D01*
X147899499Y-99864822D01*
X147055500Y-99864822D01*
X147055500Y-98134255D01*
X147075185Y-98067216D01*
X147127989Y-98021461D01*
X147197147Y-98011517D01*
X147260703Y-98040542D01*
X147267181Y-98046574D01*
X147321087Y-98100480D01*
X147412413Y-98153207D01*
X147514273Y-98180500D01*
X147514275Y-98180500D01*
X147619725Y-98180500D01*
X147619727Y-98180500D01*
X147721587Y-98153207D01*
X147812913Y-98100480D01*
X147887480Y-98025913D01*
X147940207Y-97934587D01*
X147967500Y-97832727D01*
X147967500Y-97727273D01*
X147940207Y-97625413D01*
X147887480Y-97534087D01*
X147812913Y-97459520D01*
X147731404Y-97412461D01*
X147721589Y-97406794D01*
X147721588Y-97406793D01*
X147721587Y-97406793D01*
X147619727Y-97379500D01*
X147514273Y-97379500D01*
X147412413Y-97406793D01*
X147412410Y-97406794D01*
X147321085Y-97459521D01*
X147267181Y-97513426D01*
X147205858Y-97546911D01*
X147136166Y-97541927D01*
X147080233Y-97500055D01*
X147055816Y-97434591D01*
X147055500Y-97425745D01*
X147055500Y-96653074D01*
X147075185Y-96586035D01*
X147127989Y-96540280D01*
X147197147Y-96530336D01*
X147248389Y-96549971D01*
X147302260Y-96585966D01*
X147302262Y-96585966D01*
X147302264Y-96585967D01*
X147375321Y-96600499D01*
X147375324Y-96600500D01*
X147375326Y-96600500D01*
X147624676Y-96600500D01*
X147678185Y-96589856D01*
X147747776Y-96596083D01*
X147802954Y-96638945D01*
X147823994Y-96687280D01*
X147833231Y-96733718D01*
X147833234Y-96733724D01*
X147857221Y-96769623D01*
X147866496Y-96783504D01*
X147916278Y-96816767D01*
X147916281Y-96816767D01*
X147916282Y-96816768D01*
X147960177Y-96825500D01*
X147960180Y-96825500D01*
X148539822Y-96825500D01*
X148583717Y-96816768D01*
X148583717Y-96816767D01*
X148583722Y-96816767D01*
X148633504Y-96783504D01*
X148666767Y-96733722D01*
X148675003Y-96692318D01*
X148675500Y-96689822D01*
X148675500Y-95160177D01*
X148666768Y-95116282D01*
X148666767Y-95116281D01*
X148666767Y-95116278D01*
X148633504Y-95066496D01*
X148631753Y-95065326D01*
X148583724Y-95033234D01*
X148583717Y-95033231D01*
X148539822Y-95024500D01*
X148539820Y-95024500D01*
X147960180Y-95024500D01*
X147960178Y-95024500D01*
X147916282Y-95033231D01*
X147916275Y-95033234D01*
X147866496Y-95066495D01*
X147866495Y-95066496D01*
X147833234Y-95116275D01*
X147833231Y-95116282D01*
X147824500Y-95160177D01*
X147824500Y-95596055D01*
X147804815Y-95663094D01*
X147784302Y-95687451D01*
X147768172Y-95702240D01*
X147752264Y-95708830D01*
X147656007Y-95805086D01*
X147654034Y-95806896D01*
X147624980Y-95821163D01*
X147596590Y-95836666D01*
X147592521Y-95837103D01*
X147591319Y-95837694D01*
X147589248Y-95837455D01*
X147570232Y-95839500D01*
X147375323Y-95839500D01*
X147298691Y-95854743D01*
X147229100Y-95848516D01*
X147173922Y-95805653D01*
X147150678Y-95739763D01*
X147150500Y-95733126D01*
X147150500Y-95425323D01*
X147150499Y-95425321D01*
X147135967Y-95352264D01*
X147135966Y-95352260D01*
X147103311Y-95303388D01*
X147080601Y-95269399D01*
X147025235Y-95232405D01*
X146997739Y-95214033D01*
X146997735Y-95214032D01*
X146924677Y-95199500D01*
X146924674Y-95199500D01*
X146675326Y-95199500D01*
X146675323Y-95199500D01*
X146602264Y-95214032D01*
X146602259Y-95214034D01*
X146566595Y-95237863D01*
X146535557Y-95258602D01*
X146468881Y-95279480D01*
X146466668Y-95279500D01*
X144719562Y-95279500D01*
X144696144Y-95279500D01*
X144603856Y-95279500D01*
X144514712Y-95303386D01*
X144514711Y-95303386D01*
X144514709Y-95303387D01*
X144514706Y-95303388D01*
X144434794Y-95349526D01*
X144434785Y-95349533D01*
X144369533Y-95414785D01*
X144369526Y-95414794D01*
X144323387Y-95494707D01*
X144305466Y-95561589D01*
X144299500Y-95583856D01*
X144299500Y-95676144D01*
X144321656Y-95758832D01*
X144323387Y-95765290D01*
X144323388Y-95765293D01*
X144369526Y-95845205D01*
X144369529Y-95845209D01*
X144369531Y-95845212D01*
X144434788Y-95910469D01*
X144434791Y-95910470D01*
X144434794Y-95910473D01*
X144514706Y-95956611D01*
X144514707Y-95956611D01*
X144514712Y-95956614D01*
X144603856Y-95980500D01*
X144603858Y-95980500D01*
X144696142Y-95980500D01*
X144696144Y-95980500D01*
X144785288Y-95956614D01*
X144865212Y-95910469D01*
X144865218Y-95910462D01*
X144870871Y-95906126D01*
X144936040Y-95880930D01*
X144946360Y-95880500D01*
X146335170Y-95880500D01*
X146402209Y-95900185D01*
X146447964Y-95952989D01*
X146457908Y-96022147D01*
X146456787Y-96028693D01*
X146449500Y-96065324D01*
X146449500Y-96374678D01*
X146464032Y-96447735D01*
X146464033Y-96447739D01*
X146464034Y-96447740D01*
X146519399Y-96530601D01*
X146549389Y-96550639D01*
X146594195Y-96604251D01*
X146604500Y-96653742D01*
X146604500Y-99925500D01*
X146584815Y-99992539D01*
X146532011Y-100038294D01*
X146480500Y-100049500D01*
X146453856Y-100049500D01*
X146364712Y-100073386D01*
X146364711Y-100073386D01*
X146364709Y-100073387D01*
X146364706Y-100073388D01*
X146284793Y-100119527D01*
X146279129Y-100123874D01*
X146213960Y-100149070D01*
X146203640Y-100149500D01*
X145850170Y-100149500D01*
X145758102Y-100187636D01*
X145758101Y-100187637D01*
X145687635Y-100258104D01*
X145437038Y-100508700D01*
X145375715Y-100542185D01*
X145306023Y-100537201D01*
X145250090Y-100495329D01*
X145229583Y-100453115D01*
X145216614Y-100404712D01*
X145212248Y-100397150D01*
X145170473Y-100324794D01*
X145170470Y-100324791D01*
X145170469Y-100324788D01*
X145105212Y-100259531D01*
X145083666Y-100247091D01*
X145057331Y-100231886D01*
X145009117Y-100181318D01*
X144995895Y-100112711D01*
X145021864Y-100047847D01*
X145078778Y-100007319D01*
X145119333Y-100000500D01*
X145384676Y-100000500D01*
X145384677Y-100000499D01*
X145457740Y-99985966D01*
X145540601Y-99930601D01*
X145595966Y-99847740D01*
X145610500Y-99774674D01*
X145610500Y-99525326D01*
X145610500Y-99525323D01*
X145610499Y-99525321D01*
X145595967Y-99452264D01*
X145595966Y-99452260D01*
X145594425Y-99449954D01*
X145540601Y-99369399D01*
X145479715Y-99328717D01*
X145457739Y-99314033D01*
X145457735Y-99314032D01*
X145384677Y-99299500D01*
X145384674Y-99299500D01*
X145075326Y-99299500D01*
X145075322Y-99299500D01*
X145058233Y-99302899D01*
X145022064Y-99304701D01*
X145011857Y-99303710D01*
X144996144Y-99299500D01*
X144968492Y-99299500D01*
X144962518Y-99298920D01*
X144935448Y-99288032D01*
X144907461Y-99279815D01*
X144903420Y-99275152D01*
X144897694Y-99272849D01*
X144880806Y-99249053D01*
X144861706Y-99227011D01*
X144860178Y-99219988D01*
X144857256Y-99215871D01*
X144856711Y-99204054D01*
X144850500Y-99175500D01*
X144850500Y-99103858D01*
X144850500Y-99103856D01*
X144826614Y-99014712D01*
X144820880Y-99004780D01*
X144804405Y-98936880D01*
X144827256Y-98870853D01*
X144840285Y-98855450D01*
X144840463Y-98855217D01*
X144840469Y-98855212D01*
X144886614Y-98775288D01*
X144910500Y-98686144D01*
X144910500Y-98593856D01*
X144886614Y-98504712D01*
X144878268Y-98490256D01*
X144849634Y-98440661D01*
X144833160Y-98372761D01*
X144849634Y-98316659D01*
X144896611Y-98235293D01*
X144896610Y-98235293D01*
X144896614Y-98235288D01*
X144920500Y-98146144D01*
X144920500Y-98053856D01*
X144896614Y-97964712D01*
X144879220Y-97934586D01*
X144861596Y-97904060D01*
X144845123Y-97836160D01*
X144867975Y-97770133D01*
X144881297Y-97754383D01*
X144910469Y-97725212D01*
X144956614Y-97645288D01*
X144980500Y-97556144D01*
X144980500Y-97463856D01*
X144956614Y-97374712D01*
X144956611Y-97374706D01*
X144910473Y-97294794D01*
X144910470Y-97294791D01*
X144910469Y-97294788D01*
X144845212Y-97229531D01*
X144845209Y-97229529D01*
X144845205Y-97229526D01*
X144765293Y-97183388D01*
X144765290Y-97183387D01*
X144765289Y-97183386D01*
X144765288Y-97183386D01*
X144676144Y-97159500D01*
X144583856Y-97159500D01*
X144494712Y-97183386D01*
X144494711Y-97183386D01*
X144494709Y-97183387D01*
X144494706Y-97183388D01*
X144414794Y-97229526D01*
X144414788Y-97229531D01*
X144366973Y-97277345D01*
X144305649Y-97310829D01*
X144235957Y-97305843D01*
X144210403Y-97292765D01*
X144180987Y-97273110D01*
X144158722Y-97258233D01*
X144158721Y-97258232D01*
X144158720Y-97258232D01*
X144158717Y-97258231D01*
X144114822Y-97249500D01*
X144114820Y-97249500D01*
X143374500Y-97249500D01*
X143307461Y-97229815D01*
X143261706Y-97177011D01*
X143250500Y-97125500D01*
X143250500Y-96387160D01*
X143270185Y-96320121D01*
X143322989Y-96274366D01*
X143342398Y-96267388D01*
X143345288Y-96266614D01*
X143425212Y-96220469D01*
X143490469Y-96155212D01*
X143536614Y-96075288D01*
X143560500Y-95986144D01*
X143560500Y-95893856D01*
X143536614Y-95804712D01*
X143536611Y-95804706D01*
X143490473Y-95724794D01*
X143490470Y-95724791D01*
X143490469Y-95724788D01*
X143425212Y-95659531D01*
X143425209Y-95659529D01*
X143425205Y-95659526D01*
X143345293Y-95613388D01*
X143345290Y-95613387D01*
X143345289Y-95613386D01*
X143345288Y-95613386D01*
X143256144Y-95589500D01*
X143163856Y-95589500D01*
X143074712Y-95613386D01*
X143074711Y-95613386D01*
X143074709Y-95613387D01*
X143074706Y-95613388D01*
X142994784Y-95659532D01*
X142994291Y-95659911D01*
X142993801Y-95660100D01*
X142987750Y-95663594D01*
X142987204Y-95662649D01*
X142929119Y-95685096D01*
X142860676Y-95671047D01*
X142856818Y-95668911D01*
X142795288Y-95633386D01*
X142766928Y-95625787D01*
X142706144Y-95609500D01*
X142613856Y-95609500D01*
X142524712Y-95633386D01*
X142524711Y-95633386D01*
X142516861Y-95635490D01*
X142516354Y-95633600D01*
X142457462Y-95639922D01*
X142394988Y-95608636D01*
X142359346Y-95548541D01*
X142355500Y-95517896D01*
X142355500Y-95424008D01*
X142355499Y-95423991D01*
X142355020Y-95419533D01*
X142351946Y-95390945D01*
X142340740Y-95339434D01*
X142310729Y-95279480D01*
X142306313Y-95270657D01*
X142260563Y-95217860D01*
X142257084Y-95214034D01*
X142255580Y-95212379D01*
X142255579Y-95212378D01*
X142255577Y-95212376D01*
X142186854Y-95170486D01*
X142186848Y-95170483D01*
X142119812Y-95150799D01*
X142119802Y-95150797D01*
X142076003Y-95144500D01*
X142076000Y-95144500D01*
X141629272Y-95144500D01*
X141629271Y-95144500D01*
X141619317Y-95145658D01*
X141593548Y-95148659D01*
X141593545Y-95148659D01*
X141593542Y-95148660D01*
X141538093Y-95161749D01*
X141504283Y-95174004D01*
X141504265Y-95174012D01*
X141247179Y-95302555D01*
X141237533Y-95306875D01*
X141233220Y-95308589D01*
X141188790Y-95322503D01*
X141148869Y-95341603D01*
X141146949Y-95342885D01*
X141138539Y-95346229D01*
X141126415Y-95347357D01*
X141092731Y-95355000D01*
X140882996Y-95355000D01*
X140850901Y-95350774D01*
X140846149Y-95349500D01*
X140846144Y-95349500D01*
X140753856Y-95349500D01*
X140664712Y-95373386D01*
X140664711Y-95373386D01*
X140664709Y-95373387D01*
X140664706Y-95373388D01*
X140584794Y-95419526D01*
X140584785Y-95419533D01*
X140519533Y-95484785D01*
X140519528Y-95484791D01*
X140503026Y-95513374D01*
X140484931Y-95530626D01*
X140469950Y-95550639D01*
X140460082Y-95554319D01*
X140452458Y-95561589D01*
X140427908Y-95566319D01*
X140404486Y-95575056D01*
X140394192Y-95572816D01*
X140383850Y-95574810D01*
X140360641Y-95565518D01*
X140336213Y-95560204D01*
X140323388Y-95550603D01*
X140318986Y-95548841D01*
X140307959Y-95539053D01*
X140161819Y-95392913D01*
X140128334Y-95331590D01*
X140125500Y-95305232D01*
X140125500Y-94955146D01*
X140125498Y-94955141D01*
X140091172Y-94872266D01*
X140027735Y-94808829D01*
X139713451Y-94494546D01*
X139691170Y-94472265D01*
X139691170Y-94472264D01*
X139627736Y-94408830D01*
X139599813Y-94397264D01*
X139544855Y-94374499D01*
X139455145Y-94374499D01*
X139440711Y-94374499D01*
X139440703Y-94374500D01*
X139217106Y-94374500D01*
X139150067Y-94354815D01*
X139114004Y-94319390D01*
X139080602Y-94269400D01*
X138997739Y-94214033D01*
X138997735Y-94214032D01*
X138924677Y-94199500D01*
X138924674Y-94199500D01*
X138675326Y-94199500D01*
X138675323Y-94199500D01*
X138602264Y-94214032D01*
X138602260Y-94214034D01*
X138509244Y-94276184D01*
X138507254Y-94273206D01*
X138498688Y-94277884D01*
X138472870Y-94294477D01*
X138466669Y-94295368D01*
X138464293Y-94296666D01*
X138437935Y-94299500D01*
X138390058Y-94299500D01*
X138323019Y-94279815D01*
X138277264Y-94227011D01*
X138268440Y-94199690D01*
X138266767Y-94191278D01*
X138233504Y-94141496D01*
X138233503Y-94141495D01*
X138183724Y-94108234D01*
X138183717Y-94108231D01*
X138139822Y-94099500D01*
X138139820Y-94099500D01*
X137360180Y-94099500D01*
X137360178Y-94099500D01*
X137316282Y-94108231D01*
X137316275Y-94108234D01*
X137266496Y-94141495D01*
X137266495Y-94141496D01*
X137233234Y-94191275D01*
X137233231Y-94191282D01*
X137224500Y-94235177D01*
X137224500Y-94735140D01*
X137204815Y-94802179D01*
X137152011Y-94847934D01*
X137082853Y-94857878D01*
X137076310Y-94856758D01*
X137039820Y-94849500D01*
X136260180Y-94849500D01*
X136260178Y-94849500D01*
X136216282Y-94858231D01*
X136216275Y-94858234D01*
X136166496Y-94891495D01*
X136166495Y-94891496D01*
X136126448Y-94951432D01*
X136125386Y-94950722D01*
X136089630Y-94995083D01*
X136023334Y-95017140D01*
X135955636Y-94999853D01*
X135915821Y-94962111D01*
X135880601Y-94909399D01*
X135825024Y-94872264D01*
X135797739Y-94854033D01*
X135797735Y-94854032D01*
X135724677Y-94839500D01*
X135724674Y-94839500D01*
X135475326Y-94839500D01*
X135475323Y-94839500D01*
X135402264Y-94854032D01*
X135402260Y-94854033D01*
X135319399Y-94909399D01*
X135264033Y-94992260D01*
X135264032Y-94992264D01*
X135249500Y-95065321D01*
X135249500Y-95374678D01*
X135264032Y-95447735D01*
X135264033Y-95447739D01*
X135264034Y-95447740D01*
X135319399Y-95530601D01*
X135400497Y-95584788D01*
X135402260Y-95585966D01*
X135402264Y-95585967D01*
X135475321Y-95600499D01*
X135475324Y-95600500D01*
X135475326Y-95600500D01*
X135724676Y-95600500D01*
X135724677Y-95600499D01*
X135797740Y-95585966D01*
X135880601Y-95530601D01*
X135880605Y-95530594D01*
X135887529Y-95523671D01*
X135889984Y-95518297D01*
X135913109Y-95503434D01*
X135934204Y-95485805D01*
X135943580Y-95483852D01*
X135948762Y-95480523D01*
X135983697Y-95475500D01*
X136004969Y-95475500D01*
X136072008Y-95495185D01*
X136117763Y-95547989D01*
X136126586Y-95575309D01*
X136133231Y-95608717D01*
X136133234Y-95608724D01*
X136154080Y-95639922D01*
X136166496Y-95658504D01*
X136216278Y-95691767D01*
X136224690Y-95693440D01*
X136252821Y-95708155D01*
X136281703Y-95721345D01*
X136283559Y-95724234D01*
X136286601Y-95725825D01*
X136302309Y-95753408D01*
X136319477Y-95780123D01*
X136320137Y-95784716D01*
X136321176Y-95786540D01*
X136324500Y-95815058D01*
X136324500Y-95896257D01*
X136304815Y-95963296D01*
X136269391Y-95999359D01*
X136239399Y-96019398D01*
X136184033Y-96102260D01*
X136184032Y-96102264D01*
X136169500Y-96175321D01*
X136169500Y-96424678D01*
X136184032Y-96497735D01*
X136184033Y-96497739D01*
X136184034Y-96497740D01*
X136239399Y-96580601D01*
X136322259Y-96635965D01*
X136331285Y-96641996D01*
X136353008Y-96667989D01*
X136357496Y-96673168D01*
X136413853Y-96650994D01*
X136424908Y-96650500D01*
X136704676Y-96650500D01*
X136704677Y-96650499D01*
X136777740Y-96635966D01*
X136801110Y-96620350D01*
X136867786Y-96599473D01*
X136935166Y-96617957D01*
X136938867Y-96620335D01*
X136962260Y-96635966D01*
X136962262Y-96635966D01*
X136962264Y-96635967D01*
X137035321Y-96650499D01*
X137035324Y-96650500D01*
X137035326Y-96650500D01*
X137344676Y-96650500D01*
X137344677Y-96650499D01*
X137417740Y-96635966D01*
X137500601Y-96580601D01*
X137555966Y-96497740D01*
X137570500Y-96424674D01*
X137570500Y-96299767D01*
X137579144Y-96270326D01*
X137585668Y-96240340D01*
X137589422Y-96235324D01*
X137590185Y-96232728D01*
X137606819Y-96212086D01*
X137607086Y-96211819D01*
X137668409Y-96178334D01*
X137694767Y-96175500D01*
X138020500Y-96175500D01*
X138087539Y-96195185D01*
X138133294Y-96247989D01*
X138144500Y-96299500D01*
X138144500Y-96717604D01*
X138144518Y-96720075D01*
X138144571Y-96723674D01*
X138144572Y-96723679D01*
X138151606Y-96765883D01*
X138152230Y-96769623D01*
X138173906Y-96836036D01*
X138176370Y-96843017D01*
X138176371Y-96843019D01*
X138215443Y-96897187D01*
X138223459Y-96908300D01*
X138277606Y-96952457D01*
X138315538Y-96975263D01*
X138400929Y-97011217D01*
X138455076Y-97055374D01*
X138476755Y-97121796D01*
X138459081Y-97189394D01*
X138407668Y-97236705D01*
X138352810Y-97249500D01*
X138285178Y-97249500D01*
X138241282Y-97258231D01*
X138241279Y-97258232D01*
X138241278Y-97258233D01*
X138191496Y-97291496D01*
X138191495Y-97291496D01*
X138181459Y-97298203D01*
X138114782Y-97319080D01*
X138112569Y-97319100D01*
X137107815Y-97319100D01*
X137097820Y-97319099D01*
X137097818Y-97319099D01*
X137081888Y-97319099D01*
X137065224Y-97319099D01*
X137065223Y-97319098D01*
X137049043Y-97318038D01*
X137003640Y-97312061D01*
X136972375Y-97303685D01*
X136959139Y-97298203D01*
X136937633Y-97289295D01*
X136909599Y-97273110D01*
X136873295Y-97245253D01*
X136861100Y-97234558D01*
X136755937Y-97129395D01*
X136746028Y-97119484D01*
X136746023Y-97119475D01*
X136658814Y-97032266D01*
X136658809Y-97032262D01*
X136539369Y-96952458D01*
X136539103Y-96952280D01*
X136539101Y-96952279D01*
X136539102Y-96952279D01*
X136432922Y-96908300D01*
X136406087Y-96897185D01*
X136400718Y-96896117D01*
X136338808Y-96863734D01*
X136327858Y-96844507D01*
X136325826Y-96845762D01*
X136297332Y-96864076D01*
X136295831Y-96864291D01*
X136295201Y-96864681D01*
X136262397Y-96869099D01*
X136192890Y-96869100D01*
X135867615Y-96869100D01*
X135800576Y-96849415D01*
X135765317Y-96815180D01*
X135763814Y-96812986D01*
X135763813Y-96812984D01*
X135687016Y-96736187D01*
X135650526Y-96720075D01*
X135587663Y-96692318D01*
X135563373Y-96689500D01*
X135136634Y-96689500D01*
X135136611Y-96689502D01*
X135112340Y-96692317D01*
X135112337Y-96692318D01*
X135012984Y-96736186D01*
X135012982Y-96736187D01*
X134977983Y-96771187D01*
X134916660Y-96804672D01*
X134846968Y-96799686D01*
X134802622Y-96771186D01*
X134718829Y-96687393D01*
X134718828Y-96687392D01*
X134718825Y-96687390D01*
X134718824Y-96687390D01*
X134616910Y-96642391D01*
X134591991Y-96639500D01*
X134208016Y-96639500D01*
X134207993Y-96639502D01*
X134183096Y-96642389D01*
X134183092Y-96642390D01*
X134081175Y-96687390D01*
X134081170Y-96687393D01*
X134002681Y-96765883D01*
X133941358Y-96799368D01*
X133871666Y-96794384D01*
X133827319Y-96765883D01*
X133748829Y-96687393D01*
X133748828Y-96687392D01*
X133748825Y-96687390D01*
X133748824Y-96687390D01*
X133646910Y-96642391D01*
X133621991Y-96639500D01*
X133238016Y-96639500D01*
X133237993Y-96639502D01*
X133213096Y-96642389D01*
X133213092Y-96642390D01*
X133111175Y-96687390D01*
X133111173Y-96687391D01*
X133042377Y-96756187D01*
X132981053Y-96789671D01*
X132911362Y-96784686D01*
X132867015Y-96756186D01*
X132837016Y-96726187D01*
X132737663Y-96682318D01*
X132713373Y-96679500D01*
X132286634Y-96679500D01*
X132286611Y-96679502D01*
X132262340Y-96682317D01*
X132262337Y-96682318D01*
X132162984Y-96726186D01*
X132086187Y-96802983D01*
X132079694Y-96812463D01*
X132076743Y-96810442D01*
X132044541Y-96848564D01*
X131977755Y-96869090D01*
X131976196Y-96869100D01*
X131462000Y-96869100D01*
X131394961Y-96849415D01*
X131349206Y-96796611D01*
X131338000Y-96745100D01*
X131338000Y-96585177D01*
X131329268Y-96541282D01*
X131329267Y-96541281D01*
X131329267Y-96541278D01*
X131296004Y-96491496D01*
X131256200Y-96464900D01*
X131246224Y-96458234D01*
X131246217Y-96458231D01*
X131202322Y-96449500D01*
X131202320Y-96449500D01*
X130122680Y-96449500D01*
X130122678Y-96449500D01*
X130078782Y-96458231D01*
X130078775Y-96458234D01*
X130028996Y-96491495D01*
X130028995Y-96491496D01*
X129995734Y-96541275D01*
X129995731Y-96541282D01*
X129987000Y-96585177D01*
X129987000Y-96585180D01*
X129987000Y-97614820D01*
X129987000Y-97614822D01*
X129986999Y-97614822D01*
X129995731Y-97658717D01*
X129995734Y-97658724D01*
X130021791Y-97697721D01*
X130028996Y-97708504D01*
X130078778Y-97741767D01*
X130078781Y-97741767D01*
X130078782Y-97741768D01*
X130122677Y-97750500D01*
X130122680Y-97750500D01*
X131202322Y-97750500D01*
X131246217Y-97741768D01*
X131246217Y-97741767D01*
X131246222Y-97741767D01*
X131296004Y-97708504D01*
X131329267Y-97658722D01*
X131335893Y-97625413D01*
X131338000Y-97614822D01*
X131338000Y-97454900D01*
X131357685Y-97387861D01*
X131410489Y-97342106D01*
X131462000Y-97330900D01*
X131967365Y-97330900D01*
X132034404Y-97350585D01*
X132080159Y-97403389D01*
X132080768Y-97404744D01*
X132080799Y-97404814D01*
X132080800Y-97404815D01*
X132086185Y-97417013D01*
X132086186Y-97417014D01*
X132086187Y-97417016D01*
X132162984Y-97493813D01*
X132262338Y-97537682D01*
X132286627Y-97540500D01*
X132713372Y-97540499D01*
X132737662Y-97537682D01*
X132837016Y-97493813D01*
X132867016Y-97463812D01*
X132928336Y-97430328D01*
X132998028Y-97435312D01*
X133042377Y-97463813D01*
X133111172Y-97532608D01*
X133213091Y-97577609D01*
X133238009Y-97580500D01*
X133621990Y-97580499D01*
X133630020Y-97579567D01*
X133646903Y-97577610D01*
X133646905Y-97577609D01*
X133646909Y-97577609D01*
X133748828Y-97532608D01*
X133827319Y-97454117D01*
X133888642Y-97420632D01*
X133958334Y-97425616D01*
X134002681Y-97454117D01*
X134081172Y-97532608D01*
X134183091Y-97577609D01*
X134208009Y-97580500D01*
X134591990Y-97580499D01*
X134600020Y-97579567D01*
X134616903Y-97577610D01*
X134616905Y-97577609D01*
X134616909Y-97577609D01*
X134718828Y-97532608D01*
X134792625Y-97458810D01*
X134853944Y-97425328D01*
X134923636Y-97430312D01*
X134967984Y-97458813D01*
X135012984Y-97503813D01*
X135112338Y-97547682D01*
X135136627Y-97550500D01*
X135563372Y-97550499D01*
X135587662Y-97547682D01*
X135687016Y-97503813D01*
X135763813Y-97427016D01*
X135773617Y-97404811D01*
X135818701Y-97351438D01*
X135885487Y-97330910D01*
X135887050Y-97330900D01*
X136152179Y-97330900D01*
X136152182Y-97330901D01*
X136184777Y-97330900D01*
X136200941Y-97331959D01*
X136246365Y-97337938D01*
X136277626Y-97346314D01*
X136292373Y-97352423D01*
X136312363Y-97360703D01*
X136340395Y-97376886D01*
X136354698Y-97387861D01*
X136376702Y-97404744D01*
X136388899Y-97415441D01*
X136504438Y-97530980D01*
X136507567Y-97534110D01*
X136507574Y-97534123D01*
X136540280Y-97566829D01*
X136591183Y-97617732D01*
X136710896Y-97697719D01*
X136710901Y-97697721D01*
X136782247Y-97727273D01*
X136843913Y-97752815D01*
X136985122Y-97780901D01*
X137057110Y-97780900D01*
X137772139Y-97780900D01*
X137839178Y-97800585D01*
X137884933Y-97853389D01*
X137894877Y-97922547D01*
X137865852Y-97986103D01*
X137859838Y-97992562D01*
X137718145Y-98134255D01*
X137675189Y-98177211D01*
X137613865Y-98210695D01*
X137564342Y-98209517D01*
X137564205Y-98210561D01*
X137556144Y-98209500D01*
X137463856Y-98209500D01*
X137374712Y-98233386D01*
X137374711Y-98233386D01*
X137374709Y-98233387D01*
X137374706Y-98233388D01*
X137294794Y-98279526D01*
X137294785Y-98279533D01*
X137229533Y-98344785D01*
X137229526Y-98344794D01*
X137183388Y-98424706D01*
X137183387Y-98424709D01*
X137183386Y-98424711D01*
X137183386Y-98424712D01*
X137159500Y-98513856D01*
X137159500Y-98606144D01*
X137176183Y-98668409D01*
X137175588Y-98693401D01*
X137179147Y-98718147D01*
X137174771Y-98727727D01*
X137174521Y-98738256D01*
X137160508Y-98758960D01*
X137150122Y-98781703D01*
X137141262Y-98787396D01*
X137135359Y-98796119D01*
X137112375Y-98805961D01*
X137091344Y-98819477D01*
X137075489Y-98821756D01*
X137071131Y-98823623D01*
X137056409Y-98824500D01*
X136994768Y-98824500D01*
X136927729Y-98804815D01*
X136907091Y-98788185D01*
X136847736Y-98728830D01*
X136847735Y-98728829D01*
X136823457Y-98718772D01*
X136823457Y-98718771D01*
X136764858Y-98694500D01*
X136764856Y-98694499D01*
X136764855Y-98694499D01*
X136675145Y-98694499D01*
X136660711Y-98694499D01*
X136660703Y-98694500D01*
X135910402Y-98694500D01*
X135843363Y-98674815D01*
X135807300Y-98639391D01*
X135790601Y-98614399D01*
X135707739Y-98559033D01*
X135707735Y-98559032D01*
X135634677Y-98544500D01*
X135634674Y-98544500D01*
X135385326Y-98544500D01*
X135385324Y-98544500D01*
X135312261Y-98559033D01*
X135310193Y-98559890D01*
X135305323Y-98560413D01*
X135300283Y-98561416D01*
X135300193Y-98560964D01*
X135279680Y-98563169D01*
X135249482Y-98568616D01*
X135243414Y-98567066D01*
X135240723Y-98567356D01*
X135215285Y-98559885D01*
X135207819Y-98556792D01*
X135153418Y-98512948D01*
X135142841Y-98490256D01*
X135141450Y-98490871D01*
X135093813Y-98382984D01*
X135017016Y-98306187D01*
X134917663Y-98262318D01*
X134893373Y-98259500D01*
X134526634Y-98259500D01*
X134526611Y-98259502D01*
X134502340Y-98262317D01*
X134502337Y-98262318D01*
X134402984Y-98306186D01*
X134326187Y-98382983D01*
X134282318Y-98482335D01*
X134282318Y-98482337D01*
X134279500Y-98506625D01*
X134279500Y-98933365D01*
X134279502Y-98933388D01*
X134282317Y-98957659D01*
X134314046Y-99029520D01*
X134323117Y-99098798D01*
X134293293Y-99161983D01*
X134260042Y-99188435D01*
X134239163Y-99199836D01*
X134239155Y-99199841D01*
X134203733Y-99226357D01*
X134203715Y-99226373D01*
X133421782Y-100008305D01*
X133415210Y-100015297D01*
X133405075Y-100026769D01*
X133405069Y-100026777D01*
X133376987Y-100072585D01*
X133376982Y-100072595D01*
X133351314Y-100137563D01*
X133346575Y-100157487D01*
X133346573Y-100157498D01*
X133342209Y-100175854D01*
X133332391Y-100198091D01*
X133329500Y-100223009D01*
X133329500Y-100307942D01*
X133328871Y-100314850D01*
X133328870Y-100314868D01*
X133307432Y-100550696D01*
X133307431Y-100550709D01*
X133309004Y-100590905D01*
X133319702Y-100653652D01*
X133320299Y-100656936D01*
X133320301Y-100656942D01*
X133355470Y-100729341D01*
X133356474Y-100730500D01*
X133386119Y-100764712D01*
X133388915Y-100767938D01*
X133417940Y-100831493D01*
X133407997Y-100900652D01*
X133362242Y-100953456D01*
X133361041Y-100954218D01*
X133349463Y-100961471D01*
X133349459Y-100961475D01*
X133301875Y-101012628D01*
X133301873Y-101012630D01*
X133276646Y-101048999D01*
X133172390Y-101257509D01*
X133172388Y-101257514D01*
X133163910Y-101278004D01*
X133161848Y-101284206D01*
X133161849Y-101284207D01*
X133161218Y-101286106D01*
X133152780Y-101311497D01*
X133152780Y-101311499D01*
X133152483Y-101314274D01*
X133149036Y-101332881D01*
X133148285Y-101335708D01*
X133148284Y-101335712D01*
X133143315Y-101366991D01*
X133143314Y-101366999D01*
X133106627Y-102027378D01*
X133083254Y-102093223D01*
X133027994Y-102135978D01*
X132982818Y-102144500D01*
X132348004Y-102144500D01*
X132344434Y-102144734D01*
X132336323Y-102145000D01*
X132263677Y-102145000D01*
X132255566Y-102144734D01*
X132251996Y-102144500D01*
X132251990Y-102144500D01*
X131624000Y-102144500D01*
X131623991Y-102144500D01*
X131590944Y-102148054D01*
X131539433Y-102159260D01*
X131470657Y-102193686D01*
X131417860Y-102239436D01*
X131412376Y-102244422D01*
X131370486Y-102313145D01*
X131370483Y-102313152D01*
X131350799Y-102380188D01*
X131350799Y-102380190D01*
X131348329Y-102397362D01*
X131343827Y-102413086D01*
X131344765Y-102413342D01*
X131342317Y-102422340D01*
X131339500Y-102446611D01*
X131339500Y-102813365D01*
X131339501Y-102813373D01*
X131343393Y-102846931D01*
X131342466Y-102847038D01*
X131344500Y-102862251D01*
X131344500Y-102876008D01*
X131348054Y-102909055D01*
X131359260Y-102960566D01*
X131393686Y-103029342D01*
X131439456Y-103082162D01*
X131449503Y-103093212D01*
X131480038Y-103156056D01*
X131471750Y-103225432D01*
X131427269Y-103279314D01*
X131380857Y-103296086D01*
X131381300Y-103298311D01*
X131302264Y-103314032D01*
X131302260Y-103314033D01*
X131219399Y-103369399D01*
X131164033Y-103452260D01*
X131164032Y-103452264D01*
X131149500Y-103525321D01*
X131149500Y-103834678D01*
X131164032Y-103907735D01*
X131164033Y-103907739D01*
X131174864Y-103923948D01*
X131219399Y-103990601D01*
X131277928Y-104029708D01*
X131302260Y-104045966D01*
X131302264Y-104045967D01*
X131375321Y-104060499D01*
X131375324Y-104060500D01*
X131375326Y-104060500D01*
X131624676Y-104060500D01*
X131624677Y-104060499D01*
X131697740Y-104045966D01*
X131737350Y-104019500D01*
X131781110Y-103990261D01*
X131847787Y-103969383D01*
X131915167Y-103987868D01*
X131918890Y-103990261D01*
X132002256Y-104045964D01*
X132002258Y-104045964D01*
X132002260Y-104045966D01*
X132002262Y-104045966D01*
X132002264Y-104045967D01*
X132075321Y-104060499D01*
X132075324Y-104060500D01*
X132075326Y-104060500D01*
X132324675Y-104060500D01*
X132347584Y-104055942D01*
X132397740Y-104045966D01*
X132397740Y-104045965D01*
X132401307Y-104045256D01*
X132470899Y-104051483D01*
X132526077Y-104094345D01*
X132549322Y-104160234D01*
X132549500Y-104166873D01*
X132549500Y-104474673D01*
X132554798Y-104501310D01*
X132548569Y-104570902D01*
X132505706Y-104626078D01*
X132439816Y-104649322D01*
X132433180Y-104649500D01*
X130650170Y-104649500D01*
X130558102Y-104687636D01*
X130558101Y-104687637D01*
X129832558Y-105413181D01*
X129771235Y-105446666D01*
X129744877Y-105449500D01*
X129249830Y-105449500D01*
X129249828Y-105449499D01*
X129150173Y-105449499D01*
X129112056Y-105465288D01*
X129096669Y-105471661D01*
X129080145Y-105473749D01*
X129072957Y-105472589D01*
X129032479Y-105476940D01*
X128970001Y-105445663D01*
X128934351Y-105385573D01*
X128930500Y-105354911D01*
X128930500Y-105283858D01*
X128930500Y-105283856D01*
X128906614Y-105194712D01*
X128906611Y-105194706D01*
X128860473Y-105114794D01*
X128860470Y-105114791D01*
X128860469Y-105114788D01*
X128795212Y-105049531D01*
X128795209Y-105049529D01*
X128795205Y-105049526D01*
X128715293Y-105003388D01*
X128715290Y-105003387D01*
X128715289Y-105003386D01*
X128715288Y-105003386D01*
X128626144Y-104979500D01*
X128533856Y-104979500D01*
X128444712Y-105003386D01*
X128444711Y-105003386D01*
X128444709Y-105003387D01*
X128444706Y-105003388D01*
X128364794Y-105049526D01*
X128364785Y-105049533D01*
X128299533Y-105114785D01*
X128299526Y-105114794D01*
X128253388Y-105194706D01*
X128253387Y-105194709D01*
X128253386Y-105194711D01*
X128253386Y-105194712D01*
X128229500Y-105283856D01*
X128229500Y-105376144D01*
X128242929Y-105426261D01*
X128253386Y-105465288D01*
X128253388Y-105465293D01*
X128299526Y-105545205D01*
X128299529Y-105545209D01*
X128299531Y-105545212D01*
X128364788Y-105610469D01*
X128364791Y-105610470D01*
X128364794Y-105610473D01*
X128444706Y-105656611D01*
X128444707Y-105656611D01*
X128444712Y-105656614D01*
X128533856Y-105680500D01*
X128533858Y-105680500D01*
X128565877Y-105680500D01*
X128632916Y-105700185D01*
X128678671Y-105752989D01*
X128688615Y-105822147D01*
X128659590Y-105885703D01*
X128653562Y-105892175D01*
X128322557Y-106223181D01*
X128040662Y-106505076D01*
X128040661Y-106505076D01*
X128040662Y-106505077D01*
X127987636Y-106558103D01*
X127949500Y-106650170D01*
X127949500Y-107449829D01*
X127987636Y-107541897D01*
X128625496Y-108179757D01*
X128651249Y-108217351D01*
X128681477Y-108285811D01*
X128697794Y-108322765D01*
X128777235Y-108402206D01*
X128880009Y-108447585D01*
X128905135Y-108450500D01*
X130168165Y-108450499D01*
X130235204Y-108470184D01*
X130280959Y-108522987D01*
X130290903Y-108592146D01*
X130261878Y-108655702D01*
X130237056Y-108677601D01*
X130219400Y-108689398D01*
X130164033Y-108772260D01*
X130164032Y-108772264D01*
X130149500Y-108845321D01*
X130149500Y-109154678D01*
X130164032Y-109227735D01*
X130164033Y-109227739D01*
X130169077Y-109235288D01*
X130219399Y-109310601D01*
X130271153Y-109345181D01*
X130302260Y-109365966D01*
X130302264Y-109365967D01*
X130375321Y-109380499D01*
X130375324Y-109380500D01*
X130375326Y-109380500D01*
X130624676Y-109380500D01*
X130624677Y-109380499D01*
X130697740Y-109365966D01*
X130780601Y-109310601D01*
X130835966Y-109227740D01*
X130835967Y-109227733D01*
X130836252Y-109227049D01*
X130837278Y-109225774D01*
X130842751Y-109217585D01*
X130843483Y-109218074D01*
X130880092Y-109172645D01*
X130946386Y-109150579D01*
X130950814Y-109150500D01*
X131450172Y-109150500D01*
X132003640Y-109150500D01*
X132053217Y-109160842D01*
X132074401Y-109170082D01*
X132084788Y-109180469D01*
X132164712Y-109226614D01*
X132253856Y-109250500D01*
X132258761Y-109250500D01*
X132275077Y-109257617D01*
X132295031Y-109274319D01*
X132317253Y-109287864D01*
X132321392Y-109296384D01*
X132328655Y-109302464D01*
X132336411Y-109327302D01*
X132347783Y-109350711D01*
X132349265Y-109368462D01*
X132349482Y-109369157D01*
X132349360Y-109369599D01*
X132349500Y-109371275D01*
X132349500Y-109713365D01*
X132349502Y-109713388D01*
X132352317Y-109737659D01*
X132377818Y-109795413D01*
X132386890Y-109864692D01*
X132357067Y-109927877D01*
X132297817Y-109964908D01*
X132264384Y-109969500D01*
X126174500Y-109969500D01*
X126107461Y-109949815D01*
X126061706Y-109897011D01*
X126050500Y-109845500D01*
X126050500Y-107734692D01*
X126070185Y-107667653D01*
X126122989Y-107621898D01*
X126192147Y-107611954D01*
X126255703Y-107640979D01*
X126281887Y-107672691D01*
X126283385Y-107675286D01*
X126283386Y-107675288D01*
X126329531Y-107755212D01*
X126394788Y-107820469D01*
X126394791Y-107820470D01*
X126394794Y-107820473D01*
X126474706Y-107866611D01*
X126474707Y-107866611D01*
X126474712Y-107866614D01*
X126563856Y-107890500D01*
X126563858Y-107890500D01*
X126656142Y-107890500D01*
X126656144Y-107890500D01*
X126745288Y-107866614D01*
X126825212Y-107820469D01*
X126890469Y-107755212D01*
X126936614Y-107675288D01*
X126960500Y-107586144D01*
X126960500Y-107493856D01*
X126936614Y-107404712D01*
X126925731Y-107385862D01*
X126890473Y-107324794D01*
X126890470Y-107324791D01*
X126890469Y-107324788D01*
X126825212Y-107259531D01*
X126825209Y-107259529D01*
X126825205Y-107259526D01*
X126745293Y-107213388D01*
X126745290Y-107213387D01*
X126745289Y-107213386D01*
X126745288Y-107213386D01*
X126656144Y-107189500D01*
X126563856Y-107189500D01*
X126474712Y-107213386D01*
X126474711Y-107213386D01*
X126474709Y-107213387D01*
X126474706Y-107213388D01*
X126394794Y-107259526D01*
X126394785Y-107259533D01*
X126329533Y-107324785D01*
X126329526Y-107324794D01*
X126281886Y-107407308D01*
X126231319Y-107455523D01*
X126162711Y-107468745D01*
X126097847Y-107442777D01*
X126057319Y-107385862D01*
X126050500Y-107345307D01*
X126050500Y-104726280D01*
X126070185Y-104659241D01*
X126122989Y-104613486D01*
X126192147Y-104603542D01*
X126229657Y-104617916D01*
X126229998Y-104617094D01*
X126241275Y-104621765D01*
X126241278Y-104621767D01*
X126241281Y-104621767D01*
X126241282Y-104621768D01*
X126285177Y-104630500D01*
X126285180Y-104630500D01*
X127614822Y-104630500D01*
X127658717Y-104621768D01*
X127658717Y-104621767D01*
X127658722Y-104621767D01*
X127708504Y-104588504D01*
X127741767Y-104538722D01*
X127749616Y-104499264D01*
X127750500Y-104494822D01*
X127750500Y-103567660D01*
X127750499Y-103567659D01*
X127012339Y-102829500D01*
X126285180Y-102829500D01*
X126285178Y-102829500D01*
X126241282Y-102838231D01*
X126229998Y-102842906D01*
X126229304Y-102841232D01*
X126176708Y-102857699D01*
X126109329Y-102839212D01*
X126062641Y-102787231D01*
X126050500Y-102733719D01*
X126050500Y-100043766D01*
X130654500Y-100043766D01*
X130654500Y-100216233D01*
X130688143Y-100385366D01*
X130688146Y-100385378D01*
X130754138Y-100544698D01*
X130754145Y-100544711D01*
X130849954Y-100688098D01*
X130849957Y-100688102D01*
X130971897Y-100810042D01*
X130971901Y-100810045D01*
X131115288Y-100905854D01*
X131115301Y-100905861D01*
X131274621Y-100971853D01*
X131274626Y-100971855D01*
X131441971Y-101005142D01*
X131443766Y-101005499D01*
X131443769Y-101005500D01*
X131443771Y-101005500D01*
X131616231Y-101005500D01*
X131616232Y-101005499D01*
X131785374Y-100971855D01*
X131944705Y-100905858D01*
X132088099Y-100810045D01*
X132210045Y-100688099D01*
X132305858Y-100544705D01*
X132311404Y-100531317D01*
X132338112Y-100466836D01*
X132371855Y-100385374D01*
X132405500Y-100216229D01*
X132405500Y-100043771D01*
X132405500Y-100043768D01*
X132405499Y-100043766D01*
X132392719Y-99979519D01*
X132371855Y-99874626D01*
X132371853Y-99874621D01*
X132305861Y-99715301D01*
X132305854Y-99715288D01*
X132210045Y-99571901D01*
X132210042Y-99571897D01*
X132088102Y-99449957D01*
X132088098Y-99449954D01*
X131944711Y-99354145D01*
X131944698Y-99354138D01*
X131785378Y-99288146D01*
X131785366Y-99288143D01*
X131616232Y-99254500D01*
X131616229Y-99254500D01*
X131443771Y-99254500D01*
X131443768Y-99254500D01*
X131274633Y-99288143D01*
X131274621Y-99288146D01*
X131115301Y-99354138D01*
X131115288Y-99354145D01*
X130971901Y-99449954D01*
X130971897Y-99449957D01*
X130849957Y-99571897D01*
X130849954Y-99571901D01*
X130754145Y-99715288D01*
X130754138Y-99715301D01*
X130688146Y-99874621D01*
X130688143Y-99874633D01*
X130654500Y-100043766D01*
X126050500Y-100043766D01*
X126050500Y-96095056D01*
X126070185Y-96028017D01*
X126122989Y-95982262D01*
X126192147Y-95972318D01*
X126255703Y-96001343D01*
X126263562Y-96009686D01*
X126263784Y-96009465D01*
X126269531Y-96015212D01*
X126334788Y-96080469D01*
X126334791Y-96080470D01*
X126334794Y-96080473D01*
X126414706Y-96126611D01*
X126414707Y-96126611D01*
X126414712Y-96126614D01*
X126503856Y-96150500D01*
X126503858Y-96150500D01*
X126596142Y-96150500D01*
X126596144Y-96150500D01*
X126685288Y-96126614D01*
X126765212Y-96080469D01*
X126765217Y-96080463D01*
X126771658Y-96075522D01*
X126773139Y-96077453D01*
X126823642Y-96049877D01*
X126893334Y-96054861D01*
X126927397Y-96076752D01*
X126928342Y-96075522D01*
X126934785Y-96080466D01*
X126934788Y-96080469D01*
X126934791Y-96080470D01*
X126934794Y-96080473D01*
X127014706Y-96126611D01*
X127014707Y-96126611D01*
X127014712Y-96126614D01*
X127103856Y-96150500D01*
X127103858Y-96150500D01*
X127196142Y-96150500D01*
X127196144Y-96150500D01*
X127285288Y-96126614D01*
X127365212Y-96080469D01*
X127430469Y-96015212D01*
X127476614Y-95935288D01*
X127500500Y-95846144D01*
X127500500Y-95753856D01*
X127476614Y-95664712D01*
X127475423Y-95662649D01*
X127430473Y-95584794D01*
X127430470Y-95584791D01*
X127430469Y-95584788D01*
X127365212Y-95519531D01*
X127365209Y-95519529D01*
X127365205Y-95519526D01*
X127285293Y-95473388D01*
X127285290Y-95473387D01*
X127285289Y-95473386D01*
X127285288Y-95473386D01*
X127196144Y-95449500D01*
X127103856Y-95449500D01*
X127014712Y-95473386D01*
X127014711Y-95473386D01*
X127014709Y-95473387D01*
X127014706Y-95473388D01*
X126934794Y-95519526D01*
X126928342Y-95524478D01*
X126926862Y-95522549D01*
X126876337Y-95550127D01*
X126806646Y-95545130D01*
X126772599Y-95523250D01*
X126771658Y-95524478D01*
X126765205Y-95519526D01*
X126685293Y-95473388D01*
X126685290Y-95473387D01*
X126685289Y-95473386D01*
X126685288Y-95473386D01*
X126596144Y-95449500D01*
X126503856Y-95449500D01*
X126414712Y-95473386D01*
X126414711Y-95473386D01*
X126414709Y-95473387D01*
X126414706Y-95473388D01*
X126334794Y-95519526D01*
X126334785Y-95519533D01*
X126263784Y-95590535D01*
X126261780Y-95588531D01*
X126216446Y-95621633D01*
X126146700Y-95625787D01*
X126085780Y-95591573D01*
X126053028Y-95529855D01*
X126050500Y-95504943D01*
X126050500Y-94763856D01*
X132729500Y-94763856D01*
X132729500Y-94856144D01*
X132752537Y-94942121D01*
X132753387Y-94945290D01*
X132753388Y-94945293D01*
X132799526Y-95025205D01*
X132799529Y-95025209D01*
X132799531Y-95025212D01*
X132864788Y-95090469D01*
X132864791Y-95090470D01*
X132864794Y-95090473D01*
X132944706Y-95136611D01*
X132944707Y-95136611D01*
X132944712Y-95136614D01*
X133033856Y-95160500D01*
X133033858Y-95160500D01*
X133126142Y-95160500D01*
X133126144Y-95160500D01*
X133215288Y-95136614D01*
X133295212Y-95090469D01*
X133360469Y-95025212D01*
X133406614Y-94945288D01*
X133430500Y-94856144D01*
X133430500Y-94763856D01*
X133406614Y-94674712D01*
X133406611Y-94674706D01*
X133400347Y-94663856D01*
X134029500Y-94663856D01*
X134029500Y-94756144D01*
X134053358Y-94845185D01*
X134053387Y-94845290D01*
X134053388Y-94845293D01*
X134099526Y-94925205D01*
X134099529Y-94925209D01*
X134099531Y-94925212D01*
X134164788Y-94990469D01*
X134164791Y-94990470D01*
X134164794Y-94990473D01*
X134244706Y-95036611D01*
X134244707Y-95036611D01*
X134244712Y-95036614D01*
X134333856Y-95060500D01*
X134333858Y-95060500D01*
X134426142Y-95060500D01*
X134426144Y-95060500D01*
X134515288Y-95036614D01*
X134595212Y-94990469D01*
X134660469Y-94925212D01*
X134706614Y-94845288D01*
X134730500Y-94756144D01*
X134730500Y-94663856D01*
X134706614Y-94574712D01*
X134706611Y-94574706D01*
X134660473Y-94494794D01*
X134660470Y-94494791D01*
X134660469Y-94494788D01*
X134595212Y-94429531D01*
X134595209Y-94429529D01*
X134595205Y-94429526D01*
X134515293Y-94383388D01*
X134515290Y-94383387D01*
X134515289Y-94383386D01*
X134515288Y-94383386D01*
X134426144Y-94359500D01*
X134333856Y-94359500D01*
X134244712Y-94383386D01*
X134244711Y-94383386D01*
X134244709Y-94383387D01*
X134244706Y-94383388D01*
X134164794Y-94429526D01*
X134164785Y-94429533D01*
X134099533Y-94494785D01*
X134099526Y-94494794D01*
X134053388Y-94574706D01*
X134053387Y-94574709D01*
X134053386Y-94574711D01*
X134053386Y-94574712D01*
X134029500Y-94663856D01*
X133400347Y-94663856D01*
X133360473Y-94594794D01*
X133360470Y-94594791D01*
X133360469Y-94594788D01*
X133295212Y-94529531D01*
X133295209Y-94529529D01*
X133295205Y-94529526D01*
X133215293Y-94483388D01*
X133215290Y-94483387D01*
X133215289Y-94483386D01*
X133215288Y-94483386D01*
X133126144Y-94459500D01*
X133033856Y-94459500D01*
X132944712Y-94483386D01*
X132944711Y-94483386D01*
X132944709Y-94483387D01*
X132944706Y-94483388D01*
X132864794Y-94529526D01*
X132864785Y-94529533D01*
X132799533Y-94594785D01*
X132799526Y-94594794D01*
X132753388Y-94674706D01*
X132753387Y-94674709D01*
X132753386Y-94674711D01*
X132753386Y-94674712D01*
X132729500Y-94763856D01*
X126050500Y-94763856D01*
X126050500Y-92600817D01*
X127384500Y-92600817D01*
X127384500Y-92739183D01*
X127418604Y-92866459D01*
X127420312Y-92872835D01*
X127420313Y-92872838D01*
X127489492Y-92992661D01*
X127489494Y-92992664D01*
X127489495Y-92992665D01*
X127587335Y-93090505D01*
X127587336Y-93090506D01*
X127587338Y-93090507D01*
X127617119Y-93107701D01*
X127707164Y-93159688D01*
X127840817Y-93195500D01*
X127840819Y-93195500D01*
X127979181Y-93195500D01*
X127979183Y-93195500D01*
X128112836Y-93159688D01*
X128232665Y-93090505D01*
X128330505Y-92992665D01*
X128399688Y-92872836D01*
X128435500Y-92739183D01*
X128435500Y-92600817D01*
X131634500Y-92600817D01*
X131634500Y-92739183D01*
X131668604Y-92866459D01*
X131670312Y-92872835D01*
X131670313Y-92872838D01*
X131739492Y-92992661D01*
X131739494Y-92992664D01*
X131739495Y-92992665D01*
X131837335Y-93090505D01*
X131837336Y-93090506D01*
X131837338Y-93090507D01*
X131867119Y-93107701D01*
X131957164Y-93159688D01*
X132090817Y-93195500D01*
X132090819Y-93195500D01*
X132229181Y-93195500D01*
X132229183Y-93195500D01*
X132362836Y-93159688D01*
X132482665Y-93090505D01*
X132580505Y-92992665D01*
X132649688Y-92872836D01*
X132685500Y-92739183D01*
X132685500Y-92615817D01*
X133939500Y-92615817D01*
X133939500Y-92754183D01*
X133971294Y-92872838D01*
X133975312Y-92887835D01*
X133975313Y-92887838D01*
X134044492Y-93007661D01*
X134044494Y-93007664D01*
X134044495Y-93007665D01*
X134142335Y-93105505D01*
X134142336Y-93105506D01*
X134142338Y-93105507D01*
X134152045Y-93111111D01*
X134262164Y-93174688D01*
X134395817Y-93210500D01*
X134395819Y-93210500D01*
X134534181Y-93210500D01*
X134534183Y-93210500D01*
X134667836Y-93174688D01*
X134787665Y-93105505D01*
X134885505Y-93007665D01*
X134954688Y-92887836D01*
X134990500Y-92754183D01*
X134990500Y-92615817D01*
X138189500Y-92615817D01*
X138189500Y-92754183D01*
X138221294Y-92872838D01*
X138225312Y-92887835D01*
X138225313Y-92887838D01*
X138294492Y-93007661D01*
X138294494Y-93007664D01*
X138294495Y-93007665D01*
X138392335Y-93105505D01*
X138392336Y-93105506D01*
X138392338Y-93105507D01*
X138402045Y-93111111D01*
X138512164Y-93174688D01*
X138645817Y-93210500D01*
X138645819Y-93210500D01*
X138784181Y-93210500D01*
X138784183Y-93210500D01*
X138917836Y-93174688D01*
X139037665Y-93105505D01*
X139079627Y-93063543D01*
X139949499Y-93063543D01*
X139987947Y-93256829D01*
X139987950Y-93256839D01*
X140063364Y-93438907D01*
X140063371Y-93438920D01*
X140172860Y-93602781D01*
X140172863Y-93602785D01*
X140312214Y-93742136D01*
X140312218Y-93742139D01*
X140476079Y-93851628D01*
X140476092Y-93851635D01*
X140649355Y-93923402D01*
X140658165Y-93927051D01*
X140658169Y-93927051D01*
X140658170Y-93927052D01*
X140851456Y-93965500D01*
X140851459Y-93965500D01*
X141048543Y-93965500D01*
X141178582Y-93939632D01*
X141241835Y-93927051D01*
X141423914Y-93851632D01*
X141587782Y-93742139D01*
X141727139Y-93602782D01*
X141836632Y-93438914D01*
X141912051Y-93256835D01*
X141941717Y-93107697D01*
X141950500Y-93063543D01*
X142489499Y-93063543D01*
X142527947Y-93256829D01*
X142527950Y-93256839D01*
X142603364Y-93438907D01*
X142603371Y-93438920D01*
X142712860Y-93602781D01*
X142712863Y-93602785D01*
X142852214Y-93742136D01*
X142852218Y-93742139D01*
X143016079Y-93851628D01*
X143016092Y-93851635D01*
X143189355Y-93923402D01*
X143198165Y-93927051D01*
X143198169Y-93927051D01*
X143198170Y-93927052D01*
X143391456Y-93965500D01*
X143391459Y-93965500D01*
X143588543Y-93965500D01*
X143718582Y-93939632D01*
X143781835Y-93927051D01*
X143963914Y-93851632D01*
X144127782Y-93742139D01*
X144267139Y-93602782D01*
X144376632Y-93438914D01*
X144452051Y-93256835D01*
X144481717Y-93107697D01*
X144490500Y-93063543D01*
X145029499Y-93063543D01*
X145067947Y-93256829D01*
X145067950Y-93256839D01*
X145143364Y-93438907D01*
X145143371Y-93438920D01*
X145252860Y-93602781D01*
X145252863Y-93602785D01*
X145392214Y-93742136D01*
X145392218Y-93742139D01*
X145556079Y-93851628D01*
X145556092Y-93851635D01*
X145729355Y-93923402D01*
X145738165Y-93927051D01*
X145738169Y-93927051D01*
X145738170Y-93927052D01*
X145931456Y-93965500D01*
X145931459Y-93965500D01*
X146128543Y-93965500D01*
X146258582Y-93939632D01*
X146321835Y-93927051D01*
X146503914Y-93851632D01*
X146667782Y-93742139D01*
X146807139Y-93602782D01*
X146916632Y-93438914D01*
X146992051Y-93256835D01*
X147021717Y-93107697D01*
X147030500Y-93063543D01*
X147030500Y-92866456D01*
X146992052Y-92673170D01*
X146992051Y-92673169D01*
X146992051Y-92673165D01*
X146958557Y-92592302D01*
X146916635Y-92491092D01*
X146916628Y-92491079D01*
X146807139Y-92327218D01*
X146807136Y-92327214D01*
X146667785Y-92187863D01*
X146667781Y-92187860D01*
X146503920Y-92078371D01*
X146503907Y-92078364D01*
X146321839Y-92002950D01*
X146321829Y-92002947D01*
X146128543Y-91964500D01*
X146128541Y-91964500D01*
X145931459Y-91964500D01*
X145931457Y-91964500D01*
X145738170Y-92002947D01*
X145738160Y-92002950D01*
X145556092Y-92078364D01*
X145556079Y-92078371D01*
X145392218Y-92187860D01*
X145392214Y-92187863D01*
X145252863Y-92327214D01*
X145252860Y-92327218D01*
X145143371Y-92491079D01*
X145143364Y-92491092D01*
X145067950Y-92673160D01*
X145067947Y-92673170D01*
X145029500Y-92866456D01*
X145029500Y-92866459D01*
X145029500Y-93063541D01*
X145029500Y-93063543D01*
X145029499Y-93063543D01*
X144490500Y-93063543D01*
X144490500Y-92866456D01*
X144452052Y-92673170D01*
X144452051Y-92673169D01*
X144452051Y-92673165D01*
X144418557Y-92592302D01*
X144376635Y-92491092D01*
X144376628Y-92491079D01*
X144267139Y-92327218D01*
X144267136Y-92327214D01*
X144127785Y-92187863D01*
X144127781Y-92187860D01*
X143963920Y-92078371D01*
X143963907Y-92078364D01*
X143781839Y-92002950D01*
X143781829Y-92002947D01*
X143588543Y-91964500D01*
X143588541Y-91964500D01*
X143391459Y-91964500D01*
X143391457Y-91964500D01*
X143198170Y-92002947D01*
X143198160Y-92002950D01*
X143016092Y-92078364D01*
X143016079Y-92078371D01*
X142852218Y-92187860D01*
X142852214Y-92187863D01*
X142712863Y-92327214D01*
X142712860Y-92327218D01*
X142603371Y-92491079D01*
X142603364Y-92491092D01*
X142527950Y-92673160D01*
X142527947Y-92673170D01*
X142489500Y-92866456D01*
X142489500Y-92866459D01*
X142489500Y-93063541D01*
X142489500Y-93063543D01*
X142489499Y-93063543D01*
X141950500Y-93063543D01*
X141950500Y-92866456D01*
X141912052Y-92673170D01*
X141912051Y-92673169D01*
X141912051Y-92673165D01*
X141878557Y-92592302D01*
X141836635Y-92491092D01*
X141836628Y-92491079D01*
X141727139Y-92327218D01*
X141727136Y-92327214D01*
X141587785Y-92187863D01*
X141587781Y-92187860D01*
X141423920Y-92078371D01*
X141423907Y-92078364D01*
X141241839Y-92002950D01*
X141241829Y-92002947D01*
X141048543Y-91964500D01*
X141048541Y-91964500D01*
X140851459Y-91964500D01*
X140851457Y-91964500D01*
X140658170Y-92002947D01*
X140658160Y-92002950D01*
X140476092Y-92078364D01*
X140476079Y-92078371D01*
X140312218Y-92187860D01*
X140312214Y-92187863D01*
X140172863Y-92327214D01*
X140172860Y-92327218D01*
X140063371Y-92491079D01*
X140063364Y-92491092D01*
X139987950Y-92673160D01*
X139987947Y-92673170D01*
X139949500Y-92866456D01*
X139949500Y-92866459D01*
X139949500Y-93063541D01*
X139949500Y-93063543D01*
X139949499Y-93063543D01*
X139079627Y-93063543D01*
X139135505Y-93007665D01*
X139204688Y-92887836D01*
X139240500Y-92754183D01*
X139240500Y-92615817D01*
X139204688Y-92482164D01*
X139135505Y-92362335D01*
X139037665Y-92264495D01*
X139037664Y-92264494D01*
X139037661Y-92264492D01*
X138917838Y-92195313D01*
X138917837Y-92195312D01*
X138917836Y-92195312D01*
X138784183Y-92159500D01*
X138645817Y-92159500D01*
X138512164Y-92195312D01*
X138512161Y-92195313D01*
X138392338Y-92264492D01*
X138392333Y-92264496D01*
X138294496Y-92362333D01*
X138294492Y-92362338D01*
X138225313Y-92482161D01*
X138225312Y-92482164D01*
X138189500Y-92615817D01*
X134990500Y-92615817D01*
X134954688Y-92482164D01*
X134885505Y-92362335D01*
X134787665Y-92264495D01*
X134787664Y-92264494D01*
X134787661Y-92264492D01*
X134667838Y-92195313D01*
X134667837Y-92195312D01*
X134667836Y-92195312D01*
X134534183Y-92159500D01*
X134395817Y-92159500D01*
X134262164Y-92195312D01*
X134262161Y-92195313D01*
X134142338Y-92264492D01*
X134142333Y-92264496D01*
X134044496Y-92362333D01*
X134044492Y-92362338D01*
X133975313Y-92482161D01*
X133975312Y-92482164D01*
X133939500Y-92615817D01*
X132685500Y-92615817D01*
X132685500Y-92600817D01*
X132649688Y-92467164D01*
X132580505Y-92347335D01*
X132482665Y-92249495D01*
X132482664Y-92249494D01*
X132482661Y-92249492D01*
X132362838Y-92180313D01*
X132362837Y-92180312D01*
X132362836Y-92180312D01*
X132229183Y-92144500D01*
X132090817Y-92144500D01*
X131957164Y-92180312D01*
X131957161Y-92180313D01*
X131837338Y-92249492D01*
X131837333Y-92249496D01*
X131739496Y-92347333D01*
X131739492Y-92347338D01*
X131670313Y-92467161D01*
X131670312Y-92467164D01*
X131634500Y-92600817D01*
X128435500Y-92600817D01*
X128399688Y-92467164D01*
X128330505Y-92347335D01*
X128232665Y-92249495D01*
X128232664Y-92249494D01*
X128232661Y-92249492D01*
X128112838Y-92180313D01*
X128112837Y-92180312D01*
X128112836Y-92180312D01*
X127979183Y-92144500D01*
X127840817Y-92144500D01*
X127707164Y-92180312D01*
X127707161Y-92180313D01*
X127587338Y-92249492D01*
X127587333Y-92249496D01*
X127489496Y-92347333D01*
X127489492Y-92347338D01*
X127420313Y-92467161D01*
X127420312Y-92467164D01*
X127384500Y-92600817D01*
X126050500Y-92600817D01*
X126050500Y-91294500D01*
X126070185Y-91227461D01*
X126122989Y-91181706D01*
X126174500Y-91170500D01*
X152125500Y-91170500D01*
X152192539Y-91190185D01*
G37*
%TD.AperFunction*%
%TA.AperFunction,Conductor*%
G36*
X134633342Y-105145185D02*
G01*
X134660686Y-105172046D01*
X134660766Y-105171967D01*
X134669396Y-105180597D01*
X134669399Y-105180601D01*
X134752260Y-105235966D01*
X134752263Y-105235966D01*
X134752264Y-105235967D01*
X134825321Y-105250499D01*
X134825324Y-105250500D01*
X134825326Y-105250500D01*
X135134676Y-105250500D01*
X135134677Y-105250499D01*
X135207740Y-105235966D01*
X135225066Y-105224388D01*
X135291740Y-105203510D01*
X135354931Y-105220843D01*
X135355377Y-105220036D01*
X135358727Y-105221885D01*
X135359121Y-105221993D01*
X135360002Y-105222588D01*
X135362492Y-105223962D01*
X135362493Y-105223963D01*
X135384241Y-105235965D01*
X135416660Y-105253856D01*
X135423666Y-105257722D01*
X135465066Y-105273375D01*
X135910073Y-105372265D01*
X135942419Y-105379453D01*
X136003592Y-105413211D01*
X136036803Y-105474684D01*
X136031507Y-105544352D01*
X135989386Y-105600098D01*
X135923813Y-105624222D01*
X135915520Y-105624500D01*
X135635178Y-105624500D01*
X135591282Y-105633231D01*
X135591275Y-105633234D01*
X135541496Y-105666495D01*
X135541495Y-105666496D01*
X135508234Y-105716275D01*
X135508231Y-105716282D01*
X135499500Y-105760177D01*
X135499500Y-105760180D01*
X135499500Y-106639820D01*
X135499500Y-106639822D01*
X135499499Y-106639822D01*
X135508231Y-106683717D01*
X135508234Y-106683724D01*
X135541273Y-106733171D01*
X135541496Y-106733504D01*
X135591278Y-106766767D01*
X135591281Y-106766767D01*
X135591282Y-106766768D01*
X135635177Y-106775500D01*
X135635180Y-106775500D01*
X135964822Y-106775500D01*
X136008717Y-106766768D01*
X136008717Y-106766767D01*
X136008722Y-106766767D01*
X136058504Y-106733504D01*
X136058508Y-106733497D01*
X136063095Y-106728911D01*
X136124417Y-106695424D01*
X136194109Y-106700406D01*
X136242525Y-106733170D01*
X136242833Y-106733508D01*
X136246120Y-106737123D01*
X136309080Y-106775500D01*
X136314848Y-106779016D01*
X136381887Y-106798701D01*
X136425698Y-106805000D01*
X137967663Y-106805000D01*
X137972516Y-106805849D01*
X137975226Y-106805231D01*
X137989434Y-106808811D01*
X138009789Y-106812375D01*
X138014812Y-106814189D01*
X138047996Y-106829516D01*
X138097426Y-106844030D01*
X138100977Y-106845313D01*
X138126208Y-106863796D01*
X138152554Y-106880725D01*
X139241896Y-108137659D01*
X139243309Y-108139289D01*
X139272339Y-108202842D01*
X139262402Y-108272001D01*
X139216652Y-108324809D01*
X139149614Y-108344500D01*
X138488197Y-108344500D01*
X138451329Y-108348933D01*
X138394648Y-108362767D01*
X138394219Y-108362871D01*
X138394009Y-108362921D01*
X138394004Y-108362923D01*
X138323463Y-108401691D01*
X138273001Y-108450069D01*
X138267811Y-108455288D01*
X138262513Y-108462407D01*
X138259621Y-108460254D01*
X138222360Y-108497645D01*
X138162216Y-108512915D01*
X137614704Y-108510577D01*
X137582584Y-108513789D01*
X137542208Y-108522126D01*
X137542206Y-108522127D01*
X137532472Y-108524137D01*
X137529303Y-108525669D01*
X137491278Y-108533233D01*
X137441496Y-108566496D01*
X137426908Y-108588327D01*
X137410519Y-108602050D01*
X137406974Y-108605164D01*
X137406970Y-108605167D01*
X137404961Y-108606932D01*
X137404957Y-108606937D01*
X137361906Y-108674948D01*
X137341090Y-108741639D01*
X137341089Y-108741642D01*
X137334048Y-108785341D01*
X137334047Y-108785345D01*
X137332763Y-108861132D01*
X137332762Y-108861134D01*
X137332763Y-108861138D01*
X137323719Y-108890104D01*
X137311945Y-108927828D01*
X137311941Y-108927830D01*
X137311941Y-108927833D01*
X137298960Y-108938700D01*
X137258373Y-108972681D01*
X137258370Y-108972681D01*
X137258367Y-108972684D01*
X137219534Y-108977594D01*
X137189056Y-108981451D01*
X137189053Y-108981449D01*
X137189050Y-108981450D01*
X137158624Y-108966925D01*
X137126001Y-108951353D01*
X137125998Y-108951349D01*
X137125997Y-108951349D01*
X137125976Y-108951323D01*
X137103341Y-108924286D01*
X137102336Y-108922663D01*
X137080469Y-108884788D01*
X137076341Y-108880660D01*
X137069060Y-108868895D01*
X137061373Y-108840969D01*
X137050930Y-108813954D01*
X137050500Y-108803639D01*
X137050500Y-108660177D01*
X137041768Y-108616282D01*
X137041767Y-108616281D01*
X137041767Y-108616278D01*
X137008504Y-108566496D01*
X137008503Y-108566495D01*
X136958724Y-108533234D01*
X136958717Y-108533231D01*
X136914822Y-108524500D01*
X136914820Y-108524500D01*
X136585180Y-108524500D01*
X136585178Y-108524500D01*
X136541282Y-108533231D01*
X136541275Y-108533234D01*
X136491496Y-108566495D01*
X136491495Y-108566496D01*
X136458234Y-108616275D01*
X136458231Y-108616282D01*
X136449500Y-108660177D01*
X136449500Y-108660180D01*
X136449500Y-109539820D01*
X136449500Y-109539822D01*
X136449499Y-109539822D01*
X136458231Y-109583717D01*
X136458234Y-109583724D01*
X136489556Y-109630601D01*
X136491496Y-109633504D01*
X136541278Y-109666767D01*
X136541281Y-109666767D01*
X136541282Y-109666768D01*
X136585177Y-109675500D01*
X136585180Y-109675500D01*
X136914822Y-109675500D01*
X136958717Y-109666768D01*
X136958717Y-109666767D01*
X136958722Y-109666767D01*
X137008504Y-109633504D01*
X137041767Y-109583722D01*
X137045119Y-109566873D01*
X137050500Y-109539822D01*
X137050500Y-109396360D01*
X137055412Y-109379429D01*
X137055303Y-109362182D01*
X137067355Y-109338270D01*
X137069760Y-109329985D01*
X137076791Y-109318889D01*
X137080469Y-109315212D01*
X137094271Y-109291305D01*
X137095625Y-109289170D01*
X137120045Y-109267736D01*
X137143544Y-109245330D01*
X137146144Y-109244828D01*
X137148137Y-109243080D01*
X137180265Y-109238251D01*
X137212151Y-109232106D01*
X137214610Y-109233090D01*
X137217231Y-109232697D01*
X137246858Y-109246000D01*
X137277016Y-109258074D01*
X137278553Y-109260232D01*
X137280970Y-109261318D01*
X137298701Y-109288525D01*
X137317545Y-109314987D01*
X137318062Y-109318235D01*
X137319118Y-109319854D01*
X137319151Y-109325059D01*
X137324347Y-109357646D01*
X137316658Y-109811246D01*
X137316659Y-109811267D01*
X137318794Y-109833813D01*
X137305515Y-109902409D01*
X137257259Y-109952937D01*
X137195346Y-109969500D01*
X134374500Y-109969500D01*
X134307461Y-109949815D01*
X134261706Y-109897011D01*
X134250500Y-109845500D01*
X134250500Y-109566873D01*
X134270185Y-109499834D01*
X134322989Y-109454079D01*
X134392147Y-109444135D01*
X134398693Y-109445256D01*
X134402259Y-109445965D01*
X134402260Y-109445966D01*
X134443046Y-109454079D01*
X134475325Y-109460500D01*
X134475326Y-109460500D01*
X134724676Y-109460500D01*
X134724677Y-109460499D01*
X134797740Y-109445966D01*
X134880601Y-109390601D01*
X134935966Y-109307740D01*
X134950500Y-109234674D01*
X134950500Y-108925326D01*
X134950500Y-108925323D01*
X134950499Y-108925321D01*
X134935967Y-108852264D01*
X134935966Y-108852260D01*
X134931330Y-108845321D01*
X134880601Y-108769399D01*
X134797740Y-108714034D01*
X134797739Y-108714033D01*
X134797735Y-108714032D01*
X134724677Y-108699500D01*
X134724674Y-108699500D01*
X134475326Y-108699500D01*
X134475323Y-108699500D01*
X134402264Y-108714032D01*
X134402260Y-108714033D01*
X134318890Y-108769739D01*
X134299819Y-108775709D01*
X134282820Y-108786214D01*
X134267158Y-108785936D01*
X134252212Y-108790616D01*
X134232941Y-108785329D01*
X134212962Y-108784975D01*
X134187821Y-108772951D01*
X134184832Y-108772131D01*
X134181122Y-108769747D01*
X134180622Y-108769413D01*
X134135810Y-108715806D01*
X134125500Y-108666302D01*
X134125500Y-108655146D01*
X134125499Y-108655143D01*
X134121081Y-108644477D01*
X134092785Y-108576165D01*
X134085317Y-108506696D01*
X134091143Y-108486858D01*
X134100500Y-108439822D01*
X134100500Y-107560177D01*
X134091768Y-107516282D01*
X134091767Y-107516281D01*
X134091767Y-107516278D01*
X134074839Y-107490944D01*
X134058504Y-107466496D01*
X134058503Y-107466495D01*
X134008724Y-107433234D01*
X134008717Y-107433231D01*
X133964822Y-107424500D01*
X133964820Y-107424500D01*
X133635180Y-107424500D01*
X133635178Y-107424500D01*
X133579300Y-107435615D01*
X133578718Y-107432690D01*
X133527967Y-107438140D01*
X133516572Y-107434794D01*
X133464822Y-107424500D01*
X133464820Y-107424500D01*
X133135180Y-107424500D01*
X133135178Y-107424500D01*
X133079300Y-107435615D01*
X133078718Y-107432690D01*
X133027967Y-107438140D01*
X133016572Y-107434794D01*
X132964822Y-107424500D01*
X132964820Y-107424500D01*
X132635180Y-107424500D01*
X132635178Y-107424500D01*
X132579300Y-107435615D01*
X132578718Y-107432690D01*
X132527967Y-107438140D01*
X132516572Y-107434794D01*
X132464822Y-107424500D01*
X132464820Y-107424500D01*
X132135180Y-107424500D01*
X132135178Y-107424500D01*
X132091282Y-107433231D01*
X132091275Y-107433234D01*
X132041496Y-107466495D01*
X132041495Y-107466496D01*
X132008234Y-107516275D01*
X132008231Y-107516282D01*
X131999500Y-107560177D01*
X131999500Y-107560180D01*
X131999500Y-108439820D01*
X131999500Y-108439822D01*
X131999499Y-108439822D01*
X132010615Y-108495700D01*
X132007838Y-108496252D01*
X132009388Y-108510664D01*
X132014059Y-108543147D01*
X132013105Y-108545234D01*
X132013351Y-108547515D01*
X131998665Y-108576853D01*
X131985034Y-108606703D01*
X131983103Y-108607943D01*
X131982077Y-108609995D01*
X131953853Y-108626741D01*
X131926256Y-108644477D01*
X131923229Y-108644912D01*
X131921989Y-108645648D01*
X131891321Y-108649500D01*
X131655122Y-108649500D01*
X131588083Y-108629815D01*
X131567441Y-108613181D01*
X130986819Y-108032558D01*
X130953334Y-107971235D01*
X130950500Y-107944877D01*
X130950500Y-107796360D01*
X130970185Y-107729321D01*
X130976126Y-107720871D01*
X130980462Y-107715218D01*
X130980469Y-107715212D01*
X131026614Y-107635288D01*
X131050500Y-107546144D01*
X131050500Y-107453856D01*
X131026614Y-107364712D01*
X131026611Y-107364706D01*
X130980473Y-107284794D01*
X130980470Y-107284791D01*
X130980469Y-107284788D01*
X130915212Y-107219531D01*
X130915209Y-107219529D01*
X130915205Y-107219526D01*
X130835293Y-107173388D01*
X130835290Y-107173387D01*
X130835289Y-107173386D01*
X130835288Y-107173386D01*
X130746144Y-107149500D01*
X130653856Y-107149500D01*
X130564712Y-107173386D01*
X130564711Y-107173386D01*
X130564709Y-107173387D01*
X130564706Y-107173388D01*
X130484794Y-107219526D01*
X130484785Y-107219533D01*
X130419533Y-107284785D01*
X130419526Y-107284794D01*
X130373388Y-107364706D01*
X130373387Y-107364709D01*
X130373386Y-107364711D01*
X130373386Y-107364712D01*
X130350580Y-107449828D01*
X130348499Y-107457593D01*
X130312134Y-107517254D01*
X130249287Y-107547783D01*
X130228724Y-107549500D01*
X128905143Y-107549500D01*
X128905117Y-107549502D01*
X128880012Y-107552413D01*
X128880007Y-107552415D01*
X128837469Y-107571197D01*
X128768191Y-107580267D01*
X128705006Y-107550443D01*
X128699704Y-107545443D01*
X128486819Y-107332558D01*
X128453334Y-107271235D01*
X128450500Y-107244877D01*
X128450500Y-106855122D01*
X128470185Y-106788083D01*
X128486819Y-106767441D01*
X129267441Y-105986819D01*
X129328764Y-105953334D01*
X129355122Y-105950500D01*
X129949826Y-105950500D01*
X129949828Y-105950500D01*
X130041897Y-105912364D01*
X130767441Y-105186818D01*
X130794368Y-105172115D01*
X130820187Y-105155523D01*
X130826387Y-105154631D01*
X130828764Y-105153334D01*
X130855122Y-105150500D01*
X131064840Y-105150500D01*
X131131879Y-105170185D01*
X131177634Y-105222989D01*
X131187578Y-105292147D01*
X131163214Y-105349988D01*
X131159529Y-105354788D01*
X131113388Y-105434706D01*
X131113387Y-105434709D01*
X131113386Y-105434711D01*
X131113386Y-105434712D01*
X131089500Y-105523856D01*
X131089500Y-105616144D01*
X131111568Y-105698504D01*
X131113387Y-105705290D01*
X131113388Y-105705293D01*
X131159526Y-105785205D01*
X131159529Y-105785209D01*
X131159531Y-105785212D01*
X131224788Y-105850469D01*
X131238875Y-105858602D01*
X131256727Y-105868909D01*
X131287163Y-105893642D01*
X131301219Y-105909361D01*
X131308830Y-105927736D01*
X131372264Y-105991170D01*
X131372265Y-105991170D01*
X131392162Y-106011067D01*
X131463181Y-106082086D01*
X131496666Y-106143409D01*
X131499500Y-106169767D01*
X131499500Y-106539820D01*
X131499500Y-106539822D01*
X131499499Y-106539822D01*
X131508231Y-106583717D01*
X131508232Y-106583721D01*
X131508233Y-106583722D01*
X131541496Y-106633504D01*
X131591278Y-106666767D01*
X131591281Y-106666767D01*
X131591282Y-106666768D01*
X131635177Y-106675500D01*
X131635180Y-106675500D01*
X131964822Y-106675500D01*
X132020700Y-106664385D01*
X132021282Y-106667311D01*
X132072013Y-106661855D01*
X132083416Y-106665203D01*
X132135177Y-106675500D01*
X132135180Y-106675500D01*
X132464822Y-106675500D01*
X132520700Y-106664385D01*
X132521282Y-106667311D01*
X132572013Y-106661855D01*
X132583416Y-106665203D01*
X132635177Y-106675500D01*
X132635180Y-106675500D01*
X132964822Y-106675500D01*
X133020700Y-106664385D01*
X133021282Y-106667311D01*
X133072013Y-106661855D01*
X133083416Y-106665203D01*
X133135177Y-106675500D01*
X133135180Y-106675500D01*
X133464822Y-106675500D01*
X133520700Y-106664385D01*
X133521282Y-106667311D01*
X133572013Y-106661855D01*
X133583416Y-106665203D01*
X133635177Y-106675500D01*
X133635180Y-106675500D01*
X133964822Y-106675500D01*
X134008717Y-106666768D01*
X134008717Y-106666767D01*
X134008722Y-106666767D01*
X134058504Y-106633504D01*
X134091767Y-106583722D01*
X134098221Y-106551276D01*
X134100500Y-106539822D01*
X134100500Y-105660177D01*
X134091768Y-105616282D01*
X134091767Y-105616279D01*
X134091767Y-105616278D01*
X134072543Y-105587508D01*
X134051667Y-105520831D01*
X134070152Y-105453451D01*
X134087962Y-105430942D01*
X134357086Y-105161819D01*
X134384013Y-105147115D01*
X134409832Y-105130523D01*
X134416032Y-105129631D01*
X134418409Y-105128334D01*
X134444767Y-105125500D01*
X134566303Y-105125500D01*
X134633342Y-105145185D01*
G37*
%TD.AperFunction*%
%TA.AperFunction,Conductor*%
G36*
X138261446Y-104145558D02*
G01*
X138288255Y-104146197D01*
X138295412Y-104151041D01*
X138303947Y-104152419D01*
X138323910Y-104170328D01*
X138346118Y-104185359D01*
X138349520Y-104193304D01*
X138355955Y-104199077D01*
X138363066Y-104224935D01*
X138373623Y-104249587D01*
X138374500Y-104264309D01*
X138374500Y-105445142D01*
X138374499Y-105445156D01*
X138374499Y-105455090D01*
X138373567Y-105458261D01*
X138373254Y-105462678D01*
X138373253Y-105462685D01*
X138372308Y-105462550D01*
X138354814Y-105522129D01*
X138302010Y-105567884D01*
X138232852Y-105577828D01*
X138169296Y-105548803D01*
X138162857Y-105542811D01*
X138156002Y-105535962D01*
X138046218Y-105426276D01*
X138046208Y-105426267D01*
X138046202Y-105426261D01*
X138033863Y-105415185D01*
X138033861Y-105415183D01*
X138033855Y-105415178D01*
X138013252Y-105398583D01*
X138013249Y-105398581D01*
X138013244Y-105398578D01*
X137959521Y-105370484D01*
X137959519Y-105370483D01*
X137892482Y-105350799D01*
X137892472Y-105350797D01*
X137848673Y-105344500D01*
X137848670Y-105344500D01*
X137687398Y-105344500D01*
X137620359Y-105324815D01*
X137574604Y-105272011D01*
X137565698Y-105244272D01*
X137563488Y-105232960D01*
X137563388Y-105219639D01*
X137559922Y-105188145D01*
X137549361Y-105138996D01*
X137539582Y-105108855D01*
X137538979Y-105107490D01*
X137537300Y-105098892D01*
X137537840Y-105093079D01*
X137535000Y-105075120D01*
X137535000Y-104720726D01*
X137540909Y-104682905D01*
X137541112Y-104682272D01*
X137544829Y-104670666D01*
X137555389Y-104619647D01*
X137558613Y-104586956D01*
X137558228Y-104535966D01*
X137558149Y-104525436D01*
X137577327Y-104458250D01*
X137629784Y-104412098D01*
X137682145Y-104400500D01*
X137704676Y-104400500D01*
X137704677Y-104400499D01*
X137777740Y-104385966D01*
X137860601Y-104330601D01*
X137861608Y-104329092D01*
X137864657Y-104326544D01*
X137869237Y-104321965D01*
X137869646Y-104322374D01*
X137915215Y-104284287D01*
X137920958Y-104281956D01*
X137938075Y-104275501D01*
X137944855Y-104275501D01*
X138011874Y-104247740D01*
X138027736Y-104241170D01*
X138082087Y-104186819D01*
X138102430Y-104175710D01*
X138120208Y-104160835D01*
X138135521Y-104157641D01*
X138143410Y-104153334D01*
X138154238Y-104151476D01*
X138161970Y-104150500D01*
X138196144Y-104150500D01*
X138226584Y-104142343D01*
X138234970Y-104141285D01*
X138261446Y-104145558D01*
G37*
%TD.AperFunction*%
%TA.AperFunction,Conductor*%
G36*
X134109721Y-103489461D02*
G01*
X134123753Y-103488593D01*
X134142580Y-103499109D01*
X134163271Y-103505185D01*
X134172476Y-103515808D01*
X134184751Y-103522665D01*
X134194904Y-103541692D01*
X134209026Y-103557989D01*
X134211026Y-103571902D01*
X134217646Y-103584307D01*
X134215900Y-103605801D01*
X134218970Y-103627147D01*
X134213129Y-103639935D01*
X134211992Y-103653948D01*
X134194781Y-103684761D01*
X134189765Y-103691328D01*
X134158830Y-103722264D01*
X134156358Y-103728233D01*
X134150166Y-103743179D01*
X134150165Y-103743182D01*
X134124499Y-103805145D01*
X134124499Y-103906970D01*
X134104814Y-103974009D01*
X134052010Y-104019764D01*
X133982852Y-104029708D01*
X133931609Y-104010073D01*
X133930601Y-104009399D01*
X133877635Y-103974009D01*
X133847739Y-103954033D01*
X133847735Y-103954032D01*
X133774677Y-103939500D01*
X133774674Y-103939500D01*
X133525326Y-103939500D01*
X133525323Y-103939500D01*
X133452264Y-103954032D01*
X133452257Y-103954034D01*
X133441100Y-103961490D01*
X133374422Y-103982366D01*
X133307042Y-103963880D01*
X133260353Y-103911899D01*
X133249179Y-103842929D01*
X133250472Y-103834951D01*
X133250500Y-103834676D01*
X133250500Y-103669767D01*
X133270185Y-103602728D01*
X133286819Y-103582086D01*
X133347086Y-103521819D01*
X133408409Y-103488334D01*
X133434767Y-103485500D01*
X134096232Y-103485500D01*
X134109721Y-103489461D01*
G37*
%TD.AperFunction*%
%TA.AperFunction,Conductor*%
G36*
X135920520Y-103250897D02*
G01*
X135976453Y-103292769D01*
X135995233Y-103338873D01*
X135997397Y-103338294D01*
X135999500Y-103346142D01*
X135999500Y-103346144D01*
X136020763Y-103425500D01*
X136023387Y-103435290D01*
X136023388Y-103435293D01*
X136069526Y-103515205D01*
X136069529Y-103515209D01*
X136069531Y-103515212D01*
X136134788Y-103580469D01*
X136143445Y-103585467D01*
X136155823Y-103592614D01*
X136178129Y-103616009D01*
X136201428Y-103638383D01*
X136202084Y-103641133D01*
X136204038Y-103643182D01*
X136210152Y-103674912D01*
X136217659Y-103706341D01*
X136216723Y-103709012D01*
X136217259Y-103711789D01*
X136205253Y-103741775D01*
X136194572Y-103772286D01*
X136192165Y-103774465D01*
X136191290Y-103776653D01*
X136170125Y-103797743D01*
X136163308Y-103803064D01*
X136134788Y-103819531D01*
X136108353Y-103845965D01*
X136102354Y-103850649D01*
X136076663Y-103860828D01*
X136052406Y-103874073D01*
X136043993Y-103873772D01*
X136037397Y-103876386D01*
X136019668Y-103872903D01*
X135991114Y-103871883D01*
X135919312Y-103850799D01*
X135919302Y-103850797D01*
X135875503Y-103844500D01*
X135875500Y-103844500D01*
X135724500Y-103844500D01*
X135657461Y-103824815D01*
X135611706Y-103772011D01*
X135603695Y-103748467D01*
X135600500Y-103734665D01*
X135600500Y-103703856D01*
X135576614Y-103614712D01*
X135570130Y-103603482D01*
X135565960Y-103585467D01*
X135566957Y-103568323D01*
X135562904Y-103551640D01*
X135568943Y-103534171D01*
X135570017Y-103515715D01*
X135580124Y-103501831D01*
X135585735Y-103485605D01*
X135599078Y-103469826D01*
X135789507Y-103279396D01*
X135850828Y-103245913D01*
X135920520Y-103250897D01*
G37*
%TD.AperFunction*%
%TA.AperFunction,Conductor*%
G36*
X136077103Y-99844649D02*
G01*
X136090851Y-99843995D01*
X136123615Y-99857112D01*
X136174712Y-99886614D01*
X136263856Y-99910500D01*
X136263858Y-99910500D01*
X136336533Y-99910500D01*
X136403572Y-99930185D01*
X136405397Y-99931380D01*
X136412260Y-99935966D01*
X136412263Y-99935966D01*
X136412264Y-99935967D01*
X136485321Y-99950499D01*
X136485324Y-99950500D01*
X136485326Y-99950500D01*
X136734676Y-99950500D01*
X136734677Y-99950499D01*
X136807740Y-99935966D01*
X136890601Y-99880601D01*
X136890600Y-99880601D01*
X136900756Y-99873816D01*
X136902745Y-99876793D01*
X136945707Y-99853334D01*
X136972065Y-99850500D01*
X137231232Y-99850500D01*
X137298271Y-99870185D01*
X137344026Y-99922989D01*
X137353970Y-99992147D01*
X137324945Y-100055703D01*
X137318913Y-100062181D01*
X134382914Y-102998181D01*
X134321591Y-103031666D01*
X134295233Y-103034500D01*
X133703410Y-103034500D01*
X133636371Y-103014815D01*
X133590616Y-102962011D01*
X133580672Y-102892853D01*
X133609697Y-102829297D01*
X133640537Y-102803621D01*
X133868463Y-102669547D01*
X133874732Y-102667281D01*
X133877657Y-102664647D01*
X133896976Y-102659240D01*
X133911324Y-102654054D01*
X133915217Y-102653417D01*
X133924420Y-102652511D01*
X133941246Y-102649162D01*
X133943326Y-102648823D01*
X133943644Y-102648862D01*
X133948438Y-102648097D01*
X133966763Y-102645884D01*
X133974861Y-102643703D01*
X133974861Y-102643702D01*
X133977690Y-102642941D01*
X133980071Y-102642216D01*
X134026122Y-102629877D01*
X134035456Y-102630099D01*
X134060606Y-102619311D01*
X134061317Y-102619225D01*
X134063860Y-102618016D01*
X134068209Y-102616050D01*
X134095222Y-102604464D01*
X134102886Y-102598995D01*
X134103067Y-102599376D01*
X134108554Y-102596767D01*
X134128655Y-102580607D01*
X134149126Y-102566001D01*
X134149127Y-102566000D01*
X134150280Y-102564974D01*
X134162923Y-102553060D01*
X134164583Y-102551726D01*
X134176705Y-102536119D01*
X134182764Y-102528903D01*
X134196049Y-102514254D01*
X134200911Y-102508628D01*
X134200912Y-102508624D01*
X134205700Y-102501153D01*
X134205751Y-102501186D01*
X134210381Y-102493316D01*
X134211843Y-102490600D01*
X134211847Y-102490595D01*
X134223121Y-102459805D01*
X134234242Y-102435361D01*
X134235042Y-102430561D01*
X134233900Y-102430370D01*
X134239525Y-102415010D01*
X134241285Y-102395325D01*
X134242481Y-102385971D01*
X134245736Y-102366476D01*
X134245740Y-102366450D01*
X134246781Y-102359146D01*
X134246779Y-102358116D01*
X134245975Y-102349960D01*
X134245742Y-102345522D01*
X134245750Y-102345439D01*
X134245195Y-102335084D01*
X134245170Y-102334600D01*
X134245172Y-102334587D01*
X134245000Y-102328110D01*
X134245000Y-102124503D01*
X134264685Y-102057464D01*
X134317489Y-102011709D01*
X134344065Y-102003036D01*
X134395752Y-101992427D01*
X134808523Y-101815526D01*
X134817523Y-101813678D01*
X134822434Y-101810523D01*
X134857369Y-101805500D01*
X134889542Y-101805500D01*
X134890033Y-101805516D01*
X134892432Y-101805502D01*
X134893176Y-101805500D01*
X134893231Y-101805500D01*
X134893453Y-101805495D01*
X134893592Y-101805494D01*
X134893598Y-101805495D01*
X134903138Y-101805438D01*
X134903145Y-101805437D01*
X134903147Y-101805437D01*
X134905085Y-101805302D01*
X134913735Y-101805000D01*
X134962348Y-101805000D01*
X134970680Y-101807446D01*
X135000760Y-101803030D01*
X135000761Y-101803031D01*
X135034228Y-101798118D01*
X135050764Y-101791864D01*
X135050878Y-101792378D01*
X135061006Y-101790144D01*
X135078322Y-101781444D01*
X135096505Y-101774569D01*
X135102246Y-101770830D01*
X135102245Y-101770828D01*
X135105864Y-101768472D01*
X135117878Y-101761571D01*
X135129344Y-101755812D01*
X135135097Y-101750825D01*
X135148654Y-101740613D01*
X135155038Y-101736458D01*
X135161153Y-101732266D01*
X135165545Y-101726879D01*
X135180467Y-101711511D01*
X135182134Y-101710068D01*
X135187623Y-101705079D01*
X135200329Y-101684232D01*
X135212028Y-101669889D01*
X135215588Y-101661968D01*
X135214263Y-101661372D01*
X135229516Y-101636348D01*
X135231661Y-101629038D01*
X135237539Y-101613136D01*
X135240669Y-101606175D01*
X135243544Y-101599350D01*
X135243545Y-101599344D01*
X135244329Y-101592440D01*
X135248562Y-101571488D01*
X135249197Y-101569322D01*
X135249199Y-101569316D01*
X135255499Y-101525504D01*
X135255500Y-101525501D01*
X135255500Y-101274008D01*
X135255499Y-101273991D01*
X135254249Y-101262364D01*
X135251946Y-101240945D01*
X135240740Y-101189434D01*
X135208737Y-101125500D01*
X135206313Y-101120657D01*
X135160563Y-101067860D01*
X135155577Y-101062376D01*
X135086854Y-101020486D01*
X135086843Y-101020481D01*
X135042643Y-101007502D01*
X134983865Y-100969727D01*
X134954842Y-100906170D01*
X134964787Y-100837012D01*
X134999770Y-100791978D01*
X135029780Y-100767794D01*
X135035429Y-100763016D01*
X135079749Y-100695823D01*
X135101813Y-100629529D01*
X135109671Y-100585971D01*
X135111622Y-100531318D01*
X135111219Y-100513291D01*
X135108915Y-100484676D01*
X135107753Y-100476331D01*
X135106432Y-100466836D01*
X135106429Y-100466821D01*
X135097383Y-100421341D01*
X135095000Y-100397150D01*
X135095000Y-100202850D01*
X135097382Y-100178662D01*
X135103182Y-100149500D01*
X135104426Y-100143242D01*
X135108039Y-100129345D01*
X135121558Y-100087480D01*
X135128982Y-100045248D01*
X135129304Y-100036229D01*
X135151367Y-99969935D01*
X135205770Y-99926093D01*
X135275239Y-99918623D01*
X135300006Y-99928641D01*
X135300979Y-99926293D01*
X135312257Y-99930964D01*
X135312260Y-99930966D01*
X135312263Y-99930966D01*
X135312264Y-99930967D01*
X135385321Y-99945499D01*
X135385324Y-99945500D01*
X135385326Y-99945500D01*
X135634676Y-99945500D01*
X135634677Y-99945499D01*
X135707740Y-99930966D01*
X135722063Y-99921395D01*
X135788740Y-99900520D01*
X135790951Y-99900500D01*
X135836142Y-99900500D01*
X135836144Y-99900500D01*
X135925288Y-99876614D01*
X135959064Y-99857112D01*
X136021065Y-99840500D01*
X136061616Y-99840500D01*
X136077103Y-99844649D01*
G37*
%TD.AperFunction*%
%TA.AperFunction,Conductor*%
G36*
X140736111Y-97338314D02*
G01*
X140741278Y-97341767D01*
X140785180Y-97350500D01*
X140838231Y-97350500D01*
X140845547Y-97351373D01*
X140846045Y-97351586D01*
X140848501Y-97351762D01*
X140874500Y-97355500D01*
X140874503Y-97355500D01*
X141025491Y-97355500D01*
X141025500Y-97355500D01*
X141058555Y-97351946D01*
X141058558Y-97351945D01*
X141058979Y-97351900D01*
X141061786Y-97351495D01*
X141069595Y-97350500D01*
X141114820Y-97350500D01*
X141158722Y-97341767D01*
X141163573Y-97338525D01*
X141184327Y-97335881D01*
X141203102Y-97338888D01*
X141222013Y-97336855D01*
X141233416Y-97340203D01*
X141285177Y-97350500D01*
X141285180Y-97350500D01*
X141614822Y-97350500D01*
X141670700Y-97339385D01*
X141671282Y-97342311D01*
X141722013Y-97336855D01*
X141733416Y-97340203D01*
X141785177Y-97350500D01*
X141785180Y-97350500D01*
X142114822Y-97350500D01*
X142170700Y-97339385D01*
X142171282Y-97342311D01*
X142222013Y-97336855D01*
X142233416Y-97340203D01*
X142285177Y-97350500D01*
X142285180Y-97350500D01*
X142614822Y-97350500D01*
X142670700Y-97339385D01*
X142671282Y-97342311D01*
X142722013Y-97336855D01*
X142733416Y-97340203D01*
X142785177Y-97350500D01*
X143025500Y-97350500D01*
X143092539Y-97370185D01*
X143138294Y-97422989D01*
X143149500Y-97474500D01*
X143149500Y-97714820D01*
X143149500Y-97714822D01*
X143149499Y-97714822D01*
X143160615Y-97770700D01*
X143157690Y-97771281D01*
X143163140Y-97822033D01*
X143159794Y-97833427D01*
X143149500Y-97885177D01*
X143149500Y-97885180D01*
X143149500Y-98214820D01*
X143149500Y-98214822D01*
X143149499Y-98214822D01*
X143160615Y-98270700D01*
X143157690Y-98271281D01*
X143163140Y-98322033D01*
X143159794Y-98333427D01*
X143149500Y-98385177D01*
X143149500Y-98385180D01*
X143149500Y-98714820D01*
X143149500Y-98714822D01*
X143149499Y-98714822D01*
X143160615Y-98770700D01*
X143157690Y-98771281D01*
X143163140Y-98822033D01*
X143159794Y-98833427D01*
X143149500Y-98885177D01*
X143149500Y-98885180D01*
X143149500Y-99214820D01*
X143149500Y-99214822D01*
X143149499Y-99214822D01*
X143160615Y-99270700D01*
X143157690Y-99271281D01*
X143163140Y-99322033D01*
X143159794Y-99333427D01*
X143149500Y-99385177D01*
X143149500Y-99385180D01*
X143149500Y-99714820D01*
X143149500Y-99714822D01*
X143149499Y-99714822D01*
X143160615Y-99770700D01*
X143157690Y-99771281D01*
X143163140Y-99822033D01*
X143159794Y-99833427D01*
X143149500Y-99885177D01*
X143149500Y-99885180D01*
X143149500Y-100214820D01*
X143149500Y-100214822D01*
X143149499Y-100214822D01*
X143160615Y-100270700D01*
X143157690Y-100271281D01*
X143163140Y-100322033D01*
X143159794Y-100333427D01*
X143149500Y-100385177D01*
X143149500Y-100385180D01*
X143149500Y-100714820D01*
X143149500Y-100714822D01*
X143149499Y-100714822D01*
X143160615Y-100770700D01*
X143157690Y-100771281D01*
X143163140Y-100822033D01*
X143159794Y-100833427D01*
X143149500Y-100885177D01*
X143149500Y-101125500D01*
X143129815Y-101192539D01*
X143077011Y-101238294D01*
X143025500Y-101249500D01*
X142785178Y-101249500D01*
X142729300Y-101260615D01*
X142728718Y-101257690D01*
X142677967Y-101263140D01*
X142666572Y-101259794D01*
X142614822Y-101249500D01*
X142614820Y-101249500D01*
X142285180Y-101249500D01*
X142285178Y-101249500D01*
X142229300Y-101260615D01*
X142228718Y-101257690D01*
X142177967Y-101263140D01*
X142166572Y-101259794D01*
X142114822Y-101249500D01*
X142114820Y-101249500D01*
X141785180Y-101249500D01*
X141785178Y-101249500D01*
X141729300Y-101260615D01*
X141728718Y-101257690D01*
X141677967Y-101263140D01*
X141666572Y-101259794D01*
X141614822Y-101249500D01*
X141614820Y-101249500D01*
X141285180Y-101249500D01*
X141285178Y-101249500D01*
X141229300Y-101260615D01*
X141228718Y-101257690D01*
X141177967Y-101263140D01*
X141166572Y-101259794D01*
X141114822Y-101249500D01*
X141114820Y-101249500D01*
X140785180Y-101249500D01*
X140785178Y-101249500D01*
X140729300Y-101260615D01*
X140728718Y-101257690D01*
X140677967Y-101263140D01*
X140666572Y-101259794D01*
X140614822Y-101249500D01*
X140614820Y-101249500D01*
X140285180Y-101249500D01*
X140285178Y-101249500D01*
X140229300Y-101260615D01*
X140228718Y-101257690D01*
X140177967Y-101263140D01*
X140166572Y-101259794D01*
X140114822Y-101249500D01*
X140114820Y-101249500D01*
X139785180Y-101249500D01*
X139785178Y-101249500D01*
X139729300Y-101260615D01*
X139728718Y-101257690D01*
X139677967Y-101263140D01*
X139666572Y-101259794D01*
X139614822Y-101249500D01*
X139614820Y-101249500D01*
X139374500Y-101249500D01*
X139307461Y-101229815D01*
X139261706Y-101177011D01*
X139250500Y-101125500D01*
X139250500Y-100885177D01*
X139239385Y-100829300D01*
X139242311Y-100828717D01*
X139236855Y-100777987D01*
X139240203Y-100766583D01*
X139250500Y-100714822D01*
X139250500Y-100385177D01*
X139239385Y-100329300D01*
X139242311Y-100328717D01*
X139236855Y-100277987D01*
X139240203Y-100266583D01*
X139250500Y-100214822D01*
X139250500Y-99885177D01*
X139239385Y-99829300D01*
X139242311Y-99828717D01*
X139236855Y-99777987D01*
X139240203Y-99766583D01*
X139250500Y-99714822D01*
X139250500Y-99385177D01*
X139239385Y-99329300D01*
X139242311Y-99328717D01*
X139236855Y-99277987D01*
X139240203Y-99266583D01*
X139250500Y-99214822D01*
X139250500Y-98885177D01*
X139239385Y-98829300D01*
X139242311Y-98828717D01*
X139236855Y-98777987D01*
X139240203Y-98766583D01*
X139250500Y-98714822D01*
X139250500Y-98385177D01*
X139239385Y-98329300D01*
X139242311Y-98328717D01*
X139236855Y-98277987D01*
X139240203Y-98266583D01*
X139250500Y-98214822D01*
X139250500Y-97885177D01*
X139239385Y-97829300D01*
X139242311Y-97828717D01*
X139236855Y-97777987D01*
X139240203Y-97766583D01*
X139243403Y-97750500D01*
X139244521Y-97744876D01*
X139250500Y-97714822D01*
X139250500Y-97479500D01*
X139252487Y-97472731D01*
X139251261Y-97465787D01*
X139262202Y-97439647D01*
X139270185Y-97412461D01*
X139275514Y-97407843D01*
X139278238Y-97401336D01*
X139301577Y-97385259D01*
X139322989Y-97366706D01*
X139331360Y-97364744D01*
X139335778Y-97361701D01*
X139362826Y-97357369D01*
X139370534Y-97355563D01*
X139372503Y-97355500D01*
X139476000Y-97355500D01*
X139498130Y-97353917D01*
X139519927Y-97350782D01*
X139526800Y-97350563D01*
X139527467Y-97350735D01*
X139530766Y-97350500D01*
X139614822Y-97350500D01*
X139670700Y-97339385D01*
X139671282Y-97342311D01*
X139722013Y-97336855D01*
X139733416Y-97340203D01*
X139785177Y-97350500D01*
X139785180Y-97350500D01*
X140114822Y-97350500D01*
X140170700Y-97339385D01*
X140171282Y-97342311D01*
X140222013Y-97336855D01*
X140233416Y-97340203D01*
X140285177Y-97350500D01*
X140285180Y-97350500D01*
X140614822Y-97350500D01*
X140670700Y-97339385D01*
X140671172Y-97341758D01*
X140714692Y-97335759D01*
X140736111Y-97338314D01*
G37*
%TD.AperFunction*%
%TA.AperFunction,Conductor*%
G36*
X138444351Y-94800138D02*
G01*
X138484177Y-94837888D01*
X138519399Y-94890601D01*
X138598183Y-94943242D01*
X138602260Y-94945966D01*
X138602264Y-94945967D01*
X138675321Y-94960499D01*
X138675324Y-94960500D01*
X138675326Y-94960500D01*
X138924676Y-94960500D01*
X138924677Y-94960499D01*
X138997740Y-94945966D01*
X139080601Y-94890601D01*
X139087277Y-94880610D01*
X139093368Y-94875518D01*
X139096667Y-94868297D01*
X139119795Y-94853433D01*
X139140890Y-94835804D01*
X139150264Y-94833852D01*
X139155445Y-94830523D01*
X139190380Y-94825500D01*
X139355233Y-94825500D01*
X139422272Y-94845185D01*
X139442914Y-94861819D01*
X139638181Y-95057086D01*
X139671666Y-95118409D01*
X139674500Y-95144767D01*
X139674500Y-95395142D01*
X139674499Y-95395156D01*
X139674499Y-95494856D01*
X139686435Y-95523671D01*
X139696736Y-95548541D01*
X139698603Y-95553047D01*
X139706072Y-95622516D01*
X139674797Y-95684996D01*
X139614708Y-95720648D01*
X139584042Y-95724500D01*
X137594857Y-95724500D01*
X137594855Y-95724499D01*
X137505146Y-95724499D01*
X137456863Y-95744499D01*
X137442675Y-95750375D01*
X137442673Y-95750376D01*
X137422267Y-95758828D01*
X137422261Y-95758832D01*
X137267913Y-95913181D01*
X137206590Y-95946666D01*
X137180232Y-95949500D01*
X137035323Y-95949500D01*
X136962264Y-95964032D01*
X136950979Y-95968707D01*
X136949762Y-95965770D01*
X136901704Y-95980815D01*
X136834326Y-95962326D01*
X136787639Y-95910343D01*
X136775500Y-95856835D01*
X136775500Y-95824500D01*
X136795185Y-95757461D01*
X136847989Y-95711706D01*
X136899500Y-95700500D01*
X137039822Y-95700500D01*
X137083717Y-95691768D01*
X137083717Y-95691767D01*
X137083722Y-95691767D01*
X137133504Y-95658504D01*
X137166767Y-95608722D01*
X137170591Y-95589500D01*
X137175500Y-95564822D01*
X137175500Y-95064859D01*
X137195185Y-94997820D01*
X137247989Y-94952065D01*
X137317147Y-94942121D01*
X137323693Y-94943242D01*
X137360179Y-94950500D01*
X137360180Y-94950500D01*
X138139822Y-94950500D01*
X138183717Y-94941768D01*
X138183717Y-94941767D01*
X138183722Y-94941767D01*
X138233504Y-94908504D01*
X138266767Y-94858722D01*
X138266766Y-94858722D01*
X138273552Y-94848568D01*
X138274614Y-94849277D01*
X138310357Y-94804924D01*
X138376651Y-94782859D01*
X138444351Y-94800138D01*
G37*
%TD.AperFunction*%
%TD*%
M02*
