%TF.GenerationSoftware,KiCad,Pcbnew,9.0.0*%
%TF.CreationDate,2025-06-12T14:50:32+02:00*%
%TF.ProjectId,hardware v4 pro max,68617264-7761-4726-9520-76342070726f,rev?*%
%TF.SameCoordinates,Original*%
%TF.FileFunction,Paste,Top*%
%TF.FilePolarity,Positive*%
%FSLAX46Y46*%
G04 Gerber Fmt 4.6, Leading zero omitted, Abs format (unit mm)*
G04 Created by KiCad (PCBNEW 9.0.0) date 2025-06-12 14:50:32*
%MOMM*%
%LPD*%
G01*
G04 APERTURE LIST*
G04 Aperture macros list*
%AMRoundRect*
0 Rectangle with rounded corners*
0 $1 Rounding radius*
0 $2 $3 $4 $5 $6 $7 $8 $9 X,Y pos of 4 corners*
0 Add a 4 corners polygon primitive as box body*
4,1,4,$2,$3,$4,$5,$6,$7,$8,$9,$2,$3,0*
0 Add four circle primitives for the rounded corners*
1,1,$1+$1,$2,$3*
1,1,$1+$1,$4,$5*
1,1,$1+$1,$6,$7*
1,1,$1+$1,$8,$9*
0 Add four rect primitives between the rounded corners*
20,1,$1+$1,$2,$3,$4,$5,0*
20,1,$1+$1,$4,$5,$6,$7,0*
20,1,$1+$1,$6,$7,$8,$9,0*
20,1,$1+$1,$8,$9,$2,$3,0*%
%AMOutline5P*
0 Free polygon, 5 corners , with rotation*
0 The origin of the aperture is its center*
0 number of corners: always 5*
0 $1 to $10 corner X, Y*
0 $11 Rotation angle, in degrees counterclockwise*
0 create outline with 5 corners*
4,1,5,$1,$2,$3,$4,$5,$6,$7,$8,$9,$10,$1,$2,$11*%
%AMOutline6P*
0 Free polygon, 6 corners , with rotation*
0 The origin of the aperture is its center*
0 number of corners: always 6*
0 $1 to $12 corner X, Y*
0 $13 Rotation angle, in degrees counterclockwise*
0 create outline with 6 corners*
4,1,6,$1,$2,$3,$4,$5,$6,$7,$8,$9,$10,$11,$12,$1,$2,$13*%
%AMOutline7P*
0 Free polygon, 7 corners , with rotation*
0 The origin of the aperture is its center*
0 number of corners: always 7*
0 $1 to $14 corner X, Y*
0 $15 Rotation angle, in degrees counterclockwise*
0 create outline with 7 corners*
4,1,7,$1,$2,$3,$4,$5,$6,$7,$8,$9,$10,$11,$12,$13,$14,$1,$2,$15*%
%AMOutline8P*
0 Free polygon, 8 corners , with rotation*
0 The origin of the aperture is its center*
0 number of corners: always 8*
0 $1 to $16 corner X, Y*
0 $17 Rotation angle, in degrees counterclockwise*
0 create outline with 8 corners*
4,1,8,$1,$2,$3,$4,$5,$6,$7,$8,$9,$10,$11,$12,$13,$14,$15,$16,$1,$2,$17*%
G04 Aperture macros list end*
%ADD10RoundRect,0.079500X-0.079500X-0.100500X0.079500X-0.100500X0.079500X0.100500X-0.079500X0.100500X0*%
%ADD11RoundRect,0.079500X0.079500X0.100500X-0.079500X0.100500X-0.079500X-0.100500X0.079500X-0.100500X0*%
%ADD12RoundRect,0.140000X0.140000X0.170000X-0.140000X0.170000X-0.140000X-0.170000X0.140000X-0.170000X0*%
%ADD13R,0.300000X0.850000*%
%ADD14R,2.440000X0.690000*%
%ADD15RoundRect,0.079500X0.100500X-0.079500X0.100500X0.079500X-0.100500X0.079500X-0.100500X-0.079500X0*%
%ADD16RoundRect,0.079500X-0.100500X0.079500X-0.100500X-0.079500X0.100500X-0.079500X0.100500X0.079500X0*%
%ADD17RoundRect,0.140000X0.170000X-0.140000X0.170000X0.140000X-0.170000X0.140000X-0.170000X-0.140000X0*%
%ADD18R,0.250000X0.799999*%
%ADD19R,1.420000X0.610000*%
%ADD20Outline5P,-0.650000X0.750000X0.650000X0.750000X0.650000X-0.750000X0.000000X-0.750000X-0.650000X-0.100000X180.000000*%
%ADD21R,3.600000X1.100000*%
%ADD22R,2.200000X1.050000*%
%ADD23R,1.050000X1.000000*%
%ADD24R,0.550000X1.500000*%
%ADD25R,1.100000X0.400000*%
%ADD26RoundRect,0.140000X-0.140000X-0.170000X0.140000X-0.170000X0.140000X0.170000X-0.140000X0.170000X0*%
%ADD27R,1.050000X0.450000*%
%ADD28R,3.450000X4.350000*%
%ADD29RoundRect,0.147500X0.172500X-0.147500X0.172500X0.147500X-0.172500X0.147500X-0.172500X-0.147500X0*%
%ADD30RoundRect,0.147500X-0.147500X-0.172500X0.147500X-0.172500X0.147500X0.172500X-0.147500X0.172500X0*%
%ADD31R,2.500000X1.700000*%
%ADD32R,0.750000X0.550000*%
%ADD33RoundRect,0.150000X0.625000X-0.150000X0.625000X0.150000X-0.625000X0.150000X-0.625000X-0.150000X0*%
%ADD34RoundRect,0.250000X0.650000X-0.350000X0.650000X0.350000X-0.650000X0.350000X-0.650000X-0.350000X0*%
%ADD35R,0.800000X0.300000*%
%ADD36R,0.300000X0.800000*%
%ADD37R,3.750000X3.750000*%
G04 APERTURE END LIST*
D10*
%TO.C,R4*%
X148045000Y-108820000D03*
X148735000Y-108820000D03*
%TD*%
%TO.C,C11*%
X141255000Y-109350000D03*
X141945000Y-109350000D03*
%TD*%
D11*
%TO.C,R21*%
X137215000Y-96300000D03*
X136525000Y-96300000D03*
%TD*%
D10*
%TO.C,C21*%
X133805000Y-102200000D03*
X134495000Y-102200000D03*
%TD*%
D12*
%TO.C,C20*%
X134710000Y-98720000D03*
X133750000Y-98720000D03*
%TD*%
D13*
%TO.C,IC4*%
X133800000Y-106100000D03*
X133300000Y-106100000D03*
X132800000Y-106100000D03*
X132300000Y-106100000D03*
X131800000Y-106100000D03*
X131800000Y-108000000D03*
X132300000Y-108000000D03*
X132800000Y-108000000D03*
X133300000Y-108000000D03*
X133800000Y-108000000D03*
D14*
X132800000Y-107050000D03*
%TD*%
D15*
%TO.C,R17*%
X132900000Y-104345000D03*
X132900000Y-103655000D03*
%TD*%
D16*
%TO.C,C25*%
X136610000Y-99545000D03*
X136610000Y-100235000D03*
%TD*%
D10*
%TO.C,C22*%
X145205000Y-99650000D03*
X145895000Y-99650000D03*
%TD*%
D17*
%TO.C,C27*%
X132500000Y-97110000D03*
X132500000Y-96150000D03*
%TD*%
D18*
%TO.C,U2*%
X150250000Y-103599998D03*
X149750001Y-103599998D03*
X149250002Y-103599998D03*
X149250002Y-105500000D03*
X149750001Y-105500000D03*
X150250000Y-105500000D03*
D19*
X149750001Y-104549999D03*
%TD*%
D11*
%TO.C,R28*%
X144045000Y-102800000D03*
X143355000Y-102800000D03*
%TD*%
D12*
%TO.C,C3*%
X148850000Y-107900000D03*
X147890000Y-107900000D03*
%TD*%
D17*
%TO.C,C17*%
X131800000Y-102630000D03*
X131800000Y-101670000D03*
%TD*%
D15*
%TO.C,R6*%
X130500000Y-109665000D03*
X130500000Y-108975000D03*
%TD*%
D16*
%TO.C,R16*%
X146800000Y-95555000D03*
X146800000Y-96245000D03*
%TD*%
D20*
%TO.C,BT1*%
X126950000Y-103730000D03*
D21*
X128100000Y-99940000D03*
%TD*%
D10*
%TO.C,R32*%
X134955000Y-104900000D03*
X135645000Y-104900000D03*
%TD*%
D22*
%TO.C,J2*%
X129137500Y-98575000D03*
X129137500Y-95625000D03*
D23*
X130662500Y-97100000D03*
%TD*%
D17*
%TO.C,C28*%
X135350000Y-97120000D03*
X135350000Y-96160000D03*
%TD*%
D10*
%TO.C,C26*%
X134655000Y-100300000D03*
X135345000Y-100300000D03*
%TD*%
D11*
%TO.C,R12*%
X137595000Y-103300000D03*
X136905000Y-103300000D03*
%TD*%
D15*
%TO.C,R26*%
X139200000Y-104945000D03*
X139200000Y-104255000D03*
%TD*%
D16*
%TO.C,C8*%
X138800000Y-94555000D03*
X138800000Y-95245000D03*
%TD*%
%TO.C,C24*%
X133650000Y-103655000D03*
X133650000Y-104345000D03*
%TD*%
D10*
%TO.C,R31*%
X134955000Y-104200000D03*
X135645000Y-104200000D03*
%TD*%
D24*
%TO.C,SW4*%
X151500000Y-95925000D03*
X148250000Y-95925000D03*
%TD*%
D16*
%TO.C,R30*%
X133900000Y-109055000D03*
X133900000Y-109745000D03*
%TD*%
D25*
%TO.C,D6*%
X148600000Y-99650000D03*
X148600000Y-100300000D03*
X148600000Y-100950000D03*
X150600000Y-100950000D03*
X150600000Y-100300000D03*
X150600000Y-99650000D03*
%TD*%
D15*
%TO.C,R13*%
X147200000Y-105225000D03*
X147200000Y-104535000D03*
%TD*%
D10*
%TO.C,R11*%
X136885000Y-104050000D03*
X137575000Y-104050000D03*
%TD*%
D16*
%TO.C,R3*%
X151500000Y-104905000D03*
X151500000Y-105595000D03*
%TD*%
D26*
%TO.C,C5*%
X136850000Y-104900000D03*
X137810000Y-104900000D03*
%TD*%
D27*
%TO.C,IC2*%
X146050000Y-107905000D03*
X146050000Y-106635000D03*
X146050000Y-105365000D03*
X146050000Y-104095000D03*
X140350000Y-104095000D03*
X140350000Y-105365000D03*
X140350000Y-106635000D03*
X140350000Y-107905000D03*
D28*
X143200000Y-106000000D03*
%TD*%
D15*
%TO.C,R25*%
X135510000Y-99590000D03*
X135510000Y-98900000D03*
%TD*%
D29*
%TO.C,L1*%
X133800000Y-101385000D03*
X133800000Y-100415000D03*
%TD*%
D30*
%TO.C,D1*%
X150680000Y-102250000D03*
X151650000Y-102250000D03*
%TD*%
D15*
%TO.C,R29*%
X134600000Y-109745000D03*
X134600000Y-109055000D03*
%TD*%
%TO.C,C15*%
X141000000Y-95795000D03*
X141000000Y-95105000D03*
%TD*%
D13*
%TO.C,IC3*%
X135800000Y-109100000D03*
X136750000Y-109100000D03*
X137700000Y-109100000D03*
X137700000Y-106200000D03*
X136750000Y-106200000D03*
X135800000Y-106200000D03*
D31*
X136750000Y-107650000D03*
%TD*%
D32*
%TO.C,Y1*%
X136650000Y-95275000D03*
X137750000Y-95275000D03*
X137750000Y-94525000D03*
X136650000Y-94525000D03*
%TD*%
D16*
%TO.C,C2*%
X135600000Y-94555000D03*
X135600000Y-95245000D03*
%TD*%
%TO.C,C13*%
X132200000Y-103655000D03*
X132200000Y-104345000D03*
%TD*%
D12*
%TO.C,C23*%
X132780000Y-109500000D03*
X131820000Y-109500000D03*
%TD*%
D30*
%TO.C,L2*%
X133430000Y-97110000D03*
X134400000Y-97110000D03*
%TD*%
D15*
%TO.C,R5*%
X151900000Y-104195000D03*
X151900000Y-103505000D03*
%TD*%
D26*
%TO.C,C4*%
X139420000Y-109400000D03*
X140380000Y-109400000D03*
%TD*%
D33*
%TO.C,U3*%
X129575000Y-108000000D03*
X129575000Y-107000000D03*
D34*
X127050000Y-109300000D03*
X127050000Y-105700000D03*
%TD*%
D35*
%TO.C,IC1*%
X138700000Y-97550000D03*
X138700000Y-98050000D03*
X138700000Y-98550000D03*
X138700000Y-99050000D03*
X138700000Y-99550000D03*
X138700000Y-100050000D03*
X138700000Y-100550000D03*
X138700000Y-101050000D03*
D36*
X139450000Y-101800000D03*
X139950000Y-101800000D03*
X140450000Y-101800000D03*
X140950000Y-101800000D03*
X141450000Y-101800000D03*
X141950000Y-101800000D03*
X142450000Y-101800000D03*
X142950000Y-101800000D03*
D35*
X143700000Y-101050000D03*
X143700000Y-100550000D03*
X143700000Y-100050000D03*
X143700000Y-99550000D03*
X143700000Y-99050000D03*
X143700000Y-98550000D03*
X143700000Y-98050000D03*
X143700000Y-97550000D03*
D36*
X142950000Y-96800000D03*
X142450000Y-96800000D03*
X141950000Y-96800000D03*
X141450000Y-96800000D03*
X140950000Y-96800000D03*
X140450000Y-96800000D03*
X139950000Y-96800000D03*
X139450000Y-96800000D03*
D37*
X141200000Y-99300000D03*
%TD*%
D16*
%TO.C,R18*%
X131500000Y-103655000D03*
X131500000Y-104345000D03*
%TD*%
%TO.C,C18*%
X147500000Y-95555000D03*
X147500000Y-96245000D03*
%TD*%
D17*
%TO.C,C16*%
X141850000Y-95680000D03*
X141850000Y-94720000D03*
%TD*%
%TO.C,C12*%
X132750000Y-102630000D03*
X132750000Y-101670000D03*
%TD*%
M02*
