%TF.GenerationSoftware,KiCad,Pcbnew,9.0.0*%
%TF.CreationDate,2025-06-12T14:50:32+02:00*%
%TF.ProjectId,hardware v4 pro max,68617264-7761-4726-9520-76342070726f,rev?*%
%TF.SameCoordinates,Original*%
%TF.FileFunction,Copper,L6,Bot*%
%TF.FilePolarity,Positive*%
%FSLAX46Y46*%
G04 Gerber Fmt 4.6, Leading zero omitted, Abs format (unit mm)*
G04 Created by KiCad (PCBNEW 9.0.0) date 2025-06-12 14:50:32*
%MOMM*%
%LPD*%
G01*
G04 APERTURE LIST*
G04 Aperture macros list*
%AMRoundRect*
0 Rectangle with rounded corners*
0 $1 Rounding radius*
0 $2 $3 $4 $5 $6 $7 $8 $9 X,Y pos of 4 corners*
0 Add a 4 corners polygon primitive as box body*
4,1,4,$2,$3,$4,$5,$6,$7,$8,$9,$2,$3,0*
0 Add four circle primitives for the rounded corners*
1,1,$1+$1,$2,$3*
1,1,$1+$1,$4,$5*
1,1,$1+$1,$6,$7*
1,1,$1+$1,$8,$9*
0 Add four rect primitives between the rounded corners*
20,1,$1+$1,$2,$3,$4,$5,0*
20,1,$1+$1,$4,$5,$6,$7,0*
20,1,$1+$1,$6,$7,$8,$9,0*
20,1,$1+$1,$8,$9,$2,$3,0*%
G04 Aperture macros list end*
%TA.AperFunction,ComponentPad*%
%ADD10R,1.700000X1.700000*%
%TD*%
%TA.AperFunction,ComponentPad*%
%ADD11O,1.700000X1.700000*%
%TD*%
%TA.AperFunction,SMDPad,CuDef*%
%ADD12RoundRect,0.100000X0.130000X0.100000X-0.130000X0.100000X-0.130000X-0.100000X0.130000X-0.100000X0*%
%TD*%
%TA.AperFunction,SMDPad,CuDef*%
%ADD13R,0.325000X0.300000*%
%TD*%
%TA.AperFunction,SMDPad,CuDef*%
%ADD14R,0.300000X0.325000*%
%TD*%
%TA.AperFunction,SMDPad,CuDef*%
%ADD15RoundRect,0.100000X-0.130000X-0.100000X0.130000X-0.100000X0.130000X0.100000X-0.130000X0.100000X0*%
%TD*%
%TA.AperFunction,SMDPad,CuDef*%
%ADD16RoundRect,0.100000X-0.100000X0.130000X-0.100000X-0.130000X0.100000X-0.130000X0.100000X0.130000X0*%
%TD*%
%TA.AperFunction,SMDPad,CuDef*%
%ADD17RoundRect,0.100000X0.100000X-0.130000X0.100000X0.130000X-0.100000X0.130000X-0.100000X-0.130000X0*%
%TD*%
%TA.AperFunction,SMDPad,CuDef*%
%ADD18RoundRect,0.140000X0.170000X-0.140000X0.170000X0.140000X-0.170000X0.140000X-0.170000X-0.140000X0*%
%TD*%
%TA.AperFunction,SMDPad,CuDef*%
%ADD19R,0.750000X1.800000*%
%TD*%
%TA.AperFunction,SMDPad,CuDef*%
%ADD20R,0.600000X1.800000*%
%TD*%
%TA.AperFunction,SMDPad,CuDef*%
%ADD21R,1.300000X0.900000*%
%TD*%
%TA.AperFunction,SMDPad,CuDef*%
%ADD22R,1.150000X0.300000*%
%TD*%
%TA.AperFunction,SMDPad,CuDef*%
%ADD23R,2.000000X2.180000*%
%TD*%
%TA.AperFunction,SMDPad,CuDef*%
%ADD24RoundRect,0.150000X0.150000X0.700000X-0.150000X0.700000X-0.150000X-0.700000X0.150000X-0.700000X0*%
%TD*%
%TA.AperFunction,SMDPad,CuDef*%
%ADD25RoundRect,0.250000X0.250000X1.100000X-0.250000X1.100000X-0.250000X-1.100000X0.250000X-1.100000X0*%
%TD*%
%TA.AperFunction,SMDPad,CuDef*%
%ADD26R,1.200000X0.800000*%
%TD*%
%TA.AperFunction,SMDPad,CuDef*%
%ADD27R,0.900000X0.900000*%
%TD*%
%TA.AperFunction,ViaPad*%
%ADD28C,0.400000*%
%TD*%
%TA.AperFunction,Conductor*%
%ADD29C,0.300000*%
%TD*%
%TA.AperFunction,Conductor*%
%ADD30C,0.200000*%
%TD*%
%TA.AperFunction,Conductor*%
%ADD31C,0.150000*%
%TD*%
%TA.AperFunction,Conductor*%
%ADD32C,0.332000*%
%TD*%
G04 APERTURE END LIST*
D10*
%TO.P,J3,1,Pin_1*%
%TO.N,GND*%
X148570000Y-92965000D03*
D11*
%TO.P,J3,2,Pin_2*%
%TO.N,+3.3V*%
X146030000Y-92965000D03*
%TO.P,J3,3,Pin_3*%
%TO.N,OLED_SCL*%
X143490000Y-92965000D03*
%TO.P,J3,4,Pin_4*%
%TO.N,OLED_SDA*%
X140950000Y-92965000D03*
%TD*%
D12*
%TO.P,C14,1*%
%TO.N,Net-(U5-VDD)*%
X137860000Y-100020000D03*
%TO.P,C14,2*%
%TO.N,GND*%
X137220000Y-100020000D03*
%TD*%
D13*
%TO.P,U5,1,VDDIO*%
%TO.N,Net-(U5-VDD)*%
X139540000Y-99000000D03*
%TO.P,U5,2,SCK*%
%TO.N,OLED_SCL*%
X139540000Y-98500000D03*
D14*
%TO.P,U5,3,VSS_1*%
%TO.N,GND*%
X139790000Y-97975000D03*
%TO.P,U5,4,SDI*%
%TO.N,OLED_SDA*%
X140290000Y-97975000D03*
%TO.P,U5,5,SDO*%
%TO.N,Net-(U5-SDO)*%
X140790000Y-97975000D03*
D13*
%TO.P,U5,6,CSB*%
%TO.N,Net-(U5-CSB)*%
X141040000Y-98500000D03*
%TO.P,U5,7,INT*%
%TO.N,unconnected-(U5-INT-Pad7)*%
X141040000Y-99000000D03*
D14*
%TO.P,U5,8,VSS_2*%
%TO.N,GND*%
X140790000Y-99525000D03*
%TO.P,U5,9,VSS_3*%
X140290000Y-99525000D03*
%TO.P,U5,10,VDD*%
%TO.N,Net-(U5-VDD)*%
X139790000Y-99525000D03*
%TD*%
D12*
%TO.P,C29,1*%
%TO.N,+3.3V*%
X128080000Y-106350000D03*
%TO.P,C29,2*%
%TO.N,GND*%
X127440000Y-106350000D03*
%TD*%
D15*
%TO.P,R8,1*%
%TO.N,+3.3V*%
X135535000Y-95100000D03*
%TO.P,R8,2*%
%TO.N,Net-(S2-NO)*%
X136175000Y-95100000D03*
%TD*%
D16*
%TO.P,R20,1*%
%TO.N,+3.3V*%
X141250000Y-95480000D03*
%TO.P,R20,2*%
%TO.N,OLED_SCL*%
X141250000Y-96120000D03*
%TD*%
D17*
%TO.P,R19,1*%
%TO.N,+3.3V*%
X137900000Y-101470000D03*
%TO.P,R19,2*%
%TO.N,Net-(U5-VDD)*%
X137900000Y-100830000D03*
%TD*%
%TO.P,C30,1*%
%TO.N,+3.3V*%
X139100000Y-96320000D03*
%TO.P,C30,2*%
%TO.N,GND*%
X139100000Y-95680000D03*
%TD*%
D18*
%TO.P,C10,1*%
%TO.N,+3.3V*%
X126550000Y-94930000D03*
%TO.P,C10,2*%
%TO.N,GND*%
X126550000Y-93970000D03*
%TD*%
D15*
%TO.P,R9,1*%
%TO.N,Net-(S2-NO)*%
X136975000Y-95100000D03*
%TO.P,R9,2*%
%TO.N,B2*%
X137615000Y-95100000D03*
%TD*%
D19*
%TO.P,S1,1,COM_1*%
%TO.N,GND*%
X128810000Y-93570000D03*
D20*
%TO.P,S1,2,NO*%
%TO.N,Net-(S1-NO)*%
X130035000Y-93570000D03*
D19*
%TO.P,S1,3,COM_2*%
%TO.N,GND*%
X131260000Y-93570000D03*
D21*
%TO.P,S1,MP1,MP1*%
X128185000Y-91620000D03*
%TO.P,S1,MP2,MP2*%
X131885000Y-91620000D03*
%TD*%
D15*
%TO.P,R10,1*%
%TO.N,Net-(S1-NO)*%
X130380000Y-95050000D03*
%TO.P,R10,2*%
%TO.N,B1*%
X131020000Y-95050000D03*
%TD*%
D17*
%TO.P,C6,1*%
%TO.N,B2*%
X138800000Y-94720000D03*
%TO.P,C6,2*%
%TO.N,GND*%
X138800000Y-94080000D03*
%TD*%
D15*
%TO.P,R7,1*%
%TO.N,+3.3V*%
X128930000Y-95050000D03*
%TO.P,R7,2*%
%TO.N,Net-(S1-NO)*%
X129570000Y-95050000D03*
%TD*%
D17*
%TO.P,R23,1*%
%TO.N,OLED_SDA*%
X141950000Y-96120000D03*
%TO.P,R23,2*%
%TO.N,+3.3V*%
X141950000Y-95480000D03*
%TD*%
D22*
%TO.P,J4,A1,GND*%
%TO.N,GND*%
X146492000Y-97320000D03*
%TO.P,J4,A4,VBUS*%
%TO.N,vusb*%
X146492000Y-98120000D03*
%TO.P,J4,A5,CC1*%
%TO.N,Net-(J4-CC1)*%
X146492000Y-99420000D03*
%TO.P,J4,A6,D+*%
%TO.N,D+*%
X146492000Y-100420000D03*
%TO.P,J4,A7,D-*%
%TO.N,D-*%
X146492000Y-100920000D03*
%TO.P,J4,A8*%
%TO.N,N/C*%
X146492000Y-101920000D03*
%TO.P,J4,A9,VBUS*%
%TO.N,vusb*%
X146492000Y-103220000D03*
%TO.P,J4,A12,GND*%
%TO.N,GND*%
X146492000Y-104020000D03*
%TO.P,J4,B1,GND*%
X146492000Y-103720000D03*
%TO.P,J4,B4,VBUS*%
%TO.N,vusb*%
X146492000Y-102920000D03*
%TO.P,J4,B5,CC2*%
%TO.N,Net-(J4-CC2)*%
X146492000Y-102420000D03*
%TO.P,J4,B6,D+*%
%TO.N,D+*%
X146492000Y-101420000D03*
%TO.P,J4,B7,D-*%
%TO.N,D-*%
X146492000Y-99920000D03*
%TO.P,J4,B8*%
%TO.N,N/C*%
X146492000Y-98920000D03*
%TO.P,J4,B9,VBUS*%
%TO.N,vusb*%
X146492000Y-98420000D03*
%TO.P,J4,B12,GND*%
%TO.N,GND*%
X146492000Y-97620000D03*
D23*
%TO.P,J4,MP1,MP1*%
X150997000Y-95560000D03*
%TO.P,J4,MP2,MP2*%
X150997000Y-105780000D03*
%TO.P,J4,MP3,MP3*%
X147067000Y-95560000D03*
%TO.P,J4,MP4,MP4*%
X147067000Y-105780000D03*
%TD*%
D16*
%TO.P,R15,1*%
%TO.N,Net-(J4-CC2)*%
X145320000Y-102860000D03*
%TO.P,R15,2*%
%TO.N,GND*%
X145320000Y-103500000D03*
%TD*%
D12*
%TO.P,C19,1*%
%TO.N,Net-(U5-VDD)*%
X137870000Y-99310000D03*
%TO.P,C19,2*%
%TO.N,GND*%
X137230000Y-99310000D03*
%TD*%
D15*
%TO.P,R22,1*%
%TO.N,Net-(U5-SDO)*%
X144130000Y-96200000D03*
%TO.P,R22,2*%
%TO.N,+3.3V*%
X144770000Y-96200000D03*
%TD*%
D17*
%TO.P,R14,1*%
%TO.N,Net-(J4-CC1)*%
X145300000Y-98770000D03*
%TO.P,R14,2*%
%TO.N,GND*%
X145300000Y-98130000D03*
%TD*%
D24*
%TO.P,U1,1,1*%
%TO.N,GND*%
X143240000Y-105290000D03*
%TO.P,U1,2,2*%
%TO.N,GPIO_SUP_1*%
X141990000Y-105290000D03*
%TO.P,U1,3,3*%
%TO.N,GPIO_SUP_2*%
X140740000Y-105290000D03*
%TO.P,U1,4,4*%
%TO.N,+3.3V*%
X139490000Y-105290000D03*
D25*
%TO.P,U1,MP,MP*%
%TO.N,GND*%
X145090000Y-108490000D03*
X137640000Y-108490000D03*
%TD*%
D12*
%TO.P,R24,1*%
%TO.N,+3.3V*%
X144770000Y-96900000D03*
%TO.P,R24,2*%
%TO.N,Net-(U5-CSB)*%
X144130000Y-96900000D03*
%TD*%
D19*
%TO.P,S2,1,COM_1*%
%TO.N,GND*%
X135365000Y-93585000D03*
D20*
%TO.P,S2,2,NO*%
%TO.N,Net-(S2-NO)*%
X136590000Y-93585000D03*
D19*
%TO.P,S2,3,COM_2*%
%TO.N,GND*%
X137815000Y-93585000D03*
D21*
%TO.P,S2,MP1,MP1*%
X134740000Y-91635000D03*
%TO.P,S2,MP2,MP2*%
X138440000Y-91635000D03*
%TD*%
D17*
%TO.P,C7,1*%
%TO.N,B1*%
X132500000Y-94820000D03*
%TO.P,C7,2*%
%TO.N,GND*%
X132500000Y-94180000D03*
%TD*%
D26*
%TO.P,PA1010D1,1,I2C_SDA*%
%TO.N,unconnected-(PA1010D1-I2C_SDA-Pad1)*%
X136380000Y-96780000D03*
%TO.P,PA1010D1,2,I2C_SCL*%
%TO.N,unconnected-(PA1010D1-I2C_SCL-Pad2)*%
X136380000Y-98380000D03*
%TO.P,PA1010D1,3,1PPS*%
%TO.N,unconnected-(PA1010D1-1PPS-Pad3)*%
X136380000Y-101280000D03*
%TO.P,PA1010D1,4,TX*%
%TO.N,Net-(PA1010D1-TX)*%
X136380000Y-102880000D03*
%TO.P,PA1010D1,5,RX*%
%TO.N,Net-(PA1010D1-RX)*%
X136380000Y-104480000D03*
%TO.P,PA1010D1,6,NRESET*%
%TO.N,unconnected-(PA1010D1-NRESET-Pad6)*%
X126680000Y-104480000D03*
%TO.P,PA1010D1,7,GND*%
%TO.N,GND*%
X126680000Y-102880000D03*
%TO.P,PA1010D1,8,WAKE_UP*%
%TO.N,unconnected-(PA1010D1-WAKE_UP-Pad8)*%
X126680000Y-101280000D03*
%TO.P,PA1010D1,9,VBACKUP*%
%TO.N,Net-(BT1-+)*%
X126680000Y-98380000D03*
%TO.P,PA1010D1,10,VCC*%
%TO.N,+3.3V*%
X126680000Y-96780000D03*
%TD*%
D27*
%TO.P,LED1,1,DOUT*%
%TO.N,unconnected-(LED1-DOUT-Pad1)*%
X128340000Y-109270000D03*
%TO.P,LED1,2,VDD*%
%TO.N,+3.3V*%
X128340000Y-107570000D03*
%TO.P,LED1,3,DIN*%
%TO.N,LED_PWM*%
X126640000Y-107570000D03*
%TO.P,LED1,4,GND*%
%TO.N,GND*%
X126640000Y-109270000D03*
%TD*%
D19*
%TO.P,S3,1,COM_1*%
%TO.N,GND*%
X133965000Y-107435000D03*
D20*
%TO.P,S3,2,NO*%
%TO.N,Net-(IC4-~{PB})*%
X132740000Y-107435000D03*
D19*
%TO.P,S3,3,COM_2*%
%TO.N,GND*%
X131515000Y-107435000D03*
D21*
%TO.P,S3,MP1,MP1*%
X134590000Y-109385000D03*
%TO.P,S3,MP2,MP2*%
X130890000Y-109385000D03*
%TD*%
D28*
%TO.N,Net-(BT1-+)*%
X126950000Y-103730000D03*
%TO.N,GND*%
X135400000Y-98100000D03*
X131310840Y-101330404D03*
X138430000Y-107710000D03*
X137800000Y-93200000D03*
X146150000Y-96180000D03*
X130060000Y-91880000D03*
X130550000Y-95950000D03*
X128800000Y-93300000D03*
X141830000Y-107780000D03*
X129950000Y-98550000D03*
X143900000Y-104190000D03*
X129950000Y-95700000D03*
X129150000Y-95700000D03*
X136200000Y-109700000D03*
X134400000Y-105600000D03*
X137300000Y-97020000D03*
X147060000Y-94160000D03*
X128350000Y-97950000D03*
X131100000Y-109700000D03*
X135300000Y-105700000D03*
X126420000Y-105370000D03*
X138200000Y-95450000D03*
X126900000Y-102200000D03*
X139350000Y-95300000D03*
X145070000Y-107210000D03*
X127670000Y-93820000D03*
X136680000Y-107530000D03*
X151580000Y-97700000D03*
X131300000Y-93300000D03*
X133950000Y-96050000D03*
X131850000Y-96050000D03*
X130600000Y-106100000D03*
X145380000Y-97520000D03*
X138100000Y-104400000D03*
X134000000Y-98100000D03*
X142900000Y-94250000D03*
X146290000Y-96930000D03*
X133300000Y-98100000D03*
X141680000Y-99810000D03*
X131200000Y-98100000D03*
X130550000Y-98300000D03*
X135810000Y-107500000D03*
X131940404Y-101279160D03*
X148720000Y-106660000D03*
X130600000Y-99340000D03*
X136150000Y-97630000D03*
X127520000Y-108410000D03*
X135200000Y-109700000D03*
X144490000Y-106720000D03*
X132320000Y-99200000D03*
X126360000Y-93240000D03*
X128350000Y-96300000D03*
X132460000Y-100920000D03*
X141290000Y-94240000D03*
X142740000Y-108990000D03*
X148640000Y-91490000D03*
X142720000Y-97690000D03*
X129580000Y-109500000D03*
X127450000Y-108990000D03*
X133150000Y-96050000D03*
X131900000Y-107000000D03*
X144680000Y-91590000D03*
X131119596Y-98980840D03*
X128350000Y-97150000D03*
X148330000Y-97680000D03*
X140630000Y-100860000D03*
X128680000Y-103360000D03*
X129150000Y-98550000D03*
X129500000Y-106400000D03*
X136990000Y-102010000D03*
X126300000Y-102200000D03*
X143710000Y-95520000D03*
X142750000Y-95350000D03*
X139510000Y-97630000D03*
X141680000Y-100860000D03*
X151050000Y-103950000D03*
X126360000Y-91560000D03*
X133820000Y-95330000D03*
X143300000Y-105300000D03*
X145080000Y-107770000D03*
X139580000Y-100860000D03*
X129200000Y-107000000D03*
X136590000Y-91750000D03*
X151050000Y-103150000D03*
X136000000Y-100210000D03*
X140420000Y-108740000D03*
X131300000Y-94000000D03*
X130329596Y-99910840D03*
X130000000Y-107000000D03*
X131900000Y-98100000D03*
X128350000Y-95700000D03*
X133230000Y-91600000D03*
X151930000Y-107340000D03*
X140420000Y-91540000D03*
X144730000Y-94040000D03*
X147260000Y-91500000D03*
X150400000Y-104550000D03*
X132300000Y-101950000D03*
X130610000Y-104330000D03*
X146100000Y-104100000D03*
X137490000Y-98030000D03*
X137980000Y-97020000D03*
X135370000Y-100720000D03*
X139690000Y-93490000D03*
X126490000Y-106010000D03*
X135950000Y-96050000D03*
X130380840Y-100540404D03*
X142600000Y-106230000D03*
X139520000Y-91550000D03*
X135400000Y-93200000D03*
X137600000Y-107520000D03*
X132500000Y-95500000D03*
X128350000Y-98550000D03*
X145870000Y-107290000D03*
X134700000Y-98100000D03*
X151760000Y-91550000D03*
X144460000Y-107790000D03*
X131150000Y-96050000D03*
X135840000Y-103590000D03*
X133700000Y-107000000D03*
X151960000Y-109660000D03*
X127670000Y-105340000D03*
X138100000Y-105200000D03*
X128800000Y-94000000D03*
X134950000Y-102000000D03*
X132600000Y-98100000D03*
X133970000Y-103730000D03*
X127430000Y-109590000D03*
X142730000Y-98760000D03*
X149460000Y-109500000D03*
X141680000Y-98760000D03*
X147440000Y-97030000D03*
X149780000Y-107600000D03*
X132679160Y-99719596D03*
X142730000Y-99810000D03*
X131749160Y-98929596D03*
X149150000Y-104550000D03*
X134700000Y-96050000D03*
X145340000Y-100170000D03*
X148780000Y-102170000D03*
X142730000Y-100860000D03*
X141800000Y-97680000D03*
X130740000Y-101060000D03*
X132730404Y-100349160D03*
X134070000Y-102820000D03*
X127120000Y-105730000D03*
X137020000Y-100090000D03*
%TO.N,+3.3V*%
X137090000Y-105890000D03*
X136580000Y-105940000D03*
X135790000Y-99550000D03*
X144950000Y-99650000D03*
X144650000Y-95630000D03*
X137900000Y-102050000D03*
X128580000Y-105330000D03*
X134350000Y-101400000D03*
X140800000Y-95700000D03*
X138600000Y-96550000D03*
X132250000Y-102600000D03*
X126550000Y-95800000D03*
X136310000Y-99560000D03*
X133300000Y-102450000D03*
X134380000Y-94710000D03*
X141600000Y-95650000D03*
X144600000Y-103200000D03*
X137015000Y-106400000D03*
X127150000Y-95800000D03*
X137595000Y-105825000D03*
%TO.N,vusb*%
X132300000Y-108900000D03*
X133300000Y-109100000D03*
X151600000Y-100300000D03*
X130700000Y-107500000D03*
X149300000Y-106100000D03*
X149300000Y-106800000D03*
%TO.N,B2*%
X143210000Y-95940000D03*
%TO.N,B1*%
X133080000Y-94810000D03*
X142660000Y-95960000D03*
%TO.N,FSPIWP*%
X140400000Y-102600000D03*
X145400000Y-104700000D03*
%TO.N,OLED_SCL*%
X141450000Y-96350000D03*
%TO.N,OLED_SDA*%
X141950000Y-96350000D03*
%TO.N,FSPICS2*%
X144570000Y-98100000D03*
X146100000Y-107900000D03*
%TO.N,Net-(PA1010D1-RX)*%
X136350000Y-104100000D03*
%TO.N,Net-(PA1010D1-TX)*%
X136350000Y-103300000D03*
%TO.N,GPSRX*%
X138150000Y-103800000D03*
X144500000Y-99150000D03*
%TO.N,GPSTX*%
X138250000Y-103150000D03*
X144560000Y-98640000D03*
%TO.N,BAT+*%
X148800000Y-103200000D03*
X138570413Y-109190391D03*
X129900000Y-108000000D03*
X138550000Y-109690000D03*
X129200000Y-108000000D03*
X138570000Y-108710000D03*
X148800000Y-103800000D03*
%TO.N,D+*%
X146500000Y-100400000D03*
X150650000Y-101000000D03*
%TO.N,D-*%
X150650000Y-99650000D03*
X146500000Y-100900000D03*
%TO.N,FSPIQ*%
X145400000Y-106100000D03*
X138800000Y-101800000D03*
%TO.N,LED_PWM*%
X144630000Y-97510000D03*
X126610000Y-107540000D03*
%TO.N,EN*%
X136800000Y-109100000D03*
X132800000Y-105300000D03*
%TO.N,Net-(IC1-VDDA3P3_1)*%
X134580000Y-99590000D03*
X134260000Y-99980000D03*
X138010000Y-98520000D03*
X137510000Y-98560000D03*
%TO.N,KILL*%
X135250000Y-103750000D03*
X133300000Y-108600000D03*
%TO.N,Net-(IC4-~{PB})*%
X131440000Y-105570000D03*
%TO.N,GPIO_SUP_1*%
X144890000Y-100540000D03*
%TO.N,GPIO_SUP_2*%
X144500000Y-100150000D03*
%TD*%
D29*
%TO.N,Net-(BT1-+)*%
X127530000Y-103490000D02*
X127530000Y-100420000D01*
X127070000Y-99960000D02*
X127070000Y-98770000D01*
X127530000Y-100420000D02*
X127070000Y-99960000D01*
X127290000Y-103730000D02*
X127530000Y-103490000D01*
X127070000Y-98770000D02*
X126680000Y-98380000D01*
X126950000Y-103730000D02*
X127290000Y-103730000D01*
D30*
%TO.N,GND*%
X140290000Y-100370000D02*
X140600000Y-100680000D01*
D29*
X139790000Y-97975000D02*
X139790000Y-97910000D01*
D30*
X140800000Y-99535000D02*
X140800000Y-100480000D01*
D29*
X139790000Y-97910000D02*
X139510000Y-97630000D01*
D30*
X140790000Y-99525000D02*
X140800000Y-99535000D01*
D31*
X151450000Y-94750000D02*
X151020000Y-95180000D01*
D30*
X140800000Y-100480000D02*
X140600000Y-100680000D01*
X140290000Y-99525000D02*
X140290000Y-100370000D01*
X140600000Y-101650000D02*
X140600000Y-100680000D01*
D31*
X151710000Y-94750000D02*
X151450000Y-94750000D01*
D30*
%TO.N,+3.3V*%
X128930000Y-95050000D02*
X127350000Y-95050000D01*
X138830000Y-96320000D02*
X138600000Y-96550000D01*
D29*
X144770000Y-96900000D02*
X144770000Y-95760000D01*
D30*
X127150000Y-95250000D02*
X127150000Y-95800000D01*
X127350000Y-95050000D02*
X127150000Y-95250000D01*
D29*
X144770000Y-95760000D02*
X144630000Y-95620000D01*
D30*
X139100000Y-96320000D02*
X138830000Y-96320000D01*
X135100000Y-95100000D02*
X135535000Y-95100000D01*
X134710000Y-94710000D02*
X135100000Y-95100000D01*
D29*
X128340000Y-107570000D02*
X128340000Y-107070000D01*
D30*
X134380000Y-94710000D02*
X134710000Y-94710000D01*
D29*
X128340000Y-107070000D02*
X128070000Y-106800000D01*
X128070000Y-106800000D02*
X128070000Y-105830000D01*
X137900000Y-101470000D02*
X137900000Y-102050000D01*
X128070000Y-105830000D02*
X128580000Y-105320000D01*
D32*
%TO.N,vusb*%
X146492000Y-103220000D02*
X146880000Y-103220000D01*
X148500000Y-101600000D02*
X150000000Y-101600000D01*
X151600000Y-101000000D02*
X151600000Y-100300000D01*
X146880000Y-103220000D02*
X147300000Y-102800000D01*
X151600000Y-99500000D02*
X151600000Y-100300000D01*
X151000000Y-101600000D02*
X151500000Y-101100000D01*
X151500000Y-101100000D02*
X151600000Y-101000000D01*
X150000000Y-101600000D02*
X151000000Y-101600000D01*
X147420000Y-98420000D02*
X147900000Y-98900000D01*
X147300000Y-102800000D02*
X148500000Y-101600000D01*
X146492000Y-98420000D02*
X147420000Y-98420000D01*
X147900000Y-98900000D02*
X151000000Y-98900000D01*
X151000000Y-98900000D02*
X151600000Y-99500000D01*
D31*
%TO.N,B2*%
X142690000Y-94720000D02*
X143220000Y-95250000D01*
X143220000Y-95250000D02*
X143220000Y-95920000D01*
X138800000Y-94720000D02*
X142690000Y-94720000D01*
X137615000Y-95100000D02*
X137965000Y-94750000D01*
X137965000Y-94750000D02*
X138800000Y-94750000D01*
%TO.N,B1*%
X131010000Y-95090000D02*
X131000000Y-95100000D01*
X132290000Y-95010000D02*
X132500000Y-94800000D01*
X133070000Y-94820000D02*
X133080000Y-94810000D01*
X132500000Y-94820000D02*
X133070000Y-94820000D01*
X133080000Y-94810000D02*
X133100000Y-94790000D01*
X131090000Y-95010000D02*
X132290000Y-95010000D01*
X131110000Y-95090000D02*
X131010000Y-95090000D01*
X131030000Y-95070000D02*
X131090000Y-95010000D01*
%TO.N,OLED_SCL*%
X139680000Y-96650000D02*
X139050000Y-97280000D01*
X141110000Y-96650000D02*
X139680000Y-96650000D01*
X141445000Y-96315000D02*
X141110000Y-96650000D01*
X139050000Y-98300000D02*
X139250000Y-98500000D01*
X139050000Y-97280000D02*
X139050000Y-98300000D01*
X141250000Y-96120000D02*
X141445000Y-96315000D01*
X139250000Y-98500000D02*
X139550000Y-98500000D01*
%TO.N,OLED_SDA*%
X140850000Y-97050000D02*
X140300000Y-97600000D01*
X141550000Y-97050000D02*
X140850000Y-97050000D01*
X141950000Y-96650000D02*
X141550000Y-97050000D01*
X140300000Y-97600000D02*
X140300000Y-97950000D01*
X141950000Y-96120000D02*
X141950000Y-96650000D01*
%TO.N,Net-(J4-CC2)*%
X145740000Y-102400000D02*
X146500000Y-102400000D01*
X145300000Y-102840000D02*
X145740000Y-102400000D01*
%TO.N,Net-(J4-CC1)*%
X145550000Y-99400000D02*
X145300000Y-99150000D01*
X146500000Y-99400000D02*
X145550000Y-99400000D01*
X145300000Y-99150000D02*
X145300000Y-98800000D01*
%TO.N,Net-(PA1010D1-RX)*%
X136350000Y-104100000D02*
X136350000Y-104450000D01*
X136350000Y-104450000D02*
X136380000Y-104480000D01*
%TO.N,Net-(PA1010D1-TX)*%
X136350000Y-103300000D02*
X136350000Y-102910000D01*
X136350000Y-102910000D02*
X136380000Y-102880000D01*
%TO.N,D+*%
X147094999Y-100450000D02*
X147064999Y-100420000D01*
X147220000Y-101420000D02*
X147250000Y-101390000D01*
X147100000Y-100450000D02*
X147094999Y-100450000D01*
X150200000Y-100600000D02*
X150650000Y-101050000D01*
X146490000Y-101420000D02*
X147220000Y-101420000D01*
X147064999Y-100420000D02*
X146490000Y-100420000D01*
X147250000Y-101390000D02*
X147250000Y-100600000D01*
X147250000Y-100600000D02*
X150200000Y-100600000D01*
X147250000Y-100600000D02*
X147100000Y-100450000D01*
%TO.N,D-*%
X146490000Y-99920000D02*
X145915001Y-99920000D01*
X145915001Y-99920000D02*
X145740000Y-100095001D01*
D30*
X150650000Y-99650000D02*
X150550000Y-99650000D01*
X146492000Y-99920000D02*
X150380000Y-99920000D01*
D31*
X145810000Y-100920000D02*
X146490000Y-100920000D01*
D30*
X150380000Y-99920000D02*
X150650000Y-99650000D01*
D31*
X145740000Y-100850000D02*
X145810000Y-100920000D01*
X145740000Y-100095001D02*
X145740000Y-100850000D01*
D29*
%TO.N,Net-(U5-VDD)*%
X139790000Y-99525000D02*
X139790000Y-99620000D01*
X138250000Y-98930000D02*
X137900000Y-99280000D01*
X139540000Y-99000000D02*
X139470000Y-98930000D01*
X138600000Y-100800000D02*
X137850000Y-100800000D01*
X137850000Y-100800000D02*
X137850000Y-99400000D01*
X139790000Y-99620000D02*
X139060000Y-100350000D01*
X139060000Y-100350000D02*
X139050000Y-100350000D01*
X139050000Y-100350000D02*
X138600000Y-100800000D01*
X139470000Y-98930000D02*
X138250000Y-98930000D01*
D31*
%TO.N,Net-(U5-SDO)*%
X140790000Y-97975000D02*
X140800000Y-97965000D01*
X143550000Y-96200000D02*
X144150000Y-96200000D01*
X141350000Y-97300000D02*
X142450000Y-97300000D01*
X140790000Y-97975000D02*
X140790000Y-97860000D01*
X140790000Y-97860000D02*
X141350000Y-97300000D01*
X142450000Y-97300000D02*
X143550000Y-96200000D01*
%TO.N,Net-(U5-CSB)*%
X142900000Y-98120000D02*
X143140000Y-97880000D01*
X143600000Y-96900000D02*
X144150000Y-96900000D01*
X143140000Y-97350000D02*
X143590000Y-96900000D01*
X141200000Y-98500000D02*
X141580000Y-98120000D01*
X141580000Y-98120000D02*
X142900000Y-98120000D01*
X141040000Y-98500000D02*
X141200000Y-98500000D01*
X143140000Y-97880000D02*
X143140000Y-97350000D01*
%TO.N,Net-(S1-NO)*%
X130035000Y-95035000D02*
X130090000Y-95090000D01*
X129475000Y-95100000D02*
X130300000Y-95100000D01*
X130035000Y-93570000D02*
X130035000Y-95035000D01*
%TO.N,Net-(S2-NO)*%
X136590000Y-93585000D02*
X136590000Y-93075000D01*
X136590000Y-94080000D02*
X136590000Y-93585000D01*
%TO.N,unconnected-(U5-INT-Pad7)*%
X141040000Y-99000000D02*
X141040000Y-99020000D01*
%TO.N,Net-(IC4-~{PB})*%
X132600000Y-106985000D02*
X132740000Y-107125000D01*
X132740000Y-107125000D02*
X132740000Y-107435000D01*
X131520000Y-105580000D02*
X132600000Y-106660000D01*
X131430000Y-105580000D02*
X131520000Y-105580000D01*
X132600000Y-106660000D02*
X132600000Y-106985000D01*
X131440000Y-105570000D02*
X131430000Y-105560000D01*
X131430000Y-105560000D02*
X131430000Y-105580000D01*
%TO.N,GPIO_SUP_1*%
X141990000Y-103600000D02*
X144870000Y-100720000D01*
X141990000Y-105290000D02*
X141990000Y-103600000D01*
X144870000Y-100720000D02*
X144870000Y-100570000D01*
%TO.N,GPIO_SUP_2*%
X144480000Y-100360000D02*
X144480000Y-100150000D01*
X140740000Y-104100000D02*
X144480000Y-100360000D01*
X140740000Y-105290000D02*
X140740000Y-104100000D01*
%TD*%
%TA.AperFunction,Conductor*%
%TO.N,GND*%
G36*
X142833835Y-97337585D02*
G01*
X142889768Y-97379457D01*
X142914184Y-97444921D01*
X142914500Y-97453766D01*
X142914500Y-97735233D01*
X142894815Y-97802272D01*
X142878181Y-97822914D01*
X142842914Y-97858181D01*
X142781591Y-97891666D01*
X142755233Y-97894500D01*
X141884000Y-97894500D01*
X141875314Y-97891949D01*
X141866353Y-97893238D01*
X141842312Y-97882259D01*
X141816961Y-97874815D01*
X141811033Y-97867974D01*
X141802797Y-97864213D01*
X141788507Y-97841978D01*
X141771206Y-97822011D01*
X141768918Y-97811496D01*
X141765023Y-97805435D01*
X141760000Y-97770500D01*
X141760000Y-97649500D01*
X141779685Y-97582461D01*
X141832489Y-97536706D01*
X141884000Y-97525500D01*
X142390703Y-97525500D01*
X142390711Y-97525501D01*
X142405145Y-97525501D01*
X142494853Y-97525501D01*
X142494855Y-97525501D01*
X142553460Y-97501225D01*
X142577736Y-97491170D01*
X142641170Y-97427736D01*
X142641170Y-97427734D01*
X142702820Y-97366083D01*
X142764143Y-97332599D01*
X142833835Y-97337585D01*
G37*
%TD.AperFunction*%
%TA.AperFunction,Conductor*%
G36*
X142612272Y-94965185D02*
G01*
X142632914Y-94981819D01*
X142958181Y-95307086D01*
X142972884Y-95334013D01*
X142989477Y-95359832D01*
X142990368Y-95366032D01*
X142991666Y-95368409D01*
X142994500Y-95394767D01*
X142994500Y-95533626D01*
X142974815Y-95600665D01*
X142922011Y-95646420D01*
X142852853Y-95656364D01*
X142808501Y-95641014D01*
X142795290Y-95633386D01*
X142728536Y-95615500D01*
X142706144Y-95609500D01*
X142613856Y-95609500D01*
X142524712Y-95633386D01*
X142524711Y-95633386D01*
X142516861Y-95635490D01*
X142516354Y-95633600D01*
X142457462Y-95639922D01*
X142394988Y-95608636D01*
X142359346Y-95548541D01*
X142355500Y-95517896D01*
X142355500Y-95324008D01*
X142355499Y-95323991D01*
X142354249Y-95312364D01*
X142351946Y-95290945D01*
X142340740Y-95239434D01*
X142313975Y-95185965D01*
X142306313Y-95170657D01*
X142289023Y-95150704D01*
X142281615Y-95134483D01*
X142269941Y-95121011D01*
X142267403Y-95103366D01*
X142259997Y-95087148D01*
X142262534Y-95069499D01*
X142259997Y-95051853D01*
X142267402Y-95035636D01*
X142269940Y-95017990D01*
X142281614Y-95004516D01*
X142289022Y-94988297D01*
X142304020Y-94978657D01*
X142315695Y-94965185D01*
X142332801Y-94960161D01*
X142347800Y-94950523D01*
X142382733Y-94945500D01*
X142545233Y-94945500D01*
X142612272Y-94965185D01*
G37*
%TD.AperFunction*%
%TA.AperFunction,Conductor*%
G36*
X152192539Y-91190185D02*
G01*
X152238294Y-91242989D01*
X152249500Y-91294500D01*
X152249500Y-92361725D01*
X152229815Y-92428764D01*
X152177011Y-92474519D01*
X152107853Y-92484463D01*
X152044297Y-92455438D01*
X152015015Y-92418020D01*
X151941231Y-92273211D01*
X151934899Y-92264496D01*
X151839414Y-92133072D01*
X151716928Y-92010586D01*
X151576788Y-91908768D01*
X151422445Y-91830127D01*
X151257701Y-91776598D01*
X151257699Y-91776597D01*
X151257698Y-91776597D01*
X151126271Y-91755781D01*
X151086611Y-91749500D01*
X150913389Y-91749500D01*
X150873728Y-91755781D01*
X150742302Y-91776597D01*
X150577552Y-91830128D01*
X150423211Y-91908768D01*
X150359812Y-91954831D01*
X150283072Y-92010586D01*
X150283070Y-92010588D01*
X150283069Y-92010588D01*
X150160588Y-92133069D01*
X150160588Y-92133070D01*
X150160586Y-92133072D01*
X150152283Y-92144500D01*
X150058768Y-92273211D01*
X149980128Y-92427552D01*
X149926597Y-92592302D01*
X149899744Y-92761845D01*
X149899500Y-92763386D01*
X149899500Y-92936610D01*
X149926250Y-93105507D01*
X149926598Y-93107701D01*
X149980127Y-93272445D01*
X150058768Y-93426788D01*
X150160586Y-93566928D01*
X150283072Y-93689414D01*
X150423212Y-93791232D01*
X150577555Y-93869873D01*
X150742299Y-93923402D01*
X150913389Y-93950500D01*
X150913390Y-93950500D01*
X151086610Y-93950500D01*
X151086611Y-93950500D01*
X151257701Y-93923402D01*
X151422445Y-93869873D01*
X151576788Y-93791232D01*
X151716928Y-93689414D01*
X151839414Y-93566928D01*
X151941232Y-93426788D01*
X152015015Y-93281980D01*
X152062989Y-93231183D01*
X152130810Y-93214388D01*
X152196945Y-93236925D01*
X152240397Y-93291640D01*
X152249500Y-93338274D01*
X152249500Y-108091725D01*
X152229815Y-108158764D01*
X152177011Y-108204519D01*
X152107853Y-108214463D01*
X152044297Y-108185438D01*
X152015015Y-108148020D01*
X151979703Y-108078717D01*
X151941232Y-108003212D01*
X151839414Y-107863072D01*
X151716928Y-107740586D01*
X151576788Y-107638768D01*
X151448469Y-107573387D01*
X151422447Y-107560128D01*
X151422446Y-107560127D01*
X151422445Y-107560127D01*
X151257701Y-107506598D01*
X151257699Y-107506597D01*
X151257698Y-107506597D01*
X151126271Y-107485781D01*
X151086611Y-107479500D01*
X150913389Y-107479500D01*
X150873728Y-107485781D01*
X150742302Y-107506597D01*
X150577552Y-107560128D01*
X150423211Y-107638768D01*
X150359875Y-107684785D01*
X150283072Y-107740586D01*
X150283070Y-107740588D01*
X150283069Y-107740588D01*
X150160588Y-107863069D01*
X150160588Y-107863070D01*
X150160586Y-107863072D01*
X150144889Y-107884677D01*
X150058768Y-108003211D01*
X149980128Y-108157552D01*
X149980127Y-108157554D01*
X149980127Y-108157555D01*
X149973805Y-108177011D01*
X149926597Y-108322302D01*
X149899746Y-108491834D01*
X149899500Y-108493389D01*
X149899500Y-108666611D01*
X149902379Y-108684788D01*
X149924192Y-108822514D01*
X149926598Y-108837701D01*
X149980127Y-109002445D01*
X150058768Y-109156788D01*
X150160586Y-109296928D01*
X150283072Y-109419414D01*
X150423212Y-109521232D01*
X150577555Y-109599873D01*
X150742299Y-109653402D01*
X150913389Y-109680500D01*
X150913390Y-109680500D01*
X151086610Y-109680500D01*
X151086611Y-109680500D01*
X151257701Y-109653402D01*
X151422445Y-109599873D01*
X151576788Y-109521232D01*
X151716928Y-109419414D01*
X151839414Y-109296928D01*
X151941232Y-109156788D01*
X152010093Y-109021640D01*
X152015015Y-109011980D01*
X152062989Y-108961183D01*
X152130810Y-108944388D01*
X152196945Y-108966925D01*
X152240397Y-109021640D01*
X152249500Y-109068274D01*
X152249500Y-109845500D01*
X152229815Y-109912539D01*
X152177011Y-109958294D01*
X152125500Y-109969500D01*
X138999572Y-109969500D01*
X138932533Y-109949815D01*
X138886778Y-109897011D01*
X138876834Y-109827853D01*
X138879794Y-109813418D01*
X138900500Y-109736144D01*
X138900500Y-109643856D01*
X138876614Y-109554712D01*
X138856499Y-109519872D01*
X138840026Y-109451976D01*
X138856499Y-109395874D01*
X138897027Y-109325679D01*
X138920913Y-109236535D01*
X138920913Y-109144247D01*
X138897027Y-109055103D01*
X138897026Y-109055101D01*
X138897026Y-109055100D01*
X138872048Y-109011839D01*
X138855574Y-108943939D01*
X138872048Y-108887836D01*
X138896614Y-108845288D01*
X138920500Y-108756144D01*
X138920500Y-108663856D01*
X138896614Y-108574712D01*
X138895849Y-108573387D01*
X138850473Y-108494794D01*
X138850470Y-108494791D01*
X138850469Y-108494788D01*
X138785212Y-108429531D01*
X138785209Y-108429529D01*
X138785205Y-108429526D01*
X138705293Y-108383388D01*
X138705290Y-108383387D01*
X138705289Y-108383386D01*
X138705288Y-108383386D01*
X138616144Y-108359500D01*
X138523856Y-108359500D01*
X138434712Y-108383386D01*
X138434711Y-108383386D01*
X138434709Y-108383387D01*
X138434706Y-108383388D01*
X138354794Y-108429526D01*
X138354785Y-108429533D01*
X138289533Y-108494785D01*
X138289526Y-108494794D01*
X138243388Y-108574706D01*
X138243387Y-108574709D01*
X138243386Y-108574711D01*
X138243386Y-108574712D01*
X138219500Y-108663856D01*
X138219500Y-108756144D01*
X138236485Y-108819533D01*
X138243386Y-108845288D01*
X138268365Y-108888552D01*
X138284838Y-108956452D01*
X138268365Y-109012554D01*
X138243799Y-109055101D01*
X138219913Y-109144247D01*
X138219913Y-109236534D01*
X138243799Y-109325681D01*
X138263912Y-109360515D01*
X138280386Y-109428415D01*
X138263913Y-109484518D01*
X138223386Y-109554710D01*
X138211285Y-109599873D01*
X138199500Y-109643856D01*
X138199500Y-109736144D01*
X138220202Y-109813408D01*
X138218540Y-109883256D01*
X138179378Y-109941119D01*
X138115149Y-109968623D01*
X138100428Y-109969500D01*
X129036281Y-109969500D01*
X128969242Y-109949815D01*
X128923487Y-109897011D01*
X128913543Y-109827853D01*
X128927915Y-109790342D01*
X128927094Y-109790002D01*
X128931764Y-109778726D01*
X128931767Y-109778722D01*
X128940237Y-109736144D01*
X128940500Y-109734822D01*
X128940500Y-108805177D01*
X128931768Y-108761282D01*
X128931767Y-108761281D01*
X128931767Y-108761278D01*
X128898504Y-108711496D01*
X128898503Y-108711495D01*
X128848724Y-108678234D01*
X128848717Y-108678231D01*
X128804822Y-108669500D01*
X128804820Y-108669500D01*
X127875180Y-108669500D01*
X127875178Y-108669500D01*
X127831282Y-108678231D01*
X127831275Y-108678234D01*
X127781496Y-108711495D01*
X127781495Y-108711496D01*
X127748234Y-108761275D01*
X127748231Y-108761282D01*
X127739500Y-108805177D01*
X127739500Y-108805180D01*
X127739500Y-109734820D01*
X127739500Y-109734822D01*
X127739499Y-109734822D01*
X127748231Y-109778717D01*
X127752906Y-109790002D01*
X127751232Y-109790695D01*
X127767699Y-109843292D01*
X127749212Y-109910671D01*
X127697231Y-109957359D01*
X127643719Y-109969500D01*
X126174500Y-109969500D01*
X126107461Y-109949815D01*
X126061706Y-109897011D01*
X126050500Y-109845500D01*
X126050500Y-108294500D01*
X126070185Y-108227461D01*
X126122989Y-108181706D01*
X126174500Y-108170500D01*
X127104822Y-108170500D01*
X127148717Y-108161768D01*
X127148717Y-108161767D01*
X127148722Y-108161767D01*
X127198504Y-108128504D01*
X127231767Y-108078722D01*
X127231768Y-108078717D01*
X127240500Y-108034822D01*
X127240500Y-107105177D01*
X127231768Y-107061282D01*
X127231767Y-107061279D01*
X127231767Y-107061278D01*
X127198504Y-107011496D01*
X127198503Y-107011495D01*
X127148724Y-106978234D01*
X127148717Y-106978231D01*
X127104822Y-106969500D01*
X127104820Y-106969500D01*
X126175180Y-106969500D01*
X126174500Y-106969500D01*
X126107461Y-106949815D01*
X126061706Y-106897011D01*
X126050500Y-106845500D01*
X126050500Y-106225326D01*
X127699500Y-106225326D01*
X127699500Y-106241614D01*
X127699500Y-106474678D01*
X127714032Y-106547735D01*
X127714033Y-106547739D01*
X127748603Y-106599477D01*
X127769480Y-106666155D01*
X127769500Y-106668367D01*
X127769500Y-106839562D01*
X127789979Y-106915989D01*
X127789980Y-106915991D01*
X127791276Y-106920827D01*
X127789613Y-106990676D01*
X127774604Y-107021811D01*
X127748232Y-107061279D01*
X127748231Y-107061282D01*
X127739500Y-107105177D01*
X127739500Y-107105180D01*
X127739500Y-108034820D01*
X127739500Y-108034822D01*
X127739499Y-108034822D01*
X127748231Y-108078717D01*
X127748234Y-108078724D01*
X127781495Y-108128503D01*
X127781496Y-108128504D01*
X127831278Y-108161767D01*
X127831281Y-108161767D01*
X127831282Y-108161768D01*
X127875177Y-108170500D01*
X127875180Y-108170500D01*
X128804822Y-108170500D01*
X128810885Y-108169903D01*
X128811181Y-108172911D01*
X128867766Y-108177594D01*
X128912326Y-108210922D01*
X128913784Y-108209465D01*
X128919530Y-108215211D01*
X128919531Y-108215212D01*
X128984788Y-108280469D01*
X128984791Y-108280471D01*
X128984794Y-108280473D01*
X129064706Y-108326611D01*
X129064707Y-108326611D01*
X129064712Y-108326614D01*
X129153856Y-108350500D01*
X129153858Y-108350500D01*
X129246142Y-108350500D01*
X129246144Y-108350500D01*
X129335288Y-108326614D01*
X129415212Y-108280469D01*
X129462319Y-108233362D01*
X129523642Y-108199877D01*
X129593334Y-108204861D01*
X129637681Y-108233362D01*
X129684788Y-108280469D01*
X129684791Y-108280470D01*
X129684794Y-108280473D01*
X129764706Y-108326611D01*
X129764707Y-108326611D01*
X129764712Y-108326614D01*
X129853856Y-108350500D01*
X129853858Y-108350500D01*
X129946142Y-108350500D01*
X129946144Y-108350500D01*
X130035288Y-108326614D01*
X130115212Y-108280469D01*
X130180469Y-108215212D01*
X130226614Y-108135288D01*
X130250500Y-108046144D01*
X130250500Y-107953856D01*
X130226614Y-107864712D01*
X130180469Y-107784788D01*
X130115212Y-107719531D01*
X130115209Y-107719529D01*
X130115205Y-107719526D01*
X130035293Y-107673388D01*
X130035290Y-107673387D01*
X130035289Y-107673386D01*
X130035288Y-107673386D01*
X129946144Y-107649500D01*
X129853856Y-107649500D01*
X129764712Y-107673386D01*
X129764711Y-107673386D01*
X129764709Y-107673387D01*
X129764706Y-107673388D01*
X129684794Y-107719526D01*
X129684785Y-107719533D01*
X129637681Y-107766638D01*
X129576358Y-107800123D01*
X129506666Y-107795139D01*
X129462319Y-107766638D01*
X129415214Y-107719533D01*
X129415212Y-107719531D01*
X129415209Y-107719529D01*
X129415205Y-107719526D01*
X129335293Y-107673388D01*
X129335290Y-107673387D01*
X129335289Y-107673386D01*
X129335288Y-107673386D01*
X129246144Y-107649500D01*
X129153856Y-107649500D01*
X129153854Y-107649500D01*
X129096592Y-107664843D01*
X129026742Y-107663180D01*
X128968880Y-107624016D01*
X128941377Y-107559787D01*
X128940500Y-107545068D01*
X128940500Y-107453856D01*
X130349500Y-107453856D01*
X130349500Y-107546144D01*
X130356800Y-107573387D01*
X130370365Y-107624016D01*
X130373386Y-107635288D01*
X130419531Y-107715212D01*
X130484788Y-107780469D01*
X130484791Y-107780470D01*
X130484794Y-107780473D01*
X130564706Y-107826611D01*
X130564707Y-107826611D01*
X130564712Y-107826614D01*
X130653856Y-107850500D01*
X130653858Y-107850500D01*
X130746142Y-107850500D01*
X130746144Y-107850500D01*
X130835288Y-107826614D01*
X130915212Y-107780469D01*
X130980469Y-107715212D01*
X131026614Y-107635288D01*
X131050500Y-107546144D01*
X131050500Y-107453856D01*
X131026614Y-107364712D01*
X131026611Y-107364706D01*
X130980473Y-107284794D01*
X130980470Y-107284791D01*
X130980469Y-107284788D01*
X130915212Y-107219531D01*
X130915209Y-107219529D01*
X130915205Y-107219526D01*
X130835293Y-107173388D01*
X130835290Y-107173387D01*
X130835289Y-107173386D01*
X130835288Y-107173386D01*
X130746144Y-107149500D01*
X130653856Y-107149500D01*
X130564712Y-107173386D01*
X130564711Y-107173386D01*
X130564709Y-107173387D01*
X130564706Y-107173388D01*
X130484794Y-107219526D01*
X130484785Y-107219533D01*
X130419533Y-107284785D01*
X130419526Y-107284794D01*
X130373388Y-107364706D01*
X130373387Y-107364709D01*
X130373386Y-107364711D01*
X130373386Y-107364712D01*
X130349500Y-107453856D01*
X128940500Y-107453856D01*
X128940500Y-107105177D01*
X128931768Y-107061282D01*
X128931767Y-107061279D01*
X128931767Y-107061278D01*
X128898504Y-107011496D01*
X128898503Y-107011495D01*
X128848724Y-106978234D01*
X128848717Y-106978231D01*
X128804822Y-106969500D01*
X128804820Y-106969500D01*
X128700555Y-106969500D01*
X128633516Y-106949815D01*
X128593168Y-106907500D01*
X128587112Y-106897011D01*
X128580460Y-106885489D01*
X128436511Y-106741540D01*
X128403026Y-106680217D01*
X128408010Y-106610525D01*
X128421087Y-106584974D01*
X128445966Y-106547740D01*
X128460500Y-106474674D01*
X128460500Y-106225326D01*
X128460500Y-106225323D01*
X128460499Y-106225321D01*
X128445967Y-106152264D01*
X128445966Y-106152263D01*
X128445966Y-106152260D01*
X128397227Y-106079316D01*
X128393052Y-106073067D01*
X128372175Y-106006389D01*
X128390660Y-105939009D01*
X128408470Y-105916500D01*
X128627685Y-105697284D01*
X128683271Y-105665192D01*
X128715288Y-105656614D01*
X128715288Y-105656613D01*
X128715291Y-105656613D01*
X128795205Y-105610473D01*
X128795204Y-105610473D01*
X128795212Y-105610469D01*
X128860469Y-105545212D01*
X128872799Y-105523856D01*
X131089500Y-105523856D01*
X131089500Y-105616144D01*
X131113348Y-105705147D01*
X131113387Y-105705290D01*
X131113388Y-105705293D01*
X131159526Y-105785205D01*
X131159529Y-105785209D01*
X131159531Y-105785212D01*
X131224788Y-105850469D01*
X131224791Y-105850470D01*
X131224794Y-105850473D01*
X131304706Y-105896611D01*
X131304707Y-105896611D01*
X131304712Y-105896614D01*
X131393856Y-105920500D01*
X131393858Y-105920500D01*
X131490233Y-105920500D01*
X131557272Y-105940185D01*
X131577914Y-105956819D01*
X132253181Y-106632086D01*
X132286666Y-106693409D01*
X132289500Y-106719767D01*
X132289500Y-108349820D01*
X132289500Y-108349822D01*
X132289499Y-108349822D01*
X132300615Y-108405700D01*
X132299207Y-108405980D01*
X132305238Y-108462073D01*
X132273962Y-108524552D01*
X132215303Y-108559830D01*
X132184841Y-108567992D01*
X132164707Y-108573387D01*
X132164706Y-108573388D01*
X132084794Y-108619526D01*
X132084785Y-108619533D01*
X132019533Y-108684785D01*
X132019526Y-108684794D01*
X131973388Y-108764706D01*
X131973387Y-108764709D01*
X131973386Y-108764711D01*
X131973386Y-108764712D01*
X131949500Y-108853856D01*
X131949500Y-108946144D01*
X131967294Y-109012554D01*
X131973387Y-109035290D01*
X131973388Y-109035293D01*
X132019526Y-109115205D01*
X132019529Y-109115209D01*
X132019531Y-109115212D01*
X132084788Y-109180469D01*
X132084791Y-109180470D01*
X132084794Y-109180473D01*
X132164706Y-109226611D01*
X132164707Y-109226611D01*
X132164712Y-109226614D01*
X132253856Y-109250500D01*
X132253858Y-109250500D01*
X132346142Y-109250500D01*
X132346144Y-109250500D01*
X132435288Y-109226614D01*
X132515212Y-109180469D01*
X132580469Y-109115212D01*
X132626614Y-109035288D01*
X132650500Y-108946144D01*
X132650500Y-108853856D01*
X132626614Y-108764712D01*
X132624634Y-108761282D01*
X132576406Y-108677750D01*
X132577564Y-108677080D01*
X132575500Y-108671740D01*
X132566203Y-108661011D01*
X132563153Y-108639803D01*
X132555427Y-108619817D01*
X132558279Y-108605908D01*
X132556259Y-108591853D01*
X132565161Y-108572360D01*
X132569466Y-108551372D01*
X132579384Y-108541214D01*
X132585284Y-108528297D01*
X132603312Y-108516711D01*
X132618280Y-108501383D01*
X132633261Y-108497463D01*
X132644062Y-108490523D01*
X132678997Y-108485500D01*
X132825500Y-108485500D01*
X132892539Y-108505185D01*
X132938294Y-108557989D01*
X132949500Y-108609500D01*
X132949500Y-108646144D01*
X132959856Y-108684794D01*
X132973387Y-108735290D01*
X132973387Y-108735291D01*
X133003819Y-108788000D01*
X133020292Y-108855900D01*
X133003819Y-108912000D01*
X132973387Y-108964708D01*
X132973387Y-108964709D01*
X132973386Y-108964711D01*
X132973386Y-108964712D01*
X132949500Y-109053856D01*
X132949500Y-109146144D01*
X132971061Y-109226612D01*
X132973387Y-109235290D01*
X132973388Y-109235293D01*
X133019526Y-109315205D01*
X133019529Y-109315209D01*
X133019531Y-109315212D01*
X133084788Y-109380469D01*
X133084791Y-109380470D01*
X133084794Y-109380473D01*
X133164706Y-109426611D01*
X133164707Y-109426611D01*
X133164712Y-109426614D01*
X133253856Y-109450500D01*
X133253858Y-109450500D01*
X133346142Y-109450500D01*
X133346144Y-109450500D01*
X133435288Y-109426614D01*
X133515212Y-109380469D01*
X133580469Y-109315212D01*
X133626614Y-109235288D01*
X133650500Y-109146144D01*
X133650500Y-109053856D01*
X136449500Y-109053856D01*
X136449500Y-109146144D01*
X136471061Y-109226612D01*
X136473387Y-109235290D01*
X136473388Y-109235293D01*
X136519526Y-109315205D01*
X136519529Y-109315209D01*
X136519531Y-109315212D01*
X136584788Y-109380469D01*
X136584791Y-109380470D01*
X136584794Y-109380473D01*
X136664706Y-109426611D01*
X136664707Y-109426611D01*
X136664712Y-109426614D01*
X136753856Y-109450500D01*
X136753858Y-109450500D01*
X136846142Y-109450500D01*
X136846144Y-109450500D01*
X136935288Y-109426614D01*
X137015212Y-109380469D01*
X137080469Y-109315212D01*
X137126614Y-109235288D01*
X137150500Y-109146144D01*
X137150500Y-109053856D01*
X137126614Y-108964712D01*
X137126611Y-108964706D01*
X137080473Y-108884794D01*
X137080470Y-108884791D01*
X137080469Y-108884788D01*
X137015212Y-108819531D01*
X137015209Y-108819529D01*
X137015205Y-108819526D01*
X136935293Y-108773388D01*
X136935290Y-108773387D01*
X136935289Y-108773386D01*
X136935288Y-108773386D01*
X136846144Y-108749500D01*
X136753856Y-108749500D01*
X136664712Y-108773386D01*
X136664711Y-108773386D01*
X136664709Y-108773387D01*
X136664706Y-108773388D01*
X136584794Y-108819526D01*
X136584785Y-108819533D01*
X136519533Y-108884785D01*
X136519526Y-108884794D01*
X136473388Y-108964706D01*
X136473387Y-108964709D01*
X136473386Y-108964711D01*
X136473386Y-108964712D01*
X136449500Y-109053856D01*
X133650500Y-109053856D01*
X133626614Y-108964712D01*
X133590713Y-108902531D01*
X133586987Y-108892249D01*
X133585470Y-108867858D01*
X133579707Y-108844102D01*
X133583244Y-108832053D01*
X133582652Y-108822514D01*
X133589812Y-108809685D01*
X133596181Y-108787998D01*
X133604617Y-108773388D01*
X133626614Y-108735288D01*
X133650500Y-108646144D01*
X133650500Y-108553856D01*
X133626614Y-108464712D01*
X133626611Y-108464706D01*
X133580473Y-108384794D01*
X133580470Y-108384791D01*
X133580469Y-108384788D01*
X133515212Y-108319531D01*
X133515209Y-108319529D01*
X133515205Y-108319526D01*
X133435293Y-108273388D01*
X133435290Y-108273387D01*
X133435289Y-108273386D01*
X133435288Y-108273386D01*
X133346144Y-108249500D01*
X133314500Y-108249500D01*
X133247461Y-108229815D01*
X133201706Y-108177011D01*
X133190500Y-108125500D01*
X133190500Y-107853856D01*
X145749500Y-107853856D01*
X145749500Y-107946144D01*
X145773261Y-108034822D01*
X145773387Y-108035290D01*
X145773388Y-108035293D01*
X145819526Y-108115205D01*
X145819529Y-108115209D01*
X145819531Y-108115212D01*
X145884788Y-108180469D01*
X145884791Y-108180470D01*
X145884794Y-108180473D01*
X145964706Y-108226611D01*
X145964707Y-108226611D01*
X145964712Y-108226614D01*
X146053856Y-108250500D01*
X146053858Y-108250500D01*
X146146142Y-108250500D01*
X146146144Y-108250500D01*
X146235288Y-108226614D01*
X146315212Y-108180469D01*
X146380469Y-108115212D01*
X146426614Y-108035288D01*
X146450500Y-107946144D01*
X146450500Y-107853856D01*
X146426614Y-107764712D01*
X146426611Y-107764706D01*
X146380473Y-107684794D01*
X146380470Y-107684791D01*
X146380469Y-107684788D01*
X146315212Y-107619531D01*
X146315209Y-107619529D01*
X146315205Y-107619526D01*
X146235293Y-107573388D01*
X146235290Y-107573387D01*
X146235289Y-107573386D01*
X146235288Y-107573386D01*
X146146144Y-107549500D01*
X146053856Y-107549500D01*
X145964712Y-107573386D01*
X145964711Y-107573386D01*
X145964709Y-107573387D01*
X145964706Y-107573388D01*
X145884794Y-107619526D01*
X145884785Y-107619533D01*
X145819533Y-107684785D01*
X145819526Y-107684794D01*
X145773388Y-107764706D01*
X145773387Y-107764709D01*
X145773386Y-107764711D01*
X145773386Y-107764712D01*
X145749500Y-107853856D01*
X133190500Y-107853856D01*
X133190500Y-106583275D01*
X136126820Y-106583275D01*
X136126820Y-106583283D01*
X136129744Y-106616312D01*
X136139940Y-106667892D01*
X136139942Y-106667896D01*
X136172996Y-106737248D01*
X136217706Y-106790939D01*
X136222578Y-106796514D01*
X136290474Y-106839747D01*
X136357115Y-106860742D01*
X136400793Y-106867898D01*
X136784631Y-106875424D01*
X136787545Y-106875454D01*
X136792190Y-106875458D01*
X136795100Y-106875433D01*
X137730775Y-106858724D01*
X138993975Y-106836168D01*
X138996679Y-106836096D01*
X138996683Y-106836095D01*
X138996715Y-106836095D01*
X139001048Y-106835942D01*
X139047187Y-106827219D01*
X139113094Y-106804022D01*
X139152323Y-106783538D01*
X139152324Y-106783538D01*
X139277503Y-106693409D01*
X139820080Y-106302754D01*
X139841391Y-106284255D01*
X139872432Y-106251924D01*
X139908921Y-106189844D01*
X139929417Y-106123048D01*
X139936247Y-106079318D01*
X139936274Y-106077028D01*
X139937091Y-106064244D01*
X139937584Y-106059992D01*
X139937585Y-106059991D01*
X139940500Y-106034865D01*
X139940499Y-105729234D01*
X139940508Y-105727732D01*
X139941929Y-105610473D01*
X139953968Y-104617388D01*
X139950623Y-104583369D01*
X139939426Y-104530355D01*
X139939192Y-104529247D01*
X139937832Y-104520920D01*
X139937584Y-104520006D01*
X139892206Y-104417235D01*
X139812765Y-104337794D01*
X139709992Y-104292415D01*
X139684865Y-104289500D01*
X139295143Y-104289500D01*
X139295117Y-104289502D01*
X139270013Y-104292413D01*
X139167230Y-104337796D01*
X139164565Y-104339622D01*
X139137452Y-104352679D01*
X139137658Y-104353174D01*
X139132089Y-104355489D01*
X139070492Y-104388430D01*
X139070490Y-104388432D01*
X139034817Y-104414655D01*
X138309612Y-105127357D01*
X138284275Y-105159935D01*
X138251417Y-105216281D01*
X138251414Y-105216287D01*
X138237340Y-105250062D01*
X138230268Y-105264364D01*
X138224188Y-105274895D01*
X138204482Y-105300577D01*
X138200577Y-105304482D01*
X138174905Y-105324183D01*
X138169057Y-105327560D01*
X138151241Y-105335622D01*
X138151327Y-105335831D01*
X138110725Y-105352544D01*
X138055904Y-105383878D01*
X138055903Y-105383878D01*
X138024065Y-105407981D01*
X137992564Y-105438940D01*
X137930952Y-105471891D01*
X137905648Y-105474500D01*
X136421724Y-105474500D01*
X136390076Y-105477754D01*
X136340669Y-105488024D01*
X136340661Y-105488026D01*
X136272676Y-105520885D01*
X136272671Y-105520888D01*
X136219018Y-105565667D01*
X136213465Y-105570529D01*
X136170305Y-105638473D01*
X136149381Y-105705140D01*
X136149379Y-105705147D01*
X136142273Y-105748823D01*
X136134406Y-106173681D01*
X136126820Y-106583275D01*
X133190500Y-106583275D01*
X133190500Y-106520177D01*
X133181768Y-106476282D01*
X133181767Y-106476281D01*
X133181767Y-106476278D01*
X133148504Y-106426496D01*
X133144233Y-106423642D01*
X133098724Y-106393234D01*
X133098717Y-106393231D01*
X133054822Y-106384500D01*
X133054820Y-106384500D01*
X132694767Y-106384500D01*
X132627728Y-106364815D01*
X132607086Y-106348181D01*
X131816826Y-105557921D01*
X131784733Y-105502336D01*
X131766614Y-105434712D01*
X131751181Y-105407981D01*
X131720473Y-105354794D01*
X131720470Y-105354791D01*
X131720469Y-105354788D01*
X131655212Y-105289531D01*
X131655209Y-105289529D01*
X131655205Y-105289526D01*
X131593424Y-105253856D01*
X132449500Y-105253856D01*
X132449500Y-105346144D01*
X132473230Y-105434706D01*
X132473387Y-105435290D01*
X132473388Y-105435293D01*
X132519526Y-105515205D01*
X132519529Y-105515209D01*
X132519531Y-105515212D01*
X132584788Y-105580469D01*
X132584791Y-105580470D01*
X132584794Y-105580473D01*
X132664706Y-105626611D01*
X132664707Y-105626611D01*
X132664712Y-105626614D01*
X132753856Y-105650500D01*
X132753858Y-105650500D01*
X132846142Y-105650500D01*
X132846144Y-105650500D01*
X132935288Y-105626614D01*
X133015212Y-105580469D01*
X133080469Y-105515212D01*
X133126614Y-105435288D01*
X133150500Y-105346144D01*
X133150500Y-105253856D01*
X133126614Y-105164712D01*
X133123856Y-105159935D01*
X133080473Y-105084794D01*
X133080470Y-105084791D01*
X133080469Y-105084788D01*
X133015212Y-105019531D01*
X133015209Y-105019529D01*
X133015205Y-105019526D01*
X132935293Y-104973388D01*
X132935290Y-104973387D01*
X132935289Y-104973386D01*
X132935288Y-104973386D01*
X132846144Y-104949500D01*
X132753856Y-104949500D01*
X132664712Y-104973386D01*
X132664711Y-104973386D01*
X132664709Y-104973387D01*
X132664706Y-104973388D01*
X132584794Y-105019526D01*
X132584785Y-105019533D01*
X132519533Y-105084785D01*
X132519526Y-105084794D01*
X132473388Y-105164706D01*
X132473387Y-105164709D01*
X132473386Y-105164711D01*
X132473386Y-105164712D01*
X132449500Y-105253856D01*
X131593424Y-105253856D01*
X131575293Y-105243388D01*
X131575290Y-105243387D01*
X131575289Y-105243386D01*
X131575288Y-105243386D01*
X131486144Y-105219500D01*
X131393856Y-105219500D01*
X131304712Y-105243386D01*
X131304711Y-105243386D01*
X131304709Y-105243387D01*
X131304706Y-105243388D01*
X131224794Y-105289526D01*
X131224785Y-105289533D01*
X131159533Y-105354785D01*
X131159526Y-105354794D01*
X131113388Y-105434706D01*
X131113387Y-105434709D01*
X131113386Y-105434711D01*
X131113386Y-105434712D01*
X131089500Y-105523856D01*
X128872799Y-105523856D01*
X128906614Y-105465288D01*
X128930500Y-105376144D01*
X128930500Y-105283856D01*
X128906614Y-105194712D01*
X128906611Y-105194706D01*
X128860473Y-105114794D01*
X128860470Y-105114791D01*
X128860469Y-105114788D01*
X128795212Y-105049531D01*
X128795209Y-105049529D01*
X128795205Y-105049526D01*
X128715293Y-105003388D01*
X128715290Y-105003387D01*
X128715289Y-105003386D01*
X128715288Y-105003386D01*
X128626144Y-104979500D01*
X128533856Y-104979500D01*
X128444712Y-105003386D01*
X128444711Y-105003386D01*
X128444709Y-105003387D01*
X128444706Y-105003388D01*
X128364794Y-105049526D01*
X128364785Y-105049533D01*
X128299533Y-105114785D01*
X128299531Y-105114788D01*
X128253384Y-105194715D01*
X128253382Y-105194719D01*
X128252124Y-105199416D01*
X128220033Y-105254994D01*
X127885489Y-105589540D01*
X127829541Y-105645487D01*
X127829535Y-105645495D01*
X127789982Y-105714004D01*
X127789979Y-105714009D01*
X127776326Y-105764962D01*
X127770901Y-105785212D01*
X127769500Y-105790439D01*
X127769500Y-106031633D01*
X127768210Y-106036023D01*
X127769183Y-106040496D01*
X127761676Y-106074982D01*
X127756626Y-106088514D01*
X127714034Y-106152260D01*
X127699500Y-106225326D01*
X126050500Y-106225326D01*
X126050500Y-105154500D01*
X126070185Y-105087461D01*
X126122989Y-105041706D01*
X126174500Y-105030500D01*
X127294822Y-105030500D01*
X127338717Y-105021768D01*
X127338717Y-105021767D01*
X127338722Y-105021767D01*
X127388504Y-104988504D01*
X127421767Y-104938722D01*
X127430500Y-104894820D01*
X127430500Y-104065380D01*
X127439204Y-104035735D01*
X127445881Y-104005565D01*
X127449196Y-104001706D01*
X127450185Y-103998341D01*
X127467132Y-103977386D01*
X127473547Y-103971016D01*
X127474511Y-103970460D01*
X127530460Y-103914511D01*
X127741115Y-103703856D01*
X134899500Y-103703856D01*
X134899500Y-103796144D01*
X134923006Y-103883871D01*
X134923387Y-103885290D01*
X134923388Y-103885293D01*
X134969526Y-103965205D01*
X134969529Y-103965209D01*
X134969531Y-103965212D01*
X135034788Y-104030469D01*
X135034791Y-104030470D01*
X135034794Y-104030473D01*
X135114706Y-104076611D01*
X135114707Y-104076611D01*
X135114712Y-104076614D01*
X135203856Y-104100500D01*
X135203858Y-104100500D01*
X135296142Y-104100500D01*
X135296144Y-104100500D01*
X135385288Y-104076614D01*
X135443500Y-104043004D01*
X135511397Y-104026531D01*
X135577425Y-104049382D01*
X135620617Y-104104302D01*
X135629500Y-104150391D01*
X135629500Y-104894820D01*
X135629500Y-104894822D01*
X135629499Y-104894822D01*
X135638231Y-104938717D01*
X135638234Y-104938724D01*
X135666125Y-104980466D01*
X135671496Y-104988504D01*
X135721278Y-105021767D01*
X135721281Y-105021767D01*
X135721282Y-105021768D01*
X135765177Y-105030500D01*
X135765180Y-105030500D01*
X136994822Y-105030500D01*
X137038717Y-105021768D01*
X137038717Y-105021767D01*
X137038722Y-105021767D01*
X137088504Y-104988504D01*
X137121767Y-104938722D01*
X137130500Y-104894820D01*
X137130500Y-104065180D01*
X137130500Y-104065177D01*
X137121768Y-104021282D01*
X137121767Y-104021281D01*
X137121767Y-104021278D01*
X137088504Y-103971496D01*
X137086954Y-103970460D01*
X137038724Y-103938234D01*
X137038717Y-103938231D01*
X136994822Y-103929500D01*
X136994820Y-103929500D01*
X136725927Y-103929500D01*
X136696192Y-103920768D01*
X136665937Y-103914023D01*
X136662166Y-103910777D01*
X136658888Y-103909815D01*
X136637793Y-103892726D01*
X136631214Y-103886078D01*
X136630469Y-103884788D01*
X136565212Y-103819531D01*
X136544177Y-103807386D01*
X136495962Y-103756820D01*
X136495391Y-103753856D01*
X137799500Y-103753856D01*
X137799500Y-103846144D01*
X137822828Y-103933207D01*
X137823387Y-103935290D01*
X137823388Y-103935293D01*
X137869526Y-104015205D01*
X137869529Y-104015209D01*
X137869531Y-104015212D01*
X137934788Y-104080469D01*
X137934791Y-104080470D01*
X137934794Y-104080473D01*
X138014706Y-104126611D01*
X138014707Y-104126611D01*
X138014712Y-104126614D01*
X138103856Y-104150500D01*
X138103858Y-104150500D01*
X138196142Y-104150500D01*
X138196144Y-104150500D01*
X138285288Y-104126614D01*
X138365212Y-104080469D01*
X138430469Y-104015212D01*
X138476614Y-103935288D01*
X138500500Y-103846144D01*
X138500500Y-103753856D01*
X138476614Y-103664712D01*
X138476613Y-103664711D01*
X138476613Y-103664709D01*
X138446599Y-103612726D01*
X138433764Y-103590495D01*
X138417291Y-103522598D01*
X138440142Y-103456571D01*
X138459627Y-103436378D01*
X138459465Y-103436216D01*
X138492516Y-103403165D01*
X138530469Y-103365212D01*
X138576614Y-103285288D01*
X138600500Y-103196144D01*
X138600500Y-103103856D01*
X138576614Y-103014712D01*
X138576611Y-103014706D01*
X138530473Y-102934794D01*
X138530470Y-102934791D01*
X138530469Y-102934788D01*
X138465212Y-102869531D01*
X138465209Y-102869529D01*
X138465205Y-102869526D01*
X138385293Y-102823388D01*
X138385290Y-102823387D01*
X138385289Y-102823386D01*
X138385288Y-102823386D01*
X138296144Y-102799500D01*
X138203856Y-102799500D01*
X138114712Y-102823386D01*
X138114711Y-102823386D01*
X138114709Y-102823387D01*
X138114706Y-102823388D01*
X138034794Y-102869526D01*
X138034785Y-102869533D01*
X137969533Y-102934785D01*
X137969526Y-102934794D01*
X137923388Y-103014706D01*
X137923387Y-103014709D01*
X137899500Y-103103856D01*
X137899500Y-103196143D01*
X137923386Y-103285290D01*
X137966234Y-103359501D01*
X137982708Y-103427401D01*
X137959856Y-103493429D01*
X137940373Y-103513622D01*
X137940535Y-103513784D01*
X137869533Y-103584785D01*
X137869526Y-103584794D01*
X137823388Y-103664706D01*
X137823387Y-103664709D01*
X137823386Y-103664711D01*
X137823386Y-103664712D01*
X137799500Y-103753856D01*
X136495391Y-103753856D01*
X136482739Y-103688213D01*
X136508708Y-103623348D01*
X136544178Y-103592613D01*
X136565212Y-103580469D01*
X136630469Y-103515212D01*
X136643583Y-103492497D01*
X136694150Y-103444284D01*
X136750969Y-103430500D01*
X136994822Y-103430500D01*
X137038717Y-103421768D01*
X137038717Y-103421767D01*
X137038722Y-103421767D01*
X137088504Y-103388504D01*
X137121767Y-103338722D01*
X137122450Y-103335288D01*
X137130500Y-103294822D01*
X137130500Y-102553856D01*
X140049500Y-102553856D01*
X140049500Y-102646144D01*
X140065356Y-102705321D01*
X140073387Y-102735290D01*
X140073388Y-102735293D01*
X140119526Y-102815205D01*
X140119529Y-102815209D01*
X140119531Y-102815212D01*
X140184788Y-102880469D01*
X140184791Y-102880470D01*
X140184794Y-102880473D01*
X140264706Y-102926611D01*
X140264707Y-102926611D01*
X140264712Y-102926614D01*
X140353856Y-102950500D01*
X140353858Y-102950500D01*
X140446142Y-102950500D01*
X140446144Y-102950500D01*
X140535288Y-102926614D01*
X140615212Y-102880469D01*
X140680469Y-102815212D01*
X140726614Y-102735288D01*
X140750500Y-102646144D01*
X140750500Y-102553856D01*
X140726614Y-102464712D01*
X140726611Y-102464706D01*
X140680473Y-102384794D01*
X140680470Y-102384791D01*
X140680469Y-102384788D01*
X140615212Y-102319531D01*
X140615209Y-102319529D01*
X140615205Y-102319526D01*
X140535293Y-102273388D01*
X140535290Y-102273387D01*
X140535289Y-102273386D01*
X140535288Y-102273386D01*
X140446144Y-102249500D01*
X140353856Y-102249500D01*
X140264712Y-102273386D01*
X140264711Y-102273386D01*
X140264709Y-102273387D01*
X140264706Y-102273388D01*
X140184794Y-102319526D01*
X140184785Y-102319533D01*
X140119533Y-102384785D01*
X140119526Y-102384794D01*
X140073388Y-102464706D01*
X140073387Y-102464709D01*
X140073386Y-102464711D01*
X140073386Y-102464712D01*
X140049500Y-102553856D01*
X137130500Y-102553856D01*
X137130500Y-102465177D01*
X137121768Y-102421282D01*
X137121767Y-102421281D01*
X137121767Y-102421278D01*
X137088504Y-102371496D01*
X137077709Y-102364283D01*
X137038724Y-102338234D01*
X137038717Y-102338231D01*
X136994822Y-102329500D01*
X136994820Y-102329500D01*
X135765180Y-102329500D01*
X135765178Y-102329500D01*
X135721282Y-102338231D01*
X135721275Y-102338234D01*
X135671496Y-102371495D01*
X135671495Y-102371496D01*
X135638234Y-102421275D01*
X135638231Y-102421282D01*
X135629500Y-102465177D01*
X135629500Y-103294824D01*
X135630183Y-103298261D01*
X135630184Y-103298263D01*
X135638233Y-103338722D01*
X135671496Y-103388504D01*
X135721278Y-103421767D01*
X135742519Y-103425992D01*
X135742520Y-103425993D01*
X135765177Y-103430500D01*
X135765180Y-103430500D01*
X135949031Y-103430500D01*
X136016070Y-103450185D01*
X136036926Y-103467033D01*
X136048331Y-103478494D01*
X136069531Y-103515212D01*
X136134788Y-103580469D01*
X136170092Y-103600852D01*
X136181716Y-103612533D01*
X136190839Y-103629339D01*
X136204038Y-103643182D01*
X136207165Y-103659413D01*
X136215051Y-103673938D01*
X136213640Y-103693009D01*
X136217259Y-103711789D01*
X136211115Y-103727133D01*
X136209896Y-103743618D01*
X136198397Y-103758900D01*
X136191290Y-103776653D01*
X136173331Y-103792214D01*
X136167888Y-103799449D01*
X136162815Y-103801326D01*
X136155823Y-103807386D01*
X136134791Y-103819529D01*
X136134785Y-103819533D01*
X136063784Y-103890535D01*
X136061920Y-103888671D01*
X136016031Y-103922186D01*
X135974073Y-103929500D01*
X135765178Y-103929500D01*
X135747756Y-103932965D01*
X135678165Y-103926736D01*
X135622989Y-103883871D01*
X135599746Y-103817981D01*
X135600500Y-103798510D01*
X135600500Y-103703858D01*
X135600500Y-103703856D01*
X135576614Y-103614712D01*
X135576613Y-103614711D01*
X135576613Y-103614709D01*
X135573531Y-103609371D01*
X135573529Y-103609368D01*
X135530469Y-103534788D01*
X135465212Y-103469531D01*
X135435415Y-103452327D01*
X135435413Y-103452325D01*
X135385293Y-103423388D01*
X135385290Y-103423387D01*
X135385289Y-103423386D01*
X135385288Y-103423386D01*
X135296144Y-103399500D01*
X135203856Y-103399500D01*
X135114712Y-103423386D01*
X135114711Y-103423386D01*
X135114709Y-103423387D01*
X135114706Y-103423388D01*
X135034794Y-103469526D01*
X135034785Y-103469533D01*
X134969533Y-103534785D01*
X134969526Y-103534794D01*
X134923388Y-103614706D01*
X134923387Y-103614709D01*
X134923386Y-103614711D01*
X134923386Y-103614712D01*
X134899500Y-103703856D01*
X127741115Y-103703856D01*
X127770460Y-103674511D01*
X127776117Y-103664712D01*
X127810021Y-103605989D01*
X127830500Y-103529562D01*
X127830500Y-102553856D01*
X131899500Y-102553856D01*
X131899500Y-102646144D01*
X131915356Y-102705321D01*
X131923387Y-102735290D01*
X131923388Y-102735293D01*
X131969526Y-102815205D01*
X131969529Y-102815209D01*
X131969531Y-102815212D01*
X132034788Y-102880469D01*
X132034791Y-102880470D01*
X132034794Y-102880473D01*
X132114706Y-102926611D01*
X132114707Y-102926611D01*
X132114712Y-102926614D01*
X132203856Y-102950500D01*
X132203858Y-102950500D01*
X132296142Y-102950500D01*
X132296144Y-102950500D01*
X132385288Y-102926614D01*
X132465212Y-102880469D01*
X132530469Y-102815212D01*
X132576614Y-102735288D01*
X132600500Y-102646144D01*
X132600500Y-102553856D01*
X132576614Y-102464712D01*
X132576611Y-102464706D01*
X132572583Y-102457729D01*
X132545025Y-102410000D01*
X132541478Y-102403856D01*
X132949500Y-102403856D01*
X132949500Y-102496144D01*
X132964964Y-102553858D01*
X132973387Y-102585290D01*
X132973388Y-102585293D01*
X133019526Y-102665205D01*
X133019529Y-102665209D01*
X133019531Y-102665212D01*
X133084788Y-102730469D01*
X133084791Y-102730470D01*
X133084794Y-102730473D01*
X133164706Y-102776611D01*
X133164707Y-102776611D01*
X133164712Y-102776614D01*
X133253856Y-102800500D01*
X133253858Y-102800500D01*
X133346142Y-102800500D01*
X133346144Y-102800500D01*
X133435288Y-102776614D01*
X133515212Y-102730469D01*
X133580469Y-102665212D01*
X133626614Y-102585288D01*
X133650500Y-102496144D01*
X133650500Y-102403856D01*
X133626614Y-102314712D01*
X133626611Y-102314706D01*
X133580473Y-102234794D01*
X133580470Y-102234791D01*
X133580469Y-102234788D01*
X133515212Y-102169531D01*
X133515209Y-102169529D01*
X133515205Y-102169526D01*
X133435293Y-102123388D01*
X133435290Y-102123387D01*
X133435289Y-102123386D01*
X133435288Y-102123386D01*
X133346144Y-102099500D01*
X133253856Y-102099500D01*
X133164712Y-102123386D01*
X133164711Y-102123386D01*
X133164709Y-102123387D01*
X133164706Y-102123388D01*
X133084794Y-102169526D01*
X133084785Y-102169533D01*
X133019533Y-102234785D01*
X133019526Y-102234794D01*
X132973388Y-102314706D01*
X132973387Y-102314709D01*
X132973386Y-102314711D01*
X132973386Y-102314712D01*
X132949500Y-102403856D01*
X132541478Y-102403856D01*
X132530469Y-102384788D01*
X132465212Y-102319531D01*
X132465209Y-102319529D01*
X132465205Y-102319526D01*
X132385293Y-102273388D01*
X132385290Y-102273387D01*
X132385289Y-102273386D01*
X132385288Y-102273386D01*
X132296144Y-102249500D01*
X132203856Y-102249500D01*
X132114712Y-102273386D01*
X132114711Y-102273386D01*
X132114709Y-102273387D01*
X132114706Y-102273388D01*
X132034794Y-102319526D01*
X132034785Y-102319533D01*
X131969533Y-102384785D01*
X131969526Y-102384794D01*
X131923388Y-102464706D01*
X131923387Y-102464709D01*
X131923386Y-102464711D01*
X131923386Y-102464712D01*
X131899500Y-102553856D01*
X127830500Y-102553856D01*
X127830500Y-101353856D01*
X133999500Y-101353856D01*
X133999500Y-101446144D01*
X134018682Y-101517733D01*
X134023387Y-101535290D01*
X134023388Y-101535293D01*
X134069526Y-101615205D01*
X134069529Y-101615209D01*
X134069531Y-101615212D01*
X134134788Y-101680469D01*
X134134791Y-101680470D01*
X134134794Y-101680473D01*
X134214706Y-101726611D01*
X134214707Y-101726611D01*
X134214712Y-101726614D01*
X134303856Y-101750500D01*
X134303858Y-101750500D01*
X134396142Y-101750500D01*
X134396144Y-101750500D01*
X134485288Y-101726614D01*
X134540352Y-101694822D01*
X135629499Y-101694822D01*
X135638231Y-101738717D01*
X135638234Y-101738724D01*
X135668790Y-101784454D01*
X135671496Y-101788504D01*
X135721278Y-101821767D01*
X135721281Y-101821767D01*
X135721282Y-101821768D01*
X135765177Y-101830500D01*
X135765180Y-101830500D01*
X136994822Y-101830500D01*
X137038717Y-101821768D01*
X137038717Y-101821767D01*
X137038722Y-101821767D01*
X137088504Y-101788504D01*
X137121767Y-101738722D01*
X137129276Y-101700974D01*
X137130500Y-101694822D01*
X137130500Y-100865177D01*
X137121768Y-100821282D01*
X137121767Y-100821281D01*
X137121767Y-100821278D01*
X137088504Y-100771496D01*
X137088371Y-100771407D01*
X137038724Y-100738234D01*
X137038717Y-100738231D01*
X136994822Y-100729500D01*
X136994820Y-100729500D01*
X135765180Y-100729500D01*
X135765178Y-100729500D01*
X135721282Y-100738231D01*
X135721275Y-100738234D01*
X135671496Y-100771495D01*
X135671495Y-100771496D01*
X135638234Y-100821275D01*
X135638231Y-100821282D01*
X135629500Y-100865177D01*
X135629500Y-100865180D01*
X135629500Y-101694820D01*
X135629500Y-101694822D01*
X135629499Y-101694822D01*
X134540352Y-101694822D01*
X134565212Y-101680469D01*
X134630469Y-101615212D01*
X134676614Y-101535288D01*
X134700500Y-101446144D01*
X134700500Y-101353856D01*
X134676614Y-101264712D01*
X134671075Y-101255118D01*
X134630473Y-101184794D01*
X134630470Y-101184791D01*
X134630469Y-101184788D01*
X134565212Y-101119531D01*
X134565209Y-101119529D01*
X134565205Y-101119526D01*
X134485293Y-101073388D01*
X134485290Y-101073387D01*
X134485289Y-101073386D01*
X134485288Y-101073386D01*
X134396144Y-101049500D01*
X134303856Y-101049500D01*
X134214712Y-101073386D01*
X134214711Y-101073386D01*
X134214709Y-101073387D01*
X134214706Y-101073388D01*
X134134794Y-101119526D01*
X134134785Y-101119533D01*
X134069533Y-101184785D01*
X134069526Y-101184794D01*
X134023388Y-101264706D01*
X134023387Y-101264709D01*
X134023386Y-101264711D01*
X134023386Y-101264712D01*
X133999500Y-101353856D01*
X127830500Y-101353856D01*
X127830500Y-100380438D01*
X127810021Y-100304011D01*
X127808052Y-100300601D01*
X127770464Y-100235495D01*
X127770458Y-100235487D01*
X127406819Y-99871848D01*
X127373334Y-99810525D01*
X127370500Y-99784167D01*
X127370500Y-98953064D01*
X127390185Y-98886025D01*
X127391397Y-98884174D01*
X127399810Y-98871583D01*
X127421767Y-98838722D01*
X127430500Y-98794820D01*
X127430500Y-97965180D01*
X127430500Y-97965177D01*
X127421768Y-97921282D01*
X127421767Y-97921281D01*
X127421767Y-97921278D01*
X127388504Y-97871496D01*
X127383233Y-97867974D01*
X127338724Y-97838234D01*
X127338717Y-97838231D01*
X127294822Y-97829500D01*
X127294820Y-97829500D01*
X126174500Y-97829500D01*
X126165814Y-97826949D01*
X126156853Y-97828238D01*
X126132812Y-97817259D01*
X126107461Y-97809815D01*
X126101533Y-97802974D01*
X126093297Y-97799213D01*
X126079007Y-97776978D01*
X126061706Y-97757011D01*
X126059418Y-97746496D01*
X126055523Y-97740435D01*
X126050500Y-97705500D01*
X126050500Y-97499500D01*
X126070185Y-97432461D01*
X126122989Y-97386706D01*
X126174500Y-97375500D01*
X127298638Y-97375500D01*
X127315261Y-97374609D01*
X127341619Y-97371775D01*
X127399519Y-97353645D01*
X127460842Y-97320160D01*
X127496274Y-97293636D01*
X128043636Y-96746274D01*
X128054761Y-96733889D01*
X128071395Y-96713247D01*
X128099516Y-96659488D01*
X128119201Y-96592449D01*
X128125500Y-96548638D01*
X128125500Y-95424500D01*
X128145185Y-95357461D01*
X128197989Y-95311706D01*
X128240000Y-95302566D01*
X128240000Y-97260000D01*
X127840000Y-97660000D01*
X127840000Y-100180000D01*
X127890000Y-100230000D01*
X128750000Y-100230000D01*
X128870000Y-100110000D01*
X128870000Y-100043766D01*
X130654500Y-100043766D01*
X130654500Y-100216233D01*
X130688143Y-100385366D01*
X130688146Y-100385378D01*
X130754138Y-100544698D01*
X130754145Y-100544711D01*
X130849954Y-100688098D01*
X130849957Y-100688102D01*
X130971897Y-100810042D01*
X130971901Y-100810045D01*
X131115288Y-100905854D01*
X131115301Y-100905861D01*
X131241616Y-100958182D01*
X131274626Y-100971855D01*
X131443766Y-101005499D01*
X131443769Y-101005500D01*
X131443771Y-101005500D01*
X131616231Y-101005500D01*
X131616232Y-101005499D01*
X131785374Y-100971855D01*
X131944705Y-100905858D01*
X132088099Y-100810045D01*
X132103002Y-100795142D01*
X132126738Y-100771407D01*
X132210042Y-100688102D01*
X132210045Y-100688099D01*
X132305858Y-100544705D01*
X132371855Y-100385374D01*
X132405500Y-100216229D01*
X132405500Y-100043771D01*
X132405500Y-100043768D01*
X132386832Y-99949921D01*
X132386832Y-99949920D01*
X132383637Y-99933856D01*
X133909500Y-99933856D01*
X133909500Y-100026144D01*
X133927455Y-100093154D01*
X133933387Y-100115290D01*
X133933388Y-100115293D01*
X133979526Y-100195205D01*
X133979529Y-100195209D01*
X133979531Y-100195212D01*
X134044788Y-100260469D01*
X134044791Y-100260470D01*
X134044794Y-100260473D01*
X134124706Y-100306611D01*
X134124707Y-100306611D01*
X134124712Y-100306614D01*
X134213856Y-100330500D01*
X134213858Y-100330500D01*
X134306142Y-100330500D01*
X134306144Y-100330500D01*
X134395288Y-100306614D01*
X134475212Y-100260469D01*
X134540469Y-100195212D01*
X134586614Y-100115288D01*
X134610500Y-100026144D01*
X134610500Y-100026137D01*
X134610799Y-100023867D01*
X134611587Y-100022084D01*
X134612603Y-100018294D01*
X134613193Y-100018452D01*
X134639060Y-99959968D01*
X134697382Y-99921493D01*
X134701598Y-99920282D01*
X134715288Y-99916614D01*
X134795212Y-99870469D01*
X134860469Y-99805212D01*
X134906614Y-99725288D01*
X134930500Y-99636144D01*
X134930500Y-99543856D01*
X134919782Y-99503856D01*
X135439500Y-99503856D01*
X135439500Y-99596144D01*
X135454838Y-99653388D01*
X135463387Y-99685290D01*
X135463388Y-99685293D01*
X135509526Y-99765205D01*
X135509529Y-99765209D01*
X135509531Y-99765212D01*
X135574788Y-99830469D01*
X135574791Y-99830470D01*
X135574794Y-99830473D01*
X135654706Y-99876611D01*
X135654707Y-99876611D01*
X135654712Y-99876614D01*
X135743856Y-99900500D01*
X135743858Y-99900500D01*
X135836142Y-99900500D01*
X135836144Y-99900500D01*
X135925288Y-99876614D01*
X135979338Y-99845407D01*
X136047236Y-99828933D01*
X136103340Y-99845407D01*
X136174706Y-99886611D01*
X136174707Y-99886611D01*
X136174712Y-99886614D01*
X136263856Y-99910500D01*
X136263858Y-99910500D01*
X136356142Y-99910500D01*
X136356144Y-99910500D01*
X136445288Y-99886614D01*
X136525212Y-99840469D01*
X136590469Y-99775212D01*
X136636614Y-99695288D01*
X136660500Y-99606144D01*
X136660500Y-99513856D01*
X136636614Y-99424712D01*
X136636611Y-99424706D01*
X136590473Y-99344794D01*
X136590470Y-99344791D01*
X136590469Y-99344788D01*
X136525212Y-99279531D01*
X136525209Y-99279529D01*
X136525205Y-99279526D01*
X136445293Y-99233388D01*
X136445290Y-99233387D01*
X136445289Y-99233386D01*
X136445288Y-99233386D01*
X136356144Y-99209500D01*
X136263856Y-99209500D01*
X136174711Y-99233386D01*
X136136964Y-99255180D01*
X136122752Y-99263386D01*
X136120661Y-99264593D01*
X136052761Y-99281066D01*
X135996659Y-99264593D01*
X135994568Y-99263386D01*
X135925288Y-99223386D01*
X135836144Y-99199500D01*
X135743856Y-99199500D01*
X135654712Y-99223386D01*
X135654711Y-99223386D01*
X135654709Y-99223387D01*
X135654706Y-99223388D01*
X135574794Y-99269526D01*
X135574785Y-99269533D01*
X135509533Y-99334785D01*
X135509526Y-99334794D01*
X135463388Y-99414706D01*
X135463387Y-99414709D01*
X135463386Y-99414711D01*
X135463386Y-99414712D01*
X135439500Y-99503856D01*
X134919782Y-99503856D01*
X134906614Y-99454712D01*
X134903869Y-99449957D01*
X134860473Y-99374794D01*
X134860470Y-99374791D01*
X134860469Y-99374788D01*
X134795212Y-99309531D01*
X134795209Y-99309529D01*
X134795205Y-99309526D01*
X134715293Y-99263388D01*
X134715290Y-99263387D01*
X134715289Y-99263386D01*
X134715288Y-99263386D01*
X134626144Y-99239500D01*
X134533856Y-99239500D01*
X134444712Y-99263386D01*
X134444711Y-99263386D01*
X134444709Y-99263387D01*
X134444706Y-99263388D01*
X134364794Y-99309526D01*
X134364785Y-99309533D01*
X134299533Y-99374785D01*
X134299526Y-99374794D01*
X134253388Y-99454706D01*
X134253387Y-99454709D01*
X134253386Y-99454711D01*
X134253386Y-99454712D01*
X134252416Y-99458332D01*
X134229500Y-99543855D01*
X134229199Y-99546145D01*
X134228407Y-99547932D01*
X134227397Y-99551706D01*
X134226808Y-99551548D01*
X134200930Y-99610041D01*
X134142605Y-99648510D01*
X134138355Y-99649730D01*
X134124713Y-99653385D01*
X134124706Y-99653388D01*
X134044794Y-99699526D01*
X134044785Y-99699533D01*
X133979533Y-99764785D01*
X133979526Y-99764794D01*
X133933388Y-99844706D01*
X133933387Y-99844709D01*
X133933386Y-99844711D01*
X133933386Y-99844712D01*
X133909500Y-99933856D01*
X132383637Y-99933856D01*
X132375971Y-99895321D01*
X132371855Y-99874626D01*
X132370132Y-99870466D01*
X132305861Y-99715301D01*
X132305854Y-99715288D01*
X132210045Y-99571901D01*
X132210042Y-99571897D01*
X132088102Y-99449957D01*
X132088098Y-99449954D01*
X131944711Y-99354145D01*
X131944698Y-99354138D01*
X131785378Y-99288146D01*
X131785366Y-99288143D01*
X131616232Y-99254500D01*
X131616229Y-99254500D01*
X131443771Y-99254500D01*
X131443768Y-99254500D01*
X131274633Y-99288143D01*
X131274621Y-99288146D01*
X131115301Y-99354138D01*
X131115288Y-99354145D01*
X130971901Y-99449954D01*
X130971897Y-99449957D01*
X130849957Y-99571897D01*
X130849954Y-99571901D01*
X130754145Y-99715288D01*
X130754138Y-99715301D01*
X130688146Y-99874621D01*
X130688143Y-99874633D01*
X130654500Y-100043766D01*
X128870000Y-100043766D01*
X128870000Y-97194822D01*
X135629499Y-97194822D01*
X135638231Y-97238717D01*
X135638234Y-97238724D01*
X135657862Y-97268099D01*
X135671496Y-97288504D01*
X135721278Y-97321767D01*
X135721281Y-97321767D01*
X135721282Y-97321768D01*
X135765177Y-97330500D01*
X135765180Y-97330500D01*
X136994822Y-97330500D01*
X137038717Y-97321768D01*
X137038717Y-97321767D01*
X137038722Y-97321767D01*
X137088504Y-97288504D01*
X137121767Y-97238722D01*
X137122479Y-97235145D01*
X137130500Y-97194822D01*
X137130500Y-96365177D01*
X137121768Y-96321282D01*
X137121767Y-96321281D01*
X137121767Y-96321278D01*
X137088504Y-96271496D01*
X137088503Y-96271495D01*
X137038724Y-96238234D01*
X137038717Y-96238231D01*
X136994822Y-96229500D01*
X136994820Y-96229500D01*
X135765180Y-96229500D01*
X135765178Y-96229500D01*
X135721282Y-96238231D01*
X135721275Y-96238234D01*
X135671496Y-96271495D01*
X135671495Y-96271496D01*
X135638234Y-96321275D01*
X135638231Y-96321282D01*
X135629500Y-96365177D01*
X135629500Y-96365180D01*
X135629500Y-97194820D01*
X135629500Y-97194822D01*
X135629499Y-97194822D01*
X128870000Y-97194822D01*
X128870000Y-95400500D01*
X129084676Y-95400500D01*
X129165247Y-95384473D01*
X129234839Y-95390700D01*
X129283150Y-95424885D01*
X129289442Y-95432146D01*
X129294420Y-95437621D01*
X129294422Y-95437623D01*
X129363145Y-95479513D01*
X129363150Y-95479516D01*
X129430189Y-95499201D01*
X129474000Y-95505500D01*
X129474003Y-95505500D01*
X130475991Y-95505500D01*
X130476000Y-95505500D01*
X130509055Y-95501946D01*
X130560566Y-95490740D01*
X130629342Y-95456313D01*
X130679917Y-95412488D01*
X130743470Y-95383464D01*
X130785312Y-95384584D01*
X130865323Y-95400500D01*
X130865326Y-95400500D01*
X131174676Y-95400500D01*
X131174677Y-95400499D01*
X131247740Y-95385966D01*
X131330601Y-95330601D01*
X131357322Y-95290608D01*
X131410933Y-95245805D01*
X131460424Y-95235500D01*
X132245143Y-95235500D01*
X132245145Y-95235501D01*
X132334855Y-95235501D01*
X132408139Y-95205145D01*
X132409802Y-95204456D01*
X132423943Y-95202136D01*
X132431252Y-95203039D01*
X132444020Y-95200500D01*
X132624676Y-95200500D01*
X132624677Y-95200499D01*
X132697740Y-95185966D01*
X132780601Y-95130601D01*
X132780602Y-95130599D01*
X132787731Y-95125836D01*
X132854409Y-95104958D01*
X132918623Y-95121552D01*
X132944706Y-95136611D01*
X132944707Y-95136611D01*
X132944712Y-95136614D01*
X133033856Y-95160500D01*
X133033858Y-95160500D01*
X133126142Y-95160500D01*
X133126144Y-95160500D01*
X133215288Y-95136614D01*
X133295212Y-95090469D01*
X133360469Y-95025212D01*
X133406614Y-94945288D01*
X133430500Y-94856144D01*
X133430500Y-94763856D01*
X133406614Y-94674712D01*
X133404550Y-94671137D01*
X133400346Y-94663856D01*
X134029500Y-94663856D01*
X134029500Y-94756144D01*
X134041117Y-94799500D01*
X134053387Y-94845290D01*
X134053388Y-94845293D01*
X134099526Y-94925205D01*
X134099529Y-94925209D01*
X134099531Y-94925212D01*
X134164788Y-94990469D01*
X134164791Y-94990470D01*
X134164794Y-94990473D01*
X134244706Y-95036611D01*
X134244707Y-95036611D01*
X134244712Y-95036614D01*
X134333856Y-95060500D01*
X134333858Y-95060500D01*
X134426142Y-95060500D01*
X134426144Y-95060500D01*
X134515288Y-95036614D01*
X134538800Y-95023038D01*
X134606700Y-95006565D01*
X134672727Y-95029416D01*
X134688483Y-95042744D01*
X134958103Y-95312364D01*
X135050172Y-95350500D01*
X135142935Y-95350500D01*
X135209974Y-95370185D01*
X135215624Y-95374738D01*
X135224399Y-95380601D01*
X135307260Y-95435966D01*
X135307263Y-95435966D01*
X135307264Y-95435967D01*
X135380321Y-95450499D01*
X135380324Y-95450500D01*
X135380326Y-95450500D01*
X135689676Y-95450500D01*
X135689677Y-95450499D01*
X135762740Y-95435966D01*
X135762744Y-95435963D01*
X135774020Y-95431293D01*
X135774999Y-95433656D01*
X135825100Y-95417964D01*
X135891864Y-95436064D01*
X135963145Y-95479513D01*
X135963150Y-95479516D01*
X136030189Y-95499201D01*
X136074000Y-95505500D01*
X136074003Y-95505500D01*
X137075991Y-95505500D01*
X137076000Y-95505500D01*
X137109055Y-95501946D01*
X137160566Y-95490740D01*
X137229342Y-95456313D01*
X137239884Y-95447177D01*
X137303438Y-95418150D01*
X137372597Y-95428090D01*
X137385162Y-95435096D01*
X137387257Y-95435964D01*
X137387260Y-95435966D01*
X137387263Y-95435966D01*
X137387264Y-95435967D01*
X137460321Y-95450499D01*
X137460324Y-95450500D01*
X137460326Y-95450500D01*
X137769676Y-95450500D01*
X137769677Y-95450499D01*
X137842740Y-95435966D01*
X137925601Y-95380601D01*
X137980966Y-95297740D01*
X137995500Y-95224674D01*
X137995500Y-95099500D01*
X138015185Y-95032461D01*
X138067989Y-94986706D01*
X138119500Y-94975500D01*
X138416303Y-94975500D01*
X138483342Y-94995185D01*
X138510686Y-95022046D01*
X138510766Y-95021967D01*
X138519396Y-95030597D01*
X138519399Y-95030601D01*
X138602260Y-95085966D01*
X138602263Y-95085966D01*
X138602264Y-95085967D01*
X138675321Y-95100499D01*
X138675324Y-95100500D01*
X138675326Y-95100500D01*
X138924676Y-95100500D01*
X138924677Y-95100499D01*
X138997740Y-95085966D01*
X139080601Y-95030601D01*
X139100639Y-95000610D01*
X139154251Y-94955805D01*
X139203742Y-94945500D01*
X139529808Y-94945500D01*
X139596847Y-94965185D01*
X139642602Y-95017989D01*
X139652546Y-95087147D01*
X139650106Y-95099574D01*
X139458352Y-95866589D01*
X139422995Y-95926853D01*
X139360671Y-95958435D01*
X139310343Y-95953274D01*
X139309719Y-95956416D01*
X139224677Y-95939500D01*
X139224674Y-95939500D01*
X138975326Y-95939500D01*
X138975323Y-95939500D01*
X138902264Y-95954032D01*
X138902260Y-95954034D01*
X138819397Y-96009399D01*
X138799781Y-96038757D01*
X138767524Y-96071635D01*
X138756516Y-96079297D01*
X138688103Y-96107636D01*
X138624637Y-96171101D01*
X138615591Y-96177399D01*
X138592485Y-96185120D01*
X138571105Y-96196795D01*
X138560937Y-96198568D01*
X138553855Y-96199500D01*
X138502386Y-96213291D01*
X138464712Y-96223386D01*
X138464711Y-96223386D01*
X138464709Y-96223387D01*
X138464706Y-96223388D01*
X138384794Y-96269526D01*
X138384785Y-96269533D01*
X138319533Y-96334785D01*
X138319526Y-96334794D01*
X138273388Y-96414706D01*
X138273387Y-96414709D01*
X138273386Y-96414711D01*
X138273386Y-96414712D01*
X138249500Y-96503856D01*
X138249500Y-96596144D01*
X138255225Y-96617510D01*
X138273386Y-96685289D01*
X138278911Y-96694858D01*
X138283187Y-96702264D01*
X138283385Y-96702606D01*
X138300000Y-96764609D01*
X138300000Y-97016000D01*
X138280315Y-97083039D01*
X138227511Y-97128794D01*
X138176000Y-97140000D01*
X137770000Y-97140000D01*
X137770000Y-98086000D01*
X137767449Y-98094685D01*
X137768738Y-98103647D01*
X137757759Y-98127687D01*
X137750315Y-98153039D01*
X137743474Y-98158966D01*
X137739713Y-98167203D01*
X137717478Y-98181492D01*
X137697511Y-98198794D01*
X137686996Y-98201081D01*
X137680935Y-98204977D01*
X137646000Y-98210000D01*
X137568068Y-98210000D01*
X137560439Y-98209500D01*
X137556144Y-98209500D01*
X137463856Y-98209500D01*
X137459561Y-98209500D01*
X137451932Y-98210000D01*
X137254500Y-98210000D01*
X137187461Y-98190315D01*
X137141706Y-98137511D01*
X137130500Y-98086000D01*
X137130500Y-97965177D01*
X137121768Y-97921282D01*
X137121767Y-97921281D01*
X137121767Y-97921278D01*
X137088504Y-97871496D01*
X137083233Y-97867974D01*
X137038724Y-97838234D01*
X137038717Y-97838231D01*
X136994822Y-97829500D01*
X136994820Y-97829500D01*
X135765180Y-97829500D01*
X135765178Y-97829500D01*
X135721282Y-97838231D01*
X135721275Y-97838234D01*
X135671496Y-97871495D01*
X135671495Y-97871496D01*
X135638234Y-97921275D01*
X135638231Y-97921282D01*
X135629500Y-97965177D01*
X135629500Y-97965180D01*
X135629500Y-98794820D01*
X135629500Y-98794822D01*
X135629499Y-98794822D01*
X135638231Y-98838717D01*
X135638234Y-98838724D01*
X135671495Y-98888503D01*
X135671496Y-98888504D01*
X135721278Y-98921767D01*
X135721281Y-98921767D01*
X135721282Y-98921768D01*
X135765177Y-98930500D01*
X135765180Y-98930500D01*
X136994822Y-98930500D01*
X137016918Y-98926104D01*
X137038722Y-98921767D01*
X137038729Y-98921762D01*
X137042099Y-98920367D01*
X137050081Y-98919508D01*
X137050700Y-98919385D01*
X137050711Y-98919440D01*
X137111568Y-98912892D01*
X137174050Y-98944162D01*
X137177243Y-98947243D01*
X137230000Y-99000000D01*
X137375269Y-99000000D01*
X137442308Y-99019685D01*
X137488063Y-99072489D01*
X137498007Y-99141647D01*
X137496886Y-99148191D01*
X137489500Y-99185321D01*
X137489500Y-99434678D01*
X137504032Y-99507735D01*
X137504034Y-99507740D01*
X137528601Y-99544508D01*
X137534252Y-99562552D01*
X137544477Y-99578463D01*
X137548928Y-99609420D01*
X137549480Y-99611183D01*
X137549500Y-99613398D01*
X137549500Y-99701633D01*
X137529815Y-99768672D01*
X137528603Y-99770523D01*
X137494033Y-99822260D01*
X137494032Y-99822264D01*
X137479500Y-99895321D01*
X137479500Y-100144678D01*
X137494032Y-100217735D01*
X137494033Y-100217739D01*
X137528603Y-100269477D01*
X137549480Y-100336155D01*
X137549500Y-100338367D01*
X137549500Y-100984678D01*
X137564032Y-101057735D01*
X137564035Y-101057742D01*
X137579649Y-101081111D01*
X137600526Y-101147788D01*
X137582040Y-101215168D01*
X137579649Y-101218889D01*
X137564035Y-101242257D01*
X137564032Y-101242264D01*
X137549500Y-101315321D01*
X137549500Y-101624678D01*
X137564032Y-101697735D01*
X137564034Y-101697740D01*
X137578601Y-101719542D01*
X137584252Y-101737586D01*
X137594477Y-101753497D01*
X137598928Y-101784454D01*
X137599480Y-101786217D01*
X137599500Y-101788432D01*
X137599500Y-101836255D01*
X137582887Y-101898256D01*
X137573386Y-101914710D01*
X137567872Y-101935290D01*
X137549500Y-102003856D01*
X137549500Y-102096144D01*
X137570495Y-102174500D01*
X137573387Y-102185290D01*
X137573388Y-102185293D01*
X137619526Y-102265205D01*
X137619529Y-102265209D01*
X137619531Y-102265212D01*
X137684788Y-102330469D01*
X137684791Y-102330470D01*
X137684794Y-102330473D01*
X137764706Y-102376611D01*
X137764707Y-102376611D01*
X137764712Y-102376614D01*
X137853856Y-102400500D01*
X137869050Y-102400500D01*
X137885821Y-102405317D01*
X137902587Y-102405121D01*
X137916247Y-102411205D01*
X137919999Y-102409998D01*
X137920000Y-102410000D01*
X137966648Y-102395005D01*
X138035288Y-102376614D01*
X138049631Y-102368332D01*
X138708827Y-102156447D01*
X138746772Y-102150500D01*
X138846142Y-102150500D01*
X138846144Y-102150500D01*
X138935288Y-102126614D01*
X139015212Y-102080469D01*
X139080469Y-102015212D01*
X139126614Y-101935288D01*
X139150500Y-101846144D01*
X139150500Y-101753856D01*
X139143424Y-101727447D01*
X139142396Y-101667379D01*
X139146082Y-101651465D01*
X139238090Y-101254159D01*
X139249237Y-101206024D01*
X139283539Y-101145154D01*
X139345304Y-101112492D01*
X139370040Y-101110000D01*
X141760000Y-101110000D01*
X141760000Y-98469500D01*
X141779685Y-98402461D01*
X141832489Y-98356706D01*
X141884000Y-98345500D01*
X142855143Y-98345500D01*
X142855145Y-98345501D01*
X142944855Y-98345501D01*
X143007529Y-98319540D01*
X143027736Y-98311170D01*
X143052345Y-98286560D01*
X143113664Y-98253077D01*
X143183356Y-98258061D01*
X143217131Y-98277133D01*
X143415038Y-98434295D01*
X143455294Y-98491399D01*
X143461858Y-98527385D01*
X143539549Y-100926103D01*
X143522045Y-100993744D01*
X143503295Y-101017798D01*
X142056388Y-102464706D01*
X140612265Y-103908829D01*
X140612264Y-103908830D01*
X140594358Y-103926736D01*
X140548829Y-103972264D01*
X140543756Y-103984509D01*
X140543757Y-103984510D01*
X140514499Y-104055142D01*
X140514499Y-104159288D01*
X140514500Y-104159297D01*
X140514500Y-104214049D01*
X140494815Y-104281088D01*
X140442011Y-104326843D01*
X140440586Y-104327483D01*
X140417240Y-104337790D01*
X140417232Y-104337796D01*
X140337794Y-104417234D01*
X140292415Y-104520006D01*
X140292415Y-104520008D01*
X140289500Y-104545131D01*
X140289500Y-106034856D01*
X140289502Y-106034882D01*
X140292413Y-106059987D01*
X140292415Y-106059991D01*
X140337793Y-106162764D01*
X140337794Y-106162765D01*
X140417235Y-106242206D01*
X140520009Y-106287585D01*
X140545135Y-106290500D01*
X140934864Y-106290499D01*
X140934879Y-106290497D01*
X140934882Y-106290497D01*
X140959986Y-106287586D01*
X140959987Y-106287585D01*
X140959991Y-106287585D01*
X141062765Y-106242206D01*
X141079778Y-106225192D01*
X141141097Y-106191707D01*
X141155111Y-106189488D01*
X141514285Y-106153571D01*
X141582950Y-106166488D01*
X141614304Y-106189275D01*
X141667235Y-106242206D01*
X141770009Y-106287585D01*
X141795135Y-106290500D01*
X142184864Y-106290499D01*
X142184879Y-106290497D01*
X142184882Y-106290497D01*
X142209987Y-106287586D01*
X142209988Y-106287585D01*
X142209991Y-106287585D01*
X142312765Y-106242206D01*
X142392206Y-106162765D01*
X142437585Y-106059991D01*
X142438297Y-106053856D01*
X145049500Y-106053856D01*
X145049500Y-106146144D01*
X145070715Y-106225321D01*
X145073387Y-106235290D01*
X145073388Y-106235293D01*
X145119526Y-106315205D01*
X145119529Y-106315209D01*
X145119531Y-106315212D01*
X145184788Y-106380469D01*
X145184791Y-106380470D01*
X145184794Y-106380473D01*
X145264706Y-106426611D01*
X145264707Y-106426611D01*
X145264712Y-106426614D01*
X145353856Y-106450500D01*
X145353858Y-106450500D01*
X145446142Y-106450500D01*
X145446144Y-106450500D01*
X145535288Y-106426614D01*
X145615212Y-106380469D01*
X145680469Y-106315212D01*
X145726614Y-106235288D01*
X145750500Y-106146144D01*
X145750500Y-106053856D01*
X148949500Y-106053856D01*
X148949500Y-106146144D01*
X148970715Y-106225321D01*
X148973387Y-106235290D01*
X148973388Y-106235293D01*
X149019526Y-106315205D01*
X149019533Y-106315214D01*
X149066638Y-106362319D01*
X149100123Y-106423642D01*
X149095139Y-106493334D01*
X149066638Y-106537681D01*
X149019533Y-106584785D01*
X149019526Y-106584794D01*
X148973388Y-106664706D01*
X148973387Y-106664709D01*
X148973386Y-106664711D01*
X148973386Y-106664712D01*
X148949500Y-106753856D01*
X148949500Y-106846144D01*
X148969511Y-106920827D01*
X148973387Y-106935290D01*
X148973388Y-106935293D01*
X149019526Y-107015205D01*
X149019529Y-107015209D01*
X149019531Y-107015212D01*
X149084788Y-107080469D01*
X149084791Y-107080470D01*
X149084794Y-107080473D01*
X149164706Y-107126611D01*
X149164707Y-107126611D01*
X149164712Y-107126614D01*
X149253856Y-107150500D01*
X149253858Y-107150500D01*
X149346142Y-107150500D01*
X149346144Y-107150500D01*
X149435288Y-107126614D01*
X149515212Y-107080469D01*
X149580469Y-107015212D01*
X149626614Y-106935288D01*
X149650500Y-106846144D01*
X149650500Y-106753856D01*
X149626614Y-106664712D01*
X149614674Y-106644031D01*
X149580473Y-106584794D01*
X149580470Y-106584791D01*
X149580469Y-106584788D01*
X149533362Y-106537681D01*
X149499877Y-106476358D01*
X149504861Y-106406666D01*
X149533362Y-106362319D01*
X149547500Y-106348181D01*
X149580469Y-106315212D01*
X149626614Y-106235288D01*
X149650500Y-106146144D01*
X149650500Y-106053856D01*
X149626614Y-105964712D01*
X149622057Y-105956819D01*
X149580473Y-105884794D01*
X149580470Y-105884791D01*
X149580469Y-105884788D01*
X149515212Y-105819531D01*
X149515209Y-105819529D01*
X149515205Y-105819526D01*
X149435293Y-105773388D01*
X149435290Y-105773387D01*
X149435289Y-105773386D01*
X149435288Y-105773386D01*
X149346144Y-105749500D01*
X149253856Y-105749500D01*
X149164712Y-105773386D01*
X149164711Y-105773386D01*
X149164709Y-105773387D01*
X149164706Y-105773388D01*
X149084794Y-105819526D01*
X149084785Y-105819533D01*
X149019533Y-105884785D01*
X149019526Y-105884794D01*
X148973388Y-105964706D01*
X148973387Y-105964709D01*
X148973386Y-105964711D01*
X148973386Y-105964712D01*
X148949500Y-106053856D01*
X145750500Y-106053856D01*
X145726614Y-105964712D01*
X145722057Y-105956819D01*
X145680473Y-105884794D01*
X145680470Y-105884791D01*
X145680469Y-105884788D01*
X145615212Y-105819531D01*
X145615209Y-105819529D01*
X145615205Y-105819526D01*
X145535293Y-105773388D01*
X145535290Y-105773387D01*
X145535289Y-105773386D01*
X145535288Y-105773386D01*
X145446144Y-105749500D01*
X145353856Y-105749500D01*
X145264712Y-105773386D01*
X145264711Y-105773386D01*
X145264709Y-105773387D01*
X145264706Y-105773388D01*
X145184794Y-105819526D01*
X145184785Y-105819533D01*
X145119533Y-105884785D01*
X145119526Y-105884794D01*
X145073388Y-105964706D01*
X145073387Y-105964709D01*
X145073386Y-105964711D01*
X145073386Y-105964712D01*
X145049500Y-106053856D01*
X142438297Y-106053856D01*
X142440500Y-106034865D01*
X142440499Y-104653856D01*
X145049500Y-104653856D01*
X145049500Y-104746143D01*
X145073387Y-104835290D01*
X145073388Y-104835293D01*
X145119526Y-104915205D01*
X145119529Y-104915209D01*
X145119531Y-104915212D01*
X145184788Y-104980469D01*
X145184791Y-104980470D01*
X145184794Y-104980473D01*
X145264706Y-105026611D01*
X145264707Y-105026611D01*
X145264712Y-105026614D01*
X145353856Y-105050500D01*
X145353858Y-105050500D01*
X145446142Y-105050500D01*
X145446144Y-105050500D01*
X145535288Y-105026614D01*
X145615212Y-104980469D01*
X145680469Y-104915212D01*
X145726614Y-104835288D01*
X145750500Y-104746144D01*
X145750500Y-104653856D01*
X145726614Y-104564712D01*
X145706138Y-104529247D01*
X145680473Y-104484794D01*
X145680470Y-104484791D01*
X145680469Y-104484788D01*
X145615212Y-104419531D01*
X145615209Y-104419529D01*
X145615205Y-104419526D01*
X145535293Y-104373388D01*
X145535290Y-104373387D01*
X145535289Y-104373386D01*
X145535288Y-104373386D01*
X145446144Y-104349500D01*
X145353856Y-104349500D01*
X145264712Y-104373386D01*
X145264711Y-104373386D01*
X145264709Y-104373387D01*
X145264706Y-104373388D01*
X145184794Y-104419526D01*
X145184785Y-104419533D01*
X145119533Y-104484785D01*
X145119526Y-104484794D01*
X145073388Y-104564706D01*
X145073387Y-104564709D01*
X145049500Y-104653856D01*
X142440499Y-104653856D01*
X142440499Y-104545136D01*
X142438785Y-104530355D01*
X142437586Y-104520012D01*
X142437585Y-104520010D01*
X142437585Y-104520009D01*
X142392206Y-104417235D01*
X142312765Y-104337794D01*
X142312763Y-104337793D01*
X142312759Y-104337790D01*
X142289414Y-104327483D01*
X142236037Y-104282397D01*
X142215510Y-104215611D01*
X142215500Y-104214049D01*
X142215500Y-103744766D01*
X142235185Y-103677727D01*
X142251814Y-103657090D01*
X144997734Y-100911170D01*
X144997736Y-100911170D01*
X145053984Y-100854921D01*
X145079652Y-100835225D01*
X145105212Y-100820469D01*
X145170469Y-100755212D01*
X145216614Y-100675288D01*
X145240500Y-100586144D01*
X145240500Y-100493856D01*
X145216614Y-100404712D01*
X145216611Y-100404706D01*
X145170473Y-100324794D01*
X145170470Y-100324791D01*
X145170469Y-100324788D01*
X145105212Y-100259531D01*
X145094248Y-100253201D01*
X145023457Y-100212328D01*
X144975242Y-100161761D01*
X144962020Y-100093154D01*
X144987988Y-100028289D01*
X145044903Y-99987761D01*
X145053354Y-99985170D01*
X145085288Y-99976614D01*
X145165212Y-99930469D01*
X145230469Y-99865212D01*
X145276614Y-99785288D01*
X145300500Y-99696144D01*
X145300500Y-99696139D01*
X145301385Y-99692837D01*
X145337749Y-99633176D01*
X145400596Y-99602646D01*
X145438891Y-99602203D01*
X145454261Y-99604423D01*
X145505145Y-99625500D01*
X145600146Y-99625500D01*
X145608964Y-99626774D01*
X145632961Y-99637752D01*
X145658272Y-99645185D01*
X145664226Y-99652056D01*
X145672500Y-99655842D01*
X145686753Y-99678054D01*
X145704027Y-99697989D01*
X145705321Y-99706990D01*
X145710234Y-99714646D01*
X145710215Y-99741031D01*
X145713971Y-99767147D01*
X145710192Y-99775421D01*
X145710186Y-99784516D01*
X145695907Y-99806700D01*
X145684946Y-99830703D01*
X145678914Y-99837181D01*
X145548831Y-99967263D01*
X145548828Y-99967267D01*
X145546296Y-99973382D01*
X145546295Y-99973385D01*
X145514499Y-100050146D01*
X145514499Y-100154289D01*
X145514500Y-100154298D01*
X145514500Y-100795142D01*
X145514499Y-100795156D01*
X145514499Y-100894857D01*
X145535743Y-100946143D01*
X145548829Y-100977734D01*
X145548831Y-100977737D01*
X145682265Y-101111171D01*
X145692531Y-101115423D01*
X145746936Y-101159263D01*
X145769002Y-101225556D01*
X145766702Y-101254159D01*
X145766500Y-101255173D01*
X145766500Y-101255180D01*
X145766500Y-101584820D01*
X145766500Y-101584822D01*
X145766499Y-101584822D01*
X145777615Y-101640700D01*
X145774690Y-101641281D01*
X145780140Y-101692033D01*
X145776794Y-101703427D01*
X145766500Y-101755177D01*
X145766500Y-102062088D01*
X145746815Y-102129127D01*
X145694011Y-102174882D01*
X145689954Y-102176648D01*
X145636539Y-102198774D01*
X145612264Y-102208829D01*
X145571594Y-102249500D01*
X145548830Y-102272264D01*
X145548829Y-102272265D01*
X145449599Y-102371496D01*
X145377914Y-102443181D01*
X145316591Y-102476666D01*
X145290233Y-102479500D01*
X145195323Y-102479500D01*
X145122264Y-102494032D01*
X145122260Y-102494033D01*
X145039399Y-102549399D01*
X144984033Y-102632260D01*
X144984032Y-102632264D01*
X144969500Y-102705321D01*
X144969500Y-102793834D01*
X144949815Y-102860873D01*
X144897011Y-102906628D01*
X144827853Y-102916572D01*
X144783499Y-102901221D01*
X144735289Y-102873386D01*
X144688589Y-102860873D01*
X144646144Y-102849500D01*
X144553856Y-102849500D01*
X144464712Y-102873386D01*
X144464711Y-102873386D01*
X144464709Y-102873387D01*
X144464706Y-102873388D01*
X144384794Y-102919526D01*
X144384785Y-102919533D01*
X144319533Y-102984785D01*
X144319526Y-102984794D01*
X144273388Y-103064706D01*
X144273387Y-103064709D01*
X144273386Y-103064711D01*
X144273386Y-103064712D01*
X144249500Y-103153856D01*
X144249500Y-103246144D01*
X144271995Y-103330098D01*
X144273387Y-103335290D01*
X144273388Y-103335293D01*
X144319526Y-103415205D01*
X144319529Y-103415209D01*
X144319531Y-103415212D01*
X144384788Y-103480469D01*
X144384791Y-103480470D01*
X144384794Y-103480473D01*
X144464706Y-103526611D01*
X144464707Y-103526611D01*
X144464712Y-103526614D01*
X144553856Y-103550500D01*
X144553858Y-103550500D01*
X144646142Y-103550500D01*
X144646144Y-103550500D01*
X144735288Y-103526614D01*
X144815212Y-103480469D01*
X144880469Y-103415212D01*
X144926614Y-103335288D01*
X144936381Y-103298835D01*
X144972743Y-103239177D01*
X145035590Y-103208646D01*
X145104965Y-103216940D01*
X145119517Y-103224829D01*
X145122257Y-103225964D01*
X145122260Y-103225966D01*
X145122263Y-103225966D01*
X145122264Y-103225967D01*
X145195321Y-103240499D01*
X145195324Y-103240500D01*
X145195326Y-103240500D01*
X145444676Y-103240500D01*
X145444677Y-103240499D01*
X145517740Y-103225966D01*
X145573612Y-103188633D01*
X145640286Y-103167757D01*
X145707666Y-103186241D01*
X145754357Y-103238220D01*
X145766500Y-103291737D01*
X145766500Y-103384820D01*
X145766500Y-103384822D01*
X145766499Y-103384822D01*
X145775231Y-103428717D01*
X145775234Y-103428724D01*
X145805076Y-103473386D01*
X145808496Y-103478504D01*
X145858278Y-103511767D01*
X145858281Y-103511767D01*
X145858282Y-103511768D01*
X145902177Y-103520500D01*
X145902180Y-103520500D01*
X146374294Y-103520500D01*
X146406387Y-103524725D01*
X146412482Y-103526358D01*
X146450332Y-103536500D01*
X146450334Y-103536500D01*
X146921666Y-103536500D01*
X146921668Y-103536500D01*
X146965613Y-103524724D01*
X146997706Y-103520500D01*
X147046640Y-103520500D01*
X147113679Y-103540185D01*
X147159434Y-103592989D01*
X147166415Y-103612407D01*
X147166500Y-103612724D01*
X147166500Y-103612727D01*
X147193793Y-103714587D01*
X147246520Y-103805913D01*
X147321087Y-103880480D01*
X147412413Y-103933207D01*
X147514273Y-103960500D01*
X147514275Y-103960500D01*
X147619725Y-103960500D01*
X147619727Y-103960500D01*
X147721587Y-103933207D01*
X147812913Y-103880480D01*
X147887480Y-103805913D01*
X147940207Y-103714587D01*
X147967500Y-103612727D01*
X147967500Y-103507273D01*
X147940207Y-103405413D01*
X147887480Y-103314087D01*
X147812913Y-103239520D01*
X147721587Y-103186793D01*
X147634520Y-103163463D01*
X147625123Y-103159176D01*
X147618979Y-103153856D01*
X148449500Y-103153856D01*
X148449500Y-103246144D01*
X148471995Y-103330098D01*
X148473387Y-103335290D01*
X148473388Y-103335293D01*
X148519526Y-103415205D01*
X148524478Y-103421658D01*
X148522549Y-103423137D01*
X148550127Y-103473663D01*
X148545130Y-103543354D01*
X148523250Y-103577400D01*
X148524478Y-103578342D01*
X148519526Y-103584794D01*
X148473388Y-103664706D01*
X148473387Y-103664709D01*
X148473386Y-103664711D01*
X148473386Y-103664712D01*
X148449500Y-103753856D01*
X148449500Y-103846144D01*
X148472828Y-103933207D01*
X148473387Y-103935290D01*
X148473388Y-103935293D01*
X148519526Y-104015205D01*
X148519529Y-104015209D01*
X148519531Y-104015212D01*
X148584788Y-104080469D01*
X148584791Y-104080470D01*
X148584794Y-104080473D01*
X148664706Y-104126611D01*
X148664707Y-104126611D01*
X148664712Y-104126614D01*
X148753856Y-104150500D01*
X148753858Y-104150500D01*
X148846142Y-104150500D01*
X148846144Y-104150500D01*
X148935288Y-104126614D01*
X149015212Y-104080469D01*
X149080469Y-104015212D01*
X149126614Y-103935288D01*
X149150500Y-103846144D01*
X149150500Y-103753856D01*
X149126614Y-103664712D01*
X149123555Y-103659413D01*
X149080473Y-103584794D01*
X149080470Y-103584791D01*
X149080469Y-103584788D01*
X149080466Y-103584785D01*
X149075522Y-103578342D01*
X149077453Y-103576860D01*
X149049877Y-103526358D01*
X149054861Y-103456666D01*
X149076752Y-103422602D01*
X149075522Y-103421658D01*
X149080463Y-103415217D01*
X149080469Y-103415212D01*
X149126614Y-103335288D01*
X149150500Y-103246144D01*
X149150500Y-103153856D01*
X149126614Y-103064712D01*
X149121111Y-103055180D01*
X149080473Y-102984794D01*
X149080470Y-102984791D01*
X149080469Y-102984788D01*
X149015212Y-102919531D01*
X149015209Y-102919529D01*
X149015205Y-102919526D01*
X148935293Y-102873388D01*
X148935290Y-102873387D01*
X148935289Y-102873386D01*
X148935288Y-102873386D01*
X148846144Y-102849500D01*
X148753856Y-102849500D01*
X148664712Y-102873386D01*
X148664711Y-102873386D01*
X148664709Y-102873387D01*
X148664706Y-102873388D01*
X148584794Y-102919526D01*
X148584785Y-102919533D01*
X148519533Y-102984785D01*
X148519526Y-102984794D01*
X148473388Y-103064706D01*
X148473387Y-103064709D01*
X148473386Y-103064711D01*
X148473386Y-103064712D01*
X148449500Y-103153856D01*
X147618979Y-103153856D01*
X147606208Y-103142797D01*
X147584842Y-103129774D01*
X147580248Y-103120318D01*
X147572304Y-103113439D01*
X147565246Y-103089434D01*
X147554313Y-103066927D01*
X147555560Y-103056491D01*
X147552596Y-103046407D01*
X147559637Y-103022394D01*
X147562608Y-102997552D01*
X147570221Y-102986303D01*
X147572257Y-102979361D01*
X147578702Y-102973771D01*
X147588912Y-102958686D01*
X148594780Y-101952819D01*
X148656103Y-101919334D01*
X148682461Y-101916500D01*
X151041666Y-101916500D01*
X151041668Y-101916500D01*
X151122165Y-101894931D01*
X151194336Y-101853263D01*
X151684129Y-101363467D01*
X151684134Y-101363464D01*
X151694334Y-101353263D01*
X151694336Y-101353263D01*
X151853263Y-101194336D01*
X151867602Y-101169500D01*
X151894931Y-101122164D01*
X151916500Y-101041668D01*
X151916500Y-100484370D01*
X151924691Y-100443188D01*
X151924510Y-100443140D01*
X151925253Y-100440365D01*
X151925940Y-100436914D01*
X151926609Y-100435295D01*
X151926614Y-100435288D01*
X151950500Y-100346144D01*
X151950500Y-100253856D01*
X151926614Y-100164712D01*
X151926613Y-100164711D01*
X151926612Y-100164705D01*
X151925937Y-100163076D01*
X151925250Y-100159625D01*
X151924510Y-100156861D01*
X151924691Y-100156812D01*
X151916500Y-100115629D01*
X151916500Y-99458333D01*
X151916499Y-99458327D01*
X151912663Y-99444011D01*
X151894931Y-99377835D01*
X151853263Y-99305664D01*
X151194336Y-98646737D01*
X151122165Y-98605069D01*
X151041668Y-98583500D01*
X151041667Y-98583500D01*
X148082460Y-98583500D01*
X148015421Y-98563815D01*
X147994779Y-98547181D01*
X147836279Y-98388681D01*
X147759281Y-98311682D01*
X147725797Y-98250361D01*
X147730781Y-98180669D01*
X147772653Y-98124736D01*
X147784947Y-98116625D01*
X147812913Y-98100480D01*
X147887480Y-98025913D01*
X147940207Y-97934587D01*
X147967500Y-97832727D01*
X147967500Y-97727273D01*
X147940207Y-97625413D01*
X147887480Y-97534087D01*
X147812913Y-97459520D01*
X147721587Y-97406793D01*
X147619727Y-97379500D01*
X147514273Y-97379500D01*
X147412413Y-97406793D01*
X147412410Y-97406794D01*
X147321085Y-97459521D01*
X147246521Y-97534085D01*
X147193794Y-97625410D01*
X147193793Y-97625412D01*
X147188467Y-97645290D01*
X147166500Y-97727273D01*
X147166500Y-97727275D01*
X147166415Y-97727593D01*
X147130050Y-97787253D01*
X147067204Y-97817783D01*
X147046640Y-97819500D01*
X145902178Y-97819500D01*
X145858282Y-97828231D01*
X145858275Y-97828234D01*
X145808496Y-97861495D01*
X145808495Y-97861496D01*
X145775234Y-97911275D01*
X145775231Y-97911282D01*
X145766500Y-97955177D01*
X145766500Y-98351625D01*
X145746815Y-98418664D01*
X145694011Y-98464419D01*
X145624853Y-98474363D01*
X145573610Y-98454728D01*
X145497739Y-98404033D01*
X145497735Y-98404032D01*
X145424677Y-98389500D01*
X145424674Y-98389500D01*
X145175326Y-98389500D01*
X145175323Y-98389500D01*
X145102264Y-98404032D01*
X145102261Y-98404033D01*
X145051019Y-98438271D01*
X144984341Y-98459147D01*
X144916961Y-98440661D01*
X144870272Y-98388681D01*
X144859097Y-98319711D01*
X144874742Y-98273169D01*
X144896614Y-98235288D01*
X144920500Y-98146144D01*
X144920500Y-98053856D01*
X144896614Y-97964712D01*
X144879220Y-97934586D01*
X144861596Y-97904060D01*
X144845123Y-97836160D01*
X144867975Y-97770133D01*
X144881297Y-97754383D01*
X144910469Y-97725212D01*
X144956614Y-97645288D01*
X144980500Y-97556144D01*
X144980500Y-97463856D01*
X144956614Y-97374712D01*
X144956613Y-97374710D01*
X144954510Y-97366861D01*
X144957800Y-97365979D01*
X144951969Y-97312233D01*
X144983182Y-97249723D01*
X145005127Y-97231029D01*
X145080601Y-97180601D01*
X145135966Y-97097740D01*
X145150500Y-97024674D01*
X145150500Y-96775326D01*
X145150500Y-96775323D01*
X145150499Y-96775321D01*
X145135967Y-96702264D01*
X145135966Y-96702260D01*
X145125079Y-96685966D01*
X145091396Y-96635556D01*
X145085746Y-96617510D01*
X145075523Y-96601602D01*
X145071071Y-96570639D01*
X145070520Y-96568879D01*
X145070500Y-96566667D01*
X145070500Y-96533332D01*
X145090185Y-96466293D01*
X145091369Y-96464485D01*
X145135966Y-96397740D01*
X145150500Y-96324674D01*
X145150500Y-96075326D01*
X145150500Y-96075323D01*
X145150499Y-96075321D01*
X145135967Y-96002264D01*
X145135966Y-96002260D01*
X145110532Y-95964195D01*
X145091396Y-95935556D01*
X145070520Y-95868879D01*
X145070500Y-95866667D01*
X145070500Y-95720439D01*
X145069348Y-95716138D01*
X145050021Y-95644011D01*
X145047660Y-95639922D01*
X145010464Y-95575494D01*
X145006728Y-95570626D01*
X144985326Y-95527229D01*
X144976614Y-95494712D01*
X144976613Y-95494708D01*
X144930473Y-95414794D01*
X144930470Y-95414791D01*
X144930469Y-95414788D01*
X144865212Y-95349531D01*
X144865209Y-95349529D01*
X144865205Y-95349526D01*
X144785293Y-95303388D01*
X144785290Y-95303387D01*
X144785289Y-95303386D01*
X144785288Y-95303386D01*
X144696144Y-95279500D01*
X144603856Y-95279500D01*
X144514712Y-95303386D01*
X144514711Y-95303386D01*
X144514709Y-95303387D01*
X144514706Y-95303388D01*
X144434794Y-95349526D01*
X144434785Y-95349533D01*
X144369533Y-95414785D01*
X144369526Y-95414794D01*
X144323388Y-95494706D01*
X144323387Y-95494709D01*
X144323386Y-95494711D01*
X144323386Y-95494712D01*
X144299500Y-95583856D01*
X144299500Y-95676144D01*
X144304125Y-95693408D01*
X144302463Y-95763256D01*
X144263301Y-95821119D01*
X144199072Y-95848623D01*
X144184351Y-95849500D01*
X143975323Y-95849500D01*
X143902264Y-95864032D01*
X143902260Y-95864034D01*
X143819401Y-95919397D01*
X143812470Y-95926328D01*
X143810016Y-95931703D01*
X143786890Y-95946565D01*
X143765796Y-95964195D01*
X143756419Y-95966147D01*
X143751238Y-95969477D01*
X143716303Y-95974500D01*
X143677257Y-95974500D01*
X143610218Y-95954815D01*
X143564463Y-95902011D01*
X143557482Y-95882594D01*
X143553807Y-95868879D01*
X143536614Y-95804712D01*
X143536612Y-95804709D01*
X143536612Y-95804707D01*
X143536611Y-95804706D01*
X143490473Y-95724794D01*
X143490470Y-95724791D01*
X143490469Y-95724788D01*
X143481819Y-95716138D01*
X143448334Y-95654815D01*
X143445500Y-95628457D01*
X143445500Y-95205146D01*
X143445498Y-95205141D01*
X143444627Y-95203039D01*
X143427008Y-95160500D01*
X143411172Y-95122266D01*
X143340671Y-95051765D01*
X143340664Y-95051759D01*
X142898610Y-94609705D01*
X142881170Y-94592264D01*
X142817736Y-94528830D01*
X142817735Y-94528829D01*
X142793457Y-94518772D01*
X142793457Y-94518771D01*
X142734858Y-94494500D01*
X142734856Y-94494499D01*
X142734855Y-94494499D01*
X142645145Y-94494499D01*
X142630711Y-94494499D01*
X142630703Y-94494500D01*
X139203742Y-94494500D01*
X139136703Y-94474815D01*
X139100639Y-94439389D01*
X139098629Y-94436381D01*
X139080601Y-94409399D01*
X138997740Y-94354034D01*
X138997739Y-94354033D01*
X138997735Y-94354032D01*
X138924677Y-94339500D01*
X138924674Y-94339500D01*
X138675326Y-94339500D01*
X138675323Y-94339500D01*
X138602264Y-94354032D01*
X138602260Y-94354033D01*
X138519398Y-94409399D01*
X138479314Y-94469391D01*
X138425702Y-94514196D01*
X138376212Y-94524500D01*
X138009857Y-94524500D01*
X138009855Y-94524499D01*
X137920146Y-94524499D01*
X137873738Y-94543722D01*
X137837264Y-94558830D01*
X137837262Y-94558831D01*
X137682913Y-94713181D01*
X137657411Y-94727106D01*
X137633400Y-94743480D01*
X137624997Y-94744805D01*
X137621590Y-94746666D01*
X137598616Y-94749454D01*
X137596931Y-94749500D01*
X137460326Y-94749500D01*
X137438597Y-94753822D01*
X137428090Y-94754109D01*
X137404056Y-94747759D01*
X137379301Y-94745543D01*
X137370865Y-94738989D01*
X137360538Y-94736261D01*
X137343753Y-94717926D01*
X137324126Y-94702678D01*
X137313823Y-94685662D01*
X137306313Y-94670658D01*
X137306311Y-94670656D01*
X137306311Y-94670655D01*
X137260563Y-94617860D01*
X137255578Y-94612377D01*
X137179911Y-94566254D01*
X137181407Y-94563798D01*
X137172897Y-94556601D01*
X137151378Y-94543819D01*
X137142284Y-94530709D01*
X137138666Y-94527649D01*
X137131269Y-94514831D01*
X137118589Y-94489472D01*
X137105500Y-94434021D01*
X137105500Y-92774008D01*
X137105499Y-92773996D01*
X137101946Y-92740945D01*
X137090740Y-92689434D01*
X137056313Y-92620658D01*
X137056312Y-92620657D01*
X137056313Y-92620657D01*
X137052119Y-92615817D01*
X138189500Y-92615817D01*
X138189500Y-92754183D01*
X138221294Y-92872838D01*
X138225312Y-92887835D01*
X138225313Y-92887838D01*
X138294492Y-93007661D01*
X138294494Y-93007664D01*
X138294495Y-93007665D01*
X138392335Y-93105505D01*
X138392336Y-93105506D01*
X138392338Y-93105507D01*
X138402045Y-93111111D01*
X138512164Y-93174688D01*
X138645817Y-93210500D01*
X138645819Y-93210500D01*
X138784181Y-93210500D01*
X138784183Y-93210500D01*
X138917836Y-93174688D01*
X139037665Y-93105505D01*
X139079627Y-93063543D01*
X139949499Y-93063543D01*
X139987947Y-93256829D01*
X139987950Y-93256839D01*
X140063364Y-93438907D01*
X140063371Y-93438920D01*
X140172860Y-93602781D01*
X140172863Y-93602785D01*
X140312214Y-93742136D01*
X140312218Y-93742139D01*
X140476079Y-93851628D01*
X140476092Y-93851635D01*
X140649355Y-93923402D01*
X140658165Y-93927051D01*
X140658169Y-93927051D01*
X140658170Y-93927052D01*
X140851456Y-93965500D01*
X140851459Y-93965500D01*
X141048543Y-93965500D01*
X141178582Y-93939632D01*
X141241835Y-93927051D01*
X141423914Y-93851632D01*
X141587782Y-93742139D01*
X141727139Y-93602782D01*
X141836632Y-93438914D01*
X141912051Y-93256835D01*
X141941717Y-93107697D01*
X141950500Y-93063543D01*
X142489499Y-93063543D01*
X142527947Y-93256829D01*
X142527950Y-93256839D01*
X142603364Y-93438907D01*
X142603371Y-93438920D01*
X142712860Y-93602781D01*
X142712863Y-93602785D01*
X142852214Y-93742136D01*
X142852218Y-93742139D01*
X143016079Y-93851628D01*
X143016092Y-93851635D01*
X143189355Y-93923402D01*
X143198165Y-93927051D01*
X143198169Y-93927051D01*
X143198170Y-93927052D01*
X143391456Y-93965500D01*
X143391459Y-93965500D01*
X143588543Y-93965500D01*
X143718582Y-93939632D01*
X143781835Y-93927051D01*
X143963914Y-93851632D01*
X144127782Y-93742139D01*
X144267139Y-93602782D01*
X144376632Y-93438914D01*
X144452051Y-93256835D01*
X144481717Y-93107697D01*
X144490500Y-93063543D01*
X145029499Y-93063543D01*
X145067947Y-93256829D01*
X145067950Y-93256839D01*
X145143364Y-93438907D01*
X145143371Y-93438920D01*
X145252860Y-93602781D01*
X145252863Y-93602785D01*
X145392214Y-93742136D01*
X145392218Y-93742139D01*
X145556079Y-93851628D01*
X145556092Y-93851635D01*
X145729355Y-93923402D01*
X145738165Y-93927051D01*
X145738169Y-93927051D01*
X145738170Y-93927052D01*
X145931456Y-93965500D01*
X145931459Y-93965500D01*
X146128543Y-93965500D01*
X146258582Y-93939632D01*
X146321835Y-93927051D01*
X146503914Y-93851632D01*
X146667782Y-93742139D01*
X146807139Y-93602782D01*
X146916632Y-93438914D01*
X146992051Y-93256835D01*
X147021717Y-93107697D01*
X147030500Y-93063543D01*
X147030500Y-92866456D01*
X146992052Y-92673170D01*
X146992051Y-92673169D01*
X146992051Y-92673165D01*
X146987921Y-92663195D01*
X146916635Y-92491092D01*
X146916628Y-92491079D01*
X146807139Y-92327218D01*
X146807136Y-92327214D01*
X146667785Y-92187863D01*
X146667781Y-92187860D01*
X146503920Y-92078371D01*
X146503907Y-92078364D01*
X146321839Y-92002950D01*
X146321829Y-92002947D01*
X146128543Y-91964500D01*
X146128541Y-91964500D01*
X145931459Y-91964500D01*
X145931457Y-91964500D01*
X145738170Y-92002947D01*
X145738160Y-92002950D01*
X145556092Y-92078364D01*
X145556079Y-92078371D01*
X145392218Y-92187860D01*
X145392214Y-92187863D01*
X145252863Y-92327214D01*
X145252860Y-92327218D01*
X145143371Y-92491079D01*
X145143364Y-92491092D01*
X145067950Y-92673160D01*
X145067947Y-92673170D01*
X145029500Y-92866456D01*
X145029500Y-92866459D01*
X145029500Y-93063541D01*
X145029500Y-93063543D01*
X145029499Y-93063543D01*
X144490500Y-93063543D01*
X144490500Y-92866456D01*
X144452052Y-92673170D01*
X144452051Y-92673169D01*
X144452051Y-92673165D01*
X144447921Y-92663195D01*
X144376635Y-92491092D01*
X144376628Y-92491079D01*
X144267139Y-92327218D01*
X144267136Y-92327214D01*
X144127785Y-92187863D01*
X144127781Y-92187860D01*
X143963920Y-92078371D01*
X143963907Y-92078364D01*
X143781839Y-92002950D01*
X143781829Y-92002947D01*
X143588543Y-91964500D01*
X143588541Y-91964500D01*
X143391459Y-91964500D01*
X143391457Y-91964500D01*
X143198170Y-92002947D01*
X143198160Y-92002950D01*
X143016092Y-92078364D01*
X143016079Y-92078371D01*
X142852218Y-92187860D01*
X142852214Y-92187863D01*
X142712863Y-92327214D01*
X142712860Y-92327218D01*
X142603371Y-92491079D01*
X142603364Y-92491092D01*
X142527950Y-92673160D01*
X142527947Y-92673170D01*
X142489500Y-92866456D01*
X142489500Y-92866459D01*
X142489500Y-93063541D01*
X142489500Y-93063543D01*
X142489499Y-93063543D01*
X141950500Y-93063543D01*
X141950500Y-92866456D01*
X141912052Y-92673170D01*
X141912051Y-92673169D01*
X141912051Y-92673165D01*
X141907921Y-92663195D01*
X141836635Y-92491092D01*
X141836628Y-92491079D01*
X141727139Y-92327218D01*
X141727136Y-92327214D01*
X141587785Y-92187863D01*
X141587781Y-92187860D01*
X141423920Y-92078371D01*
X141423907Y-92078364D01*
X141241839Y-92002950D01*
X141241829Y-92002947D01*
X141048543Y-91964500D01*
X141048541Y-91964500D01*
X140851459Y-91964500D01*
X140851457Y-91964500D01*
X140658170Y-92002947D01*
X140658160Y-92002950D01*
X140476092Y-92078364D01*
X140476079Y-92078371D01*
X140312218Y-92187860D01*
X140312214Y-92187863D01*
X140172863Y-92327214D01*
X140172860Y-92327218D01*
X140063371Y-92491079D01*
X140063364Y-92491092D01*
X139987950Y-92673160D01*
X139987947Y-92673170D01*
X139949500Y-92866456D01*
X139949500Y-92866459D01*
X139949500Y-93063541D01*
X139949500Y-93063543D01*
X139949499Y-93063543D01*
X139079627Y-93063543D01*
X139135505Y-93007665D01*
X139204688Y-92887836D01*
X139240500Y-92754183D01*
X139240500Y-92615817D01*
X139204688Y-92482164D01*
X139135505Y-92362335D01*
X139037665Y-92264495D01*
X139037664Y-92264494D01*
X139037661Y-92264492D01*
X138917838Y-92195313D01*
X138917837Y-92195312D01*
X138917836Y-92195312D01*
X138784183Y-92159500D01*
X138645817Y-92159500D01*
X138512164Y-92195312D01*
X138512161Y-92195313D01*
X138392338Y-92264492D01*
X138392333Y-92264496D01*
X138294496Y-92362333D01*
X138294492Y-92362338D01*
X138225313Y-92482161D01*
X138225312Y-92482164D01*
X138189500Y-92615817D01*
X137052119Y-92615817D01*
X137010563Y-92567860D01*
X137005577Y-92562376D01*
X136936854Y-92520486D01*
X136936848Y-92520483D01*
X136869812Y-92500799D01*
X136869802Y-92500797D01*
X136826003Y-92494500D01*
X136826000Y-92494500D01*
X136374000Y-92494500D01*
X136373991Y-92494500D01*
X136340944Y-92498054D01*
X136289433Y-92509260D01*
X136220660Y-92543685D01*
X136220654Y-92543689D01*
X136193022Y-92567630D01*
X136193023Y-92567631D01*
X136187163Y-92572707D01*
X136181496Y-92576496D01*
X136179712Y-92579163D01*
X136169756Y-92587791D01*
X136169757Y-92587791D01*
X136167864Y-92589431D01*
X136162378Y-92594420D01*
X136162376Y-92594422D01*
X136120486Y-92663145D01*
X136120483Y-92663151D01*
X136100799Y-92730187D01*
X136100797Y-92730197D01*
X136094500Y-92773996D01*
X136094500Y-94372582D01*
X136090029Y-94388720D01*
X136090495Y-94403840D01*
X136076828Y-94436381D01*
X136027527Y-94518547D01*
X135976704Y-94565632D01*
X135920656Y-94593687D01*
X135867860Y-94639436D01*
X135862376Y-94644422D01*
X135831671Y-94694795D01*
X135779970Y-94741792D01*
X135711067Y-94753377D01*
X135701606Y-94751872D01*
X135689680Y-94749500D01*
X135689674Y-94749500D01*
X135380326Y-94749500D01*
X135380323Y-94749500D01*
X135307264Y-94764032D01*
X135307257Y-94764035D01*
X135278595Y-94783186D01*
X135211917Y-94804063D01*
X135144537Y-94785577D01*
X135122025Y-94767764D01*
X134851897Y-94497636D01*
X134759829Y-94459500D01*
X134759828Y-94459500D01*
X134676360Y-94459500D01*
X134609321Y-94439815D01*
X134600871Y-94433874D01*
X134595214Y-94429533D01*
X134595212Y-94429531D01*
X134595208Y-94429529D01*
X134595206Y-94429527D01*
X134515293Y-94383388D01*
X134515290Y-94383387D01*
X134515289Y-94383386D01*
X134515288Y-94383386D01*
X134426144Y-94359500D01*
X134333856Y-94359500D01*
X134244712Y-94383386D01*
X134244711Y-94383386D01*
X134244709Y-94383387D01*
X134244706Y-94383388D01*
X134164794Y-94429526D01*
X134164785Y-94429533D01*
X134099533Y-94494785D01*
X134099526Y-94494794D01*
X134053388Y-94574706D01*
X134053387Y-94574709D01*
X134053386Y-94574711D01*
X134053386Y-94574712D01*
X134029500Y-94663856D01*
X133400346Y-94663856D01*
X133360473Y-94594794D01*
X133360470Y-94594791D01*
X133360469Y-94594788D01*
X133295212Y-94529531D01*
X133295209Y-94529529D01*
X133295205Y-94529526D01*
X133215293Y-94483388D01*
X133215290Y-94483387D01*
X133215289Y-94483386D01*
X133215288Y-94483386D01*
X133126144Y-94459500D01*
X133033856Y-94459500D01*
X132944712Y-94483386D01*
X132944711Y-94483386D01*
X132944709Y-94483387D01*
X132944708Y-94483387D01*
X132902565Y-94507719D01*
X132834665Y-94524192D01*
X132771675Y-94503435D01*
X132697739Y-94454033D01*
X132697735Y-94454032D01*
X132624677Y-94439500D01*
X132624674Y-94439500D01*
X132375326Y-94439500D01*
X132375323Y-94439500D01*
X132302264Y-94454032D01*
X132302260Y-94454033D01*
X132219399Y-94509399D01*
X132164033Y-94592260D01*
X132164032Y-94592264D01*
X132149500Y-94665321D01*
X132148903Y-94671386D01*
X132146376Y-94671137D01*
X132129815Y-94727539D01*
X132077011Y-94773294D01*
X132025500Y-94784500D01*
X131390816Y-94784500D01*
X131323777Y-94764815D01*
X131321952Y-94763620D01*
X131247740Y-94714034D01*
X131247739Y-94714033D01*
X131247735Y-94714032D01*
X131174677Y-94699500D01*
X131174674Y-94699500D01*
X130865326Y-94699500D01*
X130821706Y-94708176D01*
X130752114Y-94701947D01*
X130718960Y-94682501D01*
X130707575Y-94673179D01*
X130706313Y-94670658D01*
X130660558Y-94617854D01*
X130655580Y-94612379D01*
X130586850Y-94570484D01*
X130579521Y-94568331D01*
X130563616Y-94555309D01*
X130553016Y-94539786D01*
X130538666Y-94527649D01*
X130531269Y-94514831D01*
X130518589Y-94489472D01*
X130505500Y-94434021D01*
X130505500Y-92774008D01*
X130505499Y-92773996D01*
X130501946Y-92740945D01*
X130490740Y-92689434D01*
X130490739Y-92689432D01*
X130489091Y-92681856D01*
X130489280Y-92681814D01*
X130487152Y-92673521D01*
X130485500Y-92663501D01*
X130485500Y-92655180D01*
X130476767Y-92611278D01*
X130469777Y-92600817D01*
X131634500Y-92600817D01*
X131634500Y-92739183D01*
X131668604Y-92866459D01*
X131670312Y-92872835D01*
X131670313Y-92872838D01*
X131739492Y-92992661D01*
X131739494Y-92992664D01*
X131739495Y-92992665D01*
X131837335Y-93090505D01*
X131837336Y-93090506D01*
X131837338Y-93090507D01*
X131867119Y-93107701D01*
X131957164Y-93159688D01*
X132090817Y-93195500D01*
X132090819Y-93195500D01*
X132229181Y-93195500D01*
X132229183Y-93195500D01*
X132362836Y-93159688D01*
X132482665Y-93090505D01*
X132580505Y-92992665D01*
X132649688Y-92872836D01*
X132685500Y-92739183D01*
X132685500Y-92615817D01*
X133939500Y-92615817D01*
X133939500Y-92754183D01*
X133971294Y-92872838D01*
X133975312Y-92887835D01*
X133975313Y-92887838D01*
X134044492Y-93007661D01*
X134044494Y-93007664D01*
X134044495Y-93007665D01*
X134142335Y-93105505D01*
X134142336Y-93105506D01*
X134142338Y-93105507D01*
X134152045Y-93111111D01*
X134262164Y-93174688D01*
X134395817Y-93210500D01*
X134395819Y-93210500D01*
X134534181Y-93210500D01*
X134534183Y-93210500D01*
X134667836Y-93174688D01*
X134787665Y-93105505D01*
X134885505Y-93007665D01*
X134954688Y-92887836D01*
X134990500Y-92754183D01*
X134990500Y-92615817D01*
X134954688Y-92482164D01*
X134885505Y-92362335D01*
X134787665Y-92264495D01*
X134787664Y-92264494D01*
X134787661Y-92264492D01*
X134667838Y-92195313D01*
X134667837Y-92195312D01*
X134667836Y-92195312D01*
X134534183Y-92159500D01*
X134395817Y-92159500D01*
X134262164Y-92195312D01*
X134262161Y-92195313D01*
X134142338Y-92264492D01*
X134142333Y-92264496D01*
X134044496Y-92362333D01*
X134044492Y-92362338D01*
X133975313Y-92482161D01*
X133975312Y-92482164D01*
X133939500Y-92615817D01*
X132685500Y-92615817D01*
X132685500Y-92600817D01*
X132649688Y-92467164D01*
X132580505Y-92347335D01*
X132482665Y-92249495D01*
X132482664Y-92249494D01*
X132482661Y-92249492D01*
X132362838Y-92180313D01*
X132362837Y-92180312D01*
X132362836Y-92180312D01*
X132229183Y-92144500D01*
X132090817Y-92144500D01*
X131957164Y-92180312D01*
X131957161Y-92180313D01*
X131837338Y-92249492D01*
X131837333Y-92249496D01*
X131739496Y-92347333D01*
X131739492Y-92347338D01*
X131670313Y-92467161D01*
X131670312Y-92467164D01*
X131634500Y-92600817D01*
X130469777Y-92600817D01*
X130443504Y-92561496D01*
X130416851Y-92543687D01*
X130393724Y-92528234D01*
X130393717Y-92528231D01*
X130349822Y-92519499D01*
X130343760Y-92518903D01*
X130343807Y-92518418D01*
X130316393Y-92514477D01*
X130269812Y-92500799D01*
X130269802Y-92500797D01*
X130226003Y-92494500D01*
X130226000Y-92494500D01*
X129774000Y-92494500D01*
X129773991Y-92494500D01*
X129740944Y-92498054D01*
X129689433Y-92509260D01*
X129620657Y-92543686D01*
X129567860Y-92589436D01*
X129562376Y-92594422D01*
X129520486Y-92663145D01*
X129520483Y-92663151D01*
X129500799Y-92730187D01*
X129500797Y-92730197D01*
X129494500Y-92773996D01*
X129494500Y-94372582D01*
X129490029Y-94388720D01*
X129490495Y-94403840D01*
X129476828Y-94436381D01*
X129427527Y-94518547D01*
X129376704Y-94565632D01*
X129320656Y-94593687D01*
X129267860Y-94639436D01*
X129262376Y-94644422D01*
X129262374Y-94644424D01*
X129258309Y-94651094D01*
X129206606Y-94698089D01*
X129137702Y-94709670D01*
X129128243Y-94708166D01*
X129084674Y-94699500D01*
X128870000Y-94699500D01*
X128870000Y-94570000D01*
X128250000Y-94570000D01*
X128240000Y-94580000D01*
X128240000Y-94796710D01*
X128182461Y-94779815D01*
X128136706Y-94727011D01*
X128125500Y-94675500D01*
X128125500Y-94664008D01*
X128125499Y-94663991D01*
X128121946Y-94630945D01*
X128110740Y-94579434D01*
X128085758Y-94529526D01*
X128076313Y-94510657D01*
X128030563Y-94457860D01*
X128027084Y-94454034D01*
X128025580Y-94452379D01*
X128025579Y-94452378D01*
X128025577Y-94452376D01*
X127956854Y-94410486D01*
X127956848Y-94410483D01*
X127889812Y-94390799D01*
X127889802Y-94390797D01*
X127846003Y-94384500D01*
X127846000Y-94384500D01*
X126301362Y-94384500D01*
X126284754Y-94385390D01*
X126284745Y-94385390D01*
X126284739Y-94385391D01*
X126284733Y-94385391D01*
X126284702Y-94385394D01*
X126258382Y-94388224D01*
X126211553Y-94402888D01*
X126141694Y-94404135D01*
X126082251Y-94367416D01*
X126052097Y-94304388D01*
X126050500Y-94284553D01*
X126050500Y-92600817D01*
X127384500Y-92600817D01*
X127384500Y-92739183D01*
X127418604Y-92866459D01*
X127420312Y-92872835D01*
X127420313Y-92872838D01*
X127489492Y-92992661D01*
X127489494Y-92992664D01*
X127489495Y-92992665D01*
X127587335Y-93090505D01*
X127587336Y-93090506D01*
X127587338Y-93090507D01*
X127617119Y-93107701D01*
X127707164Y-93159688D01*
X127840817Y-93195500D01*
X127840819Y-93195500D01*
X127979181Y-93195500D01*
X127979183Y-93195500D01*
X128112836Y-93159688D01*
X128232665Y-93090505D01*
X128330505Y-92992665D01*
X128399688Y-92872836D01*
X128435500Y-92739183D01*
X128435500Y-92600817D01*
X128399688Y-92467164D01*
X128330505Y-92347335D01*
X128232665Y-92249495D01*
X128232664Y-92249494D01*
X128232661Y-92249492D01*
X128112838Y-92180313D01*
X128112837Y-92180312D01*
X128112836Y-92180312D01*
X127979183Y-92144500D01*
X127840817Y-92144500D01*
X127707164Y-92180312D01*
X127707161Y-92180313D01*
X127587338Y-92249492D01*
X127587333Y-92249496D01*
X127489496Y-92347333D01*
X127489492Y-92347338D01*
X127420313Y-92467161D01*
X127420312Y-92467164D01*
X127384500Y-92600817D01*
X126050500Y-92600817D01*
X126050500Y-91294500D01*
X126070185Y-91227461D01*
X126122989Y-91181706D01*
X126174500Y-91170500D01*
X152125500Y-91170500D01*
X152192539Y-91190185D01*
G37*
%TD.AperFunction*%
%TA.AperFunction,Conductor*%
G36*
X127229500Y-103280427D02*
G01*
X127209815Y-103347466D01*
X127157011Y-103393221D01*
X127087853Y-103403165D01*
X127073408Y-103400202D01*
X126996145Y-103379500D01*
X126996144Y-103379500D01*
X126903856Y-103379500D01*
X126814712Y-103403386D01*
X126814711Y-103403386D01*
X126814709Y-103403387D01*
X126814706Y-103403388D01*
X126734794Y-103449526D01*
X126734785Y-103449533D01*
X126669533Y-103514785D01*
X126669526Y-103514794D01*
X126623388Y-103594706D01*
X126623387Y-103594709D01*
X126623386Y-103594711D01*
X126623386Y-103594712D01*
X126604631Y-103664706D01*
X126599500Y-103683856D01*
X126599500Y-103776142D01*
X126600561Y-103784200D01*
X126598503Y-103784470D01*
X126597104Y-103843257D01*
X126557941Y-103901119D01*
X126493713Y-103928623D01*
X126478992Y-103929500D01*
X126174500Y-103929500D01*
X126107461Y-103909815D01*
X126061706Y-103857011D01*
X126050500Y-103805500D01*
X126050500Y-103280000D01*
X127229500Y-103280000D01*
X127229500Y-103280427D01*
G37*
%TD.AperFunction*%
%TA.AperFunction,Conductor*%
G36*
X127172539Y-101850185D02*
G01*
X127218294Y-101902989D01*
X127229500Y-101954500D01*
X127229500Y-101970000D01*
X126050500Y-101970000D01*
X126050500Y-101954500D01*
X126070185Y-101887461D01*
X126122989Y-101841706D01*
X126174500Y-101830500D01*
X127105500Y-101830500D01*
X127172539Y-101850185D01*
G37*
%TD.AperFunction*%
%TD*%
%TA.AperFunction,Conductor*%
%TO.N,Net-(S1-NO)*%
G36*
X130293039Y-92669685D02*
G01*
X130338794Y-92722489D01*
X130350000Y-92774000D01*
X130350000Y-94500001D01*
X130449998Y-94699998D01*
X130449999Y-94699999D01*
X130450000Y-94700000D01*
X130476000Y-94700000D01*
X130543039Y-94719685D01*
X130588794Y-94772489D01*
X130600000Y-94824000D01*
X130600000Y-95226000D01*
X130580315Y-95293039D01*
X130527511Y-95338794D01*
X130476000Y-95350000D01*
X129474000Y-95350000D01*
X129406961Y-95330315D01*
X129361206Y-95277511D01*
X129350000Y-95226000D01*
X129350000Y-94824000D01*
X129369685Y-94756961D01*
X129422489Y-94711206D01*
X129474000Y-94700000D01*
X129500001Y-94700000D01*
X129500000Y-94699999D01*
X129650000Y-94450000D01*
X129650000Y-92774000D01*
X129669685Y-92706961D01*
X129722489Y-92661206D01*
X129774000Y-92650000D01*
X130226000Y-92650000D01*
X130293039Y-92669685D01*
G37*
%TD.AperFunction*%
%TD*%
%TA.AperFunction,Conductor*%
%TO.N,Net-(S2-NO)*%
G36*
X136893039Y-92669685D02*
G01*
X136938794Y-92722489D01*
X136950000Y-92774000D01*
X136950000Y-94500001D01*
X137049998Y-94699998D01*
X137049999Y-94699999D01*
X137050000Y-94700000D01*
X137076000Y-94700000D01*
X137143039Y-94719685D01*
X137188794Y-94772489D01*
X137200000Y-94824000D01*
X137200000Y-95226000D01*
X137180315Y-95293039D01*
X137127511Y-95338794D01*
X137076000Y-95350000D01*
X136074000Y-95350000D01*
X136006961Y-95330315D01*
X135961206Y-95277511D01*
X135950000Y-95226000D01*
X135950000Y-94824000D01*
X135969685Y-94756961D01*
X136022489Y-94711206D01*
X136074000Y-94700000D01*
X136100001Y-94700000D01*
X136100000Y-94699999D01*
X136250000Y-94450000D01*
X136250000Y-92774000D01*
X136269685Y-92706961D01*
X136322489Y-92661206D01*
X136374000Y-92650000D01*
X136826000Y-92650000D01*
X136893039Y-92669685D01*
G37*
%TD.AperFunction*%
%TD*%
%TA.AperFunction,Conductor*%
%TO.N,+3.3V*%
G36*
X142143039Y-95219685D02*
G01*
X142188794Y-95272489D01*
X142200000Y-95324000D01*
X142200000Y-95615500D01*
X142180315Y-95682539D01*
X142127511Y-95728294D01*
X142076000Y-95739500D01*
X141825323Y-95739500D01*
X141752264Y-95754032D01*
X141752260Y-95754033D01*
X141668890Y-95809739D01*
X141602212Y-95830616D01*
X141534832Y-95812131D01*
X141531110Y-95809739D01*
X141447739Y-95754033D01*
X141447735Y-95754032D01*
X141374677Y-95739500D01*
X141374674Y-95739500D01*
X141172185Y-95739500D01*
X141105146Y-95719815D01*
X141059391Y-95667011D01*
X141048399Y-95622782D01*
X141031252Y-95331282D01*
X141046966Y-95263202D01*
X141096992Y-95214425D01*
X141155038Y-95200000D01*
X142076000Y-95200000D01*
X142143039Y-95219685D01*
G37*
%TD.AperFunction*%
%TD*%
%TA.AperFunction,Conductor*%
%TO.N,GND*%
G36*
X127229500Y-103280000D02*
G01*
X126050500Y-103280000D01*
X126050500Y-101970000D01*
X127229500Y-101970000D01*
X127229500Y-103280000D01*
G37*
%TD.AperFunction*%
%TD*%
%TA.AperFunction,Conductor*%
%TO.N,+3.3V*%
G36*
X127913039Y-94559685D02*
G01*
X127958794Y-94612489D01*
X127970000Y-94664000D01*
X127970000Y-96548638D01*
X127950315Y-96615677D01*
X127933681Y-96636319D01*
X127386319Y-97183681D01*
X127324996Y-97217166D01*
X127298638Y-97220000D01*
X126174500Y-97220000D01*
X126107461Y-97200315D01*
X126061706Y-97147511D01*
X126050500Y-97096000D01*
X126050500Y-94790862D01*
X126059144Y-94761421D01*
X126065668Y-94731435D01*
X126069422Y-94726419D01*
X126070185Y-94723823D01*
X126086819Y-94703181D01*
X126213681Y-94576319D01*
X126275004Y-94542834D01*
X126301362Y-94540000D01*
X127846000Y-94540000D01*
X127913039Y-94559685D01*
G37*
%TD.AperFunction*%
%TD*%
%TA.AperFunction,Conductor*%
%TO.N,+3.3V*%
G36*
X139741527Y-104509685D02*
G01*
X139787282Y-104562489D01*
X139798479Y-104615503D01*
X139780758Y-106077433D01*
X139760262Y-106144229D01*
X139729221Y-106176560D01*
X139061468Y-106657342D01*
X138995561Y-106680539D01*
X138991228Y-106680692D01*
X136792324Y-106719958D01*
X136787679Y-106719954D01*
X136403841Y-106712428D01*
X136337200Y-106691433D01*
X136292490Y-106637742D01*
X136282293Y-106586156D01*
X136289879Y-106176560D01*
X136297746Y-105751703D01*
X136318669Y-105685041D01*
X136372311Y-105640271D01*
X136421725Y-105630000D01*
X138020000Y-105630000D01*
X138133065Y-105518884D01*
X138187883Y-105487552D01*
X138215989Y-105480021D01*
X138284511Y-105440460D01*
X138340460Y-105384511D01*
X138380021Y-105315989D01*
X138385749Y-105294610D01*
X138418605Y-105238267D01*
X139143816Y-104525559D01*
X139205428Y-104492609D01*
X139230731Y-104490000D01*
X139674488Y-104490000D01*
X139741527Y-104509685D01*
G37*
%TD.AperFunction*%
%TD*%
%TA.AperFunction,Conductor*%
%TO.N,GND*%
G36*
X128604974Y-95320185D02*
G01*
X128610624Y-95324738D01*
X128619399Y-95330601D01*
X128702260Y-95385966D01*
X128702263Y-95385966D01*
X128702264Y-95385967D01*
X128775321Y-95400499D01*
X128775324Y-95400500D01*
X128870000Y-95400500D01*
X128870000Y-100110000D01*
X128750000Y-100230000D01*
X127890000Y-100230000D01*
X127840000Y-100180000D01*
X127840000Y-97660000D01*
X128240000Y-97260000D01*
X128240000Y-95300500D01*
X128537935Y-95300500D01*
X128604974Y-95320185D01*
G37*
%TD.AperFunction*%
%TA.AperFunction,Conductor*%
G36*
X128870000Y-94699500D02*
G01*
X128775323Y-94699500D01*
X128702264Y-94714032D01*
X128702260Y-94714034D01*
X128609244Y-94776184D01*
X128607254Y-94773206D01*
X128564293Y-94796666D01*
X128537935Y-94799500D01*
X128240000Y-94799500D01*
X128240000Y-94580000D01*
X128250000Y-94570000D01*
X128870000Y-94570000D01*
X128870000Y-94699500D01*
G37*
%TD.AperFunction*%
%TD*%
M02*
